<?xml version="1.0" encoding="UTF-8" standalone="no"?>
<!DOCTYPE svg PUBLIC "-//W3C//DTD SVG 1.1//EN"
 "http://www.w3.org/Graphics/SVG/1.1/DTD/svg11.dtd">
<!-- Generated by graphviz version 2.38.0 (20140413.2041)
 -->
<!-- Title: src/Animation.cpp Pages: 1 -->
<svg width="760pt" height="308pt"
 viewBox="0.00 0.00 759.60 308.00" xmlns="http://www.w3.org/2000/svg" xmlns:xlink="http://www.w3.org/1999/xlink">
<g id="graph0" class="graph" transform="scale(1 1) rotate(0) translate(4 304)">
<title>src/Animation.cpp</title>
<polygon fill="white" stroke="none" points="-4,4 -4,-304 755.603,-304 755.603,4 -4,4"/>
<!-- Node0 -->
<g id="node1" class="node"><title>Node0</title>
<polygon fill="#bfbfbf" stroke="black" points="379.103,-280.5 379.103,-299.5 474.103,-299.5 474.103,-280.5 379.103,-280.5"/>
<text text-anchor="middle" x="426.603" y="-287.5" font-family="Helvetica,sans-Serif" font-size="10.00">src/Animation.cpp</text>
</g>
<!-- Node1 -->
<g id="node2" class="node"><title>Node1</title>
<g id="a_node2"><a xlink:href="Animation_8h.html" target="_top" xlink:title="Animation.h">
<polygon fill="white" stroke="black" points="338.603,-224.5 338.603,-243.5 406.603,-243.5 406.603,-224.5 338.603,-224.5"/>
<text text-anchor="middle" x="372.603" y="-231.5" font-family="Helvetica,sans-Serif" font-size="10.00">Animation.h</text>
</a>
</g>
</g>
<!-- Node0&#45;&gt;Node1 -->
<g id="edge1" class="edge"><title>Node0&#45;&gt;Node1</title>
<path fill="none" stroke="midnightblue" d="M417.686,-280.083C409.823,-272.22 398.172,-260.569 388.684,-251.081"/>
<polygon fill="midnightblue" stroke="midnightblue" points="390.9,-248.347 381.354,-243.751 385.95,-253.297 390.9,-248.347"/>
</g>
<!-- Node18 -->
<g id="node19" class="node"><title>Node18</title>
<g id="a_node19"><a xlink:href="Camera_8h.html" target="_top" xlink:title="Camera.h">
<polygon fill="white" stroke="black" points="452.103,-224.5 452.103,-243.5 511.103,-243.5 511.103,-224.5 452.103,-224.5"/>
<text text-anchor="middle" x="481.603" y="-231.5" font-family="Helvetica,sans-Serif" font-size="10.00">Camera.h</text>
</a>
</g>
</g>
<!-- Node0&#45;&gt;Node18 -->
<g id="edge30" class="edge"><title>Node0&#45;&gt;Node18</title>
<path fill="none" stroke="midnightblue" d="M435.685,-280.083C443.774,-272.141 455.799,-260.335 465.513,-250.797"/>
<polygon fill="midnightblue" stroke="midnightblue" points="468.006,-253.254 472.69,-243.751 463.102,-248.26 468.006,-253.254"/>
</g>
<!-- Node2 -->
<g id="node3" class="node"><title>Node2</title>
<g id="a_node3"><a xlink:href="GameObject_8h.html" target="_top" xlink:title="GameObject.h">
<polygon fill="white" stroke="black" points="151.603,-168.5 151.603,-187.5 231.603,-187.5 231.603,-168.5 151.603,-168.5"/>
<text text-anchor="middle" x="191.603" y="-175.5" font-family="Helvetica,sans-Serif" font-size="10.00">GameObject.h</text>
</a>
</g>
</g>
<!-- Node1&#45;&gt;Node2 -->
<g id="edge2" class="edge"><title>Node1&#45;&gt;Node2</title>
<path fill="none" stroke="midnightblue" d="M343.923,-224.444C313.076,-215.241 263.875,-200.562 229.774,-190.388"/>
<polygon fill="midnightblue" stroke="midnightblue" points="230.732,-187.021 220.149,-187.516 228.731,-193.729 230.732,-187.021"/>
</g>
<!-- Node12 -->
<g id="node13" class="node"><title>Node12</title>
<g id="a_node13"><a xlink:href="Sprite_8h.html" target="_top" xlink:title="Sprite.h">
<polygon fill="white" stroke="black" points="334.603,-168.5 334.603,-187.5 384.603,-187.5 384.603,-168.5 334.603,-168.5"/>
<text text-anchor="middle" x="359.603" y="-175.5" font-family="Helvetica,sans-Serif" font-size="10.00">Sprite.h</text>
</a>
</g>
</g>
<!-- Node1&#45;&gt;Node12 -->
<g id="edge16" class="edge"><title>Node1&#45;&gt;Node12</title>
<path fill="none" stroke="midnightblue" d="M370.456,-224.083C368.734,-216.927 366.256,-206.635 364.103,-197.691"/>
<polygon fill="midnightblue" stroke="midnightblue" points="367.453,-196.654 361.71,-187.751 360.648,-198.293 367.453,-196.654"/>
</g>
<!-- Node17 -->
<g id="node18" class="node"><title>Node17</title>
<g id="a_node18"><a xlink:href="Timer_8h.html" target="_top" xlink:title="Timer.h">
<polygon fill="white" stroke="black" points="402.603,-168.5 402.603,-187.5 452.603,-187.5 452.603,-168.5 402.603,-168.5"/>
<text text-anchor="middle" x="427.603" y="-175.5" font-family="Helvetica,sans-Serif" font-size="10.00">Timer.h</text>
</a>
</g>
</g>
<!-- Node1&#45;&gt;Node17 -->
<g id="edge29" class="edge"><title>Node1&#45;&gt;Node17</title>
<path fill="none" stroke="midnightblue" d="M381.685,-224.083C389.774,-216.141 401.799,-204.335 411.513,-194.797"/>
<polygon fill="midnightblue" stroke="midnightblue" points="414.006,-197.254 418.69,-187.751 409.102,-192.26 414.006,-197.254"/>
</g>
<!-- Node3 -->
<g id="node4" class="node"><title>Node3</title>
<g id="a_node4"><a xlink:href="SDL__include_8h.html" target="_top" xlink:title="SDL_include.h">
<polygon fill="white" stroke="black" points="391.603,-0.5 391.603,-19.5 471.603,-19.5 471.603,-0.5 391.603,-0.5"/>
<text text-anchor="middle" x="431.603" y="-7.5" font-family="Helvetica,sans-Serif" font-size="10.00">SDL_include.h</text>
</a>
</g>
</g>
<!-- Node2&#45;&gt;Node3 -->
<g id="edge3" class="edge"><title>Node2&#45;&gt;Node3</title>
<path fill="none" stroke="midnightblue" d="M151.231,-173.113C101.578,-167.402 21.6352,-154.858 3.60312,-132 -1.9023,-125.021 0.201489,-120.212 3.60312,-112 17.0729,-79.4811 27.9534,-71.4016 59.6031,-56 115.238,-28.9267 293.58,-17.2416 381.559,-13.024"/>
<polygon fill="midnightblue" stroke="midnightblue" points="381.745,-16.5192 391.572,-12.5577 381.42,-9.52681 381.745,-16.5192"/>
</g>
<!-- Node4 -->
<g id="node5" class="node"><title>Node4</title>
<polygon fill="white" stroke="#bfbfbf" points="12.6031,-112.5 12.6031,-131.5 56.6031,-131.5 56.6031,-112.5 12.6031,-112.5"/>
<text text-anchor="middle" x="34.6031" y="-119.5" font-family="Helvetica,sans-Serif" font-size="10.00">vector</text>
</g>
<!-- Node2&#45;&gt;Node4 -->
<g id="edge4" class="edge"><title>Node2&#45;&gt;Node4</title>
<path fill="none" stroke="midnightblue" d="M166.726,-168.444C139.537,-159.092 95.9084,-144.086 66.2891,-133.898"/>
<polygon fill="midnightblue" stroke="midnightblue" points="67.4201,-130.586 56.8254,-130.643 65.1433,-137.206 67.4201,-130.586"/>
</g>
<!-- Node5 -->
<g id="node6" class="node"><title>Node5</title>
<polygon fill="white" stroke="#bfbfbf" points="206.603,-112.5 206.603,-131.5 258.603,-131.5 258.603,-112.5 206.603,-112.5"/>
<text text-anchor="middle" x="232.603" y="-119.5" font-family="Helvetica,sans-Serif" font-size="10.00">memory</text>
</g>
<!-- Node2&#45;&gt;Node5 -->
<g id="edge5" class="edge"><title>Node2&#45;&gt;Node5</title>
<path fill="none" stroke="midnightblue" d="M198.373,-168.083C204.165,-160.455 212.662,-149.264 219.741,-139.941"/>
<polygon fill="midnightblue" stroke="midnightblue" points="222.699,-141.832 225.959,-131.751 217.124,-137.599 222.699,-141.832"/>
</g>
<!-- Node6 -->
<g id="node7" class="node"><title>Node6</title>
<polygon fill="white" stroke="#bfbfbf" points="277.103,-112.5 277.103,-131.5 318.103,-131.5 318.103,-112.5 277.103,-112.5"/>
<text text-anchor="middle" x="297.603" y="-119.5" font-family="Helvetica,sans-Serif" font-size="10.00">string</text>
</g>
<!-- Node2&#45;&gt;Node6 -->
<g id="edge6" class="edge"><title>Node2&#45;&gt;Node6</title>
<path fill="none" stroke="midnightblue" d="M208.634,-168.324C225.633,-159.664 251.979,-146.242 271.596,-136.249"/>
<polygon fill="midnightblue" stroke="midnightblue" points="273.293,-139.312 280.615,-131.655 270.115,-133.075 273.293,-139.312"/>
</g>
<!-- Node7 -->
<g id="node8" class="node"><title>Node7</title>
<g id="a_node8"><a xlink:href="Component_8h.html" target="_top" xlink:title="Component.h">
<polygon fill="white" stroke="black" points="113.103,-112.5 113.103,-131.5 188.103,-131.5 188.103,-112.5 113.103,-112.5"/>
<text text-anchor="middle" x="150.603" y="-119.5" font-family="Helvetica,sans-Serif" font-size="10.00">Component.h</text>
</a>
</g>
</g>
<!-- Node2&#45;&gt;Node7 -->
<g id="edge7" class="edge"><title>Node2&#45;&gt;Node7</title>
<path fill="none" stroke="midnightblue" d="M179.666,-168.083C172.419,-160.613 163.752,-149.724 157.54,-140.52"/>
<polygon fill="midnightblue" stroke="midnightblue" points="160.353,-138.415 152.116,-131.751 154.4,-142.097 160.353,-138.415"/>
</g>
<!-- Node8 -->
<g id="node9" class="node"><title>Node8</title>
<g id="a_node9"><a xlink:href="ComponentType_8h.html" target="_top" xlink:title="ComponentType.h">
<polygon fill="white" stroke="black" points="69.1031,-56.5 69.1031,-75.5 166.103,-75.5 166.103,-56.5 69.1031,-56.5"/>
<text text-anchor="middle" x="117.603" y="-63.5" font-family="Helvetica,sans-Serif" font-size="10.00">ComponentType.h</text>
</a>
</g>
</g>
<!-- Node2&#45;&gt;Node8 -->
<g id="edge10" class="edge"><title>Node2&#45;&gt;Node8</title>
<path fill="none" stroke="midnightblue" d="M155.751,-168.397C136.723,-161.81 114.976,-150.589 103.603,-132 94.7804,-117.579 100.634,-98.3849 107.26,-84.5986"/>
<polygon fill="midnightblue" stroke="midnightblue" points="110.408,-86.1326 112.022,-75.6614 104.23,-82.841 110.408,-86.1326"/>
</g>
<!-- Node9 -->
<g id="node10" class="node"><title>Node9</title>
<g id="a_node10"><a xlink:href="Rect_8h.html" target="_top" xlink:title="Rect.h">
<polygon fill="white" stroke="black" points="336.603,-112.5 336.603,-131.5 382.603,-131.5 382.603,-112.5 336.603,-112.5"/>
<text text-anchor="middle" x="359.603" y="-119.5" font-family="Helvetica,sans-Serif" font-size="10.00">Rect.h</text>
</a>
</g>
</g>
<!-- Node2&#45;&gt;Node9 -->
<g id="edge11" class="edge"><title>Node2&#45;&gt;Node9</title>
<path fill="none" stroke="midnightblue" d="M218.223,-168.444C247.611,-158.998 294.946,-143.783 326.652,-133.592"/>
<polygon fill="midnightblue" stroke="midnightblue" points="327.905,-136.865 336.354,-130.473 325.762,-130.201 327.905,-136.865"/>
</g>
<!-- Node7&#45;&gt;Node2 -->
<g id="edge9" class="edge"><title>Node7&#45;&gt;Node2</title>
<path fill="none" stroke="midnightblue" d="M162.378,-131.751C169.681,-139.248 178.462,-150.275 184.724,-159.566"/>
<polygon fill="midnightblue" stroke="midnightblue" points="181.758,-161.424 189.999,-168.083 187.71,-157.738 181.758,-161.424"/>
</g>
<!-- Node7&#45;&gt;Node8 -->
<g id="edge8" class="edge"><title>Node7&#45;&gt;Node8</title>
<path fill="none" stroke="midnightblue" d="M145.154,-112.083C140.589,-104.613 133.935,-93.7244 128.31,-84.5199"/>
<polygon fill="midnightblue" stroke="midnightblue" points="131.152,-82.4588 122.951,-75.7511 125.179,-86.109 131.152,-82.4588"/>
</g>
<!-- Node9&#45;&gt;Node3 -->
<g id="edge12" class="edge"><title>Node9&#45;&gt;Node3</title>
<path fill="none" stroke="midnightblue" d="M348.805,-112.296C334.327,-99.5449 311.838,-75.2166 324.603,-56 337.464,-36.6394 360.455,-25.5899 381.838,-19.2924"/>
<polygon fill="midnightblue" stroke="midnightblue" points="382.743,-22.6735 391.507,-16.7206 380.943,-15.9087 382.743,-22.6735"/>
</g>
<!-- Node10 -->
<g id="node11" class="node"><title>Node10</title>
<g id="a_node11"><a xlink:href="Vec2_8h.html" target="_top" xlink:title="Vec2.h">
<polygon fill="white" stroke="black" points="500.103,-56.5 500.103,-75.5 547.103,-75.5 547.103,-56.5 500.103,-56.5"/>
<text text-anchor="middle" x="523.603" y="-63.5" font-family="Helvetica,sans-Serif" font-size="10.00">Vec2.h</text>
</a>
</g>
</g>
<!-- Node9&#45;&gt;Node10 -->
<g id="edge13" class="edge"><title>Node9&#45;&gt;Node10</title>
<path fill="none" stroke="midnightblue" d="M382.752,-113.378C410.797,-104.143 458.252,-88.518 490.242,-77.9848"/>
<polygon fill="midnightblue" stroke="midnightblue" points="491.637,-81.2104 500.04,-74.7584 489.447,-74.5616 491.637,-81.2104"/>
</g>
<!-- Node11 -->
<g id="node12" class="node"><title>Node11</title>
<polygon fill="white" stroke="#bfbfbf" points="333.603,-56.5 333.603,-75.5 377.603,-75.5 377.603,-56.5 333.603,-56.5"/>
<text text-anchor="middle" x="355.603" y="-63.5" font-family="Helvetica,sans-Serif" font-size="10.00">cmath</text>
</g>
<!-- Node9&#45;&gt;Node11 -->
<g id="edge15" class="edge"><title>Node9&#45;&gt;Node11</title>
<path fill="none" stroke="midnightblue" d="M358.943,-112.083C358.418,-105.006 357.667,-94.8611 357.01,-85.9865"/>
<polygon fill="midnightblue" stroke="midnightblue" points="360.481,-85.4652 356.251,-75.7511 353.5,-85.9823 360.481,-85.4652"/>
</g>
<!-- Node10&#45;&gt;Node3 -->
<g id="edge14" class="edge"><title>Node10&#45;&gt;Node3</title>
<path fill="none" stroke="midnightblue" d="M508.822,-56.324C494.336,-47.8215 472.03,-34.7288 455.11,-24.7975"/>
<polygon fill="midnightblue" stroke="midnightblue" points="456.744,-21.6981 446.348,-19.6545 453.2,-27.735 456.744,-21.6981"/>
</g>
<!-- Node12&#45;&gt;Node3 -->
<g id="edge17" class="edge"><title>Node12&#45;&gt;Node3</title>
<path fill="none" stroke="midnightblue" d="M367.073,-168.206C374.175,-159.487 384.761,-145.513 391.603,-132 409.032,-97.5787 421.277,-53.9066 427.313,-29.5585"/>
<polygon fill="midnightblue" stroke="midnightblue" points="430.783,-30.0982 429.71,-19.5579 423.975,-28.4668 430.783,-30.0982"/>
</g>
<!-- Node12&#45;&gt;Node5 -->
<g id="edge19" class="edge"><title>Node12&#45;&gt;Node5</title>
<path fill="none" stroke="midnightblue" d="M339.48,-168.444C318.579,-159.557 285.668,-145.563 261.887,-135.451"/>
<polygon fill="midnightblue" stroke="midnightblue" points="263.205,-132.208 252.632,-131.516 260.466,-138.65 263.205,-132.208"/>
</g>
<!-- Node12&#45;&gt;Node6 -->
<g id="edge18" class="edge"><title>Node12&#45;&gt;Node6</title>
<path fill="none" stroke="midnightblue" d="M349.642,-168.324C340.477,-160.341 326.666,-148.313 315.575,-138.653"/>
<polygon fill="midnightblue" stroke="midnightblue" points="317.585,-135.762 307.746,-131.834 312.988,-141.041 317.585,-135.762"/>
</g>
<!-- Node12&#45;&gt;Node7 -->
<g id="edge20" class="edge"><title>Node12&#45;&gt;Node7</title>
<path fill="none" stroke="midnightblue" d="M334.393,-170.486C299.515,-161.475 236.051,-145.078 193.604,-134.11"/>
<polygon fill="midnightblue" stroke="midnightblue" points="194.383,-130.697 183.825,-131.584 192.632,-137.474 194.383,-130.697"/>
</g>
<!-- Node12&#45;&gt;Node9 -->
<g id="edge23" class="edge"><title>Node12&#45;&gt;Node9</title>
<path fill="none" stroke="midnightblue" d="M359.603,-168.083C359.603,-161.006 359.603,-150.861 359.603,-141.986"/>
<polygon fill="midnightblue" stroke="midnightblue" points="363.103,-141.751 359.603,-131.751 356.103,-141.751 363.103,-141.751"/>
</g>
<!-- Node13 -->
<g id="node14" class="node"><title>Node13</title>
<g id="a_node14"><a xlink:href="Color_8h.html" target="_top" xlink:title="Color.h">
<polygon fill="white" stroke="black" points="433.603,-56.5 433.603,-75.5 481.603,-75.5 481.603,-56.5 433.603,-56.5"/>
<text text-anchor="middle" x="457.603" y="-63.5" font-family="Helvetica,sans-Serif" font-size="10.00">Color.h</text>
</a>
</g>
</g>
<!-- Node12&#45;&gt;Node13 -->
<g id="edge21" class="edge"><title>Node12&#45;&gt;Node13</title>
<path fill="none" stroke="midnightblue" d="M376.56,-168.38C390.81,-160.465 410.976,-147.615 424.603,-132 436.672,-118.171 445.657,-99.1488 451.18,-85.2563"/>
<polygon fill="midnightblue" stroke="midnightblue" points="454.49,-86.3958 454.721,-75.8035 447.935,-83.9398 454.49,-86.3958"/>
</g>
<!-- Node14 -->
<g id="node15" class="node"><title>Node14</title>
<g id="a_node15"><a xlink:href="InputManager_8h.html" target="_top" xlink:title="InputManager.h">
<polygon fill="white" stroke="black" points="529.603,-112.5 529.603,-131.5 613.603,-131.5 613.603,-112.5 529.603,-112.5"/>
<text text-anchor="middle" x="571.603" y="-119.5" font-family="Helvetica,sans-Serif" font-size="10.00">InputManager.h</text>
</a>
</g>
</g>
<!-- Node12&#45;&gt;Node14 -->
<g id="edge24" class="edge"><title>Node12&#45;&gt;Node14</title>
<path fill="none" stroke="midnightblue" d="M384.846,-170.285C387.797,-169.509 390.766,-168.734 393.603,-168 439.298,-156.176 491.686,-142.975 527.735,-133.946"/>
<polygon fill="midnightblue" stroke="midnightblue" points="528.599,-137.337 537.45,-131.514 526.9,-130.547 528.599,-137.337"/>
</g>
<!-- Node13&#45;&gt;Node3 -->
<g id="edge22" class="edge"><title>Node13&#45;&gt;Node3</title>
<path fill="none" stroke="midnightblue" d="M453.31,-56.083C449.751,-48.6913 444.581,-37.9533 440.179,-28.8111"/>
<polygon fill="midnightblue" stroke="midnightblue" points="443.308,-27.2427 435.817,-19.7511 437.001,-30.2795 443.308,-27.2427"/>
</g>
<!-- Node14&#45;&gt;Node3 -->
<g id="edge25" class="edge"><title>Node14&#45;&gt;Node3</title>
<path fill="none" stroke="midnightblue" d="M571.91,-112.242C571.908,-98.5261 569.895,-71.9058 555.603,-56 536.685,-34.946 507.131,-23.7324 481.621,-17.765"/>
<polygon fill="midnightblue" stroke="midnightblue" points="482.22,-14.3141 471.71,-15.6552 480.762,-21.1607 482.22,-14.3141"/>
</g>
<!-- Node14&#45;&gt;Node10 -->
<g id="edge26" class="edge"><title>Node14&#45;&gt;Node10</title>
<path fill="none" stroke="midnightblue" d="M563.677,-112.083C556.757,-104.298 546.538,-92.8015 538.151,-83.3665"/>
<polygon fill="midnightblue" stroke="midnightblue" points="540.641,-80.8999 531.382,-75.7511 535.41,-85.5505 540.641,-80.8999"/>
</g>
<!-- Node15 -->
<g id="node16" class="node"><title>Node15</title>
<polygon fill="white" stroke="#bfbfbf" points="604.103,-56.5 604.103,-75.5 687.103,-75.5 687.103,-56.5 604.103,-56.5"/>
<text text-anchor="middle" x="645.603" y="-63.5" font-family="Helvetica,sans-Serif" font-size="10.00">unordered_map</text>
</g>
<!-- Node14&#45;&gt;Node15 -->
<g id="edge27" class="edge"><title>Node14&#45;&gt;Node15</title>
<path fill="none" stroke="midnightblue" d="M583.492,-112.324C594.753,-104.107 611.89,-91.6017 625.312,-81.8069"/>
<polygon fill="midnightblue" stroke="midnightblue" points="627.483,-84.5559 633.497,-75.8339 623.356,-78.9014 627.483,-84.5559"/>
</g>
<!-- Node16 -->
<g id="node17" class="node"><title>Node16</title>
<polygon fill="white" stroke="#bfbfbf" points="705.603,-56.5 705.603,-75.5 751.603,-75.5 751.603,-56.5 705.603,-56.5"/>
<text text-anchor="middle" x="728.603" y="-63.5" font-family="Helvetica,sans-Serif" font-size="10.00">cstdint</text>
</g>
<!-- Node14&#45;&gt;Node16 -->
<g id="edge28" class="edge"><title>Node14&#45;&gt;Node16</title>
<path fill="none" stroke="midnightblue" d="M596.48,-112.444C623.358,-103.199 666.303,-88.4281 695.896,-78.2495"/>
<polygon fill="midnightblue" stroke="midnightblue" points="697.06,-81.5506 705.378,-74.9883 694.783,-74.9312 697.06,-81.5506"/>
</g>
<!-- Node18&#45;&gt;Node2 -->
<g id="edge31" class="edge"><title>Node18&#45;&gt;Node2</title>
<path fill="none" stroke="midnightblue" d="M451.931,-227.475C402.531,-218.276 302.874,-199.719 242.207,-188.423"/>
<polygon fill="midnightblue" stroke="midnightblue" points="242.559,-184.928 232.087,-186.538 241.278,-191.81 242.559,-184.928"/>
</g>
<!-- Node18&#45;&gt;Node10 -->
<g id="edge32" class="edge"><title>Node18&#45;&gt;Node10</title>
<path fill="none" stroke="midnightblue" d="M483.861,-224.075C490.472,-197.945 509.887,-121.211 518.903,-85.577"/>
<polygon fill="midnightblue" stroke="midnightblue" points="522.375,-86.1211 521.435,-75.5681 515.589,-84.4041 522.375,-86.1211"/>
</g>
<!-- Node19 -->
<g id="node20" class="node"><title>Node19</title>
<g id="a_node20"><a xlink:href="ActionManager_8h.html" target="_top" xlink:title="ActionManager.h">
<polygon fill="white" stroke="black" points="524.603,-168.5 524.603,-187.5 614.603,-187.5 614.603,-168.5 524.603,-168.5"/>
<text text-anchor="middle" x="569.603" y="-175.5" font-family="Helvetica,sans-Serif" font-size="10.00">ActionManager.h</text>
</a>
</g>
</g>
<!-- Node18&#45;&gt;Node19 -->
<g id="edge33" class="edge"><title>Node18&#45;&gt;Node19</title>
<path fill="none" stroke="midnightblue" d="M495.742,-224.324C509.469,-215.9 530.539,-202.971 546.667,-193.074"/>
<polygon fill="midnightblue" stroke="midnightblue" points="548.807,-195.868 555.499,-187.655 545.146,-189.902 548.807,-195.868"/>
</g>
<!-- Node19&#45;&gt;Node14 -->
<g id="edge34" class="edge"><title>Node19&#45;&gt;Node14</title>
<path fill="none" stroke="midnightblue" d="M569.933,-168.083C570.195,-161.006 570.571,-150.861 570.9,-141.986"/>
<polygon fill="midnightblue" stroke="midnightblue" points="574.406,-141.874 571.279,-131.751 567.411,-141.615 574.406,-141.874"/>
</g>
</g>
</svg>
