<?xml version="1.0" encoding="UTF-8" standalone="no"?>
<!DOCTYPE svg PUBLIC "-//W3C//DTD SVG 1.1//EN"
 "http://www.w3.org/Graphics/SVG/1.1/DTD/svg11.dtd">
<!-- Generated by graphviz version 2.38.0 (20140413.2041)
 -->
<!-- Title: src/Animation.cpp Pages: 1 -->
<svg width="760pt" height="308pt"
 viewBox="0.00 0.00 759.83 308.00" xmlns="http://www.w3.org/2000/svg" xmlns:xlink="http://www.w3.org/1999/xlink">
<g id="graph0" class="graph" transform="scale(1 1) rotate(0) translate(4 304)">
<title>src/Animation.cpp</title>
<polygon fill="white" stroke="none" points="-4,4 -4,-304 755.829,-304 755.829,4 -4,4"/>
<!-- Node0 -->
<g id="node1" class="node"><title>Node0</title>
<polygon fill="#bfbfbf" stroke="black" points="383.329,-280.5 383.329,-299.5 478.329,-299.5 478.329,-280.5 383.329,-280.5"/>
<text text-anchor="middle" x="430.829" y="-287.5" font-family="Helvetica,sans-Serif" font-size="10.00">src/Animation.cpp</text>
</g>
<!-- Node1 -->
<g id="node2" class="node"><title>Node1</title>
<g id="a_node2"><a xlink:href="Animation_8h.html" target="_top" xlink:title="Animation.h">
<polygon fill="white" stroke="black" points="344.829,-224.5 344.829,-243.5 412.829,-243.5 412.829,-224.5 344.829,-224.5"/>
<text text-anchor="middle" x="378.829" y="-231.5" font-family="Helvetica,sans-Serif" font-size="10.00">Animation.h</text>
</a>
</g>
</g>
<!-- Node0&#45;&gt;Node1 -->
<g id="edge1" class="edge"><title>Node0&#45;&gt;Node1</title>
<path fill="none" stroke="midnightblue" d="M422.242,-280.083C414.67,-272.22 403.451,-260.569 394.314,-251.081"/>
<polygon fill="midnightblue" stroke="midnightblue" points="396.713,-248.527 387.256,-243.751 391.671,-253.382 396.713,-248.527"/>
</g>
<!-- Node18 -->
<g id="node19" class="node"><title>Node18</title>
<g id="a_node19"><a xlink:href="Camera_8h.html" target="_top" xlink:title="Camera.h">
<polygon fill="white" stroke="black" points="454.329,-224.5 454.329,-243.5 513.329,-243.5 513.329,-224.5 454.329,-224.5"/>
<text text-anchor="middle" x="483.829" y="-231.5" font-family="Helvetica,sans-Serif" font-size="10.00">Camera.h</text>
</a>
</g>
</g>
<!-- Node0&#45;&gt;Node18 -->
<g id="edge29" class="edge"><title>Node0&#45;&gt;Node18</title>
<path fill="none" stroke="midnightblue" d="M439.581,-280.083C447.298,-272.22 458.733,-260.569 468.045,-251.081"/>
<polygon fill="midnightblue" stroke="midnightblue" points="470.733,-253.34 475.24,-243.751 465.737,-248.436 470.733,-253.34"/>
</g>
<!-- Node2 -->
<g id="node3" class="node"><title>Node2</title>
<g id="a_node3"><a xlink:href="GameObject_8h.html" target="_top" xlink:title="GameObject.h">
<polygon fill="white" stroke="black" points="165.829,-168.5 165.829,-187.5 245.829,-187.5 245.829,-168.5 165.829,-168.5"/>
<text text-anchor="middle" x="205.829" y="-175.5" font-family="Helvetica,sans-Serif" font-size="10.00">GameObject.h</text>
</a>
</g>
</g>
<!-- Node1&#45;&gt;Node2 -->
<g id="edge2" class="edge"><title>Node1&#45;&gt;Node2</title>
<path fill="none" stroke="midnightblue" d="M351.416,-224.444C322.059,-215.28 275.309,-200.688 242.733,-190.519"/>
<polygon fill="midnightblue" stroke="midnightblue" points="243.701,-187.155 233.113,-187.516 241.616,-193.837 243.701,-187.155"/>
</g>
<!-- Node12 -->
<g id="node13" class="node"><title>Node12</title>
<g id="a_node13"><a xlink:href="Sprite_8h.html" target="_top" xlink:title="Sprite.h">
<polygon fill="white" stroke="black" points="341.829,-168.5 341.829,-187.5 391.829,-187.5 391.829,-168.5 341.829,-168.5"/>
<text text-anchor="middle" x="366.829" y="-175.5" font-family="Helvetica,sans-Serif" font-size="10.00">Sprite.h</text>
</a>
</g>
</g>
<!-- Node1&#45;&gt;Node12 -->
<g id="edge16" class="edge"><title>Node1&#45;&gt;Node12</title>
<path fill="none" stroke="midnightblue" d="M376.847,-224.083C375.257,-216.927 372.97,-206.635 370.982,-197.691"/>
<polygon fill="midnightblue" stroke="midnightblue" points="374.359,-196.754 368.773,-187.751 367.526,-198.272 374.359,-196.754"/>
</g>
<!-- Node17 -->
<g id="node18" class="node"><title>Node17</title>
<g id="a_node18"><a xlink:href="Timer_8h.html" target="_top" xlink:title="Timer.h">
<polygon fill="white" stroke="black" points="409.829,-168.5 409.829,-187.5 459.829,-187.5 459.829,-168.5 409.829,-168.5"/>
<text text-anchor="middle" x="434.829" y="-175.5" font-family="Helvetica,sans-Serif" font-size="10.00">Timer.h</text>
</a>
</g>
</g>
<!-- Node1&#45;&gt;Node17 -->
<g id="edge28" class="edge"><title>Node1&#45;&gt;Node17</title>
<path fill="none" stroke="midnightblue" d="M387.826,-224.324C396.023,-216.42 408.334,-204.548 418.301,-194.938"/>
<polygon fill="midnightblue" stroke="midnightblue" points="420.899,-197.295 425.668,-187.834 416.04,-192.256 420.899,-197.295"/>
</g>
<!-- Node3 -->
<g id="node4" class="node"><title>Node3</title>
<g id="a_node4"><a xlink:href="SDL__include_8h.html" target="_top" xlink:title="SDL_include.h">
<polygon fill="white" stroke="black" points="391.829,-0.5 391.829,-19.5 471.829,-19.5 471.829,-0.5 391.829,-0.5"/>
<text text-anchor="middle" x="431.829" y="-7.5" font-family="Helvetica,sans-Serif" font-size="10.00">SDL_include.h</text>
</a>
</g>
</g>
<!-- Node2&#45;&gt;Node3 -->
<g id="edge3" class="edge"><title>Node2&#45;&gt;Node3</title>
<path fill="none" stroke="midnightblue" d="M165.674,-173.876C112.669,-168.823 23.7186,-156.808 3.82868,-132 -1.73153,-125.065 -0.365617,-119.837 3.82868,-112 25.0005,-72.4401 45.8207,-71.7659 87.8287,-56 187.325,-18.6583 313.082,-11.4139 381.637,-10.5176"/>
<polygon fill="midnightblue" stroke="midnightblue" points="381.763,-14.0167 391.731,-10.4266 381.699,-7.01702 381.763,-14.0167"/>
</g>
<!-- Node4 -->
<g id="node5" class="node"><title>Node4</title>
<polygon fill="white" stroke="#bfbfbf" points="12.8287,-112.5 12.8287,-131.5 56.8287,-131.5 56.8287,-112.5 12.8287,-112.5"/>
<text text-anchor="middle" x="34.8287" y="-119.5" font-family="Helvetica,sans-Serif" font-size="10.00">vector</text>
</g>
<!-- Node2&#45;&gt;Node4 -->
<g id="edge4" class="edge"><title>Node2&#45;&gt;Node4</title>
<path fill="none" stroke="midnightblue" d="M178.733,-168.444C148.311,-158.837 98.9923,-143.262 66.7324,-133.075"/>
<polygon fill="midnightblue" stroke="midnightblue" points="67.4932,-129.645 56.9034,-129.971 65.3853,-136.32 67.4932,-129.645"/>
</g>
<!-- Node5 -->
<g id="node6" class="node"><title>Node5</title>
<polygon fill="white" stroke="#bfbfbf" points="206.829,-112.5 206.829,-131.5 258.829,-131.5 258.829,-112.5 206.829,-112.5"/>
<text text-anchor="middle" x="232.829" y="-119.5" font-family="Helvetica,sans-Serif" font-size="10.00">memory</text>
</g>
<!-- Node2&#45;&gt;Node5 -->
<g id="edge5" class="edge"><title>Node2&#45;&gt;Node5</title>
<path fill="none" stroke="midnightblue" d="M210.287,-168.083C213.983,-160.691 219.352,-149.953 223.923,-140.811"/>
<polygon fill="midnightblue" stroke="midnightblue" points="227.111,-142.261 228.453,-131.751 220.85,-139.13 227.111,-142.261"/>
</g>
<!-- Node6 -->
<g id="node7" class="node"><title>Node6</title>
<polygon fill="white" stroke="#bfbfbf" points="277.329,-112.5 277.329,-131.5 318.329,-131.5 318.329,-112.5 277.329,-112.5"/>
<text text-anchor="middle" x="297.829" y="-119.5" font-family="Helvetica,sans-Serif" font-size="10.00">string</text>
</g>
<!-- Node2&#45;&gt;Node6 -->
<g id="edge6" class="edge"><title>Node2&#45;&gt;Node6</title>
<path fill="none" stroke="midnightblue" d="M220.61,-168.324C235.096,-159.822 257.402,-146.729 274.322,-136.797"/>
<polygon fill="midnightblue" stroke="midnightblue" points="276.232,-139.735 283.084,-131.655 272.688,-133.698 276.232,-139.735"/>
</g>
<!-- Node7 -->
<g id="node8" class="node"><title>Node7</title>
<g id="a_node8"><a xlink:href="Component_8h.html" target="_top" xlink:title="Component.h">
<polygon fill="white" stroke="black" points="75.3287,-112.5 75.3287,-131.5 150.329,-131.5 150.329,-112.5 75.3287,-112.5"/>
<text text-anchor="middle" x="112.829" y="-119.5" font-family="Helvetica,sans-Serif" font-size="10.00">Component.h</text>
</a>
</g>
</g>
<!-- Node2&#45;&gt;Node7 -->
<g id="edge7" class="edge"><title>Node2&#45;&gt;Node7</title>
<path fill="none" stroke="midnightblue" d="M185.772,-168.324C169.44,-159.9 146.875,-146.971 131.058,-137.074"/>
<polygon fill="midnightblue" stroke="midnightblue" points="132.929,-134.116 122.623,-131.655 129.145,-140.005 132.929,-134.116"/>
</g>
<!-- Node8 -->
<g id="node9" class="node"><title>Node8</title>
<g id="a_node9"><a xlink:href="ComponentType_8h.html" target="_top" xlink:title="ComponentType.h">
<polygon fill="white" stroke="black" points="97.3287,-56.5 97.3287,-75.5 194.329,-75.5 194.329,-56.5 97.3287,-56.5"/>
<text text-anchor="middle" x="145.829" y="-63.5" font-family="Helvetica,sans-Serif" font-size="10.00">ComponentType.h</text>
</a>
</g>
</g>
<!-- Node2&#45;&gt;Node8 -->
<g id="edge10" class="edge"><title>Node2&#45;&gt;Node8</title>
<path fill="none" stroke="midnightblue" d="M201.121,-168.368C191.306,-150.376 168.492,-108.55 155.443,-84.6267"/>
<polygon fill="midnightblue" stroke="midnightblue" points="158.376,-82.6944 150.515,-75.5914 152.231,-86.0464 158.376,-82.6944"/>
</g>
<!-- Node9 -->
<g id="node10" class="node"><title>Node9</title>
<g id="a_node10"><a xlink:href="Rect_8h.html" target="_top" xlink:title="Rect.h">
<polygon fill="white" stroke="black" points="336.829,-112.5 336.829,-131.5 382.829,-131.5 382.829,-112.5 336.829,-112.5"/>
<text text-anchor="middle" x="359.829" y="-119.5" font-family="Helvetica,sans-Serif" font-size="10.00">Rect.h</text>
</a>
</g>
</g>
<!-- Node2&#45;&gt;Node9 -->
<g id="edge11" class="edge"><title>Node2&#45;&gt;Node9</title>
<path fill="none" stroke="midnightblue" d="M230.23,-168.444C256.329,-159.292 297.869,-144.726 326.863,-134.559"/>
<polygon fill="midnightblue" stroke="midnightblue" points="328.271,-137.775 336.549,-131.163 325.954,-131.169 328.271,-137.775"/>
</g>
<!-- Node7&#45;&gt;Node2 -->
<g id="edge9" class="edge"><title>Node7&#45;&gt;Node2</title>
<path fill="none" stroke="midnightblue" d="M132.844,-131.655C149.165,-140.071 171.73,-152.999 187.559,-162.901"/>
<polygon fill="midnightblue" stroke="midnightblue" points="185.696,-165.864 196.001,-168.324 189.479,-159.974 185.696,-165.864"/>
</g>
<!-- Node7&#45;&gt;Node8 -->
<g id="edge8" class="edge"><title>Node7&#45;&gt;Node8</title>
<path fill="none" stroke="midnightblue" d="M118.278,-112.083C122.843,-104.613 129.497,-93.7244 135.122,-84.5199"/>
<polygon fill="midnightblue" stroke="midnightblue" points="138.253,-86.109 140.481,-75.7511 132.28,-82.4588 138.253,-86.109"/>
</g>
<!-- Node9&#45;&gt;Node3 -->
<g id="edge12" class="edge"><title>Node9&#45;&gt;Node3</title>
<path fill="none" stroke="midnightblue" d="M349.031,-112.296C334.553,-99.5449 312.064,-75.2166 324.829,-56 337.689,-36.6394 360.681,-25.5899 382.063,-19.2924"/>
<polygon fill="midnightblue" stroke="midnightblue" points="382.968,-22.6735 391.733,-16.7206 381.169,-15.9087 382.968,-22.6735"/>
</g>
<!-- Node10 -->
<g id="node11" class="node"><title>Node10</title>
<g id="a_node11"><a xlink:href="Vec2_8h.html" target="_top" xlink:title="Vec2.h">
<polygon fill="white" stroke="black" points="500.329,-56.5 500.329,-75.5 547.329,-75.5 547.329,-56.5 500.329,-56.5"/>
<text text-anchor="middle" x="523.829" y="-63.5" font-family="Helvetica,sans-Serif" font-size="10.00">Vec2.h</text>
</a>
</g>
</g>
<!-- Node9&#45;&gt;Node10 -->
<g id="edge13" class="edge"><title>Node9&#45;&gt;Node10</title>
<path fill="none" stroke="midnightblue" d="M382.978,-113.378C411.023,-104.143 458.478,-88.518 490.467,-77.9848"/>
<polygon fill="midnightblue" stroke="midnightblue" points="491.862,-81.2104 500.266,-74.7584 489.673,-74.5616 491.862,-81.2104"/>
</g>
<!-- Node11 -->
<g id="node12" class="node"><title>Node11</title>
<polygon fill="white" stroke="#bfbfbf" points="333.829,-56.5 333.829,-75.5 377.829,-75.5 377.829,-56.5 333.829,-56.5"/>
<text text-anchor="middle" x="355.829" y="-63.5" font-family="Helvetica,sans-Serif" font-size="10.00">cmath</text>
</g>
<!-- Node9&#45;&gt;Node11 -->
<g id="edge15" class="edge"><title>Node9&#45;&gt;Node11</title>
<path fill="none" stroke="midnightblue" d="M359.168,-112.083C358.644,-105.006 357.892,-94.8611 357.235,-85.9865"/>
<polygon fill="midnightblue" stroke="midnightblue" points="360.706,-85.4652 356.477,-75.7511 353.725,-85.9823 360.706,-85.4652"/>
</g>
<!-- Node10&#45;&gt;Node3 -->
<g id="edge14" class="edge"><title>Node10&#45;&gt;Node3</title>
<path fill="none" stroke="midnightblue" d="M509.047,-56.324C494.562,-47.8215 472.256,-34.7288 455.335,-24.7975"/>
<polygon fill="midnightblue" stroke="midnightblue" points="456.969,-21.6981 446.573,-19.6545 453.426,-27.735 456.969,-21.6981"/>
</g>
<!-- Node12&#45;&gt;Node3 -->
<g id="edge17" class="edge"><title>Node12&#45;&gt;Node3</title>
<path fill="none" stroke="midnightblue" d="M372.317,-168.287C377.757,-159.4 386.087,-145.096 391.829,-132 407.244,-96.8395 420.139,-53.7526 426.848,-29.6382"/>
<polygon fill="midnightblue" stroke="midnightblue" points="430.3,-30.2842 429.556,-19.7156 423.547,-28.4415 430.3,-30.2842"/>
</g>
<!-- Node12&#45;&gt;Node5 -->
<g id="edge19" class="edge"><title>Node12&#45;&gt;Node5</title>
<path fill="none" stroke="midnightblue" d="M345.596,-168.444C323.445,-159.517 288.51,-145.439 263.393,-135.317"/>
<polygon fill="midnightblue" stroke="midnightblue" points="264.545,-132.008 253.962,-131.516 261.929,-138.501 264.545,-132.008"/>
</g>
<!-- Node12&#45;&gt;Node6 -->
<g id="edge18" class="edge"><title>Node12&#45;&gt;Node6</title>
<path fill="none" stroke="midnightblue" d="M355.743,-168.324C345.343,-160.185 329.568,-147.839 317.107,-138.087"/>
<polygon fill="midnightblue" stroke="midnightblue" points="319.149,-135.241 309.116,-131.834 314.834,-140.753 319.149,-135.241"/>
</g>
<!-- Node12&#45;&gt;Node9 -->
<g id="edge22" class="edge"><title>Node12&#45;&gt;Node9</title>
<path fill="none" stroke="midnightblue" d="M365.673,-168.083C364.745,-160.927 363.411,-150.635 362.252,-141.691"/>
<polygon fill="midnightblue" stroke="midnightblue" points="365.72,-141.218 360.963,-131.751 358.778,-142.118 365.72,-141.218"/>
</g>
<!-- Node13 -->
<g id="node14" class="node"><title>Node13</title>
<g id="a_node14"><a xlink:href="Color_8h.html" target="_top" xlink:title="Color.h">
<polygon fill="white" stroke="black" points="433.829,-56.5 433.829,-75.5 481.829,-75.5 481.829,-56.5 433.829,-56.5"/>
<text text-anchor="middle" x="457.829" y="-63.5" font-family="Helvetica,sans-Serif" font-size="10.00">Color.h</text>
</a>
</g>
</g>
<!-- Node12&#45;&gt;Node13 -->
<g id="edge20" class="edge"><title>Node12&#45;&gt;Node13</title>
<path fill="none" stroke="midnightblue" d="M381.162,-168.468C393.88,-160.343 412.33,-147.133 424.829,-132 436.517,-117.848 445.554,-98.8692 451.191,-85.0745"/>
<polygon fill="midnightblue" stroke="midnightblue" points="454.473,-86.2909 454.828,-75.702 447.947,-83.7589 454.473,-86.2909"/>
</g>
<!-- Node14 -->
<g id="node15" class="node"><title>Node14</title>
<g id="a_node15"><a xlink:href="InputManager_8h.html" target="_top" xlink:title="InputManager.h">
<polygon fill="white" stroke="black" points="531.829,-112.5 531.829,-131.5 615.829,-131.5 615.829,-112.5 531.829,-112.5"/>
<text text-anchor="middle" x="573.829" y="-119.5" font-family="Helvetica,sans-Serif" font-size="10.00">InputManager.h</text>
</a>
</g>
</g>
<!-- Node12&#45;&gt;Node14 -->
<g id="edge23" class="edge"><title>Node12&#45;&gt;Node14</title>
<path fill="none" stroke="midnightblue" d="M392.076,-170.304C395.027,-169.525 397.994,-168.744 400.829,-168 445.225,-156.35 496.067,-143.141 531.087,-134.063"/>
<polygon fill="midnightblue" stroke="midnightblue" points="532.172,-137.398 540.974,-131.501 530.416,-130.622 532.172,-137.398"/>
</g>
<!-- Node13&#45;&gt;Node3 -->
<g id="edge21" class="edge"><title>Node13&#45;&gt;Node3</title>
<path fill="none" stroke="midnightblue" d="M453.535,-56.083C449.976,-48.6913 444.806,-37.9533 440.404,-28.8111"/>
<polygon fill="midnightblue" stroke="midnightblue" points="443.534,-27.2427 436.042,-19.7511 437.227,-30.2795 443.534,-27.2427"/>
</g>
<!-- Node14&#45;&gt;Node3 -->
<g id="edge24" class="edge"><title>Node14&#45;&gt;Node3</title>
<path fill="none" stroke="midnightblue" d="M573.83,-112.221C573.357,-98.4762 570.458,-71.8171 555.829,-56 536.678,-35.2948 507.256,-24.0966 481.878,-18.0502"/>
<polygon fill="midnightblue" stroke="midnightblue" points="482.534,-14.6111 472.018,-15.9044 481.045,-21.451 482.534,-14.6111"/>
</g>
<!-- Node14&#45;&gt;Node10 -->
<g id="edge25" class="edge"><title>Node14&#45;&gt;Node10</title>
<path fill="none" stroke="midnightblue" d="M565.572,-112.083C558.364,-104.298 547.719,-92.8015 538.983,-83.3665"/>
<polygon fill="midnightblue" stroke="midnightblue" points="541.294,-80.7108 531.932,-75.7511 536.157,-85.4666 541.294,-80.7108"/>
</g>
<!-- Node15 -->
<g id="node16" class="node"><title>Node15</title>
<polygon fill="white" stroke="#bfbfbf" points="604.329,-56.5 604.329,-75.5 687.329,-75.5 687.329,-56.5 604.329,-56.5"/>
<text text-anchor="middle" x="645.829" y="-63.5" font-family="Helvetica,sans-Serif" font-size="10.00">unordered_map</text>
</g>
<!-- Node14&#45;&gt;Node15 -->
<g id="edge26" class="edge"><title>Node14&#45;&gt;Node15</title>
<path fill="none" stroke="midnightblue" d="M585.397,-112.324C596.249,-104.185 612.709,-91.8395 625.712,-82.0874"/>
<polygon fill="midnightblue" stroke="midnightblue" points="628.15,-84.6339 634.05,-75.8339 623.95,-79.0339 628.15,-84.6339"/>
</g>
<!-- Node16 -->
<g id="node17" class="node"><title>Node16</title>
<polygon fill="white" stroke="#bfbfbf" points="705.829,-56.5 705.829,-75.5 751.829,-75.5 751.829,-56.5 705.829,-56.5"/>
<text text-anchor="middle" x="728.829" y="-63.5" font-family="Helvetica,sans-Serif" font-size="10.00">cstdint</text>
</g>
<!-- Node14&#45;&gt;Node16 -->
<g id="edge27" class="edge"><title>Node14&#45;&gt;Node16</title>
<path fill="none" stroke="midnightblue" d="M598.389,-112.444C624.657,-103.292 666.467,-88.726 695.649,-78.5594"/>
<polygon fill="midnightblue" stroke="midnightblue" points="697.106,-81.7581 705.398,-75.1629 694.803,-75.1478 697.106,-81.7581"/>
</g>
<!-- Node18&#45;&gt;Node2 -->
<g id="edge30" class="edge"><title>Node18&#45;&gt;Node2</title>
<path fill="none" stroke="midnightblue" d="M454.078,-227.221C406.773,-218.032 313.863,-199.985 256.093,-188.764"/>
<polygon fill="midnightblue" stroke="midnightblue" points="256.569,-185.291 246.085,-186.82 255.234,-192.162 256.569,-185.291"/>
</g>
<!-- Node18&#45;&gt;Node10 -->
<g id="edge31" class="edge"><title>Node18&#45;&gt;Node10</title>
<path fill="none" stroke="midnightblue" d="M485.979,-224.075C492.276,-197.945 510.766,-121.211 519.352,-85.577"/>
<polygon fill="midnightblue" stroke="midnightblue" points="522.824,-86.1098 521.764,-75.5681 516.019,-84.4699 522.824,-86.1098"/>
</g>
<!-- Node19 -->
<g id="node20" class="node"><title>Node19</title>
<g id="a_node20"><a xlink:href="ActionManager_8h.html" target="_top" xlink:title="ActionManager.h">
<polygon fill="white" stroke="black" points="525.829,-168.5 525.829,-187.5 615.829,-187.5 615.829,-168.5 525.829,-168.5"/>
<text text-anchor="middle" x="570.829" y="-175.5" font-family="Helvetica,sans-Serif" font-size="10.00">ActionManager.h</text>
</a>
</g>
</g>
<!-- Node18&#45;&gt;Node19 -->
<g id="edge32" class="edge"><title>Node18&#45;&gt;Node19</title>
<path fill="none" stroke="midnightblue" d="M497.807,-224.324C511.378,-215.9 532.209,-202.971 548.154,-193.074"/>
<polygon fill="midnightblue" stroke="midnightblue" points="550.235,-195.902 556.885,-187.655 546.543,-189.954 550.235,-195.902"/>
</g>
<!-- Node19&#45;&gt;Node14 -->
<g id="edge33" class="edge"><title>Node19&#45;&gt;Node14</title>
<path fill="none" stroke="midnightblue" d="M571.324,-168.083C571.717,-161.006 572.281,-150.861 572.774,-141.986"/>
<polygon fill="midnightblue" stroke="midnightblue" points="576.282,-141.93 573.343,-131.751 569.293,-141.542 576.282,-141.93"/>
</g>
</g>
</svg>
