<?xml version="1.0" encoding="UTF-8" standalone="no"?>
<!DOCTYPE svg PUBLIC "-//W3C//DTD SVG 1.1//EN"
 "http://www.w3.org/Graphics/SVG/1.1/DTD/svg11.dtd">
<!-- Generated by graphviz version 2.38.0 (20140413.2041)
 -->
<!-- Title: include/Animation.h Pages: 1 -->
<svg width="697pt" height="252pt"
 viewBox="0.00 0.00 697.00 252.00" xmlns="http://www.w3.org/2000/svg" xmlns:xlink="http://www.w3.org/1999/xlink">
<g id="graph0" class="graph" transform="scale(1 1) rotate(0) translate(4 248)">
<title>include/Animation.h</title>
<polygon fill="white" stroke="none" points="-4,4 -4,-248 693,-248 693,4 -4,4"/>
<!-- Node0 -->
<g id="node1" class="node"><title>Node0</title>
<polygon fill="#bfbfbf" stroke="black" points="333,-224.5 333,-243.5 435,-243.5 435,-224.5 333,-224.5"/>
<text text-anchor="middle" x="384" y="-231.5" font-family="Helvetica,sans-Serif" font-size="10.00">include/Animation.h</text>
</g>
<!-- Node1 -->
<g id="node2" class="node"><title>Node1</title>
<g id="a_node2"><a xlink:href="GameObject_8h.html" target="_top" xlink:title="GameObject.h">
<polygon fill="white" stroke="black" points="136,-168.5 136,-187.5 216,-187.5 216,-168.5 136,-168.5"/>
<text text-anchor="middle" x="176" y="-175.5" font-family="Helvetica,sans-Serif" font-size="10.00">GameObject.h</text>
</a>
</g>
</g>
<!-- Node0&#45;&gt;Node1 -->
<g id="edge1" class="edge"><title>Node0&#45;&gt;Node1</title>
<path fill="none" stroke="midnightblue" d="M351.042,-224.444C315.213,-215.142 257.837,-200.246 218.609,-190.062"/>
<polygon fill="midnightblue" stroke="midnightblue" points="219.363,-186.642 208.804,-187.516 217.604,-193.417 219.363,-186.642"/>
</g>
<!-- Node11 -->
<g id="node12" class="node"><title>Node11</title>
<g id="a_node12"><a xlink:href="Sprite_8h.html" target="_top" xlink:title="Sprite.h">
<polygon fill="white" stroke="black" points="359,-168.5 359,-187.5 409,-187.5 409,-168.5 359,-168.5"/>
<text text-anchor="middle" x="384" y="-175.5" font-family="Helvetica,sans-Serif" font-size="10.00">Sprite.h</text>
</a>
</g>
</g>
<!-- Node0&#45;&gt;Node11 -->
<g id="edge15" class="edge"><title>Node0&#45;&gt;Node11</title>
<path fill="none" stroke="midnightblue" d="M384,-224.083C384,-217.006 384,-206.861 384,-197.986"/>
<polygon fill="midnightblue" stroke="midnightblue" points="387.5,-197.751 384,-187.751 380.5,-197.751 387.5,-197.751"/>
</g>
<!-- Node16 -->
<g id="node17" class="node"><title>Node16</title>
<g id="a_node17"><a xlink:href="Timer_8h.html" target="_top" xlink:title="Timer.h">
<polygon fill="white" stroke="black" points="427,-168.5 427,-187.5 477,-187.5 477,-168.5 427,-168.5"/>
<text text-anchor="middle" x="452" y="-175.5" font-family="Helvetica,sans-Serif" font-size="10.00">Timer.h</text>
</a>
</g>
</g>
<!-- Node0&#45;&gt;Node16 -->
<g id="edge27" class="edge"><title>Node0&#45;&gt;Node16</title>
<path fill="none" stroke="midnightblue" d="M394.925,-224.324C405.175,-216.185 420.721,-203.839 433.001,-194.087"/>
<polygon fill="midnightblue" stroke="midnightblue" points="435.221,-196.794 440.876,-187.834 430.868,-191.312 435.221,-196.794"/>
</g>
<!-- Node2 -->
<g id="node3" class="node"><title>Node2</title>
<g id="a_node3"><a xlink:href="SDL__include_8h.html" target="_top" xlink:title="SDL_include.h">
<polygon fill="white" stroke="black" points="343,-0.5 343,-19.5 423,-19.5 423,-0.5 343,-0.5"/>
<text text-anchor="middle" x="383" y="-7.5" font-family="Helvetica,sans-Serif" font-size="10.00">SDL_include.h</text>
</a>
</g>
</g>
<!-- Node1&#45;&gt;Node2 -->
<g id="edge2" class="edge"><title>Node1&#45;&gt;Node2</title>
<path fill="none" stroke="midnightblue" d="M161.85,-168.349C149.864,-160.327 133.067,-147.339 123,-132 104.009,-103.063 83.5733,-82.3641 106,-56 134.546,-22.442 261.008,-13.84 332.79,-11.6814"/>
<polygon fill="midnightblue" stroke="midnightblue" points="333.063,-15.1754 342.966,-11.4075 332.875,-8.17791 333.063,-15.1754"/>
</g>
<!-- Node3 -->
<g id="node4" class="node"><title>Node3</title>
<polygon fill="white" stroke="#bfbfbf" points="0,-112.5 0,-131.5 44,-131.5 44,-112.5 0,-112.5"/>
<text text-anchor="middle" x="22" y="-119.5" font-family="Helvetica,sans-Serif" font-size="10.00">vector</text>
</g>
<!-- Node1&#45;&gt;Node3 -->
<g id="edge3" class="edge"><title>Node1&#45;&gt;Node3</title>
<path fill="none" stroke="midnightblue" d="M151.598,-168.444C125.196,-159.186 82.9913,-144.387 53.9595,-134.207"/>
<polygon fill="midnightblue" stroke="midnightblue" points="54.8823,-130.821 44.2875,-130.815 52.566,-137.427 54.8823,-130.821"/>
</g>
<!-- Node4 -->
<g id="node5" class="node"><title>Node4</title>
<polygon fill="white" stroke="#bfbfbf" points="291,-112.5 291,-131.5 343,-131.5 343,-112.5 291,-112.5"/>
<text text-anchor="middle" x="317" y="-119.5" font-family="Helvetica,sans-Serif" font-size="10.00">memory</text>
</g>
<!-- Node1&#45;&gt;Node4 -->
<g id="edge4" class="edge"><title>Node1&#45;&gt;Node4</title>
<path fill="none" stroke="midnightblue" d="M198.342,-168.444C221.753,-159.478 258.736,-145.314 285.19,-135.183"/>
<polygon fill="midnightblue" stroke="midnightblue" points="286.676,-138.361 294.763,-131.516 284.172,-131.824 286.676,-138.361"/>
</g>
<!-- Node5 -->
<g id="node6" class="node"><title>Node5</title>
<polygon fill="white" stroke="#bfbfbf" points="231.5,-112.5 231.5,-131.5 272.5,-131.5 272.5,-112.5 231.5,-112.5"/>
<text text-anchor="middle" x="252" y="-119.5" font-family="Helvetica,sans-Serif" font-size="10.00">string</text>
</g>
<!-- Node1&#45;&gt;Node5 -->
<g id="edge5" class="edge"><title>Node1&#45;&gt;Node5</title>
<path fill="none" stroke="midnightblue" d="M188.211,-168.324C199.776,-160.107 217.375,-147.602 231.161,-137.807"/>
<polygon fill="midnightblue" stroke="midnightblue" points="233.443,-140.479 239.567,-131.834 229.388,-134.773 233.443,-140.479"/>
</g>
<!-- Node6 -->
<g id="node7" class="node"><title>Node6</title>
<g id="a_node7"><a xlink:href="Component_8h.html" target="_top" xlink:title="Component.h">
<polygon fill="white" stroke="black" points="138.5,-112.5 138.5,-131.5 213.5,-131.5 213.5,-112.5 138.5,-112.5"/>
<text text-anchor="middle" x="176" y="-119.5" font-family="Helvetica,sans-Serif" font-size="10.00">Component.h</text>
</a>
</g>
</g>
<!-- Node1&#45;&gt;Node6 -->
<g id="edge6" class="edge"><title>Node1&#45;&gt;Node6</title>
<path fill="none" stroke="midnightblue" d="M170.834,-168.083C169.324,-160.927 168.894,-150.635 169.542,-141.691"/>
<polygon fill="midnightblue" stroke="midnightblue" points="173.015,-142.126 170.869,-131.751 166.077,-141.2 173.015,-142.126"/>
</g>
<!-- Node7 -->
<g id="node8" class="node"><title>Node7</title>
<g id="a_node8"><a xlink:href="ComponentType_8h.html" target="_top" xlink:title="ComponentType.h">
<polygon fill="white" stroke="black" points="115.5,-56.5 115.5,-75.5 212.5,-75.5 212.5,-56.5 115.5,-56.5"/>
<text text-anchor="middle" x="164" y="-63.5" font-family="Helvetica,sans-Serif" font-size="10.00">ComponentType.h</text>
</a>
</g>
</g>
<!-- Node1&#45;&gt;Node7 -->
<g id="edge9" class="edge"><title>Node1&#45;&gt;Node7</title>
<path fill="none" stroke="midnightblue" d="M161.922,-168.259C150.647,-160.355 135.654,-147.584 129,-132 121.581,-114.625 134.31,-95.7085 146.444,-82.7862"/>
<polygon fill="midnightblue" stroke="midnightblue" points="149.082,-85.0999 153.737,-75.5823 144.163,-80.1198 149.082,-85.0999"/>
</g>
<!-- Node8 -->
<g id="node9" class="node"><title>Node8</title>
<g id="a_node9"><a xlink:href="Rect_8h.html" target="_top" xlink:title="Rect.h">
<polygon fill="white" stroke="black" points="361,-112.5 361,-131.5 407,-131.5 407,-112.5 361,-112.5"/>
<text text-anchor="middle" x="384" y="-119.5" font-family="Helvetica,sans-Serif" font-size="10.00">Rect.h</text>
</a>
</g>
</g>
<!-- Node1&#45;&gt;Node8 -->
<g id="edge10" class="edge"><title>Node1&#45;&gt;Node8</title>
<path fill="none" stroke="midnightblue" d="M210.462,-168.447C243.978,-160.071 296.574,-146.778 351.106,-132.195"/>
<polygon fill="midnightblue" stroke="midnightblue" points="352.195,-135.527 360.946,-129.555 350.381,-128.766 352.195,-135.527"/>
</g>
<!-- Node6&#45;&gt;Node1 -->
<g id="edge8" class="edge"><title>Node6&#45;&gt;Node1</title>
<path fill="none" stroke="midnightblue" d="M181.131,-131.751C182.657,-138.858 183.104,-149.136 182.472,-158.101"/>
<polygon fill="midnightblue" stroke="midnightblue" points="178.993,-157.713 181.166,-168.083 185.934,-158.622 178.993,-157.713"/>
</g>
<!-- Node6&#45;&gt;Node7 -->
<g id="edge7" class="edge"><title>Node6&#45;&gt;Node7</title>
<path fill="none" stroke="midnightblue" d="M174.018,-112.083C172.428,-104.927 170.141,-94.6353 168.154,-85.6911"/>
<polygon fill="midnightblue" stroke="midnightblue" points="171.531,-84.7537 165.945,-75.7511 164.697,-86.2722 171.531,-84.7537"/>
</g>
<!-- Node8&#45;&gt;Node2 -->
<g id="edge11" class="edge"><title>Node8&#45;&gt;Node2</title>
<path fill="none" stroke="midnightblue" d="M364.704,-112.48C350.571,-105.081 332.443,-92.887 324,-76 313.775,-55.5499 335.797,-36.7455 355.782,-24.6812"/>
<polygon fill="midnightblue" stroke="midnightblue" points="357.721,-27.6049 364.697,-19.6307 354.271,-21.5142 357.721,-27.6049"/>
</g>
<!-- Node9 -->
<g id="node10" class="node"><title>Node9</title>
<g id="a_node10"><a xlink:href="Vec2_8h.html" target="_top" xlink:title="Vec2.h">
<polygon fill="white" stroke="black" points="333.5,-56.5 333.5,-75.5 380.5,-75.5 380.5,-56.5 333.5,-56.5"/>
<text text-anchor="middle" x="357" y="-63.5" font-family="Helvetica,sans-Serif" font-size="10.00">Vec2.h</text>
</a>
</g>
</g>
<!-- Node8&#45;&gt;Node9 -->
<g id="edge12" class="edge"><title>Node8&#45;&gt;Node9</title>
<path fill="none" stroke="midnightblue" d="M379.541,-112.083C375.846,-104.691 370.477,-93.9533 365.906,-84.8111"/>
<polygon fill="midnightblue" stroke="midnightblue" points="368.978,-83.1301 361.376,-75.7511 362.717,-86.2606 368.978,-83.1301"/>
</g>
<!-- Node10 -->
<g id="node11" class="node"><title>Node10</title>
<polygon fill="white" stroke="#bfbfbf" points="233,-56.5 233,-75.5 277,-75.5 277,-56.5 233,-56.5"/>
<text text-anchor="middle" x="255" y="-63.5" font-family="Helvetica,sans-Serif" font-size="10.00">cmath</text>
</g>
<!-- Node8&#45;&gt;Node10 -->
<g id="edge14" class="edge"><title>Node8&#45;&gt;Node10</title>
<path fill="none" stroke="midnightblue" d="M363.56,-112.444C342.33,-103.557 308.901,-89.5632 284.745,-79.4514"/>
<polygon fill="midnightblue" stroke="midnightblue" points="285.921,-76.1493 275.345,-75.5164 283.218,-82.6064 285.921,-76.1493"/>
</g>
<!-- Node9&#45;&gt;Node2 -->
<g id="edge13" class="edge"><title>Node9&#45;&gt;Node2</title>
<path fill="none" stroke="midnightblue" d="M361.293,-56.083C364.852,-48.6913 370.022,-37.9533 374.424,-28.8111"/>
<polygon fill="midnightblue" stroke="midnightblue" points="377.602,-30.2795 378.787,-19.7511 371.295,-27.2427 377.602,-30.2795"/>
</g>
<!-- Node11&#45;&gt;Node2 -->
<g id="edge16" class="edge"><title>Node11&#45;&gt;Node2</title>
<path fill="none" stroke="midnightblue" d="M409.183,-169.567C442.37,-159.596 498.785,-141.991 518,-132 560.382,-109.962 624.049,-93.1337 594,-56 574.148,-31.4675 489.006,-19.7339 433.131,-14.5791"/>
<polygon fill="midnightblue" stroke="midnightblue" points="433.329,-11.0831 423.06,-13.6916 432.715,-18.0561 433.329,-11.0831"/>
</g>
<!-- Node11&#45;&gt;Node4 -->
<g id="edge18" class="edge"><title>Node11&#45;&gt;Node4</title>
<path fill="none" stroke="midnightblue" d="M373.235,-168.324C363.234,-160.263 348.113,-148.077 336.07,-138.369"/>
<polygon fill="midnightblue" stroke="midnightblue" points="337.943,-135.384 327.961,-131.834 333.55,-140.834 337.943,-135.384"/>
</g>
<!-- Node11&#45;&gt;Node5 -->
<g id="edge17" class="edge"><title>Node11&#45;&gt;Node5</title>
<path fill="none" stroke="midnightblue" d="M363.084,-168.444C341.264,-159.517 306.85,-145.439 282.108,-135.317"/>
<polygon fill="midnightblue" stroke="midnightblue" points="283.399,-132.063 272.818,-131.516 280.748,-138.542 283.399,-132.063"/>
</g>
<!-- Node11&#45;&gt;Node8 -->
<g id="edge21" class="edge"><title>Node11&#45;&gt;Node8</title>
<path fill="none" stroke="midnightblue" d="M384,-168.083C384,-161.006 384,-150.861 384,-141.986"/>
<polygon fill="midnightblue" stroke="midnightblue" points="387.5,-141.751 384,-131.751 380.5,-141.751 387.5,-141.751"/>
</g>
<!-- Node12 -->
<g id="node13" class="node"><title>Node12</title>
<g id="a_node13"><a xlink:href="Color_8h.html" target="_top" xlink:title="Color.h">
<polygon fill="white" stroke="black" points="641,-56.5 641,-75.5 689,-75.5 689,-56.5 641,-56.5"/>
<text text-anchor="middle" x="665" y="-63.5" font-family="Helvetica,sans-Serif" font-size="10.00">Color.h</text>
</a>
</g>
</g>
<!-- Node11&#45;&gt;Node12 -->
<g id="edge19" class="edge"><title>Node11&#45;&gt;Node12</title>
<path fill="none" stroke="midnightblue" d="M409.191,-170.067C412.151,-169.331 415.136,-168.624 418,-168 510.093,-147.921 549.536,-185.7 627,-132 643.079,-120.854 653.346,-100.522 659.101,-85.5563"/>
<polygon fill="midnightblue" stroke="midnightblue" points="662.51,-86.4098 662.512,-75.815 655.904,-84.0961 662.51,-86.4098"/>
</g>
<!-- Node13 -->
<g id="node14" class="node"><title>Node13</title>
<g id="a_node14"><a xlink:href="InputManager_8h.html" target="_top" xlink:title="InputManager.h">
<polygon fill="white" stroke="black" points="425,-112.5 425,-131.5 509,-131.5 509,-112.5 425,-112.5"/>
<text text-anchor="middle" x="467" y="-119.5" font-family="Helvetica,sans-Serif" font-size="10.00">InputManager.h</text>
</a>
</g>
</g>
<!-- Node11&#45;&gt;Node13 -->
<g id="edge22" class="edge"><title>Node11&#45;&gt;Node13</title>
<path fill="none" stroke="midnightblue" d="M397.335,-168.324C410.162,-159.979 429.785,-147.212 444.94,-137.352"/>
<polygon fill="midnightblue" stroke="midnightblue" points="447.224,-140.042 453.698,-131.655 443.407,-134.174 447.224,-140.042"/>
</g>
<!-- Node12&#45;&gt;Node2 -->
<g id="edge20" class="edge"><title>Node12&#45;&gt;Node2</title>
<path fill="none" stroke="midnightblue" d="M640.918,-59.1041C636.307,-58.0298 631.511,-56.9496 627,-56 560.297,-41.9594 482.826,-28.0825 433.386,-19.5318"/>
<polygon fill="midnightblue" stroke="midnightblue" points="433.725,-16.0387 423.275,-17.7899 432.536,-22.937 433.725,-16.0387"/>
</g>
<!-- Node13&#45;&gt;Node2 -->
<g id="edge23" class="edge"><title>Node13&#45;&gt;Node2</title>
<path fill="none" stroke="midnightblue" d="M458.938,-112.275C450.839,-103.38 438.139,-89.0693 428,-76 415.814,-60.2927 403.012,-41.5515 394.192,-28.2379"/>
<polygon fill="midnightblue" stroke="midnightblue" points="396.952,-26.0641 388.539,-19.6237 391.099,-29.9046 396.952,-26.0641"/>
</g>
<!-- Node13&#45;&gt;Node9 -->
<g id="edge24" class="edge"><title>Node13&#45;&gt;Node9</title>
<path fill="none" stroke="midnightblue" d="M449.327,-112.324C431.606,-103.625 404.097,-90.1202 383.712,-80.113"/>
<polygon fill="midnightblue" stroke="midnightblue" points="385.149,-76.9195 374.63,-75.6545 382.064,-83.2031 385.149,-76.9195"/>
</g>
<!-- Node14 -->
<g id="node15" class="node"><title>Node14</title>
<polygon fill="white" stroke="#bfbfbf" points="437.5,-56.5 437.5,-75.5 520.5,-75.5 520.5,-56.5 437.5,-56.5"/>
<text text-anchor="middle" x="479" y="-63.5" font-family="Helvetica,sans-Serif" font-size="10.00">unordered_map</text>
</g>
<!-- Node13&#45;&gt;Node14 -->
<g id="edge25" class="edge"><title>Node13&#45;&gt;Node14</title>
<path fill="none" stroke="midnightblue" d="M468.982,-112.083C470.572,-104.927 472.859,-94.6353 474.846,-85.6911"/>
<polygon fill="midnightblue" stroke="midnightblue" points="478.303,-86.2722 477.055,-75.7511 471.469,-84.7537 478.303,-86.2722"/>
</g>
<!-- Node15 -->
<g id="node16" class="node"><title>Node15</title>
<polygon fill="white" stroke="#bfbfbf" points="539,-56.5 539,-75.5 585,-75.5 585,-56.5 539,-56.5"/>
<text text-anchor="middle" x="562" y="-63.5" font-family="Helvetica,sans-Serif" font-size="10.00">cstdint</text>
</g>
<!-- Node13&#45;&gt;Node15 -->
<g id="edge26" class="edge"><title>Node13&#45;&gt;Node15</title>
<path fill="none" stroke="midnightblue" d="M482.263,-112.324C497.221,-103.822 520.255,-90.7288 537.727,-80.7975"/>
<polygon fill="midnightblue" stroke="midnightblue" points="539.81,-83.639 546.774,-75.6545 536.351,-77.5534 539.81,-83.639"/>
</g>
</g>
</svg>
