<?xml version="1.0" encoding="UTF-8" standalone="no"?>
<!DOCTYPE svg PUBLIC "-//W3C//DTD SVG 1.1//EN"
 "http://www.w3.org/Graphics/SVG/1.1/DTD/svg11.dtd">
<!-- Generated by graphviz version 2.38.0 (20140413.2041)
 -->
<!-- Title: include/Animation.h Pages: 1 -->
<svg width="610pt" height="252pt"
 viewBox="0.00 0.00 609.80 252.00" xmlns="http://www.w3.org/2000/svg" xmlns:xlink="http://www.w3.org/1999/xlink">
<g id="graph0" class="graph" transform="scale(1 1) rotate(0) translate(4 248)">
<title>include/Animation.h</title>
<polygon fill="white" stroke="none" points="-4,4 -4,-248 605.796,-248 605.796,4 -4,4"/>
<!-- Node0 -->
<g id="node1" class="node"><title>Node0</title>
<polygon fill="#bfbfbf" stroke="black" points="248.915,-224.5 248.915,-243.5 350.915,-243.5 350.915,-224.5 248.915,-224.5"/>
<text text-anchor="middle" x="299.915" y="-231.5" font-family="Helvetica,sans-Serif" font-size="10.00">include/Animation.h</text>
</g>
<!-- Node1 -->
<g id="node2" class="node"><title>Node1</title>
<g id="a_node2"><a xlink:href="GameObject_8h.html" target="_top" xlink:title="GameObject.h">
<polygon fill="white" stroke="black" points="81.9148,-168.5 81.9148,-187.5 161.915,-187.5 161.915,-168.5 81.9148,-168.5"/>
<text text-anchor="middle" x="121.915" y="-175.5" font-family="Helvetica,sans-Serif" font-size="10.00">GameObject.h</text>
</a>
</g>
</g>
<!-- Node0&#45;&gt;Node1 -->
<g id="edge1" class="edge"><title>Node0&#45;&gt;Node1</title>
<path fill="none" stroke="midnightblue" d="M271.71,-224.444C241.505,-215.28 193.403,-200.688 159.885,-190.519"/>
<polygon fill="midnightblue" stroke="midnightblue" points="160.573,-187.07 149.987,-187.516 158.541,-193.769 160.573,-187.07"/>
</g>
<!-- Node11 -->
<g id="node12" class="node"><title>Node11</title>
<g id="a_node12"><a xlink:href="Sprite_8h.html" target="_top" xlink:title="Sprite.h">
<polygon fill="white" stroke="black" points="274.915,-168.5 274.915,-187.5 324.915,-187.5 324.915,-168.5 274.915,-168.5"/>
<text text-anchor="middle" x="299.915" y="-175.5" font-family="Helvetica,sans-Serif" font-size="10.00">Sprite.h</text>
</a>
</g>
</g>
<!-- Node0&#45;&gt;Node11 -->
<g id="edge15" class="edge"><title>Node0&#45;&gt;Node11</title>
<path fill="none" stroke="midnightblue" d="M299.915,-224.083C299.915,-217.006 299.915,-206.861 299.915,-197.986"/>
<polygon fill="midnightblue" stroke="midnightblue" points="303.415,-197.751 299.915,-187.751 296.415,-197.751 303.415,-197.751"/>
</g>
<!-- Node16 -->
<g id="node17" class="node"><title>Node16</title>
<g id="a_node17"><a xlink:href="Timer_8h.html" target="_top" xlink:title="Timer.h">
<polygon fill="white" stroke="black" points="342.915,-168.5 342.915,-187.5 392.915,-187.5 392.915,-168.5 342.915,-168.5"/>
<text text-anchor="middle" x="367.915" y="-175.5" font-family="Helvetica,sans-Serif" font-size="10.00">Timer.h</text>
</a>
</g>
</g>
<!-- Node0&#45;&gt;Node16 -->
<g id="edge28" class="edge"><title>Node0&#45;&gt;Node16</title>
<path fill="none" stroke="midnightblue" d="M310.84,-224.324C321.089,-216.185 336.635,-203.839 348.916,-194.087"/>
<polygon fill="midnightblue" stroke="midnightblue" points="351.136,-196.794 356.791,-187.834 346.783,-191.312 351.136,-196.794"/>
</g>
<!-- Node2 -->
<g id="node3" class="node"><title>Node2</title>
<g id="a_node3"><a xlink:href="SDL__include_8h.html" target="_top" xlink:title="SDL_include.h">
<polygon fill="white" stroke="black" points="308.915,-0.5 308.915,-19.5 388.915,-19.5 388.915,-0.5 308.915,-0.5"/>
<text text-anchor="middle" x="348.915" y="-7.5" font-family="Helvetica,sans-Serif" font-size="10.00">SDL_include.h</text>
</a>
</g>
</g>
<!-- Node1&#45;&gt;Node2 -->
<g id="edge2" class="edge"><title>Node1&#45;&gt;Node2</title>
<path fill="none" stroke="midnightblue" d="M81.7175,-172.864C55.3831,-167.832 22.8167,-156.686 5.91481,-132 -6.78379,-113.453 4.08698,-70.1896 19.9148,-56 60.0506,-20.0184 217.103,-12.5924 298.846,-11.2033"/>
<polygon fill="midnightblue" stroke="midnightblue" points="298.958,-14.7021 308.906,-11.0564 298.856,-7.70284 298.958,-14.7021"/>
</g>
<!-- Node3 -->
<g id="node4" class="node"><title>Node3</title>
<polygon fill="white" stroke="#bfbfbf" points="21.9148,-112.5 21.9148,-131.5 65.9148,-131.5 65.9148,-112.5 21.9148,-112.5"/>
<text text-anchor="middle" x="43.9148" y="-119.5" font-family="Helvetica,sans-Serif" font-size="10.00">vector</text>
</g>
<!-- Node1&#45;&gt;Node3 -->
<g id="edge3" class="edge"><title>Node1&#45;&gt;Node3</title>
<path fill="none" stroke="midnightblue" d="M109.383,-168.324C97.3289,-159.979 78.888,-147.212 64.6461,-137.352"/>
<polygon fill="midnightblue" stroke="midnightblue" points="66.6299,-134.469 56.4158,-131.655 62.6454,-140.224 66.6299,-134.469"/>
</g>
<!-- Node4 -->
<g id="node5" class="node"><title>Node4</title>
<polygon fill="white" stroke="#bfbfbf" points="177.915,-112.5 177.915,-131.5 229.915,-131.5 229.915,-112.5 177.915,-112.5"/>
<text text-anchor="middle" x="203.915" y="-119.5" font-family="Helvetica,sans-Serif" font-size="10.00">memory</text>
</g>
<!-- Node1&#45;&gt;Node4 -->
<g id="edge4" class="edge"><title>Node1&#45;&gt;Node4</title>
<path fill="none" stroke="midnightblue" d="M135.09,-168.324C147.762,-159.979 167.148,-147.212 182.12,-137.352"/>
<polygon fill="midnightblue" stroke="midnightblue" points="184.346,-140.078 190.773,-131.655 180.496,-134.231 184.346,-140.078"/>
</g>
<!-- Node5 -->
<g id="node6" class="node"><title>Node5</title>
<polygon fill="white" stroke="#bfbfbf" points="248.415,-112.5 248.415,-131.5 289.415,-131.5 289.415,-112.5 248.415,-112.5"/>
<text text-anchor="middle" x="268.915" y="-119.5" font-family="Helvetica,sans-Serif" font-size="10.00">string</text>
</g>
<!-- Node1&#45;&gt;Node5 -->
<g id="edge5" class="edge"><title>Node1&#45;&gt;Node5</title>
<path fill="none" stroke="midnightblue" d="M145.207,-168.444C170.443,-159.173 210.805,-144.346 238.521,-134.165"/>
<polygon fill="midnightblue" stroke="midnightblue" points="239.928,-137.377 248.108,-130.643 237.514,-130.806 239.928,-137.377"/>
</g>
<!-- Node6 -->
<g id="node7" class="node"><title>Node6</title>
<g id="a_node7"><a xlink:href="Component_8h.html" target="_top" xlink:title="Component.h">
<polygon fill="white" stroke="black" points="84.4148,-112.5 84.4148,-131.5 159.415,-131.5 159.415,-112.5 84.4148,-112.5"/>
<text text-anchor="middle" x="121.915" y="-119.5" font-family="Helvetica,sans-Serif" font-size="10.00">Component.h</text>
</a>
</g>
</g>
<!-- Node1&#45;&gt;Node6 -->
<g id="edge6" class="edge"><title>Node1&#45;&gt;Node6</title>
<path fill="none" stroke="midnightblue" d="M116.748,-168.083C115.239,-160.927 114.809,-150.635 115.457,-141.691"/>
<polygon fill="midnightblue" stroke="midnightblue" points="118.93,-142.126 116.784,-131.751 111.992,-141.2 118.93,-142.126"/>
</g>
<!-- Node7 -->
<g id="node8" class="node"><title>Node7</title>
<g id="a_node8"><a xlink:href="ComponentType_8h.html" target="_top" xlink:title="ComponentType.h">
<polygon fill="white" stroke="black" points="29.4148,-56.5 29.4148,-75.5 126.415,-75.5 126.415,-56.5 29.4148,-56.5"/>
<text text-anchor="middle" x="77.9148" y="-63.5" font-family="Helvetica,sans-Serif" font-size="10.00">ComponentType.h</text>
</a>
</g>
</g>
<!-- Node1&#45;&gt;Node7 -->
<g id="edge9" class="edge"><title>Node1&#45;&gt;Node7</title>
<path fill="none" stroke="midnightblue" d="M81.9096,-171.678C57.5367,-166.146 28.2264,-154.886 12.9148,-132 -0.656339,-111.715 25.183,-92.4696 48.1897,-80.2607"/>
<polygon fill="midnightblue" stroke="midnightblue" points="50.0557,-83.2405 57.4274,-75.6307 46.9191,-76.9825 50.0557,-83.2405"/>
</g>
<!-- Node8 -->
<g id="node9" class="node"><title>Node8</title>
<g id="a_node9"><a xlink:href="Rect_8h.html" target="_top" xlink:title="Rect.h">
<polygon fill="white" stroke="black" points="307.915,-112.5 307.915,-131.5 353.915,-131.5 353.915,-112.5 307.915,-112.5"/>
<text text-anchor="middle" x="330.915" y="-119.5" font-family="Helvetica,sans-Serif" font-size="10.00">Rect.h</text>
</a>
</g>
</g>
<!-- Node1&#45;&gt;Node8 -->
<g id="edge10" class="edge"><title>Node1&#45;&gt;Node8</title>
<path fill="none" stroke="midnightblue" d="M156.026,-168.45C191.513,-159.514 248.67,-145.01 297.915,-132 298.015,-131.973 298.116,-131.947 298.217,-131.92"/>
<polygon fill="midnightblue" stroke="midnightblue" points="299.094,-135.309 307.848,-129.341 297.283,-128.547 299.094,-135.309"/>
</g>
<!-- Node6&#45;&gt;Node1 -->
<g id="edge8" class="edge"><title>Node6&#45;&gt;Node1</title>
<path fill="none" stroke="midnightblue" d="M127.046,-131.751C128.572,-138.858 129.019,-149.136 128.387,-158.101"/>
<polygon fill="midnightblue" stroke="midnightblue" points="124.908,-157.713 127.081,-168.083 131.849,-158.622 124.908,-157.713"/>
</g>
<!-- Node6&#45;&gt;Node7 -->
<g id="edge7" class="edge"><title>Node6&#45;&gt;Node7</title>
<path fill="none" stroke="midnightblue" d="M114.649,-112.083C108.37,-104.377 99.1272,-93.0333 91.484,-83.6531"/>
<polygon fill="midnightblue" stroke="midnightblue" points="94.0754,-81.2926 85.0453,-75.7511 88.6487,-85.7143 94.0754,-81.2926"/>
</g>
<!-- Node8&#45;&gt;Node2 -->
<g id="edge11" class="edge"><title>Node8&#45;&gt;Node2</title>
<path fill="none" stroke="midnightblue" d="M316.402,-112.319C298.392,-100.365 271.378,-77.8285 282.915,-56 290.339,-41.9533 304.335,-31.4667 317.536,-24.167"/>
<polygon fill="midnightblue" stroke="midnightblue" points="319.138,-27.2788 326.456,-19.6178 315.958,-21.0428 319.138,-27.2788"/>
</g>
<!-- Node9 -->
<g id="node10" class="node"><title>Node9</title>
<g id="a_node10"><a xlink:href="Vec2_8h.html" target="_top" xlink:title="Vec2.h">
<polygon fill="white" stroke="black" points="292.415,-56.5 292.415,-75.5 339.415,-75.5 339.415,-56.5 292.415,-56.5"/>
<text text-anchor="middle" x="315.915" y="-63.5" font-family="Helvetica,sans-Serif" font-size="10.00">Vec2.h</text>
</a>
</g>
</g>
<!-- Node8&#45;&gt;Node9 -->
<g id="edge12" class="edge"><title>Node8&#45;&gt;Node9</title>
<path fill="none" stroke="midnightblue" d="M328.438,-112.083C326.428,-104.849 323.528,-94.4087 321.025,-85.3968"/>
<polygon fill="midnightblue" stroke="midnightblue" points="324.394,-84.4495 318.346,-75.7511 317.65,-86.323 324.394,-84.4495"/>
</g>
<!-- Node10 -->
<g id="node11" class="node"><title>Node10</title>
<polygon fill="white" stroke="#bfbfbf" points="191.915,-56.5 191.915,-75.5 235.915,-75.5 235.915,-56.5 191.915,-56.5"/>
<text text-anchor="middle" x="213.915" y="-63.5" font-family="Helvetica,sans-Serif" font-size="10.00">cmath</text>
</g>
<!-- Node8&#45;&gt;Node10 -->
<g id="edge14" class="edge"><title>Node8&#45;&gt;Node10</title>
<path fill="none" stroke="midnightblue" d="M312.376,-112.444C293.292,-103.636 263.34,-89.8116 241.479,-79.722"/>
<polygon fill="midnightblue" stroke="midnightblue" points="242.913,-76.5292 232.367,-75.5164 239.98,-82.8849 242.913,-76.5292"/>
</g>
<!-- Node9&#45;&gt;Node2 -->
<g id="edge13" class="edge"><title>Node9&#45;&gt;Node2</title>
<path fill="none" stroke="midnightblue" d="M321.364,-56.083C325.929,-48.6127 332.583,-37.7244 338.208,-28.5199"/>
<polygon fill="midnightblue" stroke="midnightblue" points="341.339,-30.109 343.567,-19.7511 335.366,-26.4588 341.339,-30.109"/>
</g>
<!-- Node11&#45;&gt;Node2 -->
<g id="edge16" class="edge"><title>Node11&#45;&gt;Node2</title>
<path fill="none" stroke="midnightblue" d="M325.121,-170.134C328.078,-169.386 331.059,-168.658 333.915,-168 454.995,-140.096 540.212,-186.043 597.915,-76 602.043,-68.1277 603.614,-62.8214 597.915,-56 573.084,-26.28 464.341,-16.1524 399.052,-12.7271"/>
<polygon fill="midnightblue" stroke="midnightblue" points="399.125,-9.22657 388.966,-12.2329 398.783,-16.2182 399.125,-9.22657"/>
</g>
<!-- Node11&#45;&gt;Node4 -->
<g id="edge18" class="edge"><title>Node11&#45;&gt;Node4</title>
<path fill="none" stroke="midnightblue" d="M284.491,-168.324C269.375,-159.822 246.099,-146.729 228.444,-136.797"/>
<polygon fill="midnightblue" stroke="midnightblue" points="229.732,-133.507 219.301,-131.655 226.3,-139.608 229.732,-133.507"/>
</g>
<!-- Node11&#45;&gt;Node5 -->
<g id="edge17" class="edge"><title>Node11&#45;&gt;Node5</title>
<path fill="none" stroke="midnightblue" d="M294.796,-168.083C290.507,-160.613 284.257,-149.724 278.973,-140.52"/>
<polygon fill="midnightblue" stroke="midnightblue" points="281.953,-138.681 273.939,-131.751 275.882,-142.166 281.953,-138.681"/>
</g>
<!-- Node11&#45;&gt;Node6 -->
<g id="edge19" class="edge"><title>Node11&#45;&gt;Node6</title>
<path fill="none" stroke="midnightblue" d="M274.789,-169.378C244.872,-160.302 194.603,-145.052 159.923,-134.531"/>
<polygon fill="midnightblue" stroke="midnightblue" points="160.729,-131.118 150.143,-131.564 158.696,-137.816 160.729,-131.118"/>
</g>
<!-- Node11&#45;&gt;Node8 -->
<g id="edge22" class="edge"><title>Node11&#45;&gt;Node8</title>
<path fill="none" stroke="midnightblue" d="M305.034,-168.083C309.322,-160.613 315.573,-149.724 320.857,-140.52"/>
<polygon fill="midnightblue" stroke="midnightblue" points="323.948,-142.166 325.891,-131.751 317.877,-138.681 323.948,-142.166"/>
</g>
<!-- Node12 -->
<g id="node13" class="node"><title>Node12</title>
<g id="a_node13"><a xlink:href="Color_8h.html" target="_top" xlink:title="Color.h">
<polygon fill="white" stroke="black" points="357.915,-56.5 357.915,-75.5 405.915,-75.5 405.915,-56.5 357.915,-56.5"/>
<text text-anchor="middle" x="381.915" y="-63.5" font-family="Helvetica,sans-Serif" font-size="10.00">Color.h</text>
</a>
</g>
</g>
<!-- Node11&#45;&gt;Node12 -->
<g id="edge20" class="edge"><title>Node11&#45;&gt;Node12</title>
<path fill="none" stroke="midnightblue" d="M317.943,-168.391C332.141,-160.726 351.397,-148.22 362.915,-132 372.593,-118.37 377.382,-99.8287 379.727,-86.0367"/>
<polygon fill="midnightblue" stroke="midnightblue" points="383.242,-86.1716 381.175,-75.7804 376.311,-85.1926 383.242,-86.1716"/>
</g>
<!-- Node13 -->
<g id="node14" class="node"><title>Node13</title>
<g id="a_node14"><a xlink:href="InputManager_8h.html" target="_top" xlink:title="InputManager.h">
<polygon fill="white" stroke="black" points="423.915,-112.5 423.915,-131.5 507.915,-131.5 507.915,-112.5 423.915,-112.5"/>
<text text-anchor="middle" x="465.915" y="-119.5" font-family="Helvetica,sans-Serif" font-size="10.00">InputManager.h</text>
</a>
</g>
</g>
<!-- Node11&#45;&gt;Node13 -->
<g id="edge23" class="edge"><title>Node11&#45;&gt;Node13</title>
<path fill="none" stroke="midnightblue" d="M325.127,-168.799C353.035,-159.72 398.247,-145.012 429.886,-134.72"/>
<polygon fill="midnightblue" stroke="midnightblue" points="431.215,-137.969 439.642,-131.547 429.049,-131.312 431.215,-137.969"/>
</g>
<!-- Node12&#45;&gt;Node2 -->
<g id="edge21" class="edge"><title>Node12&#45;&gt;Node2</title>
<path fill="none" stroke="midnightblue" d="M376.466,-56.083C371.9,-48.6127 365.246,-37.7244 359.621,-28.5199"/>
<polygon fill="midnightblue" stroke="midnightblue" points="362.464,-26.4588 354.263,-19.7511 356.491,-30.109 362.464,-26.4588"/>
</g>
<!-- Node13&#45;&gt;Node2 -->
<g id="edge24" class="edge"><title>Node13&#45;&gt;Node2</title>
<path fill="none" stroke="midnightblue" d="M507.923,-113.352C549.925,-103.87 605.063,-85.2825 580.915,-56 558.336,-28.6211 460.332,-17.6961 399.151,-13.4897"/>
<polygon fill="midnightblue" stroke="midnightblue" points="399.13,-9.9811 388.924,-12.8253 398.676,-16.9664 399.13,-9.9811"/>
</g>
<!-- Node13&#45;&gt;Node9 -->
<g id="edge25" class="edge"><title>Node13&#45;&gt;Node9</title>
<path fill="none" stroke="midnightblue" d="M442.147,-112.444C417.022,-103.399 377.204,-89.064 349.014,-78.9158"/>
<polygon fill="midnightblue" stroke="midnightblue" points="350.166,-75.6106 339.572,-75.5164 347.795,-82.1968 350.166,-75.6106"/>
</g>
<!-- Node14 -->
<g id="node15" class="node"><title>Node14</title>
<polygon fill="white" stroke="#bfbfbf" points="424.415,-56.5 424.415,-75.5 507.415,-75.5 507.415,-56.5 424.415,-56.5"/>
<text text-anchor="middle" x="465.915" y="-63.5" font-family="Helvetica,sans-Serif" font-size="10.00">unordered_map</text>
</g>
<!-- Node13&#45;&gt;Node14 -->
<g id="edge26" class="edge"><title>Node13&#45;&gt;Node14</title>
<path fill="none" stroke="midnightblue" d="M465.915,-112.083C465.915,-105.006 465.915,-94.8611 465.915,-85.9865"/>
<polygon fill="midnightblue" stroke="midnightblue" points="469.415,-85.751 465.915,-75.7511 462.415,-85.7511 469.415,-85.751"/>
</g>
<!-- Node15 -->
<g id="node16" class="node"><title>Node15</title>
<polygon fill="white" stroke="#bfbfbf" points="525.915,-56.5 525.915,-75.5 571.915,-75.5 571.915,-56.5 525.915,-56.5"/>
<text text-anchor="middle" x="548.915" y="-63.5" font-family="Helvetica,sans-Serif" font-size="10.00">cstdint</text>
</g>
<!-- Node13&#45;&gt;Node15 -->
<g id="edge27" class="edge"><title>Node13&#45;&gt;Node15</title>
<path fill="none" stroke="midnightblue" d="M479.25,-112.324C492.077,-103.979 511.7,-91.2122 526.855,-81.3524"/>
<polygon fill="midnightblue" stroke="midnightblue" points="529.139,-84.0417 535.613,-75.6545 525.322,-78.1742 529.139,-84.0417"/>
</g>
</g>
</svg>
