<?xml version="1.0" encoding="UTF-8" standalone="no"?>
<!DOCTYPE svg PUBLIC "-//W3C//DTD SVG 1.1//EN"
 "http://www.w3.org/Graphics/SVG/1.1/DTD/svg11.dtd">
<!-- Generated by graphviz version 2.38.0 (20140413.2041)
 -->
<!-- Title: include/AStarHeuristic.h Pages: 1 -->
<svg width="424pt" height="196pt"
 viewBox="0.00 0.00 423.50 196.00" xmlns="http://www.w3.org/2000/svg" xmlns:xlink="http://www.w3.org/1999/xlink">
<g id="graph0" class="graph" transform="scale(1 1) rotate(0) translate(4 192)">
<title>include/AStarHeuristic.h</title>
<polygon fill="white" stroke="none" points="-4,4 -4,-192 419.5,-192 419.5,4 -4,4"/>
<!-- Node3 -->
<g id="node1" class="node"><title>Node3</title>
<polygon fill="#bfbfbf" stroke="black" points="185,-168.5 185,-187.5 307,-187.5 307,-168.5 185,-168.5"/>
<text text-anchor="middle" x="246" y="-175.5" font-family="Helvetica,sans-Serif" font-size="10.00">include/AStarHeuristic.h</text>
</g>
<!-- Node4 -->
<g id="node2" class="node"><title>Node4</title>
<g id="a_node2"><a xlink:href="TileMap_8h.html" target="_top" xlink:title="include/TileMap.h">
<polygon fill="white" stroke="black" points="115.5,-112.5 115.5,-131.5 208.5,-131.5 208.5,-112.5 115.5,-112.5"/>
<text text-anchor="middle" x="162" y="-119.5" font-family="Helvetica,sans-Serif" font-size="10.00">include/TileMap.h</text>
</a>
</g>
</g>
<!-- Node3&#45;&gt;Node4 -->
<g id="edge1" class="edge"><title>Node3&#45;&gt;Node4</title>
<path fill="none" stroke="midnightblue" d="M224.068,-162.901C208.665,-152.999 188.554,-140.071 175.463,-131.655"/>
<polygon fill="midnightblue" stroke="midnightblue" points="222.199,-165.86 232.504,-168.324 225.985,-159.972 222.199,-165.86"/>
</g>
<!-- Node8 -->
<g id="node6" class="node"><title>Node8</title>
<g id="a_node6"><a xlink:href="ManhattanDistance_8h.html" target="_top" xlink:title="include/ManhattanDistance.h">
<polygon fill="white" stroke="black" points="258.5,-112.5 258.5,-131.5 401.5,-131.5 401.5,-112.5 258.5,-112.5"/>
<text text-anchor="middle" x="330" y="-119.5" font-family="Helvetica,sans-Serif" font-size="10.00">include/ManhattanDistance.h</text>
</a>
</g>
</g>
<!-- Node3&#45;&gt;Node8 -->
<g id="edge6" class="edge"><title>Node3&#45;&gt;Node8</title>
<path fill="none" stroke="midnightblue" d="M267.932,-162.901C283.335,-152.999 303.446,-140.071 316.537,-131.655"/>
<polygon fill="midnightblue" stroke="midnightblue" points="266.015,-159.972 259.496,-168.324 269.801,-165.86 266.015,-159.972"/>
</g>
<!-- Node5 -->
<g id="node3" class="node"><title>Node5</title>
<g id="a_node3"><a xlink:href="DragAndDrop_8h.html" target="_top" xlink:title="include/DragAndDrop.h">
<polygon fill="white" stroke="black" points="0,-56.5 0,-75.5 118,-75.5 118,-56.5 0,-56.5"/>
<text text-anchor="middle" x="59" y="-63.5" font-family="Helvetica,sans-Serif" font-size="10.00">include/DragAndDrop.h</text>
</a>
</g>
</g>
<!-- Node4&#45;&gt;Node5 -->
<g id="edge2" class="edge"><title>Node4&#45;&gt;Node5</title>
<path fill="none" stroke="midnightblue" d="M136.421,-107.59C117.377,-97.6052 91.9356,-84.2672 75.5077,-75.6545"/>
<polygon fill="midnightblue" stroke="midnightblue" points="134.969,-110.78 145.451,-112.324 138.22,-104.581 134.969,-110.78"/>
</g>
<!-- Node6 -->
<g id="node4" class="node"><title>Node6</title>
<g id="a_node4"><a xlink:href="DragAndDrop_8cpp.html" target="_top" xlink:title="src/DragAndDrop.cpp">
<polygon fill="white" stroke="black" points="46.5,-0.5 46.5,-19.5 157.5,-19.5 157.5,-0.5 46.5,-0.5"/>
<text text-anchor="middle" x="102" y="-7.5" font-family="Helvetica,sans-Serif" font-size="10.00">src/DragAndDrop.cpp</text>
</a>
</g>
</g>
<!-- Node4&#45;&gt;Node6 -->
<g id="edge4" class="edge"><title>Node4&#45;&gt;Node6</title>
<path fill="none" stroke="midnightblue" d="M152.532,-103.267C145.526,-90.1797 135.724,-71.9496 127,-56 120.052,-43.2978 111.886,-28.6515 106.826,-19.6082"/>
<polygon fill="midnightblue" stroke="midnightblue" points="149.48,-104.98 157.281,-112.149 155.653,-101.68 149.48,-104.98"/>
</g>
<!-- Node7 -->
<g id="node5" class="node"><title>Node7</title>
<g id="a_node5"><a xlink:href="TileMap_8cpp.html" target="_top" xlink:title="src/TileMap.cpp">
<polygon fill="white" stroke="black" points="174,-56.5 174,-75.5 260,-75.5 260,-56.5 174,-56.5"/>
<text text-anchor="middle" x="217" y="-63.5" font-family="Helvetica,sans-Serif" font-size="10.00">src/TileMap.cpp</text>
</a>
</g>
</g>
<!-- Node4&#45;&gt;Node7 -->
<g id="edge5" class="edge"><title>Node4&#45;&gt;Node7</title>
<path fill="none" stroke="midnightblue" d="M178.294,-105.002C188.041,-95.4329 200.053,-83.6389 208.087,-75.7511"/>
<polygon fill="midnightblue" stroke="midnightblue" points="175.766,-102.58 171.082,-112.083 180.67,-107.575 175.766,-102.58"/>
</g>
<!-- Node5&#45;&gt;Node6 -->
<g id="edge3" class="edge"><title>Node5&#45;&gt;Node6</title>
<path fill="none" stroke="midnightblue" d="M72.4224,-48.144C79.9142,-38.7357 88.9371,-27.4046 95.0315,-19.7511"/>
<polygon fill="midnightblue" stroke="midnightblue" points="69.5919,-46.0799 66.1006,-56.083 75.0679,-50.4404 69.5919,-46.0799"/>
</g>
<!-- Node9 -->
<g id="node7" class="node"><title>Node9</title>
<g id="a_node7"><a xlink:href="ManhattanDistance_8cpp.html" target="_top" xlink:title="src/ManhattanDistance.cpp">
<polygon fill="white" stroke="black" points="278.5,-56.5 278.5,-75.5 415.5,-75.5 415.5,-56.5 278.5,-56.5"/>
<text text-anchor="middle" x="347" y="-63.5" font-family="Helvetica,sans-Serif" font-size="10.00">src/ManhattanDistance.cpp</text>
</a>
</g>
</g>
<!-- Node8&#45;&gt;Node9 -->
<g id="edge7" class="edge"><title>Node8&#45;&gt;Node9</title>
<path fill="none" stroke="midnightblue" d="M335.857,-102.396C338.701,-93.362 341.983,-82.936 344.245,-75.7511"/>
<polygon fill="midnightblue" stroke="midnightblue" points="332.472,-101.493 332.807,-112.083 339.149,-103.596 332.472,-101.493"/>
</g>
</g>
</svg>
