<?xml version="1.0" encoding="UTF-8" standalone="no"?>
<!DOCTYPE svg PUBLIC "-//W3C//DTD SVG 1.1//EN"
 "http://www.w3.org/Graphics/SVG/1.1/DTD/svg11.dtd">
<!-- Generated by graphviz version 2.38.0 (20140413.2041)
 -->
<!-- Title: include/BaseTile.h Pages: 1 -->
<svg width="105pt" height="84pt"
 viewBox="0.00 0.00 105.00 84.00" xmlns="http://www.w3.org/2000/svg" xmlns:xlink="http://www.w3.org/1999/xlink">
<g id="graph0" class="graph" transform="scale(1 1) rotate(0) translate(4 80)">
<title>include/BaseTile.h</title>
<polygon fill="white" stroke="none" points="-4,4 -4,-80 101,-80 101,4 -4,4"/>
<!-- Node4 -->
<g id="node1" class="node"><title>Node4</title>
<polygon fill="#bfbfbf" stroke="black" points="-7.10543e-15,-56.5 -7.10543e-15,-75.5 97,-75.5 97,-56.5 -7.10543e-15,-56.5"/>
<text text-anchor="middle" x="48.5" y="-63.5" font-family="Helvetica,sans-Serif" font-size="10.00">include/BaseTile.h</text>
</g>
<!-- Node5 -->
<g id="node2" class="node"><title>Node5</title>
<g id="a_node2"><a xlink:href="BaseTile_8cpp.html" target="_top" xlink:title="src/BaseTile.cpp">
<polygon fill="white" stroke="black" points="3.5,-0.5 3.5,-19.5 93.5,-19.5 93.5,-0.5 3.5,-0.5"/>
<text text-anchor="middle" x="48.5" y="-7.5" font-family="Helvetica,sans-Serif" font-size="10.00">src/BaseTile.cpp</text>
</a>
</g>
</g>
<!-- Node4&#45;&gt;Node5 -->
<g id="edge1" class="edge"><title>Node4&#45;&gt;Node5</title>
<path fill="none" stroke="midnightblue" d="M48.5,-45.8045C48.5,-36.9102 48.5,-26.7798 48.5,-19.7511"/>
<polygon fill="midnightblue" stroke="midnightblue" points="45.0001,-46.083 48.5,-56.083 52.0001,-46.083 45.0001,-46.083"/>
</g>
</g>
</svg>
