<?xml version="1.0" encoding="UTF-8" standalone="no"?>
<!DOCTYPE svg PUBLIC "-//W3C//DTD SVG 1.1//EN"
 "http://www.w3.org/Graphics/SVG/1.1/DTD/svg11.dtd">
<!-- Generated by graphviz version 2.40.1 (20161225.0304)
 -->
<!-- Title: src/Button.cpp Pages: 1 -->
<svg width="706pt" height="364pt"
 viewBox="0.00 0.00 705.50 364.00" xmlns="http://www.w3.org/2000/svg" xmlns:xlink="http://www.w3.org/1999/xlink">
<g id="graph0" class="graph" transform="scale(1 1) rotate(0) translate(4 360)">
<title>src/Button.cpp</title>
<polygon fill="#ffffff" stroke="transparent" points="-4,4 -4,-360 701.5,-360 701.5,4 -4,4"/>
<!-- Node0 -->
<g id="node1" class="node">
<title>Node0</title>
<polygon fill="#bfbfbf" stroke="#000000" points="396.5,-336.5 396.5,-355.5 476.5,-355.5 476.5,-336.5 396.5,-336.5"/>
<text text-anchor="middle" x="436.5" y="-343.5" font-family="Helvetica,sans-Serif" font-size="10.00" fill="#000000">src/Button.cpp</text>
</g>
<!-- Node1 -->
<g id="node2" class="node">
<title>Node1</title>
<g id="a_node2"><a xlink:href="Button_8h.html" target="_top" xlink:title="Button.h">
<polygon fill="#ffffff" stroke="#000000" points="167,-280.5 167,-299.5 220,-299.5 220,-280.5 167,-280.5"/>
<text text-anchor="middle" x="193.5" y="-287.5" font-family="Helvetica,sans-Serif" font-size="10.00" fill="#000000">Button.h</text>
</a>
</g>
</g>
<!-- Node0&#45;&gt;Node1 -->
<g id="edge1" class="edge">
<title>Node0&#45;&gt;Node1</title>
<path fill="none" stroke="#191970" d="M396.3735,-336.7527C350.101,-326.0891 274.686,-308.7095 230.0034,-298.4123"/>
<polygon fill="#191970" stroke="#191970" points="230.68,-294.9766 220.1494,-296.1414 229.108,-301.7978 230.68,-294.9766"/>
</g>
<!-- Node10 -->
<g id="node11" class="node">
<title>Node10</title>
<g id="a_node11"><a xlink:href="Vec2_8h.html" target="_top" xlink:title="Vec2.h">
<polygon fill="#ffffff" stroke="#000000" points="446,-56.5 446,-75.5 493,-75.5 493,-56.5 446,-56.5"/>
<text text-anchor="middle" x="469.5" y="-63.5" font-family="Helvetica,sans-Serif" font-size="10.00" fill="#000000">Vec2.h</text>
</a>
</g>
</g>
<!-- Node0&#45;&gt;Node10 -->
<g id="edge31" class="edge">
<title>Node0&#45;&gt;Node10</title>
<path fill="none" stroke="#191970" d="M447.4254,-336.4083C466.6474,-318.4089 504.5,-277.4481 504.5,-234 504.5,-234 504.5,-234 504.5,-178 504.5,-143.8821 489.5205,-106.4701 479.1609,-84.676"/>
<polygon fill="#191970" stroke="#191970" points="482.2308,-82.9879 474.6644,-75.5717 475.9545,-86.0877 482.2308,-82.9879"/>
</g>
<!-- Node12 -->
<g id="node13" class="node">
<title>Node12</title>
<g id="a_node13"><a xlink:href="RectTransform_8h.html" target="_top" xlink:title="RectTransform.h">
<polygon fill="#ffffff" stroke="#000000" points="323.5,-280.5 323.5,-299.5 413.5,-299.5 413.5,-280.5 323.5,-280.5"/>
<text text-anchor="middle" x="368.5" y="-287.5" font-family="Helvetica,sans-Serif" font-size="10.00" fill="#000000">RectTransform.h</text>
</a>
</g>
</g>
<!-- Node0&#45;&gt;Node12 -->
<g id="edge19" class="edge">
<title>Node0&#45;&gt;Node12</title>
<path fill="none" stroke="#191970" d="M424.6553,-336.2455C414.612,-327.9746 400.0005,-315.9416 388.1996,-306.2232"/>
<polygon fill="#191970" stroke="#191970" points="390.1533,-303.298 380.209,-299.6427 385.7033,-308.7015 390.1533,-303.298"/>
</g>
<!-- Node14 -->
<g id="node15" class="node">
<title>Node14</title>
<g id="a_node15"><a xlink:href="InputManager_8h.html" target="_top" xlink:title="InputManager.h">
<polygon fill="#ffffff" stroke="#000000" points="532.5,-112.5 532.5,-131.5 616.5,-131.5 616.5,-112.5 532.5,-112.5"/>
<text text-anchor="middle" x="574.5" y="-119.5" font-family="Helvetica,sans-Serif" font-size="10.00" fill="#000000">InputManager.h</text>
</a>
</g>
</g>
<!-- Node0&#45;&gt;Node14 -->
<g id="edge26" class="edge">
<title>Node0&#45;&gt;Node14</title>
<path fill="none" stroke="#191970" d="M464.8284,-336.3485C482.5627,-328.9613 504.6064,-317.1045 518.5,-300 557.3888,-252.1239 569.4076,-177.0039 573.0137,-141.646"/>
<polygon fill="#191970" stroke="#191970" points="576.503,-141.9214 573.9123,-131.6482 569.5311,-141.2947 576.503,-141.9214"/>
</g>
<!-- Node2 -->
<g id="node3" class="node">
<title>Node2</title>
<g id="a_node3"><a xlink:href="Component_8h.html" target="_top" xlink:title="Component.h">
<polygon fill="#ffffff" stroke="#000000" points="227,-224.5 227,-243.5 302,-243.5 302,-224.5 227,-224.5"/>
<text text-anchor="middle" x="264.5" y="-231.5" font-family="Helvetica,sans-Serif" font-size="10.00" fill="#000000">Component.h</text>
</a>
</g>
</g>
<!-- Node1&#45;&gt;Node2 -->
<g id="edge2" class="edge">
<title>Node1&#45;&gt;Node2</title>
<path fill="none" stroke="#191970" d="M205.8673,-280.2455C216.4554,-271.8943 231.9064,-259.7076 244.2893,-249.9408"/>
<polygon fill="#191970" stroke="#191970" points="246.5903,-252.5837 252.2745,-243.6427 242.2553,-247.0875 246.5903,-252.5837"/>
</g>
<!-- Node3 -->
<g id="node4" class="node">
<title>Node3</title>
<g id="a_node4"><a xlink:href="ComponentType_8h.html" target="_top" xlink:title="ComponentType.h">
<polygon fill="#ffffff" stroke="#000000" points="0,-112.5 0,-131.5 97,-131.5 97,-112.5 0,-112.5"/>
<text text-anchor="middle" x="48.5" y="-119.5" font-family="Helvetica,sans-Serif" font-size="10.00" fill="#000000">ComponentType.h</text>
</a>
</g>
</g>
<!-- Node1&#45;&gt;Node3 -->
<g id="edge17" class="edge">
<title>Node1&#45;&gt;Node3</title>
<path fill="none" stroke="#191970" d="M185.2887,-280.4862C161.7722,-253.2396 93.9137,-174.6172 63.5261,-139.4096"/>
<polygon fill="#191970" stroke="#191970" points="66.1659,-137.1113 56.9824,-131.8279 60.8667,-141.685 66.1659,-137.1113"/>
</g>
<!-- Node4 -->
<g id="node5" class="node">
<title>Node4</title>
<g id="a_node5"><a xlink:href="GameObject_8h.html" target="_top" xlink:title="GameObject.h">
<polygon fill="#ffffff" stroke="#000000" points="226.5,-168.5 226.5,-187.5 306.5,-187.5 306.5,-168.5 226.5,-168.5"/>
<text text-anchor="middle" x="266.5" y="-175.5" font-family="Helvetica,sans-Serif" font-size="10.00" fill="#000000">GameObject.h</text>
</a>
</g>
</g>
<!-- Node1&#45;&gt;Node4 -->
<g id="edge18" class="edge">
<title>Node1&#45;&gt;Node4</title>
<path fill="none" stroke="#191970" d="M195.4995,-280.3987C198.6177,-266.9497 205.5545,-242.1191 217.5,-224 224.951,-212.6982 235.7121,-202.1927 245.2529,-194.0828"/>
<polygon fill="#191970" stroke="#191970" points="247.6588,-196.6376 253.2092,-187.6129 243.2424,-191.2066 247.6588,-196.6376"/>
</g>
<!-- Node2&#45;&gt;Node3 -->
<g id="edge3" class="edge">
<title>Node2&#45;&gt;Node3</title>
<path fill="none" stroke="#191970" d="M253.5438,-224.3544C237.2525,-210.4007 205.2502,-184.457 174.5,-168 148.4243,-154.0447 117.2103,-142.6145 92.3739,-134.6387"/>
<polygon fill="#191970" stroke="#191970" points="93.0907,-131.1954 82.5015,-131.5411 90.995,-137.8744 93.0907,-131.1954"/>
</g>
<!-- Node2&#45;&gt;Node4 -->
<g id="edge4" class="edge">
<title>Node2&#45;&gt;Node4</title>
<path fill="none" stroke="#191970" d="M259.5815,-224.2455C258.4315,-216.9382 258.3931,-206.6944 259.3168,-197.7046"/>
<polygon fill="#191970" stroke="#191970" points="262.8029,-198.0671 260.9105,-187.6427 255.8891,-196.972 262.8029,-198.0671"/>
</g>
<!-- Node4&#45;&gt;Node2 -->
<g id="edge9" class="edge">
<title>Node4&#45;&gt;Node2</title>
<path fill="none" stroke="#191970" d="M271.4008,-187.6427C272.5622,-194.9199 272.6111,-205.155 271.6973,-214.1575"/>
<polygon fill="#191970" stroke="#191970" points="268.2069,-213.824 270.1152,-224.2455 275.1224,-214.9086 268.2069,-213.824"/>
</g>
<!-- Node4&#45;&gt;Node3 -->
<g id="edge10" class="edge">
<title>Node4&#45;&gt;Node3</title>
<path fill="none" stroke="#191970" d="M229.0245,-168.3733C191.9897,-158.8598 135.2318,-144.2797 95.2639,-134.0127"/>
<polygon fill="#191970" stroke="#191970" points="96.0429,-130.5993 85.4865,-131.5011 94.3012,-137.3792 96.0429,-130.5993"/>
</g>
<!-- Node5 -->
<g id="node6" class="node">
<title>Node5</title>
<g id="a_node6"><a xlink:href="SDL__include_8h.html" target="_top" xlink:title="SDL_include.h">
<polygon fill="#ffffff" stroke="#000000" points="403.5,-.5 403.5,-19.5 483.5,-19.5 483.5,-.5 403.5,-.5"/>
<text text-anchor="middle" x="443.5" y="-7.5" font-family="Helvetica,sans-Serif" font-size="10.00" fill="#000000">SDL_include.h</text>
</a>
</g>
</g>
<!-- Node4&#45;&gt;Node5 -->
<g id="edge5" class="edge">
<title>Node4&#45;&gt;Node5</title>
<path fill="none" stroke="#191970" d="M273.7875,-168.4004C280.5649,-159.2769 290.753,-145.0501 298.5,-132 317.7775,-99.5262 309.0381,-81.9233 336.5,-56 352.8006,-40.6127 375.0489,-29.9259 395.0368,-22.7541"/>
<polygon fill="#191970" stroke="#191970" points="396.2791,-26.0288 404.6315,-19.5105 394.0373,-19.3974 396.2791,-26.0288"/>
</g>
<!-- Node6 -->
<g id="node7" class="node">
<title>Node6</title>
<polygon fill="#ffffff" stroke="#bfbfbf" points="115.5,-112.5 115.5,-131.5 159.5,-131.5 159.5,-112.5 115.5,-112.5"/>
<text text-anchor="middle" x="137.5" y="-119.5" font-family="Helvetica,sans-Serif" font-size="10.00" fill="#000000">vector</text>
</g>
<!-- Node4&#45;&gt;Node6 -->
<g id="edge6" class="edge">
<title>Node4&#45;&gt;Node6</title>
<path fill="none" stroke="#191970" d="M244.3241,-168.3733C223.5234,-159.3435 192.2083,-145.7494 168.8542,-135.6111"/>
<polygon fill="#191970" stroke="#191970" points="169.9532,-132.2727 159.3865,-131.5011 167.1657,-138.6938 169.9532,-132.2727"/>
</g>
<!-- Node7 -->
<g id="node8" class="node">
<title>Node7</title>
<polygon fill="#ffffff" stroke="#bfbfbf" points="177.5,-112.5 177.5,-131.5 229.5,-131.5 229.5,-112.5 177.5,-112.5"/>
<text text-anchor="middle" x="203.5" y="-119.5" font-family="Helvetica,sans-Serif" font-size="10.00" fill="#000000">memory</text>
</g>
<!-- Node4&#45;&gt;Node7 -->
<g id="edge7" class="edge">
<title>Node4&#45;&gt;Node7</title>
<path fill="none" stroke="#191970" d="M255.5262,-168.2455C246.3118,-160.0549 232.9468,-148.1749 222.0703,-138.5069"/>
<polygon fill="#191970" stroke="#191970" points="224.1474,-135.6704 214.348,-131.6427 219.4968,-140.9023 224.1474,-135.6704"/>
</g>
<!-- Node8 -->
<g id="node9" class="node">
<title>Node8</title>
<polygon fill="#ffffff" stroke="#bfbfbf" points="248,-112.5 248,-131.5 289,-131.5 289,-112.5 248,-112.5"/>
<text text-anchor="middle" x="268.5" y="-119.5" font-family="Helvetica,sans-Serif" font-size="10.00" fill="#000000">string</text>
</g>
<!-- Node4&#45;&gt;Node8 -->
<g id="edge8" class="edge">
<title>Node4&#45;&gt;Node8</title>
<path fill="none" stroke="#191970" d="M266.8484,-168.2455C267.1093,-160.9382 267.4752,-150.6944 267.7963,-141.7046"/>
<polygon fill="#191970" stroke="#191970" points="271.2964,-141.7613 268.1556,-131.6427 264.3008,-141.5113 271.2964,-141.7613"/>
</g>
<!-- Node9 -->
<g id="node10" class="node">
<title>Node9</title>
<g id="a_node10"><a xlink:href="Rect_8h.html" target="_top" xlink:title="Rect.h">
<polygon fill="#ffffff" stroke="#000000" points="345.5,-112.5 345.5,-131.5 391.5,-131.5 391.5,-112.5 345.5,-112.5"/>
<text text-anchor="middle" x="368.5" y="-119.5" font-family="Helvetica,sans-Serif" font-size="10.00" fill="#000000">Rect.h</text>
</a>
</g>
</g>
<!-- Node4&#45;&gt;Node9 -->
<g id="edge11" class="edge">
<title>Node4&#45;&gt;Node9</title>
<path fill="none" stroke="#191970" d="M284.267,-168.2455C300.2095,-159.4928 323.8259,-146.527 341.9989,-136.5496"/>
<polygon fill="#191970" stroke="#191970" points="343.8552,-139.5233 350.9366,-131.6427 340.4863,-133.3873 343.8552,-139.5233"/>
</g>
<!-- Node9&#45;&gt;Node5 -->
<g id="edge12" class="edge">
<title>Node9&#45;&gt;Node5</title>
<path fill="none" stroke="#191970" d="M374.8945,-112.4509C387.4036,-93.7707 415.2921,-52.1238 431.3954,-28.0761"/>
<polygon fill="#191970" stroke="#191970" points="434.4658,-29.7814 437.1217,-19.5249 428.6494,-25.8865 434.4658,-29.7814"/>
</g>
<!-- Node9&#45;&gt;Node10 -->
<g id="edge13" class="edge">
<title>Node9&#45;&gt;Node10</title>
<path fill="none" stroke="#191970" d="M380.826,-112.2455C395.0514,-103.4125 418.4866,-90.2887 437.7822,-80.2758"/>
<polygon fill="#191970" stroke="#191970" points="439.5465,-83.3049 446.8636,-75.6427 436.3653,-77.0695 439.5465,-83.3049"/>
</g>
<!-- Node11 -->
<g id="node12" class="node">
<title>Node11</title>
<polygon fill="#ffffff" stroke="#bfbfbf" points="345.5,-56.5 345.5,-75.5 389.5,-75.5 389.5,-56.5 345.5,-56.5"/>
<text text-anchor="middle" x="367.5" y="-63.5" font-family="Helvetica,sans-Serif" font-size="10.00" fill="#000000">cmath</text>
</g>
<!-- Node9&#45;&gt;Node11 -->
<g id="edge16" class="edge">
<title>Node9&#45;&gt;Node11</title>
<path fill="none" stroke="#191970" d="M368.3258,-112.2455C368.1953,-104.9382 368.0124,-94.6944 367.8519,-85.7046"/>
<polygon fill="#191970" stroke="#191970" points="371.3503,-85.5786 367.6722,-75.6427 364.3514,-85.7036 371.3503,-85.5786"/>
</g>
<!-- Node10&#45;&gt;Node5 -->
<g id="edge14" class="edge">
<title>Node10&#45;&gt;Node5</title>
<path fill="none" stroke="#191970" d="M464.9711,-56.2455C461.4666,-48.6973 456.5073,-38.0158 452.2377,-28.8197"/>
<polygon fill="#191970" stroke="#191970" points="455.3627,-27.2389 447.977,-19.6427 449.0136,-30.1867 455.3627,-27.2389"/>
</g>
<!-- Node10&#45;&gt;Node9 -->
<g id="edge15" class="edge">
<title>Node10&#45;&gt;Node9</title>
<path fill="none" stroke="#191970" d="M457.5813,-75.5011C443.4109,-84.3278 419.7378,-97.5932 400.2659,-107.6992"/>
<polygon fill="#191970" stroke="#191970" points="398.4216,-104.7109 391.1045,-112.3733 401.6029,-110.9463 398.4216,-104.7109"/>
</g>
<!-- Node12&#45;&gt;Node2 -->
<g id="edge21" class="edge">
<title>Node12&#45;&gt;Node2</title>
<path fill="none" stroke="#191970" d="M350.3846,-280.2455C334.055,-271.4527 309.829,-258.4079 291.2661,-248.4125"/>
<polygon fill="#191970" stroke="#191970" points="292.8719,-245.3021 282.4078,-243.6427 289.5532,-251.4654 292.8719,-245.3021"/>
</g>
<!-- Node12&#45;&gt;Node3 -->
<g id="edge22" class="edge">
<title>Node12&#45;&gt;Node3</title>
<path fill="none" stroke="#191970" d="M323.7584,-280.4836C292.9101,-272.9473 251.502,-260.8668 217.5,-244 213.4827,-242.0072 114.3043,-169.9128 69.7863,-137.5048"/>
<polygon fill="#191970" stroke="#191970" points="71.8002,-134.6417 61.6559,-131.5849 67.6798,-140.3005 71.8002,-134.6417"/>
</g>
<!-- Node12&#45;&gt;Node4 -->
<g id="edge23" class="edge">
<title>Node12&#45;&gt;Node4</title>
<path fill="none" stroke="#191970" d="M360.3634,-280.4897C349.254,-267.5629 328.6438,-243.7882 310.5,-224 301.5796,-214.2712 291.4054,-203.6075 283.0889,-194.9989"/>
<polygon fill="#191970" stroke="#191970" points="285.5382,-192.4971 276.0629,-187.7567 280.5139,-197.3712 285.5382,-192.4971"/>
</g>
<!-- Node12&#45;&gt;Node9 -->
<g id="edge24" class="edge">
<title>Node12&#45;&gt;Node9</title>
<path fill="none" stroke="#191970" d="M368.5,-280.4862C368.5,-253.9293 368.5,-178.5651 368.5,-142.1655"/>
<polygon fill="#191970" stroke="#191970" points="372.0001,-141.8278 368.5,-131.8279 365.0001,-141.8279 372.0001,-141.8278"/>
</g>
<!-- Node12&#45;&gt;Node10 -->
<g id="edge25" class="edge">
<title>Node12&#45;&gt;Node10</title>
<path fill="none" stroke="#191970" d="M372.8398,-280.375C388.2177,-246.2697 440.2929,-130.7761 460.9525,-84.9567"/>
<polygon fill="#191970" stroke="#191970" points="464.2565,-86.144 465.1763,-75.5891 457.8752,-83.2667 464.2565,-86.144"/>
</g>
<!-- Node13 -->
<g id="node14" class="node">
<title>Node13</title>
<polygon fill="#ffffff" stroke="#bfbfbf" points="435,-224.5 435,-243.5 476,-243.5 476,-224.5 435,-224.5"/>
<text text-anchor="middle" x="455.5" y="-231.5" font-family="Helvetica,sans-Serif" font-size="10.00" fill="#000000">cfloat</text>
</g>
<!-- Node12&#45;&gt;Node13 -->
<g id="edge20" class="edge">
<title>Node12&#45;&gt;Node13</title>
<path fill="none" stroke="#191970" d="M383.6542,-280.2455C397.0027,-271.6534 416.6586,-259.0014 432.0383,-249.1018"/>
<polygon fill="#191970" stroke="#191970" points="434.0051,-251.9982 440.5194,-243.6427 430.2164,-246.1121 434.0051,-251.9982"/>
</g>
<!-- Node14&#45;&gt;Node5 -->
<g id="edge27" class="edge">
<title>Node14&#45;&gt;Node5</title>
<path fill="none" stroke="#191970" d="M564.4764,-112.339C550.7727,-99.2415 525.2863,-75.2738 502.5,-56 490.1724,-45.5727 475.9049,-34.4253 464.4883,-25.716"/>
<polygon fill="#191970" stroke="#191970" points="466.4776,-22.8321 456.3931,-19.5835 462.2507,-28.4119 466.4776,-22.8321"/>
</g>
<!-- Node14&#45;&gt;Node10 -->
<g id="edge28" class="edge">
<title>Node14&#45;&gt;Node10</title>
<path fill="none" stroke="#191970" d="M556.2104,-112.2455C539.7238,-103.4527 515.2648,-90.4079 496.5235,-80.4125"/>
<polygon fill="#191970" stroke="#191970" points="498.0506,-77.2604 487.58,-75.6427 494.7565,-83.4368 498.0506,-77.2604"/>
</g>
<!-- Node15 -->
<g id="node16" class="node">
<title>Node15</title>
<polygon fill="#ffffff" stroke="#bfbfbf" points="550,-56.5 550,-75.5 633,-75.5 633,-56.5 550,-56.5"/>
<text text-anchor="middle" x="591.5" y="-63.5" font-family="Helvetica,sans-Serif" font-size="10.00" fill="#000000">unordered_map</text>
</g>
<!-- Node14&#45;&gt;Node15 -->
<g id="edge29" class="edge">
<title>Node14&#45;&gt;Node15</title>
<path fill="none" stroke="#191970" d="M577.4612,-112.2455C579.7038,-104.8579 582.8577,-94.4689 585.6081,-85.4087"/>
<polygon fill="#191970" stroke="#191970" points="589.017,-86.2282 588.5728,-75.6427 582.3188,-84.1948 589.017,-86.2282"/>
</g>
<!-- Node16 -->
<g id="node17" class="node">
<title>Node16</title>
<polygon fill="#ffffff" stroke="#bfbfbf" points="651.5,-56.5 651.5,-75.5 697.5,-75.5 697.5,-56.5 651.5,-56.5"/>
<text text-anchor="middle" x="674.5" y="-63.5" font-family="Helvetica,sans-Serif" font-size="10.00" fill="#000000">cstdint</text>
</g>
<!-- Node14&#45;&gt;Node16 -->
<g id="edge30" class="edge">
<title>Node14&#45;&gt;Node16</title>
<path fill="none" stroke="#191970" d="M591.9187,-112.2455C607.5485,-103.4928 630.7019,-90.527 648.5185,-80.5496"/>
<polygon fill="#191970" stroke="#191970" points="650.266,-83.5825 657.2809,-75.6427 646.8457,-77.475 650.266,-83.5825"/>
</g>
</g>
</svg>
