<?xml version="1.0" encoding="UTF-8" standalone="no"?>
<!DOCTYPE svg PUBLIC "-//W3C//DTD SVG 1.1//EN"
 "http://www.w3.org/Graphics/SVG/1.1/DTD/svg11.dtd">
<!-- Generated by graphviz version 2.38.0 (20140413.2041)
 -->
<!-- Title: src/Button.cpp Pages: 1 -->
<svg width="706pt" height="364pt"
 viewBox="0.00 0.00 705.50 364.00" xmlns="http://www.w3.org/2000/svg" xmlns:xlink="http://www.w3.org/1999/xlink">
<g id="graph0" class="graph" transform="scale(1 1) rotate(0) translate(4 360)">
<title>src/Button.cpp</title>
<polygon fill="white" stroke="none" points="-4,4 -4,-360 701.5,-360 701.5,4 -4,4"/>
<!-- Node0 -->
<g id="node1" class="node"><title>Node0</title>
<polygon fill="#bfbfbf" stroke="black" points="396.5,-336.5 396.5,-355.5 476.5,-355.5 476.5,-336.5 396.5,-336.5"/>
<text text-anchor="middle" x="436.5" y="-343.5" font-family="Helvetica,sans-Serif" font-size="10.00">src/Button.cpp</text>
</g>
<!-- Node1 -->
<g id="node2" class="node"><title>Node1</title>
<g id="a_node2"><a xlink:href="Button_8h.html" target="_top" xlink:title="Button.h">
<polygon fill="white" stroke="black" points="168,-280.5 168,-299.5 221,-299.5 221,-280.5 168,-280.5"/>
<text text-anchor="middle" x="194.5" y="-287.5" font-family="Helvetica,sans-Serif" font-size="10.00">Button.h</text>
</a>
</g>
</g>
<!-- Node0&#45;&gt;Node1 -->
<g id="edge1" class="edge"><title>Node0&#45;&gt;Node1</title>
<path fill="none" stroke="midnightblue" d="M398.154,-336.444C352.282,-326.208 276.051,-309.197 231.008,-299.146"/>
<polygon fill="midnightblue" stroke="midnightblue" points="231.601,-295.693 221.079,-296.931 230.076,-302.525 231.601,-295.693"/>
</g>
<!-- Node10 -->
<g id="node11" class="node"><title>Node10</title>
<g id="a_node11"><a xlink:href="Vec2_8h.html" target="_top" xlink:title="Vec2.h">
<polygon fill="white" stroke="black" points="446,-56.5 446,-75.5 493,-75.5 493,-56.5 446,-56.5"/>
<text text-anchor="middle" x="469.5" y="-63.5" font-family="Helvetica,sans-Serif" font-size="10.00">Vec2.h</text>
</a>
</g>
</g>
<!-- Node0&#45;&gt;Node10 -->
<g id="edge30" class="edge"><title>Node0&#45;&gt;Node10</title>
<path fill="none" stroke="midnightblue" d="M446.534,-336.433C465.449,-319.268 504.5,-278.556 504.5,-235 504.5,-235 504.5,-235 504.5,-177 504.5,-143.072 489.193,-105.911 478.825,-84.631"/>
<polygon fill="midnightblue" stroke="midnightblue" points="481.862,-82.8822 474.22,-75.544 475.618,-86.0463 481.862,-82.8822"/>
</g>
<!-- Node12 -->
<g id="node13" class="node"><title>Node12</title>
<g id="a_node13"><a xlink:href="RectTransform_8h.html" target="_top" xlink:title="RectTransform.h">
<polygon fill="white" stroke="black" points="323.5,-280.5 323.5,-299.5 413.5,-299.5 413.5,-280.5 323.5,-280.5"/>
<text text-anchor="middle" x="368.5" y="-287.5" font-family="Helvetica,sans-Serif" font-size="10.00">RectTransform.h</text>
</a>
</g>
</g>
<!-- Node0&#45;&gt;Node12 -->
<g id="edge18" class="edge"><title>Node0&#45;&gt;Node12</title>
<path fill="none" stroke="midnightblue" d="M425.575,-336.324C415.325,-328.185 399.779,-315.839 387.499,-306.087"/>
<polygon fill="midnightblue" stroke="midnightblue" points="389.632,-303.312 379.624,-299.834 385.279,-308.794 389.632,-303.312"/>
</g>
<!-- Node14 -->
<g id="node15" class="node"><title>Node14</title>
<g id="a_node15"><a xlink:href="InputManager_8h.html" target="_top" xlink:title="InputManager.h">
<polygon fill="white" stroke="black" points="532.5,-112.5 532.5,-131.5 616.5,-131.5 616.5,-112.5 532.5,-112.5"/>
<text text-anchor="middle" x="574.5" y="-119.5" font-family="Helvetica,sans-Serif" font-size="10.00">InputManager.h</text>
</a>
</g>
</g>
<!-- Node0&#45;&gt;Node14 -->
<g id="edge25" class="edge"><title>Node0&#45;&gt;Node14</title>
<path fill="none" stroke="midnightblue" d="M462.863,-336.476C480.899,-329.379 504.07,-317.568 518.5,-300 557.649,-252.339 569.561,-177.026 573.08,-142.036"/>
<polygon fill="midnightblue" stroke="midnightblue" points="576.589,-142.082 573.979,-131.814 569.616,-141.469 576.589,-142.082"/>
</g>
<!-- Node2 -->
<g id="node3" class="node"><title>Node2</title>
<g id="a_node3"><a xlink:href="Component_8h.html" target="_top" xlink:title="Component.h">
<polygon fill="white" stroke="black" points="227,-224.5 227,-243.5 302,-243.5 302,-224.5 227,-224.5"/>
<text text-anchor="middle" x="264.5" y="-231.5" font-family="Helvetica,sans-Serif" font-size="10.00">Component.h</text>
</a>
</g>
</g>
<!-- Node1&#45;&gt;Node2 -->
<g id="edge2" class="edge"><title>Node1&#45;&gt;Node2</title>
<path fill="none" stroke="midnightblue" d="M205.747,-280.324C216.297,-272.185 232.301,-259.839 244.942,-250.087"/>
<polygon fill="midnightblue" stroke="midnightblue" points="247.269,-252.713 253.049,-243.834 242.993,-247.171 247.269,-252.713"/>
</g>
<!-- Node3 -->
<g id="node4" class="node"><title>Node3</title>
<g id="a_node4"><a xlink:href="ComponentType_8h.html" target="_top" xlink:title="ComponentType.h">
<polygon fill="white" stroke="black" points="0,-112.5 0,-131.5 97,-131.5 97,-112.5 0,-112.5"/>
<text text-anchor="middle" x="48.5" y="-119.5" font-family="Helvetica,sans-Serif" font-size="10.00">ComponentType.h</text>
</a>
</g>
</g>
<!-- Node1&#45;&gt;Node3 -->
<g id="edge16" class="edge"><title>Node1&#45;&gt;Node3</title>
<path fill="none" stroke="midnightblue" d="M186.65,-280.075C163.171,-253.38 93.2367,-173.865 62.8553,-139.322"/>
<polygon fill="midnightblue" stroke="midnightblue" points="65.2682,-136.766 56.0358,-131.568 60.0119,-141.389 65.2682,-136.766"/>
</g>
<!-- Node4 -->
<g id="node5" class="node"><title>Node4</title>
<g id="a_node5"><a xlink:href="GameObject_8h.html" target="_top" xlink:title="GameObject.h">
<polygon fill="white" stroke="black" points="226.5,-168.5 226.5,-187.5 306.5,-187.5 306.5,-168.5 226.5,-168.5"/>
<text text-anchor="middle" x="266.5" y="-175.5" font-family="Helvetica,sans-Serif" font-size="10.00">GameObject.h</text>
</a>
</g>
</g>
<!-- Node1&#45;&gt;Node4 -->
<g id="edge17" class="edge"><title>Node1&#45;&gt;Node4</title>
<path fill="none" stroke="midnightblue" d="M196.143,-280.402C198.93,-267.361 205.488,-242.175 217.5,-224 225.085,-212.523 236.22,-201.984 245.958,-193.995"/>
<polygon fill="midnightblue" stroke="midnightblue" points="248.318,-196.593 254.033,-187.672 244.002,-191.082 248.318,-196.593"/>
</g>
<!-- Node2&#45;&gt;Node3 -->
<g id="edge3" class="edge"><title>Node2&#45;&gt;Node3</title>
<path fill="none" stroke="midnightblue" d="M254.595,-224.385C238.649,-210.866 205.887,-184.51 174.5,-168 147.459,-153.776 114.941,-142.288 89.713,-134.481"/>
<polygon fill="midnightblue" stroke="midnightblue" points="90.6669,-131.113 80.0819,-131.568 88.6406,-137.813 90.6669,-131.113"/>
</g>
<!-- Node2&#45;&gt;Node4 -->
<g id="edge4" class="edge"><title>Node2&#45;&gt;Node4</title>
<path fill="none" stroke="midnightblue" d="M259.664,-224.083C258.419,-216.927 258.37,-206.635 259.35,-197.691"/>
<polygon fill="midnightblue" stroke="midnightblue" points="262.814,-198.197 261.045,-187.751 255.914,-197.021 262.814,-198.197"/>
</g>
<!-- Node4&#45;&gt;Node2 -->
<g id="edge9" class="edge"><title>Node4&#45;&gt;Node2</title>
<path fill="none" stroke="midnightblue" d="M271.307,-187.751C272.57,-194.858 272.636,-205.136 271.672,-214.101"/>
<polygon fill="midnightblue" stroke="midnightblue" points="268.201,-213.642 269.997,-224.083 275.104,-214.8 268.201,-213.642"/>
</g>
<!-- Node4&#45;&gt;Node3 -->
<g id="edge10" class="edge"><title>Node4&#45;&gt;Node3</title>
<path fill="none" stroke="midnightblue" d="M231.957,-168.444C194.247,-159.102 133.76,-144.119 92.6351,-133.933"/>
<polygon fill="midnightblue" stroke="midnightblue" points="93.4293,-130.524 82.8811,-131.516 91.7462,-137.318 93.4293,-130.524"/>
</g>
<!-- Node5 -->
<g id="node6" class="node"><title>Node5</title>
<g id="a_node6"><a xlink:href="SDL__include_8h.html" target="_top" xlink:title="SDL_include.h">
<polygon fill="white" stroke="black" points="403.5,-0.5 403.5,-19.5 483.5,-19.5 483.5,-0.5 403.5,-0.5"/>
<text text-anchor="middle" x="443.5" y="-7.5" font-family="Helvetica,sans-Serif" font-size="10.00">SDL_include.h</text>
</a>
</g>
</g>
<!-- Node4&#45;&gt;Node5 -->
<g id="edge5" class="edge"><title>Node4&#45;&gt;Node5</title>
<path fill="none" stroke="midnightblue" d="M273.024,-168.259C279.551,-159.35 289.713,-145.029 297.5,-132 316.976,-99.4108 308.654,-81.8062 336.5,-56 353.394,-40.3435 376.532,-29.6972 396.97,-22.7082"/>
<polygon fill="midnightblue" stroke="midnightblue" points="398.299,-25.9576 406.748,-19.5651 396.157,-19.2935 398.299,-25.9576"/>
</g>
<!-- Node6 -->
<g id="node7" class="node"><title>Node6</title>
<polygon fill="white" stroke="#bfbfbf" points="115.5,-112.5 115.5,-131.5 159.5,-131.5 159.5,-112.5 115.5,-112.5"/>
<text text-anchor="middle" x="137.5" y="-119.5" font-family="Helvetica,sans-Serif" font-size="10.00">vector</text>
</g>
<!-- Node4&#45;&gt;Node6 -->
<g id="edge6" class="edge"><title>Node4&#45;&gt;Node6</title>
<path fill="none" stroke="midnightblue" d="M246.06,-168.444C224.83,-159.557 191.401,-145.563 167.245,-135.451"/>
<polygon fill="midnightblue" stroke="midnightblue" points="168.421,-132.149 157.845,-131.516 165.718,-138.606 168.421,-132.149"/>
</g>
<!-- Node7 -->
<g id="node8" class="node"><title>Node7</title>
<polygon fill="white" stroke="#bfbfbf" points="177.5,-112.5 177.5,-131.5 229.5,-131.5 229.5,-112.5 177.5,-112.5"/>
<text text-anchor="middle" x="203.5" y="-119.5" font-family="Helvetica,sans-Serif" font-size="10.00">memory</text>
</g>
<!-- Node4&#45;&gt;Node7 -->
<g id="edge7" class="edge"><title>Node4&#45;&gt;Node7</title>
<path fill="none" stroke="midnightblue" d="M256.378,-168.324C246.974,-160.263 232.756,-148.077 221.431,-138.369"/>
<polygon fill="midnightblue" stroke="midnightblue" points="223.677,-135.684 213.806,-131.834 219.121,-140.999 223.677,-135.684"/>
</g>
<!-- Node8 -->
<g id="node9" class="node"><title>Node8</title>
<polygon fill="white" stroke="#bfbfbf" points="248,-112.5 248,-131.5 289,-131.5 289,-112.5 248,-112.5"/>
<text text-anchor="middle" x="268.5" y="-119.5" font-family="Helvetica,sans-Serif" font-size="10.00">string</text>
</g>
<!-- Node4&#45;&gt;Node8 -->
<g id="edge8" class="edge"><title>Node4&#45;&gt;Node8</title>
<path fill="none" stroke="midnightblue" d="M266.83,-168.083C267.092,-161.006 267.468,-150.861 267.797,-141.986"/>
<polygon fill="midnightblue" stroke="midnightblue" points="271.303,-141.874 268.176,-131.751 264.308,-141.615 271.303,-141.874"/>
</g>
<!-- Node9 -->
<g id="node10" class="node"><title>Node9</title>
<g id="a_node10"><a xlink:href="Rect_8h.html" target="_top" xlink:title="Rect.h">
<polygon fill="white" stroke="black" points="345.5,-112.5 345.5,-131.5 391.5,-131.5 391.5,-112.5 345.5,-112.5"/>
<text text-anchor="middle" x="368.5" y="-119.5" font-family="Helvetica,sans-Serif" font-size="10.00">Rect.h</text>
</a>
</g>
</g>
<!-- Node4&#45;&gt;Node9 -->
<g id="edge11" class="edge"><title>Node4&#45;&gt;Node9</title>
<path fill="none" stroke="midnightblue" d="M282.888,-168.324C299.171,-159.703 324.367,-146.364 343.216,-136.386"/>
<polygon fill="midnightblue" stroke="midnightblue" points="344.952,-139.427 352.153,-131.655 341.677,-133.24 344.952,-139.427"/>
</g>
<!-- Node9&#45;&gt;Node5 -->
<g id="edge12" class="edge"><title>Node9&#45;&gt;Node5</title>
<path fill="none" stroke="midnightblue" d="M374.385,-112.368C386.762,-94.2153 415.681,-51.8015 431.916,-27.9902"/>
<polygon fill="midnightblue" stroke="midnightblue" points="434.901,-29.8254 437.642,-19.5914 429.117,-25.882 434.901,-29.8254"/>
</g>
<!-- Node9&#45;&gt;Node10 -->
<g id="edge13" class="edge"><title>Node9&#45;&gt;Node10</title>
<path fill="none" stroke="midnightblue" d="M384.727,-112.324C400.851,-103.703 425.8,-90.3643 444.464,-80.3855"/>
<polygon fill="midnightblue" stroke="midnightblue" points="446.144,-83.456 453.313,-75.6545 442.844,-77.283 446.144,-83.456"/>
</g>
<!-- Node11 -->
<g id="node12" class="node"><title>Node11</title>
<polygon fill="white" stroke="#bfbfbf" points="345.5,-56.5 345.5,-75.5 389.5,-75.5 389.5,-56.5 345.5,-56.5"/>
<text text-anchor="middle" x="367.5" y="-63.5" font-family="Helvetica,sans-Serif" font-size="10.00">cmath</text>
</g>
<!-- Node9&#45;&gt;Node11 -->
<g id="edge15" class="edge"><title>Node9&#45;&gt;Node11</title>
<path fill="none" stroke="midnightblue" d="M368.335,-112.083C368.204,-105.006 368.016,-94.8611 367.852,-85.9865"/>
<polygon fill="midnightblue" stroke="midnightblue" points="371.347,-85.6845 367.662,-75.7511 364.348,-85.8142 371.347,-85.6845"/>
</g>
<!-- Node10&#45;&gt;Node5 -->
<g id="edge14" class="edge"><title>Node10&#45;&gt;Node5</title>
<path fill="none" stroke="midnightblue" d="M465.207,-56.083C461.648,-48.6913 456.478,-37.9533 452.076,-28.8111"/>
<polygon fill="midnightblue" stroke="midnightblue" points="455.205,-27.2427 447.713,-19.7511 448.898,-30.2795 455.205,-27.2427"/>
</g>
<!-- Node12&#45;&gt;Node2 -->
<g id="edge20" class="edge"><title>Node12&#45;&gt;Node2</title>
<path fill="none" stroke="midnightblue" d="M351.791,-280.324C335.188,-271.703 309.498,-258.364 290.28,-248.386"/>
<polygon fill="midnightblue" stroke="midnightblue" points="291.656,-245.156 281.168,-243.655 288.43,-251.369 291.656,-245.156"/>
</g>
<!-- Node12&#45;&gt;Node3 -->
<g id="edge21" class="edge"><title>Node12&#45;&gt;Node3</title>
<path fill="none" stroke="midnightblue" d="M326.744,-280.495C295.628,-273.233 252.629,-261.208 217.5,-244 213.445,-242.014 112.369,-169.129 68.505,-137.454"/>
<polygon fill="midnightblue" stroke="midnightblue" points="70.46,-134.548 60.3041,-131.531 66.3614,-140.223 70.46,-134.548"/>
</g>
<!-- Node12&#45;&gt;Node4 -->
<g id="edge22" class="edge"><title>Node12&#45;&gt;Node4</title>
<path fill="none" stroke="midnightblue" d="M361.113,-280.475C350.208,-267.947 329.084,-243.894 310.5,-224 301.249,-214.097 290.634,-203.226 282.148,-194.651"/>
<polygon fill="midnightblue" stroke="midnightblue" points="284.585,-192.139 275.053,-187.514 279.621,-197.074 284.585,-192.139"/>
</g>
<!-- Node12&#45;&gt;Node9 -->
<g id="edge23" class="edge"><title>Node12&#45;&gt;Node9</title>
<path fill="none" stroke="midnightblue" d="M368.5,-280.075C368.5,-253.945 368.5,-177.211 368.5,-141.577"/>
<polygon fill="midnightblue" stroke="midnightblue" points="372,-141.568 368.5,-131.568 365,-141.568 372,-141.568"/>
</g>
<!-- Node12&#45;&gt;Node10 -->
<g id="edge24" class="edge"><title>Node12&#45;&gt;Node10</title>
<path fill="none" stroke="midnightblue" d="M372.459,-280.297C387.415,-247.425 440.66,-130.391 461.27,-85.0904"/>
<polygon fill="midnightblue" stroke="midnightblue" points="464.503,-86.4354 465.458,-75.8837 458.131,-83.5366 464.503,-86.4354"/>
</g>
<!-- Node13 -->
<g id="node14" class="node"><title>Node13</title>
<polygon fill="white" stroke="#bfbfbf" points="435,-224.5 435,-243.5 476,-243.5 476,-224.5 435,-224.5"/>
<text text-anchor="middle" x="455.5" y="-231.5" font-family="Helvetica,sans-Serif" font-size="10.00">cfloat</text>
</g>
<!-- Node12&#45;&gt;Node13 -->
<g id="edge19" class="edge"><title>Node12&#45;&gt;Node13</title>
<path fill="none" stroke="midnightblue" d="M382.478,-280.324C396.05,-271.9 416.88,-258.971 432.825,-249.074"/>
<polygon fill="midnightblue" stroke="midnightblue" points="434.906,-251.902 441.557,-243.655 431.214,-245.954 434.906,-251.902"/>
</g>
<!-- Node14&#45;&gt;Node5 -->
<g id="edge26" class="edge"><title>Node14&#45;&gt;Node5</title>
<path fill="none" stroke="midnightblue" d="M565.397,-112.335C551.943,-99.6326 525.821,-75.3643 502.5,-56 489.863,-45.5073 475.179,-34.3041 463.621,-25.7007"/>
<polygon fill="midnightblue" stroke="midnightblue" points="465.601,-22.8115 455.478,-19.6833 461.44,-28.4412 465.601,-22.8115"/>
</g>
<!-- Node14&#45;&gt;Node10 -->
<g id="edge27" class="edge"><title>Node14&#45;&gt;Node10</title>
<path fill="none" stroke="midnightblue" d="M557.63,-112.324C540.791,-103.664 514.693,-90.2424 495.262,-80.249"/>
<polygon fill="midnightblue" stroke="midnightblue" points="496.822,-77.1155 486.328,-75.6545 493.62,-83.3405 496.822,-77.1155"/>
</g>
<!-- Node15 -->
<g id="node16" class="node"><title>Node15</title>
<polygon fill="white" stroke="#bfbfbf" points="550,-56.5 550,-75.5 633,-75.5 633,-56.5 550,-56.5"/>
<text text-anchor="middle" x="591.5" y="-63.5" font-family="Helvetica,sans-Serif" font-size="10.00">unordered_map</text>
</g>
<!-- Node14&#45;&gt;Node15 -->
<g id="edge28" class="edge"><title>Node14&#45;&gt;Node15</title>
<path fill="none" stroke="midnightblue" d="M577.307,-112.083C579.585,-104.849 582.871,-94.4087 585.708,-85.3968"/>
<polygon fill="midnightblue" stroke="midnightblue" points="589.081,-86.3406 588.745,-75.7511 582.404,-84.2385 589.081,-86.3406"/>
</g>
<!-- Node16 -->
<g id="node17" class="node"><title>Node16</title>
<polygon fill="white" stroke="#bfbfbf" points="651.5,-56.5 651.5,-75.5 697.5,-75.5 697.5,-56.5 651.5,-56.5"/>
<text text-anchor="middle" x="674.5" y="-63.5" font-family="Helvetica,sans-Serif" font-size="10.00">cstdint</text>
</g>
<!-- Node14&#45;&gt;Node16 -->
<g id="edge29" class="edge"><title>Node14&#45;&gt;Node16</title>
<path fill="none" stroke="midnightblue" d="M590.567,-112.324C606.458,-103.743 631.007,-90.486 649.458,-80.5224"/>
<polygon fill="midnightblue" stroke="midnightblue" points="651.337,-83.4857 658.473,-75.6545 648.011,-77.3264 651.337,-83.4857"/>
</g>
</g>
</svg>
