<?xml version="1.0" encoding="UTF-8" standalone="no"?>
<!DOCTYPE svg PUBLIC "-//W3C//DTD SVG 1.1//EN"
 "http://www.w3.org/Graphics/SVG/1.1/DTD/svg11.dtd">
<!-- Generated by graphviz version 2.40.1 (20161225.0304)
 -->
<!-- Title: src/Camera.cpp Pages: 1 -->
<svg width="936pt" height="364pt"
 viewBox="0.00 0.00 936.00 364.00" xmlns="http://www.w3.org/2000/svg" xmlns:xlink="http://www.w3.org/1999/xlink">
<g id="graph0" class="graph" transform="scale(1 1) rotate(0) translate(4 360)">
<title>src/Camera.cpp</title>
<polygon fill="#ffffff" stroke="transparent" points="-4,4 -4,-360 932,-360 932,4 -4,4"/>
<!-- Node0 -->
<g id="node1" class="node">
<title>Node0</title>
<polygon fill="#bfbfbf" stroke="#000000" points="541,-336.5 541,-355.5 627,-355.5 627,-336.5 541,-336.5"/>
<text text-anchor="middle" x="584" y="-343.5" font-family="Helvetica,sans-Serif" font-size="10.00" fill="#000000">src/Camera.cpp</text>
</g>
<!-- Node1 -->
<g id="node2" class="node">
<title>Node1</title>
<g id="a_node2"><a xlink:href="Camera_8h.html" target="_top" xlink:title="Camera.h">
<polygon fill="#ffffff" stroke="#000000" points="297.5,-280.5 297.5,-299.5 356.5,-299.5 356.5,-280.5 297.5,-280.5"/>
<text text-anchor="middle" x="327" y="-287.5" font-family="Helvetica,sans-Serif" font-size="10.00" fill="#000000">Camera.h</text>
</a>
</g>
</g>
<!-- Node0&#45;&gt;Node1 -->
<g id="edge1" class="edge">
<title>Node0&#45;&gt;Node1</title>
<path fill="none" stroke="#191970" d="M540.984,-336.6269C492.26,-326.01 413.5267,-308.8541 366.3655,-298.5777"/>
<polygon fill="#191970" stroke="#191970" points="367.0343,-295.1414 356.5184,-296.432 365.5439,-301.9809 367.0343,-295.1414"/>
</g>
<!-- Node11 -->
<g id="node12" class="node">
<title>Node11</title>
<polygon fill="#ffffff" stroke="#bfbfbf" points="66,-56.5 66,-75.5 110,-75.5 110,-56.5 66,-56.5"/>
<text text-anchor="middle" x="88" y="-63.5" font-family="Helvetica,sans-Serif" font-size="10.00" fill="#000000">cmath</text>
</g>
<!-- Node0&#45;&gt;Node11 -->
<g id="edge44" class="edge">
<title>Node0&#45;&gt;Node11</title>
<path fill="none" stroke="#191970" d="M540.5822,-342.2777C405.2388,-330.0989 0,-289.038 0,-234 0,-234 0,-234 0,-178 0,-136.2321 38.3084,-100.8241 64.3742,-81.5662"/>
<polygon fill="#191970" stroke="#191970" points="66.5485,-84.3148 72.6716,-75.6685 62.493,-78.6092 66.5485,-84.3148"/>
</g>
<!-- Node13 -->
<g id="node14" class="node">
<title>Node13</title>
<g id="a_node14"><a xlink:href="InputManager_8h.html" target="_top" xlink:title="InputManager.h">
<polygon fill="#ffffff" stroke="#000000" points="637,-168.5 637,-187.5 721,-187.5 721,-168.5 637,-168.5"/>
<text text-anchor="middle" x="679" y="-175.5" font-family="Helvetica,sans-Serif" font-size="10.00" fill="#000000">InputManager.h</text>
</a>
</g>
</g>
<!-- Node0&#45;&gt;Node13 -->
<g id="edge43" class="edge">
<title>Node0&#45;&gt;Node13</title>
<path fill="none" stroke="#191970" d="M591.8036,-336.4721C599.0475,-327.3993 609.9015,-313.2067 618,-300 639.4468,-265.0255 659.8031,-221.5134 670.7222,-197.0378"/>
<polygon fill="#191970" stroke="#191970" points="673.966,-198.3562 674.7998,-187.7942 667.5615,-195.531 673.966,-198.3562"/>
</g>
<!-- Node16 -->
<g id="node17" class="node">
<title>Node16</title>
<g id="a_node17"><a xlink:href="Error_8h.html" target="_top" xlink:title="Error.h">
<polygon fill="#ffffff" stroke="#000000" points="812,-280.5 812,-299.5 858,-299.5 858,-280.5 812,-280.5"/>
<text text-anchor="middle" x="835" y="-287.5" font-family="Helvetica,sans-Serif" font-size="10.00" fill="#000000">Error.h</text>
</a>
</g>
</g>
<!-- Node0&#45;&gt;Node16 -->
<g id="edge24" class="edge">
<title>Node0&#45;&gt;Node16</title>
<path fill="none" stroke="#191970" d="M627.1013,-336.8696C669.5994,-327.7937 736.3669,-313.3387 794,-300 796.4983,-299.4218 799.0799,-298.8148 801.6752,-298.1976"/>
<polygon fill="#191970" stroke="#191970" points="802.7035,-301.5501 811.6065,-295.8066 801.065,-294.7446 802.7035,-301.5501"/>
</g>
<!-- Node19 -->
<g id="node20" class="node">
<title>Node19</title>
<g id="a_node20"><a xlink:href="Game_8h.html" target="_top" xlink:title="Game.h">
<polygon fill="#ffffff" stroke="#000000" points="558.5,-280.5 558.5,-299.5 609.5,-299.5 609.5,-280.5 558.5,-280.5"/>
<text text-anchor="middle" x="584" y="-287.5" font-family="Helvetica,sans-Serif" font-size="10.00" fill="#000000">Game.h</text>
</a>
</g>
</g>
<!-- Node0&#45;&gt;Node19 -->
<g id="edge27" class="edge">
<title>Node0&#45;&gt;Node19</title>
<path fill="none" stroke="#191970" d="M584,-336.2455C584,-328.9382 584,-318.6944 584,-309.7046"/>
<polygon fill="#191970" stroke="#191970" points="587.5001,-309.6426 584,-299.6427 580.5001,-309.6427 587.5001,-309.6426"/>
</g>
<!-- Node2 -->
<g id="node3" class="node">
<title>Node2</title>
<g id="a_node3"><a xlink:href="GameObject_8h.html" target="_top" xlink:title="GameObject.h">
<polygon fill="#ffffff" stroke="#000000" points="266,-168.5 266,-187.5 346,-187.5 346,-168.5 266,-168.5"/>
<text text-anchor="middle" x="306" y="-175.5" font-family="Helvetica,sans-Serif" font-size="10.00" fill="#000000">GameObject.h</text>
</a>
</g>
</g>
<!-- Node1&#45;&gt;Node2 -->
<g id="edge2" class="edge">
<title>Node1&#45;&gt;Node2</title>
<path fill="none" stroke="#191970" d="M325.2096,-280.4509C321.769,-262.1013 314.1733,-221.5908 309.6317,-197.3693"/>
<polygon fill="#191970" stroke="#191970" points="313.0689,-196.7086 307.7859,-187.5249 306.1888,-197.9986 313.0689,-196.7086"/>
</g>
<!-- Node10 -->
<g id="node11" class="node">
<title>Node10</title>
<g id="a_node11"><a xlink:href="Vec2_8h.html" target="_top" xlink:title="Vec2.h">
<polygon fill="#ffffff" stroke="#000000" points="166.5,-56.5 166.5,-75.5 213.5,-75.5 213.5,-56.5 166.5,-56.5"/>
<text text-anchor="middle" x="190" y="-63.5" font-family="Helvetica,sans-Serif" font-size="10.00" fill="#000000">Vec2.h</text>
</a>
</g>
</g>
<!-- Node1&#45;&gt;Node10 -->
<g id="edge17" class="edge">
<title>Node1&#45;&gt;Node10</title>
<path fill="none" stroke="#191970" d="M300.252,-280.4895C264.596,-266.3044 202.4583,-236.0106 172,-188 153.8053,-159.3201 155.3595,-144.847 164,-112 166.6112,-102.0734 171.9067,-92.0366 177.0412,-83.8822"/>
<polygon fill="#191970" stroke="#191970" points="179.9463,-85.8342 182.6181,-75.5817 174.136,-81.9303 179.9463,-85.8342"/>
</g>
<!-- Node12 -->
<g id="node13" class="node">
<title>Node12</title>
<g id="a_node13"><a xlink:href="ActionManager_8h.html" target="_top" xlink:title="ActionManager.h">
<polygon fill="#ffffff" stroke="#000000" points="431,-224.5 431,-243.5 521,-243.5 521,-224.5 431,-224.5"/>
<text text-anchor="middle" x="476" y="-231.5" font-family="Helvetica,sans-Serif" font-size="10.00" fill="#000000">ActionManager.h</text>
</a>
</g>
</g>
<!-- Node1&#45;&gt;Node12 -->
<g id="edge18" class="edge">
<title>Node1&#45;&gt;Node12</title>
<path fill="none" stroke="#191970" d="M352.614,-280.3733C377.0687,-271.1822 414.1054,-257.2624 441.2209,-247.0713"/>
<polygon fill="#191970" stroke="#191970" points="442.5909,-250.2956 450.7202,-243.5011 440.1281,-243.7431 442.5909,-250.2956"/>
</g>
<!-- Node3 -->
<g id="node4" class="node">
<title>Node3</title>
<g id="a_node4"><a xlink:href="SDL__include_8h.html" target="_top" xlink:title="SDL_include.h">
<polygon fill="#ffffff" stroke="#000000" points="295,-.5 295,-19.5 375,-19.5 375,-.5 295,-.5"/>
<text text-anchor="middle" x="335" y="-7.5" font-family="Helvetica,sans-Serif" font-size="10.00" fill="#000000">SDL_include.h</text>
</a>
</g>
</g>
<!-- Node2&#45;&gt;Node3 -->
<g id="edge3" class="edge">
<title>Node2&#45;&gt;Node3</title>
<path fill="none" stroke="#191970" d="M265.9393,-176.599C202.4257,-173.4417 83.1164,-163.383 57,-132 35.3936,-106.0365 35.1519,-81.7604 57,-56 71.5439,-38.8518 208.5828,-22.6088 284.6699,-14.8154"/>
<polygon fill="#191970" stroke="#191970" points="285.3854,-18.261 294.9825,-13.7726 284.6811,-11.2965 285.3854,-18.261"/>
</g>
<!-- Node4 -->
<g id="node5" class="node">
<title>Node4</title>
<polygon fill="#ffffff" stroke="#bfbfbf" points="206,-112.5 206,-131.5 250,-131.5 250,-112.5 206,-112.5"/>
<text text-anchor="middle" x="228" y="-119.5" font-family="Helvetica,sans-Serif" font-size="10.00" fill="#000000">vector</text>
</g>
<!-- Node2&#45;&gt;Node4 -->
<g id="edge4" class="edge">
<title>Node2&#45;&gt;Node4</title>
<path fill="none" stroke="#191970" d="M292.4134,-168.2455C280.6695,-159.814 263.4801,-147.4729 249.8118,-137.6598"/>
<polygon fill="#191970" stroke="#191970" points="251.5954,-134.6316 241.4309,-131.6427 247.5129,-140.3179 251.5954,-134.6316"/>
</g>
<!-- Node5 -->
<g id="node6" class="node">
<title>Node5</title>
<polygon fill="#ffffff" stroke="#bfbfbf" points="400,-112.5 400,-131.5 452,-131.5 452,-112.5 400,-112.5"/>
<text text-anchor="middle" x="426" y="-119.5" font-family="Helvetica,sans-Serif" font-size="10.00" fill="#000000">memory</text>
</g>
<!-- Node2&#45;&gt;Node5 -->
<g id="edge5" class="edge">
<title>Node2&#45;&gt;Node5</title>
<path fill="none" stroke="#191970" d="M326.6287,-168.3733C345.8919,-159.3838 374.8486,-145.8706 396.5419,-135.7471"/>
<polygon fill="#191970" stroke="#191970" points="398.0587,-138.9017 405.6405,-131.5011 395.0985,-132.5584 398.0587,-138.9017"/>
</g>
<!-- Node6 -->
<g id="node7" class="node">
<title>Node6</title>
<polygon fill="#ffffff" stroke="#bfbfbf" points="508.5,-112.5 508.5,-131.5 549.5,-131.5 549.5,-112.5 508.5,-112.5"/>
<text text-anchor="middle" x="529" y="-119.5" font-family="Helvetica,sans-Serif" font-size="10.00" fill="#000000">string</text>
</g>
<!-- Node2&#45;&gt;Node6 -->
<g id="edge6" class="edge">
<title>Node2&#45;&gt;Node6</title>
<path fill="none" stroke="#191970" d="M344.0817,-168.4369C387.7962,-157.4593 458.6141,-139.6754 498.7379,-129.5994"/>
<polygon fill="#191970" stroke="#191970" points="499.6339,-132.9832 508.4802,-127.1529 497.9289,-126.194 499.6339,-132.9832"/>
</g>
<!-- Node7 -->
<g id="node8" class="node">
<title>Node7</title>
<g id="a_node8"><a xlink:href="Component_8h.html" target="_top" xlink:title="Component.h">
<polygon fill="#ffffff" stroke="#000000" points="268.5,-112.5 268.5,-131.5 343.5,-131.5 343.5,-112.5 268.5,-112.5"/>
<text text-anchor="middle" x="306" y="-119.5" font-family="Helvetica,sans-Serif" font-size="10.00" fill="#000000">Component.h</text>
</a>
</g>
</g>
<!-- Node2&#45;&gt;Node7 -->
<g id="edge7" class="edge">
<title>Node2&#45;&gt;Node7</title>
<path fill="none" stroke="#191970" d="M300.7332,-168.2455C299.3221,-160.9382 298.9179,-150.6944 299.5205,-141.7046"/>
<polygon fill="#191970" stroke="#191970" points="303.0111,-141.9945 300.7549,-131.6427 296.0632,-141.1421 303.0111,-141.9945"/>
</g>
<!-- Node8 -->
<g id="node9" class="node">
<title>Node8</title>
<g id="a_node9"><a xlink:href="ComponentType_8h.html" target="_top" xlink:title="ComponentType.h">
<polygon fill="#ffffff" stroke="#000000" points="290.5,-56.5 290.5,-75.5 387.5,-75.5 387.5,-56.5 290.5,-56.5"/>
<text text-anchor="middle" x="339" y="-63.5" font-family="Helvetica,sans-Serif" font-size="10.00" fill="#000000">ComponentType.h</text>
</a>
</g>
</g>
<!-- Node2&#45;&gt;Node8 -->
<g id="edge10" class="edge">
<title>Node2&#45;&gt;Node8</title>
<path fill="none" stroke="#191970" d="M320.6852,-168.2577C331.6154,-160.0536 345.6898,-147.2342 352,-132 358.268,-116.8677 353.7663,-98.5066 348.414,-84.9963"/>
<polygon fill="#191970" stroke="#191970" points="351.5671,-83.4724 344.3196,-75.7443 345.1659,-86.3053 351.5671,-83.4724"/>
</g>
<!-- Node9 -->
<g id="node10" class="node">
<title>Node9</title>
<g id="a_node10"><a xlink:href="Rect_8h.html" target="_top" xlink:title="Rect.h">
<polygon fill="#ffffff" stroke="#000000" points="66,-112.5 66,-131.5 112,-131.5 112,-112.5 66,-112.5"/>
<text text-anchor="middle" x="89" y="-119.5" font-family="Helvetica,sans-Serif" font-size="10.00" fill="#000000">Rect.h</text>
</a>
</g>
</g>
<!-- Node2&#45;&gt;Node9 -->
<g id="edge11" class="edge">
<title>Node2&#45;&gt;Node9</title>
<path fill="none" stroke="#191970" d="M268.6964,-168.3733C227.427,-157.7231 161.5532,-140.7234 122.0669,-130.5334"/>
<polygon fill="#191970" stroke="#191970" points="122.7071,-127.084 112.1497,-127.9741 120.9579,-133.8619 122.7071,-127.084"/>
</g>
<!-- Node7&#45;&gt;Node2 -->
<g id="edge9" class="edge">
<title>Node7&#45;&gt;Node2</title>
<path fill="none" stroke="#191970" d="M311.2451,-131.6427C312.6665,-138.9199 313.081,-149.155 312.4887,-158.1575"/>
<polygon fill="#191970" stroke="#191970" points="308.9947,-157.8972 311.2668,-168.2455 315.9439,-158.739 308.9947,-157.8972"/>
</g>
<!-- Node7&#45;&gt;Node8 -->
<g id="edge8" class="edge">
<title>Node7&#45;&gt;Node8</title>
<path fill="none" stroke="#191970" d="M311.7482,-112.2455C316.2435,-104.617 322.6248,-93.7881 328.0825,-84.5267"/>
<polygon fill="#191970" stroke="#191970" points="331.2561,-86.035 333.3177,-75.6427 325.2253,-82.4811 331.2561,-86.035"/>
</g>
<!-- Node9&#45;&gt;Node3 -->
<g id="edge12" class="edge">
<title>Node9&#45;&gt;Node3</title>
<path fill="none" stroke="#191970" d="M96.2164,-112.3191C107.5373,-97.8345 130.8926,-70.6612 157,-56 196.811,-33.6433 247.7101,-21.9086 284.8745,-15.9059"/>
<polygon fill="#191970" stroke="#191970" points="285.6165,-19.3331 294.9719,-14.3607 284.5575,-12.4137 285.6165,-19.3331"/>
</g>
<!-- Node9&#45;&gt;Node10 -->
<g id="edge13" class="edge">
<title>Node9&#45;&gt;Node10</title>
<path fill="none" stroke="#191970" d="M101.326,-112.2455C115.5514,-103.4125 138.9866,-90.2887 158.2822,-80.2758"/>
<polygon fill="#191970" stroke="#191970" points="160.0465,-83.3049 167.3636,-75.6427 156.8653,-77.0695 160.0465,-83.3049"/>
</g>
<!-- Node9&#45;&gt;Node11 -->
<g id="edge16" class="edge">
<title>Node9&#45;&gt;Node11</title>
<path fill="none" stroke="#191970" d="M88.8258,-112.2455C88.6953,-104.9382 88.5124,-94.6944 88.3519,-85.7046"/>
<polygon fill="#191970" stroke="#191970" points="91.8503,-85.5786 88.1722,-75.6427 84.8514,-85.7036 91.8503,-85.5786"/>
</g>
<!-- Node10&#45;&gt;Node3 -->
<g id="edge14" class="edge">
<title>Node10&#45;&gt;Node3</title>
<path fill="none" stroke="#191970" d="M213.6195,-56.878C237.2051,-47.769 273.7097,-33.6707 300.5295,-23.3127"/>
<polygon fill="#191970" stroke="#191970" points="301.8629,-26.5498 309.9304,-19.682 299.341,-20.0199 301.8629,-26.5498"/>
</g>
<!-- Node10&#45;&gt;Node9 -->
<g id="edge15" class="edge">
<title>Node10&#45;&gt;Node9</title>
<path fill="none" stroke="#191970" d="M178.0813,-75.5011C163.9109,-84.3278 140.2378,-97.5932 120.7659,-107.6992"/>
<polygon fill="#191970" stroke="#191970" points="118.9216,-104.7109 111.6045,-112.3733 122.1029,-110.9463 118.9216,-104.7109"/>
</g>
<!-- Node12&#45;&gt;Node13 -->
<g id="edge19" class="edge">
<title>Node12&#45;&gt;Node13</title>
<path fill="none" stroke="#191970" d="M510.8969,-224.3733C545.0911,-214.9404 597.3415,-200.5265 634.5042,-190.2747"/>
<polygon fill="#191970" stroke="#191970" points="635.8493,-193.5345 644.5584,-187.5011 633.9877,-186.7865 635.8493,-193.5345"/>
</g>
<!-- Node13&#45;&gt;Node3 -->
<g id="edge20" class="edge">
<title>Node13&#45;&gt;Node3</title>
<path fill="none" stroke="#191970" d="M708.7495,-168.4691C739.6765,-156.991 781.1048,-136.206 762,-112 715.4919,-53.0738 487.7359,-24.4388 385.1992,-14.368"/>
<polygon fill="#191970" stroke="#191970" points="385.3796,-10.8693 375.0904,-13.3956 384.7093,-17.8371 385.3796,-10.8693"/>
</g>
<!-- Node13&#45;&gt;Node10 -->
<g id="edge21" class="edge">
<title>Node13&#45;&gt;Node10</title>
<path fill="none" stroke="#191970" d="M679.1802,-168.103C678.8585,-153.3361 675.8646,-125.7991 659,-112 593.6949,-58.5656 364.9398,-84.6088 281,-76 262.0147,-74.0529 240.8186,-71.7323 223.6626,-69.8169"/>
<polygon fill="#191970" stroke="#191970" points="223.8864,-66.3201 213.5585,-68.6836 223.1061,-73.2765 223.8864,-66.3201"/>
</g>
<!-- Node14 -->
<g id="node15" class="node">
<title>Node14</title>
<polygon fill="#ffffff" stroke="#bfbfbf" points="567.5,-112.5 567.5,-131.5 650.5,-131.5 650.5,-112.5 567.5,-112.5"/>
<text text-anchor="middle" x="609" y="-119.5" font-family="Helvetica,sans-Serif" font-size="10.00" fill="#000000">unordered_map</text>
</g>
<!-- Node13&#45;&gt;Node14 -->
<g id="edge22" class="edge">
<title>Node13&#45;&gt;Node14</title>
<path fill="none" stroke="#191970" d="M666.8069,-168.2455C656.3679,-159.8943 641.1345,-147.7076 628.926,-137.9408"/>
<polygon fill="#191970" stroke="#191970" points="631.0485,-135.1566 621.0533,-131.6427 626.6756,-140.6227 631.0485,-135.1566"/>
</g>
<!-- Node15 -->
<g id="node16" class="node">
<title>Node15</title>
<polygon fill="#ffffff" stroke="#bfbfbf" points="707,-112.5 707,-131.5 753,-131.5 753,-112.5 707,-112.5"/>
<text text-anchor="middle" x="730" y="-119.5" font-family="Helvetica,sans-Serif" font-size="10.00" fill="#000000">cstdint</text>
</g>
<!-- Node13&#45;&gt;Node15 -->
<g id="edge23" class="edge">
<title>Node13&#45;&gt;Node15</title>
<path fill="none" stroke="#191970" d="M687.8835,-168.2455C695.1966,-160.2155 705.7391,-148.6394 714.4467,-139.0781"/>
<polygon fill="#191970" stroke="#191970" points="717.0727,-141.3928 721.2183,-131.6427 711.8972,-136.6795 717.0727,-141.3928"/>
</g>
<!-- Node17 -->
<g id="node18" class="node">
<title>Node17</title>
<polygon fill="#ffffff" stroke="#bfbfbf" points="808,-224.5 808,-243.5 862,-243.5 862,-224.5 808,-224.5"/>
<text text-anchor="middle" x="835" y="-231.5" font-family="Helvetica,sans-Serif" font-size="10.00" fill="#000000">iostream</text>
</g>
<!-- Node16&#45;&gt;Node17 -->
<g id="edge25" class="edge">
<title>Node16&#45;&gt;Node17</title>
<path fill="none" stroke="#191970" d="M835,-280.2455C835,-272.9382 835,-262.6944 835,-253.7046"/>
<polygon fill="#191970" stroke="#191970" points="838.5001,-253.6426 835,-243.6427 831.5001,-253.6427 838.5001,-253.6426"/>
</g>
<!-- Node18 -->
<g id="node19" class="node">
<title>Node18</title>
<polygon fill="#ffffff" stroke="#bfbfbf" points="880,-224.5 880,-243.5 928,-243.5 928,-224.5 880,-224.5"/>
<text text-anchor="middle" x="904" y="-231.5" font-family="Helvetica,sans-Serif" font-size="10.00" fill="#000000">stdlib.h</text>
</g>
<!-- Node16&#45;&gt;Node18 -->
<g id="edge26" class="edge">
<title>Node16&#45;&gt;Node18</title>
<path fill="none" stroke="#191970" d="M847.0189,-280.2455C857.2098,-271.9746 872.0362,-259.9416 884.0107,-250.2232"/>
<polygon fill="#191970" stroke="#191970" points="886.5598,-252.662 892.1188,-243.6427 882.1486,-247.2268 886.5598,-252.662"/>
</g>
<!-- Node19&#45;&gt;Node3 -->
<g id="edge42" class="edge">
<title>Node19&#45;&gt;Node3</title>
<path fill="none" stroke="#191970" d="M609.6153,-281.3747C672.2989,-258.7815 825.0368,-193.9172 779,-112 755.5482,-70.2703 732.1539,-71.8897 687,-56 632.4473,-36.8029 468.7044,-21.0307 385.1831,-13.9789"/>
<polygon fill="#191970" stroke="#191970" points="385.4213,-10.4867 375.1647,-13.1424 384.8388,-17.4624 385.4213,-10.4867"/>
</g>
<!-- Node19&#45;&gt;Node6 -->
<g id="edge28" class="edge">
<title>Node19&#45;&gt;Node6</title>
<path fill="none" stroke="#191970" d="M586.7164,-280.4093C589.9578,-267.3915 594.3138,-243.5139 589,-224 580.1528,-191.5103 558.0405,-158.8132 543.2749,-139.4916"/>
<polygon fill="#191970" stroke="#191970" points="546.0103,-137.3078 537.0817,-131.6041 540.5046,-141.6308 546.0103,-137.3078"/>
</g>
<!-- Node19&#45;&gt;Node10 -->
<g id="edge41" class="edge">
<title>Node19&#45;&gt;Node10</title>
<path fill="none" stroke="#191970" d="M558.4857,-288.9549C496.926,-285.1773 338.0987,-267.7941 240,-188 215.6565,-168.1989 208.6467,-161.1384 197,-132 191.1196,-117.2881 189.5367,-99.3399 189.3311,-85.8761"/>
<polygon fill="#191970" stroke="#191970" points="192.8317,-85.8206 189.4184,-75.7907 185.8319,-85.76 192.8317,-85.8206"/>
</g>
<!-- Node19&#45;&gt;Node13 -->
<g id="edge40" class="edge">
<title>Node19&#45;&gt;Node13</title>
<path fill="none" stroke="#191970" d="M592.0996,-280.4509C608.0847,-261.6054 643.8968,-219.3849 664.2056,-195.4419"/>
<polygon fill="#191970" stroke="#191970" points="667.1214,-197.415 670.9209,-187.5249 661.7831,-192.887 667.1214,-197.415"/>
</g>
<!-- Node20 -->
<g id="node21" class="node">
<title>Node20</title>
<polygon fill="#ffffff" stroke="#bfbfbf" points="539.5,-224.5 539.5,-243.5 580.5,-243.5 580.5,-224.5 539.5,-224.5"/>
<text text-anchor="middle" x="560" y="-231.5" font-family="Helvetica,sans-Serif" font-size="10.00" fill="#000000">stack</text>
</g>
<!-- Node19&#45;&gt;Node20 -->
<g id="edge29" class="edge">
<title>Node19&#45;&gt;Node20</title>
<path fill="none" stroke="#191970" d="M579.8195,-280.2455C576.619,-272.7776 572.104,-262.2427 568.1916,-253.1137"/>
<polygon fill="#191970" stroke="#191970" points="571.2888,-251.4554 564.1326,-243.6427 564.8548,-254.2129 571.2888,-251.4554"/>
</g>
<!-- Node21 -->
<g id="node22" class="node">
<title>Node21</title>
<g id="a_node22"><a xlink:href="State_8h.html" target="_top" xlink:title="State.h">
<polygon fill="#ffffff" stroke="#000000" points="365,-224.5 365,-243.5 413,-243.5 413,-224.5 365,-224.5"/>
<text text-anchor="middle" x="389" y="-231.5" font-family="Helvetica,sans-Serif" font-size="10.00" fill="#000000">State.h</text>
</a>
</g>
</g>
<!-- Node19&#45;&gt;Node21 -->
<g id="edge30" class="edge">
<title>Node19&#45;&gt;Node21</title>
<path fill="none" stroke="#191970" d="M558.4271,-282.8882C528.2767,-274.4709 476.4178,-259.8922 422.8072,-244.204"/>
<polygon fill="#191970" stroke="#191970" points="423.7168,-240.8234 413.136,-241.3673 421.7466,-247.5405 423.7168,-240.8234"/>
</g>
<!-- Node21&#45;&gt;Node2 -->
<g id="edge39" class="edge">
<title>Node21&#45;&gt;Node2</title>
<path fill="none" stroke="#191970" d="M374.5425,-224.2455C361.9268,-215.7337 343.4056,-203.2375 328.7955,-193.3801"/>
<polygon fill="#191970" stroke="#191970" points="330.5391,-190.3343 320.2918,-187.6427 326.6239,-196.1371 330.5391,-190.3343"/>
</g>
<!-- Node21&#45;&gt;Node4 -->
<g id="edge31" class="edge">
<title>Node21&#45;&gt;Node4</title>
<path fill="none" stroke="#191970" d="M364.8315,-231.4324C335.8493,-227.1645 287.3863,-216.085 257,-188 243.8165,-175.815 236.3023,-156.5646 232.2431,-141.9916"/>
<polygon fill="#191970" stroke="#191970" points="235.5617,-140.8294 229.7759,-131.9539 228.764,-142.5003 235.5617,-140.8294"/>
</g>
<!-- Node21&#45;&gt;Node5 -->
<g id="edge32" class="edge">
<title>Node21&#45;&gt;Node5</title>
<path fill="none" stroke="#191970" d="M392.1546,-224.4509C398.2438,-206.0186 411.7202,-165.2254 419.709,-141.043"/>
<polygon fill="#191970" stroke="#191970" points="423.0398,-142.1181 422.8534,-131.5249 416.3931,-139.9223 423.0398,-142.1181"/>
</g>
<!-- Node21&#45;&gt;Node13 -->
<g id="edge33" class="edge">
<title>Node21&#45;&gt;Node13</title>
<path fill="none" stroke="#191970" d="M413.0614,-226.3531C416.0571,-225.5063 419.0895,-224.6989 422,-224 492.2432,-207.1321 574.6332,-193.438 626.8211,-185.5037"/>
<polygon fill="#191970" stroke="#191970" points="627.4761,-188.9446 636.8434,-183.9944 626.4337,-182.0227 627.4761,-188.9446"/>
</g>
<!-- Node22 -->
<g id="node23" class="node">
<title>Node22</title>
<g id="a_node23"><a xlink:href="Resources_8h.html" target="_top" xlink:title="Resources.h">
<polygon fill="#ffffff" stroke="#000000" points="444,-168.5 444,-187.5 516,-187.5 516,-168.5 444,-168.5"/>
<text text-anchor="middle" x="480" y="-175.5" font-family="Helvetica,sans-Serif" font-size="10.00" fill="#000000">Resources.h</text>
</a>
</g>
</g>
<!-- Node21&#45;&gt;Node22 -->
<g id="edge34" class="edge">
<title>Node21&#45;&gt;Node22</title>
<path fill="none" stroke="#191970" d="M404.851,-224.2455C418.8132,-215.6534 439.3728,-203.0014 455.4596,-193.1018"/>
<polygon fill="#191970" stroke="#191970" points="457.6484,-195.8645 464.3307,-187.6427 453.9797,-189.9029 457.6484,-195.8645"/>
</g>
<!-- Node22&#45;&gt;Node3 -->
<g id="edge35" class="edge">
<title>Node22&#45;&gt;Node3</title>
<path fill="none" stroke="#191970" d="M478.9729,-168.329C477.1647,-154.7972 472.4527,-129.869 461,-112 435.9221,-72.8725 390.7716,-41.783 361.8778,-24.6418"/>
<polygon fill="#191970" stroke="#191970" points="363.5229,-21.5501 353.1139,-19.5741 360.0187,-27.6099 363.5229,-21.5501"/>
</g>
<!-- Node22&#45;&gt;Node5 -->
<g id="edge38" class="edge">
<title>Node22&#45;&gt;Node5</title>
<path fill="none" stroke="#191970" d="M470.5939,-168.2455C462.8507,-160.2155 451.688,-148.6394 442.4682,-139.0781"/>
<polygon fill="#191970" stroke="#191970" points="444.7591,-136.4117 435.2983,-131.6427 439.7202,-141.2706 444.7591,-136.4117"/>
</g>
<!-- Node22&#45;&gt;Node6 -->
<g id="edge36" class="edge">
<title>Node22&#45;&gt;Node6</title>
<path fill="none" stroke="#191970" d="M488.5351,-168.2455C495.4912,-160.2958 505.4883,-148.8706 513.8051,-139.3656"/>
<polygon fill="#191970" stroke="#191970" points="516.6116,-141.4732 520.5627,-131.6427 511.3436,-136.8637 516.6116,-141.4732"/>
</g>
<!-- Node22&#45;&gt;Node14 -->
<g id="edge37" class="edge">
<title>Node22&#45;&gt;Node14</title>
<path fill="none" stroke="#191970" d="M502.1759,-168.3733C522.9766,-159.3435 554.2917,-145.7494 577.6458,-135.6111"/>
<polygon fill="#191970" stroke="#191970" points="579.3343,-138.6938 587.1135,-131.5011 576.5468,-132.2727 579.3343,-138.6938"/>
</g>
</g>
</svg>
