<?xml version="1.0" encoding="UTF-8" standalone="no"?>
<!DOCTYPE svg PUBLIC "-//W3C//DTD SVG 1.1//EN"
 "http://www.w3.org/Graphics/SVG/1.1/DTD/svg11.dtd">
<!-- Generated by graphviz version 2.38.0 (20140413.2041)
 -->
<!-- Title: include/Camera.h Pages: 1 -->
<svg width="854pt" height="84pt"
 viewBox="0.00 0.00 854.00 84.00" xmlns="http://www.w3.org/2000/svg" xmlns:xlink="http://www.w3.org/1999/xlink">
<g id="graph0" class="graph" transform="scale(1 1) rotate(0) translate(4 80)">
<title>include/Camera.h</title>
<polygon fill="white" stroke="none" points="-4,4 -4,-80 850,-80 850,4 -4,4"/>
<!-- Node15 -->
<g id="node1" class="node"><title>Node15</title>
<polygon fill="#bfbfbf" stroke="black" points="409,-56.5 409,-75.5 502,-75.5 502,-56.5 409,-56.5"/>
<text text-anchor="middle" x="455.5" y="-63.5" font-family="Helvetica,sans-Serif" font-size="10.00">include/Camera.h</text>
</g>
<!-- Node16 -->
<g id="node2" class="node"><title>Node16</title>
<g id="a_node2"><a xlink:href="Animation_8cpp.html" target="_top" xlink:title="src/Animation.cpp">
<polygon fill="white" stroke="black" points="0,-0.5 0,-19.5 95,-19.5 95,-0.5 0,-0.5"/>
<text text-anchor="middle" x="47.5" y="-7.5" font-family="Helvetica,sans-Serif" font-size="10.00">src/Animation.cpp</text>
</a>
</g>
</g>
<!-- Node15&#45;&gt;Node16 -->
<g id="edge1" class="edge"><title>Node15&#45;&gt;Node16</title>
<path fill="none" stroke="midnightblue" d="M398.601,-58.2215C329.118,-49.8247 208.048,-34.8093 104.5,-20 101.426,-19.5603 98.2599,-19.0951 95.0702,-18.6171"/>
<polygon fill="midnightblue" stroke="midnightblue" points="398.537,-61.7391 408.885,-59.4614 399.375,-54.7894 398.537,-61.7391"/>
</g>
<!-- Node17 -->
<g id="node3" class="node"><title>Node17</title>
<g id="a_node3"><a xlink:href="Camera_8cpp.html" target="_top" xlink:title="src/Camera.cpp">
<polygon fill="white" stroke="black" points="113.5,-0.5 113.5,-19.5 199.5,-19.5 199.5,-0.5 113.5,-0.5"/>
<text text-anchor="middle" x="156.5" y="-7.5" font-family="Helvetica,sans-Serif" font-size="10.00">src/Camera.cpp</text>
</a>
</g>
</g>
<!-- Node15&#45;&gt;Node17 -->
<g id="edge2" class="edge"><title>Node15&#45;&gt;Node17</title>
<path fill="none" stroke="midnightblue" d="M398.709,-54.7435C340.878,-44.299 252.466,-28.3316 199.977,-18.8521"/>
<polygon fill="midnightblue" stroke="midnightblue" points="398.318,-58.2294 408.781,-56.5625 399.563,-51.3409 398.318,-58.2294"/>
</g>
<!-- Node18 -->
<g id="node4" class="node"><title>Node18</title>
<g id="a_node4"><a xlink:href="DragAndDrop_8cpp.html" target="_top" xlink:title="src/DragAndDrop.cpp">
<polygon fill="white" stroke="black" points="218,-0.5 218,-19.5 329,-19.5 329,-0.5 218,-0.5"/>
<text text-anchor="middle" x="273.5" y="-7.5" font-family="Helvetica,sans-Serif" font-size="10.00">src/DragAndDrop.cpp</text>
</a>
</g>
</g>
<!-- Node15&#45;&gt;Node18 -->
<g id="edge3" class="edge"><title>Node15&#45;&gt;Node18</title>
<path fill="none" stroke="midnightblue" d="M416.969,-53.5677C382.636,-43.381 333.167,-28.7034 302.204,-19.5164"/>
<polygon fill="midnightblue" stroke="midnightblue" points="416.079,-56.9544 426.662,-56.4435 418.07,-50.2436 416.079,-56.9544"/>
</g>
<!-- Node19 -->
<g id="node5" class="node"><title>Node19</title>
<g id="a_node5"><a xlink:href="GameObject_8cpp.html" target="_top" xlink:title="src/GameObject.cpp">
<polygon fill="white" stroke="black" points="347,-0.5 347,-19.5 454,-19.5 454,-0.5 347,-0.5"/>
<text text-anchor="middle" x="400.5" y="-7.5" font-family="Helvetica,sans-Serif" font-size="10.00">src/GameObject.cpp</text>
</a>
</g>
</g>
<!-- Node15&#45;&gt;Node19 -->
<g id="edge4" class="edge"><title>Node15&#45;&gt;Node19</title>
<path fill="none" stroke="midnightblue" d="M439.206,-49.0024C429.459,-39.4329 417.447,-27.6389 409.413,-19.7511"/>
<polygon fill="midnightblue" stroke="midnightblue" points="436.83,-51.5746 446.418,-56.083 441.734,-46.5796 436.83,-51.5746"/>
</g>
<!-- Node20 -->
<g id="node6" class="node"><title>Node20</title>
<g id="a_node6"><a xlink:href="Sprite_8cpp.html" target="_top" xlink:title="src/Sprite.cpp">
<polygon fill="white" stroke="black" points="472,-0.5 472,-19.5 549,-19.5 549,-0.5 472,-0.5"/>
<text text-anchor="middle" x="510.5" y="-7.5" font-family="Helvetica,sans-Serif" font-size="10.00">src/Sprite.cpp</text>
</a>
</g>
</g>
<!-- Node15&#45;&gt;Node20 -->
<g id="edge5" class="edge"><title>Node15&#45;&gt;Node20</title>
<path fill="none" stroke="midnightblue" d="M471.794,-49.0024C481.541,-39.4329 493.553,-27.6389 501.587,-19.7511"/>
<polygon fill="midnightblue" stroke="midnightblue" points="469.266,-46.5796 464.582,-56.083 474.17,-51.5746 469.266,-46.5796"/>
</g>
<!-- Node21 -->
<g id="node7" class="node"><title>Node21</title>
<g id="a_node7"><a xlink:href="State_8cpp.html" target="_top" xlink:title="src/State.cpp">
<polygon fill="white" stroke="black" points="567,-0.5 567,-19.5 642,-19.5 642,-0.5 567,-0.5"/>
<text text-anchor="middle" x="604.5" y="-7.5" font-family="Helvetica,sans-Serif" font-size="10.00">src/State.cpp</text>
</a>
</g>
</g>
<!-- Node15&#45;&gt;Node21 -->
<g id="edge6" class="edge"><title>Node15&#45;&gt;Node21</title>
<path fill="none" stroke="midnightblue" d="M488.871,-52.9058C516.884,-42.7536 556.196,-28.5063 581.001,-19.5164"/>
<polygon fill="midnightblue" stroke="midnightblue" points="487.319,-49.7456 479.109,-56.4435 489.704,-56.3267 487.319,-49.7456"/>
</g>
<!-- Node22 -->
<g id="node8" class="node"><title>Node22</title>
<g id="a_node8"><a xlink:href="TileMap_8cpp.html" target="_top" xlink:title="src/TileMap.cpp">
<polygon fill="white" stroke="black" points="660.5,-0.5 660.5,-19.5 746.5,-19.5 746.5,-0.5 660.5,-0.5"/>
<text text-anchor="middle" x="703.5" y="-7.5" font-family="Helvetica,sans-Serif" font-size="10.00">src/TileMap.cpp</text>
</a>
</g>
</g>
<!-- Node15&#45;&gt;Node22 -->
<g id="edge7" class="edge"><title>Node15&#45;&gt;Node22</title>
<path fill="none" stroke="midnightblue" d="M504.726,-54.2815C551.591,-44.0769 621.199,-28.9203 664.388,-19.5164"/>
<polygon fill="midnightblue" stroke="midnightblue" points="503.823,-50.896 494.796,-56.4435 505.312,-57.7358 503.823,-50.896"/>
</g>
<!-- Node23 -->
<g id="node9" class="node"><title>Node23</title>
<g id="a_node9"><a xlink:href="Tileset_8cpp.html" target="_top" xlink:title="src/Tileset.cpp">
<polygon fill="white" stroke="black" points="765,-0.5 765,-19.5 846,-19.5 846,-0.5 765,-0.5"/>
<text text-anchor="middle" x="805.5" y="-7.5" font-family="Helvetica,sans-Serif" font-size="10.00">src/Tileset.cpp</text>
</a>
</g>
</g>
<!-- Node15&#45;&gt;Node23 -->
<g id="edge8" class="edge"><title>Node15&#45;&gt;Node23</title>
<path fill="none" stroke="midnightblue" d="M512.164,-57.0035C572.542,-48.3654 670.887,-33.958 755.5,-20 758.546,-19.4975 761.693,-18.9642 764.858,-18.4179"/>
<polygon fill="midnightblue" stroke="midnightblue" points="511.481,-53.5654 502.077,-58.4436 512.471,-60.4951 511.481,-53.5654"/>
</g>
</g>
</svg>
