<?xml version="1.0" encoding="UTF-8" standalone="no"?>
<!DOCTYPE svg PUBLIC "-//W3C//DTD SVG 1.1//EN"
 "http://www.w3.org/Graphics/SVG/1.1/DTD/svg11.dtd">
<!-- Generated by graphviz version 2.40.1 (20161225.0304)
 -->
<!-- Title: include/Camera.h Pages: 1 -->
<svg width="655pt" height="252pt"
 viewBox="0.00 0.00 655.13 252.00" xmlns="http://www.w3.org/2000/svg" xmlns:xlink="http://www.w3.org/1999/xlink">
<g id="graph0" class="graph" transform="scale(1 1) rotate(0) translate(4 248)">
<title>include/Camera.h</title>
<polygon fill="#ffffff" stroke="transparent" points="-4,4 -4,-248 651.1266,-248 651.1266,4 -4,4"/>
<!-- Node0 -->
<g id="node1" class="node">
<title>Node0</title>
<polygon fill="#bfbfbf" stroke="#000000" points="369.6266,-224.5 369.6266,-243.5 462.6266,-243.5 462.6266,-224.5 369.6266,-224.5"/>
<text text-anchor="middle" x="416.1266" y="-231.5" font-family="Helvetica,sans-Serif" font-size="10.00" fill="#000000">include/Camera.h</text>
</g>
<!-- Node1 -->
<g id="node2" class="node">
<title>Node1</title>
<g id="a_node2"><a xlink:href="GameObject_8h.html" target="_top" xlink:title="GameObject.h">
<polygon fill="#ffffff" stroke="#000000" points="202.1266,-168.5 202.1266,-187.5 282.1266,-187.5 282.1266,-168.5 202.1266,-168.5"/>
<text text-anchor="middle" x="242.1266" y="-175.5" font-family="Helvetica,sans-Serif" font-size="10.00" fill="#000000">GameObject.h</text>
</a>
</g>
</g>
<!-- Node0&#45;&gt;Node1 -->
<g id="edge1" class="edge">
<title>Node0&#45;&gt;Node1</title>
<path fill="none" stroke="#191970" d="M386.2149,-224.3733C357.2814,-215.0613 313.2654,-200.8953 281.4973,-190.671"/>
<polygon fill="#191970" stroke="#191970" points="282.2394,-187.2331 271.6479,-187.5011 280.0948,-193.8965 282.2394,-187.2331"/>
</g>
<!-- Node9 -->
<g id="node10" class="node">
<title>Node9</title>
<g id="a_node10"><a xlink:href="Vec2_8h.html" target="_top" xlink:title="Vec2.h">
<polygon fill="#ffffff" stroke="#000000" points="395.6266,-56.5 395.6266,-75.5 442.6266,-75.5 442.6266,-56.5 395.6266,-56.5"/>
<text text-anchor="middle" x="419.1266" y="-63.5" font-family="Helvetica,sans-Serif" font-size="10.00" fill="#000000">Vec2.h</text>
</a>
</g>
</g>
<!-- Node0&#45;&gt;Node9 -->
<g id="edge16" class="edge">
<title>Node0&#45;&gt;Node9</title>
<path fill="none" stroke="#191970" d="M416.2965,-224.4862C416.7707,-197.9293 418.1165,-122.5651 418.7665,-86.1655"/>
<polygon fill="#191970" stroke="#191970" points="422.2719,-85.8888 418.9511,-75.8279 415.273,-85.7638 422.2719,-85.8888"/>
</g>
<!-- Node11 -->
<g id="node12" class="node">
<title>Node11</title>
<g id="a_node12"><a xlink:href="ActionManager_8h.html" target="_top" xlink:title="ActionManager.h">
<polygon fill="#ffffff" stroke="#000000" points="444.1266,-168.5 444.1266,-187.5 534.1266,-187.5 534.1266,-168.5 444.1266,-168.5"/>
<text text-anchor="middle" x="489.1266" y="-175.5" font-family="Helvetica,sans-Serif" font-size="10.00" fill="#000000">ActionManager.h</text>
</a>
</g>
</g>
<!-- Node0&#45;&gt;Node11 -->
<g id="edge17" class="edge">
<title>Node0&#45;&gt;Node11</title>
<path fill="none" stroke="#191970" d="M428.8422,-224.2455C439.7286,-215.8943 455.6149,-203.7076 468.3466,-193.9408"/>
<polygon fill="#191970" stroke="#191970" points="470.7526,-196.5063 476.5567,-187.6427 466.492,-190.9523 470.7526,-196.5063"/>
</g>
<!-- Node2 -->
<g id="node3" class="node">
<title>Node2</title>
<g id="a_node3"><a xlink:href="SDL__include_8h.html" target="_top" xlink:title="SDL_include.h">
<polygon fill="#ffffff" stroke="#000000" points="322.1266,-.5 322.1266,-19.5 402.1266,-19.5 402.1266,-.5 322.1266,-.5"/>
<text text-anchor="middle" x="362.1266" y="-7.5" font-family="Helvetica,sans-Serif" font-size="10.00" fill="#000000">SDL_include.h</text>
</a>
</g>
</g>
<!-- Node1&#45;&gt;Node2 -->
<g id="edge2" class="edge">
<title>Node1&#45;&gt;Node2</title>
<path fill="none" stroke="#191970" d="M202.0857,-176.2172C140.9395,-172.5612 28.7697,-161.8622 4.1266,-132 -1.5311,-125.1441 -1.0644,-119.2157 4.1266,-112 40.2395,-61.8011 222.4246,-29.6535 312.106,-16.6216"/>
<polygon fill="#191970" stroke="#191970" points="312.645,-20.0802 322.049,-15.2001 311.6543,-13.1507 312.645,-20.0802"/>
</g>
<!-- Node3 -->
<g id="node4" class="node">
<title>Node3</title>
<polygon fill="#ffffff" stroke="#bfbfbf" points="13.1266,-112.5 13.1266,-131.5 57.1266,-131.5 57.1266,-112.5 13.1266,-112.5"/>
<text text-anchor="middle" x="35.1266" y="-119.5" font-family="Helvetica,sans-Serif" font-size="10.00" fill="#000000">vector</text>
</g>
<!-- Node1&#45;&gt;Node3 -->
<g id="edge3" class="edge">
<title>Node1&#45;&gt;Node3</title>
<path fill="none" stroke="#191970" d="M203.1548,-168.4848C169.4717,-160.1114 119.2801,-147.2793 67.1784,-132.2019"/>
<polygon fill="#191970" stroke="#191970" points="68.0111,-128.799 57.4312,-129.361 66.0524,-135.5194 68.0111,-128.799"/>
</g>
<!-- Node4 -->
<g id="node5" class="node">
<title>Node4</title>
<polygon fill="#ffffff" stroke="#bfbfbf" points="75.1266,-112.5 75.1266,-131.5 127.1266,-131.5 127.1266,-112.5 75.1266,-112.5"/>
<text text-anchor="middle" x="101.1266" y="-119.5" font-family="Helvetica,sans-Serif" font-size="10.00" fill="#000000">memory</text>
</g>
<!-- Node1&#45;&gt;Node4 -->
<g id="edge4" class="edge">
<title>Node1&#45;&gt;Node4</title>
<path fill="none" stroke="#191970" d="M217.8878,-168.3733C194.8476,-159.2226 160.0052,-145.3844 134.3765,-135.2057"/>
<polygon fill="#191970" stroke="#191970" points="135.6348,-131.9395 125.049,-131.5011 133.051,-138.4452 135.6348,-131.9395"/>
</g>
<!-- Node5 -->
<g id="node6" class="node">
<title>Node5</title>
<polygon fill="#ffffff" stroke="#bfbfbf" points="145.6266,-112.5 145.6266,-131.5 186.6266,-131.5 186.6266,-112.5 145.6266,-112.5"/>
<text text-anchor="middle" x="166.1266" y="-119.5" font-family="Helvetica,sans-Serif" font-size="10.00" fill="#000000">string</text>
</g>
<!-- Node1&#45;&gt;Node5 -->
<g id="edge5" class="edge">
<title>Node1&#45;&gt;Node5</title>
<path fill="none" stroke="#191970" d="M228.8884,-168.2455C217.4456,-159.814 200.697,-147.4729 187.3791,-137.6598"/>
<polygon fill="#191970" stroke="#191970" points="189.3398,-134.757 179.2131,-131.6427 185.1874,-140.3924 189.3398,-134.757"/>
</g>
<!-- Node6 -->
<g id="node7" class="node">
<title>Node6</title>
<g id="a_node7"><a xlink:href="Component_8h.html" target="_top" xlink:title="Component.h">
<polygon fill="#ffffff" stroke="#000000" points="204.6266,-112.5 204.6266,-131.5 279.6266,-131.5 279.6266,-112.5 204.6266,-112.5"/>
<text text-anchor="middle" x="242.1266" y="-119.5" font-family="Helvetica,sans-Serif" font-size="10.00" fill="#000000">Component.h</text>
</a>
</g>
</g>
<!-- Node1&#45;&gt;Node6 -->
<g id="edge6" class="edge">
<title>Node1&#45;&gt;Node6</title>
<path fill="none" stroke="#191970" d="M236.8597,-168.2455C235.4487,-160.9382 235.0445,-150.6944 235.6471,-141.7046"/>
<polygon fill="#191970" stroke="#191970" points="239.1377,-141.9945 236.8814,-131.6427 232.1898,-141.1421 239.1377,-141.9945"/>
</g>
<!-- Node7 -->
<g id="node8" class="node">
<title>Node7</title>
<g id="a_node8"><a xlink:href="ComponentType_8h.html" target="_top" xlink:title="ComponentType.h">
<polygon fill="#ffffff" stroke="#000000" points="179.6266,-56.5 179.6266,-75.5 276.6266,-75.5 276.6266,-56.5 179.6266,-56.5"/>
<text text-anchor="middle" x="228.1266" y="-63.5" font-family="Helvetica,sans-Serif" font-size="10.00" fill="#000000">ComponentType.h</text>
</a>
</g>
</g>
<!-- Node1&#45;&gt;Node7 -->
<g id="edge9" class="edge">
<title>Node1&#45;&gt;Node7</title>
<path fill="none" stroke="#191970" d="M257.1676,-168.3038C274.3371,-155.9312 298.7561,-133.5433 288.1266,-112 281.6472,-98.8681 269.4203,-88.4457 257.6859,-80.8651"/>
<polygon fill="#191970" stroke="#191970" points="259.2917,-77.7475 248.9118,-75.6244 255.7022,-83.7572 259.2917,-77.7475"/>
</g>
<!-- Node8 -->
<g id="node9" class="node">
<title>Node8</title>
<g id="a_node9"><a xlink:href="Rect_8h.html" target="_top" xlink:title="Rect.h">
<polygon fill="#ffffff" stroke="#000000" points="336.1266,-112.5 336.1266,-131.5 382.1266,-131.5 382.1266,-112.5 336.1266,-112.5"/>
<text text-anchor="middle" x="359.1266" y="-119.5" font-family="Helvetica,sans-Serif" font-size="10.00" fill="#000000">Rect.h</text>
</a>
</g>
</g>
<!-- Node1&#45;&gt;Node8 -->
<g id="edge10" class="edge">
<title>Node1&#45;&gt;Node8</title>
<path fill="none" stroke="#191970" d="M262.2396,-168.3733C280.9369,-159.4241 309.001,-145.9917 330.12,-135.8835"/>
<polygon fill="#191970" stroke="#191970" points="331.767,-138.9755 339.276,-131.5011 328.7449,-132.6614 331.767,-138.9755"/>
</g>
<!-- Node6&#45;&gt;Node1 -->
<g id="edge8" class="edge">
<title>Node6&#45;&gt;Node1</title>
<path fill="none" stroke="#191970" d="M247.3717,-131.6427C248.793,-138.9199 249.2075,-149.155 248.6152,-158.1575"/>
<polygon fill="#191970" stroke="#191970" points="245.1213,-157.8972 247.3934,-168.2455 252.0705,-158.739 245.1213,-157.8972"/>
</g>
<!-- Node6&#45;&gt;Node7 -->
<g id="edge7" class="edge">
<title>Node6&#45;&gt;Node7</title>
<path fill="none" stroke="#191970" d="M239.688,-112.2455C237.8411,-104.8579 235.2438,-94.4689 232.9787,-85.4087"/>
<polygon fill="#191970" stroke="#191970" points="236.3582,-84.4952 230.5372,-75.6427 229.5672,-86.193 236.3582,-84.4952"/>
</g>
<!-- Node8&#45;&gt;Node2 -->
<g id="edge11" class="edge">
<title>Node8&#45;&gt;Node2</title>
<path fill="none" stroke="#191970" d="M347.8562,-112.1258C334.972,-99.5694 316.5774,-76.9919 324.1266,-56 328.0702,-45.0341 335.8863,-34.8227 343.4097,-26.8204"/>
<polygon fill="#191970" stroke="#191970" points="346.0458,-29.1354 350.6813,-19.6084 341.1165,-24.1653 346.0458,-29.1354"/>
</g>
<!-- Node8&#45;&gt;Node9 -->
<g id="edge12" class="edge">
<title>Node8&#45;&gt;Node9</title>
<path fill="none" stroke="#191970" d="M364.3109,-112.2455C371.5755,-103.9746 384.1608,-91.9416 395.556,-82.2232"/>
<polygon fill="#191970" stroke="#191970" points="398.0538,-84.7004 403.55,-75.6427 393.6049,-79.296 398.0538,-84.7004"/>
</g>
<!-- Node10 -->
<g id="node11" class="node">
<title>Node10</title>
<polygon fill="#ffffff" stroke="#bfbfbf" points="333.1266,-56.5 333.1266,-75.5 377.1266,-75.5 377.1266,-56.5 333.1266,-56.5"/>
<text text-anchor="middle" x="355.1266" y="-63.5" font-family="Helvetica,sans-Serif" font-size="10.00" fill="#000000">cmath</text>
</g>
<!-- Node8&#45;&gt;Node10 -->
<g id="edge15" class="edge">
<title>Node8&#45;&gt;Node10</title>
<path fill="none" stroke="#191970" d="M358.4298,-112.2455C357.9079,-104.9382 357.1762,-94.6944 356.534,-85.7046"/>
<polygon fill="#191970" stroke="#191970" points="360.019,-85.3679 355.8153,-75.6427 353.0368,-85.8667 360.019,-85.3679"/>
</g>
<!-- Node9&#45;&gt;Node2 -->
<g id="edge13" class="edge">
<title>Node9&#45;&gt;Node2</title>
<path fill="none" stroke="#191970" d="M409.1979,-56.2455C400.9428,-48.1352 389.0056,-36.4075 379.2183,-26.7919"/>
<polygon fill="#191970" stroke="#191970" points="381.5277,-24.1542 371.9414,-19.6427 376.6219,-29.1476 381.5277,-24.1542"/>
</g>
<!-- Node9&#45;&gt;Node8 -->
<g id="edge14" class="edge">
<title>Node9&#45;&gt;Node8</title>
<path fill="none" stroke="#191970" d="M414.0403,-75.6427C406.8238,-83.8795 394.2574,-95.9058 382.8516,-105.645"/>
<polygon fill="#191970" stroke="#191970" points="380.3345,-103.184 374.8446,-112.2455 384.7872,-108.5854 380.3345,-103.184"/>
</g>
<!-- Node12 -->
<g id="node13" class="node">
<title>Node12</title>
<g id="a_node13"><a xlink:href="InputManager_8h.html" target="_top" xlink:title="InputManager.h">
<polygon fill="#ffffff" stroke="#000000" points="447.1266,-112.5 447.1266,-131.5 531.1266,-131.5 531.1266,-112.5 447.1266,-112.5"/>
<text text-anchor="middle" x="489.1266" y="-119.5" font-family="Helvetica,sans-Serif" font-size="10.00" fill="#000000">InputManager.h</text>
</a>
</g>
</g>
<!-- Node11&#45;&gt;Node12 -->
<g id="edge18" class="edge">
<title>Node11&#45;&gt;Node12</title>
<path fill="none" stroke="#191970" d="M489.1266,-168.2455C489.1266,-160.9382 489.1266,-150.6944 489.1266,-141.7046"/>
<polygon fill="#191970" stroke="#191970" points="492.6267,-141.6426 489.1266,-131.6427 485.6267,-141.6427 492.6267,-141.6426"/>
</g>
<!-- Node12&#45;&gt;Node2 -->
<g id="edge19" class="edge">
<title>Node12&#45;&gt;Node2</title>
<path fill="none" stroke="#191970" d="M485.7847,-112.338C480.535,-98.3639 469.1644,-72.395 452.1266,-56 437.4039,-41.8328 417.4553,-31.0369 400.0804,-23.4763"/>
<polygon fill="#191970" stroke="#191970" points="401.3202,-20.2015 390.742,-19.6079 398.6412,-26.6686 401.3202,-20.2015"/>
</g>
<!-- Node12&#45;&gt;Node9 -->
<g id="edge20" class="edge">
<title>Node12&#45;&gt;Node9</title>
<path fill="none" stroke="#191970" d="M476.9335,-112.2455C466.4945,-103.8943 451.2611,-91.7076 439.0526,-81.9408"/>
<polygon fill="#191970" stroke="#191970" points="441.1751,-79.1566 431.1799,-75.6427 436.8022,-84.6227 441.1751,-79.1566"/>
</g>
<!-- Node13 -->
<g id="node14" class="node">
<title>Node13</title>
<polygon fill="#ffffff" stroke="#bfbfbf" points="499.6266,-56.5 499.6266,-75.5 582.6266,-75.5 582.6266,-56.5 499.6266,-56.5"/>
<text text-anchor="middle" x="541.1266" y="-63.5" font-family="Helvetica,sans-Serif" font-size="10.00" fill="#000000">unordered_map</text>
</g>
<!-- Node12&#45;&gt;Node13 -->
<g id="edge21" class="edge">
<title>Node12&#45;&gt;Node13</title>
<path fill="none" stroke="#191970" d="M498.1843,-112.2455C505.6407,-104.2155 516.39,-92.6394 525.2683,-83.0781"/>
<polygon fill="#191970" stroke="#191970" points="527.9329,-85.3522 532.1727,-75.6427 522.8033,-80.589 527.9329,-85.3522"/>
</g>
<!-- Node14 -->
<g id="node15" class="node">
<title>Node14</title>
<polygon fill="#ffffff" stroke="#bfbfbf" points="601.1266,-56.5 601.1266,-75.5 647.1266,-75.5 647.1266,-56.5 601.1266,-56.5"/>
<text text-anchor="middle" x="624.1266" y="-63.5" font-family="Helvetica,sans-Serif" font-size="10.00" fill="#000000">cstdint</text>
</g>
<!-- Node12&#45;&gt;Node14 -->
<g id="edge22" class="edge">
<title>Node12&#45;&gt;Node14</title>
<path fill="none" stroke="#191970" d="M512.3339,-112.3733C534.2965,-103.2629 567.4597,-89.5062 591.9667,-79.3404"/>
<polygon fill="#191970" stroke="#191970" points="593.3263,-82.5657 601.2221,-75.5011 590.6442,-76.0999 593.3263,-82.5657"/>
</g>
</g>
</svg>
