<?xml version="1.0" encoding="UTF-8" standalone="no"?>
<!DOCTYPE svg PUBLIC "-//W3C//DTD SVG 1.1//EN"
 "http://www.w3.org/Graphics/SVG/1.1/DTD/svg11.dtd">
<!-- Generated by graphviz version 2.38.0 (20140413.2041)
 -->
<!-- Title: include/Camera.h Pages: 1 -->
<svg width="806pt" height="140pt"
 viewBox="0.00 0.00 806.00 140.00" xmlns="http://www.w3.org/2000/svg" xmlns:xlink="http://www.w3.org/1999/xlink">
<g id="graph0" class="graph" transform="scale(1 1) rotate(0) translate(4 136)">
<title>include/Camera.h</title>
<polygon fill="white" stroke="none" points="-4,4 -4,-136 802,-136 802,4 -4,4"/>
<!-- Node15 -->
<g id="node1" class="node"><title>Node15</title>
<polygon fill="#bfbfbf" stroke="black" points="317,-112.5 317,-131.5 410,-131.5 410,-112.5 317,-112.5"/>
<text text-anchor="middle" x="363.5" y="-119.5" font-family="Helvetica,sans-Serif" font-size="10.00">include/Camera.h</text>
</g>
<!-- Node16 -->
<g id="node2" class="node"><title>Node16</title>
<g id="a_node2"><a xlink:href="TileMap_8h.html" target="_top" xlink:title="include/TileMap.h">
<polygon fill="white" stroke="black" points="0,-56.5 0,-75.5 93,-75.5 93,-56.5 0,-56.5"/>
<text text-anchor="middle" x="46.5" y="-63.5" font-family="Helvetica,sans-Serif" font-size="10.00">include/TileMap.h</text>
</a>
</g>
</g>
<!-- Node15&#45;&gt;Node16 -->
<g id="edge1" class="edge"><title>Node15&#45;&gt;Node16</title>
<path fill="none" stroke="midnightblue" d="M306.503,-111.291C245.514,-100.901 149.915,-84.6165 93.2079,-74.9565"/>
<polygon fill="midnightblue" stroke="midnightblue" points="306.28,-114.803 316.726,-113.032 307.455,-107.902 306.28,-114.803"/>
</g>
<!-- Node17 -->
<g id="node3" class="node"><title>Node17</title>
<g id="a_node3"><a xlink:href="DragAndDrop_8h.html" target="_top" xlink:title="include/DragAndDrop.h">
<polygon fill="white" stroke="black" points="24.5,-0.5 24.5,-19.5 142.5,-19.5 142.5,-0.5 24.5,-0.5"/>
<text text-anchor="middle" x="83.5" y="-7.5" font-family="Helvetica,sans-Serif" font-size="10.00">include/DragAndDrop.h</text>
</a>
</g>
</g>
<!-- Node15&#45;&gt;Node17 -->
<g id="edge3" class="edge"><title>Node15&#45;&gt;Node17</title>
<path fill="none" stroke="midnightblue" d="M306.704,-119.315C259.659,-115.704 192.497,-105.275 141.5,-76 117.103,-61.995 97.5402,-34.028 88.6658,-19.7806"/>
<polygon fill="midnightblue" stroke="midnightblue" points="306.503,-122.809 316.72,-120.004 306.984,-115.826 306.503,-122.809"/>
</g>
<!-- Node18 -->
<g id="node4" class="node"><title>Node18</title>
<g id="a_node4"><a xlink:href="Animation_8cpp.html" target="_top" xlink:title="src/Animation.cpp">
<polygon fill="white" stroke="black" points="150,-56.5 150,-75.5 245,-75.5 245,-56.5 150,-56.5"/>
<text text-anchor="middle" x="197.5" y="-63.5" font-family="Helvetica,sans-Serif" font-size="10.00">src/Animation.cpp</text>
</a>
</g>
</g>
<!-- Node15&#45;&gt;Node18 -->
<g id="edge4" class="edge"><title>Node15&#45;&gt;Node18</title>
<path fill="none" stroke="midnightblue" d="M327.547,-109.304C296.268,-99.1294 251.679,-84.6246 223.68,-75.5164"/>
<polygon fill="midnightblue" stroke="midnightblue" points="326.605,-112.678 337.197,-112.444 328.77,-106.022 326.605,-112.678"/>
</g>
<!-- Node19 -->
<g id="node5" class="node"><title>Node19</title>
<g id="a_node5"><a xlink:href="Camera_8cpp.html" target="_top" xlink:title="src/Camera.cpp">
<polygon fill="white" stroke="black" points="263.5,-56.5 263.5,-75.5 349.5,-75.5 349.5,-56.5 263.5,-56.5"/>
<text text-anchor="middle" x="306.5" y="-63.5" font-family="Helvetica,sans-Serif" font-size="10.00">src/Camera.cpp</text>
</a>
</g>
</g>
<!-- Node15&#45;&gt;Node19 -->
<g id="edge5" class="edge"><title>Node15&#45;&gt;Node19</title>
<path fill="none" stroke="midnightblue" d="M346.879,-105.253C336.766,-95.6731 324.223,-83.7906 315.825,-75.8339"/>
<polygon fill="midnightblue" stroke="midnightblue" points="344.675,-107.987 354.342,-112.324 349.49,-102.906 344.675,-107.987"/>
</g>
<!-- Node20 -->
<g id="node6" class="node"><title>Node20</title>
<g id="a_node6"><a xlink:href="GameObject_8cpp.html" target="_top" xlink:title="src/GameObject.cpp">
<polygon fill="white" stroke="black" points="368,-56.5 368,-75.5 475,-75.5 475,-56.5 368,-56.5"/>
<text text-anchor="middle" x="421.5" y="-63.5" font-family="Helvetica,sans-Serif" font-size="10.00">src/GameObject.cpp</text>
</a>
</g>
</g>
<!-- Node15&#45;&gt;Node20 -->
<g id="edge6" class="edge"><title>Node15&#45;&gt;Node20</title>
<path fill="none" stroke="midnightblue" d="M380.413,-105.253C390.703,-95.6731 403.466,-83.7906 412.012,-75.8339"/>
<polygon fill="midnightblue" stroke="midnightblue" points="377.753,-102.948 372.819,-112.324 382.523,-108.071 377.753,-102.948"/>
</g>
<!-- Node21 -->
<g id="node7" class="node"><title>Node21</title>
<g id="a_node7"><a xlink:href="RectTransform_8cpp.html" target="_top" xlink:title="src/RectTransform.cpp">
<polygon fill="white" stroke="black" points="493,-56.5 493,-75.5 610,-75.5 610,-56.5 493,-56.5"/>
<text text-anchor="middle" x="551.5" y="-63.5" font-family="Helvetica,sans-Serif" font-size="10.00">src/RectTransform.cpp</text>
</a>
</g>
</g>
<!-- Node15&#45;&gt;Node21 -->
<g id="edge7" class="edge"><title>Node15&#45;&gt;Node21</title>
<path fill="none" stroke="midnightblue" d="M403.301,-109.568C438.766,-99.381 489.866,-84.7034 521.85,-75.5164"/>
<polygon fill="midnightblue" stroke="midnightblue" points="401.934,-106.319 393.289,-112.444 403.867,-113.047 401.934,-106.319"/>
</g>
<!-- Node22 -->
<g id="node8" class="node"><title>Node22</title>
<g id="a_node8"><a xlink:href="Sprite_8cpp.html" target="_top" xlink:title="src/Sprite.cpp">
<polygon fill="white" stroke="black" points="628,-56.5 628,-75.5 705,-75.5 705,-56.5 628,-56.5"/>
<text text-anchor="middle" x="666.5" y="-63.5" font-family="Helvetica,sans-Serif" font-size="10.00">src/Sprite.cpp</text>
</a>
</g>
</g>
<!-- Node15&#45;&gt;Node22 -->
<g id="edge8" class="edge"><title>Node15&#45;&gt;Node22</title>
<path fill="none" stroke="midnightblue" d="M420.263,-111.277C472.168,-102.325 551.052,-88.5687 619.5,-76 622.197,-75.5048 624.979,-74.9878 627.78,-74.4627"/>
<polygon fill="midnightblue" stroke="midnightblue" points="419.513,-107.854 410.252,-113.001 420.701,-114.753 419.513,-107.854"/>
</g>
<!-- Node23 -->
<g id="node9" class="node"><title>Node23</title>
<g id="a_node9"><a xlink:href="State_8cpp.html" target="_top" xlink:title="src/State.cpp">
<polygon fill="white" stroke="black" points="723,-56.5 723,-75.5 798,-75.5 798,-56.5 723,-56.5"/>
<text text-anchor="middle" x="760.5" y="-63.5" font-family="Helvetica,sans-Serif" font-size="10.00">src/State.cpp</text>
</a>
</g>
</g>
<!-- Node15&#45;&gt;Node23 -->
<g id="edge9" class="edge"><title>Node15&#45;&gt;Node23</title>
<path fill="none" stroke="midnightblue" d="M420.496,-114.858C490.075,-107.093 611.241,-92.7021 714.5,-76 717.231,-75.5582 720.048,-75.075 722.881,-74.5692"/>
<polygon fill="midnightblue" stroke="midnightblue" points="419.751,-111.42 410.198,-116.001 420.523,-118.377 419.751,-111.42"/>
</g>
<!-- Node16&#45;&gt;Node17 -->
<g id="edge2" class="edge"><title>Node16&#45;&gt;Node17</title>
<path fill="none" stroke="midnightblue" d="M58.4458,-47.5656C64.8117,-38.2747 72.3668,-27.2484 77.5039,-19.7511"/>
<polygon fill="midnightblue" stroke="midnightblue" points="55.3749,-45.8553 52.6098,-56.083 61.1494,-49.812 55.3749,-45.8553"/>
</g>
</g>
</svg>
