<?xml version="1.0" encoding="UTF-8" standalone="no"?>
<!DOCTYPE svg PUBLIC "-//W3C//DTD SVG 1.1//EN"
 "http://www.w3.org/Graphics/SVG/1.1/DTD/svg11.dtd">
<!-- Generated by graphviz version 2.40.1 (20161225.0304)
 -->
<!-- Title: include/Camera.h Pages: 1 -->
<svg width="679pt" height="196pt"
 viewBox="0.00 0.00 679.00 196.00" xmlns="http://www.w3.org/2000/svg" xmlns:xlink="http://www.w3.org/1999/xlink">
<g id="graph0" class="graph" transform="scale(1 1) rotate(0) translate(4 192)">
<title>include/Camera.h</title>
<polygon fill="#ffffff" stroke="transparent" points="-4,4 -4,-192 675,-192 675,4 -4,4"/>
<!-- Node15 -->
<g id="node1" class="node">
<title>Node15</title>
<polygon fill="#bfbfbf" stroke="#000000" points="313,-168.5 313,-187.5 406,-187.5 406,-168.5 313,-168.5"/>
<text text-anchor="middle" x="359.5" y="-175.5" font-family="Helvetica,sans-Serif" font-size="10.00" fill="#000000">include/Camera.h</text>
</g>
<!-- Node16 -->
<g id="node2" class="node">
<title>Node16</title>
<g id="a_node2"><a xlink:href="TileMap_8h.html" target="_top" xlink:title="include/TileMap.h">
<polygon fill="#ffffff" stroke="#000000" points="25,-112.5 25,-131.5 118,-131.5 118,-112.5 25,-112.5"/>
<text text-anchor="middle" x="71.5" y="-119.5" font-family="Helvetica,sans-Serif" font-size="10.00" fill="#000000">include/TileMap.h</text>
</a>
</g>
</g>
<!-- Node15&#45;&gt;Node16 -->
<g id="edge1" class="edge">
<title>Node15&#45;&gt;Node16</title>
<path fill="none" stroke="#191970" d="M302.8043,-166.9758C248.773,-156.4697 168.4007,-140.8418 118.0253,-131.0466"/>
<polygon fill="#191970" stroke="#191970" points="302.4235,-170.4673 312.9077,-168.9404 303.7597,-163.596 302.4235,-170.4673"/>
</g>
<!-- Node19 -->
<g id="node5" class="node">
<title>Node19</title>
<g id="a_node5"><a xlink:href="Camera_8cpp.html" target="_top" xlink:title="src/Camera.cpp">
<polygon fill="#ffffff" stroke="#000000" points="136.5,-112.5 136.5,-131.5 222.5,-131.5 222.5,-112.5 136.5,-112.5"/>
<text text-anchor="middle" x="179.5" y="-119.5" font-family="Helvetica,sans-Serif" font-size="10.00" fill="#000000">src/Camera.cpp</text>
</a>
</g>
</g>
<!-- Node15&#45;&gt;Node19 -->
<g id="edge4" class="edge">
<title>Node15&#45;&gt;Node19</title>
<path fill="none" stroke="#191970" d="M318.7541,-165.3235C285.7437,-155.0536 239.9583,-140.8093 210.0393,-131.5011"/>
<polygon fill="#191970" stroke="#191970" points="317.9686,-168.7445 328.5569,-168.3733 320.0481,-162.0605 317.9686,-168.7445"/>
</g>
<!-- Node20 -->
<g id="node6" class="node">
<title>Node20</title>
<g id="a_node6"><a xlink:href="GameObject_8cpp.html" target="_top" xlink:title="src/GameObject.cpp">
<polygon fill="#ffffff" stroke="#000000" points="241,-112.5 241,-131.5 348,-131.5 348,-112.5 241,-112.5"/>
<text text-anchor="middle" x="294.5" y="-119.5" font-family="Helvetica,sans-Serif" font-size="10.00" fill="#000000">src/GameObject.cpp</text>
</a>
</g>
</g>
<!-- Node15&#45;&gt;Node20 -->
<g id="edge5" class="edge">
<title>Node15&#45;&gt;Node20</title>
<path fill="none" stroke="#191970" d="M340.5165,-161.645C329.2121,-151.9058 315.253,-139.8795 305.6924,-131.6427"/>
<polygon fill="#191970" stroke="#191970" points="338.3173,-164.3701 348.1779,-168.2455 342.8862,-159.0668 338.3173,-164.3701"/>
</g>
<!-- Node21 -->
<g id="node7" class="node">
<title>Node21</title>
<g id="a_node7"><a xlink:href="RectTransform_8cpp.html" target="_top" xlink:title="src/RectTransform.cpp">
<polygon fill="#ffffff" stroke="#000000" points="366,-112.5 366,-131.5 483,-131.5 483,-112.5 366,-112.5"/>
<text text-anchor="middle" x="424.5" y="-119.5" font-family="Helvetica,sans-Serif" font-size="10.00" fill="#000000">src/RectTransform.cpp</text>
</a>
</g>
</g>
<!-- Node15&#45;&gt;Node21 -->
<g id="edge6" class="edge">
<title>Node15&#45;&gt;Node21</title>
<path fill="none" stroke="#191970" d="M378.4835,-161.645C389.7879,-151.9058 403.747,-139.8795 413.3076,-131.6427"/>
<polygon fill="#191970" stroke="#191970" points="376.1138,-159.0668 370.8221,-168.2455 380.6827,-164.3701 376.1138,-159.0668"/>
</g>
<!-- Node22 -->
<g id="node8" class="node">
<title>Node22</title>
<g id="a_node8"><a xlink:href="Sprite_8cpp.html" target="_top" xlink:title="src/Sprite.cpp">
<polygon fill="#ffffff" stroke="#000000" points="501,-112.5 501,-131.5 578,-131.5 578,-112.5 501,-112.5"/>
<text text-anchor="middle" x="539.5" y="-119.5" font-family="Helvetica,sans-Serif" font-size="10.00" fill="#000000">src/Sprite.cpp</text>
</a>
</g>
</g>
<!-- Node15&#45;&gt;Node22 -->
<g id="edge7" class="edge">
<title>Node15&#45;&gt;Node22</title>
<path fill="none" stroke="#191970" d="M400.2459,-165.3235C433.2563,-155.0536 479.0417,-140.8093 508.9607,-131.5011"/>
<polygon fill="#191970" stroke="#191970" points="398.9519,-162.0605 390.4431,-168.3733 401.0314,-168.7445 398.9519,-162.0605"/>
</g>
<!-- Node23 -->
<g id="node9" class="node">
<title>Node23</title>
<g id="a_node9"><a xlink:href="State_8cpp.html" target="_top" xlink:title="src/State.cpp">
<polygon fill="#ffffff" stroke="#000000" points="596,-112.5 596,-131.5 671,-131.5 671,-112.5 596,-112.5"/>
<text text-anchor="middle" x="633.5" y="-119.5" font-family="Helvetica,sans-Serif" font-size="10.00" fill="#000000">src/State.cpp</text>
</a>
</g>
</g>
<!-- Node15&#45;&gt;Node23 -->
<g id="edge8" class="edge">
<title>Node15&#45;&gt;Node23</title>
<path fill="none" stroke="#191970" d="M416.0809,-166.8293C462.2458,-157.6562 529.1392,-144.2301 587.5,-132 590.2196,-131.4301 593.0282,-130.8351 595.8543,-130.2319"/>
<polygon fill="#191970" stroke="#191970" points="415.3924,-163.3976 406.2652,-168.7777 416.7553,-170.2637 415.3924,-163.3976"/>
</g>
<!-- Node17 -->
<g id="node3" class="node">
<title>Node17</title>
<g id="a_node3"><a xlink:href="ManhattanDistance_8h.html" target="_top" xlink:title="include/ManhattanDistance.h">
<polygon fill="#ffffff" stroke="#000000" points="0,-56.5 0,-75.5 143,-75.5 143,-56.5 0,-56.5"/>
<text text-anchor="middle" x="71.5" y="-63.5" font-family="Helvetica,sans-Serif" font-size="10.00" fill="#000000">include/ManhattanDistance.h</text>
</a>
</g>
</g>
<!-- Node16&#45;&gt;Node17 -->
<g id="edge2" class="edge">
<title>Node16&#45;&gt;Node17</title>
<path fill="none" stroke="#191970" d="M71.5,-102.1575C71.5,-93.155 71.5,-82.9199 71.5,-75.6427"/>
<polygon fill="#191970" stroke="#191970" points="68.0001,-102.2455 71.5,-112.2455 75.0001,-102.2456 68.0001,-102.2455"/>
</g>
<!-- Node18 -->
<g id="node4" class="node">
<title>Node18</title>
<g id="a_node4"><a xlink:href="ManhattanDistance_8cpp.html" target="_top" xlink:title="src/ManhattanDistance.cpp">
<polygon fill="#ffffff" stroke="#000000" points="3,-.5 3,-19.5 140,-19.5 140,-.5 3,-.5"/>
<text text-anchor="middle" x="71.5" y="-7.5" font-family="Helvetica,sans-Serif" font-size="10.00" fill="#000000">src/ManhattanDistance.cpp</text>
</a>
</g>
</g>
<!-- Node17&#45;&gt;Node18 -->
<g id="edge3" class="edge">
<title>Node17&#45;&gt;Node18</title>
<path fill="none" stroke="#191970" d="M71.5,-46.1575C71.5,-37.155 71.5,-26.9199 71.5,-19.6427"/>
<polygon fill="#191970" stroke="#191970" points="68.0001,-46.2455 71.5,-56.2455 75.0001,-46.2456 68.0001,-46.2455"/>
</g>
</g>
</svg>
