<?xml version="1.0" encoding="UTF-8" standalone="no"?>
<!DOCTYPE svg PUBLIC "-//W3C//DTD SVG 1.1//EN"
 "http://www.w3.org/Graphics/SVG/1.1/DTD/svg11.dtd">
<!-- Generated by graphviz version 2.40.1 (20161225.0304)
 -->
<!-- Title: RattletrapEngine::Threading Pages: 1 -->
<svg width="447pt" height="340pt"
 viewBox="0.00 0.00 446.50 340.00" xmlns="http://www.w3.org/2000/svg" xmlns:xlink="http://www.w3.org/1999/xlink">
<g id="graph0" class="graph" transform="scale(1 1) rotate(0) translate(4 336)">
<title>RattletrapEngine::Threading</title>
<polygon fill="#ffffff" stroke="transparent" points="-4,4 -4,-336 442.5,-336 442.5,4 -4,4"/>
<!-- Node1 -->
<g id="node1" class="node">
<title>Node1</title>
<polygon fill="#bfbfbf" stroke="#000000" points="90.5,-.5 90.5,-19.5 228.5,-19.5 228.5,-.5 90.5,-.5"/>
<text text-anchor="middle" x="159.5" y="-7.5" font-family="Helvetica,sans-Serif" font-size="10.00" fill="#000000">RattletrapEngine::Threading</text>
</g>
<!-- Node2 -->
<g id="node2" class="node">
<title>Node2</title>
<polygon fill="#ffffff" stroke="#bfbfbf" points="68.5,-95 68.5,-114 170.5,-114 170.5,-95 68.5,-95"/>
<text text-anchor="middle" x="119.5" y="-102" font-family="Helvetica,sans-Serif" font-size="10.00" fill="#000000">vector&lt; pthread_t &gt;</text>
</g>
<!-- Node2&#45;&gt;Node1 -->
<g id="edge1" class="edge">
<title>Node2&#45;&gt;Node1</title>
<path fill="none" stroke="#9a32cd" stroke-dasharray="5,2" d="M127.5833,-85.4033C136.0313,-65.4448 148.9442,-34.938 155.452,-19.5634"/>
<polygon fill="#9a32cd" stroke="#9a32cd" points="124.3049,-84.1694 123.63,-94.7428 130.7512,-86.8981 124.3049,-84.1694"/>
<text text-anchor="middle" x="176" y="-63" font-family="Helvetica,sans-Serif" font-size="10.00" fill="#000000"> lateThreads</text>
<text text-anchor="middle" x="176" y="-52" font-family="Helvetica,sans-Serif" font-size="10.00" fill="#000000">earlyThreads</text>
<text text-anchor="middle" x="176" y="-41" font-family="Helvetica,sans-Serif" font-size="10.00" fill="#000000">midThreads</text>
</g>
<!-- Node3 -->
<g id="node3" class="node">
<title>Node3</title>
<g id="a_node3"><a xlink:href="structRattletrapEngine_1_1Threading_1_1ThreadContex.html" target="_top" xlink:title="RattletrapEngine::Threading\l::ThreadContex">
<polygon fill="#ffffff" stroke="#000000" points="188.5,-89.5 188.5,-119.5 326.5,-119.5 326.5,-89.5 188.5,-89.5"/>
<text text-anchor="start" x="196.5" y="-107.5" font-family="Helvetica,sans-Serif" font-size="10.00" fill="#000000">RattletrapEngine::Threading</text>
<text text-anchor="middle" x="257.5" y="-96.5" font-family="Helvetica,sans-Serif" font-size="10.00" fill="#000000">::ThreadContex</text>
</a>
</g>
</g>
<!-- Node3&#45;&gt;Node1 -->
<g id="edge2" class="edge">
<title>Node3&#45;&gt;Node1</title>
<path fill="none" stroke="#9a32cd" stroke-dasharray="5,2" d="M242.7849,-81.0413C233.4862,-67.4202 220.5908,-50.5321 206.5,-38 198.4093,-30.8042 188.2041,-24.4647 179.3721,-19.6458"/>
<polygon fill="#9a32cd" stroke="#9a32cd" points="239.9105,-83.0399 248.3525,-89.4418 245.7454,-79.1728 239.9105,-83.0399"/>
<text text-anchor="middle" x="246.5" y="-63" font-family="Helvetica,sans-Serif" font-size="10.00" fill="#000000"> mid</text>
<text text-anchor="middle" x="246.5" y="-52" font-family="Helvetica,sans-Serif" font-size="10.00" fill="#000000">late</text>
<text text-anchor="middle" x="246.5" y="-41" font-family="Helvetica,sans-Serif" font-size="10.00" fill="#000000">early</text>
</g>
<!-- Node4 -->
<g id="node4" class="node">
<title>Node4</title>
<g id="a_node4"><a xlink:href="structfowardList.html" target="_top" xlink:title="fowardList">
<polygon fill="#ffffff" stroke="#000000" points="139.5,-167.5 139.5,-186.5 201.5,-186.5 201.5,-167.5 139.5,-167.5"/>
<text text-anchor="middle" x="170.5" y="-174.5" font-family="Helvetica,sans-Serif" font-size="10.00" fill="#000000">fowardList</text>
</a>
</g>
</g>
<!-- Node4&#45;&gt;Node3 -->
<g id="edge3" class="edge">
<title>Node4&#45;&gt;Node3</title>
<path fill="none" stroke="#9a32cd" stroke-dasharray="5,2" d="M190.2189,-160.5676C204.9531,-148.2891 224.9427,-131.6311 239.2984,-119.668"/>
<polygon fill="#9a32cd" stroke="#9a32cd" points="187.6748,-158.1317 182.2332,-167.2223 192.1561,-163.5092 187.6748,-158.1317"/>
<text text-anchor="middle" x="224.5" y="-141" font-family="Helvetica,sans-Serif" font-size="10.00" fill="#000000"> fw</text>
</g>
<!-- Node5 -->
<g id="node5" class="node">
<title>Node5</title>
<g id="a_node5"><a xlink:href="structfowardListElement.html" target="_top" xlink:title="fowardListElement">
<polygon fill="#ffffff" stroke="#000000" points="106.5,-245.5 106.5,-264.5 204.5,-264.5 204.5,-245.5 106.5,-245.5"/>
<text text-anchor="middle" x="155.5" y="-252.5" font-family="Helvetica,sans-Serif" font-size="10.00" fill="#000000">fowardListElement</text>
</a>
</g>
</g>
<!-- Node5&#45;&gt;Node4 -->
<g id="edge4" class="edge">
<title>Node5&#45;&gt;Node4</title>
<path fill="none" stroke="#9a32cd" stroke-dasharray="5,2" d="M153.9009,-235.0684C153.663,-225.8017 154.1054,-214.7086 156.5,-205 158.0878,-198.5624 161.3418,-191.9015 164.3133,-186.6922"/>
<polygon fill="#9a32cd" stroke="#9a32cd" points="150.4162,-235.4505 154.4431,-245.2503 157.4063,-235.0783 150.4162,-235.4505"/>
<text text-anchor="middle" x="170" y="-219" font-family="Helvetica,sans-Serif" font-size="10.00" fill="#000000"> begin</text>
<text text-anchor="middle" x="170" y="-208" font-family="Helvetica,sans-Serif" font-size="10.00" fill="#000000">end</text>
</g>
<!-- Node5&#45;&gt;Node5 -->
<g id="edge5" class="edge">
<title>Node5&#45;&gt;Node5</title>
<path fill="none" stroke="#9a32cd" stroke-dasharray="5,2" d="M214.823,-259.5752C219.5648,-258.5758 222.5,-257.0508 222.5,-255 222.5,-251.7188 214.9858,-249.7833 204.5804,-249.1937"/>
<polygon fill="#9a32cd" stroke="#9a32cd" points="214.0913,-256.1379 204.5804,-260.8063 214.9267,-263.0879 214.0913,-256.1379"/>
<text text-anchor="middle" x="233.5" y="-252.5" font-family="Helvetica,sans-Serif" font-size="10.00" fill="#000000"> next</text>
</g>
<!-- Node6 -->
<g id="node6" class="node">
<title>Node6</title>
<polygon fill="#ffffff" stroke="#bfbfbf" points="135,-312.5 135,-331.5 176,-331.5 176,-312.5 135,-312.5"/>
<text text-anchor="middle" x="155.5" y="-319.5" font-family="Helvetica,sans-Serif" font-size="10.00" fill="#000000">void *</text>
</g>
<!-- Node6&#45;&gt;Node5 -->
<g id="edge6" class="edge">
<title>Node6&#45;&gt;Node5</title>
<path fill="none" stroke="#9a32cd" stroke-dasharray="5,2" d="M155.5,-302.1079C155.5,-289.714 155.5,-274.3263 155.5,-264.5817"/>
<polygon fill="#9a32cd" stroke="#9a32cd" points="152.0001,-302.4005 155.5,-312.4005 159.0001,-302.4006 152.0001,-302.4005"/>
<text text-anchor="middle" x="166.5" y="-286" font-family="Helvetica,sans-Serif" font-size="10.00" fill="#000000"> data</text>
</g>
<!-- Node7 -->
<g id="node7" class="node">
<title>Node7</title>
<polygon fill="#ffffff" stroke="#bfbfbf" points="0,-245.5 0,-264.5 89,-264.5 89,-245.5 0,-245.5"/>
<text text-anchor="middle" x="44.5" y="-252.5" font-family="Helvetica,sans-Serif" font-size="10.00" fill="#000000">pthread_mutex_t</text>
</g>
<!-- Node7&#45;&gt;Node3 -->
<g id="edge9" class="edge">
<title>Node7&#45;&gt;Node3</title>
<path fill="none" stroke="#9a32cd" stroke-dasharray="5,2" d="M52.1079,-235.947C60.8566,-216.237 76.969,-185.7644 99.5,-167 126.5873,-144.441 162.8141,-129.3242 193.7456,-119.6173"/>
<polygon fill="#9a32cd" stroke="#9a32cd" points="48.7814,-234.8271 48.1099,-245.4007 55.2286,-237.5537 48.7814,-234.8271"/>
<text text-anchor="middle" x="115" y="-174.5" font-family="Helvetica,sans-Serif" font-size="10.00" fill="#000000"> mutex</text>
</g>
<!-- Node7&#45;&gt;Node4 -->
<g id="edge7" class="edge">
<title>Node7&#45;&gt;Node4</title>
<path fill="none" stroke="#9a32cd" stroke-dasharray="5,2" d="M66.5537,-239.5722C81.3267,-229.4189 101.3261,-216.019 119.5,-205 130.0374,-198.611 142.1141,-191.9524 151.8697,-186.7322"/>
<polygon fill="#9a32cd" stroke="#9a32cd" points="64.3269,-236.8568 58.0939,-245.4242 68.3092,-242.6137 64.3269,-236.8568"/>
<text text-anchor="middle" x="135" y="-213.5" font-family="Helvetica,sans-Serif" font-size="10.00" fill="#000000"> mutex</text>
</g>
<!-- Node8 -->
<g id="node8" class="node">
<title>Node8</title>
<polygon fill="#ffffff" stroke="#bfbfbf" points="262.5,-245.5 262.5,-264.5 306.5,-264.5 306.5,-245.5 262.5,-245.5"/>
<text text-anchor="middle" x="284.5" y="-252.5" font-family="Helvetica,sans-Serif" font-size="10.00" fill="#000000">sem_t</text>
</g>
<!-- Node8&#45;&gt;Node3 -->
<g id="edge10" class="edge">
<title>Node8&#45;&gt;Node3</title>
<path fill="none" stroke="#9a32cd" stroke-dasharray="5,2" d="M280.9605,-235.2704C275.5105,-204.8917 265.1789,-147.303 260.25,-119.8289"/>
<polygon fill="#9a32cd" stroke="#9a32cd" points="277.5175,-235.9005 282.7285,-245.1253 284.4075,-234.6643 277.5175,-235.9005"/>
<text text-anchor="middle" x="317.5" y="-174.5" font-family="Helvetica,sans-Serif" font-size="10.00" fill="#000000"> mutexForEndInform</text>
</g>
<!-- Node8&#45;&gt;Node4 -->
<g id="edge8" class="edge">
<title>Node8&#45;&gt;Node4</title>
<path fill="none" stroke="#9a32cd" stroke-dasharray="5,2" d="M252.472,-244.5022C232.7333,-237.8593 210.4567,-229.9812 206.5,-227 192.1478,-216.1862 181.129,-198.0323 175.2494,-186.8293"/>
<polygon fill="#9a32cd" stroke="#9a32cd" points="251.565,-247.8892 262.1587,-247.7338 253.7803,-241.249 251.565,-247.8892"/>
<text text-anchor="middle" x="232.5" y="-213.5" font-family="Helvetica,sans-Serif" font-size="10.00" fill="#000000"> semaphore</text>
</g>
<!-- Node9 -->
<g id="node9" class="node">
<title>Node9</title>
<polygon fill="#ffffff" stroke="#bfbfbf" points="381,-167.5 381,-186.5 410,-186.5 410,-167.5 381,-167.5"/>
<text text-anchor="middle" x="395.5" y="-174.5" font-family="Helvetica,sans-Serif" font-size="10.00" fill="#000000">int</text>
</g>
<!-- Node9&#45;&gt;Node3 -->
<g id="edge11" class="edge">
<title>Node9&#45;&gt;Node3</title>
<path fill="none" stroke="#9a32cd" stroke-dasharray="5,2" d="M371.9834,-164.6453C348.2505,-152.1769 311.5721,-132.9074 286.1539,-119.5537"/>
<polygon fill="#9a32cd" stroke="#9a32cd" points="370.5119,-167.8258 380.9924,-169.3783 373.7676,-161.6289 370.5119,-167.8258"/>
<text text-anchor="middle" x="388.5" y="-141" font-family="Helvetica,sans-Serif" font-size="10.00" fill="#000000"> remainingGOsCounter</text>
</g>
</g>
</svg>
