<?xml version="1.0" encoding="UTF-8" standalone="no"?>
<!DOCTYPE svg PUBLIC "-//W3C//DTD SVG 1.1//EN"
 "http://www.w3.org/Graphics/SVG/1.1/DTD/svg11.dtd">
<!-- Generated by graphviz version 2.38.0 (20140413.2041)
 -->
<!-- Title: Button Pages: 1 -->
<svg width="639pt" height="397pt"
 viewBox="0.00 0.00 638.50 397.00" xmlns="http://www.w3.org/2000/svg" xmlns:xlink="http://www.w3.org/1999/xlink">
<g id="graph0" class="graph" transform="scale(1 1) rotate(0) translate(4 393)">
<title>Button</title>
<polygon fill="white" stroke="none" points="-4,4 -4,-393 634.5,-393 634.5,4 -4,4"/>
<!-- Node2 -->
<g id="node1" class="node"><title>Node2</title>
<polygon fill="#bfbfbf" stroke="black" points="388.5,-0.5 388.5,-19.5 433.5,-19.5 433.5,-0.5 388.5,-0.5"/>
<text text-anchor="middle" x="411" y="-7.5" font-family="Helvetica,sans-Serif" font-size="10.00">Button</text>
</g>
<!-- Node3 -->
<g id="node2" class="node"><title>Node3</title>
<g id="a_node2"><a xlink:href="classComponent.html" target="_top" xlink:title="Modela os componentes. ">
<polygon fill="white" stroke="black" points="268.5,-111.5 268.5,-130.5 335.5,-130.5 335.5,-111.5 268.5,-111.5"/>
<text text-anchor="middle" x="302" y="-118.5" font-family="Helvetica,sans-Serif" font-size="10.00">Component</text>
</a>
</g>
</g>
<!-- Node3&#45;&gt;Node2 -->
<g id="edge1" class="edge"><title>Node3&#45;&gt;Node2</title>
<path fill="none" stroke="midnightblue" d="M314.606,-103.183C328.042,-85.8324 350.448,-58.487 373,-38 380.548,-31.1433 389.871,-24.4955 397.394,-19.5119"/>
<polygon fill="midnightblue" stroke="midnightblue" points="311.729,-101.184 308.444,-111.257 317.293,-105.431 311.729,-101.184"/>
</g>
<!-- Node4 -->
<g id="node3" class="node"><title>Node4</title>
<g id="a_node3"><a xlink:href="classGameObject.html" target="_top" xlink:title="Classe virtual que especifica o funcionamento de um GameObject. ">
<polygon fill="white" stroke="black" points="172.5,-179.5 172.5,-198.5 243.5,-198.5 243.5,-179.5 172.5,-179.5"/>
<text text-anchor="middle" x="208" y="-186.5" font-family="Helvetica,sans-Serif" font-size="10.00">GameObject</text>
</a>
</g>
</g>
<!-- Node4&#45;&gt;Node3 -->
<g id="edge2" class="edge"><title>Node4&#45;&gt;Node3</title>
<path fill="none" stroke="#9a32cd" stroke-dasharray="5,2" d="M217.882,-170.757C222.847,-163.284 229.423,-154.912 237,-149 247.309,-140.957 260.355,-134.921 272.05,-130.619"/>
<polygon fill="#9a32cd" stroke="#9a32cd" points="214.768,-169.138 212.5,-179.488 220.726,-172.812 214.768,-169.138"/>
<text text-anchor="middle" x="262.5" y="-152" font-family="Helvetica,sans-Serif" font-size="10.00"> associated</text>
</g>
<!-- Node5 -->
<g id="node4" class="node"><title>Node5</title>
<polygon fill="white" stroke="#bfbfbf" points="56,-269.5 56,-288.5 172,-288.5 172,-269.5 56,-269.5"/>
<text text-anchor="middle" x="114" y="-276.5" font-family="Helvetica,sans-Serif" font-size="10.00">vector&lt; Component *&gt;</text>
</g>
<!-- Node5&#45;&gt;Node4 -->
<g id="edge3" class="edge"><title>Node5&#45;&gt;Node4</title>
<path fill="none" stroke="#9a32cd" stroke-dasharray="5,2" d="M116.977,-259.65C119.98,-246.53 125.838,-229.27 137,-218 146.511,-208.398 159.714,-202.002 172.158,-197.782"/>
<polygon fill="#9a32cd" stroke="#9a32cd" points="113.54,-258.991 115.073,-269.474 120.412,-260.323 113.54,-258.991"/>
<text text-anchor="middle" x="165.5" y="-232" font-family="Helvetica,sans-Serif" font-size="10.00"> components</text>
</g>
<!-- Node6 -->
<g id="node5" class="node"><title>Node6</title>
<g id="a_node5"><a xlink:href="classRect.html" target="_top" xlink:title="Classe que modela um rect. ">
<polygon fill="white" stroke="black" points="0,-269.5 0,-288.5 38,-288.5 38,-269.5 0,-269.5"/>
<text text-anchor="middle" x="19" y="-276.5" font-family="Helvetica,sans-Serif" font-size="10.00">Rect</text>
</a>
</g>
</g>
<!-- Node6&#45;&gt;Node4 -->
<g id="edge4" class="edge"><title>Node6&#45;&gt;Node4</title>
<path fill="none" stroke="#9a32cd" stroke-dasharray="5,2" d="M35.1324,-262.365C50.0406,-248.748 73.3922,-229.445 97,-218 120.875,-206.426 150.035,-199.309 172.475,-195.148"/>
<polygon fill="#9a32cd" stroke="#9a32cd" points="32.6779,-259.868 27.7708,-269.258 37.4625,-264.978 32.6779,-259.868"/>
<text text-anchor="middle" x="106.5" y="-232" font-family="Helvetica,sans-Serif" font-size="10.00"> box</text>
</g>
<!-- Node7 -->
<g id="node6" class="node"><title>Node7</title>
<polygon fill="white" stroke="#bfbfbf" points="136.5,-369.5 136.5,-388.5 171.5,-388.5 171.5,-369.5 136.5,-369.5"/>
<text text-anchor="middle" x="154" y="-376.5" font-family="Helvetica,sans-Serif" font-size="10.00">float</text>
</g>
<!-- Node7&#45;&gt;Node4 -->
<g id="edge6" class="edge"><title>Node7&#45;&gt;Node4</title>
<path fill="none" stroke="#9a32cd" stroke-dasharray="5,2" d="M160.269,-359.7C168.565,-335.139 183.38,-290.076 194,-251 199.015,-232.546 203.752,-210.634 206.222,-198.741"/>
<polygon fill="#9a32cd" stroke="#9a32cd" points="156.86,-358.852 156.954,-369.446 163.487,-361.106 156.86,-358.852"/>
<text text-anchor="middle" x="207" y="-276.5" font-family="Helvetica,sans-Serif" font-size="10.00"> rotation</text>
</g>
<!-- Node7&#45;&gt;Node6 -->
<g id="edge5" class="edge"><title>Node7&#45;&gt;Node6</title>
<path fill="none" stroke="#9a32cd" stroke-dasharray="5,2" d="M133.575,-363.173C104.93,-342.379 53.7576,-305.231 30.7607,-288.537"/>
<polygon fill="#9a32cd" stroke="#9a32cd" points="131.871,-366.261 142.02,-369.303 135.983,-360.596 131.871,-366.261"/>
<text text-anchor="middle" x="120.5" y="-343" font-family="Helvetica,sans-Serif" font-size="10.00"> w</text>
<text text-anchor="middle" x="120.5" y="-332" font-family="Helvetica,sans-Serif" font-size="10.00">x</text>
<text text-anchor="middle" x="120.5" y="-321" font-family="Helvetica,sans-Serif" font-size="10.00">h</text>
<text text-anchor="middle" x="120.5" y="-310" font-family="Helvetica,sans-Serif" font-size="10.00">y</text>
</g>
<!-- Node8 -->
<g id="node7" class="node"><title>Node8</title>
<polygon fill="white" stroke="#bfbfbf" points="284.5,-269.5 284.5,-288.5 319.5,-288.5 319.5,-269.5 284.5,-269.5"/>
<text text-anchor="middle" x="302" y="-276.5" font-family="Helvetica,sans-Serif" font-size="10.00">bool</text>
</g>
<!-- Node8&#45;&gt;Node2 -->
<g id="edge13" class="edge"><title>Node8&#45;&gt;Node2</title>
<path fill="none" stroke="#9a32cd" stroke-dasharray="5,2" d="M317.898,-261.911C331.743,-247.033 351.37,-223.699 363,-200 394.767,-135.265 406.901,-47.413 410.081,-19.7265"/>
<polygon fill="#9a32cd" stroke="#9a32cd" points="315.261,-259.606 310.889,-269.256 320.325,-264.438 315.261,-259.606"/>
<text text-anchor="middle" x="436" y="-152" font-family="Helvetica,sans-Serif" font-size="10.00"> interactOnBoundingBox</text>
</g>
<!-- Node8&#45;&gt;Node3 -->
<g id="edge8" class="edge"><title>Node8&#45;&gt;Node3</title>
<path fill="none" stroke="#9a32cd" stroke-dasharray="5,2" d="M302,-258.735C302,-224.691 302,-155.18 302,-130.737"/>
<polygon fill="#9a32cd" stroke="#9a32cd" points="298.5,-259.166 302,-269.166 305.5,-259.166 298.5,-259.166"/>
<text text-anchor="middle" x="330.5" y="-192" font-family="Helvetica,sans-Serif" font-size="10.00"> newEnabled</text>
<text text-anchor="middle" x="330.5" y="-181" font-family="Helvetica,sans-Serif" font-size="10.00">enabled</text>
</g>
<!-- Node8&#45;&gt;Node4 -->
<g id="edge7" class="edge"><title>Node8&#45;&gt;Node4</title>
<path fill="none" stroke="#9a32cd" stroke-dasharray="5,2" d="M274.59,-269.901C263.521,-265.618 251.214,-259.457 242,-251 233.514,-243.212 218.896,-213.383 211.922,-198.52"/>
<polygon fill="#9a32cd" stroke="#9a32cd" points="273.689,-273.295 284.283,-273.318 276.016,-266.693 273.689,-273.295"/>
<text text-anchor="middle" x="265" y="-243" font-family="Helvetica,sans-Serif" font-size="10.00"> dead</text>
<text text-anchor="middle" x="265" y="-232" font-family="Helvetica,sans-Serif" font-size="10.00">active</text>
<text text-anchor="middle" x="265" y="-221" font-family="Helvetica,sans-Serif" font-size="10.00">newActive</text>
</g>
<!-- Node9 -->
<g id="node8" class="node"><title>Node9</title>
<polygon fill="white" stroke="#bfbfbf" points="415,-111.5 415,-130.5 455,-130.5 455,-111.5 415,-111.5"/>
<text text-anchor="middle" x="435" y="-118.5" font-family="Helvetica,sans-Serif" font-size="10.00">State</text>
</g>
<!-- Node9&#45;&gt;Node2 -->
<g id="edge9" class="edge"><title>Node9&#45;&gt;Node2</title>
<path fill="none" stroke="#9a32cd" stroke-dasharray="5,2" d="M430.93,-101.518C425.674,-77.6424 416.74,-37.0688 412.874,-19.5133"/>
<polygon fill="#9a32cd" stroke="#9a32cd" points="427.548,-102.434 433.117,-111.447 434.384,-100.928 427.548,-102.434"/>
<text text-anchor="middle" x="455.5" y="-63" font-family="Helvetica,sans-Serif" font-size="10.00"> actualState</text>
</g>
<!-- Node10 -->
<g id="node9" class="node"><title>Node10</title>
<g id="a_node9"><a xlink:href="structButton_1_1Callback.html" target="_top" xlink:title="Button::Callback">
<polygon fill="white" stroke="black" points="473.5,-111.5 473.5,-130.5 562.5,-130.5 562.5,-111.5 473.5,-111.5"/>
<text text-anchor="middle" x="518" y="-118.5" font-family="Helvetica,sans-Serif" font-size="10.00">Button::Callback</text>
</a>
</g>
</g>
<!-- Node10&#45;&gt;Node2 -->
<g id="edge10" class="edge"><title>Node10&#45;&gt;Node2</title>
<path fill="none" stroke="#9a32cd" stroke-dasharray="5,2" d="M515.253,-101.192C511.62,-82.7656 503.498,-55.0403 486,-38 471.822,-24.1934 450.082,-17.3866 433.651,-14.0676"/>
<polygon fill="#9a32cd" stroke="#9a32cd" points="511.844,-102.017 516.979,-111.285 518.743,-100.838 511.844,-102.017"/>
<text text-anchor="middle" x="537.5" y="-85" font-family="Helvetica,sans-Serif" font-size="10.00"> pressed</text>
<text text-anchor="middle" x="537.5" y="-74" font-family="Helvetica,sans-Serif" font-size="10.00">highlighted</text>
<text text-anchor="middle" x="537.5" y="-63" font-family="Helvetica,sans-Serif" font-size="10.00">released</text>
<text text-anchor="middle" x="537.5" y="-52" font-family="Helvetica,sans-Serif" font-size="10.00">disabled</text>
<text text-anchor="middle" x="537.5" y="-41" font-family="Helvetica,sans-Serif" font-size="10.00">enabled</text>
</g>
<!-- Node11 -->
<g id="node10" class="node"><title>Node11</title>
<polygon fill="white" stroke="#bfbfbf" points="555.5,-179.5 555.5,-198.5 630.5,-198.5 630.5,-179.5 555.5,-179.5"/>
<text text-anchor="middle" x="593" y="-186.5" font-family="Helvetica,sans-Serif" font-size="10.00">void(*)(void *)</text>
</g>
<!-- Node11&#45;&gt;Node10 -->
<g id="edge11" class="edge"><title>Node11&#45;&gt;Node10</title>
<path fill="none" stroke="#9a32cd" stroke-dasharray="5,2" d="M575.537,-172.459C567.474,-165.299 557.765,-156.701 549,-149 542.03,-142.876 534.145,-136.009 528.071,-130.733"/>
<polygon fill="#9a32cd" stroke="#9a32cd" points="573.436,-175.274 583.235,-179.301 578.086,-170.042 573.436,-175.274"/>
<text text-anchor="middle" x="592.5" y="-152" font-family="Helvetica,sans-Serif" font-size="10.00"> callbackFunc</text>
</g>
<!-- Node12 -->
<g id="node11" class="node"><title>Node12</title>
<polygon fill="white" stroke="#bfbfbf" points="496.5,-179.5 496.5,-198.5 537.5,-198.5 537.5,-179.5 496.5,-179.5"/>
<text text-anchor="middle" x="517" y="-186.5" font-family="Helvetica,sans-Serif" font-size="10.00">void *</text>
</g>
<!-- Node12&#45;&gt;Node10 -->
<g id="edge12" class="edge"><title>Node12&#45;&gt;Node10</title>
<path fill="none" stroke="#9a32cd" stroke-dasharray="5,2" d="M517.287,-169.041C517.478,-156.472 517.719,-140.563 517.866,-130.841"/>
<polygon fill="#9a32cd" stroke="#9a32cd" points="513.783,-169.32 517.131,-179.372 520.782,-169.426 513.783,-169.32"/>
<text text-anchor="middle" x="531.5" y="-152" font-family="Helvetica,sans-Serif" font-size="10.00"> caller</text>
</g>
</g>
</svg>
