<?xml version="1.0" encoding="UTF-8" standalone="no"?>
<!DOCTYPE svg PUBLIC "-//W3C//DTD SVG 1.1//EN"
 "http://www.w3.org/Graphics/SVG/1.1/DTD/svg11.dtd">
<!-- Generated by graphviz version 2.38.0 (20140413.2041)
 -->
<!-- Title: Animation Pages: 1 -->
<svg width="972pt" height="319pt"
 viewBox="0.00 0.00 971.97 319.00" xmlns="http://www.w3.org/2000/svg" xmlns:xlink="http://www.w3.org/1999/xlink">
<g id="graph0" class="graph" transform="scale(1 1) rotate(0) translate(4 315)">
<title>Animation</title>
<polygon fill="white" stroke="none" points="-4,4 -4,-315 967.969,-315 967.969,4 -4,4"/>
<!-- Node2 -->
<g id="node1" class="node"><title>Node2</title>
<polygon fill="#bfbfbf" stroke="black" points="277.969,-0.5 277.969,-19.5 337.969,-19.5 337.969,-0.5 277.969,-0.5"/>
<text text-anchor="middle" x="307.969" y="-7.5" font-family="Helvetica,sans-Serif" font-size="10.00">Animation</text>
</g>
<!-- Node3 -->
<g id="node2" class="node"><title>Node3</title>
<g id="a_node2"><a xlink:href="classGameObject.html" target="_top" xlink:title="Classe virtual que especifica o funcionamento de um GameObject. ">
<polygon fill="white" stroke="black" points="152.469,-67.5 152.469,-86.5 223.469,-86.5 223.469,-67.5 152.469,-67.5"/>
<text text-anchor="middle" x="187.969" y="-74.5" font-family="Helvetica,sans-Serif" font-size="10.00">GameObject</text>
</a>
</g>
</g>
<!-- Node3&#45;&gt;Node2 -->
<g id="edge1" class="edge"><title>Node3&#45;&gt;Node2</title>
<path fill="none" stroke="midnightblue" d="M212.968,-62.4586C236.758,-49.5727 271.834,-30.5727 292.041,-19.6273"/>
<polygon fill="midnightblue" stroke="midnightblue" points="211.278,-59.3934 204.152,-67.2338 214.612,-65.5485 211.278,-59.3934"/>
</g>
<!-- Node4 -->
<g id="node3" class="node"><title>Node4</title>
<polygon fill="white" stroke="#bfbfbf" points="172.969,-179.5 172.969,-198.5 288.969,-198.5 288.969,-179.5 172.969,-179.5"/>
<text text-anchor="middle" x="230.969" y="-186.5" font-family="Helvetica,sans-Serif" font-size="10.00">vector&lt; Component *&gt;</text>
</g>
<!-- Node4&#45;&gt;Node3 -->
<g id="edge2" class="edge"><title>Node4&#45;&gt;Node3</title>
<path fill="none" stroke="#9a32cd" stroke-dasharray="5,2" d="M208.639,-173.133C200.933,-166.711 193.183,-158.482 188.969,-149 179.756,-128.272 183.27,-100.662 185.975,-86.7708"/>
<polygon fill="#9a32cd" stroke="#9a32cd" points="206.74,-176.087 216.814,-179.368 210.985,-170.521 206.74,-176.087"/>
<text text-anchor="middle" x="217.469" y="-124.5" font-family="Helvetica,sans-Serif" font-size="10.00"> components</text>
</g>
<!-- Node5 -->
<g id="node4" class="node"><title>Node5</title>
<g id="a_node4"><a xlink:href="classRect.html" target="_top" xlink:title="Classe que modela um rect. ">
<polygon fill="white" stroke="black" points="44.9686,-179.5 44.9686,-198.5 82.9686,-198.5 82.9686,-179.5 44.9686,-179.5"/>
<text text-anchor="middle" x="63.9686" y="-186.5" font-family="Helvetica,sans-Serif" font-size="10.00">Rect</text>
</a>
</g>
</g>
<!-- Node5&#45;&gt;Node3 -->
<g id="edge3" class="edge"><title>Node5&#45;&gt;Node3</title>
<path fill="none" stroke="#9a32cd" stroke-dasharray="5,2" d="M63.7898,-169.348C64.6471,-150.569 68.951,-122.012 85.9686,-105 103.328,-87.6459 130.461,-81.0618 152.38,-78.7275"/>
<polygon fill="#9a32cd" stroke="#9a32cd" points="60.2904,-169.291 63.6158,-179.351 67.2893,-169.413 60.2904,-169.291"/>
<text text-anchor="middle" x="95.4686" y="-124.5" font-family="Helvetica,sans-Serif" font-size="10.00"> box</text>
</g>
<!-- Node6 -->
<g id="node5" class="node"><title>Node6</title>
<polygon fill="white" stroke="#bfbfbf" points="101.469,-291.5 101.469,-310.5 136.469,-310.5 136.469,-291.5 101.469,-291.5"/>
<text text-anchor="middle" x="118.969" y="-298.5" font-family="Helvetica,sans-Serif" font-size="10.00">float</text>
</g>
<!-- Node6&#45;&gt;Node2 -->
<g id="edge16" class="edge"><title>Node6&#45;&gt;Node2</title>
<path fill="none" stroke="#9a32cd" stroke-dasharray="5,2" d="M92.2763,-288.334C84.7984,-284.222 77.058,-279.08 70.9686,-273 15.7499,-217.866 -25.8551,-168.159 19.9686,-105 80.5067,-21.5599 217.166,-10.7864 277.9,-10.3198"/>
<polygon fill="#9a32cd" stroke="#9a32cd" points="90.9612,-291.592 101.464,-292.985 94.1228,-285.346 90.9612,-291.592"/>
<text text-anchor="middle" x="41.4686" y="-124.5" font-family="Helvetica,sans-Serif" font-size="10.00"> timeLimit</text>
</g>
<!-- Node6&#45;&gt;Node3 -->
<g id="edge5" class="edge"><title>Node6&#45;&gt;Node3</title>
<path fill="none" stroke="#9a32cd" stroke-dasharray="5,2" d="M117.235,-281.204C115.471,-254.882 114.628,-205.902 127.969,-167 139.212,-134.214 165.791,-102.088 179.486,-86.9699"/>
<polygon fill="#9a32cd" stroke="#9a32cd" points="113.756,-281.603 118.036,-291.295 120.734,-281.049 113.756,-281.603"/>
<text text-anchor="middle" x="145.969" y="-186.5" font-family="Helvetica,sans-Serif" font-size="10.00"> rotation</text>
</g>
<!-- Node6&#45;&gt;Node5 -->
<g id="edge4" class="edge"><title>Node6&#45;&gt;Node5</title>
<path fill="none" stroke="#9a32cd" stroke-dasharray="5,2" d="M102.205,-283.964C99.1962,-280.542 96.2858,-276.806 93.9686,-273 78.7496,-248.003 69.5405,-214.104 65.8452,-198.501"/>
<polygon fill="#9a32cd" stroke="#9a32cd" points="99.7334,-286.445 109.169,-291.264 104.798,-281.613 99.7334,-286.445"/>
<text text-anchor="middle" x="99.4686" y="-265" font-family="Helvetica,sans-Serif" font-size="10.00"> w</text>
<text text-anchor="middle" x="99.4686" y="-254" font-family="Helvetica,sans-Serif" font-size="10.00">x</text>
<text text-anchor="middle" x="99.4686" y="-243" font-family="Helvetica,sans-Serif" font-size="10.00">h</text>
<text text-anchor="middle" x="99.4686" y="-232" font-family="Helvetica,sans-Serif" font-size="10.00">y</text>
</g>
<!-- Node8 -->
<g id="node7" class="node"><title>Node8</title>
<g id="a_node7"><a xlink:href="classSprite.html" target="_top" xlink:title="Classe que modela uma sprite. ">
<polygon fill="white" stroke="black" points="493.969,-67.5 493.969,-86.5 535.969,-86.5 535.969,-67.5 493.969,-67.5"/>
<text text-anchor="middle" x="514.969" y="-74.5" font-family="Helvetica,sans-Serif" font-size="10.00">Sprite</text>
</a>
</g>
</g>
<!-- Node6&#45;&gt;Node8 -->
<g id="edge8" class="edge"><title>Node6&#45;&gt;Node8</title>
<path fill="none" stroke="#9a32cd" stroke-dasharray="5,2" d="M146.511,-294.2C192.283,-283.574 285.448,-257.673 350.969,-211 371.779,-196.176 369.241,-184.381 387.969,-167 424.674,-132.934 475.084,-101.388 499.908,-86.6828"/>
<polygon fill="#9a32cd" stroke="#9a32cd" points="145.699,-290.795 136.713,-296.407 147.238,-297.624 145.699,-290.795"/>
<text text-anchor="middle" x="415.469" y="-203" font-family="Helvetica,sans-Serif" font-size="10.00"> scaleY</text>
<text text-anchor="middle" x="415.469" y="-192" font-family="Helvetica,sans-Serif" font-size="10.00">frameTime</text>
<text text-anchor="middle" x="415.469" y="-181" font-family="Helvetica,sans-Serif" font-size="10.00">timeElapsed</text>
<text text-anchor="middle" x="415.469" y="-170" font-family="Helvetica,sans-Serif" font-size="10.00">scaleX</text>
</g>
<!-- Node15 -->
<g id="node14" class="node"><title>Node15</title>
<g id="a_node14"><a xlink:href="classTimer.html" target="_top" xlink:title="Temporizador. ">
<polygon fill="white" stroke="black" points="833.469,-117.5 833.469,-136.5 874.469,-136.5 874.469,-117.5 833.469,-117.5"/>
<text text-anchor="middle" x="853.969" y="-124.5" font-family="Helvetica,sans-Serif" font-size="10.00">Timer</text>
</a>
</g>
</g>
<!-- Node6&#45;&gt;Node15 -->
<g id="edge19" class="edge"><title>Node6&#45;&gt;Node15</title>
<path fill="none" stroke="#9a32cd" stroke-dasharray="5,2" d="M146.865,-297.633C196.451,-293.34 303.173,-283.718 392.969,-273 589.938,-249.491 688.823,-345.132 834.969,-211 856.206,-191.509 856.114,-153.553 854.864,-136.572"/>
<polygon fill="#9a32cd" stroke="#9a32cd" points="146.29,-294.169 136.627,-298.514 146.89,-301.144 146.29,-294.169"/>
<text text-anchor="middle" x="821.969" y="-248.5" font-family="Helvetica,sans-Serif" font-size="10.00"> time</text>
</g>
<!-- Node7 -->
<g id="node6" class="node"><title>Node7</title>
<polygon fill="white" stroke="#bfbfbf" points="307.469,-179.5 307.469,-198.5 342.469,-198.5 342.469,-179.5 307.469,-179.5"/>
<text text-anchor="middle" x="324.969" y="-186.5" font-family="Helvetica,sans-Serif" font-size="10.00">bool</text>
</g>
<!-- Node7&#45;&gt;Node2 -->
<g id="edge17" class="edge"><title>Node7&#45;&gt;Node2</title>
<path fill="none" stroke="#9a32cd" stroke-dasharray="5,2" d="M323.178,-169.352C319.551,-131.597 311.461,-47.3648 308.82,-19.8684"/>
<polygon fill="#9a32cd" stroke="#9a32cd" points="319.709,-169.843 324.149,-179.463 326.676,-169.174 319.709,-169.843"/>
<text text-anchor="middle" x="346.469" y="-74.5" font-family="Helvetica,sans-Serif" font-size="10.00"> oneTimeOnly</text>
</g>
<!-- Node7&#45;&gt;Node3 -->
<g id="edge6" class="edge"><title>Node7&#45;&gt;Node3</title>
<path fill="none" stroke="#9a32cd" stroke-dasharray="5,2" d="M306.424,-173.166C303.626,-171.048 300.746,-168.934 297.969,-167 285.52,-158.331 279.292,-160.115 268.969,-149 253.952,-132.832 261.926,-120.24 245.969,-105 237.454,-96.8685 226.047,-90.8418 215.602,-86.571"/>
<polygon fill="#9a32cd" stroke="#9a32cd" points="304.346,-175.984 314.391,-179.355 308.641,-170.456 304.346,-175.984"/>
<text text-anchor="middle" x="281.469" y="-124.5" font-family="Helvetica,sans-Serif" font-size="10.00"> dead</text>
</g>
<!-- Node7&#45;&gt;Node8 -->
<g id="edge12" class="edge"><title>Node7&#45;&gt;Node8</title>
<path fill="none" stroke="#9a32cd" stroke-dasharray="5,2" d="M323.191,-169.385C322.492,-150.403 324.7,-121.472 341.969,-105 363.415,-84.543 452.566,-79.5851 493.835,-78.3839"/>
<polygon fill="#9a32cd" stroke="#9a32cd" points="319.706,-169.738 323.869,-179.48 326.691,-169.268 319.706,-169.738"/>
<text text-anchor="middle" x="370.969" y="-124.5" font-family="Helvetica,sans-Serif" font-size="10.00"> highlightable</text>
</g>
<!-- Node8&#45;&gt;Node2 -->
<g id="edge7" class="edge"><title>Node8&#45;&gt;Node2</title>
<path fill="none" stroke="#9a32cd" stroke-dasharray="5,2" d="M483.997,-66.2745C443.579,-53.583 373.493,-31.5753 335.078,-19.5127"/>
<polygon fill="#9a32cd" stroke="#9a32cd" points="483.006,-69.632 493.596,-69.2887 485.104,-62.9535 483.006,-69.632"/>
<text text-anchor="middle" x="430.969" y="-41" font-family="Helvetica,sans-Serif" font-size="10.00"> sp</text>
</g>
<!-- Node9 -->
<g id="node8" class="node"><title>Node9</title>
<polygon fill="white" stroke="#bfbfbf" points="451.969,-179.5 451.969,-198.5 513.969,-198.5 513.969,-179.5 451.969,-179.5"/>
<text text-anchor="middle" x="482.969" y="-186.5" font-family="Helvetica,sans-Serif" font-size="10.00">SDL_Rect</text>
</g>
<!-- Node9&#45;&gt;Node8 -->
<g id="edge9" class="edge"><title>Node9&#45;&gt;Node8</title>
<path fill="none" stroke="#9a32cd" stroke-dasharray="5,2" d="M479.338,-169.204C476.884,-151.734 475.582,-125.411 484.969,-105 488.423,-97.4879 495.067,-91.1645 501.226,-86.53"/>
<polygon fill="#9a32cd" stroke="#9a32cd" points="475.918,-169.969 481.017,-179.256 482.822,-168.816 475.918,-169.969"/>
<text text-anchor="middle" x="504.969" y="-124.5" font-family="Helvetica,sans-Serif" font-size="10.00"> clipRect</text>
</g>
<!-- Node10 -->
<g id="node9" class="node"><title>Node10</title>
<polygon fill="white" stroke="#bfbfbf" points="532.469,-179.5 532.469,-198.5 561.469,-198.5 561.469,-179.5 532.469,-179.5"/>
<text text-anchor="middle" x="546.969" y="-186.5" font-family="Helvetica,sans-Serif" font-size="10.00">int</text>
</g>
<!-- Node10&#45;&gt;Node8 -->
<g id="edge10" class="edge"><title>Node10&#45;&gt;Node8</title>
<path fill="none" stroke="#9a32cd" stroke-dasharray="5,2" d="M542.595,-169.465C538.475,-152.548 531.914,-126.916 524.969,-105 523.036,-98.9007 520.536,-92.1507 518.519,-86.9255"/>
<polygon fill="#9a32cd" stroke="#9a32cd" points="539.193,-170.289 544.929,-179.198 546,-168.657 539.193,-170.289"/>
<text text-anchor="middle" x="566.969" y="-141" font-family="Helvetica,sans-Serif" font-size="10.00"> width</text>
<text text-anchor="middle" x="566.969" y="-130" font-family="Helvetica,sans-Serif" font-size="10.00">currentFrame</text>
<text text-anchor="middle" x="566.969" y="-119" font-family="Helvetica,sans-Serif" font-size="10.00">height</text>
<text text-anchor="middle" x="566.969" y="-108" font-family="Helvetica,sans-Serif" font-size="10.00">frameCount</text>
</g>
<!-- Node11 -->
<g id="node10" class="node"><title>Node11</title>
<polygon fill="white" stroke="#bfbfbf" points="579.969,-179.5 579.969,-198.5 717.969,-198.5 717.969,-179.5 579.969,-179.5"/>
<text text-anchor="middle" x="648.969" y="-186.5" font-family="Helvetica,sans-Serif" font-size="10.00">shared_ptr&lt; SDL_Texture &gt;</text>
</g>
<!-- Node11&#45;&gt;Node8 -->
<g id="edge11" class="edge"><title>Node11&#45;&gt;Node8</title>
<path fill="none" stroke="#9a32cd" stroke-dasharray="5,2" d="M642.705,-169.8C635.324,-150.97 621.296,-121.984 599.969,-105 581.437,-90.242 554.695,-83.4802 536.176,-80.4281"/>
<polygon fill="#9a32cd" stroke="#9a32cd" points="639.467,-171.137 646.207,-179.312 646.036,-168.718 639.467,-171.137"/>
<text text-anchor="middle" x="649.969" y="-124.5" font-family="Helvetica,sans-Serif" font-size="10.00"> texture</text>
</g>
<!-- Node12 -->
<g id="node11" class="node"><title>Node12</title>
<polygon fill="white" stroke="#bfbfbf" points="735.969,-179.5 735.969,-198.5 825.969,-198.5 825.969,-179.5 735.969,-179.5"/>
<text text-anchor="middle" x="780.969" y="-186.5" font-family="Helvetica,sans-Serif" font-size="10.00">SDL_BlendMode</text>
</g>
<!-- Node12&#45;&gt;Node8 -->
<g id="edge13" class="edge"><title>Node12&#45;&gt;Node8</title>
<path fill="none" stroke="#9a32cd" stroke-dasharray="5,2" d="M765.192,-172.135C745.141,-152.977 708.591,-121.302 670.969,-105 625.572,-85.3292 566.891,-79.9721 536.049,-78.525"/>
<polygon fill="#9a32cd" stroke="#9a32cd" points="762.898,-174.787 772.5,-179.268 767.788,-169.778 762.898,-174.787"/>
<text text-anchor="middle" x="762.469" y="-124.5" font-family="Helvetica,sans-Serif" font-size="10.00"> blendMode</text>
</g>
<!-- Node13 -->
<g id="node12" class="node"><title>Node13</title>
<g id="a_node12"><a xlink:href="structColor.html" target="_top" xlink:title="Struct para armazenar informações de cor. ">
<polygon fill="white" stroke="black" points="881.969,-179.5 881.969,-198.5 921.969,-198.5 921.969,-179.5 881.969,-179.5"/>
<text text-anchor="middle" x="901.969" y="-186.5" font-family="Helvetica,sans-Serif" font-size="10.00">Color</text>
</a>
</g>
</g>
<!-- Node13&#45;&gt;Node8 -->
<g id="edge14" class="edge"><title>Node13&#45;&gt;Node8</title>
<path fill="none" stroke="#9a32cd" stroke-dasharray="5,2" d="M902.284,-169.2C901.492,-149.847 896.954,-120.409 877.969,-105 864.628,-94.1729 611.93,-82.2538 536.224,-78.9137"/>
<polygon fill="#9a32cd" stroke="#9a32cd" points="898.785,-169.288 902.398,-179.248 905.784,-169.209 898.785,-169.288"/>
<text text-anchor="middle" x="931.969" y="-124.5" font-family="Helvetica,sans-Serif" font-size="10.00"> colorMultiplier</text>
</g>
<!-- Node14 -->
<g id="node13" class="node"><title>Node14</title>
<polygon fill="white" stroke="#bfbfbf" points="863.469,-291.5 863.469,-310.5 940.469,-310.5 940.469,-291.5 863.469,-291.5"/>
<text text-anchor="middle" x="901.969" y="-298.5" font-family="Helvetica,sans-Serif" font-size="10.00">unsigned char</text>
</g>
<!-- Node14&#45;&gt;Node13 -->
<g id="edge15" class="edge"><title>Node14&#45;&gt;Node13</title>
<path fill="none" stroke="#9a32cd" stroke-dasharray="5,2" d="M901.969,-281.348C901.969,-257.254 901.969,-216.308 901.969,-198.591"/>
<polygon fill="#9a32cd" stroke="#9a32cd" points="898.469,-281.368 901.969,-291.368 905.469,-281.369 898.469,-281.368"/>
<text text-anchor="middle" x="906.469" y="-265" font-family="Helvetica,sans-Serif" font-size="10.00"> g</text>
<text text-anchor="middle" x="906.469" y="-254" font-family="Helvetica,sans-Serif" font-size="10.00">a</text>
<text text-anchor="middle" x="906.469" y="-243" font-family="Helvetica,sans-Serif" font-size="10.00">r</text>
<text text-anchor="middle" x="906.469" y="-232" font-family="Helvetica,sans-Serif" font-size="10.00">b</text>
</g>
<!-- Node15&#45;&gt;Node2 -->
<g id="edge18" class="edge"><title>Node15&#45;&gt;Node2</title>
<path fill="none" stroke="#9a32cd" stroke-dasharray="5,2" d="M823.707,-114.84C813.692,-111.392 802.432,-107.775 791.969,-105 622.562,-60.0785 414.531,-26.8832 338.027,-15.3925"/>
<polygon fill="#9a32cd" stroke="#9a32cd" points="822.638,-118.174 833.233,-118.195 824.963,-111.572 822.638,-118.174"/>
<text text-anchor="middle" x="739.969" y="-74.5" font-family="Helvetica,sans-Serif" font-size="10.00"> endTimer</text>
</g>
</g>
</svg>
