<?xml version="1.0" encoding="UTF-8" standalone="no"?>
<!DOCTYPE svg PUBLIC "-//W3C//DTD SVG 1.1//EN"
 "http://www.w3.org/Graphics/SVG/1.1/DTD/svg11.dtd">
<!-- Generated by graphviz version 2.38.0 (20140413.2041)
 -->
<!-- Title: Grouper Pages: 1 -->
<svg width="802pt" height="353pt"
 viewBox="0.00 0.00 801.50 353.00" xmlns="http://www.w3.org/2000/svg" xmlns:xlink="http://www.w3.org/1999/xlink">
<g id="graph0" class="graph" transform="scale(1 1) rotate(0) translate(4 349)">
<title>Grouper</title>
<polygon fill="white" stroke="none" points="-4,4 -4,-349 797.5,-349 797.5,4 -4,4"/>
<!-- Node2 -->
<g id="node1" class="node"><title>Node2</title>
<polygon fill="#bfbfbf" stroke="black" points="487.5,-0.5 487.5,-19.5 538.5,-19.5 538.5,-0.5 487.5,-0.5"/>
<text text-anchor="middle" x="513" y="-7.5" font-family="Helvetica,sans-Serif" font-size="10.00">Grouper</text>
</g>
<!-- Node3 -->
<g id="node2" class="node"><title>Node3</title>
<g id="a_node2"><a xlink:href="classComponent.html" target="_top" xlink:title="Modela os componentes. ">
<polygon fill="white" stroke="black" points="268.5,-67.5 268.5,-86.5 335.5,-86.5 335.5,-67.5 268.5,-67.5"/>
<text text-anchor="middle" x="302" y="-74.5" font-family="Helvetica,sans-Serif" font-size="10.00">Component</text>
</a>
</g>
</g>
<!-- Node3&#45;&gt;Node2 -->
<g id="edge1" class="edge"><title>Node3&#45;&gt;Node2</title>
<path fill="none" stroke="midnightblue" d="M323.712,-62.1645C337.379,-54.0251 355.657,-44.1537 373,-38 411.609,-24.3007 458.809,-17.0297 487.357,-13.601"/>
<polygon fill="midnightblue" stroke="midnightblue" points="321.762,-59.2542 315.054,-67.4557 325.412,-65.2269 321.762,-59.2542"/>
</g>
<!-- Node4 -->
<g id="node3" class="node"><title>Node4</title>
<g id="a_node3"><a xlink:href="classGameObject.html" target="_top" xlink:title="Classe virtual que especifica o funcionamento de um GameObject. ">
<polygon fill="white" stroke="black" points="172.5,-135.5 172.5,-154.5 243.5,-154.5 243.5,-135.5 172.5,-135.5"/>
<text text-anchor="middle" x="208" y="-142.5" font-family="Helvetica,sans-Serif" font-size="10.00">GameObject</text>
</a>
</g>
</g>
<!-- Node4&#45;&gt;Node3 -->
<g id="edge2" class="edge"><title>Node4&#45;&gt;Node3</title>
<path fill="none" stroke="#9a32cd" stroke-dasharray="5,2" d="M217.882,-126.757C222.847,-119.284 229.423,-110.912 237,-105 247.309,-96.9572 260.355,-90.9208 272.05,-86.6187"/>
<polygon fill="#9a32cd" stroke="#9a32cd" points="214.768,-125.138 212.5,-135.488 220.726,-128.812 214.768,-125.138"/>
<text text-anchor="middle" x="262.5" y="-108" font-family="Helvetica,sans-Serif" font-size="10.00"> associated</text>
</g>
<!-- Node5 -->
<g id="node4" class="node"><title>Node5</title>
<polygon fill="white" stroke="#bfbfbf" points="56,-225.5 56,-244.5 172,-244.5 172,-225.5 56,-225.5"/>
<text text-anchor="middle" x="114" y="-232.5" font-family="Helvetica,sans-Serif" font-size="10.00">vector&lt; Component *&gt;</text>
</g>
<!-- Node5&#45;&gt;Node4 -->
<g id="edge3" class="edge"><title>Node5&#45;&gt;Node4</title>
<path fill="none" stroke="#9a32cd" stroke-dasharray="5,2" d="M116.977,-215.65C119.98,-202.53 125.838,-185.27 137,-174 146.511,-164.398 159.714,-158.002 172.158,-153.782"/>
<polygon fill="#9a32cd" stroke="#9a32cd" points="113.54,-214.991 115.073,-225.474 120.412,-216.323 113.54,-214.991"/>
<text text-anchor="middle" x="165.5" y="-188" font-family="Helvetica,sans-Serif" font-size="10.00"> components</text>
</g>
<!-- Node6 -->
<g id="node5" class="node"><title>Node6</title>
<g id="a_node5"><a xlink:href="classRect.html" target="_top" xlink:title="Classe que modela um rect. ">
<polygon fill="white" stroke="black" points="0,-225.5 0,-244.5 38,-244.5 38,-225.5 0,-225.5"/>
<text text-anchor="middle" x="19" y="-232.5" font-family="Helvetica,sans-Serif" font-size="10.00">Rect</text>
</a>
</g>
</g>
<!-- Node6&#45;&gt;Node4 -->
<g id="edge4" class="edge"><title>Node6&#45;&gt;Node4</title>
<path fill="none" stroke="#9a32cd" stroke-dasharray="5,2" d="M35.1324,-218.365C50.0406,-204.748 73.3922,-185.445 97,-174 120.875,-162.426 150.035,-155.309 172.475,-151.148"/>
<polygon fill="#9a32cd" stroke="#9a32cd" points="32.6779,-215.868 27.7708,-225.258 37.4625,-220.978 32.6779,-215.868"/>
<text text-anchor="middle" x="106.5" y="-188" font-family="Helvetica,sans-Serif" font-size="10.00"> box</text>
</g>
<!-- Node7 -->
<g id="node6" class="node"><title>Node7</title>
<polygon fill="white" stroke="#bfbfbf" points="190.5,-325.5 190.5,-344.5 225.5,-344.5 225.5,-325.5 190.5,-325.5"/>
<text text-anchor="middle" x="208" y="-332.5" font-family="Helvetica,sans-Serif" font-size="10.00">float</text>
</g>
<!-- Node7&#45;&gt;Node4 -->
<g id="edge6" class="edge"><title>Node7&#45;&gt;Node4</title>
<path fill="none" stroke="#9a32cd" stroke-dasharray="5,2" d="M208,-315.244C208,-275.31 208,-183.197 208,-154.617"/>
<polygon fill="#9a32cd" stroke="#9a32cd" points="204.5,-315.433 208,-325.434 211.5,-315.434 204.5,-315.433"/>
<text text-anchor="middle" x="226" y="-232.5" font-family="Helvetica,sans-Serif" font-size="10.00"> rotation</text>
</g>
<!-- Node7&#45;&gt;Node6 -->
<g id="edge5" class="edge"><title>Node7&#45;&gt;Node6</title>
<path fill="none" stroke="#9a32cd" stroke-dasharray="5,2" d="M182.335,-320.692C142.916,-300.253 68.5709,-261.703 35.5385,-244.575"/>
<polygon fill="#9a32cd" stroke="#9a32cd" points="181.069,-323.978 191.558,-325.475 184.292,-317.764 181.069,-323.978"/>
<text text-anchor="middle" x="158.5" y="-299" font-family="Helvetica,sans-Serif" font-size="10.00"> w</text>
<text text-anchor="middle" x="158.5" y="-288" font-family="Helvetica,sans-Serif" font-size="10.00">x</text>
<text text-anchor="middle" x="158.5" y="-277" font-family="Helvetica,sans-Serif" font-size="10.00">h</text>
<text text-anchor="middle" x="158.5" y="-266" font-family="Helvetica,sans-Serif" font-size="10.00">y</text>
</g>
<!-- Node9 -->
<g id="node8" class="node"><title>Node9</title>
<g id="a_node8"><a xlink:href="classVec2.html" target="_top" xlink:title="Classe que modela um vetor(no sentido físico) ">
<polygon fill="white" stroke="black" points="342.5,-181 342.5,-200 381.5,-200 381.5,-181 342.5,-181"/>
<text text-anchor="middle" x="362" y="-188" font-family="Helvetica,sans-Serif" font-size="10.00">Vec2</text>
</a>
</g>
</g>
<!-- Node7&#45;&gt;Node9 -->
<g id="edge10" class="edge"><title>Node7&#45;&gt;Node9</title>
<path fill="none" stroke="#9a32cd" stroke-dasharray="5,2" d="M228.246,-319.28C250.873,-302.427 288.121,-273.461 317,-245 331.869,-230.347 347.071,-211.233 355.447,-200.267"/>
<polygon fill="#9a32cd" stroke="#9a32cd" points="226.029,-316.566 220.062,-325.321 230.186,-322.198 226.029,-316.566"/>
<text text-anchor="middle" x="301.5" y="-288" font-family="Helvetica,sans-Serif" font-size="10.00"> x</text>
<text text-anchor="middle" x="301.5" y="-277" font-family="Helvetica,sans-Serif" font-size="10.00">y</text>
</g>
<!-- Node8 -->
<g id="node7" class="node"><title>Node8</title>
<polygon fill="white" stroke="#bfbfbf" points="273.5,-225.5 273.5,-244.5 308.5,-244.5 308.5,-225.5 273.5,-225.5"/>
<text text-anchor="middle" x="291" y="-232.5" font-family="Helvetica,sans-Serif" font-size="10.00">bool</text>
</g>
<!-- Node8&#45;&gt;Node3 -->
<g id="edge8" class="edge"><title>Node8&#45;&gt;Node3</title>
<path fill="none" stroke="#9a32cd" stroke-dasharray="5,2" d="M292.327,-215.179C294.716,-181.298 299.653,-111.287 301.384,-86.7373"/>
<polygon fill="#9a32cd" stroke="#9a32cd" points="288.835,-214.944 291.623,-225.166 295.818,-215.437 288.835,-214.944"/>
<text text-anchor="middle" x="326.5" y="-148" font-family="Helvetica,sans-Serif" font-size="10.00"> newEnabled</text>
<text text-anchor="middle" x="326.5" y="-137" font-family="Helvetica,sans-Serif" font-size="10.00">enabled</text>
</g>
<!-- Node8&#45;&gt;Node4 -->
<g id="edge7" class="edge"><title>Node8&#45;&gt;Node4</title>
<path fill="none" stroke="#9a32cd" stroke-dasharray="5,2" d="M263.981,-222.58C256.268,-218.449 248.265,-213.235 242,-207 226.531,-191.606 216.006,-167.702 211.12,-154.866"/>
<polygon fill="#9a32cd" stroke="#9a32cd" points="262.592,-225.797 273.109,-227.077 265.686,-219.518 262.592,-225.797"/>
<text text-anchor="middle" x="265" y="-199" font-family="Helvetica,sans-Serif" font-size="10.00"> dead</text>
<text text-anchor="middle" x="265" y="-188" font-family="Helvetica,sans-Serif" font-size="10.00">active</text>
<text text-anchor="middle" x="265" y="-177" font-family="Helvetica,sans-Serif" font-size="10.00">newActive</text>
</g>
<!-- Node9&#45;&gt;Node2 -->
<g id="edge9" class="edge"><title>Node9&#45;&gt;Node2</title>
<path fill="none" stroke="#9a32cd" stroke-dasharray="5,2" d="M364.427,-170.629C368.662,-144.546 379.62,-97.2764 406,-67 427.624,-42.1814 462.969,-26.742 487.072,-18.5122"/>
<polygon fill="#9a32cd" stroke="#9a32cd" points="360.939,-170.292 362.96,-180.693 367.866,-171.302 360.939,-170.292"/>
<text text-anchor="middle" x="401.5" y="-108" font-family="Helvetica,sans-Serif" font-size="10.00"> padding</text>
</g>
<!-- Node10 -->
<g id="node9" class="node"><title>Node10</title>
<polygon fill="white" stroke="#bfbfbf" points="415.5,-67.5 415.5,-86.5 498.5,-86.5 498.5,-67.5 415.5,-67.5"/>
<text text-anchor="middle" x="457" y="-74.5" font-family="Helvetica,sans-Serif" font-size="10.00">ConstraintType</text>
</g>
<!-- Node10&#45;&gt;Node2 -->
<g id="edge11" class="edge"><title>Node10&#45;&gt;Node2</title>
<path fill="none" stroke="#9a32cd" stroke-dasharray="5,2" d="M471.099,-59.6348C482.051,-46.9228 496.805,-29.7978 505.567,-19.6273"/>
<polygon fill="#9a32cd" stroke="#9a32cd" points="468.428,-57.3732 464.552,-67.2338 473.731,-61.9422 468.428,-57.3732"/>
<text text-anchor="middle" x="512" y="-41" font-family="Helvetica,sans-Serif" font-size="10.00"> constraint</text>
</g>
<!-- Node11 -->
<g id="node10" class="node"><title>Node11</title>
<polygon fill="white" stroke="#bfbfbf" points="516.5,-67.5 516.5,-86.5 639.5,-86.5 639.5,-67.5 516.5,-67.5"/>
<text text-anchor="middle" x="578" y="-74.5" font-family="Helvetica,sans-Serif" font-size="10.00">vector&lt; GameObject * &gt;</text>
</g>
<!-- Node11&#45;&gt;Node2 -->
<g id="edge12" class="edge"><title>Node11&#45;&gt;Node2</title>
<path fill="none" stroke="#9a32cd" stroke-dasharray="5,2" d="M561.997,-59.9968C549.25,-47.2496 531.895,-29.8947 521.627,-19.6273"/>
<polygon fill="#9a32cd" stroke="#9a32cd" points="559.688,-62.6376 569.234,-67.2338 564.638,-57.6878 559.688,-62.6376"/>
<text text-anchor="middle" x="589.5" y="-41" font-family="Helvetica,sans-Serif" font-size="10.00"> groupedElements</text>
</g>
<!-- Node12 -->
<g id="node11" class="node"><title>Node12</title>
<polygon fill="white" stroke="#bfbfbf" points="657.5,-67.5 657.5,-86.5 686.5,-86.5 686.5,-67.5 657.5,-67.5"/>
<text text-anchor="middle" x="672" y="-74.5" font-family="Helvetica,sans-Serif" font-size="10.00">int</text>
</g>
<!-- Node12&#45;&gt;Node2 -->
<g id="edge13" class="edge"><title>Node12&#45;&gt;Node2</title>
<path fill="none" stroke="#9a32cd" stroke-dasharray="5,2" d="M658.938,-59.6006C652.007,-51.9459 642.887,-43.3609 633,-38 603.152,-21.8156 564.09,-15.3198 538.774,-12.7208"/>
<polygon fill="#9a32cd" stroke="#9a32cd" points="656.384,-62.0002 665.532,-67.345 661.714,-57.4621 656.384,-62.0002"/>
<text text-anchor="middle" x="666" y="-41" font-family="Helvetica,sans-Serif" font-size="10.00"> number</text>
</g>
<!-- Node13 -->
<g id="node12" class="node"><title>Node13</title>
<polygon fill="white" stroke="#bfbfbf" points="704.5,-67.5 704.5,-86.5 793.5,-86.5 793.5,-67.5 704.5,-67.5"/>
<text text-anchor="middle" x="749" y="-74.5" font-family="Helvetica,sans-Serif" font-size="10.00">BehaviorOnLess</text>
</g>
<!-- Node13&#45;&gt;Node2 -->
<g id="edge14" class="edge"><title>Node13&#45;&gt;Node2</title>
<path fill="none" stroke="#9a32cd" stroke-dasharray="5,2" d="M729.684,-61.1319C718.183,-53.0273 702.954,-43.5453 688,-38 637.271,-19.1885 573.579,-13.4811 538.726,-11.751"/>
<polygon fill="#9a32cd" stroke="#9a32cd" points="727.894,-64.1584 738.032,-67.2348 732.025,-58.5075 727.894,-64.1584"/>
<text text-anchor="middle" x="747" y="-41" font-family="Helvetica,sans-Serif" font-size="10.00"> behaviorOnLess</text>
</g>
</g>
</svg>
