<?xml version="1.0" encoding="UTF-8" standalone="no"?>
<!DOCTYPE svg PUBLIC "-//W3C//DTD SVG 1.1//EN"
 "http://www.w3.org/Graphics/SVG/1.1/DTD/svg11.dtd">
<!-- Generated by graphviz version 2.40.1 (20161225.0304)
 -->
<!-- Title: RattletrapEngine::TileMap&lt; T &gt; Pages: 1 -->
<svg width="302pt" height="95pt"
 viewBox="0.00 0.00 302.00 95.00" xmlns="http://www.w3.org/2000/svg" xmlns:xlink="http://www.w3.org/1999/xlink">
<g id="graph0" class="graph" transform="scale(1 1) rotate(0) translate(4 91)">
<title>RattletrapEngine::TileMap&lt; T &gt;</title>
<polygon fill="#ffffff" stroke="transparent" points="-4,4 -4,-91 298,-91 298,4 -4,4"/>
<!-- Node0 -->
<g id="node1" class="node">
<title>Node0</title>
<polygon fill="#bfbfbf" stroke="#000000" points="74,-.5 74,-19.5 228,-19.5 228,-.5 74,-.5"/>
<text text-anchor="middle" x="151" y="-7.5" font-family="Helvetica,sans-Serif" font-size="10.00" fill="#000000">RattletrapEngine::TileMap&lt; T &gt;</text>
</g>
<!-- Node1 -->
<g id="node2" class="node">
<title>Node1</title>
<g id="a_node2"><a xlink:href="classRattletrapEngine_1_1Component.html" target="_top" xlink:title="Modela os componentes. ">
<polygon fill="#ffffff" stroke="#000000" points="0,-62 0,-81 146,-81 146,-62 0,-62"/>
<text text-anchor="middle" x="73" y="-69" font-family="Helvetica,sans-Serif" font-size="10.00" fill="#000000">RattletrapEngine::Component</text>
</a>
</g>
</g>
<!-- Node1&#45;&gt;Node0 -->
<g id="edge1" class="edge">
<title>Node1&#45;&gt;Node0</title>
<path fill="none" stroke="#191970" d="M93.1036,-55.6491C107.5965,-44.222 126.6806,-29.1749 138.8981,-19.5419"/>
<polygon fill="#191970" stroke="#191970" points="90.8732,-52.9506 85.1875,-61.8906 95.2073,-58.4475 90.8732,-52.9506"/>
</g>
<!-- Node2 -->
<g id="node3" class="node">
<title>Node2</title>
<g id="a_node3"><a xlink:href="classRattletrapEngine_1_1NearestFinder.html" target="_top" xlink:title="RattletrapEngine::Nearest\lFinder\&lt; T \&gt;">
<polygon fill="#ffffff" stroke="#000000" points="164,-56.5 164,-86.5 294,-86.5 294,-56.5 164,-56.5"/>
<text text-anchor="start" x="172" y="-74.5" font-family="Helvetica,sans-Serif" font-size="10.00" fill="#000000">RattletrapEngine::Nearest</text>
<text text-anchor="middle" x="229" y="-63.5" font-family="Helvetica,sans-Serif" font-size="10.00" fill="#000000">Finder&lt; T &gt;</text>
</a>
</g>
</g>
<!-- Node2&#45;&gt;Node0 -->
<g id="edge2" class="edge">
<title>Node2&#45;&gt;Node0</title>
<path fill="none" stroke="#8b1a1a" d="M201.5314,-49.8421C188.5584,-39.6133 173.7148,-27.9097 163.4888,-19.8469"/>
<polygon fill="#8b1a1a" stroke="#8b1a1a" points="199.6993,-52.8546 209.7191,-56.2977 204.0334,-47.3577 199.6993,-52.8546"/>
</g>
</g>
</svg>
