<?xml version="1.0" encoding="UTF-8" standalone="no"?>
<!DOCTYPE svg PUBLIC "-//W3C//DTD SVG 1.1//EN"
 "http://www.w3.org/Graphics/SVG/1.1/DTD/svg11.dtd">
<!-- Generated by graphviz version 2.40.1 (20161225.0304)
 -->
<!-- Title: RattletrapEngine::GameObject Pages: 1 -->
<svg width="386pt" height="228pt"
 viewBox="0.00 0.00 386.31 228.00" xmlns="http://www.w3.org/2000/svg" xmlns:xlink="http://www.w3.org/1999/xlink">
<g id="graph0" class="graph" transform="scale(1 1) rotate(0) translate(4 224)">
<title>RattletrapEngine::GameObject</title>
<polygon fill="#ffffff" stroke="transparent" points="-4,4 -4,-224 382.3071,-224 382.3071,4 -4,4"/>
<!-- Node1 -->
<g id="node1" class="node">
<title>Node1</title>
<polygon fill="#bfbfbf" stroke="#000000" points="144.3071,-.5 144.3071,-19.5 294.3071,-19.5 294.3071,-.5 144.3071,-.5"/>
<text text-anchor="middle" x="219.3071" y="-7.5" font-family="Helvetica,sans-Serif" font-size="10.00" fill="#000000">RattletrapEngine::GameObject</text>
</g>
<!-- Node2 -->
<g id="node2" class="node">
<title>Node2</title>
<polygon fill="#ffffff" stroke="#bfbfbf" points="1.8071,-200.5 1.8071,-219.5 36.8071,-219.5 36.8071,-200.5 1.8071,-200.5"/>
<text text-anchor="middle" x="19.3071" y="-207.5" font-family="Helvetica,sans-Serif" font-size="10.00" fill="#000000">float</text>
</g>
<!-- Node2&#45;&gt;Node1 -->
<g id="edge1" class="edge">
<title>Node2&#45;&gt;Node1</title>
<path fill="none" stroke="#9a32cd" stroke-dasharray="5,2" d="M11.5102,-190.8171C2.4711,-165.1892 -8.6839,-119.4787 12.3071,-89 31.7796,-60.726 124.7362,-33.4728 179.2339,-19.5631"/>
<polygon fill="#9a32cd" stroke="#9a32cd" points="8.3475,-192.3493 15.1547,-200.468 14.8961,-189.8763 8.3475,-192.3493"/>
<text text-anchor="middle" x="30.3071" y="-102" font-family="Helvetica,sans-Serif" font-size="10.00" fill="#000000"> rotation</text>
</g>
<!-- Node5 -->
<g id="node5" class="node">
<title>Node5</title>
<g id="a_node5"><a xlink:href="classRattletrapEngine_1_1Rect.html" target="_top" xlink:title="Classe que modela um rect. ">
<polygon fill="#ffffff" stroke="#000000" points="57.3071,-95 57.3071,-114 173.3071,-114 173.3071,-95 57.3071,-95"/>
<text text-anchor="middle" x="115.3071" y="-102" font-family="Helvetica,sans-Serif" font-size="10.00" fill="#000000">RattletrapEngine::Rect</text>
</a>
</g>
</g>
<!-- Node2&#45;&gt;Node5 -->
<g id="edge5" class="edge">
<title>Node2&#45;&gt;Node5</title>
<path fill="none" stroke="#9a32cd" stroke-dasharray="5,2" d="M34.9477,-192.8116C55.3056,-170.4392 90.1973,-132.0946 106.4691,-114.2126"/>
<polygon fill="#9a32cd" stroke="#9a32cd" points="32.308,-190.5121 28.1665,-200.2639 37.4854,-195.2232 32.308,-190.5121"/>
<text text-anchor="middle" x="89.8071" y="-174" font-family="Helvetica,sans-Serif" font-size="10.00" fill="#000000"> w</text>
<text text-anchor="middle" x="89.8071" y="-163" font-family="Helvetica,sans-Serif" font-size="10.00" fill="#000000">x</text>
<text text-anchor="middle" x="89.8071" y="-152" font-family="Helvetica,sans-Serif" font-size="10.00" fill="#000000">h</text>
<text text-anchor="middle" x="89.8071" y="-141" font-family="Helvetica,sans-Serif" font-size="10.00" fill="#000000">y</text>
</g>
<!-- Node3 -->
<g id="node3" class="node">
<title>Node3</title>
<polygon fill="#ffffff" stroke="#bfbfbf" points="191.8071,-89.5 191.8071,-119.5 316.8071,-119.5 316.8071,-89.5 191.8071,-89.5"/>
<text text-anchor="start" x="199.8071" y="-107.5" font-family="Helvetica,sans-Serif" font-size="10.00" fill="#000000">vector&lt; RattletrapEngine</text>
<text text-anchor="middle" x="254.3071" y="-96.5" font-family="Helvetica,sans-Serif" font-size="10.00" fill="#000000">::Component *&gt;</text>
</g>
<!-- Node3&#45;&gt;Node1 -->
<g id="edge2" class="edge">
<title>Node3&#45;&gt;Node1</title>
<path fill="none" stroke="#9a32cd" stroke-dasharray="5,2" d="M245.144,-79.7598C237.8655,-60.1077 228.0761,-33.6765 222.8862,-19.6636"/>
<polygon fill="#9a32cd" stroke="#9a32cd" points="241.9284,-81.1551 248.6837,-89.3169 248.4926,-78.7238 241.9284,-81.1551"/>
<text text-anchor="middle" x="268.8071" y="-52" font-family="Helvetica,sans-Serif" font-size="10.00" fill="#000000"> components</text>
</g>
<!-- Node4 -->
<g id="node4" class="node">
<title>Node4</title>
<polygon fill="#ffffff" stroke="#bfbfbf" points="334.8071,-95 334.8071,-114 369.8071,-114 369.8071,-95 334.8071,-95"/>
<text text-anchor="middle" x="352.3071" y="-102" font-family="Helvetica,sans-Serif" font-size="10.00" fill="#000000">bool</text>
</g>
<!-- Node4&#45;&gt;Node1 -->
<g id="edge3" class="edge">
<title>Node4&#45;&gt;Node1</title>
<path fill="none" stroke="#9a32cd" stroke-dasharray="5,2" d="M342.3081,-86.0755C333.3607,-71.1799 318.9506,-50.6707 301.3071,-38 289.8214,-29.7516 275.7148,-23.7855 262.4605,-19.5377"/>
<polygon fill="#9a32cd" stroke="#9a32cd" points="339.3665,-87.9817 347.378,-94.9146 345.4385,-84.4988 339.3665,-87.9817"/>
<text text-anchor="middle" x="355.3071" y="-63" font-family="Helvetica,sans-Serif" font-size="10.00" fill="#000000"> dead</text>
<text text-anchor="middle" x="355.3071" y="-52" font-family="Helvetica,sans-Serif" font-size="10.00" fill="#000000">active</text>
<text text-anchor="middle" x="355.3071" y="-41" font-family="Helvetica,sans-Serif" font-size="10.00" fill="#000000">newActive</text>
</g>
<!-- Node5&#45;&gt;Node1 -->
<g id="edge4" class="edge">
<title>Node5&#45;&gt;Node1</title>
<path fill="none" stroke="#9a32cd" stroke-dasharray="5,2" d="M133.6645,-87.8195C155.4879,-67.9895 191.1636,-35.5727 208.7823,-19.5634"/>
<polygon fill="#9a32cd" stroke="#9a32cd" points="131.0925,-85.4274 126.0452,-94.7428 135.8,-90.6081 131.0925,-85.4274"/>
<text text-anchor="middle" x="195.8071" y="-52" font-family="Helvetica,sans-Serif" font-size="10.00" fill="#000000"> box</text>
</g>
</g>
</svg>
