<?xml version="1.0" encoding="UTF-8" standalone="no"?>
<!DOCTYPE svg PUBLIC "-//W3C//DTD SVG 1.1//EN"
 "http://www.w3.org/Graphics/SVG/1.1/DTD/svg11.dtd">
<!-- Generated by graphviz version 2.38.0 (20140413.2041)
 -->
<!-- Title: UIimageButton Pages: 1 -->
<svg width="1244pt" height="411pt"
 viewBox="0.00 0.00 1244.00 411.00" xmlns="http://www.w3.org/2000/svg" xmlns:xlink="http://www.w3.org/1999/xlink">
<g id="graph0" class="graph" transform="scale(1 1) rotate(0) translate(4 407)">
<title>UIimageButton</title>
<polygon fill="white" stroke="none" points="-4,4 -4,-407 1240,-407 1240,4 -4,4"/>
<!-- Node4 -->
<g id="node1" class="node"><title>Node4</title>
<polygon fill="#bfbfbf" stroke="black" points="681,-0.5 681,-19.5 763,-19.5 763,-0.5 681,-0.5"/>
<text text-anchor="middle" x="722" y="-7.5" font-family="Helvetica,sans-Serif" font-size="10.00">UIimageButton</text>
</g>
<!-- Node5 -->
<g id="node2" class="node"><title>Node5</title>
<g id="a_node2"><a xlink:href="classUIimage.html" target="_top" xlink:title="UIimage">
<polygon fill="white" stroke="black" points="279.5,-69.5 279.5,-88.5 332.5,-88.5 332.5,-69.5 279.5,-69.5"/>
<text text-anchor="middle" x="306" y="-76.5" font-family="Helvetica,sans-Serif" font-size="10.00">UIimage</text>
</a>
</g>
</g>
<!-- Node5&#45;&gt;Node4 -->
<g id="edge1" class="edge"><title>Node5&#45;&gt;Node4</title>
<path fill="none" stroke="midnightblue" d="M342.894,-72.0579C420.386,-59.5772 599.601,-30.7133 680.75,-17.6436"/>
<polygon fill="midnightblue" stroke="midnightblue" points="341.972,-68.6613 332.656,-73.7069 343.085,-75.5722 341.972,-68.6613"/>
</g>
<!-- Node6 -->
<g id="node3" class="node"><title>Node6</title>
<g id="a_node3"><a xlink:href="classUIelement.html" target="_top" xlink:title="UIelement">
<polygon fill="white" stroke="black" points="95,-148.5 95,-167.5 157,-167.5 157,-148.5 95,-148.5"/>
<text text-anchor="middle" x="126" y="-155.5" font-family="Helvetica,sans-Serif" font-size="10.00">UIelement</text>
</a>
</g>
</g>
<!-- Node6&#45;&gt;Node5 -->
<g id="edge2" class="edge"><title>Node6&#45;&gt;Node5</title>
<path fill="none" stroke="midnightblue" d="M154.663,-144.354C171.605,-136.911 193.494,-127.349 213,-119 237.787,-108.39 266.407,-96.432 285.278,-88.5873"/>
<polygon fill="midnightblue" stroke="midnightblue" points="153.059,-141.236 145.315,-148.466 155.878,-147.643 153.059,-141.236"/>
</g>
<!-- Node7 -->
<g id="node4" class="node"><title>Node7</title>
<g id="a_node4"><a xlink:href="classVec2.html" target="_top" xlink:title="Classe que modela um vetor(no sentido físico) ">
<polygon fill="white" stroke="black" points="64.5,-271.5 64.5,-290.5 103.5,-290.5 103.5,-271.5 64.5,-271.5"/>
<text text-anchor="middle" x="84" y="-278.5" font-family="Helvetica,sans-Serif" font-size="10.00">Vec2</text>
</a>
</g>
</g>
<!-- Node7&#45;&gt;Node6 -->
<g id="edge3" class="edge"><title>Node7&#45;&gt;Node6</title>
<path fill="none" stroke="#9a32cd" stroke-dasharray="5,2" d="M80.2098,-261.341C77.1596,-241.405 75.2272,-209.504 88,-186 92.2506,-178.178 99.8644,-172.093 107.166,-167.697"/>
<polygon fill="#9a32cd" stroke="#9a32cd" points="76.784,-262.067 81.9826,-271.299 83.6757,-260.84 76.784,-262.067"/>
<text text-anchor="middle" x="111" y="-216.5" font-family="Helvetica,sans-Serif" font-size="10.00"> center</text>
<text text-anchor="middle" x="111" y="-205.5" font-family="Helvetica,sans-Serif" font-size="10.00">kernelSize</text>
</g>
<!-- Node8 -->
<g id="node5" class="node"><title>Node8</title>
<polygon fill="white" stroke="#bfbfbf" points="177.5,-383.5 177.5,-402.5 212.5,-402.5 212.5,-383.5 177.5,-383.5"/>
<text text-anchor="middle" x="195" y="-390.5" font-family="Helvetica,sans-Serif" font-size="10.00">float</text>
</g>
<!-- Node8&#45;&gt;Node5 -->
<g id="edge17" class="edge"><title>Node8&#45;&gt;Node5</title>
<path fill="none" stroke="#9a32cd" stroke-dasharray="5,2" d="M201.104,-373.716C213.176,-337.684 241.094,-255.007 266,-186 279.088,-149.737 295.582,-106.867 302.595,-88.763"/>
<polygon fill="#9a32cd" stroke="#9a32cd" points="197.74,-372.74 197.887,-383.334 204.378,-374.96 197.74,-372.74"/>
<text text-anchor="middle" x="279.5" y="-211" font-family="Helvetica,sans-Serif" font-size="10.00"> angle</text>
</g>
<!-- Node8&#45;&gt;Node7 -->
<g id="edge4" class="edge"><title>Node8&#45;&gt;Node7</title>
<path fill="none" stroke="#9a32cd" stroke-dasharray="5,2" d="M179.062,-376.205C155.269,-352.627 111.275,-309.029 92.6695,-290.591"/>
<polygon fill="#9a32cd" stroke="#9a32cd" points="176.723,-378.816 186.29,-383.368 181.651,-373.843 176.723,-378.816"/>
<text text-anchor="middle" x="170.5" y="-346" font-family="Helvetica,sans-Serif" font-size="10.00"> x</text>
<text text-anchor="middle" x="170.5" y="-335" font-family="Helvetica,sans-Serif" font-size="10.00">y</text>
</g>
<!-- Node9 -->
<g id="node6" class="node"><title>Node9</title>
<g id="a_node6"><a xlink:href="classRect.html" target="_top" xlink:title="Classe que modela um rect. ">
<polygon fill="white" stroke="black" points="0,-271.5 0,-290.5 38,-290.5 38,-271.5 0,-271.5"/>
<text text-anchor="middle" x="19" y="-278.5" font-family="Helvetica,sans-Serif" font-size="10.00">Rect</text>
</a>
</g>
</g>
<!-- Node8&#45;&gt;Node9 -->
<g id="edge6" class="edge"><title>Node8&#45;&gt;Node9</title>
<path fill="none" stroke="#9a32cd" stroke-dasharray="5,2" d="M167.526,-386.115C150.761,-381.799 129.299,-374.941 112,-365 75.5989,-344.082 40.9602,-307.203 26.3172,-290.566"/>
<polygon fill="#9a32cd" stroke="#9a32cd" points="166.736,-389.525 177.279,-388.479 168.385,-382.722 166.736,-389.525"/>
<text text-anchor="middle" x="117.5" y="-357" font-family="Helvetica,sans-Serif" font-size="10.00"> w</text>
<text text-anchor="middle" x="117.5" y="-346" font-family="Helvetica,sans-Serif" font-size="10.00">x</text>
<text text-anchor="middle" x="117.5" y="-335" font-family="Helvetica,sans-Serif" font-size="10.00">h</text>
<text text-anchor="middle" x="117.5" y="-324" font-family="Helvetica,sans-Serif" font-size="10.00">y</text>
</g>
<!-- Node11 -->
<g id="node8" class="node"><title>Node11</title>
<g id="a_node8"><a xlink:href="classSprite.html" target="_top" xlink:title="Classe que modela uma sprite. ">
<polygon fill="white" stroke="black" points="522,-148.5 522,-167.5 564,-167.5 564,-148.5 522,-148.5"/>
<text text-anchor="middle" x="543" y="-155.5" font-family="Helvetica,sans-Serif" font-size="10.00">Sprite</text>
</a>
</g>
</g>
<!-- Node8&#45;&gt;Node11 -->
<g id="edge9" class="edge"><title>Node8&#45;&gt;Node11</title>
<path fill="none" stroke="#9a32cd" stroke-dasharray="5,2" d="M222.072,-380.647C255.341,-365.88 312.477,-337.81 354,-303 373.363,-286.767 373.176,-277.852 390,-259 420.135,-225.232 422.622,-209.991 461,-186 479.937,-174.162 504.608,-166.958 521.924,-163.004"/>
<polygon fill="#9a32cd" stroke="#9a32cd" points="220.325,-377.591 212.557,-384.795 223.122,-384.007 220.325,-377.591"/>
<text text-anchor="middle" x="417.5" y="-295" font-family="Helvetica,sans-Serif" font-size="10.00"> scaleY</text>
<text text-anchor="middle" x="417.5" y="-284" font-family="Helvetica,sans-Serif" font-size="10.00">frameTime</text>
<text text-anchor="middle" x="417.5" y="-273" font-family="Helvetica,sans-Serif" font-size="10.00">timeElapsed</text>
<text text-anchor="middle" x="417.5" y="-262" font-family="Helvetica,sans-Serif" font-size="10.00">scaleX</text>
</g>
<!-- Node9&#45;&gt;Node6 -->
<g id="edge5" class="edge"><title>Node9&#45;&gt;Node6</title>
<path fill="none" stroke="#9a32cd" stroke-dasharray="5,2" d="M12.3503,-261.596C6.16964,-240.924 0.20207,-207.467 17,-186 26.5214,-173.832 66.0362,-166.382 94.7542,-162.471"/>
<polygon fill="#9a32cd" stroke="#9a32cd" points="9.11454,-262.959 15.5725,-271.358 15.7618,-260.765 9.11454,-262.959"/>
<text text-anchor="middle" x="45.5" y="-227.5" font-family="Helvetica,sans-Serif" font-size="10.00"> offsets</text>
<text text-anchor="middle" x="45.5" y="-216.5" font-family="Helvetica,sans-Serif" font-size="10.00">box</text>
<text text-anchor="middle" x="45.5" y="-205.5" font-family="Helvetica,sans-Serif" font-size="10.00">anchors</text>
<text text-anchor="middle" x="45.5" y="-194.5" font-family="Helvetica,sans-Serif" font-size="10.00">boundingBox</text>
</g>
<!-- Node10 -->
<g id="node7" class="node"><title>Node10</title>
<polygon fill="white" stroke="#bfbfbf" points="121.5,-271.5 121.5,-290.5 198.5,-290.5 198.5,-271.5 121.5,-271.5"/>
<text text-anchor="middle" x="160" y="-278.5" font-family="Helvetica,sans-Serif" font-size="10.00">BehaviorType</text>
</g>
<!-- Node10&#45;&gt;Node6 -->
<g id="edge7" class="edge"><title>Node10&#45;&gt;Node6</title>
<path fill="none" stroke="#9a32cd" stroke-dasharray="5,2" d="M156.681,-261.191C153.045,-242.005 146.57,-211.513 138,-186 135.909,-179.776 132.909,-173.026 130.432,-167.832"/>
<polygon fill="#9a32cd" stroke="#9a32cd" points="153.287,-262.088 158.53,-271.295 160.173,-260.828 153.287,-262.088"/>
<text text-anchor="middle" x="173" y="-211" font-family="Helvetica,sans-Serif" font-size="10.00"> behavior</text>
</g>
<!-- Node11&#45;&gt;Node4 -->
<g id="edge23" class="edge"><title>Node11&#45;&gt;Node4</title>
<path fill="none" stroke="#9a32cd" stroke-dasharray="5,2" d="M561.707,-141.742C599,-111.324 681.56,-43.9848 711.168,-19.8348"/>
<polygon fill="#9a32cd" stroke="#9a32cd" points="559.198,-139.271 553.661,-148.304 563.623,-144.696 559.198,-139.271"/>
<text text-anchor="middle" x="703" y="-93" font-family="Helvetica,sans-Serif" font-size="10.00"> highlightedSprite</text>
<text text-anchor="middle" x="703" y="-82" font-family="Helvetica,sans-Serif" font-size="10.00">disabledSprite</text>
<text text-anchor="middle" x="703" y="-71" font-family="Helvetica,sans-Serif" font-size="10.00">enabledSprite</text>
<text text-anchor="middle" x="703" y="-60" font-family="Helvetica,sans-Serif" font-size="10.00">pressedSprite</text>
</g>
<!-- Node11&#45;&gt;Node5 -->
<g id="edge8" class="edge"><title>Node11&#45;&gt;Node5</title>
<path fill="none" stroke="#9a32cd" stroke-dasharray="5,2" d="M512.347,-147.041C465.409,-131.791 376.529,-102.915 332.329,-88.5542"/>
<polygon fill="#9a32cd" stroke="#9a32cd" points="511.376,-150.405 521.968,-150.167 513.539,-143.748 511.376,-150.405"/>
<text text-anchor="middle" x="467" y="-122" font-family="Helvetica,sans-Serif" font-size="10.00"> sp</text>
</g>
<!-- Node12 -->
<g id="node9" class="node"><title>Node12</title>
<polygon fill="white" stroke="#bfbfbf" points="512,-271.5 512,-290.5 574,-290.5 574,-271.5 512,-271.5"/>
<text text-anchor="middle" x="543" y="-278.5" font-family="Helvetica,sans-Serif" font-size="10.00">SDL_Rect</text>
</g>
<!-- Node12&#45;&gt;Node11 -->
<g id="edge10" class="edge"><title>Node12&#45;&gt;Node11</title>
<path fill="none" stroke="#9a32cd" stroke-dasharray="5,2" d="M543,-260.988C543,-234.346 543,-186.995 543,-167.623"/>
<polygon fill="#9a32cd" stroke="#9a32cd" points="539.5,-261.298 543,-271.298 546.5,-261.298 539.5,-261.298"/>
<text text-anchor="middle" x="563" y="-211" font-family="Helvetica,sans-Serif" font-size="10.00"> clipRect</text>
</g>
<!-- Node13 -->
<g id="node10" class="node"><title>Node13</title>
<polygon fill="white" stroke="#bfbfbf" points="592.5,-271.5 592.5,-290.5 621.5,-290.5 621.5,-271.5 592.5,-271.5"/>
<text text-anchor="middle" x="607" y="-278.5" font-family="Helvetica,sans-Serif" font-size="10.00">int</text>
</g>
<!-- Node13&#45;&gt;Node11 -->
<g id="edge11" class="edge"><title>Node13&#45;&gt;Node11</title>
<path fill="none" stroke="#9a32cd" stroke-dasharray="5,2" d="M606.393,-261.255C604.889,-241.002 599.938,-208.601 584,-186 578.499,-178.199 569.963,-172.056 562.102,-167.613"/>
<polygon fill="#9a32cd" stroke="#9a32cd" points="602.904,-261.564 606.929,-271.365 609.894,-261.193 602.904,-261.564"/>
<text text-anchor="middle" x="633" y="-227.5" font-family="Helvetica,sans-Serif" font-size="10.00"> width</text>
<text text-anchor="middle" x="633" y="-216.5" font-family="Helvetica,sans-Serif" font-size="10.00">currentFrame</text>
<text text-anchor="middle" x="633" y="-205.5" font-family="Helvetica,sans-Serif" font-size="10.00">height</text>
<text text-anchor="middle" x="633" y="-194.5" font-family="Helvetica,sans-Serif" font-size="10.00">frameCount</text>
</g>
<!-- Node14 -->
<g id="node11" class="node"><title>Node14</title>
<polygon fill="white" stroke="#bfbfbf" points="640,-271.5 640,-290.5 778,-290.5 778,-271.5 640,-271.5"/>
<text text-anchor="middle" x="709" y="-278.5" font-family="Helvetica,sans-Serif" font-size="10.00">shared_ptr&lt; SDL_Texture &gt;</text>
</g>
<!-- Node14&#45;&gt;Node11 -->
<g id="edge12" class="edge"><title>Node14&#45;&gt;Node11</title>
<path fill="none" stroke="#9a32cd" stroke-dasharray="5,2" d="M699.166,-262.612C695.512,-255.929 691.425,-248.182 688,-241 676.594,-217.085 685.329,-202.993 665,-186 636.206,-161.931 590.614,-158.062 564.077,-158.084"/>
<polygon fill="#9a32cd" stroke="#9a32cd" points="696.163,-264.413 704.083,-271.451 702.28,-261.01 696.163,-264.413"/>
<text text-anchor="middle" x="705" y="-211" font-family="Helvetica,sans-Serif" font-size="10.00"> texture</text>
</g>
<!-- Node15 -->
<g id="node12" class="node"><title>Node15</title>
<polygon fill="white" stroke="#bfbfbf" points="799.5,-271.5 799.5,-290.5 834.5,-290.5 834.5,-271.5 799.5,-271.5"/>
<text text-anchor="middle" x="817" y="-278.5" font-family="Helvetica,sans-Serif" font-size="10.00">bool</text>
</g>
<!-- Node15&#45;&gt;Node4 -->
<g id="edge24" class="edge"><title>Node15&#45;&gt;Node4</title>
<path fill="none" stroke="#9a32cd" stroke-dasharray="5,2" d="M815.722,-261.154C814.065,-241.939 810.454,-211.425 803,-186 785.314,-125.677 771.951,-113.791 745,-57 738.799,-43.9323 731.235,-28.9826 726.517,-19.7658"/>
<polygon fill="#9a32cd" stroke="#9a32cd" points="812.244,-261.574 816.501,-271.275 819.223,-261.036 812.244,-261.574"/>
<text text-anchor="middle" x="807.5" y="-122" font-family="Helvetica,sans-Serif" font-size="10.00"> kernelDirty</text>
</g>
<!-- Node15&#45;&gt;Node11 -->
<g id="edge13" class="edge"><title>Node15&#45;&gt;Node11</title>
<path fill="none" stroke="#9a32cd" stroke-dasharray="5,2" d="M797.774,-265.678C794.269,-263.319 790.585,-260.995 787,-259 769.254,-249.125 759.297,-255.424 745,-241 726.347,-222.182 742.895,-202.291 722,-186 697.773,-167.111 606.157,-161.326 564.207,-159.646"/>
<polygon fill="#9a32cd" stroke="#9a32cd" points="795.771,-268.549 805.96,-271.452 799.806,-262.828 795.771,-268.549"/>
<text text-anchor="middle" x="774" y="-211" font-family="Helvetica,sans-Serif" font-size="10.00"> highlightable</text>
</g>
<!-- Node19 -->
<g id="node16" class="node"><title>Node19</title>
<g id="a_node16"><a xlink:href="classUIbutton.html" target="_top" xlink:title="Classe virtual que modela o comportamento de um botão na interface gráfica. ">
<polygon fill="white" stroke="black" points="952,-148.5 952,-167.5 1006,-167.5 1006,-148.5 952,-148.5"/>
<text text-anchor="middle" x="979" y="-155.5" font-family="Helvetica,sans-Serif" font-size="10.00">UIbutton</text>
</a>
</g>
</g>
<!-- Node15&#45;&gt;Node19 -->
<g id="edge21" class="edge"><title>Node15&#45;&gt;Node19</title>
<path fill="none" stroke="#9a32cd" stroke-dasharray="5,2" d="M822.204,-261.621C829.244,-240.174 843.9,-205.205 869,-186 893.051,-167.599 927.972,-161.566 951.982,-159.68"/>
<polygon fill="#9a32cd" stroke="#9a32cd" points="818.776,-260.863 819.202,-271.449 825.471,-262.908 818.776,-260.863"/>
<text text-anchor="middle" x="922" y="-211" font-family="Helvetica,sans-Serif" font-size="10.00"> interactOnBoundingBox</text>
</g>
<!-- Node16 -->
<g id="node13" class="node"><title>Node16</title>
<polygon fill="white" stroke="#bfbfbf" points="255,-271.5 255,-290.5 345,-290.5 345,-271.5 255,-271.5"/>
<text text-anchor="middle" x="300" y="-278.5" font-family="Helvetica,sans-Serif" font-size="10.00">SDL_BlendMode</text>
</g>
<!-- Node16&#45;&gt;Node11 -->
<g id="edge14" class="edge"><title>Node16&#45;&gt;Node11</title>
<path fill="none" stroke="#9a32cd" stroke-dasharray="5,2" d="M297.252,-261.369C295.25,-239.94 295.765,-205.243 316,-186 345.262,-158.171 471.444,-157.525 521.967,-158.43"/>
<polygon fill="#9a32cd" stroke="#9a32cd" points="293.799,-261.965 298.476,-271.471 300.748,-261.123 293.799,-261.965"/>
<text text-anchor="middle" x="341.5" y="-211" font-family="Helvetica,sans-Serif" font-size="10.00"> blendMode</text>
</g>
<!-- Node17 -->
<g id="node14" class="node"><title>Node17</title>
<g id="a_node14"><a xlink:href="structColor.html" target="_top" xlink:title="Struct para armazenar informações de cor. ">
<polygon fill="white" stroke="black" points="454,-271.5 454,-290.5 494,-290.5 494,-271.5 454,-271.5"/>
<text text-anchor="middle" x="474" y="-278.5" font-family="Helvetica,sans-Serif" font-size="10.00">Color</text>
</a>
</g>
</g>
<!-- Node17&#45;&gt;Node11 -->
<g id="edge15" class="edge"><title>Node17&#45;&gt;Node11</title>
<path fill="none" stroke="#9a32cd" stroke-dasharray="5,2" d="M468.543,-261.365C463.766,-240.98 459.722,-208.249 475,-186 485.498,-170.712 506.139,-164.08 521.939,-161.203"/>
<polygon fill="#9a32cd" stroke="#9a32cd" points="465.222,-262.497 471.155,-271.275 471.991,-260.713 465.222,-262.497"/>
<text text-anchor="middle" x="507" y="-211" font-family="Helvetica,sans-Serif" font-size="10.00"> colorMultiplier</text>
</g>
<!-- Node18 -->
<g id="node15" class="node"><title>Node18</title>
<polygon fill="white" stroke="#bfbfbf" points="435.5,-383.5 435.5,-402.5 512.5,-402.5 512.5,-383.5 435.5,-383.5"/>
<text text-anchor="middle" x="474" y="-390.5" font-family="Helvetica,sans-Serif" font-size="10.00">unsigned char</text>
</g>
<!-- Node18&#45;&gt;Node17 -->
<g id="edge16" class="edge"><title>Node18&#45;&gt;Node17</title>
<path fill="none" stroke="#9a32cd" stroke-dasharray="5,2" d="M474,-373.348C474,-349.254 474,-308.308 474,-290.591"/>
<polygon fill="#9a32cd" stroke="#9a32cd" points="470.5,-373.368 474,-383.368 477.5,-373.369 470.5,-373.368"/>
<text text-anchor="middle" x="478.5" y="-357" font-family="Helvetica,sans-Serif" font-size="10.00"> g</text>
<text text-anchor="middle" x="478.5" y="-346" font-family="Helvetica,sans-Serif" font-size="10.00">a</text>
<text text-anchor="middle" x="478.5" y="-335" font-family="Helvetica,sans-Serif" font-size="10.00">r</text>
<text text-anchor="middle" x="478.5" y="-324" font-family="Helvetica,sans-Serif" font-size="10.00">b</text>
</g>
<!-- Node19&#45;&gt;Node4 -->
<g id="edge18" class="edge"><title>Node19&#45;&gt;Node4</title>
<path fill="none" stroke="midnightblue" d="M963.766,-140.858C938.595,-115.156 885.648,-65.0764 831,-38 809.775,-27.4839 784.145,-20.868 763.071,-16.819"/>
<polygon fill="midnightblue" stroke="midnightblue" points="961.469,-143.517 970.93,-148.286 966.507,-138.658 961.469,-143.517"/>
</g>
<!-- Node20 -->
<g id="node17" class="node"><title>Node20</title>
<polygon fill="white" stroke="#bfbfbf" points="941.5,-271.5 941.5,-290.5 1016.5,-290.5 1016.5,-271.5 941.5,-271.5"/>
<text text-anchor="middle" x="979" y="-278.5" font-family="Helvetica,sans-Serif" font-size="10.00">void(*)(void *)</text>
</g>
<!-- Node20&#45;&gt;Node19 -->
<g id="edge19" class="edge"><title>Node20&#45;&gt;Node19</title>
<path fill="none" stroke="#9a32cd" stroke-dasharray="5,2" d="M979,-260.988C979,-234.346 979,-186.995 979,-167.623"/>
<polygon fill="#9a32cd" stroke="#9a32cd" points="975.5,-261.298 979,-271.298 982.5,-261.298 975.5,-261.298"/>
<text text-anchor="middle" x="1021.5" y="-233" font-family="Helvetica,sans-Serif" font-size="10.00"> pressedCallback</text>
<text text-anchor="middle" x="1021.5" y="-222" font-family="Helvetica,sans-Serif" font-size="10.00">disabledCallback</text>
<text text-anchor="middle" x="1021.5" y="-211" font-family="Helvetica,sans-Serif" font-size="10.00">highlightedCallback</text>
<text text-anchor="middle" x="1021.5" y="-200" font-family="Helvetica,sans-Serif" font-size="10.00">enabledCallback</text>
<text text-anchor="middle" x="1021.5" y="-189" font-family="Helvetica,sans-Serif" font-size="10.00">clickedCallback</text>
</g>
<!-- Node21 -->
<g id="node18" class="node"><title>Node21</title>
<polygon fill="white" stroke="#bfbfbf" points="1067,-271.5 1067,-290.5 1107,-290.5 1107,-271.5 1067,-271.5"/>
<text text-anchor="middle" x="1087" y="-278.5" font-family="Helvetica,sans-Serif" font-size="10.00">State</text>
</g>
<!-- Node21&#45;&gt;Node19 -->
<g id="edge20" class="edge"><title>Node21&#45;&gt;Node19</title>
<path fill="none" stroke="#9a32cd" stroke-dasharray="5,2" d="M1087.78,-261.277C1087.61,-240.29 1084.05,-206.521 1065,-186 1049.99,-169.829 1025.42,-163.28 1006.38,-160.66"/>
<polygon fill="#9a32cd" stroke="#9a32cd" points="1084.27,-261.397 1087.6,-271.456 1091.27,-261.519 1084.27,-261.397"/>
<text text-anchor="middle" x="1112.5" y="-211" font-family="Helvetica,sans-Serif" font-size="10.00"> actualState</text>
</g>
<!-- Node22 -->
<g id="node19" class="node"><title>Node22</title>
<polygon fill="white" stroke="#bfbfbf" points="1142.5,-271.5 1142.5,-290.5 1183.5,-290.5 1183.5,-271.5 1142.5,-271.5"/>
<text text-anchor="middle" x="1163" y="-278.5" font-family="Helvetica,sans-Serif" font-size="10.00">void *</text>
</g>
<!-- Node22&#45;&gt;Node19 -->
<g id="edge22" class="edge"><title>Node22&#45;&gt;Node19</title>
<path fill="none" stroke="#9a32cd" stroke-dasharray="5,2" d="M1164.27,-261.401C1164.62,-240.001 1161.63,-205.334 1141,-186 1121.91,-168.11 1046.95,-161.995 1006.03,-159.965"/>
<polygon fill="#9a32cd" stroke="#9a32cd" points="1160.77,-261.346 1163.83,-271.487 1167.76,-261.647 1160.77,-261.346"/>
<text text-anchor="middle" x="1199.5" y="-233" font-family="Helvetica,sans-Serif" font-size="10.00"> clickCaller</text>
<text text-anchor="middle" x="1199.5" y="-222" font-family="Helvetica,sans-Serif" font-size="10.00">disableCaller</text>
<text text-anchor="middle" x="1199.5" y="-211" font-family="Helvetica,sans-Serif" font-size="10.00">highlightedCaller</text>
<text text-anchor="middle" x="1199.5" y="-200" font-family="Helvetica,sans-Serif" font-size="10.00">pressedCaller</text>
<text text-anchor="middle" x="1199.5" y="-189" font-family="Helvetica,sans-Serif" font-size="10.00">enabledCaller</text>
</g>
</g>
</svg>
