<?xml version="1.0" encoding="UTF-8" standalone="no"?>
<!DOCTYPE svg PUBLIC "-//W3C//DTD SVG 1.1//EN"
 "http://www.w3.org/Graphics/SVG/1.1/DTD/svg11.dtd">
<!-- Generated by graphviz version 2.40.1 (20161225.0304)
 -->
<!-- Title: RattletrapEngine::Sprite Pages: 1 -->
<svg width="919pt" height="438pt"
 viewBox="0.00 0.00 919.00 438.00" xmlns="http://www.w3.org/2000/svg" xmlns:xlink="http://www.w3.org/1999/xlink">
<g id="graph0" class="graph" transform="scale(1 1) rotate(0) translate(4 434)">
<title>RattletrapEngine::Sprite</title>
<polygon fill="#ffffff" stroke="transparent" points="-4,4 -4,-434 915,-434 915,4 -4,4"/>
<!-- Node2 -->
<g id="node1" class="node">
<title>Node2</title>
<polygon fill="#bfbfbf" stroke="#000000" points="790,-143.5 790,-162.5 911,-162.5 911,-143.5 790,-143.5"/>
<text text-anchor="middle" x="850.5" y="-150.5" font-family="Helvetica,sans-Serif" font-size="10.00" fill="#000000">RattletrapEngine::Sprite</text>
</g>
<!-- Node3 -->
<g id="node2" class="node">
<title>Node3</title>
<g id="a_node2"><a xlink:href="classRattletrapEngine_1_1Component.html" target="_top" xlink:title="Modela os componentes. ">
<polygon fill="#ffffff" stroke="#000000" points="544,-305.5 544,-324.5 690,-324.5 690,-305.5 544,-305.5"/>
<text text-anchor="middle" x="617" y="-312.5" font-family="Helvetica,sans-Serif" font-size="10.00" fill="#000000">RattletrapEngine::Component</text>
</a>
</g>
</g>
<!-- Node3&#45;&gt;Node2 -->
<g id="edge1" class="edge">
<title>Node3&#45;&gt;Node2</title>
<path fill="none" stroke="#191970" d="M646.5654,-300.8955C678.739,-284.9481 731.0573,-257.2381 772,-227 799.4199,-206.7492 827.5285,-177.8905 841.4877,-162.8987"/>
<polygon fill="#191970" stroke="#191970" points="644.7002,-297.9119 637.2622,-305.4569 647.7819,-304.1971 644.7002,-297.9119"/>
</g>
<!-- Node4 -->
<g id="node3" class="node">
<title>Node4</title>
<polygon fill="#ffffff" stroke="#bfbfbf" points="127,-405.5 127,-424.5 162,-424.5 162,-405.5 127,-405.5"/>
<text text-anchor="middle" x="144.5" y="-412.5" font-family="Helvetica,sans-Serif" font-size="10.00" fill="#000000">bool</text>
</g>
<!-- Node4&#45;&gt;Node2 -->
<g id="edge13" class="edge">
<title>Node4&#45;&gt;Node2</title>
<path fill="none" stroke="#9a32cd" stroke-dasharray="5,2" d="M172.2989,-416.8619C203.3964,-418.844 255.2796,-421.8504 300,-423 366.6447,-424.7132 384.3815,-434.775 450,-423 561.9762,-402.9063 592.6952,-392.9424 690,-334 766.5139,-287.6517 826.8142,-193.1279 844.9126,-162.6815"/>
<polygon fill="#9a32cd" stroke="#9a32cd" points="172.4175,-413.3623 162.212,-416.2082 171.9647,-420.3476 172.4175,-413.3623"/>
<text text-anchor="middle" x="497" y="-422" font-family="Helvetica,sans-Serif" font-size="10.00" fill="#000000"> highlightable</text>
</g>
<!-- Node4&#45;&gt;Node3 -->
<g id="edge2" class="edge">
<title>Node4&#45;&gt;Node3</title>
<path fill="none" stroke="#9a32cd" stroke-dasharray="5,2" d="M172.6346,-413.3732C200.5467,-411.4692 244.4621,-407.6904 282,-401 395.7945,-380.7183 527.873,-342.3111 586.3948,-324.5054"/>
<polygon fill="#9a32cd" stroke="#9a32cd" points="172.1705,-409.8958 162.4175,-414.0348 172.6228,-416.8812 172.1705,-409.8958"/>
<text text-anchor="middle" x="375" y="-411" font-family="Helvetica,sans-Serif" font-size="10.00" fill="#000000"> newEnabled</text>
<text text-anchor="middle" x="375" y="-400" font-family="Helvetica,sans-Serif" font-size="10.00" fill="#000000">enabled</text>
</g>
<!-- Node5 -->
<g id="node4" class="node">
<title>Node5</title>
<g id="a_node4"><a xlink:href="classRattletrapEngine_1_1GameObject.html" target="_top" xlink:title="Classe virtual que especifica o funcionamento de um GameObject. ">
<polygon fill="#ffffff" stroke="#000000" points="300,-305.5 300,-324.5 450,-324.5 450,-305.5 300,-305.5"/>
<text text-anchor="middle" x="375" y="-312.5" font-family="Helvetica,sans-Serif" font-size="10.00" fill="#000000">RattletrapEngine::GameObject</text>
</a>
</g>
</g>
<!-- Node4&#45;&gt;Node5 -->
<g id="edge6" class="edge">
<title>Node4&#45;&gt;Node5</title>
<path fill="none" stroke="#9a32cd" stroke-dasharray="5,2" d="M167.44,-400.039C183.2149,-390.1464 204.871,-377.3305 225,-368 246.926,-357.8366 308.9701,-336.8015 346.0373,-324.5078"/>
<polygon fill="#9a32cd" stroke="#9a32cd" points="165.448,-397.1579 158.8876,-405.4773 169.2041,-403.0648 165.448,-397.1579"/>
<text text-anchor="middle" x="253.5" y="-393" font-family="Helvetica,sans-Serif" font-size="10.00" fill="#000000"> dead</text>
<text text-anchor="middle" x="253.5" y="-382" font-family="Helvetica,sans-Serif" font-size="10.00" fill="#000000">active</text>
<text text-anchor="middle" x="253.5" y="-371" font-family="Helvetica,sans-Serif" font-size="10.00" fill="#000000">newActive</text>
</g>
<!-- Node5&#45;&gt;Node3 -->
<g id="edge3" class="edge">
<title>Node5&#45;&gt;Node3</title>
<path fill="none" stroke="#9a32cd" stroke-dasharray="5,2" d="M460.5362,-315C487.7608,-315 517.6127,-315 543.8765,-315"/>
<polygon fill="#9a32cd" stroke="#9a32cd" points="460.2438,-311.5001 450.2438,-315 460.2437,-318.5001 460.2438,-311.5001"/>
<text text-anchor="middle" x="497" y="-318" font-family="Helvetica,sans-Serif" font-size="10.00" fill="#000000"> associated</text>
</g>
<!-- Node6 -->
<g id="node5" class="node">
<title>Node6</title>
<polygon fill="#ffffff" stroke="#bfbfbf" points="0,-241.5 0,-260.5 35,-260.5 35,-241.5 0,-241.5"/>
<text text-anchor="middle" x="17.5" y="-248.5" font-family="Helvetica,sans-Serif" font-size="10.00" fill="#000000">float</text>
</g>
<!-- Node6&#45;&gt;Node2 -->
<g id="edge9" class="edge">
<title>Node6&#45;&gt;Node2</title>
<path fill="none" stroke="#9a32cd" stroke-dasharray="5,2" d="M44.3655,-238.0023C69.6061,-226.998 108.7413,-213 144.5,-213 144.5,-213 144.5,-213 617,-213 687.0039,-213 704.7787,-204.5409 772,-185 792.3505,-179.0842 814.6446,-169.6987 830.2567,-162.6187"/>
<polygon fill="#9a32cd" stroke="#9a32cd" points="42.7653,-234.8844 35.0887,-242.1865 45.6435,-241.2654 42.7653,-234.8844"/>
<text text-anchor="middle" x="375" y="-249" font-family="Helvetica,sans-Serif" font-size="10.00" fill="#000000"> scaleY</text>
<text text-anchor="middle" x="375" y="-238" font-family="Helvetica,sans-Serif" font-size="10.00" fill="#000000">frameTime</text>
<text text-anchor="middle" x="375" y="-227" font-family="Helvetica,sans-Serif" font-size="10.00" fill="#000000">timeElapsed</text>
<text text-anchor="middle" x="375" y="-216" font-family="Helvetica,sans-Serif" font-size="10.00" fill="#000000">scaleX</text>
</g>
<!-- Node6&#45;&gt;Node5 -->
<g id="edge4" class="edge">
<title>Node6&#45;&gt;Node5</title>
<path fill="none" stroke="#9a32cd" stroke-dasharray="5,2" d="M27.4855,-269.5951C38.2114,-287.1463 57.1238,-311.9389 82,-320 166.4542,-347.3673 271.9113,-335.1021 330.4982,-324.5189"/>
<polygon fill="#9a32cd" stroke="#9a32cd" points="30.4089,-267.6581 22.3831,-260.7417 24.344,-271.1535 30.4089,-267.6581"/>
<text text-anchor="middle" x="144.5" y="-339" font-family="Helvetica,sans-Serif" font-size="10.00" fill="#000000"> rotation</text>
</g>
<!-- Node8 -->
<g id="node7" class="node">
<title>Node8</title>
<g id="a_node7"><a xlink:href="classRattletrapEngine_1_1Rect.html" target="_top" xlink:title="Classe que modela um rect. ">
<polygon fill="#ffffff" stroke="#000000" points="86.5,-241.5 86.5,-260.5 202.5,-260.5 202.5,-241.5 86.5,-241.5"/>
<text text-anchor="middle" x="144.5" y="-248.5" font-family="Helvetica,sans-Serif" font-size="10.00" fill="#000000">RattletrapEngine::Rect</text>
</a>
</g>
</g>
<!-- Node6&#45;&gt;Node8 -->
<g id="edge8" class="edge">
<title>Node6&#45;&gt;Node8</title>
<path fill="none" stroke="#9a32cd" stroke-dasharray="5,2" d="M45.4244,-251C57.4632,-251 72.0207,-251 86.227,-251"/>
<polygon fill="#9a32cd" stroke="#9a32cd" points="45.1588,-247.5001 35.1588,-251 45.1588,-254.5001 45.1588,-247.5001"/>
<text text-anchor="middle" x="58.5" y="-287" font-family="Helvetica,sans-Serif" font-size="10.00" fill="#000000"> w</text>
<text text-anchor="middle" x="58.5" y="-276" font-family="Helvetica,sans-Serif" font-size="10.00" fill="#000000">x</text>
<text text-anchor="middle" x="58.5" y="-265" font-family="Helvetica,sans-Serif" font-size="10.00" fill="#000000">h</text>
<text text-anchor="middle" x="58.5" y="-254" font-family="Helvetica,sans-Serif" font-size="10.00" fill="#000000">y</text>
</g>
<!-- Node7 -->
<g id="node6" class="node">
<title>Node7</title>
<polygon fill="#ffffff" stroke="#bfbfbf" points="82,-280 82,-310 207,-310 207,-280 82,-280"/>
<text text-anchor="start" x="90" y="-298" font-family="Helvetica,sans-Serif" font-size="10.00" fill="#000000">vector&lt; RattletrapEngine</text>
<text text-anchor="middle" x="144.5" y="-287" font-family="Helvetica,sans-Serif" font-size="10.00" fill="#000000">::Component *&gt;</text>
</g>
<!-- Node7&#45;&gt;Node5 -->
<g id="edge5" class="edge">
<title>Node7&#45;&gt;Node5</title>
<path fill="none" stroke="#9a32cd" stroke-dasharray="5,2" d="M217.4203,-301.3271C243.6216,-303.6006 273.2128,-306.1681 299.6192,-308.4594"/>
<polygon fill="#9a32cd" stroke="#9a32cd" points="217.4458,-297.8163 207.1807,-300.4387 216.8407,-304.7901 217.4458,-297.8163"/>
<text text-anchor="middle" x="253.5" y="-309" font-family="Helvetica,sans-Serif" font-size="10.00" fill="#000000"> components</text>
</g>
<!-- Node8&#45;&gt;Node5 -->
<g id="edge7" class="edge">
<title>Node8&#45;&gt;Node5</title>
<path fill="none" stroke="#9a32cd" stroke-dasharray="5,2" d="M192.3238,-263.0657C218.8145,-269.8635 252.3011,-278.6443 282,-287 302.7764,-292.8454 326.0264,-299.8454 344.0823,-305.384"/>
<polygon fill="#9a32cd" stroke="#9a32cd" points="193.0914,-259.6494 182.536,-260.5625 191.3569,-266.4312 193.0914,-259.6494"/>
<text text-anchor="middle" x="253.5" y="-290" font-family="Helvetica,sans-Serif" font-size="10.00" fill="#000000"> box</text>
</g>
<!-- Node9 -->
<g id="node8" class="node">
<title>Node9</title>
<polygon fill="#ffffff" stroke="#bfbfbf" points="586,-165.5 586,-184.5 648,-184.5 648,-165.5 586,-165.5"/>
<text text-anchor="middle" x="617" y="-172.5" font-family="Helvetica,sans-Serif" font-size="10.00" fill="#000000">SDL_Rect</text>
</g>
<!-- Node9&#45;&gt;Node2 -->
<g id="edge10" class="edge">
<title>Node9&#45;&gt;Node2</title>
<path fill="none" stroke="#9a32cd" stroke-dasharray="5,2" d="M658.3341,-173.3153C689.6077,-171.8027 733.5834,-169.1675 772,-165 778.442,-164.3012 785.1645,-163.4544 791.8475,-162.5377"/>
<polygon fill="#9a32cd" stroke="#9a32cd" points="658.0678,-169.8238 648.2416,-173.7858 658.3938,-176.8162 658.0678,-169.8238"/>
<text text-anchor="middle" x="740" y="-173" font-family="Helvetica,sans-Serif" font-size="10.00" fill="#000000"> clipRect</text>
</g>
<!-- Node10 -->
<g id="node9" class="node">
<title>Node10</title>
<polygon fill="#ffffff" stroke="#bfbfbf" points="602.5,-114.5 602.5,-133.5 631.5,-133.5 631.5,-114.5 602.5,-114.5"/>
<text text-anchor="middle" x="617" y="-121.5" font-family="Helvetica,sans-Serif" font-size="10.00" fill="#000000">int</text>
</g>
<!-- Node10&#45;&gt;Node2 -->
<g id="edge11" class="edge">
<title>Node10&#45;&gt;Node2</title>
<path fill="none" stroke="#9a32cd" stroke-dasharray="5,2" d="M641.627,-119.0176C672.4833,-113.6543 726.8005,-107.13 772,-117 795.144,-122.0538 819.6219,-134.5825 834.9711,-143.4341"/>
<polygon fill="#9a32cd" stroke="#9a32cd" points="640.9454,-115.5842 631.7446,-120.8374 642.2132,-122.4684 640.9454,-115.5842"/>
<text text-anchor="middle" x="740" y="-153" font-family="Helvetica,sans-Serif" font-size="10.00" fill="#000000"> width</text>
<text text-anchor="middle" x="740" y="-142" font-family="Helvetica,sans-Serif" font-size="10.00" fill="#000000">currentFrame</text>
<text text-anchor="middle" x="740" y="-131" font-family="Helvetica,sans-Serif" font-size="10.00" fill="#000000">height</text>
<text text-anchor="middle" x="740" y="-120" font-family="Helvetica,sans-Serif" font-size="10.00" fill="#000000">frameCount</text>
</g>
<!-- Node11 -->
<g id="node10" class="node">
<title>Node11</title>
<polygon fill="#ffffff" stroke="#bfbfbf" points="548,-76.5 548,-95.5 686,-95.5 686,-76.5 548,-76.5"/>
<text text-anchor="middle" x="617" y="-83.5" font-family="Helvetica,sans-Serif" font-size="10.00" fill="#000000">shared_ptr&lt; SDL_Texture &gt;</text>
</g>
<!-- Node11&#45;&gt;Node2 -->
<g id="edge12" class="edge">
<title>Node11&#45;&gt;Node2</title>
<path fill="none" stroke="#9a32cd" stroke-dasharray="5,2" d="M696.3235,-82.6261C721.1545,-83.7957 748.257,-87.4344 772,-96 800.2002,-106.1737 827.1361,-129.7568 840.9322,-143.1833"/>
<polygon fill="#9a32cd" stroke="#9a32cd" points="696.3189,-79.124 686.2041,-82.2769 696.0774,-86.1198 696.3189,-79.124"/>
<text text-anchor="middle" x="740" y="-99" font-family="Helvetica,sans-Serif" font-size="10.00" fill="#000000"> texture</text>
</g>
<!-- Node12 -->
<g id="node11" class="node">
<title>Node12</title>
<g id="a_node11"><a xlink:href="structRattletrapEngine_1_1Color.html" target="_top" xlink:title="Struct para armazenar informações de cor. ">
<polygon fill="#ffffff" stroke="#000000" points="557.5,-38.5 557.5,-57.5 676.5,-57.5 676.5,-38.5 557.5,-38.5"/>
<text text-anchor="middle" x="617" y="-45.5" font-family="Helvetica,sans-Serif" font-size="10.00" fill="#000000">RattletrapEngine::Color</text>
</a>
</g>
</g>
<!-- Node12&#45;&gt;Node2 -->
<g id="edge14" class="edge">
<title>Node12&#45;&gt;Node2</title>
<path fill="none" stroke="#9a32cd" stroke-dasharray="5,2" d="M686.5919,-46.8554C714.4464,-48.9174 746.0204,-54.5826 772,-68 806.446,-85.7899 833.5713,-125.0678 844.8359,-143.3225"/>
<polygon fill="#9a32cd" stroke="#9a32cd" points="686.7068,-43.3561 676.5152,-46.251 686.2877,-50.3435 686.7068,-43.3561"/>
<text text-anchor="middle" x="740" y="-71" font-family="Helvetica,sans-Serif" font-size="10.00" fill="#000000"> colorMultiplier</text>
</g>
<!-- Node13 -->
<g id="node12" class="node">
<title>Node13</title>
<polygon fill="#ffffff" stroke="#bfbfbf" points="336.5,-38.5 336.5,-57.5 413.5,-57.5 413.5,-38.5 336.5,-38.5"/>
<text text-anchor="middle" x="375" y="-45.5" font-family="Helvetica,sans-Serif" font-size="10.00" fill="#000000">unsigned char</text>
</g>
<!-- Node13&#45;&gt;Node12 -->
<g id="edge15" class="edge">
<title>Node13&#45;&gt;Node12</title>
<path fill="none" stroke="#9a32cd" stroke-dasharray="5,2" d="M424.0413,-48C462.5306,-48 516.2764,-48 557.2732,-48"/>
<polygon fill="#9a32cd" stroke="#9a32cd" points="423.6132,-44.5001 413.6132,-48 423.6132,-51.5001 423.6132,-44.5001"/>
<text text-anchor="middle" x="497" y="-84" font-family="Helvetica,sans-Serif" font-size="10.00" fill="#000000"> g</text>
<text text-anchor="middle" x="497" y="-73" font-family="Helvetica,sans-Serif" font-size="10.00" fill="#000000">a</text>
<text text-anchor="middle" x="497" y="-62" font-family="Helvetica,sans-Serif" font-size="10.00" fill="#000000">r</text>
<text text-anchor="middle" x="497" y="-51" font-family="Helvetica,sans-Serif" font-size="10.00" fill="#000000">b</text>
</g>
<!-- Node14 -->
<g id="node13" class="node">
<title>Node14</title>
<polygon fill="#ffffff" stroke="#bfbfbf" points="572,-.5 572,-19.5 662,-19.5 662,-.5 572,-.5"/>
<text text-anchor="middle" x="617" y="-7.5" font-family="Helvetica,sans-Serif" font-size="10.00" fill="#000000">SDL_BlendMode</text>
</g>
<!-- Node14&#45;&gt;Node2 -->
<g id="edge16" class="edge">
<title>Node14&#45;&gt;Node2</title>
<path fill="none" stroke="#9a32cd" stroke-dasharray="5,2" d="M672.4806,-7.8785C703.9011,-9.1699 742.6614,-15.1684 772,-34 814.2818,-61.1394 838.8681,-120.0645 847.236,-143.3"/>
<polygon fill="#9a32cd" stroke="#9a32cd" points="672.2182,-4.3706 662.1305,-7.6093 672.0361,-11.3682 672.2182,-4.3706"/>
<text text-anchor="middle" x="740" y="-37" font-family="Helvetica,sans-Serif" font-size="10.00" fill="#000000"> blendMode</text>
</g>
</g>
</svg>
