<?xml version="1.0" encoding="UTF-8" standalone="no"?>
<!DOCTYPE svg PUBLIC "-//W3C//DTD SVG 1.1//EN"
 "http://www.w3.org/Graphics/SVG/1.1/DTD/svg11.dtd">
<!-- Generated by graphviz version 2.38.0 (20140413.2041)
 -->
<!-- Title: TileSet Pages: 1 -->
<svg width="605pt" height="319pt"
 viewBox="0.00 0.00 604.50 319.00" xmlns="http://www.w3.org/2000/svg" xmlns:xlink="http://www.w3.org/1999/xlink">
<g id="graph0" class="graph" transform="scale(1 1) rotate(0) translate(4 315)">
<title>TileSet</title>
<polygon fill="white" stroke="none" points="-4,4 -4,-315 600.5,-315 600.5,4 -4,4"/>
<!-- Node1 -->
<g id="node1" class="node"><title>Node1</title>
<polygon fill="#bfbfbf" stroke="black" points="57,-0.5 57,-19.5 104,-19.5 104,-0.5 57,-0.5"/>
<text text-anchor="middle" x="80.5" y="-7.5" font-family="Helvetica,sans-Serif" font-size="10.00">TileSet</text>
</g>
<!-- Node2 -->
<g id="node2" class="node"><title>Node2</title>
<g id="a_node2"><a xlink:href="classSprite.html" target="_top" xlink:title="Classe que modela uma sprite. ">
<polygon fill="white" stroke="black" points="227.5,-79.5 227.5,-98.5 269.5,-98.5 269.5,-79.5 227.5,-79.5"/>
<text text-anchor="middle" x="248.5" y="-86.5" font-family="Helvetica,sans-Serif" font-size="10.00">Sprite</text>
</a>
</g>
</g>
<!-- Node2&#45;&gt;Node1 -->
<g id="edge1" class="edge"><title>Node2&#45;&gt;Node1</title>
<path fill="none" stroke="#9a32cd" stroke-dasharray="5,2" d="M220.407,-75.1241C185.993,-59.351 128.649,-33.0682 99.2042,-19.5728"/>
<polygon fill="#9a32cd" stroke="#9a32cd" points="219.33,-78.4806 229.879,-79.4655 222.247,-72.1171 219.33,-78.4806"/>
<text text-anchor="middle" x="175" y="-41" font-family="Helvetica,sans-Serif" font-size="10.00"> tileSet</text>
</g>
<!-- Node3 -->
<g id="node3" class="node"><title>Node3</title>
<polygon fill="white" stroke="#bfbfbf" points="526,-191.5 526,-210.5 561,-210.5 561,-191.5 526,-191.5"/>
<text text-anchor="middle" x="543.5" y="-198.5" font-family="Helvetica,sans-Serif" font-size="10.00">float</text>
</g>
<!-- Node3&#45;&gt;Node2 -->
<g id="edge2" class="edge"><title>Node3&#45;&gt;Node2</title>
<path fill="none" stroke="#9a32cd" stroke-dasharray="5,2" d="M543.018,-181.428C541.535,-165.082 536.658,-141.927 521.5,-129 483.614,-96.691 327.07,-91.138 269.698,-90.1915"/>
<polygon fill="#9a32cd" stroke="#9a32cd" points="539.526,-181.663 543.587,-191.448 546.514,-181.266 539.526,-181.663"/>
<text text-anchor="middle" x="569" y="-165" font-family="Helvetica,sans-Serif" font-size="10.00"> scaleY</text>
<text text-anchor="middle" x="569" y="-154" font-family="Helvetica,sans-Serif" font-size="10.00">frameTime</text>
<text text-anchor="middle" x="569" y="-143" font-family="Helvetica,sans-Serif" font-size="10.00">timeElapsed</text>
<text text-anchor="middle" x="569" y="-132" font-family="Helvetica,sans-Serif" font-size="10.00">scaleX</text>
</g>
<!-- Node4 -->
<g id="node4" class="node"><title>Node4</title>
<polygon fill="white" stroke="#bfbfbf" points="47.5,-191.5 47.5,-210.5 109.5,-210.5 109.5,-191.5 47.5,-191.5"/>
<text text-anchor="middle" x="78.5" y="-198.5" font-family="Helvetica,sans-Serif" font-size="10.00">SDL_Rect</text>
</g>
<!-- Node4&#45;&gt;Node2 -->
<g id="edge3" class="edge"><title>Node4&#45;&gt;Node2</title>
<path fill="none" stroke="#9a32cd" stroke-dasharray="5,2" d="M95.1772,-184.545C112.239,-169.229 139.939,-145.705 166.5,-129 186.116,-116.663 210.242,-105.635 227.231,-98.4803"/>
<polygon fill="#9a32cd" stroke="#9a32cd" points="92.751,-182.02 87.7078,-191.338 97.4608,-187.199 92.751,-182.02"/>
<text text-anchor="middle" x="186.5" y="-148.5" font-family="Helvetica,sans-Serif" font-size="10.00"> clipRect</text>
</g>
<!-- Node5 -->
<g id="node5" class="node"><title>Node5</title>
<polygon fill="white" stroke="#bfbfbf" points="0,-191.5 0,-210.5 29,-210.5 29,-191.5 0,-191.5"/>
<text text-anchor="middle" x="14.5" y="-198.5" font-family="Helvetica,sans-Serif" font-size="10.00">int</text>
</g>
<!-- Node5&#45;&gt;Node1 -->
<g id="edge10" class="edge"><title>Node5&#45;&gt;Node1</title>
<path fill="none" stroke="#9a32cd" stroke-dasharray="5,2" d="M17.0942,-180.913C19.3388,-166.455 23.084,-146.211 28.5,-129 41.8731,-86.5042 65.8769,-38.773 75.9031,-19.6245"/>
<polygon fill="#9a32cd" stroke="#9a32cd" points="13.5884,-180.7 15.6125,-191.1 20.5156,-181.708 13.5884,-180.7"/>
<text text-anchor="middle" x="76" y="-103" font-family="Helvetica,sans-Serif" font-size="10.00"> tileHeight</text>
<text text-anchor="middle" x="76" y="-92" font-family="Helvetica,sans-Serif" font-size="10.00">rows</text>
<text text-anchor="middle" x="76" y="-81" font-family="Helvetica,sans-Serif" font-size="10.00">tileWidth</text>
<text text-anchor="middle" x="76" y="-70" font-family="Helvetica,sans-Serif" font-size="10.00">columns</text>
</g>
<!-- Node5&#45;&gt;Node2 -->
<g id="edge4" class="edge"><title>Node5&#45;&gt;Node2</title>
<path fill="none" stroke="#9a32cd" stroke-dasharray="5,2" d="M21.8334,-182.061C30.1033,-162.209 42.9866,-132.53 47.5,-129 75.3612,-107.212 181.364,-95.7313 227.187,-91.6989"/>
<polygon fill="#9a32cd" stroke="#9a32cd" points="18.577,-180.777 17.998,-191.356 25.0478,-183.447 18.577,-180.777"/>
<text text-anchor="middle" x="76.5" y="-165" font-family="Helvetica,sans-Serif" font-size="10.00"> width</text>
<text text-anchor="middle" x="76.5" y="-154" font-family="Helvetica,sans-Serif" font-size="10.00">currentFrame</text>
<text text-anchor="middle" x="76.5" y="-143" font-family="Helvetica,sans-Serif" font-size="10.00">height</text>
<text text-anchor="middle" x="76.5" y="-132" font-family="Helvetica,sans-Serif" font-size="10.00">frameCount</text>
</g>
<!-- Node6 -->
<g id="node6" class="node"><title>Node6</title>
<polygon fill="white" stroke="#bfbfbf" points="127.5,-191.5 127.5,-210.5 265.5,-210.5 265.5,-191.5 127.5,-191.5"/>
<text text-anchor="middle" x="196.5" y="-198.5" font-family="Helvetica,sans-Serif" font-size="10.00">shared_ptr&lt; SDL_Texture &gt;</text>
</g>
<!-- Node6&#45;&gt;Node2 -->
<g id="edge5" class="edge"><title>Node6&#45;&gt;Node2</title>
<path fill="none" stroke="#9a32cd" stroke-dasharray="5,2" d="M204.858,-182.32C216.18,-158.37 235.95,-116.548 244.439,-98.5914"/>
<polygon fill="#9a32cd" stroke="#9a32cd" points="201.69,-180.832 200.58,-191.368 208.018,-183.824 201.69,-180.832"/>
<text text-anchor="middle" x="246.5" y="-148.5" font-family="Helvetica,sans-Serif" font-size="10.00"> texture</text>
</g>
<!-- Node7 -->
<g id="node7" class="node"><title>Node7</title>
<polygon fill="white" stroke="#bfbfbf" points="284,-191.5 284,-210.5 319,-210.5 319,-191.5 284,-191.5"/>
<text text-anchor="middle" x="301.5" y="-198.5" font-family="Helvetica,sans-Serif" font-size="10.00">bool</text>
</g>
<!-- Node7&#45;&gt;Node2 -->
<g id="edge6" class="edge"><title>Node7&#45;&gt;Node2</title>
<path fill="none" stroke="#9a32cd" stroke-dasharray="5,2" d="M292.933,-182.024C286.078,-167.662 276.206,-147.023 267.5,-129 262.455,-118.556 256.604,-106.564 252.743,-98.6662"/>
<polygon fill="#9a32cd" stroke="#9a32cd" points="289.867,-183.727 297.331,-191.247 296.186,-180.714 289.867,-183.727"/>
<text text-anchor="middle" x="318.5" y="-148.5" font-family="Helvetica,sans-Serif" font-size="10.00"> highlightable</text>
</g>
<!-- Node8 -->
<g id="node8" class="node"><title>Node8</title>
<polygon fill="white" stroke="#bfbfbf" points="337.5,-191.5 337.5,-210.5 427.5,-210.5 427.5,-191.5 337.5,-191.5"/>
<text text-anchor="middle" x="382.5" y="-198.5" font-family="Helvetica,sans-Serif" font-size="10.00">SDL_BlendMode</text>
</g>
<!-- Node8&#45;&gt;Node2 -->
<g id="edge7" class="edge"><title>Node8&#45;&gt;Node2</title>
<path fill="none" stroke="#9a32cd" stroke-dasharray="5,2" d="M378.703,-181.579C374.543,-165.702 366.384,-143.162 351.5,-129 328.644,-107.253 292.462,-97.3375 269.628,-93.0365"/>
<polygon fill="#9a32cd" stroke="#9a32cd" points="375.296,-182.38 380.978,-191.322 382.112,-180.788 375.296,-182.38"/>
<text text-anchor="middle" x="402" y="-148.5" font-family="Helvetica,sans-Serif" font-size="10.00"> blendMode</text>
</g>
<!-- Node9 -->
<g id="node9" class="node"><title>Node9</title>
<g id="a_node9"><a xlink:href="structColor.html" target="_top" xlink:title="Struct para armazenar informações de cor. ">
<polygon fill="white" stroke="black" points="445.5,-191.5 445.5,-210.5 485.5,-210.5 485.5,-191.5 445.5,-191.5"/>
<text text-anchor="middle" x="465.5" y="-198.5" font-family="Helvetica,sans-Serif" font-size="10.00">Color</text>
</a>
</g>
</g>
<!-- Node9&#45;&gt;Node2 -->
<g id="edge8" class="edge"><title>Node9&#45;&gt;Node2</title>
<path fill="none" stroke="#9a32cd" stroke-dasharray="5,2" d="M458.973,-181.976C451.867,-163.324 440.337,-135.959 431.5,-129 406.49,-109.304 312.505,-96.9064 269.824,-92.177"/>
<polygon fill="#9a32cd" stroke="#9a32cd" points="455.745,-183.337 462.506,-191.493 462.307,-180.9 455.745,-183.337"/>
<text text-anchor="middle" x="487.5" y="-148.5" font-family="Helvetica,sans-Serif" font-size="10.00"> colorMultiplier</text>
</g>
<!-- Node10 -->
<g id="node10" class="node"><title>Node10</title>
<polygon fill="white" stroke="#bfbfbf" points="427,-291.5 427,-310.5 504,-310.5 504,-291.5 427,-291.5"/>
<text text-anchor="middle" x="465.5" y="-298.5" font-family="Helvetica,sans-Serif" font-size="10.00">unsigned char</text>
</g>
<!-- Node10&#45;&gt;Node9 -->
<g id="edge9" class="edge"><title>Node10&#45;&gt;Node9</title>
<path fill="none" stroke="#9a32cd" stroke-dasharray="5,2" d="M465.5,-281.22C465.5,-259.951 465.5,-226.22 465.5,-210.537"/>
<polygon fill="#9a32cd" stroke="#9a32cd" points="462,-281.303 465.5,-291.303 469,-281.303 462,-281.303"/>
<text text-anchor="middle" x="470" y="-265" font-family="Helvetica,sans-Serif" font-size="10.00"> g</text>
<text text-anchor="middle" x="470" y="-254" font-family="Helvetica,sans-Serif" font-size="10.00">a</text>
<text text-anchor="middle" x="470" y="-243" font-family="Helvetica,sans-Serif" font-size="10.00">r</text>
<text text-anchor="middle" x="470" y="-232" font-family="Helvetica,sans-Serif" font-size="10.00">b</text>
</g>
</g>
</svg>
