<?xml version="1.0" encoding="UTF-8" standalone="no"?>
<!DOCTYPE svg PUBLIC "-//W3C//DTD SVG 1.1//EN"
 "http://www.w3.org/Graphics/SVG/1.1/DTD/svg11.dtd">
<!-- Generated by graphviz version 2.40.1 (20161225.0304)
 -->
<!-- Title: RattletrapEngine::Sound Pages: 1 -->
<svg width="186pt" height="95pt"
 viewBox="0.00 0.00 185.50 95.00" xmlns="http://www.w3.org/2000/svg" xmlns:xlink="http://www.w3.org/1999/xlink">
<g id="graph0" class="graph" transform="scale(1 1) rotate(0) translate(4 91)">
<title>RattletrapEngine::Sound</title>
<polygon fill="#ffffff" stroke="transparent" points="-4,4 -4,-91 181.5,-91 181.5,4 -4,4"/>
<!-- Node1 -->
<g id="node1" class="node">
<title>Node1</title>
<polygon fill="#bfbfbf" stroke="#000000" points="2,-.5 2,-19.5 125,-19.5 125,-.5 2,-.5"/>
<text text-anchor="middle" x="63.5" y="-7.5" font-family="Helvetica,sans-Serif" font-size="10.00" fill="#000000">RattletrapEngine::Sound</text>
</g>
<!-- Node2 -->
<g id="node2" class="node">
<title>Node2</title>
<polygon fill="#ffffff" stroke="#bfbfbf" points="0,-67.5 0,-86.5 29,-86.5 29,-67.5 0,-67.5"/>
<text text-anchor="middle" x="14.5" y="-74.5" font-family="Helvetica,sans-Serif" font-size="10.00" fill="#000000">int</text>
</g>
<!-- Node2&#45;&gt;Node1 -->
<g id="edge1" class="edge">
<title>Node2&#45;&gt;Node1</title>
<path fill="none" stroke="#9a32cd" stroke-dasharray="5,2" d="M27.6786,-58.9803C36.9531,-46.2989 49.0022,-29.8235 56.4925,-19.5817"/>
<polygon fill="#9a32cd" stroke="#9a32cd" points="24.5986,-57.2627 21.5205,-67.4005 30.2488,-61.3949 24.5986,-57.2627"/>
<text text-anchor="middle" x="61" y="-41" font-family="Helvetica,sans-Serif" font-size="10.00" fill="#000000"> channel</text>
</g>
<!-- Node3 -->
<g id="node3" class="node">
<title>Node3</title>
<polygon fill="#ffffff" stroke="#bfbfbf" points="47.5,-67.5 47.5,-86.5 177.5,-86.5 177.5,-67.5 47.5,-67.5"/>
<text text-anchor="middle" x="112.5" y="-74.5" font-family="Helvetica,sans-Serif" font-size="10.00" fill="#000000">shared_ptr&lt; Mix_Chunk &gt;</text>
</g>
<!-- Node3&#45;&gt;Node1 -->
<g id="edge2" class="edge">
<title>Node3&#45;&gt;Node1</title>
<path fill="none" stroke="#9a32cd" stroke-dasharray="5,2" d="M99.3214,-58.9803C90.0469,-46.2989 77.9978,-29.8235 70.5075,-19.5817"/>
<polygon fill="#9a32cd" stroke="#9a32cd" points="96.7512,-61.3949 105.4795,-67.4005 102.4014,-57.2627 96.7512,-61.3949"/>
<text text-anchor="middle" x="105.5" y="-41" font-family="Helvetica,sans-Serif" font-size="10.00" fill="#000000"> sound</text>
</g>
</g>
</svg>
