<?xml version="1.0" encoding="UTF-8" standalone="no"?>
<!DOCTYPE svg PUBLIC "-//W3C//DTD SVG 1.1//EN"
 "http://www.w3.org/Graphics/SVG/1.1/DTD/svg11.dtd">
<!-- Generated by graphviz version 2.38.0 (20140413.2041)
 -->
<!-- Title: Component Pages: 1 -->
<svg width="350pt" height="286pt"
 viewBox="0.00 0.00 350.00 286.00" xmlns="http://www.w3.org/2000/svg" xmlns:xlink="http://www.w3.org/1999/xlink">
<g id="graph0" class="graph" transform="scale(1 1) rotate(0) translate(4 282)">
<title>Component</title>
<polygon fill="white" stroke="none" points="-4,4 -4,-282 346,-282 346,4 -4,4"/>
<!-- Node9 -->
<g id="node1" class="node"><title>Node9</title>
<polygon fill="#bfbfbf" stroke="black" points="220.5,-0.5 220.5,-19.5 287.5,-19.5 287.5,-0.5 220.5,-0.5"/>
<text text-anchor="middle" x="254" y="-7.5" font-family="Helvetica,sans-Serif" font-size="10.00">Component</text>
</g>
<!-- Node10 -->
<g id="node2" class="node"><title>Node10</title>
<g id="a_node2"><a xlink:href="classGameObject.html" target="_top" xlink:title="Classe virtual que especifica o funcionamento de um GameObject. ">
<polygon fill="white" stroke="black" points="149.5,-68.5 149.5,-87.5 220.5,-87.5 220.5,-68.5 149.5,-68.5"/>
<text text-anchor="middle" x="185" y="-75.5" font-family="Helvetica,sans-Serif" font-size="10.00">GameObject</text>
</a>
</g>
</g>
<!-- Node10&#45;&gt;Node9 -->
<g id="edge1" class="edge"><title>Node10&#45;&gt;Node9</title>
<path fill="none" stroke="#9a32cd" stroke-dasharray="5,2" d="M200.219,-60.7919C207.054,-53.6676 215.298,-45.2828 223,-38 229.741,-31.6251 237.63,-24.7621 243.763,-19.5507"/>
<polygon fill="#9a32cd" stroke="#9a32cd" points="197.309,-58.7735 192.96,-68.4347 202.384,-63.5941 197.309,-58.7735"/>
<text text-anchor="middle" x="248.5" y="-41" font-family="Helvetica,sans-Serif" font-size="10.00"> associated</text>
</g>
<!-- Node11 -->
<g id="node3" class="node"><title>Node11</title>
<polygon fill="white" stroke="#bfbfbf" points="0,-158.5 0,-177.5 116,-177.5 116,-158.5 0,-158.5"/>
<text text-anchor="middle" x="58" y="-165.5" font-family="Helvetica,sans-Serif" font-size="10.00">vector&lt; Component *&gt;</text>
</g>
<!-- Node11&#45;&gt;Node10 -->
<g id="edge2" class="edge"><title>Node11&#45;&gt;Node10</title>
<path fill="none" stroke="#9a32cd" stroke-dasharray="5,2" d="M60.6114,-148.267C63.4312,-134.956 69.2209,-117.624 81,-107 99.6063,-90.2189 127.229,-83.3338 149.331,-80.5828"/>
<polygon fill="#9a32cd" stroke="#9a32cd" points="57.1375,-147.815 58.875,-158.267 64.0343,-149.013 57.1375,-147.815"/>
<text text-anchor="middle" x="109.5" y="-121" font-family="Helvetica,sans-Serif" font-size="10.00"> components</text>
</g>
<!-- Node12 -->
<g id="node4" class="node"><title>Node12</title>
<g id="a_node4"><a xlink:href="classRect.html" target="_top" xlink:title="Classe que modela um rect. ">
<polygon fill="white" stroke="black" points="206,-158.5 206,-177.5 244,-177.5 244,-158.5 206,-158.5"/>
<text text-anchor="middle" x="225" y="-165.5" font-family="Helvetica,sans-Serif" font-size="10.00">Rect</text>
</a>
</g>
</g>
<!-- Node12&#45;&gt;Node10 -->
<g id="edge3" class="edge"><title>Node12&#45;&gt;Node10</title>
<path fill="none" stroke="#9a32cd" stroke-dasharray="5,2" d="M197.456,-153.004C192.864,-149.406 188.717,-145.084 186,-140 177.114,-123.372 180.101,-100.377 182.747,-87.9071"/>
<polygon fill="#9a32cd" stroke="#9a32cd" points="195.73,-156.059 205.989,-158.703 199.618,-150.238 195.73,-156.059"/>
<text text-anchor="middle" x="195.5" y="-121" font-family="Helvetica,sans-Serif" font-size="10.00"> box</text>
</g>
<!-- Node13 -->
<g id="node5" class="node"><title>Node13</title>
<polygon fill="white" stroke="#bfbfbf" points="160.5,-258.5 160.5,-277.5 195.5,-277.5 195.5,-258.5 160.5,-258.5"/>
<text text-anchor="middle" x="178" y="-265.5" font-family="Helvetica,sans-Serif" font-size="10.00">float</text>
</g>
<!-- Node13&#45;&gt;Node10 -->
<g id="edge5" class="edge"><title>Node13&#45;&gt;Node10</title>
<path fill="none" stroke="#9a32cd" stroke-dasharray="5,2" d="M171.741,-248.701C165.126,-227.056 156.257,-189.927 161,-158 164.918,-131.628 175.812,-101.874 181.477,-87.5744"/>
<polygon fill="#9a32cd" stroke="#9a32cd" points="168.42,-249.807 174.824,-258.247 175.081,-247.655 168.42,-249.807"/>
<text text-anchor="middle" x="179" y="-165.5" font-family="Helvetica,sans-Serif" font-size="10.00"> rotation</text>
</g>
<!-- Node13&#45;&gt;Node12 -->
<g id="edge4" class="edge"><title>Node13&#45;&gt;Node12</title>
<path fill="none" stroke="#9a32cd" stroke-dasharray="5,2" d="M186.587,-249.095C196.758,-227.887 213.28,-193.436 220.906,-177.537"/>
<polygon fill="#9a32cd" stroke="#9a32cd" points="183.339,-247.773 182.171,-258.303 189.651,-250.8 183.339,-247.773"/>
<text text-anchor="middle" x="217.5" y="-232" font-family="Helvetica,sans-Serif" font-size="10.00"> w</text>
<text text-anchor="middle" x="217.5" y="-221" font-family="Helvetica,sans-Serif" font-size="10.00">x</text>
<text text-anchor="middle" x="217.5" y="-210" font-family="Helvetica,sans-Serif" font-size="10.00">h</text>
<text text-anchor="middle" x="217.5" y="-199" font-family="Helvetica,sans-Serif" font-size="10.00">y</text>
</g>
<!-- Node14 -->
<g id="node6" class="node"><title>Node14</title>
<polygon fill="white" stroke="#bfbfbf" points="266.5,-158.5 266.5,-177.5 301.5,-177.5 301.5,-158.5 266.5,-158.5"/>
<text text-anchor="middle" x="284" y="-165.5" font-family="Helvetica,sans-Serif" font-size="10.00">bool</text>
</g>
<!-- Node14&#45;&gt;Node9 -->
<g id="edge7" class="edge"><title>Node14&#45;&gt;Node9</title>
<path fill="none" stroke="#9a32cd" stroke-dasharray="5,2" d="M285.732,-147.948C287.372,-122.141 287.836,-75.0441 274,-38 271.469,-31.2238 266.698,-24.6773 262.45,-19.7278"/>
<polygon fill="#9a32cd" stroke="#9a32cd" points="282.221,-147.956 284.943,-158.195 289.201,-148.493 282.221,-147.956"/>
<text text-anchor="middle" x="313.5" y="-81" font-family="Helvetica,sans-Serif" font-size="10.00"> newEnabled</text>
<text text-anchor="middle" x="313.5" y="-70" font-family="Helvetica,sans-Serif" font-size="10.00">enabled</text>
</g>
<!-- Node14&#45;&gt;Node10 -->
<g id="edge6" class="edge"><title>Node14&#45;&gt;Node10</title>
<path fill="none" stroke="#9a32cd" stroke-dasharray="5,2" d="M256.898,-157.29C247.128,-152.961 236.441,-147.193 228,-140 214.392,-128.405 215.307,-121.607 205,-107 200.454,-100.557 195.279,-93.314 191.332,-87.809"/>
<polygon fill="#9a32cd" stroke="#9a32cd" points="255.665,-160.567 266.244,-161.138 258.33,-154.094 255.665,-160.567"/>
<text text-anchor="middle" x="251" y="-132" font-family="Helvetica,sans-Serif" font-size="10.00"> dead</text>
<text text-anchor="middle" x="251" y="-121" font-family="Helvetica,sans-Serif" font-size="10.00">active</text>
<text text-anchor="middle" x="251" y="-110" font-family="Helvetica,sans-Serif" font-size="10.00">newActive</text>
</g>
</g>
</svg>
