<?xml version="1.0" encoding="UTF-8" standalone="no"?>
<!DOCTYPE svg PUBLIC "-//W3C//DTD SVG 1.1//EN"
 "http://www.w3.org/Graphics/SVG/1.1/DTD/svg11.dtd">
<!-- Generated by graphviz version 2.40.1 (20161225.0304)
 -->
<!-- Title: RattletrapEngine::Resources Pages: 1 -->
<svg width="369pt" height="268pt"
 viewBox="0.00 0.00 369.00 268.00" xmlns="http://www.w3.org/2000/svg" xmlns:xlink="http://www.w3.org/1999/xlink">
<g id="graph0" class="graph" transform="scale(1 1) rotate(0) translate(4 264)">
<title>RattletrapEngine::Resources</title>
<polygon fill="#ffffff" stroke="transparent" points="-4,4 -4,-264 365,-264 365,4 -4,4"/>
<!-- Node1 -->
<g id="node1" class="node">
<title>Node1</title>
<polygon fill="#bfbfbf" stroke="#000000" points="218,-120.5 218,-139.5 361,-139.5 361,-120.5 218,-120.5"/>
<text text-anchor="middle" x="289.5" y="-127.5" font-family="Helvetica,sans-Serif" font-size="10.00" fill="#000000">RattletrapEngine::Resources</text>
</g>
<!-- Node2 -->
<g id="node2" class="node">
<title>Node2</title>
<polygon fill="#ffffff" stroke="#bfbfbf" points="0,-218.5 0,-259.5 119,-259.5 119,-218.5 0,-218.5"/>
<text text-anchor="start" x="8" y="-247.5" font-family="Helvetica,sans-Serif" font-size="10.00" fill="#000000">unordered_map&lt; string,</text>
<text text-anchor="start" x="8" y="-236.5" font-family="Helvetica,sans-Serif" font-size="10.00" fill="#000000"> std::shared_ptr&lt; SDL</text>
<text text-anchor="middle" x="59.5" y="-225.5" font-family="Helvetica,sans-Serif" font-size="10.00" fill="#000000">_Texture &gt; &gt;</text>
</g>
<!-- Node2&#45;&gt;Node1 -->
<g id="edge1" class="edge">
<title>Node2&#45;&gt;Node1</title>
<path fill="none" stroke="#9a32cd" stroke-dasharray="5,2" d="M124.7125,-214.7587C148.7093,-205.2625 175.9005,-193.8164 200,-182 226.9459,-168.788 256.8227,-150.6848 274.3397,-139.6943"/>
<polygon fill="#9a32cd" stroke="#9a32cd" points="123.3722,-211.5247 115.3399,-218.4336 125.9274,-218.0417 123.3722,-211.5247"/>
<text text-anchor="middle" x="168.5" y="-211" font-family="Helvetica,sans-Serif" font-size="10.00" fill="#000000"> imageTable</text>
</g>
<!-- Node3 -->
<g id="node3" class="node">
<title>Node3</title>
<polygon fill="#ffffff" stroke="#bfbfbf" points="0,-158.5 0,-199.5 119,-199.5 119,-158.5 0,-158.5"/>
<text text-anchor="start" x="8" y="-187.5" font-family="Helvetica,sans-Serif" font-size="10.00" fill="#000000">unordered_map&lt; string,</text>
<text text-anchor="start" x="8" y="-176.5" font-family="Helvetica,sans-Serif" font-size="10.00" fill="#000000"> std::shared_ptr&lt; TTF</text>
<text text-anchor="middle" x="59.5" y="-165.5" font-family="Helvetica,sans-Serif" font-size="10.00" fill="#000000">_Font &gt; &gt;</text>
</g>
<!-- Node3&#45;&gt;Node1 -->
<g id="edge2" class="edge">
<title>Node3&#45;&gt;Node1</title>
<path fill="none" stroke="#9a32cd" stroke-dasharray="5,2" d="M129.1762,-169.2935C151.8718,-165.6797 177.1099,-161.1786 200,-156 220.2006,-151.4299 242.5756,-144.9299 259.9005,-139.5724"/>
<polygon fill="#9a32cd" stroke="#9a32cd" points="128.6235,-165.8373 119.2835,-170.8389 129.7039,-172.7535 128.6235,-165.8373"/>
<text text-anchor="middle" x="168.5" y="-170" font-family="Helvetica,sans-Serif" font-size="10.00" fill="#000000"> fontTable</text>
</g>
<!-- Node4 -->
<g id="node4" class="node">
<title>Node4</title>
<polygon fill="#ffffff" stroke="#bfbfbf" points="45,-120.5 45,-139.5 74,-139.5 74,-120.5 45,-120.5"/>
<text text-anchor="middle" x="59.5" y="-127.5" font-family="Helvetica,sans-Serif" font-size="10.00" fill="#000000">int</text>
</g>
<!-- Node4&#45;&gt;Node1 -->
<g id="edge3" class="edge">
<title>Node4&#45;&gt;Node1</title>
<path fill="none" stroke="#9a32cd" stroke-dasharray="5,2" d="M84.3759,-130C116.0857,-130 172.2561,-130 217.8091,-130"/>
<polygon fill="#9a32cd" stroke="#9a32cd" points="84.2375,-126.5001 74.2374,-130 84.2374,-133.5001 84.2375,-126.5001"/>
<text text-anchor="middle" x="168.5" y="-144" font-family="Helvetica,sans-Serif" font-size="10.00" fill="#000000"> musicVolume</text>
<text text-anchor="middle" x="168.5" y="-133" font-family="Helvetica,sans-Serif" font-size="10.00" fill="#000000">soundVolume</text>
</g>
<!-- Node5 -->
<g id="node5" class="node">
<title>Node5</title>
<polygon fill="#ffffff" stroke="#bfbfbf" points="0,-60.5 0,-101.5 119,-101.5 119,-60.5 0,-60.5"/>
<text text-anchor="start" x="8" y="-89.5" font-family="Helvetica,sans-Serif" font-size="10.00" fill="#000000">unordered_map&lt; string,</text>
<text text-anchor="start" x="8" y="-78.5" font-family="Helvetica,sans-Serif" font-size="10.00" fill="#000000"> std::shared_ptr&lt; Mix</text>
<text text-anchor="middle" x="59.5" y="-67.5" font-family="Helvetica,sans-Serif" font-size="10.00" fill="#000000">_Music &gt; &gt;</text>
</g>
<!-- Node5&#45;&gt;Node1 -->
<g id="edge4" class="edge">
<title>Node5&#45;&gt;Node1</title>
<path fill="none" stroke="#9a32cd" stroke-dasharray="5,2" d="M128.9073,-95.7868C166.4987,-103.7954 211.8453,-113.4562 244.7513,-120.4666"/>
<polygon fill="#9a32cd" stroke="#9a32cd" points="129.5396,-92.343 119.0298,-93.6824 128.081,-99.1894 129.5396,-92.343"/>
<text text-anchor="middle" x="168.5" y="-112" font-family="Helvetica,sans-Serif" font-size="10.00" fill="#000000"> musicTable</text>
</g>
<!-- Node6 -->
<g id="node6" class="node">
<title>Node6</title>
<polygon fill="#ffffff" stroke="#bfbfbf" points="0,-.5 0,-41.5 119,-41.5 119,-.5 0,-.5"/>
<text text-anchor="start" x="8" y="-29.5" font-family="Helvetica,sans-Serif" font-size="10.00" fill="#000000">unordered_map&lt; string,</text>
<text text-anchor="start" x="8" y="-18.5" font-family="Helvetica,sans-Serif" font-size="10.00" fill="#000000"> std::shared_ptr&lt; Mix</text>
<text text-anchor="middle" x="59.5" y="-7.5" font-family="Helvetica,sans-Serif" font-size="10.00" fill="#000000">_Chunk &gt; &gt;</text>
</g>
<!-- Node6&#45;&gt;Node1 -->
<g id="edge5" class="edge">
<title>Node6&#45;&gt;Node1</title>
<path fill="none" stroke="#9a32cd" stroke-dasharray="5,2" d="M117.8157,-45.6771C143.2388,-56.7064 173.2781,-70.1061 200,-83 225.4485,-95.2795 254.2869,-110.7032 272.1858,-120.4596"/>
<polygon fill="#9a32cd" stroke="#9a32cd" points="118.8826,-42.3254 108.3146,-41.5721 116.1062,-48.7513 118.8826,-42.3254"/>
<text text-anchor="middle" x="168.5" y="-86" font-family="Helvetica,sans-Serif" font-size="10.00" fill="#000000"> soundTable</text>
</g>
</g>
</svg>
