<?xml version="1.0" encoding="UTF-8" standalone="no"?>
<!DOCTYPE svg PUBLIC "-//W3C//DTD SVG 1.1//EN"
 "http://www.w3.org/Graphics/SVG/1.1/DTD/svg11.dtd">
<!-- Generated by graphviz version 2.38.0 (20140413.2041)
 -->
<!-- Title: GameObject Pages: 1 -->
<svg width="317pt" height="217pt"
 viewBox="0.00 0.00 317.00 217.00" xmlns="http://www.w3.org/2000/svg" xmlns:xlink="http://www.w3.org/1999/xlink">
<g id="graph0" class="graph" transform="scale(1 1) rotate(0) translate(4 213)">
<title>GameObject</title>
<polygon fill="white" stroke="none" points="-4,4 -4,-213 313,-213 313,4 -4,4"/>
<!-- Node2 -->
<g id="node1" class="node"><title>Node2</title>
<polygon fill="#bfbfbf" stroke="black" points="142.5,-0.5 142.5,-19.5 213.5,-19.5 213.5,-0.5 142.5,-0.5"/>
<text text-anchor="middle" x="178" y="-7.5" font-family="Helvetica,sans-Serif" font-size="10.00">GameObject</text>
</g>
<!-- Node3 -->
<g id="node2" class="node"><title>Node3</title>
<polygon fill="white" stroke="#bfbfbf" points="0,-89.5 0,-108.5 116,-108.5 116,-89.5 0,-89.5"/>
<text text-anchor="middle" x="58" y="-96.5" font-family="Helvetica,sans-Serif" font-size="10.00">vector&lt; Component *&gt;</text>
</g>
<!-- Node3&#45;&gt;Node2 -->
<g id="edge1" class="edge"><title>Node3&#45;&gt;Node2</title>
<path fill="none" stroke="#9a32cd" stroke-dasharray="5,2" d="M60.6382,-79.2962C63.4714,-65.9999 69.2661,-48.6735 81,-38 97.6811,-22.8264 122.181,-16.0891 142.384,-13.1387"/>
<polygon fill="#9a32cd" stroke="#9a32cd" points="57.1668,-78.8289 58.8895,-89.2828 64.0619,-80.0364 57.1668,-78.8289"/>
<text text-anchor="middle" x="109.5" y="-52" font-family="Helvetica,sans-Serif" font-size="10.00"> components</text>
</g>
<!-- Node4 -->
<g id="node3" class="node"><title>Node4</title>
<g id="a_node3"><a xlink:href="classRect.html" target="_top" xlink:title="Classe que modela um rect. ">
<polygon fill="white" stroke="black" points="206,-89.5 206,-108.5 244,-108.5 244,-89.5 206,-89.5"/>
<text text-anchor="middle" x="225" y="-96.5" font-family="Helvetica,sans-Serif" font-size="10.00">Rect</text>
</a>
</g>
</g>
<!-- Node4&#45;&gt;Node2 -->
<g id="edge2" class="edge"><title>Node4&#45;&gt;Node2</title>
<path fill="none" stroke="#9a32cd" stroke-dasharray="5,2" d="M215.538,-80.4854C205.57,-62.0344 190.283,-33.7371 182.659,-19.6249"/>
<polygon fill="#9a32cd" stroke="#9a32cd" points="212.489,-82.2054 220.322,-89.34 218.648,-78.8782 212.489,-82.2054"/>
<text text-anchor="middle" x="219.5" y="-52" font-family="Helvetica,sans-Serif" font-size="10.00"> box</text>
</g>
<!-- Node5 -->
<g id="node4" class="node"><title>Node5</title>
<polygon fill="white" stroke="#bfbfbf" points="160.5,-189.5 160.5,-208.5 195.5,-208.5 195.5,-189.5 160.5,-189.5"/>
<text text-anchor="middle" x="178" y="-196.5" font-family="Helvetica,sans-Serif" font-size="10.00">float</text>
</g>
<!-- Node5&#45;&gt;Node2 -->
<g id="edge4" class="edge"><title>Node5&#45;&gt;Node2</title>
<path fill="none" stroke="#9a32cd" stroke-dasharray="5,2" d="M172.106,-179.462C165.928,-157.83 157.559,-120.945 161,-89 163.761,-63.3695 171.484,-33.8076 175.501,-19.5574"/>
<polygon fill="#9a32cd" stroke="#9a32cd" points="168.828,-180.712 175.063,-189.277 175.53,-178.693 168.828,-180.712"/>
<text text-anchor="middle" x="179" y="-96.5" font-family="Helvetica,sans-Serif" font-size="10.00"> rotation</text>
</g>
<!-- Node5&#45;&gt;Node4 -->
<g id="edge3" class="edge"><title>Node5&#45;&gt;Node4</title>
<path fill="none" stroke="#9a32cd" stroke-dasharray="5,2" d="M186.587,-180.095C196.758,-158.887 213.28,-124.436 220.906,-108.537"/>
<polygon fill="#9a32cd" stroke="#9a32cd" points="183.339,-178.773 182.171,-189.303 189.651,-181.8 183.339,-178.773"/>
<text text-anchor="middle" x="217.5" y="-163" font-family="Helvetica,sans-Serif" font-size="10.00"> w</text>
<text text-anchor="middle" x="217.5" y="-152" font-family="Helvetica,sans-Serif" font-size="10.00">x</text>
<text text-anchor="middle" x="217.5" y="-141" font-family="Helvetica,sans-Serif" font-size="10.00">h</text>
<text text-anchor="middle" x="217.5" y="-130" font-family="Helvetica,sans-Serif" font-size="10.00">y</text>
</g>
<!-- Node6 -->
<g id="node5" class="node"><title>Node6</title>
<polygon fill="white" stroke="#bfbfbf" points="262.5,-89.5 262.5,-108.5 297.5,-108.5 297.5,-89.5 262.5,-89.5"/>
<text text-anchor="middle" x="280" y="-96.5" font-family="Helvetica,sans-Serif" font-size="10.00">bool</text>
</g>
<!-- Node6&#45;&gt;Node2 -->
<g id="edge5" class="edge"><title>Node6&#45;&gt;Node2</title>
<path fill="none" stroke="#9a32cd" stroke-dasharray="5,2" d="M269.532,-80.7148C260.974,-67.6901 247.887,-50.0711 233,-38 223.498,-30.2956 211.435,-24.0646 201.028,-19.5379"/>
<polygon fill="#9a32cd" stroke="#9a32cd" points="266.621,-82.6606 274.924,-89.2419 272.537,-78.9193 266.621,-82.6606"/>
<text text-anchor="middle" x="286" y="-63" font-family="Helvetica,sans-Serif" font-size="10.00"> dead</text>
<text text-anchor="middle" x="286" y="-52" font-family="Helvetica,sans-Serif" font-size="10.00">active</text>
<text text-anchor="middle" x="286" y="-41" font-family="Helvetica,sans-Serif" font-size="10.00">newActive</text>
</g>
</g>
</svg>
