<?xml version="1.0" encoding="UTF-8" standalone="no"?>
<!DOCTYPE svg PUBLIC "-//W3C//DTD SVG 1.1//EN"
 "http://www.w3.org/Graphics/SVG/1.1/DTD/svg11.dtd">
<!-- Generated by graphviz version 2.40.1 (20161225.0304)
 -->
<!-- Title: RattletrapEngine::Component Pages: 1 -->
<svg width="473pt" height="297pt"
 viewBox="0.00 0.00 472.50 297.00" xmlns="http://www.w3.org/2000/svg" xmlns:xlink="http://www.w3.org/1999/xlink">
<g id="graph0" class="graph" transform="scale(1 1) rotate(0) translate(4 293)">
<title>RattletrapEngine::Component</title>
<polygon fill="#ffffff" stroke="transparent" points="-4,4 -4,-293 468.5,-293 468.5,4 -4,4"/>
<!-- Node8 -->
<g id="node1" class="node">
<title>Node8</title>
<polygon fill="#bfbfbf" stroke="#000000" points="0,-.5 0,-19.5 146,-19.5 146,-.5 0,-.5"/>
<text text-anchor="middle" x="73" y="-7.5" font-family="Helvetica,sans-Serif" font-size="10.00" fill="#000000">RattletrapEngine::Component</text>
</g>
<!-- Node9 -->
<g id="node2" class="node">
<title>Node9</title>
<polygon fill="#ffffff" stroke="#bfbfbf" points="56.5,-164 56.5,-183 91.5,-183 91.5,-164 56.5,-164"/>
<text text-anchor="middle" x="74" y="-171" font-family="Helvetica,sans-Serif" font-size="10.00" fill="#000000">bool</text>
</g>
<!-- Node9&#45;&gt;Node8 -->
<g id="edge1" class="edge">
<title>Node9&#45;&gt;Node8</title>
<path fill="none" stroke="#9a32cd" stroke-dasharray="5,2" d="M70.9017,-153.7248C67.93,-132.3503 64.1478,-97.2771 66,-67 67.0227,-50.2814 69.7178,-30.9581 71.4498,-19.6489"/>
<polygon fill="#9a32cd" stroke="#9a32cd" points="67.4679,-154.4314 72.388,-163.8145 74.3932,-153.4112 67.4679,-154.4314"/>
<text text-anchor="middle" x="94.5" y="-81" font-family="Helvetica,sans-Serif" font-size="10.00" fill="#000000"> newEnabled</text>
<text text-anchor="middle" x="94.5" y="-70" font-family="Helvetica,sans-Serif" font-size="10.00" fill="#000000">enabled</text>
</g>
<!-- Node10 -->
<g id="node3" class="node">
<title>Node10</title>
<g id="a_node3"><a xlink:href="classRattletrapEngine_1_1GameObject.html" target="_top" xlink:title="Classe virtual que especifica o funcionamento de um GameObject. ">
<polygon fill="#ffffff" stroke="#000000" points="132,-68.5 132,-87.5 282,-87.5 282,-68.5 132,-68.5"/>
<text text-anchor="middle" x="207" y="-75.5" font-family="Helvetica,sans-Serif" font-size="10.00" fill="#000000">RattletrapEngine::GameObject</text>
</a>
</g>
</g>
<!-- Node9&#45;&gt;Node10 -->
<g id="edge5" class="edge">
<title>Node9&#45;&gt;Node10</title>
<path fill="none" stroke="#9a32cd" stroke-dasharray="5,2" d="M73.9066,-153.7174C74.9212,-138.9099 78.7471,-119.1882 91,-107 99.1682,-98.875 122.0614,-92.3438 145.3747,-87.5518"/>
<polygon fill="#9a32cd" stroke="#9a32cd" points="70.4033,-153.7712 73.5858,-163.8767 77.3998,-153.9922 70.4033,-153.7712"/>
<text text-anchor="middle" x="114" y="-132" font-family="Helvetica,sans-Serif" font-size="10.00" fill="#000000"> dead</text>
<text text-anchor="middle" x="114" y="-121" font-family="Helvetica,sans-Serif" font-size="10.00" fill="#000000">active</text>
<text text-anchor="middle" x="114" y="-110" font-family="Helvetica,sans-Serif" font-size="10.00" fill="#000000">newActive</text>
</g>
<!-- Node10&#45;&gt;Node8 -->
<g id="edge2" class="edge">
<title>Node10&#45;&gt;Node8</title>
<path fill="none" stroke="#9a32cd" stroke-dasharray="5,2" d="M179.05,-63.8164C152.8869,-50.5396 114.5196,-31.0697 91.8185,-19.5497"/>
<polygon fill="#9a32cd" stroke="#9a32cd" points="177.5839,-66.9973 188.0853,-68.4015 180.7516,-60.755 177.5839,-66.9973"/>
<text text-anchor="middle" x="174.5" y="-41" font-family="Helvetica,sans-Serif" font-size="10.00" fill="#000000"> associated</text>
</g>
<!-- Node11 -->
<g id="node4" class="node">
<title>Node11</title>
<polygon fill="#ffffff" stroke="#bfbfbf" points="149.5,-269.5 149.5,-288.5 184.5,-288.5 184.5,-269.5 149.5,-269.5"/>
<text text-anchor="middle" x="167" y="-276.5" font-family="Helvetica,sans-Serif" font-size="10.00" fill="#000000">float</text>
</g>
<!-- Node11&#45;&gt;Node10 -->
<g id="edge3" class="edge">
<title>Node11&#45;&gt;Node10</title>
<path fill="none" stroke="#9a32cd" stroke-dasharray="5,2" d="M162.1381,-259.6213C156.9036,-235.3927 150.5167,-192.8631 160,-158 167.6106,-130.0214 187.7549,-101.8369 199.0448,-87.5683"/>
<polygon fill="#9a32cd" stroke="#9a32cd" points="158.7309,-260.4223 164.4009,-269.3722 165.5497,-258.8399 158.7309,-260.4223"/>
<text text-anchor="middle" x="178" y="-171" font-family="Helvetica,sans-Serif" font-size="10.00" fill="#000000"> rotation</text>
</g>
<!-- Node13 -->
<g id="node6" class="node">
<title>Node13</title>
<g id="a_node6"><a xlink:href="classRattletrapEngine_1_1Rect.html" target="_top" xlink:title="Classe que modela um rect. ">
<polygon fill="#ffffff" stroke="#000000" points="205,-164 205,-183 321,-183 321,-164 205,-164"/>
<text text-anchor="middle" x="263" y="-171" font-family="Helvetica,sans-Serif" font-size="10.00" fill="#000000">RattletrapEngine::Rect</text>
</a>
</g>
</g>
<!-- Node11&#45;&gt;Node13 -->
<g id="edge7" class="edge">
<title>Node11&#45;&gt;Node13</title>
<path fill="none" stroke="#9a32cd" stroke-dasharray="5,2" d="M182.6406,-261.8116C202.9985,-239.4392 237.8903,-201.0946 254.162,-183.2126"/>
<polygon fill="#9a32cd" stroke="#9a32cd" points="180.0009,-259.5121 175.8594,-269.2639 185.1783,-264.2232 180.0009,-259.5121"/>
<text text-anchor="middle" x="237.5" y="-243" font-family="Helvetica,sans-Serif" font-size="10.00" fill="#000000"> w</text>
<text text-anchor="middle" x="237.5" y="-232" font-family="Helvetica,sans-Serif" font-size="10.00" fill="#000000">x</text>
<text text-anchor="middle" x="237.5" y="-221" font-family="Helvetica,sans-Serif" font-size="10.00" fill="#000000">h</text>
<text text-anchor="middle" x="237.5" y="-210" font-family="Helvetica,sans-Serif" font-size="10.00" fill="#000000">y</text>
</g>
<!-- Node12 -->
<g id="node5" class="node">
<title>Node12</title>
<polygon fill="#ffffff" stroke="#bfbfbf" points="339.5,-158.5 339.5,-188.5 464.5,-188.5 464.5,-158.5 339.5,-158.5"/>
<text text-anchor="start" x="347.5" y="-176.5" font-family="Helvetica,sans-Serif" font-size="10.00" fill="#000000">vector&lt; RattletrapEngine</text>
<text text-anchor="middle" x="402" y="-165.5" font-family="Helvetica,sans-Serif" font-size="10.00" fill="#000000">::Component *&gt;</text>
</g>
<!-- Node12&#45;&gt;Node10 -->
<g id="edge4" class="edge">
<title>Node12&#45;&gt;Node10</title>
<path fill="none" stroke="#9a32cd" stroke-dasharray="5,2" d="M362.3796,-153.8865C335.4968,-140.6023 299.1362,-122.681 267,-107 253.6909,-100.5057 238.6909,-93.2557 227.0181,-87.6293"/>
<polygon fill="#9a32cd" stroke="#9a32cd" points="360.9552,-157.0865 371.4707,-158.3806 364.0573,-150.8114 360.9552,-157.0865"/>
<text text-anchor="middle" x="362.5" y="-121" font-family="Helvetica,sans-Serif" font-size="10.00" fill="#000000"> components</text>
</g>
<!-- Node13&#45;&gt;Node10 -->
<g id="edge6" class="edge">
<title>Node13&#45;&gt;Node10</title>
<path fill="none" stroke="#9a32cd" stroke-dasharray="5,2" d="M252.2451,-155.1591C240.4575,-135.057 221.9917,-103.5661 212.7184,-87.7519"/>
<polygon fill="#9a32cd" stroke="#9a32cd" points="249.3482,-157.1381 257.4258,-163.994 255.3866,-153.5972 249.3482,-157.1381"/>
<text text-anchor="middle" x="253.5" y="-121" font-family="Helvetica,sans-Serif" font-size="10.00" fill="#000000"> box</text>
</g>
</g>
</svg>
