<?xml version="1.0" encoding="UTF-8" standalone="no"?>
<!DOCTYPE svg PUBLIC "-//W3C//DTD SVG 1.1//EN"
 "http://www.w3.org/Graphics/SVG/1.1/DTD/svg11.dtd">
<!-- Generated by graphviz version 2.40.1 (20161225.0304)
 -->
<!-- Title: RattletrapEngine::Button Pages: 1 -->
<svg width="516pt" height="419pt"
 viewBox="0.00 0.00 515.69 419.00" xmlns="http://www.w3.org/2000/svg" xmlns:xlink="http://www.w3.org/1999/xlink">
<g id="graph0" class="graph" transform="scale(1 1) rotate(0) translate(4 415)">
<title>RattletrapEngine::Button</title>
<polygon fill="#ffffff" stroke="transparent" points="-4,4 -4,-415 511.6865,-415 511.6865,4 -4,4"/>
<!-- Node2 -->
<g id="node1" class="node">
<title>Node2</title>
<polygon fill="#bfbfbf" stroke="#000000" points="144.1865,-.5 144.1865,-19.5 268.1865,-19.5 268.1865,-.5 144.1865,-.5"/>
<text text-anchor="middle" x="206.1865" y="-7.5" font-family="Helvetica,sans-Serif" font-size="10.00" fill="#000000">RattletrapEngine::Button</text>
</g>
<!-- Node3 -->
<g id="node2" class="node">
<title>Node3</title>
<g id="a_node2"><a xlink:href="classRattletrapEngine_1_1Component.html" target="_top" xlink:title="Modela os componentes. ">
<polygon fill="#ffffff" stroke="#000000" points="50.1865,-117 50.1865,-136 196.1865,-136 196.1865,-117 50.1865,-117"/>
<text text-anchor="middle" x="123.1865" y="-124" font-family="Helvetica,sans-Serif" font-size="10.00" fill="#000000">RattletrapEngine::Component</text>
</a>
</g>
</g>
<!-- Node3&#45;&gt;Node2 -->
<g id="edge1" class="edge">
<title>Node3&#45;&gt;Node2</title>
<path fill="none" stroke="#191970" d="M135.8358,-108.7454C153.6094,-83.7981 185.3584,-39.2346 199.3004,-19.6654"/>
<polygon fill="#191970" stroke="#191970" points="132.9307,-106.791 129.9788,-116.9663 138.6318,-110.8528 132.9307,-106.791"/>
</g>
<!-- Node4 -->
<g id="node3" class="node">
<title>Node4</title>
<polygon fill="#ffffff" stroke="#bfbfbf" points="82.6865,-286 82.6865,-305 117.6865,-305 117.6865,-286 82.6865,-286"/>
<text text-anchor="middle" x="100.1865" y="-293" font-family="Helvetica,sans-Serif" font-size="10.00" fill="#000000">bool</text>
</g>
<!-- Node4&#45;&gt;Node2 -->
<g id="edge13" class="edge">
<title>Node4&#45;&gt;Node2</title>
<path fill="none" stroke="#9a32cd" stroke-dasharray="5,2" d="M75.631,-280.1189C41.641,-256.6807 -13.7577,-209.4985 3.1865,-160 29.8676,-82.0576 126.8401,-37.6971 176.4742,-19.6299"/>
<polygon fill="#9a32cd" stroke="#9a32cd" points="73.9038,-283.1741 84.1634,-285.8182 77.7919,-277.3532 73.9038,-283.1741"/>
<text text-anchor="middle" x="56.1865" y="-163" font-family="Helvetica,sans-Serif" font-size="10.00" fill="#000000"> interactOnBoundingBox</text>
</g>
<!-- Node4&#45;&gt;Node3 -->
<g id="edge2" class="edge">
<title>Node4&#45;&gt;Node3</title>
<path fill="none" stroke="#9a32cd" stroke-dasharray="5,2" d="M101.0573,-275.6184C102.1857,-254.1537 104.5801,-219.0048 109.1865,-189 112.0888,-170.0958 117.411,-148.3806 120.5912,-136.1654"/>
<polygon fill="#9a32cd" stroke="#9a32cd" points="97.5542,-275.5985 100.5661,-285.7562 104.546,-275.9373 97.5542,-275.5985"/>
<text text-anchor="middle" x="137.6865" y="-203" font-family="Helvetica,sans-Serif" font-size="10.00" fill="#000000"> newEnabled</text>
<text text-anchor="middle" x="137.6865" y="-192" font-family="Helvetica,sans-Serif" font-size="10.00" fill="#000000">enabled</text>
</g>
<!-- Node5 -->
<g id="node4" class="node">
<title>Node5</title>
<g id="a_node4"><a xlink:href="classRattletrapEngine_1_1GameObject.html" target="_top" xlink:title="Classe virtual que especifica o funcionamento de um GameObject. ">
<polygon fill="#ffffff" stroke="#000000" points="175.1865,-190.5 175.1865,-209.5 325.1865,-209.5 325.1865,-190.5 175.1865,-190.5"/>
<text text-anchor="middle" x="250.1865" y="-197.5" font-family="Helvetica,sans-Serif" font-size="10.00" fill="#000000">RattletrapEngine::GameObject</text>
</a>
</g>
</g>
<!-- Node4&#45;&gt;Node5 -->
<g id="edge6" class="edge">
<title>Node4&#45;&gt;Node5</title>
<path fill="none" stroke="#9a32cd" stroke-dasharray="5,2" d="M107.795,-276.525C115.0967,-259.2088 126.1678,-235.3735 134.1865,-229 143.7745,-221.3793 169.1693,-214.6225 193.762,-209.5523"/>
<polygon fill="#9a32cd" stroke="#9a32cd" points="104.5529,-275.2064 103.983,-285.7859 111.026,-277.8709 104.5529,-275.2064"/>
<text text-anchor="middle" x="157.1865" y="-254" font-family="Helvetica,sans-Serif" font-size="10.00" fill="#000000"> dead</text>
<text text-anchor="middle" x="157.1865" y="-243" font-family="Helvetica,sans-Serif" font-size="10.00" fill="#000000">active</text>
<text text-anchor="middle" x="157.1865" y="-232" font-family="Helvetica,sans-Serif" font-size="10.00" fill="#000000">newActive</text>
</g>
<!-- Node5&#45;&gt;Node3 -->
<g id="edge3" class="edge">
<title>Node5&#45;&gt;Node3</title>
<path fill="none" stroke="#9a32cd" stroke-dasharray="5,2" d="M224.9061,-185.3692C199.625,-170.738 161.473,-148.6579 139.7936,-136.1112"/>
<polygon fill="#9a32cd" stroke="#9a32cd" points="223.1753,-188.4114 233.5835,-190.3912 226.6816,-182.3528 223.1753,-188.4114"/>
<text text-anchor="middle" x="223.6865" y="-163" font-family="Helvetica,sans-Serif" font-size="10.00" fill="#000000"> associated</text>
</g>
<!-- Node6 -->
<g id="node5" class="node">
<title>Node6</title>
<polygon fill="#ffffff" stroke="#bfbfbf" points="192.6865,-391.5 192.6865,-410.5 227.6865,-410.5 227.6865,-391.5 192.6865,-391.5"/>
<text text-anchor="middle" x="210.1865" y="-398.5" font-family="Helvetica,sans-Serif" font-size="10.00" fill="#000000">float</text>
</g>
<!-- Node6&#45;&gt;Node5 -->
<g id="edge4" class="edge">
<title>Node6&#45;&gt;Node5</title>
<path fill="none" stroke="#9a32cd" stroke-dasharray="5,2" d="M205.3246,-381.6213C200.0901,-357.3927 193.7033,-314.8631 203.1865,-280 210.7971,-252.0214 230.9414,-223.8369 242.2313,-209.5683"/>
<polygon fill="#9a32cd" stroke="#9a32cd" points="201.9174,-382.4223 207.5874,-391.3722 208.7362,-380.8399 201.9174,-382.4223"/>
<text text-anchor="middle" x="221.1865" y="-293" font-family="Helvetica,sans-Serif" font-size="10.00" fill="#000000"> rotation</text>
</g>
<!-- Node8 -->
<g id="node7" class="node">
<title>Node8</title>
<g id="a_node7"><a xlink:href="classRattletrapEngine_1_1Rect.html" target="_top" xlink:title="Classe que modela um rect. ">
<polygon fill="#ffffff" stroke="#000000" points="248.1865,-286 248.1865,-305 364.1865,-305 364.1865,-286 248.1865,-286"/>
<text text-anchor="middle" x="306.1865" y="-293" font-family="Helvetica,sans-Serif" font-size="10.00" fill="#000000">RattletrapEngine::Rect</text>
</a>
</g>
</g>
<!-- Node6&#45;&gt;Node8 -->
<g id="edge8" class="edge">
<title>Node6&#45;&gt;Node8</title>
<path fill="none" stroke="#9a32cd" stroke-dasharray="5,2" d="M225.8272,-383.8116C246.185,-361.4392 281.0768,-323.0946 297.3486,-305.2126"/>
<polygon fill="#9a32cd" stroke="#9a32cd" points="223.1875,-381.5121 219.0459,-391.2639 228.3648,-386.2232 223.1875,-381.5121"/>
<text text-anchor="middle" x="280.6865" y="-365" font-family="Helvetica,sans-Serif" font-size="10.00" fill="#000000"> w</text>
<text text-anchor="middle" x="280.6865" y="-354" font-family="Helvetica,sans-Serif" font-size="10.00" fill="#000000">x</text>
<text text-anchor="middle" x="280.6865" y="-343" font-family="Helvetica,sans-Serif" font-size="10.00" fill="#000000">h</text>
<text text-anchor="middle" x="280.6865" y="-332" font-family="Helvetica,sans-Serif" font-size="10.00" fill="#000000">y</text>
</g>
<!-- Node7 -->
<g id="node6" class="node">
<title>Node7</title>
<polygon fill="#ffffff" stroke="#bfbfbf" points="382.6865,-280.5 382.6865,-310.5 507.6865,-310.5 507.6865,-280.5 382.6865,-280.5"/>
<text text-anchor="start" x="390.6865" y="-298.5" font-family="Helvetica,sans-Serif" font-size="10.00" fill="#000000">vector&lt; RattletrapEngine</text>
<text text-anchor="middle" x="445.1865" y="-287.5" font-family="Helvetica,sans-Serif" font-size="10.00" fill="#000000">::Component *&gt;</text>
</g>
<!-- Node7&#45;&gt;Node5 -->
<g id="edge5" class="edge">
<title>Node7&#45;&gt;Node5</title>
<path fill="none" stroke="#9a32cd" stroke-dasharray="5,2" d="M405.5662,-275.8865C378.6833,-262.6023 342.3227,-244.681 310.1865,-229 296.8774,-222.5057 281.8774,-215.2557 270.2047,-209.6293"/>
<polygon fill="#9a32cd" stroke="#9a32cd" points="404.1417,-279.0865 414.6572,-280.3806 407.2438,-272.8114 404.1417,-279.0865"/>
<text text-anchor="middle" x="405.6865" y="-243" font-family="Helvetica,sans-Serif" font-size="10.00" fill="#000000"> components</text>
</g>
<!-- Node8&#45;&gt;Node5 -->
<g id="edge7" class="edge">
<title>Node8&#45;&gt;Node5</title>
<path fill="none" stroke="#9a32cd" stroke-dasharray="5,2" d="M295.4317,-277.1591C283.644,-257.057 265.1782,-225.5661 255.9049,-209.7519"/>
<polygon fill="#9a32cd" stroke="#9a32cd" points="292.5347,-279.1381 300.6123,-285.994 298.5731,-275.5972 292.5347,-279.1381"/>
<text text-anchor="middle" x="296.6865" y="-243" font-family="Helvetica,sans-Serif" font-size="10.00" fill="#000000"> box</text>
</g>
<!-- Node9 -->
<g id="node8" class="node">
<title>Node9</title>
<polygon fill="#ffffff" stroke="#bfbfbf" points="214.1865,-117 214.1865,-136 254.1865,-136 254.1865,-117 214.1865,-117"/>
<text text-anchor="middle" x="234.1865" y="-124" font-family="Helvetica,sans-Serif" font-size="10.00" fill="#000000">State</text>
</g>
<!-- Node9&#45;&gt;Node2 -->
<g id="edge9" class="edge">
<title>Node9&#45;&gt;Node2</title>
<path fill="none" stroke="#9a32cd" stroke-dasharray="5,2" d="M229.5182,-107.0763C223.4565,-81.8556 213.1097,-38.8055 208.5096,-19.6654"/>
<polygon fill="#9a32cd" stroke="#9a32cd" points="226.1551,-108.0611 231.8952,-116.9663 232.9613,-106.4253 226.1551,-108.0611"/>
<text text-anchor="middle" x="252.6865" y="-63" font-family="Helvetica,sans-Serif" font-size="10.00" fill="#000000"> actualState</text>
</g>
<!-- Node10 -->
<g id="node9" class="node">
<title>Node10</title>
<g id="a_node9"><a xlink:href="structRattletrapEngine_1_1Button_1_1Callback.html" target="_top" xlink:title="RattletrapEngine::Button\l::Callback">
<polygon fill="#ffffff" stroke="#000000" points="318.1865,-111.5 318.1865,-141.5 442.1865,-141.5 442.1865,-111.5 318.1865,-111.5"/>
<text text-anchor="start" x="326.1865" y="-129.5" font-family="Helvetica,sans-Serif" font-size="10.00" fill="#000000">RattletrapEngine::Button</text>
<text text-anchor="middle" x="380.1865" y="-118.5" font-family="Helvetica,sans-Serif" font-size="10.00" fill="#000000">::Callback</text>
</a>
</g>
</g>
<!-- Node10&#45;&gt;Node2 -->
<g id="edge10" class="edge">
<title>Node10&#45;&gt;Node2</title>
<path fill="none" stroke="#9a32cd" stroke-dasharray="5,2" d="M360.181,-103.7913C341.8196,-84.1162 313.0127,-56.049 283.1865,-38 270.2867,-30.1938 254.868,-24.0515 241.2281,-19.5337"/>
<polygon fill="#9a32cd" stroke="#9a32cd" points="357.8145,-106.3893 367.1509,-111.3975 362.9754,-101.6602 357.8145,-106.3893"/>
<text text-anchor="middle" x="372.6865" y="-85" font-family="Helvetica,sans-Serif" font-size="10.00" fill="#000000"> pressed</text>
<text text-anchor="middle" x="372.6865" y="-74" font-family="Helvetica,sans-Serif" font-size="10.00" fill="#000000">highlighted</text>
<text text-anchor="middle" x="372.6865" y="-63" font-family="Helvetica,sans-Serif" font-size="10.00" fill="#000000">released</text>
<text text-anchor="middle" x="372.6865" y="-52" font-family="Helvetica,sans-Serif" font-size="10.00" fill="#000000">disabled</text>
<text text-anchor="middle" x="372.6865" y="-41" font-family="Helvetica,sans-Serif" font-size="10.00" fill="#000000">enabled</text>
</g>
<!-- Node11 -->
<g id="node10" class="node">
<title>Node11</title>
<polygon fill="#ffffff" stroke="#bfbfbf" points="342.6865,-190.5 342.6865,-209.5 417.6865,-209.5 417.6865,-190.5 342.6865,-190.5"/>
<text text-anchor="middle" x="380.1865" y="-197.5" font-family="Helvetica,sans-Serif" font-size="10.00" fill="#000000">void(*)(void *)</text>
</g>
<!-- Node11&#45;&gt;Node10 -->
<g id="edge11" class="edge">
<title>Node11&#45;&gt;Node10</title>
<path fill="none" stroke="#9a32cd" stroke-dasharray="5,2" d="M380.1865,-180.3719C380.1865,-168.2544 380.1865,-152.9386 380.1865,-141.7376"/>
<polygon fill="#9a32cd" stroke="#9a32cd" points="376.6866,-180.3911 380.1865,-190.3912 383.6866,-180.3912 376.6866,-180.3911"/>
<text text-anchor="middle" x="410.6865" y="-163" font-family="Helvetica,sans-Serif" font-size="10.00" fill="#000000"> callbackFunc</text>
</g>
<!-- Node12 -->
<g id="node11" class="node">
<title>Node12</title>
<polygon fill="#ffffff" stroke="#bfbfbf" points="443.6865,-190.5 443.6865,-209.5 484.6865,-209.5 484.6865,-190.5 443.6865,-190.5"/>
<text text-anchor="middle" x="464.1865" y="-197.5" font-family="Helvetica,sans-Serif" font-size="10.00" fill="#000000">void *</text>
</g>
<!-- Node12&#45;&gt;Node10 -->
<g id="edge12" class="edge">
<title>Node12&#45;&gt;Node10</title>
<path fill="none" stroke="#9a32cd" stroke-dasharray="5,2" d="M456.6457,-181.2444C453.0587,-173.9793 448.2194,-165.988 442.1865,-160 434.8056,-152.674 425.4909,-146.5197 416.3403,-141.5667"/>
<polygon fill="#9a32cd" stroke="#9a32cd" points="453.4811,-182.7417 460.7552,-190.4449 459.8725,-179.8869 453.4811,-182.7417"/>
<text text-anchor="middle" x="464.6865" y="-163" font-family="Helvetica,sans-Serif" font-size="10.00" fill="#000000"> caller</text>
</g>
</g>
</svg>
