<?xml version="1.0" encoding="UTF-8" standalone="no"?>
<!DOCTYPE svg PUBLIC "-//W3C//DTD SVG 1.1//EN"
 "http://www.w3.org/Graphics/SVG/1.1/DTD/svg11.dtd">
<!-- Generated by graphviz version 2.38.0 (20140413.2041)
 -->
<!-- Title: DragAndDrop Pages: 1 -->
<svg width="1089pt" height="757pt"
 viewBox="0.00 0.00 1089.00 756.72" xmlns="http://www.w3.org/2000/svg" xmlns:xlink="http://www.w3.org/1999/xlink">
<g id="graph0" class="graph" transform="scale(1 1) rotate(0) translate(4 752.717)">
<title>DragAndDrop</title>
<polygon fill="white" stroke="none" points="-4,4 -4,-752.717 1085,-752.717 1085,4 -4,4"/>
<!-- Node2 -->
<g id="node1" class="node"><title>Node2</title>
<polygon fill="#bfbfbf" stroke="black" points="1005,-552.217 1005,-571.217 1081,-571.217 1081,-552.217 1005,-552.217"/>
<text text-anchor="middle" x="1043" y="-559.217" font-family="Helvetica,sans-Serif" font-size="10.00">DragAndDrop</text>
</g>
<!-- Node3 -->
<g id="node2" class="node"><title>Node3</title>
<g id="a_node2"><a xlink:href="classComponent.html" target="_top" xlink:title="Modela os componentes. ">
<polygon fill="white" stroke="black" points="867,-667.217 867,-686.217 934,-686.217 934,-667.217 867,-667.217"/>
<text text-anchor="middle" x="900.5" y="-674.217" font-family="Helvetica,sans-Serif" font-size="10.00">Component</text>
</a>
</g>
</g>
<!-- Node3&#45;&gt;Node2 -->
<g id="edge1" class="edge"><title>Node3&#45;&gt;Node2</title>
<path fill="none" stroke="midnightblue" d="M944.056,-671.32C958.764,-667.842 974.638,-662.123 987,-652.717 1015.5,-631.033 1032.39,-589.954 1038.9,-571.329"/>
<polygon fill="midnightblue" stroke="midnightblue" points="943.195,-667.925 934.118,-673.388 944.621,-674.778 943.195,-667.925"/>
</g>
<!-- Node4 -->
<g id="node3" class="node"><title>Node4</title>
<g id="a_node3"><a xlink:href="classVec2.html" target="_top" xlink:title="Classe que modela um vetor(no sentido físico) ">
<polygon fill="white" stroke="black" points="518.5,-722.217 518.5,-741.217 557.5,-741.217 557.5,-722.217 518.5,-722.217"/>
<text text-anchor="middle" x="538" y="-729.217" font-family="Helvetica,sans-Serif" font-size="10.00">Vec2</text>
</a>
</g>
</g>
<!-- Node4&#45;&gt;Node2 -->
<g id="edge2" class="edge"><title>Node4&#45;&gt;Node2</title>
<path fill="none" stroke="#9a32cd" stroke-dasharray="5,2" d="M567.484,-722.72C638.599,-700.155 829.547,-638.93 987,-582.717 997.107,-579.109 1008.18,-574.928 1017.72,-571.251"/>
<polygon fill="#9a32cd" stroke="#9a32cd" points="566.355,-719.407 557.88,-725.764 568.47,-726.08 566.355,-719.407"/>
<text text-anchor="middle" x="803.5" y="-662.717" font-family="Helvetica,sans-Serif" font-size="10.00"> associatedInitialPos</text>
</g>
<!-- Node5 -->
<g id="node4" class="node"><title>Node5</title>
<polygon fill="white" stroke="#bfbfbf" points="173.5,-654.217 173.5,-673.217 208.5,-673.217 208.5,-654.217 173.5,-654.217"/>
<text text-anchor="middle" x="191" y="-661.217" font-family="Helvetica,sans-Serif" font-size="10.00">float</text>
</g>
<!-- Node5&#45;&gt;Node4 -->
<g id="edge3" class="edge"><title>Node5&#45;&gt;Node4</title>
<path fill="none" stroke="#9a32cd" stroke-dasharray="5,2" d="M212.649,-679.385C229.324,-691.099 253.901,-706.315 278,-713.717 364.605,-740.318 474.879,-736.244 518.265,-733.265"/>
<polygon fill="#9a32cd" stroke="#9a32cd" points="214.405,-676.336 204.252,-673.31 210.302,-682.007 214.405,-676.336"/>
<text text-anchor="middle" x="310" y="-740.717" font-family="Helvetica,sans-Serif" font-size="10.00"> x</text>
<text text-anchor="middle" x="310" y="-729.717" font-family="Helvetica,sans-Serif" font-size="10.00">y</text>
</g>
<!-- Node6 -->
<g id="node5" class="node"><title>Node6</title>
<g id="a_node5"><a xlink:href="classGameObject.html" target="_top" xlink:title="Classe virtual que especifica o funcionamento de um GameObject. ">
<polygon fill="white" stroke="black" points="634.5,-591.217 634.5,-610.217 705.5,-610.217 705.5,-591.217 634.5,-591.217"/>
<text text-anchor="middle" x="670" y="-598.217" font-family="Helvetica,sans-Serif" font-size="10.00">GameObject</text>
</a>
</g>
</g>
<!-- Node5&#45;&gt;Node6 -->
<g id="edge8" class="edge"><title>Node5&#45;&gt;Node6</title>
<path fill="none" stroke="#9a32cd" stroke-dasharray="5,2" d="M218.273,-672.263C235.135,-677.29 257.613,-683.151 278,-685.717 306.222,-689.27 313.589,-687.092 342,-685.717 449.317,-680.524 493.574,-717.748 582,-656.717 595.43,-647.448 587.483,-635.187 600,-624.717 609.729,-616.58 622.385,-611.138 634.198,-607.527"/>
<polygon fill="#9a32cd" stroke="#9a32cd" points="219.156,-668.873 208.569,-669.277 217.098,-675.563 219.156,-668.873"/>
<text text-anchor="middle" x="418" y="-694.717" font-family="Helvetica,sans-Serif" font-size="10.00"> rotation</text>
</g>
<!-- Node8 -->
<g id="node7" class="node"><title>Node8</title>
<g id="a_node7"><a xlink:href="classRect.html" target="_top" xlink:title="Classe que modela um rect. ">
<polygon fill="white" stroke="black" points="399,-606.217 399,-625.217 437,-625.217 437,-606.217 399,-606.217"/>
<text text-anchor="middle" x="418" y="-613.217" font-family="Helvetica,sans-Serif" font-size="10.00">Rect</text>
</a>
</g>
</g>
<!-- Node5&#45;&gt;Node8 -->
<g id="edge7" class="edge"><title>Node5&#45;&gt;Node8</title>
<path fill="none" stroke="#9a32cd" stroke-dasharray="5,2" d="M218.496,-656.461C235.445,-651.938 257.937,-646.155 278,-641.717 321.148,-632.174 372.339,-623.197 398.93,-618.708"/>
<polygon fill="#9a32cd" stroke="#9a32cd" points="217.476,-653.111 208.731,-659.091 219.297,-659.87 217.476,-653.111"/>
<text text-anchor="middle" x="310" y="-677.717" font-family="Helvetica,sans-Serif" font-size="10.00"> w</text>
<text text-anchor="middle" x="310" y="-666.717" font-family="Helvetica,sans-Serif" font-size="10.00">x</text>
<text text-anchor="middle" x="310" y="-655.717" font-family="Helvetica,sans-Serif" font-size="10.00">h</text>
<text text-anchor="middle" x="310" y="-644.717" font-family="Helvetica,sans-Serif" font-size="10.00">y</text>
</g>
<!-- Node13 -->
<g id="node12" class="node"><title>Node13</title>
<g id="a_node12"><a xlink:href="classSprite.html" target="_top" xlink:title="Classe que modela uma sprite. ">
<polygon fill="white" stroke="black" points="397,-318.217 397,-337.217 439,-337.217 439,-318.217 397,-318.217"/>
<text text-anchor="middle" x="418" y="-325.217" font-family="Helvetica,sans-Serif" font-size="10.00">Sprite</text>
</a>
</g>
</g>
<!-- Node5&#45;&gt;Node13 -->
<g id="edge14" class="edge"><title>Node5&#45;&gt;Node13</title>
<path fill="none" stroke="#9a32cd" stroke-dasharray="5,2" d="M204.07,-645.692C245.239,-584.213 379.31,-384.002 410.483,-337.45"/>
<polygon fill="#9a32cd" stroke="#9a32cd" points="201.147,-643.767 198.491,-654.024 206.963,-647.662 201.147,-643.767"/>
<text text-anchor="middle" x="310" y="-561.717" font-family="Helvetica,sans-Serif" font-size="10.00"> scaleY</text>
<text text-anchor="middle" x="310" y="-550.717" font-family="Helvetica,sans-Serif" font-size="10.00">frameTime</text>
<text text-anchor="middle" x="310" y="-539.717" font-family="Helvetica,sans-Serif" font-size="10.00">timeElapsed</text>
<text text-anchor="middle" x="310" y="-528.717" font-family="Helvetica,sans-Serif" font-size="10.00">scaleX</text>
</g>
<!-- Node6&#45;&gt;Node2 -->
<g id="edge4" class="edge"><title>Node6&#45;&gt;Node2</title>
<path fill="none" stroke="#9a32cd" stroke-dasharray="5,2" d="M715.957,-595.991C790.035,-588.204 936.359,-572.822 1004.92,-565.615"/>
<polygon fill="#9a32cd" stroke="#9a32cd" points="715.149,-592.557 705.57,-597.083 715.881,-599.519 715.149,-592.557"/>
<text text-anchor="middle" x="900.5" y="-582.717" font-family="Helvetica,sans-Serif" font-size="10.00"> associated</text>
</g>
<!-- Node7 -->
<g id="node6" class="node"><title>Node7</title>
<polygon fill="white" stroke="#bfbfbf" points="360,-644.217 360,-663.217 476,-663.217 476,-644.217 360,-644.217"/>
<text text-anchor="middle" x="418" y="-651.217" font-family="Helvetica,sans-Serif" font-size="10.00">vector&lt; Component *&gt;</text>
</g>
<!-- Node7&#45;&gt;Node6 -->
<g id="edge5" class="edge"><title>Node7&#45;&gt;Node6</title>
<path fill="none" stroke="#9a32cd" stroke-dasharray="5,2" d="M486.446,-643.835C515.929,-639.077 550.828,-632.851 582,-625.717 600.996,-621.37 622.002,-615.369 638.613,-610.336"/>
<polygon fill="#9a32cd" stroke="#9a32cd" points="485.584,-640.428 476.258,-645.456 486.684,-647.341 485.584,-640.428"/>
<text text-anchor="middle" x="538" y="-644.717" font-family="Helvetica,sans-Serif" font-size="10.00"> components</text>
</g>
<!-- Node8&#45;&gt;Node6 -->
<g id="edge6" class="edge"><title>Node8&#45;&gt;Node6</title>
<path fill="none" stroke="#9a32cd" stroke-dasharray="5,2" d="M447.57,-614.003C493.683,-611.236 584.372,-605.795 634.189,-602.806"/>
<polygon fill="#9a32cd" stroke="#9a32cd" points="447.155,-610.522 437.383,-614.614 447.575,-617.509 447.155,-610.522"/>
<text text-anchor="middle" x="538" y="-613.717" font-family="Helvetica,sans-Serif" font-size="10.00"> box</text>
</g>
<!-- Node9 -->
<g id="node8" class="node"><title>Node9</title>
<polygon fill="white" stroke="#bfbfbf" points="173.5,-508.217 173.5,-527.217 208.5,-527.217 208.5,-508.217 173.5,-508.217"/>
<text text-anchor="middle" x="191" y="-515.217" font-family="Helvetica,sans-Serif" font-size="10.00">bool</text>
</g>
<!-- Node9&#45;&gt;Node2 -->
<g id="edge28" class="edge"><title>Node9&#45;&gt;Node2</title>
<path fill="none" stroke="#9a32cd" stroke-dasharray="5,2" d="M218.711,-519.1C342.543,-525.51 860.813,-552.338 1004.77,-559.79"/>
<polygon fill="#9a32cd" stroke="#9a32cd" points="218.766,-515.598 208.598,-518.577 218.404,-522.589 218.766,-515.598"/>
<text text-anchor="middle" x="670" y="-559.717" font-family="Helvetica,sans-Serif" font-size="10.00"> dragOnHold</text>
<text text-anchor="middle" x="670" y="-548.717" font-family="Helvetica,sans-Serif" font-size="10.00">redrag</text>
</g>
<!-- Node9&#45;&gt;Node6 -->
<g id="edge9" class="edge"><title>Node9&#45;&gt;Node6</title>
<path fill="none" stroke="#9a32cd" stroke-dasharray="5,2" d="M218.3,-527.193C235.173,-532.967 257.653,-540.098 278,-544.717 407.901,-574.207 565.79,-591.186 634.4,-597.662"/>
<polygon fill="#9a32cd" stroke="#9a32cd" points="219.184,-523.794 208.589,-523.808 216.88,-530.404 219.184,-523.794"/>
<text text-anchor="middle" x="418" y="-581.717" font-family="Helvetica,sans-Serif" font-size="10.00"> dead</text>
</g>
<!-- Node10 -->
<g id="node9" class="node"><title>Node10</title>
<g id="a_node9"><a xlink:href="classTileMap.html" target="_top" xlink:title="Classe que modela o TileMap. ">
<polygon fill="white" stroke="black" points="875,-181.217 875,-200.217 926,-200.217 926,-181.217 875,-181.217"/>
<text text-anchor="middle" x="900.5" y="-188.217" font-family="Helvetica,sans-Serif" font-size="10.00">TileMap</text>
</a>
</g>
</g>
<!-- Node9&#45;&gt;Node10 -->
<g id="edge26" class="edge"><title>Node9&#45;&gt;Node10</title>
<path fill="none" stroke="#9a32cd" stroke-dasharray="5,2" d="M218.814,-515.406C249.263,-512.249 300.146,-505.349 342,-491.717 580.887,-413.911 645.14,-388.557 849,-241.717 865.986,-229.482 882.426,-211.342 891.722,-200.316"/>
<polygon fill="#9a32cd" stroke="#9a32cd" points="218.188,-511.95 208.575,-516.405 218.868,-518.917 218.188,-511.95"/>
<text text-anchor="middle" x="538" y="-442.717" font-family="Helvetica,sans-Serif" font-size="10.00"> displayCollisionInfo</text>
</g>
<!-- Node9&#45;&gt;Node13 -->
<g id="edge18" class="edge"><title>Node9&#45;&gt;Node13</title>
<path fill="none" stroke="#9a32cd" stroke-dasharray="5,2" d="M203.644,-499.378C218.641,-476.901 246.549,-438.724 278,-413.717 302.892,-393.925 314.786,-398.172 342,-381.717 365.204,-367.687 390.457,-348.648 404.941,-337.327"/>
<polygon fill="#9a32cd" stroke="#9a32cd" points="200.573,-497.68 198.035,-507.966 206.433,-501.508 200.573,-497.68"/>
<text text-anchor="middle" x="310" y="-416.717" font-family="Helvetica,sans-Serif" font-size="10.00"> highlightable</text>
</g>
<!-- Node10&#45;&gt;Node2 -->
<g id="edge10" class="edge"><title>Node10&#45;&gt;Node2</title>
<path fill="none" stroke="#9a32cd" stroke-dasharray="5,2" d="M908.658,-209.618C934.064,-276.705 1019.4,-502.035 1038.28,-551.895"/>
<polygon fill="#9a32cd" stroke="#9a32cd" points="911.929,-208.373 905.114,-200.261 905.383,-210.852 911.929,-208.373"/>
<text text-anchor="middle" x="969.5" y="-411.717" font-family="Helvetica,sans-Serif" font-size="10.00"> tileMap</text>
</g>
<!-- Node11 -->
<g id="node10" class="node"><title>Node11</title>
<g id="a_node10"><a xlink:href="classNearestGOFinder.html" target="_top" xlink:title="NearestGOFinder">
<polygon fill="white" stroke="black" points="623.5,-239.217 623.5,-258.217 716.5,-258.217 716.5,-239.217 623.5,-239.217"/>
<text text-anchor="middle" x="670" y="-246.217" font-family="Helvetica,sans-Serif" font-size="10.00">NearestGOFinder</text>
</a>
</g>
</g>
<!-- Node11&#45;&gt;Node10 -->
<g id="edge11" class="edge"><title>Node11&#45;&gt;Node10</title>
<path fill="none" stroke="midnightblue" d="M726.835,-243.612C762.496,-239.233 809.32,-231.385 849,-217.717 861.596,-213.379 874.842,-206.185 884.606,-200.313"/>
<polygon fill="midnightblue" stroke="midnightblue" points="726.142,-240.17 716.618,-244.81 726.957,-247.122 726.142,-240.17"/>
</g>
<!-- Node12 -->
<g id="node11" class="node"><title>Node12</title>
<g id="a_node11"><a xlink:href="classTileSet.html" target="_top" xlink:title="Classe responsável por modelar um tileset. ">
<polygon fill="white" stroke="black" points="646.5,-201.217 646.5,-220.217 693.5,-220.217 693.5,-201.217 646.5,-201.217"/>
<text text-anchor="middle" x="670" y="-208.217" font-family="Helvetica,sans-Serif" font-size="10.00">TileSet</text>
</a>
</g>
</g>
<!-- Node12&#45;&gt;Node10 -->
<g id="edge12" class="edge"><title>Node12&#45;&gt;Node10</title>
<path fill="none" stroke="#9a32cd" stroke-dasharray="5,2" d="M703.842,-207.843C750.098,-203.794 833.401,-196.503 874.782,-192.881"/>
<polygon fill="#9a32cd" stroke="#9a32cd" points="703.402,-204.368 693.745,-208.727 704.012,-211.341 703.402,-204.368"/>
<text text-anchor="middle" x="803.5" y="-205.717" font-family="Helvetica,sans-Serif" font-size="10.00"> tileSet</text>
</g>
<!-- Node13&#45;&gt;Node12 -->
<g id="edge13" class="edge"><title>Node13&#45;&gt;Node12</title>
<path fill="none" stroke="#9a32cd" stroke-dasharray="5,2" d="M442.597,-312.665C476.359,-291.666 540.909,-253.489 600,-229.717 614.985,-223.689 632.545,-218.884 646.199,-215.614"/>
<polygon fill="#9a32cd" stroke="#9a32cd" points="440.534,-309.828 433.921,-318.106 444.253,-315.758 440.534,-309.828"/>
<text text-anchor="middle" x="538" y="-283.717" font-family="Helvetica,sans-Serif" font-size="10.00"> tileSet</text>
</g>
<!-- Node14 -->
<g id="node13" class="node"><title>Node14</title>
<polygon fill="white" stroke="#bfbfbf" points="160,-373.217 160,-392.217 222,-392.217 222,-373.217 160,-373.217"/>
<text text-anchor="middle" x="191" y="-380.217" font-family="Helvetica,sans-Serif" font-size="10.00">SDL_Rect</text>
</g>
<!-- Node14&#45;&gt;Node13 -->
<g id="edge15" class="edge"><title>Node14&#45;&gt;Node13</title>
<path fill="none" stroke="#9a32cd" stroke-dasharray="5,2" d="M232.342,-376.054C262.718,-370.698 305.263,-362.473 342,-352.717 360.837,-347.715 381.852,-340.57 396.834,-335.199"/>
<polygon fill="#9a32cd" stroke="#9a32cd" points="231.389,-372.667 222.135,-377.826 232.587,-379.564 231.389,-372.667"/>
<text text-anchor="middle" x="310" y="-369.717" font-family="Helvetica,sans-Serif" font-size="10.00"> clipRect</text>
</g>
<!-- Node15 -->
<g id="node14" class="node"><title>Node15</title>
<polygon fill="white" stroke="#bfbfbf" points="176.5,-154.217 176.5,-173.217 205.5,-173.217 205.5,-154.217 176.5,-154.217"/>
<text text-anchor="middle" x="191" y="-161.217" font-family="Helvetica,sans-Serif" font-size="10.00">int</text>
</g>
<!-- Node15&#45;&gt;Node10 -->
<g id="edge25" class="edge"><title>Node15&#45;&gt;Node10</title>
<path fill="none" stroke="#9a32cd" stroke-dasharray="5,2" d="M215.833,-162.977C266.845,-161.434 390.398,-157.918 494,-156.717 533.108,-156.264 542.945,-154.632 582,-156.717 691.609,-162.569 821.597,-179.708 874.871,-187.174"/>
<polygon fill="#9a32cd" stroke="#9a32cd" points="215.432,-159.488 205.543,-163.292 215.645,-166.484 215.432,-159.488"/>
<text text-anchor="middle" x="538" y="-181.717" font-family="Helvetica,sans-Serif" font-size="10.00"> mapDepth</text>
<text text-anchor="middle" x="538" y="-170.717" font-family="Helvetica,sans-Serif" font-size="10.00">mapHeight</text>
<text text-anchor="middle" x="538" y="-159.717" font-family="Helvetica,sans-Serif" font-size="10.00">mapWidth</text>
</g>
<!-- Node15&#45;&gt;Node12 -->
<g id="edge22" class="edge"><title>Node15&#45;&gt;Node12</title>
<path fill="none" stroke="#9a32cd" stroke-dasharray="5,2" d="M215.82,-166.064C297.627,-174.125 566.456,-200.613 646.389,-208.489"/>
<polygon fill="#9a32cd" stroke="#9a32cd" points="216.056,-162.571 205.761,-165.073 215.37,-169.537 216.056,-162.571"/>
<text text-anchor="middle" x="418" y="-226.717" font-family="Helvetica,sans-Serif" font-size="10.00"> tileHeight</text>
<text text-anchor="middle" x="418" y="-215.717" font-family="Helvetica,sans-Serif" font-size="10.00">rows</text>
<text text-anchor="middle" x="418" y="-204.717" font-family="Helvetica,sans-Serif" font-size="10.00">tileWidth</text>
<text text-anchor="middle" x="418" y="-193.717" font-family="Helvetica,sans-Serif" font-size="10.00">columns</text>
</g>
<!-- Node15&#45;&gt;Node13 -->
<g id="edge16" class="edge"><title>Node15&#45;&gt;Node13</title>
<path fill="none" stroke="#9a32cd" stroke-dasharray="5,2" d="M215.098,-170.77C246.205,-181.053 302.24,-202.412 342,-233.717 373.658,-258.644 400.21,-299.413 411.361,-317.97"/>
<polygon fill="#9a32cd" stroke="#9a32cd" points="216.155,-167.433 205.564,-167.708 214.015,-174.098 216.155,-167.433"/>
<text text-anchor="middle" x="310" y="-269.717" font-family="Helvetica,sans-Serif" font-size="10.00"> width</text>
<text text-anchor="middle" x="310" y="-258.717" font-family="Helvetica,sans-Serif" font-size="10.00">currentFrame</text>
<text text-anchor="middle" x="310" y="-247.717" font-family="Helvetica,sans-Serif" font-size="10.00">height</text>
<text text-anchor="middle" x="310" y="-236.717" font-family="Helvetica,sans-Serif" font-size="10.00">frameCount</text>
</g>
<!-- Node23 -->
<g id="node22" class="node"><title>Node23</title>
<g id="a_node22"><a xlink:href="classSound.html" target="_top" xlink:title="Classe que modela sons. ">
<polygon fill="white" stroke="black" points="396,-52.2173 396,-71.2173 440,-71.2173 440,-52.2173 396,-52.2173"/>
<text text-anchor="middle" x="418" y="-59.2173" font-family="Helvetica,sans-Serif" font-size="10.00">Sound</text>
</a>
</g>
</g>
<!-- Node15&#45;&gt;Node23 -->
<g id="edge30" class="edge"><title>Node15&#45;&gt;Node23</title>
<path fill="none" stroke="#9a32cd" stroke-dasharray="5,2" d="M214.995,-153.293C258.798,-133.436 353.6,-90.4589 395.891,-71.2867"/>
<polygon fill="#9a32cd" stroke="#9a32cd" points="213.399,-150.174 205.736,-157.49 216.289,-156.549 213.399,-150.174"/>
<text text-anchor="middle" x="310" y="-124.717" font-family="Helvetica,sans-Serif" font-size="10.00"> channel</text>
</g>
<!-- Node16 -->
<g id="node15" class="node"><title>Node16</title>
<polygon fill="white" stroke="#bfbfbf" points="122,-335.217 122,-354.217 260,-354.217 260,-335.217 122,-335.217"/>
<text text-anchor="middle" x="191" y="-342.217" font-family="Helvetica,sans-Serif" font-size="10.00">shared_ptr&lt; SDL_Texture &gt;</text>
</g>
<!-- Node16&#45;&gt;Node13 -->
<g id="edge17" class="edge"><title>Node16&#45;&gt;Node13</title>
<path fill="none" stroke="#9a32cd" stroke-dasharray="5,2" d="M270.19,-338.81C315.257,-335.405 368.448,-331.386 396.803,-329.243"/>
<polygon fill="#9a32cd" stroke="#9a32cd" points="269.826,-335.327 260.118,-339.571 270.353,-342.307 269.826,-335.327"/>
<text text-anchor="middle" x="310" y="-340.717" font-family="Helvetica,sans-Serif" font-size="10.00"> texture</text>
</g>
<!-- Node17 -->
<g id="node16" class="node"><title>Node17</title>
<polygon fill="white" stroke="#bfbfbf" points="146,-297.217 146,-316.217 236,-316.217 236,-297.217 146,-297.217"/>
<text text-anchor="middle" x="191" y="-304.217" font-family="Helvetica,sans-Serif" font-size="10.00">SDL_BlendMode</text>
</g>
<!-- Node17&#45;&gt;Node13 -->
<g id="edge19" class="edge"><title>Node17&#45;&gt;Node13</title>
<path fill="none" stroke="#9a32cd" stroke-dasharray="5,2" d="M246.213,-309.914C274.751,-311.794 310.308,-314.445 342,-317.717 360.685,-319.646 381.898,-322.541 396.983,-324.72"/>
<polygon fill="#9a32cd" stroke="#9a32cd" points="246.241,-306.409 236.036,-309.257 245.79,-313.394 246.241,-306.409"/>
<text text-anchor="middle" x="310" y="-320.717" font-family="Helvetica,sans-Serif" font-size="10.00"> blendMode</text>
</g>
<!-- Node18 -->
<g id="node17" class="node"><title>Node18</title>
<g id="a_node17"><a xlink:href="structColor.html" target="_top" xlink:title="Struct para armazenar informações de cor. ">
<polygon fill="white" stroke="black" points="171,-259.217 171,-278.217 211,-278.217 211,-259.217 171,-259.217"/>
<text text-anchor="middle" x="191" y="-266.217" font-family="Helvetica,sans-Serif" font-size="10.00">Color</text>
</a>
</g>
</g>
<!-- Node18&#45;&gt;Node13 -->
<g id="edge20" class="edge"><title>Node18&#45;&gt;Node13</title>
<path fill="none" stroke="#9a32cd" stroke-dasharray="5,2" d="M221.228,-272.343C251.77,-276.554 300.877,-284.524 342,-296.717 361.181,-302.405 382.159,-311.321 397.039,-318.134"/>
<polygon fill="#9a32cd" stroke="#9a32cd" points="221.618,-268.864 211.243,-271.009 220.691,-275.802 221.618,-268.864"/>
<text text-anchor="middle" x="310" y="-299.717" font-family="Helvetica,sans-Serif" font-size="10.00"> colorMultiplier</text>
</g>
<!-- Node19 -->
<g id="node18" class="node"><title>Node19</title>
<polygon fill="white" stroke="#bfbfbf" points="0,-259.217 0,-278.217 77,-278.217 77,-259.217 0,-259.217"/>
<text text-anchor="middle" x="38.5" y="-266.217" font-family="Helvetica,sans-Serif" font-size="10.00">unsigned char</text>
</g>
<!-- Node19&#45;&gt;Node18 -->
<g id="edge21" class="edge"><title>Node19&#45;&gt;Node18</title>
<path fill="none" stroke="#9a32cd" stroke-dasharray="5,2" d="M87.2041,-268.717C115.496,-268.717 149.815,-268.717 170.771,-268.717"/>
<polygon fill="#9a32cd" stroke="#9a32cd" points="87.0893,-265.217 77.0893,-268.717 87.0892,-272.217 87.0893,-265.217"/>
<text text-anchor="middle" x="99.5" y="-304.717" font-family="Helvetica,sans-Serif" font-size="10.00"> g</text>
<text text-anchor="middle" x="99.5" y="-293.717" font-family="Helvetica,sans-Serif" font-size="10.00">a</text>
<text text-anchor="middle" x="99.5" y="-282.717" font-family="Helvetica,sans-Serif" font-size="10.00">r</text>
<text text-anchor="middle" x="99.5" y="-271.717" font-family="Helvetica,sans-Serif" font-size="10.00">b</text>
</g>
<!-- Node20 -->
<g id="node19" class="node"><title>Node20</title>
<polygon fill="white" stroke="#bfbfbf" points="634,-125.217 634,-144.217 706,-144.217 706,-125.217 634,-125.217"/>
<text text-anchor="middle" x="670" y="-132.217" font-family="Helvetica,sans-Serif" font-size="10.00">vector&lt; int &gt;</text>
</g>
<!-- Node20&#45;&gt;Node10 -->
<g id="edge23" class="edge"><title>Node20&#45;&gt;Node10</title>
<path fill="none" stroke="#9a32cd" stroke-dasharray="5,2" d="M716.254,-130.436C753.325,-128.681 806.417,-130.257 849,-147.717 866.686,-154.969 882.669,-170.897 891.722,-181.199"/>
<polygon fill="#9a32cd" stroke="#9a32cd" points="716.029,-126.943 706.246,-131.009 716.429,-133.932 716.029,-126.943"/>
<text text-anchor="middle" x="803.5" y="-150.717" font-family="Helvetica,sans-Serif" font-size="10.00"> tileMatrix</text>
</g>
<!-- Node21 -->
<g id="node20" class="node"><title>Node21</title>
<polygon fill="white" stroke="#bfbfbf" points="608.5,-87.2173 608.5,-106.217 731.5,-106.217 731.5,-87.2173 608.5,-87.2173"/>
<text text-anchor="middle" x="670" y="-94.2173" font-family="Helvetica,sans-Serif" font-size="10.00">vector&lt; GameObject * &gt;</text>
</g>
<!-- Node21&#45;&gt;Node10 -->
<g id="edge24" class="edge"><title>Node21&#45;&gt;Node10</title>
<path fill="none" stroke="#9a32cd" stroke-dasharray="5,2" d="M741.58,-90.2666C776.189,-90.3421 817.164,-95.5233 849,-114.717 874.641,-130.176 889.947,-164.234 896.202,-181.002"/>
<polygon fill="#9a32cd" stroke="#9a32cd" points="741.489,-86.7673 731.531,-90.3849 741.572,-93.7668 741.489,-86.7673"/>
<text text-anchor="middle" x="803.5" y="-117.717" font-family="Helvetica,sans-Serif" font-size="10.00"> gameObjectMatrix</text>
</g>
<!-- Node22 -->
<g id="node21" class="node"><title>Node22</title>
<polygon fill="white" stroke="#bfbfbf" points="600,-49.2173 600,-68.2173 740,-68.2173 740,-49.2173 600,-49.2173"/>
<text text-anchor="middle" x="670" y="-56.2173" font-family="Helvetica,sans-Serif" font-size="10.00">vector&lt; TileMapObserver *&gt;</text>
</g>
<!-- Node22&#45;&gt;Node10 -->
<g id="edge27" class="edge"><title>Node22&#45;&gt;Node10</title>
<path fill="none" stroke="#9a32cd" stroke-dasharray="5,2" d="M750.341,-50.0188C783.601,-50.3583 820.969,-56.3956 849,-76.7173 884.402,-102.382 895.377,-158.523 898.433,-181.066"/>
<polygon fill="#9a32cd" stroke="#9a32cd" points="750.142,-46.5199 740.166,-50.0868 750.189,-53.5198 750.142,-46.5199"/>
<text text-anchor="middle" x="803.5" y="-79.7173" font-family="Helvetica,sans-Serif" font-size="10.00"> observers</text>
</g>
<!-- Node23&#45;&gt;Node2 -->
<g id="edge29" class="edge"><title>Node23&#45;&gt;Node2</title>
<path fill="none" stroke="#9a32cd" stroke-dasharray="5,2" d="M450.161,-49.1563C524.626,-21.2859 716.553,37.6914 849,-35.7173 1046.81,-145.352 1044.51,-489.708 1042.42,-552.005"/>
<polygon fill="#9a32cd" stroke="#9a32cd" points="448.544,-46.0272 440.451,-52.8655 451.042,-52.5663 448.544,-46.0272"/>
<text text-anchor="middle" x="803.5" y="-38.7173" font-family="Helvetica,sans-Serif" font-size="10.00"> dragNDrop</text>
</g>
<!-- Node24 -->
<g id="node23" class="node"><title>Node24</title>
<polygon fill="white" stroke="#bfbfbf" points="126,-52.2173 126,-71.2173 256,-71.2173 256,-52.2173 126,-52.2173"/>
<text text-anchor="middle" x="191" y="-59.2173" font-family="Helvetica,sans-Serif" font-size="10.00">shared_ptr&lt; Mix_Chunk &gt;</text>
</g>
<!-- Node24&#45;&gt;Node23 -->
<g id="edge31" class="edge"><title>Node24&#45;&gt;Node23</title>
<path fill="none" stroke="#9a32cd" stroke-dasharray="5,2" d="M266.284,-61.7173C311.618,-61.7173 366.348,-61.7173 395.784,-61.7173"/>
<polygon fill="#9a32cd" stroke="#9a32cd" points="266.175,-58.2174 256.175,-61.7173 266.175,-65.2174 266.175,-58.2174"/>
<text text-anchor="middle" x="310" y="-64.7173" font-family="Helvetica,sans-Serif" font-size="10.00"> sound</text>
</g>
</g>
</svg>
