<?xml version="1.0" encoding="UTF-8" standalone="no"?>
<!DOCTYPE svg PUBLIC "-//W3C//DTD SVG 1.1//EN"
 "http://www.w3.org/Graphics/SVG/1.1/DTD/svg11.dtd">
<!-- Generated by graphviz version 2.40.1 (20161225.0304)
 -->
<!-- Title: RattletrapEngine::RectTransform Pages: 1 -->
<svg width="999pt" height="312pt"
 viewBox="0.00 0.00 999.00 312.00" xmlns="http://www.w3.org/2000/svg" xmlns:xlink="http://www.w3.org/1999/xlink">
<g id="graph0" class="graph" transform="scale(1 1) rotate(0) translate(4 308)">
<title>RattletrapEngine::RectTransform</title>
<polygon fill="#ffffff" stroke="transparent" points="-4,4 -4,-308 995,-308 995,4 -4,4"/>
<!-- Node2 -->
<g id="node1" class="node">
<title>Node2</title>
<polygon fill="#bfbfbf" stroke="#000000" points="830,-129.5 830,-148.5 991,-148.5 991,-129.5 830,-129.5"/>
<text text-anchor="middle" x="910.5" y="-136.5" font-family="Helvetica,sans-Serif" font-size="10.00" fill="#000000">RattletrapEngine::RectTransform</text>
</g>
<!-- Node3 -->
<g id="node2" class="node">
<title>Node3</title>
<g id="a_node2"><a xlink:href="classRattletrapEngine_1_1Component.html" target="_top" xlink:title="Modela os componentes. ">
<polygon fill="#ffffff" stroke="#000000" points="608,-192.5 608,-211.5 754,-211.5 754,-192.5 608,-192.5"/>
<text text-anchor="middle" x="681" y="-199.5" font-family="Helvetica,sans-Serif" font-size="10.00" fill="#000000">RattletrapEngine::Component</text>
</a>
</g>
</g>
<!-- Node3&#45;&gt;Node2 -->
<g id="edge1" class="edge">
<title>Node3&#45;&gt;Node2</title>
<path fill="none" stroke="#191970" d="M753.1192,-190.6421C772.4101,-186.9522 793.1372,-182.3911 812,-177 839.1402,-169.2432 869.2722,-157.0675 888.9752,-148.5963"/>
<polygon fill="#191970" stroke="#191970" points="752.3704,-187.2213 743.1797,-192.4921 753.6514,-194.1031 752.3704,-187.2213"/>
</g>
<!-- Node4 -->
<g id="node3" class="node">
<title>Node4</title>
<polygon fill="#ffffff" stroke="#bfbfbf" points="127,-279.5 127,-298.5 162,-298.5 162,-279.5 127,-279.5"/>
<text text-anchor="middle" x="144.5" y="-286.5" font-family="Helvetica,sans-Serif" font-size="10.00" fill="#000000">bool</text>
</g>
<!-- Node4&#45;&gt;Node2 -->
<g id="edge10" class="edge">
<title>Node4&#45;&gt;Node2</title>
<path fill="none" stroke="#9a32cd" stroke-dasharray="5,2" d="M172.0792,-290.9865C187.6155,-292.0368 207.381,-293.2588 225,-294 285.4057,-296.5412 300.5445,-296.3333 361,-297 427.6626,-297.7352 445.0975,-307.0653 511,-297 622.8617,-279.9153 648.1857,-261.1032 754,-221 808.2108,-200.4544 867.6777,-165.5508 895.0917,-148.6883"/>
<polygon fill="#9a32cd" stroke="#9a32cd" points="172.2951,-287.4931 162.0775,-290.2947 171.8121,-294.4764 172.2951,-287.4931"/>
<text text-anchor="middle" x="559.5" y="-296" font-family="Helvetica,sans-Serif" font-size="10.00" fill="#000000"> debugRender</text>
</g>
<!-- Node4&#45;&gt;Node3 -->
<g id="edge2" class="edge">
<title>Node4&#45;&gt;Node3</title>
<path fill="none" stroke="#9a32cd" stroke-dasharray="5,2" d="M172.5288,-288.2787C211.0938,-287.0008 282.6097,-283.6065 343,-275 454.1398,-259.161 583.2629,-227.5101 644.7943,-211.599"/>
<polygon fill="#9a32cd" stroke="#9a32cd" points="172.0018,-284.7931 162.1138,-288.5982 172.2165,-291.7898 172.0018,-284.7931"/>
<text text-anchor="middle" x="436" y="-285" font-family="Helvetica,sans-Serif" font-size="10.00" fill="#000000"> newEnabled</text>
<text text-anchor="middle" x="436" y="-274" font-family="Helvetica,sans-Serif" font-size="10.00" fill="#000000">enabled</text>
</g>
<!-- Node5 -->
<g id="node4" class="node">
<title>Node5</title>
<g id="a_node4"><a xlink:href="classRattletrapEngine_1_1GameObject.html" target="_top" xlink:title="Classe virtual que especifica o funcionamento de um GameObject. ">
<polygon fill="#ffffff" stroke="#000000" points="361,-182.5 361,-201.5 511,-201.5 511,-182.5 361,-182.5"/>
<text text-anchor="middle" x="436" y="-189.5" font-family="Helvetica,sans-Serif" font-size="10.00" fill="#000000">RattletrapEngine::GameObject</text>
</a>
</g>
</g>
<!-- Node4&#45;&gt;Node5 -->
<g id="edge6" class="edge">
<title>Node4&#45;&gt;Node5</title>
<path fill="none" stroke="#9a32cd" stroke-dasharray="5,2" d="M166.1815,-273.6285C181.8375,-263.2231 203.8598,-249.9688 225,-242 274.9972,-223.1534 291.0688,-231.5725 343,-219 364.0792,-213.8968 387.5292,-207.0807 405.6082,-201.5739"/>
<polygon fill="#9a32cd" stroke="#9a32cd" points="164.0516,-270.8444 157.754,-279.3644 167.9903,-276.6312 164.0516,-270.8444"/>
<text text-anchor="middle" x="284" y="-267" font-family="Helvetica,sans-Serif" font-size="10.00" fill="#000000"> dead</text>
<text text-anchor="middle" x="284" y="-256" font-family="Helvetica,sans-Serif" font-size="10.00" fill="#000000">active</text>
<text text-anchor="middle" x="284" y="-245" font-family="Helvetica,sans-Serif" font-size="10.00" fill="#000000">newActive</text>
</g>
<!-- Node5&#45;&gt;Node2 -->
<g id="edge14" class="edge">
<title>Node5&#45;&gt;Node2</title>
<path fill="none" stroke="#9a32cd" stroke-dasharray="5,2" d="M521.3677,-181.9523C549.005,-178.7319 579.7978,-175.1779 608,-172 683.2015,-163.526 768.9604,-154.2027 829.9145,-147.6339"/>
<polygon fill="#9a32cd" stroke="#9a32cd" points="520.8659,-178.487 511.3389,-183.1224 521.6772,-185.4399 520.8659,-178.487"/>
<text text-anchor="middle" x="681" y="-175" font-family="Helvetica,sans-Serif" font-size="10.00" fill="#000000"> GOparent</text>
</g>
<!-- Node5&#45;&gt;Node3 -->
<g id="edge3" class="edge">
<title>Node5&#45;&gt;Node3</title>
<path fill="none" stroke="#9a32cd" stroke-dasharray="5,2" d="M521.3901,-195.4853C549.5097,-196.633 580.5101,-197.8984 607.6514,-199.0062"/>
<polygon fill="#9a32cd" stroke="#9a32cd" points="521.3075,-191.9791 511.1731,-195.0683 521.022,-198.9733 521.3075,-191.9791"/>
<text text-anchor="middle" x="559.5" y="-201" font-family="Helvetica,sans-Serif" font-size="10.00" fill="#000000"> associated</text>
</g>
<!-- Node6 -->
<g id="node5" class="node">
<title>Node6</title>
<polygon fill="#ffffff" stroke="#bfbfbf" points="0,-102.5 0,-121.5 35,-121.5 35,-102.5 0,-102.5"/>
<text text-anchor="middle" x="17.5" y="-109.5" font-family="Helvetica,sans-Serif" font-size="10.00" fill="#000000">float</text>
</g>
<!-- Node6&#45;&gt;Node5 -->
<g id="edge4" class="edge">
<title>Node6&#45;&gt;Node5</title>
<path fill="none" stroke="#9a32cd" stroke-dasharray="5,2" d="M27.8252,-130.3912C38.7074,-147.5614 57.6442,-171.8685 82,-181 179.8767,-217.696 303.8674,-210.5059 376.128,-201.5338"/>
<polygon fill="#9a32cd" stroke="#9a32cd" points="30.7726,-128.5006 22.625,-121.7281 24.7709,-132.1033 30.7726,-128.5006"/>
<text text-anchor="middle" x="144.5" y="-209" font-family="Helvetica,sans-Serif" font-size="10.00" fill="#000000"> rotation</text>
</g>
<!-- Node8 -->
<g id="node7" class="node">
<title>Node8</title>
<g id="a_node7"><a xlink:href="classRattletrapEngine_1_1Rect.html" target="_top" xlink:title="Classe que modela um rect. ">
<polygon fill="#ffffff" stroke="#000000" points="86.5,-102.5 86.5,-121.5 202.5,-121.5 202.5,-102.5 86.5,-102.5"/>
<text text-anchor="middle" x="144.5" y="-109.5" font-family="Helvetica,sans-Serif" font-size="10.00" fill="#000000">RattletrapEngine::Rect</text>
</a>
</g>
</g>
<!-- Node6&#45;&gt;Node8 -->
<g id="edge8" class="edge">
<title>Node6&#45;&gt;Node8</title>
<path fill="none" stroke="#9a32cd" stroke-dasharray="5,2" d="M45.4244,-112C57.4632,-112 72.0207,-112 86.227,-112"/>
<polygon fill="#9a32cd" stroke="#9a32cd" points="45.1588,-108.5001 35.1588,-112 45.1588,-115.5001 45.1588,-108.5001"/>
<text text-anchor="middle" x="58.5" y="-148" font-family="Helvetica,sans-Serif" font-size="10.00" fill="#000000"> w</text>
<text text-anchor="middle" x="58.5" y="-137" font-family="Helvetica,sans-Serif" font-size="10.00" fill="#000000">x</text>
<text text-anchor="middle" x="58.5" y="-126" font-family="Helvetica,sans-Serif" font-size="10.00" fill="#000000">h</text>
<text text-anchor="middle" x="58.5" y="-115" font-family="Helvetica,sans-Serif" font-size="10.00" fill="#000000">y</text>
</g>
<!-- Node10 -->
<g id="node9" class="node">
<title>Node10</title>
<g id="a_node9"><a xlink:href="classRattletrapEngine_1_1Vec2.html" target="_top" xlink:title="Classe que modela um vetor(no sentido físico) ">
<polygon fill="#ffffff" stroke="#000000" points="225,-43.5 225,-62.5 343,-62.5 343,-43.5 225,-43.5"/>
<text text-anchor="middle" x="284" y="-50.5" font-family="Helvetica,sans-Serif" font-size="10.00" fill="#000000">RattletrapEngine::Vec2</text>
</a>
</g>
</g>
<!-- Node6&#45;&gt;Node10 -->
<g id="edge12" class="edge">
<title>Node6&#45;&gt;Node10</title>
<path fill="none" stroke="#9a32cd" stroke-dasharray="5,2" d="M35.8899,-95.917C41.1141,-92.1026 47.0177,-88.4382 53,-86 108.5223,-63.3706 177.0537,-55.8769 224.9953,-53.5817"/>
<polygon fill="#9a32cd" stroke="#9a32cd" points="33.5118,-93.3357 27.8455,-102.288 37.8578,-98.8232 33.5118,-93.3357"/>
<text text-anchor="middle" x="58.5" y="-100" font-family="Helvetica,sans-Serif" font-size="10.00" fill="#000000"> x</text>
<text text-anchor="middle" x="58.5" y="-89" font-family="Helvetica,sans-Serif" font-size="10.00" fill="#000000">y</text>
</g>
<!-- Node7 -->
<g id="node6" class="node">
<title>Node7</title>
<polygon fill="#ffffff" stroke="#bfbfbf" points="82,-141 82,-171 207,-171 207,-141 82,-141"/>
<text text-anchor="start" x="90" y="-159" font-family="Helvetica,sans-Serif" font-size="10.00" fill="#000000">vector&lt; RattletrapEngine</text>
<text text-anchor="middle" x="144.5" y="-148" font-family="Helvetica,sans-Serif" font-size="10.00" fill="#000000">::Component *&gt;</text>
</g>
<!-- Node7&#45;&gt;Node5 -->
<g id="edge5" class="edge">
<title>Node7&#45;&gt;Node5</title>
<path fill="none" stroke="#9a32cd" stroke-dasharray="5,2" d="M217.0475,-164.9596C260.8741,-170.3721 316.628,-177.2577 360.9056,-182.7259"/>
<polygon fill="#9a32cd" stroke="#9a32cd" points="217.3877,-161.4751 207.0341,-163.7229 216.5296,-168.4223 217.3877,-161.4751"/>
<text text-anchor="middle" x="284" y="-183" font-family="Helvetica,sans-Serif" font-size="10.00" fill="#000000"> components</text>
</g>
<!-- Node8&#45;&gt;Node2 -->
<g id="edge13" class="edge">
<title>Node8&#45;&gt;Node2</title>
<path fill="none" stroke="#9a32cd" stroke-dasharray="5,2" d="M212.9791,-114.4138C354.4964,-119.402 678.5791,-130.8252 829.8991,-136.159"/>
<polygon fill="#9a32cd" stroke="#9a32cd" points="212.8203,-110.9061 202.7032,-114.0515 212.5737,-117.9017 212.8203,-110.9061"/>
<text text-anchor="middle" x="559.5" y="-153" font-family="Helvetica,sans-Serif" font-size="10.00" fill="#000000"> offsets</text>
<text text-anchor="middle" x="559.5" y="-142" font-family="Helvetica,sans-Serif" font-size="10.00" fill="#000000">anchors</text>
<text text-anchor="middle" x="559.5" y="-131" font-family="Helvetica,sans-Serif" font-size="10.00" fill="#000000">boundingBox</text>
</g>
<!-- Node8&#45;&gt;Node5 -->
<g id="edge7" class="edge">
<title>Node8&#45;&gt;Node5</title>
<path fill="none" stroke="#9a32cd" stroke-dasharray="5,2" d="M206.2564,-123.4232C259.5534,-133.3989 329.9771,-146.9056 343,-151 369.7643,-159.4147 399.1578,-173.1928 417.59,-182.426"/>
<polygon fill="#9a32cd" stroke="#9a32cd" points="206.6576,-119.9376 196.1849,-121.5418 205.3722,-126.8186 206.6576,-119.9376"/>
<text text-anchor="middle" x="284" y="-154" font-family="Helvetica,sans-Serif" font-size="10.00" fill="#000000"> box</text>
</g>
<!-- Node9 -->
<g id="node8" class="node">
<title>Node9</title>
<polygon fill="#ffffff" stroke="#bfbfbf" points="642.5,-.5 642.5,-19.5 719.5,-19.5 719.5,-.5 642.5,-.5"/>
<text text-anchor="middle" x="681" y="-7.5" font-family="Helvetica,sans-Serif" font-size="10.00" fill="#000000">BehaviorType</text>
</g>
<!-- Node9&#45;&gt;Node2 -->
<g id="edge9" class="edge">
<title>Node9&#45;&gt;Node2</title>
<path fill="none" stroke="#9a32cd" stroke-dasharray="5,2" d="M729.8708,-6.3103C755.6417,-6.409 787.0041,-9.8959 812,-23 859.5006,-47.9021 893.605,-106.2518 905.6903,-129.3448"/>
<polygon fill="#9a32cd" stroke="#9a32cd" points="729.5215,-2.8145 719.5685,-6.4461 729.6138,-9.8139 729.5215,-2.8145"/>
<text text-anchor="middle" x="792" y="-26" font-family="Helvetica,sans-Serif" font-size="10.00" fill="#000000"> behavior</text>
</g>
<!-- Node10&#45;&gt;Node2 -->
<g id="edge11" class="edge">
<title>Node10&#45;&gt;Node2</title>
<path fill="none" stroke="#9a32cd" stroke-dasharray="5,2" d="M353.584,-51.5618C402.6206,-50.6222 469.826,-49.483 529,-49 556.1102,-48.7787 563.0681,-45.8879 590,-49 690.6674,-60.6324 715.1631,-71.1361 812,-101 838.623,-109.2104 868.3563,-121.0674 888.1208,-129.3462"/>
<polygon fill="#9a32cd" stroke="#9a32cd" points="353.3356,-48.0658 343.4053,-51.7589 353.4713,-55.0645 353.3356,-48.0658"/>
<text text-anchor="middle" x="559.5" y="-85" font-family="Helvetica,sans-Serif" font-size="10.00" fill="#000000"> maxScale</text>
<text text-anchor="middle" x="559.5" y="-74" font-family="Helvetica,sans-Serif" font-size="10.00" fill="#000000">minScale</text>
<text text-anchor="middle" x="559.5" y="-63" font-family="Helvetica,sans-Serif" font-size="10.00" fill="#000000">kernelSize</text>
<text text-anchor="middle" x="559.5" y="-52" font-family="Helvetica,sans-Serif" font-size="10.00" fill="#000000">centerPin</text>
</g>
</g>
</svg>
