<?xml version="1.0" encoding="UTF-8" standalone="no"?>
<!DOCTYPE svg PUBLIC "-//W3C//DTD SVG 1.1//EN"
 "http://www.w3.org/Graphics/SVG/1.1/DTD/svg11.dtd">
<!-- Generated by graphviz version 2.38.0 (20140413.2041)
 -->
<!-- Title: Component Pages: 1 -->
<svg width="614pt" height="84pt"
 viewBox="0.00 0.00 614.00 84.00" xmlns="http://www.w3.org/2000/svg" xmlns:xlink="http://www.w3.org/1999/xlink">
<g id="graph0" class="graph" transform="scale(1 1) rotate(0) translate(4 80)">
<title>Component</title>
<polygon fill="white" stroke="none" points="-4,4 -4,-80 610,-80 610,4 -4,4"/>
<!-- Node0 -->
<g id="node1" class="node"><title>Node0</title>
<polygon fill="#bfbfbf" stroke="black" points="299,-56.5 299,-75.5 366,-75.5 366,-56.5 299,-56.5"/>
<text text-anchor="middle" x="332.5" y="-63.5" font-family="Helvetica,sans-Serif" font-size="10.00">Component</text>
</g>
<!-- Node1 -->
<g id="node2" class="node"><title>Node1</title>
<g id="a_node2"><a xlink:href="classButton.html" target="_top" xlink:title="Button">
<polygon fill="white" stroke="black" points="0,-0.5 0,-19.5 45,-19.5 45,-0.5 0,-0.5"/>
<text text-anchor="middle" x="22.5" y="-7.5" font-family="Helvetica,sans-Serif" font-size="10.00">Button</text>
</a>
</g>
</g>
<!-- Node0&#45;&gt;Node1 -->
<g id="edge1" class="edge"><title>Node0&#45;&gt;Node1</title>
<path fill="none" stroke="midnightblue" d="M288.795,-59.4911C233.792,-52.1998 136.578,-38.1237 54.5,-20 51.4569,-19.3281 48.2738,-18.5391 45.1451,-17.7125"/>
<polygon fill="midnightblue" stroke="midnightblue" points="288.518,-62.9846 298.889,-60.8155 289.429,-56.0441 288.518,-62.9846"/>
</g>
<!-- Node2 -->
<g id="node3" class="node"><title>Node2</title>
<g id="a_node3"><a xlink:href="classDragAndDrop.html" target="_top" xlink:title="Classe responsável por arrastar e posicionar Objetos. ">
<polygon fill="white" stroke="black" points="63.5,-0.5 63.5,-19.5 163.5,-19.5 163.5,-0.5 63.5,-0.5"/>
<text text-anchor="middle" x="113.5" y="-7.5" font-family="Helvetica,sans-Serif" font-size="10.00">DragAndDrop&lt; T &gt;</text>
</a>
</g>
</g>
<!-- Node0&#45;&gt;Node2 -->
<g id="edge2" class="edge"><title>Node0&#45;&gt;Node2</title>
<path fill="none" stroke="midnightblue" d="M288.954,-54.2627C247.556,-44.0549 186.112,-28.9043 148,-19.5069"/>
<polygon fill="midnightblue" stroke="midnightblue" points="288.214,-57.6849 298.761,-56.6808 289.89,-50.8885 288.214,-57.6849"/>
</g>
<!-- Node3 -->
<g id="node4" class="node"><title>Node3</title>
<g id="a_node4"><a xlink:href="classGrouper.html" target="_top" xlink:title="Grouper">
<polygon fill="white" stroke="black" points="182,-0.5 182,-19.5 233,-19.5 233,-0.5 182,-0.5"/>
<text text-anchor="middle" x="207.5" y="-7.5" font-family="Helvetica,sans-Serif" font-size="10.00">Grouper</text>
</a>
</g>
</g>
<!-- Node0&#45;&gt;Node3 -->
<g id="edge3" class="edge"><title>Node0&#45;&gt;Node3</title>
<path fill="none" stroke="midnightblue" d="M303.259,-52.3678C279.85,-42.2553 247.659,-28.3486 227.214,-19.5164"/>
<polygon fill="midnightblue" stroke="midnightblue" points="302.125,-55.6907 312.693,-56.4435 304.901,-49.2647 302.125,-55.6907"/>
</g>
<!-- Node4 -->
<g id="node5" class="node"><title>Node4</title>
<g id="a_node5"><a xlink:href="classRectTransform.html" target="_top" xlink:title="RectTransform">
<polygon fill="white" stroke="black" points="251.5,-0.5 251.5,-19.5 333.5,-19.5 333.5,-0.5 251.5,-0.5"/>
<text text-anchor="middle" x="292.5" y="-7.5" font-family="Helvetica,sans-Serif" font-size="10.00">RectTransform</text>
</a>
</g>
</g>
<!-- Node0&#45;&gt;Node4 -->
<g id="edge4" class="edge"><title>Node0&#45;&gt;Node4</title>
<path fill="none" stroke="midnightblue" d="M319.8,-47.8554C312.874,-38.5048 304.594,-27.3265 298.982,-19.7511"/>
<polygon fill="midnightblue" stroke="midnightblue" points="317.13,-50.1307 325.895,-56.083 322.755,-45.9641 317.13,-50.1307"/>
</g>
<!-- Node5 -->
<g id="node6" class="node"><title>Node5</title>
<g id="a_node6"><a xlink:href="classSprite.html" target="_top" xlink:title="Classe que modela uma sprite. Sprite é uma imagem carregada na memória. Essa classe também traz uma s...">
<polygon fill="white" stroke="black" points="351.5,-0.5 351.5,-19.5 393.5,-19.5 393.5,-0.5 351.5,-0.5"/>
<text text-anchor="middle" x="372.5" y="-7.5" font-family="Helvetica,sans-Serif" font-size="10.00">Sprite</text>
</a>
</g>
</g>
<!-- Node0&#45;&gt;Node5 -->
<g id="edge5" class="edge"><title>Node0&#45;&gt;Node5</title>
<path fill="none" stroke="midnightblue" d="M345.2,-47.8554C352.126,-38.5048 360.406,-27.3265 366.018,-19.7511"/>
<polygon fill="midnightblue" stroke="midnightblue" points="342.245,-45.9641 339.105,-56.083 347.87,-50.1307 342.245,-45.9641"/>
</g>
<!-- Node6 -->
<g id="node7" class="node"><title>Node6</title>
<g id="a_node7"><a xlink:href="classText.html" target="_top" xlink:title="Text">
<polygon fill="white" stroke="black" points="411.5,-0.5 411.5,-19.5 447.5,-19.5 447.5,-0.5 411.5,-0.5"/>
<text text-anchor="middle" x="429.5" y="-7.5" font-family="Helvetica,sans-Serif" font-size="10.00">Text</text>
</a>
</g>
</g>
<!-- Node0&#45;&gt;Node6 -->
<g id="edge6" class="edge"><title>Node0&#45;&gt;Node6</title>
<path fill="none" stroke="midnightblue" d="M356.835,-51.4526C374.743,-41.4835 398.554,-28.2279 413.954,-19.6545"/>
<polygon fill="midnightblue" stroke="midnightblue" points="355.12,-48.4018 348.085,-56.324 358.525,-54.5179 355.12,-48.4018"/>
</g>
<!-- Node7 -->
<g id="node8" class="node"><title>Node7</title>
<g id="a_node8"><a xlink:href="classTileMap.html" target="_top" xlink:title="TileMap\&lt; T \&gt;">
<polygon fill="white" stroke="black" points="466,-0.5 466,-19.5 541,-19.5 541,-0.5 466,-0.5"/>
<text text-anchor="middle" x="503.5" y="-7.5" font-family="Helvetica,sans-Serif" font-size="10.00">TileMap&lt; T &gt;</text>
</a>
</g>
</g>
<!-- Node0&#45;&gt;Node7 -->
<g id="edge7" class="edge"><title>Node0&#45;&gt;Node7</title>
<path fill="none" stroke="midnightblue" d="M369.536,-53.3044C401.757,-43.1294 447.689,-28.6246 476.531,-19.5164"/>
<polygon fill="midnightblue" stroke="midnightblue" points="368.077,-50.0946 359.595,-56.4435 370.185,-56.7697 368.077,-50.0946"/>
</g>
<!-- Node8 -->
<g id="node9" class="node"><title>Node8</title>
<g id="a_node9"><a xlink:href="classTileSet.html" target="_top" xlink:title="TileSet">
<polygon fill="white" stroke="black" points="559,-0.5 559,-19.5 606,-19.5 606,-0.5 559,-0.5"/>
<text text-anchor="middle" x="582.5" y="-7.5" font-family="Helvetica,sans-Serif" font-size="10.00">TileSet</text>
</a>
</g>
</g>
<!-- Node0&#45;&gt;Node8 -->
<g id="edge8" class="edge"><title>Node0&#45;&gt;Node8</title>
<path fill="none" stroke="midnightblue" d="M376.103,-56.9389C420.256,-48.5562 490.411,-34.6326 550.5,-20 553.191,-19.3446 555.999,-18.6185 558.784,-17.8714"/>
<polygon fill="midnightblue" stroke="midnightblue" points="375.453,-53.4998 366.276,-58.7947 376.752,-60.3783 375.453,-53.4998"/>
</g>
</g>
</svg>
