<?xml version="1.0" encoding="UTF-8" standalone="no"?>
<!DOCTYPE svg PUBLIC "-//W3C//DTD SVG 1.1//EN"
 "http://www.w3.org/Graphics/SVG/1.1/DTD/svg11.dtd">
<!-- Generated by graphviz version 2.38.0 (20140413.2041)
 -->
<!-- Title: TileMap Pages: 1 -->
<svg width="847pt" height="545pt"
 viewBox="0.00 0.00 847.00 545.00" xmlns="http://www.w3.org/2000/svg" xmlns:xlink="http://www.w3.org/1999/xlink">
<g id="graph0" class="graph" transform="scale(1 1) rotate(0) translate(4 541)">
<title>TileMap</title>
<polygon fill="white" stroke="none" points="-4,4 -4,-541 843,-541 843,4 -4,4"/>
<!-- Node2 -->
<g id="node1" class="node"><title>Node2</title>
<polygon fill="#bfbfbf" stroke="black" points="788,-114.5 788,-133.5 839,-133.5 839,-114.5 788,-114.5"/>
<text text-anchor="middle" x="813.5" y="-121.5" font-family="Helvetica,sans-Serif" font-size="10.00">TileMap</text>
</g>
<!-- Node3 -->
<g id="node2" class="node"><title>Node3</title>
<g id="a_node2"><a xlink:href="classNearestGOFinder.html" target="_top" xlink:title="NearestGOFinder">
<polygon fill="white" stroke="black" points="552.5,-517.5 552.5,-536.5 645.5,-536.5 645.5,-517.5 552.5,-517.5"/>
<text text-anchor="middle" x="599" y="-524.5" font-family="Helvetica,sans-Serif" font-size="10.00">NearestGOFinder</text>
</a>
</g>
</g>
<!-- Node3&#45;&gt;Node2 -->
<g id="edge1" class="edge"><title>Node3&#45;&gt;Node2</title>
<path fill="none" stroke="midnightblue" d="M656.027,-535.164C693.531,-537.23 741.138,-532.698 770,-503 796.591,-475.638 809.752,-190.292 812.11,-133.718"/>
<polygon fill="midnightblue" stroke="midnightblue" points="655.966,-531.651 645.741,-534.422 655.463,-538.633 655.966,-531.651"/>
</g>
<!-- Node4 -->
<g id="node3" class="node"><title>Node4</title>
<g id="a_node3"><a xlink:href="classTileSet.html" target="_top" xlink:title="Classe responsável por modelar um tileset. ">
<polygon fill="white" stroke="black" points="575.5,-162.5 575.5,-181.5 622.5,-181.5 622.5,-162.5 575.5,-162.5"/>
<text text-anchor="middle" x="599" y="-169.5" font-family="Helvetica,sans-Serif" font-size="10.00">TileSet</text>
</a>
</g>
</g>
<!-- Node4&#45;&gt;Node2 -->
<g id="edge2" class="edge"><title>Node4&#45;&gt;Node2</title>
<path fill="none" stroke="#9a32cd" stroke-dasharray="5,2" d="M632.72,-166.666C667.149,-160.773 722.788,-150.448 770,-138 775.859,-136.455 782.093,-134.552 787.93,-132.652"/>
<polygon fill="#9a32cd" stroke="#9a32cd" points="632.026,-163.234 622.748,-168.351 633.192,-170.136 632.026,-163.234"/>
<text text-anchor="middle" x="728.5" y="-159" font-family="Helvetica,sans-Serif" font-size="10.00"> tileSet</text>
</g>
<!-- Node5 -->
<g id="node4" class="node"><title>Node5</title>
<g id="a_node4"><a xlink:href="classSprite.html" target="_top" xlink:title="Classe que modela uma sprite. ">
<polygon fill="white" stroke="black" points="361.5,-301.5 361.5,-320.5 403.5,-320.5 403.5,-301.5 361.5,-301.5"/>
<text text-anchor="middle" x="382.5" y="-308.5" font-family="Helvetica,sans-Serif" font-size="10.00">Sprite</text>
</a>
</g>
</g>
<!-- Node5&#45;&gt;Node4 -->
<g id="edge3" class="edge"><title>Node5&#45;&gt;Node4</title>
<path fill="none" stroke="#9a32cd" stroke-dasharray="5,2" d="M406.9,-295.836C451.267,-267.086 546.46,-205.399 583.153,-181.621"/>
<polygon fill="#9a32cd" stroke="#9a32cd" points="404.732,-293.071 398.243,-301.446 408.539,-298.945 404.732,-293.071"/>
<text text-anchor="middle" x="467" y="-287" font-family="Helvetica,sans-Serif" font-size="10.00"> tileSet</text>
</g>
<!-- Node6 -->
<g id="node5" class="node"><title>Node6</title>
<polygon fill="white" stroke="#bfbfbf" points="173.5,-356.5 173.5,-375.5 208.5,-375.5 208.5,-356.5 173.5,-356.5"/>
<text text-anchor="middle" x="191" y="-363.5" font-family="Helvetica,sans-Serif" font-size="10.00">float</text>
</g>
<!-- Node6&#45;&gt;Node5 -->
<g id="edge4" class="edge"><title>Node6&#45;&gt;Node5</title>
<path fill="none" stroke="#9a32cd" stroke-dasharray="5,2" d="M219.049,-363.23C249.712,-359.454 300.788,-351.217 342,-335 351.259,-331.357 360.816,-325.612 368.21,-320.656"/>
<polygon fill="#9a32cd" stroke="#9a32cd" points="218.263,-359.798 208.732,-364.426 219.069,-366.751 218.263,-359.798"/>
<text text-anchor="middle" x="310" y="-388" font-family="Helvetica,sans-Serif" font-size="10.00"> scaleY</text>
<text text-anchor="middle" x="310" y="-377" font-family="Helvetica,sans-Serif" font-size="10.00">frameTime</text>
<text text-anchor="middle" x="310" y="-366" font-family="Helvetica,sans-Serif" font-size="10.00">timeElapsed</text>
<text text-anchor="middle" x="310" y="-355" font-family="Helvetica,sans-Serif" font-size="10.00">scaleX</text>
</g>
<!-- Node7 -->
<g id="node6" class="node"><title>Node7</title>
<polygon fill="white" stroke="#bfbfbf" points="160,-318.5 160,-337.5 222,-337.5 222,-318.5 160,-318.5"/>
<text text-anchor="middle" x="191" y="-325.5" font-family="Helvetica,sans-Serif" font-size="10.00">SDL_Rect</text>
</g>
<!-- Node7&#45;&gt;Node5 -->
<g id="edge5" class="edge"><title>Node7&#45;&gt;Node5</title>
<path fill="none" stroke="#9a32cd" stroke-dasharray="5,2" d="M232.165,-324.397C271.84,-320.838 330.894,-315.54 361.496,-312.795"/>
<polygon fill="#9a32cd" stroke="#9a32cd" points="231.674,-320.927 222.027,-325.306 232.3,-327.899 231.674,-320.927"/>
<text text-anchor="middle" x="310" y="-323" font-family="Helvetica,sans-Serif" font-size="10.00"> clipRect</text>
</g>
<!-- Node8 -->
<g id="node7" class="node"><title>Node8</title>
<polygon fill="white" stroke="#bfbfbf" points="176.5,-150.5 176.5,-169.5 205.5,-169.5 205.5,-150.5 176.5,-150.5"/>
<text text-anchor="middle" x="191" y="-157.5" font-family="Helvetica,sans-Serif" font-size="10.00">int</text>
</g>
<!-- Node8&#45;&gt;Node2 -->
<g id="edge15" class="edge"><title>Node8&#45;&gt;Node2</title>
<path fill="none" stroke="#9a32cd" stroke-dasharray="5,2" d="M215.75,-155.849C257.506,-148.767 346.872,-134.576 423,-129 560.591,-118.922 726.233,-121.731 787.848,-123.288"/>
<polygon fill="#9a32cd" stroke="#9a32cd" points="215.004,-152.426 205.739,-157.566 216.187,-159.325 215.004,-152.426"/>
<text text-anchor="middle" x="467" y="-154" font-family="Helvetica,sans-Serif" font-size="10.00"> mapDepth</text>
<text text-anchor="middle" x="467" y="-143" font-family="Helvetica,sans-Serif" font-size="10.00">mapHeight</text>
<text text-anchor="middle" x="467" y="-132" font-family="Helvetica,sans-Serif" font-size="10.00">mapWidth</text>
</g>
<!-- Node8&#45;&gt;Node4 -->
<g id="edge12" class="edge"><title>Node8&#45;&gt;Node4</title>
<path fill="none" stroke="#9a32cd" stroke-dasharray="5,2" d="M215.837,-160.705C288.171,-162.842 504.535,-169.237 575.315,-171.33"/>
<polygon fill="#9a32cd" stroke="#9a32cd" points="215.607,-157.196 205.508,-160.399 215.401,-164.193 215.607,-157.196"/>
<text text-anchor="middle" x="382.5" y="-202" font-family="Helvetica,sans-Serif" font-size="10.00"> tileHeight</text>
<text text-anchor="middle" x="382.5" y="-191" font-family="Helvetica,sans-Serif" font-size="10.00">rows</text>
<text text-anchor="middle" x="382.5" y="-180" font-family="Helvetica,sans-Serif" font-size="10.00">tileWidth</text>
<text text-anchor="middle" x="382.5" y="-169" font-family="Helvetica,sans-Serif" font-size="10.00">columns</text>
</g>
<!-- Node8&#45;&gt;Node5 -->
<g id="edge6" class="edge"><title>Node8&#45;&gt;Node5</title>
<path fill="none" stroke="#9a32cd" stroke-dasharray="5,2" d="M215.917,-161.583C248.493,-164.976 306.78,-175.623 342,-209 369.154,-234.733 377.907,-281.263 380.5,-301.344"/>
<polygon fill="#9a32cd" stroke="#9a32cd" points="215.818,-158.06 205.547,-160.66 215.197,-165.033 215.818,-158.06"/>
<text text-anchor="middle" x="310" y="-245" font-family="Helvetica,sans-Serif" font-size="10.00"> width</text>
<text text-anchor="middle" x="310" y="-234" font-family="Helvetica,sans-Serif" font-size="10.00">currentFrame</text>
<text text-anchor="middle" x="310" y="-223" font-family="Helvetica,sans-Serif" font-size="10.00">height</text>
<text text-anchor="middle" x="310" y="-212" font-family="Helvetica,sans-Serif" font-size="10.00">frameCount</text>
</g>
<!-- Node9 -->
<g id="node8" class="node"><title>Node9</title>
<polygon fill="white" stroke="#bfbfbf" points="122,-242.5 122,-261.5 260,-261.5 260,-242.5 122,-242.5"/>
<text text-anchor="middle" x="191" y="-249.5" font-family="Helvetica,sans-Serif" font-size="10.00">shared_ptr&lt; SDL_Texture &gt;</text>
</g>
<!-- Node9&#45;&gt;Node5 -->
<g id="edge7" class="edge"><title>Node9&#45;&gt;Node5</title>
<path fill="none" stroke="#9a32cd" stroke-dasharray="5,2" d="M270.223,-256.071C294.109,-259.509 319.888,-265.54 342,-276 354.589,-281.955 366.154,-293.178 373.473,-301.313"/>
<polygon fill="#9a32cd" stroke="#9a32cd" points="270.487,-252.576 260.118,-254.751 269.58,-259.517 270.487,-252.576"/>
<text text-anchor="middle" x="310" y="-279" font-family="Helvetica,sans-Serif" font-size="10.00"> texture</text>
</g>
<!-- Node10 -->
<g id="node9" class="node"><title>Node10</title>
<polygon fill="white" stroke="#bfbfbf" points="173.5,-468.5 173.5,-487.5 208.5,-487.5 208.5,-468.5 173.5,-468.5"/>
<text text-anchor="middle" x="191" y="-475.5" font-family="Helvetica,sans-Serif" font-size="10.00">bool</text>
</g>
<!-- Node10&#45;&gt;Node2 -->
<g id="edge16" class="edge"><title>Node10&#45;&gt;Node2</title>
<path fill="none" stroke="#9a32cd" stroke-dasharray="5,2" d="M218.653,-482.09C249.276,-485.746 300.625,-488.656 342,-475 561.68,-402.494 761.711,-182.592 804.212,-133.701"/>
<polygon fill="#9a32cd" stroke="#9a32cd" points="219.106,-478.619 208.736,-480.791 218.197,-485.56 219.106,-478.619"/>
<text text-anchor="middle" x="467" y="-442" font-family="Helvetica,sans-Serif" font-size="10.00"> displayCollisionInfo</text>
</g>
<!-- Node10&#45;&gt;Node5 -->
<g id="edge8" class="edge"><title>Node10&#45;&gt;Node5</title>
<path fill="none" stroke="#9a32cd" stroke-dasharray="5,2" d="M218.762,-472.888C259.431,-464.898 333.044,-449.492 342,-441 376.918,-407.89 381.268,-344.998 381.595,-320.814"/>
<polygon fill="#9a32cd" stroke="#9a32cd" points="217.866,-469.496 208.718,-474.841 219.202,-476.367 217.866,-469.496"/>
<text text-anchor="middle" x="310" y="-463" font-family="Helvetica,sans-Serif" font-size="10.00"> highlightable</text>
</g>
<!-- Node11 -->
<g id="node10" class="node"><title>Node11</title>
<polygon fill="white" stroke="#bfbfbf" points="146,-419.5 146,-438.5 236,-438.5 236,-419.5 146,-419.5"/>
<text text-anchor="middle" x="191" y="-426.5" font-family="Helvetica,sans-Serif" font-size="10.00">SDL_BlendMode</text>
</g>
<!-- Node11&#45;&gt;Node5 -->
<g id="edge9" class="edge"><title>Node11&#45;&gt;Node5</title>
<path fill="none" stroke="#9a32cd" stroke-dasharray="5,2" d="M246.405,-430.395C277.389,-428.491 315.24,-421.29 342,-400 367.664,-379.582 377.115,-338.999 380.188,-320.539"/>
<polygon fill="#9a32cd" stroke="#9a32cd" points="246.021,-426.908 236.187,-430.85 246.333,-433.901 246.021,-426.908"/>
<text text-anchor="middle" x="310" y="-429" font-family="Helvetica,sans-Serif" font-size="10.00"> blendMode</text>
</g>
<!-- Node12 -->
<g id="node11" class="node"><title>Node12</title>
<g id="a_node11"><a xlink:href="structColor.html" target="_top" xlink:title="Struct para armazenar informações de cor. ">
<polygon fill="white" stroke="black" points="171,-280.5 171,-299.5 211,-299.5 211,-280.5 171,-280.5"/>
<text text-anchor="middle" x="191" y="-287.5" font-family="Helvetica,sans-Serif" font-size="10.00">Color</text>
</a>
</g>
</g>
<!-- Node12&#45;&gt;Node5 -->
<g id="edge10" class="edge"><title>Node12&#45;&gt;Node5</title>
<path fill="none" stroke="#9a32cd" stroke-dasharray="5,2" d="M221.443,-289.735C251.864,-289.934 300.605,-291.577 342,-299 348.349,-300.139 355.116,-301.96 361.222,-303.843"/>
<polygon fill="#9a32cd" stroke="#9a32cd" points="221.118,-286.234 211.112,-289.719 221.107,-293.234 221.118,-286.234"/>
<text text-anchor="middle" x="310" y="-302" font-family="Helvetica,sans-Serif" font-size="10.00"> colorMultiplier</text>
</g>
<!-- Node13 -->
<g id="node12" class="node"><title>Node13</title>
<polygon fill="white" stroke="#bfbfbf" points="0,-280.5 0,-299.5 77,-299.5 77,-280.5 0,-280.5"/>
<text text-anchor="middle" x="38.5" y="-287.5" font-family="Helvetica,sans-Serif" font-size="10.00">unsigned char</text>
</g>
<!-- Node13&#45;&gt;Node12 -->
<g id="edge11" class="edge"><title>Node13&#45;&gt;Node12</title>
<path fill="none" stroke="#9a32cd" stroke-dasharray="5,2" d="M87.2041,-290C115.496,-290 149.815,-290 170.771,-290"/>
<polygon fill="#9a32cd" stroke="#9a32cd" points="87.0893,-286.5 77.0893,-290 87.0892,-293.5 87.0893,-286.5"/>
<text text-anchor="middle" x="99.5" y="-326" font-family="Helvetica,sans-Serif" font-size="10.00"> g</text>
<text text-anchor="middle" x="99.5" y="-315" font-family="Helvetica,sans-Serif" font-size="10.00">a</text>
<text text-anchor="middle" x="99.5" y="-304" font-family="Helvetica,sans-Serif" font-size="10.00">r</text>
<text text-anchor="middle" x="99.5" y="-293" font-family="Helvetica,sans-Serif" font-size="10.00">b</text>
</g>
<!-- Node14 -->
<g id="node13" class="node"><title>Node14</title>
<polygon fill="white" stroke="#bfbfbf" points="563,-76.5 563,-95.5 635,-95.5 635,-76.5 563,-76.5"/>
<text text-anchor="middle" x="599" y="-83.5" font-family="Helvetica,sans-Serif" font-size="10.00">vector&lt; int &gt;</text>
</g>
<!-- Node14&#45;&gt;Node2 -->
<g id="edge13" class="edge"><title>Node14&#45;&gt;Node2</title>
<path fill="none" stroke="#9a32cd" stroke-dasharray="5,2" d="M645.396,-83.9634C680.255,-83.7027 729.176,-86.1915 770,-99 780.781,-102.383 791.744,-108.924 799.834,-114.467"/>
<polygon fill="#9a32cd" stroke="#9a32cd" points="644.998,-80.4691 635.054,-84.1242 645.107,-87.4682 644.998,-80.4691"/>
<text text-anchor="middle" x="728.5" y="-102" font-family="Helvetica,sans-Serif" font-size="10.00"> tileMatrix</text>
</g>
<!-- Node15 -->
<g id="node14" class="node"><title>Node15</title>
<polygon fill="white" stroke="#bfbfbf" points="537.5,-38.5 537.5,-57.5 660.5,-57.5 660.5,-38.5 537.5,-38.5"/>
<text text-anchor="middle" x="599" y="-45.5" font-family="Helvetica,sans-Serif" font-size="10.00">vector&lt; GameObject * &gt;</text>
</g>
<!-- Node15&#45;&gt;Node2 -->
<g id="edge14" class="edge"><title>Node15&#45;&gt;Node2</title>
<path fill="none" stroke="#9a32cd" stroke-dasharray="5,2" d="M670.732,-45.8994C702.822,-47.7807 740.174,-54.1326 770,-71 787.863,-81.1024 801.078,-101.957 807.71,-114.28"/>
<polygon fill="#9a32cd" stroke="#9a32cd" points="670.662,-42.3927 660.514,-45.438 670.346,-49.3856 670.662,-42.3927"/>
<text text-anchor="middle" x="728.5" y="-74" font-family="Helvetica,sans-Serif" font-size="10.00"> gameObjectMatrix</text>
</g>
<!-- Node16 -->
<g id="node15" class="node"><title>Node16</title>
<polygon fill="white" stroke="#bfbfbf" points="529,-0.5 529,-19.5 669,-19.5 669,-0.5 529,-0.5"/>
<text text-anchor="middle" x="599" y="-7.5" font-family="Helvetica,sans-Serif" font-size="10.00">vector&lt; TileMapObserver *&gt;</text>
</g>
<!-- Node16&#45;&gt;Node2 -->
<g id="edge17" class="edge"><title>Node16&#45;&gt;Node2</title>
<path fill="none" stroke="#9a32cd" stroke-dasharray="5,2" d="M679.328,-5.09632C710.188,-6.95405 744.242,-14.054 770,-33 797.39,-53.1463 807.712,-95.4006 811.076,-114.394"/>
<polygon fill="#9a32cd" stroke="#9a32cd" points="679.141,-1.58531 669.001,-4.65774 678.843,-8.57901 679.141,-1.58531"/>
<text text-anchor="middle" x="728.5" y="-36" font-family="Helvetica,sans-Serif" font-size="10.00"> observers</text>
</g>
</g>
</svg>
