<?xml version="1.0" encoding="UTF-8" standalone="no"?>
<!DOCTYPE svg PUBLIC "-//W3C//DTD SVG 1.1//EN"
 "http://www.w3.org/Graphics/SVG/1.1/DTD/svg11.dtd">
<!-- Generated by graphviz version 2.38.0 (20140413.2041)
 -->
<!-- Title: UIimage Pages: 1 -->
<svg width="841pt" height="319pt"
 viewBox="0.00 0.00 840.50 319.00" xmlns="http://www.w3.org/2000/svg" xmlns:xlink="http://www.w3.org/1999/xlink">
<g id="graph0" class="graph" transform="scale(1 1) rotate(0) translate(4 315)">
<title>UIimage</title>
<polygon fill="white" stroke="none" points="-4,4 -4,-315 836.5,-315 836.5,4 -4,4"/>
<!-- Node3 -->
<g id="node1" class="node"><title>Node3</title>
<polygon fill="#bfbfbf" stroke="black" points="199,-0.5 199,-19.5 252,-19.5 252,-0.5 199,-0.5"/>
<text text-anchor="middle" x="225.5" y="-7.5" font-family="Helvetica,sans-Serif" font-size="10.00">UIimage</text>
</g>
<!-- Node4 -->
<g id="node2" class="node"><title>Node4</title>
<g id="a_node2"><a xlink:href="classUIelement.html" target="_top" xlink:title="UIelement">
<polygon fill="white" stroke="black" points="91.5,-67.5 91.5,-86.5 153.5,-86.5 153.5,-67.5 91.5,-67.5"/>
<text text-anchor="middle" x="122.5" y="-74.5" font-family="Helvetica,sans-Serif" font-size="10.00">UIelement</text>
</a>
</g>
</g>
<!-- Node4&#45;&gt;Node3 -->
<g id="edge1" class="edge"><title>Node4&#45;&gt;Node3</title>
<path fill="none" stroke="midnightblue" d="M145.051,-61.7687C165.439,-48.9026 194.792,-30.379 211.829,-19.6273"/>
<polygon fill="midnightblue" stroke="midnightblue" points="142.98,-58.937 136.391,-67.2338 146.716,-64.8568 142.98,-58.937"/>
</g>
<!-- Node5 -->
<g id="node3" class="node"><title>Node5</title>
<g id="a_node3"><a xlink:href="classVec2.html" target="_top" xlink:title="Classe que modela um vetor(no sentido físico) ">
<polygon fill="white" stroke="black" points="0,-179.5 0,-198.5 39,-198.5 39,-179.5 0,-179.5"/>
<text text-anchor="middle" x="19.5" y="-186.5" font-family="Helvetica,sans-Serif" font-size="10.00">Vec2</text>
</a>
</g>
</g>
<!-- Node5&#45;&gt;Node4 -->
<g id="edge2" class="edge"><title>Node5&#45;&gt;Node4</title>
<path fill="none" stroke="#9a32cd" stroke-dasharray="5,2" d="M14.375,-169.271C10.5539,-150.88 8.16687,-123.032 22.5,-105 31.0881,-94.1956 65.3303,-86.6407 91.3741,-82.323"/>
<polygon fill="#9a32cd" stroke="#9a32cd" points="10.9964,-170.191 16.7387,-179.095 17.8022,-168.553 10.9964,-170.191"/>
<text text-anchor="middle" x="45.5" y="-130" font-family="Helvetica,sans-Serif" font-size="10.00"> center</text>
<text text-anchor="middle" x="45.5" y="-119" font-family="Helvetica,sans-Serif" font-size="10.00">kernelSize</text>
</g>
<!-- Node6 -->
<g id="node4" class="node"><title>Node6</title>
<polygon fill="white" stroke="#bfbfbf" points="176,-291.5 176,-310.5 211,-310.5 211,-291.5 176,-291.5"/>
<text text-anchor="middle" x="193.5" y="-298.5" font-family="Helvetica,sans-Serif" font-size="10.00">float</text>
</g>
<!-- Node6&#45;&gt;Node3 -->
<g id="edge16" class="edge"><title>Node6&#45;&gt;Node3</title>
<path fill="none" stroke="#9a32cd" stroke-dasharray="5,2" d="M196.195,-281.418C198.759,-263.429 202.639,-235.377 205.5,-211 214.165,-137.18 222.256,-47.7458 224.73,-19.7843"/>
<polygon fill="#9a32cd" stroke="#9a32cd" points="192.715,-281.024 194.757,-291.421 199.644,-282.021 192.715,-281.024"/>
<text text-anchor="middle" x="231" y="-124.5" font-family="Helvetica,sans-Serif" font-size="10.00"> angle</text>
</g>
<!-- Node6&#45;&gt;Node5 -->
<g id="edge3" class="edge"><title>Node6&#45;&gt;Node5</title>
<path fill="none" stroke="#9a32cd" stroke-dasharray="5,2" d="M165.919,-293.799C149.676,-289.432 129.123,-282.633 112.5,-273 76.1749,-251.95 41.497,-215.139 26.8306,-198.543"/>
<polygon fill="#9a32cd" stroke="#9a32cd" points="165.333,-297.261 175.886,-296.322 167.051,-290.475 165.333,-297.261"/>
<text text-anchor="middle" x="117" y="-254" font-family="Helvetica,sans-Serif" font-size="10.00"> x</text>
<text text-anchor="middle" x="117" y="-243" font-family="Helvetica,sans-Serif" font-size="10.00">y</text>
</g>
<!-- Node7 -->
<g id="node5" class="node"><title>Node7</title>
<g id="a_node5"><a xlink:href="classRect.html" target="_top" xlink:title="Classe que modela um rect. ">
<polygon fill="white" stroke="black" points="63.5,-179.5 63.5,-198.5 101.5,-198.5 101.5,-179.5 63.5,-179.5"/>
<text text-anchor="middle" x="82.5" y="-186.5" font-family="Helvetica,sans-Serif" font-size="10.00">Rect</text>
</a>
</g>
</g>
<!-- Node6&#45;&gt;Node7 -->
<g id="edge5" class="edge"><title>Node6&#45;&gt;Node7</title>
<path fill="none" stroke="#9a32cd" stroke-dasharray="5,2" d="M177.562,-284.205C153.769,-260.627 109.775,-217.029 91.1695,-198.591"/>
<polygon fill="#9a32cd" stroke="#9a32cd" points="175.223,-286.816 184.79,-291.368 180.151,-281.843 175.223,-286.816"/>
<text text-anchor="middle" x="170" y="-265" font-family="Helvetica,sans-Serif" font-size="10.00"> w</text>
<text text-anchor="middle" x="170" y="-254" font-family="Helvetica,sans-Serif" font-size="10.00">x</text>
<text text-anchor="middle" x="170" y="-243" font-family="Helvetica,sans-Serif" font-size="10.00">h</text>
<text text-anchor="middle" x="170" y="-232" font-family="Helvetica,sans-Serif" font-size="10.00">y</text>
</g>
<!-- Node9 -->
<g id="node7" class="node"><title>Node9</title>
<g id="a_node7"><a xlink:href="classSprite.html" target="_top" xlink:title="Classe que modela uma sprite. ">
<polygon fill="white" stroke="black" points="441.5,-67.5 441.5,-86.5 483.5,-86.5 483.5,-67.5 441.5,-67.5"/>
<text text-anchor="middle" x="462.5" y="-74.5" font-family="Helvetica,sans-Serif" font-size="10.00">Sprite</text>
</a>
</g>
</g>
<!-- Node6&#45;&gt;Node9 -->
<g id="edge8" class="edge"><title>Node6&#45;&gt;Node9</title>
<path fill="none" stroke="#9a32cd" stroke-dasharray="5,2" d="M220.998,-295.645C265.966,-287.158 355.525,-264.336 408.5,-211 444.853,-174.399 457.723,-110.03 461.318,-86.7298"/>
<polygon fill="#9a32cd" stroke="#9a32cd" points="220.311,-292.213 211.084,-297.419 221.544,-299.103 220.311,-292.213"/>
<text text-anchor="middle" x="465" y="-203" font-family="Helvetica,sans-Serif" font-size="10.00"> scaleY</text>
<text text-anchor="middle" x="465" y="-192" font-family="Helvetica,sans-Serif" font-size="10.00">frameTime</text>
<text text-anchor="middle" x="465" y="-181" font-family="Helvetica,sans-Serif" font-size="10.00">timeElapsed</text>
<text text-anchor="middle" x="465" y="-170" font-family="Helvetica,sans-Serif" font-size="10.00">scaleX</text>
</g>
<!-- Node7&#45;&gt;Node4 -->
<g id="edge4" class="edge"><title>Node7&#45;&gt;Node4</title>
<path fill="none" stroke="#9a32cd" stroke-dasharray="5,2" d="M76.686,-169.646C72.2112,-151.94 68.4647,-124.96 79.5,-105 84.0211,-96.8228 92.1704,-90.7882 100.168,-86.5239"/>
<polygon fill="#9a32cd" stroke="#9a32cd" points="73.3373,-170.666 79.4408,-179.326 80.07,-168.75 73.3373,-170.666"/>
<text text-anchor="middle" x="108" y="-141" font-family="Helvetica,sans-Serif" font-size="10.00"> offsets</text>
<text text-anchor="middle" x="108" y="-130" font-family="Helvetica,sans-Serif" font-size="10.00">box</text>
<text text-anchor="middle" x="108" y="-119" font-family="Helvetica,sans-Serif" font-size="10.00">anchors</text>
<text text-anchor="middle" x="108" y="-108" font-family="Helvetica,sans-Serif" font-size="10.00">boundingBox</text>
</g>
<!-- Node8 -->
<g id="node6" class="node"><title>Node8</title>
<polygon fill="white" stroke="#bfbfbf" points="120,-179.5 120,-198.5 197,-198.5 197,-179.5 120,-179.5"/>
<text text-anchor="middle" x="158.5" y="-186.5" font-family="Helvetica,sans-Serif" font-size="10.00">BehaviorType</text>
</g>
<!-- Node8&#45;&gt;Node4 -->
<g id="edge6" class="edge"><title>Node8&#45;&gt;Node4</title>
<path fill="none" stroke="#9a32cd" stroke-dasharray="5,2" d="M156.441,-169.054C154.096,-151.822 149.38,-125.958 140.5,-105 137.687,-98.3603 133.187,-91.6103 129.39,-86.5202"/>
<polygon fill="#9a32cd" stroke="#9a32cd" points="153.022,-169.935 157.707,-179.438 159.971,-169.088 153.022,-169.935"/>
<text text-anchor="middle" x="173.5" y="-124.5" font-family="Helvetica,sans-Serif" font-size="10.00"> behavior</text>
</g>
<!-- Node9&#45;&gt;Node3 -->
<g id="edge7" class="edge"><title>Node9&#45;&gt;Node3</title>
<path fill="none" stroke="#9a32cd" stroke-dasharray="5,2" d="M431.579,-67.5196C384.704,-54.6634 296.444,-30.4572 252.203,-18.3236"/>
<polygon fill="#9a32cd" stroke="#9a32cd" points="430.898,-70.962 441.468,-70.2317 432.75,-64.2113 430.898,-70.962"/>
<text text-anchor="middle" x="365.5" y="-41" font-family="Helvetica,sans-Serif" font-size="10.00"> sp</text>
</g>
<!-- Node10 -->
<g id="node8" class="node"><title>Node10</title>
<polygon fill="white" stroke="#bfbfbf" points="566.5,-179.5 566.5,-198.5 628.5,-198.5 628.5,-179.5 566.5,-179.5"/>
<text text-anchor="middle" x="597.5" y="-186.5" font-family="Helvetica,sans-Serif" font-size="10.00">SDL_Rect</text>
</g>
<!-- Node10&#45;&gt;Node9 -->
<g id="edge9" class="edge"><title>Node10&#45;&gt;Node9</title>
<path fill="none" stroke="#9a32cd" stroke-dasharray="5,2" d="M596.744,-169.222C594.953,-150.341 589.25,-121.703 571.5,-105 547.648,-82.5546 508.159,-77.9408 483.829,-77.4211"/>
<polygon fill="#9a32cd" stroke="#9a32cd" points="593.258,-169.542 597.418,-179.286 600.242,-169.074 593.258,-169.542"/>
<text text-anchor="middle" x="613.5" y="-124.5" font-family="Helvetica,sans-Serif" font-size="10.00"> clipRect</text>
</g>
<!-- Node11 -->
<g id="node9" class="node"><title>Node11</title>
<polygon fill="white" stroke="#bfbfbf" points="647,-179.5 647,-198.5 676,-198.5 676,-179.5 647,-179.5"/>
<text text-anchor="middle" x="661.5" y="-186.5" font-family="Helvetica,sans-Serif" font-size="10.00">int</text>
</g>
<!-- Node11&#45;&gt;Node9 -->
<g id="edge10" class="edge"><title>Node11&#45;&gt;Node9</title>
<path fill="none" stroke="#9a32cd" stroke-dasharray="5,2" d="M661.555,-169.223C660.527,-150.109 655.777,-121.069 637.5,-105 614.99,-85.2094 525.235,-79.9027 483.739,-78.4974"/>
<polygon fill="#9a32cd" stroke="#9a32cd" points="658.06,-169.486 661.803,-179.398 665.058,-169.315 658.06,-169.486"/>
<text text-anchor="middle" x="688.5" y="-141" font-family="Helvetica,sans-Serif" font-size="10.00"> width</text>
<text text-anchor="middle" x="688.5" y="-130" font-family="Helvetica,sans-Serif" font-size="10.00">currentFrame</text>
<text text-anchor="middle" x="688.5" y="-119" font-family="Helvetica,sans-Serif" font-size="10.00">height</text>
<text text-anchor="middle" x="688.5" y="-108" font-family="Helvetica,sans-Serif" font-size="10.00">frameCount</text>
</g>
<!-- Node12 -->
<g id="node10" class="node"><title>Node12</title>
<polygon fill="white" stroke="#bfbfbf" points="694.5,-179.5 694.5,-198.5 832.5,-198.5 832.5,-179.5 694.5,-179.5"/>
<text text-anchor="middle" x="763.5" y="-186.5" font-family="Helvetica,sans-Serif" font-size="10.00">shared_ptr&lt; SDL_Texture &gt;</text>
</g>
<!-- Node12&#45;&gt;Node9 -->
<g id="edge11" class="edge"><title>Node12&#45;&gt;Node9</title>
<path fill="none" stroke="#9a32cd" stroke-dasharray="5,2" d="M759.634,-169.584C754.497,-150.083 743.394,-120.078 721.5,-105 683.15,-78.588 538.811,-77.1997 483.892,-77.665"/>
<polygon fill="#9a32cd" stroke="#9a32cd" points="756.252,-170.49 761.956,-179.418 763.065,-168.881 756.252,-170.49"/>
<text text-anchor="middle" x="769.5" y="-124.5" font-family="Helvetica,sans-Serif" font-size="10.00"> texture</text>
</g>
<!-- Node13 -->
<g id="node11" class="node"><title>Node13</title>
<polygon fill="white" stroke="#bfbfbf" points="256,-179.5 256,-198.5 291,-198.5 291,-179.5 256,-179.5"/>
<text text-anchor="middle" x="273.5" y="-186.5" font-family="Helvetica,sans-Serif" font-size="10.00">bool</text>
</g>
<!-- Node13&#45;&gt;Node9 -->
<g id="edge12" class="edge"><title>Node13&#45;&gt;Node9</title>
<path fill="none" stroke="#9a32cd" stroke-dasharray="5,2" d="M272.228,-169.347C272.034,-150.334 274.978,-121.377 292.5,-105 313.732,-85.1555 400.833,-79.8798 441.457,-78.4902"/>
<polygon fill="#9a32cd" stroke="#9a32cd" points="268.736,-169.61 272.635,-179.461 275.73,-169.328 268.736,-169.61"/>
<text text-anchor="middle" x="321.5" y="-124.5" font-family="Helvetica,sans-Serif" font-size="10.00"> highlightable</text>
</g>
<!-- Node14 -->
<g id="node12" class="node"><title>Node14</title>
<polygon fill="white" stroke="#bfbfbf" points="309.5,-179.5 309.5,-198.5 399.5,-198.5 399.5,-179.5 309.5,-179.5"/>
<text text-anchor="middle" x="354.5" y="-186.5" font-family="Helvetica,sans-Serif" font-size="10.00">SDL_BlendMode</text>
</g>
<!-- Node14&#45;&gt;Node9 -->
<g id="edge13" class="edge"><title>Node14&#45;&gt;Node9</title>
<path fill="none" stroke="#9a32cd" stroke-dasharray="5,2" d="M352.905,-169.296C352.385,-150.682 354.64,-122.444 370.5,-105 388.529,-85.171 420.269,-79.604 441.343,-78.203"/>
<polygon fill="#9a32cd" stroke="#9a32cd" points="349.421,-169.678 353.491,-179.46 356.409,-169.275 349.421,-169.678"/>
<text text-anchor="middle" x="396" y="-124.5" font-family="Helvetica,sans-Serif" font-size="10.00"> blendMode</text>
</g>
<!-- Node15 -->
<g id="node13" class="node"><title>Node15</title>
<g id="a_node13"><a xlink:href="structColor.html" target="_top" xlink:title="Struct para armazenar informações de cor. ">
<polygon fill="white" stroke="black" points="508.5,-179.5 508.5,-198.5 548.5,-198.5 548.5,-179.5 508.5,-179.5"/>
<text text-anchor="middle" x="528.5" y="-186.5" font-family="Helvetica,sans-Serif" font-size="10.00">Color</text>
</a>
</g>
</g>
<!-- Node15&#45;&gt;Node9 -->
<g id="edge14" class="edge"><title>Node15&#45;&gt;Node9</title>
<path fill="none" stroke="#9a32cd" stroke-dasharray="5,2" d="M518.084,-170.64C503.746,-146.744 478.477,-104.629 467.655,-86.5914"/>
<polygon fill="#9a32cd" stroke="#9a32cd" points="515.175,-172.594 523.321,-179.368 521.177,-168.993 515.175,-172.594"/>
<text text-anchor="middle" x="535.5" y="-124.5" font-family="Helvetica,sans-Serif" font-size="10.00"> colorMultiplier</text>
</g>
<!-- Node16 -->
<g id="node14" class="node"><title>Node16</title>
<polygon fill="white" stroke="#bfbfbf" points="490,-291.5 490,-310.5 567,-310.5 567,-291.5 490,-291.5"/>
<text text-anchor="middle" x="528.5" y="-298.5" font-family="Helvetica,sans-Serif" font-size="10.00">unsigned char</text>
</g>
<!-- Node16&#45;&gt;Node15 -->
<g id="edge15" class="edge"><title>Node16&#45;&gt;Node15</title>
<path fill="none" stroke="#9a32cd" stroke-dasharray="5,2" d="M528.5,-281.348C528.5,-257.254 528.5,-216.308 528.5,-198.591"/>
<polygon fill="#9a32cd" stroke="#9a32cd" points="525,-281.368 528.5,-291.368 532,-281.369 525,-281.368"/>
<text text-anchor="middle" x="533" y="-265" font-family="Helvetica,sans-Serif" font-size="10.00"> g</text>
<text text-anchor="middle" x="533" y="-254" font-family="Helvetica,sans-Serif" font-size="10.00">a</text>
<text text-anchor="middle" x="533" y="-243" font-family="Helvetica,sans-Serif" font-size="10.00">r</text>
<text text-anchor="middle" x="533" y="-232" font-family="Helvetica,sans-Serif" font-size="10.00">b</text>
</g>
</g>
</svg>
