<?xml version="1.0" encoding="UTF-8" standalone="no"?>
<!DOCTYPE svg PUBLIC "-//W3C//DTD SVG 1.1//EN"
 "http://www.w3.org/Graphics/SVG/1.1/DTD/svg11.dtd">
<!-- Generated by graphviz version 2.38.0 (20140413.2041)
 -->
<!-- Title: Text Pages: 1 -->
<svg width="770pt" height="397pt"
 viewBox="0.00 0.00 770.00 397.00" xmlns="http://www.w3.org/2000/svg" xmlns:xlink="http://www.w3.org/1999/xlink">
<g id="graph0" class="graph" transform="scale(1 1) rotate(0) translate(4 393)">
<title>Text</title>
<polygon fill="white" stroke="none" points="-4,4 -4,-393 766,-393 766,4 -4,4"/>
<!-- Node2 -->
<g id="node1" class="node"><title>Node2</title>
<polygon fill="#bfbfbf" stroke="black" points="492.5,-0.5 492.5,-19.5 528.5,-19.5 528.5,-0.5 492.5,-0.5"/>
<text text-anchor="middle" x="510.5" y="-7.5" font-family="Helvetica,sans-Serif" font-size="10.00">Text</text>
</g>
<!-- Node3 -->
<g id="node2" class="node"><title>Node3</title>
<g id="a_node2"><a xlink:href="classComponent.html" target="_top" xlink:title="Modela os componentes. ">
<polygon fill="white" stroke="black" points="115,-78.5 115,-97.5 182,-97.5 182,-78.5 115,-78.5"/>
<text text-anchor="middle" x="148.5" y="-85.5" font-family="Helvetica,sans-Serif" font-size="10.00">Component</text>
</a>
</g>
</g>
<!-- Node3&#45;&gt;Node2 -->
<g id="edge1" class="edge"><title>Node3&#45;&gt;Node2</title>
<path fill="none" stroke="midnightblue" d="M172.04,-73.5144C193.178,-62.0727 225.425,-46.2415 255.5,-38 341.8,-14.3511 449.782,-11.1937 492.197,-10.9285"/>
<polygon fill="midnightblue" stroke="midnightblue" points="170.219,-70.5217 163.156,-78.4195 173.602,-76.6496 170.219,-70.5217"/>
</g>
<!-- Node4 -->
<g id="node3" class="node"><title>Node4</title>
<g id="a_node3"><a xlink:href="classGameObject.html" target="_top" xlink:title="Classe virtual que especifica o funcionamento de um GameObject. ">
<polygon fill="white" stroke="black" points="113,-179.5 113,-198.5 184,-198.5 184,-179.5 113,-179.5"/>
<text text-anchor="middle" x="148.5" y="-186.5" font-family="Helvetica,sans-Serif" font-size="10.00">GameObject</text>
</a>
</g>
</g>
<!-- Node4&#45;&gt;Node3 -->
<g id="edge2" class="edge"><title>Node4&#45;&gt;Node3</title>
<path fill="none" stroke="#9a32cd" stroke-dasharray="5,2" d="M148.5,-169.029C148.5,-147.543 148.5,-113.467 148.5,-97.6245"/>
<polygon fill="#9a32cd" stroke="#9a32cd" points="145,-169.214 148.5,-179.214 152,-169.214 145,-169.214"/>
<text text-anchor="middle" x="174" y="-135.5" font-family="Helvetica,sans-Serif" font-size="10.00"> associated</text>
</g>
<!-- Node5 -->
<g id="node4" class="node"><title>Node5</title>
<polygon fill="white" stroke="#bfbfbf" points="109.5,-269.5 109.5,-288.5 225.5,-288.5 225.5,-269.5 109.5,-269.5"/>
<text text-anchor="middle" x="167.5" y="-276.5" font-family="Helvetica,sans-Serif" font-size="10.00">vector&lt; Component *&gt;</text>
</g>
<!-- Node5&#45;&gt;Node4 -->
<g id="edge3" class="edge"><title>Node5&#45;&gt;Node4</title>
<path fill="none" stroke="#9a32cd" stroke-dasharray="5,2" d="M163.45,-259.242C159.419,-240.571 153.409,-212.735 150.384,-198.724"/>
<polygon fill="#9a32cd" stroke="#9a32cd" points="160.077,-260.204 165.609,-269.241 166.919,-258.727 160.077,-260.204"/>
<text text-anchor="middle" x="190" y="-232" font-family="Helvetica,sans-Serif" font-size="10.00"> components</text>
</g>
<!-- Node6 -->
<g id="node5" class="node"><title>Node6</title>
<g id="a_node5"><a xlink:href="classRect.html" target="_top" xlink:title="Classe que modela um rect. ">
<polygon fill="white" stroke="black" points="53.5,-269.5 53.5,-288.5 91.5,-288.5 91.5,-269.5 53.5,-269.5"/>
<text text-anchor="middle" x="72.5" y="-276.5" font-family="Helvetica,sans-Serif" font-size="10.00">Rect</text>
</a>
</g>
</g>
<!-- Node6&#45;&gt;Node4 -->
<g id="edge4" class="edge"><title>Node6&#45;&gt;Node4</title>
<path fill="none" stroke="#9a32cd" stroke-dasharray="5,2" d="M90.4849,-262.835C94.5785,-259.109 98.8064,-255.029 102.5,-251 118.456,-233.598 134.462,-210.904 142.735,-198.691"/>
<polygon fill="#9a32cd" stroke="#9a32cd" points="88.1518,-260.226 82.954,-269.458 92.7746,-265.482 88.1518,-260.226"/>
<text text-anchor="middle" x="139" y="-232" font-family="Helvetica,sans-Serif" font-size="10.00"> box</text>
</g>
<!-- Node7 -->
<g id="node6" class="node"><title>Node7</title>
<polygon fill="white" stroke="#bfbfbf" points="244,-369.5 244,-388.5 279,-388.5 279,-369.5 244,-369.5"/>
<text text-anchor="middle" x="261.5" y="-376.5" font-family="Helvetica,sans-Serif" font-size="10.00">float</text>
</g>
<!-- Node7&#45;&gt;Node4 -->
<g id="edge6" class="edge"><title>Node7&#45;&gt;Node4</title>
<path fill="none" stroke="#9a32cd" stroke-dasharray="5,2" d="M262.241,-359.079C262.486,-326.263 258.261,-258.44 222.5,-218 212.673,-206.887 197.967,-200.167 184.248,-196.112"/>
<polygon fill="#9a32cd" stroke="#9a32cd" points="258.733,-359.39 261.998,-369.469 265.731,-359.554 258.733,-359.39"/>
<text text-anchor="middle" x="273.5" y="-276.5" font-family="Helvetica,sans-Serif" font-size="10.00"> rotation</text>
</g>
<!-- Node7&#45;&gt;Node6 -->
<g id="edge5" class="edge"><title>Node7&#45;&gt;Node6</title>
<path fill="none" stroke="#9a32cd" stroke-dasharray="5,2" d="M235.835,-364.692C196.416,-344.253 122.071,-305.703 89.0385,-288.575"/>
<polygon fill="#9a32cd" stroke="#9a32cd" points="234.569,-367.978 245.058,-369.475 237.792,-361.764 234.569,-367.978"/>
<text text-anchor="middle" x="212" y="-343" font-family="Helvetica,sans-Serif" font-size="10.00"> w</text>
<text text-anchor="middle" x="212" y="-332" font-family="Helvetica,sans-Serif" font-size="10.00">x</text>
<text text-anchor="middle" x="212" y="-321" font-family="Helvetica,sans-Serif" font-size="10.00">h</text>
<text text-anchor="middle" x="212" y="-310" font-family="Helvetica,sans-Serif" font-size="10.00">y</text>
</g>
<!-- Node9 -->
<g id="node8" class="node"><title>Node9</title>
<g id="a_node8"><a xlink:href="classVec2.html" target="_top" xlink:title="Classe que modela um vetor(no sentido físico) ">
<polygon fill="white" stroke="black" points="291,-225 291,-244 330,-244 330,-225 291,-225"/>
<text text-anchor="middle" x="310.5" y="-232" font-family="Helvetica,sans-Serif" font-size="10.00">Vec2</text>
</a>
</g>
</g>
<!-- Node7&#45;&gt;Node9 -->
<g id="edge10" class="edge"><title>Node7&#45;&gt;Node9</title>
<path fill="none" stroke="#9a32cd" stroke-dasharray="5,2" d="M271.044,-360.092C272.576,-357.078 274.112,-353.965 275.5,-351 288.165,-323.937 293.189,-317.701 301.5,-289 305.954,-273.62 308.461,-255.074 309.643,-244.349"/>
<polygon fill="#9a32cd" stroke="#9a32cd" points="267.871,-358.606 266.351,-369.091 274.078,-361.842 267.871,-358.606"/>
<text text-anchor="middle" x="301" y="-332" font-family="Helvetica,sans-Serif" font-size="10.00"> x</text>
<text text-anchor="middle" x="301" y="-321" font-family="Helvetica,sans-Serif" font-size="10.00">y</text>
</g>
<!-- Node8 -->
<g id="node7" class="node"><title>Node8</title>
<polygon fill="white" stroke="#bfbfbf" points="0,-269.5 0,-288.5 35,-288.5 35,-269.5 0,-269.5"/>
<text text-anchor="middle" x="17.5" y="-276.5" font-family="Helvetica,sans-Serif" font-size="10.00">bool</text>
</g>
<!-- Node8&#45;&gt;Node3 -->
<g id="edge8" class="edge"><title>Node8&#45;&gt;Node3</title>
<path fill="none" stroke="#9a32cd" stroke-dasharray="5,2" d="M19.3987,-259.528C22.322,-238.288 29.4945,-203.125 46.5,-178 70.7387,-142.189 112.828,-111.879 134.585,-97.6619"/>
<polygon fill="#9a32cd" stroke="#9a32cd" points="15.9196,-259.145 18.2019,-269.491 22.8696,-259.98 15.9196,-259.145"/>
<text text-anchor="middle" x="75" y="-192" font-family="Helvetica,sans-Serif" font-size="10.00"> newEnabled</text>
<text text-anchor="middle" x="75" y="-181" font-family="Helvetica,sans-Serif" font-size="10.00">enabled</text>
</g>
<!-- Node8&#45;&gt;Node4 -->
<g id="edge7" class="edge"><title>Node8&#45;&gt;Node4</title>
<path fill="none" stroke="#9a32cd" stroke-dasharray="5,2" d="M25.9774,-260.296C33.733,-244.767 45.0946,-223.786 52.5,-218 69.7373,-204.532 93.2625,-197.538 112.71,-193.909"/>
<polygon fill="#9a32cd" stroke="#9a32cd" points="22.7261,-258.977 21.4794,-269.499 29.0151,-262.051 22.7261,-258.977"/>
<text text-anchor="middle" x="75.5" y="-243" font-family="Helvetica,sans-Serif" font-size="10.00"> dead</text>
<text text-anchor="middle" x="75.5" y="-232" font-family="Helvetica,sans-Serif" font-size="10.00">active</text>
<text text-anchor="middle" x="75.5" y="-221" font-family="Helvetica,sans-Serif" font-size="10.00">newActive</text>
</g>
<!-- Node9&#45;&gt;Node2 -->
<g id="edge9" class="edge"><title>Node9&#45;&gt;Node2</title>
<path fill="none" stroke="#9a32cd" stroke-dasharray="5,2" d="M300.442,-215.512C284.496,-184.318 258.17,-119.55 288.5,-78 313.126,-44.2634 443.682,-21.1989 492.266,-13.6705"/>
<polygon fill="#9a32cd" stroke="#9a32cd" points="297.56,-217.546 305.354,-224.722 303.736,-214.251 297.56,-217.546"/>
<text text-anchor="middle" x="315.5" y="-135.5" font-family="Helvetica,sans-Serif" font-size="10.00"> fontDimensions</text>
</g>
<!-- Node10 -->
<g id="node9" class="node"><title>Node10</title>
<polygon fill="white" stroke="#bfbfbf" points="298,-78.5 298,-97.5 421,-97.5 421,-78.5 298,-78.5"/>
<text text-anchor="middle" x="359.5" y="-85.5" font-family="Helvetica,sans-Serif" font-size="10.00">shared_ptr&lt; TTF_Font &gt;</text>
</g>
<!-- Node10&#45;&gt;Node2 -->
<g id="edge11" class="edge"><title>Node10&#45;&gt;Node2</title>
<path fill="none" stroke="#9a32cd" stroke-dasharray="5,2" d="M385.818,-73.754C416.704,-58.2087 467.03,-32.8789 493.302,-19.6557"/>
<polygon fill="#9a32cd" stroke="#9a32cd" points="383.887,-70.8074 376.528,-78.4296 387.034,-77.0601 383.887,-70.8074"/>
<text text-anchor="middle" x="463.5" y="-46.5" font-family="Helvetica,sans-Serif" font-size="10.00"> font</text>
</g>
<!-- Node11 -->
<g id="node10" class="node"><title>Node11</title>
<polygon fill="white" stroke="#bfbfbf" points="439,-78.5 439,-97.5 520,-97.5 520,-78.5 439,-78.5"/>
<text text-anchor="middle" x="479.5" y="-85.5" font-family="Helvetica,sans-Serif" font-size="10.00">SDL_Texture *</text>
</g>
<!-- Node11&#45;&gt;Node2 -->
<g id="edge12" class="edge"><title>Node11&#45;&gt;Node2</title>
<path fill="none" stroke="#9a32cd" stroke-dasharray="5,2" d="M479.664,-67.994C480.369,-58.5997 482.182,-47.3109 486.5,-38 489.772,-30.945 495.505,-24.3898 500.548,-19.5055"/>
<polygon fill="#9a32cd" stroke="#9a32cd" points="476.156,-68.123 479.26,-78.2532 483.151,-68.3989 476.156,-68.123"/>
<text text-anchor="middle" x="503.5" y="-46.5" font-family="Helvetica,sans-Serif" font-size="10.00"> texture</text>
</g>
<!-- Node12 -->
<g id="node11" class="node"><title>Node12</title>
<polygon fill="white" stroke="#bfbfbf" points="538,-78.5 538,-97.5 567,-97.5 567,-78.5 538,-78.5"/>
<text text-anchor="middle" x="552.5" y="-85.5" font-family="Helvetica,sans-Serif" font-size="10.00">int</text>
</g>
<!-- Node12&#45;&gt;Node2 -->
<g id="edge13" class="edge"><title>Node12&#45;&gt;Node2</title>
<path fill="none" stroke="#9a32cd" stroke-dasharray="5,2" d="M542.62,-69.1216C534.003,-53.5297 521.877,-31.5862 515.262,-19.6165"/>
<polygon fill="#9a32cd" stroke="#9a32cd" points="539.782,-71.2223 547.682,-78.2818 545.909,-67.8365 539.782,-71.2223"/>
<text text-anchor="middle" x="556.5" y="-46.5" font-family="Helvetica,sans-Serif" font-size="10.00"> fontSize</text>
</g>
<!-- Node13 -->
<g id="node12" class="node"><title>Node13</title>
<polygon fill="white" stroke="#bfbfbf" points="585,-78.5 585,-97.5 626,-97.5 626,-78.5 585,-78.5"/>
<text text-anchor="middle" x="605.5" y="-85.5" font-family="Helvetica,sans-Serif" font-size="10.00">string</text>
</g>
<!-- Node13&#45;&gt;Node2 -->
<g id="edge14" class="edge"><title>Node13&#45;&gt;Node2</title>
<path fill="none" stroke="#9a32cd" stroke-dasharray="5,2" d="M599.778,-68.5561C595.796,-58.3687 589.556,-46.1625 580.5,-38 565.891,-24.8314 544.162,-17.8039 528.795,-14.2545"/>
<polygon fill="#9a32cd" stroke="#9a32cd" points="596.538,-69.8951 603.132,-78.1875 603.148,-67.5927 596.538,-69.8951"/>
<text text-anchor="middle" x="614.5" y="-52" font-family="Helvetica,sans-Serif" font-size="10.00"> fontFile</text>
<text text-anchor="middle" x="614.5" y="-41" font-family="Helvetica,sans-Serif" font-size="10.00">text</text>
</g>
<!-- Node14 -->
<g id="node13" class="node"><title>Node14</title>
<g id="a_node13"><a xlink:href="structColor.html" target="_top" xlink:title="Struct para armazenar informações de cor. ">
<polygon fill="white" stroke="black" points="644.5,-78.5 644.5,-97.5 684.5,-97.5 684.5,-78.5 644.5,-78.5"/>
<text text-anchor="middle" x="664.5" y="-85.5" font-family="Helvetica,sans-Serif" font-size="10.00">Color</text>
</a>
</g>
</g>
<!-- Node14&#45;&gt;Node2 -->
<g id="edge15" class="edge"><title>Node14&#45;&gt;Node2</title>
<path fill="none" stroke="#9a32cd" stroke-dasharray="5,2" d="M658.352,-68.6591C653.896,-58.1329 646.821,-45.5471 636.5,-38 603.994,-14.2312 554.907,-10.5389 528.627,-10.4414"/>
<polygon fill="#9a32cd" stroke="#9a32cd" points="655.158,-70.1107 661.958,-78.2358 661.709,-67.6439 655.158,-70.1107"/>
<text text-anchor="middle" x="673" y="-52" font-family="Helvetica,sans-Serif" font-size="10.00"> bgColor</text>
<text text-anchor="middle" x="673" y="-41" font-family="Helvetica,sans-Serif" font-size="10.00">color</text>
</g>
<!-- Node15 -->
<g id="node14" class="node"><title>Node15</title>
<polygon fill="white" stroke="#bfbfbf" points="626,-179.5 626,-198.5 703,-198.5 703,-179.5 626,-179.5"/>
<text text-anchor="middle" x="664.5" y="-186.5" font-family="Helvetica,sans-Serif" font-size="10.00">unsigned char</text>
</g>
<!-- Node15&#45;&gt;Node14 -->
<g id="edge16" class="edge"><title>Node15&#45;&gt;Node14</title>
<path fill="none" stroke="#9a32cd" stroke-dasharray="5,2" d="M664.5,-169.029C664.5,-147.543 664.5,-113.467 664.5,-97.6245"/>
<polygon fill="#9a32cd" stroke="#9a32cd" points="661,-169.214 664.5,-179.214 668,-169.214 661,-169.214"/>
<text text-anchor="middle" x="669" y="-152" font-family="Helvetica,sans-Serif" font-size="10.00"> g</text>
<text text-anchor="middle" x="669" y="-141" font-family="Helvetica,sans-Serif" font-size="10.00">a</text>
<text text-anchor="middle" x="669" y="-130" font-family="Helvetica,sans-Serif" font-size="10.00">r</text>
<text text-anchor="middle" x="669" y="-119" font-family="Helvetica,sans-Serif" font-size="10.00">b</text>
</g>
<!-- Node16 -->
<g id="node15" class="node"><title>Node16</title>
<polygon fill="white" stroke="#bfbfbf" points="703,-78.5 703,-97.5 762,-97.5 762,-78.5 703,-78.5"/>
<text text-anchor="middle" x="732.5" y="-85.5" font-family="Helvetica,sans-Serif" font-size="10.00">TextStyle</text>
</g>
<!-- Node16&#45;&gt;Node2 -->
<g id="edge17" class="edge"><title>Node16&#45;&gt;Node2</title>
<path fill="none" stroke="#9a32cd" stroke-dasharray="5,2" d="M723.781,-69.3604C717.46,-58.5072 707.861,-45.317 695.5,-38 667.429,-21.3833 569.391,-14.2153 528.561,-11.9023"/>
<polygon fill="#9a32cd" stroke="#9a32cd" points="720.837,-71.2773 728.648,-78.4351 727.006,-67.9684 720.837,-71.2773"/>
<text text-anchor="middle" x="731" y="-46.5" font-family="Helvetica,sans-Serif" font-size="10.00"> style</text>
</g>
</g>
</svg>
