<?xml version="1.0" encoding="UTF-8" standalone="no"?>
<!DOCTYPE svg PUBLIC "-//W3C//DTD SVG 1.1//EN"
 "http://www.w3.org/Graphics/SVG/1.1/DTD/svg11.dtd">
<!-- Generated by graphviz version 2.38.0 (20140413.2041)
 -->
<!-- Title: RectTransform Pages: 1 -->
<svg width="477pt" height="386pt"
 viewBox="0.00 0.00 476.50 386.00" xmlns="http://www.w3.org/2000/svg" xmlns:xlink="http://www.w3.org/1999/xlink">
<g id="graph0" class="graph" transform="scale(1 1) rotate(0) translate(4 382)">
<title>RectTransform</title>
<polygon fill="white" stroke="none" points="-4,4 -4,-382 472.5,-382 472.5,4 -4,4"/>
<!-- Node2 -->
<g id="node1" class="node"><title>Node2</title>
<polygon fill="#bfbfbf" stroke="black" points="219,-0.5 219,-19.5 301,-19.5 301,-0.5 219,-0.5"/>
<text text-anchor="middle" x="260" y="-7.5" font-family="Helvetica,sans-Serif" font-size="10.00">RectTransform</text>
</g>
<!-- Node3 -->
<g id="node2" class="node"><title>Node3</title>
<g id="a_node2"><a xlink:href="classComponent.html" target="_top" xlink:title="Modela os componentes. ">
<polygon fill="white" stroke="black" points="172.5,-67.5 172.5,-86.5 239.5,-86.5 239.5,-67.5 172.5,-67.5"/>
<text text-anchor="middle" x="206" y="-74.5" font-family="Helvetica,sans-Serif" font-size="10.00">Component</text>
</a>
</g>
</g>
<!-- Node3&#45;&gt;Node2 -->
<g id="edge1" class="edge"><title>Node3&#45;&gt;Node2</title>
<path fill="none" stroke="midnightblue" d="M219.898,-59.2705C230.427,-46.5972 244.464,-29.701 252.833,-19.6273"/>
<polygon fill="midnightblue" stroke="midnightblue" points="216.981,-57.3053 213.283,-67.2338 222.365,-61.7785 216.981,-57.3053"/>
</g>
<!-- Node4 -->
<g id="node3" class="node"><title>Node4</title>
<g id="a_node3"><a xlink:href="classGameObject.html" target="_top" xlink:title="Classe virtual que especifica o funcionamento de um GameObject. ">
<polygon fill="white" stroke="black" points="71.5,-168.5 71.5,-187.5 142.5,-187.5 142.5,-168.5 71.5,-168.5"/>
<text text-anchor="middle" x="107" y="-175.5" font-family="Helvetica,sans-Serif" font-size="10.00">GameObject</text>
</a>
</g>
</g>
<!-- Node4&#45;&gt;Node2 -->
<g id="edge12" class="edge"><title>Node4&#45;&gt;Node2</title>
<path fill="none" stroke="#9a32cd" stroke-dasharray="5,2" d="M103.173,-158.065C99.5085,-134.311 97.11,-93.4868 117,-67 140.935,-35.1264 185.683,-21.3821 218.773,-15.4627"/>
<polygon fill="#9a32cd" stroke="#9a32cd" points="99.7819,-158.986 104.981,-168.217 106.673,-157.759 99.7819,-158.986"/>
<text text-anchor="middle" x="140" y="-74.5" font-family="Helvetica,sans-Serif" font-size="10.00"> GOparent</text>
</g>
<!-- Node4&#45;&gt;Node3 -->
<g id="edge2" class="edge"><title>Node4&#45;&gt;Node3</title>
<path fill="none" stroke="#9a32cd" stroke-dasharray="5,2" d="M114.707,-158.963C123.372,-138.979 136.783,-109.021 141,-105 149.755,-96.6513 161.459,-90.722 172.522,-86.5893"/>
<polygon fill="#9a32cd" stroke="#9a32cd" points="111.421,-157.745 110.682,-168.314 117.851,-160.513 111.421,-157.745"/>
<text text-anchor="middle" x="166.5" y="-124.5" font-family="Helvetica,sans-Serif" font-size="10.00"> associated</text>
</g>
<!-- Node5 -->
<g id="node4" class="node"><title>Node5</title>
<polygon fill="white" stroke="#bfbfbf" points="128,-258.5 128,-277.5 244,-277.5 244,-258.5 128,-258.5"/>
<text text-anchor="middle" x="186" y="-265.5" font-family="Helvetica,sans-Serif" font-size="10.00">vector&lt; Component *&gt;</text>
</g>
<!-- Node5&#45;&gt;Node4 -->
<g id="edge3" class="edge"><title>Node5&#45;&gt;Node4</title>
<path fill="none" stroke="#9a32cd" stroke-dasharray="5,2" d="M123.826,-253.898C117.679,-250.317 112.18,-245.77 108,-240 96.8146,-224.561 100.864,-200.676 104.255,-187.854"/>
<polygon fill="#9a32cd" stroke="#9a32cd" points="122.696,-257.242 133.218,-258.485 125.768,-250.952 122.696,-257.242"/>
<text text-anchor="middle" x="136.5" y="-221" font-family="Helvetica,sans-Serif" font-size="10.00"> components</text>
</g>
<!-- Node6 -->
<g id="node5" class="node"><title>Node6</title>
<g id="a_node5"><a xlink:href="classRect.html" target="_top" xlink:title="Classe que modela um rect. ">
<polygon fill="white" stroke="black" points="0,-258.5 0,-277.5 38,-277.5 38,-258.5 0,-258.5"/>
<text text-anchor="middle" x="19" y="-265.5" font-family="Helvetica,sans-Serif" font-size="10.00">Rect</text>
</a>
</g>
</g>
<!-- Node6&#45;&gt;Node2 -->
<g id="edge11" class="edge"><title>Node6&#45;&gt;Node2</title>
<path fill="none" stroke="#9a32cd" stroke-dasharray="5,2" d="M16.6084,-248.272C13.4994,-216.231 11.4502,-150.003 40,-105 78.7148,-43.9738 166.436,-22.4794 218.661,-14.9709"/>
<polygon fill="#9a32cd" stroke="#9a32cd" points="13.1545,-248.879 17.747,-258.427 20.1109,-248.099 13.1545,-248.879"/>
<text text-anchor="middle" x="68.5" y="-135.5" font-family="Helvetica,sans-Serif" font-size="10.00"> offsets</text>
<text text-anchor="middle" x="68.5" y="-124.5" font-family="Helvetica,sans-Serif" font-size="10.00">anchors</text>
<text text-anchor="middle" x="68.5" y="-113.5" font-family="Helvetica,sans-Serif" font-size="10.00">boundingBox</text>
</g>
<!-- Node6&#45;&gt;Node4 -->
<g id="edge4" class="edge"><title>Node6&#45;&gt;Node4</title>
<path fill="none" stroke="#9a32cd" stroke-dasharray="5,2" d="M21.9108,-247.92C24.78,-234.954 30.3532,-218.19 41,-207 49.4937,-198.073 61.2884,-191.863 72.5608,-187.603"/>
<polygon fill="#9a32cd" stroke="#9a32cd" points="18.405,-247.631 20.026,-258.101 25.288,-248.905 18.405,-247.631"/>
<text text-anchor="middle" x="50.5" y="-221" font-family="Helvetica,sans-Serif" font-size="10.00"> box</text>
</g>
<!-- Node7 -->
<g id="node6" class="node"><title>Node7</title>
<polygon fill="white" stroke="#bfbfbf" points="56.5,-358.5 56.5,-377.5 91.5,-377.5 91.5,-358.5 56.5,-358.5"/>
<text text-anchor="middle" x="74" y="-365.5" font-family="Helvetica,sans-Serif" font-size="10.00">float</text>
</g>
<!-- Node7&#45;&gt;Node4 -->
<g id="edge6" class="edge"><title>Node7&#45;&gt;Node4</title>
<path fill="none" stroke="#9a32cd" stroke-dasharray="5,2" d="M74.4912,-348.287C75.3067,-326.466 77.4468,-289.381 83,-258 87.0958,-234.854 89.9311,-229.417 97,-207 99.0491,-200.502 101.644,-193.261 103.677,-187.77"/>
<polygon fill="#9a32cd" stroke="#9a32cd" points="70.9877,-348.345 74.1678,-358.451 77.9841,-348.567 70.9877,-348.345"/>
<text text-anchor="middle" x="101" y="-265.5" font-family="Helvetica,sans-Serif" font-size="10.00"> rotation</text>
</g>
<!-- Node7&#45;&gt;Node6 -->
<g id="edge5" class="edge"><title>Node7&#45;&gt;Node6</title>
<path fill="none" stroke="#9a32cd" stroke-dasharray="5,2" d="M57.3946,-350.865C54.373,-347.451 51.4171,-343.743 49,-340 35.6434,-319.316 25.9889,-291.686 21.6147,-277.781"/>
<polygon fill="#9a32cd" stroke="#9a32cd" points="54.9159,-353.337 64.3417,-358.175 59.9901,-348.515 54.9159,-353.337"/>
<text text-anchor="middle" x="54.5" y="-332" font-family="Helvetica,sans-Serif" font-size="10.00"> w</text>
<text text-anchor="middle" x="54.5" y="-321" font-family="Helvetica,sans-Serif" font-size="10.00">x</text>
<text text-anchor="middle" x="54.5" y="-310" font-family="Helvetica,sans-Serif" font-size="10.00">h</text>
<text text-anchor="middle" x="54.5" y="-299" font-family="Helvetica,sans-Serif" font-size="10.00">y</text>
</g>
<!-- Node9 -->
<g id="node8" class="node"><title>Node9</title>
<g id="a_node8"><a xlink:href="classVec2.html" target="_top" xlink:title="Classe que modela um vetor(no sentido físico) ">
<polygon fill="white" stroke="black" points="333.5,-214 333.5,-233 372.5,-233 372.5,-214 333.5,-214"/>
<text text-anchor="middle" x="353" y="-221" font-family="Helvetica,sans-Serif" font-size="10.00">Vec2</text>
</a>
</g>
</g>
<!-- Node7&#45;&gt;Node9 -->
<g id="edge10" class="edge"><title>Node7&#45;&gt;Node9</title>
<path fill="none" stroke="#9a32cd" stroke-dasharray="5,2" d="M101.432,-361.042C147.042,-350.188 239.978,-323.962 306,-278 323.858,-265.568 339.376,-244.943 347.331,-233.266"/>
<polygon fill="#9a32cd" stroke="#9a32cd" points="100.624,-357.637 91.6701,-363.301 102.202,-364.457 100.624,-357.637"/>
<text text-anchor="middle" x="278.5" y="-321" font-family="Helvetica,sans-Serif" font-size="10.00"> x</text>
<text text-anchor="middle" x="278.5" y="-310" font-family="Helvetica,sans-Serif" font-size="10.00">y</text>
</g>
<!-- Node8 -->
<g id="node7" class="node"><title>Node8</title>
<polygon fill="white" stroke="#bfbfbf" points="262.5,-258.5 262.5,-277.5 297.5,-277.5 297.5,-258.5 262.5,-258.5"/>
<text text-anchor="middle" x="280" y="-265.5" font-family="Helvetica,sans-Serif" font-size="10.00">bool</text>
</g>
<!-- Node8&#45;&gt;Node2 -->
<g id="edge14" class="edge"><title>Node8&#45;&gt;Node2</title>
<path fill="none" stroke="#9a32cd" stroke-dasharray="5,2" d="M279.876,-248.182C279.64,-228.065 278.96,-195.245 277,-167 273.097,-110.741 264.391,-43.4668 261.201,-19.7745"/>
<polygon fill="#9a32cd" stroke="#9a32cd" points="276.378,-248.46 279.969,-258.428 283.378,-248.396 276.378,-248.46"/>
<text text-anchor="middle" x="306.5" y="-124.5" font-family="Helvetica,sans-Serif" font-size="10.00"> debugRender</text>
</g>
<!-- Node8&#45;&gt;Node3 -->
<g id="edge8" class="edge"><title>Node8&#45;&gt;Node3</title>
<path fill="none" stroke="#9a32cd" stroke-dasharray="5,2" d="M267.192,-250.23C257.981,-238.184 245.251,-221.57 234,-207 227.806,-198.978 223.884,-198.361 220,-189 205.188,-153.298 204.945,-106.028 205.57,-86.7483"/>
<polygon fill="#9a32cd" stroke="#9a32cd" points="264.614,-252.621 273.468,-258.441 270.176,-248.37 264.614,-252.621"/>
<text text-anchor="middle" x="248.5" y="-181" font-family="Helvetica,sans-Serif" font-size="10.00"> newEnabled</text>
<text text-anchor="middle" x="248.5" y="-170" font-family="Helvetica,sans-Serif" font-size="10.00">enabled</text>
</g>
<!-- Node8&#45;&gt;Node4 -->
<g id="edge7" class="edge"><title>Node8&#45;&gt;Node4</title>
<path fill="none" stroke="#9a32cd" stroke-dasharray="5,2" d="M252.687,-258.254C222.094,-250.502 210.266,-255.766 188,-240 173.41,-229.669 178.605,-218.598 165,-207 155.214,-198.658 142.516,-192.16 131.497,-187.534"/>
<polygon fill="#9a32cd" stroke="#9a32cd" points="251.749,-261.626 262.323,-260.963 253.643,-254.887 251.749,-261.626"/>
<text text-anchor="middle" x="211" y="-232" font-family="Helvetica,sans-Serif" font-size="10.00"> dead</text>
<text text-anchor="middle" x="211" y="-221" font-family="Helvetica,sans-Serif" font-size="10.00">active</text>
<text text-anchor="middle" x="211" y="-210" font-family="Helvetica,sans-Serif" font-size="10.00">newActive</text>
</g>
<!-- Node9&#45;&gt;Node2 -->
<g id="edge9" class="edge"><title>Node9&#45;&gt;Node2</title>
<path fill="none" stroke="#9a32cd" stroke-dasharray="5,2" d="M353.995,-203.809C354.617,-180.045 353.534,-138.128 341,-105 328.037,-70.7394 318.059,-64.7183 293,-38 286.619,-31.1969 278.525,-24.5499 271.951,-19.5534"/>
<polygon fill="#9a32cd" stroke="#9a32cd" points="350.494,-203.767 353.596,-213.898 357.489,-204.044 350.494,-203.767"/>
<text text-anchor="middle" x="375.5" y="-141" font-family="Helvetica,sans-Serif" font-size="10.00"> maxScale</text>
<text text-anchor="middle" x="375.5" y="-130" font-family="Helvetica,sans-Serif" font-size="10.00">minScale</text>
<text text-anchor="middle" x="375.5" y="-119" font-family="Helvetica,sans-Serif" font-size="10.00">kernelSize</text>
<text text-anchor="middle" x="375.5" y="-108" font-family="Helvetica,sans-Serif" font-size="10.00">centerPin</text>
</g>
<!-- Node10 -->
<g id="node9" class="node"><title>Node10</title>
<polygon fill="white" stroke="#bfbfbf" points="391.5,-67.5 391.5,-86.5 468.5,-86.5 468.5,-67.5 391.5,-67.5"/>
<text text-anchor="middle" x="430" y="-74.5" font-family="Helvetica,sans-Serif" font-size="10.00">BehaviorType</text>
</g>
<!-- Node10&#45;&gt;Node2 -->
<g id="edge13" class="edge"><title>Node10&#45;&gt;Node2</title>
<path fill="none" stroke="#9a32cd" stroke-dasharray="5,2" d="M412.77,-60.9665C402.897,-53.0681 389.928,-43.8417 377,-38 352.969,-27.1409 324.119,-20.4209 301.08,-16.401"/>
<polygon fill="#9a32cd" stroke="#9a32cd" points="410.642,-63.7491 420.571,-67.4473 415.116,-58.3648 410.642,-63.7491"/>
<text text-anchor="middle" x="416" y="-41" font-family="Helvetica,sans-Serif" font-size="10.00"> behavior</text>
</g>
</g>
</svg>
