<?xml version="1.0" encoding="UTF-8" standalone="no"?>
<!DOCTYPE svg PUBLIC "-//W3C//DTD SVG 1.1//EN"
 "http://www.w3.org/Graphics/SVG/1.1/DTD/svg11.dtd">
<!-- Generated by graphviz version 2.38.0 (20140413.2041)
 -->
<!-- Title: Animation Pages: 1 -->
<svg width="871pt" height="464pt"
 viewBox="0.00 0.00 871.00 464.00" xmlns="http://www.w3.org/2000/svg" xmlns:xlink="http://www.w3.org/1999/xlink">
<g id="graph0" class="graph" transform="scale(1 1) rotate(0) translate(4 460)">
<title>Animation</title>
<polygon fill="white" stroke="none" points="-4,4 -4,-460 867,-460 867,4 -4,4"/>
<!-- Node2 -->
<g id="node1" class="node"><title>Node2</title>
<polygon fill="#bfbfbf" stroke="black" points="803,-342.5 803,-361.5 863,-361.5 863,-342.5 803,-342.5"/>
<text text-anchor="middle" x="833" y="-349.5" font-family="Helvetica,sans-Serif" font-size="10.00">Animation</text>
</g>
<!-- Node3 -->
<g id="node2" class="node"><title>Node3</title>
<g id="a_node2"><a xlink:href="classGameObject.html" target="_top" xlink:title="Classe virtual que especifica o funcionamento de um GameObject. ">
<polygon fill="white" stroke="black" points="305,-357.5 305,-376.5 376,-376.5 376,-357.5 305,-357.5"/>
<text text-anchor="middle" x="340.5" y="-364.5" font-family="Helvetica,sans-Serif" font-size="10.00">GameObject</text>
</a>
</g>
</g>
<!-- Node3&#45;&gt;Node2 -->
<g id="edge1" class="edge"><title>Node3&#45;&gt;Node2</title>
<path fill="none" stroke="midnightblue" d="M386.526,-371.178C467.02,-377.699 640.684,-387.461 785,-366 791.4,-365.048 798.143,-363.428 804.46,-361.619"/>
<polygon fill="midnightblue" stroke="midnightblue" points="386.515,-367.665 376.259,-370.322 385.933,-374.641 386.515,-367.665"/>
</g>
<!-- Node9 -->
<g id="node8" class="node"><title>Node9</title>
<g id="a_node8"><a xlink:href="classComponent.html" target="_top" xlink:title="Modela os componentes. ">
<polygon fill="white" stroke="black" points="508.5,-182.5 508.5,-201.5 575.5,-201.5 575.5,-182.5 508.5,-182.5"/>
<text text-anchor="middle" x="542" y="-189.5" font-family="Helvetica,sans-Serif" font-size="10.00">Component</text>
</a>
</g>
</g>
<!-- Node3&#45;&gt;Node9 -->
<g id="edge9" class="edge"><title>Node3&#45;&gt;Node9</title>
<path fill="none" stroke="#9a32cd" stroke-dasharray="5,2" d="M359.417,-350.335C383.111,-327.718 425.327,-285.363 455,-244 464.738,-230.425 459.925,-221.4 473,-211 483.073,-202.988 496.322,-198.352 508.448,-195.67"/>
<polygon fill="#9a32cd" stroke="#9a32cd" points="356.998,-347.806 352.136,-357.219 361.807,-352.892 356.998,-347.806"/>
<text text-anchor="middle" x="426" y="-313" font-family="Helvetica,sans-Serif" font-size="10.00"> associated</text>
</g>
<!-- Node4 -->
<g id="node3" class="node"><title>Node4</title>
<polygon fill="white" stroke="#bfbfbf" points="93,-397.5 93,-416.5 209,-416.5 209,-397.5 93,-397.5"/>
<text text-anchor="middle" x="151" y="-404.5" font-family="Helvetica,sans-Serif" font-size="10.00">vector&lt; Component *&gt;</text>
</g>
<!-- Node4&#45;&gt;Node3 -->
<g id="edge2" class="edge"><title>Node4&#45;&gt;Node3</title>
<path fill="none" stroke="#9a32cd" stroke-dasharray="5,2" d="M219.163,-396.139C240.03,-392.403 263.05,-387.911 284,-383 292.006,-381.123 300.577,-378.807 308.53,-376.526"/>
<polygon fill="#9a32cd" stroke="#9a32cd" points="218.351,-392.728 209.111,-397.911 219.566,-399.622 218.351,-392.728"/>
<text text-anchor="middle" x="255.5" y="-397" font-family="Helvetica,sans-Serif" font-size="10.00"> components</text>
</g>
<!-- Node5 -->
<g id="node4" class="node"><title>Node5</title>
<g id="a_node4"><a xlink:href="classRect.html" target="_top" xlink:title="Classe que modela um rect. ">
<polygon fill="white" stroke="black" points="132,-359.5 132,-378.5 170,-378.5 170,-359.5 132,-359.5"/>
<text text-anchor="middle" x="151" y="-366.5" font-family="Helvetica,sans-Serif" font-size="10.00">Rect</text>
</a>
</g>
</g>
<!-- Node5&#45;&gt;Node3 -->
<g id="edge3" class="edge"><title>Node5&#45;&gt;Node3</title>
<path fill="none" stroke="#9a32cd" stroke-dasharray="5,2" d="M180.325,-368.698C213.689,-368.342 269.1,-367.751 304.954,-367.368"/>
<polygon fill="#9a32cd" stroke="#9a32cd" points="180.282,-365.198 170.32,-368.805 180.356,-372.198 180.282,-365.198"/>
<text text-anchor="middle" x="255.5" y="-371" font-family="Helvetica,sans-Serif" font-size="10.00"> box</text>
</g>
<!-- Node6 -->
<g id="node5" class="node"><title>Node6</title>
<polygon fill="white" stroke="#bfbfbf" points="0,-320.5 0,-339.5 35,-339.5 35,-320.5 0,-320.5"/>
<text text-anchor="middle" x="17.5" y="-327.5" font-family="Helvetica,sans-Serif" font-size="10.00">float</text>
</g>
<!-- Node6&#45;&gt;Node2 -->
<g id="edge19" class="edge"><title>Node6&#45;&gt;Node2</title>
<path fill="none" stroke="#9a32cd" stroke-dasharray="5,2" d="M25.2562,-349.137C31.0414,-363.656 40.4319,-383.519 53,-398 84.4,-434.179 102.095,-445 150,-445 150,-445 150,-445 733,-445 781.343,-445 815.745,-385.364 827.534,-361.602"/>
<polygon fill="#9a32cd" stroke="#9a32cd" points="28.4877,-347.787 21.6869,-339.663 21.9372,-350.255 28.4877,-347.787"/>
<text text-anchor="middle" x="426" y="-448" font-family="Helvetica,sans-Serif" font-size="10.00"> timeLimit</text>
</g>
<!-- Node6&#45;&gt;Node3 -->
<g id="edge5" class="edge"><title>Node6&#45;&gt;Node3</title>
<path fill="none" stroke="#9a32cd" stroke-dasharray="5,2" d="M45.5859,-329.886C82.6357,-330.046 151.126,-331.476 209,-339 241.859,-343.272 278.728,-351.508 304.874,-357.947"/>
<polygon fill="#9a32cd" stroke="#9a32cd" points="45.1484,-326.385 35.1436,-329.871 45.1387,-333.385 45.1484,-326.385"/>
<text text-anchor="middle" x="151" y="-342" font-family="Helvetica,sans-Serif" font-size="10.00"> rotation</text>
</g>
<!-- Node6&#45;&gt;Node5 -->
<g id="edge4" class="edge"><title>Node6&#45;&gt;Node5</title>
<path fill="none" stroke="#9a32cd" stroke-dasharray="5,2" d="M44.5474,-340.996C47.3808,-342.064 50.2378,-343.088 53,-344 80.0829,-352.941 112.275,-360.686 131.915,-365.099"/>
<polygon fill="#9a32cd" stroke="#9a32cd" points="45.765,-337.714 35.1786,-337.291 43.1905,-344.223 45.765,-337.714"/>
<text text-anchor="middle" x="64" y="-386" font-family="Helvetica,sans-Serif" font-size="10.00"> w</text>
<text text-anchor="middle" x="64" y="-375" font-family="Helvetica,sans-Serif" font-size="10.00">x</text>
<text text-anchor="middle" x="64" y="-364" font-family="Helvetica,sans-Serif" font-size="10.00">h</text>
<text text-anchor="middle" x="64" y="-353" font-family="Helvetica,sans-Serif" font-size="10.00">y</text>
</g>
<!-- Node8 -->
<g id="node7" class="node"><title>Node8</title>
<g id="a_node7"><a xlink:href="classSprite.html" target="_top" xlink:title="Classe que modela uma sprite. Sprite é uma imagem carregada na memória. Essa classe também traz uma s...">
<polygon fill="white" stroke="black" points="711,-182.5 711,-201.5 753,-201.5 753,-182.5 711,-182.5"/>
<text text-anchor="middle" x="732" y="-189.5" font-family="Helvetica,sans-Serif" font-size="10.00">Sprite</text>
</a>
</g>
</g>
<!-- Node6&#45;&gt;Node8 -->
<g id="edge11" class="edge"><title>Node6&#45;&gt;Node8</title>
<path fill="none" stroke="#9a32cd" stroke-dasharray="5,2" d="M28.6124,-311.309C41.4957,-288.632 65.4277,-250.08 93,-223 172.765,-144.658 195.03,-115.517 302,-83 385.289,-57.6817 622.962,-55.3014 693,-107 718.1,-125.528 726.952,-164.431 729.789,-182.457"/>
<polygon fill="#9a32cd" stroke="#9a32cd" points="25.4444,-309.805 23.6427,-320.245 31.562,-313.207 25.4444,-309.805"/>
<text text-anchor="middle" x="340.5" y="-119" font-family="Helvetica,sans-Serif" font-size="10.00"> scaleY</text>
<text text-anchor="middle" x="340.5" y="-108" font-family="Helvetica,sans-Serif" font-size="10.00">frameTime</text>
<text text-anchor="middle" x="340.5" y="-97" font-family="Helvetica,sans-Serif" font-size="10.00">timeElapsed</text>
<text text-anchor="middle" x="340.5" y="-86" font-family="Helvetica,sans-Serif" font-size="10.00">scaleX</text>
</g>
<!-- Node16 -->
<g id="node15" class="node"><title>Node16</title>
<g id="a_node15"><a xlink:href="classTimer.html" target="_top" xlink:title="Temporizador. ">
<polygon fill="white" stroke="black" points="235,-1.5 235,-20.5 276,-20.5 276,-1.5 235,-1.5"/>
<text text-anchor="middle" x="255.5" y="-8.5" font-family="Helvetica,sans-Serif" font-size="10.00">Timer</text>
</a>
</g>
</g>
<!-- Node6&#45;&gt;Node16 -->
<g id="edge22" class="edge"><title>Node6&#45;&gt;Node16</title>
<path fill="none" stroke="#9a32cd" stroke-dasharray="5,2" d="M18.0286,-310.1C17.0952,-252.401 17.6141,-86.735 53,-49 100.972,2.15658 194.436,-2.91723 234.969,-7.97317"/>
<polygon fill="#9a32cd" stroke="#9a32cd" points="14.5353,-310.482 18.2313,-320.411 21.534,-310.344 14.5353,-310.482"/>
<text text-anchor="middle" x="64" y="-52" font-family="Helvetica,sans-Serif" font-size="10.00"> time</text>
</g>
<!-- Node7 -->
<g id="node6" class="node"><title>Node7</title>
<polygon fill="white" stroke="#bfbfbf" points="133.5,-232.5 133.5,-251.5 168.5,-251.5 168.5,-232.5 133.5,-232.5"/>
<text text-anchor="middle" x="151" y="-239.5" font-family="Helvetica,sans-Serif" font-size="10.00">bool</text>
</g>
<!-- Node7&#45;&gt;Node2 -->
<g id="edge20" class="edge"><title>Node7&#45;&gt;Node2</title>
<path fill="none" stroke="#9a32cd" stroke-dasharray="5,2" d="M178.91,-246.8C205.693,-251.742 247.899,-259.977 284,-269 368.995,-290.243 386.895,-308.833 473,-325 541.379,-337.839 559.627,-332.718 629,-338 690.82,-342.707 763.284,-347.54 802.744,-350.114"/>
<polygon fill="#9a32cd" stroke="#9a32cd" points="179.24,-243.302 168.774,-244.951 177.984,-250.189 179.24,-243.302"/>
<text text-anchor="middle" x="542" y="-339" font-family="Helvetica,sans-Serif" font-size="10.00"> oneTimeOnly</text>
</g>
<!-- Node7&#45;&gt;Node3 -->
<g id="edge6" class="edge"><title>Node7&#45;&gt;Node3</title>
<path fill="none" stroke="#9a32cd" stroke-dasharray="5,2" d="M178.45,-250.356C214.503,-261.907 275.585,-282.108 284,-289 296.03,-298.852 293.197,-306.183 302,-319 311.459,-332.773 323.527,-347.829 331.38,-357.338"/>
<polygon fill="#9a32cd" stroke="#9a32cd" points="179.17,-246.912 168.579,-247.21 177.043,-253.582 179.17,-246.912"/>
<text text-anchor="middle" x="255.5" y="-314" font-family="Helvetica,sans-Serif" font-size="10.00"> dead</text>
<text text-anchor="middle" x="255.5" y="-303" font-family="Helvetica,sans-Serif" font-size="10.00">active</text>
<text text-anchor="middle" x="255.5" y="-292" font-family="Helvetica,sans-Serif" font-size="10.00">newActive</text>
</g>
<!-- Node7&#45;&gt;Node8 -->
<g id="edge15" class="edge"><title>Node7&#45;&gt;Node8</title>
<path fill="none" stroke="#9a32cd" stroke-dasharray="5,2" d="M178.272,-234.086C192.602,-229.911 210.696,-224.867 227,-221 394.353,-181.311 439.535,-159.51 611,-173 646.327,-175.779 686.967,-183.093 710.733,-187.793"/>
<polygon fill="#9a32cd" stroke="#9a32cd" points="177.183,-230.758 168.582,-236.944 179.163,-237.472 177.183,-230.758"/>
<text text-anchor="middle" x="426" y="-184" font-family="Helvetica,sans-Serif" font-size="10.00"> highlightable</text>
</g>
<!-- Node7&#45;&gt;Node9 -->
<g id="edge10" class="edge"><title>Node7&#45;&gt;Node9</title>
<path fill="none" stroke="#9a32cd" stroke-dasharray="5,2" d="M178.803,-238.555C248.052,-229.654 432.767,-205.912 508.211,-196.215"/>
<polygon fill="#9a32cd" stroke="#9a32cd" points="178.187,-235.105 168.715,-239.852 179.079,-242.048 178.187,-235.105"/>
<text text-anchor="middle" x="340.5" y="-235" font-family="Helvetica,sans-Serif" font-size="10.00"> newEnabled</text>
<text text-anchor="middle" x="340.5" y="-224" font-family="Helvetica,sans-Serif" font-size="10.00">enabled</text>
</g>
<!-- Node8&#45;&gt;Node2 -->
<g id="edge7" class="edge"><title>Node8&#45;&gt;Node2</title>
<path fill="none" stroke="#9a32cd" stroke-dasharray="5,2" d="M744.412,-210.443C765.505,-244.534 809.91,-316.299 826.009,-342.318"/>
<polygon fill="#9a32cd" stroke="#9a32cd" points="747.135,-208.192 738.896,-201.53 741.182,-211.875 747.135,-208.192"/>
<text text-anchor="middle" x="778" y="-275" font-family="Helvetica,sans-Serif" font-size="10.00"> sp</text>
</g>
<!-- Node9&#45;&gt;Node8 -->
<g id="edge8" class="edge"><title>Node9&#45;&gt;Node8</title>
<path fill="none" stroke="midnightblue" d="M585.796,-192C624.919,-192 681.071,-192 710.78,-192"/>
<polygon fill="midnightblue" stroke="midnightblue" points="585.747,-188.5 575.747,-192 585.747,-195.5 585.747,-188.5"/>
</g>
<!-- Node10 -->
<g id="node9" class="node"><title>Node10</title>
<polygon fill="white" stroke="#bfbfbf" points="511,-29.5 511,-48.5 573,-48.5 573,-29.5 511,-29.5"/>
<text text-anchor="middle" x="542" y="-36.5" font-family="Helvetica,sans-Serif" font-size="10.00">SDL_Rect</text>
</g>
<!-- Node10&#45;&gt;Node8 -->
<g id="edge12" class="edge"><title>Node10&#45;&gt;Node8</title>
<path fill="none" stroke="#9a32cd" stroke-dasharray="5,2" d="M583.52,-30.8914C616.716,-26.7165 662.955,-26.8934 693,-52 713.389,-69.0376 725.983,-153.097 729.78,-182.123"/>
<polygon fill="#9a32cd" stroke="#9a32cd" points="582.635,-27.4827 573.237,-32.3738 583.634,-34.4111 582.635,-27.4827"/>
<text text-anchor="middle" x="661" y="-55" font-family="Helvetica,sans-Serif" font-size="10.00"> clipRect</text>
</g>
<!-- Node11 -->
<g id="node10" class="node"><title>Node11</title>
<polygon fill="white" stroke="#bfbfbf" points="527.5,-296.5 527.5,-315.5 556.5,-315.5 556.5,-296.5 527.5,-296.5"/>
<text text-anchor="middle" x="542" y="-303.5" font-family="Helvetica,sans-Serif" font-size="10.00">int</text>
</g>
<!-- Node11&#45;&gt;Node8 -->
<g id="edge13" class="edge"><title>Node11&#45;&gt;Node8</title>
<path fill="none" stroke="#9a32cd" stroke-dasharray="5,2" d="M566.895,-302.606C604.119,-296.913 673.688,-284.525 693,-269 714.843,-251.441 725.098,-218.145 729.004,-201.696"/>
<polygon fill="#9a32cd" stroke="#9a32cd" points="566.274,-299.16 556.897,-304.092 567.303,-306.083 566.274,-299.16"/>
<text text-anchor="middle" x="661" y="-326" font-family="Helvetica,sans-Serif" font-size="10.00"> width</text>
<text text-anchor="middle" x="661" y="-315" font-family="Helvetica,sans-Serif" font-size="10.00">currentFrame</text>
<text text-anchor="middle" x="661" y="-304" font-family="Helvetica,sans-Serif" font-size="10.00">height</text>
<text text-anchor="middle" x="661" y="-293" font-family="Helvetica,sans-Serif" font-size="10.00">frameCount</text>
</g>
<!-- Node12 -->
<g id="node11" class="node"><title>Node12</title>
<polygon fill="white" stroke="#bfbfbf" points="473,-258.5 473,-277.5 611,-277.5 611,-258.5 473,-258.5"/>
<text text-anchor="middle" x="542" y="-265.5" font-family="Helvetica,sans-Serif" font-size="10.00">shared_ptr&lt; SDL_Texture &gt;</text>
</g>
<!-- Node12&#45;&gt;Node8 -->
<g id="edge14" class="edge"><title>Node12&#45;&gt;Node8</title>
<path fill="none" stroke="#9a32cd" stroke-dasharray="5,2" d="M621.11,-256.524C645.209,-250.842 671.137,-242.424 693,-230 705.654,-222.809 716.997,-210.271 723.928,-201.573"/>
<polygon fill="#9a32cd" stroke="#9a32cd" points="620.267,-253.126 611.269,-258.72 621.791,-259.958 620.267,-253.126"/>
<text text-anchor="middle" x="661" y="-257" font-family="Helvetica,sans-Serif" font-size="10.00"> texture</text>
</g>
<!-- Node13 -->
<g id="node12" class="node"><title>Node13</title>
<polygon fill="white" stroke="#bfbfbf" points="497,-220.5 497,-239.5 587,-239.5 587,-220.5 497,-220.5"/>
<text text-anchor="middle" x="542" y="-227.5" font-family="Helvetica,sans-Serif" font-size="10.00">SDL_BlendMode</text>
</g>
<!-- Node13&#45;&gt;Node8 -->
<g id="edge16" class="edge"><title>Node13&#45;&gt;Node8</title>
<path fill="none" stroke="#9a32cd" stroke-dasharray="5,2" d="M597.423,-221.601C626.019,-216.836 661.564,-210.358 693,-203 698.885,-201.623 705.214,-199.892 710.987,-198.215"/>
<polygon fill="#9a32cd" stroke="#9a32cd" points="596.522,-218.202 587.222,-223.277 597.658,-225.109 596.522,-218.202"/>
<text text-anchor="middle" x="661" y="-218" font-family="Helvetica,sans-Serif" font-size="10.00"> blendMode</text>
</g>
<!-- Node14 -->
<g id="node13" class="node"><title>Node14</title>
<g id="a_node13"><a xlink:href="structColor.html" target="_top" xlink:title="Struct para armazenar informações de cor. ">
<polygon fill="white" stroke="black" points="522,-106.5 522,-125.5 562,-125.5 562,-106.5 522,-106.5"/>
<text text-anchor="middle" x="542" y="-113.5" font-family="Helvetica,sans-Serif" font-size="10.00">Color</text>
</a>
</g>
</g>
<!-- Node14&#45;&gt;Node8 -->
<g id="edge17" class="edge"><title>Node14&#45;&gt;Node8</title>
<path fill="none" stroke="#9a32cd" stroke-dasharray="5,2" d="M572.328,-111.135C604.467,-107.388 656.326,-106.147 693,-129 712.73,-141.294 723.613,-167.95 728.256,-182.333"/>
<polygon fill="#9a32cd" stroke="#9a32cd" points="571.689,-107.689 562.235,-112.47 572.607,-114.628 571.689,-107.689"/>
<text text-anchor="middle" x="661" y="-132" font-family="Helvetica,sans-Serif" font-size="10.00"> colorMultiplier</text>
</g>
<!-- Node15 -->
<g id="node14" class="node"><title>Node15</title>
<polygon fill="white" stroke="#bfbfbf" points="302,-136.5 302,-155.5 379,-155.5 379,-136.5 302,-136.5"/>
<text text-anchor="middle" x="340.5" y="-143.5" font-family="Helvetica,sans-Serif" font-size="10.00">unsigned char</text>
</g>
<!-- Node15&#45;&gt;Node14 -->
<g id="edge18" class="edge"><title>Node15&#45;&gt;Node14</title>
<path fill="none" stroke="#9a32cd" stroke-dasharray="5,2" d="M364.755,-131.308C374.357,-126.044 385.837,-120.738 397,-118 440.466,-107.337 493.55,-110.608 521.551,-113.54"/>
<polygon fill="#9a32cd" stroke="#9a32cd" points="362.76,-128.419 355.861,-136.46 366.268,-134.476 362.76,-128.419"/>
<text text-anchor="middle" x="426" y="-154" font-family="Helvetica,sans-Serif" font-size="10.00"> g</text>
<text text-anchor="middle" x="426" y="-143" font-family="Helvetica,sans-Serif" font-size="10.00">a</text>
<text text-anchor="middle" x="426" y="-132" font-family="Helvetica,sans-Serif" font-size="10.00">r</text>
<text text-anchor="middle" x="426" y="-121" font-family="Helvetica,sans-Serif" font-size="10.00">b</text>
</g>
<!-- Node16&#45;&gt;Node2 -->
<g id="edge21" class="edge"><title>Node16&#45;&gt;Node2</title>
<path fill="none" stroke="#9a32cd" stroke-dasharray="5,2" d="M286.272,-7.8791C319.912,-4.62692 376.327,-0 425,-0 425,-0 425,-0 733,-0 806.163,-0 827.835,-285.368 831.427,-342.218"/>
<polygon fill="#9a32cd" stroke="#9a32cd" points="285.794,-4.40922 276.188,-8.87909 286.485,-11.375 285.794,-4.40922"/>
<text text-anchor="middle" x="542" y="-3" font-family="Helvetica,sans-Serif" font-size="10.00"> endTimer</text>
</g>
</g>
</svg>
