<?xml version="1.0" encoding="UTF-8" standalone="no"?>
<!DOCTYPE svg PUBLIC "-//W3C//DTD SVG 1.1//EN"
 "http://www.w3.org/Graphics/SVG/1.1/DTD/svg11.dtd">
<!-- Generated by graphviz version 2.38.0 (20140413.2041)
 -->
<!-- Title: TileMap&lt; T &gt; Pages: 1 -->
<svg width="196pt" height="84pt"
 viewBox="0.00 0.00 195.50 84.00" xmlns="http://www.w3.org/2000/svg" xmlns:xlink="http://www.w3.org/1999/xlink">
<g id="graph0" class="graph" transform="scale(1 1) rotate(0) translate(4 80)">
<title>TileMap&lt; T &gt;</title>
<polygon fill="white" stroke="none" points="-4,4 -4,-80 191.5,-80 191.5,4 -4,4"/>
<!-- Node0 -->
<g id="node1" class="node"><title>Node0</title>
<polygon fill="#bfbfbf" stroke="black" points="47,-0.5 47,-19.5 122,-19.5 122,-0.5 47,-0.5"/>
<text text-anchor="middle" x="84.5" y="-7.5" font-family="Helvetica,sans-Serif" font-size="10.00">TileMap&lt; T &gt;</text>
</g>
<!-- Node1 -->
<g id="node2" class="node"><title>Node1</title>
<g id="a_node2"><a xlink:href="classComponent.html" target="_top" xlink:title="Modela os componentes. ">
<polygon fill="white" stroke="black" points="0,-56.5 0,-75.5 67,-75.5 67,-56.5 0,-56.5"/>
<text text-anchor="middle" x="33.5" y="-63.5" font-family="Helvetica,sans-Serif" font-size="10.00">Component</text>
</a>
</g>
</g>
<!-- Node1&#45;&gt;Node0 -->
<g id="edge1" class="edge"><title>Node1&#45;&gt;Node0</title>
<path fill="none" stroke="midnightblue" d="M48.8779,-48.7175C57.8669,-39.1997 68.8592,-27.5608 76.2351,-19.7511"/>
<polygon fill="midnightblue" stroke="midnightblue" points="46.2433,-46.4096 41.9216,-56.083 51.3324,-51.216 46.2433,-46.4096"/>
</g>
<!-- Node2 -->
<g id="node3" class="node"><title>Node2</title>
<g id="a_node3"><a xlink:href="classNearestFinder.html" target="_top" xlink:title="NearestFinder\&lt; T \&gt;">
<polygon fill="white" stroke="black" points="85.5,-56.5 85.5,-75.5 187.5,-75.5 187.5,-56.5 85.5,-56.5"/>
<text text-anchor="middle" x="136.5" y="-63.5" font-family="Helvetica,sans-Serif" font-size="10.00">NearestFinder&lt; T &gt;</text>
</a>
</g>
</g>
<!-- Node2&#45;&gt;Node0 -->
<g id="edge2" class="edge"><title>Node2&#45;&gt;Node0</title>
<path fill="none" stroke="#8b1a1a" d="M120.821,-48.7175C111.655,-39.1997 100.447,-27.5608 92.927,-19.7511"/>
<polygon fill="#8b1a1a" stroke="#8b1a1a" points="118.456,-51.3075 127.913,-56.083 123.498,-46.452 118.456,-51.3075"/>
</g>
</g>
</svg>
