<?xml version="1.0" encoding="UTF-8" standalone="no"?>
<!DOCTYPE svg PUBLIC "-//W3C//DTD SVG 1.1//EN"
 "http://www.w3.org/Graphics/SVG/1.1/DTD/svg11.dtd">
<!-- Generated by graphviz version 2.40.1 (20161225.0304)
 -->
<!-- Title: RattletrapEngine::Component Pages: 1 -->
<svg width="351pt" height="256pt"
 viewBox="0.00 0.00 351.00 256.00" xmlns="http://www.w3.org/2000/svg" xmlns:xlink="http://www.w3.org/1999/xlink">
<g id="graph0" class="graph" transform="scale(1 1) rotate(0) translate(4 252)">
<title>RattletrapEngine::Component</title>
<polygon fill="#ffffff" stroke="transparent" points="-4,4 -4,-252 347,-252 347,4 -4,4"/>
<!-- Node0 -->
<g id="node1" class="node">
<title>Node0</title>
<polygon fill="#bfbfbf" stroke="#000000" points="0,-114.5 0,-133.5 146,-133.5 146,-114.5 0,-114.5"/>
<text text-anchor="middle" x="73" y="-121.5" font-family="Helvetica,sans-Serif" font-size="10.00" fill="#000000">RattletrapEngine::Component</text>
</g>
<!-- Node1 -->
<g id="node2" class="node">
<title>Node1</title>
<g id="a_node2"><a xlink:href="classRattletrapEngine_1_1Button.html" target="_top" xlink:title="RattletrapEngine::Button">
<polygon fill="#ffffff" stroke="#000000" points="200.5,-228.5 200.5,-247.5 324.5,-247.5 324.5,-228.5 200.5,-228.5"/>
<text text-anchor="middle" x="262.5" y="-235.5" font-family="Helvetica,sans-Serif" font-size="10.00" fill="#000000">RattletrapEngine::Button</text>
</a>
</g>
</g>
<!-- Node0&#45;&gt;Node1 -->
<g id="edge1" class="edge">
<title>Node0&#45;&gt;Node1</title>
<path fill="none" stroke="#191970" d="M87.7504,-141.2165C107.158,-162.7405 143.3605,-199.1615 182,-219 189.5369,-222.8696 197.8755,-225.9648 206.2461,-228.437"/>
<polygon fill="#191970" stroke="#191970" points="90.1853,-138.6861 80.9431,-133.5061 84.9378,-143.319 90.1853,-138.6861"/>
</g>
<!-- Node2 -->
<g id="node3" class="node">
<title>Node2</title>
<g id="a_node3"><a xlink:href="classRattletrapEngine_1_1Grouper.html" target="_top" xlink:title="RattletrapEngine::Grouper">
<polygon fill="#ffffff" stroke="#000000" points="197.5,-190.5 197.5,-209.5 327.5,-209.5 327.5,-190.5 197.5,-190.5"/>
<text text-anchor="middle" x="262.5" y="-197.5" font-family="Helvetica,sans-Serif" font-size="10.00" fill="#000000">RattletrapEngine::Grouper</text>
</a>
</g>
</g>
<!-- Node0&#45;&gt;Node2 -->
<g id="edge2" class="edge">
<title>Node0&#45;&gt;Node2</title>
<path fill="none" stroke="#191970" d="M97.1049,-138.8542C118.6709,-151.5891 151.4966,-169.6296 182,-181 191.9569,-184.7115 202.8838,-187.8649 213.388,-190.4727"/>
<polygon fill="#191970" stroke="#191970" points="98.6915,-135.7247 88.3144,-133.5879 95.0941,-141.7296 98.6915,-135.7247"/>
</g>
<!-- Node3 -->
<g id="node4" class="node">
<title>Node3</title>
<g id="a_node4"><a xlink:href="classRattletrapEngine_1_1RectTransform.html" target="_top" xlink:title="RattletrapEngine::RectTransform">
<polygon fill="#ffffff" stroke="#000000" points="182,-152.5 182,-171.5 343,-171.5 343,-152.5 182,-152.5"/>
<text text-anchor="middle" x="262.5" y="-159.5" font-family="Helvetica,sans-Serif" font-size="10.00" fill="#000000">RattletrapEngine::RectTransform</text>
</a>
</g>
</g>
<!-- Node0&#45;&gt;Node3 -->
<g id="edge3" class="edge">
<title>Node0&#45;&gt;Node3</title>
<path fill="none" stroke="#191970" d="M130.8948,-135.6095C157.846,-141.014 189.5102,-147.3635 215.025,-152.4799"/>
<polygon fill="#191970" stroke="#191970" points="131.3118,-132.1235 120.8189,-133.589 129.9355,-138.9869 131.3118,-132.1235"/>
</g>
<!-- Node4 -->
<g id="node5" class="node">
<title>Node4</title>
<g id="a_node5"><a xlink:href="classRattletrapEngine_1_1Sprite.html" target="_top" xlink:title="Classe que modela uma sprite. Sprite é uma imagem carregada na memória. Essa classe também traz uma s...">
<polygon fill="#ffffff" stroke="#000000" points="202,-114.5 202,-133.5 323,-133.5 323,-114.5 202,-114.5"/>
<text text-anchor="middle" x="262.5" y="-121.5" font-family="Helvetica,sans-Serif" font-size="10.00" fill="#000000">RattletrapEngine::Sprite</text>
</a>
</g>
</g>
<!-- Node0&#45;&gt;Node4 -->
<g id="edge4" class="edge">
<title>Node0&#45;&gt;Node4</title>
<path fill="none" stroke="#191970" d="M156.6766,-124C171.8311,-124 187.3688,-124 201.7101,-124"/>
<polygon fill="#191970" stroke="#191970" points="156.2657,-120.5001 146.2656,-124 156.2656,-127.5001 156.2657,-120.5001"/>
</g>
<!-- Node5 -->
<g id="node6" class="node">
<title>Node5</title>
<g id="a_node6"><a xlink:href="classRattletrapEngine_1_1Text.html" target="_top" xlink:title="RattletrapEngine::Text">
<polygon fill="#ffffff" stroke="#000000" points="205,-76.5 205,-95.5 320,-95.5 320,-76.5 205,-76.5"/>
<text text-anchor="middle" x="262.5" y="-83.5" font-family="Helvetica,sans-Serif" font-size="10.00" fill="#000000">RattletrapEngine::Text</text>
</a>
</g>
</g>
<!-- Node0&#45;&gt;Node5 -->
<g id="edge5" class="edge">
<title>Node0&#45;&gt;Node5</title>
<path fill="none" stroke="#191970" d="M130.8948,-112.3905C157.846,-106.986 189.5102,-100.6365 215.025,-95.5201"/>
<polygon fill="#191970" stroke="#191970" points="129.9355,-109.0131 120.8189,-114.411 131.3118,-115.8765 129.9355,-109.0131"/>
</g>
<!-- Node6 -->
<g id="node7" class="node">
<title>Node6</title>
<g id="a_node7"><a xlink:href="classRattletrapEngine_1_1TileMap.html" target="_top" xlink:title="RattletrapEngine::TileMap\&lt; T \&gt;">
<polygon fill="#ffffff" stroke="#000000" points="185.5,-38.5 185.5,-57.5 339.5,-57.5 339.5,-38.5 185.5,-38.5"/>
<text text-anchor="middle" x="262.5" y="-45.5" font-family="Helvetica,sans-Serif" font-size="10.00" fill="#000000">RattletrapEngine::TileMap&lt; T &gt;</text>
</a>
</g>
</g>
<!-- Node0&#45;&gt;Node6 -->
<g id="edge6" class="edge">
<title>Node0&#45;&gt;Node6</title>
<path fill="none" stroke="#191970" d="M97.1049,-109.1458C118.6709,-96.4109 151.4966,-78.3704 182,-67 191.9569,-63.2885 202.8838,-60.1351 213.388,-57.5273"/>
<polygon fill="#191970" stroke="#191970" points="95.0941,-106.2704 88.3144,-114.4121 98.6915,-112.2753 95.0941,-106.2704"/>
</g>
<!-- Node7 -->
<g id="node8" class="node">
<title>Node7</title>
<g id="a_node8"><a xlink:href="classRattletrapEngine_1_1TileSet.html" target="_top" xlink:title="RattletrapEngine::TileSet">
<polygon fill="#ffffff" stroke="#000000" points="199.5,-.5 199.5,-19.5 325.5,-19.5 325.5,-.5 199.5,-.5"/>
<text text-anchor="middle" x="262.5" y="-7.5" font-family="Helvetica,sans-Serif" font-size="10.00" fill="#000000">RattletrapEngine::TileSet</text>
</a>
</g>
</g>
<!-- Node0&#45;&gt;Node7 -->
<g id="edge7" class="edge">
<title>Node0&#45;&gt;Node7</title>
<path fill="none" stroke="#191970" d="M87.7504,-106.7835C107.158,-85.2595 143.3605,-48.8385 182,-29 189.5369,-25.1304 197.8755,-22.0352 206.2461,-19.563"/>
<polygon fill="#191970" stroke="#191970" points="84.9378,-104.681 80.9431,-114.4939 90.1853,-109.3139 84.9378,-104.681"/>
</g>
</g>
</svg>
