<?xml version="1.0" encoding="UTF-8" standalone="no"?>
<!DOCTYPE svg PUBLIC "-//W3C//DTD SVG 1.1//EN"
 "http://www.w3.org/Graphics/SVG/1.1/DTD/svg11.dtd">
<!-- Generated by graphviz version 2.40.1 (20161225.0304)
 -->
<!-- Title: RattletrapEngine::Grouper Pages: 1 -->
<svg width="997pt" height="408pt"
 viewBox="0.00 0.00 997.00 408.00" xmlns="http://www.w3.org/2000/svg" xmlns:xlink="http://www.w3.org/1999/xlink">
<g id="graph0" class="graph" transform="scale(1 1) rotate(0) translate(4 404)">
<title>RattletrapEngine::Grouper</title>
<polygon fill="#ffffff" stroke="transparent" points="-4,4 -4,-404 993,-404 993,4 -4,4"/>
<!-- Node2 -->
<g id="node1" class="node">
<title>Node2</title>
<polygon fill="#bfbfbf" stroke="#000000" points="859,-98.5 859,-117.5 989,-117.5 989,-98.5 859,-98.5"/>
<text text-anchor="middle" x="924" y="-105.5" font-family="Helvetica,sans-Serif" font-size="10.00" fill="#000000">RattletrapEngine::Grouper</text>
</g>
<!-- Node3 -->
<g id="node2" class="node">
<title>Node3</title>
<g id="a_node2"><a xlink:href="classRattletrapEngine_1_1Component.html" target="_top" xlink:title="Modela os componentes. ">
<polygon fill="#ffffff" stroke="#000000" points="598,-210.5 598,-229.5 744,-229.5 744,-210.5 598,-210.5"/>
<text text-anchor="middle" x="671" y="-217.5" font-family="Helvetica,sans-Serif" font-size="10.00" fill="#000000">RattletrapEngine::Component</text>
</a>
</g>
</g>
<!-- Node3&#45;&gt;Node2 -->
<g id="edge1" class="edge">
<title>Node3&#45;&gt;Node2</title>
<path fill="none" stroke="#191970" d="M754.3284,-214.0839C782.9851,-209.5599 814.5023,-201.6782 841,-188 874.7894,-170.5578 904.1426,-134.939 917.0319,-117.7324"/>
<polygon fill="#191970" stroke="#191970" points="753.7122,-210.6367 744.3245,-215.548 754.7259,-217.5629 753.7122,-210.6367"/>
</g>
<!-- Node4 -->
<g id="node3" class="node">
<title>Node4</title>
<polygon fill="#ffffff" stroke="#bfbfbf" points="127,-233.5 127,-252.5 162,-252.5 162,-233.5 127,-233.5"/>
<text text-anchor="middle" x="144.5" y="-240.5" font-family="Helvetica,sans-Serif" font-size="10.00" fill="#000000">bool</text>
</g>
<!-- Node4&#45;&gt;Node3 -->
<g id="edge2" class="edge">
<title>Node4&#45;&gt;Node3</title>
<path fill="none" stroke="#9a32cd" stroke-dasharray="5,2" d="M172.0677,-240.2535C187.6003,-238.7938 207.3661,-237.0823 225,-236 356.2759,-227.9429 509.556,-223.5359 597.9392,-221.481"/>
<polygon fill="#9a32cd" stroke="#9a32cd" points="171.6888,-236.7737 162.0689,-241.213 172.3575,-243.7417 171.6888,-236.7737"/>
<text text-anchor="middle" x="436" y="-243" font-family="Helvetica,sans-Serif" font-size="10.00" fill="#000000"> newEnabled</text>
<text text-anchor="middle" x="436" y="-232" font-family="Helvetica,sans-Serif" font-size="10.00" fill="#000000">enabled</text>
</g>
<!-- Node5 -->
<g id="node4" class="node">
<title>Node5</title>
<g id="a_node4"><a xlink:href="classRattletrapEngine_1_1GameObject.html" target="_top" xlink:title="Classe virtual que especifica o funcionamento de um GameObject. ">
<polygon fill="#ffffff" stroke="#000000" points="361,-291.5 361,-310.5 511,-310.5 511,-291.5 361,-291.5"/>
<text text-anchor="middle" x="436" y="-298.5" font-family="Helvetica,sans-Serif" font-size="10.00" fill="#000000">RattletrapEngine::GameObject</text>
</a>
</g>
</g>
<!-- Node4&#45;&gt;Node5 -->
<g id="edge6" class="edge">
<title>Node4&#45;&gt;Node5</title>
<path fill="none" stroke="#9a32cd" stroke-dasharray="5,2" d="M172.1666,-241.008C211.0455,-238.9957 283.7265,-238.1273 343,-254 372.7073,-261.9553 403.9706,-280.071 421.6231,-291.3447"/>
<polygon fill="#9a32cd" stroke="#9a32cd" points="171.9155,-237.5166 162.1363,-241.5929 172.3231,-244.5047 171.9155,-237.5166"/>
<text text-anchor="middle" x="284" y="-279" font-family="Helvetica,sans-Serif" font-size="10.00" fill="#000000"> dead</text>
<text text-anchor="middle" x="284" y="-268" font-family="Helvetica,sans-Serif" font-size="10.00" fill="#000000">active</text>
<text text-anchor="middle" x="284" y="-257" font-family="Helvetica,sans-Serif" font-size="10.00" fill="#000000">newActive</text>
</g>
<!-- Node5&#45;&gt;Node3 -->
<g id="edge3" class="edge">
<title>Node5&#45;&gt;Node3</title>
<path fill="none" stroke="#9a32cd" stroke-dasharray="5,2" d="M473.4421,-288.0944C520.7153,-271.8003 600.9532,-244.1438 643.1559,-229.5973"/>
<polygon fill="#9a32cd" stroke="#9a32cd" points="472.194,-284.8225 463.8804,-291.3902 474.4751,-291.4404 472.194,-284.8225"/>
<text text-anchor="middle" x="554.5" y="-270" font-family="Helvetica,sans-Serif" font-size="10.00" fill="#000000"> associated</text>
</g>
<!-- Node6 -->
<g id="node5" class="node">
<title>Node6</title>
<polygon fill="#ffffff" stroke="#bfbfbf" points="0,-291.5 0,-310.5 35,-310.5 35,-291.5 0,-291.5"/>
<text text-anchor="middle" x="17.5" y="-298.5" font-family="Helvetica,sans-Serif" font-size="10.00" fill="#000000">float</text>
</g>
<!-- Node6&#45;&gt;Node5 -->
<g id="edge4" class="edge">
<title>Node6&#45;&gt;Node5</title>
<path fill="none" stroke="#9a32cd" stroke-dasharray="5,2" d="M45.256,-301C108.7278,-301 266.2667,-301 360.7898,-301"/>
<polygon fill="#9a32cd" stroke="#9a32cd" points="45.2152,-297.5001 35.2151,-301 45.2151,-304.5001 45.2152,-297.5001"/>
<text text-anchor="middle" x="144.5" y="-304" font-family="Helvetica,sans-Serif" font-size="10.00" fill="#000000"> rotation</text>
</g>
<!-- Node8 -->
<g id="node7" class="node">
<title>Node8</title>
<g id="a_node7"><a xlink:href="classRattletrapEngine_1_1Rect.html" target="_top" xlink:title="Classe que modela um rect. ">
<polygon fill="#ffffff" stroke="#000000" points="86.5,-380.5 86.5,-399.5 202.5,-399.5 202.5,-380.5 86.5,-380.5"/>
<text text-anchor="middle" x="144.5" y="-387.5" font-family="Helvetica,sans-Serif" font-size="10.00" fill="#000000">RattletrapEngine::Rect</text>
</a>
</g>
</g>
<!-- Node6&#45;&gt;Node8 -->
<g id="edge8" class="edge">
<title>Node6&#45;&gt;Node8</title>
<path fill="none" stroke="#9a32cd" stroke-dasharray="5,2" d="M29.8373,-319.0953C41.5306,-334.9394 60.474,-357.4834 82,-371 88.1469,-374.8598 95.1266,-377.9771 102.1385,-380.4821"/>
<polygon fill="#9a32cd" stroke="#9a32cd" points="32.4794,-316.7719 23.8255,-310.6596 26.7789,-320.8345 32.4794,-316.7719"/>
<text text-anchor="middle" x="58.5" y="-392" font-family="Helvetica,sans-Serif" font-size="10.00" fill="#000000"> w</text>
<text text-anchor="middle" x="58.5" y="-381" font-family="Helvetica,sans-Serif" font-size="10.00" fill="#000000">x</text>
<text text-anchor="middle" x="58.5" y="-370" font-family="Helvetica,sans-Serif" font-size="10.00" fill="#000000">h</text>
<text text-anchor="middle" x="58.5" y="-359" font-family="Helvetica,sans-Serif" font-size="10.00" fill="#000000">y</text>
</g>
<!-- Node12 -->
<g id="node11" class="node">
<title>Node12</title>
<g id="a_node11"><a xlink:href="classRattletrapEngine_1_1Vec2.html" target="_top" xlink:title="Classe que modela um vetor(no sentido físico) ">
<polygon fill="#ffffff" stroke="#000000" points="225,-175.5 225,-194.5 343,-194.5 343,-175.5 225,-175.5"/>
<text text-anchor="middle" x="284" y="-182.5" font-family="Helvetica,sans-Serif" font-size="10.00" fill="#000000">RattletrapEngine::Vec2</text>
</a>
</g>
</g>
<!-- Node6&#45;&gt;Node12 -->
<g id="edge13" class="edge">
<title>Node6&#45;&gt;Node12</title>
<path fill="none" stroke="#9a32cd" stroke-dasharray="5,2" d="M27.8747,-282.4301C38.8994,-264.519 58.0362,-238.109 82,-224 125.3979,-198.4489 182.2691,-189.2129 224.6066,-186.0711"/>
<polygon fill="#9a32cd" stroke="#9a32cd" points="24.6658,-280.9816 22.6053,-291.3742 30.697,-284.5349 24.6658,-280.9816"/>
<text text-anchor="middle" x="58.5" y="-261" font-family="Helvetica,sans-Serif" font-size="10.00" fill="#000000"> x</text>
<text text-anchor="middle" x="58.5" y="-250" font-family="Helvetica,sans-Serif" font-size="10.00" fill="#000000">y</text>
</g>
<!-- Node7 -->
<g id="node6" class="node">
<title>Node7</title>
<polygon fill="#ffffff" stroke="#bfbfbf" points="82,-331 82,-361 207,-361 207,-331 82,-331"/>
<text text-anchor="start" x="90" y="-349" font-family="Helvetica,sans-Serif" font-size="10.00" fill="#000000">vector&lt; RattletrapEngine</text>
<text text-anchor="middle" x="144.5" y="-338" font-family="Helvetica,sans-Serif" font-size="10.00" fill="#000000">::Component *&gt;</text>
</g>
<!-- Node7&#45;&gt;Node5 -->
<g id="edge5" class="edge">
<title>Node7&#45;&gt;Node5</title>
<path fill="none" stroke="#9a32cd" stroke-dasharray="5,2" d="M217.125,-334.7886C265.4989,-327.3209 328.3772,-317.6142 374.3203,-310.5217"/>
<polygon fill="#9a32cd" stroke="#9a32cd" points="216.383,-331.3616 207.0341,-336.3464 217.451,-338.2796 216.383,-331.3616"/>
<text text-anchor="middle" x="284" y="-335" font-family="Helvetica,sans-Serif" font-size="10.00" fill="#000000"> components</text>
</g>
<!-- Node8&#45;&gt;Node5 -->
<g id="edge7" class="edge">
<title>Node8&#45;&gt;Node5</title>
<path fill="none" stroke="#9a32cd" stroke-dasharray="5,2" d="M213.0054,-379.453C251.7926,-372.4233 300.8341,-361.7419 343,-347 371.0561,-337.1911 401.5802,-320.9172 419.7359,-310.5868"/>
<polygon fill="#9a32cd" stroke="#9a32cd" points="212.1006,-376.0588 202.8649,-381.2504 213.3223,-382.9513 212.1006,-376.0588"/>
<text text-anchor="middle" x="284" y="-379" font-family="Helvetica,sans-Serif" font-size="10.00" fill="#000000"> box</text>
</g>
<!-- Node9 -->
<g id="node8" class="node">
<title>Node9</title>
<polygon fill="#ffffff" stroke="#bfbfbf" points="608.5,-115 608.5,-145 733.5,-145 733.5,-115 608.5,-115"/>
<text text-anchor="start" x="616.5" y="-133" font-family="Helvetica,sans-Serif" font-size="10.00" fill="#000000">vector&lt; RattletrapEngine</text>
<text text-anchor="middle" x="671" y="-122" font-family="Helvetica,sans-Serif" font-size="10.00" fill="#000000">::GameObject * &gt;</text>
</g>
<!-- Node9&#45;&gt;Node2 -->
<g id="edge9" class="edge">
<title>Node9&#45;&gt;Node2</title>
<path fill="none" stroke="#9a32cd" stroke-dasharray="5,2" d="M743.5671,-123.6898C779.8507,-120.5347 823.4178,-116.7463 858.6509,-113.6825"/>
<polygon fill="#9a32cd" stroke="#9a32cd" points="743.1985,-120.2086 733.5393,-124.5618 743.805,-127.1823 743.1985,-120.2086"/>
<text text-anchor="middle" x="801.5" y="-124" font-family="Helvetica,sans-Serif" font-size="10.00" fill="#000000"> groupedElements</text>
</g>
<!-- Node10 -->
<g id="node9" class="node">
<title>Node10</title>
<polygon fill="#ffffff" stroke="#bfbfbf" points="629.5,-76.5 629.5,-95.5 712.5,-95.5 712.5,-76.5 629.5,-76.5"/>
<text text-anchor="middle" x="671" y="-83.5" font-family="Helvetica,sans-Serif" font-size="10.00" fill="#000000">ConstraintType</text>
</g>
<!-- Node10&#45;&gt;Node2 -->
<g id="edge10" class="edge">
<title>Node10&#45;&gt;Node2</title>
<path fill="none" stroke="#9a32cd" stroke-dasharray="5,2" d="M722.6631,-90.0668C756.364,-92.7659 801.3045,-96.4526 841,-100 846.7676,-100.5154 852.7592,-101.0651 858.764,-101.6257"/>
<polygon fill="#9a32cd" stroke="#9a32cd" points="722.8302,-86.569 712.5833,-89.262 722.273,-93.5468 722.8302,-86.569"/>
<text text-anchor="middle" x="801.5" y="-103" font-family="Helvetica,sans-Serif" font-size="10.00" fill="#000000"> constraint</text>
</g>
<!-- Node11 -->
<g id="node10" class="node">
<title>Node11</title>
<polygon fill="#ffffff" stroke="#bfbfbf" points="656.5,-38.5 656.5,-57.5 685.5,-57.5 685.5,-38.5 656.5,-38.5"/>
<text text-anchor="middle" x="671" y="-45.5" font-family="Helvetica,sans-Serif" font-size="10.00" fill="#000000">int</text>
</g>
<!-- Node11&#45;&gt;Node2 -->
<g id="edge11" class="edge">
<title>Node11&#45;&gt;Node2</title>
<path fill="none" stroke="#9a32cd" stroke-dasharray="5,2" d="M695.9563,-51.034C729.3557,-55.4043 790.269,-64.4635 841,-78 861.5778,-83.4907 884.279,-91.8633 900.7311,-98.3695"/>
<polygon fill="#9a32cd" stroke="#9a32cd" points="696.1011,-47.5242 685.7388,-49.7319 695.2161,-54.468 696.1011,-47.5242"/>
<text text-anchor="middle" x="801.5" y="-81" font-family="Helvetica,sans-Serif" font-size="10.00" fill="#000000"> number</text>
</g>
<!-- Node12&#45;&gt;Node2 -->
<g id="edge12" class="edge">
<title>Node12&#45;&gt;Node2</title>
<path fill="none" stroke="#9a32cd" stroke-dasharray="5,2" d="M353.1571,-183.2535C443.3977,-180.3429 606.0658,-172.9316 744,-155 787.5638,-149.3367 798.5393,-147.2679 841,-136 860.5494,-130.8121 882.1885,-123.4572 898.4694,-117.5872"/>
<polygon fill="#9a32cd" stroke="#9a32cd" points="352.9372,-179.7586 343.0519,-183.5704 353.1567,-186.7552 352.9372,-179.7586"/>
<text text-anchor="middle" x="554.5" y="-177" font-family="Helvetica,sans-Serif" font-size="10.00" fill="#000000"> padding</text>
</g>
<!-- Node13 -->
<g id="node12" class="node">
<title>Node13</title>
<polygon fill="#ffffff" stroke="#bfbfbf" points="626.5,-.5 626.5,-19.5 715.5,-19.5 715.5,-.5 626.5,-.5"/>
<text text-anchor="middle" x="671" y="-7.5" font-family="Helvetica,sans-Serif" font-size="10.00" fill="#000000">BehaviorOnLess</text>
</g>
<!-- Node13&#45;&gt;Node2 -->
<g id="edge14" class="edge">
<title>Node13&#45;&gt;Node2</title>
<path fill="none" stroke="#9a32cd" stroke-dasharray="5,2" d="M725.889,-15.5111C760.1469,-20.413 804.512,-29.4806 841,-46 870.4932,-59.3526 899.5456,-84.58 914.196,-98.3819"/>
<polygon fill="#9a32cd" stroke="#9a32cd" points="725.9805,-11.9916 715.6016,-14.1199 725.0424,-18.9285 725.9805,-11.9916"/>
<text text-anchor="middle" x="801.5" y="-49" font-family="Helvetica,sans-Serif" font-size="10.00" fill="#000000"> behaviorOnLess</text>
</g>
</g>
</svg>
