<?xml version="1.0" encoding="UTF-8" standalone="no"?>
<!DOCTYPE svg PUBLIC "-//W3C//DTD SVG 1.1//EN"
 "http://www.w3.org/Graphics/SVG/1.1/DTD/svg11.dtd">
<!-- Generated by graphviz version 2.40.1 (20161225.0304)
 -->
<!-- Title: RattletrapEngine::Game Pages: 1 -->
<svg width="736pt" height="532pt"
 viewBox="0.00 0.00 736.00 531.50" xmlns="http://www.w3.org/2000/svg" xmlns:xlink="http://www.w3.org/1999/xlink">
<g id="graph0" class="graph" transform="scale(1 1) rotate(0) translate(4 527.5)">
<title>RattletrapEngine::Game</title>
<polygon fill="#ffffff" stroke="transparent" points="-4,4 -4,-527.5 732,-527.5 732,4 -4,4"/>
<!-- Node1 -->
<g id="node1" class="node">
<title>Node1</title>
<polygon fill="#bfbfbf" stroke="#000000" points="606,-319 606,-338 728,-338 728,-319 606,-319"/>
<text text-anchor="middle" x="667" y="-326" font-family="Helvetica,sans-Serif" font-size="10.00" fill="#000000">RattletrapEngine::Game</text>
</g>
<!-- Node1&#45;&gt;Node1 -->
<g id="edge8" class="edge">
<title>Node1&#45;&gt;Node1</title>
<path fill="none" stroke="#9a32cd" stroke-dasharray="5,2" d="M646.6306,-347.9C647.991,-352.8146 654.7808,-356.5 667,-356.5 686.5508,-356.5 692.2022,-347.0653 683.9542,-338.2571"/>
<polygon fill="#9a32cd" stroke="#9a32cd" points="650.0065,-348.8518 650.0458,-338.2571 643.4081,-346.5149 650.0065,-348.8518"/>
<text text-anchor="middle" x="667" y="-359.5" font-family="Helvetica,sans-Serif" font-size="10.00" fill="#000000"> instance</text>
</g>
<!-- Node2 -->
<g id="node2" class="node">
<title>Node2</title>
<polygon fill="#ffffff" stroke="#bfbfbf" points="386.5,-504 386.5,-523 474.5,-523 474.5,-504 386.5,-504"/>
<text text-anchor="middle" x="430.5" y="-511" font-family="Helvetica,sans-Serif" font-size="10.00" fill="#000000">SDL_Renderer *</text>
</g>
<!-- Node2&#45;&gt;Node1 -->
<g id="edge1" class="edge">
<title>Node2&#45;&gt;Node1</title>
<path fill="none" stroke="#9a32cd" stroke-dasharray="5,2" d="M485.0315,-517.2601C517.7671,-516.7797 558.6191,-511.0539 588,-489.5 640.9699,-450.6412 660.2898,-366.4655 665.4453,-338.0732"/>
<polygon fill="#9a32cd" stroke="#9a32cd" points="484.7181,-513.7598 474.713,-517.2452 484.7079,-520.7597 484.7181,-513.7598"/>
<text text-anchor="middle" x="557" y="-515.5" font-family="Helvetica,sans-Serif" font-size="10.00" fill="#000000"> renderer</text>
</g>
<!-- Node3 -->
<g id="node3" class="node">
<title>Node3</title>
<polygon fill="#ffffff" stroke="#bfbfbf" points="0,-332 0,-351 35,-351 35,-332 0,-332"/>
<text text-anchor="middle" x="17.5" y="-339" font-family="Helvetica,sans-Serif" font-size="10.00" fill="#000000">float</text>
</g>
<!-- Node3&#45;&gt;Node1 -->
<g id="edge2" class="edge">
<title>Node3&#45;&gt;Node1</title>
<path fill="none" stroke="#9a32cd" stroke-dasharray="5,2" d="M21.6401,-361.0744C28.5208,-388.0809 45.1533,-435.7779 80,-456.5 128.8965,-485.577 151.207,-459.8017 208,-456.5 378.0002,-446.6168 436.9028,-486.0326 588,-407.5 620.7,-390.5042 648.3775,-355.22 660.4752,-338.1563"/>
<polygon fill="#9a32cd" stroke="#9a32cd" points="25.0189,-360.1522 19.3293,-351.2147 18.2035,-361.7496 25.0189,-360.1522"/>
<text text-anchor="middle" x="280.5" y="-469.5" font-family="Helvetica,sans-Serif" font-size="10.00" fill="#000000"> frameDuration</text>
<text text-anchor="middle" x="280.5" y="-458.5" font-family="Helvetica,sans-Serif" font-size="10.00" fill="#000000">dt</text>
</g>
<!-- Node10 -->
<g id="node10" class="node">
<title>Node10</title>
<g id="a_node10"><a xlink:href="classRattletrapEngine_1_1Vec2.html" target="_top" xlink:title="Classe que modela um vetor(no sentido físico) ">
<polygon fill="#ffffff" stroke="#000000" points="85,-173 85,-192 203,-192 203,-173 85,-173"/>
<text text-anchor="middle" x="144" y="-180" font-family="Helvetica,sans-Serif" font-size="10.00" fill="#000000">RattletrapEngine::Vec2</text>
</a>
</g>
</g>
<!-- Node3&#45;&gt;Node10 -->
<g id="edge14" class="edge">
<title>Node3&#45;&gt;Node10</title>
<path fill="none" stroke="#9a32cd" stroke-dasharray="5,2" d="M28.5211,-323.428C40.4022,-304.4118 60.2746,-273.9118 80,-249.5 97.5913,-227.7293 120.8358,-204.6008 133.922,-192.0178"/>
<polygon fill="#9a32cd" stroke="#9a32cd" points="25.5043,-321.652 23.2228,-331.9982 31.4583,-325.3329 25.5043,-321.652"/>
<text text-anchor="middle" x="57.5" y="-297.5" font-family="Helvetica,sans-Serif" font-size="10.00" fill="#000000"> x</text>
<text text-anchor="middle" x="57.5" y="-286.5" font-family="Helvetica,sans-Serif" font-size="10.00" fill="#000000">y</text>
</g>
<!-- Node4 -->
<g id="node4" class="node">
<title>Node4</title>
<g id="a_node4"><a xlink:href="classRattletrapEngine_1_1State.html" target="_top" xlink:title="Classe virtual que modela um estado do jogo. ">
<polygon fill="#ffffff" stroke="#000000" points="371,-393 371,-412 490,-412 490,-393 371,-393"/>
<text text-anchor="middle" x="430.5" y="-400" font-family="Helvetica,sans-Serif" font-size="10.00" fill="#000000">RattletrapEngine::State</text>
</a>
</g>
</g>
<!-- Node4&#45;&gt;Node1 -->
<g id="edge3" class="edge">
<title>Node4&#45;&gt;Node1</title>
<path fill="none" stroke="#9a32cd" stroke-dasharray="5,2" d="M500.3383,-397.4403C528.2415,-393.8816 560.2689,-387.821 588,-377.5 613.7136,-367.9299 640.1137,-349.4621 654.9493,-338.1341"/>
<polygon fill="#9a32cd" stroke="#9a32cd" points="499.7759,-393.9824 490.2604,-398.6414 500.6044,-400.9333 499.7759,-393.9824"/>
<text text-anchor="middle" x="557" y="-395.5" font-family="Helvetica,sans-Serif" font-size="10.00" fill="#000000"> storedState</text>
</g>
<!-- Node5 -->
<g id="node5" class="node">
<title>Node5</title>
<polygon fill="#ffffff" stroke="#bfbfbf" points="126.5,-354 126.5,-373 161.5,-373 161.5,-354 126.5,-354"/>
<text text-anchor="middle" x="144" y="-361" font-family="Helvetica,sans-Serif" font-size="10.00" fill="#000000">bool</text>
</g>
<!-- Node5&#45;&gt;Node1 -->
<g id="edge7" class="edge">
<title>Node5&#45;&gt;Node1</title>
<path fill="none" stroke="#9a32cd" stroke-dasharray="5,2" d="M172.153,-361.616C253.8013,-356.1519 492.0686,-340.2067 605.5428,-332.6128"/>
<polygon fill="#9a32cd" stroke="#9a32cd" points="171.4448,-358.1554 161.7008,-362.3154 171.9122,-365.1398 171.4448,-358.1554"/>
<text text-anchor="middle" x="430.5" y="-351.5" font-family="Helvetica,sans-Serif" font-size="10.00" fill="#000000"> capFramerate</text>
</g>
<!-- Node5&#45;&gt;Node4 -->
<g id="edge4" class="edge">
<title>Node5&#45;&gt;Node4</title>
<path fill="none" stroke="#9a32cd" stroke-dasharray="5,2" d="M172.0155,-367.3136C217.851,-373.553 309.8576,-386.0775 370.8175,-394.3757"/>
<polygon fill="#9a32cd" stroke="#9a32cd" points="172.3026,-363.8205 161.9219,-365.9396 171.3584,-370.7565 172.3026,-363.8205"/>
<text text-anchor="middle" x="280.5" y="-402.5" font-family="Helvetica,sans-Serif" font-size="10.00" fill="#000000"> quitRequested</text>
<text text-anchor="middle" x="280.5" y="-391.5" font-family="Helvetica,sans-Serif" font-size="10.00" fill="#000000">popRequested</text>
</g>
<!-- Node9 -->
<g id="node9" class="node">
<title>Node9</title>
<g id="a_node9"><a xlink:href="classRattletrapEngine_1_1InputManager.html" target="_top" xlink:title="Classe que organiza entradas do usuário. ">
<polygon fill="#ffffff" stroke="#000000" points="353,-163 353,-182 508,-182 508,-163 353,-163"/>
<text text-anchor="middle" x="430.5" y="-170" font-family="Helvetica,sans-Serif" font-size="10.00" fill="#000000">RattletrapEngine::InputManager</text>
</a>
</g>
</g>
<!-- Node5&#45;&gt;Node9 -->
<g id="edge12" class="edge">
<title>Node5&#45;&gt;Node9</title>
<path fill="none" stroke="#9a32cd" stroke-dasharray="5,2" d="M170.8031,-351.4904C186.7792,-344.3927 207.4896,-335.2972 226,-327.5 274.1454,-307.2194 301.0105,-323.1737 335,-283.5 357.8656,-256.8106 330.5341,-233.5267 353,-206.5 362.58,-194.9752 376.8292,-187.2366 390.5061,-182.0967"/>
<polygon fill="#9a32cd" stroke="#9a32cd" points="169.2394,-348.3553 161.5294,-355.6221 172.0883,-354.7494 169.2394,-348.3553"/>
<text text-anchor="middle" x="280.5" y="-341.5" font-family="Helvetica,sans-Serif" font-size="10.00" fill="#000000"> quitRequested</text>
<text text-anchor="middle" x="280.5" y="-330.5" font-family="Helvetica,sans-Serif" font-size="10.00" fill="#000000">mouseState</text>
</g>
<!-- Node6 -->
<g id="node6" class="node">
<title>Node6</title>
<polygon fill="#ffffff" stroke="#bfbfbf" points="86.5,-406 86.5,-447 201.5,-447 201.5,-406 86.5,-406"/>
<text text-anchor="start" x="94.5" y="-435" font-family="Helvetica,sans-Serif" font-size="10.00" fill="#000000">vector&lt; std::unique</text>
<text text-anchor="start" x="94.5" y="-424" font-family="Helvetica,sans-Serif" font-size="10.00" fill="#000000">_ptr&lt; RattletrapEngine</text>
<text text-anchor="middle" x="144" y="-413" font-family="Helvetica,sans-Serif" font-size="10.00" fill="#000000">::GameObject &gt; &gt;</text>
</g>
<!-- Node6&#45;&gt;Node4 -->
<g id="edge5" class="edge">
<title>Node6&#45;&gt;Node4</title>
<path fill="none" stroke="#9a32cd" stroke-dasharray="5,2" d="M211.8767,-426.3113C248.4433,-425.6312 294.2855,-423.8484 335,-419.5 351.2429,-417.7652 368.8877,-414.9044 384.5399,-412.0199"/>
<polygon fill="#9a32cd" stroke="#9a32cd" points="211.7626,-422.8126 201.821,-426.4752 211.8767,-429.8117 211.7626,-422.8126"/>
<text text-anchor="middle" x="280.5" y="-428.5" font-family="Helvetica,sans-Serif" font-size="10.00" fill="#000000"> objectArray</text>
</g>
<!-- Node7 -->
<g id="node7" class="node">
<title>Node7</title>
<polygon fill="#ffffff" stroke="#bfbfbf" points="129.5,-259 129.5,-278 158.5,-278 158.5,-259 129.5,-259"/>
<text text-anchor="middle" x="144" y="-266" font-family="Helvetica,sans-Serif" font-size="10.00" fill="#000000">int</text>
</g>
<!-- Node7&#45;&gt;Node1 -->
<g id="edge6" class="edge">
<title>Node7&#45;&gt;Node1</title>
<path fill="none" stroke="#9a32cd" stroke-dasharray="5,2" d="M168.7858,-271.9739C185.0426,-274.2156 206.7711,-277.1423 226,-279.5 361.5272,-296.1174 520.7937,-313.2139 605.9553,-322.1598"/>
<polygon fill="#9a32cd" stroke="#9a32cd" points="168.8896,-268.4548 158.5033,-270.5468 167.9272,-275.3883 168.8896,-268.4548"/>
<text text-anchor="middle" x="430.5" y="-324.5" font-family="Helvetica,sans-Serif" font-size="10.00" fill="#000000"> frameStart</text>
<text text-anchor="middle" x="430.5" y="-313.5" font-family="Helvetica,sans-Serif" font-size="10.00" fill="#000000">maxFramerate</text>
</g>
<!-- Node7&#45;&gt;Node9 -->
<g id="edge11" class="edge">
<title>Node7&#45;&gt;Node9</title>
<path fill="none" stroke="#9a32cd" stroke-dasharray="5,2" d="M163.0732,-252.5101C178.9406,-240.0284 202.6316,-223.2244 226,-213.5 233.1563,-210.522 322.2495,-193.1812 380.4547,-182.0261"/>
<polygon fill="#9a32cd" stroke="#9a32cd" points="160.7024,-249.9257 155.1147,-258.9272 165.0963,-255.3749 160.7024,-249.9257"/>
<text text-anchor="middle" x="280.5" y="-271.5" font-family="Helvetica,sans-Serif" font-size="10.00" fill="#000000"> mouseX</text>
<text text-anchor="middle" x="280.5" y="-260.5" font-family="Helvetica,sans-Serif" font-size="10.00" fill="#000000">mouseY</text>
<text text-anchor="middle" x="280.5" y="-249.5" font-family="Helvetica,sans-Serif" font-size="10.00" fill="#000000">controllerStickUpdate</text>
<text text-anchor="middle" x="280.5" y="-238.5" font-family="Helvetica,sans-Serif" font-size="10.00" fill="#000000">mouseScroolUpdate</text>
<text text-anchor="middle" x="280.5" y="-227.5" font-family="Helvetica,sans-Serif" font-size="10.00" fill="#000000">updateCounter</text>
<text text-anchor="middle" x="280.5" y="-216.5" font-family="Helvetica,sans-Serif" font-size="10.00" fill="#000000">mouseUpdate</text>
</g>
<!-- Node8 -->
<g id="node8" class="node">
<title>Node8</title>
<polygon fill="#ffffff" stroke="#bfbfbf" points="373,-216 373,-257 488,-257 488,-216 373,-216"/>
<text text-anchor="start" x="381" y="-245" font-family="Helvetica,sans-Serif" font-size="10.00" fill="#000000">stack&lt; std::unique</text>
<text text-anchor="start" x="381" y="-234" font-family="Helvetica,sans-Serif" font-size="10.00" fill="#000000">_ptr&lt; RattletrapEngine</text>
<text text-anchor="middle" x="430.5" y="-223" font-family="Helvetica,sans-Serif" font-size="10.00" fill="#000000">::State &gt; &gt;</text>
</g>
<!-- Node8&#45;&gt;Node1 -->
<g id="edge9" class="edge">
<title>Node8&#45;&gt;Node1</title>
<path fill="none" stroke="#9a32cd" stroke-dasharray="5,2" d="M498.0977,-243.4442C526.7412,-248.0908 559.9171,-255.7902 588,-268.5 615.9289,-281.1401 643.2125,-305.2101 657.2456,-318.7044"/>
<polygon fill="#9a32cd" stroke="#9a32cd" points="498.5855,-239.9782 488.171,-241.9247 497.5263,-246.8976 498.5855,-239.9782"/>
<text text-anchor="middle" x="557" y="-271.5" font-family="Helvetica,sans-Serif" font-size="10.00" fill="#000000"> stateStack</text>
</g>
<!-- Node9&#45;&gt;Node1 -->
<g id="edge10" class="edge">
<title>Node9&#45;&gt;Node1</title>
<path fill="none" stroke="#9a32cd" stroke-dasharray="5,2" d="M479.5577,-184.9348C512.3209,-194.8217 555.2443,-210.9442 588,-234.5 621.5754,-258.6453 649.6312,-300.1777 661.2514,-318.8787"/>
<polygon fill="#9a32cd" stroke="#9a32cd" points="480.3189,-181.5109 469.7385,-182.0654 478.3553,-188.2299 480.3189,-181.5109"/>
<text text-anchor="middle" x="557" y="-237.5" font-family="Helvetica,sans-Serif" font-size="10.00" fill="#000000"> inputManager</text>
</g>
<!-- Node10&#45;&gt;Node9 -->
<g id="edge13" class="edge">
<title>Node10&#45;&gt;Node9</title>
<path fill="none" stroke="#9a32cd" stroke-dasharray="5,2" d="M178.2401,-169.5864C192.7468,-164.7676 209.9731,-159.8888 226,-157.5 278.9909,-149.6016 340.3544,-156.1742 381.9317,-162.9329"/>
<polygon fill="#9a32cd" stroke="#9a32cd" points="176.9934,-166.3139 168.6797,-172.8815 179.2744,-172.9319 176.9934,-166.3139"/>
<text text-anchor="middle" x="280.5" y="-182.5" font-family="Helvetica,sans-Serif" font-size="10.00" fill="#000000"> controllerLeftStickState</text>
<text text-anchor="middle" x="280.5" y="-171.5" font-family="Helvetica,sans-Serif" font-size="10.00" fill="#000000">controllerRightStickState</text>
<text text-anchor="middle" x="280.5" y="-160.5" font-family="Helvetica,sans-Serif" font-size="10.00" fill="#000000">mouseScroolState</text>
</g>
<!-- Node11 -->
<g id="node11" class="node">
<title>Node11</title>
<polygon fill="#ffffff" stroke="#bfbfbf" points="91,-98.5 91,-128.5 197,-128.5 197,-98.5 91,-98.5"/>
<text text-anchor="start" x="99" y="-116.5" font-family="Helvetica,sans-Serif" font-size="10.00" fill="#000000">unordered_map&lt; int,</text>
<text text-anchor="middle" x="144" y="-105.5" font-family="Helvetica,sans-Serif" font-size="10.00" fill="#000000"> int &gt;</text>
</g>
<!-- Node11&#45;&gt;Node9 -->
<g id="edge15" class="edge">
<title>Node11&#45;&gt;Node9</title>
<path fill="none" stroke="#9a32cd" stroke-dasharray="5,2" d="M207.52,-105.5203C246.6656,-103.6206 296.5495,-106.8623 335,-128.5 346.9319,-135.2146 341.6507,-145.8417 353,-153.5 358.7417,-157.3744 365.197,-160.4601 371.868,-162.9175"/>
<polygon fill="#9a32cd" stroke="#9a32cd" points="207.0672,-102.0413 197.2987,-106.1433 207.4932,-109.0284 207.0672,-102.0413"/>
<text text-anchor="middle" x="280.5" y="-142.5" font-family="Helvetica,sans-Serif" font-size="10.00" fill="#000000"> controllerUpdate</text>
<text text-anchor="middle" x="280.5" y="-131.5" font-family="Helvetica,sans-Serif" font-size="10.00" fill="#000000">keyUpdate</text>
</g>
<!-- Node12 -->
<g id="node12" class="node">
<title>Node12</title>
<polygon fill="#ffffff" stroke="#bfbfbf" points="91,-49.5 91,-79.5 197,-79.5 197,-49.5 91,-49.5"/>
<text text-anchor="start" x="99" y="-67.5" font-family="Helvetica,sans-Serif" font-size="10.00" fill="#000000">unordered_map&lt; int,</text>
<text text-anchor="middle" x="144" y="-56.5" font-family="Helvetica,sans-Serif" font-size="10.00" fill="#000000"> bool &gt;</text>
</g>
<!-- Node12&#45;&gt;Node9 -->
<g id="edge16" class="edge">
<title>Node12&#45;&gt;Node9</title>
<path fill="none" stroke="#9a32cd" stroke-dasharray="5,2" d="M207.4588,-52.0086C248.4702,-47.76 300.4451,-50.0815 335,-79.5 360.7728,-101.4418 329.0876,-129.5443 353,-153.5 356.8169,-157.3238 361.2695,-160.4235 366.0755,-162.931"/>
<polygon fill="#9a32cd" stroke="#9a32cd" points="206.8026,-48.5618 197.2857,-53.2178 207.6289,-55.5129 206.8026,-48.5618"/>
<text text-anchor="middle" x="280.5" y="-93.5" font-family="Helvetica,sans-Serif" font-size="10.00" fill="#000000"> keyState</text>
<text text-anchor="middle" x="280.5" y="-82.5" font-family="Helvetica,sans-Serif" font-size="10.00" fill="#000000">controllerState</text>
</g>
<!-- Node13 -->
<g id="node13" class="node">
<title>Node13</title>
<polygon fill="#ffffff" stroke="#bfbfbf" points="80,-.5 80,-30.5 208,-30.5 208,-.5 80,-.5"/>
<text text-anchor="start" x="88" y="-18.5" font-family="Helvetica,sans-Serif" font-size="10.00" fill="#000000">unordered_map&lt; int,</text>
<text text-anchor="middle" x="144" y="-7.5" font-family="Helvetica,sans-Serif" font-size="10.00" fill="#000000"> SDL_GameController * &gt;</text>
</g>
<!-- Node13&#45;&gt;Node9 -->
<g id="edge17" class="edge">
<title>Node13&#45;&gt;Node9</title>
<path fill="none" stroke="#9a32cd" stroke-dasharray="5,2" d="M218.1957,-3.302C257.8381,-1.201 304.5972,-6.4948 335,-35.5 373.3847,-72.1201 317.194,-114.3548 353,-153.5 356.4595,-157.2822 360.538,-160.3679 364.9841,-162.8796"/>
<polygon fill="#9a32cd" stroke="#9a32cd" points="217.7542,.1759 208.0204,-4.008 218.2387,-6.8074 217.7542,.1759"/>
<text text-anchor="middle" x="280.5" y="-38.5" font-family="Helvetica,sans-Serif" font-size="10.00" fill="#000000"> padToController</text>
</g>
<!-- Node14 -->
<g id="node14" class="node">
<title>Node14</title>
<polygon fill="#ffffff" stroke="#bfbfbf" points="389,-125 389,-144 472,-144 472,-125 389,-125"/>
<text text-anchor="middle" x="430.5" y="-132" font-family="Helvetica,sans-Serif" font-size="10.00" fill="#000000">SDL_Window *</text>
</g>
<!-- Node14&#45;&gt;Node1 -->
<g id="edge18" class="edge">
<title>Node14&#45;&gt;Node1</title>
<path fill="none" stroke="#9a32cd" stroke-dasharray="5,2" d="M482.303,-140.8492C515.8766,-147.3433 558.6597,-160.3921 588,-186.5 631.4154,-225.1323 656.1134,-293.5389 664.1049,-318.7865"/>
<polygon fill="#9a32cd" stroke="#9a32cd" points="482.6653,-137.3584 472.2043,-139.037 481.4289,-144.2483 482.6653,-137.3584"/>
<text text-anchor="middle" x="557" y="-189.5" font-family="Helvetica,sans-Serif" font-size="10.00" fill="#000000"> window</text>
</g>
</g>
</svg>
