<?xml version="1.0" encoding="UTF-8" standalone="no"?>
<!DOCTYPE svg PUBLIC "-//W3C//DTD SVG 1.1//EN"
 "http://www.w3.org/Graphics/SVG/1.1/DTD/svg11.dtd">
<!-- Generated by graphviz version 2.40.1 (20161225.0304)
 -->
<!-- Title: RattletrapEngine::TileSet Pages: 1 -->
<svg width="947pt" height="294pt"
 viewBox="0.00 0.00 947.00 293.50" xmlns="http://www.w3.org/2000/svg" xmlns:xlink="http://www.w3.org/1999/xlink">
<g id="graph0" class="graph" transform="scale(1 1) rotate(0) translate(4 289.5)">
<title>RattletrapEngine::TileSet</title>
<polygon fill="#ffffff" stroke="transparent" points="-4,4 -4,-289.5 943,-289.5 943,4 -4,4"/>
<!-- Node2 -->
<g id="node1" class="node">
<title>Node2</title>
<polygon fill="#bfbfbf" stroke="#000000" points="813,-50 813,-69 939,-69 939,-50 813,-50"/>
<text text-anchor="middle" x="876" y="-57" font-family="Helvetica,sans-Serif" font-size="10.00" fill="#000000">RattletrapEngine::TileSet</text>
</g>
<!-- Node3 -->
<g id="node2" class="node">
<title>Node3</title>
<g id="a_node2"><a xlink:href="classRattletrapEngine_1_1Component.html" target="_top" xlink:title="Modela os componentes. ">
<polygon fill="#ffffff" stroke="#000000" points="598,-96 598,-115 744,-115 744,-96 598,-96"/>
<text text-anchor="middle" x="671" y="-103" font-family="Helvetica,sans-Serif" font-size="10.00" fill="#000000">RattletrapEngine::Component</text>
</a>
</g>
</g>
<!-- Node3&#45;&gt;Node2 -->
<g id="edge1" class="edge">
<title>Node3&#45;&gt;Node2</title>
<path fill="none" stroke="#191970" d="M723.2907,-93.7665C757.4811,-86.0945 801.5699,-76.2014 833.5783,-69.019"/>
<polygon fill="#191970" stroke="#191970" points="722.4672,-90.3642 713.4761,-95.9688 723.9998,-97.1943 722.4672,-90.3642"/>
</g>
<!-- Node4 -->
<g id="node3" class="node">
<title>Node4</title>
<polygon fill="#ffffff" stroke="#bfbfbf" points="127,-119 127,-138 162,-138 162,-119 127,-119"/>
<text text-anchor="middle" x="144.5" y="-126" font-family="Helvetica,sans-Serif" font-size="10.00" fill="#000000">bool</text>
</g>
<!-- Node4&#45;&gt;Node3 -->
<g id="edge2" class="edge">
<title>Node4&#45;&gt;Node3</title>
<path fill="none" stroke="#9a32cd" stroke-dasharray="5,2" d="M172.0773,-126.1958C187.6128,-124.9602 207.3785,-123.4922 225,-122.5 356.3258,-115.1055 509.5896,-110.0427 597.9562,-107.4707"/>
<polygon fill="#9a32cd" stroke="#9a32cd" points="171.761,-122.7099 162.076,-127.0054 172.3258,-129.6871 171.761,-122.7099"/>
<text text-anchor="middle" x="436" y="-130.5" font-family="Helvetica,sans-Serif" font-size="10.00" fill="#000000"> newEnabled</text>
<text text-anchor="middle" x="436" y="-119.5" font-family="Helvetica,sans-Serif" font-size="10.00" fill="#000000">enabled</text>
</g>
<!-- Node5 -->
<g id="node4" class="node">
<title>Node5</title>
<g id="a_node4"><a xlink:href="classRattletrapEngine_1_1GameObject.html" target="_top" xlink:title="Classe virtual que especifica o funcionamento de um GameObject. ">
<polygon fill="#ffffff" stroke="#000000" points="361,-177 361,-196 511,-196 511,-177 361,-177"/>
<text text-anchor="middle" x="436" y="-184" font-family="Helvetica,sans-Serif" font-size="10.00" fill="#000000">RattletrapEngine::GameObject</text>
</a>
</g>
</g>
<!-- Node4&#45;&gt;Node5 -->
<g id="edge6" class="edge">
<title>Node4&#45;&gt;Node5</title>
<path fill="none" stroke="#9a32cd" stroke-dasharray="5,2" d="M172.1666,-126.508C211.0455,-124.4957 283.7265,-123.6273 343,-139.5 372.7073,-147.4553 403.9706,-165.571 421.6231,-176.8447"/>
<polygon fill="#9a32cd" stroke="#9a32cd" points="171.9155,-123.0166 162.1363,-127.0929 172.3231,-130.0047 171.9155,-123.0166"/>
<text text-anchor="middle" x="284" y="-164.5" font-family="Helvetica,sans-Serif" font-size="10.00" fill="#000000"> dead</text>
<text text-anchor="middle" x="284" y="-153.5" font-family="Helvetica,sans-Serif" font-size="10.00" fill="#000000">active</text>
<text text-anchor="middle" x="284" y="-142.5" font-family="Helvetica,sans-Serif" font-size="10.00" fill="#000000">newActive</text>
</g>
<!-- Node5&#45;&gt;Node3 -->
<g id="edge3" class="edge">
<title>Node5&#45;&gt;Node3</title>
<path fill="none" stroke="#9a32cd" stroke-dasharray="5,2" d="M473.4421,-173.5944C520.7153,-157.3003 600.9532,-129.6438 643.1559,-115.0973"/>
<polygon fill="#9a32cd" stroke="#9a32cd" points="472.194,-170.3225 463.8804,-176.8902 474.4751,-176.9404 472.194,-170.3225"/>
<text text-anchor="middle" x="554.5" y="-156.5" font-family="Helvetica,sans-Serif" font-size="10.00" fill="#000000"> associated</text>
</g>
<!-- Node6 -->
<g id="node5" class="node">
<title>Node6</title>
<polygon fill="#ffffff" stroke="#bfbfbf" points="0,-177 0,-196 35,-196 35,-177 0,-177"/>
<text text-anchor="middle" x="17.5" y="-184" font-family="Helvetica,sans-Serif" font-size="10.00" fill="#000000">float</text>
</g>
<!-- Node6&#45;&gt;Node5 -->
<g id="edge4" class="edge">
<title>Node6&#45;&gt;Node5</title>
<path fill="none" stroke="#9a32cd" stroke-dasharray="5,2" d="M45.256,-186.5C108.7278,-186.5 266.2667,-186.5 360.7898,-186.5"/>
<polygon fill="#9a32cd" stroke="#9a32cd" points="45.2152,-183.0001 35.2151,-186.5 45.2151,-190.0001 45.2152,-183.0001"/>
<text text-anchor="middle" x="144.5" y="-189.5" font-family="Helvetica,sans-Serif" font-size="10.00" fill="#000000"> rotation</text>
</g>
<!-- Node8 -->
<g id="node7" class="node">
<title>Node8</title>
<g id="a_node7"><a xlink:href="classRattletrapEngine_1_1Rect.html" target="_top" xlink:title="Classe que modela um rect. ">
<polygon fill="#ffffff" stroke="#000000" points="86.5,-266 86.5,-285 202.5,-285 202.5,-266 86.5,-266"/>
<text text-anchor="middle" x="144.5" y="-273" font-family="Helvetica,sans-Serif" font-size="10.00" fill="#000000">RattletrapEngine::Rect</text>
</a>
</g>
</g>
<!-- Node6&#45;&gt;Node8 -->
<g id="edge8" class="edge">
<title>Node6&#45;&gt;Node8</title>
<path fill="none" stroke="#9a32cd" stroke-dasharray="5,2" d="M29.8373,-204.5953C41.5306,-220.4394 60.474,-242.9834 82,-256.5 88.1469,-260.3598 95.1266,-263.4771 102.1385,-265.9821"/>
<polygon fill="#9a32cd" stroke="#9a32cd" points="32.4794,-202.2719 23.8255,-196.1596 26.7789,-206.3345 32.4794,-202.2719"/>
<text text-anchor="middle" x="58.5" y="-277.5" font-family="Helvetica,sans-Serif" font-size="10.00" fill="#000000"> w</text>
<text text-anchor="middle" x="58.5" y="-266.5" font-family="Helvetica,sans-Serif" font-size="10.00" fill="#000000">x</text>
<text text-anchor="middle" x="58.5" y="-255.5" font-family="Helvetica,sans-Serif" font-size="10.00" fill="#000000">h</text>
<text text-anchor="middle" x="58.5" y="-244.5" font-family="Helvetica,sans-Serif" font-size="10.00" fill="#000000">y</text>
</g>
<!-- Node10 -->
<g id="node9" class="node">
<title>Node10</title>
<g id="a_node9"><a xlink:href="classRattletrapEngine_1_1Vec2.html" target="_top" xlink:title="Classe que modela um vetor(no sentido físico) ">
<polygon fill="#ffffff" stroke="#000000" points="225,-61 225,-80 343,-80 343,-61 225,-61"/>
<text text-anchor="middle" x="284" y="-68" font-family="Helvetica,sans-Serif" font-size="10.00" fill="#000000">RattletrapEngine::Vec2</text>
</a>
</g>
</g>
<!-- Node6&#45;&gt;Node10 -->
<g id="edge11" class="edge">
<title>Node6&#45;&gt;Node10</title>
<path fill="none" stroke="#9a32cd" stroke-dasharray="5,2" d="M27.8747,-167.9301C38.8994,-150.019 58.0362,-123.609 82,-109.5 125.3979,-83.9489 182.2691,-74.7129 224.6066,-71.5711"/>
<polygon fill="#9a32cd" stroke="#9a32cd" points="24.6658,-166.4816 22.6053,-176.8742 30.697,-170.0349 24.6658,-166.4816"/>
<text text-anchor="middle" x="58.5" y="-147.5" font-family="Helvetica,sans-Serif" font-size="10.00" fill="#000000"> x</text>
<text text-anchor="middle" x="58.5" y="-136.5" font-family="Helvetica,sans-Serif" font-size="10.00" fill="#000000">y</text>
</g>
<!-- Node7 -->
<g id="node6" class="node">
<title>Node7</title>
<polygon fill="#ffffff" stroke="#bfbfbf" points="82,-216.5 82,-246.5 207,-246.5 207,-216.5 82,-216.5"/>
<text text-anchor="start" x="90" y="-234.5" font-family="Helvetica,sans-Serif" font-size="10.00" fill="#000000">vector&lt; RattletrapEngine</text>
<text text-anchor="middle" x="144.5" y="-223.5" font-family="Helvetica,sans-Serif" font-size="10.00" fill="#000000">::Component *&gt;</text>
</g>
<!-- Node7&#45;&gt;Node5 -->
<g id="edge5" class="edge">
<title>Node7&#45;&gt;Node5</title>
<path fill="none" stroke="#9a32cd" stroke-dasharray="5,2" d="M217.125,-220.2886C265.4989,-212.8209 328.3772,-203.1142 374.3203,-196.0217"/>
<polygon fill="#9a32cd" stroke="#9a32cd" points="216.383,-216.8616 207.0341,-221.8464 217.451,-223.7796 216.383,-216.8616"/>
<text text-anchor="middle" x="284" y="-220.5" font-family="Helvetica,sans-Serif" font-size="10.00" fill="#000000"> components</text>
</g>
<!-- Node8&#45;&gt;Node5 -->
<g id="edge7" class="edge">
<title>Node8&#45;&gt;Node5</title>
<path fill="none" stroke="#9a32cd" stroke-dasharray="5,2" d="M213.0054,-264.953C251.7926,-257.9233 300.8341,-247.2419 343,-232.5 371.0561,-222.6911 401.5802,-206.4172 419.7359,-196.0868"/>
<polygon fill="#9a32cd" stroke="#9a32cd" points="212.1006,-261.5588 202.8649,-266.7504 213.3223,-268.4513 212.1006,-261.5588"/>
<text text-anchor="middle" x="284" y="-264.5" font-family="Helvetica,sans-Serif" font-size="10.00" fill="#000000"> box</text>
</g>
<!-- Node9 -->
<g id="node8" class="node">
<title>Node9</title>
<polygon fill="#ffffff" stroke="#bfbfbf" points="608.5,-.5 608.5,-30.5 733.5,-30.5 733.5,-.5 608.5,-.5"/>
<text text-anchor="start" x="616.5" y="-18.5" font-family="Helvetica,sans-Serif" font-size="10.00" fill="#000000">vector&lt; RattletrapEngine</text>
<text text-anchor="middle" x="671" y="-7.5" font-family="Helvetica,sans-Serif" font-size="10.00" fill="#000000">::Sprite &gt;</text>
</g>
<!-- Node9&#45;&gt;Node2 -->
<g id="edge9" class="edge">
<title>Node9&#45;&gt;Node2</title>
<path fill="none" stroke="#9a32cd" stroke-dasharray="5,2" d="M744.1108,-24.8711C760.9178,-27.5315 778.6522,-30.7463 795,-34.5 813.0732,-38.6499 832.9777,-44.771 848.5326,-49.9175"/>
<polygon fill="#9a32cd" stroke="#9a32cd" points="744.2018,-21.3442 733.7865,-23.2864 743.1398,-28.2631 744.2018,-21.3442"/>
<text text-anchor="middle" x="778.5" y="-37.5" font-family="Helvetica,sans-Serif" font-size="10.00" fill="#000000"> sprites</text>
</g>
<!-- Node10&#45;&gt;Node2 -->
<g id="edge10" class="edge">
<title>Node10&#45;&gt;Node2</title>
<path fill="none" stroke="#9a32cd" stroke-dasharray="5,2" d="M353.387,-69.2107C469.456,-67.054 701.2288,-62.7474 812.9354,-60.6718"/>
<polygon fill="#9a32cd" stroke="#9a32cd" points="353.1336,-65.7147 343.2004,-69.4 353.2637,-72.7135 353.1336,-65.7147"/>
<text text-anchor="middle" x="554.5" y="-69.5" font-family="Helvetica,sans-Serif" font-size="10.00" fill="#000000"> tileSize</text>
</g>
</g>
</svg>
