<?xml version="1.0" encoding="UTF-8" standalone="no"?>
<!DOCTYPE svg PUBLIC "-//W3C//DTD SVG 1.1//EN"
 "http://www.w3.org/Graphics/SVG/1.1/DTD/svg11.dtd">
<!-- Generated by graphviz version 2.40.1 (20161225.0304)
 -->
<!-- Title: RattletrapEngine::InputManager Pages: 1 -->
<svg width="516pt" height="334pt"
 viewBox="0.00 0.00 516.00 333.50" xmlns="http://www.w3.org/2000/svg" xmlns:xlink="http://www.w3.org/1999/xlink">
<g id="graph0" class="graph" transform="scale(1 1) rotate(0) translate(4 329.5)">
<title>RattletrapEngine::InputManager</title>
<polygon fill="#ffffff" stroke="transparent" points="-4,4 -4,-329.5 512,-329.5 512,4 -4,4"/>
<!-- Node1 -->
<g id="node1" class="node">
<title>Node1</title>
<polygon fill="#bfbfbf" stroke="#000000" points="353,-125 353,-144 508,-144 508,-125 353,-125"/>
<text text-anchor="middle" x="430.5" y="-132" font-family="Helvetica,sans-Serif" font-size="10.00" fill="#000000">RattletrapEngine::InputManager</text>
</g>
<!-- Node2 -->
<g id="node2" class="node">
<title>Node2</title>
<polygon fill="#ffffff" stroke="#bfbfbf" points="129.5,-249 129.5,-268 158.5,-268 158.5,-249 129.5,-249"/>
<text text-anchor="middle" x="144" y="-256" font-family="Helvetica,sans-Serif" font-size="10.00" fill="#000000">int</text>
</g>
<!-- Node2&#45;&gt;Node1 -->
<g id="edge1" class="edge">
<title>Node2&#45;&gt;Node1</title>
<path fill="none" stroke="#9a32cd" stroke-dasharray="5,2" d="M169.0156,-260.5026C207.0332,-262.4528 280.6703,-261.8728 335,-234.5 377.449,-213.113 411.3634,-164.9884 424.5518,-144.2798"/>
<polygon fill="#9a32cd" stroke="#9a32cd" points="169.0481,-256.9981 158.8512,-259.8745 168.6162,-263.9847 169.0481,-256.9981"/>
<text text-anchor="middle" x="280.5" y="-317.5" font-family="Helvetica,sans-Serif" font-size="10.00" fill="#000000"> mouseX</text>
<text text-anchor="middle" x="280.5" y="-306.5" font-family="Helvetica,sans-Serif" font-size="10.00" fill="#000000">mouseY</text>
<text text-anchor="middle" x="280.5" y="-295.5" font-family="Helvetica,sans-Serif" font-size="10.00" fill="#000000">controllerStickUpdate</text>
<text text-anchor="middle" x="280.5" y="-284.5" font-family="Helvetica,sans-Serif" font-size="10.00" fill="#000000">mouseScroolUpdate</text>
<text text-anchor="middle" x="280.5" y="-273.5" font-family="Helvetica,sans-Serif" font-size="10.00" fill="#000000">updateCounter</text>
<text text-anchor="middle" x="280.5" y="-262.5" font-family="Helvetica,sans-Serif" font-size="10.00" fill="#000000">mouseUpdate</text>
</g>
<!-- Node3 -->
<g id="node3" class="node">
<title>Node3</title>
<polygon fill="#ffffff" stroke="#bfbfbf" points="126.5,-204 126.5,-223 161.5,-223 161.5,-204 126.5,-204"/>
<text text-anchor="middle" x="144" y="-211" font-family="Helvetica,sans-Serif" font-size="10.00" fill="#000000">bool</text>
</g>
<!-- Node3&#45;&gt;Node1 -->
<g id="edge2" class="edge">
<title>Node3&#45;&gt;Node1</title>
<path fill="none" stroke="#9a32cd" stroke-dasharray="5,2" d="M171.8506,-212.9167C209.6998,-211.4099 279.0721,-206.0944 335,-187.5 366.3088,-177.0907 399.1758,-156.3469 417.019,-144.1258"/>
<polygon fill="#9a32cd" stroke="#9a32cd" points="171.4836,-209.427 161.6068,-213.2607 171.7186,-216.423 171.4836,-209.427"/>
<text text-anchor="middle" x="280.5" y="-222.5" font-family="Helvetica,sans-Serif" font-size="10.00" fill="#000000"> quitRequested</text>
<text text-anchor="middle" x="280.5" y="-211.5" font-family="Helvetica,sans-Serif" font-size="10.00" fill="#000000">mouseState</text>
</g>
<!-- Node4 -->
<g id="node4" class="node">
<title>Node4</title>
<g id="a_node4"><a xlink:href="classRattletrapEngine_1_1Vec2.html" target="_top" xlink:title="Classe que modela um vetor(no sentido físico) ">
<polygon fill="#ffffff" stroke="#000000" points="85,-148 85,-167 203,-167 203,-148 85,-148"/>
<text text-anchor="middle" x="144" y="-155" font-family="Helvetica,sans-Serif" font-size="10.00" fill="#000000">RattletrapEngine::Vec2</text>
</a>
</g>
</g>
<!-- Node4&#45;&gt;Node1 -->
<g id="edge3" class="edge">
<title>Node4&#45;&gt;Node1</title>
<path fill="none" stroke="#9a32cd" stroke-dasharray="5,2" d="M213.1816,-151.9462C255.302,-148.5648 309.2081,-144.2372 352.7937,-140.7382"/>
<polygon fill="#9a32cd" stroke="#9a32cd" points="212.7034,-148.4732 203.0156,-152.7623 213.2636,-155.4507 212.7034,-148.4732"/>
<text text-anchor="middle" x="280.5" y="-175.5" font-family="Helvetica,sans-Serif" font-size="10.00" fill="#000000"> controllerLeftStickState</text>
<text text-anchor="middle" x="280.5" y="-164.5" font-family="Helvetica,sans-Serif" font-size="10.00" fill="#000000">controllerRightStickState</text>
<text text-anchor="middle" x="280.5" y="-153.5" font-family="Helvetica,sans-Serif" font-size="10.00" fill="#000000">mouseScroolState</text>
</g>
<!-- Node5 -->
<g id="node5" class="node">
<title>Node5</title>
<polygon fill="#ffffff" stroke="#bfbfbf" points="0,-148 0,-167 35,-167 35,-148 0,-148"/>
<text text-anchor="middle" x="17.5" y="-155" font-family="Helvetica,sans-Serif" font-size="10.00" fill="#000000">float</text>
</g>
<!-- Node5&#45;&gt;Node4 -->
<g id="edge4" class="edge">
<title>Node5&#45;&gt;Node4</title>
<path fill="none" stroke="#9a32cd" stroke-dasharray="5,2" d="M45.09,-157.5C56.8059,-157.5 70.9463,-157.5 84.8242,-157.5"/>
<polygon fill="#9a32cd" stroke="#9a32cd" points="45.0893,-154.0001 35.0893,-157.5 45.0892,-161.0001 45.0893,-154.0001"/>
<text text-anchor="middle" x="57.5" y="-171.5" font-family="Helvetica,sans-Serif" font-size="10.00" fill="#000000"> x</text>
<text text-anchor="middle" x="57.5" y="-160.5" font-family="Helvetica,sans-Serif" font-size="10.00" fill="#000000">y</text>
</g>
<!-- Node6 -->
<g id="node6" class="node">
<title>Node6</title>
<polygon fill="#ffffff" stroke="#bfbfbf" points="91,-98.5 91,-128.5 197,-128.5 197,-98.5 91,-98.5"/>
<text text-anchor="start" x="99" y="-116.5" font-family="Helvetica,sans-Serif" font-size="10.00" fill="#000000">unordered_map&lt; int,</text>
<text text-anchor="middle" x="144" y="-105.5" font-family="Helvetica,sans-Serif" font-size="10.00" fill="#000000"> int &gt;</text>
</g>
<!-- Node6&#45;&gt;Node1 -->
<g id="edge5" class="edge">
<title>Node6&#45;&gt;Node1</title>
<path fill="none" stroke="#9a32cd" stroke-dasharray="5,2" d="M207.482,-110.073C244.7361,-108.9155 292.6635,-108.9002 335,-113.5 355.4208,-115.7187 377.8726,-120.5315 395.8734,-124.9905"/>
<polygon fill="#9a32cd" stroke="#9a32cd" points="207.1437,-106.5826 197.271,-110.4269 207.3863,-113.5784 207.1437,-106.5826"/>
<text text-anchor="middle" x="280.5" y="-127.5" font-family="Helvetica,sans-Serif" font-size="10.00" fill="#000000"> controllerUpdate</text>
<text text-anchor="middle" x="280.5" y="-116.5" font-family="Helvetica,sans-Serif" font-size="10.00" fill="#000000">keyUpdate</text>
</g>
<!-- Node7 -->
<g id="node7" class="node">
<title>Node7</title>
<polygon fill="#ffffff" stroke="#bfbfbf" points="91,-49.5 91,-79.5 197,-79.5 197,-49.5 91,-49.5"/>
<text text-anchor="start" x="99" y="-67.5" font-family="Helvetica,sans-Serif" font-size="10.00" fill="#000000">unordered_map&lt; int,</text>
<text text-anchor="middle" x="144" y="-56.5" font-family="Helvetica,sans-Serif" font-size="10.00" fill="#000000"> bool &gt;</text>
</g>
<!-- Node7&#45;&gt;Node1 -->
<g id="edge6" class="edge">
<title>Node7&#45;&gt;Node1</title>
<path fill="none" stroke="#9a32cd" stroke-dasharray="5,2" d="M207.7142,-64.6536C245.4361,-66.2573 293.7592,-70.9762 335,-83.5 366.114,-92.9486 398.7884,-112.9175 416.7052,-124.8729"/>
<polygon fill="#9a32cd" stroke="#9a32cd" points="207.4903,-61.1433 197.3705,-64.28 207.2376,-68.1388 207.4903,-61.1433"/>
<text text-anchor="middle" x="280.5" y="-97.5" font-family="Helvetica,sans-Serif" font-size="10.00" fill="#000000"> keyState</text>
<text text-anchor="middle" x="280.5" y="-86.5" font-family="Helvetica,sans-Serif" font-size="10.00" fill="#000000">controllerState</text>
</g>
<!-- Node8 -->
<g id="node8" class="node">
<title>Node8</title>
<polygon fill="#ffffff" stroke="#bfbfbf" points="80,-.5 80,-30.5 208,-30.5 208,-.5 80,-.5"/>
<text text-anchor="start" x="88" y="-18.5" font-family="Helvetica,sans-Serif" font-size="10.00" fill="#000000">unordered_map&lt; int,</text>
<text text-anchor="middle" x="144" y="-7.5" font-family="Helvetica,sans-Serif" font-size="10.00" fill="#000000"> SDL_GameController * &gt;</text>
</g>
<!-- Node8&#45;&gt;Node1 -->
<g id="edge7" class="edge">
<title>Node8&#45;&gt;Node1</title>
<path fill="none" stroke="#9a32cd" stroke-dasharray="5,2" d="M218.2409,-20.3281C254.8358,-24.9495 298.7716,-33.9599 335,-51.5 372.9608,-69.8789 407.6992,-107.3769 422.6958,-124.9773"/>
<polygon fill="#9a32cd" stroke="#9a32cd" points="218.4671,-16.8306 208.1265,-19.1375 217.6487,-23.7826 218.4671,-16.8306"/>
<text text-anchor="middle" x="280.5" y="-54.5" font-family="Helvetica,sans-Serif" font-size="10.00" fill="#000000"> padToController</text>
</g>
</g>
</svg>
