<?xml version="1.0" encoding="UTF-8" standalone="no"?>
<!DOCTYPE svg PUBLIC "-//W3C//DTD SVG 1.1//EN"
 "http://www.w3.org/Graphics/SVG/1.1/DTD/svg11.dtd">
<!-- Generated by graphviz version 2.38.0 (20140413.2041)
 -->
<!-- Title: TileSet Pages: 1 -->
<svg width="333pt" height="353pt"
 viewBox="0.00 0.00 332.50 353.00" xmlns="http://www.w3.org/2000/svg" xmlns:xlink="http://www.w3.org/1999/xlink">
<g id="graph0" class="graph" transform="scale(1 1) rotate(0) translate(4 349)">
<title>TileSet</title>
<polygon fill="white" stroke="none" points="-4,4 -4,-349 328.5,-349 328.5,4 -4,4"/>
<!-- Node2 -->
<g id="node1" class="node"><title>Node2</title>
<polygon fill="#bfbfbf" stroke="black" points="56,-0.5 56,-19.5 103,-19.5 103,-0.5 56,-0.5"/>
<text text-anchor="middle" x="79.5" y="-7.5" font-family="Helvetica,sans-Serif" font-size="10.00">TileSet</text>
</g>
<!-- Node3 -->
<g id="node2" class="node"><title>Node3</title>
<g id="a_node2"><a xlink:href="classComponent.html" target="_top" xlink:title="Modela os componentes. ">
<polygon fill="white" stroke="black" points="46,-67.5 46,-86.5 113,-86.5 113,-67.5 46,-67.5"/>
<text text-anchor="middle" x="79.5" y="-74.5" font-family="Helvetica,sans-Serif" font-size="10.00">Component</text>
</a>
</g>
</g>
<!-- Node3&#45;&gt;Node2 -->
<g id="edge1" class="edge"><title>Node3&#45;&gt;Node2</title>
<path fill="none" stroke="midnightblue" d="M79.5,-57.037C79.5,-44.6703 79.5,-29.1198 79.5,-19.6273"/>
<polygon fill="midnightblue" stroke="midnightblue" points="76.0001,-57.2338 79.5,-67.2338 83.0001,-57.2338 76.0001,-57.2338"/>
</g>
<!-- Node4 -->
<g id="node3" class="node"><title>Node4</title>
<g id="a_node3"><a xlink:href="classGameObject.html" target="_top" xlink:title="Classe virtual que especifica o funcionamento de um GameObject. ">
<polygon fill="white" stroke="black" points="144,-135.5 144,-154.5 215,-154.5 215,-135.5 144,-135.5"/>
<text text-anchor="middle" x="179.5" y="-142.5" font-family="Helvetica,sans-Serif" font-size="10.00">GameObject</text>
</a>
</g>
</g>
<!-- Node4&#45;&gt;Node3 -->
<g id="edge2" class="edge"><title>Node4&#45;&gt;Node3</title>
<path fill="none" stroke="#9a32cd" stroke-dasharray="5,2" d="M158.002,-129.811C138.116,-116.686 109.198,-97.6004 92.5765,-86.6305"/>
<polygon fill="#9a32cd" stroke="#9a32cd" points="156.153,-132.784 166.427,-135.372 160.009,-126.942 156.153,-132.784"/>
<text text-anchor="middle" x="161" y="-108" font-family="Helvetica,sans-Serif" font-size="10.00"> associated</text>
</g>
<!-- Node5 -->
<g id="node4" class="node"><title>Node5</title>
<polygon fill="white" stroke="#bfbfbf" points="159.5,-225.5 159.5,-244.5 275.5,-244.5 275.5,-225.5 159.5,-225.5"/>
<text text-anchor="middle" x="217.5" y="-232.5" font-family="Helvetica,sans-Serif" font-size="10.00">vector&lt; Component *&gt;</text>
</g>
<!-- Node5&#45;&gt;Node4 -->
<g id="edge3" class="edge"><title>Node5&#45;&gt;Node4</title>
<path fill="none" stroke="#9a32cd" stroke-dasharray="5,2" d="M211.612,-215.494C207.567,-203.465 201.804,-187.556 195.5,-174 192.384,-167.299 188.227,-160.064 184.932,-154.627"/>
<polygon fill="#9a32cd" stroke="#9a32cd" points="208.375,-216.855 214.81,-225.271 215.028,-214.679 208.375,-216.855"/>
<text text-anchor="middle" x="237" y="-188" font-family="Helvetica,sans-Serif" font-size="10.00"> components</text>
</g>
<!-- Node6 -->
<g id="node5" class="node"><title>Node6</title>
<g id="a_node5"><a xlink:href="classRect.html" target="_top" xlink:title="Classe que modela um rect. ">
<polygon fill="white" stroke="black" points="103.5,-225.5 103.5,-244.5 141.5,-244.5 141.5,-225.5 103.5,-225.5"/>
<text text-anchor="middle" x="122.5" y="-232.5" font-family="Helvetica,sans-Serif" font-size="10.00">Rect</text>
</a>
</g>
</g>
<!-- Node6&#45;&gt;Node4 -->
<g id="edge4" class="edge"><title>Node6&#45;&gt;Node4</title>
<path fill="none" stroke="#9a32cd" stroke-dasharray="5,2" d="M141.872,-218.774C145.704,-215.184 149.472,-211.177 152.5,-207 164.601,-190.311 172.927,-167.339 176.878,-154.89"/>
<polygon fill="#9a32cd" stroke="#9a32cd" points="139.401,-216.285 134.135,-225.478 143.985,-221.575 139.401,-216.285"/>
<text text-anchor="middle" x="180" y="-188" font-family="Helvetica,sans-Serif" font-size="10.00"> box</text>
</g>
<!-- Node7 -->
<g id="node6" class="node"><title>Node7</title>
<polygon fill="white" stroke="#bfbfbf" points="105,-325.5 105,-344.5 140,-344.5 140,-325.5 105,-325.5"/>
<text text-anchor="middle" x="122.5" y="-332.5" font-family="Helvetica,sans-Serif" font-size="10.00">float</text>
</g>
<!-- Node7&#45;&gt;Node4 -->
<g id="edge6" class="edge"><title>Node7&#45;&gt;Node4</title>
<path fill="none" stroke="#9a32cd" stroke-dasharray="5,2" d="M149.906,-328.056C187.93,-318.172 255.302,-294.355 284.5,-245 295.624,-226.196 276.56,-181.171 269.5,-174 255.264,-159.541 233.704,-152.52 215.254,-149.123"/>
<polygon fill="#9a32cd" stroke="#9a32cd" points="148.892,-324.701 140.015,-330.484 150.561,-331.499 148.892,-324.701"/>
<text text-anchor="middle" x="306.5" y="-232.5" font-family="Helvetica,sans-Serif" font-size="10.00"> rotation</text>
</g>
<!-- Node7&#45;&gt;Node6 -->
<g id="edge5" class="edge"><title>Node7&#45;&gt;Node6</title>
<path fill="none" stroke="#9a32cd" stroke-dasharray="5,2" d="M122.5,-315.22C122.5,-293.951 122.5,-260.22 122.5,-244.537"/>
<polygon fill="#9a32cd" stroke="#9a32cd" points="119,-315.303 122.5,-325.303 126,-315.303 119,-315.303"/>
<text text-anchor="middle" x="128" y="-299" font-family="Helvetica,sans-Serif" font-size="10.00"> w</text>
<text text-anchor="middle" x="128" y="-288" font-family="Helvetica,sans-Serif" font-size="10.00">x</text>
<text text-anchor="middle" x="128" y="-277" font-family="Helvetica,sans-Serif" font-size="10.00">h</text>
<text text-anchor="middle" x="128" y="-266" font-family="Helvetica,sans-Serif" font-size="10.00">y</text>
</g>
<!-- Node9 -->
<g id="node8" class="node"><title>Node9</title>
<g id="a_node8"><a xlink:href="classVec2.html" target="_top" xlink:title="Classe que modela um vetor(no sentido físico) ">
<polygon fill="white" stroke="black" points="0,-181 0,-200 39,-200 39,-181 0,-181"/>
<text text-anchor="middle" x="19.5" y="-188" font-family="Helvetica,sans-Serif" font-size="10.00">Vec2</text>
</a>
</g>
</g>
<!-- Node7&#45;&gt;Node9 -->
<g id="edge10" class="edge"><title>Node7&#45;&gt;Node9</title>
<path fill="none" stroke="#9a32cd" stroke-dasharray="5,2" d="M104.811,-318.533C86.6553,-301.884 58.5765,-273.88 40.5,-245 31.3943,-230.452 25.0446,-211.302 21.8581,-200.301"/>
<polygon fill="#9a32cd" stroke="#9a32cd" points="102.608,-321.26 112.383,-325.347 107.29,-316.056 102.608,-321.26"/>
<text text-anchor="middle" x="97" y="-288" font-family="Helvetica,sans-Serif" font-size="10.00"> x</text>
<text text-anchor="middle" x="97" y="-277" font-family="Helvetica,sans-Serif" font-size="10.00">y</text>
</g>
<!-- Node8 -->
<g id="node7" class="node"><title>Node8</title>
<polygon fill="white" stroke="#bfbfbf" points="50,-225.5 50,-244.5 85,-244.5 85,-225.5 50,-225.5"/>
<text text-anchor="middle" x="67.5" y="-232.5" font-family="Helvetica,sans-Serif" font-size="10.00">bool</text>
</g>
<!-- Node8&#45;&gt;Node3 -->
<g id="edge8" class="edge"><title>Node8&#45;&gt;Node3</title>
<path fill="none" stroke="#9a32cd" stroke-dasharray="5,2" d="M68.9478,-215.179C71.554,-181.298 76.9394,-111.287 78.8279,-86.7373"/>
<polygon fill="#9a32cd" stroke="#9a32cd" points="65.4569,-214.927 68.1796,-225.166 72.4363,-215.464 65.4569,-214.927"/>
<text text-anchor="middle" x="104" y="-148" font-family="Helvetica,sans-Serif" font-size="10.00"> newEnabled</text>
<text text-anchor="middle" x="104" y="-137" font-family="Helvetica,sans-Serif" font-size="10.00">enabled</text>
</g>
<!-- Node8&#45;&gt;Node4 -->
<g id="edge7" class="edge"><title>Node8&#45;&gt;Node4</title>
<path fill="none" stroke="#9a32cd" stroke-dasharray="5,2" d="M77.4024,-216.36C87.079,-199.227 100.624,-175.567 102.5,-174 114.292,-164.153 129.839,-157.631 143.873,-153.381"/>
<polygon fill="#9a32cd" stroke="#9a32cd" points="74.1256,-215.046 72.2694,-225.477 80.2253,-218.48 74.1256,-215.046"/>
<text text-anchor="middle" x="125.5" y="-199" font-family="Helvetica,sans-Serif" font-size="10.00"> dead</text>
<text text-anchor="middle" x="125.5" y="-188" font-family="Helvetica,sans-Serif" font-size="10.00">active</text>
<text text-anchor="middle" x="125.5" y="-177" font-family="Helvetica,sans-Serif" font-size="10.00">newActive</text>
</g>
<!-- Node9&#45;&gt;Node2 -->
<g id="edge9" class="edge"><title>Node9&#45;&gt;Node2</title>
<path fill="none" stroke="#9a32cd" stroke-dasharray="5,2" d="M19.1742,-170.617C19.3948,-145.865 22.0449,-101.539 36.5,-67 44.4503,-48.0036 60.4844,-29.8228 70.5684,-19.5682"/>
<polygon fill="#9a32cd" stroke="#9a32cd" points="15.6748,-170.802 19.215,-180.788 22.6748,-170.774 15.6748,-170.802"/>
<text text-anchor="middle" x="43.5" y="-108" font-family="Helvetica,sans-Serif" font-size="10.00"> tileSize</text>
</g>
<!-- Node10 -->
<g id="node9" class="node"><title>Node10</title>
<polygon fill="white" stroke="#bfbfbf" points="131,-67.5 131,-86.5 218,-86.5 218,-67.5 131,-67.5"/>
<text text-anchor="middle" x="174.5" y="-74.5" font-family="Helvetica,sans-Serif" font-size="10.00">vector&lt; Sprite &gt;</text>
</g>
<!-- Node10&#45;&gt;Node2 -->
<g id="edge11" class="edge"><title>Node10&#45;&gt;Node2</title>
<path fill="none" stroke="#9a32cd" stroke-dasharray="5,2" d="M153.19,-61.4196C134.409,-48.5695 107.682,-30.2821 92.1091,-19.6273"/>
<polygon fill="#9a32cd" stroke="#9a32cd" points="151.458,-64.4755 161.688,-67.2338 155.411,-58.6983 151.458,-64.4755"/>
<text text-anchor="middle" x="150" y="-41" font-family="Helvetica,sans-Serif" font-size="10.00"> sprites</text>
</g>
</g>
</svg>
