<?xml version="1.0" encoding="UTF-8" standalone="no"?>
<!DOCTYPE svg PUBLIC "-//W3C//DTD SVG 1.1//EN"
 "http://www.w3.org/Graphics/SVG/1.1/DTD/svg11.dtd">
<!-- Generated by graphviz version 2.40.1 (20161225.0304)
 -->
<!-- Title: RattletrapEngine::State Pages: 1 -->
<svg width="176pt" height="128pt"
 viewBox="0.00 0.00 176.00 128.00" xmlns="http://www.w3.org/2000/svg" xmlns:xlink="http://www.w3.org/1999/xlink">
<g id="graph0" class="graph" transform="scale(1 1) rotate(0) translate(4 124)">
<title>RattletrapEngine::State</title>
<polygon fill="#ffffff" stroke="transparent" points="-4,4 -4,-124 172,-124 172,4 -4,4"/>
<!-- Node1 -->
<g id="node1" class="node">
<title>Node1</title>
<polygon fill="#bfbfbf" stroke="#000000" points="4,-.5 4,-19.5 123,-19.5 123,-.5 4,-.5"/>
<text text-anchor="middle" x="63.5" y="-7.5" font-family="Helvetica,sans-Serif" font-size="10.00" fill="#000000">RattletrapEngine::State</text>
</g>
<!-- Node2 -->
<g id="node2" class="node">
<title>Node2</title>
<polygon fill="#ffffff" stroke="#bfbfbf" points="0,-89.5 0,-108.5 35,-108.5 35,-89.5 0,-89.5"/>
<text text-anchor="middle" x="17.5" y="-96.5" font-family="Helvetica,sans-Serif" font-size="10.00" fill="#000000">bool</text>
</g>
<!-- Node2&#45;&gt;Node1 -->
<g id="edge1" class="edge">
<title>Node2&#45;&gt;Node1</title>
<path fill="none" stroke="#9a32cd" stroke-dasharray="5,2" d="M14.5218,-79.1944C13.6139,-66.5877 14.3519,-50.3654 21.5,-38 26.0613,-30.1095 33.8481,-24.0089 41.487,-19.5462"/>
<polygon fill="#9a32cd" stroke="#9a32cd" points="11.0452,-79.6001 15.6236,-89.1546 18.0028,-78.8304 11.0452,-79.6001"/>
<text text-anchor="middle" x="55" y="-52" font-family="Helvetica,sans-Serif" font-size="10.00" fill="#000000"> quitRequested</text>
<text text-anchor="middle" x="55" y="-41" font-family="Helvetica,sans-Serif" font-size="10.00" fill="#000000">popRequested</text>
</g>
<!-- Node3 -->
<g id="node3" class="node">
<title>Node3</title>
<polygon fill="#ffffff" stroke="#bfbfbf" points="53,-78.5 53,-119.5 168,-119.5 168,-78.5 53,-78.5"/>
<text text-anchor="start" x="61" y="-107.5" font-family="Helvetica,sans-Serif" font-size="10.00" fill="#000000">vector&lt; std::unique</text>
<text text-anchor="start" x="61" y="-96.5" font-family="Helvetica,sans-Serif" font-size="10.00" fill="#000000">_ptr&lt; RattletrapEngine</text>
<text text-anchor="middle" x="110.5" y="-85.5" font-family="Helvetica,sans-Serif" font-size="10.00" fill="#000000">::GameObject &gt; &gt;</text>
</g>
<!-- Node3&#45;&gt;Node1 -->
<g id="edge2" class="edge">
<title>Node3&#45;&gt;Node1</title>
<path fill="none" stroke="#9a32cd" stroke-dasharray="5,2" d="M102.1056,-68.6481C98.6501,-58.5238 94.1198,-47.4288 88.5,-38 84.4962,-31.2826 78.7528,-24.7104 73.7804,-19.6233"/>
<polygon fill="#9a32cd" stroke="#9a32cd" points="98.8278,-69.8894 105.2034,-78.3512 105.4962,-67.7604 98.8278,-69.8894"/>
<text text-anchor="middle" x="124" y="-46.5" font-family="Helvetica,sans-Serif" font-size="10.00" fill="#000000"> objectArray</text>
</g>
</g>
</svg>
