<?xml version="1.0" encoding="UTF-8" standalone="no"?>
<!DOCTYPE svg PUBLIC "-//W3C//DTD SVG 1.1//EN"
 "http://www.w3.org/Graphics/SVG/1.1/DTD/svg11.dtd">
<!-- Generated by graphviz version 2.38.0 (20140413.2041)
 -->
<!-- Title: DragAndDrop&lt; T &gt; Pages: 1 -->
<svg width="770pt" height="364pt"
 viewBox="0.00 0.00 770.00 364.00" xmlns="http://www.w3.org/2000/svg" xmlns:xlink="http://www.w3.org/1999/xlink">
<g id="graph0" class="graph" transform="scale(1 1) rotate(0) translate(4 360)">
<title>DragAndDrop&lt; T &gt;</title>
<polygon fill="white" stroke="none" points="-4,4 -4,-360 766,-360 766,4 -4,4"/>
<!-- Node2 -->
<g id="node1" class="node"><title>Node2</title>
<polygon fill="#bfbfbf" stroke="black" points="415,-0.5 415,-19.5 515,-19.5 515,-0.5 415,-0.5"/>
<text text-anchor="middle" x="465" y="-7.5" font-family="Helvetica,sans-Serif" font-size="10.00">DragAndDrop&lt; T &gt;</text>
</g>
<!-- Node3 -->
<g id="node2" class="node"><title>Node3</title>
<g id="a_node2"><a xlink:href="classComponent.html" target="_top" xlink:title="Modela os componentes. ">
<polygon fill="white" stroke="black" points="268.5,-67.5 268.5,-86.5 335.5,-86.5 335.5,-67.5 268.5,-67.5"/>
<text text-anchor="middle" x="302" y="-74.5" font-family="Helvetica,sans-Serif" font-size="10.00">Component</text>
</a>
</g>
</g>
<!-- Node3&#45;&gt;Node2 -->
<g id="edge1" class="edge"><title>Node3&#45;&gt;Node2</title>
<path fill="none" stroke="midnightblue" d="M324.701,-62.3002C338.358,-54.4543 356.284,-44.8407 373,-38 391.179,-30.5606 412.146,-24.2429 429.468,-19.5934"/>
<polygon fill="midnightblue" stroke="midnightblue" points="322.858,-59.3229 315.994,-67.3937 326.393,-65.3648 322.858,-59.3229"/>
</g>
<!-- Node4 -->
<g id="node3" class="node"><title>Node4</title>
<g id="a_node3"><a xlink:href="classGameObject.html" target="_top" xlink:title="Classe virtual que especifica o funcionamento de um GameObject. ">
<polygon fill="white" stroke="black" points="172.5,-146.5 172.5,-165.5 243.5,-165.5 243.5,-146.5 172.5,-146.5"/>
<text text-anchor="middle" x="208" y="-153.5" font-family="Helvetica,sans-Serif" font-size="10.00">GameObject</text>
</a>
</g>
</g>
<!-- Node4&#45;&gt;Node3 -->
<g id="edge2" class="edge"><title>Node4&#45;&gt;Node3</title>
<path fill="none" stroke="#9a32cd" stroke-dasharray="5,2" d="M214.973,-136.954C219.806,-126.454 227.15,-113.63 237,-105 246.467,-96.706 258.838,-90.7154 270.244,-86.5172"/>
<polygon fill="#9a32cd" stroke="#9a32cd" points="211.635,-135.864 210.978,-146.438 218.086,-138.582 211.635,-135.864"/>
<text text-anchor="middle" x="262.5" y="-113.5" font-family="Helvetica,sans-Serif" font-size="10.00"> associated</text>
</g>
<!-- Node5 -->
<g id="node4" class="node"><title>Node5</title>
<polygon fill="white" stroke="#bfbfbf" points="0,-236.5 0,-255.5 116,-255.5 116,-236.5 0,-236.5"/>
<text text-anchor="middle" x="58" y="-243.5" font-family="Helvetica,sans-Serif" font-size="10.00">vector&lt; Component *&gt;</text>
</g>
<!-- Node5&#45;&gt;Node4 -->
<g id="edge3" class="edge"><title>Node5&#45;&gt;Node4</title>
<path fill="none" stroke="#9a32cd" stroke-dasharray="5,2" d="M65.9868,-226.873C72.8514,-213.363 84.0169,-195.503 99,-185 120.598,-169.86 149.729,-162.901 172.442,-159.706"/>
<polygon fill="#9a32cd" stroke="#9a32cd" points="62.7042,-225.627 61.5838,-236.162 69.0296,-228.625 62.7042,-225.627"/>
<text text-anchor="middle" x="127.5" y="-199" font-family="Helvetica,sans-Serif" font-size="10.00"> components</text>
</g>
<!-- Node6 -->
<g id="node5" class="node"><title>Node6</title>
<g id="a_node5"><a xlink:href="classRect.html" target="_top" xlink:title="Classe que modela um rect. ">
<polygon fill="white" stroke="black" points="134,-236.5 134,-255.5 172,-255.5 172,-236.5 134,-236.5"/>
<text text-anchor="middle" x="153" y="-243.5" font-family="Helvetica,sans-Serif" font-size="10.00">Rect</text>
</a>
</g>
</g>
<!-- Node6&#45;&gt;Node4 -->
<g id="edge4" class="edge"><title>Node6&#45;&gt;Node4</title>
<path fill="none" stroke="#9a32cd" stroke-dasharray="5,2" d="M157.153,-226.422C160.556,-213.932 166.258,-197.526 175,-185 180.332,-177.36 188.241,-170.552 194.98,-165.562"/>
<polygon fill="#9a32cd" stroke="#9a32cd" points="153.739,-225.646 154.735,-236.194 160.534,-227.328 153.739,-225.646"/>
<text text-anchor="middle" x="184.5" y="-199" font-family="Helvetica,sans-Serif" font-size="10.00"> box</text>
</g>
<!-- Node7 -->
<g id="node6" class="node"><title>Node7</title>
<polygon fill="white" stroke="#bfbfbf" points="190.5,-336.5 190.5,-355.5 225.5,-355.5 225.5,-336.5 190.5,-336.5"/>
<text text-anchor="middle" x="208" y="-343.5" font-family="Helvetica,sans-Serif" font-size="10.00">float</text>
</g>
<!-- Node7&#45;&gt;Node4 -->
<g id="edge6" class="edge"><title>Node7&#45;&gt;Node4</title>
<path fill="none" stroke="#9a32cd" stroke-dasharray="5,2" d="M208,-326.244C208,-286.31 208,-194.197 208,-165.617"/>
<polygon fill="#9a32cd" stroke="#9a32cd" points="204.5,-326.433 208,-336.434 211.5,-326.434 204.5,-326.433"/>
<text text-anchor="middle" x="226" y="-243.5" font-family="Helvetica,sans-Serif" font-size="10.00"> rotation</text>
</g>
<!-- Node7&#45;&gt;Node6 -->
<g id="edge5" class="edge"><title>Node7&#45;&gt;Node6</title>
<path fill="none" stroke="#9a32cd" stroke-dasharray="5,2" d="M191.395,-328.865C188.373,-325.451 185.417,-321.743 183,-318 169.643,-297.316 159.989,-269.686 155.615,-255.781"/>
<polygon fill="#9a32cd" stroke="#9a32cd" points="188.916,-331.337 198.342,-336.175 193.99,-326.515 188.916,-331.337"/>
<text text-anchor="middle" x="188.5" y="-310" font-family="Helvetica,sans-Serif" font-size="10.00"> w</text>
<text text-anchor="middle" x="188.5" y="-299" font-family="Helvetica,sans-Serif" font-size="10.00">x</text>
<text text-anchor="middle" x="188.5" y="-288" font-family="Helvetica,sans-Serif" font-size="10.00">h</text>
<text text-anchor="middle" x="188.5" y="-277" font-family="Helvetica,sans-Serif" font-size="10.00">y</text>
</g>
<!-- Node9 -->
<g id="node8" class="node"><title>Node9</title>
<g id="a_node8"><a xlink:href="classVec2.html" target="_top" xlink:title="Classe que modela um vetor(no sentido físico) ">
<polygon fill="white" stroke="black" points="423.5,-192 423.5,-211 462.5,-211 462.5,-192 423.5,-192"/>
<text text-anchor="middle" x="443" y="-199" font-family="Helvetica,sans-Serif" font-size="10.00">Vec2</text>
</a>
</g>
</g>
<!-- Node7&#45;&gt;Node9 -->
<g id="edge10" class="edge"><title>Node7&#45;&gt;Node9</title>
<path fill="none" stroke="#9a32cd" stroke-dasharray="5,2" d="M231.136,-330.97C279.413,-301.697 389.642,-234.855 428.841,-211.086"/>
<polygon fill="#9a32cd" stroke="#9a32cd" points="229.083,-328.123 222.347,-336.3 232.712,-334.108 229.083,-328.123"/>
<text text-anchor="middle" x="325.5" y="-299" font-family="Helvetica,sans-Serif" font-size="10.00"> x</text>
<text text-anchor="middle" x="325.5" y="-288" font-family="Helvetica,sans-Serif" font-size="10.00">y</text>
</g>
<!-- Node8 -->
<g id="node7" class="node"><title>Node8</title>
<polygon fill="white" stroke="#bfbfbf" points="284.5,-236.5 284.5,-255.5 319.5,-255.5 319.5,-236.5 284.5,-236.5"/>
<text text-anchor="middle" x="302" y="-243.5" font-family="Helvetica,sans-Serif" font-size="10.00">bool</text>
</g>
<!-- Node8&#45;&gt;Node2 -->
<g id="edge12" class="edge"><title>Node8&#45;&gt;Node2</title>
<path fill="none" stroke="#9a32cd" stroke-dasharray="5,2" d="M316.715,-228.365C329.817,-213.075 349.018,-189.443 363,-167 379.187,-141.018 376.944,-131.063 393,-105 413.594,-71.5714 443.537,-35.6989 457.415,-19.6375"/>
<polygon fill="#9a32cd" stroke="#9a32cd" points="313.71,-226.488 309.792,-236.332 318.993,-231.079 313.71,-226.488"/>
<text text-anchor="middle" x="420.5" y="-119" font-family="Helvetica,sans-Serif" font-size="10.00"> dragOnHold</text>
<text text-anchor="middle" x="420.5" y="-108" font-family="Helvetica,sans-Serif" font-size="10.00">redrag</text>
</g>
<!-- Node8&#45;&gt;Node3 -->
<g id="edge8" class="edge"><title>Node8&#45;&gt;Node3</title>
<path fill="none" stroke="#9a32cd" stroke-dasharray="5,2" d="M302,-226.409C302,-190.474 302,-112.728 302,-86.6943"/>
<polygon fill="#9a32cd" stroke="#9a32cd" points="298.5,-226.489 302,-236.489 305.5,-226.489 298.5,-226.489"/>
<text text-anchor="middle" x="330.5" y="-159" font-family="Helvetica,sans-Serif" font-size="10.00"> newEnabled</text>
<text text-anchor="middle" x="330.5" y="-148" font-family="Helvetica,sans-Serif" font-size="10.00">enabled</text>
</g>
<!-- Node8&#45;&gt;Node4 -->
<g id="edge7" class="edge"><title>Node8&#45;&gt;Node4</title>
<path fill="none" stroke="#9a32cd" stroke-dasharray="5,2" d="M274.59,-236.901C263.521,-232.618 251.214,-226.457 242,-218 233.514,-210.212 218.896,-180.383 211.922,-165.52"/>
<polygon fill="#9a32cd" stroke="#9a32cd" points="273.689,-240.295 284.283,-240.318 276.016,-233.693 273.689,-240.295"/>
<text text-anchor="middle" x="265" y="-210" font-family="Helvetica,sans-Serif" font-size="10.00"> dead</text>
<text text-anchor="middle" x="265" y="-199" font-family="Helvetica,sans-Serif" font-size="10.00">active</text>
<text text-anchor="middle" x="265" y="-188" font-family="Helvetica,sans-Serif" font-size="10.00">newActive</text>
</g>
<!-- Node9&#45;&gt;Node2 -->
<g id="edge9" class="edge"><title>Node9&#45;&gt;Node2</title>
<path fill="none" stroke="#9a32cd" stroke-dasharray="5,2" d="M445.165,-181.853C449.822,-141.74 460.64,-48.5553 463.992,-19.6856"/>
<polygon fill="#9a32cd" stroke="#9a32cd" points="441.679,-181.528 444.002,-191.865 448.632,-182.336 441.679,-181.528"/>
<text text-anchor="middle" x="499.5" y="-113.5" font-family="Helvetica,sans-Serif" font-size="10.00"> associatedInitialPos</text>
</g>
<!-- Node10 -->
<g id="node9" class="node"><title>Node10</title>
<polygon fill="white" stroke="#bfbfbf" points="493.5,-67.5 493.5,-86.5 578.5,-86.5 578.5,-67.5 493.5,-67.5"/>
<text text-anchor="middle" x="536" y="-74.5" font-family="Helvetica,sans-Serif" font-size="10.00">TileMap&lt; T &gt; &amp;</text>
</g>
<!-- Node10&#45;&gt;Node2 -->
<g id="edge11" class="edge"><title>Node10&#45;&gt;Node2</title>
<path fill="none" stroke="#9a32cd" stroke-dasharray="5,2" d="M518.912,-60.3564C504.954,-47.5777 485.745,-29.9915 474.424,-19.6273"/>
<polygon fill="#9a32cd" stroke="#9a32cd" points="516.685,-63.0628 526.425,-67.2338 521.412,-57.8997 516.685,-63.0628"/>
<text text-anchor="middle" x="522.5" y="-41" font-family="Helvetica,sans-Serif" font-size="10.00"> tileMap</text>
</g>
<!-- Node11 -->
<g id="node10" class="node"><title>Node11</title>
<g id="a_node10"><a xlink:href="classSound.html" target="_top" xlink:title="Classe que modela sons. ">
<polygon fill="white" stroke="black" points="597,-67.5 597,-86.5 641,-86.5 641,-67.5 597,-67.5"/>
<text text-anchor="middle" x="619" y="-74.5" font-family="Helvetica,sans-Serif" font-size="10.00">Sound</text>
</a>
</g>
</g>
<!-- Node11&#45;&gt;Node2 -->
<g id="edge13" class="edge"><title>Node11&#45;&gt;Node2</title>
<path fill="none" stroke="#9a32cd" stroke-dasharray="5,2" d="M594.954,-62.7349C580.437,-55.0004 561.432,-45.3524 544,-38 527.44,-31.0152 508.388,-24.4622 493.143,-19.5615"/>
<polygon fill="#9a32cd" stroke="#9a32cd" points="593.322,-65.8309 603.784,-67.4978 596.645,-59.67 593.322,-65.8309"/>
<text text-anchor="middle" x="593.5" y="-41" font-family="Helvetica,sans-Serif" font-size="10.00"> dragNDrop</text>
</g>
<!-- Node12 -->
<g id="node11" class="node"><title>Node12</title>
<polygon fill="white" stroke="#bfbfbf" points="584.5,-146.5 584.5,-165.5 613.5,-165.5 613.5,-146.5 584.5,-146.5"/>
<text text-anchor="middle" x="599" y="-153.5" font-family="Helvetica,sans-Serif" font-size="10.00">int</text>
</g>
<!-- Node12&#45;&gt;Node11 -->
<g id="edge14" class="edge"><title>Node12&#45;&gt;Node11</title>
<path fill="none" stroke="#9a32cd" stroke-dasharray="5,2" d="M603.735,-136.771C607.827,-121.016 613.565,-98.9244 616.712,-86.8094"/>
<polygon fill="#9a32cd" stroke="#9a32cd" points="600.343,-135.907 601.217,-146.465 607.118,-137.667 600.343,-135.907"/>
<text text-anchor="middle" x="630.5" y="-113.5" font-family="Helvetica,sans-Serif" font-size="10.00"> channel</text>
</g>
<!-- Node13 -->
<g id="node12" class="node"><title>Node13</title>
<polygon fill="white" stroke="#bfbfbf" points="632,-146.5 632,-165.5 762,-165.5 762,-146.5 632,-146.5"/>
<text text-anchor="middle" x="697" y="-153.5" font-family="Helvetica,sans-Serif" font-size="10.00">shared_ptr&lt; Mix_Chunk &gt;</text>
</g>
<!-- Node13&#45;&gt;Node11 -->
<g id="edge15" class="edge"><title>Node13&#45;&gt;Node11</title>
<path fill="none" stroke="#9a32cd" stroke-dasharray="5,2" d="M683.718,-138.455C675.326,-128.38 664.019,-115.476 653,-105 646.008,-98.3522 637.508,-91.6022 630.756,-86.5141"/>
<polygon fill="#9a32cd" stroke="#9a32cd" points="681.22,-140.929 690.263,-146.449 686.636,-136.494 681.22,-140.929"/>
<text text-anchor="middle" x="689" y="-113.5" font-family="Helvetica,sans-Serif" font-size="10.00"> sound</text>
</g>
</g>
</svg>
