<?xml version="1.0" encoding="UTF-8" standalone="no"?>
<!DOCTYPE svg PUBLIC "-//W3C//DTD SVG 1.1//EN"
 "http://www.w3.org/Graphics/SVG/1.1/DTD/svg11.dtd">
<!-- Generated by graphviz version 2.40.1 (20161225.0304)
 -->
<!-- Title: RattletrapEngine::Camera Pages: 1 -->
<svg width="572pt" height="339pt"
 viewBox="0.00 0.00 572.43 339.00" xmlns="http://www.w3.org/2000/svg" xmlns:xlink="http://www.w3.org/1999/xlink">
<g id="graph0" class="graph" transform="scale(1 1) rotate(0) translate(4 335)">
<title>RattletrapEngine::Camera</title>
<polygon fill="#ffffff" stroke="transparent" points="-4,4 -4,-335 568.4259,-335 568.4259,4 -4,4"/>
<!-- Node1 -->
<g id="node1" class="node">
<title>Node1</title>
<polygon fill="#bfbfbf" stroke="#000000" points="158.9259,-.5 158.9259,-19.5 288.9259,-19.5 288.9259,-.5 158.9259,-.5"/>
<text text-anchor="middle" x="223.9259" y="-7.5" font-family="Helvetica,sans-Serif" font-size="10.00" fill="#000000">RattletrapEngine::Camera</text>
</g>
<!-- Node2 -->
<g id="node2" class="node">
<title>Node2</title>
<polygon fill="#ffffff" stroke="#bfbfbf" points="156.4259,-311.5 156.4259,-330.5 191.4259,-330.5 191.4259,-311.5 156.4259,-311.5"/>
<text text-anchor="middle" x="173.9259" y="-318.5" font-family="Helvetica,sans-Serif" font-size="10.00" fill="#000000">float</text>
</g>
<!-- Node2&#45;&gt;Node1 -->
<g id="edge1" class="edge">
<title>Node2&#45;&gt;Node1</title>
<path fill="none" stroke="#9a32cd" stroke-dasharray="5,2" d="M147.4583,-306.2324C89.5548,-271.9799 -39.2485,-184.0094 11.9259,-105 44.5404,-54.6457 110.8296,-30.7343 160.6485,-19.537"/>
<polygon fill="#9a32cd" stroke="#9a32cd" points="146.0214,-309.4454 156.4263,-311.4427 149.5379,-303.3928 146.0214,-309.4454"/>
<text text-anchor="middle" x="47.4259" y="-174" font-family="Helvetica,sans-Serif" font-size="10.00" fill="#000000"> minLogZoom</text>
<text text-anchor="middle" x="47.4259" y="-163" font-family="Helvetica,sans-Serif" font-size="10.00" fill="#000000">minSpeed</text>
<text text-anchor="middle" x="47.4259" y="-152" font-family="Helvetica,sans-Serif" font-size="10.00" fill="#000000">maxSpeed</text>
<text text-anchor="middle" x="47.4259" y="-141" font-family="Helvetica,sans-Serif" font-size="10.00" fill="#000000">logZoomSpeed</text>
<text text-anchor="middle" x="47.4259" y="-130" font-family="Helvetica,sans-Serif" font-size="10.00" fill="#000000">currentSpeed</text>
<text text-anchor="middle" x="47.4259" y="-119" font-family="Helvetica,sans-Serif" font-size="10.00" fill="#000000">maxLogZoom</text>
<text text-anchor="middle" x="47.4259" y="-108" font-family="Helvetica,sans-Serif" font-size="10.00" fill="#000000">currentLogZoom</text>
</g>
<!-- Node4 -->
<g id="node4" class="node">
<title>Node4</title>
<g id="a_node4"><a xlink:href="classRattletrapEngine_1_1Vec2.html" target="_top" xlink:title="Classe que modela um vetor(no sentido físico) ">
<polygon fill="#ffffff" stroke="#000000" points="91.9259,-134 91.9259,-153 209.9259,-153 209.9259,-134 91.9259,-134"/>
<text text-anchor="middle" x="150.9259" y="-141" font-family="Helvetica,sans-Serif" font-size="10.00" fill="#000000">RattletrapEngine::Vec2</text>
</a>
</g>
</g>
<!-- Node2&#45;&gt;Node4 -->
<g id="edge4" class="edge">
<title>Node2&#45;&gt;Node4</title>
<path fill="none" stroke="#9a32cd" stroke-dasharray="5,2" d="M171.3552,-301.1612C166.4222,-263.0914 155.7956,-181.0816 152.1686,-153.0904"/>
<polygon fill="#9a32cd" stroke="#9a32cd" points="167.9332,-301.9895 172.6893,-311.4568 174.8752,-301.0899 167.9332,-301.9895"/>
<text text-anchor="middle" x="175.4259" y="-274" font-family="Helvetica,sans-Serif" font-size="10.00" fill="#000000"> x</text>
<text text-anchor="middle" x="175.4259" y="-263" font-family="Helvetica,sans-Serif" font-size="10.00" fill="#000000">y</text>
</g>
<!-- Node5 -->
<g id="node5" class="node">
<title>Node5</title>
<g id="a_node5"><a xlink:href="classRattletrapEngine_1_1GameObject.html" target="_top" xlink:title="Classe virtual que especifica o funcionamento de um GameObject. ">
<polygon fill="#ffffff" stroke="#000000" points="238.9259,-67.5 238.9259,-86.5 388.9259,-86.5 388.9259,-67.5 238.9259,-67.5"/>
<text text-anchor="middle" x="313.9259" y="-74.5" font-family="Helvetica,sans-Serif" font-size="10.00" fill="#000000">RattletrapEngine::GameObject</text>
</a>
</g>
</g>
<!-- Node2&#45;&gt;Node5 -->
<g id="edge6" class="edge">
<title>Node2&#45;&gt;Node5</title>
<path fill="none" stroke="#9a32cd" stroke-dasharray="5,2" d="M180.247,-301.934C181.1792,-298.9539 182.102,-295.901 182.9259,-293 194.5586,-252.0412 186.2073,-237.7375 205.9259,-200 231.4572,-151.138 280.3148,-105.6961 302.4827,-86.5511"/>
<polygon fill="#9a32cd" stroke="#9a32cd" points="176.9133,-300.868 177.1716,-311.4597 183.5747,-303.0188 176.9133,-300.868"/>
<text text-anchor="middle" x="223.9259" y="-213" font-family="Helvetica,sans-Serif" font-size="10.00" fill="#000000"> rotation</text>
</g>
<!-- Node7 -->
<g id="node7" class="node">
<title>Node7</title>
<g id="a_node7"><a xlink:href="classRattletrapEngine_1_1Rect.html" target="_top" xlink:title="Classe que modela um rect. ">
<polygon fill="#ffffff" stroke="#000000" points="394.9259,-206 394.9259,-225 510.9259,-225 510.9259,-206 394.9259,-206"/>
<text text-anchor="middle" x="452.9259" y="-213" font-family="Helvetica,sans-Serif" font-size="10.00" fill="#000000">RattletrapEngine::Rect</text>
</a>
</g>
</g>
<!-- Node2&#45;&gt;Node7 -->
<g id="edge10" class="edge">
<title>Node2&#45;&gt;Node7</title>
<path fill="none" stroke="#9a32cd" stroke-dasharray="5,2" d="M201.4056,-310.6089C255.4695,-290.1654 374.9462,-244.9869 427.3949,-225.1542"/>
<polygon fill="#9a32cd" stroke="#9a32cd" points="199.9187,-307.4292 191.803,-314.24 202.3946,-313.9768 199.9187,-307.4292"/>
<text text-anchor="middle" x="368.4259" y="-285" font-family="Helvetica,sans-Serif" font-size="10.00" fill="#000000"> w</text>
<text text-anchor="middle" x="368.4259" y="-274" font-family="Helvetica,sans-Serif" font-size="10.00" fill="#000000">x</text>
<text text-anchor="middle" x="368.4259" y="-263" font-family="Helvetica,sans-Serif" font-size="10.00" fill="#000000">h</text>
<text text-anchor="middle" x="368.4259" y="-252" font-family="Helvetica,sans-Serif" font-size="10.00" fill="#000000">y</text>
</g>
<!-- Node3 -->
<g id="node3" class="node">
<title>Node3</title>
<polygon fill="#ffffff" stroke="#bfbfbf" points="529.4259,-206 529.4259,-225 564.4259,-225 564.4259,-206 529.4259,-206"/>
<text text-anchor="middle" x="546.9259" y="-213" font-family="Helvetica,sans-Serif" font-size="10.00" fill="#000000">bool</text>
</g>
<!-- Node3&#45;&gt;Node1 -->
<g id="edge2" class="edge">
<title>Node3&#45;&gt;Node1</title>
<path fill="none" stroke="#9a32cd" stroke-dasharray="5,2" d="M548.8407,-195.6345C550.0494,-171.2522 548.22,-130.067 525.9259,-105 492.458,-67.3694 352.1597,-34.9344 275.1226,-19.5387"/>
<polygon fill="#9a32cd" stroke="#9a32cd" points="545.3343,-195.5981 548.1071,-205.8237 552.3163,-196.1009 545.3343,-195.5981"/>
<text text-anchor="middle" x="526.9259" y="-74.5" font-family="Helvetica,sans-Serif" font-size="10.00" fill="#000000"> zoomFixed</text>
</g>
<!-- Node3&#45;&gt;Node5 -->
<g id="edge8" class="edge">
<title>Node3&#45;&gt;Node5</title>
<path fill="none" stroke="#9a32cd" stroke-dasharray="5,2" d="M521.9477,-201.0467C521.2687,-200.6905 520.5938,-200.341 519.9259,-200 502.5625,-191.1364 493.2722,-196.21 479.9259,-182 454.8905,-155.3446 478.751,-128.7286 450.9259,-105 441.0435,-96.5725 415.4885,-90.2983 389.0887,-85.8497"/>
<polygon fill="#9a32cd" stroke="#9a32cd" points="520.3399,-204.1567 530.7914,-205.8941 523.7045,-198.0183 520.3399,-204.1567"/>
<text text-anchor="middle" x="502.9259" y="-152" font-family="Helvetica,sans-Serif" font-size="10.00" fill="#000000"> dead</text>
<text text-anchor="middle" x="502.9259" y="-141" font-family="Helvetica,sans-Serif" font-size="10.00" fill="#000000">active</text>
<text text-anchor="middle" x="502.9259" y="-130" font-family="Helvetica,sans-Serif" font-size="10.00" fill="#000000">newActive</text>
</g>
<!-- Node4&#45;&gt;Node1 -->
<g id="edge3" class="edge">
<title>Node4&#45;&gt;Node1</title>
<path fill="none" stroke="#9a32cd" stroke-dasharray="5,2" d="M161.126,-124.8463C176.9199,-95.963 206.7219,-41.4621 218.7235,-19.514"/>
<polygon fill="#9a32cd" stroke="#9a32cd" points="157.9028,-123.4458 156.1759,-133.899 164.0445,-126.8043 157.9028,-123.4458"/>
<text text-anchor="middle" x="202.4259" y="-74.5" font-family="Helvetica,sans-Serif" font-size="10.00" fill="#000000"> pos</text>
</g>
<!-- Node5&#45;&gt;Node1 -->
<g id="edge5" class="edge">
<title>Node5&#45;&gt;Node1</title>
<path fill="none" stroke="#9a32cd" stroke-dasharray="5,2" d="M292.6428,-61.1559C275.2923,-48.2395 251.3559,-30.4201 236.7968,-19.5817"/>
<polygon fill="#9a32cd" stroke="#9a32cd" points="290.9197,-64.2365 301.0311,-67.4005 295.0997,-58.6216 290.9197,-64.2365"/>
<text text-anchor="middle" x="288.9259" y="-41" font-family="Helvetica,sans-Serif" font-size="10.00" fill="#000000"> focus</text>
</g>
<!-- Node6 -->
<g id="node6" class="node">
<title>Node6</title>
<polygon fill="#ffffff" stroke="#bfbfbf" points="251.4259,-200.5 251.4259,-230.5 376.4259,-230.5 376.4259,-200.5 251.4259,-200.5"/>
<text text-anchor="start" x="259.4259" y="-218.5" font-family="Helvetica,sans-Serif" font-size="10.00" fill="#000000">vector&lt; RattletrapEngine</text>
<text text-anchor="middle" x="313.9259" y="-207.5" font-family="Helvetica,sans-Serif" font-size="10.00" fill="#000000">::Component *&gt;</text>
</g>
<!-- Node6&#45;&gt;Node5 -->
<g id="edge7" class="edge">
<title>Node6&#45;&gt;Node5</title>
<path fill="none" stroke="#9a32cd" stroke-dasharray="5,2" d="M313.9259,-190.3524C313.9259,-159.2798 313.9259,-107.9187 313.9259,-86.6668"/>
<polygon fill="#9a32cd" stroke="#9a32cd" points="310.426,-190.4144 313.9259,-200.4144 317.426,-190.4145 310.426,-190.4144"/>
<text text-anchor="middle" x="342.4259" y="-141" font-family="Helvetica,sans-Serif" font-size="10.00" fill="#000000"> components</text>
</g>
<!-- Node7&#45;&gt;Node5 -->
<g id="edge9" class="edge">
<title>Node7&#45;&gt;Node5</title>
<path fill="none" stroke="#9a32cd" stroke-dasharray="5,2" d="M440.7533,-197.1718C421.0107,-167.6147 383.3602,-112.007 374.9259,-105 365.5147,-97.1813 353.5617,-91.066 342.7352,-86.5721"/>
<polygon fill="#9a32cd" stroke="#9a32cd" points="438.0167,-199.3769 446.4742,-205.7583 443.8422,-195.4956 438.0167,-199.3769"/>
<text text-anchor="middle" x="438.4259" y="-141" font-family="Helvetica,sans-Serif" font-size="10.00" fill="#000000"> box</text>
</g>
</g>
</svg>
