<?xml version="1.0" encoding="UTF-8" standalone="no"?>
<!DOCTYPE svg PUBLIC "-//W3C//DTD SVG 1.1//EN"
 "http://www.w3.org/Graphics/SVG/1.1/DTD/svg11.dtd">
<!-- Generated by graphviz version 2.38.0 (20140413.2041)
 -->
<!-- Title: Camera Pages: 1 -->
<svg width="438pt" height="328pt"
 viewBox="0.00 0.00 437.78 328.00" xmlns="http://www.w3.org/2000/svg" xmlns:xlink="http://www.w3.org/1999/xlink">
<g id="graph0" class="graph" transform="scale(1 1) rotate(0) translate(4 324)">
<title>Camera</title>
<polygon fill="white" stroke="none" points="-4,4 -4,-324 433.784,-324 433.784,4 -4,4"/>
<!-- Node1 -->
<g id="node1" class="node"><title>Node1</title>
<polygon fill="#bfbfbf" stroke="black" points="152.284,-0.5 152.284,-19.5 203.284,-19.5 203.284,-0.5 152.284,-0.5"/>
<text text-anchor="middle" x="177.784" y="-7.5" font-family="Helvetica,sans-Serif" font-size="10.00">Camera</text>
</g>
<!-- Node2 -->
<g id="node2" class="node"><title>Node2</title>
<g id="a_node2"><a xlink:href="classVec2.html" target="_top" xlink:title="Classe que modela um vetor(no sentido físico) ">
<polygon fill="white" stroke="black" points="91.2842,-134 91.2842,-153 130.284,-153 130.284,-134 91.2842,-134"/>
<text text-anchor="middle" x="110.784" y="-141" font-family="Helvetica,sans-Serif" font-size="10.00">Vec2</text>
</a>
</g>
</g>
<!-- Node2&#45;&gt;Node1 -->
<g id="edge1" class="edge"><title>Node2&#45;&gt;Node1</title>
<path fill="none" stroke="#9a32cd" stroke-dasharray="5,2" d="M119.875,-124.658C134.418,-96.1134 162.388,-41.2173 173.284,-19.8323"/>
<polygon fill="#9a32cd" stroke="#9a32cd" points="116.601,-123.373 115.18,-133.872 122.839,-126.551 116.601,-123.373"/>
<text text-anchor="middle" x="158.284" y="-74.5" font-family="Helvetica,sans-Serif" font-size="10.00"> pos</text>
</g>
<!-- Node3 -->
<g id="node3" class="node"><title>Node3</title>
<polygon fill="white" stroke="#bfbfbf" points="105.284,-300.5 105.284,-319.5 140.284,-319.5 140.284,-300.5 105.284,-300.5"/>
<text text-anchor="middle" x="122.784" y="-307.5" font-family="Helvetica,sans-Serif" font-size="10.00">float</text>
</g>
<!-- Node3&#45;&gt;Node1 -->
<g id="edge9" class="edge"><title>Node3&#45;&gt;Node1</title>
<path fill="none" stroke="#9a32cd" stroke-dasharray="5,2" d="M103.326,-294.105C61.4893,-260.208 -30.043,-174.831 10.7842,-105 41.4302,-52.5828 113.253,-27.1291 151.969,-16.8339"/>
<polygon fill="#9a32cd" stroke="#9a32cd" points="101.196,-296.883 111.205,-300.356 105.547,-291.399 101.196,-296.883"/>
<text text-anchor="middle" x="46.2842" y="-174" font-family="Helvetica,sans-Serif" font-size="10.00"> minLogZoom</text>
<text text-anchor="middle" x="46.2842" y="-163" font-family="Helvetica,sans-Serif" font-size="10.00">minSpeed</text>
<text text-anchor="middle" x="46.2842" y="-152" font-family="Helvetica,sans-Serif" font-size="10.00">maxSpeed</text>
<text text-anchor="middle" x="46.2842" y="-141" font-family="Helvetica,sans-Serif" font-size="10.00">logZoomSpeed</text>
<text text-anchor="middle" x="46.2842" y="-130" font-family="Helvetica,sans-Serif" font-size="10.00">currentSpeed</text>
<text text-anchor="middle" x="46.2842" y="-119" font-family="Helvetica,sans-Serif" font-size="10.00">maxLogZoom</text>
<text text-anchor="middle" x="46.2842" y="-108" font-family="Helvetica,sans-Serif" font-size="10.00">currentLogZoom</text>
</g>
<!-- Node3&#45;&gt;Node2 -->
<g id="edge2" class="edge"><title>Node3&#45;&gt;Node2</title>
<path fill="none" stroke="#9a32cd" stroke-dasharray="5,2" d="M121.409,-290.156C118.821,-254.678 113.317,-179.217 111.433,-153.388"/>
<polygon fill="#9a32cd" stroke="#9a32cd" points="117.921,-290.437 122.139,-300.156 124.902,-289.928 117.921,-290.437"/>
<text text-anchor="middle" x="126.284" y="-263" font-family="Helvetica,sans-Serif" font-size="10.00"> x</text>
<text text-anchor="middle" x="126.284" y="-252" font-family="Helvetica,sans-Serif" font-size="10.00">y</text>
</g>
<!-- Node4 -->
<g id="node4" class="node"><title>Node4</title>
<g id="a_node4"><a xlink:href="classGameObject.html" target="_top" xlink:title="Classe virtual que especifica o funcionamento de um GameObject. ">
<polygon fill="white" stroke="black" points="183.284,-67.5 183.284,-86.5 254.284,-86.5 254.284,-67.5 183.284,-67.5"/>
<text text-anchor="middle" x="218.784" y="-74.5" font-family="Helvetica,sans-Serif" font-size="10.00">GameObject</text>
</a>
</g>
</g>
<!-- Node3&#45;&gt;Node4 -->
<g id="edge7" class="edge"><title>Node3&#45;&gt;Node4</title>
<path fill="none" stroke="#9a32cd" stroke-dasharray="5,2" d="M129.099,-290.447C130.022,-287.624 130.944,-284.74 131.784,-282 142.883,-245.813 140.804,-235.175 154.784,-200 172.452,-155.546 201.576,-106.089 213.473,-86.578"/>
<polygon fill="#9a32cd" stroke="#9a32cd" points="125.745,-289.441 125.893,-300.035 132.384,-291.661 125.745,-289.441"/>
<text text-anchor="middle" x="172.784" y="-207.5" font-family="Helvetica,sans-Serif" font-size="10.00"> rotation</text>
</g>
<!-- Node6 -->
<g id="node6" class="node"><title>Node6</title>
<g id="a_node6"><a xlink:href="classRect.html" target="_top" xlink:title="Classe que modela um rect. ">
<polygon fill="white" stroke="black" points="199.784,-200.5 199.784,-219.5 237.784,-219.5 237.784,-200.5 199.784,-200.5"/>
<text text-anchor="middle" x="218.784" y="-207.5" font-family="Helvetica,sans-Serif" font-size="10.00">Rect</text>
</a>
</g>
</g>
<!-- Node3&#45;&gt;Node6 -->
<g id="edge6" class="edge"><title>Node3&#45;&gt;Node6</title>
<path fill="none" stroke="#9a32cd" stroke-dasharray="5,2" d="M144.487,-294.54C149.698,-290.701 155.105,-286.394 159.784,-282 181.282,-261.814 202.356,-233.967 212.51,-219.899"/>
<polygon fill="#9a32cd" stroke="#9a32cd" points="142.214,-291.86 136.067,-300.489 146.254,-297.577 142.214,-291.86"/>
<text text-anchor="middle" x="204.284" y="-274" font-family="Helvetica,sans-Serif" font-size="10.00"> w</text>
<text text-anchor="middle" x="204.284" y="-263" font-family="Helvetica,sans-Serif" font-size="10.00">x</text>
<text text-anchor="middle" x="204.284" y="-252" font-family="Helvetica,sans-Serif" font-size="10.00">h</text>
<text text-anchor="middle" x="204.284" y="-241" font-family="Helvetica,sans-Serif" font-size="10.00">y</text>
</g>
<!-- Node4&#45;&gt;Node1 -->
<g id="edge3" class="edge"><title>Node4&#45;&gt;Node1</title>
<path fill="none" stroke="#9a32cd" stroke-dasharray="5,2" d="M207.768,-58.5347C199.829,-45.9499 189.458,-29.5072 183.226,-19.6273"/>
<polygon fill="#9a32cd" stroke="#9a32cd" points="204.959,-60.6431 213.255,-67.2338 210.88,-56.9085 204.959,-60.6431"/>
<text text-anchor="middle" x="214.784" y="-41" font-family="Helvetica,sans-Serif" font-size="10.00"> focus</text>
</g>
<!-- Node5 -->
<g id="node5" class="node"><title>Node5</title>
<polygon fill="white" stroke="#bfbfbf" points="255.784,-200.5 255.784,-219.5 371.784,-219.5 371.784,-200.5 255.784,-200.5"/>
<text text-anchor="middle" x="313.784" y="-207.5" font-family="Helvetica,sans-Serif" font-size="10.00">vector&lt; Component *&gt;</text>
</g>
<!-- Node5&#45;&gt;Node4 -->
<g id="edge4" class="edge"><title>Node5&#45;&gt;Node4</title>
<path fill="none" stroke="#9a32cd" stroke-dasharray="5,2" d="M283.218,-195.251C277.499,-191.594 272.002,-187.186 267.784,-182 244.992,-153.978 259.594,-136.425 241.784,-105 238.019,-98.3571 232.505,-91.8148 227.82,-86.8342"/>
<polygon fill="#9a32cd" stroke="#9a32cd" points="281.814,-198.478 292.236,-200.382 285.276,-192.394 281.814,-198.478"/>
<text text-anchor="middle" x="296.284" y="-141" font-family="Helvetica,sans-Serif" font-size="10.00"> components</text>
</g>
<!-- Node6&#45;&gt;Node4 -->
<g id="edge5" class="edge"><title>Node6&#45;&gt;Node4</title>
<path fill="none" stroke="#9a32cd" stroke-dasharray="5,2" d="M218.784,-190.09C218.784,-161.356 218.784,-107.822 218.784,-86.7987"/>
<polygon fill="#9a32cd" stroke="#9a32cd" points="215.284,-190.405 218.784,-200.405 222.284,-190.405 215.284,-190.405"/>
<text text-anchor="middle" x="228.284" y="-141" font-family="Helvetica,sans-Serif" font-size="10.00"> box</text>
</g>
<!-- Node7 -->
<g id="node7" class="node"><title>Node7</title>
<polygon fill="white" stroke="#bfbfbf" points="390.284,-200.5 390.284,-219.5 425.284,-219.5 425.284,-200.5 390.284,-200.5"/>
<text text-anchor="middle" x="407.784" y="-207.5" font-family="Helvetica,sans-Serif" font-size="10.00">bool</text>
</g>
<!-- Node7&#45;&gt;Node1 -->
<g id="edge10" class="edge"><title>Node7&#45;&gt;Node1</title>
<path fill="none" stroke="#9a32cd" stroke-dasharray="5,2" d="M410.387,-190.475C412.502,-167.951 412.575,-129.87 393.784,-105 346.693,-42.6769 249.633,-21.0259 203.381,-14.0491"/>
<polygon fill="#9a32cd" stroke="#9a32cd" points="406.909,-190.081 409.221,-200.421 413.862,-190.896 406.909,-190.081"/>
<text text-anchor="middle" x="403.784" y="-74.5" font-family="Helvetica,sans-Serif" font-size="10.00"> zoomFixed</text>
</g>
<!-- Node7&#45;&gt;Node4 -->
<g id="edge8" class="edge"><title>Node7&#45;&gt;Node4</title>
<path fill="none" stroke="#9a32cd" stroke-dasharray="5,2" d="M380.596,-199.313C367.025,-193.991 352.507,-187.394 347.784,-182 324.257,-155.127 350.55,-129.734 324.784,-105 306.084,-87.0487 277.189,-80.5645 254.288,-78.4225"/>
<polygon fill="#9a32cd" stroke="#9a32cd" points="379.566,-202.665 390.157,-202.928 382.041,-196.117 379.566,-202.665"/>
<text text-anchor="middle" x="370.784" y="-152" font-family="Helvetica,sans-Serif" font-size="10.00"> dead</text>
<text text-anchor="middle" x="370.784" y="-141" font-family="Helvetica,sans-Serif" font-size="10.00">active</text>
<text text-anchor="middle" x="370.784" y="-130" font-family="Helvetica,sans-Serif" font-size="10.00">newActive</text>
</g>
</g>
</svg>
