<?xml version="1.0" encoding="UTF-8" standalone="no"?>
<!DOCTYPE svg PUBLIC "-//W3C//DTD SVG 1.1//EN"
 "http://www.w3.org/Graphics/SVG/1.1/DTD/svg11.dtd">
<!-- Generated by graphviz version 2.38.0 (20140413.2041)
 -->
<!-- Title: TileMap&lt; T &gt; Pages: 1 -->
<svg width="779pt" height="424pt"
 viewBox="0.00 0.00 779.00 424.00" xmlns="http://www.w3.org/2000/svg" xmlns:xlink="http://www.w3.org/1999/xlink">
<g id="graph0" class="graph" transform="scale(1 1) rotate(0) translate(4 420)">
<title>TileMap&lt; T &gt;</title>
<polygon fill="white" stroke="none" points="-4,4 -4,-420 775,-420 775,4 -4,4"/>
<!-- Node3 -->
<g id="node1" class="node"><title>Node3</title>
<polygon fill="#bfbfbf" stroke="black" points="696,-143.5 696,-162.5 771,-162.5 771,-143.5 696,-143.5"/>
<text text-anchor="middle" x="733.5" y="-150.5" font-family="Helvetica,sans-Serif" font-size="10.00">TileMap&lt; T &gt;</text>
</g>
<!-- Node4 -->
<g id="node2" class="node"><title>Node4</title>
<g id="a_node2"><a xlink:href="classComponent.html" target="_top" xlink:title="Modela os componentes. ">
<polygon fill="white" stroke="black" points="487,-287.5 487,-306.5 554,-306.5 554,-287.5 487,-287.5"/>
<text text-anchor="middle" x="520.5" y="-294.5" font-family="Helvetica,sans-Serif" font-size="10.00">Component</text>
</a>
</g>
</g>
<!-- Node4&#45;&gt;Node3 -->
<g id="edge1" class="edge"><title>Node4&#45;&gt;Node3</title>
<path fill="none" stroke="midnightblue" d="M564.405,-293.456C598.458,-288.671 645.57,-277.426 678,-251 707.58,-226.896 723.813,-182.256 729.797,-162.654"/>
<polygon fill="midnightblue" stroke="midnightblue" points="563.766,-290.009 554.287,-294.743 564.649,-296.953 563.766,-290.009"/>
</g>
<!-- Node5 -->
<g id="node3" class="node"><title>Node5</title>
<g id="a_node3"><a xlink:href="classGameObject.html" target="_top" xlink:title="Classe virtual que especifica o funcionamento de um GameObject. ">
<polygon fill="white" stroke="black" points="291,-331.5 291,-350.5 362,-350.5 362,-331.5 291,-331.5"/>
<text text-anchor="middle" x="326.5" y="-338.5" font-family="Helvetica,sans-Serif" font-size="10.00">GameObject</text>
</a>
</g>
</g>
<!-- Node5&#45;&gt;Node4 -->
<g id="edge2" class="edge"><title>Node5&#45;&gt;Node4</title>
<path fill="none" stroke="#9a32cd" stroke-dasharray="5,2" d="M372.258,-330.743C407.358,-322.699 455.385,-311.693 486.909,-304.469"/>
<polygon fill="#9a32cd" stroke="#9a32cd" points="371.235,-327.387 362.27,-333.032 372.799,-334.21 371.235,-327.387"/>
<text text-anchor="middle" x="405.5" y="-330" font-family="Helvetica,sans-Serif" font-size="10.00"> associated</text>
</g>
<!-- Node6 -->
<g id="node4" class="node"><title>Node6</title>
<polygon fill="white" stroke="#bfbfbf" points="82,-396.5 82,-415.5 198,-415.5 198,-396.5 82,-396.5"/>
<text text-anchor="middle" x="140" y="-403.5" font-family="Helvetica,sans-Serif" font-size="10.00">vector&lt; Component *&gt;</text>
</g>
<!-- Node6&#45;&gt;Node5 -->
<g id="edge3" class="edge"><title>Node6&#45;&gt;Node5</title>
<path fill="none" stroke="#9a32cd" stroke-dasharray="5,2" d="M208.26,-399.418C229.596,-395.728 252.86,-389.973 273,-381 289.747,-373.539 306.068,-359.779 315.954,-350.509"/>
<polygon fill="#9a32cd" stroke="#9a32cd" points="207.607,-395.978 198.289,-401.02 208.718,-402.889 207.607,-395.978"/>
<text text-anchor="middle" x="244.5" y="-400" font-family="Helvetica,sans-Serif" font-size="10.00"> components</text>
</g>
<!-- Node7 -->
<g id="node5" class="node"><title>Node7</title>
<g id="a_node5"><a xlink:href="classRect.html" target="_top" xlink:title="Classe que modela um rect. ">
<polygon fill="white" stroke="black" points="121,-305.5 121,-324.5 159,-324.5 159,-305.5 121,-305.5"/>
<text text-anchor="middle" x="140" y="-312.5" font-family="Helvetica,sans-Serif" font-size="10.00">Rect</text>
</a>
</g>
</g>
<!-- Node7&#45;&gt;Node5 -->
<g id="edge4" class="edge"><title>Node7&#45;&gt;Node5</title>
<path fill="none" stroke="#9a32cd" stroke-dasharray="5,2" d="M169.233,-318.979C201.884,-323.58 255.642,-331.156 290.811,-336.112"/>
<polygon fill="#9a32cd" stroke="#9a32cd" points="169.417,-315.47 159.027,-317.54 168.44,-322.402 169.417,-315.47"/>
<text text-anchor="middle" x="244.5" y="-336" font-family="Helvetica,sans-Serif" font-size="10.00"> box</text>
</g>
<!-- Node8 -->
<g id="node6" class="node"><title>Node8</title>
<polygon fill="white" stroke="#bfbfbf" points="0,-327.5 0,-346.5 35,-346.5 35,-327.5 0,-327.5"/>
<text text-anchor="middle" x="17.5" y="-334.5" font-family="Helvetica,sans-Serif" font-size="10.00">float</text>
</g>
<!-- Node8&#45;&gt;Node5 -->
<g id="edge6" class="edge"><title>Node8&#45;&gt;Node5</title>
<path fill="none" stroke="#9a32cd" stroke-dasharray="5,2" d="M44.4444,-350.453C47.2741,-351.488 50.1591,-352.373 53,-353 57.7741,-354.053 59.1115,-353.058 64,-353 156.909,-351.889 180.369,-355.262 273,-348 278.775,-347.547 284.888,-346.893 290.821,-346.165"/>
<polygon fill="#9a32cd" stroke="#9a32cd" points="45.7523,-347.205 35.1806,-346.506 43.009,-353.646 45.7523,-347.205"/>
<text text-anchor="middle" x="140" y="-355" font-family="Helvetica,sans-Serif" font-size="10.00"> rotation</text>
</g>
<!-- Node8&#45;&gt;Node7 -->
<g id="edge5" class="edge"><title>Node8&#45;&gt;Node7</title>
<path fill="none" stroke="#9a32cd" stroke-dasharray="5,2" d="M34.393,-320.346C39.8111,-315.767 46.2252,-311.403 53,-309 75.428,-301.044 103.171,-305.285 120.976,-309.642"/>
<polygon fill="#9a32cd" stroke="#9a32cd" points="31.6961,-318.076 26.7896,-327.466 36.481,-323.185 31.6961,-318.076"/>
<text text-anchor="middle" x="58.5" y="-345" font-family="Helvetica,sans-Serif" font-size="10.00"> w</text>
<text text-anchor="middle" x="58.5" y="-334" font-family="Helvetica,sans-Serif" font-size="10.00">x</text>
<text text-anchor="middle" x="58.5" y="-323" font-family="Helvetica,sans-Serif" font-size="10.00">h</text>
<text text-anchor="middle" x="58.5" y="-312" font-family="Helvetica,sans-Serif" font-size="10.00">y</text>
</g>
<!-- Node9 -->
<g id="node7" class="node"><title>Node9</title>
<polygon fill="white" stroke="#bfbfbf" points="122.5,-252.5 122.5,-271.5 157.5,-271.5 157.5,-252.5 122.5,-252.5"/>
<text text-anchor="middle" x="140" y="-259.5" font-family="Helvetica,sans-Serif" font-size="10.00">bool</text>
</g>
<!-- Node9&#45;&gt;Node4 -->
<g id="edge8" class="edge"><title>Node9&#45;&gt;Node4</title>
<path fill="none" stroke="#9a32cd" stroke-dasharray="5,2" d="M167.797,-262.069C194.494,-262.312 236.637,-263.169 273,-266 349.974,-271.993 439.82,-284.761 486.904,-291.9"/>
<polygon fill="#9a32cd" stroke="#9a32cd" points="167.721,-258.568 157.697,-261.999 167.673,-265.568 167.721,-258.568"/>
<text text-anchor="middle" x="326.5" y="-288" font-family="Helvetica,sans-Serif" font-size="10.00"> newEnabled</text>
<text text-anchor="middle" x="326.5" y="-277" font-family="Helvetica,sans-Serif" font-size="10.00">enabled</text>
</g>
<!-- Node9&#45;&gt;Node5 -->
<g id="edge7" class="edge"><title>Node9&#45;&gt;Node5</title>
<path fill="none" stroke="#9a32cd" stroke-dasharray="5,2" d="M168.064,-262.723C195.895,-264.485 239.747,-270.164 273,-288 292.859,-298.652 309.976,-319.308 318.904,-331.449"/>
<polygon fill="#9a32cd" stroke="#9a32cd" points="168.054,-259.218 157.89,-262.208 167.701,-266.209 168.054,-259.218"/>
<text text-anchor="middle" x="244.5" y="-313" font-family="Helvetica,sans-Serif" font-size="10.00"> dead</text>
<text text-anchor="middle" x="244.5" y="-302" font-family="Helvetica,sans-Serif" font-size="10.00">active</text>
<text text-anchor="middle" x="244.5" y="-291" font-family="Helvetica,sans-Serif" font-size="10.00">newActive</text>
</g>
<!-- Node10 -->
<g id="node8" class="node"><title>Node10</title>
<g id="a_node8"><a xlink:href="classNearestFinder.html" target="_top" xlink:title="NearestFinder\&lt; T \&gt;">
<polygon fill="white" stroke="black" points="469.5,-249.5 469.5,-268.5 571.5,-268.5 571.5,-249.5 469.5,-249.5"/>
<text text-anchor="middle" x="520.5" y="-256.5" font-family="Helvetica,sans-Serif" font-size="10.00">NearestFinder&lt; T &gt;</text>
</a>
</g>
</g>
<!-- Node10&#45;&gt;Node3 -->
<g id="edge9" class="edge"><title>Node10&#45;&gt;Node3</title>
<path fill="none" stroke="#8b1a1a" d="M581.912,-255.264C612.641,-251.042 649.43,-242.235 678,-224 702.363,-208.45 720.094,-178.016 727.969,-162.535"/>
<polygon fill="#8b1a1a" stroke="#8b1a1a" points="581.236,-251.821 571.744,-256.527 582.099,-258.768 581.236,-251.821"/>
</g>
<!-- Node11 -->
<g id="node9" class="node"><title>Node11</title>
<polygon fill="white" stroke="#bfbfbf" points="471,-211.5 471,-230.5 570,-230.5 570,-211.5 471,-211.5"/>
<text text-anchor="middle" x="520.5" y="-218.5" font-family="Helvetica,sans-Serif" font-size="10.00">vector&lt; TileSet * &gt;</text>
</g>
<!-- Node11&#45;&gt;Node3 -->
<g id="edge10" class="edge"><title>Node11&#45;&gt;Node3</title>
<path fill="none" stroke="#9a32cd" stroke-dasharray="5,2" d="M580.084,-214.436C610.165,-209.731 646.924,-201.873 678,-189 693.924,-182.404 710.152,-170.949 720.709,-162.731"/>
<polygon fill="#9a32cd" stroke="#9a32cd" points="579.532,-210.98 570.156,-215.914 580.562,-217.904 579.532,-210.98"/>
<text text-anchor="middle" x="644" y="-212" font-family="Helvetica,sans-Serif" font-size="10.00"> tileSets</text>
</g>
<!-- Node12 -->
<g id="node10" class="node"><title>Node12</title>
<polygon fill="white" stroke="#bfbfbf" points="449,-173.5 449,-192.5 592,-192.5 592,-173.5 449,-173.5"/>
<text text-anchor="middle" x="520.5" y="-180.5" font-family="Helvetica,sans-Serif" font-size="10.00">vector&lt; TileMapObserver * &gt;</text>
</g>
<!-- Node12&#45;&gt;Node3 -->
<g id="edge11" class="edge"><title>Node12&#45;&gt;Node3</title>
<path fill="none" stroke="#9a32cd" stroke-dasharray="5,2" d="M602.168,-175.317C626.602,-172.561 653.462,-169.102 678,-165 683.829,-164.026 689.975,-162.834 695.955,-161.585"/>
<polygon fill="#9a32cd" stroke="#9a32cd" points="601.775,-171.839 592.22,-176.416 602.543,-178.797 601.775,-171.839"/>
<text text-anchor="middle" x="644" y="-177" font-family="Helvetica,sans-Serif" font-size="10.00"> observers</text>
</g>
<!-- Node13 -->
<g id="node11" class="node"><title>Node13</title>
<polygon fill="white" stroke="#bfbfbf" points="506,-114.5 506,-133.5 535,-133.5 535,-114.5 506,-114.5"/>
<text text-anchor="middle" x="520.5" y="-121.5" font-family="Helvetica,sans-Serif" font-size="10.00">int</text>
</g>
<!-- Node13&#45;&gt;Node3 -->
<g id="edge12" class="edge"><title>Node13&#45;&gt;Node3</title>
<path fill="none" stroke="#9a32cd" stroke-dasharray="5,2" d="M545.108,-119.493C576.192,-114.468 632.258,-108.564 678,-121 693.882,-125.318 709.863,-135.562 720.375,-143.305"/>
<polygon fill="#9a32cd" stroke="#9a32cd" points="544.471,-116.051 535.213,-121.202 545.662,-122.949 544.471,-116.051"/>
<text text-anchor="middle" x="644" y="-157" font-family="Helvetica,sans-Serif" font-size="10.00"> mapDepth</text>
<text text-anchor="middle" x="644" y="-146" font-family="Helvetica,sans-Serif" font-size="10.00">currentTileSet</text>
<text text-anchor="middle" x="644" y="-135" font-family="Helvetica,sans-Serif" font-size="10.00">mapHeight</text>
<text text-anchor="middle" x="644" y="-124" font-family="Helvetica,sans-Serif" font-size="10.00">mapWidth</text>
</g>
<!-- Node14 -->
<g id="node12" class="node"><title>Node14</title>
<polygon fill="white" stroke="#bfbfbf" points="486.5,-76.5 486.5,-95.5 554.5,-95.5 554.5,-76.5 486.5,-76.5"/>
<text text-anchor="middle" x="520.5" y="-83.5" font-family="Helvetica,sans-Serif" font-size="10.00">vector&lt; T &gt;</text>
</g>
<!-- Node14&#45;&gt;Node3 -->
<g id="edge13" class="edge"><title>Node14&#45;&gt;Node3</title>
<path fill="none" stroke="#9a32cd" stroke-dasharray="5,2" d="M564.732,-81.8501C597.331,-80.5112 642.363,-82.5771 678,-99 699.291,-108.812 717.066,-130.656 726.097,-143.35"/>
<polygon fill="#9a32cd" stroke="#9a32cd" points="564.412,-78.3621 554.612,-82.3906 564.785,-85.3522 564.412,-78.3621"/>
<text text-anchor="middle" x="644" y="-102" font-family="Helvetica,sans-Serif" font-size="10.00"> tileMatrix</text>
</g>
<!-- Node15 -->
<g id="node13" class="node"><title>Node15</title>
<polygon fill="white" stroke="#bfbfbf" points="480.5,-38.5 480.5,-57.5 560.5,-57.5 560.5,-38.5 480.5,-38.5"/>
<text text-anchor="middle" x="520.5" y="-45.5" font-family="Helvetica,sans-Serif" font-size="10.00">vector&lt; float &gt;</text>
</g>
<!-- Node15&#45;&gt;Node3 -->
<g id="edge14" class="edge"><title>Node15&#45;&gt;Node3</title>
<path fill="none" stroke="#9a32cd" stroke-dasharray="5,2" d="M570.839,-43.9469C603.596,-43.6162 646.247,-47.9208 678,-68 706.595,-86.0824 723.05,-125.212 729.418,-143.376"/>
<polygon fill="#9a32cd" stroke="#9a32cd" points="570.487,-40.4545 560.577,-44.203 570.662,-47.4523 570.487,-40.4545"/>
<text text-anchor="middle" x="644" y="-71" font-family="Helvetica,sans-Serif" font-size="10.00"> parallaxWeight</text>
</g>
<!-- Node16 -->
<g id="node14" class="node"><title>Node16</title>
<polygon fill="white" stroke="#bfbfbf" points="480.5,-0.5 480.5,-19.5 560.5,-19.5 560.5,-0.5 480.5,-0.5"/>
<text text-anchor="middle" x="520.5" y="-7.5" font-family="Helvetica,sans-Serif" font-size="10.00">vector&lt; bool &gt;</text>
</g>
<!-- Node16&#45;&gt;Node3 -->
<g id="edge15" class="edge"><title>Node16&#45;&gt;Node3</title>
<path fill="none" stroke="#9a32cd" stroke-dasharray="5,2" d="M570.819,-5.2393C604.191,-4.61674 647.568,-9.16999 678,-32 715.413,-60.0669 727.761,-119.706 731.27,-143.198"/>
<polygon fill="#9a32cd" stroke="#9a32cd" points="570.682,-1.74183 560.809,-5.58417 570.923,-8.73768 570.682,-1.74183"/>
<text text-anchor="middle" x="644" y="-35" font-family="Helvetica,sans-Serif" font-size="10.00"> layersVisibility</text>
</g>
</g>
</svg>
