<?xml version="1.0" encoding="UTF-8" standalone="no"?>
<!DOCTYPE svg PUBLIC "-//W3C//DTD SVG 1.1//EN"
 "http://www.w3.org/Graphics/SVG/1.1/DTD/svg11.dtd">
<!-- Generated by graphviz version 2.38.0 (20140413.2041)
 -->
<!-- Title: Sprite Pages: 1 -->
<svg width="897pt" height="441pt"
 viewBox="0.00 0.00 897.00 441.00" xmlns="http://www.w3.org/2000/svg" xmlns:xlink="http://www.w3.org/1999/xlink">
<g id="graph0" class="graph" transform="scale(1 1) rotate(0) translate(4 437)">
<title>Sprite</title>
<polygon fill="white" stroke="none" points="-4,4 -4,-437 893,-437 893,4 -4,4"/>
<!-- Node2 -->
<g id="node1" class="node"><title>Node2</title>
<polygon fill="#bfbfbf" stroke="black" points="471,-0.5 471,-19.5 513,-19.5 513,-0.5 471,-0.5"/>
<text text-anchor="middle" x="492" y="-7.5" font-family="Helvetica,sans-Serif" font-size="10.00">Sprite</text>
</g>
<!-- Node3 -->
<g id="node2" class="node"><title>Node3</title>
<g id="a_node2"><a xlink:href="classComponent.html" target="_top" xlink:title="Modela os componentes. ">
<polygon fill="white" stroke="black" points="282.5,-100.5 282.5,-119.5 349.5,-119.5 349.5,-100.5 282.5,-100.5"/>
<text text-anchor="middle" x="316" y="-107.5" font-family="Helvetica,sans-Serif" font-size="10.00">Component</text>
</a>
</g>
</g>
<!-- Node3&#45;&gt;Node2 -->
<g id="edge1" class="edge"><title>Node3&#45;&gt;Node2</title>
<path fill="none" stroke="midnightblue" d="M328.578,-91.9458C341.47,-75.6854 362.983,-51.7046 387,-38 413.484,-22.8877 448.496,-16.0897 470.638,-13.135"/>
<polygon fill="midnightblue" stroke="midnightblue" points="325.654,-90.007 322.342,-100.071 331.207,-94.269 325.654,-90.007"/>
</g>
<!-- Node4 -->
<g id="node3" class="node"><title>Node4</title>
<g id="a_node3"><a xlink:href="classGameObject.html" target="_top" xlink:title="Classe virtual que especifica o funcionamento de um GameObject. ">
<polygon fill="white" stroke="black" points="177.5,-212.5 177.5,-231.5 248.5,-231.5 248.5,-212.5 177.5,-212.5"/>
<text text-anchor="middle" x="213" y="-219.5" font-family="Helvetica,sans-Serif" font-size="10.00">GameObject</text>
</a>
</g>
</g>
<!-- Node4&#45;&gt;Node3 -->
<g id="edge2" class="edge"><title>Node4&#45;&gt;Node3</title>
<path fill="none" stroke="#9a32cd" stroke-dasharray="5,2" d="M217.27,-202.368C222.396,-183.832 232.687,-155.672 251,-138 259.705,-129.6 271.398,-123.659 282.467,-119.531"/>
<polygon fill="#9a32cd" stroke="#9a32cd" points="213.829,-201.7 214.772,-212.253 220.615,-203.415 213.829,-201.7"/>
<text text-anchor="middle" x="276.5" y="-157.5" font-family="Helvetica,sans-Serif" font-size="10.00"> associated</text>
</g>
<!-- Node5 -->
<g id="node4" class="node"><title>Node5</title>
<polygon fill="white" stroke="#bfbfbf" points="28,-313.5 28,-332.5 144,-332.5 144,-313.5 28,-313.5"/>
<text text-anchor="middle" x="86" y="-320.5" font-family="Helvetica,sans-Serif" font-size="10.00">vector&lt; Component *&gt;</text>
</g>
<!-- Node5&#45;&gt;Node4 -->
<g id="edge3" class="edge"><title>Node5&#45;&gt;Node4</title>
<path fill="none" stroke="#9a32cd" stroke-dasharray="5,2" d="M88.921,-303.594C91.8954,-290.446 97.743,-273.175 109,-262 127.338,-243.795 154.973,-233.963 177.148,-228.726"/>
<polygon fill="#9a32cd" stroke="#9a32cd" points="85.4778,-302.965 87.0425,-313.444 92.3539,-304.277 85.4778,-302.965"/>
<text text-anchor="middle" x="137.5" y="-276" font-family="Helvetica,sans-Serif" font-size="10.00"> components</text>
</g>
<!-- Node6 -->
<g id="node5" class="node"><title>Node6</title>
<g id="a_node5"><a xlink:href="classRect.html" target="_top" xlink:title="Classe que modela um rect. ">
<polygon fill="white" stroke="black" points="234,-313.5 234,-332.5 272,-332.5 272,-313.5 234,-313.5"/>
<text text-anchor="middle" x="253" y="-320.5" font-family="Helvetica,sans-Serif" font-size="10.00">Rect</text>
</a>
</g>
</g>
<!-- Node6&#45;&gt;Node4 -->
<g id="edge4" class="edge"><title>Node6&#45;&gt;Node4</title>
<path fill="none" stroke="#9a32cd" stroke-dasharray="5,2" d="M225.446,-308.009C220.855,-304.411 216.711,-300.087 214,-295 203.066,-274.479 207.492,-245.769 210.731,-231.603"/>
<polygon fill="#9a32cd" stroke="#9a32cd" points="223.72,-311.065 233.98,-313.708 227.608,-305.244 223.72,-311.065"/>
<text text-anchor="middle" x="223.5" y="-276" font-family="Helvetica,sans-Serif" font-size="10.00"> box</text>
</g>
<!-- Node7 -->
<g id="node6" class="node"><title>Node7</title>
<polygon fill="white" stroke="#bfbfbf" points="162.5,-413.5 162.5,-432.5 197.5,-432.5 197.5,-413.5 162.5,-413.5"/>
<text text-anchor="middle" x="180" y="-420.5" font-family="Helvetica,sans-Serif" font-size="10.00">float</text>
</g>
<!-- Node7&#45;&gt;Node2 -->
<g id="edge9" class="edge"><title>Node7&#45;&gt;Node2</title>
<path fill="none" stroke="#9a32cd" stroke-dasharray="5,2" d="M152.178,-419.534C101.655,-413.367 0,-392.453 0,-324 0,-324 0,-324 0,-109 0,-11.454 376.688,-9.58225 470.859,-10.6385"/>
<polygon fill="#9a32cd" stroke="#9a32cd" points="152.089,-423.045 162.413,-420.666 152.859,-416.088 152.089,-423.045"/>
<text text-anchor="middle" x="27.5" y="-236" font-family="Helvetica,sans-Serif" font-size="10.00"> scaleY</text>
<text text-anchor="middle" x="27.5" y="-225" font-family="Helvetica,sans-Serif" font-size="10.00">frameTime</text>
<text text-anchor="middle" x="27.5" y="-214" font-family="Helvetica,sans-Serif" font-size="10.00">timeElapsed</text>
<text text-anchor="middle" x="27.5" y="-203" font-family="Helvetica,sans-Serif" font-size="10.00">scaleX</text>
</g>
<!-- Node7&#45;&gt;Node4 -->
<g id="edge6" class="edge"><title>Node7&#45;&gt;Node4</title>
<path fill="none" stroke="#9a32cd" stroke-dasharray="5,2" d="M180.532,-403.294C181.386,-381.479 183.562,-344.401 189,-313 194.271,-282.566 205.036,-247.446 210.163,-231.574"/>
<polygon fill="#9a32cd" stroke="#9a32cd" points="177.028,-403.342 180.189,-413.455 184.024,-403.579 177.028,-403.342"/>
<text text-anchor="middle" x="207" y="-320.5" font-family="Helvetica,sans-Serif" font-size="10.00"> rotation</text>
</g>
<!-- Node7&#45;&gt;Node6 -->
<g id="edge5" class="edge"><title>Node7&#45;&gt;Node6</title>
<path fill="none" stroke="#9a32cd" stroke-dasharray="5,2" d="M192.485,-405.239C208.197,-384.146 234.582,-348.726 246.64,-332.537"/>
<polygon fill="#9a32cd" stroke="#9a32cd" points="189.645,-403.193 186.478,-413.303 195.259,-407.374 189.645,-403.193"/>
<text text-anchor="middle" x="237.5" y="-387" font-family="Helvetica,sans-Serif" font-size="10.00"> w</text>
<text text-anchor="middle" x="237.5" y="-376" font-family="Helvetica,sans-Serif" font-size="10.00">x</text>
<text text-anchor="middle" x="237.5" y="-365" font-family="Helvetica,sans-Serif" font-size="10.00">h</text>
<text text-anchor="middle" x="237.5" y="-354" font-family="Helvetica,sans-Serif" font-size="10.00">y</text>
</g>
<!-- Node8 -->
<g id="node7" class="node"><title>Node8</title>
<polygon fill="white" stroke="#bfbfbf" points="298.5,-313.5 298.5,-332.5 333.5,-332.5 333.5,-313.5 298.5,-313.5"/>
<text text-anchor="middle" x="316" y="-320.5" font-family="Helvetica,sans-Serif" font-size="10.00">bool</text>
</g>
<!-- Node8&#45;&gt;Node2 -->
<g id="edge13" class="edge"><title>Node8&#45;&gt;Node2</title>
<path fill="none" stroke="#9a32cd" stroke-dasharray="5,2" d="M331.664,-305.793C345.352,-290.835 364.881,-267.453 377,-244 421.729,-157.439 387.26,-110.816 452,-38 458.569,-30.6115 467.581,-24.2977 475.388,-19.6377"/>
<polygon fill="#9a32cd" stroke="#9a32cd" points="329.024,-303.491 324.744,-313.183 334.134,-308.276 329.024,-303.491"/>
<text text-anchor="middle" x="436" y="-157.5" font-family="Helvetica,sans-Serif" font-size="10.00"> highlightable</text>
</g>
<!-- Node8&#45;&gt;Node3 -->
<g id="edge8" class="edge"><title>Node8&#45;&gt;Node3</title>
<path fill="none" stroke="#9a32cd" stroke-dasharray="5,2" d="M316,-303.378C316,-259.622 316,-151.567 316,-119.873"/>
<polygon fill="#9a32cd" stroke="#9a32cd" points="312.5,-303.467 316,-313.467 319.5,-303.467 312.5,-303.467"/>
<text text-anchor="middle" x="344.5" y="-225" font-family="Helvetica,sans-Serif" font-size="10.00"> newEnabled</text>
<text text-anchor="middle" x="344.5" y="-214" font-family="Helvetica,sans-Serif" font-size="10.00">enabled</text>
</g>
<!-- Node8&#45;&gt;Node4 -->
<g id="edge7" class="edge"><title>Node8&#45;&gt;Node4</title>
<path fill="none" stroke="#9a32cd" stroke-dasharray="5,2" d="M288.713,-313.765C277.664,-309.46 265.339,-303.318 256,-295 245.4,-285.558 225.999,-248.725 217.355,-231.708"/>
<polygon fill="#9a32cd" stroke="#9a32cd" points="287.784,-317.15 298.379,-317.213 290.136,-310.557 287.784,-317.15"/>
<text text-anchor="middle" x="279" y="-287" font-family="Helvetica,sans-Serif" font-size="10.00"> dead</text>
<text text-anchor="middle" x="279" y="-276" font-family="Helvetica,sans-Serif" font-size="10.00">active</text>
<text text-anchor="middle" x="279" y="-265" font-family="Helvetica,sans-Serif" font-size="10.00">newActive</text>
</g>
<!-- Node9 -->
<g id="node8" class="node"><title>Node9</title>
<polygon fill="white" stroke="#bfbfbf" points="429,-100.5 429,-119.5 491,-119.5 491,-100.5 429,-100.5"/>
<text text-anchor="middle" x="460" y="-107.5" font-family="Helvetica,sans-Serif" font-size="10.00">SDL_Rect</text>
</g>
<!-- Node9&#45;&gt;Node2 -->
<g id="edge10" class="edge"><title>Node9&#45;&gt;Node2</title>
<path fill="none" stroke="#9a32cd" stroke-dasharray="5,2" d="M456.628,-90.1809C454.86,-75.3149 454.412,-54.4115 462,-38 465.47,-30.495 472.115,-24.1721 478.271,-19.5362"/>
<polygon fill="#9a32cd" stroke="#9a32cd" points="453.185,-90.8254 458.126,-100.198 460.108,-89.79 453.185,-90.8254"/>
<text text-anchor="middle" x="482" y="-57.5" font-family="Helvetica,sans-Serif" font-size="10.00"> clipRect</text>
</g>
<!-- Node10 -->
<g id="node9" class="node"><title>Node10</title>
<polygon fill="white" stroke="#bfbfbf" points="509.5,-100.5 509.5,-119.5 538.5,-119.5 538.5,-100.5 509.5,-100.5"/>
<text text-anchor="middle" x="524" y="-107.5" font-family="Helvetica,sans-Serif" font-size="10.00">int</text>
</g>
<!-- Node10&#45;&gt;Node2 -->
<g id="edge11" class="edge"><title>Node10&#45;&gt;Node2</title>
<path fill="none" stroke="#9a32cd" stroke-dasharray="5,2" d="M518.577,-90.5323C514.282,-76.1503 508.022,-55.7204 502,-38 499.941,-31.942 497.441,-25.192 495.456,-19.9565"/>
<polygon fill="#9a32cd" stroke="#9a32cd" points="515.246,-91.612 521.442,-100.206 521.958,-89.6241 515.246,-91.612"/>
<text text-anchor="middle" x="545" y="-74" font-family="Helvetica,sans-Serif" font-size="10.00"> width</text>
<text text-anchor="middle" x="545" y="-63" font-family="Helvetica,sans-Serif" font-size="10.00">currentFrame</text>
<text text-anchor="middle" x="545" y="-52" font-family="Helvetica,sans-Serif" font-size="10.00">height</text>
<text text-anchor="middle" x="545" y="-41" font-family="Helvetica,sans-Serif" font-size="10.00">frameCount</text>
</g>
<!-- Node11 -->
<g id="node10" class="node"><title>Node11</title>
<polygon fill="white" stroke="#bfbfbf" points="557,-100.5 557,-119.5 695,-119.5 695,-100.5 557,-100.5"/>
<text text-anchor="middle" x="626" y="-107.5" font-family="Helvetica,sans-Serif" font-size="10.00">shared_ptr&lt; SDL_Texture &gt;</text>
</g>
<!-- Node11&#45;&gt;Node2 -->
<g id="edge12" class="edge"><title>Node11&#45;&gt;Node2</title>
<path fill="none" stroke="#9a32cd" stroke-dasharray="5,2" d="M617.997,-90.7555C610.052,-74.6667 596.401,-51.7082 578,-38 558.799,-23.6962 531.831,-16.8457 513.238,-13.6487"/>
<polygon fill="#9a32cd" stroke="#9a32cd" points="614.989,-92.5861 622.387,-100.17 621.333,-89.6277 614.989,-92.5861"/>
<text text-anchor="middle" x="630" y="-57.5" font-family="Helvetica,sans-Serif" font-size="10.00"> texture</text>
</g>
<!-- Node12 -->
<g id="node11" class="node"><title>Node12</title>
<polygon fill="white" stroke="#bfbfbf" points="713,-100.5 713,-119.5 803,-119.5 803,-100.5 713,-100.5"/>
<text text-anchor="middle" x="758" y="-107.5" font-family="Helvetica,sans-Serif" font-size="10.00">SDL_BlendMode</text>
</g>
<!-- Node12&#45;&gt;Node2 -->
<g id="edge14" class="edge"><title>Node12&#45;&gt;Node2</title>
<path fill="none" stroke="#9a32cd" stroke-dasharray="5,2" d="M740.474,-93.9704C720.289,-77.5111 685.461,-51.6452 651,-38 604.011,-19.3938 544.239,-13.6026 513.07,-11.8051"/>
<polygon fill="#9a32cd" stroke="#9a32cd" points="738.258,-96.6802 748.184,-100.385 742.735,-91.299 738.258,-96.6802"/>
<text text-anchor="middle" x="750.5" y="-57.5" font-family="Helvetica,sans-Serif" font-size="10.00"> blendMode</text>
</g>
<!-- Node13 -->
<g id="node12" class="node"><title>Node13</title>
<g id="a_node12"><a xlink:href="structColor.html" target="_top" xlink:title="Struct para armazenar informações de cor. ">
<polygon fill="white" stroke="black" points="821,-100.5 821,-119.5 861,-119.5 861,-100.5 821,-100.5"/>
<text text-anchor="middle" x="841" y="-107.5" font-family="Helvetica,sans-Serif" font-size="10.00">Color</text>
</a>
</g>
</g>
<!-- Node13&#45;&gt;Node2 -->
<g id="edge15" class="edge"><title>Node13&#45;&gt;Node2</title>
<path fill="none" stroke="#9a32cd" stroke-dasharray="5,2" d="M831.378,-91.4673C821.074,-74.588 803.048,-49.9183 780,-38 733.496,-13.9523 571.703,-11.166 513.263,-10.96"/>
<polygon fill="#9a32cd" stroke="#9a32cd" points="828.486,-93.4569 836.532,-100.35 834.541,-89.944 828.486,-93.4569"/>
<text text-anchor="middle" x="857" y="-57.5" font-family="Helvetica,sans-Serif" font-size="10.00"> colorMultiplier</text>
</g>
<!-- Node14 -->
<g id="node13" class="node"><title>Node14</title>
<polygon fill="white" stroke="#bfbfbf" points="802.5,-212.5 802.5,-231.5 879.5,-231.5 879.5,-212.5 802.5,-212.5"/>
<text text-anchor="middle" x="841" y="-219.5" font-family="Helvetica,sans-Serif" font-size="10.00">unsigned char</text>
</g>
<!-- Node14&#45;&gt;Node13 -->
<g id="edge16" class="edge"><title>Node14&#45;&gt;Node13</title>
<path fill="none" stroke="#9a32cd" stroke-dasharray="5,2" d="M841,-202.348C841,-178.254 841,-137.308 841,-119.591"/>
<polygon fill="#9a32cd" stroke="#9a32cd" points="837.5,-202.368 841,-212.368 844.5,-202.369 837.5,-202.368"/>
<text text-anchor="middle" x="845.5" y="-174" font-family="Helvetica,sans-Serif" font-size="10.00"> g</text>
<text text-anchor="middle" x="845.5" y="-163" font-family="Helvetica,sans-Serif" font-size="10.00">a</text>
<text text-anchor="middle" x="845.5" y="-152" font-family="Helvetica,sans-Serif" font-size="10.00">r</text>
<text text-anchor="middle" x="845.5" y="-141" font-family="Helvetica,sans-Serif" font-size="10.00">b</text>
</g>
</g>
</svg>
