<?xml version="1.0" encoding="UTF-8" standalone="no"?>
<!DOCTYPE svg PUBLIC "-//W3C//DTD SVG 1.1//EN"
 "http://www.w3.org/Graphics/SVG/1.1/DTD/svg11.dtd">
<!-- Generated by graphviz version 2.40.1 (20161225.0304)
 -->
<!-- Title: RattletrapEngine::TileMap&lt; T &gt; Pages: 1 -->
<svg width="949pt" height="357pt"
 viewBox="0.00 0.00 949.00 357.00" xmlns="http://www.w3.org/2000/svg" xmlns:xlink="http://www.w3.org/1999/xlink">
<g id="graph0" class="graph" transform="scale(1 1) rotate(0) translate(4 353)">
<title>RattletrapEngine::TileMap&lt; T &gt;</title>
<polygon fill="#ffffff" stroke="transparent" points="-4,4 -4,-353 945,-353 945,4 -4,4"/>
<!-- Node3 -->
<g id="node1" class="node">
<title>Node3</title>
<polygon fill="#bfbfbf" stroke="#000000" points="787,-143.5 787,-162.5 941,-162.5 941,-143.5 787,-143.5"/>
<text text-anchor="middle" x="864" y="-150.5" font-family="Helvetica,sans-Serif" font-size="10.00" fill="#000000">RattletrapEngine::TileMap&lt; T &gt;</text>
</g>
<!-- Node4 -->
<g id="node2" class="node">
<title>Node4</title>
<g id="a_node2"><a xlink:href="classRattletrapEngine_1_1Component.html" target="_top" xlink:title="Modela os componentes. ">
<polygon fill="#ffffff" stroke="#000000" points="537,-304.5 537,-323.5 683,-323.5 683,-304.5 537,-304.5"/>
<text text-anchor="middle" x="610" y="-311.5" font-family="Helvetica,sans-Serif" font-size="10.00" fill="#000000">RattletrapEngine::Component</text>
</a>
</g>
</g>
<!-- Node4&#45;&gt;Node3 -->
<g id="edge1" class="edge">
<title>Node4&#45;&gt;Node3</title>
<path fill="none" stroke="#191970" d="M665.1257,-301.5964C671.2487,-299.6481 677.3193,-297.4532 683,-295 759.2674,-262.0642 831.0886,-188.9069 855.3402,-162.6308"/>
<polygon fill="#191970" stroke="#191970" points="664.0963,-298.251 655.5092,-304.4569 666.0921,-304.9605 664.0963,-298.251"/>
</g>
<!-- Node5 -->
<g id="node3" class="node">
<title>Node5</title>
<polygon fill="#ffffff" stroke="#bfbfbf" points="127,-309.5 127,-328.5 162,-328.5 162,-309.5 127,-309.5"/>
<text text-anchor="middle" x="144.5" y="-316.5" font-family="Helvetica,sans-Serif" font-size="10.00" fill="#000000">bool</text>
</g>
<!-- Node5&#45;&gt;Node4 -->
<g id="edge2" class="edge">
<title>Node5&#45;&gt;Node4</title>
<path fill="none" stroke="#9a32cd" stroke-dasharray="5,2" d="M172.0549,-321.9915C187.5835,-323.5276 207.3496,-325.234 225,-326 333.566,-330.7114 459.4311,-324.6064 536.8894,-319.5184"/>
<polygon fill="#9a32cd" stroke="#9a32cd" points="172.3637,-318.5049 162.0594,-320.9688 171.6512,-325.4685 172.3637,-318.5049"/>
<text text-anchor="middle" x="375" y="-341" font-family="Helvetica,sans-Serif" font-size="10.00" fill="#000000"> newEnabled</text>
<text text-anchor="middle" x="375" y="-330" font-family="Helvetica,sans-Serif" font-size="10.00" fill="#000000">enabled</text>
</g>
<!-- Node6 -->
<g id="node4" class="node">
<title>Node6</title>
<g id="a_node4"><a xlink:href="classRattletrapEngine_1_1GameObject.html" target="_top" xlink:title="Classe virtual que especifica o funcionamento de um GameObject. ">
<polygon fill="#ffffff" stroke="#000000" points="300,-249.5 300,-268.5 450,-268.5 450,-249.5 300,-249.5"/>
<text text-anchor="middle" x="375" y="-256.5" font-family="Helvetica,sans-Serif" font-size="10.00" fill="#000000">RattletrapEngine::GameObject</text>
</a>
</g>
</g>
<!-- Node5&#45;&gt;Node6 -->
<g id="edge6" class="edge">
<title>Node5&#45;&gt;Node6</title>
<path fill="none" stroke="#9a32cd" stroke-dasharray="5,2" d="M171.7662,-309.5221C187.2709,-304.3022 207.1073,-297.9068 225,-293 259.1208,-283.643 298.1043,-274.8638 327.7763,-268.5709"/>
<polygon fill="#9a32cd" stroke="#9a32cd" points="170.6059,-306.2198 162.2669,-312.7552 172.8613,-312.8465 170.6059,-306.2198"/>
<text text-anchor="middle" x="253.5" y="-318" font-family="Helvetica,sans-Serif" font-size="10.00" fill="#000000"> dead</text>
<text text-anchor="middle" x="253.5" y="-307" font-family="Helvetica,sans-Serif" font-size="10.00" fill="#000000">active</text>
<text text-anchor="middle" x="253.5" y="-296" font-family="Helvetica,sans-Serif" font-size="10.00" fill="#000000">newActive</text>
</g>
<!-- Node6&#45;&gt;Node4 -->
<g id="edge3" class="edge">
<title>Node6&#45;&gt;Node4</title>
<path fill="none" stroke="#9a32cd" stroke-dasharray="5,2" d="M425.6135,-270.8457C468.487,-280.8799 529.1745,-295.0834 569.0446,-304.4147"/>
<polygon fill="#9a32cd" stroke="#9a32cd" points="426.2001,-267.3885 415.6656,-268.5175 424.6049,-274.2043 426.2001,-267.3885"/>
<text text-anchor="middle" x="493.5" y="-294" font-family="Helvetica,sans-Serif" font-size="10.00" fill="#000000"> associated</text>
</g>
<!-- Node7 -->
<g id="node5" class="node">
<title>Node7</title>
<polygon fill="#ffffff" stroke="#bfbfbf" points="0,-219.5 0,-238.5 35,-238.5 35,-219.5 0,-219.5"/>
<text text-anchor="middle" x="17.5" y="-226.5" font-family="Helvetica,sans-Serif" font-size="10.00" fill="#000000">float</text>
</g>
<!-- Node7&#45;&gt;Node6 -->
<g id="edge4" class="edge">
<title>Node7&#45;&gt;Node6</title>
<path fill="none" stroke="#9a32cd" stroke-dasharray="5,2" d="M44.4336,-242.3918C47.2756,-243.4244 50.1637,-244.3256 53,-245 135.7455,-264.6752 233.7483,-265.9217 299.7193,-263.6872"/>
<polygon fill="#9a32cd" stroke="#9a32cd" points="45.669,-239.1151 35.0912,-238.5146 42.9858,-245.5805 45.669,-239.1151"/>
<text text-anchor="middle" x="144.5" y="-266" font-family="Helvetica,sans-Serif" font-size="10.00" fill="#000000"> rotation</text>
</g>
<!-- Node9 -->
<g id="node7" class="node">
<title>Node9</title>
<g id="a_node7"><a xlink:href="classRattletrapEngine_1_1Rect.html" target="_top" xlink:title="Classe que modela um rect. ">
<polygon fill="#ffffff" stroke="#000000" points="86.5,-203.5 86.5,-222.5 202.5,-222.5 202.5,-203.5 86.5,-203.5"/>
<text text-anchor="middle" x="144.5" y="-210.5" font-family="Helvetica,sans-Serif" font-size="10.00" fill="#000000">RattletrapEngine::Rect</text>
</a>
</g>
</g>
<!-- Node7&#45;&gt;Node9 -->
<g id="edge8" class="edge">
<title>Node7&#45;&gt;Node9</title>
<path fill="none" stroke="#9a32cd" stroke-dasharray="5,2" d="M33.5302,-212.6659C39.1924,-207.9684 45.9247,-203.4545 53,-201 74.3425,-193.5962 99.9323,-197.9884 118.6163,-203.4287"/>
<polygon fill="#9a32cd" stroke="#9a32cd" points="31.1116,-210.1347 26.0847,-219.461 35.8304,-215.3051 31.1116,-210.1347"/>
<text text-anchor="middle" x="58.5" y="-237" font-family="Helvetica,sans-Serif" font-size="10.00" fill="#000000"> w</text>
<text text-anchor="middle" x="58.5" y="-226" font-family="Helvetica,sans-Serif" font-size="10.00" fill="#000000">x</text>
<text text-anchor="middle" x="58.5" y="-215" font-family="Helvetica,sans-Serif" font-size="10.00" fill="#000000">h</text>
<text text-anchor="middle" x="58.5" y="-204" font-family="Helvetica,sans-Serif" font-size="10.00" fill="#000000">y</text>
</g>
<!-- Node8 -->
<g id="node6" class="node">
<title>Node8</title>
<polygon fill="#ffffff" stroke="#bfbfbf" points="82,-154 82,-184 207,-184 207,-154 82,-154"/>
<text text-anchor="start" x="90" y="-172" font-family="Helvetica,sans-Serif" font-size="10.00" fill="#000000">vector&lt; RattletrapEngine</text>
<text text-anchor="middle" x="144.5" y="-161" font-family="Helvetica,sans-Serif" font-size="10.00" fill="#000000">::Component *&gt;</text>
</g>
<!-- Node8&#45;&gt;Node6 -->
<g id="edge5" class="edge">
<title>Node8&#45;&gt;Node6</title>
<path fill="none" stroke="#9a32cd" stroke-dasharray="5,2" d="M216.7674,-186.2078C238.1112,-192.1654 261.2934,-199.5129 282,-208 310.7952,-219.8024 342.1017,-238.2481 360.0547,-249.4223"/>
<polygon fill="#9a32cd" stroke="#9a32cd" points="217.6746,-182.8274 207.1057,-183.5693 215.8304,-189.5802 217.6746,-182.8274"/>
<text text-anchor="middle" x="253.5" y="-211" font-family="Helvetica,sans-Serif" font-size="10.00" fill="#000000"> components</text>
</g>
<!-- Node9&#45;&gt;Node6 -->
<g id="edge7" class="edge">
<title>Node9&#45;&gt;Node6</title>
<path fill="none" stroke="#9a32cd" stroke-dasharray="5,2" d="M212.6386,-221.8783C234.8483,-225.179 259.5594,-229.2854 282,-234 302.4523,-238.2969 325.1046,-244.3581 342.9322,-249.4361"/>
<polygon fill="#9a32cd" stroke="#9a32cd" points="213.0276,-218.3981 202.6273,-220.4191 212.0179,-225.3249 213.0276,-218.3981"/>
<text text-anchor="middle" x="253.5" y="-237" font-family="Helvetica,sans-Serif" font-size="10.00" fill="#000000"> box</text>
</g>
<!-- Node10 -->
<g id="node8" class="node">
<title>Node10</title>
<g id="a_node8"><a xlink:href="classRattletrapEngine_1_1NearestFinder.html" target="_top" xlink:title="RattletrapEngine::Nearest\lFinder\&lt; T \&gt;">
<polygon fill="#ffffff" stroke="#000000" points="545,-255 545,-285 675,-285 675,-255 545,-255"/>
<text text-anchor="start" x="553" y="-273" font-family="Helvetica,sans-Serif" font-size="10.00" fill="#000000">RattletrapEngine::Nearest</text>
<text text-anchor="middle" x="610" y="-262" font-family="Helvetica,sans-Serif" font-size="10.00" fill="#000000">Finder&lt; T &gt;</text>
</a>
</g>
</g>
<!-- Node10&#45;&gt;Node3 -->
<g id="edge9" class="edge">
<title>Node10&#45;&gt;Node3</title>
<path fill="none" stroke="#8b1a1a" d="M666.0266,-251.7593C671.7668,-249.8369 677.5053,-247.8931 683,-246 721.4136,-232.765 732.6316,-233.1137 769,-215 800.2036,-199.4587 833.6725,-175.7695 851.3576,-162.6288"/>
<polygon fill="#8b1a1a" stroke="#8b1a1a" points="664.7899,-248.4821 656.4074,-254.9616 667.001,-255.1237 664.7899,-248.4821"/>
</g>
<!-- Node11 -->
<g id="node9" class="node">
<title>Node11</title>
<polygon fill="#ffffff" stroke="#bfbfbf" points="547.5,-206 547.5,-236 672.5,-236 672.5,-206 547.5,-206"/>
<text text-anchor="start" x="555.5" y="-224" font-family="Helvetica,sans-Serif" font-size="10.00" fill="#000000">vector&lt; RattletrapEngine</text>
<text text-anchor="middle" x="610" y="-213" font-family="Helvetica,sans-Serif" font-size="10.00" fill="#000000">::TileMapObserver * &gt;</text>
</g>
<!-- Node11&#45;&gt;Node3 -->
<g id="edge10" class="edge">
<title>Node11&#45;&gt;Node3</title>
<path fill="none" stroke="#9a32cd" stroke-dasharray="5,2" d="M682.4692,-205.5299C709.7311,-199.3456 740.9177,-191.8334 769,-184 792.0612,-177.5672 817.8654,-169.0616 836.754,-162.5871"/>
<polygon fill="#9a32cd" stroke="#9a32cd" points="681.604,-202.137 672.616,-207.7465 683.1403,-208.9664 681.604,-202.137"/>
<text text-anchor="middle" x="735" y="-203" font-family="Helvetica,sans-Serif" font-size="10.00" fill="#000000"> observers</text>
</g>
<!-- Node12 -->
<g id="node10" class="node">
<title>Node12</title>
<polygon fill="#ffffff" stroke="#bfbfbf" points="547.5,-157 547.5,-187 672.5,-187 672.5,-157 547.5,-157"/>
<text text-anchor="start" x="555.5" y="-175" font-family="Helvetica,sans-Serif" font-size="10.00" fill="#000000">vector&lt; RattletrapEngine</text>
<text text-anchor="middle" x="610" y="-164" font-family="Helvetica,sans-Serif" font-size="10.00" fill="#000000">::TileSet * &gt;</text>
</g>
<!-- Node12&#45;&gt;Node3 -->
<g id="edge11" class="edge">
<title>Node12&#45;&gt;Node3</title>
<path fill="none" stroke="#9a32cd" stroke-dasharray="5,2" d="M682.9243,-170.0396C709.9886,-168.9832 740.9253,-167.3871 769,-165 777.0337,-164.3169 785.4332,-163.4619 793.7715,-162.5247"/>
<polygon fill="#9a32cd" stroke="#9a32cd" points="682.618,-166.5485 672.7554,-170.4186 682.8788,-173.5437 682.618,-166.5485"/>
<text text-anchor="middle" x="735" y="-172" font-family="Helvetica,sans-Serif" font-size="10.00" fill="#000000"> tileSets</text>
</g>
<!-- Node13 -->
<g id="node11" class="node">
<title>Node13</title>
<polygon fill="#ffffff" stroke="#bfbfbf" points="595.5,-114.5 595.5,-133.5 624.5,-133.5 624.5,-114.5 595.5,-114.5"/>
<text text-anchor="middle" x="610" y="-121.5" font-family="Helvetica,sans-Serif" font-size="10.00" fill="#000000">int</text>
</g>
<!-- Node13&#45;&gt;Node3 -->
<g id="edge12" class="edge">
<title>Node13&#45;&gt;Node3</title>
<path fill="none" stroke="#9a32cd" stroke-dasharray="5,2" d="M634.6696,-119.5239C666.129,-114.588 722.077,-108.4075 769,-117 796.4115,-122.0196 826.1744,-134.5563 844.9446,-143.4191"/>
<polygon fill="#9a32cd" stroke="#9a32cd" points="633.9105,-116.1019 624.6182,-121.1916 635.0563,-123.0075 633.9105,-116.1019"/>
<text text-anchor="middle" x="735" y="-153" font-family="Helvetica,sans-Serif" font-size="10.00" fill="#000000"> mapDepth</text>
<text text-anchor="middle" x="735" y="-142" font-family="Helvetica,sans-Serif" font-size="10.00" fill="#000000">currentTileSet</text>
<text text-anchor="middle" x="735" y="-131" font-family="Helvetica,sans-Serif" font-size="10.00" fill="#000000">mapHeight</text>
<text text-anchor="middle" x="735" y="-120" font-family="Helvetica,sans-Serif" font-size="10.00" fill="#000000">mapWidth</text>
</g>
<!-- Node14 -->
<g id="node12" class="node">
<title>Node14</title>
<polygon fill="#ffffff" stroke="#bfbfbf" points="576,-76.5 576,-95.5 644,-95.5 644,-76.5 576,-76.5"/>
<text text-anchor="middle" x="610" y="-83.5" font-family="Helvetica,sans-Serif" font-size="10.00" fill="#000000">vector&lt; T &gt;</text>
</g>
<!-- Node14&#45;&gt;Node3 -->
<g id="edge13" class="edge">
<title>Node14&#45;&gt;Node3</title>
<path fill="none" stroke="#9a32cd" stroke-dasharray="5,2" d="M654.1023,-83.6754C686.5817,-83.2419 731.4418,-85.3466 769,-97 801.5479,-107.0989 834.7625,-130.2277 851.9811,-143.3844"/>
<polygon fill="#9a32cd" stroke="#9a32cd" points="653.9379,-80.1781 644.017,-83.8965 654.0914,-87.1764 653.9379,-80.1781"/>
<text text-anchor="middle" x="735" y="-100" font-family="Helvetica,sans-Serif" font-size="10.00" fill="#000000"> tileMatrix</text>
</g>
<!-- Node15 -->
<g id="node13" class="node">
<title>Node15</title>
<polygon fill="#ffffff" stroke="#bfbfbf" points="570,-38.5 570,-57.5 650,-57.5 650,-38.5 570,-38.5"/>
<text text-anchor="middle" x="610" y="-45.5" font-family="Helvetica,sans-Serif" font-size="10.00" fill="#000000">vector&lt; float &gt;</text>
</g>
<!-- Node15&#45;&gt;Node3 -->
<g id="edge14" class="edge">
<title>Node15&#45;&gt;Node3</title>
<path fill="none" stroke="#9a32cd" stroke-dasharray="5,2" d="M660.4402,-47.6568C692.7703,-49.1714 734.9092,-54.4564 769,-70 807.2609,-87.4449 841.568,-125.41 856.3302,-143.3022"/>
<polygon fill="#9a32cd" stroke="#9a32cd" points="660.431,-44.1543 650.3107,-47.2893 660.1772,-51.1497 660.431,-44.1543"/>
<text text-anchor="middle" x="735" y="-73" font-family="Helvetica,sans-Serif" font-size="10.00" fill="#000000"> parallaxWeight</text>
</g>
<!-- Node16 -->
<g id="node14" class="node">
<title>Node16</title>
<polygon fill="#ffffff" stroke="#bfbfbf" points="570,-.5 570,-19.5 650,-19.5 650,-.5 570,-.5"/>
<text text-anchor="middle" x="610" y="-7.5" font-family="Helvetica,sans-Serif" font-size="10.00" fill="#000000">vector&lt; bool &gt;</text>
</g>
<!-- Node16&#45;&gt;Node3 -->
<g id="edge15" class="edge">
<title>Node16&#45;&gt;Node3</title>
<path fill="none" stroke="#9a32cd" stroke-dasharray="5,2" d="M660.5071,-9.2119C693.3983,-10.7916 736.139,-16.9468 769,-36 814.9502,-62.6426 847.7622,-120.6012 859.3789,-143.4578"/>
<polygon fill="#9a32cd" stroke="#9a32cd" points="660.3162,-5.7032 650.1993,-8.8493 660.07,-12.6988 660.3162,-5.7032"/>
<text text-anchor="middle" x="735" y="-39" font-family="Helvetica,sans-Serif" font-size="10.00" fill="#000000"> layersVisibility</text>
</g>
</g>
</svg>
