<?xml version="1.0" encoding="UTF-8" standalone="no"?>
<!DOCTYPE svg PUBLIC "-//W3C//DTD SVG 1.1//EN"
 "http://www.w3.org/Graphics/SVG/1.1/DTD/svg11.dtd">
<!-- Generated by graphviz version 2.40.1 (20161225.0304)
 -->
<!-- Title: RattletrapEngine::Text Pages: 1 -->
<svg width="964pt" height="429pt"
 viewBox="0.00 0.00 964.00 429.00" xmlns="http://www.w3.org/2000/svg" xmlns:xlink="http://www.w3.org/1999/xlink">
<g id="graph0" class="graph" transform="scale(1 1) rotate(0) translate(4 425)">
<title>RattletrapEngine::Text</title>
<polygon fill="#ffffff" stroke="transparent" points="-4,4 -4,-425 960,-425 960,4 -4,4"/>
<!-- Node2 -->
<g id="node1" class="node">
<title>Node2</title>
<polygon fill="#bfbfbf" stroke="#000000" points="841,-143.5 841,-162.5 956,-162.5 956,-143.5 841,-143.5"/>
<text text-anchor="middle" x="898.5" y="-150.5" font-family="Helvetica,sans-Serif" font-size="10.00" fill="#000000">RattletrapEngine::Text</text>
</g>
<!-- Node3 -->
<g id="node2" class="node">
<title>Node3</title>
<g id="a_node2"><a xlink:href="classRattletrapEngine_1_1Component.html" target="_top" xlink:title="Modela os componentes. ">
<polygon fill="#ffffff" stroke="#000000" points="619,-307.5 619,-326.5 765,-326.5 765,-307.5 619,-307.5"/>
<text text-anchor="middle" x="692" y="-314.5" font-family="Helvetica,sans-Serif" font-size="10.00" fill="#000000">RattletrapEngine::Component</text>
</a>
</g>
</g>
<!-- Node3&#45;&gt;Node2 -->
<g id="edge1" class="edge">
<title>Node3&#45;&gt;Node2</title>
<path fill="none" stroke="#191970" d="M736.9501,-304.2528C763.9026,-295.0412 797.7337,-280.5728 823,-260 857.9077,-231.5769 883.9821,-183.1128 894.0052,-162.6115"/>
<polygon fill="#191970" stroke="#191970" points="735.7639,-300.9585 727.3601,-307.4103 737.9531,-307.6073 735.7639,-300.9585"/>
</g>
<!-- Node4 -->
<g id="node3" class="node">
<title>Node4</title>
<polygon fill="#ffffff" stroke="#bfbfbf" points="127,-389.5 127,-408.5 162,-408.5 162,-389.5 127,-389.5"/>
<text text-anchor="middle" x="144.5" y="-396.5" font-family="Helvetica,sans-Serif" font-size="10.00" fill="#000000">bool</text>
</g>
<!-- Node4&#45;&gt;Node3 -->
<g id="edge2" class="edge">
<title>Node4&#45;&gt;Node3</title>
<path fill="none" stroke="#9a32cd" stroke-dasharray="5,2" d="M172.0863,-400.2822C187.6248,-400.9407 207.3902,-401.672 225,-402 277.4353,-402.9767 290.9293,-408.2496 343,-402 464.0479,-387.4716 603.749,-345.5615 663.019,-326.5639"/>
<polygon fill="#9a32cd" stroke="#9a32cd" points="172.2264,-396.7851 162.0827,-399.8439 171.9199,-403.7784 172.2264,-396.7851"/>
<text text-anchor="middle" x="436" y="-413" font-family="Helvetica,sans-Serif" font-size="10.00" fill="#000000"> newEnabled</text>
<text text-anchor="middle" x="436" y="-402" font-family="Helvetica,sans-Serif" font-size="10.00" fill="#000000">enabled</text>
</g>
<!-- Node5 -->
<g id="node4" class="node">
<title>Node5</title>
<g id="a_node4"><a xlink:href="classRattletrapEngine_1_1GameObject.html" target="_top" xlink:title="Classe virtual que especifica o funcionamento de um GameObject. ">
<polygon fill="#ffffff" stroke="#000000" points="361,-307.5 361,-326.5 511,-326.5 511,-307.5 361,-307.5"/>
<text text-anchor="middle" x="436" y="-314.5" font-family="Helvetica,sans-Serif" font-size="10.00" fill="#000000">RattletrapEngine::GameObject</text>
</a>
</g>
</g>
<!-- Node4&#45;&gt;Node5 -->
<g id="edge6" class="edge">
<title>Node4&#45;&gt;Node5</title>
<path fill="none" stroke="#9a32cd" stroke-dasharray="5,2" d="M171.5794,-387.6389C187.025,-381.4814 206.8646,-374.1093 225,-369 276.4293,-354.5107 291.1953,-359.0838 343,-346 365.1369,-340.4091 389.7888,-332.6502 408.1471,-326.5646"/>
<polygon fill="#9a32cd" stroke="#9a32cd" points="170.0768,-384.4713 162.1259,-391.4738 172.7082,-390.9579 170.0768,-384.4713"/>
<text text-anchor="middle" x="284" y="-394" font-family="Helvetica,sans-Serif" font-size="10.00" fill="#000000"> dead</text>
<text text-anchor="middle" x="284" y="-383" font-family="Helvetica,sans-Serif" font-size="10.00" fill="#000000">active</text>
<text text-anchor="middle" x="284" y="-372" font-family="Helvetica,sans-Serif" font-size="10.00" fill="#000000">newActive</text>
</g>
<!-- Node5&#45;&gt;Node3 -->
<g id="edge3" class="edge">
<title>Node5&#45;&gt;Node3</title>
<path fill="none" stroke="#9a32cd" stroke-dasharray="5,2" d="M521.181,-317C552.7563,-317 588.2607,-317 618.6875,-317"/>
<polygon fill="#9a32cd" stroke="#9a32cd" points="521.0787,-313.5001 511.0787,-317 521.0787,-320.5001 521.0787,-313.5001"/>
<text text-anchor="middle" x="565" y="-320" font-family="Helvetica,sans-Serif" font-size="10.00" fill="#000000"> associated</text>
</g>
<!-- Node6 -->
<g id="node5" class="node">
<title>Node6</title>
<polygon fill="#ffffff" stroke="#bfbfbf" points="0,-245.5 0,-264.5 35,-264.5 35,-245.5 0,-245.5"/>
<text text-anchor="middle" x="17.5" y="-252.5" font-family="Helvetica,sans-Serif" font-size="10.00" fill="#000000">float</text>
</g>
<!-- Node6&#45;&gt;Node5 -->
<g id="edge4" class="edge">
<title>Node6&#45;&gt;Node5</title>
<path fill="none" stroke="#9a32cd" stroke-dasharray="5,2" d="M45.1045,-255.1597C82.102,-255.6694 149.7499,-257.6385 207,-265 268.2083,-272.8705 282.8821,-279.0632 343,-293 362.1679,-297.4436 383.4245,-302.8899 400.7718,-307.4704"/>
<polygon fill="#9a32cd" stroke="#9a32cd" points="45.1222,-251.6598 35.0836,-255.0477 45.0438,-258.6593 45.1222,-251.6598"/>
<text text-anchor="middle" x="144.5" y="-268" font-family="Helvetica,sans-Serif" font-size="10.00" fill="#000000"> rotation</text>
</g>
<!-- Node8 -->
<g id="node7" class="node">
<title>Node8</title>
<g id="a_node7"><a xlink:href="classRattletrapEngine_1_1Rect.html" target="_top" xlink:title="Classe que modela um rect. ">
<polygon fill="#ffffff" stroke="#000000" points="86.5,-334.5 86.5,-353.5 202.5,-353.5 202.5,-334.5 86.5,-334.5"/>
<text text-anchor="middle" x="144.5" y="-341.5" font-family="Helvetica,sans-Serif" font-size="10.00" fill="#000000">RattletrapEngine::Rect</text>
</a>
</g>
</g>
<!-- Node6&#45;&gt;Node8 -->
<g id="edge8" class="edge">
<title>Node6&#45;&gt;Node8</title>
<path fill="none" stroke="#9a32cd" stroke-dasharray="5,2" d="M29.8373,-273.0953C41.5306,-288.9394 60.474,-311.4834 82,-325 88.1469,-328.8598 95.1266,-331.9771 102.1385,-334.4821"/>
<polygon fill="#9a32cd" stroke="#9a32cd" points="32.4794,-270.7719 23.8255,-264.6596 26.7789,-274.8345 32.4794,-270.7719"/>
<text text-anchor="middle" x="58.5" y="-346" font-family="Helvetica,sans-Serif" font-size="10.00" fill="#000000"> w</text>
<text text-anchor="middle" x="58.5" y="-335" font-family="Helvetica,sans-Serif" font-size="10.00" fill="#000000">x</text>
<text text-anchor="middle" x="58.5" y="-324" font-family="Helvetica,sans-Serif" font-size="10.00" fill="#000000">h</text>
<text text-anchor="middle" x="58.5" y="-313" font-family="Helvetica,sans-Serif" font-size="10.00" fill="#000000">y</text>
</g>
<!-- Node13 -->
<g id="node12" class="node">
<title>Node13</title>
<g id="a_node12"><a xlink:href="classRattletrapEngine_1_1Vec2.html" target="_top" xlink:title="Classe que modela um vetor(no sentido físico) ">
<polygon fill="#ffffff" stroke="#000000" points="225,-210.5 225,-229.5 343,-229.5 343,-210.5 225,-210.5"/>
<text text-anchor="middle" x="284" y="-217.5" font-family="Helvetica,sans-Serif" font-size="10.00" fill="#000000">RattletrapEngine::Vec2</text>
</a>
</g>
</g>
<!-- Node6&#45;&gt;Node13 -->
<g id="edge14" class="edge">
<title>Node6&#45;&gt;Node13</title>
<path fill="none" stroke="#9a32cd" stroke-dasharray="5,2" d="M29.9317,-237.2675C35.9843,-230.1752 43.9204,-222.7981 53,-219 114.9714,-193.0764 194.7396,-201.5043 242.4855,-210.4296"/>
<polygon fill="#9a32cd" stroke="#9a32cd" points="27.1141,-235.1892 23.736,-245.231 32.639,-239.4876 27.1141,-235.1892"/>
<text text-anchor="middle" x="58.5" y="-233" font-family="Helvetica,sans-Serif" font-size="10.00" fill="#000000"> x</text>
<text text-anchor="middle" x="58.5" y="-222" font-family="Helvetica,sans-Serif" font-size="10.00" fill="#000000">y</text>
</g>
<!-- Node7 -->
<g id="node6" class="node">
<title>Node7</title>
<polygon fill="#ffffff" stroke="#bfbfbf" points="82,-285 82,-315 207,-315 207,-285 82,-285"/>
<text text-anchor="start" x="90" y="-303" font-family="Helvetica,sans-Serif" font-size="10.00" fill="#000000">vector&lt; RattletrapEngine</text>
<text text-anchor="middle" x="144.5" y="-292" font-family="Helvetica,sans-Serif" font-size="10.00" fill="#000000">::Component *&gt;</text>
</g>
<!-- Node7&#45;&gt;Node5 -->
<g id="edge5" class="edge">
<title>Node7&#45;&gt;Node5</title>
<path fill="none" stroke="#9a32cd" stroke-dasharray="5,2" d="M217.5493,-297.4889C255.1085,-296.9267 301.579,-297.3578 343,-301 358.1777,-302.3346 374.6013,-304.8111 389.3626,-307.4237"/>
<polygon fill="#9a32cd" stroke="#9a32cd" points="217.1401,-293.9955 207.2037,-297.6719 217.264,-300.9944 217.1401,-293.9955"/>
<text text-anchor="middle" x="284" y="-304" font-family="Helvetica,sans-Serif" font-size="10.00" fill="#000000"> components</text>
</g>
<!-- Node8&#45;&gt;Node5 -->
<g id="edge7" class="edge">
<title>Node8&#45;&gt;Node5</title>
<path fill="none" stroke="#9a32cd" stroke-dasharray="5,2" d="M212.8064,-336.2381C216.9312,-335.8083 221.0202,-335.3922 225,-335 270.003,-330.5655 320.4703,-326.237 360.7621,-322.9363"/>
<polygon fill="#9a32cd" stroke="#9a32cd" points="212.0964,-332.7937 202.5214,-337.3292 212.8349,-339.7547 212.0964,-332.7937"/>
<text text-anchor="middle" x="284" y="-338" font-family="Helvetica,sans-Serif" font-size="10.00" fill="#000000"> box</text>
</g>
<!-- Node9 -->
<g id="node8" class="node">
<title>Node9</title>
<polygon fill="#ffffff" stroke="#bfbfbf" points="630.5,-198.5 630.5,-217.5 753.5,-217.5 753.5,-198.5 630.5,-198.5"/>
<text text-anchor="middle" x="692" y="-205.5" font-family="Helvetica,sans-Serif" font-size="10.00" fill="#000000">shared_ptr&lt; TTF_Font &gt;</text>
</g>
<!-- Node9&#45;&gt;Node2 -->
<g id="edge9" class="edge">
<title>Node9&#45;&gt;Node2</title>
<path fill="none" stroke="#9a32cd" stroke-dasharray="5,2" d="M745.7715,-196.238C769.5455,-190.7903 797.7731,-183.9837 823,-177 838.7739,-172.6332 856.197,-167.1402 870.3277,-162.5117"/>
<polygon fill="#9a32cd" stroke="#9a32cd" points="744.8529,-192.8574 735.877,-198.4861 746.4039,-199.6834 744.8529,-192.8574"/>
<text text-anchor="middle" x="803" y="-190" font-family="Helvetica,sans-Serif" font-size="10.00" fill="#000000"> font</text>
</g>
<!-- Node10 -->
<g id="node9" class="node">
<title>Node10</title>
<polygon fill="#ffffff" stroke="#bfbfbf" points="651.5,-160.5 651.5,-179.5 732.5,-179.5 732.5,-160.5 651.5,-160.5"/>
<text text-anchor="middle" x="692" y="-167.5" font-family="Helvetica,sans-Serif" font-size="10.00" fill="#000000">SDL_Texture *</text>
</g>
<!-- Node10&#45;&gt;Node2 -->
<g id="edge10" class="edge">
<title>Node10&#45;&gt;Node2</title>
<path fill="none" stroke="#9a32cd" stroke-dasharray="5,2" d="M742.9541,-165.8052C772.6607,-163.3597 810.2148,-160.268 840.9804,-157.7353"/>
<polygon fill="#9a32cd" stroke="#9a32cd" points="742.4768,-162.3326 732.7978,-166.6413 743.0512,-169.309 742.4768,-162.3326"/>
<text text-anchor="middle" x="803" y="-165" font-family="Helvetica,sans-Serif" font-size="10.00" fill="#000000"> texture</text>
</g>
<!-- Node11 -->
<g id="node10" class="node">
<title>Node11</title>
<polygon fill="#ffffff" stroke="#bfbfbf" points="677.5,-122.5 677.5,-141.5 706.5,-141.5 706.5,-122.5 677.5,-122.5"/>
<text text-anchor="middle" x="692" y="-129.5" font-family="Helvetica,sans-Serif" font-size="10.00" fill="#000000">int</text>
</g>
<!-- Node11&#45;&gt;Node2 -->
<g id="edge11" class="edge">
<title>Node11&#45;&gt;Node2</title>
<path fill="none" stroke="#9a32cd" stroke-dasharray="5,2" d="M716.7682,-134.0661C743.1247,-136.3121 786.0354,-140.1045 823,-144 828.7762,-144.6087 834.7972,-145.2741 840.8082,-145.9586"/>
<polygon fill="#9a32cd" stroke="#9a32cd" points="716.8109,-130.5573 706.5516,-133.2024 716.2212,-137.5324 716.8109,-130.5573"/>
<text text-anchor="middle" x="803" y="-147" font-family="Helvetica,sans-Serif" font-size="10.00" fill="#000000"> fontSize</text>
</g>
<!-- Node12 -->
<g id="node11" class="node">
<title>Node12</title>
<polygon fill="#ffffff" stroke="#bfbfbf" points="671.5,-81.5 671.5,-100.5 712.5,-100.5 712.5,-81.5 671.5,-81.5"/>
<text text-anchor="middle" x="692" y="-88.5" font-family="Helvetica,sans-Serif" font-size="10.00" fill="#000000">string</text>
</g>
<!-- Node12&#45;&gt;Node2 -->
<g id="edge12" class="edge">
<title>Node12&#45;&gt;Node2</title>
<path fill="none" stroke="#9a32cd" stroke-dasharray="5,2" d="M722.9109,-93.759C749.8778,-96.7899 789.7767,-102.7943 823,-114 844.9476,-121.4026 868.3717,-134.3939 883.2065,-143.3348"/>
<polygon fill="#9a32cd" stroke="#9a32cd" points="723.2131,-90.2716 712.9013,-92.704 722.4793,-97.233 723.2131,-90.2716"/>
<text text-anchor="middle" x="803" y="-128" font-family="Helvetica,sans-Serif" font-size="10.00" fill="#000000"> fontFile</text>
<text text-anchor="middle" x="803" y="-117" font-family="Helvetica,sans-Serif" font-size="10.00" fill="#000000">text</text>
</g>
<!-- Node13&#45;&gt;Node2 -->
<g id="edge13" class="edge">
<title>Node13&#45;&gt;Node2</title>
<path fill="none" stroke="#9a32cd" stroke-dasharray="5,2" d="M353.2508,-230.3088C447.5149,-242.2425 620.9761,-256.7181 765,-227 814.8295,-216.7181 865.0085,-180.2341 886.9837,-162.6346"/>
<polygon fill="#9a32cd" stroke="#9a32cd" points="353.6338,-226.8292 343.2673,-229.0167 352.7353,-233.7713 353.6338,-226.8292"/>
<text text-anchor="middle" x="565" y="-247" font-family="Helvetica,sans-Serif" font-size="10.00" fill="#000000"> fontDimensions</text>
</g>
<!-- Node14 -->
<g id="node13" class="node">
<title>Node14</title>
<g id="a_node13"><a xlink:href="structRattletrapEngine_1_1Color.html" target="_top" xlink:title="Struct para armazenar informações de cor. ">
<polygon fill="#ffffff" stroke="#000000" points="632.5,-38.5 632.5,-57.5 751.5,-57.5 751.5,-38.5 632.5,-38.5"/>
<text text-anchor="middle" x="692" y="-45.5" font-family="Helvetica,sans-Serif" font-size="10.00" fill="#000000">RattletrapEngine::Color</text>
</a>
</g>
</g>
<!-- Node14&#45;&gt;Node2 -->
<g id="edge15" class="edge">
<title>Node14&#45;&gt;Node2</title>
<path fill="none" stroke="#9a32cd" stroke-dasharray="5,2" d="M761.6133,-55.7972C782.2583,-60.0809 804.3243,-66.7177 823,-77 853.6297,-93.8637 879.9897,-126.9462 891.8323,-143.3314"/>
<polygon fill="#9a32cd" stroke="#9a32cd" points="762.0942,-52.3257 751.6137,-53.8776 760.7745,-59.2002 762.0942,-52.3257"/>
<text text-anchor="middle" x="803" y="-91" font-family="Helvetica,sans-Serif" font-size="10.00" fill="#000000"> bgColor</text>
<text text-anchor="middle" x="803" y="-80" font-family="Helvetica,sans-Serif" font-size="10.00" fill="#000000">color</text>
</g>
<!-- Node15 -->
<g id="node14" class="node">
<title>Node15</title>
<polygon fill="#ffffff" stroke="#bfbfbf" points="397.5,-38.5 397.5,-57.5 474.5,-57.5 474.5,-38.5 397.5,-38.5"/>
<text text-anchor="middle" x="436" y="-45.5" font-family="Helvetica,sans-Serif" font-size="10.00" fill="#000000">unsigned char</text>
</g>
<!-- Node15&#45;&gt;Node14 -->
<g id="edge16" class="edge">
<title>Node15&#45;&gt;Node14</title>
<path fill="none" stroke="#9a32cd" stroke-dasharray="5,2" d="M484.8349,-48C526.7426,-48 587.2913,-48 632.1151,-48"/>
<polygon fill="#9a32cd" stroke="#9a32cd" points="484.603,-44.5001 474.603,-48 484.6029,-51.5001 484.603,-44.5001"/>
<text text-anchor="middle" x="565" y="-84" font-family="Helvetica,sans-Serif" font-size="10.00" fill="#000000"> g</text>
<text text-anchor="middle" x="565" y="-73" font-family="Helvetica,sans-Serif" font-size="10.00" fill="#000000">a</text>
<text text-anchor="middle" x="565" y="-62" font-family="Helvetica,sans-Serif" font-size="10.00" fill="#000000">r</text>
<text text-anchor="middle" x="565" y="-51" font-family="Helvetica,sans-Serif" font-size="10.00" fill="#000000">b</text>
</g>
<!-- Node16 -->
<g id="node15" class="node">
<title>Node16</title>
<polygon fill="#ffffff" stroke="#bfbfbf" points="662.5,-.5 662.5,-19.5 721.5,-19.5 721.5,-.5 662.5,-.5"/>
<text text-anchor="middle" x="692" y="-7.5" font-family="Helvetica,sans-Serif" font-size="10.00" fill="#000000">TextStyle</text>
</g>
<!-- Node16&#45;&gt;Node2 -->
<g id="edge17" class="edge">
<title>Node16&#45;&gt;Node2</title>
<path fill="none" stroke="#9a32cd" stroke-dasharray="5,2" d="M731.7102,-13.6372C759.4255,-17.8155 796.1195,-26.7806 823,-46 859.8036,-72.3143 885.011,-122.3743 894.4116,-143.362"/>
<polygon fill="#9a32cd" stroke="#9a32cd" points="731.9471,-10.1373 721.5669,-12.2588 731.0045,-17.0735 731.9471,-10.1373"/>
<text text-anchor="middle" x="803" y="-49" font-family="Helvetica,sans-Serif" font-size="10.00" fill="#000000"> style</text>
</g>
</g>
</svg>
