<?xml version="1.0" encoding="UTF-8" standalone="no"?>
<!DOCTYPE svg PUBLIC "-//W3C//DTD SVG 1.1//EN"
 "http://www.w3.org/Graphics/SVG/1.1/DTD/svg11.dtd">
<!-- Generated by graphviz version 2.38.0 (20140413.2041)
 -->
<!-- Title: include/Collision.h Pages: 1 -->
<svg width="181pt" height="196pt"
 viewBox="0.00 0.00 180.50 196.00" xmlns="http://www.w3.org/2000/svg" xmlns:xlink="http://www.w3.org/1999/xlink">
<g id="graph0" class="graph" transform="scale(1 1) rotate(0) translate(4 192)">
<title>include/Collision.h</title>
<polygon fill="white" stroke="none" points="-4,4 -4,-192 176.5,-192 176.5,4 -4,4"/>
<!-- Node0 -->
<g id="node1" class="node"><title>Node0</title>
<polygon fill="#bfbfbf" stroke="black" points="6,-168.5 6,-187.5 102,-187.5 102,-168.5 6,-168.5"/>
<text text-anchor="middle" x="54" y="-175.5" font-family="Helvetica,sans-Serif" font-size="10.00">include/Collision.h</text>
</g>
<!-- Node1 -->
<g id="node2" class="node"><title>Node1</title>
<polygon fill="white" stroke="#bfbfbf" points="0,-56.5 0,-75.5 44,-75.5 44,-56.5 0,-56.5"/>
<text text-anchor="middle" x="22" y="-63.5" font-family="Helvetica,sans-Serif" font-size="10.00">cmath</text>
</g>
<!-- Node0&#45;&gt;Node1 -->
<g id="edge1" class="edge"><title>Node0&#45;&gt;Node1</title>
<path fill="none" stroke="midnightblue" d="M43.5615,-168.245C34.5764,-159.969 22.2541,-146.663 17,-132 11.6311,-117.017 13.6694,-98.881 16.5972,-85.5773"/>
<polygon fill="midnightblue" stroke="midnightblue" points="20.0328,-86.2696 19.1226,-75.714 13.2515,-84.5333 20.0328,-86.2696"/>
</g>
<!-- Node2 -->
<g id="node3" class="node"><title>Node2</title>
<polygon fill="white" stroke="#bfbfbf" points="26,-112.5 26,-131.5 82,-131.5 82,-112.5 26,-112.5"/>
<text text-anchor="middle" x="54" y="-119.5" font-family="Helvetica,sans-Serif" font-size="10.00">algorithm</text>
</g>
<!-- Node0&#45;&gt;Node2 -->
<g id="edge2" class="edge"><title>Node0&#45;&gt;Node2</title>
<path fill="none" stroke="midnightblue" d="M54,-168.083C54,-161.006 54,-150.861 54,-141.986"/>
<polygon fill="midnightblue" stroke="midnightblue" points="57.5001,-141.751 54,-131.751 50.5001,-141.751 57.5001,-141.751"/>
</g>
<!-- Node3 -->
<g id="node4" class="node"><title>Node3</title>
<g id="a_node4"><a xlink:href="Rect_8h.html" target="_top" xlink:title="Rect.h">
<polygon fill="white" stroke="black" points="100,-112.5 100,-131.5 146,-131.5 146,-112.5 100,-112.5"/>
<text text-anchor="middle" x="123" y="-119.5" font-family="Helvetica,sans-Serif" font-size="10.00">Rect.h</text>
</a>
</g>
</g>
<!-- Node0&#45;&gt;Node3 -->
<g id="edge3" class="edge"><title>Node0&#45;&gt;Node3</title>
<path fill="none" stroke="midnightblue" d="M65.086,-168.324C75.486,-160.185 91.2606,-147.839 103.722,-138.087"/>
<polygon fill="midnightblue" stroke="midnightblue" points="105.994,-140.753 111.712,-131.834 101.68,-135.241 105.994,-140.753"/>
</g>
<!-- Node3&#45;&gt;Node1 -->
<g id="edge7" class="edge"><title>Node3&#45;&gt;Node1</title>
<path fill="none" stroke="midnightblue" d="M106.773,-112.324C90.649,-103.703 65.6998,-90.3643 47.0359,-80.3855"/>
<polygon fill="midnightblue" stroke="midnightblue" points="48.6561,-77.283 38.1871,-75.6545 45.3556,-83.456 48.6561,-77.283"/>
</g>
<!-- Node4 -->
<g id="node5" class="node"><title>Node4</title>
<g id="a_node5"><a xlink:href="SDL__include_8h.html" target="_top" xlink:title="SDL_include.h">
<polygon fill="white" stroke="black" points="83,-0.5 83,-19.5 163,-19.5 163,-0.5 83,-0.5"/>
<text text-anchor="middle" x="123" y="-7.5" font-family="Helvetica,sans-Serif" font-size="10.00">SDL_include.h</text>
</a>
</g>
</g>
<!-- Node3&#45;&gt;Node4 -->
<g id="edge4" class="edge"><title>Node3&#45;&gt;Node4</title>
<path fill="none" stroke="midnightblue" d="M121.013,-112.184C118.435,-99.6994 114.443,-76.1428 116,-56 116.679,-47.2204 118.092,-37.5626 119.472,-29.4526"/>
<polygon fill="midnightblue" stroke="midnightblue" points="122.922,-30.0446 121.261,-19.5806 116.034,-28.7961 122.922,-30.0446"/>
</g>
<!-- Node5 -->
<g id="node6" class="node"><title>Node5</title>
<g id="a_node6"><a xlink:href="Vec2_8h.html" target="_top" xlink:title="Vec2.h">
<polygon fill="white" stroke="black" points="125.5,-56.5 125.5,-75.5 172.5,-75.5 172.5,-56.5 125.5,-56.5"/>
<text text-anchor="middle" x="149" y="-63.5" font-family="Helvetica,sans-Serif" font-size="10.00">Vec2.h</text>
</a>
</g>
</g>
<!-- Node3&#45;&gt;Node5 -->
<g id="edge5" class="edge"><title>Node3&#45;&gt;Node5</title>
<path fill="none" stroke="midnightblue" d="M127.293,-112.083C130.852,-104.691 136.022,-93.9533 140.424,-84.8111"/>
<polygon fill="midnightblue" stroke="midnightblue" points="143.602,-86.2795 144.787,-75.7511 137.295,-83.2427 143.602,-86.2795"/>
</g>
<!-- Node5&#45;&gt;Node4 -->
<g id="edge6" class="edge"><title>Node5&#45;&gt;Node4</title>
<path fill="none" stroke="midnightblue" d="M144.707,-56.083C141.148,-48.6913 135.978,-37.9533 131.576,-28.8111"/>
<polygon fill="midnightblue" stroke="midnightblue" points="134.705,-27.2427 127.213,-19.7511 128.398,-30.2795 134.705,-27.2427"/>
</g>
</g>
</svg>
