<?xml version="1.0" encoding="UTF-8" standalone="no"?>
<!DOCTYPE svg PUBLIC "-//W3C//DTD SVG 1.1//EN"
 "http://www.w3.org/Graphics/SVG/1.1/DTD/svg11.dtd">
<!-- Generated by graphviz version 2.40.1 (20161225.0304)
 -->
<!-- Title: include/Collision.h Pages: 1 -->
<svg width="167pt" height="196pt"
 viewBox="0.00 0.00 166.50 196.00" xmlns="http://www.w3.org/2000/svg" xmlns:xlink="http://www.w3.org/1999/xlink">
<g id="graph0" class="graph" transform="scale(1 1) rotate(0) translate(4 192)">
<title>include/Collision.h</title>
<polygon fill="#ffffff" stroke="transparent" points="-4,4 -4,-192 162.5,-192 162.5,4 -4,4"/>
<!-- Node0 -->
<g id="node1" class="node">
<title>Node0</title>
<polygon fill="#bfbfbf" stroke="#000000" points="18,-168.5 18,-187.5 114,-187.5 114,-168.5 18,-168.5"/>
<text text-anchor="middle" x="66" y="-175.5" font-family="Helvetica,sans-Serif" font-size="10.00" fill="#000000">include/Collision.h</text>
</g>
<!-- Node1 -->
<g id="node2" class="node">
<title>Node1</title>
<polygon fill="#ffffff" stroke="#bfbfbf" points="0,-56.5 0,-75.5 44,-75.5 44,-56.5 0,-56.5"/>
<text text-anchor="middle" x="22" y="-63.5" font-family="Helvetica,sans-Serif" font-size="10.00" fill="#000000">cmath</text>
</g>
<!-- Node0&#45;&gt;Node1 -->
<g id="edge1" class="edge">
<title>Node0&#45;&gt;Node1</title>
<path fill="none" stroke="#191970" d="M55.24,-168.1802C46.5611,-159.5606 34.8665,-146.2101 29,-132 22.9541,-117.3553 21.3834,-99.4021 21.2247,-85.9193"/>
<polygon fill="#191970" stroke="#191970" points="24.7257,-85.8606 21.3563,-75.8159 17.7263,-85.7694 24.7257,-85.8606"/>
</g>
<!-- Node2 -->
<g id="node3" class="node">
<title>Node2</title>
<polygon fill="#ffffff" stroke="#bfbfbf" points="38,-112.5 38,-131.5 94,-131.5 94,-112.5 38,-112.5"/>
<text text-anchor="middle" x="66" y="-119.5" font-family="Helvetica,sans-Serif" font-size="10.00" fill="#000000">algorithm</text>
</g>
<!-- Node0&#45;&gt;Node2 -->
<g id="edge2" class="edge">
<title>Node0&#45;&gt;Node2</title>
<path fill="none" stroke="#191970" d="M66,-168.2455C66,-160.9382 66,-150.6944 66,-141.7046"/>
<polygon fill="#191970" stroke="#191970" points="69.5001,-141.6426 66,-131.6427 62.5001,-141.6427 69.5001,-141.6426"/>
</g>
<!-- Node3 -->
<g id="node4" class="node">
<title>Node3</title>
<g id="a_node4"><a xlink:href="Rect_8h.html" target="_top" xlink:title="Rect.h">
<polygon fill="#ffffff" stroke="#000000" points="112,-112.5 112,-131.5 158,-131.5 158,-112.5 112,-112.5"/>
<text text-anchor="middle" x="135" y="-119.5" font-family="Helvetica,sans-Serif" font-size="10.00" fill="#000000">Rect.h</text>
</a>
</g>
</g>
<!-- Node0&#45;&gt;Node3 -->
<g id="edge3" class="edge">
<title>Node0&#45;&gt;Node3</title>
<path fill="none" stroke="#191970" d="M78.0189,-168.2455C88.2098,-159.9746 103.0362,-147.9416 115.0107,-138.2232"/>
<polygon fill="#191970" stroke="#191970" points="117.5598,-140.662 123.1188,-131.6427 113.1486,-135.2268 117.5598,-140.662"/>
</g>
<!-- Node3&#45;&gt;Node1 -->
<g id="edge8" class="edge">
<title>Node3&#45;&gt;Node1</title>
<path fill="none" stroke="#191970" d="M115.5746,-112.3733C97.5979,-103.4644 70.6559,-90.1127 50.291,-80.0203"/>
<polygon fill="#191970" stroke="#191970" points="51.6861,-76.8055 41.1719,-75.5011 48.5778,-83.0776 51.6861,-76.8055"/>
</g>
<!-- Node4 -->
<g id="node5" class="node">
<title>Node4</title>
<g id="a_node5"><a xlink:href="SDL__include_8h.html" target="_top" xlink:title="SDL_include.h">
<polygon fill="#ffffff" stroke="#000000" points="69,-.5 69,-19.5 149,-19.5 149,-.5 69,-.5"/>
<text text-anchor="middle" x="109" y="-7.5" font-family="Helvetica,sans-Serif" font-size="10.00" fill="#000000">SDL_include.h</text>
</a>
</g>
</g>
<!-- Node3&#45;&gt;Node4 -->
<g id="edge4" class="edge">
<title>Node3&#45;&gt;Node4</title>
<path fill="none" stroke="#191970" d="M125.3508,-112.4346C117.35,-103.7723 106.5738,-90.2221 102,-76 97.1494,-60.9172 99.5288,-42.9965 102.771,-29.6377"/>
<polygon fill="#191970" stroke="#191970" points="106.2409,-30.2243 105.5575,-19.6516 99.4985,-28.3429 106.2409,-30.2243"/>
</g>
<!-- Node5 -->
<g id="node6" class="node">
<title>Node5</title>
<g id="a_node6"><a xlink:href="Vec2_8h.html" target="_top" xlink:title="Vec2.h">
<polygon fill="#ffffff" stroke="#000000" points="111.5,-56.5 111.5,-75.5 158.5,-75.5 158.5,-56.5 111.5,-56.5"/>
<text text-anchor="middle" x="135" y="-63.5" font-family="Helvetica,sans-Serif" font-size="10.00" fill="#000000">Vec2.h</text>
</a>
</g>
</g>
<!-- Node3&#45;&gt;Node5 -->
<g id="edge5" class="edge">
<title>Node3&#45;&gt;Node5</title>
<path fill="none" stroke="#191970" d="M129.7332,-112.2455C128.3221,-104.9382 127.9179,-94.6944 128.5205,-85.7046"/>
<polygon fill="#191970" stroke="#191970" points="132.0111,-85.9945 129.7549,-75.6427 125.0632,-85.1421 132.0111,-85.9945"/>
</g>
<!-- Node5&#45;&gt;Node3 -->
<g id="edge7" class="edge">
<title>Node5&#45;&gt;Node3</title>
<path fill="none" stroke="#191970" d="M140.2451,-75.6427C141.6665,-82.9199 142.081,-93.155 141.4887,-102.1575"/>
<polygon fill="#191970" stroke="#191970" points="137.9947,-101.8972 140.2668,-112.2455 144.9439,-102.739 137.9947,-101.8972"/>
</g>
<!-- Node5&#45;&gt;Node4 -->
<g id="edge6" class="edge">
<title>Node5&#45;&gt;Node4</title>
<path fill="none" stroke="#191970" d="M130.4711,-56.2455C126.9666,-48.6973 122.0073,-38.0158 117.7377,-28.8197"/>
<polygon fill="#191970" stroke="#191970" points="120.8627,-27.2389 113.477,-19.6427 114.5136,-30.1867 120.8627,-27.2389"/>
</g>
</g>
</svg>
