<?xml version="1.0" encoding="UTF-8" standalone="no"?>
<!DOCTYPE svg PUBLIC "-//W3C//DTD SVG 1.1//EN"
 "http://www.w3.org/Graphics/SVG/1.1/DTD/svg11.dtd">
<!-- Generated by graphviz version 2.38.0 (20140413.2041)
 -->
<!-- Title: include/Color.h Pages: 1 -->
<svg width="474pt" height="252pt"
 viewBox="0.00 0.00 473.50 252.00" xmlns="http://www.w3.org/2000/svg" xmlns:xlink="http://www.w3.org/1999/xlink">
<g id="graph0" class="graph" transform="scale(1 1) rotate(0) translate(4 248)">
<title>include/Color.h</title>
<polygon fill="white" stroke="none" points="-4,4 -4,-248 469.5,-248 469.5,4 -4,4"/>
<!-- Node2 -->
<g id="node1" class="node"><title>Node2</title>
<polygon fill="#bfbfbf" stroke="black" points="292,-224.5 292,-243.5 374,-243.5 374,-224.5 292,-224.5"/>
<text text-anchor="middle" x="333" y="-231.5" font-family="Helvetica,sans-Serif" font-size="10.00">include/Color.h</text>
</g>
<!-- Node3 -->
<g id="node2" class="node"><title>Node3</title>
<g id="a_node2"><a xlink:href="Sprite_8h.html" target="_top" xlink:title="include/Sprite.h">
<polygon fill="white" stroke="black" points="145,-168.5 145,-187.5 229,-187.5 229,-168.5 145,-168.5"/>
<text text-anchor="middle" x="187" y="-175.5" font-family="Helvetica,sans-Serif" font-size="10.00">include/Sprite.h</text>
</a>
</g>
</g>
<!-- Node2&#45;&gt;Node3 -->
<g id="edge1" class="edge"><title>Node2&#45;&gt;Node3</title>
<path fill="none" stroke="midnightblue" d="M300.301,-220.906C272.852,-210.754 234.332,-196.506 210.026,-187.516"/>
<polygon fill="midnightblue" stroke="midnightblue" points="299.273,-224.257 309.866,-224.444 301.701,-217.692 299.273,-224.257"/>
</g>
<!-- Node11 -->
<g id="node10" class="node"><title>Node11</title>
<g id="a_node10"><a xlink:href="Text_8h.html" target="_top" xlink:title="include/Text.h">
<polygon fill="white" stroke="black" points="294,-168.5 294,-187.5 372,-187.5 372,-168.5 294,-168.5"/>
<text text-anchor="middle" x="333" y="-175.5" font-family="Helvetica,sans-Serif" font-size="10.00">include/Text.h</text>
</a>
</g>
</g>
<!-- Node2&#45;&gt;Node11 -->
<g id="edge9" class="edge"><title>Node2&#45;&gt;Node11</title>
<path fill="none" stroke="midnightblue" d="M333,-213.805C333,-204.91 333,-194.78 333,-187.751"/>
<polygon fill="midnightblue" stroke="midnightblue" points="329.5,-214.083 333,-224.083 336.5,-214.083 329.5,-214.083"/>
</g>
<!-- Node13 -->
<g id="node12" class="node"><title>Node13</title>
<g id="a_node12"><a xlink:href="Color_8cpp.html" target="_top" xlink:title="src/Color.cpp">
<polygon fill="white" stroke="black" points="390.5,-168.5 390.5,-187.5 465.5,-187.5 465.5,-168.5 390.5,-168.5"/>
<text text-anchor="middle" x="428" y="-175.5" font-family="Helvetica,sans-Serif" font-size="10.00">src/Color.cpp</text>
</a>
</g>
</g>
<!-- Node2&#45;&gt;Node13 -->
<g id="edge11" class="edge"><title>Node2&#45;&gt;Node13</title>
<path fill="none" stroke="midnightblue" d="M357.318,-219.177C374.799,-209.241 397.83,-196.149 412.774,-187.655"/>
<polygon fill="midnightblue" stroke="midnightblue" points="355.227,-216.339 348.263,-224.324 358.687,-222.425 355.227,-216.339"/>
</g>
<!-- Node4 -->
<g id="node3" class="node"><title>Node4</title>
<g id="a_node3"><a xlink:href="Animation_8h.html" target="_top" xlink:title="include/Animation.h">
<polygon fill="white" stroke="black" points="0,-112.5 0,-131.5 102,-131.5 102,-112.5 0,-112.5"/>
<text text-anchor="middle" x="51" y="-119.5" font-family="Helvetica,sans-Serif" font-size="10.00">include/Animation.h</text>
</a>
</g>
</g>
<!-- Node3&#45;&gt;Node4 -->
<g id="edge2" class="edge"><title>Node3&#45;&gt;Node4</title>
<path fill="none" stroke="midnightblue" d="M155.865,-164.638C130.343,-154.504 94.8913,-140.427 72.4488,-131.516"/>
<polygon fill="midnightblue" stroke="midnightblue" points="154.865,-168.006 165.45,-168.444 157.448,-161.5 154.865,-168.006"/>
</g>
<!-- Node6 -->
<g id="node5" class="node"><title>Node6</title>
<g id="a_node5"><a xlink:href="Tileset_8h.html" target="_top" xlink:title="include/Tileset.h">
<polygon fill="white" stroke="black" points="120,-112.5 120,-131.5 208,-131.5 208,-112.5 120,-112.5"/>
<text text-anchor="middle" x="164" y="-119.5" font-family="Helvetica,sans-Serif" font-size="10.00">include/Tileset.h</text>
</a>
</g>
</g>
<!-- Node3&#45;&gt;Node6 -->
<g id="edge4" class="edge"><title>Node3&#45;&gt;Node6</title>
<path fill="none" stroke="midnightblue" d="M179.201,-158.69C175.325,-149.589 170.821,-139.014 167.727,-131.751"/>
<polygon fill="midnightblue" stroke="midnightblue" points="176.063,-160.254 183.202,-168.083 182.503,-157.511 176.063,-160.254"/>
</g>
<!-- Node10 -->
<g id="node9" class="node"><title>Node10</title>
<g id="a_node9"><a xlink:href="Sprite_8cpp.html" target="_top" xlink:title="src/Sprite.cpp">
<polygon fill="white" stroke="black" points="226.5,-112.5 226.5,-131.5 303.5,-131.5 303.5,-112.5 226.5,-112.5"/>
<text text-anchor="middle" x="265" y="-119.5" font-family="Helvetica,sans-Serif" font-size="10.00">src/Sprite.cpp</text>
</a>
</g>
</g>
<!-- Node3&#45;&gt;Node10 -->
<g id="edge8" class="edge"><title>Node3&#45;&gt;Node10</title>
<path fill="none" stroke="midnightblue" d="M207.768,-162.622C222.017,-152.757 240.456,-139.992 252.499,-131.655"/>
<polygon fill="midnightblue" stroke="midnightblue" points="205.762,-159.754 199.532,-168.324 209.746,-165.51 205.762,-159.754"/>
</g>
<!-- Node5 -->
<g id="node4" class="node"><title>Node5</title>
<g id="a_node4"><a xlink:href="Animation_8cpp.html" target="_top" xlink:title="src/Animation.cpp">
<polygon fill="white" stroke="black" points="3.5,-56.5 3.5,-75.5 98.5,-75.5 98.5,-56.5 3.5,-56.5"/>
<text text-anchor="middle" x="51" y="-63.5" font-family="Helvetica,sans-Serif" font-size="10.00">src/Animation.cpp</text>
</a>
</g>
</g>
<!-- Node4&#45;&gt;Node5 -->
<g id="edge3" class="edge"><title>Node4&#45;&gt;Node5</title>
<path fill="none" stroke="midnightblue" d="M51,-101.805C51,-92.9102 51,-82.7798 51,-75.7511"/>
<polygon fill="midnightblue" stroke="midnightblue" points="47.5001,-102.083 51,-112.083 54.5001,-102.083 47.5001,-102.083"/>
</g>
<!-- Node7 -->
<g id="node6" class="node"><title>Node7</title>
<g id="a_node6"><a xlink:href="TileMap_8h.html" target="_top" xlink:title="include/TileMap.h">
<polygon fill="white" stroke="black" points="116.5,-56.5 116.5,-75.5 209.5,-75.5 209.5,-56.5 116.5,-56.5"/>
<text text-anchor="middle" x="163" y="-63.5" font-family="Helvetica,sans-Serif" font-size="10.00">include/TileMap.h</text>
</a>
</g>
</g>
<!-- Node6&#45;&gt;Node7 -->
<g id="edge5" class="edge"><title>Node6&#45;&gt;Node7</title>
<path fill="none" stroke="midnightblue" d="M163.645,-101.805C163.48,-92.9102 163.292,-82.7798 163.162,-75.7511"/>
<polygon fill="midnightblue" stroke="midnightblue" points="160.15,-102.15 163.835,-112.083 167.149,-102.02 160.15,-102.15"/>
</g>
<!-- Node9 -->
<g id="node8" class="node"><title>Node9</title>
<g id="a_node8"><a xlink:href="Tileset_8cpp.html" target="_top" xlink:title="src/Tileset.cpp">
<polygon fill="white" stroke="black" points="227.5,-56.5 227.5,-75.5 308.5,-75.5 308.5,-56.5 227.5,-56.5"/>
<text text-anchor="middle" x="268" y="-63.5" font-family="Helvetica,sans-Serif" font-size="10.00">src/Tileset.cpp</text>
</a>
</g>
</g>
<!-- Node6&#45;&gt;Node9 -->
<g id="edge7" class="edge"><title>Node6&#45;&gt;Node9</title>
<path fill="none" stroke="midnightblue" d="M189.828,-107.59C209.057,-97.6052 234.745,-84.2672 251.332,-75.6545"/>
<polygon fill="midnightblue" stroke="midnightblue" points="187.971,-104.61 180.709,-112.324 191.197,-110.822 187.971,-104.61"/>
</g>
<!-- Node8 -->
<g id="node7" class="node"><title>Node8</title>
<g id="a_node7"><a xlink:href="DragAndDrop_8h.html" target="_top" xlink:title="include/DragAndDrop.h">
<polygon fill="white" stroke="black" points="104,-0.5 104,-19.5 222,-19.5 222,-0.5 104,-0.5"/>
<text text-anchor="middle" x="163" y="-7.5" font-family="Helvetica,sans-Serif" font-size="10.00">include/DragAndDrop.h</text>
</a>
</g>
</g>
<!-- Node7&#45;&gt;Node8 -->
<g id="edge6" class="edge"><title>Node7&#45;&gt;Node8</title>
<path fill="none" stroke="midnightblue" d="M163,-45.8045C163,-36.9102 163,-26.7798 163,-19.7511"/>
<polygon fill="midnightblue" stroke="midnightblue" points="159.5,-46.083 163,-56.083 166.5,-46.083 159.5,-46.083"/>
</g>
<!-- Node12 -->
<g id="node11" class="node"><title>Node12</title>
<g id="a_node11"><a xlink:href="Text_8cpp.html" target="_top" xlink:title="src/Text.cpp">
<polygon fill="white" stroke="black" points="321.5,-112.5 321.5,-131.5 392.5,-131.5 392.5,-112.5 321.5,-112.5"/>
<text text-anchor="middle" x="357" y="-119.5" font-family="Helvetica,sans-Serif" font-size="10.00">src/Text.cpp</text>
</a>
</g>
</g>
<!-- Node11&#45;&gt;Node12 -->
<g id="edge10" class="edge"><title>Node11&#45;&gt;Node12</title>
<path fill="none" stroke="midnightblue" d="M341.138,-158.69C345.183,-149.589 349.883,-139.014 353.111,-131.751"/>
<polygon fill="midnightblue" stroke="midnightblue" points="337.826,-157.523 336.963,-168.083 344.223,-160.366 337.826,-157.523"/>
</g>
</g>
</svg>
