<?xml version="1.0" encoding="UTF-8" standalone="no"?>
<!DOCTYPE svg PUBLIC "-//W3C//DTD SVG 1.1//EN"
 "http://www.w3.org/Graphics/SVG/1.1/DTD/svg11.dtd">
<!-- Generated by graphviz version 2.38.0 (20140413.2041)
 -->
<!-- Title: include/Color.h Pages: 1 -->
<svg width="1447pt" height="308pt"
 viewBox="0.00 0.00 1447.00 308.00" xmlns="http://www.w3.org/2000/svg" xmlns:xlink="http://www.w3.org/1999/xlink">
<g id="graph0" class="graph" transform="scale(1 1) rotate(0) translate(4 304)">
<title>include/Color.h</title>
<polygon fill="white" stroke="none" points="-4,4 -4,-304 1443,-304 1443,4 -4,4"/>
<!-- Node2 -->
<g id="node1" class="node"><title>Node2</title>
<polygon fill="#bfbfbf" stroke="black" points="858,-280.5 858,-299.5 940,-299.5 940,-280.5 858,-280.5"/>
<text text-anchor="middle" x="899" y="-287.5" font-family="Helvetica,sans-Serif" font-size="10.00">include/Color.h</text>
</g>
<!-- Node3 -->
<g id="node2" class="node"><title>Node3</title>
<g id="a_node2"><a xlink:href="Sprite_8h.html" target="_top" xlink:title="include/Sprite.h">
<polygon fill="white" stroke="black" points="892,-224.5 892,-243.5 976,-243.5 976,-224.5 892,-224.5"/>
<text text-anchor="middle" x="934" y="-231.5" font-family="Helvetica,sans-Serif" font-size="10.00">include/Sprite.h</text>
</a>
</g>
</g>
<!-- Node2&#45;&gt;Node3 -->
<g id="edge1" class="edge"><title>Node2&#45;&gt;Node3</title>
<path fill="none" stroke="midnightblue" d="M910.3,-271.566C916.322,-262.275 923.469,-251.248 928.328,-243.751"/>
<polygon fill="midnightblue" stroke="midnightblue" points="907.281,-269.788 904.78,-280.083 913.156,-273.595 907.281,-269.788"/>
</g>
<!-- Node21 -->
<g id="node20" class="node"><title>Node21</title>
<g id="a_node20"><a xlink:href="UIimage_8h.html" target="_top" xlink:title="include/UIimage.h">
<polygon fill="white" stroke="black" points="740.5,-112.5 740.5,-131.5 835.5,-131.5 835.5,-112.5 740.5,-112.5"/>
<text text-anchor="middle" x="788" y="-119.5" font-family="Helvetica,sans-Serif" font-size="10.00">include/UIimage.h</text>
</a>
</g>
</g>
<!-- Node2&#45;&gt;Node21 -->
<g id="edge35" class="edge"><title>Node2&#45;&gt;Node21</title>
<path fill="none" stroke="midnightblue" d="M879.473,-273.863C869.811,-265.72 858.442,-255.088 850,-244 820.974,-205.876 798.996,-152.129 791.14,-131.509"/>
<polygon fill="midnightblue" stroke="midnightblue" points="877.444,-276.725 887.407,-280.328 881.865,-271.298 877.444,-276.725"/>
</g>
<!-- Node22 -->
<g id="node21" class="node"><title>Node22</title>
<g id="a_node21"><a xlink:href="UIimageButton_8h.html" target="_top" xlink:title="include/UIimageButton.h">
<polygon fill="white" stroke="black" points="878,-56.5 878,-75.5 1002,-75.5 1002,-56.5 878,-56.5"/>
<text text-anchor="middle" x="940" y="-63.5" font-family="Helvetica,sans-Serif" font-size="10.00">include/UIimageButton.h</text>
</a>
</g>
</g>
<!-- Node2&#45;&gt;Node22 -->
<g id="edge36" class="edge"><title>Node2&#45;&gt;Node22</title>
<path fill="none" stroke="midnightblue" d="M890.943,-270.827C887.795,-262.778 884.568,-253.09 883,-244 877.259,-210.714 874.418,-200.669 883,-168 892.874,-130.416 920.257,-92.0957 933.137,-75.5112"/>
<polygon fill="midnightblue" stroke="midnightblue" points="887.806,-272.398 894.889,-280.277 894.265,-269.701 887.806,-272.398"/>
</g>
<!-- Node31 -->
<g id="node30" class="node"><title>Node31</title>
<g id="a_node30"><a xlink:href="Color_8cpp.html" target="_top" xlink:title="src/Color.cpp">
<polygon fill="white" stroke="black" points="993.5,-224.5 993.5,-243.5 1068.5,-243.5 1068.5,-224.5 993.5,-224.5"/>
<text text-anchor="middle" x="1031" y="-231.5" font-family="Helvetica,sans-Serif" font-size="10.00">src/Color.cpp</text>
</a>
</g>
</g>
<!-- Node2&#45;&gt;Node31 -->
<g id="edge37" class="edge"><title>Node2&#45;&gt;Node31</title>
<path fill="none" stroke="midnightblue" d="M929.219,-276.638C953.99,-266.504 988.4,-252.427 1010.18,-243.516"/>
<polygon fill="midnightblue" stroke="midnightblue" points="927.846,-273.418 919.916,-280.444 930.497,-279.897 927.846,-273.418"/>
</g>
<!-- Node4 -->
<g id="node3" class="node"><title>Node4</title>
<g id="a_node3"><a xlink:href="Animation_8h.html" target="_top" xlink:title="include/Animation.h">
<polygon fill="white" stroke="black" points="988,-168.5 988,-187.5 1090,-187.5 1090,-168.5 988,-168.5"/>
<text text-anchor="middle" x="1039" y="-175.5" font-family="Helvetica,sans-Serif" font-size="10.00">include/Animation.h</text>
</a>
</g>
</g>
<!-- Node3&#45;&gt;Node4 -->
<g id="edge2" class="edge"><title>Node3&#45;&gt;Node4</title>
<path fill="none" stroke="midnightblue" d="M959.81,-219.726C979.253,-209.727 1005.35,-196.307 1022.17,-187.655"/>
<polygon fill="midnightblue" stroke="midnightblue" points="958.162,-216.638 950.87,-224.324 961.364,-222.863 958.162,-216.638"/>
</g>
<!-- Node6 -->
<g id="node5" class="node"><title>Node6</title>
<g id="a_node5"><a xlink:href="Tileset_8h.html" target="_top" xlink:title="include/Tileset.h">
<polygon fill="white" stroke="black" points="1146,-168.5 1146,-187.5 1234,-187.5 1234,-168.5 1146,-168.5"/>
<text text-anchor="middle" x="1190" y="-175.5" font-family="Helvetica,sans-Serif" font-size="10.00">include/Tileset.h</text>
</a>
</g>
</g>
<!-- Node3&#45;&gt;Node6 -->
<g id="edge4" class="edge"><title>Node3&#45;&gt;Node6</title>
<path fill="none" stroke="midnightblue" d="M984.51,-222.346C1032.89,-212.141 1104.95,-196.94 1149.63,-187.516"/>
<polygon fill="midnightblue" stroke="midnightblue" points="983.626,-218.955 974.564,-224.444 985.071,-225.804 983.626,-218.955"/>
</g>
<!-- Node12 -->
<g id="node11" class="node"><title>Node12</title>
<g id="a_node11"><a xlink:href="UIelement_8h.html" target="_top" xlink:title="include/UIelement.h">
<polygon fill="white" stroke="black" points="454,-168.5 454,-187.5 558,-187.5 558,-168.5 454,-168.5"/>
<text text-anchor="middle" x="506" y="-175.5" font-family="Helvetica,sans-Serif" font-size="10.00">include/UIelement.h</text>
</a>
</g>
</g>
<!-- Node3&#45;&gt;Node12 -->
<g id="edge11" class="edge"><title>Node3&#45;&gt;Node12</title>
<path fill="none" stroke="midnightblue" d="M881.654,-226.396C799.286,-216.003 640.356,-195.952 558.126,-185.577"/>
<polygon fill="midnightblue" stroke="midnightblue" points="881.431,-229.895 891.79,-227.674 882.307,-222.95 881.431,-229.895"/>
</g>
<!-- Node3&#45;&gt;Node21 -->
<g id="edge32" class="edge"><title>Node3&#45;&gt;Node21</title>
<path fill="none" stroke="midnightblue" d="M914.247,-218.118C883.257,-194.769 824.195,-150.27 799.403,-131.591"/>
<polygon fill="midnightblue" stroke="midnightblue" points="912.451,-221.146 922.544,-224.368 916.663,-215.556 912.451,-221.146"/>
</g>
<!-- Node3&#45;&gt;Node22 -->
<g id="edge33" class="edge"><title>Node3&#45;&gt;Node22</title>
<path fill="none" stroke="midnightblue" d="M984.973,-222.346C1030.76,-212.261 1091.88,-197.315 1099,-188 1108.27,-175.859 1117.53,-139.075 1096,-112 1073.81,-84.0896 1035.46,-72.7746 1002.34,-68.4692"/>
<polygon fill="midnightblue" stroke="midnightblue" points="984.193,-218.934 975.168,-224.484 985.684,-225.773 984.193,-218.934"/>
</g>
<!-- Node30 -->
<g id="node29" class="node"><title>Node30</title>
<g id="a_node29"><a xlink:href="Sprite_8cpp.html" target="_top" xlink:title="src/Sprite.cpp">
<polygon fill="white" stroke="black" points="892.5,-168.5 892.5,-187.5 969.5,-187.5 969.5,-168.5 892.5,-168.5"/>
<text text-anchor="middle" x="931" y="-175.5" font-family="Helvetica,sans-Serif" font-size="10.00">src/Sprite.cpp</text>
</a>
</g>
</g>
<!-- Node3&#45;&gt;Node30 -->
<g id="edge34" class="edge"><title>Node3&#45;&gt;Node30</title>
<path fill="none" stroke="midnightblue" d="M932.934,-213.805C932.439,-204.91 931.877,-194.78 931.486,-187.751"/>
<polygon fill="midnightblue" stroke="midnightblue" points="929.455,-214.293 933.505,-224.083 936.444,-213.904 929.455,-214.293"/>
</g>
<!-- Node5 -->
<g id="node4" class="node"><title>Node5</title>
<g id="a_node4"><a xlink:href="Animation_8cpp.html" target="_top" xlink:title="src/Animation.cpp">
<polygon fill="white" stroke="black" points="991.5,-112.5 991.5,-131.5 1086.5,-131.5 1086.5,-112.5 991.5,-112.5"/>
<text text-anchor="middle" x="1039" y="-119.5" font-family="Helvetica,sans-Serif" font-size="10.00">src/Animation.cpp</text>
</a>
</g>
</g>
<!-- Node4&#45;&gt;Node5 -->
<g id="edge3" class="edge"><title>Node4&#45;&gt;Node5</title>
<path fill="none" stroke="midnightblue" d="M1039,-157.805C1039,-148.91 1039,-138.78 1039,-131.751"/>
<polygon fill="midnightblue" stroke="midnightblue" points="1035.5,-158.083 1039,-168.083 1042.5,-158.083 1035.5,-158.083"/>
</g>
<!-- Node7 -->
<g id="node6" class="node"><title>Node7</title>
<g id="a_node6"><a xlink:href="TileMap_8h.html" target="_top" xlink:title="include/TileMap.h">
<polygon fill="white" stroke="black" points="1246.5,-112.5 1246.5,-131.5 1339.5,-131.5 1339.5,-112.5 1246.5,-112.5"/>
<text text-anchor="middle" x="1293" y="-119.5" font-family="Helvetica,sans-Serif" font-size="10.00">include/TileMap.h</text>
</a>
</g>
</g>
<!-- Node6&#45;&gt;Node7 -->
<g id="edge5" class="edge"><title>Node6&#45;&gt;Node7</title>
<path fill="none" stroke="midnightblue" d="M1215.58,-163.59C1234.62,-153.605 1260.06,-140.267 1276.49,-131.655"/>
<polygon fill="midnightblue" stroke="midnightblue" points="1213.78,-160.581 1206.55,-168.324 1217.03,-166.78 1213.78,-160.581"/>
</g>
<!-- Node11 -->
<g id="node10" class="node"><title>Node11</title>
<g id="a_node10"><a xlink:href="Tileset_8cpp.html" target="_top" xlink:title="src/Tileset.cpp">
<polygon fill="white" stroke="black" points="1147.5,-112.5 1147.5,-131.5 1228.5,-131.5 1228.5,-112.5 1147.5,-112.5"/>
<text text-anchor="middle" x="1188" y="-119.5" font-family="Helvetica,sans-Serif" font-size="10.00">src/Tileset.cpp</text>
</a>
</g>
</g>
<!-- Node6&#45;&gt;Node11 -->
<g id="edge10" class="edge"><title>Node6&#45;&gt;Node11</title>
<path fill="none" stroke="midnightblue" d="M1189.29,-157.805C1188.96,-148.91 1188.58,-138.78 1188.32,-131.751"/>
<polygon fill="midnightblue" stroke="midnightblue" points="1185.8,-158.219 1189.67,-168.083 1192.8,-157.96 1185.8,-158.219"/>
</g>
<!-- Node8 -->
<g id="node7" class="node"><title>Node8</title>
<g id="a_node7"><a xlink:href="DragAndDrop_8h.html" target="_top" xlink:title="include/DragAndDrop.h">
<polygon fill="white" stroke="black" points="1321,-56.5 1321,-75.5 1439,-75.5 1439,-56.5 1321,-56.5"/>
<text text-anchor="middle" x="1380" y="-63.5" font-family="Helvetica,sans-Serif" font-size="10.00">include/DragAndDrop.h</text>
</a>
</g>
</g>
<!-- Node7&#45;&gt;Node8 -->
<g id="edge6" class="edge"><title>Node7&#45;&gt;Node8</title>
<path fill="none" stroke="midnightblue" d="M1315.72,-106.901C1331.67,-96.9986 1352.5,-84.0705 1366.06,-75.6545"/>
<polygon fill="midnightblue" stroke="midnightblue" points="1313.63,-104.077 1306.98,-112.324 1317.32,-110.024 1313.63,-104.077"/>
</g>
<!-- Node9 -->
<g id="node8" class="node"><title>Node9</title>
<g id="a_node8"><a xlink:href="DragAndDrop_8cpp.html" target="_top" xlink:title="src/DragAndDrop.cpp">
<polygon fill="white" stroke="black" points="1280.5,-0.5 1280.5,-19.5 1391.5,-19.5 1391.5,-0.5 1280.5,-0.5"/>
<text text-anchor="middle" x="1336" y="-7.5" font-family="Helvetica,sans-Serif" font-size="10.00">src/DragAndDrop.cpp</text>
</a>
</g>
</g>
<!-- Node7&#45;&gt;Node9 -->
<g id="edge8" class="edge"><title>Node7&#45;&gt;Node9</title>
<path fill="none" stroke="midnightblue" d="M1297.3,-102.622C1300.64,-89.4131 1305.76,-71.3094 1312,-56 1317.35,-42.8819 1325.39,-28.5833 1330.66,-19.7041"/>
<polygon fill="midnightblue" stroke="midnightblue" points="1293.88,-101.852 1294.92,-112.396 1300.68,-103.507 1293.88,-101.852"/>
</g>
<!-- Node10 -->
<g id="node9" class="node"><title>Node10</title>
<g id="a_node9"><a xlink:href="TileMap_8cpp.html" target="_top" xlink:title="src/TileMap.cpp">
<polygon fill="white" stroke="black" points="1179,-56.5 1179,-75.5 1265,-75.5 1265,-56.5 1179,-56.5"/>
<text text-anchor="middle" x="1222" y="-63.5" font-family="Helvetica,sans-Serif" font-size="10.00">src/TileMap.cpp</text>
</a>
</g>
</g>
<!-- Node7&#45;&gt;Node10 -->
<g id="edge9" class="edge"><title>Node7&#45;&gt;Node10</title>
<path fill="none" stroke="midnightblue" d="M1273.41,-106.101C1260.63,-96.3824 1244.39,-84.0269 1233.61,-75.8339"/>
<polygon fill="midnightblue" stroke="midnightblue" points="1271.51,-109.056 1281.59,-112.324 1275.75,-103.484 1271.51,-109.056"/>
</g>
<!-- Node8&#45;&gt;Node9 -->
<g id="edge7" class="edge"><title>Node8&#45;&gt;Node9</title>
<path fill="none" stroke="midnightblue" d="M1366.27,-48.144C1358.6,-38.7357 1349.37,-27.4046 1343.13,-19.7511"/>
<polygon fill="midnightblue" stroke="midnightblue" points="1363.7,-50.5415 1372.73,-56.083 1369.13,-46.1198 1363.7,-50.5415"/>
</g>
<!-- Node13 -->
<g id="node12" class="node"><title>Node13</title>
<g id="a_node12"><a xlink:href="UIcanvas_8h.html" target="_top" xlink:title="include/UIcanvas.h">
<polygon fill="white" stroke="black" points="514.5,-112.5 514.5,-131.5 615.5,-131.5 615.5,-112.5 514.5,-112.5"/>
<text text-anchor="middle" x="565" y="-119.5" font-family="Helvetica,sans-Serif" font-size="10.00">include/UIcanvas.h</text>
</a>
</g>
</g>
<!-- Node12&#45;&gt;Node13 -->
<g id="edge12" class="edge"><title>Node12&#45;&gt;Node13</title>
<path fill="none" stroke="midnightblue" d="M522.895,-161.537C533.415,-151.909 546.569,-139.869 555.348,-131.834"/>
<polygon fill="midnightblue" stroke="midnightblue" points="520.493,-158.99 515.479,-168.324 525.219,-164.154 520.493,-158.99"/>
</g>
<!-- Node14 -->
<g id="node13" class="node"><title>Node14</title>
<g id="a_node13"><a xlink:href="UIgridGroup_8h.html" target="_top" xlink:title="include/UIgridGroup.h">
<polygon fill="white" stroke="black" points="374.5,-56.5 374.5,-75.5 485.5,-75.5 485.5,-56.5 374.5,-56.5"/>
<text text-anchor="middle" x="430" y="-63.5" font-family="Helvetica,sans-Serif" font-size="10.00">include/UIgridGroup.h</text>
</a>
</g>
</g>
<!-- Node12&#45;&gt;Node14 -->
<g id="edge20" class="edge"><title>Node12&#45;&gt;Node14</title>
<path fill="none" stroke="midnightblue" d="M444.004,-167.451C423.337,-160.989 402.431,-150.157 390,-132 376.526,-112.32 401.775,-88.1802 417.954,-75.5814"/>
<polygon fill="midnightblue" stroke="midnightblue" points="443.196,-170.859 453.77,-170.204 445.095,-164.122 443.196,-170.859"/>
</g>
<!-- Node16 -->
<g id="node15" class="node"><title>Node16</title>
<g id="a_node15"><a xlink:href="UIhorizontalGroup_8h.html" target="_top" xlink:title="include/UIhorizontalGroup.h">
<polygon fill="white" stroke="black" points="616.5,-56.5 616.5,-75.5 753.5,-75.5 753.5,-56.5 616.5,-56.5"/>
<text text-anchor="middle" x="685" y="-63.5" font-family="Helvetica,sans-Serif" font-size="10.00">include/UIhorizontalGroup.h</text>
</a>
</g>
</g>
<!-- Node12&#45;&gt;Node16 -->
<g id="edge21" class="edge"><title>Node12&#45;&gt;Node16</title>
<path fill="none" stroke="midnightblue" d="M549.614,-165.568C572.915,-158.218 601.375,-147.173 624,-132 647.65,-116.14 668.816,-89.4997 678.851,-75.769"/>
<polygon fill="midnightblue" stroke="midnightblue" points="548.529,-162.24 539.976,-168.493 550.561,-168.938 548.529,-162.24"/>
</g>
<!-- Node18 -->
<g id="node17" class="node"><title>Node18</title>
<g id="a_node17"><a xlink:href="UIverticalGroup_8h.html" target="_top" xlink:title="include/UIverticalGroup.h">
<polygon fill="white" stroke="black" points="229.5,-56.5 229.5,-75.5 356.5,-75.5 356.5,-56.5 229.5,-56.5"/>
<text text-anchor="middle" x="293" y="-63.5" font-family="Helvetica,sans-Serif" font-size="10.00">include/UIverticalGroup.h</text>
</a>
</g>
</g>
<!-- Node12&#45;&gt;Node18 -->
<g id="edge30" class="edge"><title>Node12&#45;&gt;Node18</title>
<path fill="none" stroke="midnightblue" d="M465.949,-165.432C441.304,-157.571 409.477,-146.058 383,-132 351.677,-115.369 318.887,-89.0659 302.92,-75.586"/>
<polygon fill="midnightblue" stroke="midnightblue" points="465.105,-168.835 475.694,-168.471 467.189,-162.153 465.105,-168.835"/>
</g>
<!-- Node12&#45;&gt;Node21 -->
<g id="edge22" class="edge"><title>Node12&#45;&gt;Node21</title>
<path fill="none" stroke="midnightblue" d="M560.639,-166.537C613.935,-156.332 694.004,-140.999 743.525,-131.516"/>
<polygon fill="midnightblue" stroke="midnightblue" points="559.847,-163.125 550.684,-168.444 561.164,-170 559.847,-163.125"/>
</g>
<!-- Node25 -->
<g id="node24" class="node"><title>Node25</title>
<g id="a_node24"><a xlink:href="UItext_8h.html" target="_top" xlink:title="include/UItext.h">
<polygon fill="white" stroke="black" points="129,-112.5 129,-131.5 215,-131.5 215,-112.5 129,-112.5"/>
<text text-anchor="middle" x="172" y="-119.5" font-family="Helvetica,sans-Serif" font-size="10.00">include/UItext.h</text>
</a>
</g>
</g>
<!-- Node12&#45;&gt;Node25 -->
<g id="edge26" class="edge"><title>Node12&#45;&gt;Node25</title>
<path fill="none" stroke="midnightblue" d="M443.859,-166.953C377.238,-156.182 273.223,-139.365 215.066,-129.963"/>
<polygon fill="midnightblue" stroke="midnightblue" points="443.382,-170.422 453.812,-168.562 444.499,-163.511 443.382,-170.422"/>
</g>
<!-- Node29 -->
<g id="node28" class="node"><title>Node29</title>
<g id="a_node28"><a xlink:href="UIelement_8cpp.html" target="_top" xlink:title="src/UIelement.cpp">
<polygon fill="white" stroke="black" points="399.5,-112.5 399.5,-131.5 496.5,-131.5 496.5,-112.5 399.5,-112.5"/>
<text text-anchor="middle" x="448" y="-119.5" font-family="Helvetica,sans-Serif" font-size="10.00">src/UIelement.cpp</text>
</a>
</g>
</g>
<!-- Node12&#45;&gt;Node29 -->
<g id="edge31" class="edge"><title>Node12&#45;&gt;Node29</title>
<path fill="none" stroke="midnightblue" d="M489.087,-161.253C478.797,-151.673 466.034,-139.791 457.488,-131.834"/>
<polygon fill="midnightblue" stroke="midnightblue" points="486.977,-164.071 496.681,-168.324 491.747,-158.948 486.977,-164.071"/>
</g>
<!-- Node13&#45;&gt;Node14 -->
<g id="edge13" class="edge"><title>Node13&#45;&gt;Node14</title>
<path fill="none" stroke="midnightblue" d="M534.094,-108.638C508.76,-98.504 473.569,-84.4274 451.291,-75.5164"/>
<polygon fill="midnightblue" stroke="midnightblue" points="533.024,-111.979 543.609,-112.444 535.624,-105.48 533.024,-111.979"/>
</g>
<!-- Node13&#45;&gt;Node16 -->
<g id="edge15" class="edge"><title>Node13&#45;&gt;Node16</title>
<path fill="none" stroke="midnightblue" d="M593.373,-108.232C615.82,-98.1312 646.535,-84.3091 666.075,-75.5164"/>
<polygon fill="midnightblue" stroke="midnightblue" points="591.697,-105.148 584.014,-112.444 594.57,-111.532 591.697,-105.148"/>
</g>
<!-- Node13&#45;&gt;Node18 -->
<g id="edge17" class="edge"><title>Node13&#45;&gt;Node18</title>
<path fill="none" stroke="midnightblue" d="M511.977,-110.473C460.571,-100.268 383.563,-84.9794 335.898,-75.5164"/>
<polygon fill="midnightblue" stroke="midnightblue" points="511.411,-113.929 521.901,-112.444 512.774,-107.063 511.411,-113.929"/>
</g>
<!-- Node20 -->
<g id="node19" class="node"><title>Node20</title>
<g id="a_node19"><a xlink:href="UIcanvas_8cpp.html" target="_top" xlink:title="src/UIcanvas.cpp">
<polygon fill="white" stroke="black" points="504,-56.5 504,-75.5 598,-75.5 598,-56.5 504,-56.5"/>
<text text-anchor="middle" x="551" y="-63.5" font-family="Helvetica,sans-Serif" font-size="10.00">src/UIcanvas.cpp</text>
</a>
</g>
</g>
<!-- Node13&#45;&gt;Node20 -->
<g id="edge19" class="edge"><title>Node13&#45;&gt;Node20</title>
<path fill="none" stroke="midnightblue" d="M560.177,-102.396C557.835,-93.362 555.132,-82.936 553.269,-75.7511"/>
<polygon fill="midnightblue" stroke="midnightblue" points="556.79,-103.281 562.688,-112.083 563.566,-101.525 556.79,-103.281"/>
</g>
<!-- Node15 -->
<g id="node14" class="node"><title>Node15</title>
<g id="a_node14"><a xlink:href="UIgridGroup_8cpp.html" target="_top" xlink:title="src/UIgridGroup.cpp">
<polygon fill="white" stroke="black" points="378,-0.5 378,-19.5 482,-19.5 482,-0.5 378,-0.5"/>
<text text-anchor="middle" x="430" y="-7.5" font-family="Helvetica,sans-Serif" font-size="10.00">src/UIgridGroup.cpp</text>
</a>
</g>
</g>
<!-- Node14&#45;&gt;Node15 -->
<g id="edge14" class="edge"><title>Node14&#45;&gt;Node15</title>
<path fill="none" stroke="midnightblue" d="M430,-45.8045C430,-36.9102 430,-26.7798 430,-19.7511"/>
<polygon fill="midnightblue" stroke="midnightblue" points="426.5,-46.083 430,-56.083 433.5,-46.083 426.5,-46.083"/>
</g>
<!-- Node17 -->
<g id="node16" class="node"><title>Node17</title>
<g id="a_node16"><a xlink:href="UIhorizontalGroup_8cpp.html" target="_top" xlink:title="src/UIhorizontalGroup.cpp">
<polygon fill="white" stroke="black" points="619.5,-0.5 619.5,-19.5 750.5,-19.5 750.5,-0.5 619.5,-0.5"/>
<text text-anchor="middle" x="685" y="-7.5" font-family="Helvetica,sans-Serif" font-size="10.00">src/UIhorizontalGroup.cpp</text>
</a>
</g>
</g>
<!-- Node16&#45;&gt;Node17 -->
<g id="edge16" class="edge"><title>Node16&#45;&gt;Node17</title>
<path fill="none" stroke="midnightblue" d="M685,-45.8045C685,-36.9102 685,-26.7798 685,-19.7511"/>
<polygon fill="midnightblue" stroke="midnightblue" points="681.5,-46.083 685,-56.083 688.5,-46.083 681.5,-46.083"/>
</g>
<!-- Node19 -->
<g id="node18" class="node"><title>Node19</title>
<g id="a_node18"><a xlink:href="UIverticalGroup_8cpp.html" target="_top" xlink:title="src/UIverticalGroup.cpp">
<polygon fill="white" stroke="black" points="233,-0.5 233,-19.5 353,-19.5 353,-0.5 233,-0.5"/>
<text text-anchor="middle" x="293" y="-7.5" font-family="Helvetica,sans-Serif" font-size="10.00">src/UIverticalGroup.cpp</text>
</a>
</g>
</g>
<!-- Node18&#45;&gt;Node19 -->
<g id="edge18" class="edge"><title>Node18&#45;&gt;Node19</title>
<path fill="none" stroke="midnightblue" d="M293,-45.8045C293,-36.9102 293,-26.7798 293,-19.7511"/>
<polygon fill="midnightblue" stroke="midnightblue" points="289.5,-46.083 293,-56.083 296.5,-46.083 289.5,-46.083"/>
</g>
<!-- Node21&#45;&gt;Node22 -->
<g id="edge23" class="edge"><title>Node21&#45;&gt;Node22</title>
<path fill="none" stroke="midnightblue" d="M821.668,-109.039C850.268,-98.8786 890.612,-84.5457 916.028,-75.5164"/>
<polygon fill="midnightblue" stroke="midnightblue" points="820.336,-105.798 812.085,-112.444 822.68,-112.394 820.336,-105.798"/>
</g>
<!-- Node24 -->
<g id="node23" class="node"><title>Node24</title>
<g id="a_node23"><a xlink:href="UIimage_8cpp.html" target="_top" xlink:title="src/UIimage.cpp">
<polygon fill="white" stroke="black" points="771.5,-56.5 771.5,-75.5 860.5,-75.5 860.5,-56.5 771.5,-56.5"/>
<text text-anchor="middle" x="816" y="-63.5" font-family="Helvetica,sans-Serif" font-size="10.00">src/UIimage.cpp</text>
</a>
</g>
</g>
<!-- Node21&#45;&gt;Node24 -->
<g id="edge25" class="edge"><title>Node21&#45;&gt;Node24</title>
<path fill="none" stroke="midnightblue" d="M797.342,-102.983C802.095,-93.8168 807.656,-83.0922 811.462,-75.7511"/>
<polygon fill="midnightblue" stroke="midnightblue" points="794.12,-101.594 792.624,-112.083 800.334,-104.817 794.12,-101.594"/>
</g>
<!-- Node23 -->
<g id="node22" class="node"><title>Node23</title>
<g id="a_node22"><a xlink:href="UIimageButton_8cpp.html" target="_top" xlink:title="src/UIimageButton.cpp">
<polygon fill="white" stroke="black" points="881.5,-0.5 881.5,-19.5 998.5,-19.5 998.5,-0.5 881.5,-0.5"/>
<text text-anchor="middle" x="940" y="-7.5" font-family="Helvetica,sans-Serif" font-size="10.00">src/UIimageButton.cpp</text>
</a>
</g>
</g>
<!-- Node22&#45;&gt;Node23 -->
<g id="edge24" class="edge"><title>Node22&#45;&gt;Node23</title>
<path fill="none" stroke="midnightblue" d="M940,-45.8045C940,-36.9102 940,-26.7798 940,-19.7511"/>
<polygon fill="midnightblue" stroke="midnightblue" points="936.5,-46.083 940,-56.083 943.5,-46.083 936.5,-46.083"/>
</g>
<!-- Node26 -->
<g id="node25" class="node"><title>Node26</title>
<g id="a_node25"><a xlink:href="UItextButton_8h.html" target="_top" xlink:title="include/UItextButton.h">
<polygon fill="white" stroke="black" points="0,-56.5 0,-75.5 114,-75.5 114,-56.5 0,-56.5"/>
<text text-anchor="middle" x="57" y="-63.5" font-family="Helvetica,sans-Serif" font-size="10.00">include/UItextButton.h</text>
</a>
</g>
</g>
<!-- Node25&#45;&gt;Node26 -->
<g id="edge27" class="edge"><title>Node25&#45;&gt;Node26</title>
<path fill="none" stroke="midnightblue" d="M144.519,-108.096C123.034,-98.0073 93.7781,-84.2697 75.1368,-75.5164"/>
<polygon fill="midnightblue" stroke="midnightblue" points="143.238,-111.361 153.778,-112.444 146.214,-105.025 143.238,-111.361"/>
</g>
<!-- Node28 -->
<g id="node27" class="node"><title>Node28</title>
<g id="a_node27"><a xlink:href="UItext_8cpp.html" target="_top" xlink:title="src/UItext.cpp">
<polygon fill="white" stroke="black" points="132.5,-56.5 132.5,-75.5 211.5,-75.5 211.5,-56.5 132.5,-56.5"/>
<text text-anchor="middle" x="172" y="-63.5" font-family="Helvetica,sans-Serif" font-size="10.00">src/UItext.cpp</text>
</a>
</g>
</g>
<!-- Node25&#45;&gt;Node28 -->
<g id="edge29" class="edge"><title>Node25&#45;&gt;Node28</title>
<path fill="none" stroke="midnightblue" d="M172,-101.805C172,-92.9102 172,-82.7798 172,-75.7511"/>
<polygon fill="midnightblue" stroke="midnightblue" points="168.5,-102.083 172,-112.083 175.5,-102.083 168.5,-102.083"/>
</g>
<!-- Node27 -->
<g id="node26" class="node"><title>Node27</title>
<g id="a_node26"><a xlink:href="UItextButton_8cpp.html" target="_top" xlink:title="src/UItextButton.cpp">
<polygon fill="white" stroke="black" points="3.5,-0.5 3.5,-19.5 110.5,-19.5 110.5,-0.5 3.5,-0.5"/>
<text text-anchor="middle" x="57" y="-7.5" font-family="Helvetica,sans-Serif" font-size="10.00">src/UItextButton.cpp</text>
</a>
</g>
</g>
<!-- Node26&#45;&gt;Node27 -->
<g id="edge28" class="edge"><title>Node26&#45;&gt;Node27</title>
<path fill="none" stroke="midnightblue" d="M57,-45.8045C57,-36.9102 57,-26.7798 57,-19.7511"/>
<polygon fill="midnightblue" stroke="midnightblue" points="53.5001,-46.083 57,-56.083 60.5001,-46.083 53.5001,-46.083"/>
</g>
</g>
</svg>
