<?xml version="1.0" encoding="UTF-8" standalone="no"?>
<!DOCTYPE svg PUBLIC "-//W3C//DTD SVG 1.1//EN"
 "http://www.w3.org/Graphics/SVG/1.1/DTD/svg11.dtd">
<!-- Generated by graphviz version 2.40.1 (20161225.0304)
 -->
<!-- Title: include/Color.h Pages: 1 -->
<svg width="460pt" height="308pt"
 viewBox="0.00 0.00 460.00 308.00" xmlns="http://www.w3.org/2000/svg" xmlns:xlink="http://www.w3.org/1999/xlink">
<g id="graph0" class="graph" transform="scale(1 1) rotate(0) translate(4 304)">
<title>include/Color.h</title>
<polygon fill="#ffffff" stroke="transparent" points="-4,4 -4,-304 456,-304 456,4 -4,4"/>
<!-- Node2 -->
<g id="node1" class="node">
<title>Node2</title>
<polygon fill="#bfbfbf" stroke="#000000" points="278.5,-280.5 278.5,-299.5 360.5,-299.5 360.5,-280.5 278.5,-280.5"/>
<text text-anchor="middle" x="319.5" y="-287.5" font-family="Helvetica,sans-Serif" font-size="10.00" fill="#000000">include/Color.h</text>
</g>
<!-- Node3 -->
<g id="node2" class="node">
<title>Node3</title>
<g id="a_node2"><a xlink:href="Sprite_8h.html" target="_top" xlink:title="include/Sprite.h">
<polygon fill="#ffffff" stroke="#000000" points="178.5,-224.5 178.5,-243.5 262.5,-243.5 262.5,-224.5 178.5,-224.5"/>
<text text-anchor="middle" x="220.5" y="-231.5" font-family="Helvetica,sans-Serif" font-size="10.00" fill="#000000">include/Sprite.h</text>
</a>
</g>
</g>
<!-- Node2&#45;&gt;Node3 -->
<g id="edge1" class="edge">
<title>Node2&#45;&gt;Node3</title>
<path fill="none" stroke="#191970" d="M293.0643,-275.0465C275.4492,-265.0824 252.8153,-252.2794 237.5469,-243.6427"/>
<polygon fill="#191970" stroke="#191970" points="291.8283,-278.3684 302.2555,-280.2455 295.2747,-272.2756 291.8283,-278.3684"/>
</g>
<!-- Node10 -->
<g id="node9" class="node">
<title>Node10</title>
<g id="a_node9"><a xlink:href="Text_8h.html" target="_top" xlink:title="include/Text.h">
<polygon fill="#ffffff" stroke="#000000" points="280.5,-224.5 280.5,-243.5 358.5,-243.5 358.5,-224.5 280.5,-224.5"/>
<text text-anchor="middle" x="319.5" y="-231.5" font-family="Helvetica,sans-Serif" font-size="10.00" fill="#000000">include/Text.h</text>
</a>
</g>
</g>
<!-- Node2&#45;&gt;Node10 -->
<g id="edge8" class="edge">
<title>Node2&#45;&gt;Node10</title>
<path fill="none" stroke="#191970" d="M319.5,-270.1575C319.5,-261.155 319.5,-250.9199 319.5,-243.6427"/>
<polygon fill="#191970" stroke="#191970" points="316.0001,-270.2455 319.5,-280.2455 323.0001,-270.2456 316.0001,-270.2455"/>
</g>
<!-- Node12 -->
<g id="node11" class="node">
<title>Node12</title>
<g id="a_node11"><a xlink:href="Color_8cpp.html" target="_top" xlink:title="src/Color.cpp">
<polygon fill="#ffffff" stroke="#000000" points="377,-224.5 377,-243.5 452,-243.5 452,-224.5 377,-224.5"/>
<text text-anchor="middle" x="414.5" y="-231.5" font-family="Helvetica,sans-Serif" font-size="10.00" fill="#000000">src/Color.cpp</text>
</a>
</g>
</g>
<!-- Node2&#45;&gt;Node12 -->
<g id="edge10" class="edge">
<title>Node2&#45;&gt;Node12</title>
<path fill="none" stroke="#191970" d="M344.8676,-275.0465C361.771,-265.0824 383.4904,-252.2794 398.1419,-243.6427"/>
<polygon fill="#191970" stroke="#191970" points="342.8851,-272.1522 336.0477,-280.2455 346.4398,-278.1825 342.8851,-272.1522"/>
</g>
<!-- Node4 -->
<g id="node3" class="node">
<title>Node4</title>
<g id="a_node3"><a xlink:href="Tileset_8h.html" target="_top" xlink:title="include/Tileset.h">
<polygon fill="#ffffff" stroke="#000000" points="79.5,-168.5 79.5,-187.5 167.5,-187.5 167.5,-168.5 79.5,-168.5"/>
<text text-anchor="middle" x="123.5" y="-175.5" font-family="Helvetica,sans-Serif" font-size="10.00" fill="#000000">include/Tileset.h</text>
</a>
</g>
</g>
<!-- Node3&#45;&gt;Node4 -->
<g id="edge2" class="edge">
<title>Node3&#45;&gt;Node4</title>
<path fill="none" stroke="#191970" d="M194.5984,-219.0465C177.3391,-209.0824 155.1624,-196.2794 140.2025,-187.6427"/>
<polygon fill="#191970" stroke="#191970" points="193.1936,-222.2768 203.6039,-224.2455 196.6935,-216.2146 193.1936,-222.2768"/>
</g>
<!-- Node9 -->
<g id="node8" class="node">
<title>Node9</title>
<g id="a_node8"><a xlink:href="Sprite_8cpp.html" target="_top" xlink:title="src/Sprite.cpp">
<polygon fill="#ffffff" stroke="#000000" points="186,-168.5 186,-187.5 263,-187.5 263,-168.5 186,-168.5"/>
<text text-anchor="middle" x="224.5" y="-175.5" font-family="Helvetica,sans-Serif" font-size="10.00" fill="#000000">src/Sprite.cpp</text>
</a>
</g>
</g>
<!-- Node3&#45;&gt;Node9 -->
<g id="edge7" class="edge">
<title>Node3&#45;&gt;Node9</title>
<path fill="none" stroke="#191970" d="M221.9173,-214.1575C222.5604,-205.155 223.2914,-194.9199 223.8112,-187.6427"/>
<polygon fill="#191970" stroke="#191970" points="218.4182,-214.0216 221.1967,-224.2455 225.4004,-214.5204 218.4182,-214.0216"/>
</g>
<!-- Node5 -->
<g id="node4" class="node">
<title>Node5</title>
<g id="a_node4"><a xlink:href="TileMap_8h.html" target="_top" xlink:title="include/TileMap.h">
<polygon fill="#ffffff" stroke="#000000" points="25,-112.5 25,-131.5 118,-131.5 118,-112.5 25,-112.5"/>
<text text-anchor="middle" x="71.5" y="-119.5" font-family="Helvetica,sans-Serif" font-size="10.00" fill="#000000">include/TileMap.h</text>
</a>
</g>
</g>
<!-- Node4&#45;&gt;Node5 -->
<g id="edge3" class="edge">
<title>Node4&#45;&gt;Node5</title>
<path fill="none" stroke="#191970" d="M107.5178,-160.7884C98.6222,-151.2085 87.8796,-139.6396 80.4539,-131.6427"/>
<polygon fill="#191970" stroke="#191970" points="105.073,-163.2992 114.4423,-168.2455 110.2025,-158.536 105.073,-163.2992"/>
</g>
<!-- Node8 -->
<g id="node7" class="node">
<title>Node8</title>
<g id="a_node7"><a xlink:href="Tileset_8cpp.html" target="_top" xlink:title="src/Tileset.cpp">
<polygon fill="#ffffff" stroke="#000000" points="136,-112.5 136,-131.5 217,-131.5 217,-112.5 136,-112.5"/>
<text text-anchor="middle" x="176.5" y="-119.5" font-family="Helvetica,sans-Serif" font-size="10.00" fill="#000000">src/Tileset.cpp</text>
</a>
</g>
</g>
<!-- Node4&#45;&gt;Node8 -->
<g id="edge6" class="edge">
<title>Node4&#45;&gt;Node8</title>
<path fill="none" stroke="#191970" d="M139.7896,-160.7884C148.8562,-151.2085 159.8054,-139.6396 167.3739,-131.6427"/>
<polygon fill="#191970" stroke="#191970" points="137.0637,-158.5767 132.7319,-168.2455 142.1478,-163.3884 137.0637,-158.5767"/>
</g>
<!-- Node6 -->
<g id="node5" class="node">
<title>Node6</title>
<g id="a_node5"><a xlink:href="ManhattanDistance_8h.html" target="_top" xlink:title="include/ManhattanDistance.h">
<polygon fill="#ffffff" stroke="#000000" points="0,-56.5 0,-75.5 143,-75.5 143,-56.5 0,-56.5"/>
<text text-anchor="middle" x="71.5" y="-63.5" font-family="Helvetica,sans-Serif" font-size="10.00" fill="#000000">include/ManhattanDistance.h</text>
</a>
</g>
</g>
<!-- Node5&#45;&gt;Node6 -->
<g id="edge4" class="edge">
<title>Node5&#45;&gt;Node6</title>
<path fill="none" stroke="#191970" d="M71.5,-102.1575C71.5,-93.155 71.5,-82.9199 71.5,-75.6427"/>
<polygon fill="#191970" stroke="#191970" points="68.0001,-102.2455 71.5,-112.2455 75.0001,-102.2456 68.0001,-102.2455"/>
</g>
<!-- Node7 -->
<g id="node6" class="node">
<title>Node7</title>
<g id="a_node6"><a xlink:href="ManhattanDistance_8cpp.html" target="_top" xlink:title="src/ManhattanDistance.cpp">
<polygon fill="#ffffff" stroke="#000000" points="3,-.5 3,-19.5 140,-19.5 140,-.5 3,-.5"/>
<text text-anchor="middle" x="71.5" y="-7.5" font-family="Helvetica,sans-Serif" font-size="10.00" fill="#000000">src/ManhattanDistance.cpp</text>
</a>
</g>
</g>
<!-- Node6&#45;&gt;Node7 -->
<g id="edge5" class="edge">
<title>Node6&#45;&gt;Node7</title>
<path fill="none" stroke="#191970" d="M71.5,-46.1575C71.5,-37.155 71.5,-26.9199 71.5,-19.6427"/>
<polygon fill="#191970" stroke="#191970" points="68.0001,-46.2455 71.5,-56.2455 75.0001,-46.2456 68.0001,-46.2455"/>
</g>
<!-- Node11 -->
<g id="node10" class="node">
<title>Node11</title>
<g id="a_node10"><a xlink:href="Text_8cpp.html" target="_top" xlink:title="src/Text.cpp">
<polygon fill="#ffffff" stroke="#000000" points="284,-168.5 284,-187.5 355,-187.5 355,-168.5 284,-168.5"/>
<text text-anchor="middle" x="319.5" y="-175.5" font-family="Helvetica,sans-Serif" font-size="10.00" fill="#000000">src/Text.cpp</text>
</a>
</g>
</g>
<!-- Node10&#45;&gt;Node11 -->
<g id="edge9" class="edge">
<title>Node10&#45;&gt;Node11</title>
<path fill="none" stroke="#191970" d="M319.5,-214.1575C319.5,-205.155 319.5,-194.9199 319.5,-187.6427"/>
<polygon fill="#191970" stroke="#191970" points="316.0001,-214.2455 319.5,-224.2455 323.0001,-214.2456 316.0001,-214.2455"/>
</g>
</g>
</svg>
