<?xml version="1.0" encoding="UTF-8" standalone="no"?>
<!DOCTYPE svg PUBLIC "-//W3C//DTD SVG 1.1//EN"
 "http://www.w3.org/Graphics/SVG/1.1/DTD/svg11.dtd">
<!-- Generated by graphviz version 2.40.1 (20161225.0304)
 -->
<!-- Title: include/ComponentType.h Pages: 1 -->
<svg width="1154pt" height="476pt"
 viewBox="0.00 0.00 1154.00 476.00" xmlns="http://www.w3.org/2000/svg" xmlns:xlink="http://www.w3.org/1999/xlink">
<g id="graph0" class="graph" transform="scale(1 1) rotate(0) translate(4 472)">
<title>include/ComponentType.h</title>
<polygon fill="#ffffff" stroke="transparent" points="-4,4 -4,-472 1150,-472 1150,4 -4,4"/>
<!-- Node1 -->
<g id="node1" class="node">
<title>Node1</title>
<polygon fill="#bfbfbf" stroke="#000000" points="651,-448.5 651,-467.5 782,-467.5 782,-448.5 651,-448.5"/>
<text text-anchor="middle" x="716.5" y="-455.5" font-family="Helvetica,sans-Serif" font-size="10.00" fill="#000000">include/ComponentType.h</text>
</g>
<!-- Node2 -->
<g id="node2" class="node">
<title>Node2</title>
<g id="a_node2"><a xlink:href="Component_8h.html" target="_top" xlink:title="include/Component.h">
<polygon fill="#ffffff" stroke="#000000" points="662,-392.5 662,-411.5 771,-411.5 771,-392.5 662,-392.5"/>
<text text-anchor="middle" x="716.5" y="-399.5" font-family="Helvetica,sans-Serif" font-size="10.00" fill="#000000">include/Component.h</text>
</a>
</g>
</g>
<!-- Node1&#45;&gt;Node2 -->
<g id="edge1" class="edge">
<title>Node1&#45;&gt;Node2</title>
<path fill="none" stroke="#191970" d="M716.5,-438.1575C716.5,-429.155 716.5,-418.9199 716.5,-411.6427"/>
<polygon fill="#191970" stroke="#191970" points="713.0001,-438.2455 716.5,-448.2455 720.0001,-438.2456 713.0001,-438.2455"/>
</g>
<!-- Node3 -->
<g id="node3" class="node">
<title>Node3</title>
<g id="a_node3"><a xlink:href="Button_8h.html" target="_top" xlink:title="include/Button.h">
<polygon fill="#ffffff" stroke="#000000" points="176,-280.5 176,-299.5 263,-299.5 263,-280.5 176,-280.5"/>
<text text-anchor="middle" x="219.5" y="-287.5" font-family="Helvetica,sans-Serif" font-size="10.00" fill="#000000">include/Button.h</text>
</a>
</g>
</g>
<!-- Node1&#45;&gt;Node3 -->
<g id="edge53" class="edge">
<title>Node1&#45;&gt;Node3</title>
<path fill="none" stroke="#191970" d="M675.7485,-445.4621C615.2358,-426.7147 498.1511,-389.9421 399.5,-356 343.7916,-336.8329 279.0698,-312.6195 244.4294,-299.5006"/>
<polygon fill="#191970" stroke="#191970" points="674.7281,-448.8101 685.3158,-448.422 676.797,-442.1228 674.7281,-448.8101"/>
</g>
<!-- Node5 -->
<g id="node5" class="node">
<title>Node5</title>
<g id="a_node5"><a xlink:href="GameObject_8h.html" target="_top" xlink:title="include/GameObject.h">
<polygon fill="#ffffff" stroke="#000000" points="492,-336.5 492,-355.5 605,-355.5 605,-336.5 492,-336.5"/>
<text text-anchor="middle" x="548.5" y="-343.5" font-family="Helvetica,sans-Serif" font-size="10.00" fill="#000000">include/GameObject.h</text>
</a>
</g>
</g>
<!-- Node1&#45;&gt;Node5 -->
<g id="edge52" class="edge">
<title>Node1&#45;&gt;Node5</title>
<path fill="none" stroke="#191970" d="M681.7876,-444.6094C662.6455,-436.4848 638.8987,-425.154 619.5,-412 594.4275,-394.9987 569.5119,-369.2761 556.928,-355.5017"/>
<polygon fill="#191970" stroke="#191970" points="680.4741,-447.8537 691.0523,-448.4462 683.1524,-441.3863 680.4741,-447.8537"/>
</g>
<!-- Node22 -->
<g id="node22" class="node">
<title>Node22</title>
<g id="a_node22"><a xlink:href="Grouper_8h.html" target="_top" xlink:title="include/Grouper.h">
<polygon fill="#ffffff" stroke="#000000" points="896,-280.5 896,-299.5 989,-299.5 989,-280.5 896,-280.5"/>
<text text-anchor="middle" x="942.5" y="-287.5" font-family="Helvetica,sans-Serif" font-size="10.00" fill="#000000">include/Grouper.h</text>
</a>
</g>
</g>
<!-- Node1&#45;&gt;Node22 -->
<g id="edge54" class="edge">
<title>Node1&#45;&gt;Node22</title>
<path fill="none" stroke="#191970" d="M757.7197,-445.114C779.0204,-437.3705 804.8122,-426.2394 825.5,-412 874.3309,-378.3898 918.947,-321.8611 935.5967,-299.5085"/>
<polygon fill="#191970" stroke="#191970" points="756.5559,-441.8131 748.2834,-448.4325 758.8783,-448.4167 756.5559,-441.8131"/>
</g>
<!-- Node24 -->
<g id="node24" class="node">
<title>Node24</title>
<g id="a_node24"><a xlink:href="RectTransform_8h.html" target="_top" xlink:title="include/RectTransform.h">
<polygon fill="#ffffff" stroke="#000000" points="710.5,-280.5 710.5,-299.5 834.5,-299.5 834.5,-280.5 710.5,-280.5"/>
<text text-anchor="middle" x="772.5" y="-287.5" font-family="Helvetica,sans-Serif" font-size="10.00" fill="#000000">include/RectTransform.h</text>
</a>
</g>
</g>
<!-- Node1&#45;&gt;Node24 -->
<g id="edge55" class="edge">
<title>Node1&#45;&gt;Node24</title>
<path fill="none" stroke="#191970" d="M748.4467,-444.1412C780.6636,-428.1744 828.4191,-398.5511 848.5,-356 860.6569,-330.2397 826.5215,-310.5264 800.1157,-299.6032"/>
<polygon fill="#191970" stroke="#191970" points="746.9113,-440.9958 739.4018,-448.4697 749.933,-447.31 746.9113,-440.9958"/>
</g>
<!-- Node26 -->
<g id="node26" class="node">
<title>Node26</title>
<g id="a_node26"><a xlink:href="Tileset_8h.html" target="_top" xlink:title="include/Tileset.h">
<polygon fill="#ffffff" stroke="#000000" points="1045.5,-168.5 1045.5,-187.5 1133.5,-187.5 1133.5,-168.5 1045.5,-168.5"/>
<text text-anchor="middle" x="1089.5" y="-175.5" font-family="Helvetica,sans-Serif" font-size="10.00" fill="#000000">include/Tileset.h</text>
</a>
</g>
</g>
<!-- Node1&#45;&gt;Node26 -->
<g id="edge56" class="edge">
<title>Node1&#45;&gt;Node26</title>
<path fill="none" stroke="#191970" d="M792.6232,-449.6516C897.4673,-435.9999 1073.5,-404.3853 1073.5,-346 1073.5,-346 1073.5,-346 1073.5,-290 1073.5,-251.6984 1082.7834,-206.7628 1087.2076,-187.5228"/>
<polygon fill="#191970" stroke="#191970" points="791.8722,-446.2189 782.3953,-450.9559 792.7578,-453.1627 791.8722,-446.2189"/>
</g>
<!-- Node29 -->
<g id="node29" class="node">
<title>Node29</title>
<g id="a_node29"><a xlink:href="Text_8h.html" target="_top" xlink:title="include/Text.h">
<polygon fill="#ffffff" stroke="#000000" points="612.5,-280.5 612.5,-299.5 690.5,-299.5 690.5,-280.5 612.5,-280.5"/>
<text text-anchor="middle" x="651.5" y="-287.5" font-family="Helvetica,sans-Serif" font-size="10.00" fill="#000000">include/Text.h</text>
</a>
</g>
</g>
<!-- Node1&#45;&gt;Node29 -->
<g id="edge57" class="edge">
<title>Node1&#45;&gt;Node29</title>
<path fill="none" stroke="#191970" d="M685.7017,-443.4622C673.3776,-435.9262 660.4715,-425.4482 653.5,-412 634.0016,-374.3867 643.7487,-321.0813 648.9461,-299.56"/>
<polygon fill="#191970" stroke="#191970" points="684.0526,-446.5506 694.4794,-448.4301 687.5005,-440.4585 684.0526,-446.5506"/>
</g>
<!-- Node2&#45;&gt;Node3 -->
<g id="edge2" class="edge">
<title>Node2&#45;&gt;Node3</title>
<path fill="none" stroke="#191970" d="M653.7518,-390.5776C606.5284,-381.7602 540.2815,-368.9204 482.5,-356 400.7251,-337.7144 305.5186,-312.9489 255.0936,-299.5549"/>
<polygon fill="#191970" stroke="#191970" points="653.3573,-394.0642 663.8287,-392.452 654.6374,-387.1822 653.3573,-394.0642"/>
</g>
<!-- Node2&#45;&gt;Node5 -->
<g id="edge4" class="edge">
<title>Node2&#45;&gt;Node5</title>
<path fill="none" stroke="#191970" d="M672.7141,-389.3235C640.4193,-379.0536 597.866,-364.8093 571.7861,-355.5011"/>
<polygon fill="#191970" stroke="#191970" points="671.788,-392.7013 682.3777,-392.3733 673.8948,-386.0259 671.788,-392.7013"/>
</g>
<!-- Node7 -->
<g id="node7" class="node">
<title>Node7</title>
<g id="a_node7"><a xlink:href="TileMap_8h.html" target="_top" xlink:title="include/TileMap.h">
<polygon fill="#ffffff" stroke="#000000" points="954,-112.5 954,-131.5 1047,-131.5 1047,-112.5 954,-112.5"/>
<text text-anchor="middle" x="1000.5" y="-119.5" font-family="Helvetica,sans-Serif" font-size="10.00" fill="#000000">include/TileMap.h</text>
</a>
</g>
</g>
<!-- Node2&#45;&gt;Node7 -->
<g id="edge47" class="edge">
<title>Node2&#45;&gt;Node7</title>
<path fill="none" stroke="#191970" d="M780.9064,-391.7359C818.7093,-384.4343 866.88,-372.8871 907.5,-356 951.3506,-337.7698 975.1022,-341.325 998.5,-300 1030.4761,-243.5241 1011.3372,-159.9255 1003.4268,-131.7058"/>
<polygon fill="#191970" stroke="#191970" points="780.2142,-388.3046 771.0332,-393.5924 781.5078,-395.1841 780.2142,-388.3046"/>
</g>
<!-- Node2&#45;&gt;Node22 -->
<g id="edge46" class="edge">
<title>Node2&#45;&gt;Node22</title>
<path fill="none" stroke="#191970" d="M781.2904,-392.5218C813.1667,-385.7887 851.1571,-374.5332 881.5,-356 905.7342,-341.198 926.3417,-314.0841 936.2306,-299.6456"/>
<polygon fill="#191970" stroke="#191970" points="780.2889,-389.153 771.1732,-394.5525 781.6665,-396.0161 780.2889,-389.153"/>
</g>
<!-- Node2&#45;&gt;Node24 -->
<g id="edge49" class="edge">
<title>Node2&#45;&gt;Node24</title>
<path fill="none" stroke="#191970" d="M717.1191,-382.299C718.2382,-368.6566 721.1434,-350.4282 728.5,-336 736.0299,-321.232 749.8419,-307.9774 759.989,-299.5329"/>
<polygon fill="#191970" stroke="#191970" points="713.6128,-382.3137 716.5407,-392.4959 720.6015,-382.7102 713.6128,-382.3137"/>
</g>
<!-- Node25 -->
<g id="node25" class="node">
<title>Node25</title>
<g id="a_node25"><a xlink:href="Sprite_8h.html" target="_top" xlink:title="include/Sprite.h">
<polygon fill="#ffffff" stroke="#000000" points="801.5,-224.5 801.5,-243.5 885.5,-243.5 885.5,-224.5 801.5,-224.5"/>
<text text-anchor="middle" x="843.5" y="-231.5" font-family="Helvetica,sans-Serif" font-size="10.00" fill="#000000">include/Sprite.h</text>
</a>
</g>
</g>
<!-- Node2&#45;&gt;Node25 -->
<g id="edge48" class="edge">
<title>Node2&#45;&gt;Node25</title>
<path fill="none" stroke="#191970" d="M770.3872,-389.9252C802.563,-381.5022 838.9782,-369.4017 848.5,-356 873.1786,-321.2658 856.0217,-265.8658 847.5105,-243.6643"/>
<polygon fill="#191970" stroke="#191970" points="769.4026,-386.564 760.5722,-392.4185 771.1262,-393.3485 769.4026,-386.564"/>
</g>
<!-- Node2&#45;&gt;Node29 -->
<g id="edge50" class="edge">
<title>Node2&#45;&gt;Node29</title>
<path fill="none" stroke="#191970" d="M705.8053,-383.5723C691.8127,-359.4618 667.8096,-318.1028 657.0278,-299.5249"/>
<polygon fill="#191970" stroke="#191970" points="702.9115,-385.5588 710.9581,-392.4509 708.9657,-382.0451 702.9115,-385.5588"/>
</g>
<!-- Node30 -->
<g id="node30" class="node">
<title>Node30</title>
<g id="a_node30"><a xlink:href="Component_8cpp.html" target="_top" xlink:title="src/Component.cpp">
<polygon fill="#ffffff" stroke="#000000" points="737.5,-336.5 737.5,-355.5 839.5,-355.5 839.5,-336.5 737.5,-336.5"/>
<text text-anchor="middle" x="788.5" y="-343.5" font-family="Helvetica,sans-Serif" font-size="10.00" fill="#000000">src/Component.cpp</text>
</a>
</g>
</g>
<!-- Node2&#45;&gt;Node30 -->
<g id="edge51" class="edge">
<title>Node2&#45;&gt;Node30</title>
<path fill="none" stroke="#191970" d="M737.164,-385.928C749.7489,-376.1397 765.4092,-363.9595 776.1023,-355.6427"/>
<polygon fill="#191970" stroke="#191970" points="734.7862,-383.3434 729.0414,-392.2455 739.0838,-388.8688 734.7862,-383.3434"/>
</g>
<!-- Node4 -->
<g id="node4" class="node">
<title>Node4</title>
<g id="a_node4"><a xlink:href="Button_8cpp.html" target="_top" xlink:title="src/Button.cpp">
<polygon fill="#ffffff" stroke="#000000" points="366.5,-224.5 366.5,-243.5 446.5,-243.5 446.5,-224.5 366.5,-224.5"/>
<text text-anchor="middle" x="406.5" y="-231.5" font-family="Helvetica,sans-Serif" font-size="10.00" fill="#000000">src/Button.cpp</text>
</a>
</g>
</g>
<!-- Node3&#45;&gt;Node4 -->
<g id="edge3" class="edge">
<title>Node3&#45;&gt;Node4</title>
<path fill="none" stroke="#191970" d="M261.3877,-277.4561C295.7143,-267.1765 343.5565,-252.8494 374.773,-243.5011"/>
<polygon fill="#191970" stroke="#191970" points="260.222,-274.1515 251.6464,-280.3733 262.2302,-280.8573 260.222,-274.1515"/>
</g>
<!-- Node5&#45;&gt;Node2 -->
<g id="edge5" class="edge">
<title>Node5&#45;&gt;Node2</title>
<path fill="none" stroke="#191970" d="M591.8517,-358.5385C624.0539,-368.7725 666.6346,-383.021 692.8618,-392.3733"/>
<polygon fill="#191970" stroke="#191970" points="592.8103,-355.1709 582.2207,-355.5011 590.7049,-361.8468 592.8103,-355.1709"/>
</g>
<!-- Node5&#45;&gt;Node3 -->
<g id="edge6" class="edge">
<title>Node5&#45;&gt;Node3</title>
<path fill="none" stroke="#191970" d="M482.2328,-334.801C427.3609,-325.516 347.355,-311.9506 277.5,-300 272.867,-299.2074 268.0263,-298.3768 263.2022,-297.5474"/>
<polygon fill="#191970" stroke="#191970" points="481.7342,-338.2664 492.178,-336.4836 482.902,-331.3644 481.7342,-338.2664"/>
</g>
<!-- Node6 -->
<g id="node6" class="node">
<title>Node6</title>
<g id="a_node6"><a xlink:href="Camera_8h.html" target="_top" xlink:title="include/Camera.h">
<polygon fill="#ffffff" stroke="#000000" points="217,-224.5 217,-243.5 310,-243.5 310,-224.5 217,-224.5"/>
<text text-anchor="middle" x="263.5" y="-231.5" font-family="Helvetica,sans-Serif" font-size="10.00" fill="#000000">include/Camera.h</text>
</a>
</g>
</g>
<!-- Node5&#45;&gt;Node6 -->
<g id="edge7" class="edge">
<title>Node5&#45;&gt;Node6</title>
<path fill="none" stroke="#191970" d="M531.4595,-329.0804C515.2984,-313.9887 489.659,-292.4159 463.5,-280 436.7846,-267.32 360.6215,-251.7427 310.3712,-242.3571"/>
<polygon fill="#191970" stroke="#191970" points="529.3555,-331.9115 538.9993,-336.2987 534.1963,-326.8551 529.3555,-331.9115"/>
</g>
<!-- Node11 -->
<g id="node11" class="node">
<title>Node11</title>
<g id="a_node11"><a xlink:href="GameObject_8cpp.html" target="_top" xlink:title="src/GameObject.cpp">
<polygon fill="#ffffff" stroke="#000000" points="0,-168.5 0,-187.5 107,-187.5 107,-168.5 0,-168.5"/>
<text text-anchor="middle" x="53.5" y="-175.5" font-family="Helvetica,sans-Serif" font-size="10.00" fill="#000000">src/GameObject.cpp</text>
</a>
</g>
</g>
<!-- Node5&#45;&gt;Node11 -->
<g id="edge45" class="edge">
<title>Node5&#45;&gt;Node11</title>
<path fill="none" stroke="#191970" d="M481.4953,-338.2096C433.068,-331.3457 366.5799,-319.3585 310.5,-300 292.0865,-293.6438 288.9915,-288.5735 271.5,-280 199.8362,-244.8736 113.7572,-205.3835 74.6653,-187.5944"/>
<polygon fill="#191970" stroke="#191970" points="481.16,-341.6964 491.5448,-339.5974 482.1176,-334.7622 481.16,-341.6964"/>
</g>
<!-- Node15 -->
<g id="node15" class="node">
<title>Node15</title>
<g id="a_node15"><a xlink:href="State_8h.html" target="_top" xlink:title="include/State.h">
<polygon fill="#ffffff" stroke="#000000" points="511.5,-280.5 511.5,-299.5 593.5,-299.5 593.5,-280.5 511.5,-280.5"/>
<text text-anchor="middle" x="552.5" y="-287.5" font-family="Helvetica,sans-Serif" font-size="10.00" fill="#000000">include/State.h</text>
</a>
</g>
</g>
<!-- Node5&#45;&gt;Node15 -->
<g id="edge16" class="edge">
<title>Node5&#45;&gt;Node15</title>
<path fill="none" stroke="#191970" d="M549.9173,-326.1575C550.5604,-317.155 551.2914,-306.9199 551.8112,-299.6427"/>
<polygon fill="#191970" stroke="#191970" points="546.4182,-326.0216 549.1967,-336.2455 553.4004,-326.5204 546.4182,-326.0216"/>
</g>
<!-- Node5&#45;&gt;Node22 -->
<g id="edge30" class="edge">
<title>Node5&#45;&gt;Node22</title>
<path fill="none" stroke="#191970" d="M615.3072,-336.5046C695.024,-325.1743 826.2408,-306.5242 895.8125,-296.6358"/>
<polygon fill="#191970" stroke="#191970" points="614.7782,-333.0445 605.3702,-337.9169 615.7632,-339.9748 614.7782,-333.0445"/>
</g>
<!-- Node5&#45;&gt;Node24 -->
<g id="edge32" class="edge">
<title>Node5&#45;&gt;Node24</title>
<path fill="none" stroke="#191970" d="M596.572,-333.982C637.7875,-323.6781 696.3678,-309.0331 734.4053,-299.5237"/>
<polygon fill="#191970" stroke="#191970" points="595.605,-330.616 586.7525,-336.4369 597.3028,-337.407 595.605,-330.616"/>
</g>
<!-- Node28 -->
<g id="node28" class="node">
<title>Node28</title>
<g id="a_node28"><a xlink:href="NearestGOFinder_8h.html" target="_top" xlink:title="include/NearestGOFinder.h">
<polygon fill="#ffffff" stroke="#000000" points="320,-280.5 320,-299.5 455,-299.5 455,-280.5 320,-280.5"/>
<text text-anchor="middle" x="387.5" y="-287.5" font-family="Helvetica,sans-Serif" font-size="10.00" fill="#000000">include/NearestGOFinder.h</text>
</a>
</g>
</g>
<!-- Node5&#45;&gt;Node28 -->
<g id="edge42" class="edge">
<title>Node5&#45;&gt;Node28</title>
<path fill="none" stroke="#191970" d="M511.2889,-333.057C481.8241,-322.8084 441.3459,-308.729 414.8157,-299.5011"/>
<polygon fill="#191970" stroke="#191970" points="510.2283,-336.3937 520.8231,-336.3733 512.528,-329.7822 510.2283,-336.3937"/>
</g>
<!-- Node5&#45;&gt;Node29 -->
<g id="edge43" class="edge">
<title>Node5&#45;&gt;Node29</title>
<path fill="none" stroke="#191970" d="M575.2432,-331.46C593.675,-321.4388 617.6584,-308.3993 633.7644,-299.6427"/>
<polygon fill="#191970" stroke="#191970" points="573.5549,-328.394 566.4412,-336.2455 576.8985,-334.5438 573.5549,-328.394"/>
</g>
<!-- Node6&#45;&gt;Node7 -->
<g id="edge8" class="edge">
<title>Node6&#45;&gt;Node7</title>
<path fill="none" stroke="#191970" d="M210.5423,-221.6293C172.5701,-210.406 131.8079,-191.9595 154.5,-168 182.1573,-138.798 780.2615,-125.9145 953.7335,-122.7835"/>
<polygon fill="#191970" stroke="#191970" points="210.0336,-225.1221 220.608,-224.4639 211.9311,-218.3842 210.0336,-225.1221"/>
</g>
<!-- Node10 -->
<g id="node10" class="node">
<title>Node10</title>
<g id="a_node10"><a xlink:href="Camera_8cpp.html" target="_top" xlink:title="src/Camera.cpp">
<polygon fill="#ffffff" stroke="#000000" points="257.5,-168.5 257.5,-187.5 343.5,-187.5 343.5,-168.5 257.5,-168.5"/>
<text text-anchor="middle" x="300.5" y="-175.5" font-family="Helvetica,sans-Serif" font-size="10.00" fill="#000000">src/Camera.cpp</text>
</a>
</g>
</g>
<!-- Node6&#45;&gt;Node10 -->
<g id="edge11" class="edge">
<title>Node6&#45;&gt;Node10</title>
<path fill="none" stroke="#191970" d="M275.6376,-215.6296C281.8093,-206.2887 289.0566,-195.3197 294.1289,-187.6427"/>
<polygon fill="#191970" stroke="#191970" points="272.5373,-213.9728 269.9449,-224.2455 278.3777,-217.8316 272.5373,-213.9728"/>
</g>
<!-- Node6&#45;&gt;Node11 -->
<g id="edge12" class="edge">
<title>Node6&#45;&gt;Node11</title>
<path fill="none" stroke="#191970" d="M217.4496,-221.7199C178.8355,-211.4228 124.4861,-196.9296 89.1292,-187.5011"/>
<polygon fill="#191970" stroke="#191970" points="216.8355,-225.1784 227.3997,-224.3733 218.6392,-218.4147 216.8355,-225.1784"/>
</g>
<!-- Node12 -->
<g id="node12" class="node">
<title>Node12</title>
<g id="a_node12"><a xlink:href="RectTransform_8cpp.html" target="_top" xlink:title="src/RectTransform.cpp">
<polygon fill="#ffffff" stroke="#000000" points="571,-168.5 571,-187.5 688,-187.5 688,-168.5 571,-168.5"/>
<text text-anchor="middle" x="629.5" y="-175.5" font-family="Helvetica,sans-Serif" font-size="10.00" fill="#000000">src/RectTransform.cpp</text>
</a>
</g>
</g>
<!-- Node6&#45;&gt;Node12 -->
<g id="edge13" class="edge">
<title>Node6&#45;&gt;Node12</title>
<path fill="none" stroke="#191970" d="M320.3489,-225.3018C388.4935,-214.8753 502.0981,-197.4932 570.9772,-186.9543"/>
<polygon fill="#191970" stroke="#191970" points="319.5815,-221.8784 310.2259,-226.8507 320.6403,-228.7979 319.5815,-221.8784"/>
</g>
<!-- Node13 -->
<g id="node13" class="node">
<title>Node13</title>
<g id="a_node13"><a xlink:href="Sprite_8cpp.html" target="_top" xlink:title="src/Sprite.cpp">
<polygon fill="#ffffff" stroke="#000000" points="823,-168.5 823,-187.5 900,-187.5 900,-168.5 823,-168.5"/>
<text text-anchor="middle" x="861.5" y="-175.5" font-family="Helvetica,sans-Serif" font-size="10.00" fill="#000000">src/Sprite.cpp</text>
</a>
</g>
</g>
<!-- Node6&#45;&gt;Node13 -->
<g id="edge14" class="edge">
<title>Node6&#45;&gt;Node13</title>
<path fill="none" stroke="#191970" d="M320.4222,-227.6914C332.648,-226.4072 345.4991,-225.1108 357.5,-224 560.3731,-205.2218 612.8721,-217.2627 814.5,-188 817.2244,-187.6046 820.0275,-187.145 822.8436,-186.6442"/>
<polygon fill="#191970" stroke="#191970" points="319.9064,-224.2264 310.3319,-228.7628 320.6456,-231.1872 319.9064,-224.2264"/>
</g>
<!-- Node14 -->
<g id="node14" class="node">
<title>Node14</title>
<g id="a_node14"><a xlink:href="State_8cpp.html" target="_top" xlink:title="src/State.cpp">
<polygon fill="#ffffff" stroke="#000000" points="164,-168.5 164,-187.5 239,-187.5 239,-168.5 164,-168.5"/>
<text text-anchor="middle" x="201.5" y="-175.5" font-family="Helvetica,sans-Serif" font-size="10.00" fill="#000000">src/State.cpp</text>
</a>
</g>
</g>
<!-- Node6&#45;&gt;Node14 -->
<g id="edge15" class="edge">
<title>Node6&#45;&gt;Node14</title>
<path fill="none" stroke="#191970" d="M245.0779,-217.3607C234.3519,-207.6727 221.2066,-195.7995 212.1758,-187.6427"/>
<polygon fill="#191970" stroke="#191970" points="242.9334,-220.14 252.7004,-224.2455 247.6254,-214.9453 242.9334,-220.14"/>
</g>
<!-- Node8 -->
<g id="node8" class="node">
<title>Node8</title>
<g id="a_node8"><a xlink:href="ManhattanDistance_8h.html" target="_top" xlink:title="include/ManhattanDistance.h">
<polygon fill="#ffffff" stroke="#000000" points="929,-56.5 929,-75.5 1072,-75.5 1072,-56.5 929,-56.5"/>
<text text-anchor="middle" x="1000.5" y="-63.5" font-family="Helvetica,sans-Serif" font-size="10.00" fill="#000000">include/ManhattanDistance.h</text>
</a>
</g>
</g>
<!-- Node7&#45;&gt;Node8 -->
<g id="edge9" class="edge">
<title>Node7&#45;&gt;Node8</title>
<path fill="none" stroke="#191970" d="M1000.5,-102.1575C1000.5,-93.155 1000.5,-82.9199 1000.5,-75.6427"/>
<polygon fill="#191970" stroke="#191970" points="997.0001,-102.2455 1000.5,-112.2455 1004.0001,-102.2456 997.0001,-102.2455"/>
</g>
<!-- Node9 -->
<g id="node9" class="node">
<title>Node9</title>
<g id="a_node9"><a xlink:href="ManhattanDistance_8cpp.html" target="_top" xlink:title="src/ManhattanDistance.cpp">
<polygon fill="#ffffff" stroke="#000000" points="932,-.5 932,-19.5 1069,-19.5 1069,-.5 932,-.5"/>
<text text-anchor="middle" x="1000.5" y="-7.5" font-family="Helvetica,sans-Serif" font-size="10.00" fill="#000000">src/ManhattanDistance.cpp</text>
</a>
</g>
</g>
<!-- Node8&#45;&gt;Node9 -->
<g id="edge10" class="edge">
<title>Node8&#45;&gt;Node9</title>
<path fill="none" stroke="#191970" d="M1000.5,-46.1575C1000.5,-37.155 1000.5,-26.9199 1000.5,-19.6427"/>
<polygon fill="#191970" stroke="#191970" points="997.0001,-46.2455 1000.5,-56.2455 1004.0001,-46.2456 997.0001,-46.2455"/>
</g>
<!-- Node15&#45;&gt;Node14 -->
<g id="edge29" class="edge">
<title>Node15&#45;&gt;Node14</title>
<path fill="none" stroke="#191970" d="M501.067,-279.3416C452.5421,-269.0192 383.479,-253.5643 357.5,-244 339.2198,-237.2701 336.2529,-232.0181 318.5,-224 288.0663,-210.2546 252.2188,-196.5084 228.2994,-187.6721"/>
<polygon fill="#191970" stroke="#191970" points="500.579,-282.8157 511.087,-281.4624 502.0285,-275.9674 500.579,-282.8157"/>
</g>
<!-- Node16 -->
<g id="node16" class="node">
<title>Node16</title>
<g id="a_node16"><a xlink:href="Game_8h.html" target="_top" xlink:title="include/Game.h">
<polygon fill="#ffffff" stroke="#000000" points="584,-224.5 584,-243.5 669,-243.5 669,-224.5 584,-224.5"/>
<text text-anchor="middle" x="626.5" y="-231.5" font-family="Helvetica,sans-Serif" font-size="10.00" fill="#000000">include/Game.h</text>
</a>
</g>
</g>
<!-- Node15&#45;&gt;Node16 -->
<g id="edge17" class="edge">
<title>Node15&#45;&gt;Node16</title>
<path fill="none" stroke="#191970" d="M573.3657,-274.2097C586.3625,-264.3743 602.6622,-252.0394 613.7579,-243.6427"/>
<polygon fill="#191970" stroke="#191970" points="571.2518,-271.4201 565.3898,-280.2455 575.476,-277.002 571.2518,-271.4201"/>
</g>
<!-- Node21 -->
<g id="node21" class="node">
<title>Node21</title>
<g id="a_node21"><a xlink:href="Threading_8h.html" target="_top" xlink:title="include/Threading.h">
<polygon fill="#ffffff" stroke="#000000" points="465,-224.5 465,-243.5 566,-243.5 566,-224.5 465,-224.5"/>
<text text-anchor="middle" x="515.5" y="-231.5" font-family="Helvetica,sans-Serif" font-size="10.00" fill="#000000">include/Threading.h</text>
</a>
</g>
</g>
<!-- Node15&#45;&gt;Node21 -->
<g id="edge25" class="edge">
<title>Node15&#45;&gt;Node21</title>
<path fill="none" stroke="#191970" d="M540.3624,-271.6296C534.1907,-262.2887 526.9434,-251.3197 521.8711,-243.6427"/>
<polygon fill="#191970" stroke="#191970" points="537.6223,-273.8316 546.0551,-280.2455 543.4627,-269.9728 537.6223,-273.8316"/>
</g>
<!-- Node16&#45;&gt;Node10 -->
<g id="edge18" class="edge">
<title>Node16&#45;&gt;Node10</title>
<path fill="none" stroke="#191970" d="M573.8225,-223.7439C474.9636,-206.2663 448.1746,-204.9182 352.5,-188 349.6031,-187.4877 346.618,-186.9473 343.6119,-186.3937"/>
<polygon fill="#191970" stroke="#191970" points="573.4848,-227.2387 583.9433,-225.5447 574.7111,-220.3469 573.4848,-227.2387"/>
</g>
<!-- Node16&#45;&gt;Node12 -->
<g id="edge20" class="edge">
<title>Node16&#45;&gt;Node12</title>
<path fill="none" stroke="#191970" d="M627.563,-214.1575C628.0453,-205.155 628.5936,-194.9199 628.9834,-187.6427"/>
<polygon fill="#191970" stroke="#191970" points="624.0626,-214.0726 627.0226,-224.2455 631.0526,-214.4471 624.0626,-214.0726"/>
</g>
<!-- Node16&#45;&gt;Node13 -->
<g id="edge22" class="edge">
<title>Node16&#45;&gt;Node13</title>
<path fill="none" stroke="#191970" d="M676.4771,-222.0906C720.1638,-211.6801 782.7016,-196.7775 822.7064,-187.2444"/>
<polygon fill="#191970" stroke="#191970" points="675.5472,-218.7141 666.6309,-224.4369 677.1699,-225.5234 675.5472,-218.7141"/>
</g>
<!-- Node17 -->
<g id="node17" class="node">
<title>Node17</title>
<g id="a_node17"><a xlink:href="Game_8cpp.html" target="_top" xlink:title="src/Game.cpp">
<polygon fill="#ffffff" stroke="#000000" points="361.5,-168.5 361.5,-187.5 439.5,-187.5 439.5,-168.5 361.5,-168.5"/>
<text text-anchor="middle" x="400.5" y="-175.5" font-family="Helvetica,sans-Serif" font-size="10.00" fill="#000000">src/Game.cpp</text>
</a>
</g>
</g>
<!-- Node16&#45;&gt;Node17 -->
<g id="edge19" class="edge">
<title>Node16&#45;&gt;Node17</title>
<path fill="none" stroke="#191970" d="M577.9988,-221.982C536.4153,-211.6781 477.312,-197.0331 438.9348,-187.5237"/>
<polygon fill="#191970" stroke="#191970" points="577.3577,-225.4289 587.906,-224.4369 579.0414,-218.6344 577.3577,-225.4289"/>
</g>
<!-- Node18 -->
<g id="node18" class="node">
<title>Node18</title>
<g id="a_node18"><a xlink:href="Resources_8cpp.html" target="_top" xlink:title="src/Resources.cpp">
<polygon fill="#ffffff" stroke="#000000" points="706,-168.5 706,-187.5 805,-187.5 805,-168.5 706,-168.5"/>
<text text-anchor="middle" x="755.5" y="-175.5" font-family="Helvetica,sans-Serif" font-size="10.00" fill="#000000">src/Resources.cpp</text>
</a>
</g>
</g>
<!-- Node16&#45;&gt;Node18 -->
<g id="edge21" class="edge">
<title>Node16&#45;&gt;Node18</title>
<path fill="none" stroke="#191970" d="M657.8671,-220.3833C681.3284,-210.1985 712.8185,-196.5284 733.6135,-187.5011"/>
<polygon fill="#191970" stroke="#191970" points="656.4551,-217.1806 648.6759,-224.3733 659.2426,-223.6017 656.4551,-217.1806"/>
</g>
<!-- Node19 -->
<g id="node19" class="node">
<title>Node19</title>
<g id="a_node19"><a xlink:href="Text_8cpp.html" target="_top" xlink:title="src/Text.cpp">
<polygon fill="#ffffff" stroke="#000000" points="918,-168.5 918,-187.5 989,-187.5 989,-168.5 918,-168.5"/>
<text text-anchor="middle" x="953.5" y="-175.5" font-family="Helvetica,sans-Serif" font-size="10.00" fill="#000000">src/Text.cpp</text>
</a>
</g>
</g>
<!-- Node16&#45;&gt;Node19 -->
<g id="edge23" class="edge">
<title>Node16&#45;&gt;Node19</title>
<path fill="none" stroke="#191970" d="M679.528,-226.3897C736.524,-217.9747 829.6963,-203.5387 909.5,-188 912.2681,-187.461 915.1279,-186.8759 917.9987,-186.2682"/>
<polygon fill="#191970" stroke="#191970" points="678.703,-222.9732 669.318,-227.8898 679.7206,-229.8989 678.703,-222.9732"/>
</g>
<!-- Node20 -->
<g id="node20" class="node">
<title>Node20</title>
<g id="a_node20"><a xlink:href="Threading_8cpp.html" target="_top" xlink:title="src/Threading.cpp">
<polygon fill="#ffffff" stroke="#000000" points="458,-168.5 458,-187.5 553,-187.5 553,-168.5 458,-168.5"/>
<text text-anchor="middle" x="505.5" y="-175.5" font-family="Helvetica,sans-Serif" font-size="10.00" fill="#000000">src/Threading.cpp</text>
</a>
</g>
</g>
<!-- Node16&#45;&gt;Node20 -->
<g id="edge24" class="edge">
<title>Node16&#45;&gt;Node20</title>
<path fill="none" stroke="#191970" d="M596.4896,-220.1109C574.5475,-209.9559 545.3612,-196.4482 526.0292,-187.5011"/>
<polygon fill="#191970" stroke="#191970" points="595.1541,-223.3494 605.6994,-224.3733 598.0942,-216.9968 595.1541,-223.3494"/>
</g>
<!-- Node21&#45;&gt;Node14 -->
<g id="edge27" class="edge">
<title>Node21&#45;&gt;Node14</title>
<path fill="none" stroke="#191970" d="M455.0278,-223.8639C388.8549,-212.7219 287.0522,-195.4193 248.5,-188 245.4689,-187.4167 242.3323,-186.7931 239.1838,-186.153"/>
<polygon fill="#191970" stroke="#191970" points="454.4815,-227.3211 464.9237,-225.5289 455.643,-220.4181 454.4815,-227.3211"/>
</g>
<!-- Node21&#45;&gt;Node17 -->
<g id="edge26" class="edge">
<title>Node21&#45;&gt;Node17</title>
<path fill="none" stroke="#191970" d="M486.6967,-219.9741C465.875,-209.8348 438.3022,-196.408 420.0112,-187.5011"/>
<polygon fill="#191970" stroke="#191970" points="485.2078,-223.1419 495.7308,-224.3733 488.2724,-216.8484 485.2078,-223.1419"/>
</g>
<!-- Node21&#45;&gt;Node20 -->
<g id="edge28" class="edge">
<title>Node21&#45;&gt;Node20</title>
<path fill="none" stroke="#191970" d="M511.9567,-214.1575C510.3491,-205.155 508.5214,-194.9199 507.2219,-187.6427"/>
<polygon fill="#191970" stroke="#191970" points="508.5546,-215.0166 513.7581,-224.2455 515.4456,-213.786 508.5546,-215.0166"/>
</g>
<!-- Node23 -->
<g id="node23" class="node">
<title>Node23</title>
<g id="a_node23"><a xlink:href="Grouper_8cpp.html" target="_top" xlink:title="src/Grouper.cpp">
<polygon fill="#ffffff" stroke="#000000" points="903.5,-224.5 903.5,-243.5 989.5,-243.5 989.5,-224.5 903.5,-224.5"/>
<text text-anchor="middle" x="946.5" y="-231.5" font-family="Helvetica,sans-Serif" font-size="10.00" fill="#000000">src/Grouper.cpp</text>
</a>
</g>
</g>
<!-- Node22&#45;&gt;Node23 -->
<g id="edge31" class="edge">
<title>Node22&#45;&gt;Node23</title>
<path fill="none" stroke="#191970" d="M943.9173,-270.1575C944.5604,-261.155 945.2914,-250.9199 945.8112,-243.6427"/>
<polygon fill="#191970" stroke="#191970" points="940.4182,-270.0216 943.1967,-280.2455 947.4004,-270.5204 940.4182,-270.0216"/>
</g>
<!-- Node24&#45;&gt;Node4 -->
<g id="edge38" class="edge">
<title>Node24&#45;&gt;Node4</title>
<path fill="none" stroke="#191970" d="M700.1108,-279.986C621.517,-269.0263 501.1139,-251.9573 455.5,-244 452.5919,-243.4927 449.592,-242.9437 446.5759,-242.3732"/>
<polygon fill="#191970" stroke="#191970" points="700.0462,-283.5107 710.4335,-281.4239 701.012,-276.5777 700.0462,-283.5107"/>
</g>
<!-- Node24&#45;&gt;Node12 -->
<g id="edge40" class="edge">
<title>Node24&#45;&gt;Node12</title>
<path fill="none" stroke="#191970" d="M752.1695,-274.0768C721.9798,-250.4317 666.2246,-206.7633 641.6612,-187.5249"/>
<polygon fill="#191970" stroke="#191970" points="750.277,-277.0403 760.3079,-280.4509 754.5933,-271.5294 750.277,-277.0403"/>
</g>
<!-- Node24&#45;&gt;Node19 -->
<g id="edge41" class="edge">
<title>Node24&#45;&gt;Node19</title>
<path fill="none" stroke="#191970" d="M773.5397,-270.4134C775.3517,-255.7426 780.1241,-236.1803 792.5,-224 801.5385,-215.1044 873.061,-196.9628 917.6847,-186.3134"/>
<polygon fill="#191970" stroke="#191970" points="770.0444,-270.2071 772.6542,-280.4754 777.0175,-270.8208 770.0444,-270.2071"/>
</g>
<!-- Node24&#45;&gt;Node23 -->
<g id="edge39" class="edge">
<title>Node24&#45;&gt;Node23</title>
<path fill="none" stroke="#191970" d="M812.301,-277.1905C844.179,-266.9309 888.1816,-252.7691 916.9787,-243.5011"/>
<polygon fill="#191970" stroke="#191970" points="810.8585,-273.9779 802.4117,-280.3733 813.0031,-280.6413 810.8585,-273.9779"/>
</g>
<!-- Node24&#45;&gt;Node25 -->
<g id="edge33" class="edge">
<title>Node24&#45;&gt;Node25</title>
<path fill="none" stroke="#191970" d="M792.877,-273.928C805.2871,-264.1397 820.73,-251.9595 831.2745,-243.6427"/>
<polygon fill="#191970" stroke="#191970" points="790.5514,-271.3046 784.8673,-280.2455 794.8864,-276.8007 790.5514,-271.3046"/>
</g>
<!-- Node25&#45;&gt;Node13 -->
<g id="edge37" class="edge">
<title>Node25&#45;&gt;Node13</title>
<path fill="none" stroke="#191970" d="M849.7827,-214.4538C852.6992,-205.3803 856.0358,-194.9998 858.4006,-187.6427"/>
<polygon fill="#191970" stroke="#191970" points="846.3634,-213.6542 846.6354,-224.2455 853.0276,-215.7963 846.3634,-213.6542"/>
</g>
<!-- Node25&#45;&gt;Node26 -->
<g id="edge34" class="edge">
<title>Node25&#45;&gt;Node26</title>
<path fill="none" stroke="#191970" d="M895.4344,-222.1775C940.7398,-211.8641 1005.6255,-197.0934 1047.6639,-187.5237"/>
<polygon fill="#191970" stroke="#191970" points="894.483,-218.8045 885.5094,-224.4369 896.0368,-225.6299 894.483,-218.8045"/>
</g>
<!-- Node26&#45;&gt;Node7 -->
<g id="edge35" class="edge">
<title>Node26&#45;&gt;Node7</title>
<path fill="none" stroke="#191970" d="M1065.2936,-162.769C1049.5225,-152.8456 1029.424,-140.1994 1015.825,-131.6427"/>
<polygon fill="#191970" stroke="#191970" points="1063.6695,-165.8823 1073.9974,-168.2455 1067.3974,-159.9575 1063.6695,-165.8823"/>
</g>
<!-- Node27 -->
<g id="node27" class="node">
<title>Node27</title>
<g id="a_node27"><a xlink:href="Tileset_8cpp.html" target="_top" xlink:title="src/Tileset.cpp">
<polygon fill="#ffffff" stroke="#000000" points="1065,-112.5 1065,-131.5 1146,-131.5 1146,-112.5 1065,-112.5"/>
<text text-anchor="middle" x="1105.5" y="-119.5" font-family="Helvetica,sans-Serif" font-size="10.00" fill="#000000">src/Tileset.cpp</text>
</a>
</g>
</g>
<!-- Node26&#45;&gt;Node27 -->
<g id="edge36" class="edge">
<title>Node26&#45;&gt;Node27</title>
<path fill="none" stroke="#191970" d="M1095.0846,-158.4538C1097.677,-149.3803 1100.6429,-138.9998 1102.745,-131.6427"/>
<polygon fill="#191970" stroke="#191970" points="1091.6689,-157.6688 1092.287,-168.2455 1098.3996,-159.5919 1091.6689,-157.6688"/>
</g>
<!-- Node29&#45;&gt;Node19 -->
<g id="edge44" class="edge">
<title>Node29&#45;&gt;Node19</title>
<path fill="none" stroke="#191970" d="M675.3785,-275.2441C699.9702,-260.5691 739.779,-238.2439 776.5,-224 802.1049,-214.068 873.9356,-196.5524 917.8218,-186.2387"/>
<polygon fill="#191970" stroke="#191970" points="673.4889,-272.2965 666.7368,-280.461 677.1066,-278.2891 673.4889,-272.2965"/>
</g>
</g>
</svg>
