<?xml version="1.0" encoding="UTF-8" standalone="no"?>
<!DOCTYPE svg PUBLIC "-//W3C//DTD SVG 1.1//EN"
 "http://www.w3.org/Graphics/SVG/1.1/DTD/svg11.dtd">
<!-- Generated by graphviz version 2.40.1 (20161225.0304)
 -->
<!-- Title: src/Component.cpp Pages: 1 -->
<svg width="463pt" height="308pt"
 viewBox="0.00 0.00 462.50 308.00" xmlns="http://www.w3.org/2000/svg" xmlns:xlink="http://www.w3.org/1999/xlink">
<g id="graph0" class="graph" transform="scale(1 1) rotate(0) translate(4 304)">
<title>src/Component.cpp</title>
<polygon fill="#ffffff" stroke="transparent" points="-4,4 -4,-304 458.5,-304 458.5,4 -4,4"/>
<!-- Node0 -->
<g id="node1" class="node">
<title>Node0</title>
<polygon fill="#bfbfbf" stroke="#000000" points="124.5,-280.5 124.5,-299.5 226.5,-299.5 226.5,-280.5 124.5,-280.5"/>
<text text-anchor="middle" x="175.5" y="-287.5" font-family="Helvetica,sans-Serif" font-size="10.00" fill="#000000">src/Component.cpp</text>
</g>
<!-- Node1 -->
<g id="node2" class="node">
<title>Node1</title>
<g id="a_node2"><a xlink:href="Component_8h.html" target="_top" xlink:title="Component.h">
<polygon fill="#ffffff" stroke="#000000" points="138,-224.5 138,-243.5 213,-243.5 213,-224.5 138,-224.5"/>
<text text-anchor="middle" x="175.5" y="-231.5" font-family="Helvetica,sans-Serif" font-size="10.00" fill="#000000">Component.h</text>
</a>
</g>
</g>
<!-- Node0&#45;&gt;Node1 -->
<g id="edge1" class="edge">
<title>Node0&#45;&gt;Node1</title>
<path fill="none" stroke="#191970" d="M175.5,-280.2455C175.5,-272.9382 175.5,-262.6944 175.5,-253.7046"/>
<polygon fill="#191970" stroke="#191970" points="179.0001,-253.6426 175.5,-243.6427 172.0001,-253.6427 179.0001,-253.6426"/>
</g>
<!-- Node2 -->
<g id="node3" class="node">
<title>Node2</title>
<g id="a_node3"><a xlink:href="ComponentType_8h.html" target="_top" xlink:title="ComponentType.h">
<polygon fill="#ffffff" stroke="#000000" points="0,-112.5 0,-131.5 97,-131.5 97,-112.5 0,-112.5"/>
<text text-anchor="middle" x="48.5" y="-119.5" font-family="Helvetica,sans-Serif" font-size="10.00" fill="#000000">ComponentType.h</text>
</a>
</g>
</g>
<!-- Node1&#45;&gt;Node2 -->
<g id="edge2" class="edge">
<title>Node1&#45;&gt;Node2</title>
<path fill="none" stroke="#191970" d="M164.6721,-224.4509C142.9276,-205.2747 93.7395,-161.8962 66.8683,-138.1988"/>
<polygon fill="#191970" stroke="#191970" points="69.1157,-135.5141 59.3005,-131.5249 64.4857,-140.7642 69.1157,-135.5141"/>
</g>
<!-- Node3 -->
<g id="node4" class="node">
<title>Node3</title>
<g id="a_node4"><a xlink:href="GameObject_8h.html" target="_top" xlink:title="GameObject.h">
<polygon fill="#ffffff" stroke="#000000" points="135.5,-168.5 135.5,-187.5 215.5,-187.5 215.5,-168.5 135.5,-168.5"/>
<text text-anchor="middle" x="175.5" y="-175.5" font-family="Helvetica,sans-Serif" font-size="10.00" fill="#000000">GameObject.h</text>
</a>
</g>
</g>
<!-- Node1&#45;&gt;Node3 -->
<g id="edge3" class="edge">
<title>Node1&#45;&gt;Node3</title>
<path fill="none" stroke="#191970" d="M170.2332,-224.2455C168.8221,-216.9382 168.4179,-206.6944 169.0205,-197.7046"/>
<polygon fill="#191970" stroke="#191970" points="172.5111,-197.9945 170.2549,-187.6427 165.5632,-197.1421 172.5111,-197.9945"/>
</g>
<!-- Node3&#45;&gt;Node1 -->
<g id="edge8" class="edge">
<title>Node3&#45;&gt;Node1</title>
<path fill="none" stroke="#191970" d="M180.7451,-187.6427C182.1665,-194.9199 182.581,-205.155 181.9887,-214.1575"/>
<polygon fill="#191970" stroke="#191970" points="178.4947,-213.8972 180.7668,-224.2455 185.4439,-214.739 178.4947,-213.8972"/>
</g>
<!-- Node3&#45;&gt;Node2 -->
<g id="edge9" class="edge">
<title>Node3&#45;&gt;Node2</title>
<path fill="none" stroke="#191970" d="M153.6679,-168.3733C133.1897,-159.3435 102.3601,-145.7494 79.3681,-135.6111"/>
<polygon fill="#191970" stroke="#191970" points="80.6093,-132.3333 70.0472,-131.5011 77.785,-138.7383 80.6093,-132.3333"/>
</g>
<!-- Node4 -->
<g id="node5" class="node">
<title>Node4</title>
<g id="a_node5"><a xlink:href="SDL__include_8h.html" target="_top" xlink:title="SDL_include.h">
<polygon fill="#ffffff" stroke="#000000" points="276.5,-.5 276.5,-19.5 356.5,-19.5 356.5,-.5 276.5,-.5"/>
<text text-anchor="middle" x="316.5" y="-7.5" font-family="Helvetica,sans-Serif" font-size="10.00" fill="#000000">SDL_include.h</text>
</a>
</g>
</g>
<!-- Node3&#45;&gt;Node4 -->
<g id="edge4" class="edge">
<title>Node3&#45;&gt;Node4</title>
<path fill="none" stroke="#191970" d="M165.0794,-168.3643C152.2602,-155.2954 133.4726,-131.3601 144.5,-112 171.4631,-64.6625 229.9967,-37.0333 271.2666,-22.7374"/>
<polygon fill="#191970" stroke="#191970" points="272.4513,-26.0319 280.8342,-19.553 270.2406,-19.3902 272.4513,-26.0319"/>
</g>
<!-- Node5 -->
<g id="node6" class="node">
<title>Node5</title>
<polygon fill="#ffffff" stroke="#bfbfbf" points="153.5,-112.5 153.5,-131.5 197.5,-131.5 197.5,-112.5 153.5,-112.5"/>
<text text-anchor="middle" x="175.5" y="-119.5" font-family="Helvetica,sans-Serif" font-size="10.00" fill="#000000">vector</text>
</g>
<!-- Node3&#45;&gt;Node5 -->
<g id="edge5" class="edge">
<title>Node3&#45;&gt;Node5</title>
<path fill="none" stroke="#191970" d="M175.5,-168.2455C175.5,-160.9382 175.5,-150.6944 175.5,-141.7046"/>
<polygon fill="#191970" stroke="#191970" points="179.0001,-141.6426 175.5,-131.6427 172.0001,-141.6427 179.0001,-141.6426"/>
</g>
<!-- Node6 -->
<g id="node7" class="node">
<title>Node6</title>
<polygon fill="#ffffff" stroke="#bfbfbf" points="215.5,-112.5 215.5,-131.5 267.5,-131.5 267.5,-112.5 215.5,-112.5"/>
<text text-anchor="middle" x="241.5" y="-119.5" font-family="Helvetica,sans-Serif" font-size="10.00" fill="#000000">memory</text>
</g>
<!-- Node3&#45;&gt;Node6 -->
<g id="edge6" class="edge">
<title>Node3&#45;&gt;Node6</title>
<path fill="none" stroke="#191970" d="M186.9963,-168.2455C196.7442,-159.9746 210.9259,-147.9416 222.3798,-138.2232"/>
<polygon fill="#191970" stroke="#191970" points="224.7747,-140.7813 230.1354,-131.6427 220.2459,-135.4437 224.7747,-140.7813"/>
</g>
<!-- Node7 -->
<g id="node8" class="node">
<title>Node7</title>
<polygon fill="#ffffff" stroke="#bfbfbf" points="286,-112.5 286,-131.5 327,-131.5 327,-112.5 286,-112.5"/>
<text text-anchor="middle" x="306.5" y="-119.5" font-family="Helvetica,sans-Serif" font-size="10.00" fill="#000000">string</text>
</g>
<!-- Node3&#45;&gt;Node7 -->
<g id="edge7" class="edge">
<title>Node3&#45;&gt;Node7</title>
<path fill="none" stroke="#191970" d="M198.0197,-168.3733C219.7516,-159.0833 252.785,-144.9621 276.6893,-134.7435"/>
<polygon fill="#191970" stroke="#191970" points="278.1771,-137.914 285.9964,-130.7649 275.4255,-131.4774 278.1771,-137.914"/>
</g>
<!-- Node8 -->
<g id="node9" class="node">
<title>Node8</title>
<g id="a_node9"><a xlink:href="Rect_8h.html" target="_top" xlink:title="Rect.h">
<polygon fill="#ffffff" stroke="#000000" points="345.5,-112.5 345.5,-131.5 391.5,-131.5 391.5,-112.5 345.5,-112.5"/>
<text text-anchor="middle" x="368.5" y="-119.5" font-family="Helvetica,sans-Serif" font-size="10.00" fill="#000000">Rect.h</text>
</a>
</g>
</g>
<!-- Node3&#45;&gt;Node8 -->
<g id="edge10" class="edge">
<title>Node3&#45;&gt;Node8</title>
<path fill="none" stroke="#191970" d="M209.2521,-168.4476C241.6614,-159.2394 291.9796,-144.8494 335.5,-132 335.6005,-131.9703 335.7011,-131.9406 335.8019,-131.9108"/>
<polygon fill="#191970" stroke="#191970" points="336.8526,-135.2499 345.4336,-129.0356 334.8503,-128.5423 336.8526,-135.2499"/>
</g>
<!-- Node8&#45;&gt;Node4 -->
<g id="edge11" class="edge">
<title>Node8&#45;&gt;Node4</title>
<path fill="none" stroke="#191970" d="M360.1022,-112.3984C352.7024,-103.5003 342.1014,-89.6206 335.5,-76 328.3495,-61.2464 323.399,-43.3013 320.348,-29.8493"/>
<polygon fill="#191970" stroke="#191970" points="323.7119,-28.8385 318.2253,-19.775 316.8623,-30.2818 323.7119,-28.8385"/>
</g>
<!-- Node9 -->
<g id="node10" class="node">
<title>Node9</title>
<g id="a_node10"><a xlink:href="Vec2_8h.html" target="_top" xlink:title="Vec2.h">
<polygon fill="#ffffff" stroke="#000000" points="345,-56.5 345,-75.5 392,-75.5 392,-56.5 345,-56.5"/>
<text text-anchor="middle" x="368.5" y="-63.5" font-family="Helvetica,sans-Serif" font-size="10.00" fill="#000000">Vec2.h</text>
</a>
</g>
</g>
<!-- Node8&#45;&gt;Node9 -->
<g id="edge12" class="edge">
<title>Node8&#45;&gt;Node9</title>
<path fill="none" stroke="#191970" d="M363.2332,-112.2455C361.8221,-104.9382 361.4179,-94.6944 362.0205,-85.7046"/>
<polygon fill="#191970" stroke="#191970" points="365.5111,-85.9945 363.2549,-75.6427 358.5632,-85.1421 365.5111,-85.9945"/>
</g>
<!-- Node10 -->
<g id="node11" class="node">
<title>Node10</title>
<polygon fill="#ffffff" stroke="#bfbfbf" points="410.5,-56.5 410.5,-75.5 454.5,-75.5 454.5,-56.5 410.5,-56.5"/>
<text text-anchor="middle" x="432.5" y="-63.5" font-family="Helvetica,sans-Serif" font-size="10.00" fill="#000000">cmath</text>
</g>
<!-- Node8&#45;&gt;Node10 -->
<g id="edge15" class="edge">
<title>Node8&#45;&gt;Node10</title>
<path fill="none" stroke="#191970" d="M379.6479,-112.2455C389.0087,-104.0549 402.5858,-92.1749 413.6349,-82.5069"/>
<polygon fill="#191970" stroke="#191970" points="416.2588,-84.8618 421.4798,-75.6427 411.6492,-79.5937 416.2588,-84.8618"/>
</g>
<!-- Node9&#45;&gt;Node4 -->
<g id="edge13" class="edge">
<title>Node9&#45;&gt;Node4</title>
<path fill="none" stroke="#191970" d="M359.4423,-56.2455C351.9858,-48.2155 341.2366,-36.6394 332.3583,-27.0781"/>
<polygon fill="#191970" stroke="#191970" points="334.8232,-24.589 325.4539,-19.6427 329.6937,-29.3522 334.8232,-24.589"/>
</g>
<!-- Node9&#45;&gt;Node8 -->
<g id="edge14" class="edge">
<title>Node9&#45;&gt;Node8</title>
<path fill="none" stroke="#191970" d="M373.7451,-75.6427C375.1665,-82.9199 375.581,-93.155 374.9887,-102.1575"/>
<polygon fill="#191970" stroke="#191970" points="371.4947,-101.8972 373.7668,-112.2455 378.4439,-102.739 371.4947,-101.8972"/>
</g>
</g>
</svg>
