<?xml version="1.0" encoding="UTF-8" standalone="no"?>
<!DOCTYPE svg PUBLIC "-//W3C//DTD SVG 1.1//EN"
 "http://www.w3.org/Graphics/SVG/1.1/DTD/svg11.dtd">
<!-- Generated by graphviz version 2.38.0 (20140413.2041)
 -->
<!-- Title: include/ComponentType.h Pages: 1 -->
<svg width="1261pt" height="308pt"
 viewBox="0.00 0.00 1260.50 308.00" xmlns="http://www.w3.org/2000/svg" xmlns:xlink="http://www.w3.org/1999/xlink">
<g id="graph0" class="graph" transform="scale(1 1) rotate(0) translate(4 304)">
<title>include/ComponentType.h</title>
<polygon fill="white" stroke="none" points="-4,4 -4,-304 1256.5,-304 1256.5,4 -4,4"/>
<!-- Node1 -->
<g id="node1" class="node"><title>Node1</title>
<polygon fill="#bfbfbf" stroke="black" points="831.5,-280.5 831.5,-299.5 962.5,-299.5 962.5,-280.5 831.5,-280.5"/>
<text text-anchor="middle" x="897" y="-287.5" font-family="Helvetica,sans-Serif" font-size="10.00">include/ComponentType.h</text>
</g>
<!-- Node2 -->
<g id="node2" class="node"><title>Node2</title>
<g id="a_node2"><a xlink:href="Component_8h.html" target="_top" xlink:title="include/Component.h">
<polygon fill="white" stroke="black" points="721.5,-224.5 721.5,-243.5 830.5,-243.5 830.5,-224.5 721.5,-224.5"/>
<text text-anchor="middle" x="776" y="-231.5" font-family="Helvetica,sans-Serif" font-size="10.00">include/Component.h</text>
</a>
</g>
</g>
<!-- Node1&#45;&gt;Node2 -->
<g id="edge1" class="edge"><title>Node1&#45;&gt;Node2</title>
<path fill="none" stroke="midnightblue" d="M868.694,-276.368C846.035,-266.255 814.874,-252.349 795.083,-243.516"/>
<polygon fill="midnightblue" stroke="midnightblue" points="867.269,-279.564 877.827,-280.444 870.122,-273.172 867.269,-279.564"/>
</g>
<!-- Node3 -->
<g id="node3" class="node"><title>Node3</title>
<g id="a_node3"><a xlink:href="GameObject_8h.html" target="_top" xlink:title="include/GameObject.h">
<polygon fill="white" stroke="black" points="717.5,-168.5 717.5,-187.5 830.5,-187.5 830.5,-168.5 717.5,-168.5"/>
<text text-anchor="middle" x="774" y="-175.5" font-family="Helvetica,sans-Serif" font-size="10.00">include/GameObject.h</text>
</a>
</g>
</g>
<!-- Node1&#45;&gt;Node3 -->
<g id="edge51" class="edge"><title>Node1&#45;&gt;Node3</title>
<path fill="none" stroke="midnightblue" d="M821.126,-280.071C776.333,-273.064 725.767,-261.517 712,-244 694.943,-222.297 731.112,-199.533 755.058,-187.549"/>
<polygon fill="midnightblue" stroke="midnightblue" points="820.762,-283.555 831.171,-281.583 821.804,-276.633 820.762,-283.555"/>
</g>
<!-- Node6 -->
<g id="node6" class="node"><title>Node6</title>
<g id="a_node6"><a xlink:href="Button_8h.html" target="_top" xlink:title="include/Button.h">
<polygon fill="white" stroke="black" points="957.5,-112.5 957.5,-131.5 1044.5,-131.5 1044.5,-112.5 957.5,-112.5"/>
<text text-anchor="middle" x="1001" y="-119.5" font-family="Helvetica,sans-Serif" font-size="10.00">include/Button.h</text>
</a>
</g>
</g>
<!-- Node1&#45;&gt;Node6 -->
<g id="edge52" class="edge"><title>Node1&#45;&gt;Node6</title>
<path fill="none" stroke="midnightblue" d="M908.082,-271.312C930.254,-235.921 979.345,-157.565 995.632,-131.568"/>
<polygon fill="midnightblue" stroke="midnightblue" points="904.935,-269.743 902.591,-280.075 910.867,-273.459 904.935,-269.743"/>
</g>
<!-- Node21 -->
<g id="node21" class="node"><title>Node21</title>
<g id="a_node21"><a xlink:href="Grouper_8h.html" target="_top" xlink:title="include/Grouper.h">
<polygon fill="white" stroke="black" points="1159.5,-112.5 1159.5,-131.5 1252.5,-131.5 1252.5,-112.5 1159.5,-112.5"/>
<text text-anchor="middle" x="1206" y="-119.5" font-family="Helvetica,sans-Serif" font-size="10.00">include/Grouper.h</text>
</a>
</g>
</g>
<!-- Node1&#45;&gt;Node21 -->
<g id="edge53" class="edge"><title>Node1&#45;&gt;Node21</title>
<path fill="none" stroke="midnightblue" d="M972.439,-282.207C1038.27,-272.292 1131.8,-247.914 1188,-188 1202.74,-172.286 1205.59,-145.582 1206.03,-131.804"/>
<polygon fill="midnightblue" stroke="midnightblue" points="971.934,-278.744 962.53,-283.623 972.924,-285.673 971.934,-278.744"/>
</g>
<!-- Node24 -->
<g id="node24" class="node"><title>Node24</title>
<g id="a_node24"><a xlink:href="RectTransform_8h.html" target="_top" xlink:title="include/RectTransform.h">
<polygon fill="white" stroke="black" points="624,-112.5 624,-131.5 748,-131.5 748,-112.5 624,-112.5"/>
<text text-anchor="middle" x="686" y="-119.5" font-family="Helvetica,sans-Serif" font-size="10.00">include/RectTransform.h</text>
</a>
</g>
</g>
<!-- Node1&#45;&gt;Node24 -->
<g id="edge54" class="edge"><title>Node1&#45;&gt;Node24</title>
<path fill="none" stroke="midnightblue" d="M893.076,-270.246C886.528,-243.615 870.827,-195.077 839,-168 813.694,-146.471 778.494,-135.237 748.236,-129.378"/>
<polygon fill="midnightblue" stroke="midnightblue" points="889.708,-271.219 895.342,-280.191 896.533,-269.663 889.708,-271.219"/>
</g>
<!-- Node25 -->
<g id="node25" class="node"><title>Node25</title>
<g id="a_node25"><a xlink:href="Text_8h.html" target="_top" xlink:title="include/Text.h">
<polygon fill="white" stroke="black" points="1063,-112.5 1063,-131.5 1141,-131.5 1141,-112.5 1063,-112.5"/>
<text text-anchor="middle" x="1102" y="-119.5" font-family="Helvetica,sans-Serif" font-size="10.00">include/Text.h</text>
</a>
</g>
</g>
<!-- Node1&#45;&gt;Node25 -->
<g id="edge55" class="edge"><title>Node1&#45;&gt;Node25</title>
<path fill="none" stroke="midnightblue" d="M915.507,-274.014C957.395,-240.095 1058.38,-158.324 1091.37,-131.605"/>
<polygon fill="midnightblue" stroke="midnightblue" points="913.302,-271.296 907.733,-280.309 917.707,-276.736 913.302,-271.296"/>
</g>
<!-- Node2&#45;&gt;Node3 -->
<g id="edge2" class="edge"><title>Node2&#45;&gt;Node3</title>
<path fill="none" stroke="midnightblue" d="M768.828,-214.101C767.864,-205.136 767.93,-194.858 769.193,-187.751"/>
<polygon fill="midnightblue" stroke="midnightblue" points="765.396,-214.8 770.503,-224.083 772.299,-213.642 765.396,-214.8"/>
</g>
<!-- Node2&#45;&gt;Node6 -->
<g id="edge44" class="edge"><title>Node2&#45;&gt;Node6</title>
<path fill="none" stroke="midnightblue" d="M802.84,-219.878C849.477,-197.078 944.237,-150.751 983.427,-131.591"/>
<polygon fill="midnightblue" stroke="midnightblue" points="801.102,-216.832 793.655,-224.368 804.176,-223.121 801.102,-216.832"/>
</g>
<!-- Node9 -->
<g id="node9" class="node"><title>Node9</title>
<g id="a_node9"><a xlink:href="TileMap_8h.html" target="_top" xlink:title="include/TileMap.h">
<polygon fill="white" stroke="black" points="12.5,-56.5 12.5,-75.5 105.5,-75.5 105.5,-56.5 12.5,-56.5"/>
<text text-anchor="middle" x="59" y="-63.5" font-family="Helvetica,sans-Serif" font-size="10.00">include/TileMap.h</text>
</a>
</g>
</g>
<!-- Node2&#45;&gt;Node9 -->
<g id="edge46" class="edge"><title>Node2&#45;&gt;Node9</title>
<path fill="none" stroke="midnightblue" d="M711.013,-231.179C617.695,-227.611 440.704,-217.28 293,-188 209.984,-171.543 180.979,-179.596 111,-132 88.7739,-116.883 71.3947,-89.4198 63.5522,-75.5312"/>
<polygon fill="midnightblue" stroke="midnightblue" points="711.027,-234.682 721.149,-231.553 711.284,-227.687 711.027,-234.682"/>
</g>
<!-- Node10 -->
<g id="node10" class="node"><title>Node10</title>
<g id="a_node10"><a xlink:href="DragAndDrop_8h.html" target="_top" xlink:title="include/DragAndDrop.h">
<polygon fill="white" stroke="black" points="0,-0.5 0,-19.5 118,-19.5 118,-0.5 0,-0.5"/>
<text text-anchor="middle" x="59" y="-7.5" font-family="Helvetica,sans-Serif" font-size="10.00">include/DragAndDrop.h</text>
</a>
</g>
</g>
<!-- Node2&#45;&gt;Node10 -->
<g id="edge45" class="edge"><title>Node2&#45;&gt;Node10</title>
<path fill="none" stroke="midnightblue" d="M711.382,-231.848C578.208,-228.867 277.509,-218.84 180,-188 91.2408,-159.927 46.6991,-158.199 3,-76 -9.16609,-53.1153 21.0767,-31.3111 41.6992,-19.6908"/>
<polygon fill="midnightblue" stroke="midnightblue" points="711.369,-235.348 721.443,-232.067 711.522,-228.35 711.369,-235.348"/>
</g>
<!-- Node2&#45;&gt;Node21 -->
<g id="edge47" class="edge"><title>Node2&#45;&gt;Node21</title>
<path fill="none" stroke="midnightblue" d="M819.848,-221.977C855.886,-212.903 908.268,-199.679 954,-188 1032.58,-167.933 1124.86,-144.05 1172.99,-131.568"/>
<polygon fill="midnightblue" stroke="midnightblue" points="818.979,-218.587 810.136,-224.422 820.688,-225.375 818.979,-218.587"/>
</g>
<!-- Node2&#45;&gt;Node24 -->
<g id="edge48" class="edge"><title>Node2&#45;&gt;Node24</title>
<path fill="none" stroke="midnightblue" d="M747.401,-219.682C733.809,-212.087 718.317,-201.396 708,-188 694.77,-170.821 689.232,-145.216 687.136,-131.848"/>
<polygon fill="midnightblue" stroke="midnightblue" points="745.943,-222.87 756.421,-224.44 749.209,-216.678 745.943,-222.87"/>
</g>
<!-- Node2&#45;&gt;Node25 -->
<g id="edge49" class="edge"><title>Node2&#45;&gt;Node25</title>
<path fill="none" stroke="midnightblue" d="M810.848,-221.241C876.815,-198.983 1018.51,-151.172 1076.48,-131.61"/>
<polygon fill="midnightblue" stroke="midnightblue" points="809.666,-217.947 801.309,-224.46 811.904,-224.579 809.666,-217.947"/>
</g>
<!-- Node26 -->
<g id="node26" class="node"><title>Node26</title>
<g id="a_node26"><a xlink:href="Sprite_8h.html" target="_top" xlink:title="include/Sprite.h">
<polygon fill="white" stroke="black" points="302,-168.5 302,-187.5 386,-187.5 386,-168.5 302,-168.5"/>
<text text-anchor="middle" x="344" y="-175.5" font-family="Helvetica,sans-Serif" font-size="10.00">include/Sprite.h</text>
</a>
</g>
</g>
<!-- Node2&#45;&gt;Node26 -->
<g id="edge38" class="edge"><title>Node2&#45;&gt;Node26</title>
<path fill="none" stroke="midnightblue" d="M711.24,-224.905C621.574,-213.697 462.11,-193.764 386.296,-184.287"/>
<polygon fill="midnightblue" stroke="midnightblue" points="710.93,-228.393 721.287,-226.161 711.798,-221.447 710.93,-228.393"/>
</g>
<!-- Node29 -->
<g id="node29" class="node"><title>Node29</title>
<g id="a_node29"><a xlink:href="Component_8cpp.html" target="_top" xlink:title="src/Component.cpp">
<polygon fill="white" stroke="black" points="1077,-168.5 1077,-187.5 1179,-187.5 1179,-168.5 1077,-168.5"/>
<text text-anchor="middle" x="1128" y="-175.5" font-family="Helvetica,sans-Serif" font-size="10.00">src/Component.cpp</text>
</a>
</g>
</g>
<!-- Node2&#45;&gt;Node29 -->
<g id="edge50" class="edge"><title>Node2&#45;&gt;Node29</title>
<path fill="none" stroke="midnightblue" d="M840.791,-223.06C908.878,-212.615 1014.58,-196.4 1076.98,-186.827"/>
<polygon fill="midnightblue" stroke="midnightblue" points="839.967,-219.646 830.614,-224.622 841.029,-226.565 839.967,-219.646"/>
</g>
<!-- Node3&#45;&gt;Node2 -->
<g id="edge5" class="edge"><title>Node3&#45;&gt;Node2</title>
<path fill="none" stroke="midnightblue" d="M781.15,-197.691C782.13,-206.635 782.081,-216.927 780.836,-224.083"/>
<polygon fill="midnightblue" stroke="midnightblue" points="784.586,-197.021 779.455,-187.751 777.686,-198.197 784.586,-197.021"/>
</g>
<!-- Node4 -->
<g id="node4" class="node"><title>Node4</title>
<g id="a_node4"><a xlink:href="Animation_8h.html" target="_top" xlink:title="include/Animation.h">
<polygon fill="white" stroke="black" points="254,-112.5 254,-131.5 356,-131.5 356,-112.5 254,-112.5"/>
<text text-anchor="middle" x="305" y="-119.5" font-family="Helvetica,sans-Serif" font-size="10.00">include/Animation.h</text>
</a>
</g>
</g>
<!-- Node3&#45;&gt;Node4 -->
<g id="edge3" class="edge"><title>Node3&#45;&gt;Node4</title>
<path fill="none" stroke="midnightblue" d="M707.393,-169.331C612.729,-158.431 441.318,-138.695 356.039,-128.877"/>
<polygon fill="midnightblue" stroke="midnightblue" points="707.093,-172.819 717.428,-170.486 707.894,-165.865 707.093,-172.819"/>
</g>
<!-- Node3&#45;&gt;Node6 -->
<g id="edge6" class="edge"><title>Node3&#45;&gt;Node6</title>
<path fill="none" stroke="midnightblue" d="M819.869,-166.088C862.755,-155.887 925.917,-140.861 965.199,-131.516"/>
<polygon fill="midnightblue" stroke="midnightblue" points="818.887,-162.724 809.969,-168.444 820.507,-169.534 818.887,-162.724"/>
</g>
<!-- Node8 -->
<g id="node8" class="node"><title>Node8</title>
<g id="a_node8"><a xlink:href="Camera_8h.html" target="_top" xlink:title="include/Camera.h">
<polygon fill="white" stroke="black" points="412.5,-112.5 412.5,-131.5 505.5,-131.5 505.5,-112.5 412.5,-112.5"/>
<text text-anchor="middle" x="459" y="-119.5" font-family="Helvetica,sans-Serif" font-size="10.00">include/Camera.h</text>
</a>
</g>
</g>
<!-- Node3&#45;&gt;Node8 -->
<g id="edge8" class="edge"><title>Node3&#45;&gt;Node8</title>
<path fill="none" stroke="midnightblue" d="M713.895,-166.696C653.254,-156.301 560.906,-140.47 505.598,-130.988"/>
<polygon fill="midnightblue" stroke="midnightblue" points="713.64,-170.203 724.087,-168.444 714.822,-163.304 713.64,-170.203"/>
</g>
<!-- Node12 -->
<g id="node12" class="node"><title>Node12</title>
<g id="a_node12"><a xlink:href="GameObject_8cpp.html" target="_top" xlink:title="src/GameObject.cpp">
<polygon fill="white" stroke="black" points="799.5,-56.5 799.5,-75.5 906.5,-75.5 906.5,-56.5 799.5,-56.5"/>
<text text-anchor="middle" x="853" y="-63.5" font-family="Helvetica,sans-Serif" font-size="10.00">src/GameObject.cpp</text>
</a>
</g>
</g>
<!-- Node3&#45;&gt;Node12 -->
<g id="edge37" class="edge"><title>Node3&#45;&gt;Node12</title>
<path fill="none" stroke="midnightblue" d="M777.02,-158.067C779.912,-144.326 785.317,-125.804 795,-112 806.052,-96.2452 824.245,-83.4199 837.31,-75.5496"/>
<polygon fill="midnightblue" stroke="midnightblue" points="773.509,-157.807 775.143,-168.276 780.393,-159.073 773.509,-157.807"/>
</g>
<!-- Node16 -->
<g id="node16" class="node"><title>Node16</title>
<g id="a_node16"><a xlink:href="State_8h.html" target="_top" xlink:title="include/State.h">
<polygon fill="white" stroke="black" points="524,-112.5 524,-131.5 606,-131.5 606,-112.5 524,-112.5"/>
<text text-anchor="middle" x="565" y="-119.5" font-family="Helvetica,sans-Serif" font-size="10.00">include/State.h</text>
</a>
</g>
</g>
<!-- Node3&#45;&gt;Node16 -->
<g id="edge18" class="edge"><title>Node3&#45;&gt;Node16</title>
<path fill="none" stroke="midnightblue" d="M731.016,-165.894C691.548,-155.697 633.9,-140.802 597.962,-131.516"/>
<polygon fill="midnightblue" stroke="midnightblue" points="730.326,-169.331 740.883,-168.444 732.077,-162.553 730.326,-169.331"/>
</g>
<!-- Node3&#45;&gt;Node21 -->
<g id="edge27" class="edge"><title>Node3&#45;&gt;Node21</title>
<path fill="none" stroke="midnightblue" d="M841.067,-169.797C916.357,-161.52 1042.11,-147.119 1150,-132 1153.02,-131.576 1156.14,-131.123 1159.27,-130.654"/>
<polygon fill="midnightblue" stroke="midnightblue" points="840.344,-166.355 830.785,-170.924 841.107,-173.314 840.344,-166.355"/>
</g>
<!-- Node23 -->
<g id="node23" class="node"><title>Node23</title>
<g id="a_node23"><a xlink:href="NearestGOFinder_8h.html" target="_top" xlink:title="include/NearestGOFinder.h">
<polygon fill="white" stroke="black" points="804.5,-112.5 804.5,-131.5 939.5,-131.5 939.5,-112.5 804.5,-112.5"/>
<text text-anchor="middle" x="872" y="-119.5" font-family="Helvetica,sans-Serif" font-size="10.00">include/NearestGOFinder.h</text>
</a>
</g>
</g>
<!-- Node3&#45;&gt;Node23 -->
<g id="edge29" class="edge"><title>Node3&#45;&gt;Node23</title>
<path fill="none" stroke="midnightblue" d="M798.586,-163.453C816.678,-153.483 840.735,-140.228 856.294,-131.655"/>
<polygon fill="midnightblue" stroke="midnightblue" points="796.815,-160.432 789.745,-168.324 800.193,-166.563 796.815,-160.432"/>
</g>
<!-- Node3&#45;&gt;Node24 -->
<g id="edge30" class="edge"><title>Node3&#45;&gt;Node24</title>
<path fill="none" stroke="midnightblue" d="M751.023,-162.901C734.887,-152.999 713.819,-140.071 700.104,-131.655"/>
<polygon fill="midnightblue" stroke="midnightblue" points="749.507,-166.077 759.861,-168.324 753.169,-160.111 749.507,-166.077"/>
</g>
<!-- Node3&#45;&gt;Node25 -->
<g id="edge35" class="edge"><title>Node3&#45;&gt;Node25</title>
<path fill="none" stroke="midnightblue" d="M839,-166.926C895.587,-158.057 979.794,-144.625 1053,-132 1056.24,-131.441 1059.6,-130.85 1062.96,-130.249"/>
<polygon fill="midnightblue" stroke="midnightblue" points="838.453,-163.469 829.114,-168.473 839.535,-170.384 838.453,-163.469"/>
</g>
<!-- Node5 -->
<g id="node5" class="node"><title>Node5</title>
<g id="a_node5"><a xlink:href="Animation_8cpp.html" target="_top" xlink:title="src/Animation.cpp">
<polygon fill="white" stroke="black" points="222.5,-56.5 222.5,-75.5 317.5,-75.5 317.5,-56.5 222.5,-56.5"/>
<text text-anchor="middle" x="270" y="-63.5" font-family="Helvetica,sans-Serif" font-size="10.00">src/Animation.cpp</text>
</a>
</g>
</g>
<!-- Node4&#45;&gt;Node5 -->
<g id="edge4" class="edge"><title>Node4&#45;&gt;Node5</title>
<path fill="none" stroke="midnightblue" d="M293.7,-103.566C287.678,-94.2747 280.531,-83.2484 275.672,-75.7511"/>
<polygon fill="midnightblue" stroke="midnightblue" points="290.844,-105.595 299.22,-112.083 296.719,-101.788 290.844,-105.595"/>
</g>
<!-- Node7 -->
<g id="node7" class="node"><title>Node7</title>
<g id="a_node7"><a xlink:href="Button_8cpp.html" target="_top" xlink:title="src/Button.cpp">
<polygon fill="white" stroke="black" points="943,-56.5 943,-75.5 1023,-75.5 1023,-56.5 943,-56.5"/>
<text text-anchor="middle" x="983" y="-63.5" font-family="Helvetica,sans-Serif" font-size="10.00">src/Button.cpp</text>
</a>
</g>
</g>
<!-- Node6&#45;&gt;Node7 -->
<g id="edge7" class="edge"><title>Node6&#45;&gt;Node7</title>
<path fill="none" stroke="midnightblue" d="M994.799,-102.396C991.787,-93.362 988.312,-82.936 985.917,-75.7511"/>
<polygon fill="midnightblue" stroke="midnightblue" points="991.545,-103.703 998.028,-112.083 998.186,-101.489 991.545,-103.703"/>
</g>
<!-- Node8&#45;&gt;Node5 -->
<g id="edge12" class="edge"><title>Node8&#45;&gt;Node5</title>
<path fill="none" stroke="midnightblue" d="M418.987,-109.568C383.333,-99.381 331.962,-84.7034 299.808,-75.5164"/>
<polygon fill="midnightblue" stroke="midnightblue" points="418.476,-113.062 429.052,-112.444 420.399,-106.331 418.476,-113.062"/>
</g>
<!-- Node8&#45;&gt;Node9 -->
<g id="edge9" class="edge"><title>Node8&#45;&gt;Node9</title>
<path fill="none" stroke="midnightblue" d="M402.203,-114.166C333.762,-105.798 215.323,-90.894 114,-76 111.32,-75.606 108.568,-75.1905 105.792,-74.763"/>
<polygon fill="midnightblue" stroke="midnightblue" points="401.988,-117.665 412.339,-115.402 402.836,-110.717 401.988,-117.665"/>
</g>
<!-- Node8&#45;&gt;Node10 -->
<g id="edge11" class="edge"><title>Node8&#45;&gt;Node10</title>
<path fill="none" stroke="midnightblue" d="M436.144,-107.292C410.301,-92.4066 366.535,-69.0191 326,-56 256.516,-33.6829 173.113,-21.8841 118.227,-16.0537"/>
<polygon fill="midnightblue" stroke="midnightblue" points="434.414,-110.335 444.814,-112.357 437.945,-104.291 434.414,-110.335"/>
</g>
<!-- Node11 -->
<g id="node11" class="node"><title>Node11</title>
<g id="a_node11"><a xlink:href="Camera_8cpp.html" target="_top" xlink:title="src/Camera.cpp">
<polygon fill="white" stroke="black" points="441,-0.5 441,-19.5 527,-19.5 527,-0.5 441,-0.5"/>
<text text-anchor="middle" x="484" y="-7.5" font-family="Helvetica,sans-Serif" font-size="10.00">src/Camera.cpp</text>
</a>
</g>
</g>
<!-- Node8&#45;&gt;Node11 -->
<g id="edge13" class="edge"><title>Node8&#45;&gt;Node11</title>
<path fill="none" stroke="midnightblue" d="M463.239,-102.348C468.715,-78.2538 478.021,-37.3079 482.047,-19.5914"/>
<polygon fill="midnightblue" stroke="midnightblue" points="459.765,-101.841 460.962,-112.368 466.591,-103.393 459.765,-101.841"/>
</g>
<!-- Node8&#45;&gt;Node12 -->
<g id="edge14" class="edge"><title>Node8&#45;&gt;Node12</title>
<path fill="none" stroke="midnightblue" d="M515.707,-111.93C622.36,-96.3544 734.681,-81.8526 799.374,-73.6858"/>
<polygon fill="midnightblue" stroke="midnightblue" points="515.123,-108.478 505.736,-113.392 516.138,-115.404 515.123,-108.478"/>
</g>
<!-- Node13 -->
<g id="node13" class="node"><title>Node13</title>
<g id="a_node13"><a xlink:href="RectTransform_8cpp.html" target="_top" xlink:title="src/RectTransform.cpp">
<polygon fill="white" stroke="black" points="545.5,-0.5 545.5,-19.5 662.5,-19.5 662.5,-0.5 545.5,-0.5"/>
<text text-anchor="middle" x="604" y="-7.5" font-family="Helvetica,sans-Serif" font-size="10.00">src/RectTransform.cpp</text>
</a>
</g>
</g>
<!-- Node8&#45;&gt;Node13 -->
<g id="edge15" class="edge"><title>Node8&#45;&gt;Node13</title>
<path fill="none" stroke="midnightblue" d="M471.531,-103.75C482.401,-89.6449 499.159,-69.8404 517,-56 537.288,-40.2608 563.911,-27.4327 582.338,-19.5575"/>
<polygon fill="midnightblue" stroke="midnightblue" points="468.486,-101.976 465.285,-112.076 474.086,-106.176 468.486,-101.976"/>
</g>
<!-- Node14 -->
<g id="node14" class="node"><title>Node14</title>
<g id="a_node14"><a xlink:href="Sprite_8cpp.html" target="_top" xlink:title="src/Sprite.cpp">
<polygon fill="white" stroke="black" points="345.5,-0.5 345.5,-19.5 422.5,-19.5 422.5,-0.5 345.5,-0.5"/>
<text text-anchor="middle" x="384" y="-7.5" font-family="Helvetica,sans-Serif" font-size="10.00">src/Sprite.cpp</text>
</a>
</g>
</g>
<!-- Node8&#45;&gt;Node14 -->
<g id="edge16" class="edge"><title>Node8&#45;&gt;Node14</title>
<path fill="none" stroke="midnightblue" d="M447.38,-103.957C431.126,-80.1184 402.211,-37.7088 389.858,-19.5914"/>
<polygon fill="midnightblue" stroke="midnightblue" points="444.59,-106.078 453.115,-112.368 450.373,-102.135 444.59,-106.078"/>
</g>
<!-- Node15 -->
<g id="node15" class="node"><title>Node15</title>
<g id="a_node15"><a xlink:href="State_8cpp.html" target="_top" xlink:title="src/State.cpp">
<polygon fill="white" stroke="black" points="526.5,-56.5 526.5,-75.5 601.5,-75.5 601.5,-56.5 526.5,-56.5"/>
<text text-anchor="middle" x="564" y="-63.5" font-family="Helvetica,sans-Serif" font-size="10.00">src/State.cpp</text>
</a>
</g>
</g>
<!-- Node8&#45;&gt;Node15 -->
<g id="edge17" class="edge"><title>Node8&#45;&gt;Node15</title>
<path fill="none" stroke="midnightblue" d="M484.81,-107.726C504.253,-97.7271 530.348,-84.3065 547.172,-75.6545"/>
<polygon fill="midnightblue" stroke="midnightblue" points="483.162,-104.638 475.87,-112.324 486.364,-110.863 483.162,-104.638"/>
</g>
<!-- Node9&#45;&gt;Node10 -->
<g id="edge10" class="edge"><title>Node9&#45;&gt;Node10</title>
<path fill="none" stroke="midnightblue" d="M59,-45.8045C59,-36.9102 59,-26.7798 59,-19.7511"/>
<polygon fill="midnightblue" stroke="midnightblue" points="55.5001,-46.083 59,-56.083 62.5001,-46.083 55.5001,-46.083"/>
</g>
<!-- Node16&#45;&gt;Node15 -->
<g id="edge26" class="edge"><title>Node16&#45;&gt;Node15</title>
<path fill="none" stroke="midnightblue" d="M564.645,-101.805C564.48,-92.9102 564.292,-82.7798 564.162,-75.7511"/>
<polygon fill="midnightblue" stroke="midnightblue" points="561.15,-102.15 564.835,-112.083 568.149,-102.02 561.15,-102.15"/>
</g>
<!-- Node17 -->
<g id="node17" class="node"><title>Node17</title>
<g id="a_node17"><a xlink:href="Game_8h.html" target="_top" xlink:title="include/Game.h">
<polygon fill="white" stroke="black" points="619.5,-56.5 619.5,-75.5 704.5,-75.5 704.5,-56.5 619.5,-56.5"/>
<text text-anchor="middle" x="662" y="-63.5" font-family="Helvetica,sans-Serif" font-size="10.00">include/Game.h</text>
</a>
</g>
</g>
<!-- Node16&#45;&gt;Node17 -->
<g id="edge19" class="edge"><title>Node16&#45;&gt;Node17</title>
<path fill="none" stroke="midnightblue" d="M589.335,-107.453C607.243,-97.4835 631.054,-84.2279 646.454,-75.6545"/>
<polygon fill="midnightblue" stroke="midnightblue" points="587.62,-104.402 580.585,-112.324 591.025,-110.518 587.62,-104.402"/>
</g>
<!-- Node17&#45;&gt;Node11 -->
<g id="edge20" class="edge"><title>Node17&#45;&gt;Node11</title>
<path fill="none" stroke="midnightblue" d="M623.883,-53.4363C590.322,-43.2551 542.226,-28.664 512.073,-19.5164"/>
<polygon fill="midnightblue" stroke="midnightblue" points="623.21,-56.8897 633.795,-56.4435 625.242,-50.1911 623.21,-56.8897"/>
</g>
<!-- Node17&#45;&gt;Node13 -->
<g id="edge22" class="edge"><title>Node17&#45;&gt;Node13</title>
<path fill="none" stroke="midnightblue" d="M645.087,-49.2533C634.797,-39.6731 622.034,-27.7906 613.488,-19.8339"/>
<polygon fill="midnightblue" stroke="midnightblue" points="642.977,-52.0714 652.681,-56.324 647.747,-46.9481 642.977,-52.0714"/>
</g>
<!-- Node17&#45;&gt;Node14 -->
<g id="edge24" class="edge"><title>Node17&#45;&gt;Node14</title>
<path fill="none" stroke="midnightblue" d="M609.353,-54.7736C555.034,-44.2224 471.579,-28.0117 422.929,-18.5618"/>
<polygon fill="midnightblue" stroke="midnightblue" points="608.991,-58.2687 619.475,-56.7398 610.326,-51.3971 608.991,-58.2687"/>
</g>
<!-- Node18 -->
<g id="node18" class="node"><title>Node18</title>
<g id="a_node18"><a xlink:href="Game_8cpp.html" target="_top" xlink:title="src/Game.cpp">
<polygon fill="white" stroke="black" points="681,-0.5 681,-19.5 759,-19.5 759,-0.5 681,-0.5"/>
<text text-anchor="middle" x="720" y="-7.5" font-family="Helvetica,sans-Serif" font-size="10.00">src/Game.cpp</text>
</a>
</g>
</g>
<!-- Node17&#45;&gt;Node18 -->
<g id="edge21" class="edge"><title>Node17&#45;&gt;Node18</title>
<path fill="none" stroke="midnightblue" d="M678.913,-49.2533C689.203,-39.6731 701.966,-27.7906 710.512,-19.8339"/>
<polygon fill="midnightblue" stroke="midnightblue" points="676.253,-46.9481 671.319,-56.324 681.023,-52.0714 676.253,-46.9481"/>
</g>
<!-- Node19 -->
<g id="node19" class="node"><title>Node19</title>
<g id="a_node19"><a xlink:href="Resources_8cpp.html" target="_top" xlink:title="src/Resources.cpp">
<polygon fill="white" stroke="black" points="777.5,-0.5 777.5,-19.5 876.5,-19.5 876.5,-0.5 777.5,-0.5"/>
<text text-anchor="middle" x="827" y="-7.5" font-family="Helvetica,sans-Serif" font-size="10.00">src/Resources.cpp</text>
</a>
</g>
</g>
<!-- Node17&#45;&gt;Node19 -->
<g id="edge23" class="edge"><title>Node17&#45;&gt;Node19</title>
<path fill="none" stroke="midnightblue" d="M697.736,-53.3044C728.827,-43.1294 773.147,-28.6246 800.978,-19.5164"/>
<polygon fill="midnightblue" stroke="midnightblue" points="696.56,-50.0067 688.145,-56.4435 698.737,-56.6595 696.56,-50.0067"/>
</g>
<!-- Node20 -->
<g id="node20" class="node"><title>Node20</title>
<g id="a_node20"><a xlink:href="Text_8cpp.html" target="_top" xlink:title="src/Text.cpp">
<polygon fill="white" stroke="black" points="894.5,-0.5 894.5,-19.5 965.5,-19.5 965.5,-0.5 894.5,-0.5"/>
<text text-anchor="middle" x="930" y="-7.5" font-family="Helvetica,sans-Serif" font-size="10.00">src/Text.cpp</text>
</a>
</g>
</g>
<!-- Node17&#45;&gt;Node20 -->
<g id="edge25" class="edge"><title>Node17&#45;&gt;Node20</title>
<path fill="none" stroke="midnightblue" d="M714.359,-54.45C767.395,-43.7638 848,-27.5225 894.166,-18.2203"/>
<polygon fill="midnightblue" stroke="midnightblue" points="713.577,-51.0372 704.465,-56.4435 714.96,-57.8993 713.577,-51.0372"/>
</g>
<!-- Node22 -->
<g id="node22" class="node"><title>Node22</title>
<g id="a_node22"><a xlink:href="Grouper_8cpp.html" target="_top" xlink:title="src/Grouper.cpp">
<polygon fill="white" stroke="black" points="1133,-56.5 1133,-75.5 1219,-75.5 1219,-56.5 1133,-56.5"/>
<text text-anchor="middle" x="1176" y="-63.5" font-family="Helvetica,sans-Serif" font-size="10.00">src/Grouper.cpp</text>
</a>
</g>
</g>
<!-- Node21&#45;&gt;Node22 -->
<g id="edge28" class="edge"><title>Node21&#45;&gt;Node22</title>
<path fill="none" stroke="midnightblue" d="M1196.15,-103.275C1191.03,-94.0454 1184.98,-83.1703 1180.86,-75.7511"/>
<polygon fill="midnightblue" stroke="midnightblue" points="1193.13,-105.041 1201.05,-112.083 1199.25,-101.642 1193.13,-105.041"/>
</g>
<!-- Node24&#45;&gt;Node7 -->
<g id="edge31" class="edge"><title>Node24&#45;&gt;Node7</title>
<path fill="none" stroke="midnightblue" d="M742.9,-110.654C801.479,-100.004 891.262,-83.6796 942.827,-74.3042"/>
<polygon fill="midnightblue" stroke="midnightblue" points="742.273,-107.211 733.061,-112.444 743.525,-114.098 742.273,-107.211"/>
</g>
<!-- Node24&#45;&gt;Node13 -->
<g id="edge33" class="edge"><title>Node24&#45;&gt;Node13</title>
<path fill="none" stroke="midnightblue" d="M701.14,-104.829C712.065,-91.1208 723.241,-71.3073 713,-56 700.193,-36.8571 677.592,-25.8487 656.279,-19.5221"/>
<polygon fill="midnightblue" stroke="midnightblue" points="698.428,-102.615 694.564,-112.48 703.736,-107.177 698.428,-102.615"/>
</g>
<!-- Node24&#45;&gt;Node20 -->
<g id="edge34" class="edge"><title>Node24&#45;&gt;Node20</title>
<path fill="none" stroke="midnightblue" d="M705.764,-106.563C726.086,-92.2298 759.048,-70.3753 790,-56 824.616,-39.9227 866.547,-27.2765 895.444,-19.5369"/>
<polygon fill="midnightblue" stroke="midnightblue" points="703.721,-103.721 697.62,-112.383 707.791,-109.416 703.721,-103.721"/>
</g>
<!-- Node24&#45;&gt;Node22 -->
<g id="edge32" class="edge"><title>Node24&#45;&gt;Node22</title>
<path fill="none" stroke="midnightblue" d="M758.098,-113.054C861.453,-101.664 1048.53,-81.0474 1132.8,-71.7609"/>
<polygon fill="midnightblue" stroke="midnightblue" points="757.615,-109.586 748.059,-114.161 758.382,-116.544 757.615,-109.586"/>
</g>
<!-- Node25&#45;&gt;Node20 -->
<g id="edge36" class="edge"><title>Node25&#45;&gt;Node20</title>
<path fill="none" stroke="midnightblue" d="M1087.63,-104.9C1074.28,-90.658 1053.31,-70.0206 1032,-56 1007.75,-40.0424 976.896,-27.3356 955.506,-19.5487"/>
<polygon fill="midnightblue" stroke="midnightblue" points="1085.21,-107.444 1094.55,-112.447 1090.37,-102.712 1085.21,-107.444"/>
</g>
<!-- Node26&#45;&gt;Node4 -->
<g id="edge39" class="edge"><title>Node26&#45;&gt;Node4</title>
<path fill="none" stroke="midnightblue" d="M331.618,-159.855C324.865,-150.505 316.791,-139.327 311.32,-131.751"/>
<polygon fill="midnightblue" stroke="midnightblue" points="328.868,-162.025 337.56,-168.083 334.542,-157.927 328.868,-162.025"/>
</g>
<!-- Node26&#45;&gt;Node14 -->
<g id="edge43" class="edge"><title>Node26&#45;&gt;Node14</title>
<path fill="none" stroke="midnightblue" d="M353.595,-159.447C357.673,-151.309 362.138,-141.38 365,-132 377.475,-91.1198 382.073,-39.8414 383.473,-19.6946"/>
<polygon fill="midnightblue" stroke="midnightblue" points="350.483,-157.845 348.946,-168.328 356.684,-161.091 350.483,-157.845"/>
</g>
<!-- Node27 -->
<g id="node27" class="node"><title>Node27</title>
<g id="a_node27"><a xlink:href="Tileset_8h.html" target="_top" xlink:title="include/Tileset.h">
<polygon fill="white" stroke="black" points="120,-112.5 120,-131.5 208,-131.5 208,-112.5 120,-112.5"/>
<text text-anchor="middle" x="164" y="-119.5" font-family="Helvetica,sans-Serif" font-size="10.00">include/Tileset.h</text>
</a>
</g>
</g>
<!-- Node26&#45;&gt;Node27 -->
<g id="edge40" class="edge"><title>Node26&#45;&gt;Node27</title>
<path fill="none" stroke="midnightblue" d="M305.892,-165.568C271.937,-155.381 223.011,-140.703 192.388,-131.516"/>
<polygon fill="midnightblue" stroke="midnightblue" points="304.894,-168.922 315.478,-168.444 306.906,-162.218 304.894,-168.922"/>
</g>
<!-- Node27&#45;&gt;Node9 -->
<g id="edge41" class="edge"><title>Node27&#45;&gt;Node9</title>
<path fill="none" stroke="midnightblue" d="M138.19,-107.726C118.747,-97.7271 92.6516,-84.3065 75.8282,-75.6545"/>
<polygon fill="midnightblue" stroke="midnightblue" points="136.636,-110.863 147.13,-112.324 139.838,-104.638 136.636,-110.863"/>
</g>
<!-- Node28 -->
<g id="node28" class="node"><title>Node28</title>
<g id="a_node28"><a xlink:href="Tileset_8cpp.html" target="_top" xlink:title="src/Tileset.cpp">
<polygon fill="white" stroke="black" points="123.5,-56.5 123.5,-75.5 204.5,-75.5 204.5,-56.5 123.5,-56.5"/>
<text text-anchor="middle" x="164" y="-63.5" font-family="Helvetica,sans-Serif" font-size="10.00">src/Tileset.cpp</text>
</a>
</g>
</g>
<!-- Node27&#45;&gt;Node28 -->
<g id="edge42" class="edge"><title>Node27&#45;&gt;Node28</title>
<path fill="none" stroke="midnightblue" d="M164,-101.805C164,-92.9102 164,-82.7798 164,-75.7511"/>
<polygon fill="midnightblue" stroke="midnightblue" points="160.5,-102.083 164,-112.083 167.5,-102.083 160.5,-102.083"/>
</g>
</g>
</svg>
