<?xml version="1.0" encoding="UTF-8" standalone="no"?>
<!DOCTYPE svg PUBLIC "-//W3C//DTD SVG 1.1//EN"
 "http://www.w3.org/Graphics/SVG/1.1/DTD/svg11.dtd">
<!-- Generated by graphviz version 2.38.0 (20140413.2041)
 -->
<!-- Title: include/ComponentType.h Pages: 1 -->
<svg width="1460pt" height="364pt"
 viewBox="0.00 0.00 1459.50 364.00" xmlns="http://www.w3.org/2000/svg" xmlns:xlink="http://www.w3.org/1999/xlink">
<g id="graph0" class="graph" transform="scale(1 1) rotate(0) translate(4 360)">
<title>include/ComponentType.h</title>
<polygon fill="white" stroke="none" points="-4,4 -4,-360 1455.5,-360 1455.5,4 -4,4"/>
<!-- Node1 -->
<g id="node1" class="node"><title>Node1</title>
<polygon fill="#bfbfbf" stroke="black" points="1087,-336.5 1087,-355.5 1218,-355.5 1218,-336.5 1087,-336.5"/>
<text text-anchor="middle" x="1152.5" y="-343.5" font-family="Helvetica,sans-Serif" font-size="10.00">include/ComponentType.h</text>
</g>
<!-- Node2 -->
<g id="node2" class="node"><title>Node2</title>
<g id="a_node2"><a xlink:href="Component_8h.html" target="_top" xlink:title="include/Component.h">
<polygon fill="white" stroke="black" points="1140,-280.5 1140,-299.5 1249,-299.5 1249,-280.5 1140,-280.5"/>
<text text-anchor="middle" x="1194.5" y="-287.5" font-family="Helvetica,sans-Serif" font-size="10.00">include/Component.h</text>
</a>
</g>
</g>
<!-- Node1&#45;&gt;Node2 -->
<g id="edge1" class="edge"><title>Node1&#45;&gt;Node2</title>
<path fill="none" stroke="midnightblue" d="M1165.61,-328.144C1172.93,-318.736 1181.74,-307.405 1187.69,-299.751"/>
<polygon fill="midnightblue" stroke="midnightblue" points="1162.81,-326.041 1159.44,-336.083 1168.34,-330.338 1162.81,-326.041"/>
</g>
<!-- Node3 -->
<g id="node3" class="node"><title>Node3</title>
<g id="a_node3"><a xlink:href="GameObject_8h.html" target="_top" xlink:title="include/GameObject.h">
<polygon fill="white" stroke="black" points="1055,-224.5 1055,-243.5 1168,-243.5 1168,-224.5 1055,-224.5"/>
<text text-anchor="middle" x="1111.5" y="-231.5" font-family="Helvetica,sans-Serif" font-size="10.00">include/GameObject.h</text>
</a>
</g>
</g>
<!-- Node1&#45;&gt;Node3 -->
<g id="edge37" class="edge"><title>Node1&#45;&gt;Node3</title>
<path fill="none" stroke="midnightblue" d="M1142.98,-327.302C1138.81,-319.136 1134.07,-309.224 1130.5,-300 1122.86,-280.266 1116.57,-256.148 1113.51,-243.567"/>
<polygon fill="midnightblue" stroke="midnightblue" points="1139.92,-329.001 1147.66,-336.235 1146.12,-325.753 1139.92,-329.001"/>
</g>
<!-- Node2&#45;&gt;Node3 -->
<g id="edge2" class="edge"><title>Node2&#45;&gt;Node3</title>
<path fill="none" stroke="midnightblue" d="M1167.33,-275.21C1150.9,-265.339 1131.2,-252.342 1119.93,-243.834"/>
<polygon fill="midnightblue" stroke="midnightblue" points="1165.65,-278.284 1176.05,-280.324 1169.19,-272.246 1165.65,-278.284"/>
</g>
<!-- Node15 -->
<g id="node15" class="node"><title>Node15</title>
<g id="a_node15"><a xlink:href="DragAndDrop_8h.html" target="_top" xlink:title="include/DragAndDrop.h">
<polygon fill="white" stroke="black" points="1333.5,-56.5 1333.5,-75.5 1451.5,-75.5 1451.5,-56.5 1333.5,-56.5"/>
<text text-anchor="middle" x="1392.5" y="-63.5" font-family="Helvetica,sans-Serif" font-size="10.00">include/DragAndDrop.h</text>
</a>
</g>
</g>
<!-- Node2&#45;&gt;Node15 -->
<g id="edge35" class="edge"><title>Node2&#45;&gt;Node15</title>
<path fill="none" stroke="midnightblue" d="M1237.8,-277.23C1257.76,-270.131 1280.69,-259.412 1297.5,-244 1352.51,-193.566 1381.94,-103.765 1390.11,-75.6569"/>
<polygon fill="midnightblue" stroke="midnightblue" points="1236.65,-273.925 1228.28,-280.428 1238.88,-280.561 1236.65,-273.925"/>
</g>
<!-- Node25 -->
<g id="node25" class="node"><title>Node25</title>
<g id="a_node25"><a xlink:href="Component_8cpp.html" target="_top" xlink:title="src/Component.cpp">
<polygon fill="white" stroke="black" points="1186.5,-224.5 1186.5,-243.5 1288.5,-243.5 1288.5,-224.5 1186.5,-224.5"/>
<text text-anchor="middle" x="1237.5" y="-231.5" font-family="Helvetica,sans-Serif" font-size="10.00">src/Component.cpp</text>
</a>
</g>
</g>
<!-- Node2&#45;&gt;Node25 -->
<g id="edge36" class="edge"><title>Node2&#45;&gt;Node25</title>
<path fill="none" stroke="midnightblue" d="M1207.92,-272.144C1215.41,-262.736 1224.44,-251.405 1230.53,-243.751"/>
<polygon fill="midnightblue" stroke="midnightblue" points="1205.09,-270.08 1201.6,-280.083 1210.57,-274.44 1205.09,-270.08"/>
</g>
<!-- Node3&#45;&gt;Node2 -->
<g id="edge5" class="edge"><title>Node3&#45;&gt;Node2</title>
<path fill="none" stroke="midnightblue" d="M1138.68,-248.797C1155.21,-258.729 1175.05,-271.822 1186.28,-280.324"/>
<polygon fill="midnightblue" stroke="midnightblue" points="1140.31,-245.694 1129.91,-243.655 1136.77,-251.733 1140.31,-245.694"/>
</g>
<!-- Node4 -->
<g id="node4" class="node"><title>Node4</title>
<g id="a_node4"><a xlink:href="Animation_8h.html" target="_top" xlink:title="include/Animation.h">
<polygon fill="white" stroke="black" points="973.5,-168.5 973.5,-187.5 1075.5,-187.5 1075.5,-168.5 973.5,-168.5"/>
<text text-anchor="middle" x="1024.5" y="-175.5" font-family="Helvetica,sans-Serif" font-size="10.00">include/Animation.h</text>
</a>
</g>
</g>
<!-- Node3&#45;&gt;Node4 -->
<g id="edge3" class="edge"><title>Node3&#45;&gt;Node4</title>
<path fill="none" stroke="midnightblue" d="M1088.78,-218.901C1072.83,-208.999 1052,-196.071 1038.44,-187.655"/>
<polygon fill="midnightblue" stroke="midnightblue" points="1087.18,-222.024 1097.52,-224.324 1090.87,-216.077 1087.18,-222.024"/>
</g>
<!-- Node6 -->
<g id="node6" class="node"><title>Node6</title>
<g id="a_node6"><a xlink:href="Camera_8h.html" target="_top" xlink:title="include/Camera.h">
<polygon fill="white" stroke="black" points="880,-112.5 880,-131.5 973,-131.5 973,-112.5 880,-112.5"/>
<text text-anchor="middle" x="926.5" y="-119.5" font-family="Helvetica,sans-Serif" font-size="10.00">include/Camera.h</text>
</a>
</g>
</g>
<!-- Node3&#45;&gt;Node6 -->
<g id="edge6" class="edge"><title>Node3&#45;&gt;Node6</title>
<path fill="none" stroke="midnightblue" d="M1045.06,-223.56C1017.9,-217.087 987.521,-206.217 964.5,-188 945.434,-172.913 934.013,-145.436 929.193,-131.538"/>
<polygon fill="midnightblue" stroke="midnightblue" points="1044.38,-226.995 1054.9,-225.752 1045.9,-220.162 1044.38,-226.995"/>
</g>
<!-- Node9 -->
<g id="node9" class="node"><title>Node9</title>
<g id="a_node9"><a xlink:href="GameObject_8cpp.html" target="_top" xlink:title="src/GameObject.cpp">
<polygon fill="white" stroke="black" points="1066,-56.5 1066,-75.5 1173,-75.5 1173,-56.5 1066,-56.5"/>
<text text-anchor="middle" x="1119.5" y="-63.5" font-family="Helvetica,sans-Serif" font-size="10.00">src/GameObject.cpp</text>
</a>
</g>
</g>
<!-- Node3&#45;&gt;Node9 -->
<g id="edge34" class="edge"><title>Node3&#45;&gt;Node9</title>
<path fill="none" stroke="midnightblue" d="M1112.42,-213.93C1114.15,-177.92 1117.85,-101.231 1119.09,-75.5681"/>
<polygon fill="midnightblue" stroke="midnightblue" points="1108.92,-213.918 1111.93,-224.075 1115.91,-214.255 1108.92,-213.918"/>
</g>
<!-- Node14 -->
<g id="node14" class="node"><title>Node14</title>
<g id="a_node14"><a xlink:href="TileMap_8h.html" target="_top" xlink:title="include/TileMap.h">
<polygon fill="white" stroke="black" points="1257,-112.5 1257,-131.5 1350,-131.5 1350,-112.5 1257,-112.5"/>
<text text-anchor="middle" x="1303.5" y="-119.5" font-family="Helvetica,sans-Serif" font-size="10.00">include/TileMap.h</text>
</a>
</g>
</g>
<!-- Node3&#45;&gt;Node14 -->
<g id="edge15" class="edge"><title>Node3&#45;&gt;Node14</title>
<path fill="none" stroke="midnightblue" d="M1176.86,-222.671C1218.73,-214.811 1268.03,-202.828 1283.5,-188 1299.36,-172.806 1302.73,-145.378 1303.39,-131.514"/>
<polygon fill="midnightblue" stroke="midnightblue" points="1176.16,-219.241 1166.95,-224.482 1177.42,-226.127 1176.16,-219.241"/>
</g>
<!-- Node16 -->
<g id="node16" class="node"><title>Node16</title>
<g id="a_node16"><a xlink:href="NearestGOFinder_8h.html" target="_top" xlink:title="include/NearestGOFinder.h">
<polygon fill="white" stroke="black" points="1140,-168.5 1140,-187.5 1275,-187.5 1275,-168.5 1140,-168.5"/>
<text text-anchor="middle" x="1207.5" y="-175.5" font-family="Helvetica,sans-Serif" font-size="10.00">include/NearestGOFinder.h</text>
</a>
</g>
</g>
<!-- Node3&#45;&gt;Node16 -->
<g id="edge20" class="edge"><title>Node3&#45;&gt;Node16</title>
<path fill="none" stroke="midnightblue" d="M1136.07,-219.177C1153.74,-209.241 1177.01,-196.149 1192.11,-187.655"/>
<polygon fill="midnightblue" stroke="midnightblue" points="1133.92,-216.371 1126.92,-224.324 1137.36,-222.472 1133.92,-216.371"/>
</g>
<!-- Node17 -->
<g id="node17" class="node"><title>Node17</title>
<g id="a_node17"><a xlink:href="State_8h.html" target="_top" xlink:title="include/State.h">
<polygon fill="white" stroke="black" points="810.5,-168.5 810.5,-187.5 892.5,-187.5 892.5,-168.5 810.5,-168.5"/>
<text text-anchor="middle" x="851.5" y="-175.5" font-family="Helvetica,sans-Serif" font-size="10.00">include/State.h</text>
</a>
</g>
</g>
<!-- Node3&#45;&gt;Node17 -->
<g id="edge22" class="edge"><title>Node3&#45;&gt;Node17</title>
<path fill="none" stroke="midnightblue" d="M1060.51,-222.41C1011.37,-212.204 937.973,-196.96 892.505,-187.516"/>
<polygon fill="midnightblue" stroke="midnightblue" points="1059.8,-225.837 1070.3,-224.444 1061.22,-218.983 1059.8,-225.837"/>
</g>
<!-- Node5 -->
<g id="node5" class="node"><title>Node5</title>
<g id="a_node5"><a xlink:href="Animation_8cpp.html" target="_top" xlink:title="src/Animation.cpp">
<polygon fill="white" stroke="black" points="953,-56.5 953,-75.5 1048,-75.5 1048,-56.5 953,-56.5"/>
<text text-anchor="middle" x="1000.5" y="-63.5" font-family="Helvetica,sans-Serif" font-size="10.00">src/Animation.cpp</text>
</a>
</g>
</g>
<!-- Node4&#45;&gt;Node5 -->
<g id="edge4" class="edge"><title>Node4&#45;&gt;Node5</title>
<path fill="none" stroke="midnightblue" d="M1020.43,-158.348C1015.17,-134.254 1006.24,-93.3079 1002.37,-75.5914"/>
<polygon fill="midnightblue" stroke="midnightblue" points="1017.07,-159.344 1022.62,-168.368 1023.9,-157.852 1017.07,-159.344"/>
</g>
<!-- Node6&#45;&gt;Node5 -->
<g id="edge7" class="edge"><title>Node6&#45;&gt;Node5</title>
<path fill="none" stroke="midnightblue" d="M946.534,-106.38C959.909,-96.6204 977.059,-84.1057 988.394,-75.8339"/>
<polygon fill="midnightblue" stroke="midnightblue" points="944.404,-103.602 938.389,-112.324 948.53,-109.257 944.404,-103.602"/>
</g>
<!-- Node7 -->
<g id="node7" class="node"><title>Node7</title>
<g id="a_node7"><a xlink:href="Camera_8cpp.html" target="_top" xlink:title="src/Camera.cpp">
<polygon fill="white" stroke="black" points="621.5,-56.5 621.5,-75.5 707.5,-75.5 707.5,-56.5 621.5,-56.5"/>
<text text-anchor="middle" x="664.5" y="-63.5" font-family="Helvetica,sans-Serif" font-size="10.00">src/Camera.cpp</text>
</a>
</g>
</g>
<!-- Node6&#45;&gt;Node7 -->
<g id="edge8" class="edge"><title>Node6&#45;&gt;Node7</title>
<path fill="none" stroke="midnightblue" d="M875.117,-110.41C825.602,-100.204 751.638,-84.9597 705.82,-75.5164"/>
<polygon fill="midnightblue" stroke="midnightblue" points="874.485,-113.853 884.985,-112.444 875.898,-106.997 874.485,-113.853"/>
</g>
<!-- Node8 -->
<g id="node8" class="node"><title>Node8</title>
<g id="a_node8"><a xlink:href="DragAndDrop_8cpp.html" target="_top" xlink:title="src/DragAndDrop.cpp">
<polygon fill="white" stroke="black" points="1250,-0.5 1250,-19.5 1361,-19.5 1361,-0.5 1250,-0.5"/>
<text text-anchor="middle" x="1305.5" y="-7.5" font-family="Helvetica,sans-Serif" font-size="10.00">src/DragAndDrop.cpp</text>
</a>
</g>
</g>
<!-- Node6&#45;&gt;Node8 -->
<g id="edge9" class="edge"><title>Node6&#45;&gt;Node8</title>
<path fill="none" stroke="midnightblue" d="M926.087,-102.194C926.85,-87.381 930.495,-67.3912 943.5,-56 987.925,-17.089 1159.75,-10.9895 1249.77,-10.5455"/>
<polygon fill="midnightblue" stroke="midnightblue" points="922.586,-102.24 925.957,-112.284 929.586,-102.33 922.586,-102.24"/>
</g>
<!-- Node6&#45;&gt;Node9 -->
<g id="edge10" class="edge"><title>Node6&#45;&gt;Node9</title>
<path fill="none" stroke="midnightblue" d="M966.892,-109.699C1003.32,-99.507 1056.09,-84.7429 1089.06,-75.5164"/>
<polygon fill="midnightblue" stroke="midnightblue" points="965.769,-106.378 957.081,-112.444 967.655,-113.12 965.769,-106.378"/>
</g>
<!-- Node10 -->
<g id="node10" class="node"><title>Node10</title>
<g id="a_node10"><a xlink:href="Sprite_8cpp.html" target="_top" xlink:title="src/Sprite.cpp">
<polygon fill="white" stroke="black" points="726,-56.5 726,-75.5 803,-75.5 803,-56.5 726,-56.5"/>
<text text-anchor="middle" x="764.5" y="-63.5" font-family="Helvetica,sans-Serif" font-size="10.00">src/Sprite.cpp</text>
</a>
</g>
</g>
<!-- Node6&#45;&gt;Node10 -->
<g id="edge11" class="edge"><title>Node6&#45;&gt;Node10</title>
<path fill="none" stroke="midnightblue" d="M891.016,-109.172C860.512,-99.0039 817.255,-84.5852 790.049,-75.5164"/>
<polygon fill="midnightblue" stroke="midnightblue" points="890.237,-112.602 900.831,-112.444 892.451,-105.961 890.237,-112.602"/>
</g>
<!-- Node11 -->
<g id="node11" class="node"><title>Node11</title>
<g id="a_node11"><a xlink:href="State_8cpp.html" target="_top" xlink:title="src/State.cpp">
<polygon fill="white" stroke="black" points="821,-56.5 821,-75.5 896,-75.5 896,-56.5 821,-56.5"/>
<text text-anchor="middle" x="858.5" y="-63.5" font-family="Helvetica,sans-Serif" font-size="10.00">src/State.cpp</text>
</a>
</g>
</g>
<!-- Node6&#45;&gt;Node11 -->
<g id="edge12" class="edge"><title>Node6&#45;&gt;Node11</title>
<path fill="none" stroke="midnightblue" d="M907.738,-106.101C895.5,-96.3824 879.941,-84.0269 869.624,-75.8339"/>
<polygon fill="midnightblue" stroke="midnightblue" points="905.567,-108.846 915.575,-112.324 909.92,-103.364 905.567,-108.846"/>
</g>
<!-- Node12 -->
<g id="node12" class="node"><title>Node12</title>
<g id="a_node12"><a xlink:href="TileMap_8cpp.html" target="_top" xlink:title="src/TileMap.cpp">
<polygon fill="white" stroke="black" points="1191.5,-56.5 1191.5,-75.5 1277.5,-75.5 1277.5,-56.5 1191.5,-56.5"/>
<text text-anchor="middle" x="1234.5" y="-63.5" font-family="Helvetica,sans-Serif" font-size="10.00">src/TileMap.cpp</text>
</a>
</g>
</g>
<!-- Node6&#45;&gt;Node12 -->
<g id="edge13" class="edge"><title>Node6&#45;&gt;Node12</title>
<path fill="none" stroke="midnightblue" d="M983.36,-111.031C1043.46,-100.494 1136.91,-84.1093 1191.27,-74.5796"/>
<polygon fill="midnightblue" stroke="midnightblue" points="982.524,-107.624 973.279,-112.799 983.733,-114.519 982.524,-107.624"/>
</g>
<!-- Node13 -->
<g id="node13" class="node"><title>Node13</title>
<g id="a_node13"><a xlink:href="Tileset_8cpp.html" target="_top" xlink:title="src/Tileset.cpp">
<polygon fill="white" stroke="black" points="522,-56.5 522,-75.5 603,-75.5 603,-56.5 522,-56.5"/>
<text text-anchor="middle" x="562.5" y="-63.5" font-family="Helvetica,sans-Serif" font-size="10.00">src/Tileset.cpp</text>
</a>
</g>
</g>
<!-- Node6&#45;&gt;Node13 -->
<g id="edge14" class="edge"><title>Node6&#45;&gt;Node13</title>
<path fill="none" stroke="midnightblue" d="M869.752,-113.489C806.793,-105.011 702.236,-90.5017 612.5,-76 609.453,-75.5075 606.304,-74.9815 603.138,-74.4402"/>
<polygon fill="midnightblue" stroke="midnightblue" points="869.494,-116.985 879.871,-114.848 870.425,-110.048 869.494,-116.985"/>
</g>
<!-- Node14&#45;&gt;Node8 -->
<g id="edge18" class="edge"><title>Node14&#45;&gt;Node8</title>
<path fill="none" stroke="midnightblue" d="M1303.84,-102.348C1304.28,-78.2538 1305.02,-37.3079 1305.34,-19.5914"/>
<polygon fill="midnightblue" stroke="midnightblue" points="1300.34,-102.306 1303.66,-112.368 1307.34,-102.434 1300.34,-102.306"/>
</g>
<!-- Node14&#45;&gt;Node12 -->
<g id="edge19" class="edge"><title>Node14&#45;&gt;Node12</title>
<path fill="none" stroke="midnightblue" d="M1284.46,-106.101C1272.04,-96.3824 1256.26,-84.0269 1245.79,-75.8339"/>
<polygon fill="midnightblue" stroke="midnightblue" points="1282.38,-108.917 1292.41,-112.324 1286.7,-103.405 1282.38,-108.917"/>
</g>
<!-- Node14&#45;&gt;Node15 -->
<g id="edge16" class="edge"><title>Node14&#45;&gt;Node15</title>
<path fill="none" stroke="midnightblue" d="M1326.74,-106.901C1343.06,-96.9986 1364.37,-84.0705 1378.24,-75.6545"/>
<polygon fill="midnightblue" stroke="midnightblue" points="1324.53,-104.144 1317.8,-112.324 1328.16,-110.129 1324.53,-104.144"/>
</g>
<!-- Node15&#45;&gt;Node8 -->
<g id="edge17" class="edge"><title>Node15&#45;&gt;Node8</title>
<path fill="none" stroke="midnightblue" d="M1369.78,-50.9005C1353.83,-40.9986 1333,-28.0705 1319.44,-19.6545"/>
<polygon fill="midnightblue" stroke="midnightblue" points="1368.18,-54.024 1378.52,-56.324 1371.87,-48.0765 1368.18,-54.024"/>
</g>
<!-- Node16&#45;&gt;Node14 -->
<g id="edge21" class="edge"><title>Node16&#45;&gt;Node14</title>
<path fill="none" stroke="midnightblue" d="M1232.07,-163.177C1249.74,-153.241 1273.01,-140.149 1288.11,-131.655"/>
<polygon fill="midnightblue" stroke="midnightblue" points="1229.92,-160.371 1222.92,-168.324 1233.36,-166.472 1229.92,-160.371"/>
</g>
<!-- Node17&#45;&gt;Node11 -->
<g id="edge33" class="edge"><title>Node17&#45;&gt;Node11</title>
<path fill="none" stroke="midnightblue" d="M852.687,-158.348C854.22,-134.254 856.826,-93.3079 857.953,-75.5914"/>
<polygon fill="midnightblue" stroke="midnightblue" points="849.192,-158.166 852.049,-168.368 856.177,-158.611 849.192,-158.166"/>
</g>
<!-- Node18 -->
<g id="node18" class="node"><title>Node18</title>
<g id="a_node18"><a xlink:href="Game_8h.html" target="_top" xlink:title="include/Game.h">
<polygon fill="white" stroke="black" points="422,-112.5 422,-131.5 507,-131.5 507,-112.5 422,-112.5"/>
<text text-anchor="middle" x="464.5" y="-119.5" font-family="Helvetica,sans-Serif" font-size="10.00">include/Game.h</text>
</a>
</g>
</g>
<!-- Node17&#45;&gt;Node18 -->
<g id="edge23" class="edge"><title>Node17&#45;&gt;Node18</title>
<path fill="none" stroke="midnightblue" d="M800.5,-169.884C723.5,-159.14 578.955,-138.971 507.183,-128.956"/>
<polygon fill="midnightblue" stroke="midnightblue" points="800.063,-173.357 810.451,-171.272 801.03,-166.424 800.063,-173.357"/>
</g>
<!-- Node18&#45;&gt;Node7 -->
<g id="edge26" class="edge"><title>Node18&#45;&gt;Node7</title>
<path fill="none" stroke="midnightblue" d="M505.874,-109.829C543.636,-99.6333 598.64,-84.7823 632.958,-75.5164"/>
<polygon fill="midnightblue" stroke="midnightblue" points="504.933,-106.458 496.191,-112.444 506.757,-113.216 504.933,-106.458"/>
</g>
<!-- Node18&#45;&gt;Node10 -->
<g id="edge29" class="edge"><title>Node18&#45;&gt;Node10</title>
<path fill="none" stroke="midnightblue" d="M517.452,-111.681C568.462,-102.672 647.791,-88.576 716.5,-76 719.586,-75.4352 722.782,-74.8457 725.993,-74.2503"/>
<polygon fill="midnightblue" stroke="midnightblue" points="516.565,-108.284 507.325,-113.469 517.781,-115.177 516.565,-108.284"/>
</g>
<!-- Node18&#45;&gt;Node13 -->
<g id="edge30" class="edge"><title>Node18&#45;&gt;Node13</title>
<path fill="none" stroke="midnightblue" d="M489.086,-107.453C507.178,-97.4835 531.235,-84.2279 546.794,-75.6545"/>
<polygon fill="midnightblue" stroke="midnightblue" points="487.315,-104.432 480.245,-112.324 490.693,-110.563 487.315,-104.432"/>
</g>
<!-- Node19 -->
<g id="node19" class="node"><title>Node19</title>
<g id="a_node19"><a xlink:href="Text_8h.html" target="_top" xlink:title="include/Text.h">
<polygon fill="white" stroke="black" points="329.5,-56.5 329.5,-75.5 407.5,-75.5 407.5,-56.5 329.5,-56.5"/>
<text text-anchor="middle" x="368.5" y="-63.5" font-family="Helvetica,sans-Serif" font-size="10.00">include/Text.h</text>
</a>
</g>
</g>
<!-- Node18&#45;&gt;Node19 -->
<g id="edge24" class="edge"><title>Node18&#45;&gt;Node19</title>
<path fill="none" stroke="midnightblue" d="M439.926,-107.177C422.261,-97.2407 398.987,-84.1492 383.886,-75.6545"/>
<polygon fill="midnightblue" stroke="midnightblue" points="438.644,-110.472 449.076,-112.324 442.076,-104.371 438.644,-110.472"/>
</g>
<!-- Node21 -->
<g id="node21" class="node"><title>Node21</title>
<g id="a_node21"><a xlink:href="Game_8cpp.html" target="_top" xlink:title="src/Game.cpp">
<polygon fill="white" stroke="black" points="425.5,-56.5 425.5,-75.5 503.5,-75.5 503.5,-56.5 425.5,-56.5"/>
<text text-anchor="middle" x="464.5" y="-63.5" font-family="Helvetica,sans-Serif" font-size="10.00">src/Game.cpp</text>
</a>
</g>
</g>
<!-- Node18&#45;&gt;Node21 -->
<g id="edge27" class="edge"><title>Node18&#45;&gt;Node21</title>
<path fill="none" stroke="midnightblue" d="M464.5,-101.805C464.5,-92.9102 464.5,-82.7798 464.5,-75.7511"/>
<polygon fill="midnightblue" stroke="midnightblue" points="461,-102.083 464.5,-112.083 468,-102.083 461,-102.083"/>
</g>
<!-- Node22 -->
<g id="node22" class="node"><title>Node22</title>
<g id="a_node22"><a xlink:href="Resources_8cpp.html" target="_top" xlink:title="src/Resources.cpp">
<polygon fill="white" stroke="black" points="0,-56.5 0,-75.5 99,-75.5 99,-56.5 0,-56.5"/>
<text text-anchor="middle" x="49.5" y="-63.5" font-family="Helvetica,sans-Serif" font-size="10.00">src/Resources.cpp</text>
</a>
</g>
</g>
<!-- Node18&#45;&gt;Node22 -->
<g id="edge28" class="edge"><title>Node18&#45;&gt;Node22</title>
<path fill="none" stroke="midnightblue" d="M411.575,-114.808C341.82,-106.536 215.326,-91.1584 107.5,-76 104.776,-75.617 101.981,-75.2146 99.1603,-74.8013"/>
<polygon fill="midnightblue" stroke="midnightblue" points="411.517,-118.325 421.859,-116.024 412.339,-111.373 411.517,-118.325"/>
</g>
<!-- Node23 -->
<g id="node23" class="node"><title>Node23</title>
<g id="a_node23"><a xlink:href="UIelement_8cpp.html" target="_top" xlink:title="src/UIelement.cpp">
<polygon fill="white" stroke="black" points="117,-56.5 117,-75.5 214,-75.5 214,-56.5 117,-56.5"/>
<text text-anchor="middle" x="165.5" y="-63.5" font-family="Helvetica,sans-Serif" font-size="10.00">src/UIelement.cpp</text>
</a>
</g>
</g>
<!-- Node18&#45;&gt;Node23 -->
<g id="edge31" class="edge"><title>Node18&#45;&gt;Node23</title>
<path fill="none" stroke="midnightblue" d="M411.851,-111.491C355.523,-101.319 266.992,-85.3297 212.808,-75.544"/>
<polygon fill="midnightblue" stroke="midnightblue" points="411.515,-114.987 421.978,-113.32 412.759,-108.099 411.515,-114.987"/>
</g>
<!-- Node24 -->
<g id="node24" class="node"><title>Node24</title>
<g id="a_node24"><a xlink:href="UItext_8cpp.html" target="_top" xlink:title="src/UItext.cpp">
<polygon fill="white" stroke="black" points="232,-56.5 232,-75.5 311,-75.5 311,-56.5 232,-56.5"/>
<text text-anchor="middle" x="271.5" y="-63.5" font-family="Helvetica,sans-Serif" font-size="10.00">src/UItext.cpp</text>
</a>
</g>
</g>
<!-- Node18&#45;&gt;Node24 -->
<g id="edge32" class="edge"><title>Node18&#45;&gt;Node24</title>
<path fill="none" stroke="midnightblue" d="M424.108,-109.699C387.683,-99.507 334.914,-84.7429 301.938,-75.5164"/>
<polygon fill="midnightblue" stroke="midnightblue" points="423.345,-113.12 433.919,-112.444 425.231,-106.378 423.345,-113.12"/>
</g>
<!-- Node20 -->
<g id="node20" class="node"><title>Node20</title>
<g id="a_node20"><a xlink:href="Text_8cpp.html" target="_top" xlink:title="src/Text.cpp">
<polygon fill="white" stroke="black" points="333,-0.5 333,-19.5 404,-19.5 404,-0.5 333,-0.5"/>
<text text-anchor="middle" x="368.5" y="-7.5" font-family="Helvetica,sans-Serif" font-size="10.00">src/Text.cpp</text>
</a>
</g>
</g>
<!-- Node19&#45;&gt;Node20 -->
<g id="edge25" class="edge"><title>Node19&#45;&gt;Node20</title>
<path fill="none" stroke="midnightblue" d="M368.5,-45.8045C368.5,-36.9102 368.5,-26.7798 368.5,-19.7511"/>
<polygon fill="midnightblue" stroke="midnightblue" points="365,-46.083 368.5,-56.083 372,-46.083 365,-46.083"/>
</g>
</g>
</svg>
