<?xml version="1.0" encoding="UTF-8" standalone="no"?>
<!DOCTYPE svg PUBLIC "-//W3C//DTD SVG 1.1//EN"
 "http://www.w3.org/Graphics/SVG/1.1/DTD/svg11.dtd">
<!-- Generated by graphviz version 2.38.0 (20140413.2041)
 -->
<!-- Title: include/Component.h Pages: 1 -->
<svg width="1503pt" height="308pt"
 viewBox="0.00 0.00 1502.50 308.00" xmlns="http://www.w3.org/2000/svg" xmlns:xlink="http://www.w3.org/1999/xlink">
<g id="graph0" class="graph" transform="scale(1 1) rotate(0) translate(4 304)">
<title>include/Component.h</title>
<polygon fill="white" stroke="none" points="-4,4 -4,-304 1498.5,-304 1498.5,4 -4,4"/>
<!-- Node10 -->
<g id="node1" class="node"><title>Node10</title>
<polygon fill="#bfbfbf" stroke="black" points="1234,-280.5 1234,-299.5 1343,-299.5 1343,-280.5 1234,-280.5"/>
<text text-anchor="middle" x="1288.5" y="-287.5" font-family="Helvetica,sans-Serif" font-size="10.00">include/Component.h</text>
</g>
<!-- Node11 -->
<g id="node2" class="node"><title>Node11</title>
<g id="a_node2"><a xlink:href="GameObject_8h.html" target="_top" xlink:title="include/GameObject.h">
<polygon fill="white" stroke="black" points="1108,-224.5 1108,-243.5 1221,-243.5 1221,-224.5 1108,-224.5"/>
<text text-anchor="middle" x="1164.5" y="-231.5" font-family="Helvetica,sans-Serif" font-size="10.00">include/GameObject.h</text>
</a>
</g>
</g>
<!-- Node10&#45;&gt;Node11 -->
<g id="edge1" class="edge"><title>Node10&#45;&gt;Node11</title>
<path fill="none" stroke="midnightblue" d="M1254.34,-276.638C1229.57,-266.504 1197.48,-252.427 1178.98,-243.516"/>
<polygon fill="midnightblue" stroke="midnightblue" points="1253.18,-279.946 1263.76,-280.444 1255.8,-273.455 1253.18,-279.946"/>
</g>
<!-- Node23 -->
<g id="node14" class="node"><title>Node23</title>
<g id="a_node14"><a xlink:href="DragAndDrop_8h.html" target="_top" xlink:title="include/DragAndDrop.h">
<polygon fill="white" stroke="black" points="1333.5,-56.5 1333.5,-75.5 1451.5,-75.5 1451.5,-56.5 1333.5,-56.5"/>
<text text-anchor="middle" x="1392.5" y="-63.5" font-family="Helvetica,sans-Serif" font-size="10.00">include/DragAndDrop.h</text>
</a>
</g>
</g>
<!-- Node10&#45;&gt;Node23 -->
<g id="edge34" class="edge"><title>Node10&#45;&gt;Node23</title>
<path fill="none" stroke="midnightblue" d="M1296.86,-271.157C1317.96,-226.119 1372.79,-109.063 1388.34,-75.8837"/>
<polygon fill="midnightblue" stroke="midnightblue" points="1293.65,-269.757 1292.58,-280.297 1299.99,-272.727 1293.65,-269.757"/>
</g>
<!-- Node33 -->
<g id="node24" class="node"><title>Node33</title>
<g id="a_node24"><a xlink:href="Component_8cpp.html" target="_top" xlink:title="src/Component.cpp">
<polygon fill="white" stroke="black" points="1392.5,-224.5 1392.5,-243.5 1494.5,-243.5 1494.5,-224.5 1392.5,-224.5"/>
<text text-anchor="middle" x="1443.5" y="-231.5" font-family="Helvetica,sans-Serif" font-size="10.00">src/Component.cpp</text>
</a>
</g>
</g>
<!-- Node10&#45;&gt;Node33 -->
<g id="edge35" class="edge"><title>Node10&#45;&gt;Node33</title>
<path fill="none" stroke="midnightblue" d="M1322.83,-277.039C1352,-266.879 1393.14,-252.546 1419.05,-243.516"/>
<polygon fill="midnightblue" stroke="midnightblue" points="1321.35,-273.848 1313.06,-280.444 1323.66,-280.459 1321.35,-273.848"/>
</g>
<!-- Node11&#45;&gt;Node10 -->
<g id="edge4" class="edge"><title>Node11&#45;&gt;Node10</title>
<path fill="none" stroke="midnightblue" d="M1198.55,-247.317C1223.3,-257.439 1255.4,-271.517 1273.94,-280.444"/>
<polygon fill="midnightblue" stroke="midnightblue" points="1199.72,-244.013 1189.14,-243.516 1197.1,-250.505 1199.72,-244.013"/>
</g>
<!-- Node12 -->
<g id="node3" class="node"><title>Node12</title>
<g id="a_node3"><a xlink:href="Animation_8h.html" target="_top" xlink:title="include/Animation.h">
<polygon fill="white" stroke="black" points="981.5,-168.5 981.5,-187.5 1083.5,-187.5 1083.5,-168.5 981.5,-168.5"/>
<text text-anchor="middle" x="1032.5" y="-175.5" font-family="Helvetica,sans-Serif" font-size="10.00">include/Animation.h</text>
</a>
</g>
</g>
<!-- Node11&#45;&gt;Node12 -->
<g id="edge2" class="edge"><title>Node11&#45;&gt;Node12</title>
<path fill="none" stroke="midnightblue" d="M1134.28,-220.638C1109.51,-210.504 1075.1,-196.427 1053.32,-187.516"/>
<polygon fill="midnightblue" stroke="midnightblue" points="1133,-223.897 1143.58,-224.444 1135.65,-217.418 1133,-223.897"/>
</g>
<!-- Node14 -->
<g id="node5" class="node"><title>Node14</title>
<g id="a_node5"><a xlink:href="Camera_8h.html" target="_top" xlink:title="include/Camera.h">
<polygon fill="white" stroke="black" points="880,-112.5 880,-131.5 973,-131.5 973,-112.5 880,-112.5"/>
<text text-anchor="middle" x="926.5" y="-119.5" font-family="Helvetica,sans-Serif" font-size="10.00">include/Camera.h</text>
</a>
</g>
</g>
<!-- Node11&#45;&gt;Node14 -->
<g id="edge5" class="edge"><title>Node11&#45;&gt;Node14</title>
<path fill="none" stroke="midnightblue" d="M1097.73,-229.112C1058.48,-224.102 1009.47,-212.89 972.5,-188 951.17,-173.639 936.552,-145.833 930.153,-131.701"/>
<polygon fill="midnightblue" stroke="midnightblue" points="1097.41,-232.598 1107.75,-230.284 1098.22,-225.645 1097.41,-232.598"/>
</g>
<!-- Node17 -->
<g id="node8" class="node"><title>Node17</title>
<g id="a_node8"><a xlink:href="GameObject_8cpp.html" target="_top" xlink:title="src/GameObject.cpp">
<polygon fill="white" stroke="black" points="1066,-56.5 1066,-75.5 1173,-75.5 1173,-56.5 1066,-56.5"/>
<text text-anchor="middle" x="1119.5" y="-63.5" font-family="Helvetica,sans-Serif" font-size="10.00">src/GameObject.cpp</text>
</a>
</g>
</g>
<!-- Node11&#45;&gt;Node17 -->
<g id="edge33" class="edge"><title>Node11&#45;&gt;Node17</title>
<path fill="none" stroke="midnightblue" d="M1151.12,-216.172C1145.39,-208.097 1139.18,-198.015 1135.5,-188 1120.74,-147.821 1119.31,-95.7123 1119.37,-75.5169"/>
<polygon fill="midnightblue" stroke="midnightblue" points="1148.43,-218.421 1157.23,-224.326 1154.04,-214.224 1148.43,-218.421"/>
</g>
<!-- Node22 -->
<g id="node13" class="node"><title>Node22</title>
<g id="a_node13"><a xlink:href="TileMap_8h.html" target="_top" xlink:title="include/TileMap.h">
<polygon fill="white" stroke="black" points="1243,-112.5 1243,-131.5 1336,-131.5 1336,-112.5 1243,-112.5"/>
<text text-anchor="middle" x="1289.5" y="-119.5" font-family="Helvetica,sans-Serif" font-size="10.00">include/TileMap.h</text>
</a>
</g>
</g>
<!-- Node11&#45;&gt;Node22 -->
<g id="edge14" class="edge"><title>Node11&#45;&gt;Node22</title>
<path fill="none" stroke="midnightblue" d="M1231.15,-224.619C1253.42,-218.284 1275.98,-207.232 1289.5,-188 1301.44,-171.012 1296.22,-144.865 1292.33,-131.501"/>
<polygon fill="midnightblue" stroke="midnightblue" points="1230.13,-221.266 1221.31,-227.134 1231.87,-228.048 1230.13,-221.266"/>
</g>
<!-- Node24 -->
<g id="node15" class="node"><title>Node24</title>
<g id="a_node15"><a xlink:href="NearestGOFinder_8h.html" target="_top" xlink:title="include/NearestGOFinder.h">
<polygon fill="white" stroke="black" points="1145,-168.5 1145,-187.5 1280,-187.5 1280,-168.5 1145,-168.5"/>
<text text-anchor="middle" x="1212.5" y="-175.5" font-family="Helvetica,sans-Serif" font-size="10.00">include/NearestGOFinder.h</text>
</a>
</g>
</g>
<!-- Node11&#45;&gt;Node24 -->
<g id="edge19" class="edge"><title>Node11&#45;&gt;Node24</title>
<path fill="none" stroke="midnightblue" d="M1179.23,-216.431C1187.64,-206.967 1197.85,-195.483 1204.72,-187.751"/>
<polygon fill="midnightblue" stroke="midnightblue" points="1176.45,-214.284 1172.43,-224.083 1181.69,-218.934 1176.45,-214.284"/>
</g>
<!-- Node25 -->
<g id="node16" class="node"><title>Node25</title>
<g id="a_node16"><a xlink:href="State_8h.html" target="_top" xlink:title="include/State.h">
<polygon fill="white" stroke="black" points="810.5,-168.5 810.5,-187.5 892.5,-187.5 892.5,-168.5 810.5,-168.5"/>
<text text-anchor="middle" x="851.5" y="-175.5" font-family="Helvetica,sans-Serif" font-size="10.00">include/State.h</text>
</a>
</g>
</g>
<!-- Node11&#45;&gt;Node25 -->
<g id="edge21" class="edge"><title>Node11&#45;&gt;Node25</title>
<path fill="none" stroke="midnightblue" d="M1104.86,-222.71C1042.76,-211.997 947.142,-195.501 892.867,-186.137"/>
<polygon fill="midnightblue" stroke="midnightblue" points="1104.45,-226.192 1114.9,-224.444 1105.64,-219.294 1104.45,-226.192"/>
</g>
<!-- Node13 -->
<g id="node4" class="node"><title>Node13</title>
<g id="a_node4"><a xlink:href="Animation_8cpp.html" target="_top" xlink:title="src/Animation.cpp">
<polygon fill="white" stroke="black" points="953,-56.5 953,-75.5 1048,-75.5 1048,-56.5 953,-56.5"/>
<text text-anchor="middle" x="1000.5" y="-63.5" font-family="Helvetica,sans-Serif" font-size="10.00">src/Animation.cpp</text>
</a>
</g>
</g>
<!-- Node12&#45;&gt;Node13 -->
<g id="edge3" class="edge"><title>Node12&#45;&gt;Node13</title>
<path fill="none" stroke="midnightblue" d="M1027.17,-158.674C1020.17,-134.625 1008.18,-93.3881 1003,-75.5914"/>
<polygon fill="midnightblue" stroke="midnightblue" points="1023.83,-159.744 1029.99,-168.368 1030.56,-157.789 1023.83,-159.744"/>
</g>
<!-- Node14&#45;&gt;Node13 -->
<g id="edge6" class="edge"><title>Node14&#45;&gt;Node13</title>
<path fill="none" stroke="midnightblue" d="M946.534,-106.38C959.909,-96.6204 977.059,-84.1057 988.394,-75.8339"/>
<polygon fill="midnightblue" stroke="midnightblue" points="944.404,-103.602 938.389,-112.324 948.53,-109.257 944.404,-103.602"/>
</g>
<!-- Node15 -->
<g id="node6" class="node"><title>Node15</title>
<g id="a_node6"><a xlink:href="Camera_8cpp.html" target="_top" xlink:title="src/Camera.cpp">
<polygon fill="white" stroke="black" points="621.5,-56.5 621.5,-75.5 707.5,-75.5 707.5,-56.5 621.5,-56.5"/>
<text text-anchor="middle" x="664.5" y="-63.5" font-family="Helvetica,sans-Serif" font-size="10.00">src/Camera.cpp</text>
</a>
</g>
</g>
<!-- Node14&#45;&gt;Node15 -->
<g id="edge7" class="edge"><title>Node14&#45;&gt;Node15</title>
<path fill="none" stroke="midnightblue" d="M875.117,-110.41C825.602,-100.204 751.638,-84.9597 705.82,-75.5164"/>
<polygon fill="midnightblue" stroke="midnightblue" points="874.485,-113.853 884.985,-112.444 875.898,-106.997 874.485,-113.853"/>
</g>
<!-- Node16 -->
<g id="node7" class="node"><title>Node16</title>
<g id="a_node7"><a xlink:href="DragAndDrop_8cpp.html" target="_top" xlink:title="src/DragAndDrop.cpp">
<polygon fill="white" stroke="black" points="1250,-0.5 1250,-19.5 1361,-19.5 1361,-0.5 1250,-0.5"/>
<text text-anchor="middle" x="1305.5" y="-7.5" font-family="Helvetica,sans-Serif" font-size="10.00">src/DragAndDrop.cpp</text>
</a>
</g>
</g>
<!-- Node14&#45;&gt;Node16 -->
<g id="edge8" class="edge"><title>Node14&#45;&gt;Node16</title>
<path fill="none" stroke="midnightblue" d="M926.087,-102.194C926.85,-87.381 930.495,-67.3912 943.5,-56 987.925,-17.089 1159.75,-10.9895 1249.77,-10.5455"/>
<polygon fill="midnightblue" stroke="midnightblue" points="922.586,-102.24 925.957,-112.284 929.586,-102.33 922.586,-102.24"/>
</g>
<!-- Node14&#45;&gt;Node17 -->
<g id="edge9" class="edge"><title>Node14&#45;&gt;Node17</title>
<path fill="none" stroke="midnightblue" d="M966.892,-109.699C1003.32,-99.507 1056.09,-84.7429 1089.06,-75.5164"/>
<polygon fill="midnightblue" stroke="midnightblue" points="965.769,-106.378 957.081,-112.444 967.655,-113.12 965.769,-106.378"/>
</g>
<!-- Node18 -->
<g id="node9" class="node"><title>Node18</title>
<g id="a_node9"><a xlink:href="Sprite_8cpp.html" target="_top" xlink:title="src/Sprite.cpp">
<polygon fill="white" stroke="black" points="726,-56.5 726,-75.5 803,-75.5 803,-56.5 726,-56.5"/>
<text text-anchor="middle" x="764.5" y="-63.5" font-family="Helvetica,sans-Serif" font-size="10.00">src/Sprite.cpp</text>
</a>
</g>
</g>
<!-- Node14&#45;&gt;Node18 -->
<g id="edge10" class="edge"><title>Node14&#45;&gt;Node18</title>
<path fill="none" stroke="midnightblue" d="M891.016,-109.172C860.512,-99.0039 817.255,-84.5852 790.049,-75.5164"/>
<polygon fill="midnightblue" stroke="midnightblue" points="890.237,-112.602 900.831,-112.444 892.451,-105.961 890.237,-112.602"/>
</g>
<!-- Node19 -->
<g id="node10" class="node"><title>Node19</title>
<g id="a_node10"><a xlink:href="State_8cpp.html" target="_top" xlink:title="src/State.cpp">
<polygon fill="white" stroke="black" points="821,-56.5 821,-75.5 896,-75.5 896,-56.5 821,-56.5"/>
<text text-anchor="middle" x="858.5" y="-63.5" font-family="Helvetica,sans-Serif" font-size="10.00">src/State.cpp</text>
</a>
</g>
</g>
<!-- Node14&#45;&gt;Node19 -->
<g id="edge11" class="edge"><title>Node14&#45;&gt;Node19</title>
<path fill="none" stroke="midnightblue" d="M907.738,-106.101C895.5,-96.3824 879.941,-84.0269 869.624,-75.8339"/>
<polygon fill="midnightblue" stroke="midnightblue" points="905.567,-108.846 915.575,-112.324 909.92,-103.364 905.567,-108.846"/>
</g>
<!-- Node20 -->
<g id="node11" class="node"><title>Node20</title>
<g id="a_node11"><a xlink:href="TileMap_8cpp.html" target="_top" xlink:title="src/TileMap.cpp">
<polygon fill="white" stroke="black" points="1191.5,-56.5 1191.5,-75.5 1277.5,-75.5 1277.5,-56.5 1191.5,-56.5"/>
<text text-anchor="middle" x="1234.5" y="-63.5" font-family="Helvetica,sans-Serif" font-size="10.00">src/TileMap.cpp</text>
</a>
</g>
</g>
<!-- Node14&#45;&gt;Node20 -->
<g id="edge12" class="edge"><title>Node14&#45;&gt;Node20</title>
<path fill="none" stroke="midnightblue" d="M983.36,-111.031C1043.46,-100.494 1136.91,-84.1093 1191.27,-74.5796"/>
<polygon fill="midnightblue" stroke="midnightblue" points="982.524,-107.624 973.279,-112.799 983.733,-114.519 982.524,-107.624"/>
</g>
<!-- Node21 -->
<g id="node12" class="node"><title>Node21</title>
<g id="a_node12"><a xlink:href="Tileset_8cpp.html" target="_top" xlink:title="src/Tileset.cpp">
<polygon fill="white" stroke="black" points="522,-56.5 522,-75.5 603,-75.5 603,-56.5 522,-56.5"/>
<text text-anchor="middle" x="562.5" y="-63.5" font-family="Helvetica,sans-Serif" font-size="10.00">src/Tileset.cpp</text>
</a>
</g>
</g>
<!-- Node14&#45;&gt;Node21 -->
<g id="edge13" class="edge"><title>Node14&#45;&gt;Node21</title>
<path fill="none" stroke="midnightblue" d="M869.752,-113.489C806.793,-105.011 702.236,-90.5017 612.5,-76 609.453,-75.5075 606.304,-74.9815 603.138,-74.4402"/>
<polygon fill="midnightblue" stroke="midnightblue" points="869.494,-116.985 879.871,-114.848 870.425,-110.048 869.494,-116.985"/>
</g>
<!-- Node22&#45;&gt;Node16 -->
<g id="edge17" class="edge"><title>Node22&#45;&gt;Node16</title>
<path fill="none" stroke="midnightblue" d="M1292.21,-102.348C1295.72,-78.2538 1301.67,-37.3079 1304.25,-19.5914"/>
<polygon fill="midnightblue" stroke="midnightblue" points="1288.73,-101.969 1290.76,-112.368 1295.66,-102.976 1288.73,-101.969"/>
</g>
<!-- Node22&#45;&gt;Node20 -->
<g id="edge18" class="edge"><title>Node22&#45;&gt;Node20</title>
<path fill="none" stroke="midnightblue" d="M1273.21,-105.002C1263.46,-95.4329 1251.45,-83.6389 1243.41,-75.7511"/>
<polygon fill="midnightblue" stroke="midnightblue" points="1270.83,-107.575 1280.42,-112.083 1275.73,-102.58 1270.83,-107.575"/>
</g>
<!-- Node22&#45;&gt;Node23 -->
<g id="edge15" class="edge"><title>Node22&#45;&gt;Node23</title>
<path fill="none" stroke="midnightblue" d="M1315.08,-107.59C1334.12,-97.6052 1359.56,-84.2672 1375.99,-75.6545"/>
<polygon fill="midnightblue" stroke="midnightblue" points="1313.28,-104.581 1306.05,-112.324 1316.53,-110.78 1313.28,-104.581"/>
</g>
<!-- Node23&#45;&gt;Node16 -->
<g id="edge16" class="edge"><title>Node23&#45;&gt;Node16</title>
<path fill="none" stroke="midnightblue" d="M1369.78,-50.9005C1353.83,-40.9986 1333,-28.0705 1319.44,-19.6545"/>
<polygon fill="midnightblue" stroke="midnightblue" points="1368.18,-54.024 1378.52,-56.324 1371.87,-48.0765 1368.18,-54.024"/>
</g>
<!-- Node24&#45;&gt;Node22 -->
<g id="edge20" class="edge"><title>Node24&#45;&gt;Node22</title>
<path fill="none" stroke="midnightblue" d="M1233.4,-162.342C1247.41,-152.517 1265.38,-139.913 1277.16,-131.655"/>
<polygon fill="midnightblue" stroke="midnightblue" points="1231.05,-159.717 1224.87,-168.324 1235.07,-165.448 1231.05,-159.717"/>
</g>
<!-- Node25&#45;&gt;Node19 -->
<g id="edge32" class="edge"><title>Node25&#45;&gt;Node19</title>
<path fill="none" stroke="midnightblue" d="M852.687,-158.348C854.22,-134.254 856.826,-93.3079 857.953,-75.5914"/>
<polygon fill="midnightblue" stroke="midnightblue" points="849.192,-158.166 852.049,-168.368 856.177,-158.611 849.192,-158.166"/>
</g>
<!-- Node26 -->
<g id="node17" class="node"><title>Node26</title>
<g id="a_node17"><a xlink:href="Game_8h.html" target="_top" xlink:title="include/Game.h">
<polygon fill="white" stroke="black" points="422,-112.5 422,-131.5 507,-131.5 507,-112.5 422,-112.5"/>
<text text-anchor="middle" x="464.5" y="-119.5" font-family="Helvetica,sans-Serif" font-size="10.00">include/Game.h</text>
</a>
</g>
</g>
<!-- Node25&#45;&gt;Node26 -->
<g id="edge22" class="edge"><title>Node25&#45;&gt;Node26</title>
<path fill="none" stroke="midnightblue" d="M800.5,-169.884C723.5,-159.14 578.955,-138.971 507.183,-128.956"/>
<polygon fill="midnightblue" stroke="midnightblue" points="800.063,-173.357 810.451,-171.272 801.03,-166.424 800.063,-173.357"/>
</g>
<!-- Node26&#45;&gt;Node15 -->
<g id="edge25" class="edge"><title>Node26&#45;&gt;Node15</title>
<path fill="none" stroke="midnightblue" d="M505.874,-109.829C543.636,-99.6333 598.64,-84.7823 632.958,-75.5164"/>
<polygon fill="midnightblue" stroke="midnightblue" points="504.933,-106.458 496.191,-112.444 506.757,-113.216 504.933,-106.458"/>
</g>
<!-- Node26&#45;&gt;Node18 -->
<g id="edge28" class="edge"><title>Node26&#45;&gt;Node18</title>
<path fill="none" stroke="midnightblue" d="M517.452,-111.681C568.462,-102.672 647.791,-88.576 716.5,-76 719.586,-75.4352 722.782,-74.8457 725.993,-74.2503"/>
<polygon fill="midnightblue" stroke="midnightblue" points="516.565,-108.284 507.325,-113.469 517.781,-115.177 516.565,-108.284"/>
</g>
<!-- Node26&#45;&gt;Node21 -->
<g id="edge29" class="edge"><title>Node26&#45;&gt;Node21</title>
<path fill="none" stroke="midnightblue" d="M489.086,-107.453C507.178,-97.4835 531.235,-84.2279 546.794,-75.6545"/>
<polygon fill="midnightblue" stroke="midnightblue" points="487.315,-104.432 480.245,-112.324 490.693,-110.563 487.315,-104.432"/>
</g>
<!-- Node27 -->
<g id="node18" class="node"><title>Node27</title>
<g id="a_node18"><a xlink:href="Text_8h.html" target="_top" xlink:title="include/Text.h">
<polygon fill="white" stroke="black" points="329.5,-56.5 329.5,-75.5 407.5,-75.5 407.5,-56.5 329.5,-56.5"/>
<text text-anchor="middle" x="368.5" y="-63.5" font-family="Helvetica,sans-Serif" font-size="10.00">include/Text.h</text>
</a>
</g>
</g>
<!-- Node26&#45;&gt;Node27 -->
<g id="edge23" class="edge"><title>Node26&#45;&gt;Node27</title>
<path fill="none" stroke="midnightblue" d="M439.926,-107.177C422.261,-97.2407 398.987,-84.1492 383.886,-75.6545"/>
<polygon fill="midnightblue" stroke="midnightblue" points="438.644,-110.472 449.076,-112.324 442.076,-104.371 438.644,-110.472"/>
</g>
<!-- Node29 -->
<g id="node20" class="node"><title>Node29</title>
<g id="a_node20"><a xlink:href="Game_8cpp.html" target="_top" xlink:title="src/Game.cpp">
<polygon fill="white" stroke="black" points="425.5,-56.5 425.5,-75.5 503.5,-75.5 503.5,-56.5 425.5,-56.5"/>
<text text-anchor="middle" x="464.5" y="-63.5" font-family="Helvetica,sans-Serif" font-size="10.00">src/Game.cpp</text>
</a>
</g>
</g>
<!-- Node26&#45;&gt;Node29 -->
<g id="edge26" class="edge"><title>Node26&#45;&gt;Node29</title>
<path fill="none" stroke="midnightblue" d="M464.5,-101.805C464.5,-92.9102 464.5,-82.7798 464.5,-75.7511"/>
<polygon fill="midnightblue" stroke="midnightblue" points="461,-102.083 464.5,-112.083 468,-102.083 461,-102.083"/>
</g>
<!-- Node30 -->
<g id="node21" class="node"><title>Node30</title>
<g id="a_node21"><a xlink:href="Resources_8cpp.html" target="_top" xlink:title="src/Resources.cpp">
<polygon fill="white" stroke="black" points="0,-56.5 0,-75.5 99,-75.5 99,-56.5 0,-56.5"/>
<text text-anchor="middle" x="49.5" y="-63.5" font-family="Helvetica,sans-Serif" font-size="10.00">src/Resources.cpp</text>
</a>
</g>
</g>
<!-- Node26&#45;&gt;Node30 -->
<g id="edge27" class="edge"><title>Node26&#45;&gt;Node30</title>
<path fill="none" stroke="midnightblue" d="M411.575,-114.808C341.82,-106.536 215.326,-91.1584 107.5,-76 104.776,-75.617 101.981,-75.2146 99.1603,-74.8013"/>
<polygon fill="midnightblue" stroke="midnightblue" points="411.517,-118.325 421.859,-116.024 412.339,-111.373 411.517,-118.325"/>
</g>
<!-- Node31 -->
<g id="node22" class="node"><title>Node31</title>
<g id="a_node22"><a xlink:href="UIelement_8cpp.html" target="_top" xlink:title="src/UIelement.cpp">
<polygon fill="white" stroke="black" points="117,-56.5 117,-75.5 214,-75.5 214,-56.5 117,-56.5"/>
<text text-anchor="middle" x="165.5" y="-63.5" font-family="Helvetica,sans-Serif" font-size="10.00">src/UIelement.cpp</text>
</a>
</g>
</g>
<!-- Node26&#45;&gt;Node31 -->
<g id="edge30" class="edge"><title>Node26&#45;&gt;Node31</title>
<path fill="none" stroke="midnightblue" d="M411.851,-111.491C355.523,-101.319 266.992,-85.3297 212.808,-75.544"/>
<polygon fill="midnightblue" stroke="midnightblue" points="411.515,-114.987 421.978,-113.32 412.759,-108.099 411.515,-114.987"/>
</g>
<!-- Node32 -->
<g id="node23" class="node"><title>Node32</title>
<g id="a_node23"><a xlink:href="UItext_8cpp.html" target="_top" xlink:title="src/UItext.cpp">
<polygon fill="white" stroke="black" points="232,-56.5 232,-75.5 311,-75.5 311,-56.5 232,-56.5"/>
<text text-anchor="middle" x="271.5" y="-63.5" font-family="Helvetica,sans-Serif" font-size="10.00">src/UItext.cpp</text>
</a>
</g>
</g>
<!-- Node26&#45;&gt;Node32 -->
<g id="edge31" class="edge"><title>Node26&#45;&gt;Node32</title>
<path fill="none" stroke="midnightblue" d="M424.108,-109.699C387.683,-99.507 334.914,-84.7429 301.938,-75.5164"/>
<polygon fill="midnightblue" stroke="midnightblue" points="423.345,-113.12 433.919,-112.444 425.231,-106.378 423.345,-113.12"/>
</g>
<!-- Node28 -->
<g id="node19" class="node"><title>Node28</title>
<g id="a_node19"><a xlink:href="Text_8cpp.html" target="_top" xlink:title="src/Text.cpp">
<polygon fill="white" stroke="black" points="333,-0.5 333,-19.5 404,-19.5 404,-0.5 333,-0.5"/>
<text text-anchor="middle" x="368.5" y="-7.5" font-family="Helvetica,sans-Serif" font-size="10.00">src/Text.cpp</text>
</a>
</g>
</g>
<!-- Node27&#45;&gt;Node28 -->
<g id="edge24" class="edge"><title>Node27&#45;&gt;Node28</title>
<path fill="none" stroke="midnightblue" d="M368.5,-45.8045C368.5,-36.9102 368.5,-26.7798 368.5,-19.7511"/>
<polygon fill="midnightblue" stroke="midnightblue" points="365,-46.083 368.5,-56.083 372,-46.083 365,-46.083"/>
</g>
</g>
</svg>
