<?xml version="1.0" encoding="UTF-8" standalone="no"?>
<!DOCTYPE svg PUBLIC "-//W3C//DTD SVG 1.1//EN"
 "http://www.w3.org/Graphics/SVG/1.1/DTD/svg11.dtd">
<!-- Generated by graphviz version 2.38.0 (20140413.2041)
 -->
<!-- Title: include/Component.h Pages: 1 -->
<svg width="1230pt" height="252pt"
 viewBox="0.00 0.00 1230.00 252.00" xmlns="http://www.w3.org/2000/svg" xmlns:xlink="http://www.w3.org/1999/xlink">
<g id="graph0" class="graph" transform="scale(1 1) rotate(0) translate(4 248)">
<title>include/Component.h</title>
<polygon fill="white" stroke="none" points="-4,4 -4,-248 1226,-248 1226,4 -4,4"/>
<!-- Node10 -->
<g id="node1" class="node"><title>Node10</title>
<polygon fill="#bfbfbf" stroke="black" points="721.5,-224.5 721.5,-243.5 830.5,-243.5 830.5,-224.5 721.5,-224.5"/>
<text text-anchor="middle" x="776" y="-231.5" font-family="Helvetica,sans-Serif" font-size="10.00">include/Component.h</text>
</g>
<!-- Node11 -->
<g id="node2" class="node"><title>Node11</title>
<g id="a_node2"><a xlink:href="GameObject_8h.html" target="_top" xlink:title="include/GameObject.h">
<polygon fill="white" stroke="black" points="677.5,-168.5 677.5,-187.5 790.5,-187.5 790.5,-168.5 677.5,-168.5"/>
<text text-anchor="middle" x="734" y="-175.5" font-family="Helvetica,sans-Serif" font-size="10.00">include/GameObject.h</text>
</a>
</g>
</g>
<!-- Node10&#45;&gt;Node11 -->
<g id="edge1" class="edge"><title>Node10&#45;&gt;Node11</title>
<path fill="none" stroke="midnightblue" d="M757.083,-216.718C748.751,-207.2 740.072,-195.561 735.675,-187.751"/>
<polygon fill="midnightblue" stroke="midnightblue" points="754.537,-219.12 763.898,-224.083 759.675,-214.366 754.537,-219.12"/>
</g>
<!-- Node14 -->
<g id="node5" class="node"><title>Node14</title>
<g id="a_node5"><a xlink:href="Button_8h.html" target="_top" xlink:title="include/Button.h">
<polygon fill="white" stroke="black" points="784.5,-112.5 784.5,-131.5 871.5,-131.5 871.5,-112.5 784.5,-112.5"/>
<text text-anchor="middle" x="828" y="-119.5" font-family="Helvetica,sans-Serif" font-size="10.00">include/Button.h</text>
</a>
</g>
</g>
<!-- Node10&#45;&gt;Node14 -->
<g id="edge43" class="edge"><title>Node10&#45;&gt;Node14</title>
<path fill="none" stroke="midnightblue" d="M785.265,-215.405C789.548,-207.138 794.64,-197.116 799,-188 808.489,-168.157 818.803,-144.483 824.207,-131.899"/>
<polygon fill="midnightblue" stroke="midnightblue" points="782.073,-213.956 780.545,-224.441 788.278,-217.197 782.073,-213.956"/>
</g>
<!-- Node17 -->
<g id="node8" class="node"><title>Node17</title>
<g id="a_node8"><a xlink:href="TileMap_8h.html" target="_top" xlink:title="include/TileMap.h">
<polygon fill="white" stroke="black" points="12.5,-56.5 12.5,-75.5 105.5,-75.5 105.5,-56.5 12.5,-56.5"/>
<text text-anchor="middle" x="59" y="-63.5" font-family="Helvetica,sans-Serif" font-size="10.00">include/TileMap.h</text>
</a>
</g>
</g>
<!-- Node10&#45;&gt;Node17 -->
<g id="edge45" class="edge"><title>Node10&#45;&gt;Node17</title>
<path fill="none" stroke="midnightblue" d="M711.169,-230.774C585.35,-225.956 312.488,-212.929 222,-188 167.578,-173.007 151.511,-167.964 108,-132 87.9574,-115.434 71.4125,-89.1024 63.6915,-75.6014"/>
<polygon fill="midnightblue" stroke="midnightblue" points="711.299,-234.282 721.424,-231.161 711.563,-227.287 711.299,-234.282"/>
</g>
<!-- Node18 -->
<g id="node9" class="node"><title>Node18</title>
<g id="a_node9"><a xlink:href="DragAndDrop_8h.html" target="_top" xlink:title="include/DragAndDrop.h">
<polygon fill="white" stroke="black" points="0,-0.5 0,-19.5 118,-19.5 118,-0.5 0,-0.5"/>
<text text-anchor="middle" x="59" y="-7.5" font-family="Helvetica,sans-Serif" font-size="10.00">include/DragAndDrop.h</text>
</a>
</g>
</g>
<!-- Node10&#45;&gt;Node18 -->
<g id="edge44" class="edge"><title>Node10&#45;&gt;Node18</title>
<path fill="none" stroke="midnightblue" d="M710.918,-232.699C573.673,-231.344 259.009,-224.25 159,-188 78.7568,-158.914 41.9635,-151.939 3,-76 -8.83152,-52.9405 21.291,-31.1992 41.8022,-19.637"/>
<polygon fill="midnightblue" stroke="midnightblue" points="711.244,-236.202 721.276,-232.793 711.308,-229.202 711.244,-236.202"/>
</g>
<!-- Node29 -->
<g id="node20" class="node"><title>Node29</title>
<g id="a_node20"><a xlink:href="Grouper_8h.html" target="_top" xlink:title="include/Grouper.h">
<polygon fill="white" stroke="black" points="1032.5,-112.5 1032.5,-131.5 1125.5,-131.5 1125.5,-112.5 1032.5,-112.5"/>
<text text-anchor="middle" x="1079" y="-119.5" font-family="Helvetica,sans-Serif" font-size="10.00">include/Grouper.h</text>
</a>
</g>
</g>
<!-- Node10&#45;&gt;Node29 -->
<g id="edge46" class="edge"><title>Node10&#45;&gt;Node29</title>
<path fill="none" stroke="midnightblue" d="M805.435,-220.37C825.882,-211.509 853.711,-199.277 878,-188 896.389,-179.462 900.054,-175.218 919,-168 959.987,-152.385 1008.71,-139.448 1041.53,-131.515"/>
<polygon fill="midnightblue" stroke="midnightblue" points="803.829,-217.251 796.038,-224.43 806.606,-223.676 803.829,-217.251"/>
</g>
<!-- Node32 -->
<g id="node23" class="node"><title>Node32</title>
<g id="a_node23"><a xlink:href="RectTransform_8h.html" target="_top" xlink:title="include/RectTransform.h">
<polygon fill="white" stroke="black" points="890,-112.5 890,-131.5 1014,-131.5 1014,-112.5 890,-112.5"/>
<text text-anchor="middle" x="952" y="-119.5" font-family="Helvetica,sans-Serif" font-size="10.00">include/RectTransform.h</text>
</a>
</g>
</g>
<!-- Node10&#45;&gt;Node32 -->
<g id="edge47" class="edge"><title>Node10&#45;&gt;Node32</title>
<path fill="none" stroke="midnightblue" d="M798.386,-219.009C835.33,-195.919 907.983,-150.51 938.254,-131.591"/>
<polygon fill="midnightblue" stroke="midnightblue" points="796.435,-216.1 789.81,-224.368 800.145,-222.036 796.435,-216.1"/>
</g>
<!-- Node33 -->
<g id="node24" class="node"><title>Node33</title>
<g id="a_node24"><a xlink:href="Text_8h.html" target="_top" xlink:title="include/Text.h">
<polygon fill="white" stroke="black" points="1144,-112.5 1144,-131.5 1222,-131.5 1222,-112.5 1144,-112.5"/>
<text text-anchor="middle" x="1183" y="-119.5" font-family="Helvetica,sans-Serif" font-size="10.00">include/Text.h</text>
</a>
</g>
</g>
<!-- Node10&#45;&gt;Node33 -->
<g id="edge48" class="edge"><title>Node10&#45;&gt;Node33</title>
<path fill="none" stroke="midnightblue" d="M816.141,-221.626C843.775,-213.358 881.109,-201.318 913,-188 930.975,-180.493 933.591,-174.37 952,-168 961.038,-164.873 1080.44,-142.245 1143.92,-130.317"/>
<polygon fill="midnightblue" stroke="midnightblue" points="815.025,-218.306 806.427,-224.497 817.009,-225.019 815.025,-218.306"/>
</g>
<!-- Node34 -->
<g id="node25" class="node"><title>Node34</title>
<g id="a_node25"><a xlink:href="Sprite_8h.html" target="_top" xlink:title="include/Sprite.h">
<polygon fill="white" stroke="black" points="231,-168.5 231,-187.5 315,-187.5 315,-168.5 231,-168.5"/>
<text text-anchor="middle" x="273" y="-175.5" font-family="Helvetica,sans-Serif" font-size="10.00">include/Sprite.h</text>
</a>
</g>
</g>
<!-- Node10&#45;&gt;Node34 -->
<g id="edge37" class="edge"><title>Node10&#45;&gt;Node34</title>
<path fill="none" stroke="midnightblue" d="M711.083,-226.031C606.322,-214.784 402.861,-192.941 315.036,-183.513"/>
<polygon fill="midnightblue" stroke="midnightblue" points="710.896,-229.531 721.213,-227.118 711.643,-222.571 710.896,-229.531"/>
</g>
<!-- Node37 -->
<g id="node28" class="node"><title>Node37</title>
<g id="a_node28"><a xlink:href="Component_8cpp.html" target="_top" xlink:title="src/Component.cpp">
<polygon fill="white" stroke="black" points="961,-168.5 961,-187.5 1063,-187.5 1063,-168.5 961,-168.5"/>
<text text-anchor="middle" x="1012" y="-175.5" font-family="Helvetica,sans-Serif" font-size="10.00">src/Component.cpp</text>
</a>
</g>
</g>
<!-- Node10&#45;&gt;Node37 -->
<g id="edge49" class="edge"><title>Node10&#45;&gt;Node37</title>
<path fill="none" stroke="midnightblue" d="M823.406,-222.153C867.997,-211.95 933.854,-196.881 974.78,-187.516"/>
<polygon fill="midnightblue" stroke="midnightblue" points="822.362,-218.801 813.395,-224.444 823.924,-225.625 822.362,-218.801"/>
</g>
<!-- Node11&#45;&gt;Node10 -->
<g id="edge4" class="edge"><title>Node11&#45;&gt;Node10</title>
<path fill="none" stroke="midnightblue" d="M752.741,-195.081C761.068,-204.569 769.774,-216.22 774.231,-224.083"/>
<polygon fill="midnightblue" stroke="midnightblue" points="755.306,-192.699 745.937,-187.751 750.175,-197.462 755.306,-192.699"/>
</g>
<!-- Node12 -->
<g id="node3" class="node"><title>Node12</title>
<g id="a_node3"><a xlink:href="Animation_8h.html" target="_top" xlink:title="include/Animation.h">
<polygon fill="white" stroke="black" points="261,-112.5 261,-131.5 363,-131.5 363,-112.5 261,-112.5"/>
<text text-anchor="middle" x="312" y="-119.5" font-family="Helvetica,sans-Serif" font-size="10.00">include/Animation.h</text>
</a>
</g>
</g>
<!-- Node11&#45;&gt;Node12 -->
<g id="edge2" class="edge"><title>Node11&#45;&gt;Node12</title>
<path fill="none" stroke="midnightblue" d="M667.261,-169.215C594.575,-160.616 474.921,-146.114 372,-132 369.078,-131.599 366.078,-131.179 363.051,-130.747"/>
<polygon fill="midnightblue" stroke="midnightblue" points="666.857,-172.691 677.199,-170.388 667.678,-165.74 666.857,-172.691"/>
</g>
<!-- Node11&#45;&gt;Node14 -->
<g id="edge5" class="edge"><title>Node11&#45;&gt;Node14</title>
<path fill="none" stroke="midnightblue" d="M758.062,-163.177C775.359,-153.241 798.148,-140.149 812.935,-131.655"/>
<polygon fill="midnightblue" stroke="midnightblue" points="756.03,-160.308 749.103,-168.324 759.517,-166.378 756.03,-160.308"/>
</g>
<!-- Node16 -->
<g id="node7" class="node"><title>Node16</title>
<g id="a_node7"><a xlink:href="Camera_8h.html" target="_top" xlink:title="include/Camera.h">
<polygon fill="white" stroke="black" points="381.5,-112.5 381.5,-131.5 474.5,-131.5 474.5,-112.5 381.5,-112.5"/>
<text text-anchor="middle" x="428" y="-119.5" font-family="Helvetica,sans-Serif" font-size="10.00">include/Camera.h</text>
</a>
</g>
</g>
<!-- Node11&#45;&gt;Node16 -->
<g id="edge7" class="edge"><title>Node11&#45;&gt;Node16</title>
<path fill="none" stroke="midnightblue" d="M675.338,-166.648C616.968,-156.347 528.553,-140.745 474.755,-131.251"/>
<polygon fill="midnightblue" stroke="midnightblue" points="675.057,-170.152 685.513,-168.444 676.274,-163.259 675.057,-170.152"/>
</g>
<!-- Node20 -->
<g id="node11" class="node"><title>Node20</title>
<g id="a_node11"><a xlink:href="GameObject_8cpp.html" target="_top" xlink:title="src/GameObject.cpp">
<polygon fill="white" stroke="black" points="527.5,-56.5 527.5,-75.5 634.5,-75.5 634.5,-56.5 527.5,-56.5"/>
<text text-anchor="middle" x="581" y="-63.5" font-family="Helvetica,sans-Serif" font-size="10.00">src/GameObject.cpp</text>
</a>
</g>
</g>
<!-- Node11&#45;&gt;Node20 -->
<g id="edge36" class="edge"><title>Node11&#45;&gt;Node20</title>
<path fill="none" stroke="midnightblue" d="M713.716,-162.417C681.356,-139.151 619.041,-94.3501 592.95,-75.5914"/>
<polygon fill="midnightblue" stroke="midnightblue" points="711.832,-165.373 721.994,-168.368 715.918,-159.689 711.832,-165.373"/>
</g>
<!-- Node24 -->
<g id="node15" class="node"><title>Node24</title>
<g id="a_node15"><a xlink:href="State_8h.html" target="_top" xlink:title="include/State.h">
<polygon fill="white" stroke="black" points="684,-112.5 684,-131.5 766,-131.5 766,-112.5 684,-112.5"/>
<text text-anchor="middle" x="725" y="-119.5" font-family="Helvetica,sans-Serif" font-size="10.00">include/State.h</text>
</a>
</g>
</g>
<!-- Node11&#45;&gt;Node24 -->
<g id="edge17" class="edge"><title>Node11&#45;&gt;Node24</title>
<path fill="none" stroke="midnightblue" d="M730.85,-158.101C729.356,-149.136 727.643,-138.858 726.459,-131.751"/>
<polygon fill="midnightblue" stroke="midnightblue" points="727.417,-158.794 732.514,-168.083 734.322,-157.644 727.417,-158.794"/>
</g>
<!-- Node11&#45;&gt;Node29 -->
<g id="edge26" class="edge"><title>Node11&#45;&gt;Node29</title>
<path fill="none" stroke="midnightblue" d="M799.369,-166.915C857.953,-157.854 946.234,-144.145 1023,-132 1026.02,-131.523 1029.12,-131.03 1032.25,-130.531"/>
<polygon fill="midnightblue" stroke="midnightblue" points="798.494,-163.508 789.147,-168.495 799.564,-170.426 798.494,-163.508"/>
</g>
<!-- Node31 -->
<g id="node22" class="node"><title>Node31</title>
<g id="a_node22"><a xlink:href="NearestGOFinder_8h.html" target="_top" xlink:title="include/NearestGOFinder.h">
<polygon fill="white" stroke="black" points="492.5,-112.5 492.5,-131.5 627.5,-131.5 627.5,-112.5 492.5,-112.5"/>
<text text-anchor="middle" x="560" y="-119.5" font-family="Helvetica,sans-Serif" font-size="10.00">include/NearestGOFinder.h</text>
</a>
</g>
</g>
<!-- Node11&#45;&gt;Node31 -->
<g id="edge28" class="edge"><title>Node11&#45;&gt;Node31</title>
<path fill="none" stroke="midnightblue" d="M696.739,-165.436C663.933,-155.255 616.917,-140.664 587.442,-131.516"/>
<polygon fill="midnightblue" stroke="midnightblue" points="695.841,-168.822 706.429,-168.444 697.916,-162.137 695.841,-168.822"/>
</g>
<!-- Node11&#45;&gt;Node32 -->
<g id="edge29" class="edge"><title>Node11&#45;&gt;Node32</title>
<path fill="none" stroke="midnightblue" d="M778.312,-166.024C819.492,-155.823 879.973,-140.841 917.619,-131.516"/>
<polygon fill="midnightblue" stroke="midnightblue" points="777.408,-162.642 768.543,-168.444 779.091,-169.436 777.408,-162.642"/>
</g>
<!-- Node11&#45;&gt;Node33 -->
<g id="edge34" class="edge"><title>Node11&#45;&gt;Node33</title>
<path fill="none" stroke="midnightblue" d="M801.17,-170.884C880.793,-163.302 1017.39,-149.247 1134,-132 1137.25,-131.519 1140.62,-130.983 1143.99,-130.418"/>
<polygon fill="midnightblue" stroke="midnightblue" points="800.423,-167.439 790.797,-171.866 801.082,-174.408 800.423,-167.439"/>
</g>
<!-- Node13 -->
<g id="node4" class="node"><title>Node13</title>
<g id="a_node4"><a xlink:href="Animation_8cpp.html" target="_top" xlink:title="src/Animation.cpp">
<polygon fill="white" stroke="black" points="261.5,-56.5 261.5,-75.5 356.5,-75.5 356.5,-56.5 261.5,-56.5"/>
<text text-anchor="middle" x="309" y="-63.5" font-family="Helvetica,sans-Serif" font-size="10.00">src/Animation.cpp</text>
</a>
</g>
</g>
<!-- Node12&#45;&gt;Node13 -->
<g id="edge3" class="edge"><title>Node12&#45;&gt;Node13</title>
<path fill="none" stroke="midnightblue" d="M310.934,-101.805C310.439,-92.9102 309.877,-82.7798 309.486,-75.7511"/>
<polygon fill="midnightblue" stroke="midnightblue" points="307.455,-102.293 311.505,-112.083 314.444,-101.904 307.455,-102.293"/>
</g>
<!-- Node15 -->
<g id="node6" class="node"><title>Node15</title>
<g id="a_node6"><a xlink:href="Button_8cpp.html" target="_top" xlink:title="src/Button.cpp">
<polygon fill="white" stroke="black" points="849,-56.5 849,-75.5 929,-75.5 929,-56.5 849,-56.5"/>
<text text-anchor="middle" x="889" y="-63.5" font-family="Helvetica,sans-Serif" font-size="10.00">src/Button.cpp</text>
</a>
</g>
</g>
<!-- Node14&#45;&gt;Node15 -->
<g id="edge6" class="edge"><title>Node14&#45;&gt;Node15</title>
<path fill="none" stroke="midnightblue" d="M845.467,-105.537C856.344,-95.9087 869.944,-83.8694 879.021,-75.8339"/>
<polygon fill="midnightblue" stroke="midnightblue" points="842.968,-103.075 837.801,-112.324 847.608,-108.316 842.968,-103.075"/>
</g>
<!-- Node16&#45;&gt;Node13 -->
<g id="edge11" class="edge"><title>Node16&#45;&gt;Node13</title>
<path fill="none" stroke="midnightblue" d="M399.863,-108.232C377.604,-98.1312 347.144,-84.3091 327.768,-75.5164"/>
<polygon fill="midnightblue" stroke="midnightblue" points="398.591,-111.498 409.144,-112.444 401.484,-105.124 398.591,-111.498"/>
</g>
<!-- Node16&#45;&gt;Node17 -->
<g id="edge8" class="edge"><title>Node16&#45;&gt;Node17</title>
<path fill="none" stroke="midnightblue" d="M371.317,-111.926C255.853,-94.7215 225.34,-92.8752 114,-76 111.321,-75.594 108.571,-75.1692 105.796,-74.7345"/>
<polygon fill="midnightblue" stroke="midnightblue" points="370.852,-115.395 381.26,-113.414 371.889,-108.472 370.852,-115.395"/>
</g>
<!-- Node16&#45;&gt;Node18 -->
<g id="edge10" class="edge"><title>Node16&#45;&gt;Node18</title>
<path fill="none" stroke="midnightblue" d="M416.231,-103.532C404.969,-88.3253 386.543,-67.0387 365,-56 323.066,-34.513 194.815,-21.3379 118.304,-15.1766"/>
<polygon fill="midnightblue" stroke="midnightblue" points="413.642,-105.933 422.28,-112.068 419.354,-101.885 413.642,-105.933"/>
</g>
<!-- Node19 -->
<g id="node10" class="node"><title>Node19</title>
<g id="a_node10"><a xlink:href="Camera_8cpp.html" target="_top" xlink:title="src/Camera.cpp">
<polygon fill="white" stroke="black" points="495,-0.5 495,-19.5 581,-19.5 581,-0.5 495,-0.5"/>
<text text-anchor="middle" x="538" y="-7.5" font-family="Helvetica,sans-Serif" font-size="10.00">src/Camera.cpp</text>
</a>
</g>
</g>
<!-- Node16&#45;&gt;Node19 -->
<g id="edge12" class="edge"><title>Node16&#45;&gt;Node19</title>
<path fill="none" stroke="midnightblue" d="M441.499,-104.28C452.668,-90.782 469.205,-71.5451 485,-56 498.765,-42.4531 516.027,-28.2617 527.038,-19.5232"/>
<polygon fill="midnightblue" stroke="midnightblue" points="438.622,-102.27 434.997,-112.226 444.039,-106.703 438.622,-102.27"/>
</g>
<!-- Node16&#45;&gt;Node20 -->
<g id="edge13" class="edge"><title>Node16&#45;&gt;Node20</title>
<path fill="none" stroke="midnightblue" d="M461.889,-109.039C490.677,-98.8786 531.287,-84.5457 556.87,-75.5164"/>
<polygon fill="midnightblue" stroke="midnightblue" points="460.508,-105.815 452.243,-112.444 462.838,-112.416 460.508,-105.815"/>
</g>
<!-- Node21 -->
<g id="node12" class="node"><title>Node21</title>
<g id="a_node12"><a xlink:href="RectTransform_8cpp.html" target="_top" xlink:title="src/RectTransform.cpp">
<polygon fill="white" stroke="black" points="612.5,-0.5 612.5,-19.5 729.5,-19.5 729.5,-0.5 612.5,-0.5"/>
<text text-anchor="middle" x="671" y="-7.5" font-family="Helvetica,sans-Serif" font-size="10.00">src/RectTransform.cpp</text>
</a>
</g>
</g>
<!-- Node16&#45;&gt;Node21 -->
<g id="edge14" class="edge"><title>Node16&#45;&gt;Node21</title>
<path fill="none" stroke="midnightblue" d="M446.858,-106.214C468.633,-89.354 503.333,-63.1897 518,-56 553.303,-38.6948 596.517,-26.7421 628.003,-19.5283"/>
<polygon fill="midnightblue" stroke="midnightblue" points="444.69,-103.467 438.947,-112.371 448.989,-108.991 444.69,-103.467"/>
</g>
<!-- Node22 -->
<g id="node13" class="node"><title>Node22</title>
<g id="a_node13"><a xlink:href="Sprite_8cpp.html" target="_top" xlink:title="src/Sprite.cpp">
<polygon fill="white" stroke="black" points="384.5,-0.5 384.5,-19.5 461.5,-19.5 461.5,-0.5 384.5,-0.5"/>
<text text-anchor="middle" x="423" y="-7.5" font-family="Helvetica,sans-Serif" font-size="10.00">src/Sprite.cpp</text>
</a>
</g>
</g>
<!-- Node16&#45;&gt;Node22 -->
<g id="edge15" class="edge"><title>Node16&#45;&gt;Node22</title>
<path fill="none" stroke="midnightblue" d="M427.152,-102.348C426.057,-78.2538 424.196,-37.3079 423.391,-19.5914"/>
<polygon fill="midnightblue" stroke="midnightblue" points="423.657,-102.538 427.608,-112.368 430.65,-102.22 423.657,-102.538"/>
</g>
<!-- Node23 -->
<g id="node14" class="node"><title>Node23</title>
<g id="a_node14"><a xlink:href="State_8cpp.html" target="_top" xlink:title="src/State.cpp">
<polygon fill="white" stroke="black" points="652.5,-56.5 652.5,-75.5 727.5,-75.5 727.5,-56.5 652.5,-56.5"/>
<text text-anchor="middle" x="690" y="-63.5" font-family="Helvetica,sans-Serif" font-size="10.00">src/State.cpp</text>
</a>
</g>
</g>
<!-- Node16&#45;&gt;Node23 -->
<g id="edge16" class="edge"><title>Node16&#45;&gt;Node23</title>
<path fill="none" stroke="midnightblue" d="M479.336,-110.419C530.252,-99.9252 607.053,-84.0959 652.5,-74.729"/>
<polygon fill="midnightblue" stroke="midnightblue" points="478.602,-106.997 469.515,-112.444 480.015,-113.853 478.602,-106.997"/>
</g>
<!-- Node17&#45;&gt;Node18 -->
<g id="edge9" class="edge"><title>Node17&#45;&gt;Node18</title>
<path fill="none" stroke="midnightblue" d="M59,-45.8045C59,-36.9102 59,-26.7798 59,-19.7511"/>
<polygon fill="midnightblue" stroke="midnightblue" points="55.5001,-46.083 59,-56.083 62.5001,-46.083 55.5001,-46.083"/>
</g>
<!-- Node24&#45;&gt;Node23 -->
<g id="edge25" class="edge"><title>Node24&#45;&gt;Node23</title>
<path fill="none" stroke="midnightblue" d="M713.7,-103.566C707.678,-94.2747 700.531,-83.2484 695.672,-75.7511"/>
<polygon fill="midnightblue" stroke="midnightblue" points="710.844,-105.595 719.22,-112.083 716.719,-101.788 710.844,-105.595"/>
</g>
<!-- Node25 -->
<g id="node16" class="node"><title>Node25</title>
<g id="a_node16"><a xlink:href="Game_8h.html" target="_top" xlink:title="include/Game.h">
<polygon fill="white" stroke="black" points="745.5,-56.5 745.5,-75.5 830.5,-75.5 830.5,-56.5 745.5,-56.5"/>
<text text-anchor="middle" x="788" y="-63.5" font-family="Helvetica,sans-Serif" font-size="10.00">include/Game.h</text>
</a>
</g>
</g>
<!-- Node24&#45;&gt;Node25 -->
<g id="edge18" class="edge"><title>Node24&#45;&gt;Node25</title>
<path fill="none" stroke="midnightblue" d="M743.04,-105.537C754.273,-95.9087 768.319,-83.8694 777.694,-75.8339"/>
<polygon fill="midnightblue" stroke="midnightblue" points="740.437,-103.159 735.122,-112.324 744.992,-108.473 740.437,-103.159"/>
</g>
<!-- Node25&#45;&gt;Node19 -->
<g id="edge19" class="edge"><title>Node25&#45;&gt;Node19</title>
<path fill="none" stroke="midnightblue" d="M738.377,-54.2815C691.134,-44.0769 620.964,-28.9203 577.428,-19.5164"/>
<polygon fill="midnightblue" stroke="midnightblue" points="737.873,-57.7533 748.387,-56.4435 739.351,-50.9111 737.873,-57.7533"/>
</g>
<!-- Node25&#45;&gt;Node21 -->
<g id="edge21" class="edge"><title>Node25&#45;&gt;Node21</title>
<path fill="none" stroke="midnightblue" d="M760.336,-52.2321C738.451,-42.1312 708.503,-28.3091 689.452,-19.5164"/>
<polygon fill="midnightblue" stroke="midnightblue" points="758.915,-55.4308 769.461,-56.4435 761.848,-49.075 758.915,-55.4308"/>
</g>
<!-- Node25&#45;&gt;Node22 -->
<g id="edge23" class="edge"><title>Node25&#45;&gt;Node22</title>
<path fill="none" stroke="midnightblue" d="M735.365,-55.9931C690.294,-49.2518 534.82,-26.9931 461.547,-16.5119"/>
<polygon fill="midnightblue" stroke="midnightblue" points="735.035,-59.4833 745.449,-57.5335 736.092,-52.5635 735.035,-59.4833"/>
</g>
<!-- Node26 -->
<g id="node17" class="node"><title>Node26</title>
<g id="a_node17"><a xlink:href="Game_8cpp.html" target="_top" xlink:title="src/Game.cpp">
<polygon fill="white" stroke="black" points="748,-0.5 748,-19.5 826,-19.5 826,-0.5 748,-0.5"/>
<text text-anchor="middle" x="787" y="-7.5" font-family="Helvetica,sans-Serif" font-size="10.00">src/Game.cpp</text>
</a>
</g>
</g>
<!-- Node25&#45;&gt;Node26 -->
<g id="edge20" class="edge"><title>Node25&#45;&gt;Node26</title>
<path fill="none" stroke="midnightblue" d="M787.645,-45.8045C787.48,-36.9102 787.292,-26.7798 787.162,-19.7511"/>
<polygon fill="midnightblue" stroke="midnightblue" points="784.15,-46.1495 787.835,-56.083 791.149,-46.0199 784.15,-46.1495"/>
</g>
<!-- Node27 -->
<g id="node18" class="node"><title>Node27</title>
<g id="a_node18"><a xlink:href="Resources_8cpp.html" target="_top" xlink:title="src/Resources.cpp">
<polygon fill="white" stroke="black" points="844.5,-0.5 844.5,-19.5 943.5,-19.5 943.5,-0.5 844.5,-0.5"/>
<text text-anchor="middle" x="894" y="-7.5" font-family="Helvetica,sans-Serif" font-size="10.00">src/Resources.cpp</text>
</a>
</g>
</g>
<!-- Node25&#45;&gt;Node27 -->
<g id="edge22" class="edge"><title>Node25&#45;&gt;Node27</title>
<path fill="none" stroke="midnightblue" d="M814.056,-51.7261C833.684,-41.7271 860.028,-28.3065 877.012,-19.6545"/>
<polygon fill="midnightblue" stroke="midnightblue" points="812.352,-48.666 805.031,-56.324 815.53,-54.9033 812.352,-48.666"/>
</g>
<!-- Node28 -->
<g id="node19" class="node"><title>Node28</title>
<g id="a_node19"><a xlink:href="Text_8cpp.html" target="_top" xlink:title="src/Text.cpp">
<polygon fill="white" stroke="black" points="961.5,-0.5 961.5,-19.5 1032.5,-19.5 1032.5,-0.5 961.5,-0.5"/>
<text text-anchor="middle" x="997" y="-7.5" font-family="Helvetica,sans-Serif" font-size="10.00">src/Text.cpp</text>
</a>
</g>
</g>
<!-- Node25&#45;&gt;Node28 -->
<g id="edge24" class="edge"><title>Node25&#45;&gt;Node28</title>
<path fill="none" stroke="midnightblue" d="M830.984,-53.8941C870.452,-43.6966 928.1,-28.802 964.038,-19.5164"/>
<polygon fill="midnightblue" stroke="midnightblue" points="829.923,-50.5532 821.117,-56.4435 831.674,-57.3306 829.923,-50.5532"/>
</g>
<!-- Node30 -->
<g id="node21" class="node"><title>Node30</title>
<g id="a_node21"><a xlink:href="Grouper_8cpp.html" target="_top" xlink:title="src/Grouper.cpp">
<polygon fill="white" stroke="black" points="1030,-56.5 1030,-75.5 1116,-75.5 1116,-56.5 1030,-56.5"/>
<text text-anchor="middle" x="1073" y="-63.5" font-family="Helvetica,sans-Serif" font-size="10.00">src/Grouper.cpp</text>
</a>
</g>
</g>
<!-- Node29&#45;&gt;Node30 -->
<g id="edge27" class="edge"><title>Node29&#45;&gt;Node30</title>
<path fill="none" stroke="midnightblue" d="M1076.9,-102.101C1075.9,-93.1357 1074.76,-82.8579 1073.97,-75.7511"/>
<polygon fill="midnightblue" stroke="midnightblue" points="1073.43,-102.531 1078.01,-112.083 1080.38,-101.758 1073.43,-102.531"/>
</g>
<!-- Node32&#45;&gt;Node15 -->
<g id="edge30" class="edge"><title>Node32&#45;&gt;Node15</title>
<path fill="none" stroke="midnightblue" d="M933.96,-105.537C922.727,-95.9087 908.681,-83.8694 899.306,-75.8339"/>
<polygon fill="midnightblue" stroke="midnightblue" points="932.008,-108.473 941.878,-112.324 936.563,-103.159 932.008,-108.473"/>
</g>
<!-- Node32&#45;&gt;Node21 -->
<g id="edge32" class="edge"><title>Node32&#45;&gt;Node21</title>
<path fill="none" stroke="midnightblue" d="M953.218,-101.99C953.053,-87.3539 950.247,-67.7061 938,-56 930.492,-48.8239 806.075,-30.1058 729.762,-19.2044"/>
<polygon fill="midnightblue" stroke="midnightblue" points="949.707,-102.308 952.914,-112.406 956.704,-102.512 949.707,-102.308"/>
</g>
<!-- Node32&#45;&gt;Node28 -->
<g id="edge33" class="edge"><title>Node32&#45;&gt;Node28</title>
<path fill="none" stroke="midnightblue" d="M959.668,-103.056C963.161,-94.8269 967.327,-84.9342 971,-76 979.225,-55.9905 988.582,-32.3818 993.521,-19.8529"/>
<polygon fill="midnightblue" stroke="midnightblue" points="956.39,-101.822 955.691,-112.394 962.83,-104.565 956.39,-101.822"/>
</g>
<!-- Node32&#45;&gt;Node30 -->
<g id="edge31" class="edge"><title>Node32&#45;&gt;Node30</title>
<path fill="none" stroke="midnightblue" d="M980.306,-108.368C1002.97,-98.2553 1034.13,-84.3486 1053.92,-75.5164"/>
<polygon fill="midnightblue" stroke="midnightblue" points="978.878,-105.172 971.173,-112.444 981.731,-111.564 978.878,-105.172"/>
</g>
<!-- Node33&#45;&gt;Node28 -->
<g id="edge35" class="edge"><title>Node33&#45;&gt;Node28</title>
<path fill="none" stroke="midnightblue" d="M1171.3,-103.561C1160.73,-89.0229 1143.97,-68.7036 1125,-56 1096.72,-37.0583 1059.58,-25.1627 1032.6,-18.3937"/>
<polygon fill="midnightblue" stroke="midnightblue" points="1168.7,-105.958 1177.3,-112.142 1174.43,-101.943 1168.7,-105.958"/>
</g>
<!-- Node34&#45;&gt;Node12 -->
<g id="edge38" class="edge"><title>Node34&#45;&gt;Node12</title>
<path fill="none" stroke="midnightblue" d="M285.382,-159.855C292.135,-150.505 300.209,-139.327 305.68,-131.751"/>
<polygon fill="midnightblue" stroke="midnightblue" points="282.458,-157.927 279.44,-168.083 288.132,-162.025 282.458,-157.927"/>
</g>
<!-- Node34&#45;&gt;Node22 -->
<g id="edge42" class="edge"><title>Node34&#45;&gt;Node22</title>
<path fill="none" stroke="midnightblue" d="M262.373,-159.415C248.491,-133.917 228.557,-86.4106 252,-56 268.025,-35.2127 338.939,-22.1177 384.263,-15.7135"/>
<polygon fill="midnightblue" stroke="midnightblue" points="259.461,-161.374 267.466,-168.315 265.537,-157.897 259.461,-161.374"/>
</g>
<!-- Node35 -->
<g id="node26" class="node"><title>Node35</title>
<g id="a_node26"><a xlink:href="Tileset_8h.html" target="_top" xlink:title="include/Tileset.h">
<polygon fill="white" stroke="black" points="117,-112.5 117,-131.5 205,-131.5 205,-112.5 117,-112.5"/>
<text text-anchor="middle" x="161" y="-119.5" font-family="Helvetica,sans-Serif" font-size="10.00">include/Tileset.h</text>
</a>
</g>
</g>
<!-- Node34&#45;&gt;Node35 -->
<g id="edge39" class="edge"><title>Node34&#45;&gt;Node35</title>
<path fill="none" stroke="midnightblue" d="M245.751,-163.862C224.984,-153.849 196.977,-140.346 178.95,-131.655"/>
<polygon fill="midnightblue" stroke="midnightblue" points="244.477,-167.134 255.005,-168.324 247.518,-160.828 244.477,-167.134"/>
</g>
<!-- Node35&#45;&gt;Node17 -->
<g id="edge40" class="edge"><title>Node35&#45;&gt;Node17</title>
<path fill="none" stroke="midnightblue" d="M135.669,-107.59C116.81,-97.6052 91.6158,-84.2672 75.3474,-75.6545"/>
<polygon fill="midnightblue" stroke="midnightblue" points="134.136,-110.738 144.612,-112.324 137.412,-104.552 134.136,-110.738"/>
</g>
<!-- Node36 -->
<g id="node27" class="node"><title>Node36</title>
<g id="a_node27"><a xlink:href="Tileset_8cpp.html" target="_top" xlink:title="src/Tileset.cpp">
<polygon fill="white" stroke="black" points="123.5,-56.5 123.5,-75.5 204.5,-75.5 204.5,-56.5 123.5,-56.5"/>
<text text-anchor="middle" x="164" y="-63.5" font-family="Helvetica,sans-Serif" font-size="10.00">src/Tileset.cpp</text>
</a>
</g>
</g>
<!-- Node35&#45;&gt;Node36 -->
<g id="edge41" class="edge"><title>Node35&#45;&gt;Node36</title>
<path fill="none" stroke="midnightblue" d="M162.066,-101.805C162.561,-92.9102 163.123,-82.7798 163.514,-75.7511"/>
<polygon fill="midnightblue" stroke="midnightblue" points="158.556,-101.904 161.495,-112.083 165.545,-102.293 158.556,-101.904"/>
</g>
</g>
</svg>
