<?xml version="1.0" encoding="UTF-8" standalone="no"?>
<!DOCTYPE svg PUBLIC "-//W3C//DTD SVG 1.1//EN"
 "http://www.w3.org/Graphics/SVG/1.1/DTD/svg11.dtd">
<!-- Generated by graphviz version 2.40.1 (20161225.0304)
 -->
<!-- Title: include/Component.h Pages: 1 -->
<svg width="1133pt" height="420pt"
 viewBox="0.00 0.00 1132.88 420.00" xmlns="http://www.w3.org/2000/svg" xmlns:xlink="http://www.w3.org/1999/xlink">
<g id="graph0" class="graph" transform="scale(1 1) rotate(0) translate(4 416)">
<title>include/Component.h</title>
<polygon fill="#ffffff" stroke="transparent" points="-4,4 -4,-416 1128.8817,-416 1128.8817,4 -4,4"/>
<!-- Node10 -->
<g id="node1" class="node">
<title>Node10</title>
<polygon fill="#bfbfbf" stroke="#000000" points="605.3817,-392.5 605.3817,-411.5 714.3817,-411.5 714.3817,-392.5 605.3817,-392.5"/>
<text text-anchor="middle" x="659.8817" y="-399.5" font-family="Helvetica,sans-Serif" font-size="10.00" fill="#000000">include/Component.h</text>
</g>
<!-- Node11 -->
<g id="node2" class="node">
<title>Node11</title>
<g id="a_node2"><a xlink:href="Button_8h.html" target="_top" xlink:title="include/Button.h">
<polygon fill="#ffffff" stroke="#000000" points="493.3817,-280.5 493.3817,-299.5 580.3817,-299.5 580.3817,-280.5 493.3817,-280.5"/>
<text text-anchor="middle" x="536.8817" y="-287.5" font-family="Helvetica,sans-Serif" font-size="10.00" fill="#000000">include/Button.h</text>
</a>
</g>
</g>
<!-- Node10&#45;&gt;Node11 -->
<g id="edge1" class="edge">
<title>Node10&#45;&gt;Node11</title>
<path fill="none" stroke="#191970" d="M646.131,-384.172C634.9757,-370.2749 618.4369,-350.9006 601.8817,-336 586.2629,-321.9422 566.2764,-308.3612 552.6151,-299.6468"/>
<polygon fill="#191970" stroke="#191970" points="643.689,-386.7276 652.6303,-392.4114 649.185,-382.3923 643.689,-386.7276"/>
</g>
<!-- Node13 -->
<g id="node4" class="node">
<title>Node13</title>
<g id="a_node4"><a xlink:href="GameObject_8h.html" target="_top" xlink:title="include/GameObject.h">
<polygon fill="#ffffff" stroke="#000000" points="480.3817,-336.5 480.3817,-355.5 593.3817,-355.5 593.3817,-336.5 480.3817,-336.5"/>
<text text-anchor="middle" x="536.8817" y="-343.5" font-family="Helvetica,sans-Serif" font-size="10.00" fill="#000000">include/GameObject.h</text>
</a>
</g>
</g>
<!-- Node10&#45;&gt;Node13 -->
<g id="edge3" class="edge">
<title>Node10&#45;&gt;Node13</title>
<path fill="none" stroke="#191970" d="M624.0873,-388.3833C600.3743,-378.1985 570.5719,-364.5284 552.533,-355.5011"/>
<polygon fill="#191970" stroke="#191970" points="622.9224,-391.6909 633.4952,-392.3733 625.6555,-385.2466 622.9224,-391.6909"/>
</g>
<!-- Node15 -->
<g id="node6" class="node">
<title>Node15</title>
<g id="a_node6"><a xlink:href="TileMap_8h.html" target="_top" xlink:title="include/TileMap.h">
<polygon fill="#ffffff" stroke="#000000" points="211.3817,-112.5 211.3817,-131.5 304.3817,-131.5 304.3817,-112.5 211.3817,-112.5"/>
<text text-anchor="middle" x="257.8817" y="-119.5" font-family="Helvetica,sans-Serif" font-size="10.00" fill="#000000">include/TileMap.h</text>
</a>
</g>
</g>
<!-- Node10&#45;&gt;Node15 -->
<g id="edge46" class="edge">
<title>Node10&#45;&gt;Node15</title>
<path fill="none" stroke="#191970" d="M595.025,-397.7437C428.8655,-385.9756 .8817,-349.8545 .8817,-290 .8817,-290 .8817,-290 .8817,-234 .8817,-203.4754 -2.6451,-188.5984 19.8817,-168 47.2901,-142.938 150.0371,-130.5682 211.2094,-125.3024"/>
<polygon fill="#191970" stroke="#191970" points="594.8907,-401.2427 605.1111,-398.4508 595.3804,-394.2599 594.8907,-401.2427"/>
</g>
<!-- Node30 -->
<g id="node21" class="node">
<title>Node30</title>
<g id="a_node21"><a xlink:href="Grouper_8h.html" target="_top" xlink:title="include/Grouper.h">
<polygon fill="#ffffff" stroke="#000000" points="598.3817,-280.5 598.3817,-299.5 691.3817,-299.5 691.3817,-280.5 598.3817,-280.5"/>
<text text-anchor="middle" x="644.8817" y="-287.5" font-family="Helvetica,sans-Serif" font-size="10.00" fill="#000000">include/Grouper.h</text>
</a>
</g>
</g>
<!-- Node10&#45;&gt;Node30 -->
<g id="edge45" class="edge">
<title>Node10&#45;&gt;Node30</title>
<path fill="none" stroke="#191970" d="M657.2393,-382.2702C653.9887,-357.9985 648.6012,-317.7725 646.1574,-299.5249"/>
<polygon fill="#191970" stroke="#191970" points="653.8063,-383.0041 658.6028,-392.4509 660.7443,-382.0748 653.8063,-383.0041"/>
</g>
<!-- Node32 -->
<g id="node23" class="node">
<title>Node32</title>
<g id="a_node23"><a xlink:href="RectTransform_8h.html" target="_top" xlink:title="include/RectTransform.h">
<polygon fill="#ffffff" stroke="#000000" points="709.8817,-280.5 709.8817,-299.5 833.8817,-299.5 833.8817,-280.5 709.8817,-280.5"/>
<text text-anchor="middle" x="771.8817" y="-287.5" font-family="Helvetica,sans-Serif" font-size="10.00" fill="#000000">include/RectTransform.h</text>
</a>
</g>
</g>
<!-- Node10&#45;&gt;Node32 -->
<g id="edge48" class="edge">
<title>Node10&#45;&gt;Node32</title>
<path fill="none" stroke="#191970" d="M676.7281,-385.1536C700.5705,-361.3113 743.3661,-318.5156 762.3568,-299.5249"/>
<polygon fill="#191970" stroke="#191970" points="674.027,-382.905 669.4308,-392.4509 678.9768,-387.8547 674.027,-382.905"/>
</g>
<!-- Node33 -->
<g id="node24" class="node">
<title>Node33</title>
<g id="a_node24"><a xlink:href="Sprite_8h.html" target="_top" xlink:title="include/Sprite.h">
<polygon fill="#ffffff" stroke="#000000" points="873.8817,-224.5 873.8817,-243.5 957.8817,-243.5 957.8817,-224.5 873.8817,-224.5"/>
<text text-anchor="middle" x="915.8817" y="-231.5" font-family="Helvetica,sans-Serif" font-size="10.00" fill="#000000">include/Sprite.h</text>
</a>
</g>
</g>
<!-- Node10&#45;&gt;Node33 -->
<g id="edge47" class="edge">
<title>Node10&#45;&gt;Node33</title>
<path fill="none" stroke="#191970" d="M689.8564,-387.9241C727.1582,-369.8264 792.1301,-336.369 842.8817,-300 867.6019,-282.2853 893.2381,-257.2968 906.5653,-243.7139"/>
<polygon fill="#191970" stroke="#191970" points="688.045,-384.9115 680.5492,-392.3991 691.0782,-391.2202 688.045,-384.9115"/>
</g>
<!-- Node37 -->
<g id="node28" class="node">
<title>Node37</title>
<g id="a_node28"><a xlink:href="Text_8h.html" target="_top" xlink:title="include/Text.h">
<polygon fill="#ffffff" stroke="#000000" points="889.8817,-280.5 889.8817,-299.5 967.8817,-299.5 967.8817,-280.5 889.8817,-280.5"/>
<text text-anchor="middle" x="928.8817" y="-287.5" font-family="Helvetica,sans-Serif" font-size="10.00" fill="#000000">include/Text.h</text>
</a>
</g>
</g>
<!-- Node10&#45;&gt;Node37 -->
<g id="edge49" class="edge">
<title>Node10&#45;&gt;Node37</title>
<path fill="none" stroke="#191970" d="M724.6253,-393.1054C778.7298,-384.7898 850.9245,-371.3709 875.8817,-356 898.655,-341.9743 915.8354,-314.5328 923.865,-299.8402"/>
<polygon fill="#191970" stroke="#191970" points="723.7723,-389.6945 714.4072,-394.6488 724.8178,-396.616 723.7723,-389.6945"/>
</g>
<!-- Node38 -->
<g id="node29" class="node">
<title>Node38</title>
<g id="a_node29"><a xlink:href="Component_8cpp.html" target="_top" xlink:title="src/Component.cpp">
<polygon fill="#ffffff" stroke="#000000" points="927.8817,-336.5 927.8817,-355.5 1029.8817,-355.5 1029.8817,-336.5 927.8817,-336.5"/>
<text text-anchor="middle" x="978.8817" y="-343.5" font-family="Helvetica,sans-Serif" font-size="10.00" fill="#000000">src/Component.cpp</text>
</a>
</g>
</g>
<!-- Node10&#45;&gt;Node38 -->
<g id="edge50" class="edge">
<title>Node10&#45;&gt;Node38</title>
<path fill="none" stroke="#191970" d="M724.473,-390.6611C784.4547,-380.1314 872.5791,-364.6613 927.7947,-354.9682"/>
<polygon fill="#191970" stroke="#191970" points="723.6015,-387.2605 714.3573,-392.4369 724.8119,-394.155 723.6015,-387.2605"/>
</g>
<!-- Node12 -->
<g id="node3" class="node">
<title>Node12</title>
<g id="a_node3"><a xlink:href="Button_8cpp.html" target="_top" xlink:title="src/Button.cpp">
<polygon fill="#ffffff" stroke="#000000" points="595.8817,-224.5 595.8817,-243.5 675.8817,-243.5 675.8817,-224.5 595.8817,-224.5"/>
<text text-anchor="middle" x="635.8817" y="-231.5" font-family="Helvetica,sans-Serif" font-size="10.00" fill="#000000">src/Button.cpp</text>
</a>
</g>
</g>
<!-- Node11&#45;&gt;Node12 -->
<g id="edge2" class="edge">
<title>Node11&#45;&gt;Node12</title>
<path fill="none" stroke="#191970" d="M563.3174,-275.0465C580.9325,-265.0824 603.5664,-252.2794 618.8348,-243.6427"/>
<polygon fill="#191970" stroke="#191970" points="561.107,-272.2756 554.1262,-280.2455 564.5534,-278.3684 561.107,-272.2756"/>
</g>
<!-- Node13&#45;&gt;Node10 -->
<g id="edge4" class="edge">
<title>Node13&#45;&gt;Node10</title>
<path fill="none" stroke="#191970" d="M572.3473,-359.4755C596.0036,-369.6279 625.8319,-383.3032 643.9793,-392.3733"/>
<polygon fill="#191970" stroke="#191970" points="573.5406,-356.18 562.9675,-355.5011 570.8096,-362.6253 573.5406,-356.18"/>
</g>
<!-- Node13&#45;&gt;Node11 -->
<g id="edge5" class="edge">
<title>Node13&#45;&gt;Node11</title>
<path fill="none" stroke="#191970" d="M536.8817,-326.1575C536.8817,-317.155 536.8817,-306.9199 536.8817,-299.6427"/>
<polygon fill="#191970" stroke="#191970" points="533.3818,-326.2455 536.8817,-336.2455 540.3818,-326.2456 533.3818,-326.2455"/>
</g>
<!-- Node14 -->
<g id="node5" class="node">
<title>Node14</title>
<g id="a_node5"><a xlink:href="Camera_8h.html" target="_top" xlink:title="include/Camera.h">
<polygon fill="#ffffff" stroke="#000000" points="381.3817,-224.5 381.3817,-243.5 474.3817,-243.5 474.3817,-224.5 381.3817,-224.5"/>
<text text-anchor="middle" x="427.8817" y="-231.5" font-family="Helvetica,sans-Serif" font-size="10.00" fill="#000000">include/Camera.h</text>
</a>
</g>
</g>
<!-- Node13&#45;&gt;Node14 -->
<g id="edge6" class="edge">
<title>Node13&#45;&gt;Node14</title>
<path fill="none" stroke="#191970" d="M516.6839,-329.7149C506.514,-321.2091 494.1887,-310.423 483.8817,-300 465.2853,-281.1942 445.7902,-257.0511 435.4218,-243.7981"/>
<polygon fill="#191970" stroke="#191970" points="514.6861,-332.604 524.6281,-336.2654 519.1394,-327.2032 514.6861,-332.604"/>
</g>
<!-- Node19 -->
<g id="node10" class="node">
<title>Node19</title>
<g id="a_node10"><a xlink:href="GameObject_8cpp.html" target="_top" xlink:title="src/GameObject.cpp">
<polygon fill="#ffffff" stroke="#000000" points="29.3817,-168.5 29.3817,-187.5 136.3817,-187.5 136.3817,-168.5 29.3817,-168.5"/>
<text text-anchor="middle" x="82.8817" y="-175.5" font-family="Helvetica,sans-Serif" font-size="10.00" fill="#000000">src/GameObject.cpp</text>
</a>
</g>
</g>
<!-- Node13&#45;&gt;Node19 -->
<g id="edge44" class="edge">
<title>Node13&#45;&gt;Node19</title>
<path fill="none" stroke="#191970" d="M470.2432,-340.2658C418.8554,-334.3049 346.6951,-322.5461 286.8817,-300 208.4939,-270.4525 126.1492,-211.0519 95.4132,-187.7229"/>
<polygon fill="#191970" stroke="#191970" points="469.9071,-343.7499 480.234,-341.3821 470.6845,-336.7932 469.9071,-343.7499"/>
</g>
<!-- Node23 -->
<g id="node14" class="node">
<title>Node23</title>
<g id="a_node14"><a xlink:href="State_8h.html" target="_top" xlink:title="include/State.h">
<polygon fill="#ffffff" stroke="#000000" points="295.8817,-280.5 295.8817,-299.5 377.8817,-299.5 377.8817,-280.5 295.8817,-280.5"/>
<text text-anchor="middle" x="336.8817" y="-287.5" font-family="Helvetica,sans-Serif" font-size="10.00" fill="#000000">include/State.h</text>
</a>
</g>
</g>
<!-- Node13&#45;&gt;Node23 -->
<g id="edge15" class="edge">
<title>Node13&#45;&gt;Node23</title>
<path fill="none" stroke="#191970" d="M492.5539,-333.5882C455.8087,-323.2996 404.3442,-308.8895 370.8143,-299.5011"/>
<polygon fill="#191970" stroke="#191970" points="491.9271,-337.0473 502.5005,-336.3733 493.8146,-330.3065 491.9271,-337.0473"/>
</g>
<!-- Node13&#45;&gt;Node30 -->
<g id="edge29" class="edge">
<title>Node13&#45;&gt;Node30</title>
<path fill="none" stroke="#191970" d="M564.6588,-331.5971C584.0199,-321.558 609.3202,-308.4393 626.2851,-299.6427"/>
<polygon fill="#191970" stroke="#191970" points="562.9603,-328.5352 555.6939,-336.2455 566.1826,-334.7495 562.9603,-328.5352"/>
</g>
<!-- Node13&#45;&gt;Node32 -->
<g id="edge31" class="edge">
<title>Node13&#45;&gt;Node32</title>
<path fill="none" stroke="#191970" d="M586.7669,-334.1125C630.0338,-323.8021 691.8421,-309.0733 731.9163,-299.5237"/>
<polygon fill="#191970" stroke="#191970" points="585.9289,-330.7141 577.0126,-336.4369 587.5516,-337.5234 585.9289,-330.7141"/>
</g>
<!-- Node36 -->
<g id="node27" class="node">
<title>Node36</title>
<g id="a_node27"><a xlink:href="NearestGOFinder_8h.html" target="_top" xlink:title="include/NearestGOFinder.h">
<polygon fill="#ffffff" stroke="#000000" points="32.3817,-280.5 32.3817,-299.5 167.3817,-299.5 167.3817,-280.5 32.3817,-280.5"/>
<text text-anchor="middle" x="99.8817" y="-287.5" font-family="Helvetica,sans-Serif" font-size="10.00" fill="#000000">include/NearestGOFinder.h</text>
</a>
</g>
</g>
<!-- Node13&#45;&gt;Node36 -->
<g id="edge41" class="edge">
<title>Node13&#45;&gt;Node36</title>
<path fill="none" stroke="#191970" d="M470.2495,-337.4613C388.3129,-326.9614 250.0009,-309.2372 167.5792,-298.6752"/>
<polygon fill="#191970" stroke="#191970" points="469.8358,-340.9368 480.1996,-338.7364 470.7256,-333.9936 469.8358,-340.9368"/>
</g>
<!-- Node13&#45;&gt;Node37 -->
<g id="edge42" class="edge">
<title>Node13&#45;&gt;Node37</title>
<path fill="none" stroke="#191970" d="M603.4589,-336.489C685.709,-324.739 822.9432,-305.1341 889.835,-295.5781"/>
<polygon fill="#191970" stroke="#191970" points="602.8677,-333.0378 593.4632,-337.9169 603.8577,-339.9675 602.8677,-333.0378"/>
</g>
<!-- Node14&#45;&gt;Node15 -->
<g id="edge7" class="edge">
<title>Node14&#45;&gt;Node15</title>
<path fill="none" stroke="#191970" d="M371.1408,-222.6173C334.1465,-214.1181 290.3272,-201.6542 276.8817,-188 261.8227,-172.7072 258.5471,-146.2905 257.9295,-131.9534"/>
<polygon fill="#191970" stroke="#191970" points="370.8399,-226.1366 381.3632,-224.9071 372.37,-219.3059 370.8399,-226.1366"/>
</g>
<!-- Node18 -->
<g id="node9" class="node">
<title>Node18</title>
<g id="a_node9"><a xlink:href="Camera_8cpp.html" target="_top" xlink:title="src/Camera.cpp">
<polygon fill="#ffffff" stroke="#000000" points="495.8817,-168.5 495.8817,-187.5 581.8817,-187.5 581.8817,-168.5 495.8817,-168.5"/>
<text text-anchor="middle" x="538.8817" y="-175.5" font-family="Helvetica,sans-Serif" font-size="10.00" fill="#000000">src/Camera.cpp</text>
</a>
</g>
</g>
<!-- Node14&#45;&gt;Node18 -->
<g id="edge10" class="edge">
<title>Node14&#45;&gt;Node18</title>
<path fill="none" stroke="#191970" d="M455.9551,-219.8368C476.0202,-209.7139 502.4739,-196.3679 520.0491,-187.5011"/>
<polygon fill="#191970" stroke="#191970" points="454.3149,-216.7441 446.9633,-224.3733 457.468,-222.9938 454.3149,-216.7441"/>
</g>
<!-- Node14&#45;&gt;Node19 -->
<g id="edge11" class="edge">
<title>Node14&#45;&gt;Node19</title>
<path fill="none" stroke="#191970" d="M371.074,-223.8885C269.4916,-206.8273 242.5973,-203.6286 144.8817,-188 142.1902,-187.5695 139.433,-187.1277 136.6488,-186.681"/>
<polygon fill="#191970" stroke="#191970" points="370.7003,-227.3747 381.1426,-225.5837 371.8625,-220.4719 370.7003,-227.3747"/>
</g>
<!-- Node20 -->
<g id="node11" class="node">
<title>Node20</title>
<g id="a_node11"><a xlink:href="RectTransform_8cpp.html" target="_top" xlink:title="src/RectTransform.cpp">
<polygon fill="#ffffff" stroke="#000000" points="600.3817,-168.5 600.3817,-187.5 717.3817,-187.5 717.3817,-168.5 600.3817,-168.5"/>
<text text-anchor="middle" x="658.8817" y="-175.5" font-family="Helvetica,sans-Serif" font-size="10.00" fill="#000000">src/RectTransform.cpp</text>
</a>
</g>
</g>
<!-- Node14&#45;&gt;Node20 -->
<g id="edge12" class="edge">
<title>Node14&#45;&gt;Node20</title>
<path fill="none" stroke="#191970" d="M477.1866,-222.0473C519.7039,-211.7401 580.2874,-197.0532 619.5966,-187.5237"/>
<polygon fill="#191970" stroke="#191970" points="476.2234,-218.6793 467.3296,-224.4369 477.8727,-225.4823 476.2234,-218.6793"/>
</g>
<!-- Node21 -->
<g id="node12" class="node">
<title>Node21</title>
<g id="a_node12"><a xlink:href="Sprite_8cpp.html" target="_top" xlink:title="src/Sprite.cpp">
<polygon fill="#ffffff" stroke="#000000" points="735.3817,-168.5 735.3817,-187.5 812.3817,-187.5 812.3817,-168.5 735.3817,-168.5"/>
<text text-anchor="middle" x="773.8817" y="-175.5" font-family="Helvetica,sans-Serif" font-size="10.00" fill="#000000">src/Sprite.cpp</text>
</a>
</g>
</g>
<!-- Node14&#45;&gt;Node21 -->
<g id="edge13" class="edge">
<title>Node14&#45;&gt;Node21</title>
<path fill="none" stroke="#191970" d="M484.6382,-223.7524C592.3017,-206.2685 621.5431,-206.5811 725.8817,-188 728.8987,-187.4627 732.0163,-186.8788 735.1467,-186.272"/>
<polygon fill="#191970" stroke="#191970" points="483.9741,-220.3144 474.6714,-225.3851 485.1057,-227.2224 483.9741,-220.3144"/>
</g>
<!-- Node22 -->
<g id="node13" class="node">
<title>Node22</title>
<g id="a_node13"><a xlink:href="State_8cpp.html" target="_top" xlink:title="src/State.cpp">
<polygon fill="#ffffff" stroke="#000000" points="154.3817,-168.5 154.3817,-187.5 229.3817,-187.5 229.3817,-168.5 154.3817,-168.5"/>
<text text-anchor="middle" x="191.8817" y="-175.5" font-family="Helvetica,sans-Serif" font-size="10.00" fill="#000000">src/State.cpp</text>
</a>
</g>
</g>
<!-- Node14&#45;&gt;Node22 -->
<g id="edge14" class="edge">
<title>Node14&#45;&gt;Node22</title>
<path fill="none" stroke="#191970" d="M377.5995,-222.0686C333.3049,-211.558 269.7661,-196.481 229.6765,-186.9682"/>
<polygon fill="#191970" stroke="#191970" points="377.0421,-225.5335 387.58,-224.4369 378.6583,-218.7226 377.0421,-225.5335"/>
</g>
<!-- Node16 -->
<g id="node7" class="node">
<title>Node16</title>
<g id="a_node7"><a xlink:href="ManhattanDistance_8h.html" target="_top" xlink:title="include/ManhattanDistance.h">
<polygon fill="#ffffff" stroke="#000000" points="186.3817,-56.5 186.3817,-75.5 329.3817,-75.5 329.3817,-56.5 186.3817,-56.5"/>
<text text-anchor="middle" x="257.8817" y="-63.5" font-family="Helvetica,sans-Serif" font-size="10.00" fill="#000000">include/ManhattanDistance.h</text>
</a>
</g>
</g>
<!-- Node15&#45;&gt;Node16 -->
<g id="edge8" class="edge">
<title>Node15&#45;&gt;Node16</title>
<path fill="none" stroke="#191970" d="M257.8817,-102.1575C257.8817,-93.155 257.8817,-82.9199 257.8817,-75.6427"/>
<polygon fill="#191970" stroke="#191970" points="254.3818,-102.2455 257.8817,-112.2455 261.3818,-102.2456 254.3818,-102.2455"/>
</g>
<!-- Node17 -->
<g id="node8" class="node">
<title>Node17</title>
<g id="a_node8"><a xlink:href="ManhattanDistance_8cpp.html" target="_top" xlink:title="src/ManhattanDistance.cpp">
<polygon fill="#ffffff" stroke="#000000" points="189.3817,-.5 189.3817,-19.5 326.3817,-19.5 326.3817,-.5 189.3817,-.5"/>
<text text-anchor="middle" x="257.8817" y="-7.5" font-family="Helvetica,sans-Serif" font-size="10.00" fill="#000000">src/ManhattanDistance.cpp</text>
</a>
</g>
</g>
<!-- Node16&#45;&gt;Node17 -->
<g id="edge9" class="edge">
<title>Node16&#45;&gt;Node17</title>
<path fill="none" stroke="#191970" d="M257.8817,-46.1575C257.8817,-37.155 257.8817,-26.9199 257.8817,-19.6427"/>
<polygon fill="#191970" stroke="#191970" points="254.3818,-46.2455 257.8817,-56.2455 261.3818,-46.2456 254.3818,-46.2455"/>
</g>
<!-- Node23&#45;&gt;Node22 -->
<g id="edge28" class="edge">
<title>Node23&#45;&gt;Node22</title>
<path fill="none" stroke="#191970" d="M305.763,-275.9864C289.2569,-267.8259 269.0959,-256.6589 252.8817,-244 230.9904,-226.9088 210.0507,-201.6767 199.3228,-187.8876"/>
<polygon fill="#191970" stroke="#191970" points="304.4731,-279.2498 315.0018,-280.4323 307.5086,-272.9422 304.4731,-279.2498"/>
</g>
<!-- Node24 -->
<g id="node15" class="node">
<title>Node24</title>
<g id="a_node15"><a xlink:href="Game_8h.html" target="_top" xlink:title="include/Game.h">
<polygon fill="#ffffff" stroke="#000000" points="492.3817,-224.5 492.3817,-243.5 577.3817,-243.5 577.3817,-224.5 492.3817,-224.5"/>
<text text-anchor="middle" x="534.8817" y="-231.5" font-family="Helvetica,sans-Serif" font-size="10.00" fill="#000000">include/Game.h</text>
</a>
</g>
</g>
<!-- Node23&#45;&gt;Node24 -->
<g id="edge16" class="edge">
<title>Node23&#45;&gt;Node24</title>
<path fill="none" stroke="#191970" d="M380.7662,-277.5882C417.144,-267.2996 468.0938,-252.8895 501.2885,-243.5011"/>
<polygon fill="#191970" stroke="#191970" points="379.5891,-274.2838 370.9191,-280.3733 381.4942,-281.0195 379.5891,-274.2838"/>
</g>
<!-- Node29 -->
<g id="node20" class="node">
<title>Node29</title>
<g id="a_node20"><a xlink:href="Threading_8h.html" target="_top" xlink:title="include/Threading.h">
<polygon fill="#ffffff" stroke="#000000" points="262.3817,-224.5 262.3817,-243.5 363.3817,-243.5 363.3817,-224.5 262.3817,-224.5"/>
<text text-anchor="middle" x="312.8817" y="-231.5" font-family="Helvetica,sans-Serif" font-size="10.00" fill="#000000">include/Threading.h</text>
</a>
</g>
</g>
<!-- Node23&#45;&gt;Node29 -->
<g id="edge24" class="edge">
<title>Node23&#45;&gt;Node29</title>
<path fill="none" stroke="#191970" d="M328.7576,-271.0437C324.8102,-261.8331 320.2359,-251.1598 317.0143,-243.6427"/>
<polygon fill="#191970" stroke="#191970" points="325.545,-272.4328 332.7012,-280.2455 331.979,-269.6753 325.545,-272.4328"/>
</g>
<!-- Node24&#45;&gt;Node18 -->
<g id="edge17" class="edge">
<title>Node24&#45;&gt;Node18</title>
<path fill="none" stroke="#191970" d="M536.299,-214.1575C536.9421,-205.155 537.6732,-194.9199 538.193,-187.6427"/>
<polygon fill="#191970" stroke="#191970" points="532.7999,-214.0216 535.5785,-224.2455 539.7821,-214.5204 532.7999,-214.0216"/>
</g>
<!-- Node24&#45;&gt;Node20 -->
<g id="edge19" class="edge">
<title>Node24&#45;&gt;Node20</title>
<path fill="none" stroke="#191970" d="M565.3342,-220.2473C587.8539,-210.0771 617.9434,-196.4883 637.8435,-187.5011"/>
<polygon fill="#191970" stroke="#191970" points="563.8712,-217.0675 556.1981,-224.3733 566.7524,-223.4471 563.8712,-217.0675"/>
</g>
<!-- Node24&#45;&gt;Node21 -->
<g id="edge21" class="edge">
<title>Node24&#45;&gt;Node21</title>
<path fill="none" stroke="#191970" d="M585.4897,-222.1421C630.2171,-211.662 694.4997,-196.6 735.215,-187.06"/>
<polygon fill="#191970" stroke="#191970" points="584.6335,-218.7478 575.6957,-224.4369 586.2305,-225.5632 584.6335,-218.7478"/>
</g>
<!-- Node25 -->
<g id="node16" class="node">
<title>Node25</title>
<g id="a_node16"><a xlink:href="Game_8cpp.html" target="_top" xlink:title="src/Game.cpp">
<polygon fill="#ffffff" stroke="#000000" points="399.8817,-168.5 399.8817,-187.5 477.8817,-187.5 477.8817,-168.5 399.8817,-168.5"/>
<text text-anchor="middle" x="438.8817" y="-175.5" font-family="Helvetica,sans-Serif" font-size="10.00" fill="#000000">src/Game.cpp</text>
</a>
</g>
</g>
<!-- Node24&#45;&gt;Node25 -->
<g id="edge18" class="edge">
<title>Node24&#45;&gt;Node25</title>
<path fill="none" stroke="#191970" d="M509.2471,-219.0465C492.1658,-209.0824 470.2177,-196.2794 455.412,-187.6427"/>
<polygon fill="#191970" stroke="#191970" points="507.7584,-222.23 518.1598,-224.2455 511.2856,-216.1836 507.7584,-222.23"/>
</g>
<!-- Node26 -->
<g id="node17" class="node">
<title>Node26</title>
<g id="a_node17"><a xlink:href="Resources_8cpp.html" target="_top" xlink:title="src/Resources.cpp">
<polygon fill="#ffffff" stroke="#000000" points="830.3817,-168.5 830.3817,-187.5 929.3817,-187.5 929.3817,-168.5 830.3817,-168.5"/>
<text text-anchor="middle" x="879.8817" y="-175.5" font-family="Helvetica,sans-Serif" font-size="10.00" fill="#000000">src/Resources.cpp</text>
</a>
</g>
</g>
<!-- Node24&#45;&gt;Node26 -->
<g id="edge20" class="edge">
<title>Node24&#45;&gt;Node26</title>
<path fill="none" stroke="#191970" d="M587.5055,-223.9468C692.6846,-205.942 720.7489,-204.4632 821.8817,-188 824.6047,-187.5567 827.3985,-187.0957 830.2179,-186.6256"/>
<polygon fill="#191970" stroke="#191970" points="586.686,-220.5363 577.4248,-225.6823 587.8737,-227.4348 586.686,-220.5363"/>
</g>
<!-- Node27 -->
<g id="node18" class="node">
<title>Node27</title>
<g id="a_node18"><a xlink:href="Text_8cpp.html" target="_top" xlink:title="src/Text.cpp">
<polygon fill="#ffffff" stroke="#000000" points="947.3817,-168.5 947.3817,-187.5 1018.3817,-187.5 1018.3817,-168.5 947.3817,-168.5"/>
<text text-anchor="middle" x="982.8817" y="-175.5" font-family="Helvetica,sans-Serif" font-size="10.00" fill="#000000">src/Text.cpp</text>
</a>
</g>
</g>
<!-- Node24&#45;&gt;Node27 -->
<g id="edge22" class="edge">
<title>Node24&#45;&gt;Node27</title>
<path fill="none" stroke="#191970" d="M587.3986,-224.0537C744.2091,-201.6191 786.8805,-212.9508 938.8817,-188 941.51,-187.5686 944.2163,-187.0754 946.9334,-186.5444"/>
<polygon fill="#191970" stroke="#191970" points="586.7893,-220.6054 577.3969,-225.5079 587.7965,-227.5326 586.7893,-220.6054"/>
</g>
<!-- Node28 -->
<g id="node19" class="node">
<title>Node28</title>
<g id="a_node19"><a xlink:href="Threading_8cpp.html" target="_top" xlink:title="src/Threading.cpp">
<polygon fill="#ffffff" stroke="#000000" points="286.3817,-168.5 286.3817,-187.5 381.3817,-187.5 381.3817,-168.5 286.3817,-168.5"/>
<text text-anchor="middle" x="333.8817" y="-175.5" font-family="Helvetica,sans-Serif" font-size="10.00" fill="#000000">src/Threading.cpp</text>
</a>
</g>
</g>
<!-- Node24&#45;&gt;Node28 -->
<g id="edge23" class="edge">
<title>Node24&#45;&gt;Node28</title>
<path fill="none" stroke="#191970" d="M490.3323,-221.5882C453.4033,-211.2996 401.6815,-196.8895 367.984,-187.5011"/>
<polygon fill="#191970" stroke="#191970" points="489.7561,-225.0609 500.3286,-224.3733 491.6348,-218.3177 489.7561,-225.0609"/>
</g>
<!-- Node29&#45;&gt;Node22 -->
<g id="edge26" class="edge">
<title>Node29&#45;&gt;Node22</title>
<path fill="none" stroke="#191970" d="M282.8713,-220.1109C260.9292,-209.9559 231.7429,-196.4482 212.4109,-187.5011"/>
<polygon fill="#191970" stroke="#191970" points="281.5358,-223.3494 292.0811,-224.3733 284.4759,-216.9968 281.5358,-223.3494"/>
</g>
<!-- Node29&#45;&gt;Node25 -->
<g id="edge25" class="edge">
<title>Node29&#45;&gt;Node25</title>
<path fill="none" stroke="#191970" d="M343.8253,-220.2473C366.7083,-210.0771 397.2831,-196.4883 417.5042,-187.5011"/>
<polygon fill="#191970" stroke="#191970" points="342.2585,-217.1135 334.5419,-224.3733 345.1015,-223.5102 342.2585,-217.1135"/>
</g>
<!-- Node29&#45;&gt;Node28 -->
<g id="edge27" class="edge">
<title>Node29&#45;&gt;Node28</title>
<path fill="none" stroke="#191970" d="M320.1007,-214.7493C323.5293,-205.6064 327.4768,-195.0798 330.2657,-187.6427"/>
<polygon fill="#191970" stroke="#191970" points="316.7738,-213.6533 316.5396,-224.2455 323.3281,-216.1112 316.7738,-213.6533"/>
</g>
<!-- Node31 -->
<g id="node22" class="node">
<title>Node31</title>
<g id="a_node22"><a xlink:href="Grouper_8cpp.html" target="_top" xlink:title="src/Grouper.cpp">
<polygon fill="#ffffff" stroke="#000000" points="693.8817,-224.5 693.8817,-243.5 779.8817,-243.5 779.8817,-224.5 693.8817,-224.5"/>
<text text-anchor="middle" x="736.8817" y="-231.5" font-family="Helvetica,sans-Serif" font-size="10.00" fill="#000000">src/Grouper.cpp</text>
</a>
</g>
</g>
<!-- Node30&#45;&gt;Node31 -->
<g id="edge30" class="edge">
<title>Node30&#45;&gt;Node31</title>
<path fill="none" stroke="#191970" d="M669.9041,-274.769C686.2067,-264.8456 706.9827,-252.1994 721.0402,-243.6427"/>
<polygon fill="#191970" stroke="#191970" points="667.6291,-272.0563 660.9069,-280.2455 671.2687,-278.0357 667.6291,-272.0563"/>
</g>
<!-- Node32&#45;&gt;Node12 -->
<g id="edge37" class="edge">
<title>Node32&#45;&gt;Node12</title>
<path fill="none" stroke="#191970" d="M739.1419,-276.5189C714.3734,-266.3201 680.9767,-252.5685 658.9559,-243.5011"/>
<polygon fill="#191970" stroke="#191970" points="737.923,-279.8021 748.5025,-280.3733 740.5883,-273.3293 737.923,-279.8021"/>
</g>
<!-- Node32&#45;&gt;Node20 -->
<g id="edge39" class="edge">
<title>Node32&#45;&gt;Node20</title>
<path fill="none" stroke="#191970" d="M784.3441,-271.3276C792.0511,-257.2231 798.7598,-237.9736 788.8817,-224 778.4824,-209.2891 735.3804,-195.9767 701.6211,-187.5028"/>
<polygon fill="#191970" stroke="#191970" points="781.1971,-269.7692 779.0405,-280.1422 787.1951,-273.3781 781.1971,-269.7692"/>
</g>
<!-- Node32&#45;&gt;Node27 -->
<g id="edge40" class="edge">
<title>Node32&#45;&gt;Node27</title>
<path fill="none" stroke="#191970" d="M791.3835,-273.9997C809.5888,-259.6009 837.9239,-238.5334 864.8817,-224 893.3324,-208.6617 928.0171,-195.771 952.3954,-187.5745"/>
<polygon fill="#191970" stroke="#191970" points="788.9216,-271.4876 783.3105,-280.4746 793.3013,-276.9482 788.9216,-271.4876"/>
</g>
<!-- Node32&#45;&gt;Node31 -->
<g id="edge38" class="edge">
<title>Node32&#45;&gt;Node31</title>
<path fill="none" stroke="#191970" d="M760.4002,-271.6296C754.5622,-262.2887 747.7065,-251.3197 742.9084,-243.6427"/>
<polygon fill="#191970" stroke="#191970" points="757.5171,-273.6206 765.7852,-280.2455 763.4531,-269.9105 757.5171,-273.6206"/>
</g>
<!-- Node32&#45;&gt;Node33 -->
<g id="edge32" class="edge">
<title>Node32&#45;&gt;Node33</title>
<path fill="none" stroke="#191970" d="M806.1999,-276.6541C832.4597,-266.4419 868.0309,-252.6086 891.4503,-243.5011"/>
<polygon fill="#191970" stroke="#191970" points="804.6877,-273.4867 796.6362,-280.3733 807.2248,-280.0108 804.6877,-273.4867"/>
</g>
<!-- Node33&#45;&gt;Node21 -->
<g id="edge36" class="edge">
<title>Node33&#45;&gt;Node21</title>
<path fill="none" stroke="#191970" d="M882.0402,-220.6541C856.1451,-210.4419 821.0679,-196.6086 797.9738,-187.5011"/>
<polygon fill="#191970" stroke="#191970" points="880.8842,-223.9605 891.471,-224.3733 883.4524,-217.4486 880.8842,-223.9605"/>
</g>
<!-- Node34 -->
<g id="node25" class="node">
<title>Node34</title>
<g id="a_node25"><a xlink:href="Tileset_8h.html" target="_top" xlink:title="include/Tileset.h">
<polygon fill="#ffffff" stroke="#000000" points="1036.8817,-168.5 1036.8817,-187.5 1124.8817,-187.5 1124.8817,-168.5 1036.8817,-168.5"/>
<text text-anchor="middle" x="1080.8817" y="-175.5" font-family="Helvetica,sans-Serif" font-size="10.00" fill="#000000">include/Tileset.h</text>
</a>
</g>
</g>
<!-- Node33&#45;&gt;Node34 -->
<g id="edge33" class="edge">
<title>Node33&#45;&gt;Node34</title>
<path fill="none" stroke="#191970" d="M954.0173,-221.057C984.2142,-210.8084 1025.698,-196.729 1052.8873,-187.5011"/>
<polygon fill="#191970" stroke="#191970" points="952.5908,-217.845 944.2462,-224.3733 954.8406,-224.4736 952.5908,-217.845"/>
</g>
<!-- Node34&#45;&gt;Node15 -->
<g id="edge34" class="edge">
<title>Node34&#45;&gt;Node15</title>
<path fill="none" stroke="#191970" d="M1026.3669,-167.9609C747.0589,-134.0314 423.2891,-125.0228 304.5048,-122.7281"/>
<polygon fill="#191970" stroke="#191970" points="1026.3489,-171.4849 1036.7011,-169.2302 1027.2024,-164.5371 1026.3489,-171.4849"/>
</g>
<!-- Node35 -->
<g id="node26" class="node">
<title>Node35</title>
<g id="a_node26"><a xlink:href="Tileset_8cpp.html" target="_top" xlink:title="src/Tileset.cpp">
<polygon fill="#ffffff" stroke="#000000" points="1040.3817,-112.5 1040.3817,-131.5 1121.3817,-131.5 1121.3817,-112.5 1040.3817,-112.5"/>
<text text-anchor="middle" x="1080.8817" y="-119.5" font-family="Helvetica,sans-Serif" font-size="10.00" fill="#000000">src/Tileset.cpp</text>
</a>
</g>
</g>
<!-- Node34&#45;&gt;Node35 -->
<g id="edge35" class="edge">
<title>Node34&#45;&gt;Node35</title>
<path fill="none" stroke="#191970" d="M1080.8817,-158.1575C1080.8817,-149.155 1080.8817,-138.9199 1080.8817,-131.6427"/>
<polygon fill="#191970" stroke="#191970" points="1077.3818,-158.2455 1080.8817,-168.2455 1084.3818,-158.2456 1077.3818,-158.2455"/>
</g>
<!-- Node37&#45;&gt;Node27 -->
<g id="edge43" class="edge">
<title>Node37&#45;&gt;Node27</title>
<path fill="none" stroke="#191970" d="M946.107,-272.9884C953.4817,-264.8364 961.5954,-254.5595 966.8817,-244 976.1709,-225.4445 980.25,-201.2075 981.8922,-187.8714"/>
<polygon fill="#191970" stroke="#191970" points="943.4536,-270.7 939.1108,-280.3639 948.5322,-275.5175 943.4536,-270.7"/>
</g>
</g>
</svg>
