<?xml version="1.0" encoding="UTF-8" standalone="no"?>
<!DOCTYPE svg PUBLIC "-//W3C//DTD SVG 1.1//EN"
 "http://www.w3.org/Graphics/SVG/1.1/DTD/svg11.dtd">
<!-- Generated by graphviz version 2.40.1 (20161225.0304)
 -->
<!-- Title: src Pages: 1 -->
<svg width="96pt" height="188pt"
 viewBox="0.00 0.00 95.50 188.00" xmlns="http://www.w3.org/2000/svg" xmlns:xlink="http://www.w3.org/1999/xlink">
<g id="graph0" class="graph" transform="scale(1 1) rotate(0) translate(4 184)">
<title>src</title>
<polygon fill="#ffffff" stroke="transparent" points="-4,4 -4,-184 91.5,-184 91.5,4 -4,4"/>
<!-- dir_68267d1309a1af8e8297ef4c3efbcdba -->
<g id="node1" class="node">
<title>dir_68267d1309a1af8e8297ef4c3efbcdba</title>
<g id="a_node1"><a xlink:href="dir_68267d1309a1af8e8297ef4c3efbcdba.html" target="_top" xlink:title="src">
<polygon fill="#eeeeff" stroke="#000000" points="59.5,-180 5.5,-180 5.5,-144 59.5,-144 59.5,-180"/>
<text text-anchor="middle" x="32.5" y="-159.5" font-family="Helvetica,sans-Serif" font-size="10.00" fill="#000000">src</text>
</a>
</g>
</g>
<!-- dir_c07a09cebb2c0298c761ca01668d29fe -->
<g id="node2" class="node">
<title>dir_c07a09cebb2c0298c761ca01668d29fe</title>
<g id="a_node2"><a xlink:href="dir_c07a09cebb2c0298c761ca01668d29fe.html" target="_top" xlink:title="FowardList">
<polygon fill="none" stroke="#000000" points="65,-36 0,-36 0,0 65,0 65,-36"/>
<text text-anchor="middle" x="32.5" y="-15.5" font-family="Helvetica,sans-Serif" font-size="10.00" fill="#000000">FowardList</text>
</a>
</g>
</g>
<!-- dir_68267d1309a1af8e8297ef4c3efbcdba&#45;&gt;dir_c07a09cebb2c0298c761ca01668d29fe -->
<g id="edge1" class="edge">
<title>dir_68267d1309a1af8e8297ef4c3efbcdba&#45;&gt;dir_c07a09cebb2c0298c761ca01668d29fe</title>
<path fill="none" stroke="#000000" d="M29.085,-143.5804C27.3291,-133.1767 25.3774,-119.9092 24.5,-108 23.3244,-92.0432 23.3244,-87.9568 24.5,-72 25.1169,-63.6264 26.2649,-54.5812 27.5026,-46.3322"/>
<polygon fill="#000000" stroke="#000000" points="30.9648,-46.8463 29.085,-36.4196 24.0523,-45.7428 30.9648,-46.8463"/>
<g id="a_edge1&#45;headlabel"><a xlink:href="dir_000003_000001.html" target="_top" xlink:title="1">
<text text-anchor="middle" x="33.202" y="-48.3436" font-family="Helvetica,sans-Serif" font-size="10.00" fill="#000000">1</text>
</a>
</g>
</g>
<!-- dir_d44c64559bbebec7f509842c48db8b23 -->
<g id="node3" class="node">
<title>dir_d44c64559bbebec7f509842c48db8b23</title>
<g id="a_node3"><a xlink:href="dir_d44c64559bbebec7f509842c48db8b23.html" target="_top" xlink:title="include">
<polygon fill="none" stroke="#000000" points="87.5,-108 33.5,-108 33.5,-72 87.5,-72 87.5,-108"/>
<text text-anchor="middle" x="60.5" y="-87.5" font-family="Helvetica,sans-Serif" font-size="10.00" fill="#000000">include</text>
</a>
</g>
</g>
<!-- dir_68267d1309a1af8e8297ef4c3efbcdba&#45;&gt;dir_d44c64559bbebec7f509842c48db8b23 -->
<g id="edge2" class="edge">
<title>dir_68267d1309a1af8e8297ef4c3efbcdba&#45;&gt;dir_d44c64559bbebec7f509842c48db8b23</title>
<path fill="none" stroke="#000000" d="M39.5656,-143.8314C42.626,-135.9617 46.2779,-126.5712 49.6682,-117.8533"/>
<polygon fill="#000000" stroke="#000000" points="52.9768,-119.0019 53.3393,-108.4133 46.4527,-116.4647 52.9768,-119.0019"/>
<g id="a_edge2&#45;headlabel"><a xlink:href="dir_000003_000002.html" target="_top" xlink:title="59">
<text text-anchor="middle" x="54.3202" y="-120.8812" font-family="Helvetica,sans-Serif" font-size="10.00" fill="#000000">59</text>
</a>
</g>
</g>
<!-- dir_d44c64559bbebec7f509842c48db8b23&#45;&gt;dir_c07a09cebb2c0298c761ca01668d29fe -->
<g id="edge3" class="edge">
<title>dir_d44c64559bbebec7f509842c48db8b23&#45;&gt;dir_c07a09cebb2c0298c761ca01668d29fe</title>
<path fill="none" stroke="#000000" d="M53.4344,-71.8314C50.374,-63.9617 46.7221,-54.5712 43.3318,-45.8533"/>
<polygon fill="#000000" stroke="#000000" points="46.5473,-44.4647 39.6607,-36.4133 40.0232,-47.0019 46.5473,-44.4647"/>
<g id="a_edge3&#45;headlabel"><a xlink:href="dir_000002_000001.html" target="_top" xlink:title="1">
<text text-anchor="middle" x="50.4963" y="-44.2859" font-family="Helvetica,sans-Serif" font-size="10.00" fill="#000000">1</text>
</a>
</g>
</g>
</g>
</svg>
