<?xml version="1.0" encoding="UTF-8" standalone="no"?>
<!DOCTYPE svg PUBLIC "-//W3C//DTD SVG 1.1//EN"
 "http://www.w3.org/Graphics/SVG/1.1/DTD/svg11.dtd">
<!-- Generated by graphviz version 2.38.0 (20140413.2041)
 -->
<!-- Title: include/DragAndDrop.h Pages: 1 -->
<svg width="997pt" height="476pt"
 viewBox="0.00 0.00 996.67 476.00" xmlns="http://www.w3.org/2000/svg" xmlns:xlink="http://www.w3.org/1999/xlink">
<g id="graph0" class="graph" transform="scale(1 1) rotate(0) translate(4 472)">
<title>include/DragAndDrop.h</title>
<polygon fill="white" stroke="none" points="-4,4 -4,-472 992.667,-472 992.667,4 -4,4"/>
<!-- Node0 -->
<g id="node1" class="node"><title>Node0</title>
<polygon fill="#bfbfbf" stroke="black" points="632.167,-448.5 632.167,-467.5 750.167,-467.5 750.167,-448.5 632.167,-448.5"/>
<text text-anchor="middle" x="691.167" y="-455.5" font-family="Helvetica,sans-Serif" font-size="10.00">include/DragAndDrop.h</text>
</g>
<!-- Node1 -->
<g id="node2" class="node"><title>Node1</title>
<g id="a_node2"><a xlink:href="Component_8h.html" target="_top" xlink:title="Component.h">
<polygon fill="white" stroke="black" points="286.667,-224.5 286.667,-243.5 361.667,-243.5 361.667,-224.5 286.667,-224.5"/>
<text text-anchor="middle" x="324.167" y="-231.5" font-family="Helvetica,sans-Serif" font-size="10.00">Component.h</text>
</a>
</g>
</g>
<!-- Node0&#45;&gt;Node1 -->
<g id="edge1" class="edge"><title>Node0&#45;&gt;Node1</title>
<path fill="none" stroke="midnightblue" d="M632.01,-457.531C482.991,-457.473 98.4696,-448.211 20.167,-356 -53.4171,-269.346 173.829,-244.229 276.53,-237.392"/>
<polygon fill="midnightblue" stroke="midnightblue" points="276.894,-240.876 286.653,-236.751 276.452,-233.89 276.894,-240.876"/>
</g>
<!-- Node11 -->
<g id="node12" class="node"><title>Node11</title>
<g id="a_node12"><a xlink:href="TileMap_8h.html" target="_top" xlink:title="TileMap.h">
<polygon fill="white" stroke="black" points="370.667,-392.5 370.667,-411.5 429.667,-411.5 429.667,-392.5 370.667,-392.5"/>
<text text-anchor="middle" x="400.167" y="-399.5" font-family="Helvetica,sans-Serif" font-size="10.00">TileMap.h</text>
</a>
</g>
</g>
<!-- Node0&#45;&gt;Node11 -->
<g id="edge15" class="edge"><title>Node0&#45;&gt;Node11</title>
<path fill="none" stroke="midnightblue" d="M645.057,-448.444C588.565,-437.96 493.782,-420.372 440.21,-410.431"/>
<polygon fill="midnightblue" stroke="midnightblue" points="440.539,-406.932 430.069,-408.549 439.262,-413.815 440.539,-406.932"/>
</g>
<!-- Node18 -->
<g id="node19" class="node"><title>Node18</title>
<g id="a_node19"><a xlink:href="Error_8h.html" target="_top" xlink:title="Error.h">
<polygon fill="white" stroke="black" points="596.167,-280.5 596.167,-299.5 642.167,-299.5 642.167,-280.5 596.167,-280.5"/>
<text text-anchor="middle" x="619.167" y="-287.5" font-family="Helvetica,sans-Serif" font-size="10.00">Error.h</text>
</a>
</g>
</g>
<!-- Node0&#45;&gt;Node18 -->
<g id="edge59" class="edge"><title>Node0&#45;&gt;Node18</title>
<path fill="none" stroke="midnightblue" d="M687.296,-448.075C675.914,-421.832 642.391,-344.545 627.025,-309.117"/>
<polygon fill="midnightblue" stroke="midnightblue" points="630.074,-307.35 622.883,-299.568 623.652,-310.135 630.074,-307.35"/>
</g>
<!-- Node23 -->
<g id="node24" class="node"><title>Node23</title>
<g id="a_node24"><a xlink:href="InputManager_8h.html" target="_top" xlink:title="InputManager.h">
<polygon fill="white" stroke="black" points="806.167,-224.5 806.167,-243.5 890.167,-243.5 890.167,-224.5 806.167,-224.5"/>
<text text-anchor="middle" x="848.167" y="-231.5" font-family="Helvetica,sans-Serif" font-size="10.00">InputManager.h</text>
</a>
</g>
</g>
<!-- Node0&#45;&gt;Node23 -->
<g id="edge60" class="edge"><title>Node0&#45;&gt;Node23</title>
<path fill="none" stroke="midnightblue" d="M714.197,-448.447C760.592,-429.796 864.352,-380.566 905.167,-300 915.402,-279.797 893.769,-260.828 874.28,-248.658"/>
<polygon fill="midnightblue" stroke="midnightblue" points="875.994,-245.606 865.598,-243.564 872.452,-251.643 875.994,-245.606"/>
</g>
<!-- Node27 -->
<g id="node28" class="node"><title>Node27</title>
<g id="a_node28"><a xlink:href="Camera_8h.html" target="_top" xlink:title="Camera.h">
<polygon fill="white" stroke="black" points="710.667,-336.5 710.667,-355.5 769.667,-355.5 769.667,-336.5 710.667,-336.5"/>
<text text-anchor="middle" x="740.167" y="-343.5" font-family="Helvetica,sans-Serif" font-size="10.00">Camera.h</text>
</a>
</g>
</g>
<!-- Node0&#45;&gt;Node27 -->
<g id="edge58" class="edge"><title>Node0&#45;&gt;Node27</title>
<path fill="none" stroke="midnightblue" d="M695.012,-448.368C702.991,-430.456 721.492,-388.923 732.172,-364.948"/>
<polygon fill="midnightblue" stroke="midnightblue" points="735.468,-366.15 736.34,-355.591 729.074,-363.302 735.468,-366.15"/>
</g>
<!-- Node29 -->
<g id="node30" class="node"><title>Node29</title>
<g id="a_node30"><a xlink:href="Sound_8h.html" target="_top" xlink:title="Sound.h">
<polygon fill="white" stroke="black" points="935.667,-168.5 935.667,-187.5 988.667,-187.5 988.667,-168.5 935.667,-168.5"/>
<text text-anchor="middle" x="962.167" y="-175.5" font-family="Helvetica,sans-Serif" font-size="10.00">Sound.h</text>
</a>
</g>
</g>
<!-- Node0&#45;&gt;Node29 -->
<g id="edge54" class="edge"><title>Node0&#45;&gt;Node29</title>
<path fill="none" stroke="midnightblue" d="M735.917,-448.454C812.889,-432.465 962.167,-395.238 962.167,-347 962.167,-347 962.167,-347 962.167,-289 962.167,-256.948 962.167,-219.643 962.167,-197.749"/>
<polygon fill="midnightblue" stroke="midnightblue" points="965.667,-197.558 962.167,-187.558 958.667,-197.558 965.667,-197.558"/>
</g>
<!-- Node2 -->
<g id="node3" class="node"><title>Node2</title>
<g id="a_node3"><a xlink:href="ComponentType_8h.html" target="_top" xlink:title="ComponentType.h">
<polygon fill="white" stroke="black" points="239.667,-112.5 239.667,-131.5 336.667,-131.5 336.667,-112.5 239.667,-112.5"/>
<text text-anchor="middle" x="288.167" y="-119.5" font-family="Helvetica,sans-Serif" font-size="10.00">ComponentType.h</text>
</a>
</g>
</g>
<!-- Node1&#45;&gt;Node2 -->
<g id="edge2" class="edge"><title>Node1&#45;&gt;Node2</title>
<path fill="none" stroke="midnightblue" d="M316.824,-224.352C309.962,-215.741 300.062,-201.845 295.167,-188 289.899,-173.103 288.291,-155.185 287.92,-141.938"/>
<polygon fill="midnightblue" stroke="midnightblue" points="291.418,-141.668 287.851,-131.692 284.418,-141.715 291.418,-141.668"/>
</g>
<!-- Node3 -->
<g id="node4" class="node"><title>Node3</title>
<g id="a_node4"><a xlink:href="GameObject_8h.html" target="_top" xlink:title="GameObject.h">
<polygon fill="white" stroke="black" points="304.167,-168.5 304.167,-187.5 384.167,-187.5 384.167,-168.5 304.167,-168.5"/>
<text text-anchor="middle" x="344.167" y="-175.5" font-family="Helvetica,sans-Serif" font-size="10.00">GameObject.h</text>
</a>
</g>
</g>
<!-- Node1&#45;&gt;Node3 -->
<g id="edge3" class="edge"><title>Node1&#45;&gt;Node3</title>
<path fill="none" stroke="midnightblue" d="M322.303,-224.083C323.482,-216.691 327.051,-205.953 331.18,-196.811"/>
<polygon fill="midnightblue" stroke="midnightblue" points="334.375,-198.25 335.795,-187.751 328.138,-195.073 334.375,-198.25"/>
</g>
<!-- Node3&#45;&gt;Node1 -->
<g id="edge8" class="edge"><title>Node3&#45;&gt;Node1</title>
<path fill="none" stroke="midnightblue" d="M346.057,-187.751C344.915,-195.092 341.368,-205.817 337.246,-214.983"/>
<polygon fill="midnightblue" stroke="midnightblue" points="334.033,-213.581 332.636,-224.083 340.278,-216.744 334.033,-213.581"/>
</g>
<!-- Node3&#45;&gt;Node2 -->
<g id="edge9" class="edge"><title>Node3&#45;&gt;Node2</title>
<path fill="none" stroke="midnightblue" d="M335.17,-168.324C326.973,-160.42 314.661,-148.548 304.695,-138.938"/>
<polygon fill="midnightblue" stroke="midnightblue" points="306.956,-136.256 297.328,-131.834 302.097,-141.295 306.956,-136.256"/>
</g>
<!-- Node4 -->
<g id="node5" class="node"><title>Node4</title>
<g id="a_node5"><a xlink:href="SDL__include_8h.html" target="_top" xlink:title="SDL_include.h">
<polygon fill="white" stroke="black" points="433.167,-0.5 433.167,-19.5 513.167,-19.5 513.167,-0.5 433.167,-0.5"/>
<text text-anchor="middle" x="473.167" y="-7.5" font-family="Helvetica,sans-Serif" font-size="10.00">SDL_include.h</text>
</a>
</g>
</g>
<!-- Node3&#45;&gt;Node4 -->
<g id="edge4" class="edge"><title>Node3&#45;&gt;Node4</title>
<path fill="none" stroke="midnightblue" d="M348.899,-168.285C355.969,-155.519 369.981,-131.173 384.167,-112 407.642,-80.272 438.875,-46.4526 457.415,-27.1078"/>
<polygon fill="midnightblue" stroke="midnightblue" points="460.092,-29.3747 464.524,-19.7517 455.058,-24.5102 460.092,-29.3747"/>
</g>
<!-- Node5 -->
<g id="node6" class="node"><title>Node5</title>
<polygon fill="white" stroke="#bfbfbf" points="70.167,-112.5 70.167,-131.5 114.167,-131.5 114.167,-112.5 70.167,-112.5"/>
<text text-anchor="middle" x="92.167" y="-119.5" font-family="Helvetica,sans-Serif" font-size="10.00">vector</text>
</g>
<!-- Node3&#45;&gt;Node5 -->
<g id="edge5" class="edge"><title>Node3&#45;&gt;Node5</title>
<path fill="none" stroke="midnightblue" d="M304.237,-168.444C254.409,-157.766 170.182,-139.717 124.301,-129.886"/>
<polygon fill="midnightblue" stroke="midnightblue" points="124.823,-126.418 114.312,-127.745 123.357,-133.263 124.823,-126.418"/>
</g>
<!-- Node6 -->
<g id="node7" class="node"><title>Node6</title>
<polygon fill="white" stroke="#bfbfbf" points="393.167,-112.5 393.167,-131.5 445.167,-131.5 445.167,-112.5 393.167,-112.5"/>
<text text-anchor="middle" x="419.167" y="-119.5" font-family="Helvetica,sans-Serif" font-size="10.00">memory</text>
</g>
<!-- Node3&#45;&gt;Node6 -->
<g id="edge6" class="edge"><title>Node3&#45;&gt;Node6</title>
<path fill="none" stroke="midnightblue" d="M356.217,-168.324C367.63,-160.107 384.998,-147.602 398.602,-137.807"/>
<polygon fill="midnightblue" stroke="midnightblue" points="400.827,-140.517 406.898,-131.834 396.737,-134.837 400.827,-140.517"/>
</g>
<!-- Node7 -->
<g id="node8" class="node"><title>Node7</title>
<polygon fill="white" stroke="#bfbfbf" points="501.667,-112.5 501.667,-131.5 542.667,-131.5 542.667,-112.5 501.667,-112.5"/>
<text text-anchor="middle" x="522.167" y="-119.5" font-family="Helvetica,sans-Serif" font-size="10.00">string</text>
</g>
<!-- Node3&#45;&gt;Node7 -->
<g id="edge7" class="edge"><title>Node3&#45;&gt;Node7</title>
<path fill="none" stroke="midnightblue" d="M372.372,-168.444C404.976,-158.552 458.431,-142.336 491.889,-132.185"/>
<polygon fill="midnightblue" stroke="midnightblue" points="493.033,-135.496 501.586,-129.244 491,-128.798 493.033,-135.496"/>
</g>
<!-- Node8 -->
<g id="node9" class="node"><title>Node8</title>
<g id="a_node9"><a xlink:href="Rect_8h.html" target="_top" xlink:title="Rect.h">
<polygon fill="white" stroke="black" points="175.167,-112.5 175.167,-131.5 221.167,-131.5 221.167,-112.5 175.167,-112.5"/>
<text text-anchor="middle" x="198.167" y="-119.5" font-family="Helvetica,sans-Serif" font-size="10.00">Rect.h</text>
</a>
</g>
</g>
<!-- Node3&#45;&gt;Node8 -->
<g id="edge10" class="edge"><title>Node3&#45;&gt;Node8</title>
<path fill="none" stroke="midnightblue" d="M321.033,-168.444C296.685,-159.438 258.16,-145.189 230.744,-135.049"/>
<polygon fill="midnightblue" stroke="midnightblue" points="231.786,-131.703 221.193,-131.516 229.358,-138.268 231.786,-131.703"/>
</g>
<!-- Node8&#45;&gt;Node4 -->
<g id="edge11" class="edge"><title>Node8&#45;&gt;Node4</title>
<path fill="none" stroke="midnightblue" d="M198.143,-112.339C198.608,-98.2635 201.707,-70.538 218.167,-56 247.831,-29.7991 357.326,-18.352 422.8,-13.7582"/>
<polygon fill="midnightblue" stroke="midnightblue" points="423.169,-17.2414 432.911,-13.0786 422.699,-10.2572 423.169,-17.2414"/>
</g>
<!-- Node9 -->
<g id="node10" class="node"><title>Node9</title>
<g id="a_node10"><a xlink:href="Vec2_8h.html" target="_top" xlink:title="Vec2.h">
<polygon fill="white" stroke="black" points="524.667,-56.5 524.667,-75.5 571.667,-75.5 571.667,-56.5 524.667,-56.5"/>
<text text-anchor="middle" x="548.167" y="-63.5" font-family="Helvetica,sans-Serif" font-size="10.00">Vec2.h</text>
</a>
</g>
</g>
<!-- Node8&#45;&gt;Node9 -->
<g id="edge12" class="edge"><title>Node8&#45;&gt;Node9</title>
<path fill="none" stroke="midnightblue" d="M221.496,-114.05C224.402,-113.299 227.343,-112.594 230.167,-112 332.644,-90.4393 455.913,-76.2941 514.312,-70.2882"/>
<polygon fill="midnightblue" stroke="midnightblue" points="514.846,-73.7521 524.442,-69.2615 514.14,-66.7878 514.846,-73.7521"/>
</g>
<!-- Node10 -->
<g id="node11" class="node"><title>Node10</title>
<polygon fill="white" stroke="#bfbfbf" points="227.167,-56.5 227.167,-75.5 271.167,-75.5 271.167,-56.5 227.167,-56.5"/>
<text text-anchor="middle" x="249.167" y="-63.5" font-family="Helvetica,sans-Serif" font-size="10.00">cmath</text>
</g>
<!-- Node8&#45;&gt;Node10 -->
<g id="edge14" class="edge"><title>Node8&#45;&gt;Node10</title>
<path fill="none" stroke="midnightblue" d="M206.589,-112.083C214.015,-104.22 225.019,-92.5688 233.979,-83.0813"/>
<polygon fill="midnightblue" stroke="midnightblue" points="236.58,-85.4244 240.902,-75.7511 231.491,-80.618 236.58,-85.4244"/>
</g>
<!-- Node9&#45;&gt;Node4 -->
<g id="edge13" class="edge"><title>Node9&#45;&gt;Node4</title>
<path fill="none" stroke="midnightblue" d="M536.117,-56.324C524.704,-48.1066 507.336,-35.6017 493.732,-25.8069"/>
<polygon fill="midnightblue" stroke="midnightblue" points="495.597,-22.8366 485.436,-19.8339 491.507,-28.5174 495.597,-22.8366"/>
</g>
<!-- Node11&#45;&gt;Node1 -->
<g id="edge25" class="edge"><title>Node11&#45;&gt;Node1</title>
<path fill="none" stroke="midnightblue" d="M370.615,-395.446C337.134,-388.576 281.351,-375.365 236.167,-356 230.624,-353.624 146.134,-305.251 143.167,-300 113.834,-248.097 213.478,-236.976 276.447,-234.997"/>
<polygon fill="midnightblue" stroke="midnightblue" points="276.683,-238.492 286.594,-234.746 276.51,-231.494 276.683,-238.492"/>
</g>
<!-- Node11&#45;&gt;Node5 -->
<g id="edge16" class="edge"><title>Node11&#45;&gt;Node5</title>
<path fill="none" stroke="midnightblue" d="M370.623,-399.717C285.348,-395.715 43.3888,-382.134 20.167,-356 -37.3316,-291.291 42.9393,-181.322 77.5936,-139.663"/>
<polygon fill="midnightblue" stroke="midnightblue" points="80.423,-141.738 84.2301,-131.851 75.0882,-137.206 80.423,-141.738"/>
</g>
<!-- Node12 -->
<g id="node13" class="node"><title>Node12</title>
<polygon fill="white" stroke="#bfbfbf" points="473.667,-336.5 473.667,-355.5 502.667,-355.5 502.667,-336.5 473.667,-336.5"/>
<text text-anchor="middle" x="488.167" y="-343.5" font-family="Helvetica,sans-Serif" font-size="10.00">list</text>
</g>
<!-- Node11&#45;&gt;Node12 -->
<g id="edge17" class="edge"><title>Node11&#45;&gt;Node12</title>
<path fill="none" stroke="midnightblue" d="M414.306,-392.324C428.033,-383.9 449.103,-370.971 465.231,-361.074"/>
<polygon fill="midnightblue" stroke="midnightblue" points="467.371,-363.868 474.063,-355.655 463.71,-357.902 467.371,-363.868"/>
</g>
<!-- Node13 -->
<g id="node14" class="node"><title>Node13</title>
<polygon fill="white" stroke="#bfbfbf" points="520.667,-336.5 520.667,-355.5 563.667,-355.5 563.667,-336.5 520.667,-336.5"/>
<text text-anchor="middle" x="542.167" y="-343.5" font-family="Helvetica,sans-Serif" font-size="10.00">queue</text>
</g>
<!-- Node11&#45;&gt;Node13 -->
<g id="edge18" class="edge"><title>Node11&#45;&gt;Node13</title>
<path fill="none" stroke="midnightblue" d="M422.667,-392.444C446.383,-383.425 483.928,-369.147 510.6,-359.004"/>
<polygon fill="midnightblue" stroke="midnightblue" points="512.136,-362.165 520.239,-355.339 509.648,-355.622 512.136,-362.165"/>
</g>
<!-- Node14 -->
<g id="node15" class="node"><title>Node14</title>
<polygon fill="white" stroke="#bfbfbf" points="152.167,-280.5 152.167,-299.5 192.167,-299.5 192.167,-280.5 152.167,-280.5"/>
<text text-anchor="middle" x="172.167" y="-287.5" font-family="Helvetica,sans-Serif" font-size="10.00">limits</text>
</g>
<!-- Node11&#45;&gt;Node14 -->
<g id="edge19" class="edge"><title>Node11&#45;&gt;Node14</title>
<path fill="none" stroke="midnightblue" d="M396.366,-392.322C389.729,-378.223 374.654,-350.464 353.167,-336 297.367,-298.44 271.349,-316.607 206.167,-300 204.902,-299.678 203.612,-299.347 202.308,-299.01"/>
<polygon fill="midnightblue" stroke="midnightblue" points="202.847,-295.533 192.287,-296.392 201.077,-302.306 202.847,-295.533"/>
</g>
<!-- Node15 -->
<g id="node16" class="node"><title>Node15</title>
<polygon fill="white" stroke="#bfbfbf" points="29.167,-336.5 29.167,-355.5 85.167,-355.5 85.167,-336.5 29.167,-336.5"/>
<text text-anchor="middle" x="57.167" y="-343.5" font-family="Helvetica,sans-Serif" font-size="10.00">algorithm</text>
</g>
<!-- Node11&#45;&gt;Node15 -->
<g id="edge20" class="edge"><title>Node11&#45;&gt;Node15</title>
<path fill="none" stroke="midnightblue" d="M370.473,-397.561C317.285,-391.202 202.089,-376.526 95.3586,-356.082"/>
<polygon fill="midnightblue" stroke="midnightblue" points="95.8727,-352.616 85.3895,-354.15 94.5411,-359.488 95.8727,-352.616"/>
</g>
<!-- Node16 -->
<g id="node17" class="node"><title>Node16</title>
<g id="a_node17"><a xlink:href="NearestFinder_8h.html" target="_top" xlink:title="NearestFinder.h">
<polygon fill="white" stroke="black" points="103.167,-336.5 103.167,-355.5 189.167,-355.5 189.167,-336.5 103.167,-336.5"/>
<text text-anchor="middle" x="146.167" y="-343.5" font-family="Helvetica,sans-Serif" font-size="10.00">NearestFinder.h</text>
</a>
</g>
</g>
<!-- Node11&#45;&gt;Node16 -->
<g id="edge21" class="edge"><title>Node11&#45;&gt;Node16</title>
<path fill="none" stroke="midnightblue" d="M370.533,-394.7C327.838,-385.623 248.455,-368.746 196.474,-357.695"/>
<polygon fill="midnightblue" stroke="midnightblue" points="196.972,-354.223 186.462,-355.567 195.516,-361.07 196.972,-354.223"/>
</g>
<!-- Node17 -->
<g id="node18" class="node"><title>Node17</title>
<g id="a_node18"><a xlink:href="Tileset_8h.html" target="_top" xlink:title="Tileset.h">
<polygon fill="white" stroke="black" points="401.167,-336.5 401.167,-355.5 455.167,-355.5 455.167,-336.5 401.167,-336.5"/>
<text text-anchor="middle" x="428.167" y="-343.5" font-family="Helvetica,sans-Serif" font-size="10.00">Tileset.h</text>
</a>
</g>
</g>
<!-- Node11&#45;&gt;Node17 -->
<g id="edge26" class="edge"><title>Node11&#45;&gt;Node17</title>
<path fill="none" stroke="midnightblue" d="M404.791,-392.083C408.623,-384.691 414.191,-373.953 418.932,-364.811"/>
<polygon fill="midnightblue" stroke="midnightblue" points="422.133,-366.24 423.629,-355.751 415.919,-363.018 422.133,-366.24"/>
</g>
<!-- Node11&#45;&gt;Node18 -->
<g id="edge48" class="edge"><title>Node11&#45;&gt;Node18</title>
<path fill="none" stroke="midnightblue" d="M429.738,-399.302C466.139,-395.937 528.487,-385.904 572.167,-356 589.533,-344.111 602.774,-323.607 610.709,-308.803"/>
<polygon fill="midnightblue" stroke="midnightblue" points="613.953,-310.144 615.341,-299.64 607.706,-306.986 613.953,-310.144"/>
</g>
<!-- Node26 -->
<g id="node27" class="node"><title>Node26</title>
<g id="a_node27"><a xlink:href="TileMapObserver_8h.html" target="_top" xlink:title="TileMapObserver.h">
<polygon fill="white" stroke="black" points="245.667,-336.5 245.667,-355.5 344.667,-355.5 344.667,-336.5 245.667,-336.5"/>
<text text-anchor="middle" x="295.167" y="-343.5" font-family="Helvetica,sans-Serif" font-size="10.00">TileMapObserver.h</text>
</a>
</g>
</g>
<!-- Node11&#45;&gt;Node26 -->
<g id="edge47" class="edge"><title>Node11&#45;&gt;Node26</title>
<path fill="none" stroke="midnightblue" d="M383.297,-392.324C366.458,-383.664 340.36,-370.242 320.929,-360.249"/>
<polygon fill="midnightblue" stroke="midnightblue" points="322.489,-357.116 311.995,-355.655 319.287,-363.341 322.489,-357.116"/>
</g>
<!-- Node11&#45;&gt;Node27 -->
<g id="edge49" class="edge"><title>Node11&#45;&gt;Node27</title>
<path fill="none" stroke="midnightblue" d="M429.745,-396.302C490.907,-386.588 631.33,-364.286 700.368,-353.321"/>
<polygon fill="midnightblue" stroke="midnightblue" points="701.088,-356.751 710.415,-351.725 699.99,-349.837 701.088,-356.751"/>
</g>
<!-- Node16&#45;&gt;Node5 -->
<g id="edge22" class="edge"><title>Node16&#45;&gt;Node5</title>
<path fill="none" stroke="midnightblue" d="M142.397,-336.262C135.085,-318.972 118.928,-279.035 110.167,-244 101.267,-208.41 96.1827,-165.76 93.8165,-141.78"/>
<polygon fill="midnightblue" stroke="midnightblue" points="97.2826,-141.252 92.8685,-131.621 90.3128,-141.903 97.2826,-141.252"/>
</g>
<!-- Node16&#45;&gt;Node9 -->
<g id="edge24" class="edge"><title>Node16&#45;&gt;Node9</title>
<path fill="none" stroke="midnightblue" d="M137.372,-336.172C105.006,-302.657 -2.37105,-181.68 61.167,-112 91.6573,-78.5624 409.072,-69.609 514.407,-67.5493"/>
<polygon fill="midnightblue" stroke="midnightblue" points="514.556,-71.0472 524.489,-67.3608 514.425,-64.0485 514.556,-71.0472"/>
</g>
<!-- Node16&#45;&gt;Node14 -->
<g id="edge23" class="edge"><title>Node16&#45;&gt;Node14</title>
<path fill="none" stroke="midnightblue" d="M150.46,-336.083C154.019,-328.691 159.19,-317.953 163.591,-308.811"/>
<polygon fill="midnightblue" stroke="midnightblue" points="166.769,-310.279 167.954,-299.751 160.462,-307.243 166.769,-310.279"/>
</g>
<!-- Node17&#45;&gt;Node5 -->
<g id="edge28" class="edge"><title>Node17&#45;&gt;Node5</title>
<path fill="none" stroke="midnightblue" d="M401.025,-338.242C374.008,-330.916 331.827,-317.837 298.167,-300 215.588,-256.239 137.396,-174.141 106.299,-139.3"/>
<polygon fill="midnightblue" stroke="midnightblue" points="108.672,-136.7 99.4333,-131.513 103.421,-141.329 108.672,-136.7"/>
</g>
<!-- Node17&#45;&gt;Node7 -->
<g id="edge27" class="edge"><title>Node17&#45;&gt;Node7</title>
<path fill="none" stroke="midnightblue" d="M434.368,-336.332C450.401,-313.418 493.29,-248.819 512.167,-188 516.879,-172.819 519.423,-154.926 520.764,-141.761"/>
<polygon fill="midnightblue" stroke="midnightblue" points="524.269,-141.863 521.657,-131.595 517.296,-141.251 524.269,-141.863"/>
</g>
<!-- Node17&#45;&gt;Node8 -->
<g id="edge46" class="edge"><title>Node17&#45;&gt;Node8</title>
<path fill="none" stroke="midnightblue" d="M406.787,-336.44C371.68,-321.614 300.951,-288.428 253.167,-244 231.139,-223.519 227.596,-215.39 215.167,-188 208.389,-173.063 203.928,-154.923 201.283,-141.605"/>
<polygon fill="midnightblue" stroke="midnightblue" points="204.719,-140.937 199.478,-131.73 197.833,-142.196 204.719,-140.937"/>
</g>
<!-- Node17&#45;&gt;Node9 -->
<g id="edge45" class="edge"><title>Node17&#45;&gt;Node9</title>
<path fill="none" stroke="midnightblue" d="M440.245,-336.412C451.373,-328.054 467.832,-314.52 479.167,-300 529.155,-235.966 536.361,-211.874 551.167,-132 554.002,-116.708 552.92,-99.065 551.314,-86.0222"/>
<polygon fill="midnightblue" stroke="midnightblue" points="554.748,-85.3155 549.854,-75.9192 547.82,-86.3171 554.748,-85.3155"/>
</g>
<!-- Node17&#45;&gt;Node18 -->
<g id="edge29" class="edge"><title>Node17&#45;&gt;Node18</title>
<path fill="none" stroke="midnightblue" d="M455.533,-337.263C490.041,-327.507 549.317,-310.748 586.259,-300.304"/>
<polygon fill="midnightblue" stroke="midnightblue" points="587.377,-303.625 596.048,-297.536 585.473,-296.889 587.377,-303.625"/>
</g>
<!-- Node21 -->
<g id="node22" class="node"><title>Node21</title>
<g id="a_node22"><a xlink:href="Sprite_8h.html" target="_top" xlink:title="Sprite.h">
<polygon fill="white" stroke="black" points="395.167,-280.5 395.167,-299.5 445.167,-299.5 445.167,-280.5 395.167,-280.5"/>
<text text-anchor="middle" x="420.167" y="-287.5" font-family="Helvetica,sans-Serif" font-size="10.00">Sprite.h</text>
</a>
</g>
</g>
<!-- Node17&#45;&gt;Node21 -->
<g id="edge32" class="edge"><title>Node17&#45;&gt;Node21</title>
<path fill="none" stroke="midnightblue" d="M426.846,-336.083C425.786,-328.927 424.261,-318.635 422.936,-309.691"/>
<polygon fill="midnightblue" stroke="midnightblue" points="426.391,-309.13 421.463,-299.751 419.467,-310.156 426.391,-309.13"/>
</g>
<!-- Node19 -->
<g id="node20" class="node"><title>Node19</title>
<polygon fill="white" stroke="#bfbfbf" points="592.167,-224.5 592.167,-243.5 646.167,-243.5 646.167,-224.5 592.167,-224.5"/>
<text text-anchor="middle" x="619.167" y="-231.5" font-family="Helvetica,sans-Serif" font-size="10.00">iostream</text>
</g>
<!-- Node18&#45;&gt;Node19 -->
<g id="edge30" class="edge"><title>Node18&#45;&gt;Node19</title>
<path fill="none" stroke="midnightblue" d="M619.167,-280.083C619.167,-273.006 619.167,-262.861 619.167,-253.986"/>
<polygon fill="midnightblue" stroke="midnightblue" points="622.667,-253.751 619.167,-243.751 615.667,-253.751 622.667,-253.751"/>
</g>
<!-- Node20 -->
<g id="node21" class="node"><title>Node20</title>
<polygon fill="white" stroke="#bfbfbf" points="664.167,-224.5 664.167,-243.5 712.167,-243.5 712.167,-224.5 664.167,-224.5"/>
<text text-anchor="middle" x="688.167" y="-231.5" font-family="Helvetica,sans-Serif" font-size="10.00">stdlib.h</text>
</g>
<!-- Node18&#45;&gt;Node20 -->
<g id="edge31" class="edge"><title>Node18&#45;&gt;Node20</title>
<path fill="none" stroke="midnightblue" d="M630.253,-280.324C640.653,-272.185 656.428,-259.839 668.889,-250.087"/>
<polygon fill="midnightblue" stroke="midnightblue" points="671.161,-252.753 676.879,-243.834 666.847,-247.241 671.161,-252.753"/>
</g>
<!-- Node21&#45;&gt;Node1 -->
<g id="edge36" class="edge"><title>Node21&#45;&gt;Node1</title>
<path fill="none" stroke="midnightblue" d="M404.743,-280.324C389.627,-271.822 366.352,-258.729 348.696,-248.797"/>
<polygon fill="midnightblue" stroke="midnightblue" points="349.985,-245.507 339.553,-243.655 346.553,-251.608 349.985,-245.507"/>
</g>
<!-- Node21&#45;&gt;Node4 -->
<g id="edge33" class="edge"><title>Node21&#45;&gt;Node4</title>
<path fill="none" stroke="midnightblue" d="M423.174,-280.463C426.255,-271.477 431.027,-256.877 434.167,-244 453.356,-165.301 466.15,-69.3503 470.994,-29.6097"/>
<polygon fill="midnightblue" stroke="midnightblue" points="474.485,-29.8994 472.195,-19.5548 467.534,-29.0692 474.485,-29.8994"/>
</g>
<!-- Node21&#45;&gt;Node6 -->
<g id="edge35" class="edge"><title>Node21&#45;&gt;Node6</title>
<path fill="none" stroke="midnightblue" d="M420.113,-280.075C419.956,-253.945 419.494,-177.211 419.279,-141.577"/>
<polygon fill="midnightblue" stroke="midnightblue" points="422.779,-141.547 419.219,-131.568 415.779,-141.589 422.779,-141.547"/>
</g>
<!-- Node21&#45;&gt;Node7 -->
<g id="edge34" class="edge"><title>Node21&#45;&gt;Node7</title>
<path fill="none" stroke="midnightblue" d="M430.223,-280.484C439.828,-271.971 454.269,-258.145 464.167,-244 487.669,-210.415 506.265,-165.833 515.595,-141.239"/>
<polygon fill="midnightblue" stroke="midnightblue" points="518.925,-142.327 519.115,-131.734 512.36,-139.896 518.925,-142.327"/>
</g>
<!-- Node21&#45;&gt;Node8 -->
<g id="edge39" class="edge"><title>Node21&#45;&gt;Node8</title>
<path fill="none" stroke="midnightblue" d="M395.071,-286.303C364.523,-281.932 312.634,-270.886 277.167,-244 241.145,-216.693 216.696,-167.887 205.373,-141.37"/>
<polygon fill="midnightblue" stroke="midnightblue" points="208.478,-139.717 201.444,-131.794 202.001,-142.374 208.478,-139.717"/>
</g>
<!-- Node22 -->
<g id="node23" class="node"><title>Node22</title>
<g id="a_node23"><a xlink:href="Color_8h.html" target="_top" xlink:title="Color.h">
<polygon fill="white" stroke="black" points="123.167,-56.5 123.167,-75.5 171.167,-75.5 171.167,-56.5 123.167,-56.5"/>
<text text-anchor="middle" x="147.167" y="-63.5" font-family="Helvetica,sans-Serif" font-size="10.00">Color.h</text>
</a>
</g>
</g>
<!-- Node21&#45;&gt;Node22 -->
<g id="edge37" class="edge"><title>Node21&#45;&gt;Node22</title>
<path fill="none" stroke="midnightblue" d="M394.916,-287.196C360.315,-283.674 297.425,-273.428 253.167,-244 200.68,-209.1 194.848,-188.128 166.167,-132 158.644,-117.278 153.653,-99.116 150.682,-85.7362"/>
<polygon fill="midnightblue" stroke="midnightblue" points="154.083,-84.8981 148.65,-75.8022 147.225,-86.3007 154.083,-84.8981"/>
</g>
<!-- Node21&#45;&gt;Node23 -->
<g id="edge40" class="edge"><title>Node21&#45;&gt;Node23</title>
<path fill="none" stroke="midnightblue" d="M445.342,-285.824C513.651,-277.205 703.549,-253.246 796.11,-241.568"/>
<polygon fill="midnightblue" stroke="midnightblue" points="796.615,-245.032 806.098,-240.308 795.739,-238.087 796.615,-245.032"/>
</g>
<!-- Node22&#45;&gt;Node4 -->
<g id="edge38" class="edge"><title>Node22&#45;&gt;Node4</title>
<path fill="none" stroke="midnightblue" d="M171.229,-59.004C175.841,-57.9389 180.643,-56.8878 185.167,-56 268.086,-39.7281 365.36,-25.5387 422.987,-17.6376"/>
<polygon fill="midnightblue" stroke="midnightblue" points="423.491,-21.1014 432.927,-16.2834 422.546,-14.1655 423.491,-21.1014"/>
</g>
<!-- Node23&#45;&gt;Node4 -->
<g id="edge41" class="edge"><title>Node23&#45;&gt;Node4</title>
<path fill="none" stroke="midnightblue" d="M824.803,-224.422C806.026,-216.776 779.659,-204.279 760.167,-188 727.554,-160.763 735.349,-138.54 702.167,-112 655.575,-74.735 634.783,-80.0121 580.167,-56 554.41,-44.676 524.922,-32.319 503.433,-23.424"/>
<polygon fill="midnightblue" stroke="midnightblue" points="504.744,-20.1786 494.165,-19.5968 502.072,-26.6487 504.744,-20.1786"/>
</g>
<!-- Node23&#45;&gt;Node9 -->
<g id="edge42" class="edge"><title>Node23&#45;&gt;Node9</title>
<path fill="none" stroke="midnightblue" d="M806.1,-224.525C781.115,-217.852 749.964,-206.502 727.167,-188 696.147,-162.825 710.501,-136.783 679.167,-112 650.61,-89.4136 610.009,-77.8033 581.6,-72.0863"/>
<polygon fill="midnightblue" stroke="midnightblue" points="582.204,-68.6385 571.73,-70.2372 580.915,-75.5188 582.204,-68.6385"/>
</g>
<!-- Node24 -->
<g id="node25" class="node"><title>Node24</title>
<polygon fill="white" stroke="#bfbfbf" points="769.667,-168.5 769.667,-187.5 852.667,-187.5 852.667,-168.5 769.667,-168.5"/>
<text text-anchor="middle" x="811.167" y="-175.5" font-family="Helvetica,sans-Serif" font-size="10.00">unordered_map</text>
</g>
<!-- Node23&#45;&gt;Node24 -->
<g id="edge43" class="edge"><title>Node23&#45;&gt;Node24</title>
<path fill="none" stroke="midnightblue" d="M842.057,-224.083C836.885,-216.534 829.321,-205.495 822.973,-196.23"/>
<polygon fill="midnightblue" stroke="midnightblue" points="825.703,-194.022 817.163,-187.751 819.928,-197.979 825.703,-194.022"/>
</g>
<!-- Node25 -->
<g id="node26" class="node"><title>Node25</title>
<polygon fill="white" stroke="#bfbfbf" points="871.167,-168.5 871.167,-187.5 917.167,-187.5 917.167,-168.5 871.167,-168.5"/>
<text text-anchor="middle" x="894.167" y="-175.5" font-family="Helvetica,sans-Serif" font-size="10.00">cstdint</text>
</g>
<!-- Node23&#45;&gt;Node25 -->
<g id="edge44" class="edge"><title>Node23&#45;&gt;Node25</title>
<path fill="none" stroke="midnightblue" d="M855.763,-224.083C862.395,-216.298 872.188,-204.801 880.225,-195.367"/>
<polygon fill="midnightblue" stroke="midnightblue" points="882.892,-197.633 886.712,-187.751 877.563,-193.094 882.892,-197.633"/>
</g>
<!-- Node27&#45;&gt;Node3 -->
<g id="edge50" class="edge"><title>Node27&#45;&gt;Node3</title>
<path fill="none" stroke="midnightblue" d="M741.885,-336.434C745.791,-314.224 752.708,-254.397 721.167,-224 698.041,-201.713 491.614,-187.279 394.393,-181.658"/>
<polygon fill="midnightblue" stroke="midnightblue" points="394.397,-178.153 384.214,-181.079 393.999,-185.141 394.397,-178.153"/>
</g>
<!-- Node27&#45;&gt;Node9 -->
<g id="edge51" class="edge"><title>Node27&#45;&gt;Node9</title>
<path fill="none" stroke="midnightblue" d="M745.043,-336.372C749.726,-327.552 756.475,-313.299 759.167,-300 766.035,-266.076 761.498,-252.711 742.167,-224 729.862,-205.725 614.652,-117.386 567.819,-81.8504"/>
<polygon fill="midnightblue" stroke="midnightblue" points="569.747,-78.9195 559.662,-75.6705 565.519,-84.4991 569.747,-78.9195"/>
</g>
<!-- Node28 -->
<g id="node29" class="node"><title>Node28</title>
<g id="a_node29"><a xlink:href="ActionManager_8h.html" target="_top" xlink:title="ActionManager.h">
<polygon fill="white" stroke="black" points="806.167,-280.5 806.167,-299.5 896.167,-299.5 896.167,-280.5 806.167,-280.5"/>
<text text-anchor="middle" x="851.167" y="-287.5" font-family="Helvetica,sans-Serif" font-size="10.00">ActionManager.h</text>
</a>
</g>
</g>
<!-- Node27&#45;&gt;Node28 -->
<g id="edge52" class="edge"><title>Node27&#45;&gt;Node28</title>
<path fill="none" stroke="midnightblue" d="M758.001,-336.324C775.883,-327.625 803.642,-314.12 824.213,-304.113"/>
<polygon fill="midnightblue" stroke="midnightblue" points="825.916,-307.177 833.377,-299.655 822.854,-300.882 825.916,-307.177"/>
</g>
<!-- Node28&#45;&gt;Node23 -->
<g id="edge53" class="edge"><title>Node28&#45;&gt;Node23</title>
<path fill="none" stroke="midnightblue" d="M850.672,-280.083C850.278,-273.006 849.715,-262.861 849.222,-253.986"/>
<polygon fill="midnightblue" stroke="midnightblue" points="852.703,-253.542 848.653,-243.751 845.713,-253.93 852.703,-253.542"/>
</g>
<!-- Node29&#45;&gt;Node4 -->
<g id="edge55" class="edge"><title>Node29&#45;&gt;Node4</title>
<path fill="none" stroke="midnightblue" d="M950.802,-168.262C920.743,-145.635 835.906,-84.8884 755.167,-56 677.385,-28.1695 581.386,-17.5036 523.838,-13.4484"/>
<polygon fill="midnightblue" stroke="midnightblue" points="523.763,-9.93576 513.553,-12.7654 523.299,-16.9204 523.763,-9.93576"/>
</g>
<!-- Node29&#45;&gt;Node6 -->
<g id="edge56" class="edge"><title>Node29&#45;&gt;Node6</title>
<path fill="none" stroke="midnightblue" d="M935.532,-169.83C932.39,-169.136 929.218,-168.504 926.167,-168 735.209,-136.425 684.698,-151.846 492.167,-132 480.302,-130.777 467.377,-129.248 455.745,-127.8"/>
<polygon fill="midnightblue" stroke="midnightblue" points="455.854,-124.286 445.494,-126.503 454.976,-131.23 455.854,-124.286"/>
</g>
<!-- Node29&#45;&gt;Node7 -->
<g id="edge57" class="edge"><title>Node29&#45;&gt;Node7</title>
<path fill="none" stroke="midnightblue" d="M935.517,-169.915C932.378,-169.206 929.211,-168.547 926.167,-168 788.042,-143.157 620.726,-129.756 552.918,-125.012"/>
<polygon fill="midnightblue" stroke="midnightblue" points="553.126,-121.518 542.91,-124.324 552.646,-128.501 553.126,-121.518"/>
</g>
</g>
</svg>
