<?xml version="1.0" encoding="UTF-8" standalone="no"?>
<!DOCTYPE svg PUBLIC "-//W3C//DTD SVG 1.1//EN"
 "http://www.w3.org/Graphics/SVG/1.1/DTD/svg11.dtd">
<!-- Generated by graphviz version 2.38.0 (20140413.2041)
 -->
<!-- Title: src/DragAndDrop.cpp Pages: 1 -->
<svg width="1440pt" height="420pt"
 viewBox="0.00 0.00 1439.58 420.00" xmlns="http://www.w3.org/2000/svg" xmlns:xlink="http://www.w3.org/1999/xlink">
<g id="graph0" class="graph" transform="scale(1 1) rotate(0) translate(4 416)">
<title>src/DragAndDrop.cpp</title>
<polygon fill="white" stroke="none" points="-4,4 -4,-416 1435.58,-416 1435.58,4 -4,4"/>
<!-- Node0 -->
<g id="node1" class="node"><title>Node0</title>
<polygon fill="#bfbfbf" stroke="black" points="790.076,-392.5 790.076,-411.5 901.076,-411.5 901.076,-392.5 790.076,-392.5"/>
<text text-anchor="middle" x="845.576" y="-399.5" font-family="Helvetica,sans-Serif" font-size="10.00">src/DragAndDrop.cpp</text>
</g>
<!-- Node1 -->
<g id="node2" class="node"><title>Node1</title>
<g id="a_node2"><a xlink:href="DragAndDrop_8h.html" target="_top" xlink:title="DragAndDrop.h">
<polygon fill="white" stroke="black" points="726.576,-336.5 726.576,-355.5 810.576,-355.5 810.576,-336.5 726.576,-336.5"/>
<text text-anchor="middle" x="768.576" y="-343.5" font-family="Helvetica,sans-Serif" font-size="10.00">DragAndDrop.h</text>
</a>
</g>
</g>
<!-- Node0&#45;&gt;Node1 -->
<g id="edge1" class="edge"><title>Node0&#45;&gt;Node1</title>
<path fill="none" stroke="midnightblue" d="M833.205,-392.324C821.418,-384.058 803.444,-371.453 789.441,-361.632"/>
<polygon fill="midnightblue" stroke="midnightblue" points="791.114,-358.531 780.917,-355.655 787.095,-364.262 791.114,-358.531"/>
</g>
<!-- Node12 -->
<g id="node13" class="node"><title>Node12</title>
<g id="a_node13"><a xlink:href="TileMap_8h.html" target="_top" xlink:title="TileMap.h">
<polygon fill="white" stroke="black" points="453.076,-280.5 453.076,-299.5 512.076,-299.5 512.076,-280.5 453.076,-280.5"/>
<text text-anchor="middle" x="482.576" y="-287.5" font-family="Helvetica,sans-Serif" font-size="10.00">TileMap.h</text>
</a>
</g>
</g>
<!-- Node0&#45;&gt;Node12 -->
<g id="edge67" class="edge"><title>Node0&#45;&gt;Node12</title>
<path fill="none" stroke="midnightblue" d="M817.394,-392.46C752.801,-372.886 594.004,-324.766 520.742,-302.565"/>
<polygon fill="midnightblue" stroke="midnightblue" points="521.576,-299.161 510.991,-299.61 519.546,-305.86 521.576,-299.161"/>
</g>
<!-- Node22 -->
<g id="node23" class="node"><title>Node22</title>
<g id="a_node23"><a xlink:href="InputManager_8h.html" target="_top" xlink:title="InputManager.h">
<polygon fill="white" stroke="black" points="1084.58,-112.5 1084.58,-131.5 1168.58,-131.5 1168.58,-112.5 1084.58,-112.5"/>
<text text-anchor="middle" x="1126.58" y="-119.5" font-family="Helvetica,sans-Serif" font-size="10.00">InputManager.h</text>
</a>
</g>
</g>
<!-- Node0&#45;&gt;Node22 -->
<g id="edge66" class="edge"><title>Node0&#45;&gt;Node22</title>
<path fill="none" stroke="midnightblue" d="M901.494,-398.646C1019.57,-392.15 1283.58,-368.913 1283.58,-291 1283.58,-291 1283.58,-291 1283.58,-233 1283.58,-202.902 1285.53,-189.608 1264.58,-168 1242.14,-144.858 1207.67,-133.607 1178.79,-128.143"/>
<polygon fill="midnightblue" stroke="midnightblue" points="1179.29,-124.677 1168.84,-126.441 1178.11,-131.576 1179.29,-124.677"/>
</g>
<!-- Node30 -->
<g id="node31" class="node"><title>Node30</title>
<g id="a_node31"><a xlink:href="Camera_8h.html" target="_top" xlink:title="Camera.h">
<polygon fill="white" stroke="black" points="816.076,-224.5 816.076,-243.5 875.076,-243.5 875.076,-224.5 816.076,-224.5"/>
<text text-anchor="middle" x="845.576" y="-231.5" font-family="Helvetica,sans-Serif" font-size="10.00">Camera.h</text>
</a>
</g>
</g>
<!-- Node0&#45;&gt;Node30 -->
<g id="edge58" class="edge"><title>Node0&#45;&gt;Node30</title>
<path fill="none" stroke="midnightblue" d="M845.576,-392.075C845.576,-365.945 845.576,-289.211 845.576,-253.577"/>
<polygon fill="midnightblue" stroke="midnightblue" points="849.076,-253.568 845.576,-243.568 842.076,-253.568 849.076,-253.568"/>
</g>
<!-- Node32 -->
<g id="node33" class="node"><title>Node32</title>
<g id="a_node33"><a xlink:href="Error_8h.html" target="_top" xlink:title="Error.h">
<polygon fill="white" stroke="black" points="1315.58,-336.5 1315.58,-355.5 1361.58,-355.5 1361.58,-336.5 1315.58,-336.5"/>
<text text-anchor="middle" x="1338.58" y="-343.5" font-family="Helvetica,sans-Serif" font-size="10.00">Error.h</text>
</a>
</g>
</g>
<!-- Node0&#45;&gt;Node32 -->
<g id="edge63" class="edge"><title>Node0&#45;&gt;Node32</title>
<path fill="none" stroke="midnightblue" d="M901.161,-397.566C986.711,-391.808 1155.64,-378.565 1297.58,-356 1300.1,-355.6 1302.69,-355.14 1305.3,-354.646"/>
<polygon fill="midnightblue" stroke="midnightblue" points="1306.15,-358.044 1315.25,-352.615 1304.75,-351.185 1306.15,-358.044"/>
</g>
<!-- Node2 -->
<g id="node3" class="node"><title>Node2</title>
<g id="a_node3"><a xlink:href="Component_8h.html" target="_top" xlink:title="Component.h">
<polygon fill="white" stroke="black" points="723.076,-224.5 723.076,-243.5 798.076,-243.5 798.076,-224.5 723.076,-224.5"/>
<text text-anchor="middle" x="760.576" y="-231.5" font-family="Helvetica,sans-Serif" font-size="10.00">Component.h</text>
</a>
</g>
</g>
<!-- Node1&#45;&gt;Node2 -->
<g id="edge2" class="edge"><title>Node1&#45;&gt;Node2</title>
<path fill="none" stroke="midnightblue" d="M767.949,-336.368C766.658,-318.617 763.679,-277.666 761.929,-253.597"/>
<polygon fill="midnightblue" stroke="midnightblue" points="765.417,-253.311 761.201,-243.591 758.436,-253.819 765.417,-253.311"/>
</g>
<!-- Node1&#45;&gt;Node12 -->
<g id="edge16" class="edge"><title>Node1&#45;&gt;Node12</title>
<path fill="none" stroke="midnightblue" d="M726.376,-337.032C671.344,-326.641 575.787,-308.599 522.105,-298.463"/>
<polygon fill="midnightblue" stroke="midnightblue" points="522.745,-295.023 512.269,-296.606 521.446,-301.901 522.745,-295.023"/>
</g>
<!-- Node29 -->
<g id="node30" class="node"><title>Node29</title>
<g id="a_node30"><a xlink:href="Sound_8h.html" target="_top" xlink:title="Sound.h">
<polygon fill="white" stroke="black" points="1004.08,-168.5 1004.08,-187.5 1057.08,-187.5 1057.08,-168.5 1004.08,-168.5"/>
<text text-anchor="middle" x="1030.58" y="-175.5" font-family="Helvetica,sans-Serif" font-size="10.00">Sound.h</text>
</a>
</g>
</g>
<!-- Node1&#45;&gt;Node29 -->
<g id="edge54" class="edge"><title>Node1&#45;&gt;Node29</title>
<path fill="none" stroke="midnightblue" d="M801.488,-336.461C847.805,-323.111 932.884,-293.559 989.576,-244 1004.45,-230.998 1015.83,-211.293 1022.79,-196.988"/>
<polygon fill="midnightblue" stroke="midnightblue" points="1026.06,-198.246 1027.06,-187.698 1019.7,-195.324 1026.06,-198.246"/>
</g>
<!-- Node3 -->
<g id="node4" class="node"><title>Node3</title>
<g id="a_node4"><a xlink:href="ComponentType_8h.html" target="_top" xlink:title="ComponentType.h">
<polygon fill="white" stroke="black" points="623.076,-112.5 623.076,-131.5 720.076,-131.5 720.076,-112.5 623.076,-112.5"/>
<text text-anchor="middle" x="671.576" y="-119.5" font-family="Helvetica,sans-Serif" font-size="10.00">ComponentType.h</text>
</a>
</g>
</g>
<!-- Node2&#45;&gt;Node3 -->
<g id="edge3" class="edge"><title>Node2&#45;&gt;Node3</title>
<path fill="none" stroke="midnightblue" d="M747.054,-224.277C735.041,-216.024 717.575,-202.732 705.576,-188 693.912,-173.679 684.552,-154.722 678.628,-140.979"/>
<polygon fill="midnightblue" stroke="midnightblue" points="681.831,-139.564 674.788,-131.649 675.358,-142.228 681.831,-139.564"/>
</g>
<!-- Node4 -->
<g id="node5" class="node"><title>Node4</title>
<g id="a_node5"><a xlink:href="GameObject_8h.html" target="_top" xlink:title="GameObject.h">
<polygon fill="white" stroke="black" points="714.576,-168.5 714.576,-187.5 794.576,-187.5 794.576,-168.5 714.576,-168.5"/>
<text text-anchor="middle" x="754.576" y="-175.5" font-family="Helvetica,sans-Serif" font-size="10.00">GameObject.h</text>
</a>
</g>
</g>
<!-- Node2&#45;&gt;Node4 -->
<g id="edge4" class="edge"><title>Node2&#45;&gt;Node4</title>
<path fill="none" stroke="midnightblue" d="M754.419,-224.083C752.14,-217.006 750.575,-206.861 750.207,-197.986"/>
<polygon fill="midnightblue" stroke="midnightblue" points="753.711,-197.821 750.418,-187.751 746.713,-197.677 753.711,-197.821"/>
</g>
<!-- Node4&#45;&gt;Node2 -->
<g id="edge9" class="edge"><title>Node4&#45;&gt;Node2</title>
<path fill="none" stroke="midnightblue" d="M760.68,-187.751C762.97,-194.78 764.55,-204.91 764.936,-213.805"/>
<polygon fill="midnightblue" stroke="midnightblue" points="761.432,-214.022 764.752,-224.083 768.431,-214.147 761.432,-214.022"/>
</g>
<!-- Node4&#45;&gt;Node3 -->
<g id="edge10" class="edge"><title>Node4&#45;&gt;Node3</title>
<path fill="none" stroke="midnightblue" d="M741.241,-168.324C728.414,-159.979 708.791,-147.212 693.637,-137.352"/>
<polygon fill="midnightblue" stroke="midnightblue" points="695.169,-134.174 684.879,-131.655 691.352,-140.042 695.169,-134.174"/>
</g>
<!-- Node5 -->
<g id="node6" class="node"><title>Node5</title>
<g id="a_node6"><a xlink:href="SDL__include_8h.html" target="_top" xlink:title="SDL_include.h">
<polygon fill="white" stroke="black" points="924.576,-0.5 924.576,-19.5 1004.58,-19.5 1004.58,-0.5 924.576,-0.5"/>
<text text-anchor="middle" x="964.576" y="-7.5" font-family="Helvetica,sans-Serif" font-size="10.00">SDL_include.h</text>
</a>
</g>
</g>
<!-- Node4&#45;&gt;Node5 -->
<g id="edge5" class="edge"><title>Node4&#45;&gt;Node5</title>
<path fill="none" stroke="midnightblue" d="M755.673,-168.192C758.921,-145.923 770.561,-86.9504 805.576,-56 835.478,-29.5696 879.832,-18.576 914.103,-14.0469"/>
<polygon fill="midnightblue" stroke="midnightblue" points="914.864,-17.4817 924.387,-12.839 914.047,-10.5295 914.864,-17.4817"/>
</g>
<!-- Node6 -->
<g id="node7" class="node"><title>Node6</title>
<polygon fill="white" stroke="#bfbfbf" points="29.5763,-112.5 29.5763,-131.5 73.5763,-131.5 73.5763,-112.5 29.5763,-112.5"/>
<text text-anchor="middle" x="51.5763" y="-119.5" font-family="Helvetica,sans-Serif" font-size="10.00">vector</text>
</g>
<!-- Node4&#45;&gt;Node6 -->
<g id="edge6" class="edge"><title>Node4&#45;&gt;Node6</title>
<path fill="none" stroke="midnightblue" d="M714.511,-173.922C588.029,-164.207 198.816,-134.31 83.8638,-125.48"/>
<polygon fill="midnightblue" stroke="midnightblue" points="83.8522,-121.969 73.6135,-124.693 83.316,-128.948 83.8522,-121.969"/>
</g>
<!-- Node7 -->
<g id="node8" class="node"><title>Node7</title>
<polygon fill="white" stroke="#bfbfbf" points="1014.58,-112.5 1014.58,-131.5 1066.58,-131.5 1066.58,-112.5 1014.58,-112.5"/>
<text text-anchor="middle" x="1040.58" y="-119.5" font-family="Helvetica,sans-Serif" font-size="10.00">memory</text>
</g>
<!-- Node4&#45;&gt;Node7 -->
<g id="edge7" class="edge"><title>Node4&#45;&gt;Node7</title>
<path fill="none" stroke="midnightblue" d="M795.007,-170.577C842.543,-162.837 924.029,-148.983 1004.02,-131.988"/>
<polygon fill="midnightblue" stroke="midnightblue" points="1005.23,-135.308 1014.28,-129.79 1003.77,-128.464 1005.23,-135.308"/>
</g>
<!-- Node8 -->
<g id="node9" class="node"><title>Node8</title>
<polygon fill="white" stroke="#bfbfbf" points="955.076,-112.5 955.076,-131.5 996.076,-131.5 996.076,-112.5 955.076,-112.5"/>
<text text-anchor="middle" x="975.576" y="-119.5" font-family="Helvetica,sans-Serif" font-size="10.00">string</text>
</g>
<!-- Node4&#45;&gt;Node8 -->
<g id="edge8" class="edge"><title>Node4&#45;&gt;Node8</title>
<path fill="none" stroke="midnightblue" d="M789.594,-168.444C832.477,-157.965 904.411,-140.389 945.107,-130.445"/>
<polygon fill="midnightblue" stroke="midnightblue" points="946.101,-133.805 954.984,-128.032 944.439,-127.005 946.101,-133.805"/>
</g>
<!-- Node9 -->
<g id="node10" class="node"><title>Node9</title>
<g id="a_node10"><a xlink:href="Rect_8h.html" target="_top" xlink:title="Rect.h">
<polygon fill="white" stroke="black" points="814.576,-112.5 814.576,-131.5 860.576,-131.5 860.576,-112.5 814.576,-112.5"/>
<text text-anchor="middle" x="837.576" y="-119.5" font-family="Helvetica,sans-Serif" font-size="10.00">Rect.h</text>
</a>
</g>
</g>
<!-- Node4&#45;&gt;Node9 -->
<g id="edge11" class="edge"><title>Node4&#45;&gt;Node9</title>
<path fill="none" stroke="midnightblue" d="M767.912,-168.324C780.738,-159.979 800.361,-147.212 815.516,-137.352"/>
<polygon fill="midnightblue" stroke="midnightblue" points="817.801,-140.042 824.274,-131.655 813.983,-134.174 817.801,-140.042"/>
</g>
<!-- Node9&#45;&gt;Node5 -->
<g id="edge12" class="edge"><title>Node9&#45;&gt;Node5</title>
<path fill="none" stroke="midnightblue" d="M846.089,-112.265C858.69,-99.4754 883.23,-75.0996 905.576,-56 918.062,-45.3283 932.746,-34.1244 944.341,-25.5654"/>
<polygon fill="midnightblue" stroke="midnightblue" points="946.51,-28.3152 952.519,-19.5886 942.38,-22.6638 946.51,-28.3152"/>
</g>
<!-- Node10 -->
<g id="node11" class="node"><title>Node10</title>
<g id="a_node11"><a xlink:href="Vec2_8h.html" target="_top" xlink:title="Vec2.h">
<polygon fill="white" stroke="black" points="711.076,-56.5 711.076,-75.5 758.076,-75.5 758.076,-56.5 711.076,-56.5"/>
<text text-anchor="middle" x="734.576" y="-63.5" font-family="Helvetica,sans-Serif" font-size="10.00">Vec2.h</text>
</a>
</g>
</g>
<!-- Node9&#45;&gt;Node10 -->
<g id="edge13" class="edge"><title>Node9&#45;&gt;Node10</title>
<path fill="none" stroke="midnightblue" d="M821.028,-112.324C804.585,-103.703 779.141,-90.3643 760.108,-80.3855"/>
<polygon fill="midnightblue" stroke="midnightblue" points="761.566,-77.198 751.084,-75.6545 758.315,-83.3977 761.566,-77.198"/>
</g>
<!-- Node11 -->
<g id="node12" class="node"><title>Node11</title>
<polygon fill="white" stroke="#bfbfbf" points="814.576,-56.5 814.576,-75.5 858.576,-75.5 858.576,-56.5 814.576,-56.5"/>
<text text-anchor="middle" x="836.576" y="-63.5" font-family="Helvetica,sans-Serif" font-size="10.00">cmath</text>
</g>
<!-- Node9&#45;&gt;Node11 -->
<g id="edge15" class="edge"><title>Node9&#45;&gt;Node11</title>
<path fill="none" stroke="midnightblue" d="M837.411,-112.083C837.28,-105.006 837.092,-94.8611 836.928,-85.9865"/>
<polygon fill="midnightblue" stroke="midnightblue" points="840.423,-85.6845 836.738,-75.7511 833.424,-85.8142 840.423,-85.6845"/>
</g>
<!-- Node10&#45;&gt;Node5 -->
<g id="edge14" class="edge"><title>Node10&#45;&gt;Node5</title>
<path fill="none" stroke="midnightblue" d="M758.291,-59.3743C763.023,-58.2544 767.957,-57.0884 772.576,-56 822.286,-44.288 879.255,-30.946 918.145,-21.8503"/>
<polygon fill="midnightblue" stroke="midnightblue" points="919.18,-25.2029 928.12,-19.5178 917.586,-18.3868 919.18,-25.2029"/>
</g>
<!-- Node12&#45;&gt;Node4 -->
<g id="edge40" class="edge"><title>Node12&#45;&gt;Node4</title>
<path fill="none" stroke="midnightblue" d="M512.205,-285.83C550.377,-280.884 618.063,-269.157 670.576,-244 696.916,-231.382 722.818,-209.495 738.741,-194.64"/>
<polygon fill="midnightblue" stroke="midnightblue" points="741.297,-197.038 746.107,-187.598 736.46,-191.978 741.297,-197.038"/>
</g>
<!-- Node12&#45;&gt;Node6 -->
<g id="edge18" class="edge"><title>Node12&#45;&gt;Node6</title>
<path fill="none" stroke="midnightblue" d="M452.77,-288.434C353.757,-286.248 40.3751,-276.775 10.5763,-244 -16.7709,-213.921 16.0554,-164.891 36.9112,-139.462"/>
<polygon fill="midnightblue" stroke="midnightblue" points="39.6104,-141.691 43.4209,-131.805 34.2772,-137.157 39.6104,-141.691"/>
</g>
<!-- Node12&#45;&gt;Node8 -->
<g id="edge17" class="edge"><title>Node12&#45;&gt;Node8</title>
<path fill="none" stroke="midnightblue" d="M512.321,-288.259C611.154,-285.517 924.176,-274.478 956.576,-244 984.494,-217.738 982.517,-168.471 978.903,-141.615"/>
<polygon fill="midnightblue" stroke="midnightblue" points="982.341,-140.948 977.336,-131.609 975.426,-142.031 982.341,-140.948"/>
</g>
<!-- Node12&#45;&gt;Node10 -->
<g id="edge39" class="edge"><title>Node12&#45;&gt;Node10</title>
<path fill="none" stroke="midnightblue" d="M512.273,-284.594C552.677,-277.922 621.665,-263.892 636.576,-244 672.295,-196.351 579.59,-160.9 613.576,-112 633.114,-83.8891 672.412,-73.3033 700.935,-69.3372"/>
<polygon fill="midnightblue" stroke="midnightblue" points="701.382,-72.8089 710.9,-68.1553 700.557,-65.8576 701.382,-72.8089"/>
</g>
<!-- Node13 -->
<g id="node14" class="node"><title>Node13</title>
<polygon fill="white" stroke="#bfbfbf" points="216.076,-224.5 216.076,-243.5 245.076,-243.5 245.076,-224.5 216.076,-224.5"/>
<text text-anchor="middle" x="230.576" y="-231.5" font-family="Helvetica,sans-Serif" font-size="10.00">list</text>
</g>
<!-- Node12&#45;&gt;Node13 -->
<g id="edge19" class="edge"><title>Node12&#45;&gt;Node13</title>
<path fill="none" stroke="midnightblue" d="M452.892,-284.905C410.643,-278.703 330.698,-265.592 255.196,-244.102"/>
<polygon fill="midnightblue" stroke="midnightblue" points="256.116,-240.724 245.537,-241.298 254.165,-247.447 256.116,-240.724"/>
</g>
<!-- Node14 -->
<g id="node15" class="node"><title>Node14</title>
<polygon fill="white" stroke="#bfbfbf" points="263.076,-224.5 263.076,-243.5 306.076,-243.5 306.076,-224.5 263.076,-224.5"/>
<text text-anchor="middle" x="284.576" y="-231.5" font-family="Helvetica,sans-Serif" font-size="10.00">queue</text>
</g>
<!-- Node12&#45;&gt;Node14 -->
<g id="edge20" class="edge"><title>Node12&#45;&gt;Node14</title>
<path fill="none" stroke="midnightblue" d="M453.066,-281.379C421.362,-273.13 369.269,-259.397 315.822,-244.299"/>
<polygon fill="midnightblue" stroke="midnightblue" points="316.759,-240.927 306.184,-241.566 314.849,-247.662 316.759,-240.927"/>
</g>
<!-- Node15 -->
<g id="node16" class="node"><title>Node15</title>
<polygon fill="white" stroke="#bfbfbf" points="129.576,-168.5 129.576,-187.5 169.576,-187.5 169.576,-168.5 129.576,-168.5"/>
<text text-anchor="middle" x="149.576" y="-175.5" font-family="Helvetica,sans-Serif" font-size="10.00">limits</text>
</g>
<!-- Node12&#45;&gt;Node15 -->
<g id="edge21" class="edge"><title>Node12&#45;&gt;Node15</title>
<path fill="none" stroke="midnightblue" d="M452.933,-287.311C388.357,-283.167 237.343,-270.82 194.576,-244 177.004,-232.98 164.496,-212.319 157.198,-197.24"/>
<polygon fill="midnightblue" stroke="midnightblue" points="160.279,-195.558 152.979,-187.88 153.897,-198.435 160.279,-195.558"/>
</g>
<!-- Node16 -->
<g id="node17" class="node"><title>Node16</title>
<polygon fill="white" stroke="#bfbfbf" points="324.076,-224.5 324.076,-243.5 359.076,-243.5 359.076,-224.5 324.076,-224.5"/>
<text text-anchor="middle" x="341.576" y="-231.5" font-family="Helvetica,sans-Serif" font-size="10.00">map</text>
</g>
<!-- Node12&#45;&gt;Node16 -->
<g id="edge22" class="edge"><title>Node12&#45;&gt;Node16</title>
<path fill="none" stroke="midnightblue" d="M460.234,-280.444C435.446,-270.95 395.443,-255.63 368.833,-245.439"/>
<polygon fill="midnightblue" stroke="midnightblue" points="369.94,-242.115 359.349,-241.807 367.436,-248.652 369.94,-242.115"/>
</g>
<!-- Node17 -->
<g id="node18" class="node"><title>Node17</title>
<polygon fill="white" stroke="#bfbfbf" points="377.076,-224.5 377.076,-243.5 436.076,-243.5 436.076,-224.5 377.076,-224.5"/>
<text text-anchor="middle" x="406.576" y="-231.5" font-family="Helvetica,sans-Serif" font-size="10.00">functional</text>
</g>
<!-- Node12&#45;&gt;Node17 -->
<g id="edge23" class="edge"><title>Node12&#45;&gt;Node17</title>
<path fill="none" stroke="midnightblue" d="M470.366,-280.324C458.8,-272.107 441.201,-259.602 427.416,-249.807"/>
<polygon fill="midnightblue" stroke="midnightblue" points="429.188,-246.773 419.009,-243.834 425.134,-252.479 429.188,-246.773"/>
</g>
<!-- Node18 -->
<g id="node19" class="node"><title>Node18</title>
<polygon fill="white" stroke="#bfbfbf" points="454.576,-224.5 454.576,-243.5 510.576,-243.5 510.576,-224.5 454.576,-224.5"/>
<text text-anchor="middle" x="482.576" y="-231.5" font-family="Helvetica,sans-Serif" font-size="10.00">algorithm</text>
</g>
<!-- Node12&#45;&gt;Node18 -->
<g id="edge24" class="edge"><title>Node12&#45;&gt;Node18</title>
<path fill="none" stroke="midnightblue" d="M482.576,-280.083C482.576,-273.006 482.576,-262.861 482.576,-253.986"/>
<polygon fill="midnightblue" stroke="midnightblue" points="486.076,-253.751 482.576,-243.751 479.076,-253.751 486.076,-253.751"/>
</g>
<!-- Node19 -->
<g id="node20" class="node"><title>Node19</title>
<g id="a_node20"><a xlink:href="Tileset_8h.html" target="_top" xlink:title="Tileset.h">
<polygon fill="white" stroke="black" points="893.576,-224.5 893.576,-243.5 947.576,-243.5 947.576,-224.5 893.576,-224.5"/>
<text text-anchor="middle" x="920.576" y="-231.5" font-family="Helvetica,sans-Serif" font-size="10.00">Tileset.h</text>
</a>
</g>
</g>
<!-- Node12&#45;&gt;Node19 -->
<g id="edge25" class="edge"><title>Node12&#45;&gt;Node19</title>
<path fill="none" stroke="midnightblue" d="M512.191,-286.969C577.385,-282.224 738.336,-269.001 883.219,-243.828"/>
<polygon fill="midnightblue" stroke="midnightblue" points="883.938,-247.256 893.179,-242.074 882.724,-240.362 883.938,-247.256"/>
</g>
<!-- Node25 -->
<g id="node26" class="node"><title>Node25</title>
<g id="a_node26"><a xlink:href="AStarHeuristic_8h.html" target="_top" xlink:title="AStarHeuristic.h">
<polygon fill="white" stroke="black" points="350.076,-168.5 350.076,-187.5 439.076,-187.5 439.076,-168.5 350.076,-168.5"/>
<text text-anchor="middle" x="394.576" y="-175.5" font-family="Helvetica,sans-Serif" font-size="10.00">AStarHeuristic.h</text>
</a>
</g>
</g>
<!-- Node12&#45;&gt;Node25 -->
<g id="edge41" class="edge"><title>Node12&#45;&gt;Node25</title>
<path fill="none" stroke="midnightblue" d="M452.763,-288.783C388.038,-287.615 237.944,-280.896 206.576,-244 167.162,-197.638 271.071,-184.304 339.678,-180.496"/>
<polygon fill="midnightblue" stroke="midnightblue" points="340.128,-183.978 349.94,-179.981 339.778,-176.986 340.128,-183.978"/>
</g>
<!-- Node26 -->
<g id="node27" class="node"><title>Node26</title>
<g id="a_node27"><a xlink:href="Resources_8h.html" target="_top" xlink:title="Resources.h">
<polygon fill="white" stroke="black" points="1183.58,-168.5 1183.58,-187.5 1255.58,-187.5 1255.58,-168.5 1183.58,-168.5"/>
<text text-anchor="middle" x="1219.58" y="-175.5" font-family="Helvetica,sans-Serif" font-size="10.00">Resources.h</text>
</a>
</g>
</g>
<!-- Node12&#45;&gt;Node26 -->
<g id="edge43" class="edge"><title>Node12&#45;&gt;Node26</title>
<path fill="none" stroke="midnightblue" d="M512.268,-288.299C590.817,-286.029 810.329,-276.984 989.576,-244 1060.37,-230.972 1140.84,-205.75 1185.36,-190.845"/>
<polygon fill="midnightblue" stroke="midnightblue" points="1186.73,-194.076 1195.09,-187.56 1184.49,-187.444 1186.73,-194.076"/>
</g>
<!-- Node27 -->
<g id="node28" class="node"><title>Node27</title>
<g id="a_node28"><a xlink:href="TileMapObserver_8h.html" target="_top" xlink:title="TileMapObserver.h">
<polygon fill="white" stroke="black" points="529.076,-224.5 529.076,-243.5 628.076,-243.5 628.076,-224.5 529.076,-224.5"/>
<text text-anchor="middle" x="578.576" y="-231.5" font-family="Helvetica,sans-Serif" font-size="10.00">TileMapObserver.h</text>
</a>
</g>
</g>
<!-- Node12&#45;&gt;Node27 -->
<g id="edge48" class="edge"><title>Node12&#45;&gt;Node27</title>
<path fill="none" stroke="midnightblue" d="M498,-280.324C513.116,-271.822 536.392,-258.729 554.047,-248.797"/>
<polygon fill="midnightblue" stroke="midnightblue" points="556.191,-251.608 563.191,-243.655 552.759,-245.507 556.191,-251.608"/>
</g>
<!-- Node28 -->
<g id="node29" class="node"><title>Node28</title>
<g id="a_node29"><a xlink:href="NearestGOFinder_8h.html" target="_top" xlink:title="NearestGOFinder.h">
<polygon fill="white" stroke="black" points="20.0763,-224.5 20.0763,-243.5 121.076,-243.5 121.076,-224.5 20.0763,-224.5"/>
<text text-anchor="middle" x="70.5763" y="-231.5" font-family="Helvetica,sans-Serif" font-size="10.00">NearestGOFinder.h</text>
</a>
</g>
</g>
<!-- Node12&#45;&gt;Node28 -->
<g id="edge49" class="edge"><title>Node12&#45;&gt;Node28</title>
<path fill="none" stroke="midnightblue" d="M452.858,-285.234C392.863,-277.611 252.983,-259.741 135.576,-244 134.274,-243.825 132.958,-243.648 131.63,-243.469"/>
<polygon fill="midnightblue" stroke="midnightblue" points="131.693,-239.946 121.313,-242.068 130.751,-246.882 131.693,-239.946"/>
</g>
<!-- Node19&#45;&gt;Node8 -->
<g id="edge26" class="edge"><title>Node19&#45;&gt;Node8</title>
<path fill="none" stroke="midnightblue" d="M924.892,-224.368C933.888,-206.376 954.801,-164.55 966.763,-140.627"/>
<polygon fill="midnightblue" stroke="midnightblue" points="969.939,-142.101 971.281,-131.591 963.678,-138.97 969.939,-142.101"/>
</g>
<!-- Node20 -->
<g id="node21" class="node"><title>Node20</title>
<g id="a_node21"><a xlink:href="Sprite_8h.html" target="_top" xlink:title="Sprite.h">
<polygon fill="white" stroke="black" points="859.576,-168.5 859.576,-187.5 909.576,-187.5 909.576,-168.5 859.576,-168.5"/>
<text text-anchor="middle" x="884.576" y="-175.5" font-family="Helvetica,sans-Serif" font-size="10.00">Sprite.h</text>
</a>
</g>
</g>
<!-- Node19&#45;&gt;Node20 -->
<g id="edge27" class="edge"><title>Node19&#45;&gt;Node20</title>
<path fill="none" stroke="midnightblue" d="M914.632,-224.083C909.599,-216.534 902.24,-205.495 896.063,-196.23"/>
<polygon fill="midnightblue" stroke="midnightblue" points="898.87,-194.13 890.41,-187.751 893.045,-198.013 898.87,-194.13"/>
</g>
<!-- Node20&#45;&gt;Node5 -->
<g id="edge28" class="edge"><title>Node20&#45;&gt;Node5</title>
<path fill="none" stroke="midnightblue" d="M892.761,-168.225C913.621,-145.764 967.428,-87.1733 971.576,-76 977.132,-61.0373 974.472,-42.8994 970.946,-29.5898"/>
<polygon fill="midnightblue" stroke="midnightblue" points="974.202,-28.268 967.941,-19.7209 967.505,-30.3068 974.202,-28.268"/>
</g>
<!-- Node20&#45;&gt;Node7 -->
<g id="edge30" class="edge"><title>Node20&#45;&gt;Node7</title>
<path fill="none" stroke="midnightblue" d="M909.295,-168.444C935.425,-159.399 976.836,-145.064 1006.15,-134.916"/>
<polygon fill="midnightblue" stroke="midnightblue" points="1007.67,-138.095 1015.97,-131.516 1005.38,-131.48 1007.67,-138.095"/>
</g>
<!-- Node20&#45;&gt;Node8 -->
<g id="edge29" class="edge"><title>Node20&#45;&gt;Node8</title>
<path fill="none" stroke="midnightblue" d="M899.197,-168.324C913.525,-159.822 935.589,-146.729 952.325,-136.797"/>
<polygon fill="midnightblue" stroke="midnightblue" points="954.178,-139.768 960.992,-131.655 950.606,-133.748 954.178,-139.768"/>
</g>
<!-- Node20&#45;&gt;Node9 -->
<g id="edge33" class="edge"><title>Node20&#45;&gt;Node9</title>
<path fill="none" stroke="midnightblue" d="M876.815,-168.083C870.04,-160.298 860.033,-148.801 851.821,-139.367"/>
<polygon fill="midnightblue" stroke="midnightblue" points="854.398,-136.996 845.193,-131.751 849.118,-141.592 854.398,-136.996"/>
</g>
<!-- Node21 -->
<g id="node22" class="node"><title>Node21</title>
<g id="a_node22"><a xlink:href="Color_8h.html" target="_top" xlink:title="Color.h">
<polygon fill="white" stroke="black" points="914.576,-56.5 914.576,-75.5 962.576,-75.5 962.576,-56.5 914.576,-56.5"/>
<text text-anchor="middle" x="938.576" y="-63.5" font-family="Helvetica,sans-Serif" font-size="10.00">Color.h</text>
</a>
</g>
</g>
<!-- Node20&#45;&gt;Node21 -->
<g id="edge31" class="edge"><title>Node20&#45;&gt;Node21</title>
<path fill="none" stroke="midnightblue" d="M887.89,-168.441C892.841,-155.871 902.652,-131.765 912.576,-112 917.232,-102.727 922.952,-92.7044 927.84,-84.4769"/>
<polygon fill="midnightblue" stroke="midnightblue" points="930.909,-86.165 933.083,-75.7955 924.917,-82.5464 930.909,-86.165"/>
</g>
<!-- Node20&#45;&gt;Node22 -->
<g id="edge34" class="edge"><title>Node20&#45;&gt;Node22</title>
<path fill="none" stroke="midnightblue" d="M910.017,-171.323C949.867,-162.431 1027.68,-145.068 1078.37,-133.757"/>
<polygon fill="midnightblue" stroke="midnightblue" points="1079.44,-137.104 1088.44,-131.51 1077.92,-130.272 1079.44,-137.104"/>
</g>
<!-- Node21&#45;&gt;Node5 -->
<g id="edge32" class="edge"><title>Node21&#45;&gt;Node5</title>
<path fill="none" stroke="midnightblue" d="M942.87,-56.083C946.429,-48.6913 951.599,-37.9533 956.001,-28.8111"/>
<polygon fill="midnightblue" stroke="midnightblue" points="959.178,-30.2795 960.363,-19.7511 952.871,-27.2427 959.178,-30.2795"/>
</g>
<!-- Node22&#45;&gt;Node5 -->
<g id="edge35" class="edge"><title>Node22&#45;&gt;Node5</title>
<path fill="none" stroke="midnightblue" d="M1110.6,-112.421C1094.77,-103.752 1070.02,-89.7146 1049.58,-76 1025.8,-60.0488 999.839,-39.7429 982.946,-26.1083"/>
<polygon fill="midnightblue" stroke="midnightblue" points="984.965,-23.2386 974.998,-19.6448 980.548,-28.6695 984.965,-23.2386"/>
</g>
<!-- Node22&#45;&gt;Node10 -->
<g id="edge36" class="edge"><title>Node22&#45;&gt;Node10</title>
<path fill="none" stroke="midnightblue" d="M1084.58,-113.439C1081.53,-112.937 1078.51,-112.452 1075.58,-112 1016.65,-102.917 842.186,-80.6257 768.272,-71.2569"/>
<polygon fill="midnightblue" stroke="midnightblue" points="768.483,-67.7557 758.122,-69.9715 767.603,-74.7002 768.483,-67.7557"/>
</g>
<!-- Node23 -->
<g id="node24" class="node"><title>Node23</title>
<polygon fill="white" stroke="#bfbfbf" points="1123.08,-56.5 1123.08,-75.5 1206.08,-75.5 1206.08,-56.5 1123.08,-56.5"/>
<text text-anchor="middle" x="1164.58" y="-63.5" font-family="Helvetica,sans-Serif" font-size="10.00">unordered_map</text>
</g>
<!-- Node22&#45;&gt;Node23 -->
<g id="edge37" class="edge"><title>Node22&#45;&gt;Node23</title>
<path fill="none" stroke="midnightblue" d="M1132.85,-112.083C1138.22,-104.455 1146.09,-93.2645 1152.65,-83.9408"/>
<polygon fill="midnightblue" stroke="midnightblue" points="1155.53,-85.9434 1158.42,-75.7511 1149.8,-81.9149 1155.53,-85.9434"/>
</g>
<!-- Node24 -->
<g id="node25" class="node"><title>Node24</title>
<polygon fill="white" stroke="#bfbfbf" points="1058.58,-56.5 1058.58,-75.5 1104.58,-75.5 1104.58,-56.5 1058.58,-56.5"/>
<text text-anchor="middle" x="1081.58" y="-63.5" font-family="Helvetica,sans-Serif" font-size="10.00">cstdint</text>
</g>
<!-- Node22&#45;&gt;Node24 -->
<g id="edge38" class="edge"><title>Node22&#45;&gt;Node24</title>
<path fill="none" stroke="midnightblue" d="M1119.15,-112.083C1112.72,-104.377 1103.27,-93.0333 1095.45,-83.6531"/>
<polygon fill="midnightblue" stroke="midnightblue" points="1097.96,-81.1927 1088.87,-75.7511 1092.58,-85.674 1097.96,-81.1927"/>
</g>
<!-- Node25&#45;&gt;Node10 -->
<g id="edge42" class="edge"><title>Node25&#45;&gt;Node10</title>
<path fill="none" stroke="midnightblue" d="M417.934,-168.399C453.05,-155.568 521.618,-130.902 580.576,-112 621.803,-98.7828 669.737,-85.0269 701.036,-76.2587"/>
<polygon fill="midnightblue" stroke="midnightblue" points="702.288,-79.5432 710.98,-73.4843 700.407,-72.8008 702.288,-79.5432"/>
</g>
<!-- Node26&#45;&gt;Node5 -->
<g id="edge44" class="edge"><title>Node26&#45;&gt;Node5</title>
<path fill="none" stroke="midnightblue" d="M1224.36,-168.446C1235.76,-146.774 1261.59,-89.0865 1233.58,-56 1206.15,-23.6026 1085.19,-14.5122 1015.17,-11.9733"/>
<polygon fill="midnightblue" stroke="midnightblue" points="1014.91,-8.4632 1004.8,-11.6318 1014.68,-15.4594 1014.91,-8.4632"/>
</g>
<!-- Node26&#45;&gt;Node7 -->
<g id="edge47" class="edge"><title>Node26&#45;&gt;Node7</title>
<path fill="none" stroke="midnightblue" d="M1191.21,-168.444C1160.21,-159.091 1110.47,-144.084 1076.7,-133.897"/>
<polygon fill="midnightblue" stroke="midnightblue" points="1077.35,-130.439 1066.77,-130.902 1075.33,-137.141 1077.35,-130.439"/>
</g>
<!-- Node26&#45;&gt;Node8 -->
<g id="edge45" class="edge"><title>Node26&#45;&gt;Node8</title>
<path fill="none" stroke="midnightblue" d="M1183.38,-169.773C1135.19,-160.091 1051.62,-143.072 1005.87,-131.864"/>
<polygon fill="midnightblue" stroke="midnightblue" points="1006.72,-128.469 996.169,-129.427 1005.01,-135.258 1006.72,-128.469"/>
</g>
<!-- Node26&#45;&gt;Node23 -->
<g id="edge46" class="edge"><title>Node26&#45;&gt;Node23</title>
<path fill="none" stroke="midnightblue" d="M1215.26,-168.368C1206.26,-150.376 1185.35,-108.55 1173.39,-84.6267"/>
<polygon fill="midnightblue" stroke="midnightblue" points="1176.47,-82.9704 1168.87,-75.5914 1170.21,-86.101 1176.47,-82.9704"/>
</g>
<!-- Node28&#45;&gt;Node4 -->
<g id="edge53" class="edge"><title>Node28&#45;&gt;Node4</title>
<path fill="none" stroke="midnightblue" d="M121.15,-229.007C247.858,-219.004 577.783,-192.957 704.238,-182.974"/>
<polygon fill="midnightblue" stroke="midnightblue" points="704.718,-186.447 714.412,-182.171 704.167,-179.469 704.718,-186.447"/>
</g>
<!-- Node28&#45;&gt;Node6 -->
<g id="edge51" class="edge"><title>Node28&#45;&gt;Node6</title>
<path fill="none" stroke="midnightblue" d="M69.0854,-224.368C66.0192,-206.617 58.946,-165.666 54.7886,-141.597"/>
<polygon fill="midnightblue" stroke="midnightblue" points="58.2114,-140.85 53.0603,-131.591 51.3135,-142.041 58.2114,-140.85"/>
</g>
<!-- Node28&#45;&gt;Node10 -->
<g id="edge52" class="edge"><title>Node28&#45;&gt;Node10</title>
<path fill="none" stroke="midnightblue" d="M74.6496,-224.127C81.7535,-209.747 97.8505,-181.594 120.576,-168 220.381,-108.301 586.613,-77.5785 700.528,-69.3196"/>
<polygon fill="midnightblue" stroke="midnightblue" points="701.021,-72.7934 710.747,-68.5902 700.523,-65.8111 701.021,-72.7934"/>
</g>
<!-- Node28&#45;&gt;Node15 -->
<g id="edge50" class="edge"><title>Node28&#45;&gt;Node15</title>
<path fill="none" stroke="midnightblue" d="M83.269,-224.324C95.4775,-215.979 114.155,-203.212 128.579,-193.352"/>
<polygon fill="midnightblue" stroke="midnightblue" points="130.635,-196.187 136.915,-187.655 126.684,-190.408 130.635,-196.187"/>
</g>
<!-- Node29&#45;&gt;Node5 -->
<g id="edge55" class="edge"><title>Node29&#45;&gt;Node5</title>
<path fill="none" stroke="midnightblue" d="M1057.23,-169.893C1096.88,-159.165 1167.8,-139.312 1177.58,-132 1207.66,-109.504 1238.67,-84.8217 1214.58,-56 1189.64,-26.1731 1080.46,-16.0858 1014.91,-12.696"/>
<polygon fill="midnightblue" stroke="midnightblue" points="1014.94,-9.19354 1004.79,-12.2075 1014.61,-16.1854 1014.94,-9.19354"/>
</g>
<!-- Node29&#45;&gt;Node7 -->
<g id="edge56" class="edge"><title>Node29&#45;&gt;Node7</title>
<path fill="none" stroke="midnightblue" d="M1032.23,-168.083C1033.55,-160.927 1035.46,-150.635 1037.11,-141.691"/>
<polygon fill="midnightblue" stroke="midnightblue" points="1040.58,-142.221 1038.96,-131.751 1033.69,-140.947 1040.58,-142.221"/>
</g>
<!-- Node29&#45;&gt;Node8 -->
<g id="edge57" class="edge"><title>Node29&#45;&gt;Node8</title>
<path fill="none" stroke="midnightblue" d="M1021.49,-168.083C1013.4,-160.141 1001.38,-148.335 991.666,-138.797"/>
<polygon fill="midnightblue" stroke="midnightblue" points="994.077,-136.26 984.489,-131.751 989.173,-141.254 994.077,-136.26"/>
</g>
<!-- Node30&#45;&gt;Node4 -->
<g id="edge59" class="edge"><title>Node30&#45;&gt;Node4</title>
<path fill="none" stroke="midnightblue" d="M830.956,-224.324C816.627,-215.822 794.564,-202.729 777.828,-192.797"/>
<polygon fill="midnightblue" stroke="midnightblue" points="779.547,-189.748 769.161,-187.655 775.974,-195.768 779.547,-189.748"/>
</g>
<!-- Node30&#45;&gt;Node10 -->
<g id="edge60" class="edge"><title>Node30&#45;&gt;Node10</title>
<path fill="none" stroke="midnightblue" d="M839.941,-224.122C831.947,-211.563 816.812,-187.919 803.576,-168 783.791,-138.226 760.19,-103.936 746.347,-83.944"/>
<polygon fill="midnightblue" stroke="midnightblue" points="749.133,-81.8191 740.559,-75.5961 743.381,-85.8081 749.133,-81.8191"/>
</g>
<!-- Node31 -->
<g id="node32" class="node"><title>Node31</title>
<g id="a_node32"><a xlink:href="ActionManager_8h.html" target="_top" xlink:title="ActionManager.h">
<polygon fill="white" stroke="black" points="1075.58,-168.5 1075.58,-187.5 1165.58,-187.5 1165.58,-168.5 1075.58,-168.5"/>
<text text-anchor="middle" x="1120.58" y="-175.5" font-family="Helvetica,sans-Serif" font-size="10.00">ActionManager.h</text>
</a>
</g>
</g>
<!-- Node30&#45;&gt;Node31 -->
<g id="edge61" class="edge"><title>Node30&#45;&gt;Node31</title>
<path fill="none" stroke="midnightblue" d="M875.361,-226.003C878.469,-225.31 881.584,-224.63 884.576,-224 946.305,-210.997 1017.47,-197.652 1065.37,-188.907"/>
<polygon fill="midnightblue" stroke="midnightblue" points="1066.02,-192.347 1075.23,-187.113 1064.77,-185.46 1066.02,-192.347"/>
</g>
<!-- Node31&#45;&gt;Node22 -->
<g id="edge62" class="edge"><title>Node31&#45;&gt;Node22</title>
<path fill="none" stroke="midnightblue" d="M1121.57,-168.083C1122.36,-160.927 1123.51,-150.635 1124.5,-141.691"/>
<polygon fill="midnightblue" stroke="midnightblue" points="1127.98,-142.076 1125.6,-131.751 1121.02,-141.303 1127.98,-142.076"/>
</g>
<!-- Node33 -->
<g id="node34" class="node"><title>Node33</title>
<polygon fill="white" stroke="#bfbfbf" points="1311.58,-280.5 1311.58,-299.5 1365.58,-299.5 1365.58,-280.5 1311.58,-280.5"/>
<text text-anchor="middle" x="1338.58" y="-287.5" font-family="Helvetica,sans-Serif" font-size="10.00">iostream</text>
</g>
<!-- Node32&#45;&gt;Node33 -->
<g id="edge64" class="edge"><title>Node32&#45;&gt;Node33</title>
<path fill="none" stroke="midnightblue" d="M1338.58,-336.083C1338.58,-329.006 1338.58,-318.861 1338.58,-309.986"/>
<polygon fill="midnightblue" stroke="midnightblue" points="1342.08,-309.751 1338.58,-299.751 1335.08,-309.751 1342.08,-309.751"/>
</g>
<!-- Node34 -->
<g id="node35" class="node"><title>Node34</title>
<polygon fill="white" stroke="#bfbfbf" points="1383.58,-280.5 1383.58,-299.5 1431.58,-299.5 1431.58,-280.5 1383.58,-280.5"/>
<text text-anchor="middle" x="1407.58" y="-287.5" font-family="Helvetica,sans-Serif" font-size="10.00">stdlib.h</text>
</g>
<!-- Node32&#45;&gt;Node34 -->
<g id="edge65" class="edge"><title>Node32&#45;&gt;Node34</title>
<path fill="none" stroke="midnightblue" d="M1349.66,-336.324C1360.06,-328.185 1375.84,-315.839 1388.3,-306.087"/>
<polygon fill="midnightblue" stroke="midnightblue" points="1390.57,-308.753 1396.29,-299.834 1386.26,-303.241 1390.57,-308.753"/>
</g>
</g>
</svg>
