<?xml version="1.0" encoding="UTF-8" standalone="no"?>
<!DOCTYPE svg PUBLIC "-//W3C//DTD SVG 1.1//EN"
 "http://www.w3.org/Graphics/SVG/1.1/DTD/svg11.dtd">
<!-- Generated by graphviz version 2.38.0 (20140413.2041)
 -->
<!-- Title: include/DragAndDrop.h Pages: 1 -->
<svg width="1187pt" height="364pt"
 viewBox="0.00 0.00 1187.00 364.00" xmlns="http://www.w3.org/2000/svg" xmlns:xlink="http://www.w3.org/1999/xlink">
<g id="graph0" class="graph" transform="scale(1 1) rotate(0) translate(4 360)">
<title>include/DragAndDrop.h</title>
<polygon fill="white" stroke="none" points="-4,4 -4,-360 1183,-360 1183,4 -4,4"/>
<!-- Node0 -->
<g id="node1" class="node"><title>Node0</title>
<polygon fill="#bfbfbf" stroke="black" points="272.5,-336.5 272.5,-355.5 390.5,-355.5 390.5,-336.5 272.5,-336.5"/>
<text text-anchor="middle" x="331.5" y="-343.5" font-family="Helvetica,sans-Serif" font-size="10.00">include/DragAndDrop.h</text>
</g>
<!-- Node1 -->
<g id="node2" class="node"><title>Node1</title>
<g id="a_node2"><a xlink:href="Component_8h.html" target="_top" xlink:title="Component.h">
<polygon fill="white" stroke="black" points="294,-224.5 294,-243.5 369,-243.5 369,-224.5 294,-224.5"/>
<text text-anchor="middle" x="331.5" y="-231.5" font-family="Helvetica,sans-Serif" font-size="10.00">Component.h</text>
</a>
</g>
</g>
<!-- Node0&#45;&gt;Node1 -->
<g id="edge1" class="edge"><title>Node0&#45;&gt;Node1</title>
<path fill="none" stroke="midnightblue" d="M331.5,-336.368C331.5,-318.617 331.5,-277.666 331.5,-253.597"/>
<polygon fill="midnightblue" stroke="midnightblue" points="335,-253.591 331.5,-243.591 328,-253.591 335,-253.591"/>
</g>
<!-- Node11 -->
<g id="node12" class="node"><title>Node11</title>
<g id="a_node12"><a xlink:href="TileMap_8h.html" target="_top" xlink:title="TileMap.h">
<polygon fill="white" stroke="black" points="531,-280.5 531,-299.5 590,-299.5 590,-280.5 531,-280.5"/>
<text text-anchor="middle" x="560.5" y="-287.5" font-family="Helvetica,sans-Serif" font-size="10.00">TileMap.h</text>
</a>
</g>
</g>
<!-- Node0&#45;&gt;Node11 -->
<g id="edge15" class="edge"><title>Node0&#45;&gt;Node11</title>
<path fill="none" stroke="midnightblue" d="M367.786,-336.444C409.585,-326.587 478.021,-310.449 521.094,-300.292"/>
<polygon fill="midnightblue" stroke="midnightblue" points="522.008,-303.673 530.938,-297.971 520.402,-296.86 522.008,-303.673"/>
</g>
<!-- Node28 -->
<g id="node29" class="node"><title>Node28</title>
<g id="a_node29"><a xlink:href="Sound_8h.html" target="_top" xlink:title="Sound.h">
<polygon fill="white" stroke="black" points="0,-168.5 0,-187.5 53,-187.5 53,-168.5 0,-168.5"/>
<text text-anchor="middle" x="26.5" y="-175.5" font-family="Helvetica,sans-Serif" font-size="10.00">Sound.h</text>
</a>
</g>
</g>
<!-- Node0&#45;&gt;Node28 -->
<g id="edge53" class="edge"><title>Node0&#45;&gt;Node28</title>
<path fill="none" stroke="midnightblue" d="M315.364,-336.43C282.796,-319.11 206.903,-278.641 143.5,-244 111.419,-226.472 74.5814,-205.939 50.9495,-192.715"/>
<polygon fill="midnightblue" stroke="midnightblue" points="52.4157,-189.524 41.9806,-187.691 48.9952,-195.632 52.4157,-189.524"/>
</g>
<!-- Node2 -->
<g id="node3" class="node"><title>Node2</title>
<g id="a_node3"><a xlink:href="ComponentType_8h.html" target="_top" xlink:title="ComponentType.h">
<polygon fill="white" stroke="black" points="441,-112.5 441,-131.5 538,-131.5 538,-112.5 441,-112.5"/>
<text text-anchor="middle" x="489.5" y="-119.5" font-family="Helvetica,sans-Serif" font-size="10.00">ComponentType.h</text>
</a>
</g>
</g>
<!-- Node1&#45;&gt;Node2 -->
<g id="edge2" class="edge"><title>Node1&#45;&gt;Node2</title>
<path fill="none" stroke="midnightblue" d="M331.586,-224.149C332.205,-210.306 335.424,-183.515 350.5,-168 363.129,-155.003 404.968,-142.495 439.472,-133.979"/>
<polygon fill="midnightblue" stroke="midnightblue" points="440.539,-137.322 449.441,-131.577 438.899,-130.517 440.539,-137.322"/>
</g>
<!-- Node3 -->
<g id="node4" class="node"><title>Node3</title>
<g id="a_node4"><a xlink:href="GameObject_8h.html" target="_top" xlink:title="GameObject.h">
<polygon fill="white" stroke="black" points="359.5,-168.5 359.5,-187.5 439.5,-187.5 439.5,-168.5 359.5,-168.5"/>
<text text-anchor="middle" x="399.5" y="-175.5" font-family="Helvetica,sans-Serif" font-size="10.00">GameObject.h</text>
</a>
</g>
</g>
<!-- Node1&#45;&gt;Node3 -->
<g id="edge3" class="edge"><title>Node1&#45;&gt;Node3</title>
<path fill="none" stroke="midnightblue" d="M337.311,-224.324C345.93,-216.058 361.483,-203.453 374.998,-193.632"/>
<polygon fill="midnightblue" stroke="midnightblue" points="377.328,-196.272 383.492,-187.655 373.299,-190.548 377.328,-196.272"/>
</g>
<!-- Node3&#45;&gt;Node1 -->
<g id="edge8" class="edge"><title>Node3&#45;&gt;Node1</title>
<path fill="none" stroke="midnightblue" d="M393.525,-187.834C384.869,-196.106 369.418,-208.62 355.985,-218.38"/>
<polygon fill="midnightblue" stroke="midnightblue" points="353.703,-215.706 347.54,-224.324 357.732,-221.43 353.703,-215.706"/>
</g>
<!-- Node3&#45;&gt;Node2 -->
<g id="edge9" class="edge"><title>Node3&#45;&gt;Node2</title>
<path fill="none" stroke="midnightblue" d="M413.96,-168.324C428,-159.9 449.548,-146.971 466.043,-137.074"/>
<polygon fill="midnightblue" stroke="midnightblue" points="468.302,-139.801 475.076,-131.655 464.7,-133.798 468.302,-139.801"/>
</g>
<!-- Node4 -->
<g id="node5" class="node"><title>Node4</title>
<g id="a_node5"><a xlink:href="SDL__include_8h.html" target="_top" xlink:title="SDL_include.h">
<polygon fill="white" stroke="black" points="231.5,-0.5 231.5,-19.5 311.5,-19.5 311.5,-0.5 231.5,-0.5"/>
<text text-anchor="middle" x="271.5" y="-7.5" font-family="Helvetica,sans-Serif" font-size="10.00">SDL_include.h</text>
</a>
</g>
</g>
<!-- Node3&#45;&gt;Node4 -->
<g id="edge4" class="edge"><title>Node3&#45;&gt;Node4</title>
<path fill="none" stroke="midnightblue" d="M439.639,-174.981C489.915,-170.577 567.133,-156.567 546.5,-112 508.441,-29.7953 390.229,-13.0871 321.815,-10.53"/>
<polygon fill="midnightblue" stroke="midnightblue" points="321.786,-7.02786 311.69,-10.2411 321.586,-14.025 321.786,-7.02786"/>
</g>
<!-- Node5 -->
<g id="node6" class="node"><title>Node5</title>
<polygon fill="white" stroke="#bfbfbf" points="872.5,-112.5 872.5,-131.5 916.5,-131.5 916.5,-112.5 872.5,-112.5"/>
<text text-anchor="middle" x="894.5" y="-119.5" font-family="Helvetica,sans-Serif" font-size="10.00">vector</text>
</g>
<!-- Node3&#45;&gt;Node5 -->
<g id="edge5" class="edge"><title>Node3&#45;&gt;Node5</title>
<path fill="none" stroke="midnightblue" d="M439.589,-172.627C535.258,-162.19 775.417,-135.991 862.406,-126.501"/>
<polygon fill="midnightblue" stroke="midnightblue" points="862.908,-129.967 872.469,-125.403 862.149,-123.009 862.908,-129.967"/>
</g>
<!-- Node6 -->
<g id="node7" class="node"><title>Node6</title>
<polygon fill="white" stroke="#bfbfbf" points="68.5,-112.5 68.5,-131.5 120.5,-131.5 120.5,-112.5 68.5,-112.5"/>
<text text-anchor="middle" x="94.5" y="-119.5" font-family="Helvetica,sans-Serif" font-size="10.00">memory</text>
</g>
<!-- Node3&#45;&gt;Node6 -->
<g id="edge6" class="edge"><title>Node3&#45;&gt;Node6</title>
<path fill="none" stroke="midnightblue" d="M359.313,-169.885C299.619,-159.316 188.405,-139.626 130.95,-129.453"/>
<polygon fill="midnightblue" stroke="midnightblue" points="131.329,-125.966 120.872,-127.669 130.108,-132.859 131.329,-125.966"/>
</g>
<!-- Node7 -->
<g id="node8" class="node"><title>Node7</title>
<polygon fill="white" stroke="#bfbfbf" points="317,-112.5 317,-131.5 358,-131.5 358,-112.5 317,-112.5"/>
<text text-anchor="middle" x="337.5" y="-119.5" font-family="Helvetica,sans-Serif" font-size="10.00">string</text>
</g>
<!-- Node3&#45;&gt;Node7 -->
<g id="edge7" class="edge"><title>Node3&#45;&gt;Node7</title>
<path fill="none" stroke="midnightblue" d="M389.539,-168.324C380.373,-160.341 366.563,-148.313 355.472,-138.653"/>
<polygon fill="midnightblue" stroke="midnightblue" points="357.482,-135.762 347.643,-131.834 352.885,-141.041 357.482,-135.762"/>
</g>
<!-- Node8 -->
<g id="node9" class="node"><title>Node8</title>
<g id="a_node9"><a xlink:href="Rect_8h.html" target="_top" xlink:title="Rect.h">
<polygon fill="white" stroke="black" points="376.5,-112.5 376.5,-131.5 422.5,-131.5 422.5,-112.5 376.5,-112.5"/>
<text text-anchor="middle" x="399.5" y="-119.5" font-family="Helvetica,sans-Serif" font-size="10.00">Rect.h</text>
</a>
</g>
</g>
<!-- Node3&#45;&gt;Node8 -->
<g id="edge10" class="edge"><title>Node3&#45;&gt;Node8</title>
<path fill="none" stroke="midnightblue" d="M399.5,-168.083C399.5,-161.006 399.5,-150.861 399.5,-141.986"/>
<polygon fill="midnightblue" stroke="midnightblue" points="403,-141.751 399.5,-131.751 396,-141.751 403,-141.751"/>
</g>
<!-- Node8&#45;&gt;Node4 -->
<g id="edge11" class="edge"><title>Node8&#45;&gt;Node4</title>
<path fill="none" stroke="midnightblue" d="M399.267,-112.286C398.447,-98.6319 394.956,-72.0938 380.5,-56 365.088,-38.8411 342.131,-28.0697 321.255,-21.3869"/>
<polygon fill="midnightblue" stroke="midnightblue" points="322.114,-17.9909 311.532,-18.5103 320.128,-24.7034 322.114,-17.9909"/>
</g>
<!-- Node9 -->
<g id="node10" class="node"><title>Node9</title>
<g id="a_node10"><a xlink:href="Vec2_8h.html" target="_top" xlink:title="Vec2.h">
<polygon fill="white" stroke="black" points="758,-56.5 758,-75.5 805,-75.5 805,-56.5 758,-56.5"/>
<text text-anchor="middle" x="781.5" y="-63.5" font-family="Helvetica,sans-Serif" font-size="10.00">Vec2.h</text>
</a>
</g>
</g>
<!-- Node8&#45;&gt;Node9 -->
<g id="edge12" class="edge"><title>Node8&#45;&gt;Node9</title>
<path fill="none" stroke="midnightblue" d="M422.822,-114.015C425.729,-113.271 428.673,-112.576 431.5,-112 546.414,-88.5839 685.172,-75.0256 747.861,-69.6755"/>
<polygon fill="midnightblue" stroke="midnightblue" points="748.286,-73.1523 757.958,-68.8291 747.701,-66.1768 748.286,-73.1523"/>
</g>
<!-- Node10 -->
<g id="node11" class="node"><title>Node10</title>
<polygon fill="white" stroke="#bfbfbf" points="427.5,-56.5 427.5,-75.5 471.5,-75.5 471.5,-56.5 427.5,-56.5"/>
<text text-anchor="middle" x="449.5" y="-63.5" font-family="Helvetica,sans-Serif" font-size="10.00">cmath</text>
</g>
<!-- Node8&#45;&gt;Node10 -->
<g id="edge14" class="edge"><title>Node8&#45;&gt;Node10</title>
<path fill="none" stroke="midnightblue" d="M407.756,-112.083C414.965,-104.298 425.61,-92.8015 434.346,-83.3665"/>
<polygon fill="midnightblue" stroke="midnightblue" points="437.171,-85.4666 441.397,-75.7511 432.035,-80.7108 437.171,-85.4666"/>
</g>
<!-- Node9&#45;&gt;Node4 -->
<g id="edge13" class="edge"><title>Node9&#45;&gt;Node4</title>
<path fill="none" stroke="midnightblue" d="M757.924,-62.5038C680.02,-54.2551 429.689,-27.7494 321.777,-16.3234"/>
<polygon fill="midnightblue" stroke="midnightblue" points="322.102,-12.8384 311.789,-15.2659 321.365,-19.7994 322.102,-12.8384"/>
</g>
<!-- Node11&#45;&gt;Node3 -->
<g id="edge39" class="edge"><title>Node11&#45;&gt;Node3</title>
<path fill="none" stroke="midnightblue" d="M530.705,-282.437C505.956,-275.861 470.827,-263.818 445.5,-244 429.223,-231.264 416.269,-211.235 408.308,-196.776"/>
<polygon fill="midnightblue" stroke="midnightblue" points="411.355,-195.048 403.615,-187.813 405.153,-198.295 411.355,-195.048"/>
</g>
<!-- Node11&#45;&gt;Node5 -->
<g id="edge17" class="edge"><title>Node11&#45;&gt;Node5</title>
<path fill="none" stroke="midnightblue" d="M590.187,-288.247C685.117,-285.536 976.707,-274.752 1004.5,-244 1039.98,-204.739 965.474,-158.501 922.338,-136.261"/>
<polygon fill="midnightblue" stroke="midnightblue" points="923.657,-133.007 913.15,-131.641 920.511,-139.261 923.657,-133.007"/>
</g>
<!-- Node11&#45;&gt;Node7 -->
<g id="edge16" class="edge"><title>Node11&#45;&gt;Node7</title>
<path fill="none" stroke="midnightblue" d="M530.686,-288.783C465.962,-287.615 315.868,-280.896 284.5,-244 257.156,-211.836 296.539,-163.366 320.826,-138.669"/>
<polygon fill="midnightblue" stroke="midnightblue" points="323.402,-141.045 328.077,-131.537 318.493,-136.054 323.402,-141.045"/>
</g>
<!-- Node11&#45;&gt;Node9 -->
<g id="edge38" class="edge"><title>Node11&#45;&gt;Node9</title>
<path fill="none" stroke="midnightblue" d="M590.015,-288.375C687.311,-286.016 993.393,-276.079 1022.5,-244 1068.14,-193.7 1003.9,-146.668 945.5,-112 904.43,-87.6214 849.78,-76.0841 815.111,-70.8936"/>
<polygon fill="midnightblue" stroke="midnightblue" points="815.42,-67.4027 805.03,-69.4793 814.447,-74.3348 815.42,-67.4027"/>
</g>
<!-- Node12 -->
<g id="node13" class="node"><title>Node12</title>
<polygon fill="white" stroke="#bfbfbf" points="464,-224.5 464,-243.5 493,-243.5 493,-224.5 464,-224.5"/>
<text text-anchor="middle" x="478.5" y="-231.5" font-family="Helvetica,sans-Serif" font-size="10.00">list</text>
</g>
<!-- Node11&#45;&gt;Node12 -->
<g id="edge18" class="edge"><title>Node11&#45;&gt;Node12</title>
<path fill="none" stroke="midnightblue" d="M547.325,-280.324C534.653,-271.979 515.267,-259.212 500.294,-249.352"/>
<polygon fill="midnightblue" stroke="midnightblue" points="501.919,-246.231 491.642,-243.655 498.069,-252.078 501.919,-246.231"/>
</g>
<!-- Node13 -->
<g id="node14" class="node"><title>Node13</title>
<polygon fill="white" stroke="#bfbfbf" points="511,-224.5 511,-243.5 554,-243.5 554,-224.5 511,-224.5"/>
<text text-anchor="middle" x="532.5" y="-231.5" font-family="Helvetica,sans-Serif" font-size="10.00">queue</text>
</g>
<!-- Node11&#45;&gt;Node13 -->
<g id="edge19" class="edge"><title>Node11&#45;&gt;Node13</title>
<path fill="none" stroke="midnightblue" d="M555.876,-280.083C552.044,-272.691 546.476,-261.953 541.735,-252.811"/>
<polygon fill="midnightblue" stroke="midnightblue" points="544.748,-251.018 537.038,-243.751 538.534,-254.24 544.748,-251.018"/>
</g>
<!-- Node14 -->
<g id="node15" class="node"><title>Node14</title>
<polygon fill="white" stroke="#bfbfbf" points="648.5,-168.5 648.5,-187.5 688.5,-187.5 688.5,-168.5 648.5,-168.5"/>
<text text-anchor="middle" x="668.5" y="-175.5" font-family="Helvetica,sans-Serif" font-size="10.00">limits</text>
</g>
<!-- Node11&#45;&gt;Node14 -->
<g id="edge20" class="edge"><title>Node11&#45;&gt;Node14</title>
<path fill="none" stroke="midnightblue" d="M530.891,-283.039C491.676,-273.828 430.15,-254.003 454.5,-224 477.274,-195.939 584.532,-184.727 638.018,-180.823"/>
<polygon fill="midnightblue" stroke="midnightblue" points="638.527,-184.296 648.262,-180.117 638.045,-177.313 638.527,-184.296"/>
</g>
<!-- Node15 -->
<g id="node16" class="node"><title>Node15</title>
<polygon fill="white" stroke="#bfbfbf" points="572,-224.5 572,-243.5 607,-243.5 607,-224.5 572,-224.5"/>
<text text-anchor="middle" x="589.5" y="-231.5" font-family="Helvetica,sans-Serif" font-size="10.00">map</text>
</g>
<!-- Node11&#45;&gt;Node15 -->
<g id="edge21" class="edge"><title>Node11&#45;&gt;Node15</title>
<path fill="none" stroke="midnightblue" d="M565.289,-280.083C569.258,-272.691 575.025,-261.953 579.935,-252.811"/>
<polygon fill="midnightblue" stroke="midnightblue" points="583.153,-254.217 584.8,-243.751 576.986,-250.905 583.153,-254.217"/>
</g>
<!-- Node16 -->
<g id="node17" class="node"><title>Node16</title>
<polygon fill="white" stroke="#bfbfbf" points="625,-224.5 625,-243.5 684,-243.5 684,-224.5 625,-224.5"/>
<text text-anchor="middle" x="654.5" y="-231.5" font-family="Helvetica,sans-Serif" font-size="10.00">functional</text>
</g>
<!-- Node11&#45;&gt;Node16 -->
<g id="edge22" class="edge"><title>Node11&#45;&gt;Node16</title>
<path fill="none" stroke="midnightblue" d="M575.603,-280.324C590.403,-271.822 613.194,-258.729 630.482,-248.797"/>
<polygon fill="midnightblue" stroke="midnightblue" points="632.507,-251.671 639.435,-243.655 629.02,-245.601 632.507,-251.671"/>
</g>
<!-- Node17 -->
<g id="node18" class="node"><title>Node17</title>
<polygon fill="white" stroke="#bfbfbf" points="702.5,-224.5 702.5,-243.5 758.5,-243.5 758.5,-224.5 702.5,-224.5"/>
<text text-anchor="middle" x="730.5" y="-231.5" font-family="Helvetica,sans-Serif" font-size="10.00">algorithm</text>
</g>
<!-- Node11&#45;&gt;Node17 -->
<g id="edge23" class="edge"><title>Node11&#45;&gt;Node17</title>
<path fill="none" stroke="midnightblue" d="M587.437,-280.444C616.16,-271.32 661.829,-256.813 693.821,-246.651"/>
<polygon fill="midnightblue" stroke="midnightblue" points="695.218,-249.88 703.689,-243.516 693.099,-243.208 695.218,-249.88"/>
</g>
<!-- Node18 -->
<g id="node19" class="node"><title>Node18</title>
<g id="a_node19"><a xlink:href="Tileset_8h.html" target="_top" xlink:title="Tileset.h">
<polygon fill="white" stroke="black" points="183.5,-224.5 183.5,-243.5 237.5,-243.5 237.5,-224.5 183.5,-224.5"/>
<text text-anchor="middle" x="210.5" y="-231.5" font-family="Helvetica,sans-Serif" font-size="10.00">Tileset.h</text>
</a>
</g>
</g>
<!-- Node11&#45;&gt;Node18 -->
<g id="edge24" class="edge"><title>Node11&#45;&gt;Node18</title>
<path fill="none" stroke="midnightblue" d="M530.988,-285.416C475.873,-278.564 353.632,-262.622 251.5,-244 250.25,-243.772 248.98,-243.533 247.698,-243.287"/>
<polygon fill="midnightblue" stroke="midnightblue" points="248.289,-239.835 237.792,-241.276 246.896,-246.695 248.289,-239.835"/>
</g>
<!-- Node24 -->
<g id="node25" class="node"><title>Node24</title>
<g id="a_node25"><a xlink:href="AStarHeuristic_8h.html" target="_top" xlink:title="AStarHeuristic.h">
<polygon fill="white" stroke="black" points="1090,-168.5 1090,-187.5 1179,-187.5 1179,-168.5 1090,-168.5"/>
<text text-anchor="middle" x="1134.5" y="-175.5" font-family="Helvetica,sans-Serif" font-size="10.00">AStarHeuristic.h</text>
</a>
</g>
</g>
<!-- Node11&#45;&gt;Node24 -->
<g id="edge40" class="edge"><title>Node11&#45;&gt;Node24</title>
<path fill="none" stroke="midnightblue" d="M590.252,-289.209C686.687,-289.454 989.368,-286.722 1075.5,-244 1096.76,-233.457 1113.98,-211.697 1124.21,-196.263"/>
<polygon fill="midnightblue" stroke="midnightblue" points="1127.29,-197.953 1129.66,-187.627 1121.36,-194.221 1127.29,-197.953"/>
</g>
<!-- Node25 -->
<g id="node26" class="node"><title>Node25</title>
<g id="a_node26"><a xlink:href="Resources_8h.html" target="_top" xlink:title="Resources.h">
<polygon fill="white" stroke="black" points="71.5,-168.5 71.5,-187.5 143.5,-187.5 143.5,-168.5 71.5,-168.5"/>
<text text-anchor="middle" x="107.5" y="-175.5" font-family="Helvetica,sans-Serif" font-size="10.00">Resources.h</text>
</a>
</g>
</g>
<!-- Node11&#45;&gt;Node25 -->
<g id="edge42" class="edge"><title>Node11&#45;&gt;Node25</title>
<path fill="none" stroke="midnightblue" d="M530.995,-287.998C452.057,-284.937 237.736,-274.014 174.5,-244 151.491,-233.079 131.482,-211.071 119.461,-195.703"/>
<polygon fill="midnightblue" stroke="midnightblue" points="122.148,-193.452 113.344,-187.557 116.55,-197.655 122.148,-193.452"/>
</g>
<!-- Node26 -->
<g id="node27" class="node"><title>Node26</title>
<g id="a_node27"><a xlink:href="TileMapObserver_8h.html" target="_top" xlink:title="TileMapObserver.h">
<polygon fill="white" stroke="black" points="777,-224.5 777,-243.5 876,-243.5 876,-224.5 777,-224.5"/>
<text text-anchor="middle" x="826.5" y="-231.5" font-family="Helvetica,sans-Serif" font-size="10.00">TileMapObserver.h</text>
</a>
</g>
</g>
<!-- Node11&#45;&gt;Node26 -->
<g id="edge47" class="edge"><title>Node11&#45;&gt;Node26</title>
<path fill="none" stroke="midnightblue" d="M590.239,-282.963C634.781,-273.92 719.445,-256.733 774.397,-245.577"/>
<polygon fill="midnightblue" stroke="midnightblue" points="775.192,-248.987 784.296,-243.568 773.799,-242.127 775.192,-248.987"/>
</g>
<!-- Node27 -->
<g id="node28" class="node"><title>Node27</title>
<g id="a_node28"><a xlink:href="NearestGOFinder_8h.html" target="_top" xlink:title="NearestGOFinder.h">
<polygon fill="white" stroke="black" points="894,-224.5 894,-243.5 995,-243.5 995,-224.5 894,-224.5"/>
<text text-anchor="middle" x="944.5" y="-231.5" font-family="Helvetica,sans-Serif" font-size="10.00">NearestGOFinder.h</text>
</a>
</g>
</g>
<!-- Node11&#45;&gt;Node27 -->
<g id="edge48" class="edge"><title>Node11&#45;&gt;Node27</title>
<path fill="none" stroke="midnightblue" d="M590.444,-284.952C646.004,-277.417 769.071,-260.615 883.762,-244.093"/>
<polygon fill="midnightblue" stroke="midnightblue" points="884.369,-247.542 893.767,-242.65 883.369,-240.614 884.369,-247.542"/>
</g>
<!-- Node18&#45;&gt;Node7 -->
<g id="edge25" class="edge"><title>Node18&#45;&gt;Node7</title>
<path fill="none" stroke="midnightblue" d="M216.216,-224.209C225.159,-210.915 243.517,-185.405 263.5,-168 277.731,-155.605 295.794,-144.548 310.512,-136.496"/>
<polygon fill="midnightblue" stroke="midnightblue" points="312.437,-139.436 319.627,-131.654 309.153,-133.254 312.437,-139.436"/>
</g>
<!-- Node19 -->
<g id="node20" class="node"><title>Node19</title>
<g id="a_node20"><a xlink:href="Sprite_8h.html" target="_top" xlink:title="Sprite.h">
<polygon fill="white" stroke="black" points="161.5,-168.5 161.5,-187.5 211.5,-187.5 211.5,-168.5 161.5,-168.5"/>
<text text-anchor="middle" x="186.5" y="-175.5" font-family="Helvetica,sans-Serif" font-size="10.00">Sprite.h</text>
</a>
</g>
</g>
<!-- Node18&#45;&gt;Node19 -->
<g id="edge26" class="edge"><title>Node18&#45;&gt;Node19</title>
<path fill="none" stroke="midnightblue" d="M206.537,-224.083C203.287,-216.77 198.581,-206.181 194.546,-197.103"/>
<polygon fill="midnightblue" stroke="midnightblue" points="197.649,-195.468 190.389,-187.751 191.252,-198.311 197.649,-195.468"/>
</g>
<!-- Node19&#45;&gt;Node4 -->
<g id="edge27" class="edge"><title>Node19&#45;&gt;Node4</title>
<path fill="none" stroke="midnightblue" d="M178.171,-168.35C155.402,-144.232 94.8297,-76.6508 110.5,-56 123.952,-38.2722 179.063,-25.6355 221.094,-18.3519"/>
<polygon fill="midnightblue" stroke="midnightblue" points="221.91,-21.7642 231.194,-16.6596 220.753,-14.8604 221.91,-21.7642"/>
</g>
<!-- Node19&#45;&gt;Node6 -->
<g id="edge29" class="edge"><title>Node19&#45;&gt;Node6</title>
<path fill="none" stroke="midnightblue" d="M171.719,-168.324C157.233,-159.822 134.927,-146.729 118.007,-136.797"/>
<polygon fill="midnightblue" stroke="midnightblue" points="119.641,-133.698 109.245,-131.655 116.097,-139.735 119.641,-133.698"/>
</g>
<!-- Node19&#45;&gt;Node7 -->
<g id="edge28" class="edge"><title>Node19&#45;&gt;Node7</title>
<path fill="none" stroke="midnightblue" d="M210.426,-168.444C236.611,-159.079 278.65,-144.046 307.14,-133.857"/>
<polygon fill="midnightblue" stroke="midnightblue" points="308.366,-137.136 316.603,-130.473 306.009,-130.545 308.366,-137.136"/>
</g>
<!-- Node19&#45;&gt;Node8 -->
<g id="edge32" class="edge"><title>Node19&#45;&gt;Node8</title>
<path fill="none" stroke="midnightblue" d="M211.585,-170.907C246.407,-162.409 311.338,-146.416 366.5,-132 366.601,-131.974 366.701,-131.947 366.802,-131.921"/>
<polygon fill="midnightblue" stroke="midnightblue" points="367.674,-135.311 376.438,-129.357 365.874,-128.546 367.674,-135.311"/>
</g>
<!-- Node20 -->
<g id="node21" class="node"><title>Node20</title>
<g id="a_node21"><a xlink:href="Color_8h.html" target="_top" xlink:title="Color.h">
<polygon fill="white" stroke="black" points="221.5,-56.5 221.5,-75.5 269.5,-75.5 269.5,-56.5 221.5,-56.5"/>
<text text-anchor="middle" x="245.5" y="-63.5" font-family="Helvetica,sans-Serif" font-size="10.00">Color.h</text>
</a>
</g>
</g>
<!-- Node19&#45;&gt;Node20 -->
<g id="edge30" class="edge"><title>Node19&#45;&gt;Node20</title>
<path fill="none" stroke="midnightblue" d="M187.82,-168.111C190.022,-155.129 195.252,-130.516 205.5,-112 211.422,-101.3 220.286,-90.9808 228.166,-82.9296"/>
<polygon fill="midnightblue" stroke="midnightblue" points="230.859,-85.1926 235.573,-75.7041 225.97,-80.182 230.859,-85.1926"/>
</g>
<!-- Node21 -->
<g id="node22" class="node"><title>Node21</title>
<g id="a_node22"><a xlink:href="InputManager_8h.html" target="_top" xlink:title="InputManager.h">
<polygon fill="white" stroke="black" points="214.5,-112.5 214.5,-131.5 298.5,-131.5 298.5,-112.5 214.5,-112.5"/>
<text text-anchor="middle" x="256.5" y="-119.5" font-family="Helvetica,sans-Serif" font-size="10.00">InputManager.h</text>
</a>
</g>
</g>
<!-- Node19&#45;&gt;Node21 -->
<g id="edge33" class="edge"><title>Node19&#45;&gt;Node21</title>
<path fill="none" stroke="midnightblue" d="M197.747,-168.324C208.297,-160.185 224.301,-147.839 236.942,-138.087"/>
<polygon fill="midnightblue" stroke="midnightblue" points="239.269,-140.713 245.049,-131.834 234.993,-135.171 239.269,-140.713"/>
</g>
<!-- Node20&#45;&gt;Node4 -->
<g id="edge31" class="edge"><title>Node20&#45;&gt;Node4</title>
<path fill="none" stroke="midnightblue" d="M249.793,-56.083C253.352,-48.6913 258.522,-37.9533 262.924,-28.8111"/>
<polygon fill="midnightblue" stroke="midnightblue" points="266.102,-30.2795 267.287,-19.7511 259.795,-27.2427 266.102,-30.2795"/>
</g>
<!-- Node21&#45;&gt;Node4 -->
<g id="edge34" class="edge"><title>Node21&#45;&gt;Node4</title>
<path fill="none" stroke="midnightblue" d="M262.138,-112.481C267.554,-103.745 275.364,-89.5558 278.5,-76 282.098,-60.4499 279.631,-42.37 276.676,-29.2318"/>
<polygon fill="midnightblue" stroke="midnightblue" points="280.063,-28.3483 274.202,-19.5221 273.28,-30.0767 280.063,-28.3483"/>
</g>
<!-- Node21&#45;&gt;Node9 -->
<g id="edge35" class="edge"><title>Node21&#45;&gt;Node9</title>
<path fill="none" stroke="midnightblue" d="M298.76,-113.274C301.714,-112.817 304.649,-112.386 307.5,-112 471.791,-89.7415 669.598,-74.7388 747.56,-69.2852"/>
<polygon fill="midnightblue" stroke="midnightblue" points="748.015,-72.7621 757.749,-68.5792 747.531,-65.7788 748.015,-72.7621"/>
</g>
<!-- Node22 -->
<g id="node23" class="node"><title>Node22</title>
<polygon fill="white" stroke="#bfbfbf" points="120,-56.5 120,-75.5 203,-75.5 203,-56.5 120,-56.5"/>
<text text-anchor="middle" x="161.5" y="-63.5" font-family="Helvetica,sans-Serif" font-size="10.00">unordered_map</text>
</g>
<!-- Node21&#45;&gt;Node22 -->
<g id="edge36" class="edge"><title>Node21&#45;&gt;Node22</title>
<path fill="none" stroke="midnightblue" d="M241.237,-112.324C226.279,-103.822 203.245,-90.7288 185.773,-80.7975"/>
<polygon fill="midnightblue" stroke="midnightblue" points="187.149,-77.5534 176.726,-75.6545 183.69,-83.639 187.149,-77.5534"/>
</g>
<!-- Node23 -->
<g id="node24" class="node"><title>Node23</title>
<polygon fill="white" stroke="#bfbfbf" points="325.5,-56.5 325.5,-75.5 371.5,-75.5 371.5,-56.5 325.5,-56.5"/>
<text text-anchor="middle" x="348.5" y="-63.5" font-family="Helvetica,sans-Serif" font-size="10.00">cstdint</text>
</g>
<!-- Node21&#45;&gt;Node23 -->
<g id="edge37" class="edge"><title>Node21&#45;&gt;Node23</title>
<path fill="none" stroke="midnightblue" d="M271.281,-112.324C285.767,-103.822 308.073,-90.7288 324.993,-80.7975"/>
<polygon fill="midnightblue" stroke="midnightblue" points="326.903,-83.735 333.755,-75.6545 323.359,-77.6981 326.903,-83.735"/>
</g>
<!-- Node24&#45;&gt;Node9 -->
<g id="edge41" class="edge"><title>Node24&#45;&gt;Node9</title>
<path fill="none" stroke="midnightblue" d="M1129.28,-168.086C1120.3,-153.647 1100.47,-125.411 1075.5,-112 1031.02,-88.1154 882.963,-74.4639 815.508,-69.3478"/>
<polygon fill="midnightblue" stroke="midnightblue" points="815.634,-65.8475 805.402,-68.5997 815.117,-72.8284 815.634,-65.8475"/>
</g>
<!-- Node25&#45;&gt;Node4 -->
<g id="edge43" class="edge"><title>Node25&#45;&gt;Node4</title>
<path fill="none" stroke="midnightblue" d="M90.302,-168.386C77.2485,-160.794 60.2664,-148.389 52.5,-132 34.9736,-95.015 69.4555,-77.141 104.5,-56 140.304,-34.4011 186.57,-22.9849 221.322,-17.0644"/>
<polygon fill="midnightblue" stroke="midnightblue" points="221.938,-20.5104 231.256,-15.4673 220.827,-13.5991 221.938,-20.5104"/>
</g>
<!-- Node25&#45;&gt;Node6 -->
<g id="edge46" class="edge"><title>Node25&#45;&gt;Node6</title>
<path fill="none" stroke="midnightblue" d="M105.353,-168.083C103.631,-160.927 101.153,-150.635 98.9997,-141.691"/>
<polygon fill="midnightblue" stroke="midnightblue" points="102.35,-140.654 96.6067,-131.751 95.5446,-142.293 102.35,-140.654"/>
</g>
<!-- Node25&#45;&gt;Node7 -->
<g id="edge44" class="edge"><title>Node25&#45;&gt;Node7</title>
<path fill="none" stroke="midnightblue" d="M143.815,-169.629C182.068,-161.689 244.248,-148.282 307.199,-131.929"/>
<polygon fill="midnightblue" stroke="midnightblue" points="308.111,-135.309 316.897,-129.388 306.336,-128.538 308.111,-135.309"/>
</g>
<!-- Node25&#45;&gt;Node22 -->
<g id="edge45" class="edge"><title>Node25&#45;&gt;Node22</title>
<path fill="none" stroke="midnightblue" d="M93.0498,-168.4C74.3971,-156.172 45.8648,-132.919 59.5,-112 70.9375,-94.453 90.932,-83.6998 110.205,-77.1321"/>
<polygon fill="midnightblue" stroke="midnightblue" points="111.345,-80.4434 119.867,-74.1491 109.28,-73.7549 111.345,-80.4434"/>
</g>
<!-- Node27&#45;&gt;Node3 -->
<g id="edge52" class="edge"><title>Node27&#45;&gt;Node3</title>
<path fill="none" stroke="midnightblue" d="M893.788,-225.188C890.648,-224.768 887.532,-224.368 884.5,-224 726.027,-204.778 537.545,-189.435 449.484,-182.703"/>
<polygon fill="midnightblue" stroke="midnightblue" points="449.741,-179.213 439.504,-181.944 449.21,-186.192 449.741,-179.213"/>
</g>
<!-- Node27&#45;&gt;Node5 -->
<g id="edge50" class="edge"><title>Node27&#45;&gt;Node5</title>
<path fill="none" stroke="midnightblue" d="M940.577,-224.368C932.435,-206.456 913.556,-164.923 902.658,-140.948"/>
<polygon fill="midnightblue" stroke="midnightblue" points="905.73,-139.247 898.405,-131.591 899.357,-142.143 905.73,-139.247"/>
</g>
<!-- Node27&#45;&gt;Node9 -->
<g id="edge51" class="edge"><title>Node27&#45;&gt;Node9</title>
<path fill="none" stroke="midnightblue" d="M945.929,-224.436C949.029,-202.742 953.975,-145.006 925.5,-112 898.097,-80.236 848.616,-70.6036 815.41,-67.8431"/>
<polygon fill="midnightblue" stroke="midnightblue" points="815.46,-64.3388 805.25,-67.169 814.996,-71.3234 815.46,-64.3388"/>
</g>
<!-- Node27&#45;&gt;Node14 -->
<g id="edge49" class="edge"><title>Node27&#45;&gt;Node14</title>
<path fill="none" stroke="midnightblue" d="M900.767,-224.444C844.264,-213.389 747.376,-194.432 698.527,-184.875"/>
<polygon fill="midnightblue" stroke="midnightblue" points="699.071,-181.415 688.585,-182.93 697.726,-188.285 699.071,-181.415"/>
</g>
<!-- Node28&#45;&gt;Node4 -->
<g id="edge54" class="edge"><title>Node28&#45;&gt;Node4</title>
<path fill="none" stroke="midnightblue" d="M26.7102,-168.281C27.7643,-145.701 33.9359,-85.0578 69.5,-56 92.3887,-37.2986 169.295,-24.0482 221.33,-16.9668"/>
<polygon fill="midnightblue" stroke="midnightblue" points="221.93,-20.4181 231.382,-15.633 221.009,-13.4789 221.93,-20.4181"/>
</g>
<!-- Node28&#45;&gt;Node6 -->
<g id="edge55" class="edge"><title>Node28&#45;&gt;Node6</title>
<path fill="none" stroke="midnightblue" d="M37.4254,-168.324C47.6746,-160.185 63.2206,-147.839 75.501,-138.087"/>
<polygon fill="midnightblue" stroke="midnightblue" points="77.7213,-140.794 83.3758,-131.834 73.3681,-135.312 77.7213,-140.794"/>
</g>
<!-- Node28&#45;&gt;Node7 -->
<g id="edge56" class="edge"><title>Node28&#45;&gt;Node7</title>
<path fill="none" stroke="midnightblue" d="M53.1701,-170.02C56.305,-169.292 59.4665,-168.601 62.5,-168 167.3,-147.253 198.261,-155.36 306.895,-131.816"/>
<polygon fill="midnightblue" stroke="midnightblue" points="307.937,-135.17 316.947,-129.596 306.428,-128.334 307.937,-135.17"/>
</g>
</g>
</svg>
