<?xml version="1.0" encoding="UTF-8" standalone="no"?>
<!DOCTYPE svg PUBLIC "-//W3C//DTD SVG 1.1//EN"
 "http://www.w3.org/Graphics/SVG/1.1/DTD/svg11.dtd">
<!-- Generated by graphviz version 2.40.1 (20161225.0304)
 -->
<!-- Title: include/Error.h Pages: 1 -->
<svg width="1805pt" height="252pt"
 viewBox="0.00 0.00 1805.00 252.00" xmlns="http://www.w3.org/2000/svg" xmlns:xlink="http://www.w3.org/1999/xlink">
<g id="graph0" class="graph" transform="scale(1 1) rotate(0) translate(4 248)">
<title>include/Error.h</title>
<polygon fill="#ffffff" stroke="transparent" points="-4,4 -4,-248 1801,-248 1801,4 -4,4"/>
<!-- Node3 -->
<g id="node1" class="node">
<title>Node3</title>
<polygon fill="#bfbfbf" stroke="#000000" points="782,-224.5 782,-243.5 862,-243.5 862,-224.5 782,-224.5"/>
<text text-anchor="middle" x="822" y="-231.5" font-family="Helvetica,sans-Serif" font-size="10.00" fill="#000000">include/Error.h</text>
</g>
<!-- Node4 -->
<g id="node2" class="node">
<title>Node4</title>
<g id="a_node2"><a xlink:href="BaseTile_8h.html" target="_top" xlink:title="include/BaseTile.h">
<polygon fill="#ffffff" stroke="#000000" points="6.5,-168.5 6.5,-187.5 103.5,-187.5 103.5,-168.5 6.5,-168.5"/>
<text text-anchor="middle" x="55" y="-175.5" font-family="Helvetica,sans-Serif" font-size="10.00" fill="#000000">include/BaseTile.h</text>
</a>
</g>
</g>
<!-- Node3&#45;&gt;Node4 -->
<g id="edge1" class="edge">
<title>Node3&#45;&gt;Node4</title>
<path fill="none" stroke="#191970" d="M771.5929,-231.9887C656.6744,-227.1158 366.5322,-213.1857 125,-188 118.0403,-187.2743 110.7096,-186.376 103.518,-185.4179"/>
<polygon fill="#191970" stroke="#191970" points="771.6985,-235.4961 781.8365,-232.4187 771.9921,-228.5023 771.6985,-235.4961"/>
</g>
<!-- Node6 -->
<g id="node4" class="node">
<title>Node6</title>
<g id="a_node4"><a xlink:href="Tileset_8h.html" target="_top" xlink:title="include/Tileset.h">
<polygon fill="#ffffff" stroke="#000000" points="167,-168.5 167,-187.5 255,-187.5 255,-168.5 167,-168.5"/>
<text text-anchor="middle" x="211" y="-175.5" font-family="Helvetica,sans-Serif" font-size="10.00" fill="#000000">include/Tileset.h</text>
</a>
</g>
</g>
<!-- Node3&#45;&gt;Node6 -->
<g id="edge3" class="edge">
<title>Node3&#45;&gt;Node6</title>
<path fill="none" stroke="#191970" d="M771.8388,-231.3059C674.5699,-225.7548 453.6398,-211.5505 269,-188 264.5402,-187.4312 259.9001,-186.7624 255.2734,-186.045"/>
<polygon fill="#191970" stroke="#191970" points="771.7897,-234.8086 781.9712,-231.8782 772.1845,-227.8197 771.7897,-234.8086"/>
</g>
<!-- Node7 -->
<g id="node5" class="node">
<title>Node7</title>
<g id="a_node5"><a xlink:href="TileMap_8h.html" target="_top" xlink:title="include/TileMap.h">
<polygon fill="#ffffff" stroke="#000000" points="108.5,-112.5 108.5,-131.5 201.5,-131.5 201.5,-112.5 108.5,-112.5"/>
<text text-anchor="middle" x="155" y="-119.5" font-family="Helvetica,sans-Serif" font-size="10.00" fill="#000000">include/TileMap.h</text>
</a>
</g>
</g>
<!-- Node3&#45;&gt;Node7 -->
<g id="edge8" class="edge">
<title>Node3&#45;&gt;Node7</title>
<path fill="none" stroke="#191970" d="M771.6092,-232.3257C620.3618,-227.0635 179.3857,-209.8995 158,-188 143.4149,-173.0645 148.0517,-146.0069 151.951,-131.6122"/>
<polygon fill="#191970" stroke="#191970" points="771.8738,-235.8368 781.9886,-232.6839 772.1153,-228.8409 771.8738,-235.8368"/>
</g>
<!-- Node10 -->
<g id="node8" class="node">
<title>Node10</title>
<g id="a_node8"><a xlink:href="Tileset_8cpp.html" target="_top" xlink:title="src/Tileset.cpp">
<polygon fill="#ffffff" stroke="#000000" points="219.5,-112.5 219.5,-131.5 300.5,-131.5 300.5,-112.5 219.5,-112.5"/>
<text text-anchor="middle" x="260" y="-119.5" font-family="Helvetica,sans-Serif" font-size="10.00" fill="#000000">src/Tileset.cpp</text>
</a>
</g>
</g>
<!-- Node3&#45;&gt;Node10 -->
<g id="edge24" class="edge">
<title>Node3&#45;&gt;Node10</title>
<path fill="none" stroke="#191970" d="M771.3352,-232.0528C648.4096,-226.9712 341.5079,-212.0137 302,-188 280.645,-175.02 268.2906,-146.6031 263.0304,-131.6453"/>
<polygon fill="#191970" stroke="#191970" points="771.469,-235.561 781.6035,-232.4719 771.7546,-228.5669 771.469,-235.561"/>
</g>
<!-- Node11 -->
<g id="node9" class="node">
<title>Node11</title>
<g id="a_node9"><a xlink:href="Music_8h.html" target="_top" xlink:title="include/Music.h">
<polygon fill="#ffffff" stroke="#000000" points="311.5,-168.5 311.5,-187.5 396.5,-187.5 396.5,-168.5 311.5,-168.5"/>
<text text-anchor="middle" x="354" y="-175.5" font-family="Helvetica,sans-Serif" font-size="10.00" fill="#000000">include/Music.h</text>
</a>
</g>
</g>
<!-- Node3&#45;&gt;Node11 -->
<g id="edge9" class="edge">
<title>Node3&#45;&gt;Node11</title>
<path fill="none" stroke="#191970" d="M771.9262,-229.7648C693.6151,-222.8485 537.5011,-207.8824 406,-188 402.9094,-187.5327 399.7226,-187.0132 396.5195,-186.4635"/>
<polygon fill="#191970" stroke="#191970" points="771.7269,-233.2607 781.9944,-230.6475 772.3383,-226.2874 771.7269,-233.2607"/>
</g>
<!-- Node13 -->
<g id="node11" class="node">
<title>Node13</title>
<g id="a_node11"><a xlink:href="Text_8h.html" target="_top" xlink:title="include/Text.h">
<polygon fill="#ffffff" stroke="#000000" points="415,-168.5 415,-187.5 493,-187.5 493,-168.5 415,-168.5"/>
<text text-anchor="middle" x="454" y="-175.5" font-family="Helvetica,sans-Serif" font-size="10.00" fill="#000000">include/Text.h</text>
</a>
</g>
</g>
<!-- Node3&#45;&gt;Node13 -->
<g id="edge11" class="edge">
<title>Node3&#45;&gt;Node13</title>
<path fill="none" stroke="#191970" d="M771.8822,-227.7831C708.7559,-219.7258 597.0393,-204.714 502,-188 499.1496,-187.4987 496.2096,-186.9542 493.2542,-186.3868"/>
<polygon fill="#191970" stroke="#191970" points="771.6006,-231.2753 781.9619,-229.0631 772.4826,-224.3311 771.6006,-231.2753"/>
</g>
<!-- Node15 -->
<g id="node13" class="node">
<title>Node15</title>
<g id="a_node13"><a xlink:href="Camera_8cpp.html" target="_top" xlink:title="src/Camera.cpp">
<polygon fill="#ffffff" stroke="#000000" points="511,-168.5 511,-187.5 597,-187.5 597,-168.5 511,-168.5"/>
<text text-anchor="middle" x="554" y="-175.5" font-family="Helvetica,sans-Serif" font-size="10.00" fill="#000000">src/Camera.cpp</text>
</a>
</g>
</g>
<!-- Node3&#45;&gt;Node15 -->
<g id="edge13" class="edge">
<title>Node3&#45;&gt;Node15</title>
<path fill="none" stroke="#191970" d="M771.8655,-223.5241C721.5147,-213.0031 644.7466,-196.962 597.0635,-186.9983"/>
<polygon fill="#191970" stroke="#191970" points="771.3732,-226.9968 781.8777,-225.6162 772.805,-220.1448 771.3732,-226.9968"/>
</g>
<!-- Node16 -->
<g id="node14" class="node">
<title>Node16</title>
<g id="a_node14"><a xlink:href="Game_8cpp.html" target="_top" xlink:title="src/Game.cpp">
<polygon fill="#ffffff" stroke="#000000" points="615,-168.5 615,-187.5 693,-187.5 693,-168.5 615,-168.5"/>
<text text-anchor="middle" x="654" y="-175.5" font-family="Helvetica,sans-Serif" font-size="10.00" fill="#000000">src/Game.cpp</text>
</a>
</g>
</g>
<!-- Node3&#45;&gt;Node16 -->
<g id="edge14" class="edge">
<title>Node3&#45;&gt;Node16</title>
<path fill="none" stroke="#191970" d="M783.5714,-221.1905C752.7927,-210.9309 710.3074,-196.7691 682.5034,-187.5011"/>
<polygon fill="#191970" stroke="#191970" points="782.5261,-224.5313 793.1198,-224.3733 784.7398,-217.8905 782.5261,-224.5313"/>
</g>
<!-- Node17 -->
<g id="node15" class="node">
<title>Node17</title>
<g id="a_node15"><a xlink:href="GameObject_8cpp.html" target="_top" xlink:title="src/GameObject.cpp">
<polygon fill="#ffffff" stroke="#000000" points="711.5,-168.5 711.5,-187.5 818.5,-187.5 818.5,-168.5 711.5,-168.5"/>
<text text-anchor="middle" x="765" y="-175.5" font-family="Helvetica,sans-Serif" font-size="10.00" fill="#000000">src/GameObject.cpp</text>
</a>
</g>
</g>
<!-- Node3&#45;&gt;Node17 -->
<g id="edge15" class="edge">
<title>Node3&#45;&gt;Node17</title>
<path fill="none" stroke="#191970" d="M804.7729,-217.0751C794.9659,-207.4402 783.036,-195.7196 774.8149,-187.6427"/>
<polygon fill="#191970" stroke="#191970" points="802.4851,-219.734 812.0714,-224.2455 807.3909,-214.7406 802.4851,-219.734"/>
</g>
<!-- Node18 -->
<g id="node16" class="node">
<title>Node18</title>
<g id="a_node16"><a xlink:href="Grouper_8cpp.html" target="_top" xlink:title="src/Grouper.cpp">
<polygon fill="#ffffff" stroke="#000000" points="837,-168.5 837,-187.5 923,-187.5 923,-168.5 837,-168.5"/>
<text text-anchor="middle" x="880" y="-175.5" font-family="Helvetica,sans-Serif" font-size="10.00" fill="#000000">src/Grouper.cpp</text>
</a>
</g>
</g>
<!-- Node3&#45;&gt;Node18 -->
<g id="edge16" class="edge">
<title>Node3&#45;&gt;Node18</title>
<path fill="none" stroke="#191970" d="M839.5293,-217.0751C849.5083,-207.4402 861.6476,-195.7196 870.0129,-187.6427"/>
<polygon fill="#191970" stroke="#191970" points="836.8658,-214.7817 832.1028,-224.2455 841.728,-219.8175 836.8658,-214.7817"/>
</g>
<!-- Node19 -->
<g id="node17" class="node">
<title>Node19</title>
<g id="a_node17"><a xlink:href="InputManager_8cpp.html" target="_top" xlink:title="src/InputManager.cpp">
<polygon fill="#ffffff" stroke="#000000" points="941.5,-168.5 941.5,-187.5 1052.5,-187.5 1052.5,-168.5 941.5,-168.5"/>
<text text-anchor="middle" x="997" y="-175.5" font-family="Helvetica,sans-Serif" font-size="10.00" fill="#000000">src/InputManager.cpp</text>
</a>
</g>
</g>
<!-- Node3&#45;&gt;Node19 -->
<g id="edge17" class="edge">
<title>Node3&#45;&gt;Node19</title>
<path fill="none" stroke="#191970" d="M861.614,-221.3235C893.7075,-211.0536 938.2211,-196.8093 967.309,-187.5011"/>
<polygon fill="#191970" stroke="#191970" points="860.5411,-217.9919 852.0836,-224.3733 862.6746,-224.6589 860.5411,-217.9919"/>
</g>
<!-- Node20 -->
<g id="node18" class="node">
<title>Node20</title>
<g id="a_node18"><a xlink:href="RectTransform_8cpp.html" target="_top" xlink:title="src/RectTransform.cpp">
<polygon fill="#ffffff" stroke="#000000" points="1070.5,-168.5 1070.5,-187.5 1187.5,-187.5 1187.5,-168.5 1070.5,-168.5"/>
<text text-anchor="middle" x="1129" y="-175.5" font-family="Helvetica,sans-Serif" font-size="10.00" fill="#000000">src/RectTransform.cpp</text>
</a>
</g>
</g>
<!-- Node3&#45;&gt;Node20 -->
<g id="edge18" class="edge">
<title>Node3&#45;&gt;Node20</title>
<path fill="none" stroke="#191970" d="M872.2414,-224.8354C928.6123,-214.5528 1019.6254,-197.9511 1076.7885,-187.5239"/>
<polygon fill="#191970" stroke="#191970" points="871.3445,-221.4412 862.1349,-226.679 872.6007,-228.3276 871.3445,-221.4412"/>
</g>
<!-- Node21 -->
<g id="node19" class="node">
<title>Node21</title>
<g id="a_node19"><a xlink:href="Resources_8cpp.html" target="_top" xlink:title="src/Resources.cpp">
<polygon fill="#ffffff" stroke="#000000" points="1205.5,-168.5 1205.5,-187.5 1304.5,-187.5 1304.5,-168.5 1205.5,-168.5"/>
<text text-anchor="middle" x="1255" y="-175.5" font-family="Helvetica,sans-Serif" font-size="10.00" fill="#000000">src/Resources.cpp</text>
</a>
</g>
</g>
<!-- Node3&#45;&gt;Node21 -->
<g id="edge19" class="edge">
<title>Node3&#45;&gt;Node21</title>
<path fill="none" stroke="#191970" d="M872.1933,-228.6289C944.2286,-220.7421 1081.0335,-205.0994 1197,-188 1199.7294,-187.5976 1202.5282,-187.1688 1205.3514,-186.7237"/>
<polygon fill="#191970" stroke="#191970" points="871.6069,-225.172 862.0453,-229.7355 872.3658,-232.1307 871.6069,-225.172"/>
</g>
<!-- Node22 -->
<g id="node20" class="node">
<title>Node22</title>
<g id="a_node20"><a xlink:href="Sound_8cpp.html" target="_top" xlink:title="src/Sound.cpp">
<polygon fill="#ffffff" stroke="#000000" points="1323,-168.5 1323,-187.5 1403,-187.5 1403,-168.5 1323,-168.5"/>
<text text-anchor="middle" x="1363" y="-175.5" font-family="Helvetica,sans-Serif" font-size="10.00" fill="#000000">src/Sound.cpp</text>
</a>
</g>
</g>
<!-- Node3&#45;&gt;Node22 -->
<g id="edge20" class="edge">
<title>Node3&#45;&gt;Node22</title>
<path fill="none" stroke="#191970" d="M872.1398,-231.1085C961.3579,-225.5639 1153.3958,-211.8248 1314,-188 1316.92,-187.5668 1319.9287,-187.0723 1322.9511,-186.5404"/>
<polygon fill="#191970" stroke="#191970" points="871.801,-227.6226 862.0342,-231.7286 872.2299,-234.6094 871.801,-227.6226"/>
</g>
<!-- Node23 -->
<g id="node21" class="node">
<title>Node23</title>
<g id="a_node21"><a xlink:href="Sprite_8cpp.html" target="_top" xlink:title="src/Sprite.cpp">
<polygon fill="#ffffff" stroke="#000000" points="1421.5,-168.5 1421.5,-187.5 1498.5,-187.5 1498.5,-168.5 1421.5,-168.5"/>
<text text-anchor="middle" x="1460" y="-175.5" font-family="Helvetica,sans-Serif" font-size="10.00" fill="#000000">src/Sprite.cpp</text>
</a>
</g>
</g>
<!-- Node3&#45;&gt;Node23 -->
<g id="edge21" class="edge">
<title>Node3&#45;&gt;Node23</title>
<path fill="none" stroke="#191970" d="M872.2879,-232.2437C974.4345,-228.2002 1213.3615,-216.3171 1412,-188 1415.0337,-187.5675 1418.1635,-187.0589 1421.3022,-186.5042"/>
<polygon fill="#191970" stroke="#191970" points="872.1116,-228.7478 862.2548,-232.6329 872.383,-235.7425 872.1116,-228.7478"/>
</g>
<!-- Node24 -->
<g id="node22" class="node">
<title>Node24</title>
<g id="a_node22"><a xlink:href="State_8cpp.html" target="_top" xlink:title="src/State.cpp">
<polygon fill="#ffffff" stroke="#000000" points="1516.5,-168.5 1516.5,-187.5 1591.5,-187.5 1591.5,-168.5 1516.5,-168.5"/>
<text text-anchor="middle" x="1554" y="-175.5" font-family="Helvetica,sans-Serif" font-size="10.00" fill="#000000">src/State.cpp</text>
</a>
</g>
</g>
<!-- Node3&#45;&gt;Node24 -->
<g id="edge22" class="edge">
<title>Node3&#45;&gt;Node24</title>
<path fill="none" stroke="#191970" d="M872.1737,-233.1592C985.8666,-230.7037 1271.6161,-221.4341 1508,-188 1510.7513,-187.6109 1513.5832,-187.1487 1516.4258,-186.6398"/>
<polygon fill="#191970" stroke="#191970" points="871.9606,-229.6628 862.0355,-233.3698 872.1061,-236.6613 871.9606,-229.6628"/>
</g>
<!-- Node25 -->
<g id="node23" class="node">
<title>Node25</title>
<g id="a_node23"><a xlink:href="Threading_8cpp.html" target="_top" xlink:title="src/Threading.cpp">
<polygon fill="#ffffff" stroke="#000000" points="1609.5,-168.5 1609.5,-187.5 1704.5,-187.5 1704.5,-168.5 1609.5,-168.5"/>
<text text-anchor="middle" x="1657" y="-175.5" font-family="Helvetica,sans-Serif" font-size="10.00" fill="#000000">src/Threading.cpp</text>
</a>
</g>
</g>
<!-- Node3&#45;&gt;Node25 -->
<g id="edge23" class="edge">
<title>Node3&#45;&gt;Node25</title>
<path fill="none" stroke="#191970" d="M872.6282,-233.0724C997.0261,-230.3453 1327.45,-220.3866 1601,-188 1603.7461,-187.6749 1606.5614,-187.3012 1609.398,-186.8936"/>
<polygon fill="#191970" stroke="#191970" points="872.2059,-229.5805 862.2828,-233.2927 872.3551,-236.5789 872.2059,-229.5805"/>
</g>
<!-- Node26 -->
<g id="node24" class="node">
<title>Node26</title>
<g id="a_node24"><a xlink:href="Vec2_8cpp.html" target="_top" xlink:title="src/Vec2.cpp">
<polygon fill="#ffffff" stroke="#000000" points="1723,-168.5 1723,-187.5 1797,-187.5 1797,-168.5 1723,-168.5"/>
<text text-anchor="middle" x="1760" y="-175.5" font-family="Helvetica,sans-Serif" font-size="10.00" fill="#000000">src/Vec2.cpp</text>
</a>
</g>
</g>
<!-- Node3&#45;&gt;Node26 -->
<g id="edge25" class="edge">
<title>Node3&#45;&gt;Node26</title>
<path fill="none" stroke="#191970" d="M872.4745,-232.4781C1035.8868,-227.3808 1549.4065,-209.9861 1714,-188 1716.9162,-187.6105 1719.922,-187.1327 1722.9343,-186.5993"/>
<polygon fill="#191970" stroke="#191970" points="872.1112,-228.9876 862.2246,-232.796 872.3283,-235.9842 872.1112,-228.9876"/>
</g>
<!-- Node5 -->
<g id="node3" class="node">
<title>Node5</title>
<g id="a_node3"><a xlink:href="BaseTile_8cpp.html" target="_top" xlink:title="src/BaseTile.cpp">
<polygon fill="#ffffff" stroke="#000000" points="0,-112.5 0,-131.5 90,-131.5 90,-112.5 0,-112.5"/>
<text text-anchor="middle" x="45" y="-119.5" font-family="Helvetica,sans-Serif" font-size="10.00" fill="#000000">src/BaseTile.cpp</text>
</a>
</g>
</g>
<!-- Node4&#45;&gt;Node5 -->
<g id="edge2" class="edge">
<title>Node4&#45;&gt;Node5</title>
<path fill="none" stroke="#191970" d="M51.4567,-158.1575C49.8491,-149.155 48.0214,-138.9199 46.7219,-131.6427"/>
<polygon fill="#191970" stroke="#191970" points="48.0546,-159.0166 53.2581,-168.2455 54.9456,-157.786 48.0546,-159.0166"/>
</g>
<!-- Node6&#45;&gt;Node7 -->
<g id="edge4" class="edge">
<title>Node6&#45;&gt;Node7</title>
<path fill="none" stroke="#191970" d="M194.0751,-161.0751C184.4402,-151.4402 172.7196,-139.7196 164.6427,-131.6427"/>
<polygon fill="#191970" stroke="#191970" points="191.6996,-163.6493 201.2455,-168.2455 196.6493,-158.6996 191.6996,-163.6493"/>
</g>
<!-- Node6&#45;&gt;Node10 -->
<g id="edge7" class="edge">
<title>Node6&#45;&gt;Node10</title>
<path fill="none" stroke="#191970" d="M226.3122,-160.5004C234.6447,-150.9775 244.6353,-139.5596 251.5627,-131.6427"/>
<polygon fill="#191970" stroke="#191970" points="223.4862,-158.415 219.5351,-168.2455 228.7543,-163.0245 223.4862,-158.415"/>
</g>
<!-- Node8 -->
<g id="node6" class="node">
<title>Node8</title>
<g id="a_node6"><a xlink:href="ManhattanDistance_8h.html" target="_top" xlink:title="include/ManhattanDistance.h">
<polygon fill="#ffffff" stroke="#000000" points="83.5,-56.5 83.5,-75.5 226.5,-75.5 226.5,-56.5 83.5,-56.5"/>
<text text-anchor="middle" x="155" y="-63.5" font-family="Helvetica,sans-Serif" font-size="10.00" fill="#000000">include/ManhattanDistance.h</text>
</a>
</g>
</g>
<!-- Node7&#45;&gt;Node8 -->
<g id="edge5" class="edge">
<title>Node7&#45;&gt;Node8</title>
<path fill="none" stroke="#191970" d="M155,-102.1575C155,-93.155 155,-82.9199 155,-75.6427"/>
<polygon fill="#191970" stroke="#191970" points="151.5001,-102.2455 155,-112.2455 158.5001,-102.2456 151.5001,-102.2455"/>
</g>
<!-- Node9 -->
<g id="node7" class="node">
<title>Node9</title>
<g id="a_node7"><a xlink:href="ManhattanDistance_8cpp.html" target="_top" xlink:title="src/ManhattanDistance.cpp">
<polygon fill="#ffffff" stroke="#000000" points="86.5,-.5 86.5,-19.5 223.5,-19.5 223.5,-.5 86.5,-.5"/>
<text text-anchor="middle" x="155" y="-7.5" font-family="Helvetica,sans-Serif" font-size="10.00" fill="#000000">src/ManhattanDistance.cpp</text>
</a>
</g>
</g>
<!-- Node8&#45;&gt;Node9 -->
<g id="edge6" class="edge">
<title>Node8&#45;&gt;Node9</title>
<path fill="none" stroke="#191970" d="M155,-46.1575C155,-37.155 155,-26.9199 155,-19.6427"/>
<polygon fill="#191970" stroke="#191970" points="151.5001,-46.2455 155,-56.2455 158.5001,-46.2456 151.5001,-46.2455"/>
</g>
<!-- Node12 -->
<g id="node10" class="node">
<title>Node12</title>
<g id="a_node10"><a xlink:href="Music_8cpp.html" target="_top" xlink:title="src/Music.cpp">
<polygon fill="#ffffff" stroke="#000000" points="319,-112.5 319,-131.5 397,-131.5 397,-112.5 319,-112.5"/>
<text text-anchor="middle" x="358" y="-119.5" font-family="Helvetica,sans-Serif" font-size="10.00" fill="#000000">src/Music.cpp</text>
</a>
</g>
</g>
<!-- Node11&#45;&gt;Node12 -->
<g id="edge10" class="edge">
<title>Node11&#45;&gt;Node12</title>
<path fill="none" stroke="#191970" d="M355.4173,-158.1575C356.0604,-149.155 356.7914,-138.9199 357.3112,-131.6427"/>
<polygon fill="#191970" stroke="#191970" points="351.9182,-158.0216 354.6967,-168.2455 358.9004,-158.5204 351.9182,-158.0216"/>
</g>
<!-- Node14 -->
<g id="node12" class="node">
<title>Node14</title>
<g id="a_node12"><a xlink:href="Text_8cpp.html" target="_top" xlink:title="src/Text.cpp">
<polygon fill="#ffffff" stroke="#000000" points="418.5,-112.5 418.5,-131.5 489.5,-131.5 489.5,-112.5 418.5,-112.5"/>
<text text-anchor="middle" x="454" y="-119.5" font-family="Helvetica,sans-Serif" font-size="10.00" fill="#000000">src/Text.cpp</text>
</a>
</g>
</g>
<!-- Node13&#45;&gt;Node14 -->
<g id="edge12" class="edge">
<title>Node13&#45;&gt;Node14</title>
<path fill="none" stroke="#191970" d="M454,-158.1575C454,-149.155 454,-138.9199 454,-131.6427"/>
<polygon fill="#191970" stroke="#191970" points="450.5001,-158.2455 454,-168.2455 457.5001,-158.2456 450.5001,-158.2455"/>
</g>
</g>
</svg>
