<?xml version="1.0" encoding="UTF-8" standalone="no"?>
<!DOCTYPE svg PUBLIC "-//W3C//DTD SVG 1.1//EN"
 "http://www.w3.org/Graphics/SVG/1.1/DTD/svg11.dtd">
<!-- Generated by graphviz version 2.38.0 (20140413.2041)
 -->
<!-- Title: include/Error.h Pages: 1 -->
<svg width="1738pt" height="196pt"
 viewBox="0.00 0.00 1738.00 196.00" xmlns="http://www.w3.org/2000/svg" xmlns:xlink="http://www.w3.org/1999/xlink">
<g id="graph0" class="graph" transform="scale(1 1) rotate(0) translate(4 192)">
<title>include/Error.h</title>
<polygon fill="white" stroke="none" points="-4,4 -4,-192 1734,-192 1734,4 -4,4"/>
<!-- Node3 -->
<g id="node1" class="node"><title>Node3</title>
<polygon fill="#bfbfbf" stroke="black" points="715,-168.5 715,-187.5 795,-187.5 795,-168.5 715,-168.5"/>
<text text-anchor="middle" x="755" y="-175.5" font-family="Helvetica,sans-Serif" font-size="10.00">include/Error.h</text>
</g>
<!-- Node4 -->
<g id="node2" class="node"><title>Node4</title>
<g id="a_node2"><a xlink:href="BaseTile_8h.html" target="_top" xlink:title="include/BaseTile.h">
<polygon fill="white" stroke="black" points="8.5,-112.5 8.5,-131.5 105.5,-131.5 105.5,-112.5 8.5,-112.5"/>
<text text-anchor="middle" x="57" y="-119.5" font-family="Helvetica,sans-Serif" font-size="10.00">include/BaseTile.h</text>
</a>
</g>
</g>
<!-- Node3&#45;&gt;Node4 -->
<g id="edge1" class="edge"><title>Node3&#45;&gt;Node4</title>
<path fill="none" stroke="midnightblue" d="M704.854,-174.151C599.054,-167.969 345.263,-152.236 133,-132 124.138,-131.155 114.709,-130.136 105.617,-129.092"/>
<polygon fill="midnightblue" stroke="midnightblue" points="704.738,-177.65 714.924,-174.737 705.144,-170.662 704.738,-177.65"/>
</g>
<!-- Node6 -->
<g id="node4" class="node"><title>Node6</title>
<g id="a_node4"><a xlink:href="Tileset_8h.html" target="_top" xlink:title="include/Tileset.h">
<polygon fill="white" stroke="black" points="175,-112.5 175,-131.5 263,-131.5 263,-112.5 175,-112.5"/>
<text text-anchor="middle" x="219" y="-119.5" font-family="Helvetica,sans-Serif" font-size="10.00">include/Tileset.h</text>
</a>
</g>
</g>
<!-- Node3&#45;&gt;Node6 -->
<g id="edge3" class="edge"><title>Node3&#45;&gt;Node6</title>
<path fill="none" stroke="midnightblue" d="M704.798,-173.272C617.603,-166.574 432.588,-151.377 277,-132 272.551,-131.446 267.918,-130.816 263.295,-130.154"/>
<polygon fill="midnightblue" stroke="midnightblue" points="704.701,-176.775 714.938,-174.046 705.234,-169.795 704.701,-176.775"/>
</g>
<!-- Node7 -->
<g id="node5" class="node"><title>Node7</title>
<g id="a_node5"><a xlink:href="TileMap_8h.html" target="_top" xlink:title="include/TileMap.h">
<polygon fill="white" stroke="black" points="108.5,-56.5 108.5,-75.5 201.5,-75.5 201.5,-56.5 108.5,-56.5"/>
<text text-anchor="middle" x="155" y="-63.5" font-family="Helvetica,sans-Serif" font-size="10.00">include/TileMap.h</text>
</a>
</g>
</g>
<!-- Node3&#45;&gt;Node7 -->
<g id="edge7" class="edge"><title>Node3&#45;&gt;Node7</title>
<path fill="none" stroke="midnightblue" d="M704.477,-176.635C569.028,-175.176 205.361,-167.919 166,-132 150.275,-117.65 151.594,-89.8395 153.49,-75.7033"/>
<polygon fill="midnightblue" stroke="midnightblue" points="704.554,-180.136 714.589,-176.738 704.625,-173.136 704.554,-180.136"/>
</g>
<!-- Node8 -->
<g id="node6" class="node"><title>Node8</title>
<g id="a_node6"><a xlink:href="DragAndDrop_8h.html" target="_top" xlink:title="include/DragAndDrop.h">
<polygon fill="white" stroke="black" points="183,-0.5 183,-19.5 301,-19.5 301,-0.5 183,-0.5"/>
<text text-anchor="middle" x="242" y="-7.5" font-family="Helvetica,sans-Serif" font-size="10.00">include/DragAndDrop.h</text>
</a>
</g>
</g>
<!-- Node3&#45;&gt;Node8 -->
<g id="edge8" class="edge"><title>Node3&#45;&gt;Node8</title>
<path fill="none" stroke="midnightblue" d="M704.839,-177.245C609.095,-176.792 404.761,-171.116 348,-132 316.739,-110.457 334.226,-84.3734 309,-56 294.942,-40.1875 274.158,-27.3726 259.473,-19.5205"/>
<polygon fill="midnightblue" stroke="midnightblue" points="704.849,-180.745 714.86,-177.275 704.87,-173.745 704.849,-180.745"/>
</g>
<!-- Node9 -->
<g id="node7" class="node"><title>Node9</title>
<g id="a_node7"><a xlink:href="Tileset_8cpp.html" target="_top" xlink:title="src/Tileset.cpp">
<polygon fill="white" stroke="black" points="219.5,-56.5 219.5,-75.5 300.5,-75.5 300.5,-56.5 219.5,-56.5"/>
<text text-anchor="middle" x="260" y="-63.5" font-family="Helvetica,sans-Serif" font-size="10.00">src/Tileset.cpp</text>
</a>
</g>
</g>
<!-- Node3&#45;&gt;Node9 -->
<g id="edge23" class="edge"><title>Node3&#45;&gt;Node9</title>
<path fill="none" stroke="midnightblue" d="M704.512,-176.522C603.714,-174.816 381.504,-167.066 315,-132 290.417,-119.038 272.278,-90.059 264.377,-75.5785"/>
<polygon fill="midnightblue" stroke="midnightblue" points="704.692,-180.025 714.745,-176.682 704.801,-173.026 704.692,-180.025"/>
</g>
<!-- Node10 -->
<g id="node8" class="node"><title>Node10</title>
<g id="a_node8"><a xlink:href="Music_8h.html" target="_top" xlink:title="include/Music.h">
<polygon fill="white" stroke="black" points="357.5,-112.5 357.5,-131.5 442.5,-131.5 442.5,-112.5 357.5,-112.5"/>
<text text-anchor="middle" x="400" y="-119.5" font-family="Helvetica,sans-Serif" font-size="10.00">include/Music.h</text>
</a>
</g>
</g>
<!-- Node3&#45;&gt;Node10 -->
<g id="edge9" class="edge"><title>Node3&#45;&gt;Node10</title>
<path fill="none" stroke="midnightblue" d="M704.772,-169.916C644.621,-161.346 540.847,-146.284 452,-132 448.924,-131.506 445.749,-130.984 442.553,-130.45"/>
<polygon fill="midnightblue" stroke="midnightblue" points="704.369,-173.394 714.762,-171.337 705.355,-166.463 704.369,-173.394"/>
</g>
<!-- Node12 -->
<g id="node10" class="node"><title>Node12</title>
<g id="a_node10"><a xlink:href="Text_8h.html" target="_top" xlink:title="include/Text.h">
<polygon fill="white" stroke="black" points="461,-112.5 461,-131.5 539,-131.5 539,-112.5 461,-112.5"/>
<text text-anchor="middle" x="500" y="-119.5" font-family="Helvetica,sans-Serif" font-size="10.00">include/Text.h</text>
</a>
</g>
</g>
<!-- Node3&#45;&gt;Node12 -->
<g id="edge11" class="edge"><title>Node3&#45;&gt;Node12</title>
<path fill="none" stroke="midnightblue" d="M704.888,-166.388C656.274,-156.093 583.519,-140.686 539.054,-131.27"/>
<polygon fill="midnightblue" stroke="midnightblue" points="704.368,-169.855 714.876,-168.503 705.818,-163.007 704.368,-169.855"/>
</g>
<!-- Node14 -->
<g id="node12" class="node"><title>Node14</title>
<g id="a_node12"><a xlink:href="Camera_8cpp.html" target="_top" xlink:title="src/Camera.cpp">
<polygon fill="white" stroke="black" points="557,-112.5 557,-131.5 643,-131.5 643,-112.5 557,-112.5"/>
<text text-anchor="middle" x="600" y="-119.5" font-family="Helvetica,sans-Serif" font-size="10.00">src/Camera.cpp</text>
</a>
</g>
</g>
<!-- Node3&#45;&gt;Node14 -->
<g id="edge13" class="edge"><title>Node3&#45;&gt;Node14</title>
<path fill="none" stroke="midnightblue" d="M720.668,-165.039C691.503,-154.879 650.363,-140.546 624.445,-131.516"/>
<polygon fill="midnightblue" stroke="midnightblue" points="719.845,-168.459 730.44,-168.444 722.148,-161.848 719.845,-168.459"/>
</g>
<!-- Node15 -->
<g id="node13" class="node"><title>Node15</title>
<g id="a_node13"><a xlink:href="Game_8cpp.html" target="_top" xlink:title="src/Game.cpp">
<polygon fill="white" stroke="black" points="661,-112.5 661,-131.5 739,-131.5 739,-112.5 661,-112.5"/>
<text text-anchor="middle" x="700" y="-119.5" font-family="Helvetica,sans-Serif" font-size="10.00">src/Game.cpp</text>
</a>
</g>
</g>
<!-- Node3&#45;&gt;Node15 -->
<g id="edge14" class="edge"><title>Node3&#45;&gt;Node15</title>
<path fill="none" stroke="midnightblue" d="M738.706,-161.002C728.959,-151.433 716.947,-139.639 708.913,-131.751"/>
<polygon fill="midnightblue" stroke="midnightblue" points="736.33,-163.575 745.918,-168.083 741.234,-158.58 736.33,-163.575"/>
</g>
<!-- Node16 -->
<g id="node14" class="node"><title>Node16</title>
<g id="a_node14"><a xlink:href="GameObject_8cpp.html" target="_top" xlink:title="src/GameObject.cpp">
<polygon fill="white" stroke="black" points="757.5,-112.5 757.5,-131.5 864.5,-131.5 864.5,-112.5 757.5,-112.5"/>
<text text-anchor="middle" x="811" y="-119.5" font-family="Helvetica,sans-Serif" font-size="10.00">src/GameObject.cpp</text>
</a>
</g>
</g>
<!-- Node3&#45;&gt;Node16 -->
<g id="edge15" class="edge"><title>Node3&#45;&gt;Node16</title>
<path fill="none" stroke="midnightblue" d="M771.33,-161.253C781.265,-151.673 793.588,-139.791 801.839,-131.834"/>
<polygon fill="midnightblue" stroke="midnightblue" points="768.766,-158.863 763.997,-168.324 773.625,-163.902 768.766,-158.863"/>
</g>
<!-- Node17 -->
<g id="node15" class="node"><title>Node17</title>
<g id="a_node15"><a xlink:href="Grouper_8cpp.html" target="_top" xlink:title="src/Grouper.cpp">
<polygon fill="white" stroke="black" points="883,-112.5 883,-131.5 969,-131.5 969,-112.5 883,-112.5"/>
<text text-anchor="middle" x="926" y="-119.5" font-family="Helvetica,sans-Serif" font-size="10.00">src/Grouper.cpp</text>
</a>
</g>
</g>
<!-- Node3&#45;&gt;Node17 -->
<g id="edge16" class="edge"><title>Node3&#45;&gt;Node17</title>
<path fill="none" stroke="midnightblue" d="M792.036,-165.304C824.257,-155.129 870.189,-140.625 899.031,-131.516"/>
<polygon fill="midnightblue" stroke="midnightblue" points="790.577,-162.095 782.095,-168.444 792.685,-168.77 790.577,-162.095"/>
</g>
<!-- Node18 -->
<g id="node16" class="node"><title>Node18</title>
<g id="a_node16"><a xlink:href="InputManager_8cpp.html" target="_top" xlink:title="src/InputManager.cpp">
<polygon fill="white" stroke="black" points="987.5,-112.5 987.5,-131.5 1098.5,-131.5 1098.5,-112.5 987.5,-112.5"/>
<text text-anchor="middle" x="1043" y="-119.5" font-family="Helvetica,sans-Serif" font-size="10.00">src/InputManager.cpp</text>
</a>
</g>
</g>
<!-- Node3&#45;&gt;Node18 -->
<g id="edge17" class="edge"><title>Node3&#45;&gt;Node18</title>
<path fill="none" stroke="midnightblue" d="M805.131,-167.601C859.416,-157.422 945.242,-141.33 997.604,-131.512"/>
<polygon fill="midnightblue" stroke="midnightblue" points="804.229,-164.209 795.045,-169.492 805.519,-171.089 804.229,-164.209"/>
</g>
<!-- Node19 -->
<g id="node17" class="node"><title>Node19</title>
<g id="a_node17"><a xlink:href="RectTransform_8cpp.html" target="_top" xlink:title="src/RectTransform.cpp">
<polygon fill="white" stroke="black" points="1116.5,-112.5 1116.5,-131.5 1233.5,-131.5 1233.5,-112.5 1116.5,-112.5"/>
<text text-anchor="middle" x="1175" y="-119.5" font-family="Helvetica,sans-Serif" font-size="10.00">src/RectTransform.cpp</text>
</a>
</g>
</g>
<!-- Node3&#45;&gt;Node19 -->
<g id="edge18" class="edge"><title>Node3&#45;&gt;Node19</title>
<path fill="none" stroke="midnightblue" d="M805.325,-170.693C873.816,-162.084 1000.21,-146.11 1108,-132 1110.68,-131.65 1113.41,-131.29 1116.18,-130.924"/>
<polygon fill="midnightblue" stroke="midnightblue" points="804.731,-167.24 795.245,-171.959 805.604,-174.185 804.731,-167.24"/>
</g>
<!-- Node20 -->
<g id="node18" class="node"><title>Node20</title>
<g id="a_node18"><a xlink:href="Resources_8cpp.html" target="_top" xlink:title="src/Resources.cpp">
<polygon fill="white" stroke="black" points="1251.5,-112.5 1251.5,-131.5 1350.5,-131.5 1350.5,-112.5 1251.5,-112.5"/>
<text text-anchor="middle" x="1301" y="-119.5" font-family="Helvetica,sans-Serif" font-size="10.00">src/Resources.cpp</text>
</a>
</g>
</g>
<!-- Node3&#45;&gt;Node20 -->
<g id="edge19" class="edge"><title>Node3&#45;&gt;Node20</title>
<path fill="none" stroke="midnightblue" d="M805.304,-173.395C893.926,-166.814 1083.6,-151.698 1243,-132 1245.73,-131.663 1248.53,-131.296 1251.35,-130.911"/>
<polygon fill="midnightblue" stroke="midnightblue" points="804.976,-169.91 795.261,-174.137 805.491,-176.891 804.976,-169.91"/>
</g>
<!-- Node21 -->
<g id="node19" class="node"><title>Node21</title>
<g id="a_node19"><a xlink:href="Sound_8cpp.html" target="_top" xlink:title="src/Sound.cpp">
<polygon fill="white" stroke="black" points="1369,-112.5 1369,-131.5 1449,-131.5 1449,-112.5 1369,-112.5"/>
<text text-anchor="middle" x="1409" y="-119.5" font-family="Helvetica,sans-Serif" font-size="10.00">src/Sound.cpp</text>
</a>
</g>
</g>
<!-- Node3&#45;&gt;Node21 -->
<g id="edge20" class="edge"><title>Node3&#45;&gt;Node21</title>
<path fill="none" stroke="midnightblue" d="M805.352,-175.085C909.339,-170.728 1155.23,-158.343 1360,-132 1362.92,-131.625 1365.92,-131.19 1368.94,-130.719"/>
<polygon fill="midnightblue" stroke="midnightblue" points="804.995,-171.597 795.148,-175.506 805.284,-178.591 804.995,-171.597"/>
</g>
<!-- Node22 -->
<g id="node20" class="node"><title>Node22</title>
<g id="a_node20"><a xlink:href="Sprite_8cpp.html" target="_top" xlink:title="src/Sprite.cpp">
<polygon fill="white" stroke="black" points="1467.5,-112.5 1467.5,-131.5 1544.5,-131.5 1544.5,-112.5 1467.5,-112.5"/>
<text text-anchor="middle" x="1506" y="-119.5" font-family="Helvetica,sans-Serif" font-size="10.00">src/Sprite.cpp</text>
</a>
</g>
</g>
<!-- Node3&#45;&gt;Node22 -->
<g id="edge21" class="edge"><title>Node3&#45;&gt;Node22</title>
<path fill="none" stroke="midnightblue" d="M805.507,-175.87C921.305,-172.82 1214.7,-162.481 1458,-132 1461.03,-131.621 1464.15,-131.17 1467.29,-130.675"/>
<polygon fill="midnightblue" stroke="midnightblue" points="805.095,-172.379 795.188,-176.134 805.275,-179.377 805.095,-172.379"/>
</g>
<!-- Node23 -->
<g id="node21" class="node"><title>Node23</title>
<g id="a_node21"><a xlink:href="State_8cpp.html" target="_top" xlink:title="src/State.cpp">
<polygon fill="white" stroke="black" points="1562.5,-112.5 1562.5,-131.5 1637.5,-131.5 1637.5,-112.5 1562.5,-112.5"/>
<text text-anchor="middle" x="1600" y="-119.5" font-family="Helvetica,sans-Serif" font-size="10.00">src/State.cpp</text>
</a>
</g>
</g>
<!-- Node3&#45;&gt;Node23 -->
<g id="edge22" class="edge"><title>Node3&#45;&gt;Node23</title>
<path fill="none" stroke="midnightblue" d="M805.218,-176.555C931.519,-174.92 1272.42,-167.307 1554,-132 1556.75,-131.656 1559.57,-131.244 1562.41,-130.789"/>
<polygon fill="midnightblue" stroke="midnightblue" points="805.037,-173.057 795.081,-176.679 805.123,-180.056 805.037,-173.057"/>
</g>
<!-- Node24 -->
<g id="node22" class="node"><title>Node24</title>
<g id="a_node22"><a xlink:href="Vec2_8cpp.html" target="_top" xlink:title="src/Vec2.cpp">
<polygon fill="white" stroke="black" points="1656,-112.5 1656,-131.5 1730,-131.5 1730,-112.5 1656,-112.5"/>
<text text-anchor="middle" x="1693" y="-119.5" font-family="Helvetica,sans-Serif" font-size="10.00">src/Vec2.cpp</text>
</a>
</g>
</g>
<!-- Node3&#45;&gt;Node24 -->
<g id="edge24" class="edge"><title>Node3&#45;&gt;Node24</title>
<path fill="none" stroke="midnightblue" d="M805.306,-176.973C941.438,-176.357 1328.25,-171.02 1647,-132 1649.91,-131.644 1652.91,-131.21 1655.92,-130.727"/>
<polygon fill="midnightblue" stroke="midnightblue" points="805.169,-173.473 795.183,-177.012 805.196,-180.473 805.169,-173.473"/>
</g>
<!-- Node5 -->
<g id="node3" class="node"><title>Node5</title>
<g id="a_node3"><a xlink:href="BaseTile_8cpp.html" target="_top" xlink:title="src/BaseTile.cpp">
<polygon fill="white" stroke="black" points="0,-56.5 0,-75.5 90,-75.5 90,-56.5 0,-56.5"/>
<text text-anchor="middle" x="45" y="-63.5" font-family="Helvetica,sans-Serif" font-size="10.00">src/BaseTile.cpp</text>
</a>
</g>
</g>
<!-- Node4&#45;&gt;Node5 -->
<g id="edge2" class="edge"><title>Node4&#45;&gt;Node5</title>
<path fill="none" stroke="midnightblue" d="M52.8001,-102.101C50.8079,-93.1357 48.524,-82.8579 46.9447,-75.7511"/>
<polygon fill="midnightblue" stroke="midnightblue" points="49.4324,-103.08 55.0184,-112.083 56.2657,-101.562 49.4324,-103.08"/>
</g>
<!-- Node6&#45;&gt;Node7 -->
<g id="edge4" class="edge"><title>Node6&#45;&gt;Node7</title>
<path fill="none" stroke="midnightblue" d="M201.009,-105.82C189.542,-96.1452 175.087,-83.9481 165.47,-75.8339"/>
<polygon fill="midnightblue" stroke="midnightblue" points="198.817,-108.55 208.717,-112.324 203.331,-103.2 198.817,-108.55"/>
</g>
<!-- Node6&#45;&gt;Node9 -->
<g id="edge6" class="edge"><title>Node6&#45;&gt;Node9</title>
<path fill="none" stroke="midnightblue" d="M232.017,-103.855C239.117,-94.5048 247.604,-83.3265 253.356,-75.7511"/>
<polygon fill="midnightblue" stroke="midnightblue" points="229.03,-102.002 225.77,-112.083 234.605,-106.235 229.03,-102.002"/>
</g>
<!-- Node7&#45;&gt;Node8 -->
<g id="edge5" class="edge"><title>Node7&#45;&gt;Node8</title>
<path fill="none" stroke="midnightblue" d="M177.716,-50.9005C193.669,-40.9986 214.497,-28.0705 228.057,-19.6545"/>
<polygon fill="midnightblue" stroke="midnightblue" points="175.629,-48.0765 168.978,-56.324 179.32,-54.024 175.629,-48.0765"/>
</g>
<!-- Node11 -->
<g id="node9" class="node"><title>Node11</title>
<g id="a_node9"><a xlink:href="Music_8cpp.html" target="_top" xlink:title="src/Music.cpp">
<polygon fill="white" stroke="black" points="361,-56.5 361,-75.5 439,-75.5 439,-56.5 361,-56.5"/>
<text text-anchor="middle" x="400" y="-63.5" font-family="Helvetica,sans-Serif" font-size="10.00">src/Music.cpp</text>
</a>
</g>
</g>
<!-- Node10&#45;&gt;Node11 -->
<g id="edge10" class="edge"><title>Node10&#45;&gt;Node11</title>
<path fill="none" stroke="midnightblue" d="M400,-101.805C400,-92.9102 400,-82.7798 400,-75.7511"/>
<polygon fill="midnightblue" stroke="midnightblue" points="396.5,-102.083 400,-112.083 403.5,-102.083 396.5,-102.083"/>
</g>
<!-- Node13 -->
<g id="node11" class="node"><title>Node13</title>
<g id="a_node11"><a xlink:href="Text_8cpp.html" target="_top" xlink:title="src/Text.cpp">
<polygon fill="white" stroke="black" points="464.5,-56.5 464.5,-75.5 535.5,-75.5 535.5,-56.5 464.5,-56.5"/>
<text text-anchor="middle" x="500" y="-63.5" font-family="Helvetica,sans-Serif" font-size="10.00">src/Text.cpp</text>
</a>
</g>
</g>
<!-- Node12&#45;&gt;Node13 -->
<g id="edge12" class="edge"><title>Node12&#45;&gt;Node13</title>
<path fill="none" stroke="midnightblue" d="M500,-101.805C500,-92.9102 500,-82.7798 500,-75.7511"/>
<polygon fill="midnightblue" stroke="midnightblue" points="496.5,-102.083 500,-112.083 503.5,-102.083 496.5,-102.083"/>
</g>
</g>
</svg>
