<?xml version="1.0" encoding="UTF-8" standalone="no"?>
<!DOCTYPE svg PUBLIC "-//W3C//DTD SVG 1.1//EN"
 "http://www.w3.org/Graphics/SVG/1.1/DTD/svg11.dtd">
<!-- Generated by graphviz version 2.38.0 (20140413.2041)
 -->
<!-- Title: include/Error.h Pages: 1 -->
<svg width="2054pt" height="140pt"
 viewBox="0.00 0.00 2053.50 140.00" xmlns="http://www.w3.org/2000/svg" xmlns:xlink="http://www.w3.org/1999/xlink">
<g id="graph0" class="graph" transform="scale(1 1) rotate(0) translate(4 136)">
<title>include/Error.h</title>
<polygon fill="white" stroke="none" points="-4,4 -4,-136 2049.5,-136 2049.5,4 -4,4"/>
<!-- Node3 -->
<g id="node1" class="node"><title>Node3</title>
<polygon fill="#bfbfbf" stroke="black" points="998.5,-112.5 998.5,-131.5 1078.5,-131.5 1078.5,-112.5 998.5,-112.5"/>
<text text-anchor="middle" x="1038.5" y="-119.5" font-family="Helvetica,sans-Serif" font-size="10.00">include/Error.h</text>
</g>
<!-- Node4 -->
<g id="node2" class="node"><title>Node4</title>
<g id="a_node2"><a xlink:href="Music_8h.html" target="_top" xlink:title="include/Music.h">
<polygon fill="white" stroke="black" points="0,-56.5 0,-75.5 85,-75.5 85,-56.5 0,-56.5"/>
<text text-anchor="middle" x="42.5" y="-63.5" font-family="Helvetica,sans-Serif" font-size="10.00">include/Music.h</text>
</a>
</g>
</g>
<!-- Node3&#45;&gt;Node4 -->
<g id="edge1" class="edge"><title>Node3&#45;&gt;Node4</title>
<path fill="none" stroke="midnightblue" d="M988.246,-120.789C847.001,-119.726 434.599,-113.393 94.5,-76 91.4036,-75.6596 88.2124,-75.2508 85.0063,-74.7979"/>
<polygon fill="midnightblue" stroke="midnightblue" points="988.311,-124.29 998.336,-120.859 988.36,-117.29 988.311,-124.29"/>
</g>
<!-- Node6 -->
<g id="node4" class="node"><title>Node6</title>
<g id="a_node4"><a xlink:href="Text_8h.html" target="_top" xlink:title="include/Text.h">
<polygon fill="white" stroke="black" points="103.5,-56.5 103.5,-75.5 181.5,-75.5 181.5,-56.5 103.5,-56.5"/>
<text text-anchor="middle" x="142.5" y="-63.5" font-family="Helvetica,sans-Serif" font-size="10.00">include/Text.h</text>
</a>
</g>
</g>
<!-- Node3&#45;&gt;Node6 -->
<g id="edge3" class="edge"><title>Node3&#45;&gt;Node6</title>
<path fill="none" stroke="midnightblue" d="M987.987,-120.647C856.257,-119.222 491.582,-112.054 190.5,-76 187.638,-75.6572 184.689,-75.2468 181.727,-74.7926"/>
<polygon fill="midnightblue" stroke="midnightblue" points="988.135,-124.148 998.171,-120.75 988.207,-117.149 988.135,-124.148"/>
</g>
<!-- Node8 -->
<g id="node6" class="node"><title>Node8</title>
<g id="a_node6"><a xlink:href="Camera_8cpp.html" target="_top" xlink:title="src/Camera.cpp">
<polygon fill="white" stroke="black" points="199.5,-56.5 199.5,-75.5 285.5,-75.5 285.5,-56.5 199.5,-56.5"/>
<text text-anchor="middle" x="242.5" y="-63.5" font-family="Helvetica,sans-Serif" font-size="10.00">src/Camera.cpp</text>
</a>
</g>
</g>
<!-- Node3&#45;&gt;Node8 -->
<g id="edge5" class="edge"><title>Node3&#45;&gt;Node8</title>
<path fill="none" stroke="midnightblue" d="M988.152,-119.821C867.976,-116.599 555.03,-105.807 295.5,-76 292.255,-75.6273 288.906,-75.1883 285.543,-74.708"/>
<polygon fill="midnightblue" stroke="midnightblue" points="988.411,-123.329 998.499,-120.092 988.595,-116.331 988.411,-123.329"/>
</g>
<!-- Node9 -->
<g id="node7" class="node"><title>Node9</title>
<g id="a_node7"><a xlink:href="DragAndDrop_8cpp.html" target="_top" xlink:title="src/DragAndDrop.cpp">
<polygon fill="white" stroke="black" points="304,-56.5 304,-75.5 415,-75.5 415,-56.5 304,-56.5"/>
<text text-anchor="middle" x="359.5" y="-63.5" font-family="Helvetica,sans-Serif" font-size="10.00">src/DragAndDrop.cpp</text>
</a>
</g>
</g>
<!-- Node3&#45;&gt;Node9 -->
<g id="edge6" class="edge"><title>Node3&#45;&gt;Node9</title>
<path fill="none" stroke="midnightblue" d="M988.194,-118.414C883.235,-112.775 633.316,-98.0853 424.5,-76 421.441,-75.6765 418.304,-75.3211 415.14,-74.9441"/>
<polygon fill="midnightblue" stroke="midnightblue" points="988.018,-121.909 998.19,-118.947 988.391,-114.919 988.018,-121.909"/>
</g>
<!-- Node10 -->
<g id="node8" class="node"><title>Node10</title>
<g id="a_node8"><a xlink:href="Game_8cpp.html" target="_top" xlink:title="src/Game.cpp">
<polygon fill="white" stroke="black" points="433.5,-56.5 433.5,-75.5 511.5,-75.5 511.5,-56.5 433.5,-56.5"/>
<text text-anchor="middle" x="472.5" y="-63.5" font-family="Helvetica,sans-Serif" font-size="10.00">src/Game.cpp</text>
</a>
</g>
</g>
<!-- Node3&#45;&gt;Node10 -->
<g id="edge7" class="edge"><title>Node3&#45;&gt;Node10</title>
<path fill="none" stroke="midnightblue" d="M988.262,-118.215C895.663,-112.729 691.94,-99.0175 521.5,-76 518.329,-75.5717 515.05,-75.0792 511.762,-74.55"/>
<polygon fill="midnightblue" stroke="midnightblue" points="988.277,-121.722 998.465,-118.813 988.687,-114.734 988.277,-121.722"/>
</g>
<!-- Node11 -->
<g id="node9" class="node"><title>Node11</title>
<g id="a_node9"><a xlink:href="GameObject_8cpp.html" target="_top" xlink:title="src/GameObject.cpp">
<polygon fill="white" stroke="black" points="530,-56.5 530,-75.5 637,-75.5 637,-56.5 530,-56.5"/>
<text text-anchor="middle" x="583.5" y="-63.5" font-family="Helvetica,sans-Serif" font-size="10.00">src/GameObject.cpp</text>
</a>
</g>
</g>
<!-- Node3&#45;&gt;Node11 -->
<g id="edge8" class="edge"><title>Node3&#45;&gt;Node11</title>
<path fill="none" stroke="midnightblue" d="M988.336,-115.689C913.728,-107.69 769.141,-91.7963 646.5,-76 643.432,-75.6048 640.281,-75.1884 637.103,-74.7601"/>
<polygon fill="midnightblue" stroke="midnightblue" points="988.074,-119.181 998.389,-116.765 988.818,-112.221 988.074,-119.181"/>
</g>
<!-- Node12 -->
<g id="node10" class="node"><title>Node12</title>
<g id="a_node10"><a xlink:href="InputManager_8cpp.html" target="_top" xlink:title="src/InputManager.cpp">
<polygon fill="white" stroke="black" points="655,-56.5 655,-75.5 766,-75.5 766,-56.5 655,-56.5"/>
<text text-anchor="middle" x="710.5" y="-63.5" font-family="Helvetica,sans-Serif" font-size="10.00">src/InputManager.cpp</text>
</a>
</g>
</g>
<!-- Node3&#45;&gt;Node12 -->
<g id="edge9" class="edge"><title>Node3&#45;&gt;Node12</title>
<path fill="none" stroke="midnightblue" d="M988.094,-112.701C926.908,-102.628 824.259,-85.7286 762.405,-75.5453"/>
<polygon fill="midnightblue" stroke="midnightblue" points="987.845,-116.207 998.281,-114.379 988.982,-109.3 987.845,-116.207"/>
</g>
<!-- Node13 -->
<g id="node11" class="node"><title>Node13</title>
<g id="a_node11"><a xlink:href="Resources_8cpp.html" target="_top" xlink:title="src/Resources.cpp">
<polygon fill="white" stroke="black" points="784,-56.5 784,-75.5 883,-75.5 883,-56.5 784,-56.5"/>
<text text-anchor="middle" x="833.5" y="-63.5" font-family="Helvetica,sans-Serif" font-size="10.00">src/Resources.cpp</text>
</a>
</g>
</g>
<!-- Node3&#45;&gt;Node13 -->
<g id="edge10" class="edge"><title>Node3&#45;&gt;Node13</title>
<path fill="none" stroke="midnightblue" d="M996.092,-109.829C957.386,-99.6333 901.007,-84.7823 865.831,-75.5164"/>
<polygon fill="midnightblue" stroke="midnightblue" points="995.455,-113.281 1006.02,-112.444 997.239,-106.512 995.455,-113.281"/>
</g>
<!-- Node14 -->
<g id="node12" class="node"><title>Node14</title>
<g id="a_node12"><a xlink:href="Sound_8cpp.html" target="_top" xlink:title="src/Sound.cpp">
<polygon fill="white" stroke="black" points="901.5,-56.5 901.5,-75.5 981.5,-75.5 981.5,-56.5 901.5,-56.5"/>
<text text-anchor="middle" x="941.5" y="-63.5" font-family="Helvetica,sans-Serif" font-size="10.00">src/Sound.cpp</text>
</a>
</g>
</g>
<!-- Node3&#45;&gt;Node14 -->
<g id="edge11" class="edge"><title>Node3&#45;&gt;Node14</title>
<path fill="none" stroke="midnightblue" d="M1014.16,-107.453C996.257,-97.4835 972.446,-84.2279 957.046,-75.6545"/>
<polygon fill="midnightblue" stroke="midnightblue" points="1012.48,-110.518 1022.92,-112.324 1015.88,-104.402 1012.48,-110.518"/>
</g>
<!-- Node15 -->
<g id="node13" class="node"><title>Node15</title>
<g id="a_node13"><a xlink:href="Sprite_8cpp.html" target="_top" xlink:title="src/Sprite.cpp">
<polygon fill="white" stroke="black" points="1000,-56.5 1000,-75.5 1077,-75.5 1077,-56.5 1000,-56.5"/>
<text text-anchor="middle" x="1038.5" y="-63.5" font-family="Helvetica,sans-Serif" font-size="10.00">src/Sprite.cpp</text>
</a>
</g>
</g>
<!-- Node3&#45;&gt;Node15 -->
<g id="edge12" class="edge"><title>Node3&#45;&gt;Node15</title>
<path fill="none" stroke="midnightblue" d="M1038.5,-101.805C1038.5,-92.9102 1038.5,-82.7798 1038.5,-75.7511"/>
<polygon fill="midnightblue" stroke="midnightblue" points="1035,-102.083 1038.5,-112.083 1042,-102.083 1035,-102.083"/>
</g>
<!-- Node16 -->
<g id="node14" class="node"><title>Node16</title>
<g id="a_node14"><a xlink:href="State_8cpp.html" target="_top" xlink:title="src/State.cpp">
<polygon fill="white" stroke="black" points="1095,-56.5 1095,-75.5 1170,-75.5 1170,-56.5 1095,-56.5"/>
<text text-anchor="middle" x="1132.5" y="-63.5" font-family="Helvetica,sans-Serif" font-size="10.00">src/State.cpp</text>
</a>
</g>
</g>
<!-- Node3&#45;&gt;Node16 -->
<g id="edge13" class="edge"><title>Node3&#45;&gt;Node16</title>
<path fill="none" stroke="midnightblue" d="M1062.56,-107.177C1079.86,-97.2407 1102.65,-84.1492 1117.43,-75.6545"/>
<polygon fill="midnightblue" stroke="midnightblue" points="1060.53,-104.308 1053.6,-112.324 1064.02,-110.378 1060.53,-104.308"/>
</g>
<!-- Node17 -->
<g id="node15" class="node"><title>Node17</title>
<g id="a_node15"><a xlink:href="TileMap_8cpp.html" target="_top" xlink:title="src/TileMap.cpp">
<polygon fill="white" stroke="black" points="1188.5,-56.5 1188.5,-75.5 1274.5,-75.5 1274.5,-56.5 1188.5,-56.5"/>
<text text-anchor="middle" x="1231.5" y="-63.5" font-family="Helvetica,sans-Serif" font-size="10.00">src/TileMap.cpp</text>
</a>
</g>
</g>
<!-- Node3&#45;&gt;Node17 -->
<g id="edge14" class="edge"><title>Node3&#45;&gt;Node17</title>
<path fill="none" stroke="midnightblue" d="M1078.89,-109.699C1115.32,-99.507 1168.09,-84.7429 1201.06,-75.5164"/>
<polygon fill="midnightblue" stroke="midnightblue" points="1077.77,-106.378 1069.08,-112.444 1079.65,-113.12 1077.77,-106.378"/>
</g>
<!-- Node18 -->
<g id="node16" class="node"><title>Node18</title>
<g id="a_node16"><a xlink:href="Tileset_8cpp.html" target="_top" xlink:title="src/Tileset.cpp">
<polygon fill="white" stroke="black" points="1293,-56.5 1293,-75.5 1374,-75.5 1374,-56.5 1293,-56.5"/>
<text text-anchor="middle" x="1333.5" y="-63.5" font-family="Helvetica,sans-Serif" font-size="10.00">src/Tileset.cpp</text>
</a>
</g>
</g>
<!-- Node3&#45;&gt;Node18 -->
<g id="edge15" class="edge"><title>Node3&#45;&gt;Node18</title>
<path fill="none" stroke="midnightblue" d="M1088.54,-111.84C1146.01,-101.32 1239.21,-84.2603 1292.55,-74.4965"/>
<polygon fill="midnightblue" stroke="midnightblue" points="1087.8,-108.418 1078.59,-113.661 1089.06,-115.303 1087.8,-108.418"/>
</g>
<!-- Node19 -->
<g id="node17" class="node"><title>Node19</title>
<g id="a_node17"><a xlink:href="UIelement_8cpp.html" target="_top" xlink:title="src/UIelement.cpp">
<polygon fill="white" stroke="black" points="1392,-56.5 1392,-75.5 1489,-75.5 1489,-56.5 1392,-56.5"/>
<text text-anchor="middle" x="1440.5" y="-63.5" font-family="Helvetica,sans-Serif" font-size="10.00">src/UIelement.cpp</text>
</a>
</g>
</g>
<!-- Node3&#45;&gt;Node19 -->
<g id="edge16" class="edge"><title>Node3&#45;&gt;Node19</title>
<path fill="none" stroke="midnightblue" d="M1088.96,-114.85C1156.22,-106.553 1278.94,-91.0712 1383.5,-76 1386.18,-75.6141 1388.92,-75.2095 1391.7,-74.7944"/>
<polygon fill="midnightblue" stroke="midnightblue" points="1088.15,-111.423 1078.65,-116.118 1089.01,-118.371 1088.15,-111.423"/>
</g>
<!-- Node20 -->
<g id="node18" class="node"><title>Node20</title>
<g id="a_node18"><a xlink:href="UIimage_8cpp.html" target="_top" xlink:title="src/UIimage.cpp">
<polygon fill="white" stroke="black" points="1507,-56.5 1507,-75.5 1596,-75.5 1596,-56.5 1507,-56.5"/>
<text text-anchor="middle" x="1551.5" y="-63.5" font-family="Helvetica,sans-Serif" font-size="10.00">src/UIimage.cpp</text>
</a>
</g>
</g>
<!-- Node3&#45;&gt;Node20 -->
<g id="edge17" class="edge"><title>Node3&#45;&gt;Node20</title>
<path fill="none" stroke="midnightblue" d="M1088.71,-117.257C1173.42,-110.681 1350,-95.8471 1498.5,-76 1501.18,-75.6415 1503.94,-75.2486 1506.71,-74.8339"/>
<polygon fill="midnightblue" stroke="midnightblue" points="1088.31,-113.778 1078.6,-118.036 1088.84,-120.757 1088.31,-113.778"/>
</g>
<!-- Node21 -->
<g id="node19" class="node"><title>Node21</title>
<g id="a_node19"><a xlink:href="UIimageButton_8cpp.html" target="_top" xlink:title="src/UIimageButton.cpp">
<polygon fill="white" stroke="black" points="1614,-56.5 1614,-75.5 1731,-75.5 1731,-56.5 1614,-56.5"/>
<text text-anchor="middle" x="1672.5" y="-63.5" font-family="Helvetica,sans-Serif" font-size="10.00">src/UIimageButton.cpp</text>
</a>
</g>
</g>
<!-- Node3&#45;&gt;Node21 -->
<g id="edge18" class="edge"><title>Node3&#45;&gt;Node21</title>
<path fill="none" stroke="midnightblue" d="M1088.81,-117.928C1187.88,-111.676 1415.12,-96.326 1605.5,-76 1608.18,-75.7134 1610.93,-75.4057 1613.7,-75.0829"/>
<polygon fill="midnightblue" stroke="midnightblue" points="1088.55,-114.438 1078.79,-118.557 1088.99,-121.424 1088.55,-114.438"/>
</g>
<!-- Node22 -->
<g id="node20" class="node"><title>Node22</title>
<g id="a_node20"><a xlink:href="UItext_8cpp.html" target="_top" xlink:title="src/UItext.cpp">
<polygon fill="white" stroke="black" points="1749,-56.5 1749,-75.5 1828,-75.5 1828,-56.5 1749,-56.5"/>
<text text-anchor="middle" x="1788.5" y="-63.5" font-family="Helvetica,sans-Serif" font-size="10.00">src/UItext.cpp</text>
</a>
</g>
</g>
<!-- Node3&#45;&gt;Node22 -->
<g id="edge19" class="edge"><title>Node3&#45;&gt;Node22</title>
<path fill="none" stroke="midnightblue" d="M1088.94,-119.865C1204.57,-116.806 1497.55,-106.449 1740.5,-76 1743.19,-75.6626 1745.96,-75.2689 1748.75,-74.8383"/>
<polygon fill="midnightblue" stroke="midnightblue" points="1088.54,-116.374 1078.63,-120.131 1088.72,-123.372 1088.54,-116.374"/>
</g>
<!-- Node23 -->
<g id="node21" class="node"><title>Node23</title>
<g id="a_node21"><a xlink:href="UItextButton_8cpp.html" target="_top" xlink:title="src/UItextButton.cpp">
<polygon fill="white" stroke="black" points="1846,-56.5 1846,-75.5 1953,-75.5 1953,-56.5 1846,-56.5"/>
<text text-anchor="middle" x="1899.5" y="-63.5" font-family="Helvetica,sans-Serif" font-size="10.00">src/UItextButton.cpp</text>
</a>
</g>
</g>
<!-- Node3&#45;&gt;Node23 -->
<g id="edge20" class="edge"><title>Node3&#45;&gt;Node23</title>
<path fill="none" stroke="midnightblue" d="M1088.62,-119.707C1214.7,-116.124 1555.14,-104.39 1837.5,-76 1840.21,-75.728 1842.97,-75.4232 1845.77,-75.0948"/>
<polygon fill="midnightblue" stroke="midnightblue" points="1088.4,-116.212 1078.5,-119.991 1088.6,-123.209 1088.4,-116.212"/>
</g>
<!-- Node24 -->
<g id="node22" class="node"><title>Node24</title>
<g id="a_node22"><a xlink:href="Vec2_8cpp.html" target="_top" xlink:title="src/Vec2.cpp">
<polygon fill="white" stroke="black" points="1971.5,-56.5 1971.5,-75.5 2045.5,-75.5 2045.5,-56.5 1971.5,-56.5"/>
<text text-anchor="middle" x="2008.5" y="-63.5" font-family="Helvetica,sans-Serif" font-size="10.00">src/Vec2.cpp</text>
</a>
</g>
</g>
<!-- Node3&#45;&gt;Node24 -->
<g id="edge21" class="edge"><title>Node3&#45;&gt;Node24</title>
<path fill="none" stroke="midnightblue" d="M1089.13,-121.097C1228.79,-120.813 1631.14,-116.27 1962.5,-76 1965.41,-75.6466 1968.41,-75.2146 1971.42,-74.7331"/>
<polygon fill="midnightblue" stroke="midnightblue" points="1088.75,-117.598 1078.75,-121.111 1088.76,-124.598 1088.75,-117.598"/>
</g>
<!-- Node5 -->
<g id="node3" class="node"><title>Node5</title>
<g id="a_node3"><a xlink:href="Music_8cpp.html" target="_top" xlink:title="src/Music.cpp">
<polygon fill="white" stroke="black" points="3.5,-0.5 3.5,-19.5 81.5,-19.5 81.5,-0.5 3.5,-0.5"/>
<text text-anchor="middle" x="42.5" y="-7.5" font-family="Helvetica,sans-Serif" font-size="10.00">src/Music.cpp</text>
</a>
</g>
</g>
<!-- Node4&#45;&gt;Node5 -->
<g id="edge2" class="edge"><title>Node4&#45;&gt;Node5</title>
<path fill="none" stroke="midnightblue" d="M42.5,-45.8045C42.5,-36.9102 42.5,-26.7798 42.5,-19.7511"/>
<polygon fill="midnightblue" stroke="midnightblue" points="39.0001,-46.083 42.5,-56.083 46.0001,-46.083 39.0001,-46.083"/>
</g>
<!-- Node7 -->
<g id="node5" class="node"><title>Node7</title>
<g id="a_node5"><a xlink:href="Text_8cpp.html" target="_top" xlink:title="src/Text.cpp">
<polygon fill="white" stroke="black" points="107,-0.5 107,-19.5 178,-19.5 178,-0.5 107,-0.5"/>
<text text-anchor="middle" x="142.5" y="-7.5" font-family="Helvetica,sans-Serif" font-size="10.00">src/Text.cpp</text>
</a>
</g>
</g>
<!-- Node6&#45;&gt;Node7 -->
<g id="edge4" class="edge"><title>Node6&#45;&gt;Node7</title>
<path fill="none" stroke="midnightblue" d="M142.5,-45.8045C142.5,-36.9102 142.5,-26.7798 142.5,-19.7511"/>
<polygon fill="midnightblue" stroke="midnightblue" points="139,-46.083 142.5,-56.083 146,-46.083 139,-46.083"/>
</g>
</g>
</svg>
