<?xml version="1.0" encoding="UTF-8" standalone="no"?>
<!DOCTYPE svg PUBLIC "-//W3C//DTD SVG 1.1//EN"
 "http://www.w3.org/Graphics/SVG/1.1/DTD/svg11.dtd">
<!-- Generated by graphviz version 2.40.1 (20161225.0304)
 -->
<!-- Title: FowardList/FowardList.h Pages: 1 -->
<svg width="370pt" height="140pt"
 viewBox="0.00 0.00 370.00 140.00" xmlns="http://www.w3.org/2000/svg" xmlns:xlink="http://www.w3.org/1999/xlink">
<g id="graph0" class="graph" transform="scale(1 1) rotate(0) translate(4 136)">
<title>FowardList/FowardList.h</title>
<polygon fill="#ffffff" stroke="transparent" points="-4,4 -4,-136 366,-136 366,4 -4,4"/>
<!-- Node3 -->
<g id="node1" class="node">
<title>Node3</title>
<polygon fill="#bfbfbf" stroke="#000000" points="131,-112.5 131,-131.5 255,-131.5 255,-112.5 131,-112.5"/>
<text text-anchor="middle" x="193" y="-119.5" font-family="Helvetica,sans-Serif" font-size="10.00" fill="#000000">FowardList/FowardList.h</text>
</g>
<!-- Node4 -->
<g id="node2" class="node">
<title>Node4</title>
<g id="a_node2"><a xlink:href="FowardList_8c.html" target="_top" xlink:title="FowardList/FowardList.c">
<polygon fill="#ffffff" stroke="#000000" points="0,-56.5 0,-75.5 124,-75.5 124,-56.5 0,-56.5"/>
<text text-anchor="middle" x="62" y="-63.5" font-family="Helvetica,sans-Serif" font-size="10.00" fill="#000000">FowardList/FowardList.c</text>
</a>
</g>
</g>
<!-- Node3&#45;&gt;Node4 -->
<g id="edge1" class="edge">
<title>Node3&#45;&gt;Node4</title>
<path fill="none" stroke="#191970" d="M161.1466,-108.3833C137.3215,-98.1985 105.3432,-84.5284 84.2258,-75.5011"/>
<polygon fill="#191970" stroke="#191970" points="159.9094,-111.6608 170.4803,-112.3733 162.661,-105.2242 159.9094,-111.6608"/>
</g>
<!-- Node5 -->
<g id="node3" class="node">
<title>Node5</title>
<g id="a_node3"><a xlink:href="Threading_8h.html" target="_top" xlink:title="include/Threading.h">
<polygon fill="#ffffff" stroke="#000000" points="142.5,-56.5 142.5,-75.5 243.5,-75.5 243.5,-56.5 142.5,-56.5"/>
<text text-anchor="middle" x="193" y="-63.5" font-family="Helvetica,sans-Serif" font-size="10.00" fill="#000000">include/Threading.h</text>
</a>
</g>
</g>
<!-- Node3&#45;&gt;Node5 -->
<g id="edge2" class="edge">
<title>Node3&#45;&gt;Node5</title>
<path fill="none" stroke="#191970" d="M193,-102.1575C193,-93.155 193,-82.9199 193,-75.6427"/>
<polygon fill="#191970" stroke="#191970" points="189.5001,-102.2455 193,-112.2455 196.5001,-102.2456 189.5001,-102.2455"/>
</g>
<!-- Node9 -->
<g id="node7" class="node">
<title>Node9</title>
<g id="a_node7"><a xlink:href="FowardList_8cpp.html" target="_top" xlink:title="src/FowardList.cpp">
<polygon fill="#ffffff" stroke="#000000" points="262,-56.5 262,-75.5 362,-75.5 362,-56.5 262,-56.5"/>
<text text-anchor="middle" x="312" y="-63.5" font-family="Helvetica,sans-Serif" font-size="10.00" fill="#000000">src/FowardList.cpp</text>
</a>
</g>
</g>
<!-- Node3&#45;&gt;Node9 -->
<g id="edge6" class="edge">
<title>Node3&#45;&gt;Node9</title>
<path fill="none" stroke="#191970" d="M222.5144,-108.1109C244.0938,-97.9559 272.7976,-84.4482 291.8101,-75.5011"/>
<polygon fill="#191970" stroke="#191970" points="221.0147,-104.9484 213.4568,-112.3733 223.9953,-111.2821 221.0147,-104.9484"/>
</g>
<!-- Node6 -->
<g id="node4" class="node">
<title>Node6</title>
<g id="a_node4"><a xlink:href="Game_8cpp.html" target="_top" xlink:title="src/Game.cpp">
<polygon fill="#ffffff" stroke="#000000" points="59,-.5 59,-19.5 137,-19.5 137,-.5 59,-.5"/>
<text text-anchor="middle" x="98" y="-7.5" font-family="Helvetica,sans-Serif" font-size="10.00" fill="#000000">src/Game.cpp</text>
</a>
</g>
</g>
<!-- Node5&#45;&gt;Node6 -->
<g id="edge3" class="edge">
<title>Node5&#45;&gt;Node6</title>
<path fill="none" stroke="#191970" d="M167.6324,-51.0465C150.729,-41.0824 129.0096,-28.2794 114.3581,-19.6427"/>
<polygon fill="#191970" stroke="#191970" points="166.0602,-54.1825 176.4523,-56.2455 169.6149,-48.1522 166.0602,-54.1825"/>
</g>
<!-- Node7 -->
<g id="node5" class="node">
<title>Node7</title>
<g id="a_node5"><a xlink:href="State_8cpp.html" target="_top" xlink:title="src/State.cpp">
<polygon fill="#ffffff" stroke="#000000" points="155.5,-.5 155.5,-19.5 230.5,-19.5 230.5,-.5 155.5,-.5"/>
<text text-anchor="middle" x="193" y="-7.5" font-family="Helvetica,sans-Serif" font-size="10.00" fill="#000000">src/State.cpp</text>
</a>
</g>
</g>
<!-- Node5&#45;&gt;Node7 -->
<g id="edge4" class="edge">
<title>Node5&#45;&gt;Node7</title>
<path fill="none" stroke="#191970" d="M193,-46.1575C193,-37.155 193,-26.9199 193,-19.6427"/>
<polygon fill="#191970" stroke="#191970" points="189.5001,-46.2455 193,-56.2455 196.5001,-46.2456 189.5001,-46.2455"/>
</g>
<!-- Node8 -->
<g id="node6" class="node">
<title>Node8</title>
<g id="a_node6"><a xlink:href="Threading_8cpp.html" target="_top" xlink:title="src/Threading.cpp">
<polygon fill="#ffffff" stroke="#000000" points="248.5,-.5 248.5,-19.5 343.5,-19.5 343.5,-.5 248.5,-.5"/>
<text text-anchor="middle" x="296" y="-7.5" font-family="Helvetica,sans-Serif" font-size="10.00" fill="#000000">src/Threading.cpp</text>
</a>
</g>
</g>
<!-- Node5&#45;&gt;Node8 -->
<g id="edge5" class="edge">
<title>Node5&#45;&gt;Node8</title>
<path fill="none" stroke="#191970" d="M219.7432,-51.46C238.175,-41.4388 262.1584,-28.3993 278.2644,-19.6427"/>
<polygon fill="#191970" stroke="#191970" points="218.0549,-48.394 210.9412,-56.2455 221.3985,-54.5438 218.0549,-48.394"/>
</g>
</g>
</svg>
