<?xml version="1.0" encoding="UTF-8" standalone="no"?>
<!DOCTYPE svg PUBLIC "-//W3C//DTD SVG 1.1//EN"
 "http://www.w3.org/Graphics/SVG/1.1/DTD/svg11.dtd">
<!-- Generated by graphviz version 2.40.1 (20161225.0304)
 -->
<!-- Title: src/FowardList.cpp Pages: 1 -->
<svg width="245pt" height="140pt"
 viewBox="0.00 0.00 244.50 140.00" xmlns="http://www.w3.org/2000/svg" xmlns:xlink="http://www.w3.org/1999/xlink">
<g id="graph0" class="graph" transform="scale(1 1) rotate(0) translate(4 136)">
<title>src/FowardList.cpp</title>
<polygon fill="#ffffff" stroke="transparent" points="-4,4 -4,-136 240.5,-136 240.5,4 -4,4"/>
<!-- Node0 -->
<g id="node1" class="node">
<title>Node0</title>
<polygon fill="#bfbfbf" stroke="#000000" points="98.5,-112.5 98.5,-131.5 198.5,-131.5 198.5,-112.5 98.5,-112.5"/>
<text text-anchor="middle" x="148.5" y="-119.5" font-family="Helvetica,sans-Serif" font-size="10.00" fill="#000000">src/FowardList.cpp</text>
</g>
<!-- Node1 -->
<g id="node2" class="node">
<title>Node1</title>
<g id="a_node2"><a xlink:href="FowardList_8h.html" target="_top" xlink:title="FowardList.h">
<polygon fill="#ffffff" stroke="#000000" points="33,-56.5 33,-75.5 106,-75.5 106,-56.5 33,-56.5"/>
<text text-anchor="middle" x="69.5" y="-63.5" font-family="Helvetica,sans-Serif" font-size="10.00" fill="#000000">FowardList.h</text>
</a>
</g>
</g>
<!-- Node0&#45;&gt;Node1 -->
<g id="edge1" class="edge">
<title>Node0&#45;&gt;Node1</title>
<path fill="none" stroke="#191970" d="M134.7393,-112.2455C122.8448,-103.814 105.435,-91.4729 91.5915,-81.6598"/>
<polygon fill="#191970" stroke="#191970" points="93.2854,-78.5704 83.1031,-75.6427 89.2372,-84.2811 93.2854,-78.5704"/>
</g>
<!-- Node4 -->
<g id="node5" class="node">
<title>Node4</title>
<polygon fill="#ffffff" stroke="#bfbfbf" points="124.5,-56.5 124.5,-75.5 172.5,-75.5 172.5,-56.5 124.5,-56.5"/>
<text text-anchor="middle" x="148.5" y="-63.5" font-family="Helvetica,sans-Serif" font-size="10.00" fill="#000000">stdlib.h</text>
</g>
<!-- Node0&#45;&gt;Node4 -->
<g id="edge4" class="edge">
<title>Node0&#45;&gt;Node4</title>
<path fill="none" stroke="#191970" d="M148.5,-112.2455C148.5,-104.9382 148.5,-94.6944 148.5,-85.7046"/>
<polygon fill="#191970" stroke="#191970" points="152.0001,-85.6426 148.5,-75.6427 145.0001,-85.6427 152.0001,-85.6426"/>
</g>
<!-- Node5 -->
<g id="node6" class="node">
<title>Node5</title>
<polygon fill="#ffffff" stroke="#bfbfbf" points="190.5,-56.5 190.5,-75.5 236.5,-75.5 236.5,-56.5 190.5,-56.5"/>
<text text-anchor="middle" x="213.5" y="-63.5" font-family="Helvetica,sans-Serif" font-size="10.00" fill="#000000">stdio.h</text>
</g>
<!-- Node0&#45;&gt;Node5 -->
<g id="edge5" class="edge">
<title>Node0&#45;&gt;Node5</title>
<path fill="none" stroke="#191970" d="M159.8221,-112.2455C169.4223,-103.9746 183.3892,-91.9416 194.6695,-82.2232"/>
<polygon fill="#191970" stroke="#191970" points="197.016,-84.8214 202.3076,-75.6427 192.447,-79.5182 197.016,-84.8214"/>
</g>
<!-- Node2 -->
<g id="node3" class="node">
<title>Node2</title>
<polygon fill="#ffffff" stroke="#bfbfbf" points="0,-.5 0,-19.5 57,-19.5 57,-.5 0,-.5"/>
<text text-anchor="middle" x="28.5" y="-7.5" font-family="Helvetica,sans-Serif" font-size="10.00" fill="#000000">pthread.h</text>
</g>
<!-- Node1&#45;&gt;Node2 -->
<g id="edge2" class="edge">
<title>Node1&#45;&gt;Node2</title>
<path fill="none" stroke="#191970" d="M62.3583,-56.2455C56.6556,-48.4564 48.51,-37.3308 41.6375,-27.9439"/>
<polygon fill="#191970" stroke="#191970" points="44.2913,-25.6437 35.5598,-19.6427 38.6432,-29.7789 44.2913,-25.6437"/>
</g>
<!-- Node3 -->
<g id="node4" class="node">
<title>Node3</title>
<polygon fill="#ffffff" stroke="#bfbfbf" points="75,-.5 75,-19.5 148,-19.5 148,-.5 75,-.5"/>
<text text-anchor="middle" x="111.5" y="-7.5" font-family="Helvetica,sans-Serif" font-size="10.00" fill="#000000">semaphore.h</text>
</g>
<!-- Node1&#45;&gt;Node3 -->
<g id="edge3" class="edge">
<title>Node1&#45;&gt;Node3</title>
<path fill="none" stroke="#191970" d="M76.8158,-56.2455C82.7179,-48.3761 91.1742,-37.101 98.2594,-27.6542"/>
<polygon fill="#191970" stroke="#191970" points="101.068,-29.7427 104.268,-19.6427 95.4679,-25.5427 101.068,-29.7427"/>
</g>
</g>
</svg>
