<?xml version="1.0" encoding="UTF-8" standalone="no"?>
<!DOCTYPE svg PUBLIC "-//W3C//DTD SVG 1.1//EN"
 "http://www.w3.org/Graphics/SVG/1.1/DTD/svg11.dtd">
<!-- Generated by graphviz version 2.40.1 (20161225.0304)
 -->
<!-- Title: include/GameObject.h Pages: 1 -->
<svg width="459pt" height="196pt"
 viewBox="0.00 0.00 459.07 196.00" xmlns="http://www.w3.org/2000/svg" xmlns:xlink="http://www.w3.org/1999/xlink">
<g id="graph0" class="graph" transform="scale(1 1) rotate(0) translate(4 192)">
<title>include/GameObject.h</title>
<polygon fill="#ffffff" stroke="transparent" points="-4,4 -4,-192 455.0701,-192 455.0701,4 -4,4"/>
<!-- Node0 -->
<g id="node1" class="node">
<title>Node0</title>
<polygon fill="#bfbfbf" stroke="#000000" points="147.5701,-168.5 147.5701,-187.5 260.5701,-187.5 260.5701,-168.5 147.5701,-168.5"/>
<text text-anchor="middle" x="204.0701" y="-175.5" font-family="Helvetica,sans-Serif" font-size="10.00" fill="#000000">include/GameObject.h</text>
</g>
<!-- Node1 -->
<g id="node2" class="node">
<title>Node1</title>
<g id="a_node2"><a xlink:href="SDL__include_8h.html" target="_top" xlink:title="SDL_include.h">
<polygon fill="#ffffff" stroke="#000000" points="273.0701,-.5 273.0701,-19.5 353.0701,-19.5 353.0701,-.5 273.0701,-.5"/>
<text text-anchor="middle" x="313.0701" y="-7.5" font-family="Helvetica,sans-Serif" font-size="10.00" fill="#000000">SDL_include.h</text>
</a>
</g>
</g>
<!-- Node0&#45;&gt;Node1 -->
<g id="edge1" class="edge">
<title>Node0&#45;&gt;Node1</title>
<path fill="none" stroke="#191970" d="M147.2865,-172.7366C94.5908,-166.538 21.7119,-154.16 4.0701,-132 -1.4662,-125.0458 -1.1378,-119.2035 4.0701,-112 34.7569,-69.555 183.1015,-35.0846 262.5618,-19.3046"/>
<polygon fill="#191970" stroke="#191970" points="263.6905,-22.6501 272.8312,-17.2931 262.3449,-15.7806 263.6905,-22.6501"/>
</g>
<!-- Node2 -->
<g id="node3" class="node">
<title>Node2</title>
<polygon fill="#ffffff" stroke="#bfbfbf" points="13.0701,-112.5 13.0701,-131.5 57.0701,-131.5 57.0701,-112.5 13.0701,-112.5"/>
<text text-anchor="middle" x="35.0701" y="-119.5" font-family="Helvetica,sans-Serif" font-size="10.00" fill="#000000">vector</text>
</g>
<!-- Node0&#45;&gt;Node2 -->
<g id="edge2" class="edge">
<title>Node0&#45;&gt;Node2</title>
<path fill="none" stroke="#191970" d="M175.018,-168.3733C144.8721,-158.3841 97.869,-142.8091 66.7764,-132.5062"/>
<polygon fill="#191970" stroke="#191970" points="67.8754,-129.1833 57.282,-129.3601 65.6735,-135.828 67.8754,-129.1833"/>
</g>
<!-- Node3 -->
<g id="node4" class="node">
<title>Node3</title>
<polygon fill="#ffffff" stroke="#bfbfbf" points="75.0701,-112.5 75.0701,-131.5 127.0701,-131.5 127.0701,-112.5 75.0701,-112.5"/>
<text text-anchor="middle" x="101.0701" y="-119.5" font-family="Helvetica,sans-Serif" font-size="10.00" fill="#000000">memory</text>
</g>
<!-- Node0&#45;&gt;Node3 -->
<g id="edge3" class="edge">
<title>Node0&#45;&gt;Node3</title>
<path fill="none" stroke="#191970" d="M186.1289,-168.2455C170.0302,-159.4928 146.1822,-146.527 127.8311,-136.5496"/>
<polygon fill="#191970" stroke="#191970" points="129.2631,-133.3444 118.8058,-131.6427 125.9194,-139.4942 129.2631,-133.3444"/>
</g>
<!-- Node4 -->
<g id="node5" class="node">
<title>Node4</title>
<polygon fill="#ffffff" stroke="#bfbfbf" points="145.5701,-112.5 145.5701,-131.5 186.5701,-131.5 186.5701,-112.5 145.5701,-112.5"/>
<text text-anchor="middle" x="166.0701" y="-119.5" font-family="Helvetica,sans-Serif" font-size="10.00" fill="#000000">string</text>
</g>
<!-- Node0&#45;&gt;Node4 -->
<g id="edge4" class="edge">
<title>Node0&#45;&gt;Node4</title>
<path fill="none" stroke="#191970" d="M197.4511,-168.2455C192.1656,-160.4564 184.616,-149.3308 178.2464,-139.9439"/>
<polygon fill="#191970" stroke="#191970" points="181.1246,-137.9522 172.6134,-131.6427 175.3323,-141.8827 181.1246,-137.9522"/>
</g>
<!-- Node5 -->
<g id="node6" class="node">
<title>Node5</title>
<g id="a_node6"><a xlink:href="Component_8h.html" target="_top" xlink:title="Component.h">
<polygon fill="#ffffff" stroke="#000000" points="204.5701,-112.5 204.5701,-131.5 279.5701,-131.5 279.5701,-112.5 204.5701,-112.5"/>
<text text-anchor="middle" x="242.0701" y="-119.5" font-family="Helvetica,sans-Serif" font-size="10.00" fill="#000000">Component.h</text>
</a>
</g>
</g>
<!-- Node0&#45;&gt;Node5 -->
<g id="edge5" class="edge">
<title>Node0&#45;&gt;Node5</title>
<path fill="none" stroke="#191970" d="M205.4224,-168.2455C209.2428,-160.3761 216.5418,-149.101 223.7679,-139.6542"/>
<polygon fill="#191970" stroke="#191970" points="226.6889,-141.6097 230.2818,-131.6427 221.2575,-137.1937 226.6889,-141.6097"/>
</g>
<!-- Node6 -->
<g id="node7" class="node">
<title>Node6</title>
<g id="a_node7"><a xlink:href="ComponentType_8h.html" target="_top" xlink:title="ComponentType.h">
<polygon fill="#ffffff" stroke="#000000" points="187.5701,-56.5 187.5701,-75.5 284.5701,-75.5 284.5701,-56.5 187.5701,-56.5"/>
<text text-anchor="middle" x="236.0701" y="-63.5" font-family="Helvetica,sans-Serif" font-size="10.00" fill="#000000">ComponentType.h</text>
</a>
</g>
</g>
<!-- Node0&#45;&gt;Node6 -->
<g id="edge8" class="edge">
<title>Node0&#45;&gt;Node6</title>
<path fill="none" stroke="#191970" d="M238.7929,-168.4044C256.8753,-161.4487 277.391,-150.0236 288.0701,-132 299.0614,-113.4496 280.0242,-94.3177 261.9707,-81.4602"/>
<polygon fill="#191970" stroke="#191970" points="263.5823,-78.3276 253.323,-75.6824 259.6935,-84.1481 263.5823,-78.3276"/>
</g>
<!-- Node7 -->
<g id="node8" class="node">
<title>Node7</title>
<g id="a_node8"><a xlink:href="Rect_8h.html" target="_top" xlink:title="Rect.h">
<polygon fill="#ffffff" stroke="#000000" points="342.0701,-112.5 342.0701,-131.5 388.0701,-131.5 388.0701,-112.5 342.0701,-112.5"/>
<text text-anchor="middle" x="365.0701" y="-119.5" font-family="Helvetica,sans-Serif" font-size="10.00" fill="#000000">Rect.h</text>
</a>
</g>
</g>
<!-- Node0&#45;&gt;Node7 -->
<g id="edge9" class="edge">
<title>Node0&#45;&gt;Node7</title>
<path fill="none" stroke="#191970" d="M231.747,-168.3733C259.6954,-158.6521 302.8528,-143.6408 332.4485,-133.3467"/>
<polygon fill="#191970" stroke="#191970" points="333.6287,-136.6419 341.9238,-130.0509 331.329,-130.0304 333.6287,-136.6419"/>
</g>
<!-- Node5&#45;&gt;Node0 -->
<g id="edge7" class="edge">
<title>Node5&#45;&gt;Node0</title>
<path fill="none" stroke="#191970" d="M240.772,-131.6427C236.9847,-139.4797 229.7019,-150.7472 222.4752,-160.2112"/>
<polygon fill="#191970" stroke="#191970" points="219.5391,-158.2749 215.9561,-168.2455 224.9748,-162.6855 219.5391,-158.2749"/>
</g>
<!-- Node5&#45;&gt;Node6 -->
<g id="edge6" class="edge">
<title>Node5&#45;&gt;Node6</title>
<path fill="none" stroke="#191970" d="M241.025,-112.2455C240.2421,-104.9382 239.1445,-94.6944 238.1814,-85.7046"/>
<polygon fill="#191970" stroke="#191970" points="241.6488,-85.2129 237.1033,-75.6427 234.6886,-85.9587 241.6488,-85.2129"/>
</g>
<!-- Node7&#45;&gt;Node1 -->
<g id="edge10" class="edge">
<title>Node7&#45;&gt;Node1</title>
<path fill="none" stroke="#191970" d="M356.9882,-112.3331C349.854,-103.3911 339.6004,-89.4836 333.0701,-76 325.8943,-61.1835 320.6572,-43.2431 317.3463,-29.8088"/>
<polygon fill="#191970" stroke="#191970" points="320.6832,-28.7043 315.0179,-19.7514 313.8636,-30.2832 320.6832,-28.7043"/>
</g>
<!-- Node8 -->
<g id="node9" class="node">
<title>Node8</title>
<g id="a_node9"><a xlink:href="Vec2_8h.html" target="_top" xlink:title="Vec2.h">
<polygon fill="#ffffff" stroke="#000000" points="341.5701,-56.5 341.5701,-75.5 388.5701,-75.5 388.5701,-56.5 341.5701,-56.5"/>
<text text-anchor="middle" x="365.0701" y="-63.5" font-family="Helvetica,sans-Serif" font-size="10.00" fill="#000000">Vec2.h</text>
</a>
</g>
</g>
<!-- Node7&#45;&gt;Node8 -->
<g id="edge11" class="edge">
<title>Node7&#45;&gt;Node8</title>
<path fill="none" stroke="#191970" d="M359.8033,-112.2455C358.3923,-104.9382 357.9881,-94.6944 358.5906,-85.7046"/>
<polygon fill="#191970" stroke="#191970" points="362.0812,-85.9945 359.825,-75.6427 355.1333,-85.1421 362.0812,-85.9945"/>
</g>
<!-- Node9 -->
<g id="node10" class="node">
<title>Node9</title>
<polygon fill="#ffffff" stroke="#bfbfbf" points="407.0701,-56.5 407.0701,-75.5 451.0701,-75.5 451.0701,-56.5 407.0701,-56.5"/>
<text text-anchor="middle" x="429.0701" y="-63.5" font-family="Helvetica,sans-Serif" font-size="10.00" fill="#000000">cmath</text>
</g>
<!-- Node7&#45;&gt;Node9 -->
<g id="edge14" class="edge">
<title>Node7&#45;&gt;Node9</title>
<path fill="none" stroke="#191970" d="M376.2181,-112.2455C385.5788,-104.0549 399.1559,-92.1749 410.2051,-82.5069"/>
<polygon fill="#191970" stroke="#191970" points="412.8289,-84.8618 418.0499,-75.6427 408.2194,-79.5937 412.8289,-84.8618"/>
</g>
<!-- Node8&#45;&gt;Node1 -->
<g id="edge12" class="edge">
<title>Node8&#45;&gt;Node1</title>
<path fill="none" stroke="#191970" d="M356.0124,-56.2455C348.556,-48.2155 337.8067,-36.6394 328.9284,-27.0781"/>
<polygon fill="#191970" stroke="#191970" points="331.3934,-24.589 322.0241,-19.6427 326.2638,-29.3522 331.3934,-24.589"/>
</g>
<!-- Node8&#45;&gt;Node7 -->
<g id="edge13" class="edge">
<title>Node8&#45;&gt;Node7</title>
<path fill="none" stroke="#191970" d="M370.3153,-75.6427C371.7366,-82.9199 372.1511,-93.155 371.5588,-102.1575"/>
<polygon fill="#191970" stroke="#191970" points="368.0648,-101.8972 370.337,-112.2455 375.0141,-102.739 368.0648,-101.8972"/>
</g>
</g>
</svg>
