<?xml version="1.0" encoding="UTF-8" standalone="no"?>
<!DOCTYPE svg PUBLIC "-//W3C//DTD SVG 1.1//EN"
 "http://www.w3.org/Graphics/SVG/1.1/DTD/svg11.dtd">
<!-- Generated by graphviz version 2.38.0 (20140413.2041)
 -->
<!-- Title: include/GameObject.h Pages: 1 -->
<svg width="1459pt" height="252pt"
 viewBox="0.00 0.00 1459.00 252.00" xmlns="http://www.w3.org/2000/svg" xmlns:xlink="http://www.w3.org/1999/xlink">
<g id="graph0" class="graph" transform="scale(1 1) rotate(0) translate(4 248)">
<title>include/GameObject.h</title>
<polygon fill="white" stroke="none" points="-4,4 -4,-248 1455,-248 1455,4 -4,4"/>
<!-- Node10 -->
<g id="node1" class="node"><title>Node10</title>
<polygon fill="#bfbfbf" stroke="black" points="273,-224.5 273,-243.5 386,-243.5 386,-224.5 273,-224.5"/>
<text text-anchor="middle" x="329.5" y="-231.5" font-family="Helvetica,sans-Serif" font-size="10.00">include/GameObject.h</text>
</g>
<!-- Node11 -->
<g id="node2" class="node"><title>Node11</title>
<g id="a_node2"><a xlink:href="Animation_8h.html" target="_top" xlink:title="include/Animation.h">
<polygon fill="white" stroke="black" points="318.5,-168.5 318.5,-187.5 420.5,-187.5 420.5,-168.5 318.5,-168.5"/>
<text text-anchor="middle" x="369.5" y="-175.5" font-family="Helvetica,sans-Serif" font-size="10.00">include/Animation.h</text>
</a>
</g>
</g>
<!-- Node10&#45;&gt;Node11 -->
<g id="edge1" class="edge"><title>Node10&#45;&gt;Node11</title>
<path fill="none" stroke="midnightblue" d="M342.2,-215.855C349.126,-206.505 357.406,-195.327 363.018,-187.751"/>
<polygon fill="midnightblue" stroke="midnightblue" points="339.245,-213.964 336.105,-224.083 344.87,-218.131 339.245,-213.964"/>
</g>
<!-- Node13 -->
<g id="node4" class="node"><title>Node13</title>
<g id="a_node4"><a xlink:href="Component_8h.html" target="_top" xlink:title="include/Component.h">
<polygon fill="white" stroke="black" points="0,-168.5 0,-187.5 109,-187.5 109,-168.5 0,-168.5"/>
<text text-anchor="middle" x="54.5" y="-175.5" font-family="Helvetica,sans-Serif" font-size="10.00">include/Component.h</text>
</a>
</g>
</g>
<!-- Node10&#45;&gt;Node13 -->
<g id="edge3" class="edge"><title>Node10&#45;&gt;Node13</title>
<path fill="none" stroke="midnightblue" d="M270.75,-222.537C216.946,-212.332 138.993,-196.999 92.7907,-187.516"/>
<polygon fill="midnightblue" stroke="midnightblue" points="270.361,-226.025 280.837,-224.444 271.661,-219.147 270.361,-226.025"/>
</g>
<!-- Node17 -->
<g id="node8" class="node"><title>Node17</title>
<g id="a_node8"><a xlink:href="Camera_8h.html" target="_top" xlink:title="include/Camera.h">
<polygon fill="white" stroke="black" points="479,-112.5 479,-131.5 572,-131.5 572,-112.5 479,-112.5"/>
<text text-anchor="middle" x="525.5" y="-119.5" font-family="Helvetica,sans-Serif" font-size="10.00">include/Camera.h</text>
</a>
</g>
</g>
<!-- Node10&#45;&gt;Node17 -->
<g id="edge8" class="edge"><title>Node10&#45;&gt;Node17</title>
<path fill="none" stroke="midnightblue" d="M380.684,-221.793C406.519,-214.663 437.579,-203.751 462.5,-188 486.943,-172.551 508.795,-145.731 519.154,-131.867"/>
<polygon fill="midnightblue" stroke="midnightblue" points="379.471,-218.494 370.698,-224.435 381.261,-225.261 379.471,-218.494"/>
</g>
<!-- Node19 -->
<g id="node10" class="node"><title>Node19</title>
<g id="a_node10"><a xlink:href="GameObject_8cpp.html" target="_top" xlink:title="src/GameObject.cpp">
<polygon fill="white" stroke="black" points="392,-56.5 392,-75.5 499,-75.5 499,-56.5 392,-56.5"/>
<text text-anchor="middle" x="445.5" y="-63.5" font-family="Helvetica,sans-Serif" font-size="10.00">src/GameObject.cpp</text>
</a>
</g>
</g>
<!-- Node10&#45;&gt;Node19 -->
<g id="edge35" class="edge"><title>Node10&#45;&gt;Node19</title>
<path fill="none" stroke="midnightblue" d="M380.54,-221.179C398.713,-214.427 417.603,-203.989 429.5,-188 455.305,-153.32 450.143,-97.0751 446.982,-75.6565"/>
<polygon fill="midnightblue" stroke="midnightblue" points="379.196,-217.939 370.856,-224.473 381.45,-224.566 379.196,-217.939"/>
</g>
<!-- Node24 -->
<g id="node15" class="node"><title>Node24</title>
<g id="a_node15"><a xlink:href="TileMap_8h.html" target="_top" xlink:title="include/TileMap.h">
<polygon fill="white" stroke="black" points="160,-112.5 160,-131.5 253,-131.5 253,-112.5 160,-112.5"/>
<text text-anchor="middle" x="206.5" y="-119.5" font-family="Helvetica,sans-Serif" font-size="10.00">include/TileMap.h</text>
</a>
</g>
</g>
<!-- Node10&#45;&gt;Node24 -->
<g id="edge17" class="edge"><title>Node10&#45;&gt;Node24</title>
<path fill="none" stroke="midnightblue" d="M316.184,-216.385C304.785,-202.661 287.557,-183.059 270.5,-168 254.514,-153.886 234.065,-140.159 220.639,-131.652"/>
<polygon fill="midnightblue" stroke="midnightblue" points="313.735,-218.919 322.773,-224.448 319.155,-214.49 313.735,-218.919"/>
</g>
<!-- Node25 -->
<g id="node16" class="node"><title>Node25</title>
<g id="a_node16"><a xlink:href="NearestGOFinder_8h.html" target="_top" xlink:title="include/NearestGOFinder.h">
<polygon fill="white" stroke="black" points="127,-168.5 127,-187.5 262,-187.5 262,-168.5 127,-168.5"/>
<text text-anchor="middle" x="194.5" y="-175.5" font-family="Helvetica,sans-Serif" font-size="10.00">include/NearestGOFinder.h</text>
</a>
</g>
</g>
<!-- Node10&#45;&gt;Node25 -->
<g id="edge21" class="edge"><title>Node10&#45;&gt;Node25</title>
<path fill="none" stroke="midnightblue" d="M298.594,-220.638C273.26,-210.504 238.069,-196.427 215.791,-187.516"/>
<polygon fill="midnightblue" stroke="midnightblue" points="297.524,-223.979 308.109,-224.444 300.124,-217.48 297.524,-223.979"/>
</g>
<!-- Node26 -->
<g id="node17" class="node"><title>Node26</title>
<g id="a_node17"><a xlink:href="State_8h.html" target="_top" xlink:title="include/State.h">
<polygon fill="white" stroke="black" points="559.5,-168.5 559.5,-187.5 641.5,-187.5 641.5,-168.5 559.5,-168.5"/>
<text text-anchor="middle" x="600.5" y="-175.5" font-family="Helvetica,sans-Serif" font-size="10.00">include/State.h</text>
</a>
</g>
</g>
<!-- Node10&#45;&gt;Node26 -->
<g id="edge23" class="edge"><title>Node10&#45;&gt;Node26</title>
<path fill="none" stroke="midnightblue" d="M382.418,-222.455C434.117,-212.154 511.744,-196.686 559.093,-187.251"/>
<polygon fill="midnightblue" stroke="midnightblue" points="381.564,-219.057 372.441,-224.444 382.932,-225.922 381.564,-219.057"/>
</g>
<!-- Node12 -->
<g id="node3" class="node"><title>Node12</title>
<g id="a_node3"><a xlink:href="Animation_8cpp.html" target="_top" xlink:title="src/Animation.cpp">
<polygon fill="white" stroke="black" points="279,-56.5 279,-75.5 374,-75.5 374,-56.5 279,-56.5"/>
<text text-anchor="middle" x="326.5" y="-63.5" font-family="Helvetica,sans-Serif" font-size="10.00">src/Animation.cpp</text>
</a>
</g>
</g>
<!-- Node11&#45;&gt;Node12 -->
<g id="edge2" class="edge"><title>Node11&#45;&gt;Node12</title>
<path fill="none" stroke="midnightblue" d="M362.463,-158.998C353.081,-134.997 336.847,-93.4683 329.858,-75.5914"/>
<polygon fill="midnightblue" stroke="midnightblue" points="359.225,-160.329 366.126,-168.368 365.745,-157.78 359.225,-160.329"/>
</g>
<!-- Node13&#45;&gt;Node10 -->
<g id="edge4" class="edge"><title>Node13&#45;&gt;Node10</title>
<path fill="none" stroke="midnightblue" d="M113.023,-189.42C166.759,-199.611 244.722,-214.944 291.014,-224.444"/>
<polygon fill="midnightblue" stroke="midnightblue" points="113.427,-185.934 102.951,-187.516 112.127,-192.812 113.427,-185.934"/>
</g>
<!-- Node14 -->
<g id="node5" class="node"><title>Node14</title>
<g id="a_node5"><a xlink:href="DragAndDrop_8h.html" target="_top" xlink:title="include/DragAndDrop.h">
<polygon fill="white" stroke="black" points="0.5,-56.5 0.5,-75.5 118.5,-75.5 118.5,-56.5 0.5,-56.5"/>
<text text-anchor="middle" x="59.5" y="-63.5" font-family="Helvetica,sans-Serif" font-size="10.00">include/DragAndDrop.h</text>
</a>
</g>
</g>
<!-- Node13&#45;&gt;Node14 -->
<g id="edge5" class="edge"><title>Node13&#45;&gt;Node14</title>
<path fill="none" stroke="midnightblue" d="M41.8005,-159.896C33.7275,-146.91 25.6353,-128.529 30.5,-112 34.6461,-97.9125 44.7211,-84.0728 51.8271,-75.5413"/>
<polygon fill="midnightblue" stroke="midnightblue" points="38.9837,-161.979 47.4899,-168.295 44.7792,-158.053 38.9837,-161.979"/>
</g>
<!-- Node16 -->
<g id="node7" class="node"><title>Node16</title>
<g id="a_node7"><a xlink:href="Component_8cpp.html" target="_top" xlink:title="src/Component.cpp">
<polygon fill="white" stroke="black" points="39.5,-112.5 39.5,-131.5 141.5,-131.5 141.5,-112.5 39.5,-112.5"/>
<text text-anchor="middle" x="90.5" y="-119.5" font-family="Helvetica,sans-Serif" font-size="10.00">src/Component.cpp</text>
</a>
</g>
</g>
<!-- Node13&#45;&gt;Node16 -->
<g id="edge7" class="edge"><title>Node13&#45;&gt;Node16</title>
<path fill="none" stroke="midnightblue" d="M66.1229,-159.566C72.3168,-150.275 79.6677,-139.248 84.6659,-131.751"/>
<polygon fill="midnightblue" stroke="midnightblue" points="63.0795,-157.821 60.4447,-168.083 68.9039,-161.704 63.0795,-157.821"/>
</g>
<!-- Node15 -->
<g id="node6" class="node"><title>Node15</title>
<g id="a_node6"><a xlink:href="DragAndDrop_8cpp.html" target="_top" xlink:title="src/DragAndDrop.cpp">
<polygon fill="white" stroke="black" points="91,-0.5 91,-19.5 202,-19.5 202,-0.5 91,-0.5"/>
<text text-anchor="middle" x="146.5" y="-7.5" font-family="Helvetica,sans-Serif" font-size="10.00">src/DragAndDrop.cpp</text>
</a>
</g>
</g>
<!-- Node14&#45;&gt;Node15 -->
<g id="edge6" class="edge"><title>Node14&#45;&gt;Node15</title>
<path fill="none" stroke="midnightblue" d="M82.2158,-50.9005C98.1689,-40.9986 118.997,-28.0705 132.557,-19.6545"/>
<polygon fill="midnightblue" stroke="midnightblue" points="80.1287,-48.0765 73.4781,-56.324 83.8203,-54.024 80.1287,-48.0765"/>
</g>
<!-- Node17&#45;&gt;Node12 -->
<g id="edge9" class="edge"><title>Node17&#45;&gt;Node12</title>
<path fill="none" stroke="midnightblue" d="M483.852,-109.699C446.294,-99.507 391.886,-84.7429 357.885,-75.5164"/>
<polygon fill="midnightblue" stroke="midnightblue" points="483.4,-113.202 493.968,-112.444 485.233,-106.447 483.4,-113.202"/>
</g>
<!-- Node17&#45;&gt;Node15 -->
<g id="edge11" class="edge"><title>Node17&#45;&gt;Node15</title>
<path fill="none" stroke="midnightblue" d="M525.6,-102.169C524.594,-87.3409 520.635,-67.3436 507.5,-56 462.925,-17.5061 291.702,-11.2159 202.018,-10.6377"/>
<polygon fill="midnightblue" stroke="midnightblue" points="522.104,-102.378 525.896,-112.271 529.101,-102.173 522.104,-102.378"/>
</g>
<!-- Node18 -->
<g id="node9" class="node"><title>Node18</title>
<g id="a_node9"><a xlink:href="Camera_8cpp.html" target="_top" xlink:title="src/Camera.cpp">
<polygon fill="white" stroke="black" points="843.5,-56.5 843.5,-75.5 929.5,-75.5 929.5,-56.5 843.5,-56.5"/>
<text text-anchor="middle" x="886.5" y="-63.5" font-family="Helvetica,sans-Serif" font-size="10.00">src/Camera.cpp</text>
</a>
</g>
</g>
<!-- Node17&#45;&gt;Node18 -->
<g id="edge10" class="edge"><title>Node17&#45;&gt;Node18</title>
<path fill="none" stroke="midnightblue" d="M582.123,-113.217C644.143,-104.585 746.512,-90.0186 834.5,-76 837.395,-75.5387 840.379,-75.0521 843.385,-74.5537"/>
<polygon fill="midnightblue" stroke="midnightblue" points="581.573,-109.76 572.15,-114.603 582.536,-116.693 581.573,-109.76"/>
</g>
<!-- Node17&#45;&gt;Node19 -->
<g id="edge12" class="edge"><title>Node17&#45;&gt;Node19</title>
<path fill="none" stroke="midnightblue" d="M504.199,-106.622C489.585,-96.7574 470.673,-83.9919 458.321,-75.6545"/>
<polygon fill="midnightblue" stroke="midnightblue" points="502.4,-109.63 512.647,-112.324 506.316,-103.828 502.4,-109.63"/>
</g>
<!-- Node20 -->
<g id="node11" class="node"><title>Node20</title>
<g id="a_node11"><a xlink:href="Sprite_8cpp.html" target="_top" xlink:title="src/Sprite.cpp">
<polygon fill="white" stroke="black" points="649,-56.5 649,-75.5 726,-75.5 726,-56.5 649,-56.5"/>
<text text-anchor="middle" x="687.5" y="-63.5" font-family="Helvetica,sans-Serif" font-size="10.00">src/Sprite.cpp</text>
</a>
</g>
</g>
<!-- Node17&#45;&gt;Node20 -->
<g id="edge13" class="edge"><title>Node17&#45;&gt;Node20</title>
<path fill="none" stroke="midnightblue" d="M560.984,-109.172C591.488,-99.0039 634.745,-84.5852 661.951,-75.5164"/>
<polygon fill="midnightblue" stroke="midnightblue" points="559.549,-105.961 551.169,-112.444 561.763,-112.602 559.549,-105.961"/>
</g>
<!-- Node21 -->
<g id="node12" class="node"><title>Node21</title>
<g id="a_node12"><a xlink:href="State_8cpp.html" target="_top" xlink:title="src/State.cpp">
<polygon fill="white" stroke="black" points="556,-56.5 556,-75.5 631,-75.5 631,-56.5 556,-56.5"/>
<text text-anchor="middle" x="593.5" y="-63.5" font-family="Helvetica,sans-Serif" font-size="10.00">src/State.cpp</text>
</a>
</g>
</g>
<!-- Node17&#45;&gt;Node21 -->
<g id="edge14" class="edge"><title>Node17&#45;&gt;Node21</title>
<path fill="none" stroke="midnightblue" d="M544.262,-106.101C556.5,-96.3824 572.059,-84.0269 582.376,-75.8339"/>
<polygon fill="midnightblue" stroke="midnightblue" points="542.08,-103.364 536.425,-112.324 546.433,-108.846 542.08,-103.364"/>
</g>
<!-- Node22 -->
<g id="node13" class="node"><title>Node22</title>
<g id="a_node13"><a xlink:href="TileMap_8cpp.html" target="_top" xlink:title="src/TileMap.cpp">
<polygon fill="white" stroke="black" points="174.5,-56.5 174.5,-75.5 260.5,-75.5 260.5,-56.5 174.5,-56.5"/>
<text text-anchor="middle" x="217.5" y="-63.5" font-family="Helvetica,sans-Serif" font-size="10.00">src/TileMap.cpp</text>
</a>
</g>
</g>
<!-- Node17&#45;&gt;Node22 -->
<g id="edge15" class="edge"><title>Node17&#45;&gt;Node22</title>
<path fill="none" stroke="midnightblue" d="M468.64,-111.031C408.541,-100.494 315.086,-84.1093 260.732,-74.5796"/>
<polygon fill="midnightblue" stroke="midnightblue" points="468.267,-114.519 478.721,-112.799 469.476,-107.624 468.267,-114.519"/>
</g>
<!-- Node23 -->
<g id="node14" class="node"><title>Node23</title>
<g id="a_node14"><a xlink:href="Tileset_8cpp.html" target="_top" xlink:title="src/Tileset.cpp">
<polygon fill="white" stroke="black" points="744,-56.5 744,-75.5 825,-75.5 825,-56.5 744,-56.5"/>
<text text-anchor="middle" x="784.5" y="-63.5" font-family="Helvetica,sans-Serif" font-size="10.00">src/Tileset.cpp</text>
</a>
</g>
</g>
<!-- Node17&#45;&gt;Node23 -->
<g id="edge16" class="edge"><title>Node17&#45;&gt;Node23</title>
<path fill="none" stroke="midnightblue" d="M576.602,-110.346C625.548,-100.141 698.454,-84.94 743.653,-75.5164"/>
<polygon fill="midnightblue" stroke="midnightblue" points="575.614,-106.976 566.539,-112.444 577.043,-113.829 575.614,-106.976"/>
</g>
<!-- Node24&#45;&gt;Node14 -->
<g id="edge18" class="edge"><title>Node24&#45;&gt;Node14</title>
<path fill="none" stroke="midnightblue" d="M173.577,-108.906C145.94,-98.7536 107.156,-84.5063 82.6836,-75.5164"/>
<polygon fill="midnightblue" stroke="midnightblue" points="172.614,-112.281 183.207,-112.444 175.028,-105.71 172.614,-112.281"/>
</g>
<!-- Node24&#45;&gt;Node15 -->
<g id="edge19" class="edge"><title>Node24&#45;&gt;Node15</title>
<path fill="none" stroke="midnightblue" d="M188.971,-105.393C180.828,-97.3232 171.618,-86.8944 165.5,-76 155.138,-57.5476 149.955,-32.9089 147.79,-19.9059"/>
<polygon fill="midnightblue" stroke="midnightblue" points="186.647,-108.012 196.315,-112.346 191.459,-102.929 186.647,-108.012"/>
</g>
<!-- Node24&#45;&gt;Node22 -->
<g id="edge20" class="edge"><title>Node24&#45;&gt;Node22</title>
<path fill="none" stroke="midnightblue" d="M210.35,-102.101C212.176,-93.1357 214.27,-82.8579 215.717,-75.7511"/>
<polygon fill="midnightblue" stroke="midnightblue" points="206.883,-101.586 208.316,-112.083 213.742,-102.983 206.883,-101.586"/>
</g>
<!-- Node25&#45;&gt;Node24 -->
<g id="edge22" class="edge"><title>Node25&#45;&gt;Node24</title>
<path fill="none" stroke="midnightblue" d="M198.7,-158.101C200.692,-149.136 202.976,-138.858 204.555,-131.751"/>
<polygon fill="midnightblue" stroke="midnightblue" points="195.234,-157.562 196.482,-168.083 202.068,-159.08 195.234,-157.562"/>
</g>
<!-- Node26&#45;&gt;Node21 -->
<g id="edge34" class="edge"><title>Node26&#45;&gt;Node21</title>
<path fill="none" stroke="midnightblue" d="M599.313,-158.348C597.78,-134.254 595.174,-93.3079 594.047,-75.5914"/>
<polygon fill="midnightblue" stroke="midnightblue" points="595.823,-158.611 599.951,-168.368 602.808,-158.166 595.823,-158.611"/>
</g>
<!-- Node27 -->
<g id="node18" class="node"><title>Node27</title>
<g id="a_node18"><a xlink:href="Game_8h.html" target="_top" xlink:title="include/Game.h">
<polygon fill="white" stroke="black" points="944,-112.5 944,-131.5 1029,-131.5 1029,-112.5 944,-112.5"/>
<text text-anchor="middle" x="986.5" y="-119.5" font-family="Helvetica,sans-Serif" font-size="10.00">include/Game.h</text>
</a>
</g>
</g>
<!-- Node26&#45;&gt;Node27 -->
<g id="edge24" class="edge"><title>Node26&#45;&gt;Node27</title>
<path fill="none" stroke="midnightblue" d="M651.74,-169.832C728.562,-159.085 872.188,-138.992 943.728,-128.984"/>
<polygon fill="midnightblue" stroke="midnightblue" points="651.227,-166.369 641.809,-171.221 652.197,-173.302 651.227,-166.369"/>
</g>
<!-- Node27&#45;&gt;Node18 -->
<g id="edge27" class="edge"><title>Node27&#45;&gt;Node18</title>
<path fill="none" stroke="midnightblue" d="M961.412,-107.453C942.951,-97.4835 918.403,-84.2279 902.527,-75.6545"/>
<polygon fill="midnightblue" stroke="midnightblue" points="959.971,-110.652 970.433,-112.324 963.297,-104.493 959.971,-110.652"/>
</g>
<!-- Node27&#45;&gt;Node20 -->
<g id="edge30" class="edge"><title>Node27&#45;&gt;Node20</title>
<path fill="none" stroke="midnightblue" d="M933.76,-111.67C882.954,-102.653 803.94,-88.5512 735.5,-76 732.414,-75.4341 729.218,-74.8438 726.007,-74.248"/>
<polygon fill="midnightblue" stroke="midnightblue" points="933.389,-115.159 943.846,-113.459 934.611,-108.267 933.389,-115.159"/>
</g>
<!-- Node27&#45;&gt;Node23 -->
<g id="edge31" class="edge"><title>Node27&#45;&gt;Node23</title>
<path fill="none" stroke="midnightblue" d="M944.712,-109.829C906.573,-99.6333 851.019,-84.7823 816.358,-75.5164"/>
<polygon fill="midnightblue" stroke="midnightblue" points="943.928,-113.242 954.492,-112.444 945.736,-106.48 943.928,-113.242"/>
</g>
<!-- Node28 -->
<g id="node19" class="node"><title>Node28</title>
<g id="a_node19"><a xlink:href="Text_8h.html" target="_top" xlink:title="include/Text.h">
<polygon fill="white" stroke="black" points="947.5,-56.5 947.5,-75.5 1025.5,-75.5 1025.5,-56.5 947.5,-56.5"/>
<text text-anchor="middle" x="986.5" y="-63.5" font-family="Helvetica,sans-Serif" font-size="10.00">include/Text.h</text>
</a>
</g>
</g>
<!-- Node27&#45;&gt;Node28 -->
<g id="edge25" class="edge"><title>Node27&#45;&gt;Node28</title>
<path fill="none" stroke="midnightblue" d="M986.5,-101.805C986.5,-92.9102 986.5,-82.7798 986.5,-75.7511"/>
<polygon fill="midnightblue" stroke="midnightblue" points="983,-102.083 986.5,-112.083 990,-102.083 983,-102.083"/>
</g>
<!-- Node30 -->
<g id="node21" class="node"><title>Node30</title>
<g id="a_node21"><a xlink:href="Game_8cpp.html" target="_top" xlink:title="src/Game.cpp">
<polygon fill="white" stroke="black" points="1043.5,-56.5 1043.5,-75.5 1121.5,-75.5 1121.5,-56.5 1043.5,-56.5"/>
<text text-anchor="middle" x="1082.5" y="-63.5" font-family="Helvetica,sans-Serif" font-size="10.00">src/Game.cpp</text>
</a>
</g>
</g>
<!-- Node27&#45;&gt;Node30 -->
<g id="edge28" class="edge"><title>Node27&#45;&gt;Node30</title>
<path fill="none" stroke="midnightblue" d="M1011.07,-107.177C1028.74,-97.2407 1052.01,-84.1492 1067.11,-75.6545"/>
<polygon fill="midnightblue" stroke="midnightblue" points="1008.92,-104.371 1001.92,-112.324 1012.36,-110.472 1008.92,-104.371"/>
</g>
<!-- Node31 -->
<g id="node22" class="node"><title>Node31</title>
<g id="a_node22"><a xlink:href="Resources_8cpp.html" target="_top" xlink:title="src/Resources.cpp">
<polygon fill="white" stroke="black" points="1140,-56.5 1140,-75.5 1239,-75.5 1239,-56.5 1140,-56.5"/>
<text text-anchor="middle" x="1189.5" y="-63.5" font-family="Helvetica,sans-Serif" font-size="10.00">src/Resources.cpp</text>
</a>
</g>
</g>
<!-- Node27&#45;&gt;Node31 -->
<g id="edge29" class="edge"><title>Node27&#45;&gt;Node31</title>
<path fill="none" stroke="midnightblue" d="M1028.49,-109.829C1066.82,-99.6333 1122.65,-84.7823 1157.48,-75.5164"/>
<polygon fill="midnightblue" stroke="midnightblue" points="1027.43,-106.49 1018.67,-112.444 1029.23,-113.255 1027.43,-106.49"/>
</g>
<!-- Node32 -->
<g id="node23" class="node"><title>Node32</title>
<g id="a_node23"><a xlink:href="UIelement_8cpp.html" target="_top" xlink:title="src/UIelement.cpp">
<polygon fill="white" stroke="black" points="1257,-56.5 1257,-75.5 1354,-75.5 1354,-56.5 1257,-56.5"/>
<text text-anchor="middle" x="1305.5" y="-63.5" font-family="Helvetica,sans-Serif" font-size="10.00">src/UIelement.cpp</text>
</a>
</g>
</g>
<!-- Node27&#45;&gt;Node32 -->
<g id="edge32" class="edge"><title>Node27&#45;&gt;Node32</title>
<path fill="none" stroke="midnightblue" d="M1039.29,-112.063C1099.78,-101.824 1198.08,-85.1832 1256.8,-75.2441"/>
<polygon fill="midnightblue" stroke="midnightblue" points="1038.47,-108.653 1029.19,-113.773 1039.63,-115.555 1038.47,-108.653"/>
</g>
<!-- Node33 -->
<g id="node24" class="node"><title>Node33</title>
<g id="a_node24"><a xlink:href="UItext_8cpp.html" target="_top" xlink:title="src/UItext.cpp">
<polygon fill="white" stroke="black" points="1372,-56.5 1372,-75.5 1451,-75.5 1451,-56.5 1372,-56.5"/>
<text text-anchor="middle" x="1411.5" y="-63.5" font-family="Helvetica,sans-Serif" font-size="10.00">src/UItext.cpp</text>
</a>
</g>
</g>
<!-- Node27&#45;&gt;Node33 -->
<g id="edge33" class="edge"><title>Node27&#45;&gt;Node33</title>
<path fill="none" stroke="midnightblue" d="M1039.34,-115.814C1112.4,-108.388 1248.3,-93.6549 1363.5,-76 1366.27,-75.5761 1369.12,-75.112 1371.98,-74.625"/>
<polygon fill="midnightblue" stroke="midnightblue" points="1038.63,-112.368 1029.03,-116.856 1039.33,-119.333 1038.63,-112.368"/>
</g>
<!-- Node29 -->
<g id="node20" class="node"><title>Node29</title>
<g id="a_node20"><a xlink:href="Text_8cpp.html" target="_top" xlink:title="src/Text.cpp">
<polygon fill="white" stroke="black" points="951,-0.5 951,-19.5 1022,-19.5 1022,-0.5 951,-0.5"/>
<text text-anchor="middle" x="986.5" y="-7.5" font-family="Helvetica,sans-Serif" font-size="10.00">src/Text.cpp</text>
</a>
</g>
</g>
<!-- Node28&#45;&gt;Node29 -->
<g id="edge26" class="edge"><title>Node28&#45;&gt;Node29</title>
<path fill="none" stroke="midnightblue" d="M986.5,-45.8045C986.5,-36.9102 986.5,-26.7798 986.5,-19.7511"/>
<polygon fill="midnightblue" stroke="midnightblue" points="983,-46.083 986.5,-56.083 990,-46.083 983,-46.083"/>
</g>
</g>
</svg>
