<?xml version="1.0" encoding="UTF-8" standalone="no"?>
<!DOCTYPE svg PUBLIC "-//W3C//DTD SVG 1.1//EN"
 "http://www.w3.org/Graphics/SVG/1.1/DTD/svg11.dtd">
<!-- Generated by graphviz version 2.40.1 (20161225.0304)
 -->
<!-- Title: include/Game.h Pages: 1 -->
<svg width="726pt" height="308pt"
 viewBox="0.00 0.00 725.50 308.00" xmlns="http://www.w3.org/2000/svg" xmlns:xlink="http://www.w3.org/1999/xlink">
<g id="graph0" class="graph" transform="scale(1 1) rotate(0) translate(4 304)">
<title>include/Game.h</title>
<polygon fill="#ffffff" stroke="transparent" points="-4,4 -4,-304 721.5,-304 721.5,4 -4,4"/>
<!-- Node0 -->
<g id="node1" class="node">
<title>Node0</title>
<polygon fill="#bfbfbf" stroke="#000000" points="395,-280.5 395,-299.5 480,-299.5 480,-280.5 395,-280.5"/>
<text text-anchor="middle" x="437.5" y="-287.5" font-family="Helvetica,sans-Serif" font-size="10.00" fill="#000000">include/Game.h</text>
</g>
<!-- Node1 -->
<g id="node2" class="node">
<title>Node1</title>
<polygon fill="#ffffff" stroke="#bfbfbf" points="270,-112.5 270,-131.5 311,-131.5 311,-112.5 270,-112.5"/>
<text text-anchor="middle" x="290.5" y="-119.5" font-family="Helvetica,sans-Serif" font-size="10.00" fill="#000000">string</text>
</g>
<!-- Node0&#45;&gt;Node1 -->
<g id="edge1" class="edge">
<title>Node0&#45;&gt;Node1</title>
<path fill="none" stroke="#191970" d="M394.8806,-284.9454C367.6256,-279.4401 333.714,-267.9526 313.5,-244 289.0398,-215.0158 287.3386,-168.2376 288.6659,-141.8201"/>
<polygon fill="#191970" stroke="#191970" points="292.1777,-141.775 289.3902,-131.5535 285.1951,-141.2824 292.1777,-141.775"/>
</g>
<!-- Node2 -->
<g id="node3" class="node">
<title>Node2</title>
<polygon fill="#ffffff" stroke="#bfbfbf" points="322,-224.5 322,-243.5 363,-243.5 363,-224.5 322,-224.5"/>
<text text-anchor="middle" x="342.5" y="-231.5" font-family="Helvetica,sans-Serif" font-size="10.00" fill="#000000">stack</text>
</g>
<!-- Node0&#45;&gt;Node2 -->
<g id="edge2" class="edge">
<title>Node0&#45;&gt;Node2</title>
<path fill="none" stroke="#191970" d="M420.9523,-280.2455C406.2401,-271.5731 384.5112,-258.7645 367.6495,-248.825"/>
<polygon fill="#191970" stroke="#191970" points="369.2502,-245.7057 358.8581,-243.6427 365.6954,-251.736 369.2502,-245.7057"/>
</g>
<!-- Node3 -->
<g id="node4" class="node">
<title>Node3</title>
<g id="a_node4"><a xlink:href="State_8h.html" target="_top" xlink:title="State.h">
<polygon fill="#ffffff" stroke="#000000" points="381.5,-224.5 381.5,-243.5 429.5,-243.5 429.5,-224.5 381.5,-224.5"/>
<text text-anchor="middle" x="405.5" y="-231.5" font-family="Helvetica,sans-Serif" font-size="10.00" fill="#000000">State.h</text>
</a>
</g>
</g>
<!-- Node0&#45;&gt;Node3 -->
<g id="edge3" class="edge">
<title>Node0&#45;&gt;Node3</title>
<path fill="none" stroke="#191970" d="M431.926,-280.2455C427.5669,-272.617 421.3789,-261.7881 416.0867,-252.5267"/>
<polygon fill="#191970" stroke="#191970" points="419.0104,-250.5886 411.0101,-243.6427 412.9327,-254.0616 419.0104,-250.5886"/>
</g>
<!-- Node6 -->
<g id="node7" class="node">
<title>Node6</title>
<g id="a_node7"><a xlink:href="InputManager_8h.html" target="_top" xlink:title="InputManager.h">
<polygon fill="#ffffff" stroke="#000000" points="501.5,-168.5 501.5,-187.5 585.5,-187.5 585.5,-168.5 501.5,-168.5"/>
<text text-anchor="middle" x="543.5" y="-175.5" font-family="Helvetica,sans-Serif" font-size="10.00" fill="#000000">InputManager.h</text>
</a>
</g>
</g>
<!-- Node0&#45;&gt;Node6 -->
<g id="edge31" class="edge">
<title>Node0&#45;&gt;Node6</title>
<path fill="none" stroke="#191970" d="M447.5078,-280.2635C456.9197,-271.0434 471.3416,-256.7512 483.5,-244 499.0753,-227.6654 516.364,-208.5371 528.3666,-195.0909"/>
<polygon fill="#191970" stroke="#191970" points="531.0622,-197.3266 535.0941,-187.5289 525.8323,-192.6738 531.0622,-197.3266"/>
</g>
<!-- Node7 -->
<g id="node8" class="node">
<title>Node7</title>
<g id="a_node8"><a xlink:href="SDL__include_8h.html" target="_top" xlink:title="SDL_include.h">
<polygon fill="#ffffff" stroke="#000000" points="430.5,-.5 430.5,-19.5 510.5,-19.5 510.5,-.5 430.5,-.5"/>
<text text-anchor="middle" x="470.5" y="-7.5" font-family="Helvetica,sans-Serif" font-size="10.00" fill="#000000">SDL_include.h</text>
</a>
</g>
</g>
<!-- Node0&#45;&gt;Node7 -->
<g id="edge33" class="edge">
<title>Node0&#45;&gt;Node7</title>
<path fill="none" stroke="#191970" d="M480.026,-282.169C558.3551,-266.5249 717.5,-228.5233 717.5,-178 717.5,-178 717.5,-178 717.5,-122 717.5,-79.1667 592.7373,-40.6452 520.5527,-21.9421"/>
<polygon fill="#191970" stroke="#191970" points="521.2895,-18.5181 510.7345,-19.4362 519.5583,-25.3006 521.2895,-18.5181"/>
</g>
<!-- Node8 -->
<g id="node9" class="node">
<title>Node8</title>
<g id="a_node9"><a xlink:href="Vec2_8h.html" target="_top" xlink:title="Vec2.h">
<polygon fill="#ffffff" stroke="#000000" points="400,-112.5 400,-131.5 447,-131.5 447,-112.5 400,-112.5"/>
<text text-anchor="middle" x="423.5" y="-119.5" font-family="Helvetica,sans-Serif" font-size="10.00" fill="#000000">Vec2.h</text>
</a>
</g>
</g>
<!-- Node0&#45;&gt;Node8 -->
<g id="edge32" class="edge">
<title>Node0&#45;&gt;Node8</title>
<path fill="none" stroke="#191970" d="M440.9029,-280.3178C447.7357,-259.4226 461.5617,-208.6984 450.5,-168 447.7824,-158.0015 442.2825,-147.9556 436.9516,-139.8139"/>
<polygon fill="#191970" stroke="#191970" points="439.761,-137.7239 431.1619,-131.5346 434.0245,-141.7354 439.761,-137.7239"/>
</g>
<!-- Node4 -->
<g id="node5" class="node">
<title>Node4</title>
<polygon fill="#ffffff" stroke="#bfbfbf" points="207.5,-112.5 207.5,-131.5 251.5,-131.5 251.5,-112.5 207.5,-112.5"/>
<text text-anchor="middle" x="229.5" y="-119.5" font-family="Helvetica,sans-Serif" font-size="10.00" fill="#000000">vector</text>
</g>
<!-- Node3&#45;&gt;Node4 -->
<g id="edge4" class="edge">
<title>Node3&#45;&gt;Node4</title>
<path fill="none" stroke="#191970" d="M390.4943,-224.4509C359.8408,-204.9441 289.8322,-160.3932 253.0571,-136.9909"/>
<polygon fill="#191970" stroke="#191970" points="254.7834,-133.9409 244.4677,-131.5249 251.0252,-139.8465 254.7834,-133.9409"/>
</g>
<!-- Node5 -->
<g id="node6" class="node">
<title>Node5</title>
<polygon fill="#ffffff" stroke="#bfbfbf" points="329.5,-112.5 329.5,-131.5 381.5,-131.5 381.5,-112.5 329.5,-112.5"/>
<text text-anchor="middle" x="355.5" y="-119.5" font-family="Helvetica,sans-Serif" font-size="10.00" fill="#000000">memory</text>
</g>
<!-- Node3&#45;&gt;Node5 -->
<g id="edge5" class="edge">
<title>Node3&#45;&gt;Node5</title>
<path fill="none" stroke="#191970" d="M391.8707,-224.3897C381.2927,-216.0844 367.3177,-203.0635 360.5,-188 353.985,-173.6053 353.0261,-155.6336 353.5343,-142.08"/>
<polygon fill="#191970" stroke="#191970" points="357.0393,-142.1215 354.2166,-131.9096 350.055,-141.6529 357.0393,-142.1215"/>
</g>
<!-- Node3&#45;&gt;Node6 -->
<g id="edge6" class="edge">
<title>Node3&#45;&gt;Node6</title>
<path fill="none" stroke="#191970" d="M429.223,-224.3733C451.6737,-215.2629 485.5739,-201.5062 510.6255,-191.3404"/>
<polygon fill="#191970" stroke="#191970" points="512.1365,-194.5045 520.0865,-187.5011 509.5043,-188.0182 512.1365,-194.5045"/>
</g>
<!-- Node13 -->
<g id="node14" class="node">
<title>Node13</title>
<g id="a_node14"><a xlink:href="Resources_8h.html" target="_top" xlink:title="Resources.h">
<polygon fill="#ffffff" stroke="#000000" points="369.5,-168.5 369.5,-187.5 441.5,-187.5 441.5,-168.5 369.5,-168.5"/>
<text text-anchor="middle" x="405.5" y="-175.5" font-family="Helvetica,sans-Serif" font-size="10.00" fill="#000000">Resources.h</text>
</a>
</g>
</g>
<!-- Node3&#45;&gt;Node13 -->
<g id="edge16" class="edge">
<title>Node3&#45;&gt;Node13</title>
<path fill="none" stroke="#191970" d="M405.5,-224.2455C405.5,-216.9382 405.5,-206.6944 405.5,-197.7046"/>
<polygon fill="#191970" stroke="#191970" points="409.0001,-197.6426 405.5,-187.6427 402.0001,-197.6427 409.0001,-197.6426"/>
</g>
<!-- Node14 -->
<g id="node15" class="node">
<title>Node14</title>
<g id="a_node15"><a xlink:href="GameObject_8h.html" target="_top" xlink:title="GameObject.h">
<polygon fill="#ffffff" stroke="#000000" points="139.5,-168.5 139.5,-187.5 219.5,-187.5 219.5,-168.5 139.5,-168.5"/>
<text text-anchor="middle" x="179.5" y="-175.5" font-family="Helvetica,sans-Serif" font-size="10.00" fill="#000000">GameObject.h</text>
</a>
</g>
</g>
<!-- Node3&#45;&gt;Node14 -->
<g id="edge21" class="edge">
<title>Node3&#45;&gt;Node14</title>
<path fill="none" stroke="#191970" d="M381.3977,-226.5133C378.409,-225.639 375.3894,-224.7814 372.5,-224 324.2728,-210.9583 268.7419,-197.9289 229.6635,-189.0841"/>
<polygon fill="#191970" stroke="#191970" points="230.1231,-185.6 219.5983,-186.8161 228.5844,-192.4287 230.1231,-185.6"/>
</g>
<!-- Node6&#45;&gt;Node7 -->
<g id="edge7" class="edge">
<title>Node6&#45;&gt;Node7</title>
<path fill="none" stroke="#191970" d="M561.067,-168.2931C580.3555,-156.254 607.257,-134.5479 596.5,-112 576.7318,-70.5635 530.9964,-40.5189 500.4132,-24.1728"/>
<polygon fill="#191970" stroke="#191970" points="501.9445,-21.0245 491.4539,-19.5422 498.7305,-27.243 501.9445,-21.0245"/>
</g>
<!-- Node6&#45;&gt;Node8 -->
<g id="edge8" class="edge">
<title>Node6&#45;&gt;Node8</title>
<path fill="none" stroke="#191970" d="M522.8713,-168.3733C503.6081,-159.3838 474.6514,-145.8706 452.9581,-135.7471"/>
<polygon fill="#191970" stroke="#191970" points="454.4015,-132.5584 443.8595,-131.5011 451.4413,-138.9017 454.4015,-132.5584"/>
</g>
<!-- Node11 -->
<g id="node12" class="node">
<title>Node11</title>
<polygon fill="#ffffff" stroke="#bfbfbf" points="504,-112.5 504,-131.5 587,-131.5 587,-112.5 504,-112.5"/>
<text text-anchor="middle" x="545.5" y="-119.5" font-family="Helvetica,sans-Serif" font-size="10.00" fill="#000000">unordered_map</text>
</g>
<!-- Node6&#45;&gt;Node11 -->
<g id="edge14" class="edge">
<title>Node6&#45;&gt;Node11</title>
<path fill="none" stroke="#191970" d="M543.8484,-168.2455C544.1093,-160.9382 544.4752,-150.6944 544.7963,-141.7046"/>
<polygon fill="#191970" stroke="#191970" points="548.2964,-141.7613 545.1556,-131.6427 541.3008,-141.5113 548.2964,-141.7613"/>
</g>
<!-- Node12 -->
<g id="node13" class="node">
<title>Node12</title>
<polygon fill="#ffffff" stroke="#bfbfbf" points="643.5,-112.5 643.5,-131.5 689.5,-131.5 689.5,-112.5 643.5,-112.5"/>
<text text-anchor="middle" x="666.5" y="-119.5" font-family="Helvetica,sans-Serif" font-size="10.00" fill="#000000">cstdint</text>
</g>
<!-- Node6&#45;&gt;Node12 -->
<g id="edge15" class="edge">
<title>Node6&#45;&gt;Node12</title>
<path fill="none" stroke="#191970" d="M564.6445,-168.3733C584.3892,-159.3838 614.0698,-145.8706 636.3055,-135.7471"/>
<polygon fill="#191970" stroke="#191970" points="637.9806,-138.8302 645.6315,-131.5011 635.08,-132.4594 637.9806,-138.8302"/>
</g>
<!-- Node8&#45;&gt;Node7 -->
<g id="edge9" class="edge">
<title>Node8&#45;&gt;Node7</title>
<path fill="none" stroke="#191970" d="M427.5072,-112.4509C435.2422,-94.0186 452.3608,-53.2254 462.5087,-29.043"/>
<polygon fill="#191970" stroke="#191970" points="465.8607,-30.1002 466.5029,-19.5249 459.406,-27.3915 465.8607,-30.1002"/>
</g>
<!-- Node9 -->
<g id="node10" class="node">
<title>Node9</title>
<g id="a_node10"><a xlink:href="Rect_8h.html" target="_top" xlink:title="Rect.h">
<polygon fill="#ffffff" stroke="#000000" points="363.5,-56.5 363.5,-75.5 409.5,-75.5 409.5,-56.5 363.5,-56.5"/>
<text text-anchor="middle" x="386.5" y="-63.5" font-family="Helvetica,sans-Serif" font-size="10.00" fill="#000000">Rect.h</text>
</a>
</g>
</g>
<!-- Node8&#45;&gt;Node9 -->
<g id="edge10" class="edge">
<title>Node8&#45;&gt;Node9</title>
<path fill="none" stroke="#191970" d="M411.7882,-112.2455C405.2749,-104.617 397.7443,-93.7881 392.3467,-84.5267"/>
<polygon fill="#191970" stroke="#191970" points="395.4091,-82.831 387.6259,-75.6427 389.2276,-86.1157 395.4091,-82.831"/>
</g>
<!-- Node9&#45;&gt;Node7 -->
<g id="edge11" class="edge">
<title>Node9&#45;&gt;Node7</title>
<path fill="none" stroke="#191970" d="M401.1317,-56.2455C413.8994,-47.7337 432.6438,-35.2375 447.4299,-25.3801"/>
<polygon fill="#191970" stroke="#191970" points="449.6569,-28.1019 456.036,-19.6427 445.774,-22.2775 449.6569,-28.1019"/>
</g>
<!-- Node9&#45;&gt;Node8 -->
<g id="edge12" class="edge">
<title>Node9&#45;&gt;Node8</title>
<path fill="none" stroke="#191970" d="M398.1162,-75.6427C404.6195,-83.2398 412.1555,-94.0605 417.5739,-103.3372"/>
<polygon fill="#191970" stroke="#191970" points="414.5297,-105.067 422.3219,-112.2455 420.7071,-101.7745 414.5297,-105.067"/>
</g>
<!-- Node10 -->
<g id="node11" class="node">
<title>Node10</title>
<polygon fill="#ffffff" stroke="#bfbfbf" points="364.5,-.5 364.5,-19.5 408.5,-19.5 408.5,-.5 364.5,-.5"/>
<text text-anchor="middle" x="386.5" y="-7.5" font-family="Helvetica,sans-Serif" font-size="10.00" fill="#000000">cmath</text>
</g>
<!-- Node9&#45;&gt;Node10 -->
<g id="edge13" class="edge">
<title>Node9&#45;&gt;Node10</title>
<path fill="none" stroke="#191970" d="M386.5,-56.2455C386.5,-48.9382 386.5,-38.6944 386.5,-29.7046"/>
<polygon fill="#191970" stroke="#191970" points="390.0001,-29.6426 386.5,-19.6427 383.0001,-29.6427 390.0001,-29.6426"/>
</g>
<!-- Node13&#45;&gt;Node1 -->
<g id="edge18" class="edge">
<title>Node13&#45;&gt;Node1</title>
<path fill="none" stroke="#191970" d="M385.7308,-168.3733C367.3531,-159.4241 339.7688,-145.9917 319.0107,-135.8835"/>
<polygon fill="#191970" stroke="#191970" points="320.5343,-132.7325 310.0112,-131.5011 317.4696,-139.026 320.5343,-132.7325"/>
</g>
<!-- Node13&#45;&gt;Node5 -->
<g id="edge20" class="edge">
<title>Node13&#45;&gt;Node5</title>
<path fill="none" stroke="#191970" d="M396.7907,-168.2455C389.6927,-160.2958 379.4916,-148.8706 371.005,-139.3656"/>
<polygon fill="#191970" stroke="#191970" points="373.3805,-136.771 364.1095,-131.6427 368.1589,-141.4331 373.3805,-136.771"/>
</g>
<!-- Node13&#45;&gt;Node7 -->
<g id="edge17" class="edge">
<title>Node13&#45;&gt;Node7</title>
<path fill="none" stroke="#191970" d="M421.2417,-168.392C433.0622,-160.2621 448.5295,-147.4767 456.5,-132 473.4296,-99.1272 473.8458,-54.7992 472.3534,-29.626"/>
<polygon fill="#191970" stroke="#191970" points="475.833,-29.2241 471.5859,-19.5178 468.8531,-29.7541 475.833,-29.2241"/>
</g>
<!-- Node13&#45;&gt;Node11 -->
<g id="edge19" class="edge">
<title>Node13&#45;&gt;Node11</title>
<path fill="none" stroke="#191970" d="M429.5669,-168.3733C452.3428,-159.2629 486.7344,-145.5062 512.149,-135.3404"/>
<polygon fill="#191970" stroke="#191970" points="513.7623,-138.4648 521.7472,-131.5011 511.1625,-131.9654 513.7623,-138.4648"/>
</g>
<!-- Node14&#45;&gt;Node1 -->
<g id="edge25" class="edge">
<title>Node14&#45;&gt;Node1</title>
<path fill="none" stroke="#191970" d="M198.5816,-168.3733C216.2402,-159.4644 242.7053,-146.1127 262.7098,-136.0203"/>
<polygon fill="#191970" stroke="#191970" points="264.3158,-139.1303 271.6674,-131.5011 261.1628,-132.8806 264.3158,-139.1303"/>
</g>
<!-- Node14&#45;&gt;Node4 -->
<g id="edge23" class="edge">
<title>Node14&#45;&gt;Node4</title>
<path fill="none" stroke="#191970" d="M188.2093,-168.2455C195.3073,-160.2958 205.5084,-148.8706 213.995,-139.3656"/>
<polygon fill="#191970" stroke="#191970" points="216.8411,-141.4331 220.8905,-131.6427 211.6195,-136.771 216.8411,-141.4331"/>
</g>
<!-- Node14&#45;&gt;Node5 -->
<g id="edge24" class="edge">
<title>Node14&#45;&gt;Node5</title>
<path fill="none" stroke="#191970" d="M209.7555,-168.3733C240.3062,-158.6526 287.4813,-143.6423 319.8342,-133.3482"/>
<polygon fill="#191970" stroke="#191970" points="320.896,-136.6833 329.364,-130.316 318.7735,-130.0129 320.896,-136.6833"/>
</g>
<!-- Node14&#45;&gt;Node7 -->
<g id="edge22" class="edge">
<title>Node14&#45;&gt;Node7</title>
<path fill="none" stroke="#191970" d="M177.0641,-168.3691C174.1474,-154.4338 171.0788,-128.5126 183.5,-112 212.4938,-73.4561 345.8961,-38.051 420.1864,-20.8828"/>
<polygon fill="#191970" stroke="#191970" points="421.2897,-24.221 430.2598,-18.5828 419.7316,-17.3966 421.2897,-24.221"/>
</g>
<!-- Node14&#45;&gt;Node9 -->
<g id="edge30" class="edge">
<title>Node14&#45;&gt;Node9</title>
<path fill="none" stroke="#191970" d="M179.4216,-168.4121C179.8484,-154.0492 182.8487,-127.0324 198.5,-112 220.4107,-90.9556 305.1659,-76.69 353.0541,-70.1263"/>
<polygon fill="#191970" stroke="#191970" points="353.7931,-73.5589 363.2437,-68.7697 352.8692,-66.6201 353.7931,-73.5589"/>
</g>
<!-- Node15 -->
<g id="node16" class="node">
<title>Node15</title>
<g id="a_node16"><a xlink:href="Component_8h.html" target="_top" xlink:title="Component.h">
<polygon fill="#ffffff" stroke="#000000" points="0,-112.5 0,-131.5 75,-131.5 75,-112.5 0,-112.5"/>
<text text-anchor="middle" x="37.5" y="-119.5" font-family="Helvetica,sans-Serif" font-size="10.00" fill="#000000">Component.h</text>
</a>
</g>
</g>
<!-- Node14&#45;&gt;Node15 -->
<g id="edge26" class="edge">
<title>Node14&#45;&gt;Node15</title>
<path fill="none" stroke="#191970" d="M149.8473,-168.3733C125.0738,-159.3032 90.1887,-145.6279 65.8026,-135.4755"/>
<polygon fill="#191970" stroke="#191970" points="66.9491,-132.1606 56.3748,-131.5011 64.2299,-138.6109 66.9491,-132.1606"/>
</g>
<!-- Node16 -->
<g id="node17" class="node">
<title>Node16</title>
<g id="a_node17"><a xlink:href="ComponentType_8h.html" target="_top" xlink:title="ComponentType.h">
<polygon fill="#ffffff" stroke="#000000" points="3,-56.5 3,-75.5 100,-75.5 100,-56.5 3,-56.5"/>
<text text-anchor="middle" x="51.5" y="-63.5" font-family="Helvetica,sans-Serif" font-size="10.00" fill="#000000">ComponentType.h</text>
</a>
</g>
</g>
<!-- Node14&#45;&gt;Node16 -->
<g id="edge29" class="edge">
<title>Node14&#45;&gt;Node16</title>
<path fill="none" stroke="#191970" d="M168.5868,-168.4509C146.6711,-149.2747 97.0957,-105.8962 70.0129,-82.1988"/>
<polygon fill="#191970" stroke="#191970" points="72.2162,-79.4759 62.3856,-75.5249 67.6066,-84.744 72.2162,-79.4759"/>
</g>
<!-- Node15&#45;&gt;Node14 -->
<g id="edge28" class="edge">
<title>Node15&#45;&gt;Node14</title>
<path fill="none" stroke="#191970" d="M66.8094,-131.5011C91.4889,-140.5284 126.3754,-154.1985 150.8582,-164.3833"/>
<polygon fill="#191970" stroke="#191970" points="149.7568,-167.7172 160.3314,-168.3733 152.474,-161.266 149.7568,-167.7172"/>
</g>
<!-- Node15&#45;&gt;Node16 -->
<g id="edge27" class="edge">
<title>Node15&#45;&gt;Node16</title>
<path fill="none" stroke="#191970" d="M39.9386,-112.2455C41.7855,-104.8579 44.3828,-94.4689 46.6478,-85.4087"/>
<polygon fill="#191970" stroke="#191970" points="50.0594,-86.193 49.0893,-75.6427 43.2684,-84.4952 50.0594,-86.193"/>
</g>
</g>
</svg>
