<?xml version="1.0" encoding="UTF-8" standalone="no"?>
<!DOCTYPE svg PUBLIC "-//W3C//DTD SVG 1.1//EN"
 "http://www.w3.org/Graphics/SVG/1.1/DTD/svg11.dtd">
<!-- Generated by graphviz version 2.40.1 (20161225.0304)
 -->
<!-- Title: src/GameObject.cpp Pages: 1 -->
<svg width="660pt" height="308pt"
 viewBox="0.00 0.00 660.00 308.00" xmlns="http://www.w3.org/2000/svg" xmlns:xlink="http://www.w3.org/1999/xlink">
<g id="graph0" class="graph" transform="scale(1 1) rotate(0) translate(4 304)">
<title>src/GameObject.cpp</title>
<polygon fill="#ffffff" stroke="transparent" points="-4,4 -4,-304 656,-304 656,4 -4,4"/>
<!-- Node0 -->
<g id="node1" class="node">
<title>Node0</title>
<polygon fill="#bfbfbf" stroke="#000000" points="185.5,-280.5 185.5,-299.5 292.5,-299.5 292.5,-280.5 185.5,-280.5"/>
<text text-anchor="middle" x="239" y="-287.5" font-family="Helvetica,sans-Serif" font-size="10.00" fill="#000000">src/GameObject.cpp</text>
</g>
<!-- Node1 -->
<g id="node2" class="node">
<title>Node1</title>
<g id="a_node2"><a xlink:href="GameObject_8h.html" target="_top" xlink:title="GameObject.h">
<polygon fill="#ffffff" stroke="#000000" points="199,-168.5 199,-187.5 279,-187.5 279,-168.5 199,-168.5"/>
<text text-anchor="middle" x="239" y="-175.5" font-family="Helvetica,sans-Serif" font-size="10.00" fill="#000000">GameObject.h</text>
</a>
</g>
</g>
<!-- Node0&#45;&gt;Node1 -->
<g id="edge1" class="edge">
<title>Node0&#45;&gt;Node1</title>
<path fill="none" stroke="#191970" d="M239,-280.4509C239,-262.184 239,-221.9553 239,-197.6976"/>
<polygon fill="#191970" stroke="#191970" points="242.5001,-197.5249 239,-187.5249 235.5001,-197.5249 242.5001,-197.5249"/>
</g>
<!-- Node11 -->
<g id="node12" class="node">
<title>Node11</title>
<g id="a_node12"><a xlink:href="Error_8h.html" target="_top" xlink:title="Error.h">
<polygon fill="#ffffff" stroke="#000000" points="131,-224.5 131,-243.5 177,-243.5 177,-224.5 131,-224.5"/>
<text text-anchor="middle" x="154" y="-231.5" font-family="Helvetica,sans-Serif" font-size="10.00" fill="#000000">Error.h</text>
</a>
</g>
</g>
<!-- Node0&#45;&gt;Node11 -->
<g id="edge16" class="edge">
<title>Node0&#45;&gt;Node11</title>
<path fill="none" stroke="#191970" d="M224.1941,-280.2455C211.2744,-271.7337 192.3069,-259.2375 177.3448,-249.3801"/>
<polygon fill="#191970" stroke="#191970" points="178.9124,-246.2216 168.6362,-243.6427 175.0613,-252.067 178.9124,-246.2216"/>
</g>
<!-- Node14 -->
<g id="node15" class="node">
<title>Node14</title>
<g id="a_node15"><a xlink:href="Camera_8h.html" target="_top" xlink:title="Camera.h">
<polygon fill="#ffffff" stroke="#000000" points="320.5,-224.5 320.5,-243.5 379.5,-243.5 379.5,-224.5 320.5,-224.5"/>
<text text-anchor="middle" x="350" y="-231.5" font-family="Helvetica,sans-Serif" font-size="10.00" fill="#000000">Camera.h</text>
</a>
</g>
</g>
<!-- Node0&#45;&gt;Node14 -->
<g id="edge19" class="edge">
<title>Node0&#45;&gt;Node14</title>
<path fill="none" stroke="#191970" d="M258.0816,-280.3733C275.7402,-271.4644 302.2053,-258.1127 322.2098,-248.0203"/>
<polygon fill="#191970" stroke="#191970" points="323.8158,-251.1303 331.1674,-243.5011 320.6628,-244.8806 323.8158,-251.1303"/>
</g>
<!-- Node2 -->
<g id="node3" class="node">
<title>Node2</title>
<g id="a_node3"><a xlink:href="SDL__include_8h.html" target="_top" xlink:title="SDL_include.h">
<polygon fill="#ffffff" stroke="#000000" points="358,-.5 358,-19.5 438,-19.5 438,-.5 358,-.5"/>
<text text-anchor="middle" x="398" y="-7.5" font-family="Helvetica,sans-Serif" font-size="10.00" fill="#000000">SDL_include.h</text>
</a>
</g>
</g>
<!-- Node1&#45;&gt;Node2 -->
<g id="edge2" class="edge">
<title>Node1&#45;&gt;Node2</title>
<path fill="none" stroke="#191970" d="M242.1368,-168.157C250.5606,-142.2271 274.1758,-72.8766 291,-56 306.6419,-40.3094 328.4956,-29.6234 348.3781,-22.5324"/>
<polygon fill="#191970" stroke="#191970" points="349.5704,-25.8243 357.9445,-19.334 347.3507,-19.1855 349.5704,-25.8243"/>
</g>
<!-- Node3 -->
<g id="node4" class="node">
<title>Node3</title>
<polygon fill="#ffffff" stroke="#bfbfbf" points="364,-112.5 364,-131.5 408,-131.5 408,-112.5 364,-112.5"/>
<text text-anchor="middle" x="386" y="-119.5" font-family="Helvetica,sans-Serif" font-size="10.00" fill="#000000">vector</text>
</g>
<!-- Node1&#45;&gt;Node3 -->
<g id="edge3" class="edge">
<title>Node1&#45;&gt;Node3</title>
<path fill="none" stroke="#191970" d="M264.2702,-168.3733C289.2739,-158.848 327.6101,-144.2438 354.5662,-133.9748"/>
<polygon fill="#191970" stroke="#191970" points="355.8378,-137.2358 363.9367,-130.4051 353.3458,-130.6944 355.8378,-137.2358"/>
</g>
<!-- Node4 -->
<g id="node5" class="node">
<title>Node4</title>
<polygon fill="#ffffff" stroke="#bfbfbf" points="0,-112.5 0,-131.5 52,-131.5 52,-112.5 0,-112.5"/>
<text text-anchor="middle" x="26" y="-119.5" font-family="Helvetica,sans-Serif" font-size="10.00" fill="#000000">memory</text>
</g>
<!-- Node1&#45;&gt;Node4 -->
<g id="edge4" class="edge">
<title>Node1&#45;&gt;Node4</title>
<path fill="none" stroke="#191970" d="M201.0776,-168.4968C167.1051,-159.9174 115.6705,-146.7664 62.3312,-132.3189"/>
<polygon fill="#191970" stroke="#191970" points="62.9212,-128.8524 52.3532,-129.607 61.0852,-135.6073 62.9212,-128.8524"/>
</g>
<!-- Node5 -->
<g id="node6" class="node">
<title>Node5</title>
<polygon fill="#ffffff" stroke="#bfbfbf" points="70.5,-112.5 70.5,-131.5 111.5,-131.5 111.5,-112.5 70.5,-112.5"/>
<text text-anchor="middle" x="91" y="-119.5" font-family="Helvetica,sans-Serif" font-size="10.00" fill="#000000">string</text>
</g>
<!-- Node1&#45;&gt;Node5 -->
<g id="edge5" class="edge">
<title>Node1&#45;&gt;Node5</title>
<path fill="none" stroke="#191970" d="M213.5579,-168.3733C187.9424,-158.6809 148.4287,-143.7298 121.23,-133.4384"/>
<polygon fill="#191970" stroke="#191970" points="122.4066,-130.1415 111.8151,-129.876 119.9294,-136.6885 122.4066,-130.1415"/>
</g>
<!-- Node6 -->
<g id="node7" class="node">
<title>Node6</title>
<g id="a_node7"><a xlink:href="Component_8h.html" target="_top" xlink:title="Component.h">
<polygon fill="#ffffff" stroke="#000000" points="168.5,-112.5 168.5,-131.5 243.5,-131.5 243.5,-112.5 168.5,-112.5"/>
<text text-anchor="middle" x="206" y="-119.5" font-family="Helvetica,sans-Serif" font-size="10.00" fill="#000000">Component.h</text>
</a>
</g>
</g>
<!-- Node1&#45;&gt;Node6 -->
<g id="edge6" class="edge">
<title>Node1&#45;&gt;Node6</title>
<path fill="none" stroke="#191970" d="M227.985,-168.2455C222.0794,-160.6973 215.4016,-150.0158 210.6736,-140.8197"/>
<polygon fill="#191970" stroke="#191970" points="213.8062,-139.255 206.4372,-131.6427 207.4507,-142.1889 213.8062,-139.255"/>
</g>
<!-- Node7 -->
<g id="node8" class="node">
<title>Node7</title>
<g id="a_node8"><a xlink:href="ComponentType_8h.html" target="_top" xlink:title="ComponentType.h">
<polygon fill="#ffffff" stroke="#000000" points="119.5,-56.5 119.5,-75.5 216.5,-75.5 216.5,-56.5 119.5,-56.5"/>
<text text-anchor="middle" x="168" y="-63.5" font-family="Helvetica,sans-Serif" font-size="10.00" fill="#000000">ComponentType.h</text>
</a>
</g>
</g>
<!-- Node1&#45;&gt;Node7 -->
<g id="edge9" class="edge">
<title>Node1&#45;&gt;Node7</title>
<path fill="none" stroke="#191970" d="M207.4968,-168.3744C190.1841,-161.2912 170.204,-149.7494 160,-132 151.8402,-117.8065 155.1787,-99.0794 159.7787,-85.2002"/>
<polygon fill="#191970" stroke="#191970" points="163.1127,-86.2786 163.3727,-75.687 156.5644,-83.8047 163.1127,-86.2786"/>
</g>
<!-- Node8 -->
<g id="node9" class="node">
<title>Node8</title>
<g id="a_node9"><a xlink:href="Rect_8h.html" target="_top" xlink:title="Rect.h">
<polygon fill="#ffffff" stroke="#000000" points="300,-112.5 300,-131.5 346,-131.5 346,-112.5 300,-112.5"/>
<text text-anchor="middle" x="323" y="-119.5" font-family="Helvetica,sans-Serif" font-size="10.00" fill="#000000">Rect.h</text>
</a>
</g>
</g>
<!-- Node1&#45;&gt;Node8 -->
<g id="edge10" class="edge">
<title>Node1&#45;&gt;Node8</title>
<path fill="none" stroke="#191970" d="M253.6317,-168.2455C266.3994,-159.7337 285.1438,-147.2375 299.9299,-137.3801"/>
<polygon fill="#191970" stroke="#191970" points="302.1569,-140.1019 308.536,-131.6427 298.274,-134.2775 302.1569,-140.1019"/>
</g>
<!-- Node6&#45;&gt;Node1 -->
<g id="edge8" class="edge">
<title>Node6&#45;&gt;Node1</title>
<path fill="none" stroke="#191970" d="M216.9274,-131.6427C222.8253,-139.1598 229.5088,-149.8331 234.2561,-159.0437"/>
<polygon fill="#191970" stroke="#191970" points="231.1396,-160.6429 238.5187,-168.2455 237.4912,-157.7006 231.1396,-160.6429"/>
</g>
<!-- Node6&#45;&gt;Node7 -->
<g id="edge7" class="edge">
<title>Node6&#45;&gt;Node7</title>
<path fill="none" stroke="#191970" d="M199.3809,-112.2455C194.0954,-104.4564 186.5459,-93.3308 180.1762,-83.9439"/>
<polygon fill="#191970" stroke="#191970" points="183.0545,-81.9522 174.5432,-75.6427 177.2621,-85.8827 183.0545,-81.9522"/>
</g>
<!-- Node8&#45;&gt;Node2 -->
<g id="edge11" class="edge">
<title>Node8&#45;&gt;Node2</title>
<path fill="none" stroke="#191970" d="M329.3945,-112.4509C341.9036,-93.7707 369.7921,-52.1238 385.8954,-28.0761"/>
<polygon fill="#191970" stroke="#191970" points="388.9658,-29.7814 391.6217,-19.5249 383.1494,-25.8865 388.9658,-29.7814"/>
</g>
<!-- Node9 -->
<g id="node10" class="node">
<title>Node9</title>
<g id="a_node10"><a xlink:href="Vec2_8h.html" target="_top" xlink:title="Vec2.h">
<polygon fill="#ffffff" stroke="#000000" points="400.5,-56.5 400.5,-75.5 447.5,-75.5 447.5,-56.5 400.5,-56.5"/>
<text text-anchor="middle" x="424" y="-63.5" font-family="Helvetica,sans-Serif" font-size="10.00" fill="#000000">Vec2.h</text>
</a>
</g>
</g>
<!-- Node8&#45;&gt;Node9 -->
<g id="edge12" class="edge">
<title>Node8&#45;&gt;Node9</title>
<path fill="none" stroke="#191970" d="M335.326,-112.2455C349.5514,-103.4125 372.9866,-90.2887 392.2822,-80.2758"/>
<polygon fill="#191970" stroke="#191970" points="394.0465,-83.3049 401.3636,-75.6427 390.8653,-77.0695 394.0465,-83.3049"/>
</g>
<!-- Node10 -->
<g id="node11" class="node">
<title>Node10</title>
<polygon fill="#ffffff" stroke="#bfbfbf" points="300,-56.5 300,-75.5 344,-75.5 344,-56.5 300,-56.5"/>
<text text-anchor="middle" x="322" y="-63.5" font-family="Helvetica,sans-Serif" font-size="10.00" fill="#000000">cmath</text>
</g>
<!-- Node8&#45;&gt;Node10 -->
<g id="edge15" class="edge">
<title>Node8&#45;&gt;Node10</title>
<path fill="none" stroke="#191970" d="M322.8258,-112.2455C322.6953,-104.9382 322.5124,-94.6944 322.3519,-85.7046"/>
<polygon fill="#191970" stroke="#191970" points="325.8503,-85.5786 322.1722,-75.6427 318.8514,-85.7036 325.8503,-85.5786"/>
</g>
<!-- Node9&#45;&gt;Node2 -->
<g id="edge13" class="edge">
<title>Node9&#45;&gt;Node2</title>
<path fill="none" stroke="#191970" d="M419.4711,-56.2455C415.9666,-48.6973 411.0073,-38.0158 406.7377,-28.8197"/>
<polygon fill="#191970" stroke="#191970" points="409.8627,-27.2389 402.477,-19.6427 403.5136,-30.1867 409.8627,-27.2389"/>
</g>
<!-- Node9&#45;&gt;Node8 -->
<g id="edge14" class="edge">
<title>Node9&#45;&gt;Node8</title>
<path fill="none" stroke="#191970" d="M412.0813,-75.5011C397.9109,-84.3278 374.2378,-97.5932 354.7659,-107.6992"/>
<polygon fill="#191970" stroke="#191970" points="352.9216,-104.7109 345.6045,-112.3733 356.1029,-110.9463 352.9216,-104.7109"/>
</g>
<!-- Node12 -->
<g id="node13" class="node">
<title>Node12</title>
<polygon fill="#ffffff" stroke="#bfbfbf" points="127,-168.5 127,-187.5 181,-187.5 181,-168.5 127,-168.5"/>
<text text-anchor="middle" x="154" y="-175.5" font-family="Helvetica,sans-Serif" font-size="10.00" fill="#000000">iostream</text>
</g>
<!-- Node11&#45;&gt;Node12 -->
<g id="edge17" class="edge">
<title>Node11&#45;&gt;Node12</title>
<path fill="none" stroke="#191970" d="M154,-224.2455C154,-216.9382 154,-206.6944 154,-197.7046"/>
<polygon fill="#191970" stroke="#191970" points="157.5001,-197.6426 154,-187.6427 150.5001,-197.6427 157.5001,-197.6426"/>
</g>
<!-- Node13 -->
<g id="node14" class="node">
<title>Node13</title>
<polygon fill="#ffffff" stroke="#bfbfbf" points="61,-168.5 61,-187.5 109,-187.5 109,-168.5 61,-168.5"/>
<text text-anchor="middle" x="85" y="-175.5" font-family="Helvetica,sans-Serif" font-size="10.00" fill="#000000">stdlib.h</text>
</g>
<!-- Node11&#45;&gt;Node13 -->
<g id="edge18" class="edge">
<title>Node11&#45;&gt;Node13</title>
<path fill="none" stroke="#191970" d="M141.9811,-224.2455C131.7902,-215.9746 116.9638,-203.9416 104.9893,-194.2232"/>
<polygon fill="#191970" stroke="#191970" points="106.8514,-191.2268 96.8812,-187.6427 102.4402,-196.662 106.8514,-191.2268"/>
</g>
<!-- Node14&#45;&gt;Node1 -->
<g id="edge20" class="edge">
<title>Node14&#45;&gt;Node1</title>
<path fill="none" stroke="#191970" d="M330.9184,-224.3733C313.2598,-215.4644 286.7947,-202.1127 266.7902,-192.0203"/>
<polygon fill="#191970" stroke="#191970" points="268.3372,-188.8806 257.8326,-187.5011 265.1842,-195.1303 268.3372,-188.8806"/>
</g>
<!-- Node14&#45;&gt;Node9 -->
<g id="edge21" class="edge">
<title>Node14&#45;&gt;Node9</title>
<path fill="none" stroke="#191970" d="M358.595,-224.4451C373.4234,-207.3323 403.5168,-169.7051 417,-132 422.3348,-117.0816 423.9582,-99.1487 424.3181,-85.7433"/>
<polygon fill="#191970" stroke="#191970" points="427.8181,-85.7336 424.377,-75.7132 420.8183,-85.6925 427.8181,-85.7336"/>
</g>
<!-- Node15 -->
<g id="node16" class="node">
<title>Node15</title>
<g id="a_node16"><a xlink:href="ActionManager_8h.html" target="_top" xlink:title="ActionManager.h">
<polygon fill="#ffffff" stroke="#000000" points="464,-168.5 464,-187.5 554,-187.5 554,-168.5 464,-168.5"/>
<text text-anchor="middle" x="509" y="-175.5" font-family="Helvetica,sans-Serif" font-size="10.00" fill="#000000">ActionManager.h</text>
</a>
</g>
</g>
<!-- Node14&#45;&gt;Node15 -->
<g id="edge22" class="edge">
<title>Node14&#45;&gt;Node15</title>
<path fill="none" stroke="#191970" d="M377.3331,-224.3733C403.5434,-215.1419 443.2984,-201.1402 472.2668,-190.9375"/>
<polygon fill="#191970" stroke="#191970" points="473.7542,-194.1244 482.0236,-187.5011 471.4288,-187.5219 473.7542,-194.1244"/>
</g>
<!-- Node16 -->
<g id="node17" class="node">
<title>Node16</title>
<g id="a_node17"><a xlink:href="InputManager_8h.html" target="_top" xlink:title="InputManager.h">
<polygon fill="#ffffff" stroke="#000000" points="467,-112.5 467,-131.5 551,-131.5 551,-112.5 467,-112.5"/>
<text text-anchor="middle" x="509" y="-119.5" font-family="Helvetica,sans-Serif" font-size="10.00" fill="#000000">InputManager.h</text>
</a>
</g>
</g>
<!-- Node15&#45;&gt;Node16 -->
<g id="edge23" class="edge">
<title>Node15&#45;&gt;Node16</title>
<path fill="none" stroke="#191970" d="M509,-168.2455C509,-160.9382 509,-150.6944 509,-141.7046"/>
<polygon fill="#191970" stroke="#191970" points="512.5001,-141.6426 509,-131.6427 505.5001,-141.6427 512.5001,-141.6426"/>
</g>
<!-- Node16&#45;&gt;Node2 -->
<g id="edge24" class="edge">
<title>Node16&#45;&gt;Node2</title>
<path fill="none" stroke="#191970" d="M502.586,-112.4529C493.3568,-99.0683 475.4072,-74.3137 457,-56 445.8474,-44.904 432.0403,-34.0102 420.5873,-25.6113"/>
<polygon fill="#191970" stroke="#191970" points="422.5356,-22.7014 412.371,-19.7129 418.4533,-28.3879 422.5356,-22.7014"/>
</g>
<!-- Node16&#45;&gt;Node9 -->
<g id="edge25" class="edge">
<title>Node16&#45;&gt;Node9</title>
<path fill="none" stroke="#191970" d="M494.1941,-112.2455C481.2744,-103.7337 462.3069,-91.2375 447.3448,-81.3801"/>
<polygon fill="#191970" stroke="#191970" points="448.9124,-78.2216 438.6362,-75.6427 445.0613,-84.067 448.9124,-78.2216"/>
</g>
<!-- Node17 -->
<g id="node18" class="node">
<title>Node17</title>
<polygon fill="#ffffff" stroke="#bfbfbf" points="504.5,-56.5 504.5,-75.5 587.5,-75.5 587.5,-56.5 504.5,-56.5"/>
<text text-anchor="middle" x="546" y="-63.5" font-family="Helvetica,sans-Serif" font-size="10.00" fill="#000000">unordered_map</text>
</g>
<!-- Node16&#45;&gt;Node17 -->
<g id="edge26" class="edge">
<title>Node16&#45;&gt;Node17</title>
<path fill="none" stroke="#191970" d="M515.4449,-112.2455C520.5382,-104.5367 527.7908,-93.5598 533.952,-84.2348"/>
<polygon fill="#191970" stroke="#191970" points="537.0365,-85.9155 539.6289,-75.6427 531.1962,-82.0566 537.0365,-85.9155"/>
</g>
<!-- Node18 -->
<g id="node19" class="node">
<title>Node18</title>
<polygon fill="#ffffff" stroke="#bfbfbf" points="606,-56.5 606,-75.5 652,-75.5 652,-56.5 606,-56.5"/>
<text text-anchor="middle" x="629" y="-63.5" font-family="Helvetica,sans-Serif" font-size="10.00" fill="#000000">cstdint</text>
</g>
<!-- Node16&#45;&gt;Node18 -->
<g id="edge27" class="edge">
<title>Node16&#45;&gt;Node18</title>
<path fill="none" stroke="#191970" d="M529.6287,-112.3733C548.8919,-103.3838 577.8486,-89.8706 599.5419,-79.7471"/>
<polygon fill="#191970" stroke="#191970" points="601.0587,-82.9017 608.6405,-75.5011 598.0985,-76.5584 601.0587,-82.9017"/>
</g>
</g>
</svg>
