<?xml version="1.0" encoding="UTF-8" standalone="no"?>
<!DOCTYPE svg PUBLIC "-//W3C//DTD SVG 1.1//EN"
 "http://www.w3.org/Graphics/SVG/1.1/DTD/svg11.dtd">
<!-- Generated by graphviz version 2.40.1 (20161225.0304)
 -->
<!-- Title: include/Game.h Pages: 1 -->
<svg width="740pt" height="84pt"
 viewBox="0.00 0.00 739.50 84.00" xmlns="http://www.w3.org/2000/svg" xmlns:xlink="http://www.w3.org/1999/xlink">
<g id="graph0" class="graph" transform="scale(1 1) rotate(0) translate(4 80)">
<title>include/Game.h</title>
<polygon fill="#ffffff" stroke="transparent" points="-4,4 -4,-80 735.5,-80 735.5,4 -4,4"/>
<!-- Node17 -->
<g id="node1" class="node">
<title>Node17</title>
<polygon fill="#bfbfbf" stroke="#000000" points="342.5,-56.5 342.5,-75.5 427.5,-75.5 427.5,-56.5 342.5,-56.5"/>
<text text-anchor="middle" x="385" y="-63.5" font-family="Helvetica,sans-Serif" font-size="10.00" fill="#000000">include/Game.h</text>
</g>
<!-- Node18 -->
<g id="node2" class="node">
<title>Node18</title>
<g id="a_node2"><a xlink:href="Camera_8cpp.html" target="_top" xlink:title="src/Camera.cpp">
<polygon fill="#ffffff" stroke="#000000" points="0,-.5 0,-19.5 86,-19.5 86,-.5 0,-.5"/>
<text text-anchor="middle" x="43" y="-7.5" font-family="Helvetica,sans-Serif" font-size="10.00" fill="#000000">src/Camera.cpp</text>
</a>
</g>
</g>
<!-- Node17&#45;&gt;Node18 -->
<g id="edge1" class="edge">
<title>Node17&#45;&gt;Node18</title>
<path fill="none" stroke="#191970" d="M332.1185,-58.1426C273.9217,-49.3718 177.6538,-34.4988 95,-20 92.1024,-19.4917 89.1167,-18.9543 86.1102,-18.4029"/>
<polygon fill="#191970" stroke="#191970" points="331.769,-61.6293 342.1783,-59.655 332.8098,-54.7071 331.769,-61.6293"/>
</g>
<!-- Node19 -->
<g id="node3" class="node">
<title>Node19</title>
<g id="a_node3"><a xlink:href="Game_8cpp.html" target="_top" xlink:title="src/Game.cpp">
<polygon fill="#ffffff" stroke="#000000" points="104,-.5 104,-19.5 182,-19.5 182,-.5 104,-.5"/>
<text text-anchor="middle" x="143" y="-7.5" font-family="Helvetica,sans-Serif" font-size="10.00" fill="#000000">src/Game.cpp</text>
</a>
</g>
</g>
<!-- Node17&#45;&gt;Node19 -->
<g id="edge2" class="edge">
<title>Node17&#45;&gt;Node19</title>
<path fill="none" stroke="#191970" d="M333.7567,-54.1421C288.468,-43.662 223.3785,-28.6 182.152,-19.06"/>
<polygon fill="#191970" stroke="#191970" points="333.142,-57.5922 343.6737,-56.4369 334.7202,-50.7724 333.142,-57.5922"/>
</g>
<!-- Node20 -->
<g id="node4" class="node">
<title>Node20</title>
<g id="a_node4"><a xlink:href="RectTransform_8cpp.html" target="_top" xlink:title="src/RectTransform.cpp">
<polygon fill="#ffffff" stroke="#000000" points="200.5,-.5 200.5,-19.5 317.5,-19.5 317.5,-.5 200.5,-.5"/>
<text text-anchor="middle" x="259" y="-7.5" font-family="Helvetica,sans-Serif" font-size="10.00" fill="#000000">src/RectTransform.cpp</text>
</a>
</g>
</g>
<!-- Node17&#45;&gt;Node20 -->
<g id="edge3" class="edge">
<title>Node17&#45;&gt;Node20</title>
<path fill="none" stroke="#191970" d="M354.0564,-52.2473C331.1735,-42.0771 300.5986,-28.4883 280.3775,-19.5011"/>
<polygon fill="#191970" stroke="#191970" points="352.7802,-55.5102 363.3398,-56.3733 355.6232,-49.1135 352.7802,-55.5102"/>
</g>
<!-- Node21 -->
<g id="node5" class="node">
<title>Node21</title>
<g id="a_node5"><a xlink:href="Resources_8cpp.html" target="_top" xlink:title="src/Resources.cpp">
<polygon fill="#ffffff" stroke="#000000" points="335.5,-.5 335.5,-19.5 434.5,-19.5 434.5,-.5 335.5,-.5"/>
<text text-anchor="middle" x="385" y="-7.5" font-family="Helvetica,sans-Serif" font-size="10.00" fill="#000000">src/Resources.cpp</text>
</a>
</g>
</g>
<!-- Node17&#45;&gt;Node21 -->
<g id="edge4" class="edge">
<title>Node17&#45;&gt;Node21</title>
<path fill="none" stroke="#191970" d="M385,-46.1575C385,-37.155 385,-26.9199 385,-19.6427"/>
<polygon fill="#191970" stroke="#191970" points="381.5001,-46.2455 385,-56.2455 388.5001,-46.2456 381.5001,-46.2455"/>
</g>
<!-- Node22 -->
<g id="node6" class="node">
<title>Node22</title>
<g id="a_node6"><a xlink:href="Sprite_8cpp.html" target="_top" xlink:title="src/Sprite.cpp">
<polygon fill="#ffffff" stroke="#000000" points="452.5,-.5 452.5,-19.5 529.5,-19.5 529.5,-.5 452.5,-.5"/>
<text text-anchor="middle" x="491" y="-7.5" font-family="Helvetica,sans-Serif" font-size="10.00" fill="#000000">src/Sprite.cpp</text>
</a>
</g>
</g>
<!-- Node17&#45;&gt;Node22 -->
<g id="edge5" class="edge">
<title>Node17&#45;&gt;Node22</title>
<path fill="none" stroke="#191970" d="M412.5222,-51.46C431.4908,-41.4388 456.1727,-28.3993 472.7478,-19.6427"/>
<polygon fill="#191970" stroke="#191970" points="410.6708,-48.4796 403.4638,-56.2455 413.9407,-54.669 410.6708,-48.4796"/>
</g>
<!-- Node23 -->
<g id="node7" class="node">
<title>Node23</title>
<g id="a_node7"><a xlink:href="Text_8cpp.html" target="_top" xlink:title="src/Text.cpp">
<polygon fill="#ffffff" stroke="#000000" points="547.5,-.5 547.5,-19.5 618.5,-19.5 618.5,-.5 547.5,-.5"/>
<text text-anchor="middle" x="583" y="-7.5" font-family="Helvetica,sans-Serif" font-size="10.00" fill="#000000">src/Text.cpp</text>
</a>
</g>
</g>
<!-- Node17&#45;&gt;Node23 -->
<g id="edge6" class="edge">
<title>Node17&#45;&gt;Node23</title>
<path fill="none" stroke="#191970" d="M428.8845,-53.5882C465.2623,-43.2996 516.2121,-28.8895 549.4067,-19.5011"/>
<polygon fill="#191970" stroke="#191970" points="427.7074,-50.2838 419.0374,-56.3733 429.6125,-57.0195 427.7074,-50.2838"/>
</g>
<!-- Node24 -->
<g id="node8" class="node">
<title>Node24</title>
<g id="a_node8"><a xlink:href="Threading_8cpp.html" target="_top" xlink:title="src/Threading.cpp">
<polygon fill="#ffffff" stroke="#000000" points="636.5,-.5 636.5,-19.5 731.5,-19.5 731.5,-.5 636.5,-.5"/>
<text text-anchor="middle" x="684" y="-7.5" font-family="Helvetica,sans-Serif" font-size="10.00" fill="#000000">src/Threading.cpp</text>
</a>
</g>
</g>
<!-- Node17&#45;&gt;Node24 -->
<g id="edge7" class="edge">
<title>Node17&#45;&gt;Node24</title>
<path fill="none" stroke="#191970" d="M437.6338,-56.1422C493.8733,-45.609 582.2288,-29.0608 636.4396,-18.9076"/>
<polygon fill="#191970" stroke="#191970" points="436.7066,-52.7549 427.5219,-58.036 437.9953,-59.6352 436.7066,-52.7549"/>
</g>
</g>
</svg>
