<?xml version="1.0" encoding="UTF-8" standalone="no"?>
<!DOCTYPE svg PUBLIC "-//W3C//DTD SVG 1.1//EN"
 "http://www.w3.org/Graphics/SVG/1.1/DTD/svg11.dtd">
<!-- Generated by graphviz version 2.38.0 (20140413.2041)
 -->
<!-- Title: include/GameObject.h Pages: 1 -->
<svg width="1627pt" height="308pt"
 viewBox="0.00 0.00 1627.00 308.00" xmlns="http://www.w3.org/2000/svg" xmlns:xlink="http://www.w3.org/1999/xlink">
<g id="graph0" class="graph" transform="scale(1 1) rotate(0) translate(4 304)">
<title>include/GameObject.h</title>
<polygon fill="white" stroke="none" points="-4,4 -4,-304 1623,-304 1623,4 -4,4"/>
<!-- Node10 -->
<g id="node1" class="node"><title>Node10</title>
<polygon fill="#bfbfbf" stroke="black" points="537,-280.5 537,-299.5 650,-299.5 650,-280.5 537,-280.5"/>
<text text-anchor="middle" x="593.5" y="-287.5" font-family="Helvetica,sans-Serif" font-size="10.00">include/GameObject.h</text>
</g>
<!-- Node11 -->
<g id="node2" class="node"><title>Node11</title>
<g id="a_node2"><a xlink:href="Animation_8h.html" target="_top" xlink:title="include/Animation.h">
<polygon fill="white" stroke="black" points="635.5,-112.5 635.5,-131.5 737.5,-131.5 737.5,-112.5 635.5,-112.5"/>
<text text-anchor="middle" x="686.5" y="-119.5" font-family="Helvetica,sans-Serif" font-size="10.00">include/Animation.h</text>
</a>
</g>
</g>
<!-- Node10&#45;&gt;Node11 -->
<g id="edge1" class="edge"><title>Node10&#45;&gt;Node11</title>
<path fill="none" stroke="midnightblue" d="M628.879,-276.626C665.113,-261.824 719.434,-233.218 743.5,-188 755.77,-164.946 725.028,-143.203 704.075,-131.639"/>
<polygon fill="midnightblue" stroke="midnightblue" points="627.207,-273.522 619.179,-280.436 629.766,-280.037 627.207,-273.522"/>
</g>
<!-- Node13 -->
<g id="node4" class="node"><title>Node13</title>
<g id="a_node4"><a xlink:href="Component_8h.html" target="_top" xlink:title="include/Component.h">
<polygon fill="white" stroke="black" points="425,-224.5 425,-243.5 534,-243.5 534,-224.5 425,-224.5"/>
<text text-anchor="middle" x="479.5" y="-231.5" font-family="Helvetica,sans-Serif" font-size="10.00">include/Component.h</text>
</a>
</g>
</g>
<!-- Node10&#45;&gt;Node13 -->
<g id="edge3" class="edge"><title>Node10&#45;&gt;Node13</title>
<path fill="none" stroke="midnightblue" d="M561.016,-276.368C538.212,-266.255 509.099,-252.349 492.399,-243.516"/>
<polygon fill="midnightblue" stroke="midnightblue" points="559.783,-279.648 570.348,-280.444 562.584,-273.234 559.783,-279.648"/>
</g>
<!-- Node20 -->
<g id="node11" class="node"><title>Node20</title>
<g id="a_node11"><a xlink:href="Button_8h.html" target="_top" xlink:title="include/Button.h">
<polygon fill="white" stroke="black" points="0,-168.5 0,-187.5 87,-187.5 87,-168.5 0,-168.5"/>
<text text-anchor="middle" x="43.5" y="-175.5" font-family="Helvetica,sans-Serif" font-size="10.00">include/Button.h</text>
</a>
</g>
</g>
<!-- Node10&#45;&gt;Node20 -->
<g id="edge26" class="edge"><title>Node10&#45;&gt;Node20</title>
<path fill="none" stroke="midnightblue" d="M526.786,-281.232C465.145,-273.55 371.185,-260.556 290.5,-244 210.359,-227.556 117.439,-201.053 71.7855,-187.531"/>
<polygon fill="midnightblue" stroke="midnightblue" points="526.418,-284.714 536.772,-282.466 527.276,-277.766 526.418,-284.714"/>
</g>
<!-- Node22 -->
<g id="node13" class="node"><title>Node22</title>
<g id="a_node13"><a xlink:href="Grouper_8h.html" target="_top" xlink:title="include/Grouper.h">
<polygon fill="white" stroke="black" points="105,-168.5 105,-187.5 198,-187.5 198,-168.5 105,-168.5"/>
<text text-anchor="middle" x="151.5" y="-175.5" font-family="Helvetica,sans-Serif" font-size="10.00">include/Grouper.h</text>
</a>
</g>
</g>
<!-- Node10&#45;&gt;Node22 -->
<g id="edge45" class="edge"><title>Node10&#45;&gt;Node22</title>
<path fill="none" stroke="midnightblue" d="M532.332,-278.643C486.213,-270.419 421.542,-258.004 365.5,-244 296.375,-226.726 216.394,-200.819 176.637,-187.531"/>
<polygon fill="midnightblue" stroke="midnightblue" points="532.009,-282.14 542.466,-280.435 533.228,-275.247 532.009,-282.14"/>
</g>
<!-- Node24 -->
<g id="node15" class="node"><title>Node24</title>
<g id="a_node15"><a xlink:href="RectTransform_8h.html" target="_top" xlink:title="include/RectTransform.h">
<polygon fill="white" stroke="black" points="216.5,-168.5 216.5,-187.5 340.5,-187.5 340.5,-168.5 216.5,-168.5"/>
<text text-anchor="middle" x="278.5" y="-175.5" font-family="Helvetica,sans-Serif" font-size="10.00">include/RectTransform.h</text>
</a>
</g>
</g>
<!-- Node10&#45;&gt;Node24 -->
<g id="edge47" class="edge"><title>Node10&#45;&gt;Node24</title>
<path fill="none" stroke="midnightblue" d="M539.775,-278.291C504.026,-270.468 456.312,-258.681 415.5,-244 369.92,-227.604 319.087,-201.198 294.099,-187.642"/>
<polygon fill="midnightblue" stroke="midnightblue" points="539.482,-281.808 549.994,-280.49 540.955,-274.965 539.482,-281.808"/>
</g>
<!-- Node27 -->
<g id="node18" class="node"><title>Node27</title>
<g id="a_node18"><a xlink:href="Text_8h.html" target="_top" xlink:title="include/Text.h">
<polygon fill="white" stroke="black" points="554.5,-168.5 554.5,-187.5 632.5,-187.5 632.5,-168.5 554.5,-168.5"/>
<text text-anchor="middle" x="593.5" y="-175.5" font-family="Helvetica,sans-Serif" font-size="10.00">include/Text.h</text>
</a>
</g>
</g>
<!-- Node10&#45;&gt;Node27 -->
<g id="edge48" class="edge"><title>Node10&#45;&gt;Node27</title>
<path fill="none" stroke="midnightblue" d="M593.5,-270.348C593.5,-246.254 593.5,-205.308 593.5,-187.591"/>
<polygon fill="midnightblue" stroke="midnightblue" points="590,-270.368 593.5,-280.368 597,-270.369 590,-270.368"/>
</g>
<!-- Node29 -->
<g id="node20" class="node"><title>Node29</title>
<g id="a_node20"><a xlink:href="Camera_8h.html" target="_top" xlink:title="include/Camera.h">
<polygon fill="white" stroke="black" points="1232,-168.5 1232,-187.5 1325,-187.5 1325,-168.5 1232,-168.5"/>
<text text-anchor="middle" x="1278.5" y="-175.5" font-family="Helvetica,sans-Serif" font-size="10.00">include/Camera.h</text>
</a>
</g>
</g>
<!-- Node10&#45;&gt;Node29 -->
<g id="edge27" class="edge"><title>Node10&#45;&gt;Node29</title>
<path fill="none" stroke="midnightblue" d="M660.535,-285.477C747.374,-280.156 903.194,-268.032 1034.5,-244 1114.92,-229.281 1207.67,-201.51 1252.1,-187.516"/>
<polygon fill="midnightblue" stroke="midnightblue" points="660.065,-281.999 650.293,-286.092 660.485,-288.986 660.065,-281.999"/>
</g>
<!-- Node31 -->
<g id="node22" class="node"><title>Node31</title>
<g id="a_node22"><a xlink:href="GameObject_8cpp.html" target="_top" xlink:title="src/GameObject.cpp">
<polygon fill="white" stroke="black" points="1512,-112.5 1512,-131.5 1619,-131.5 1619,-112.5 1512,-112.5"/>
<text text-anchor="middle" x="1565.5" y="-119.5" font-family="Helvetica,sans-Serif" font-size="10.00">src/GameObject.cpp</text>
</a>
</g>
</g>
<!-- Node10&#45;&gt;Node31 -->
<g id="edge49" class="edge"><title>Node10&#45;&gt;Node31</title>
<path fill="none" stroke="midnightblue" d="M660.518,-285.327C756.718,-279.52 939.353,-266.504 1093.5,-244 1217.35,-225.918 1248.55,-220.202 1369.5,-188 1433.24,-171.029 1506.61,-144.875 1542.84,-131.505"/>
<polygon fill="midnightblue" stroke="midnightblue" points="660.126,-281.844 650.352,-285.933 660.543,-288.832 660.126,-281.844"/>
</g>
<!-- Node33 -->
<g id="node24" class="node"><title>Node33</title>
<g id="a_node24"><a xlink:href="State_8h.html" target="_top" xlink:title="include/State.h">
<polygon fill="white" stroke="black" points="943.5,-224.5 943.5,-243.5 1025.5,-243.5 1025.5,-224.5 943.5,-224.5"/>
<text text-anchor="middle" x="984.5" y="-231.5" font-family="Helvetica,sans-Serif" font-size="10.00">include/State.h</text>
</a>
</g>
</g>
<!-- Node10&#45;&gt;Node33 -->
<g id="edge36" class="edge"><title>Node10&#45;&gt;Node33</title>
<path fill="none" stroke="midnightblue" d="M660.478,-279.75C741.719,-268.53 876.128,-249.967 943.433,-240.672"/>
<polygon fill="midnightblue" stroke="midnightblue" points="659.782,-276.313 650.355,-281.148 660.74,-283.247 659.782,-276.313"/>
</g>
<!-- Node37 -->
<g id="node28" class="node"><title>Node37</title>
<g id="a_node28"><a xlink:href="NearestGOFinder_8h.html" target="_top" xlink:title="include/NearestGOFinder.h">
<polygon fill="white" stroke="black" points="1420,-224.5 1420,-243.5 1555,-243.5 1555,-224.5 1420,-224.5"/>
<text text-anchor="middle" x="1487.5" y="-231.5" font-family="Helvetica,sans-Serif" font-size="10.00">include/NearestGOFinder.h</text>
</a>
</g>
</g>
<!-- Node10&#45;&gt;Node37 -->
<g id="edge46" class="edge"><title>Node10&#45;&gt;Node37</title>
<path fill="none" stroke="midnightblue" d="M660.24,-286.522C799.111,-281.096 1129.23,-266.799 1405.5,-244 1410.21,-243.611 1415.07,-243.173 1419.96,-242.705"/>
<polygon fill="midnightblue" stroke="midnightblue" points="660.034,-283.027 650.177,-286.912 660.306,-290.022 660.034,-283.027"/>
</g>
<!-- Node12 -->
<g id="node3" class="node"><title>Node12</title>
<g id="a_node3"><a xlink:href="Animation_8cpp.html" target="_top" xlink:title="src/Animation.cpp">
<polygon fill="white" stroke="black" points="953,-56.5 953,-75.5 1048,-75.5 1048,-56.5 953,-56.5"/>
<text text-anchor="middle" x="1000.5" y="-63.5" font-family="Helvetica,sans-Serif" font-size="10.00">src/Animation.cpp</text>
</a>
</g>
</g>
<!-- Node11&#45;&gt;Node12 -->
<g id="edge2" class="edge"><title>Node11&#45;&gt;Node12</title>
<path fill="none" stroke="midnightblue" d="M746.339,-110.709C806.323,-100.393 897.489,-84.7153 952.779,-75.2068"/>
<polygon fill="midnightblue" stroke="midnightblue" points="745.516,-107.299 736.254,-112.444 746.703,-114.198 745.516,-107.299"/>
</g>
<!-- Node13&#45;&gt;Node10 -->
<g id="edge4" class="edge"><title>Node13&#45;&gt;Node10</title>
<path fill="none" stroke="midnightblue" d="M512.154,-247.707C534.795,-257.753 563.593,-271.507 580.299,-280.324"/>
<polygon fill="midnightblue" stroke="midnightblue" points="513.446,-244.452 502.881,-243.655 510.642,-250.866 513.446,-244.452"/>
</g>
<!-- Node14 -->
<g id="node5" class="node"><title>Node14</title>
<g id="a_node5"><a xlink:href="Sprite_8h.html" target="_top" xlink:title="include/Sprite.h">
<polygon fill="white" stroke="black" points="650.5,-168.5 650.5,-187.5 734.5,-187.5 734.5,-168.5 650.5,-168.5"/>
<text text-anchor="middle" x="692.5" y="-175.5" font-family="Helvetica,sans-Serif" font-size="10.00">include/Sprite.h</text>
</a>
</g>
</g>
<!-- Node13&#45;&gt;Node14 -->
<g id="edge5" class="edge"><title>Node13&#45;&gt;Node14</title>
<path fill="none" stroke="midnightblue" d="M523.051,-221.959C563.281,-211.76 622.203,-196.822 658.907,-187.516"/>
<polygon fill="midnightblue" stroke="midnightblue" points="522.084,-218.593 513.25,-224.444 523.804,-225.379 522.084,-218.593"/>
</g>
<!-- Node16 -->
<g id="node7" class="node"><title>Node16</title>
<g id="a_node7"><a xlink:href="TileMap_8h.html" target="_top" xlink:title="include/TileMap.h">
<polygon fill="white" stroke="black" points="500,-56.5 500,-75.5 593,-75.5 593,-56.5 500,-56.5"/>
<text text-anchor="middle" x="546.5" y="-63.5" font-family="Helvetica,sans-Serif" font-size="10.00">include/TileMap.h</text>
</a>
</g>
</g>
<!-- Node13&#45;&gt;Node16 -->
<g id="edge15" class="edge"><title>Node13&#45;&gt;Node16</title>
<path fill="none" stroke="midnightblue" d="M491.399,-216.086C496.813,-207.874 503,-197.704 507.5,-188 526.163,-147.754 539.562,-96.1137 544.457,-75.7824"/>
<polygon fill="midnightblue" stroke="midnightblue" points="488.477,-214.159 485.747,-224.396 494.265,-218.096 488.477,-214.159"/>
</g>
<!-- Node17 -->
<g id="node8" class="node"><title>Node17</title>
<g id="a_node8"><a xlink:href="DragAndDrop_8h.html" target="_top" xlink:title="include/DragAndDrop.h">
<polygon fill="white" stroke="black" points="487.5,-0.5 487.5,-19.5 605.5,-19.5 605.5,-0.5 487.5,-0.5"/>
<text text-anchor="middle" x="546.5" y="-7.5" font-family="Helvetica,sans-Serif" font-size="10.00">include/DragAndDrop.h</text>
</a>
</g>
</g>
<!-- Node13&#45;&gt;Node17 -->
<g id="edge14" class="edge"><title>Node13&#45;&gt;Node17</title>
<path fill="none" stroke="midnightblue" d="M430.902,-220.77C414.197,-213.987 397.258,-203.636 387.5,-188 370.334,-160.494 300.958,-172.189 391.5,-56 413.977,-27.1564 453.816,-16.026 487.476,-12.045"/>
<polygon fill="midnightblue" stroke="midnightblue" points="430.062,-224.19 440.655,-224.364 432.482,-217.622 430.062,-224.19"/>
</g>
<!-- Node13&#45;&gt;Node20 -->
<g id="edge12" class="edge"><title>Node13&#45;&gt;Node20</title>
<path fill="none" stroke="midnightblue" d="M414.728,-226.503C338.279,-218.581 207.39,-204.226 95.5,-188 92.7799,-187.606 89.9831,-187.18 87.1651,-186.736"/>
<polygon fill="midnightblue" stroke="midnightblue" points="414.383,-229.985 424.689,-227.53 415.101,-223.022 414.383,-229.985"/>
</g>
<!-- Node13&#45;&gt;Node22 -->
<g id="edge16" class="edge"><title>Node13&#45;&gt;Node22</title>
<path fill="none" stroke="midnightblue" d="M417.593,-222.808C353.789,-212.304 255.753,-196.164 198.186,-186.686"/>
<polygon fill="midnightblue" stroke="midnightblue" points="417.092,-226.272 427.527,-224.444 418.229,-219.365 417.092,-226.272"/>
</g>
<!-- Node13&#45;&gt;Node24 -->
<g id="edge18" class="edge"><title>Node13&#45;&gt;Node24</title>
<path fill="none" stroke="midnightblue" d="M437.919,-221.829C399.969,-211.633 344.69,-196.782 310.2,-187.516"/>
<polygon fill="midnightblue" stroke="midnightblue" points="437.085,-225.229 447.651,-224.444 438.902,-218.469 437.085,-225.229"/>
</g>
<!-- Node13&#45;&gt;Node27 -->
<g id="edge23" class="edge"><title>Node13&#45;&gt;Node27</title>
<path fill="none" stroke="midnightblue" d="M506.742,-220.096C528.04,-210.007 557.042,-196.27 575.521,-187.516"/>
<polygon fill="midnightblue" stroke="midnightblue" points="505.103,-217 497.564,-224.444 508.099,-223.326 505.103,-217"/>
</g>
<!-- Node28 -->
<g id="node19" class="node"><title>Node28</title>
<g id="a_node19"><a xlink:href="Component_8cpp.html" target="_top" xlink:title="src/Component.cpp">
<polygon fill="white" stroke="black" points="396.5,-168.5 396.5,-187.5 498.5,-187.5 498.5,-168.5 396.5,-168.5"/>
<text text-anchor="middle" x="447.5" y="-175.5" font-family="Helvetica,sans-Serif" font-size="10.00">src/Component.cpp</text>
</a>
</g>
</g>
<!-- Node13&#45;&gt;Node28 -->
<g id="edge25" class="edge"><title>Node13&#45;&gt;Node28</title>
<path fill="none" stroke="midnightblue" d="M468.996,-215.275C463.527,-206.045 457.082,-195.17 452.686,-187.751"/>
<polygon fill="midnightblue" stroke="midnightblue" points="466.107,-217.264 474.216,-224.083 472.129,-213.696 466.107,-217.264"/>
</g>
<!-- Node14&#45;&gt;Node11 -->
<g id="edge6" class="edge"><title>Node14&#45;&gt;Node11</title>
<path fill="none" stroke="midnightblue" d="M690.4,-158.101C689.404,-149.136 688.262,-138.858 687.472,-131.751"/>
<polygon fill="midnightblue" stroke="midnightblue" points="686.926,-158.531 691.509,-168.083 693.883,-157.758 686.926,-158.531"/>
</g>
<!-- Node15 -->
<g id="node6" class="node"><title>Node15</title>
<g id="a_node6"><a xlink:href="Tileset_8h.html" target="_top" xlink:title="include/Tileset.h">
<polygon fill="white" stroke="black" points="401.5,-112.5 401.5,-131.5 489.5,-131.5 489.5,-112.5 401.5,-112.5"/>
<text text-anchor="middle" x="445.5" y="-119.5" font-family="Helvetica,sans-Serif" font-size="10.00">include/Tileset.h</text>
</a>
</g>
</g>
<!-- Node14&#45;&gt;Node15 -->
<g id="edge7" class="edge"><title>Node14&#45;&gt;Node15</title>
<path fill="none" stroke="midnightblue" d="M643.473,-166.281C596.796,-156.077 527.469,-140.92 484.455,-131.516"/>
<polygon fill="midnightblue" stroke="midnightblue" points="642.845,-169.727 653.362,-168.444 644.34,-162.888 642.845,-169.727"/>
</g>
<!-- Node19 -->
<g id="node10" class="node"><title>Node19</title>
<g id="a_node10"><a xlink:href="Sprite_8cpp.html" target="_top" xlink:title="src/Sprite.cpp">
<polygon fill="white" stroke="black" points="1105,-112.5 1105,-131.5 1182,-131.5 1182,-112.5 1105,-112.5"/>
<text text-anchor="middle" x="1143.5" y="-119.5" font-family="Helvetica,sans-Serif" font-size="10.00">src/Sprite.cpp</text>
</a>
</g>
</g>
<!-- Node14&#45;&gt;Node19 -->
<g id="edge11" class="edge"><title>Node14&#45;&gt;Node19</title>
<path fill="none" stroke="midnightblue" d="M745.094,-172.382C822.189,-165.329 970.314,-150.699 1095.5,-132 1098.52,-131.549 1101.64,-131.047 1104.77,-130.517"/>
<polygon fill="midnightblue" stroke="midnightblue" points="744.339,-168.936 734.696,-173.327 744.972,-175.908 744.339,-168.936"/>
</g>
<!-- Node15&#45;&gt;Node16 -->
<g id="edge8" class="edge"><title>Node15&#45;&gt;Node16</title>
<path fill="none" stroke="midnightblue" d="M470.583,-107.59C489.257,-97.6052 514.204,-84.2672 530.313,-75.6545"/>
<polygon fill="midnightblue" stroke="midnightblue" points="468.896,-104.522 461.727,-112.324 472.196,-110.696 468.896,-104.522"/>
</g>
<!-- Node18 -->
<g id="node9" class="node"><title>Node18</title>
<g id="a_node9"><a xlink:href="Tileset_8cpp.html" target="_top" xlink:title="src/Tileset.cpp">
<polygon fill="white" stroke="black" points="401,-56.5 401,-75.5 482,-75.5 482,-56.5 401,-56.5"/>
<text text-anchor="middle" x="441.5" y="-63.5" font-family="Helvetica,sans-Serif" font-size="10.00">src/Tileset.cpp</text>
</a>
</g>
</g>
<!-- Node15&#45;&gt;Node18 -->
<g id="edge10" class="edge"><title>Node15&#45;&gt;Node18</title>
<path fill="none" stroke="midnightblue" d="M444.1,-102.101C443.436,-93.1357 442.675,-82.8579 442.148,-75.7511"/>
<polygon fill="midnightblue" stroke="midnightblue" points="440.61,-102.369 444.839,-112.083 447.591,-101.852 440.61,-102.369"/>
</g>
<!-- Node16&#45;&gt;Node17 -->
<g id="edge9" class="edge"><title>Node16&#45;&gt;Node17</title>
<path fill="none" stroke="midnightblue" d="M546.5,-45.8045C546.5,-36.9102 546.5,-26.7798 546.5,-19.7511"/>
<polygon fill="midnightblue" stroke="midnightblue" points="543,-46.083 546.5,-56.083 550,-46.083 543,-46.083"/>
</g>
<!-- Node21 -->
<g id="node12" class="node"><title>Node21</title>
<g id="a_node12"><a xlink:href="Button_8cpp.html" target="_top" xlink:title="src/Button.cpp">
<polygon fill="white" stroke="black" points="70.5,-112.5 70.5,-131.5 150.5,-131.5 150.5,-112.5 70.5,-112.5"/>
<text text-anchor="middle" x="110.5" y="-119.5" font-family="Helvetica,sans-Serif" font-size="10.00">src/Button.cpp</text>
</a>
</g>
</g>
<!-- Node20&#45;&gt;Node21 -->
<g id="edge13" class="edge"><title>Node20&#45;&gt;Node21</title>
<path fill="none" stroke="midnightblue" d="M62.3348,-161.82C74.3384,-152.145 89.4717,-139.948 99.5394,-131.834"/>
<polygon fill="midnightblue" stroke="midnightblue" points="59.8543,-159.324 54.2647,-168.324 64.247,-164.774 59.8543,-159.324"/>
</g>
<!-- Node23 -->
<g id="node14" class="node"><title>Node23</title>
<g id="a_node14"><a xlink:href="Grouper_8cpp.html" target="_top" xlink:title="src/Grouper.cpp">
<polygon fill="white" stroke="black" points="171.5,-112.5 171.5,-131.5 257.5,-131.5 257.5,-112.5 171.5,-112.5"/>
<text text-anchor="middle" x="214.5" y="-119.5" font-family="Helvetica,sans-Serif" font-size="10.00">src/Grouper.cpp</text>
</a>
</g>
</g>
<!-- Node22&#45;&gt;Node23 -->
<g id="edge17" class="edge"><title>Node22&#45;&gt;Node23</title>
<path fill="none" stroke="midnightblue" d="M169.54,-161.537C180.773,-151.909 194.819,-139.869 204.194,-131.834"/>
<polygon fill="midnightblue" stroke="midnightblue" points="166.937,-159.159 161.622,-168.324 171.492,-164.473 166.937,-159.159"/>
</g>
<!-- Node24&#45;&gt;Node21 -->
<g id="edge19" class="edge"><title>Node24&#45;&gt;Node21</title>
<path fill="none" stroke="midnightblue" d="M242.114,-165.304C210.458,-155.129 165.332,-140.625 136.996,-131.516"/>
<polygon fill="midnightblue" stroke="midnightblue" points="241.289,-168.715 251.88,-168.444 243.431,-162.051 241.289,-168.715"/>
</g>
<!-- Node24&#45;&gt;Node23 -->
<g id="edge20" class="edge"><title>Node24&#45;&gt;Node23</title>
<path fill="none" stroke="midnightblue" d="M260.509,-161.82C249.042,-152.145 234.587,-139.948 224.97,-131.834"/>
<polygon fill="midnightblue" stroke="midnightblue" points="258.317,-164.55 268.217,-168.324 262.831,-159.2 258.317,-164.55"/>
</g>
<!-- Node25 -->
<g id="node16" class="node"><title>Node25</title>
<g id="a_node16"><a xlink:href="RectTransform_8cpp.html" target="_top" xlink:title="src/RectTransform.cpp">
<polygon fill="white" stroke="black" points="756,-112.5 756,-131.5 873,-131.5 873,-112.5 756,-112.5"/>
<text text-anchor="middle" x="814.5" y="-119.5" font-family="Helvetica,sans-Serif" font-size="10.00">src/RectTransform.cpp</text>
</a>
</g>
</g>
<!-- Node24&#45;&gt;Node25 -->
<g id="edge21" class="edge"><title>Node24&#45;&gt;Node25</title>
<path fill="none" stroke="midnightblue" d="M350.688,-170.865C442.688,-162.861 606.581,-147.981 746.5,-132 749.576,-131.649 752.729,-131.276 755.911,-130.89"/>
<polygon fill="midnightblue" stroke="midnightblue" points="350.31,-167.384 340.65,-171.736 350.915,-174.358 350.31,-167.384"/>
</g>
<!-- Node26 -->
<g id="node17" class="node"><title>Node26</title>
<g id="a_node17"><a xlink:href="Text_8cpp.html" target="_top" xlink:title="src/Text.cpp">
<polygon fill="white" stroke="black" points="546,-112.5 546,-131.5 617,-131.5 617,-112.5 546,-112.5"/>
<text text-anchor="middle" x="581.5" y="-119.5" font-family="Helvetica,sans-Serif" font-size="10.00">src/Text.cpp</text>
</a>
</g>
</g>
<!-- Node24&#45;&gt;Node26 -->
<g id="edge22" class="edge"><title>Node24&#45;&gt;Node26</title>
<path fill="none" stroke="midnightblue" d="M336.49,-166.665C398.215,-155.665 493.948,-138.603 545.574,-129.403"/>
<polygon fill="midnightblue" stroke="midnightblue" points="335.742,-163.243 326.511,-168.444 336.97,-170.135 335.742,-163.243"/>
</g>
<!-- Node27&#45;&gt;Node26 -->
<g id="edge24" class="edge"><title>Node27&#45;&gt;Node26</title>
<path fill="none" stroke="midnightblue" d="M589.3,-158.101C587.308,-149.136 585.024,-138.858 583.445,-131.751"/>
<polygon fill="midnightblue" stroke="midnightblue" points="585.932,-159.08 591.518,-168.083 592.766,-157.562 585.932,-159.08"/>
</g>
<!-- Node29&#45;&gt;Node12 -->
<g id="edge30" class="edge"><title>Node29&#45;&gt;Node12</title>
<path fill="none" stroke="midnightblue" d="M1302.08,-162.68C1321.31,-149.238 1343.11,-128.748 1328.5,-112 1292.7,-70.957 1130.18,-66.0193 1048.15,-66.2235"/>
<polygon fill="midnightblue" stroke="midnightblue" points="1299.96,-159.882 1293.56,-168.322 1303.83,-165.718 1299.96,-159.882"/>
</g>
<!-- Node29&#45;&gt;Node16 -->
<g id="edge28" class="edge"><title>Node29&#45;&gt;Node16</title>
<path fill="none" stroke="midnightblue" d="M1290.84,-159.619C1299.5,-145.116 1307.57,-124.817 1295.5,-112 1271.34,-86.3498 752.945,-71.912 593.043,-68.057"/>
<polygon fill="midnightblue" stroke="midnightblue" points="1287.79,-157.885 1285.27,-168.175 1293.66,-161.703 1287.79,-157.885"/>
</g>
<!-- Node29&#45;&gt;Node17 -->
<g id="edge29" class="edge"><title>Node29&#45;&gt;Node17</title>
<path fill="none" stroke="midnightblue" d="M1308.52,-163.937C1333.17,-151.39 1361.59,-131.511 1345.5,-112 1298.4,-54.9007 782.563,-23.159 605.643,-13.8917"/>
<polygon fill="midnightblue" stroke="midnightblue" points="1306.83,-160.864 1299.36,-168.371 1309.88,-167.165 1306.83,-160.864"/>
</g>
<!-- Node29&#45;&gt;Node19 -->
<g id="edge34" class="edge"><title>Node29&#45;&gt;Node19</title>
<path fill="none" stroke="midnightblue" d="M1247.59,-164.638C1222.26,-154.504 1187.07,-140.427 1164.79,-131.516"/>
<polygon fill="midnightblue" stroke="midnightblue" points="1246.52,-167.979 1257.11,-168.444 1249.12,-161.48 1246.52,-167.979"/>
</g>
<!-- Node29&#45;&gt;Node25 -->
<g id="edge33" class="edge"><title>Node29&#45;&gt;Node25</title>
<path fill="none" stroke="midnightblue" d="M1221.87,-170.897C1144.98,-162.534 1003.27,-146.853 882.5,-132 879.427,-131.622 876.277,-131.228 873.097,-130.825"/>
<polygon fill="midnightblue" stroke="midnightblue" points="1221.51,-174.378 1231.83,-171.979 1222.27,-167.419 1221.51,-174.378"/>
</g>
<!-- Node30 -->
<g id="node21" class="node"><title>Node30</title>
<g id="a_node21"><a xlink:href="Camera_8cpp.html" target="_top" xlink:title="src/Camera.cpp">
<polygon fill="white" stroke="black" points="1200.5,-112.5 1200.5,-131.5 1286.5,-131.5 1286.5,-112.5 1200.5,-112.5"/>
<text text-anchor="middle" x="1243.5" y="-119.5" font-family="Helvetica,sans-Serif" font-size="10.00">src/Camera.cpp</text>
</a>
</g>
</g>
<!-- Node29&#45;&gt;Node30 -->
<g id="edge31" class="edge"><title>Node29&#45;&gt;Node30</title>
<path fill="none" stroke="midnightblue" d="M1267.2,-159.566C1261.18,-150.275 1254.03,-139.248 1249.17,-131.751"/>
<polygon fill="midnightblue" stroke="midnightblue" points="1264.34,-161.595 1272.72,-168.083 1270.22,-157.788 1264.34,-161.595"/>
</g>
<!-- Node29&#45;&gt;Node31 -->
<g id="edge32" class="edge"><title>Node29&#45;&gt;Node31</title>
<path fill="none" stroke="midnightblue" d="M1334.11,-166.537C1388.35,-156.332 1469.84,-140.999 1520.24,-131.516"/>
<polygon fill="midnightblue" stroke="midnightblue" points="1333.16,-163.155 1323.98,-168.444 1334.45,-170.034 1333.16,-163.155"/>
</g>
<!-- Node32 -->
<g id="node23" class="node"><title>Node32</title>
<g id="a_node23"><a xlink:href="State_8cpp.html" target="_top" xlink:title="src/State.cpp">
<polygon fill="white" stroke="black" points="1419,-112.5 1419,-131.5 1494,-131.5 1494,-112.5 1419,-112.5"/>
<text text-anchor="middle" x="1456.5" y="-119.5" font-family="Helvetica,sans-Serif" font-size="10.00">src/State.cpp</text>
</a>
</g>
</g>
<!-- Node29&#45;&gt;Node32 -->
<g id="edge35" class="edge"><title>Node29&#45;&gt;Node32</title>
<path fill="none" stroke="midnightblue" d="M1316.62,-165.436C1350.18,-155.255 1398.27,-140.664 1428.43,-131.516"/>
<polygon fill="midnightblue" stroke="midnightblue" points="1315.26,-162.191 1306.7,-168.444 1317.29,-168.89 1315.26,-162.191"/>
</g>
<!-- Node33&#45;&gt;Node32 -->
<g id="edge44" class="edge"><title>Node33&#45;&gt;Node32</title>
<path fill="none" stroke="midnightblue" d="M1035.74,-232.077C1104.88,-229.562 1231.17,-220.463 1333.5,-188 1355.72,-180.952 1414.34,-147.587 1441.86,-131.592"/>
<polygon fill="midnightblue" stroke="midnightblue" points="1035.43,-228.585 1025.55,-232.414 1035.66,-235.581 1035.43,-228.585"/>
</g>
<!-- Node34 -->
<g id="node25" class="node"><title>Node34</title>
<g id="a_node25"><a xlink:href="Game_8h.html" target="_top" xlink:title="include/Game.h">
<polygon fill="white" stroke="black" points="942,-168.5 942,-187.5 1027,-187.5 1027,-168.5 942,-168.5"/>
<text text-anchor="middle" x="984.5" y="-175.5" font-family="Helvetica,sans-Serif" font-size="10.00">include/Game.h</text>
</a>
</g>
</g>
<!-- Node33&#45;&gt;Node34 -->
<g id="edge37" class="edge"><title>Node33&#45;&gt;Node34</title>
<path fill="none" stroke="midnightblue" d="M984.5,-213.805C984.5,-204.91 984.5,-194.78 984.5,-187.751"/>
<polygon fill="midnightblue" stroke="midnightblue" points="981,-214.083 984.5,-224.083 988,-214.083 981,-214.083"/>
</g>
<!-- Node34&#45;&gt;Node19 -->
<g id="edge42" class="edge"><title>Node34&#45;&gt;Node19</title>
<path fill="none" stroke="midnightblue" d="M1019.33,-165.172C1049.27,-155.004 1091.72,-140.585 1118.42,-131.516"/>
<polygon fill="midnightblue" stroke="midnightblue" points="1018.04,-161.914 1009.69,-168.444 1020.29,-168.542 1018.04,-161.914"/>
</g>
<!-- Node34&#45;&gt;Node25 -->
<g id="edge40" class="edge"><title>Node34&#45;&gt;Node25</title>
<path fill="none" stroke="midnightblue" d="M947.681,-165.304C915.648,-155.129 869.985,-140.625 841.311,-131.516"/>
<polygon fill="midnightblue" stroke="midnightblue" points="946.973,-168.752 957.563,-168.444 949.092,-162.08 946.973,-168.752"/>
</g>
<!-- Node34&#45;&gt;Node26 -->
<g id="edge43" class="edge"><title>Node34&#45;&gt;Node26</title>
<path fill="none" stroke="midnightblue" d="M931.604,-171.562C861.595,-164.087 734.417,-149.551 626.5,-132 623.512,-131.514 620.419,-130.974 617.319,-130.407"/>
<polygon fill="midnightblue" stroke="midnightblue" points="931.61,-175.082 941.923,-172.656 932.348,-168.121 931.61,-175.082"/>
</g>
<!-- Node34&#45;&gt;Node30 -->
<g id="edge38" class="edge"><title>Node34&#45;&gt;Node30</title>
<path fill="none" stroke="midnightblue" d="M1035.6,-166.346C1084.55,-156.141 1157.45,-140.94 1202.65,-131.516"/>
<polygon fill="midnightblue" stroke="midnightblue" points="1034.61,-162.976 1025.54,-168.444 1036.04,-169.829 1034.61,-162.976"/>
</g>
<!-- Node35 -->
<g id="node26" class="node"><title>Node35</title>
<g id="a_node26"><a xlink:href="Game_8cpp.html" target="_top" xlink:title="src/Game.cpp">
<polygon fill="white" stroke="black" points="891.5,-112.5 891.5,-131.5 969.5,-131.5 969.5,-112.5 891.5,-112.5"/>
<text text-anchor="middle" x="930.5" y="-119.5" font-family="Helvetica,sans-Serif" font-size="10.00">src/Game.cpp</text>
</a>
</g>
</g>
<!-- Node34&#45;&gt;Node35 -->
<g id="edge39" class="edge"><title>Node34&#45;&gt;Node35</title>
<path fill="none" stroke="midnightblue" d="M968.502,-161.002C958.933,-151.433 947.139,-139.639 939.251,-131.751"/>
<polygon fill="midnightblue" stroke="midnightblue" points="966.037,-163.487 975.583,-168.083 970.987,-158.537 966.037,-163.487"/>
</g>
<!-- Node36 -->
<g id="node27" class="node"><title>Node36</title>
<g id="a_node27"><a xlink:href="Resources_8cpp.html" target="_top" xlink:title="src/Resources.cpp">
<polygon fill="white" stroke="black" points="988,-112.5 988,-131.5 1087,-131.5 1087,-112.5 988,-112.5"/>
<text text-anchor="middle" x="1037.5" y="-119.5" font-family="Helvetica,sans-Serif" font-size="10.00">src/Resources.cpp</text>
</a>
</g>
</g>
<!-- Node34&#45;&gt;Node36 -->
<g id="edge41" class="edge"><title>Node34&#45;&gt;Node36</title>
<path fill="none" stroke="midnightblue" d="M1000.48,-160.718C1009.82,-151.2 1021.25,-139.561 1028.91,-131.751"/>
<polygon fill="midnightblue" stroke="midnightblue" points="997.759,-158.494 993.252,-168.083 1002.75,-163.398 997.759,-158.494"/>
</g>
</g>
</svg>
