<?xml version="1.0" encoding="UTF-8" standalone="no"?>
<!DOCTYPE svg PUBLIC "-//W3C//DTD SVG 1.1//EN"
 "http://www.w3.org/Graphics/SVG/1.1/DTD/svg11.dtd">
<!-- Generated by graphviz version 2.40.1 (20161225.0304)
 -->
<!-- Title: src/Game.cpp Pages: 1 -->
<svg width="877pt" height="364pt"
 viewBox="0.00 0.00 877.00 364.00" xmlns="http://www.w3.org/2000/svg" xmlns:xlink="http://www.w3.org/1999/xlink">
<g id="graph0" class="graph" transform="scale(1 1) rotate(0) translate(4 360)">
<title>src/Game.cpp</title>
<polygon fill="#ffffff" stroke="transparent" points="-4,4 -4,-360 873,-360 873,4 -4,4"/>
<!-- Node0 -->
<g id="node1" class="node">
<title>Node0</title>
<polygon fill="#bfbfbf" stroke="#000000" points="594,-336.5 594,-355.5 672,-355.5 672,-336.5 594,-336.5"/>
<text text-anchor="middle" x="633" y="-343.5" font-family="Helvetica,sans-Serif" font-size="10.00" fill="#000000">src/Game.cpp</text>
</g>
<!-- Node1 -->
<g id="node2" class="node">
<title>Node1</title>
<g id="a_node2"><a xlink:href="Game_8h.html" target="_top" xlink:title="Game.h">
<polygon fill="#ffffff" stroke="#000000" points="292.5,-280.5 292.5,-299.5 343.5,-299.5 343.5,-280.5 292.5,-280.5"/>
<text text-anchor="middle" x="318" y="-287.5" font-family="Helvetica,sans-Serif" font-size="10.00" fill="#000000">Game.h</text>
</a>
</g>
</g>
<!-- Node0&#45;&gt;Node1 -->
<g id="edge1" class="edge">
<title>Node0&#45;&gt;Node1</title>
<path fill="none" stroke="#191970" d="M593.7419,-339.0208C531.9755,-328.0401 413.0338,-306.8949 353.6093,-296.3305"/>
<polygon fill="#191970" stroke="#191970" points="354.0327,-292.851 343.5744,-294.5466 352.8074,-299.7429 354.0327,-292.851"/>
</g>
<!-- Node14 -->
<g id="node15" class="node">
<title>Node14</title>
<g id="a_node15"><a xlink:href="Resources_8h.html" target="_top" xlink:title="Resources.h">
<polygon fill="#ffffff" stroke="#000000" points="218,-168.5 218,-187.5 290,-187.5 290,-168.5 218,-168.5"/>
<text text-anchor="middle" x="254" y="-175.5" font-family="Helvetica,sans-Serif" font-size="10.00" fill="#000000">Resources.h</text>
</a>
</g>
</g>
<!-- Node0&#45;&gt;Node14 -->
<g id="edge40" class="edge">
<title>Node0&#45;&gt;Node14</title>
<path fill="none" stroke="#191970" d="M593.8521,-344.5436C513.9868,-340.9836 335.3885,-329.8395 283,-300 255.4961,-284.3343 249.3461,-273.9138 239,-244 233.6132,-228.4251 238.6309,-210.1063 244.2696,-196.7249"/>
<polygon fill="#191970" stroke="#191970" points="247.4794,-198.1231 248.5406,-187.5816 241.1372,-195.1605 247.4794,-198.1231"/>
</g>
<!-- Node18 -->
<g id="node19" class="node">
<title>Node18</title>
<polygon fill="#ffffff" stroke="#bfbfbf" points="749,-224.5 749,-243.5 797,-243.5 797,-224.5 749,-224.5"/>
<text text-anchor="middle" x="773" y="-231.5" font-family="Helvetica,sans-Serif" font-size="10.00" fill="#000000">stdlib.h</text>
</g>
<!-- Node0&#45;&gt;Node18 -->
<g id="edge35" class="edge">
<title>Node0&#45;&gt;Node18</title>
<path fill="none" stroke="#191970" d="M644.9363,-336.4509C669.0099,-317.1921 723.5977,-273.5218 753.1331,-249.8935"/>
<polygon fill="#191970" stroke="#191970" points="755.4716,-252.5049 761.0939,-243.5249 751.0987,-247.0388 755.4716,-252.5049"/>
</g>
<!-- Node19 -->
<g id="node20" class="node">
<title>Node19</title>
<polygon fill="#ffffff" stroke="#bfbfbf" points="805,-280.5 805,-299.5 849,-299.5 849,-280.5 805,-280.5"/>
<text text-anchor="middle" x="827" y="-287.5" font-family="Helvetica,sans-Serif" font-size="10.00" fill="#000000">time.h</text>
</g>
<!-- Node0&#45;&gt;Node19 -->
<g id="edge36" class="edge">
<title>Node0&#45;&gt;Node19</title>
<path fill="none" stroke="#191970" d="M668.4036,-336.415C699.427,-327.9258 745.9596,-314.9764 794.87,-300.2723"/>
<polygon fill="#191970" stroke="#191970" points="796.1193,-303.5512 804.6799,-297.3089 794.095,-296.8503 796.1193,-303.5512"/>
</g>
<!-- Node20 -->
<g id="node21" class="node">
<title>Node20</title>
<g id="a_node21"><a xlink:href="Error_8h.html" target="_top" xlink:title="Error.h">
<polygon fill="#ffffff" stroke="#000000" points="741,-280.5 741,-299.5 787,-299.5 787,-280.5 741,-280.5"/>
<text text-anchor="middle" x="764" y="-287.5" font-family="Helvetica,sans-Serif" font-size="10.00" fill="#000000">Error.h</text>
</a>
</g>
</g>
<!-- Node0&#45;&gt;Node20 -->
<g id="edge37" class="edge">
<title>Node0&#45;&gt;Node20</title>
<path fill="none" stroke="#191970" d="M655.5197,-336.3733C676.7372,-327.3032 708.7276,-313.6279 732.4769,-303.4755"/>
<polygon fill="#191970" stroke="#191970" points="733.9548,-306.6502 741.7742,-299.5011 731.2033,-300.2136 733.9548,-306.6502"/>
</g>
<!-- Node22 -->
<g id="node23" class="node">
<title>Node22</title>
<g id="a_node23"><a xlink:href="Threading_8h.html" target="_top" xlink:title="Threading.h">
<polygon fill="#ffffff" stroke="#000000" points="568,-280.5 568,-299.5 636,-299.5 636,-280.5 568,-280.5"/>
<text text-anchor="middle" x="602" y="-287.5" font-family="Helvetica,sans-Serif" font-size="10.00" fill="#000000">Threading.h</text>
</a>
</g>
</g>
<!-- Node0&#45;&gt;Node22 -->
<g id="edge41" class="edge">
<title>Node0&#45;&gt;Node22</title>
<path fill="none" stroke="#191970" d="M627.6002,-336.2455C623.3773,-328.617 617.3827,-317.7881 612.2559,-308.5267"/>
<polygon fill="#191970" stroke="#191970" points="615.2432,-306.6965 607.3379,-299.6427 609.119,-310.0867 615.2432,-306.6965"/>
</g>
<!-- Node2 -->
<g id="node3" class="node">
<title>Node2</title>
<polygon fill="#ffffff" stroke="#bfbfbf" points="335.5,-112.5 335.5,-131.5 376.5,-131.5 376.5,-112.5 335.5,-112.5"/>
<text text-anchor="middle" x="356" y="-119.5" font-family="Helvetica,sans-Serif" font-size="10.00" fill="#000000">string</text>
</g>
<!-- Node1&#45;&gt;Node2 -->
<g id="edge2" class="edge">
<title>Node1&#45;&gt;Node2</title>
<path fill="none" stroke="#191970" d="M320.1519,-280.4862C326.1848,-253.8144 343.3533,-177.9117 351.5452,-141.695"/>
<polygon fill="#191970" stroke="#191970" points="354.9845,-142.3537 353.777,-131.8279 348.157,-140.8093 354.9845,-142.3537"/>
</g>
<!-- Node3 -->
<g id="node4" class="node">
<title>Node3</title>
<polygon fill="#ffffff" stroke="#bfbfbf" points="248.5,-224.5 248.5,-243.5 289.5,-243.5 289.5,-224.5 248.5,-224.5"/>
<text text-anchor="middle" x="269" y="-231.5" font-family="Helvetica,sans-Serif" font-size="10.00" fill="#000000">stack</text>
</g>
<!-- Node1&#45;&gt;Node3 -->
<g id="edge3" class="edge">
<title>Node1&#45;&gt;Node3</title>
<path fill="none" stroke="#191970" d="M309.4649,-280.2455C302.5088,-272.2958 292.5117,-260.8706 284.1949,-251.3656"/>
<polygon fill="#191970" stroke="#191970" points="286.6564,-248.8637 277.4373,-243.6427 281.3884,-253.4732 286.6564,-248.8637"/>
</g>
<!-- Node4 -->
<g id="node5" class="node">
<title>Node4</title>
<g id="a_node5"><a xlink:href="State_8h.html" target="_top" xlink:title="State.h">
<polygon fill="#ffffff" stroke="#000000" points="384,-224.5 384,-243.5 432,-243.5 432,-224.5 384,-224.5"/>
<text text-anchor="middle" x="408" y="-231.5" font-family="Helvetica,sans-Serif" font-size="10.00" fill="#000000">State.h</text>
</a>
</g>
</g>
<!-- Node1&#45;&gt;Node4 -->
<g id="edge4" class="edge">
<title>Node1&#45;&gt;Node4</title>
<path fill="none" stroke="#191970" d="M333.6768,-280.2455C347.4856,-271.6534 367.8193,-259.0014 383.7292,-249.1018"/>
<polygon fill="#191970" stroke="#191970" points="385.8613,-251.8974 392.5028,-243.6427 382.1632,-245.954 385.8613,-251.8974"/>
</g>
<!-- Node7 -->
<g id="node8" class="node">
<title>Node7</title>
<g id="a_node8"><a xlink:href="InputManager_8h.html" target="_top" xlink:title="InputManager.h">
<polygon fill="#ffffff" stroke="#000000" points="116,-168.5 116,-187.5 200,-187.5 200,-168.5 116,-168.5"/>
<text text-anchor="middle" x="158" y="-175.5" font-family="Helvetica,sans-Serif" font-size="10.00" fill="#000000">InputManager.h</text>
</a>
</g>
</g>
<!-- Node1&#45;&gt;Node7 -->
<g id="edge32" class="edge">
<title>Node1&#45;&gt;Node7</title>
<path fill="none" stroke="#191970" d="M299.6212,-280.3646C283.2843,-271.5524 258.9656,-257.8209 239,-244 216.3925,-228.3502 192.1595,-208.0944 176.1518,-194.1735"/>
<polygon fill="#191970" stroke="#191970" points="178.407,-191.496 168.5827,-187.5293 173.789,-196.7567 178.407,-191.496"/>
</g>
<!-- Node8 -->
<g id="node9" class="node">
<title>Node8</title>
<g id="a_node9"><a xlink:href="SDL__include_8h.html" target="_top" xlink:title="SDL_include.h">
<polygon fill="#ffffff" stroke="#000000" points="207,-.5 207,-19.5 287,-19.5 287,-.5 207,-.5"/>
<text text-anchor="middle" x="247" y="-7.5" font-family="Helvetica,sans-Serif" font-size="10.00" fill="#000000">SDL_include.h</text>
</a>
</g>
</g>
<!-- Node1&#45;&gt;Node8 -->
<g id="edge34" class="edge">
<title>Node1&#45;&gt;Node8</title>
<path fill="none" stroke="#191970" d="M292.2461,-286.5969C216.5412,-275.8807 0,-239.8249 0,-178 0,-178 0,-178 0,-122 0,-73.8193 42.9661,-77.6671 86,-56 121.1779,-38.2883 164.2156,-26.4398 196.9407,-19.2093"/>
<polygon fill="#191970" stroke="#191970" points="197.6988,-22.6264 206.7455,-17.1122 196.2347,-15.7812 197.6988,-22.6264"/>
</g>
<!-- Node9 -->
<g id="node10" class="node">
<title>Node9</title>
<g id="a_node10"><a xlink:href="Vec2_8h.html" target="_top" xlink:title="Vec2.h">
<polygon fill="#ffffff" stroke="#000000" points="270.5,-112.5 270.5,-131.5 317.5,-131.5 317.5,-112.5 270.5,-112.5"/>
<text text-anchor="middle" x="294" y="-119.5" font-family="Helvetica,sans-Serif" font-size="10.00" fill="#000000">Vec2.h</text>
</a>
</g>
</g>
<!-- Node1&#45;&gt;Node9 -->
<g id="edge33" class="edge">
<title>Node1&#45;&gt;Node9</title>
<path fill="none" stroke="#191970" d="M316.6409,-280.4862C312.847,-253.9293 302.0807,-178.5651 296.8808,-142.1655"/>
<polygon fill="#191970" stroke="#191970" points="300.2831,-141.2324 295.404,-131.8279 293.3535,-142.2224 300.2831,-141.2324"/>
</g>
<!-- Node5 -->
<g id="node6" class="node">
<title>Node5</title>
<polygon fill="#ffffff" stroke="#bfbfbf" points="465,-112.5 465,-131.5 509,-131.5 509,-112.5 465,-112.5"/>
<text text-anchor="middle" x="487" y="-119.5" font-family="Helvetica,sans-Serif" font-size="10.00" fill="#000000">vector</text>
</g>
<!-- Node4&#45;&gt;Node5 -->
<g id="edge5" class="edge">
<title>Node4&#45;&gt;Node5</title>
<path fill="none" stroke="#191970" d="M414.7355,-224.4509C427.9701,-205.688 457.548,-163.7548 474.4743,-139.758"/>
<polygon fill="#191970" stroke="#191970" points="477.3776,-141.714 480.2816,-131.5249 471.6574,-137.6792 477.3776,-141.714"/>
</g>
<!-- Node6 -->
<g id="node7" class="node">
<title>Node6</title>
<polygon fill="#ffffff" stroke="#bfbfbf" points="395,-112.5 395,-131.5 447,-131.5 447,-112.5 395,-112.5"/>
<text text-anchor="middle" x="421" y="-119.5" font-family="Helvetica,sans-Serif" font-size="10.00" fill="#000000">memory</text>
</g>
<!-- Node4&#45;&gt;Node6 -->
<g id="edge6" class="edge">
<title>Node4&#45;&gt;Node6</title>
<path fill="none" stroke="#191970" d="M409.1084,-224.4509C411.2286,-206.184 415.898,-165.9553 418.7137,-141.6976"/>
<polygon fill="#191970" stroke="#191970" points="422.218,-141.8618 419.8944,-131.5249 415.2647,-141.0546 422.218,-141.8618"/>
</g>
<!-- Node4&#45;&gt;Node7 -->
<g id="edge7" class="edge">
<title>Node4&#45;&gt;Node7</title>
<path fill="none" stroke="#191970" d="M383.5738,-228.5285C343.6366,-219.5826 263.4906,-201.6299 210.2869,-189.7123"/>
<polygon fill="#191970" stroke="#191970" points="210.8771,-186.2578 200.3538,-187.4873 209.3469,-193.0885 210.8771,-186.2578"/>
</g>
<!-- Node4&#45;&gt;Node14 -->
<g id="edge17" class="edge">
<title>Node4&#45;&gt;Node14</title>
<path fill="none" stroke="#191970" d="M383.9375,-225.25C358.7385,-216.0867 318.8789,-201.5923 289.9471,-191.0717"/>
<polygon fill="#191970" stroke="#191970" points="290.8053,-187.6596 280.2112,-187.5314 288.413,-194.2381 290.8053,-187.6596"/>
</g>
<!-- Node15 -->
<g id="node16" class="node">
<title>Node15</title>
<g id="a_node16"><a xlink:href="GameObject_8h.html" target="_top" xlink:title="GameObject.h">
<polygon fill="#ffffff" stroke="#000000" points="467,-168.5 467,-187.5 547,-187.5 547,-168.5 467,-168.5"/>
<text text-anchor="middle" x="507" y="-175.5" font-family="Helvetica,sans-Serif" font-size="10.00" fill="#000000">GameObject.h</text>
</a>
</g>
</g>
<!-- Node4&#45;&gt;Node15 -->
<g id="edge22" class="edge">
<title>Node4&#45;&gt;Node15</title>
<path fill="none" stroke="#191970" d="M425.2445,-224.2455C440.5761,-215.5731 463.2199,-202.7645 480.7916,-192.825"/>
<polygon fill="#191970" stroke="#191970" points="482.9724,-195.6126 489.9531,-187.6427 479.5259,-189.5198 482.9724,-195.6126"/>
</g>
<!-- Node7&#45;&gt;Node8 -->
<g id="edge8" class="edge">
<title>Node7&#45;&gt;Node8</title>
<path fill="none" stroke="#191970" d="M116.1276,-168.4924C81.4006,-158.4168 40.2262,-140.0429 57,-112 87.1692,-61.5622 151.7831,-34.6276 197.2538,-21.3374"/>
<polygon fill="#191970" stroke="#191970" points="198.2461,-24.6943 206.9327,-18.6284 196.3594,-17.9533 198.2461,-24.6943"/>
</g>
<!-- Node7&#45;&gt;Node9 -->
<g id="edge9" class="edge">
<title>Node7&#45;&gt;Node9</title>
<path fill="none" stroke="#191970" d="M181.3792,-168.3733C203.5045,-159.2629 236.9134,-145.5062 261.6019,-135.3404"/>
<polygon fill="#191970" stroke="#191970" points="263.0117,-138.5451 270.9258,-131.5011 260.3464,-132.0723 263.0117,-138.5451"/>
</g>
<!-- Node12 -->
<g id="node13" class="node">
<title>Node12</title>
<polygon fill="#ffffff" stroke="#bfbfbf" points="130.5,-112.5 130.5,-131.5 213.5,-131.5 213.5,-112.5 130.5,-112.5"/>
<text text-anchor="middle" x="172" y="-119.5" font-family="Helvetica,sans-Serif" font-size="10.00" fill="#000000">unordered_map</text>
</g>
<!-- Node7&#45;&gt;Node12 -->
<g id="edge15" class="edge">
<title>Node7&#45;&gt;Node12</title>
<path fill="none" stroke="#191970" d="M160.4386,-168.2455C162.2855,-160.8579 164.8828,-150.4689 167.1478,-141.4087"/>
<polygon fill="#191970" stroke="#191970" points="170.5594,-142.193 169.5893,-131.6427 163.7684,-140.4952 170.5594,-142.193"/>
</g>
<!-- Node13 -->
<g id="node14" class="node">
<title>Node13</title>
<polygon fill="#ffffff" stroke="#bfbfbf" points="66,-112.5 66,-131.5 112,-131.5 112,-112.5 66,-112.5"/>
<text text-anchor="middle" x="89" y="-119.5" font-family="Helvetica,sans-Serif" font-size="10.00" fill="#000000">cstdint</text>
</g>
<!-- Node7&#45;&gt;Node13 -->
<g id="edge16" class="edge">
<title>Node7&#45;&gt;Node13</title>
<path fill="none" stroke="#191970" d="M145.9811,-168.2455C135.7902,-159.9746 120.9638,-147.9416 108.9893,-138.2232"/>
<polygon fill="#191970" stroke="#191970" points="110.8514,-135.2268 100.8812,-131.6427 106.4402,-140.662 110.8514,-135.2268"/>
</g>
<!-- Node9&#45;&gt;Node8 -->
<g id="edge10" class="edge">
<title>Node9&#45;&gt;Node8</title>
<path fill="none" stroke="#191970" d="M289.9928,-112.4509C282.2578,-94.0186 265.1392,-53.2254 254.9913,-29.043"/>
<polygon fill="#191970" stroke="#191970" points="258.094,-27.3915 250.9971,-19.5249 251.6393,-30.1002 258.094,-27.3915"/>
</g>
<!-- Node10 -->
<g id="node11" class="node">
<title>Node10</title>
<g id="a_node11"><a xlink:href="Rect_8h.html" target="_top" xlink:title="Rect.h">
<polygon fill="#ffffff" stroke="#000000" points="308,-56.5 308,-75.5 354,-75.5 354,-56.5 308,-56.5"/>
<text text-anchor="middle" x="331" y="-63.5" font-family="Helvetica,sans-Serif" font-size="10.00" fill="#000000">Rect.h</text>
</a>
</g>
</g>
<!-- Node9&#45;&gt;Node10 -->
<g id="edge11" class="edge">
<title>Node9&#45;&gt;Node10</title>
<path fill="none" stroke="#191970" d="M295.1781,-112.2455C298.8579,-104.3761 305.9556,-93.101 313.0131,-83.6542"/>
<polygon fill="#191970" stroke="#191970" points="315.8992,-85.6481 319.3838,-75.6427 310.4203,-81.2913 315.8992,-85.6481"/>
</g>
<!-- Node10&#45;&gt;Node8 -->
<g id="edge12" class="edge">
<title>Node10&#45;&gt;Node8</title>
<path fill="none" stroke="#191970" d="M316.3683,-56.2455C303.6006,-47.7337 284.8562,-35.2375 270.0701,-25.3801"/>
<polygon fill="#191970" stroke="#191970" points="271.726,-22.2775 261.464,-19.6427 267.8431,-28.1019 271.726,-22.2775"/>
</g>
<!-- Node10&#45;&gt;Node9 -->
<g id="edge13" class="edge">
<title>Node10&#45;&gt;Node9</title>
<path fill="none" stroke="#191970" d="M329.8741,-75.6427C326.2267,-83.4797 319.1451,-94.7472 312.0874,-104.2112"/>
<polygon fill="#191970" stroke="#191970" points="309.1862,-102.2366 305.7118,-112.2455 314.6695,-106.5879 309.1862,-102.2366"/>
</g>
<!-- Node11 -->
<g id="node12" class="node">
<title>Node11</title>
<polygon fill="#ffffff" stroke="#bfbfbf" points="309,-.5 309,-19.5 353,-19.5 353,-.5 309,-.5"/>
<text text-anchor="middle" x="331" y="-7.5" font-family="Helvetica,sans-Serif" font-size="10.00" fill="#000000">cmath</text>
</g>
<!-- Node10&#45;&gt;Node11 -->
<g id="edge14" class="edge">
<title>Node10&#45;&gt;Node11</title>
<path fill="none" stroke="#191970" d="M331,-56.2455C331,-48.9382 331,-38.6944 331,-29.7046"/>
<polygon fill="#191970" stroke="#191970" points="334.5001,-29.6426 331,-19.6427 327.5001,-29.6427 334.5001,-29.6426"/>
</g>
<!-- Node14&#45;&gt;Node2 -->
<g id="edge19" class="edge">
<title>Node14&#45;&gt;Node2</title>
<path fill="none" stroke="#191970" d="M271.767,-168.2455C287.7095,-159.4928 311.3259,-146.527 329.4989,-136.5496"/>
<polygon fill="#191970" stroke="#191970" points="331.3552,-139.5233 338.4366,-131.6427 327.9863,-133.3873 331.3552,-139.5233"/>
</g>
<!-- Node14&#45;&gt;Node6 -->
<g id="edge21" class="edge">
<title>Node14&#45;&gt;Node6</title>
<path fill="none" stroke="#191970" d="M282.7083,-168.3733C311.028,-158.8769 354.4024,-144.3321 385.011,-134.0682"/>
<polygon fill="#191970" stroke="#191970" points="386.4934,-137.2627 394.8618,-130.7649 384.2679,-130.6259 386.4934,-137.2627"/>
</g>
<!-- Node14&#45;&gt;Node8 -->
<g id="edge18" class="edge">
<title>Node14&#45;&gt;Node8</title>
<path fill="none" stroke="#191970" d="M253.6036,-168.4862C252.4971,-141.9293 249.3569,-66.5651 247.8402,-30.1655"/>
<polygon fill="#191970" stroke="#191970" points="251.3229,-29.6735 247.4095,-19.8279 244.3289,-29.965 251.3229,-29.6735"/>
</g>
<!-- Node14&#45;&gt;Node12 -->
<g id="edge20" class="edge">
<title>Node14&#45;&gt;Node12</title>
<path fill="none" stroke="#191970" d="M239.7167,-168.2455C227.253,-159.7337 208.9549,-147.2375 194.5208,-137.3801"/>
<polygon fill="#191970" stroke="#191970" points="196.3515,-134.392 186.1196,-131.6427 192.4038,-140.1726 196.3515,-134.392"/>
</g>
<!-- Node15&#45;&gt;Node2 -->
<g id="edge26" class="edge">
<title>Node15&#45;&gt;Node2</title>
<path fill="none" stroke="#191970" d="M481.0422,-168.3733C454.7573,-158.6252 414.129,-143.5578 386.3656,-133.2614"/>
<polygon fill="#191970" stroke="#191970" points="387.3624,-129.8982 376.7694,-129.7026 384.9283,-136.4614 387.3624,-129.8982"/>
</g>
<!-- Node15&#45;&gt;Node5 -->
<g id="edge24" class="edge">
<title>Node15&#45;&gt;Node5</title>
<path fill="none" stroke="#191970" d="M503.5163,-168.2455C500.8492,-160.7776 497.0867,-150.2427 493.8263,-141.1137"/>
<polygon fill="#191970" stroke="#191970" points="497.1033,-139.8829 490.4438,-131.6427 490.5111,-142.2373 497.1033,-139.8829"/>
</g>
<!-- Node15&#45;&gt;Node6 -->
<g id="edge25" class="edge">
<title>Node15&#45;&gt;Node6</title>
<path fill="none" stroke="#191970" d="M492.0199,-168.2455C478.8249,-159.6534 459.3949,-147.0014 444.1921,-137.1018"/>
<polygon fill="#191970" stroke="#191970" points="446.0983,-134.1665 435.8084,-131.6427 442.2785,-140.0325 446.0983,-134.1665"/>
</g>
<!-- Node15&#45;&gt;Node8 -->
<g id="edge23" class="edge">
<title>Node15&#45;&gt;Node8</title>
<path fill="none" stroke="#191970" d="M517.0196,-168.4174C529.8206,-154.9906 548.8671,-130.1863 536,-112 507.897,-72.2793 372.436,-37.2512 297.364,-20.4851"/>
<polygon fill="#191970" stroke="#191970" points="297.7083,-16.977 287.1892,-18.242 296.2012,-23.8129 297.7083,-16.977"/>
</g>
<!-- Node15&#45;&gt;Node10 -->
<g id="edge31" class="edge">
<title>Node15&#45;&gt;Node10</title>
<path fill="none" stroke="#191970" d="M512.7434,-168.3543C520.2206,-154.4005 530.8991,-128.4566 518,-112 499.2174,-88.0371 412.5044,-74.8873 364.029,-69.2939"/>
<polygon fill="#191970" stroke="#191970" points="364.3429,-65.8074 354.0179,-68.1835 363.5711,-72.7647 364.3429,-65.8074"/>
</g>
<!-- Node16 -->
<g id="node17" class="node">
<title>Node16</title>
<g id="a_node17"><a xlink:href="Component_8h.html" target="_top" xlink:title="Component.h">
<polygon fill="#ffffff" stroke="#000000" points="641.5,-112.5 641.5,-131.5 716.5,-131.5 716.5,-112.5 641.5,-112.5"/>
<text text-anchor="middle" x="679" y="-119.5" font-family="Helvetica,sans-Serif" font-size="10.00" fill="#000000">Component.h</text>
</a>
</g>
</g>
<!-- Node15&#45;&gt;Node16 -->
<g id="edge27" class="edge">
<title>Node15&#45;&gt;Node16</title>
<path fill="none" stroke="#191970" d="M531.3258,-168.3733C558.2211,-159.021 601.8195,-144.7725 634.7527,-134.5385"/>
<polygon fill="#191970" stroke="#191970" points="636.0764,-137.793 644.6007,-131.5011 634.0133,-131.1039 636.0764,-137.793"/>
</g>
<!-- Node17 -->
<g id="node18" class="node">
<title>Node17</title>
<g id="a_node18"><a xlink:href="ComponentType_8h.html" target="_top" xlink:title="ComponentType.h">
<polygon fill="#ffffff" stroke="#000000" points="616.5,-56.5 616.5,-75.5 713.5,-75.5 713.5,-56.5 616.5,-56.5"/>
<text text-anchor="middle" x="665" y="-63.5" font-family="Helvetica,sans-Serif" font-size="10.00" fill="#000000">ComponentType.h</text>
</a>
</g>
</g>
<!-- Node15&#45;&gt;Node17 -->
<g id="edge30" class="edge">
<title>Node15&#45;&gt;Node17</title>
<path fill="none" stroke="#191970" d="M526.5573,-168.4621C543.605,-159.8175 568.7086,-146.2777 589,-132 610.4646,-116.8967 632.9018,-96.7987 647.7826,-82.7648"/>
<polygon fill="#191970" stroke="#191970" points="650.4045,-85.1005 655.2181,-75.6623 645.5694,-80.0387 650.4045,-85.1005"/>
</g>
<!-- Node16&#45;&gt;Node15 -->
<g id="edge29" class="edge">
<title>Node16&#45;&gt;Node15</title>
<path fill="none" stroke="#191970" d="M655.0353,-131.5011C628.2905,-140.8093 584.7198,-155.0536 551.6913,-165.3235"/>
<polygon fill="#191970" stroke="#191970" points="550.3329,-162.0798 541.8099,-168.3733 552.3973,-168.7685 550.3329,-162.0798"/>
</g>
<!-- Node16&#45;&gt;Node17 -->
<g id="edge28" class="edge">
<title>Node16&#45;&gt;Node17</title>
<path fill="none" stroke="#191970" d="M676.5614,-112.2455C674.7145,-104.8579 672.1172,-94.4689 669.8522,-85.4087"/>
<polygon fill="#191970" stroke="#191970" points="673.2316,-84.4952 667.4107,-75.6427 666.4406,-86.193 673.2316,-84.4952"/>
</g>
<!-- Node20&#45;&gt;Node18 -->
<g id="edge39" class="edge">
<title>Node20&#45;&gt;Node18</title>
<path fill="none" stroke="#191970" d="M765.5677,-280.2455C766.7421,-272.9382 768.3884,-262.6944 769.8332,-253.7046"/>
<polygon fill="#191970" stroke="#191970" points="773.3191,-254.0714 771.4503,-243.6427 766.4078,-252.9606 773.3191,-254.0714"/>
</g>
<!-- Node21 -->
<g id="node22" class="node">
<title>Node21</title>
<polygon fill="#ffffff" stroke="#bfbfbf" points="815,-224.5 815,-243.5 869,-243.5 869,-224.5 815,-224.5"/>
<text text-anchor="middle" x="842" y="-231.5" font-family="Helvetica,sans-Serif" font-size="10.00" fill="#000000">iostream</text>
</g>
<!-- Node20&#45;&gt;Node21 -->
<g id="edge38" class="edge">
<title>Node20&#45;&gt;Node21</title>
<path fill="none" stroke="#191970" d="M777.5866,-280.2455C789.3305,-271.814 806.5199,-259.4729 820.1882,-249.6598"/>
<polygon fill="#191970" stroke="#191970" points="822.4871,-252.3179 828.5691,-243.6427 818.4046,-246.6316 822.4871,-252.3179"/>
</g>
<!-- Node22&#45;&gt;Node4 -->
<g id="edge48" class="edge">
<title>Node22&#45;&gt;Node4</title>
<path fill="none" stroke="#191970" d="M568.6502,-280.3733C533.2522,-270.1553 477.6067,-254.0927 441.9732,-243.8067"/>
<polygon fill="#191970" stroke="#191970" points="442.6229,-240.3514 432.0445,-240.9407 440.6815,-247.0768 442.6229,-240.3514"/>
</g>
<!-- Node23 -->
<g id="node24" class="node">
<title>Node23</title>
<polygon fill="#ffffff" stroke="#bfbfbf" points="687,-224.5 687,-243.5 731,-243.5 731,-224.5 687,-224.5"/>
<text text-anchor="middle" x="709" y="-231.5" font-family="Helvetica,sans-Serif" font-size="10.00" fill="#000000">thread</text>
</g>
<!-- Node22&#45;&gt;Node23 -->
<g id="edge42" class="edge">
<title>Node22&#45;&gt;Node23</title>
<path fill="none" stroke="#191970" d="M620.638,-280.2455C637.4386,-271.4527 662.3634,-258.4079 681.4618,-248.4125"/>
<polygon fill="#191970" stroke="#191970" points="683.3386,-251.3807 690.5756,-243.6427 680.0927,-245.1787 683.3386,-251.3807"/>
</g>
<!-- Node24 -->
<g id="node25" class="node">
<title>Node24</title>
<polygon fill="#ffffff" stroke="#bfbfbf" points="565.5,-168.5 565.5,-187.5 622.5,-187.5 622.5,-168.5 565.5,-168.5"/>
<text text-anchor="middle" x="594" y="-175.5" font-family="Helvetica,sans-Serif" font-size="10.00" fill="#000000">pthread.h</text>
</g>
<!-- Node22&#45;&gt;Node24 -->
<g id="edge43" class="edge">
<title>Node22&#45;&gt;Node24</title>
<path fill="none" stroke="#191970" d="M584.0401,-280.3701C571.3676,-272.4681 555.3833,-259.9885 548,-244 539.5022,-225.598 555.4221,-206.8496 570.8061,-194.0614"/>
<polygon fill="#191970" stroke="#191970" points="573.3745,-196.4994 579.1392,-187.6101 569.0893,-190.9643 573.3745,-196.4994"/>
</g>
<!-- Node25 -->
<g id="node26" class="node">
<title>Node25</title>
<polygon fill="#ffffff" stroke="#bfbfbf" points="640.5,-168.5 640.5,-187.5 713.5,-187.5 713.5,-168.5 640.5,-168.5"/>
<text text-anchor="middle" x="677" y="-175.5" font-family="Helvetica,sans-Serif" font-size="10.00" fill="#000000">semaphore.h</text>
</g>
<!-- Node22&#45;&gt;Node25 -->
<g id="edge44" class="edge">
<title>Node22&#45;&gt;Node25</title>
<path fill="none" stroke="#191970" d="M610.3946,-280.4675C618.2087,-271.3915 629.9737,-257.1967 639,-244 649.4689,-228.6942 659.8724,-210.3497 667.1399,-196.8899"/>
<polygon fill="#191970" stroke="#191970" points="670.4321,-198.1533 672.0354,-187.6805 664.2511,-194.8676 670.4321,-198.1533"/>
</g>
<!-- Node26 -->
<g id="node27" class="node">
<title>Node26</title>
<g id="a_node27"><a xlink:href="FowardList_8h.html" target="_top" xlink:title="FowardList.h">
<polygon fill="#ffffff" stroke="#000000" points="557.5,-224.5 557.5,-243.5 630.5,-243.5 630.5,-224.5 557.5,-224.5"/>
<text text-anchor="middle" x="594" y="-231.5" font-family="Helvetica,sans-Serif" font-size="10.00" fill="#000000">FowardList.h</text>
</a>
</g>
</g>
<!-- Node22&#45;&gt;Node26 -->
<g id="edge45" class="edge">
<title>Node22&#45;&gt;Node26</title>
<path fill="none" stroke="#191970" d="M600.6065,-280.2455C599.5626,-272.9382 598.0992,-262.6944 596.8149,-253.7046"/>
<polygon fill="#191970" stroke="#191970" points="600.2566,-253.0472 595.3775,-243.6427 593.327,-254.0372 600.2566,-253.0472"/>
</g>
<!-- Node26&#45;&gt;Node24 -->
<g id="edge46" class="edge">
<title>Node26&#45;&gt;Node24</title>
<path fill="none" stroke="#191970" d="M594,-224.2455C594,-216.9382 594,-206.6944 594,-197.7046"/>
<polygon fill="#191970" stroke="#191970" points="597.5001,-197.6426 594,-187.6427 590.5001,-197.6427 597.5001,-197.6426"/>
</g>
<!-- Node26&#45;&gt;Node25 -->
<g id="edge47" class="edge">
<title>Node26&#45;&gt;Node25</title>
<path fill="none" stroke="#191970" d="M608.4575,-224.2455C621.0732,-215.7337 639.5944,-203.2375 654.2045,-193.3801"/>
<polygon fill="#191970" stroke="#191970" points="656.3761,-196.1371 662.7082,-187.6427 652.4609,-190.3343 656.3761,-196.1371"/>
</g>
</g>
</svg>
