<?xml version="1.0" encoding="UTF-8" standalone="no"?>
<!DOCTYPE svg PUBLIC "-//W3C//DTD SVG 1.1//EN"
 "http://www.w3.org/Graphics/SVG/1.1/DTD/svg11.dtd">
<!-- Generated by graphviz version 2.38.0 (20140413.2041)
 -->
<!-- Title: include/GameObject.h Pages: 1 -->
<svg width="466pt" height="196pt"
 viewBox="0.00 0.00 466.16 196.00" xmlns="http://www.w3.org/2000/svg" xmlns:xlink="http://www.w3.org/1999/xlink">
<g id="graph0" class="graph" transform="scale(1 1) rotate(0) translate(4 192)">
<title>include/GameObject.h</title>
<polygon fill="white" stroke="none" points="-4,4 -4,-192 462.162,-192 462.162,4 -4,4"/>
<!-- Node0 -->
<g id="node1" class="node"><title>Node0</title>
<polygon fill="#bfbfbf" stroke="black" points="151.662,-168.5 151.662,-187.5 264.662,-187.5 264.662,-168.5 151.662,-168.5"/>
<text text-anchor="middle" x="208.162" y="-175.5" font-family="Helvetica,sans-Serif" font-size="10.00">include/GameObject.h</text>
</g>
<!-- Node1 -->
<g id="node2" class="node"><title>Node1</title>
<g id="a_node2"><a xlink:href="SDL__include_8h.html" target="_top" xlink:title="SDL_include.h">
<polygon fill="white" stroke="black" points="280.162,-0.5 280.162,-19.5 360.162,-19.5 360.162,-0.5 280.162,-0.5"/>
<text text-anchor="middle" x="320.162" y="-7.5" font-family="Helvetica,sans-Serif" font-size="10.00">SDL_include.h</text>
</a>
</g>
</g>
<!-- Node0&#45;&gt;Node1 -->
<g id="edge1" class="edge"><title>Node0&#45;&gt;Node1</title>
<path fill="none" stroke="midnightblue" d="M151.616,-177.173C79.9991,-175.296 -29.7965,-164.186 8.16246,-112 68.4119,-29.1685 198.062,-12.8769 269.817,-10.5105"/>
<polygon fill="midnightblue" stroke="midnightblue" points="270.06,-14.0056 279.969,-10.2561 269.884,-7.00777 270.06,-14.0056"/>
</g>
<!-- Node2 -->
<g id="node3" class="node"><title>Node2</title>
<polygon fill="white" stroke="#bfbfbf" points="17.1625,-112.5 17.1625,-131.5 61.1625,-131.5 61.1625,-112.5 17.1625,-112.5"/>
<text text-anchor="middle" x="39.1625" y="-119.5" font-family="Helvetica,sans-Serif" font-size="10.00">vector</text>
</g>
<!-- Node0&#45;&gt;Node2 -->
<g id="edge2" class="edge"><title>Node0&#45;&gt;Node2</title>
<path fill="none" stroke="midnightblue" d="M181.384,-168.444C151.402,-158.863 102.848,-143.349 70.9606,-133.16"/>
<polygon fill="midnightblue" stroke="midnightblue" points="71.8288,-129.764 61.238,-130.054 69.6982,-136.431 71.8288,-129.764"/>
</g>
<!-- Node3 -->
<g id="node4" class="node"><title>Node3</title>
<polygon fill="white" stroke="#bfbfbf" points="79.1625,-112.5 79.1625,-131.5 131.162,-131.5 131.162,-112.5 79.1625,-112.5"/>
<text text-anchor="middle" x="105.162" y="-119.5" font-family="Helvetica,sans-Serif" font-size="10.00">memory</text>
</g>
<!-- Node0&#45;&gt;Node3 -->
<g id="edge3" class="edge"><title>Node0&#45;&gt;Node3</title>
<path fill="none" stroke="midnightblue" d="M191.614,-168.324C175.171,-159.703 149.728,-146.364 130.694,-136.386"/>
<polygon fill="midnightblue" stroke="midnightblue" points="132.152,-133.198 121.67,-131.655 128.902,-139.398 132.152,-133.198"/>
</g>
<!-- Node4 -->
<g id="node5" class="node"><title>Node4</title>
<polygon fill="white" stroke="#bfbfbf" points="149.662,-112.5 149.662,-131.5 190.662,-131.5 190.662,-112.5 149.662,-112.5"/>
<text text-anchor="middle" x="170.162" y="-119.5" font-family="Helvetica,sans-Serif" font-size="10.00">string</text>
</g>
<!-- Node0&#45;&gt;Node4 -->
<g id="edge4" class="edge"><title>Node0&#45;&gt;Node4</title>
<path fill="none" stroke="midnightblue" d="M201.888,-168.083C196.52,-160.455 188.645,-149.264 182.084,-139.941"/>
<polygon fill="midnightblue" stroke="midnightblue" points="184.938,-137.915 176.321,-131.751 179.213,-141.943 184.938,-137.915"/>
</g>
<!-- Node5 -->
<g id="node6" class="node"><title>Node5</title>
<g id="a_node6"><a xlink:href="Component_8h.html" target="_top" xlink:title="Component.h">
<polygon fill="white" stroke="black" points="208.662,-112.5 208.662,-131.5 283.662,-131.5 283.662,-112.5 208.662,-112.5"/>
<text text-anchor="middle" x="246.162" y="-119.5" font-family="Helvetica,sans-Serif" font-size="10.00">Component.h</text>
</a>
</g>
</g>
<!-- Node0&#45;&gt;Node5 -->
<g id="edge5" class="edge"><title>Node0&#45;&gt;Node5</title>
<path fill="none" stroke="midnightblue" d="M209.271,-168.083C213.107,-160.298 220.832,-148.801 228.384,-139.367"/>
<polygon fill="midnightblue" stroke="midnightblue" points="231.051,-141.633 234.873,-131.751 225.723,-137.092 231.051,-141.633"/>
</g>
<!-- Node6 -->
<g id="node7" class="node"><title>Node6</title>
<g id="a_node7"><a xlink:href="ComponentType_8h.html" target="_top" xlink:title="ComponentType.h">
<polygon fill="white" stroke="black" points="194.662,-56.5 194.662,-75.5 291.662,-75.5 291.662,-56.5 194.662,-56.5"/>
<text text-anchor="middle" x="243.162" y="-63.5" font-family="Helvetica,sans-Serif" font-size="10.00">ComponentType.h</text>
</a>
</g>
</g>
<!-- Node0&#45;&gt;Node6 -->
<g id="edge8" class="edge"><title>Node0&#45;&gt;Node6</title>
<path fill="none" stroke="midnightblue" d="M241.149,-168.438C259.625,-161.769 281.114,-150.453 292.162,-132 303.205,-113.557 283.826,-94.0828 266.278,-81.3141"/>
<polygon fill="midnightblue" stroke="midnightblue" points="268.182,-78.3759 257.952,-75.6183 264.23,-84.1533 268.182,-78.3759"/>
</g>
<!-- Node7 -->
<g id="node8" class="node"><title>Node7</title>
<g id="a_node8"><a xlink:href="Rect_8h.html" target="_top" xlink:title="Rect.h">
<polygon fill="white" stroke="black" points="343.162,-112.5 343.162,-131.5 389.162,-131.5 389.162,-112.5 343.162,-112.5"/>
<text text-anchor="middle" x="366.162" y="-119.5" font-family="Helvetica,sans-Serif" font-size="10.00">Rect.h</text>
</a>
</g>
</g>
<!-- Node0&#45;&gt;Node7 -->
<g id="edge9" class="edge"><title>Node0&#45;&gt;Node7</title>
<path fill="none" stroke="midnightblue" d="M233.198,-168.444C260.326,-159.172 303.715,-144.343 333.505,-134.161"/>
<polygon fill="midnightblue" stroke="midnightblue" points="334.713,-137.448 343.043,-130.902 332.449,-130.824 334.713,-137.448"/>
</g>
<!-- Node5&#45;&gt;Node0 -->
<g id="edge7" class="edge"><title>Node5&#45;&gt;Node0</title>
<path fill="none" stroke="midnightblue" d="M245.135,-131.751C241.355,-139.483 233.656,-150.967 226.103,-160.431"/>
<polygon fill="midnightblue" stroke="midnightblue" points="223.41,-158.195 219.604,-168.083 228.745,-162.727 223.41,-158.195"/>
</g>
<!-- Node5&#45;&gt;Node6 -->
<g id="edge6" class="edge"><title>Node5&#45;&gt;Node6</title>
<path fill="none" stroke="midnightblue" d="M245.667,-112.083C245.274,-105.006 244.71,-94.8611 244.217,-85.9865"/>
<polygon fill="midnightblue" stroke="midnightblue" points="247.698,-85.5415 243.649,-75.7511 240.709,-85.9299 247.698,-85.5415"/>
</g>
<!-- Node7&#45;&gt;Node1 -->
<g id="edge10" class="edge"><title>Node7&#45;&gt;Node1</title>
<path fill="none" stroke="midnightblue" d="M360.084,-112.396C354.091,-103.595 345.005,-89.3552 339.162,-76 332.536,-60.8529 327.456,-42.7333 324.224,-29.4774"/>
<polygon fill="midnightblue" stroke="midnightblue" points="327.616,-28.6107 321.949,-19.6585 320.796,-30.1904 327.616,-28.6107"/>
</g>
<!-- Node8 -->
<g id="node9" class="node"><title>Node8</title>
<g id="a_node9"><a xlink:href="Vec2_8h.html" target="_top" xlink:title="Vec2.h">
<polygon fill="white" stroke="black" points="348.662,-56.5 348.662,-75.5 395.662,-75.5 395.662,-56.5 348.662,-56.5"/>
<text text-anchor="middle" x="372.162" y="-63.5" font-family="Helvetica,sans-Serif" font-size="10.00">Vec2.h</text>
</a>
</g>
</g>
<!-- Node7&#45;&gt;Node8 -->
<g id="edge11" class="edge"><title>Node7&#45;&gt;Node8</title>
<path fill="none" stroke="midnightblue" d="M367.153,-112.083C367.948,-104.927 369.092,-94.6353 370.086,-85.6911"/>
<polygon fill="midnightblue" stroke="midnightblue" points="373.564,-86.0765 371.19,-75.7511 366.607,-85.3034 373.564,-86.0765"/>
</g>
<!-- Node9 -->
<g id="node10" class="node"><title>Node9</title>
<polygon fill="white" stroke="#bfbfbf" points="414.162,-56.5 414.162,-75.5 458.162,-75.5 458.162,-56.5 414.162,-56.5"/>
<text text-anchor="middle" x="436.162" y="-63.5" font-family="Helvetica,sans-Serif" font-size="10.00">cmath</text>
</g>
<!-- Node7&#45;&gt;Node9 -->
<g id="edge13" class="edge"><title>Node7&#45;&gt;Node9</title>
<path fill="none" stroke="midnightblue" d="M377.409,-112.324C387.96,-104.185 403.963,-91.8395 416.605,-82.0874"/>
<polygon fill="midnightblue" stroke="midnightblue" points="418.931,-84.7132 424.711,-75.8339 414.655,-79.1707 418.931,-84.7132"/>
</g>
<!-- Node8&#45;&gt;Node1 -->
<g id="edge12" class="edge"><title>Node8&#45;&gt;Node1</title>
<path fill="none" stroke="midnightblue" d="M363.576,-56.083C356.003,-48.2195 344.784,-36.5688 335.648,-27.0813"/>
<polygon fill="midnightblue" stroke="midnightblue" points="338.047,-24.5266 328.589,-19.7511 333.005,-29.3821 338.047,-24.5266"/>
</g>
</g>
</svg>
