<?xml version="1.0" encoding="UTF-8" standalone="no"?>
<!DOCTYPE svg PUBLIC "-//W3C//DTD SVG 1.1//EN"
 "http://www.w3.org/Graphics/SVG/1.1/DTD/svg11.dtd">
<!-- Generated by graphviz version 2.40.1 (20161225.0304)
 -->
<!-- Title: include/GameObject.h Pages: 1 -->
<svg width="1399pt" height="420pt"
 viewBox="0.00 0.00 1399.00 420.00" xmlns="http://www.w3.org/2000/svg" xmlns:xlink="http://www.w3.org/1999/xlink">
<g id="graph0" class="graph" transform="scale(1 1) rotate(0) translate(4 416)">
<title>include/GameObject.h</title>
<polygon fill="#ffffff" stroke="transparent" points="-4,4 -4,-416 1395,-416 1395,4 -4,4"/>
<!-- Node10 -->
<g id="node1" class="node">
<title>Node10</title>
<polygon fill="#bfbfbf" stroke="#000000" points="506,-392.5 506,-411.5 619,-411.5 619,-392.5 506,-392.5"/>
<text text-anchor="middle" x="562.5" y="-399.5" font-family="Helvetica,sans-Serif" font-size="10.00" fill="#000000">include/GameObject.h</text>
</g>
<!-- Node11 -->
<g id="node2" class="node">
<title>Node11</title>
<g id="a_node2"><a xlink:href="Component_8h.html" target="_top" xlink:title="include/Component.h">
<polygon fill="#ffffff" stroke="#000000" points="344,-336.5 344,-355.5 453,-355.5 453,-336.5 344,-336.5"/>
<text text-anchor="middle" x="398.5" y="-343.5" font-family="Helvetica,sans-Serif" font-size="10.00" fill="#000000">include/Component.h</text>
</a>
</g>
</g>
<!-- Node10&#45;&gt;Node11 -->
<g id="edge1" class="edge">
<title>Node10&#45;&gt;Node11</title>
<path fill="none" stroke="#191970" d="M519.2109,-389.1905C487.7005,-378.9309 446.4129,-364.7691 421.1074,-355.5011"/>
<polygon fill="#191970" stroke="#191970" points="518.4737,-392.6303 529.0654,-392.3733 520.6251,-385.9691 518.4737,-392.6303"/>
</g>
<!-- Node12 -->
<g id="node3" class="node">
<title>Node12</title>
<g id="a_node3"><a xlink:href="Button_8h.html" target="_top" xlink:title="include/Button.h">
<polygon fill="#ffffff" stroke="#000000" points="13,-280.5 13,-299.5 100,-299.5 100,-280.5 13,-280.5"/>
<text text-anchor="middle" x="56.5" y="-287.5" font-family="Helvetica,sans-Serif" font-size="10.00" fill="#000000">include/Button.h</text>
</a>
</g>
</g>
<!-- Node10&#45;&gt;Node12 -->
<g id="edge24" class="edge">
<title>Node10&#45;&gt;Node12</title>
<path fill="none" stroke="#191970" d="M495.663,-393.0453C439.5077,-385.0008 357.312,-372.0059 286.5,-356 213.3617,-339.4683 129.0187,-313.4379 85.6311,-299.522"/>
<polygon fill="#191970" stroke="#191970" points="495.4441,-396.5493 505.8368,-394.4894 496.4279,-389.6187 495.4441,-396.5493"/>
</g>
<!-- Node14 -->
<g id="node5" class="node">
<title>Node14</title>
<g id="a_node5"><a xlink:href="Grouper_8h.html" target="_top" xlink:title="include/Grouper.h">
<polygon fill="#ffffff" stroke="#000000" points="157,-280.5 157,-299.5 250,-299.5 250,-280.5 157,-280.5"/>
<text text-anchor="middle" x="203.5" y="-287.5" font-family="Helvetica,sans-Serif" font-size="10.00" fill="#000000">include/Grouper.h</text>
</a>
</g>
</g>
<!-- Node10&#45;&gt;Node14 -->
<g id="edge46" class="edge">
<title>Node10&#45;&gt;Node14</title>
<path fill="none" stroke="#191970" d="M495.7724,-393.2201C449.8817,-386.0405 387.9867,-374.0831 335.5,-356 291.4119,-340.8104 243.2945,-313.86 219.1606,-299.5485"/>
<polygon fill="#191970" stroke="#191970" points="495.485,-396.7167 505.899,-394.7677 496.5425,-389.797 495.485,-396.7167"/>
</g>
<!-- Node23 -->
<g id="node14" class="node">
<title>Node23</title>
<g id="a_node14"><a xlink:href="RectTransform_8h.html" target="_top" xlink:title="include/RectTransform.h">
<polygon fill="#ffffff" stroke="#000000" points="426.5,-280.5 426.5,-299.5 550.5,-299.5 550.5,-280.5 426.5,-280.5"/>
<text text-anchor="middle" x="488.5" y="-287.5" font-family="Helvetica,sans-Serif" font-size="10.00" fill="#000000">include/RectTransform.h</text>
</a>
</g>
</g>
<!-- Node10&#45;&gt;Node23 -->
<g id="edge47" class="edge">
<title>Node10&#45;&gt;Node23</title>
<path fill="none" stroke="#191970" d="M550.5363,-383.8927C534.6376,-359.8299 507.1224,-318.1853 494.7932,-299.5249"/>
<polygon fill="#191970" stroke="#191970" points="547.758,-386.037 556.1908,-392.4509 553.5984,-382.1782 547.758,-386.037"/>
</g>
<!-- Node26 -->
<g id="node17" class="node">
<title>Node26</title>
<g id="a_node17"><a xlink:href="Text_8h.html" target="_top" xlink:title="include/Text.h">
<polygon fill="#ffffff" stroke="#000000" points="568.5,-280.5 568.5,-299.5 646.5,-299.5 646.5,-280.5 568.5,-280.5"/>
<text text-anchor="middle" x="607.5" y="-287.5" font-family="Helvetica,sans-Serif" font-size="10.00" fill="#000000">include/Text.h</text>
</a>
</g>
</g>
<!-- Node10&#45;&gt;Node26 -->
<g id="edge49" class="edge">
<title>Node10&#45;&gt;Node26</title>
<path fill="none" stroke="#191970" d="M570.164,-382.9253C579.8859,-358.7284 596.2751,-317.9376 603.673,-299.5249"/>
<polygon fill="#191970" stroke="#191970" points="566.8173,-381.867 566.3367,-392.4509 573.3126,-384.4768 566.8173,-381.867"/>
</g>
<!-- Node28 -->
<g id="node19" class="node">
<title>Node28</title>
<g id="a_node19"><a xlink:href="Camera_8h.html" target="_top" xlink:title="include/Camera.h">
<polygon fill="#ffffff" stroke="#000000" points="703,-280.5 703,-299.5 796,-299.5 796,-280.5 703,-280.5"/>
<text text-anchor="middle" x="749.5" y="-287.5" font-family="Helvetica,sans-Serif" font-size="10.00" fill="#000000">include/Camera.h</text>
</a>
</g>
</g>
<!-- Node10&#45;&gt;Node28 -->
<g id="edge25" class="edge">
<title>Node10&#45;&gt;Node28</title>
<path fill="none" stroke="#191970" d="M612.7972,-389.626C636.9665,-382.2313 665.5857,-371.2562 688.5,-356 711.8776,-340.4354 732.5379,-314.1291 742.7446,-299.8816"/>
<polygon fill="#191970" stroke="#191970" points="611.6941,-386.3021 603.0872,-392.4804 613.6684,-393.0179 611.6941,-386.3021"/>
</g>
<!-- Node30 -->
<g id="node21" class="node">
<title>Node30</title>
<g id="a_node21"><a xlink:href="GameObject_8cpp.html" target="_top" xlink:title="src/GameObject.cpp">
<polygon fill="#ffffff" stroke="#000000" points="509,-224.5 509,-243.5 616,-243.5 616,-224.5 509,-224.5"/>
<text text-anchor="middle" x="562.5" y="-231.5" font-family="Helvetica,sans-Serif" font-size="10.00" fill="#000000">src/GameObject.cpp</text>
</a>
</g>
</g>
<!-- Node10&#45;&gt;Node30 -->
<g id="edge50" class="edge">
<title>Node10&#45;&gt;Node30</title>
<path fill="none" stroke="#191970" d="M588.684,-387.0367C624.3002,-364.6806 680.8443,-320.8111 655.5,-280 644.0964,-261.6373 622.9492,-250.3822 603.6985,-243.6061"/>
<polygon fill="#191970" stroke="#191970" points="586.4339,-384.3088 579.7106,-392.4971 590.0727,-390.2887 586.4339,-384.3088"/>
</g>
<!-- Node32 -->
<g id="node23" class="node">
<title>Node32</title>
<g id="a_node23"><a xlink:href="State_8h.html" target="_top" xlink:title="include/State.h">
<polygon fill="#ffffff" stroke="#000000" points="919.5,-336.5 919.5,-355.5 1001.5,-355.5 1001.5,-336.5 919.5,-336.5"/>
<text text-anchor="middle" x="960.5" y="-343.5" font-family="Helvetica,sans-Serif" font-size="10.00" fill="#000000">include/State.h</text>
</a>
</g>
</g>
<!-- Node10&#45;&gt;Node32 -->
<g id="edge32" class="edge">
<title>Node10&#45;&gt;Node32</title>
<path fill="none" stroke="#191970" d="M629.155,-392.6214C711.9077,-380.9778 850.5136,-361.4755 919.2563,-351.8031"/>
<polygon fill="#191970" stroke="#191970" points="628.5158,-389.1768 619.101,-394.036 629.4912,-396.1085 628.5158,-389.1768"/>
</g>
<!-- Node38 -->
<g id="node29" class="node">
<title>Node38</title>
<g id="a_node29"><a xlink:href="NearestGOFinder_8h.html" target="_top" xlink:title="include/NearestGOFinder.h">
<polygon fill="#ffffff" stroke="#000000" points="1020,-336.5 1020,-355.5 1155,-355.5 1155,-336.5 1020,-336.5"/>
<text text-anchor="middle" x="1087.5" y="-343.5" font-family="Helvetica,sans-Serif" font-size="10.00" fill="#000000">include/NearestGOFinder.h</text>
</a>
</g>
</g>
<!-- Node10&#45;&gt;Node38 -->
<g id="edge48" class="edge">
<title>Node10&#45;&gt;Node38</title>
<path fill="none" stroke="#191970" d="M629.1931,-395.7156C716.7706,-387.3341 875.2826,-371.7195 1010.5,-356 1013.5797,-355.642 1016.7276,-355.2676 1019.9065,-354.8826"/>
<polygon fill="#191970" stroke="#191970" points="628.7518,-392.2417 619.1299,-396.6767 629.4174,-399.21 628.7518,-392.2417"/>
</g>
<!-- Node11&#45;&gt;Node10 -->
<g id="edge4" class="edge">
<title>Node11&#45;&gt;Node10</title>
<path fill="none" stroke="#191970" d="M441.3636,-358.671C472.7853,-368.8953 514.1004,-383.0613 539.5494,-392.3733"/>
<polygon fill="#191970" stroke="#191970" points="442.1337,-355.2418 431.542,-355.5011 439.9836,-361.9035 442.1337,-355.2418"/>
</g>
<!-- Node11&#45;&gt;Node12 -->
<g id="edge2" class="edge">
<title>Node11&#45;&gt;Node12</title>
<path fill="none" stroke="#191970" d="M333.7122,-335.6982C276.1292,-326.4962 189.6717,-312.5678 114.5,-300 109.8641,-299.2249 105.0215,-298.4055 100.1962,-297.5827"/>
<polygon fill="#191970" stroke="#191970" points="333.3365,-339.1824 343.7633,-337.3032 334.4404,-332.27 333.3365,-339.1824"/>
</g>
<!-- Node11&#45;&gt;Node14 -->
<g id="edge5" class="edge">
<title>Node11&#45;&gt;Node14</title>
<path fill="none" stroke="#191970" d="M355.2804,-333.5882C319.4538,-323.2996 269.2759,-308.8895 236.5843,-299.5011"/>
<polygon fill="#191970" stroke="#191970" points="354.4007,-336.977 364.9783,-336.3733 356.3329,-330.2489 354.4007,-336.977"/>
</g>
<!-- Node16 -->
<g id="node7" class="node">
<title>Node16</title>
<g id="a_node7"><a xlink:href="TileMap_8h.html" target="_top" xlink:title="include/TileMap.h">
<polygon fill="#ffffff" stroke="#000000" points="99,-112.5 99,-131.5 192,-131.5 192,-112.5 99,-112.5"/>
<text text-anchor="middle" x="145.5" y="-119.5" font-family="Helvetica,sans-Serif" font-size="10.00" fill="#000000">include/TileMap.h</text>
</a>
</g>
</g>
<!-- Node11&#45;&gt;Node16 -->
<g id="edge7" class="edge">
<title>Node11&#45;&gt;Node16</title>
<path fill="none" stroke="#191970" d="M333.8502,-338.4339C263.5311,-329.5457 159.4746,-314.2055 147.5,-300 105.2727,-249.9054 131.6128,-160.7092 141.9146,-131.5278"/>
<polygon fill="#191970" stroke="#191970" points="333.6086,-341.9308 343.9654,-339.6975 334.4764,-334.9848 333.6086,-341.9308"/>
</g>
<!-- Node19 -->
<g id="node10" class="node">
<title>Node19</title>
<g id="a_node10"><a xlink:href="Sprite_8h.html" target="_top" xlink:title="include/Sprite.h">
<polygon fill="#ffffff" stroke="#000000" points="317.5,-224.5 317.5,-243.5 401.5,-243.5 401.5,-224.5 317.5,-224.5"/>
<text text-anchor="middle" x="359.5" y="-231.5" font-family="Helvetica,sans-Serif" font-size="10.00" fill="#000000">include/Sprite.h</text>
</a>
</g>
</g>
<!-- Node11&#45;&gt;Node19 -->
<g id="edge10" class="edge">
<title>Node11&#45;&gt;Node19</title>
<path fill="none" stroke="#191970" d="M393.622,-326.5841C390.1175,-313.3229 385.0481,-295.4278 379.5,-280 374.9029,-267.2165 368.4818,-252.9314 364.1667,-243.7217"/>
<polygon fill="#191970" stroke="#191970" points="390.2871,-327.6688 396.1738,-336.4778 397.0653,-325.9206 390.2871,-327.6688"/>
</g>
<!-- Node11&#45;&gt;Node23 -->
<g id="edge15" class="edge">
<title>Node11&#45;&gt;Node23</title>
<path fill="none" stroke="#191970" d="M422.9784,-330.769C438.9266,-320.8456 459.251,-308.1994 473.0028,-299.6427"/>
<polygon fill="#191970" stroke="#191970" points="420.8183,-327.9908 414.1768,-336.2455 424.5165,-333.9342 420.8183,-327.9908"/>
</g>
<!-- Node11&#45;&gt;Node26 -->
<g id="edge21" class="edge">
<title>Node11&#45;&gt;Node26</title>
<path fill="none" stroke="#191970" d="M444.3311,-333.7199C482.7613,-323.4228 536.852,-308.9296 572.0405,-299.5011"/>
<polygon fill="#191970" stroke="#191970" points="443.1818,-330.4043 434.4284,-336.3733 444.9935,-337.1658 443.1818,-330.4043"/>
</g>
<!-- Node27 -->
<g id="node18" class="node">
<title>Node27</title>
<g id="a_node18"><a xlink:href="Component_8cpp.html" target="_top" xlink:title="src/Component.cpp">
<polygon fill="#ffffff" stroke="#000000" points="268.5,-280.5 268.5,-299.5 370.5,-299.5 370.5,-280.5 268.5,-280.5"/>
<text text-anchor="middle" x="319.5" y="-287.5" font-family="Helvetica,sans-Serif" font-size="10.00" fill="#000000">src/Component.cpp</text>
</a>
</g>
</g>
<!-- Node11&#45;&gt;Node27 -->
<g id="edge23" class="edge">
<title>Node11&#45;&gt;Node27</title>
<path fill="none" stroke="#191970" d="M376.2244,-330.2097C362.3495,-320.3743 344.9485,-308.0394 333.1031,-299.6427"/>
<polygon fill="#191970" stroke="#191970" points="374.5569,-333.3178 384.7393,-336.2455 378.6051,-327.6071 374.5569,-333.3178"/>
</g>
<!-- Node13 -->
<g id="node4" class="node">
<title>Node13</title>
<g id="a_node4"><a xlink:href="Button_8cpp.html" target="_top" xlink:title="src/Button.cpp">
<polygon fill="#ffffff" stroke="#000000" points="18.5,-224.5 18.5,-243.5 98.5,-243.5 98.5,-224.5 18.5,-224.5"/>
<text text-anchor="middle" x="58.5" y="-231.5" font-family="Helvetica,sans-Serif" font-size="10.00" fill="#000000">src/Button.cpp</text>
</a>
</g>
</g>
<!-- Node12&#45;&gt;Node13 -->
<g id="edge3" class="edge">
<title>Node12&#45;&gt;Node13</title>
<path fill="none" stroke="#191970" d="M57.2087,-270.1575C57.5302,-261.155 57.8957,-250.9199 58.1556,-243.6427"/>
<polygon fill="#191970" stroke="#191970" points="53.7076,-270.127 56.8484,-280.2455 60.7032,-270.3769 53.7076,-270.127"/>
</g>
<!-- Node15 -->
<g id="node6" class="node">
<title>Node15</title>
<g id="a_node6"><a xlink:href="Grouper_8cpp.html" target="_top" xlink:title="src/Grouper.cpp">
<polygon fill="#ffffff" stroke="#000000" points="178.5,-224.5 178.5,-243.5 264.5,-243.5 264.5,-224.5 178.5,-224.5"/>
<text text-anchor="middle" x="221.5" y="-231.5" font-family="Helvetica,sans-Serif" font-size="10.00" fill="#000000">src/Grouper.cpp</text>
</a>
</g>
</g>
<!-- Node14&#45;&gt;Node15 -->
<g id="edge6" class="edge">
<title>Node14&#45;&gt;Node15</title>
<path fill="none" stroke="#191970" d="M209.7827,-270.4538C212.6992,-261.3803 216.0358,-250.9998 218.4006,-243.6427"/>
<polygon fill="#191970" stroke="#191970" points="206.3634,-269.6542 206.6354,-280.2455 213.0276,-271.7963 206.3634,-269.6542"/>
</g>
<!-- Node17 -->
<g id="node8" class="node">
<title>Node17</title>
<g id="a_node8"><a xlink:href="ManhattanDistance_8h.html" target="_top" xlink:title="include/ManhattanDistance.h">
<polygon fill="#ffffff" stroke="#000000" points="74,-56.5 74,-75.5 217,-75.5 217,-56.5 74,-56.5"/>
<text text-anchor="middle" x="145.5" y="-63.5" font-family="Helvetica,sans-Serif" font-size="10.00" fill="#000000">include/ManhattanDistance.h</text>
</a>
</g>
</g>
<!-- Node16&#45;&gt;Node17 -->
<g id="edge8" class="edge">
<title>Node16&#45;&gt;Node17</title>
<path fill="none" stroke="#191970" d="M145.5,-102.1575C145.5,-93.155 145.5,-82.9199 145.5,-75.6427"/>
<polygon fill="#191970" stroke="#191970" points="142.0001,-102.2455 145.5,-112.2455 149.0001,-102.2456 142.0001,-102.2455"/>
</g>
<!-- Node18 -->
<g id="node9" class="node">
<title>Node18</title>
<g id="a_node9"><a xlink:href="ManhattanDistance_8cpp.html" target="_top" xlink:title="src/ManhattanDistance.cpp">
<polygon fill="#ffffff" stroke="#000000" points="77,-.5 77,-19.5 214,-19.5 214,-.5 77,-.5"/>
<text text-anchor="middle" x="145.5" y="-7.5" font-family="Helvetica,sans-Serif" font-size="10.00" fill="#000000">src/ManhattanDistance.cpp</text>
</a>
</g>
</g>
<!-- Node17&#45;&gt;Node18 -->
<g id="edge9" class="edge">
<title>Node17&#45;&gt;Node18</title>
<path fill="none" stroke="#191970" d="M145.5,-46.1575C145.5,-37.155 145.5,-26.9199 145.5,-19.6427"/>
<polygon fill="#191970" stroke="#191970" points="142.0001,-46.2455 145.5,-56.2455 149.0001,-46.2456 142.0001,-46.2455"/>
</g>
<!-- Node20 -->
<g id="node11" class="node">
<title>Node20</title>
<g id="a_node11"><a xlink:href="Tileset_8h.html" target="_top" xlink:title="include/Tileset.h">
<polygon fill="#ffffff" stroke="#000000" points="12.5,-168.5 12.5,-187.5 100.5,-187.5 100.5,-168.5 12.5,-168.5"/>
<text text-anchor="middle" x="56.5" y="-175.5" font-family="Helvetica,sans-Serif" font-size="10.00" fill="#000000">include/Tileset.h</text>
</a>
</g>
</g>
<!-- Node19&#45;&gt;Node20 -->
<g id="edge11" class="edge">
<title>Node19&#45;&gt;Node20</title>
<path fill="none" stroke="#191970" d="M307.2598,-224.345C248.9429,-213.567 155.5787,-196.3116 100.7311,-186.1747"/>
<polygon fill="#191970" stroke="#191970" points="306.8996,-227.8377 317.3691,-226.2134 308.1718,-220.9542 306.8996,-227.8377"/>
</g>
<!-- Node22 -->
<g id="node13" class="node">
<title>Node22</title>
<g id="a_node13"><a xlink:href="Sprite_8cpp.html" target="_top" xlink:title="src/Sprite.cpp">
<polygon fill="#ffffff" stroke="#000000" points="780,-168.5 780,-187.5 857,-187.5 857,-168.5 780,-168.5"/>
<text text-anchor="middle" x="818.5" y="-175.5" font-family="Helvetica,sans-Serif" font-size="10.00" fill="#000000">src/Sprite.cpp</text>
</a>
</g>
</g>
<!-- Node19&#45;&gt;Node22 -->
<g id="edge14" class="edge">
<title>Node19&#45;&gt;Node22</title>
<path fill="none" stroke="#191970" d="M411.9284,-224.0478C553.8035,-202.7279 709.2003,-187.7258 779.9305,-181.3554"/>
<polygon fill="#191970" stroke="#191970" points="411.1,-220.6333 401.7381,-225.5937 412.15,-227.5541 411.1,-220.6333"/>
</g>
<!-- Node20&#45;&gt;Node16 -->
<g id="edge12" class="edge">
<title>Node20&#45;&gt;Node16</title>
<path fill="none" stroke="#191970" d="M80.7064,-162.769C96.4775,-152.8456 116.576,-140.1994 130.175,-131.6427"/>
<polygon fill="#191970" stroke="#191970" points="78.6026,-159.9575 72.0026,-168.2455 82.3305,-165.8823 78.6026,-159.9575"/>
</g>
<!-- Node21 -->
<g id="node12" class="node">
<title>Node21</title>
<g id="a_node12"><a xlink:href="Tileset_8cpp.html" target="_top" xlink:title="src/Tileset.cpp">
<polygon fill="#ffffff" stroke="#000000" points="0,-112.5 0,-131.5 81,-131.5 81,-112.5 0,-112.5"/>
<text text-anchor="middle" x="40.5" y="-119.5" font-family="Helvetica,sans-Serif" font-size="10.00" fill="#000000">src/Tileset.cpp</text>
</a>
</g>
</g>
<!-- Node20&#45;&gt;Node21 -->
<g id="edge13" class="edge">
<title>Node20&#45;&gt;Node21</title>
<path fill="none" stroke="#191970" d="M50.9154,-158.4538C48.323,-149.3803 45.3571,-138.9998 43.255,-131.6427"/>
<polygon fill="#191970" stroke="#191970" points="47.6004,-159.5919 53.713,-168.2455 54.3311,-157.6688 47.6004,-159.5919"/>
</g>
<!-- Node23&#45;&gt;Node13 -->
<g id="edge17" class="edge">
<title>Node23&#45;&gt;Node13</title>
<path fill="none" stroke="#191970" d="M416.4474,-280.6164C325.2316,-268.7371 171.2487,-248.6835 98.6553,-239.2295"/>
<polygon fill="#191970" stroke="#191970" points="416.0652,-284.0961 426.4335,-281.9169 416.9693,-277.1547 416.0652,-284.0961"/>
</g>
<!-- Node23&#45;&gt;Node15 -->
<g id="edge18" class="edge">
<title>Node23&#45;&gt;Node15</title>
<path fill="none" stroke="#191970" d="M432.9052,-278.3397C382.9019,-267.8521 310.4687,-252.6601 264.6967,-243.06"/>
<polygon fill="#191970" stroke="#191970" points="432.3989,-281.8096 442.9044,-280.4369 433.8359,-274.9586 432.3989,-281.8096"/>
</g>
<!-- Node23&#45;&gt;Node19 -->
<g id="edge16" class="edge">
<title>Node23&#45;&gt;Node19</title>
<path fill="none" stroke="#191970" d="M457.1329,-276.3833C433.6716,-266.1985 402.1815,-252.5284 381.3865,-243.5011"/>
<polygon fill="#191970" stroke="#191970" points="455.7574,-279.6017 466.3241,-280.3733 458.5449,-273.1806 455.7574,-279.6017"/>
</g>
<!-- Node24 -->
<g id="node15" class="node">
<title>Node24</title>
<g id="a_node15"><a xlink:href="RectTransform_8cpp.html" target="_top" xlink:title="src/RectTransform.cpp">
<polygon fill="#ffffff" stroke="#000000" points="673,-224.5 673,-243.5 790,-243.5 790,-224.5 673,-224.5"/>
<text text-anchor="middle" x="731.5" y="-231.5" font-family="Helvetica,sans-Serif" font-size="10.00" fill="#000000">src/RectTransform.cpp</text>
</a>
</g>
</g>
<!-- Node23&#45;&gt;Node24 -->
<g id="edge19" class="edge">
<title>Node23&#45;&gt;Node24</title>
<path fill="none" stroke="#191970" d="M539.8011,-278.1775C584.554,-267.8641 648.6484,-253.0934 690.1741,-243.5237"/>
<polygon fill="#191970" stroke="#191970" points="538.9557,-274.7805 529.9971,-280.4369 540.5277,-281.6017 538.9557,-274.7805"/>
</g>
<!-- Node25 -->
<g id="node16" class="node">
<title>Node25</title>
<g id="a_node16"><a xlink:href="Text_8cpp.html" target="_top" xlink:title="src/Text.cpp">
<polygon fill="#ffffff" stroke="#000000" points="420,-224.5 420,-243.5 491,-243.5 491,-224.5 420,-224.5"/>
<text text-anchor="middle" x="455.5" y="-231.5" font-family="Helvetica,sans-Serif" font-size="10.00" fill="#000000">src/Text.cpp</text>
</a>
</g>
</g>
<!-- Node23&#45;&gt;Node25 -->
<g id="edge20" class="edge">
<title>Node23&#45;&gt;Node25</title>
<path fill="none" stroke="#191970" d="M477.6746,-271.6296C472.1701,-262.2887 465.7063,-251.3197 461.1823,-243.6427"/>
<polygon fill="#191970" stroke="#191970" points="474.6595,-273.4071 482.7518,-280.2455 480.6903,-269.8532 474.6595,-273.4071"/>
</g>
<!-- Node26&#45;&gt;Node25 -->
<g id="edge22" class="edge">
<title>Node26&#45;&gt;Node25</title>
<path fill="none" stroke="#191970" d="M571.641,-276.7888C543.8877,-266.5639 506.1181,-252.6488 481.2888,-243.5011"/>
<polygon fill="#191970" stroke="#191970" points="570.7768,-280.2003 581.3703,-280.3733 573.1968,-273.6319 570.7768,-280.2003"/>
</g>
<!-- Node28&#45;&gt;Node16 -->
<g id="edge26" class="edge">
<title>Node28&#45;&gt;Node16</title>
<path fill="none" stroke="#191970" d="M722.7346,-275.5098C687.8229,-256.6455 630.5662,-225.845 625.5,-224 472.0026,-168.099 279.1542,-138.7147 192.022,-127.4862"/>
<polygon fill="#191970" stroke="#191970" points="721.4658,-278.8026 731.927,-280.4801 724.7952,-272.6451 721.4658,-278.8026"/>
</g>
<!-- Node28&#45;&gt;Node22 -->
<g id="edge30" class="edge">
<title>Node28&#45;&gt;Node22</title>
<path fill="none" stroke="#191970" d="M771.9396,-273.8975C781.6531,-265.896 792.4005,-255.4848 799.5,-244 810.6599,-225.9467 815.4863,-201.0905 817.3914,-187.6196"/>
<polygon fill="#191970" stroke="#191970" points="769.5068,-271.3568 763.7872,-280.2752 773.82,-276.8702 769.5068,-271.3568"/>
</g>
<!-- Node28&#45;&gt;Node24 -->
<g id="edge29" class="edge">
<title>Node28&#45;&gt;Node24</title>
<path fill="none" stroke="#191970" d="M743.2173,-270.4538C740.3008,-261.3803 736.9642,-250.9998 734.5994,-243.6427"/>
<polygon fill="#191970" stroke="#191970" points="739.9724,-271.7963 746.3646,-280.2455 746.6366,-269.6542 739.9724,-271.7963"/>
</g>
<!-- Node29 -->
<g id="node20" class="node">
<title>Node29</title>
<g id="a_node20"><a xlink:href="Camera_8cpp.html" target="_top" xlink:title="src/Camera.cpp">
<polygon fill="#ffffff" stroke="#000000" points="846.5,-224.5 846.5,-243.5 932.5,-243.5 932.5,-224.5 846.5,-224.5"/>
<text text-anchor="middle" x="889.5" y="-231.5" font-family="Helvetica,sans-Serif" font-size="10.00" fill="#000000">src/Camera.cpp</text>
</a>
</g>
</g>
<!-- Node28&#45;&gt;Node29 -->
<g id="edge27" class="edge">
<title>Node28&#45;&gt;Node29</title>
<path fill="none" stroke="#191970" d="M782.8649,-276.6541C808.3952,-266.4419 842.9784,-252.6086 865.7472,-243.5011"/>
<polygon fill="#191970" stroke="#191970" points="781.5517,-273.4096 773.5669,-280.3733 784.1515,-279.909 781.5517,-273.4096"/>
</g>
<!-- Node28&#45;&gt;Node30 -->
<g id="edge28" class="edge">
<title>Node28&#45;&gt;Node30</title>
<path fill="none" stroke="#191970" d="M707.6123,-277.4561C673.2857,-267.1765 625.4435,-252.8494 594.227,-243.5011"/>
<polygon fill="#191970" stroke="#191970" points="706.7698,-280.8573 717.3536,-280.3733 708.778,-274.1515 706.7698,-280.8573"/>
</g>
<!-- Node31 -->
<g id="node22" class="node">
<title>Node31</title>
<g id="a_node22"><a xlink:href="State_8cpp.html" target="_top" xlink:title="src/State.cpp">
<polygon fill="#ffffff" stroke="#000000" points="1316,-224.5 1316,-243.5 1391,-243.5 1391,-224.5 1316,-224.5"/>
<text text-anchor="middle" x="1353.5" y="-231.5" font-family="Helvetica,sans-Serif" font-size="10.00" fill="#000000">src/State.cpp</text>
</a>
</g>
</g>
<!-- Node28&#45;&gt;Node31 -->
<g id="edge31" class="edge">
<title>Node28&#45;&gt;Node31</title>
<path fill="none" stroke="#191970" d="M806.3735,-286.2271C928.2204,-277.993 1211.1219,-258.0269 1306.5,-244 1309.5538,-243.5509 1312.7067,-243.0227 1315.8662,-242.4477"/>
<polygon fill="#191970" stroke="#191970" points="805.8807,-282.7523 796.1386,-286.9168 806.3513,-289.7365 805.8807,-282.7523"/>
</g>
<!-- Node32&#45;&gt;Node31 -->
<g id="edge45" class="edge">
<title>Node32&#45;&gt;Node31</title>
<path fill="none" stroke="#191970" d="M1011.6765,-336.0818C1116.2183,-318.9714 1148.351,-334.4285 1243.5,-300 1281.8242,-286.1328 1321.567,-258.3653 1341.1164,-243.6567"/>
<polygon fill="#191970" stroke="#191970" points="1010.9422,-332.6563 1001.6698,-337.782 1012.1148,-339.5574 1010.9422,-332.6563"/>
</g>
<!-- Node33 -->
<g id="node24" class="node">
<title>Node33</title>
<g id="a_node24"><a xlink:href="Game_8h.html" target="_top" xlink:title="include/Game.h">
<polygon fill="#ffffff" stroke="#000000" points="918,-280.5 918,-299.5 1003,-299.5 1003,-280.5 918,-280.5"/>
<text text-anchor="middle" x="960.5" y="-287.5" font-family="Helvetica,sans-Serif" font-size="10.00" fill="#000000">include/Game.h</text>
</a>
</g>
</g>
<!-- Node32&#45;&gt;Node33 -->
<g id="edge33" class="edge">
<title>Node32&#45;&gt;Node33</title>
<path fill="none" stroke="#191970" d="M960.5,-326.1575C960.5,-317.155 960.5,-306.9199 960.5,-299.6427"/>
<polygon fill="#191970" stroke="#191970" points="957.0001,-326.2455 960.5,-336.2455 964.0001,-326.2456 957.0001,-326.2455"/>
</g>
<!-- Node37 -->
<g id="node28" class="node">
<title>Node37</title>
<g id="a_node28"><a xlink:href="Threading_8h.html" target="_top" xlink:title="include/Threading.h">
<polygon fill="#ffffff" stroke="#000000" points="1133,-280.5 1133,-299.5 1234,-299.5 1234,-280.5 1133,-280.5"/>
<text text-anchor="middle" x="1183.5" y="-287.5" font-family="Helvetica,sans-Serif" font-size="10.00" fill="#000000">include/Threading.h</text>
</a>
</g>
</g>
<!-- Node32&#45;&gt;Node37 -->
<g id="edge41" class="edge">
<title>Node32&#45;&gt;Node37</title>
<path fill="none" stroke="#191970" d="M1008.3574,-333.982C1049.3889,-323.6781 1107.7076,-309.0331 1145.5754,-299.5237"/>
<polygon fill="#191970" stroke="#191970" points="1007.4281,-330.6066 998.5817,-336.4369 1009.133,-337.3958 1007.4281,-330.6066"/>
</g>
<!-- Node33&#45;&gt;Node22 -->
<g id="edge38" class="edge">
<title>Node33&#45;&gt;Node22</title>
<path fill="none" stroke="#191970" d="M959.3945,-269.7954C957.5894,-255.3836 953.0017,-236.4305 941.5,-224 919.5905,-200.3212 884.3229,-188.7649 857.1578,-183.1642"/>
<polygon fill="#191970" stroke="#191970" points="955.9455,-270.521 960.3247,-280.1684 962.9175,-269.8957 955.9455,-270.521"/>
</g>
<!-- Node33&#45;&gt;Node24 -->
<g id="edge36" class="edge">
<title>Node33&#45;&gt;Node24</title>
<path fill="none" stroke="#191970" d="M911.622,-278.0473C869.4728,-267.7401 809.4138,-253.0532 770.445,-243.5237"/>
<polygon fill="#191970" stroke="#191970" points="910.8485,-281.4612 921.3937,-280.4369 912.5113,-274.6616 910.8485,-281.4612"/>
</g>
<!-- Node33&#45;&gt;Node25 -->
<g id="edge39" class="edge">
<title>Node33&#45;&gt;Node25</title>
<path fill="none" stroke="#191970" d="M907.7803,-286.7766C822.0087,-281.0737 647.0876,-267.5312 500.5,-244 497.4973,-243.518 494.3945,-242.9587 491.2874,-242.3558"/>
<polygon fill="#191970" stroke="#191970" points="907.5827,-290.271 917.7904,-287.4333 908.041,-283.286 907.5827,-290.271"/>
</g>
<!-- Node33&#45;&gt;Node29 -->
<g id="edge34" class="edge">
<title>Node33&#45;&gt;Node29</title>
<path fill="none" stroke="#191970" d="M940.123,-273.928C927.7129,-264.1397 912.27,-251.9595 901.7255,-243.6427"/>
<polygon fill="#191970" stroke="#191970" points="938.1136,-276.8007 948.1327,-280.2455 942.4486,-271.3046 938.1136,-276.8007"/>
</g>
<!-- Node34 -->
<g id="node25" class="node">
<title>Node34</title>
<g id="a_node25"><a xlink:href="Game_8cpp.html" target="_top" xlink:title="src/Game.cpp">
<polygon fill="#ffffff" stroke="#000000" points="1219.5,-224.5 1219.5,-243.5 1297.5,-243.5 1297.5,-224.5 1219.5,-224.5"/>
<text text-anchor="middle" x="1258.5" y="-231.5" font-family="Helvetica,sans-Serif" font-size="10.00" fill="#000000">src/Game.cpp</text>
</a>
</g>
</g>
<!-- Node33&#45;&gt;Node34 -->
<g id="edge35" class="edge">
<title>Node33&#45;&gt;Node34</title>
<path fill="none" stroke="#191970" d="M1013.0758,-280.6955C1063.7127,-271.6468 1142.4348,-257.3502 1210.5,-244 1213.4236,-243.4266 1216.445,-242.823 1219.4828,-242.2083"/>
<polygon fill="#191970" stroke="#191970" points="1012.2526,-277.287 1003.0227,-282.4889 1013.482,-284.1782 1012.2526,-277.287"/>
</g>
<!-- Node35 -->
<g id="node26" class="node">
<title>Node35</title>
<g id="a_node26"><a xlink:href="Resources_8cpp.html" target="_top" xlink:title="src/Resources.cpp">
<polygon fill="#ffffff" stroke="#000000" points="989,-224.5 989,-243.5 1088,-243.5 1088,-224.5 989,-224.5"/>
<text text-anchor="middle" x="1038.5" y="-231.5" font-family="Helvetica,sans-Serif" font-size="10.00" fill="#000000">src/Resources.cpp</text>
</a>
</g>
</g>
<!-- Node33&#45;&gt;Node35 -->
<g id="edge37" class="edge">
<title>Node33&#45;&gt;Node35</title>
<path fill="none" stroke="#191970" d="M982.4936,-274.2097C996.1929,-264.3743 1013.3736,-252.0394 1025.0691,-243.6427"/>
<polygon fill="#191970" stroke="#191970" points="980.1686,-271.5703 974.0866,-280.2455 984.2511,-277.2566 980.1686,-271.5703"/>
</g>
<!-- Node36 -->
<g id="node27" class="node">
<title>Node36</title>
<g id="a_node27"><a xlink:href="Threading_8cpp.html" target="_top" xlink:title="src/Threading.cpp">
<polygon fill="#ffffff" stroke="#000000" points="1106,-224.5 1106,-243.5 1201,-243.5 1201,-224.5 1106,-224.5"/>
<text text-anchor="middle" x="1153.5" y="-231.5" font-family="Helvetica,sans-Serif" font-size="10.00" fill="#000000">src/Threading.cpp</text>
</a>
</g>
</g>
<!-- Node33&#45;&gt;Node36 -->
<g id="edge40" class="edge">
<title>Node33&#45;&gt;Node36</title>
<path fill="none" stroke="#191970" d="M1003.7317,-277.4561C1039.1596,-267.1765 1088.537,-252.8494 1120.7551,-243.5011"/>
<polygon fill="#191970" stroke="#191970" points="1002.3064,-274.2252 993.6779,-280.3733 1004.2571,-280.9479 1002.3064,-274.2252"/>
</g>
<!-- Node37&#45;&gt;Node31 -->
<g id="edge43" class="edge">
<title>Node37&#45;&gt;Node31</title>
<path fill="none" stroke="#191970" d="M1222.386,-277.1905C1253.5312,-266.9309 1296.5223,-252.7691 1324.6573,-243.5011"/>
<polygon fill="#191970" stroke="#191970" points="1221.1269,-273.9202 1212.724,-280.3733 1223.3171,-280.5687 1221.1269,-273.9202"/>
</g>
<!-- Node37&#45;&gt;Node34 -->
<g id="edge42" class="edge">
<title>Node37&#45;&gt;Node34</title>
<path fill="none" stroke="#191970" d="M1204.6477,-274.2097C1217.8201,-264.3743 1234.34,-252.0394 1245.5857,-243.6427"/>
<polygon fill="#191970" stroke="#191970" points="1202.4828,-271.4581 1196.564,-280.2455 1206.6709,-277.0671 1202.4828,-271.4581"/>
</g>
<!-- Node37&#45;&gt;Node36 -->
<g id="edge44" class="edge">
<title>Node37&#45;&gt;Node36</title>
<path fill="none" stroke="#191970" d="M1173.502,-271.3372C1168.5324,-262.0605 1162.7356,-251.2398 1158.6657,-243.6427"/>
<polygon fill="#191970" stroke="#191970" points="1170.4669,-273.0835 1178.2744,-280.2455 1176.6373,-269.7779 1170.4669,-273.0835"/>
</g>
</g>
</svg>
