<?xml version="1.0" encoding="UTF-8" standalone="no"?>
<!DOCTYPE svg PUBLIC "-//W3C//DTD SVG 1.1//EN"
 "http://www.w3.org/Graphics/SVG/1.1/DTD/svg11.dtd">
<!-- Generated by graphviz version 2.38.0 (20140413.2041)
 -->
<!-- Title: include/Grouper.h Pages: 1 -->
<svg width="451pt" height="308pt"
 viewBox="0.00 0.00 451.00 308.00" xmlns="http://www.w3.org/2000/svg" xmlns:xlink="http://www.w3.org/1999/xlink">
<g id="graph0" class="graph" transform="scale(1 1) rotate(0) translate(4 304)">
<title>include/Grouper.h</title>
<polygon fill="white" stroke="none" points="-4,4 -4,-304 447,-304 447,4 -4,4"/>
<!-- Node0 -->
<g id="node1" class="node"><title>Node0</title>
<polygon fill="#bfbfbf" stroke="black" points="134,-280.5 134,-299.5 227,-299.5 227,-280.5 134,-280.5"/>
<text text-anchor="middle" x="180.5" y="-287.5" font-family="Helvetica,sans-Serif" font-size="10.00">include/Grouper.h</text>
</g>
<!-- Node1 -->
<g id="node2" class="node"><title>Node1</title>
<g id="a_node2"><a xlink:href="Component_8h.html" target="_top" xlink:title="Component.h">
<polygon fill="white" stroke="black" points="110,-224.5 110,-243.5 185,-243.5 185,-224.5 110,-224.5"/>
<text text-anchor="middle" x="147.5" y="-231.5" font-family="Helvetica,sans-Serif" font-size="10.00">Component.h</text>
</a>
</g>
</g>
<!-- Node0&#45;&gt;Node1 -->
<g id="edge1" class="edge"><title>Node0&#45;&gt;Node1</title>
<path fill="none" stroke="midnightblue" d="M175.051,-280.083C170.486,-272.613 163.832,-261.724 158.207,-252.52"/>
<polygon fill="midnightblue" stroke="midnightblue" points="161.049,-250.459 152.848,-243.751 155.076,-254.109 161.049,-250.459"/>
</g>
<!-- Node2 -->
<g id="node3" class="node"><title>Node2</title>
<g id="a_node3"><a xlink:href="ComponentType_8h.html" target="_top" xlink:title="ComponentType.h">
<polygon fill="white" stroke="black" points="0,-112.5 0,-131.5 97,-131.5 97,-112.5 0,-112.5"/>
<text text-anchor="middle" x="48.5" y="-119.5" font-family="Helvetica,sans-Serif" font-size="10.00">ComponentType.h</text>
</a>
</g>
</g>
<!-- Node0&#45;&gt;Node2 -->
<g id="edge15" class="edge"><title>Node0&#45;&gt;Node2</title>
<path fill="none" stroke="midnightblue" d="M156.769,-280.497C139.234,-273.172 115.839,-261.067 100.5,-244 73.3393,-213.781 58.8299,-167.212 52.4952,-141.552"/>
<polygon fill="midnightblue" stroke="midnightblue" points="55.8695,-140.609 50.2055,-131.655 49.0496,-142.187 55.8695,-140.609"/>
</g>
<!-- Node3 -->
<g id="node4" class="node"><title>Node3</title>
<g id="a_node4"><a xlink:href="GameObject_8h.html" target="_top" xlink:title="GameObject.h">
<polygon fill="white" stroke="black" points="135.5,-168.5 135.5,-187.5 215.5,-187.5 215.5,-168.5 135.5,-168.5"/>
<text text-anchor="middle" x="175.5" y="-175.5" font-family="Helvetica,sans-Serif" font-size="10.00">GameObject.h</text>
</a>
</g>
</g>
<!-- Node0&#45;&gt;Node3 -->
<g id="edge16" class="edge"><title>Node0&#45;&gt;Node3</title>
<path fill="none" stroke="midnightblue" d="M184.464,-280.176C189.576,-267.682 197.374,-244.115 193.5,-224 191.71,-214.705 188.017,-204.889 184.439,-196.805"/>
<polygon fill="midnightblue" stroke="midnightblue" points="187.556,-195.209 180.121,-187.661 181.227,-198.198 187.556,-195.209"/>
</g>
<!-- Node9 -->
<g id="node10" class="node"><title>Node9</title>
<g id="a_node10"><a xlink:href="Vec2_8h.html" target="_top" xlink:title="Vec2.h">
<polygon fill="white" stroke="black" points="396,-56.5 396,-75.5 443,-75.5 443,-56.5 396,-56.5"/>
<text text-anchor="middle" x="419.5" y="-63.5" font-family="Helvetica,sans-Serif" font-size="10.00">Vec2.h</text>
</a>
</g>
</g>
<!-- Node0&#45;&gt;Node9 -->
<g id="edge17" class="edge"><title>Node0&#45;&gt;Node9</title>
<path fill="none" stroke="midnightblue" d="M200.32,-280.437C243.48,-260.768 346.421,-208.123 400.5,-132 410.182,-118.372 414.97,-99.8306 417.314,-86.0379"/>
<polygon fill="midnightblue" stroke="midnightblue" points="420.829,-86.1721 418.761,-75.781 413.898,-85.1937 420.829,-86.1721"/>
</g>
<!-- Node1&#45;&gt;Node2 -->
<g id="edge2" class="edge"><title>Node1&#45;&gt;Node2</title>
<path fill="none" stroke="midnightblue" d="M139.732,-224.368C123.177,-205.974 84.2041,-162.671 62.9467,-139.052"/>
<polygon fill="midnightblue" stroke="midnightblue" points="65.5235,-136.683 56.2323,-131.591 60.3204,-141.366 65.5235,-136.683"/>
</g>
<!-- Node1&#45;&gt;Node3 -->
<g id="edge3" class="edge"><title>Node1&#45;&gt;Node3</title>
<path fill="none" stroke="midnightblue" d="M146.957,-224.083C149.279,-216.534 154.612,-205.495 160.225,-196.23"/>
<polygon fill="midnightblue" stroke="midnightblue" points="163.235,-198.023 165.831,-187.751 157.396,-194.162 163.235,-198.023"/>
</g>
<!-- Node3&#45;&gt;Node1 -->
<g id="edge8" class="edge"><title>Node3&#45;&gt;Node1</title>
<path fill="none" stroke="midnightblue" d="M176.093,-187.751C173.816,-195.248 168.508,-206.275 162.899,-215.566"/>
<polygon fill="midnightblue" stroke="midnightblue" points="159.866,-213.806 157.29,-224.083 165.713,-217.656 159.866,-213.806"/>
</g>
<!-- Node3&#45;&gt;Node2 -->
<g id="edge9" class="edge"><title>Node3&#45;&gt;Node2</title>
<path fill="none" stroke="midnightblue" d="M155.376,-168.444C134.476,-159.557 101.565,-145.563 77.7839,-135.451"/>
<polygon fill="midnightblue" stroke="midnightblue" points="79.1016,-132.208 68.5294,-131.516 76.3625,-138.65 79.1016,-132.208"/>
</g>
<!-- Node4 -->
<g id="node5" class="node"><title>Node4</title>
<g id="a_node5"><a xlink:href="SDL__include_8h.html" target="_top" xlink:title="SDL_include.h">
<polygon fill="white" stroke="black" points="265.5,-0.5 265.5,-19.5 345.5,-19.5 345.5,-0.5 265.5,-0.5"/>
<text text-anchor="middle" x="305.5" y="-7.5" font-family="Helvetica,sans-Serif" font-size="10.00">SDL_include.h</text>
</a>
</g>
</g>
<!-- Node3&#45;&gt;Node4 -->
<g id="edge4" class="edge"><title>Node3&#45;&gt;Node4</title>
<path fill="none" stroke="midnightblue" d="M166.046,-168.422C153.358,-155.827 133.607,-131.692 144.5,-112 170.304,-65.3517 227.663,-37.3558 266.47,-23.0487"/>
<polygon fill="midnightblue" stroke="midnightblue" points="268.134,-26.1727 276.394,-19.5375 265.799,-19.5736 268.134,-26.1727"/>
</g>
<!-- Node5 -->
<g id="node6" class="node"><title>Node5</title>
<polygon fill="white" stroke="#bfbfbf" points="153.5,-112.5 153.5,-131.5 197.5,-131.5 197.5,-112.5 153.5,-112.5"/>
<text text-anchor="middle" x="175.5" y="-119.5" font-family="Helvetica,sans-Serif" font-size="10.00">vector</text>
</g>
<!-- Node3&#45;&gt;Node5 -->
<g id="edge5" class="edge"><title>Node3&#45;&gt;Node5</title>
<path fill="none" stroke="midnightblue" d="M175.5,-168.083C175.5,-161.006 175.5,-150.861 175.5,-141.986"/>
<polygon fill="midnightblue" stroke="midnightblue" points="179,-141.751 175.5,-131.751 172,-141.751 179,-141.751"/>
</g>
<!-- Node6 -->
<g id="node7" class="node"><title>Node6</title>
<polygon fill="white" stroke="#bfbfbf" points="215.5,-112.5 215.5,-131.5 267.5,-131.5 267.5,-112.5 215.5,-112.5"/>
<text text-anchor="middle" x="241.5" y="-119.5" font-family="Helvetica,sans-Serif" font-size="10.00">memory</text>
</g>
<!-- Node3&#45;&gt;Node6 -->
<g id="edge6" class="edge"><title>Node3&#45;&gt;Node6</title>
<path fill="none" stroke="midnightblue" d="M186.104,-168.324C195.956,-160.263 210.851,-148.077 222.715,-138.369"/>
<polygon fill="midnightblue" stroke="midnightblue" points="225.18,-140.875 230.703,-131.834 220.747,-135.457 225.18,-140.875"/>
</g>
<!-- Node7 -->
<g id="node8" class="node"><title>Node7</title>
<polygon fill="white" stroke="#bfbfbf" points="286,-112.5 286,-131.5 327,-131.5 327,-112.5 286,-112.5"/>
<text text-anchor="middle" x="306.5" y="-119.5" font-family="Helvetica,sans-Serif" font-size="10.00">string</text>
</g>
<!-- Node3&#45;&gt;Node7 -->
<g id="edge7" class="edge"><title>Node3&#45;&gt;Node7</title>
<path fill="none" stroke="midnightblue" d="M196.257,-168.444C217.816,-159.557 251.763,-145.563 276.294,-135.451"/>
<polygon fill="midnightblue" stroke="midnightblue" points="277.928,-138.563 285.84,-131.516 275.261,-132.092 277.928,-138.563"/>
</g>
<!-- Node8 -->
<g id="node9" class="node"><title>Node8</title>
<g id="a_node9"><a xlink:href="Rect_8h.html" target="_top" xlink:title="Rect.h">
<polygon fill="white" stroke="black" points="345.5,-112.5 345.5,-131.5 391.5,-131.5 391.5,-112.5 345.5,-112.5"/>
<text text-anchor="middle" x="368.5" y="-119.5" font-family="Helvetica,sans-Serif" font-size="10.00">Rect.h</text>
</a>
</g>
</g>
<!-- Node3&#45;&gt;Node8 -->
<g id="edge10" class="edge"><title>Node3&#45;&gt;Node8</title>
<path fill="none" stroke="midnightblue" d="M206.069,-168.472C236.497,-159.979 284.79,-146.491 335.582,-132.254"/>
<polygon fill="midnightblue" stroke="midnightblue" points="336.745,-135.563 345.429,-129.493 334.856,-128.823 336.745,-135.563"/>
</g>
<!-- Node8&#45;&gt;Node4 -->
<g id="edge11" class="edge"><title>Node8&#45;&gt;Node4</title>
<path fill="none" stroke="midnightblue" d="M357.157,-112.179C347.193,-103.859 332.996,-90.5244 324.5,-76 316.06,-61.5704 311.134,-43.1178 308.422,-29.5626"/>
<polygon fill="midnightblue" stroke="midnightblue" points="311.834,-28.7564 306.637,-19.5238 304.942,-29.9822 311.834,-28.7564"/>
</g>
<!-- Node8&#45;&gt;Node9 -->
<g id="edge12" class="edge"><title>Node8&#45;&gt;Node9</title>
<path fill="none" stroke="midnightblue" d="M376.922,-112.083C384.348,-104.22 395.352,-92.5688 404.312,-83.0813"/>
<polygon fill="midnightblue" stroke="midnightblue" points="406.913,-85.4244 411.235,-75.7511 401.824,-80.618 406.913,-85.4244"/>
</g>
<!-- Node10 -->
<g id="node11" class="node"><title>Node10</title>
<polygon fill="white" stroke="#bfbfbf" points="333.5,-56.5 333.5,-75.5 377.5,-75.5 377.5,-56.5 333.5,-56.5"/>
<text text-anchor="middle" x="355.5" y="-63.5" font-family="Helvetica,sans-Serif" font-size="10.00">cmath</text>
</g>
<!-- Node8&#45;&gt;Node10 -->
<g id="edge14" class="edge"><title>Node8&#45;&gt;Node10</title>
<path fill="none" stroke="midnightblue" d="M366.353,-112.083C364.631,-104.927 362.153,-94.6353 360,-85.6911"/>
<polygon fill="midnightblue" stroke="midnightblue" points="363.35,-84.6541 357.607,-75.7511 356.545,-86.2925 363.35,-84.6541"/>
</g>
<!-- Node9&#45;&gt;Node4 -->
<g id="edge13" class="edge"><title>Node9&#45;&gt;Node4</title>
<path fill="none" stroke="midnightblue" d="M401.436,-56.4435C382.925,-47.6751 353.919,-33.9355 332.645,-23.8579"/>
<polygon fill="midnightblue" stroke="midnightblue" points="334.015,-20.6343 323.479,-19.5164 331.018,-26.9604 334.015,-20.6343"/>
</g>
</g>
</svg>
