<?xml version="1.0" encoding="UTF-8" standalone="no"?>
<!DOCTYPE svg PUBLIC "-//W3C//DTD SVG 1.1//EN"
 "http://www.w3.org/Graphics/SVG/1.1/DTD/svg11.dtd">
<!-- Generated by graphviz version 2.40.1 (20161225.0304)
 -->
<!-- Title: src/Grouper.cpp Pages: 1 -->
<svg width="493pt" height="364pt"
 viewBox="0.00 0.00 492.67 364.00" xmlns="http://www.w3.org/2000/svg" xmlns:xlink="http://www.w3.org/1999/xlink">
<g id="graph0" class="graph" transform="scale(1 1) rotate(0) translate(4 360)">
<title>src/Grouper.cpp</title>
<polygon fill="#ffffff" stroke="transparent" points="-4,4 -4,-360 488.6676,-360 488.6676,4 -4,4"/>
<!-- Node0 -->
<g id="node1" class="node">
<title>Node0</title>
<polygon fill="#bfbfbf" stroke="#000000" points="202.5,-336.5 202.5,-355.5 288.5,-355.5 288.5,-336.5 202.5,-336.5"/>
<text text-anchor="middle" x="245.5" y="-343.5" font-family="Helvetica,sans-Serif" font-size="10.00" fill="#000000">src/Grouper.cpp</text>
</g>
<!-- Node1 -->
<g id="node2" class="node">
<title>Node1</title>
<g id="a_node2"><a xlink:href="Grouper_8h.html" target="_top" xlink:title="Grouper.h">
<polygon fill="#ffffff" stroke="#000000" points="0,-280.5 0,-299.5 59,-299.5 59,-280.5 0,-280.5"/>
<text text-anchor="middle" x="29.5" y="-287.5" font-family="Helvetica,sans-Serif" font-size="10.00" fill="#000000">Grouper.h</text>
</a>
</g>
</g>
<!-- Node0&#45;&gt;Node1 -->
<g id="edge1" class="edge">
<title>Node0&#45;&gt;Node1</title>
<path fill="none" stroke="#191970" d="M208.3683,-336.3733C169.5318,-326.3046 108.8057,-310.5607 69.0788,-300.2612"/>
<polygon fill="#191970" stroke="#191970" points="69.7682,-296.8243 59.2099,-297.7026 68.0114,-303.6002 69.7682,-296.8243"/>
</g>
<!-- Node9 -->
<g id="node10" class="node">
<title>Node9</title>
<g id="a_node10"><a xlink:href="Rect_8h.html" target="_top" xlink:title="Rect.h">
<polygon fill="#ffffff" stroke="#000000" points="421.5,-112.5 421.5,-131.5 467.5,-131.5 467.5,-112.5 421.5,-112.5"/>
<text text-anchor="middle" x="444.5" y="-119.5" font-family="Helvetica,sans-Serif" font-size="10.00" fill="#000000">Rect.h</text>
</a>
</g>
</g>
<!-- Node0&#45;&gt;Node9 -->
<g id="edge23" class="edge">
<title>Node0&#45;&gt;Node9</title>
<path fill="none" stroke="#191970" d="M288.5095,-341.4783C343.2339,-333.0852 435.13,-309.4803 472.5,-244 489.2656,-214.6229 486.6218,-200.2746 476.5,-168 473.2504,-157.6383 466.7506,-147.5669 460.4529,-139.5026"/>
<polygon fill="#191970" stroke="#191970" points="462.9619,-137.047 453.8618,-131.6212 457.5921,-141.5376 462.9619,-137.047"/>
</g>
<!-- Node12 -->
<g id="node13" class="node">
<title>Node12</title>
<g id="a_node13"><a xlink:href="Error_8h.html" target="_top" xlink:title="Error.h">
<polygon fill="#ffffff" stroke="#000000" points="130.5,-280.5 130.5,-299.5 176.5,-299.5 176.5,-280.5 130.5,-280.5"/>
<text text-anchor="middle" x="153.5" y="-287.5" font-family="Helvetica,sans-Serif" font-size="10.00" fill="#000000">Error.h</text>
</a>
</g>
</g>
<!-- Node0&#45;&gt;Node12 -->
<g id="edge20" class="edge">
<title>Node0&#45;&gt;Node12</title>
<path fill="none" stroke="#191970" d="M229.4748,-336.2455C215.3592,-327.6534 194.5737,-315.0014 178.3101,-305.1018"/>
<polygon fill="#191970" stroke="#191970" points="179.7034,-301.8525 169.3415,-299.6427 176.0637,-307.8319 179.7034,-301.8525"/>
</g>
<!-- Node15 -->
<g id="node16" class="node">
<title>Node15</title>
<g id="a_node16"><a xlink:href="RectTransform_8h.html" target="_top" xlink:title="RectTransform.h">
<polygon fill="#ffffff" stroke="#000000" points="292.5,-280.5 292.5,-299.5 382.5,-299.5 382.5,-280.5 292.5,-280.5"/>
<text text-anchor="middle" x="337.5" y="-287.5" font-family="Helvetica,sans-Serif" font-size="10.00" fill="#000000">RectTransform.h</text>
</a>
</g>
</g>
<!-- Node0&#45;&gt;Node15 -->
<g id="edge24" class="edge">
<title>Node0&#45;&gt;Node15</title>
<path fill="none" stroke="#191970" d="M261.5252,-336.2455C275.6408,-327.6534 296.4263,-315.0014 312.6899,-305.1018"/>
<polygon fill="#191970" stroke="#191970" points="314.9363,-307.8319 321.6585,-299.6427 311.2966,-301.8525 314.9363,-307.8319"/>
</g>
<!-- Node2 -->
<g id="node3" class="node">
<title>Node2</title>
<g id="a_node3"><a xlink:href="Component_8h.html" target="_top" xlink:title="Component.h">
<polygon fill="#ffffff" stroke="#000000" points="234,-224.5 234,-243.5 309,-243.5 309,-224.5 234,-224.5"/>
<text text-anchor="middle" x="271.5" y="-231.5" font-family="Helvetica,sans-Serif" font-size="10.00" fill="#000000">Component.h</text>
</a>
</g>
</g>
<!-- Node1&#45;&gt;Node2 -->
<g id="edge2" class="edge">
<title>Node1&#45;&gt;Node2</title>
<path fill="none" stroke="#191970" d="M59.174,-283.1333C100.1793,-273.6445 174.639,-256.4141 223.585,-245.0878"/>
<polygon fill="#191970" stroke="#191970" points="224.6675,-248.4298 233.621,-242.7654 223.0894,-241.61 224.6675,-248.4298"/>
</g>
<!-- Node3 -->
<g id="node4" class="node">
<title>Node3</title>
<g id="a_node4"><a xlink:href="ComponentType_8h.html" target="_top" xlink:title="ComponentType.h">
<polygon fill="#ffffff" stroke="#000000" points="33,-112.5 33,-131.5 130,-131.5 130,-112.5 33,-112.5"/>
<text text-anchor="middle" x="81.5" y="-119.5" font-family="Helvetica,sans-Serif" font-size="10.00" fill="#000000">ComponentType.h</text>
</a>
</g>
</g>
<!-- Node1&#45;&gt;Node3 -->
<g id="edge17" class="edge">
<title>Node1&#45;&gt;Node3</title>
<path fill="none" stroke="#191970" d="M28.7519,-280.4277C28.0017,-267.4307 27.5715,-243.5766 32.5,-224 40.3314,-192.8929 58.1065,-159.9724 69.9549,-140.2064"/>
<polygon fill="#191970" stroke="#191970" points="72.9741,-141.9782 75.2258,-131.6254 67.0095,-138.3144 72.9741,-141.9782"/>
</g>
<!-- Node4 -->
<g id="node5" class="node">
<title>Node4</title>
<g id="a_node5"><a xlink:href="GameObject_8h.html" target="_top" xlink:title="GameObject.h">
<polygon fill="#ffffff" stroke="#000000" points="231.5,-168.5 231.5,-187.5 311.5,-187.5 311.5,-168.5 231.5,-168.5"/>
<text text-anchor="middle" x="271.5" y="-175.5" font-family="Helvetica,sans-Serif" font-size="10.00" fill="#000000">GameObject.h</text>
</a>
</g>
</g>
<!-- Node1&#45;&gt;Node4 -->
<g id="edge18" class="edge">
<title>Node1&#45;&gt;Node4</title>
<path fill="none" stroke="#191970" d="M29.3534,-280.3398C29.6911,-265.8824 32.5767,-238.744 48.5,-224 73.1265,-201.1974 163.196,-188.4063 221.057,-182.3778"/>
<polygon fill="#191970" stroke="#191970" points="221.5113,-185.8498 231.1097,-181.3643 220.8091,-178.8851 221.5113,-185.8498"/>
</g>
<!-- Node10 -->
<g id="node11" class="node">
<title>Node10</title>
<g id="a_node11"><a xlink:href="Vec2_8h.html" target="_top" xlink:title="Vec2.h">
<polygon fill="#ffffff" stroke="#000000" points="357,-56.5 357,-75.5 404,-75.5 404,-56.5 357,-56.5"/>
<text text-anchor="middle" x="380.5" y="-63.5" font-family="Helvetica,sans-Serif" font-size="10.00" fill="#000000">Vec2.h</text>
</a>
</g>
</g>
<!-- Node1&#45;&gt;Node10 -->
<g id="edge19" class="edge">
<title>Node1&#45;&gt;Node10</title>
<path fill="none" stroke="#191970" d="M25.1928,-280.3951C12.7343,-250.9917 -19.7887,-161.2244 23.5,-112 44.6977,-87.8957 261.8297,-72.8523 346.7328,-67.8521"/>
<polygon fill="#191970" stroke="#191970" points="347.0941,-71.3372 356.8754,-67.2658 346.69,-64.3489 347.0941,-71.3372"/>
</g>
<!-- Node2&#45;&gt;Node3 -->
<g id="edge3" class="edge">
<title>Node2&#45;&gt;Node3</title>
<path fill="none" stroke="#191970" d="M259.4872,-224.2837C242.3687,-210.698 209.6792,-185.7061 179.5,-168 158.5594,-155.7142 133.7996,-144.1148 114.4067,-135.6373"/>
<polygon fill="#191970" stroke="#191970" points="115.65,-132.362 105.0812,-131.6195 112.8802,-138.7907 115.65,-132.362"/>
</g>
<!-- Node2&#45;&gt;Node4 -->
<g id="edge4" class="edge">
<title>Node2&#45;&gt;Node4</title>
<path fill="none" stroke="#191970" d="M266.2332,-224.2455C264.8221,-216.9382 264.4179,-206.6944 265.0205,-197.7046"/>
<polygon fill="#191970" stroke="#191970" points="268.5111,-197.9945 266.2549,-187.6427 261.5632,-197.1421 268.5111,-197.9945"/>
</g>
<!-- Node4&#45;&gt;Node2 -->
<g id="edge9" class="edge">
<title>Node4&#45;&gt;Node2</title>
<path fill="none" stroke="#191970" d="M276.7451,-187.6427C278.1665,-194.9199 278.581,-205.155 277.9887,-214.1575"/>
<polygon fill="#191970" stroke="#191970" points="274.4947,-213.8972 276.7668,-224.2455 281.4439,-214.739 274.4947,-213.8972"/>
</g>
<!-- Node4&#45;&gt;Node3 -->
<g id="edge10" class="edge">
<title>Node4&#45;&gt;Node3</title>
<path fill="none" stroke="#191970" d="M238.8378,-168.3733C206.9702,-158.9807 158.3469,-144.6496 123.593,-134.4064"/>
<polygon fill="#191970" stroke="#191970" points="124.3175,-130.9711 113.736,-131.5011 122.3385,-137.6855 124.3175,-130.9711"/>
</g>
<!-- Node5 -->
<g id="node6" class="node">
<title>Node5</title>
<g id="a_node6"><a xlink:href="SDL__include_8h.html" target="_top" xlink:title="SDL_include.h">
<polygon fill="#ffffff" stroke="#000000" points="340.5,-.5 340.5,-19.5 420.5,-19.5 420.5,-.5 340.5,-.5"/>
<text text-anchor="middle" x="380.5" y="-7.5" font-family="Helvetica,sans-Serif" font-size="10.00" fill="#000000">SDL_include.h</text>
</a>
</g>
</g>
<!-- Node4&#45;&gt;Node5 -->
<g id="edge5" class="edge">
<title>Node4&#45;&gt;Node5</title>
<path fill="none" stroke="#191970" d="M259.8368,-168.1933C246.0284,-155.3322 226.1339,-132.0458 236.5,-112 259.2033,-68.0966 310.4817,-39.0194 345.3022,-23.5179"/>
<polygon fill="#191970" stroke="#191970" points="346.8415,-26.666 354.6495,-19.5046 344.0798,-20.2338 346.8415,-26.666"/>
</g>
<!-- Node6 -->
<g id="node7" class="node">
<title>Node6</title>
<polygon fill="#ffffff" stroke="#bfbfbf" points="245.5,-112.5 245.5,-131.5 289.5,-131.5 289.5,-112.5 245.5,-112.5"/>
<text text-anchor="middle" x="267.5" y="-119.5" font-family="Helvetica,sans-Serif" font-size="10.00" fill="#000000">vector</text>
</g>
<!-- Node4&#45;&gt;Node6 -->
<g id="edge6" class="edge">
<title>Node4&#45;&gt;Node6</title>
<path fill="none" stroke="#191970" d="M270.8033,-168.2455C270.2813,-160.9382 269.5496,-150.6944 268.9075,-141.7046"/>
<polygon fill="#191970" stroke="#191970" points="272.3924,-141.3679 268.1888,-131.6427 265.4102,-141.8667 272.3924,-141.3679"/>
</g>
<!-- Node7 -->
<g id="node8" class="node">
<title>Node7</title>
<polygon fill="#ffffff" stroke="#bfbfbf" points="307.5,-112.5 307.5,-131.5 359.5,-131.5 359.5,-112.5 307.5,-112.5"/>
<text text-anchor="middle" x="333.5" y="-119.5" font-family="Helvetica,sans-Serif" font-size="10.00" fill="#000000">memory</text>
</g>
<!-- Node4&#45;&gt;Node7 -->
<g id="edge7" class="edge">
<title>Node4&#45;&gt;Node7</title>
<path fill="none" stroke="#191970" d="M282.2996,-168.2455C291.3678,-160.0549 304.5206,-148.1749 315.2245,-138.5069"/>
<polygon fill="#191970" stroke="#191970" points="317.7491,-140.9429 322.8242,-131.6427 313.0571,-135.7482 317.7491,-140.9429"/>
</g>
<!-- Node8 -->
<g id="node9" class="node">
<title>Node8</title>
<polygon fill="#ffffff" stroke="#bfbfbf" points="148,-112.5 148,-131.5 189,-131.5 189,-112.5 148,-112.5"/>
<text text-anchor="middle" x="168.5" y="-119.5" font-family="Helvetica,sans-Serif" font-size="10.00" fill="#000000">string</text>
</g>
<!-- Node4&#45;&gt;Node8 -->
<g id="edge8" class="edge">
<title>Node4&#45;&gt;Node8</title>
<path fill="none" stroke="#191970" d="M253.5588,-168.2455C237.46,-159.4928 213.6121,-146.527 195.2609,-136.5496"/>
<polygon fill="#191970" stroke="#191970" points="196.6929,-133.3444 186.2356,-131.6427 193.3493,-139.4942 196.6929,-133.3444"/>
</g>
<!-- Node4&#45;&gt;Node9 -->
<g id="edge11" class="edge">
<title>Node4&#45;&gt;Node9</title>
<path fill="none" stroke="#191970" d="M301.2398,-168.3733C332.012,-158.4123 379.9431,-142.897 411.7732,-132.5937"/>
<polygon fill="#191970" stroke="#191970" points="413.0636,-135.8548 421.4997,-129.4452 410.9078,-129.195 413.0636,-135.8548"/>
</g>
<!-- Node9&#45;&gt;Node5 -->
<g id="edge12" class="edge">
<title>Node9&#45;&gt;Node5</title>
<path fill="none" stroke="#191970" d="M455.1569,-112.2231C468.2437,-98.9941 487.3337,-74.878 475.5,-56 465.3171,-39.7554 447.5898,-29.1056 430.1856,-22.1907"/>
<polygon fill="#191970" stroke="#191970" points="431.194,-18.8336 420.5998,-18.7216 428.8118,-25.4158 431.194,-18.8336"/>
</g>
<!-- Node9&#45;&gt;Node10 -->
<g id="edge13" class="edge">
<title>Node9&#45;&gt;Node10</title>
<path fill="none" stroke="#191970" d="M428.0852,-112.2455C417.2502,-104.1352 403.5212,-92.4075 393.4464,-82.7919"/>
<polygon fill="#191970" stroke="#191970" points="395.8281,-80.2242 386.2751,-75.6427 390.886,-85.1816 395.8281,-80.2242"/>
</g>
<!-- Node11 -->
<g id="node12" class="node">
<title>Node11</title>
<polygon fill="#ffffff" stroke="#bfbfbf" points="422.5,-56.5 422.5,-75.5 466.5,-75.5 466.5,-56.5 422.5,-56.5"/>
<text text-anchor="middle" x="444.5" y="-63.5" font-family="Helvetica,sans-Serif" font-size="10.00" fill="#000000">cmath</text>
</g>
<!-- Node9&#45;&gt;Node11 -->
<g id="edge16" class="edge">
<title>Node9&#45;&gt;Node11</title>
<path fill="none" stroke="#191970" d="M444.5,-112.2455C444.5,-104.9382 444.5,-94.6944 444.5,-85.7046"/>
<polygon fill="#191970" stroke="#191970" points="448.0001,-85.6426 444.5,-75.6427 441.0001,-85.6427 448.0001,-85.6426"/>
</g>
<!-- Node10&#45;&gt;Node5 -->
<g id="edge14" class="edge">
<title>Node10&#45;&gt;Node5</title>
<path fill="none" stroke="#191970" d="M380.5,-56.2455C380.5,-48.9382 380.5,-38.6944 380.5,-29.7046"/>
<polygon fill="#191970" stroke="#191970" points="384.0001,-29.6426 380.5,-19.6427 377.0001,-29.6427 384.0001,-29.6426"/>
</g>
<!-- Node10&#45;&gt;Node9 -->
<g id="edge15" class="edge">
<title>Node10&#45;&gt;Node9</title>
<path fill="none" stroke="#191970" d="M396.7653,-75.6427C407.5736,-83.7196 421.3059,-95.4402 431.4142,-105.0751"/>
<polygon fill="#191970" stroke="#191970" points="429.062,-107.6721 438.6189,-112.2455 433.9999,-102.7105 429.062,-107.6721"/>
</g>
<!-- Node13 -->
<g id="node14" class="node">
<title>Node13</title>
<polygon fill="#ffffff" stroke="#bfbfbf" points="57.5,-224.5 57.5,-243.5 111.5,-243.5 111.5,-224.5 57.5,-224.5"/>
<text text-anchor="middle" x="84.5" y="-231.5" font-family="Helvetica,sans-Serif" font-size="10.00" fill="#000000">iostream</text>
</g>
<!-- Node12&#45;&gt;Node13 -->
<g id="edge21" class="edge">
<title>Node12&#45;&gt;Node13</title>
<path fill="none" stroke="#191970" d="M141.4811,-280.2455C131.2902,-271.9746 116.4638,-259.9416 104.4893,-250.2232"/>
<polygon fill="#191970" stroke="#191970" points="106.3514,-247.2268 96.3812,-243.6427 101.9402,-252.662 106.3514,-247.2268"/>
</g>
<!-- Node14 -->
<g id="node15" class="node">
<title>Node14</title>
<polygon fill="#ffffff" stroke="#bfbfbf" points="129.5,-224.5 129.5,-243.5 177.5,-243.5 177.5,-224.5 129.5,-224.5"/>
<text text-anchor="middle" x="153.5" y="-231.5" font-family="Helvetica,sans-Serif" font-size="10.00" fill="#000000">stdlib.h</text>
</g>
<!-- Node12&#45;&gt;Node14 -->
<g id="edge22" class="edge">
<title>Node12&#45;&gt;Node14</title>
<path fill="none" stroke="#191970" d="M153.5,-280.2455C153.5,-272.9382 153.5,-262.6944 153.5,-253.7046"/>
<polygon fill="#191970" stroke="#191970" points="157.0001,-253.6426 153.5,-243.6427 150.0001,-253.6427 157.0001,-253.6426"/>
</g>
<!-- Node15&#45;&gt;Node2 -->
<g id="edge26" class="edge">
<title>Node15&#45;&gt;Node2</title>
<path fill="none" stroke="#191970" d="M326.0037,-280.2455C316.2558,-271.9746 302.0741,-259.9416 290.6202,-250.2232"/>
<polygon fill="#191970" stroke="#191970" points="292.7541,-247.4437 282.8646,-243.6427 288.2253,-252.7813 292.7541,-247.4437"/>
</g>
<!-- Node15&#45;&gt;Node3 -->
<g id="edge27" class="edge">
<title>Node15&#45;&gt;Node3</title>
<path fill="none" stroke="#191970" d="M307.2796,-280.4862C284.0161,-272.4895 251.5437,-259.835 225.5,-244 174.7212,-213.1256 123.6139,-164.7618 98.1318,-139.1876"/>
<polygon fill="#191970" stroke="#191970" points="100.3028,-136.4041 90.7917,-131.7361 95.3159,-141.3164 100.3028,-136.4041"/>
</g>
<!-- Node15&#45;&gt;Node4 -->
<g id="edge28" class="edge">
<title>Node15&#45;&gt;Node4</title>
<path fill="none" stroke="#191970" d="M336.3133,-280.4278C334.3156,-267.0133 329.3798,-242.2235 318.5,-224 311.7099,-212.6267 301.4214,-202.1144 292.1999,-194.0187"/>
<polygon fill="#191970" stroke="#191970" points="294.4014,-191.2972 284.4856,-187.5653 289.91,-196.6662 294.4014,-191.2972"/>
</g>
<!-- Node15&#45;&gt;Node9 -->
<g id="edge29" class="edge">
<title>Node15&#45;&gt;Node9</title>
<path fill="none" stroke="#191970" d="M374.2135,-280.44C404.8816,-271.6241 445.0677,-257.8435 454.5,-244 475.6395,-212.9741 462.8411,-166.6714 452.8776,-140.951"/>
<polygon fill="#191970" stroke="#191970" points="456.0641,-139.4972 449.017,-131.5859 449.5924,-142.1651 456.0641,-139.4972"/>
</g>
<!-- Node15&#45;&gt;Node10 -->
<g id="edge30" class="edge">
<title>Node15&#45;&gt;Node10</title>
<path fill="none" stroke="#191970" d="M339.4337,-280.3906C344.381,-255.7528 357.8578,-188.3079 368.5,-132 371.4107,-116.5994 374.5774,-99.1514 376.9265,-86.0646"/>
<polygon fill="#191970" stroke="#191970" points="380.4385,-86.3079 378.7535,-75.8479 373.5478,-85.0756 380.4385,-86.3079"/>
</g>
<!-- Node16 -->
<g id="node17" class="node">
<title>Node16</title>
<polygon fill="#ffffff" stroke="#bfbfbf" points="404,-224.5 404,-243.5 445,-243.5 445,-224.5 404,-224.5"/>
<text text-anchor="middle" x="424.5" y="-231.5" font-family="Helvetica,sans-Serif" font-size="10.00" fill="#000000">cfloat</text>
</g>
<!-- Node15&#45;&gt;Node16 -->
<g id="edge25" class="edge">
<title>Node15&#45;&gt;Node16</title>
<path fill="none" stroke="#191970" d="M352.6542,-280.2455C366.0027,-271.6534 385.6586,-259.0014 401.0383,-249.1018"/>
<polygon fill="#191970" stroke="#191970" points="403.0051,-251.9982 409.5194,-243.6427 399.2164,-246.1121 403.0051,-251.9982"/>
</g>
</g>
</svg>
