<?xml version="1.0" encoding="UTF-8" standalone="no"?>
<!DOCTYPE svg PUBLIC "-//W3C//DTD SVG 1.1//EN"
 "http://www.w3.org/Graphics/SVG/1.1/DTD/svg11.dtd">
<!-- Generated by graphviz version 2.40.1 (20161225.0304)
 -->
<!-- Title: include/Grouper.h Pages: 1 -->
<svg width="425pt" height="308pt"
 viewBox="0.00 0.00 425.00 308.00" xmlns="http://www.w3.org/2000/svg" xmlns:xlink="http://www.w3.org/1999/xlink">
<g id="graph0" class="graph" transform="scale(1 1) rotate(0) translate(4 304)">
<title>include/Grouper.h</title>
<polygon fill="#ffffff" stroke="transparent" points="-4,4 -4,-304 421,-304 421,4 -4,4"/>
<!-- Node0 -->
<g id="node1" class="node">
<title>Node0</title>
<polygon fill="#bfbfbf" stroke="#000000" points="127,-280.5 127,-299.5 220,-299.5 220,-280.5 127,-280.5"/>
<text text-anchor="middle" x="173.5" y="-287.5" font-family="Helvetica,sans-Serif" font-size="10.00" fill="#000000">include/Grouper.h</text>
</g>
<!-- Node1 -->
<g id="node2" class="node">
<title>Node1</title>
<g id="a_node2"><a xlink:href="Component_8h.html" target="_top" xlink:title="Component.h">
<polygon fill="#ffffff" stroke="#000000" points="103,-224.5 103,-243.5 178,-243.5 178,-224.5 103,-224.5"/>
<text text-anchor="middle" x="140.5" y="-231.5" font-family="Helvetica,sans-Serif" font-size="10.00" fill="#000000">Component.h</text>
</a>
</g>
</g>
<!-- Node0&#45;&gt;Node1 -->
<g id="edge1" class="edge">
<title>Node0&#45;&gt;Node1</title>
<path fill="none" stroke="#191970" d="M167.7518,-280.2455C163.2565,-272.617 156.8752,-261.7881 151.4175,-252.5267"/>
<polygon fill="#191970" stroke="#191970" points="154.2747,-250.4811 146.1823,-243.6427 148.2439,-254.035 154.2747,-250.4811"/>
</g>
<!-- Node2 -->
<g id="node3" class="node">
<title>Node2</title>
<g id="a_node3"><a xlink:href="ComponentType_8h.html" target="_top" xlink:title="ComponentType.h">
<polygon fill="#ffffff" stroke="#000000" points="0,-112.5 0,-131.5 97,-131.5 97,-112.5 0,-112.5"/>
<text text-anchor="middle" x="48.5" y="-119.5" font-family="Helvetica,sans-Serif" font-size="10.00" fill="#000000">ComponentType.h</text>
</a>
</g>
</g>
<!-- Node0&#45;&gt;Node2 -->
<g id="edge16" class="edge">
<title>Node0&#45;&gt;Node2</title>
<path fill="none" stroke="#191970" d="M147.269,-280.4576C129.8957,-272.9407 107.7629,-260.8935 93.5,-244 68.0006,-213.7975 56.3314,-167.8395 51.5024,-141.8059"/>
<polygon fill="#191970" stroke="#191970" points="54.9069,-140.9476 49.7853,-131.673 48.0053,-142.1172 54.9069,-140.9476"/>
</g>
<!-- Node3 -->
<g id="node4" class="node">
<title>Node3</title>
<g id="a_node4"><a xlink:href="GameObject_8h.html" target="_top" xlink:title="GameObject.h">
<polygon fill="#ffffff" stroke="#000000" points="135.5,-168.5 135.5,-187.5 215.5,-187.5 215.5,-168.5 135.5,-168.5"/>
<text text-anchor="middle" x="175.5" y="-175.5" font-family="Helvetica,sans-Serif" font-size="10.00" fill="#000000">GameObject.h</text>
</a>
</g>
</g>
<!-- Node0&#45;&gt;Node3 -->
<g id="edge17" class="edge">
<title>Node0&#45;&gt;Node3</title>
<path fill="none" stroke="#191970" d="M177.0876,-280.2967C180.2841,-271.1001 184.7228,-256.8237 186.5,-244 188.6678,-228.3585 185.4317,-210.7186 181.9195,-197.613"/>
<polygon fill="#191970" stroke="#191970" points="185.213,-196.4083 179.0169,-187.8142 178.5013,-198.3965 185.213,-196.4083"/>
</g>
<!-- Node9 -->
<g id="node10" class="node">
<title>Node9</title>
<g id="a_node10"><a xlink:href="Vec2_8h.html" target="_top" xlink:title="Vec2.h">
<polygon fill="#ffffff" stroke="#000000" points="370,-56.5 370,-75.5 417,-75.5 417,-56.5 370,-56.5"/>
<text text-anchor="middle" x="393.5" y="-63.5" font-family="Helvetica,sans-Serif" font-size="10.00" fill="#000000">Vec2.h</text>
</a>
</g>
</g>
<!-- Node0&#45;&gt;Node9 -->
<g id="edge18" class="edge">
<title>Node0&#45;&gt;Node9</title>
<path fill="none" stroke="#191970" d="M201.3612,-280.4858C252.024,-261.4821 357.9273,-213.502 400.5,-132 407.993,-117.6552 405.1569,-99.1841 401.0703,-85.4323"/>
<polygon fill="#191970" stroke="#191970" points="404.2491,-83.9114 397.6982,-75.5845 397.6265,-86.1791 404.2491,-83.9114"/>
</g>
<!-- Node1&#45;&gt;Node2 -->
<g id="edge2" class="edge">
<title>Node1&#45;&gt;Node2</title>
<path fill="none" stroke="#191970" d="M132.6561,-224.4509C117.1758,-205.6054 82.4947,-163.3849 62.8273,-139.4419"/>
<polygon fill="#191970" stroke="#191970" points="65.376,-137.0306 56.324,-131.5249 59.9669,-141.4738 65.376,-137.0306"/>
</g>
<!-- Node1&#45;&gt;Node3 -->
<g id="edge3" class="edge">
<title>Node1&#45;&gt;Node3</title>
<path fill="none" stroke="#191970" d="M141.3297,-224.2455C144.7285,-216.3761 151.4235,-205.101 158.1436,-195.6542"/>
<polygon fill="#191970" stroke="#191970" points="160.9672,-197.7232 164.2282,-187.6427 155.3927,-193.4894 160.9672,-197.7232"/>
</g>
<!-- Node3&#45;&gt;Node1 -->
<g id="edge8" class="edge">
<title>Node3&#45;&gt;Node1</title>
<path fill="none" stroke="#191970" d="M174.7185,-187.6427C171.351,-195.4797 164.6718,-206.7472 157.9521,-216.2112"/>
<polygon fill="#191970" stroke="#191970" points="155.1138,-214.1616 151.8634,-224.2455 160.6928,-218.3896 155.1138,-214.1616"/>
</g>
<!-- Node3&#45;&gt;Node2 -->
<g id="edge9" class="edge">
<title>Node3&#45;&gt;Node2</title>
<path fill="none" stroke="#191970" d="M153.6679,-168.3733C133.1897,-159.3435 102.3601,-145.7494 79.3681,-135.6111"/>
<polygon fill="#191970" stroke="#191970" points="80.6093,-132.3333 70.0472,-131.5011 77.785,-138.7383 80.6093,-132.3333"/>
</g>
<!-- Node4 -->
<g id="node5" class="node">
<title>Node4</title>
<g id="a_node5"><a xlink:href="SDL__include_8h.html" target="_top" xlink:title="SDL_include.h">
<polygon fill="#ffffff" stroke="#000000" points="239.5,-.5 239.5,-19.5 319.5,-19.5 319.5,-.5 239.5,-.5"/>
<text text-anchor="middle" x="279.5" y="-7.5" font-family="Helvetica,sans-Serif" font-size="10.00" fill="#000000">SDL_include.h</text>
</a>
</g>
</g>
<!-- Node3&#45;&gt;Node4 -->
<g id="edge4" class="edge">
<title>Node3&#45;&gt;Node4</title>
<path fill="none" stroke="#191970" d="M164.9744,-168.0928C152.5329,-155.123 134.6841,-131.7192 144.5,-112 165.7074,-69.3965 214.1391,-39.8656 246.8443,-23.9238"/>
<polygon fill="#191970" stroke="#191970" points="248.4714,-27.0264 256.0285,-19.6006 245.4901,-20.693 248.4714,-27.0264"/>
</g>
<!-- Node5 -->
<g id="node6" class="node">
<title>Node5</title>
<polygon fill="#ffffff" stroke="#bfbfbf" points="153.5,-112.5 153.5,-131.5 197.5,-131.5 197.5,-112.5 153.5,-112.5"/>
<text text-anchor="middle" x="175.5" y="-119.5" font-family="Helvetica,sans-Serif" font-size="10.00" fill="#000000">vector</text>
</g>
<!-- Node3&#45;&gt;Node5 -->
<g id="edge5" class="edge">
<title>Node3&#45;&gt;Node5</title>
<path fill="none" stroke="#191970" d="M175.5,-168.2455C175.5,-160.9382 175.5,-150.6944 175.5,-141.7046"/>
<polygon fill="#191970" stroke="#191970" points="179.0001,-141.6426 175.5,-131.6427 172.0001,-141.6427 179.0001,-141.6426"/>
</g>
<!-- Node6 -->
<g id="node7" class="node">
<title>Node6</title>
<polygon fill="#ffffff" stroke="#bfbfbf" points="215.5,-112.5 215.5,-131.5 267.5,-131.5 267.5,-112.5 215.5,-112.5"/>
<text text-anchor="middle" x="241.5" y="-119.5" font-family="Helvetica,sans-Serif" font-size="10.00" fill="#000000">memory</text>
</g>
<!-- Node3&#45;&gt;Node6 -->
<g id="edge6" class="edge">
<title>Node3&#45;&gt;Node6</title>
<path fill="none" stroke="#191970" d="M186.9963,-168.2455C196.7442,-159.9746 210.9259,-147.9416 222.3798,-138.2232"/>
<polygon fill="#191970" stroke="#191970" points="224.7747,-140.7813 230.1354,-131.6427 220.2459,-135.4437 224.7747,-140.7813"/>
</g>
<!-- Node7 -->
<g id="node8" class="node">
<title>Node7</title>
<polygon fill="#ffffff" stroke="#bfbfbf" points="286,-112.5 286,-131.5 327,-131.5 327,-112.5 286,-112.5"/>
<text text-anchor="middle" x="306.5" y="-119.5" font-family="Helvetica,sans-Serif" font-size="10.00" fill="#000000">string</text>
</g>
<!-- Node3&#45;&gt;Node7 -->
<g id="edge7" class="edge">
<title>Node3&#45;&gt;Node7</title>
<path fill="none" stroke="#191970" d="M198.0197,-168.3733C219.7516,-159.0833 252.785,-144.9621 276.6893,-134.7435"/>
<polygon fill="#191970" stroke="#191970" points="278.1771,-137.914 285.9964,-130.7649 275.4255,-131.4774 278.1771,-137.914"/>
</g>
<!-- Node8 -->
<g id="node9" class="node">
<title>Node8</title>
<g id="a_node9"><a xlink:href="Rect_8h.html" target="_top" xlink:title="Rect.h">
<polygon fill="#ffffff" stroke="#000000" points="345.5,-112.5 345.5,-131.5 391.5,-131.5 391.5,-112.5 345.5,-112.5"/>
<text text-anchor="middle" x="368.5" y="-119.5" font-family="Helvetica,sans-Serif" font-size="10.00" fill="#000000">Rect.h</text>
</a>
</g>
</g>
<!-- Node3&#45;&gt;Node8 -->
<g id="edge10" class="edge">
<title>Node3&#45;&gt;Node8</title>
<path fill="none" stroke="#191970" d="M209.805,-168.4621C240.4084,-159.8951 286.6746,-146.801 335.6264,-132.2142"/>
<polygon fill="#191970" stroke="#191970" points="336.8702,-135.4955 345.4487,-129.2778 334.8652,-128.7887 336.8702,-135.4955"/>
</g>
<!-- Node8&#45;&gt;Node4 -->
<g id="edge11" class="edge">
<title>Node8&#45;&gt;Node4</title>
<path fill="none" stroke="#191970" d="M346.1754,-112.4863C330.6604,-104.7869 310.6602,-92.509 298.5,-76 288.5679,-62.5159 283.8149,-43.961 281.5478,-29.9583"/>
<polygon fill="#191970" stroke="#191970" points="284.9966,-29.3407 280.2111,-19.8883 278.0575,-30.2619 284.9966,-29.3407"/>
</g>
<!-- Node8&#45;&gt;Node9 -->
<g id="edge12" class="edge">
<title>Node8&#45;&gt;Node9</title>
<path fill="none" stroke="#191970" d="M367.5878,-112.2455C369.5204,-104.617 373.9789,-93.7881 378.8349,-84.5267"/>
<polygon fill="#191970" stroke="#191970" points="381.9935,-86.0553 383.9501,-75.6427 375.9272,-82.5625 381.9935,-86.0553"/>
</g>
<!-- Node10 -->
<g id="node11" class="node">
<title>Node10</title>
<polygon fill="#ffffff" stroke="#bfbfbf" points="307.5,-56.5 307.5,-75.5 351.5,-75.5 351.5,-56.5 307.5,-56.5"/>
<text text-anchor="middle" x="329.5" y="-63.5" font-family="Helvetica,sans-Serif" font-size="10.00" fill="#000000">cmath</text>
</g>
<!-- Node8&#45;&gt;Node10 -->
<g id="edge15" class="edge">
<title>Node8&#45;&gt;Node10</title>
<path fill="none" stroke="#191970" d="M361.7067,-112.2455C356.2822,-104.4564 348.5339,-93.3308 341.9967,-83.9439"/>
<polygon fill="#191970" stroke="#191970" points="344.8025,-81.8485 336.2154,-75.6427 339.0583,-85.849 344.8025,-81.8485"/>
</g>
<!-- Node9&#45;&gt;Node4 -->
<g id="edge13" class="edge">
<title>Node9&#45;&gt;Node4</title>
<path fill="none" stroke="#191970" d="M373.9027,-56.3733C355.7669,-47.4644 328.5865,-34.1127 308.0413,-24.0203"/>
<polygon fill="#191970" stroke="#191970" points="309.3603,-20.7688 298.8416,-19.5011 306.2739,-27.0517 309.3603,-20.7688"/>
</g>
<!-- Node9&#45;&gt;Node8 -->
<g id="edge14" class="edge">
<title>Node9&#45;&gt;Node8</title>
<path fill="none" stroke="#191970" d="M394.4404,-75.6427C392.5326,-83.2398 388.0884,-94.0605 383.2363,-103.3372"/>
<polygon fill="#191970" stroke="#191970" points="380.0655,-101.8306 378.1215,-112.2455 386.1361,-105.3161 380.0655,-101.8306"/>
</g>
</g>
</svg>
