<?xml version="1.0" encoding="UTF-8" standalone="no"?>
<!DOCTYPE svg PUBLIC "-//W3C//DTD SVG 1.1//EN"
 "http://www.w3.org/Graphics/SVG/1.1/DTD/svg11.dtd">
<!-- Generated by graphviz version 2.38.0 (20140413.2041)
 -->
<!-- Title: src/Grouper.cpp Pages: 1 -->
<svg width="496pt" height="364pt"
 viewBox="0.00 0.00 495.64 364.00" xmlns="http://www.w3.org/2000/svg" xmlns:xlink="http://www.w3.org/1999/xlink">
<g id="graph0" class="graph" transform="scale(1 1) rotate(0) translate(4 360)">
<title>src/Grouper.cpp</title>
<polygon fill="white" stroke="none" points="-4,4 -4,-360 491.638,-360 491.638,4 -4,4"/>
<!-- Node0 -->
<g id="node1" class="node"><title>Node0</title>
<polygon fill="#bfbfbf" stroke="black" points="203.924,-336.5 203.924,-355.5 289.924,-355.5 289.924,-336.5 203.924,-336.5"/>
<text text-anchor="middle" x="246.924" y="-343.5" font-family="Helvetica,sans-Serif" font-size="10.00">src/Grouper.cpp</text>
</g>
<!-- Node1 -->
<g id="node2" class="node"><title>Node1</title>
<g id="a_node2"><a xlink:href="Grouper_8h.html" target="_top" xlink:title="Grouper.h">
<polygon fill="white" stroke="black" points="1.42353,-280.5 1.42353,-299.5 60.4235,-299.5 60.4235,-280.5 1.42353,-280.5"/>
<text text-anchor="middle" x="30.9235" y="-287.5" font-family="Helvetica,sans-Serif" font-size="10.00">Grouper.h</text>
</a>
</g>
</g>
<!-- Node0&#45;&gt;Node1 -->
<g id="edge1" class="edge"><title>Node0&#45;&gt;Node1</title>
<path fill="none" stroke="midnightblue" d="M212.698,-336.444C173.986,-326.766 111.052,-311.032 70.3248,-300.85"/>
<polygon fill="midnightblue" stroke="midnightblue" points="71.0275,-297.418 60.4772,-298.388 69.3297,-304.209 71.0275,-297.418"/>
</g>
<!-- Node9 -->
<g id="node10" class="node"><title>Node9</title>
<g id="a_node10"><a xlink:href="Rect_8h.html" target="_top" xlink:title="Rect.h">
<polygon fill="white" stroke="black" points="431.924,-112.5 431.924,-131.5 477.924,-131.5 477.924,-112.5 431.924,-112.5"/>
<text text-anchor="middle" x="454.924" y="-119.5" font-family="Helvetica,sans-Serif" font-size="10.00">Rect.h</text>
</a>
</g>
</g>
<!-- Node0&#45;&gt;Node9 -->
<g id="edge22" class="edge"><title>Node0&#45;&gt;Node9</title>
<path fill="none" stroke="midnightblue" d="M290.363,-340.23C344.646,-331.636 435.118,-307.992 473.924,-244 491.512,-214.996 489.708,-200.764 480.924,-168 478.27,-158.103 472.854,-148.131 467.649,-140.099"/>
<polygon fill="midnightblue" stroke="midnightblue" points="470.387,-137.906 461.814,-131.681 464.634,-141.894 470.387,-137.906"/>
</g>
<!-- Node12 -->
<g id="node13" class="node"><title>Node12</title>
<g id="a_node13"><a xlink:href="Error_8h.html" target="_top" xlink:title="Error.h">
<polygon fill="white" stroke="black" points="131.924,-280.5 131.924,-299.5 177.924,-299.5 177.924,-280.5 131.924,-280.5"/>
<text text-anchor="middle" x="154.924" y="-287.5" font-family="Helvetica,sans-Serif" font-size="10.00">Error.h</text>
</a>
</g>
</g>
<!-- Node0&#45;&gt;Node12 -->
<g id="edge19" class="edge"><title>Node0&#45;&gt;Node12</title>
<path fill="none" stroke="midnightblue" d="M232.142,-336.324C217.656,-327.822 195.35,-314.729 178.43,-304.797"/>
<polygon fill="midnightblue" stroke="midnightblue" points="180.064,-301.698 169.668,-299.655 176.521,-307.735 180.064,-301.698"/>
</g>
<!-- Node15 -->
<g id="node16" class="node"><title>Node15</title>
<g id="a_node16"><a xlink:href="RectTransform_8h.html" target="_top" xlink:title="RectTransform.h">
<polygon fill="white" stroke="black" points="293.924,-280.5 293.924,-299.5 383.924,-299.5 383.924,-280.5 293.924,-280.5"/>
<text text-anchor="middle" x="338.924" y="-287.5" font-family="Helvetica,sans-Serif" font-size="10.00">RectTransform.h</text>
</a>
</g>
</g>
<!-- Node0&#45;&gt;Node15 -->
<g id="edge23" class="edge"><title>Node0&#45;&gt;Node15</title>
<path fill="none" stroke="midnightblue" d="M261.705,-336.324C276.191,-327.822 298.497,-314.729 315.417,-304.797"/>
<polygon fill="midnightblue" stroke="midnightblue" points="317.326,-307.735 324.179,-299.655 313.783,-301.698 317.326,-307.735"/>
</g>
<!-- Node2 -->
<g id="node3" class="node"><title>Node2</title>
<g id="a_node3"><a xlink:href="Component_8h.html" target="_top" xlink:title="Component.h">
<polygon fill="white" stroke="black" points="235.424,-224.5 235.424,-243.5 310.424,-243.5 310.424,-224.5 235.424,-224.5"/>
<text text-anchor="middle" x="272.924" y="-231.5" font-family="Helvetica,sans-Serif" font-size="10.00">Component.h</text>
</a>
</g>
</g>
<!-- Node1&#45;&gt;Node2 -->
<g id="edge2" class="edge"><title>Node1&#45;&gt;Node2</title>
<path fill="none" stroke="midnightblue" d="M60.5975,-282.379C101.603,-273.229 176.063,-256.614 225.008,-245.692"/>
<polygon fill="midnightblue" stroke="midnightblue" points="226.047,-249.046 235.045,-243.452 224.522,-242.214 226.047,-249.046"/>
</g>
<!-- Node3 -->
<g id="node4" class="node"><title>Node3</title>
<g id="a_node4"><a xlink:href="ComponentType_8h.html" target="_top" xlink:title="ComponentType.h">
<polygon fill="white" stroke="black" points="30.4235,-112.5 30.4235,-131.5 127.424,-131.5 127.424,-112.5 30.4235,-112.5"/>
<text text-anchor="middle" x="78.9235" y="-119.5" font-family="Helvetica,sans-Serif" font-size="10.00">ComponentType.h</text>
</a>
</g>
</g>
<!-- Node1&#45;&gt;Node3 -->
<g id="edge16" class="edge"><title>Node1&#45;&gt;Node3</title>
<path fill="none" stroke="midnightblue" d="M30.3203,-280.447C29.657,-267.883 29.2357,-243.786 33.9235,-224 41.2346,-193.141 57.8496,-160.049 68.7158,-140.458"/>
<polygon fill="midnightblue" stroke="midnightblue" points="71.8939,-141.949 73.7944,-131.526 65.8088,-138.489 71.8939,-141.949"/>
</g>
<!-- Node4 -->
<g id="node5" class="node"><title>Node4</title>
<g id="a_node5"><a xlink:href="GameObject_8h.html" target="_top" xlink:title="GameObject.h">
<polygon fill="white" stroke="black" points="232.924,-168.5 232.924,-187.5 312.924,-187.5 312.924,-168.5 232.924,-168.5"/>
<text text-anchor="middle" x="272.924" y="-175.5" font-family="Helvetica,sans-Serif" font-size="10.00">GameObject.h</text>
</a>
</g>
</g>
<!-- Node1&#45;&gt;Node4 -->
<g id="edge17" class="edge"><title>Node1&#45;&gt;Node4</title>
<path fill="none" stroke="midnightblue" d="M30.7953,-280.395C31.0845,-266.401 33.8156,-238.79 49.9235,-224 74.6238,-201.321 164.669,-188.929 222.506,-183.156"/>
<polygon fill="midnightblue" stroke="midnightblue" points="222.936,-186.631 232.554,-182.187 222.264,-179.663 222.936,-186.631"/>
</g>
<!-- Node10 -->
<g id="node11" class="node"><title>Node10</title>
<g id="a_node11"><a xlink:href="Vec2_8h.html" target="_top" xlink:title="Vec2.h">
<polygon fill="white" stroke="black" points="339.424,-56.5 339.424,-75.5 386.424,-75.5 386.424,-56.5 339.424,-56.5"/>
<text text-anchor="middle" x="362.924" y="-63.5" font-family="Helvetica,sans-Serif" font-size="10.00">Vec2.h</text>
</a>
</g>
</g>
<!-- Node1&#45;&gt;Node10 -->
<g id="edge18" class="edge"><title>Node1&#45;&gt;Node10</title>
<path fill="none" stroke="midnightblue" d="M26.6974,-280.269C13.661,-251.934 -22.5063,-161.519 20.9235,-112 41.0914,-89.0046 246.872,-74.053 329.174,-68.9514"/>
<polygon fill="midnightblue" stroke="midnightblue" points="329.49,-72.4387 339.259,-68.3375 329.064,-65.4517 329.49,-72.4387"/>
</g>
<!-- Node2&#45;&gt;Node3 -->
<g id="edge3" class="edge"><title>Node2&#45;&gt;Node3</title>
<path fill="none" stroke="midnightblue" d="M262.344,-224.46C245.696,-211.273 212.065,-185.636 180.924,-168 158.49,-155.295 131.786,-143.628 111.33,-135.359"/>
<polygon fill="midnightblue" stroke="midnightblue" points="112.422,-132.027 101.836,-131.583 109.835,-138.531 112.422,-132.027"/>
</g>
<!-- Node2&#45;&gt;Node4 -->
<g id="edge4" class="edge"><title>Node2&#45;&gt;Node4</title>
<path fill="none" stroke="midnightblue" d="M267.757,-224.083C266.248,-216.927 265.817,-206.635 266.466,-197.691"/>
<polygon fill="midnightblue" stroke="midnightblue" points="269.939,-198.126 267.793,-187.751 263,-197.2 269.939,-198.126"/>
</g>
<!-- Node4&#45;&gt;Node2 -->
<g id="edge9" class="edge"><title>Node4&#45;&gt;Node2</title>
<path fill="none" stroke="midnightblue" d="M278.055,-187.751C279.581,-194.858 280.028,-205.136 279.396,-214.101"/>
<polygon fill="midnightblue" stroke="midnightblue" points="275.917,-213.713 278.09,-224.083 282.858,-214.622 275.917,-213.713"/>
</g>
<!-- Node4&#45;&gt;Node3 -->
<g id="edge10" class="edge"><title>Node4&#45;&gt;Node3</title>
<path fill="none" stroke="midnightblue" d="M242.184,-168.444C208.979,-159.201 155.933,-144.436 119.366,-134.257"/>
<polygon fill="midnightblue" stroke="midnightblue" points="120.092,-130.826 109.52,-131.516 118.215,-137.57 120.092,-130.826"/>
</g>
<!-- Node5 -->
<g id="node6" class="node"><title>Node5</title>
<g id="a_node6"><a xlink:href="SDL__include_8h.html" target="_top" xlink:title="SDL_include.h">
<polygon fill="white" stroke="black" points="322.924,-0.5 322.924,-19.5 402.924,-19.5 402.924,-0.5 322.924,-0.5"/>
<text text-anchor="middle" x="362.924" y="-7.5" font-family="Helvetica,sans-Serif" font-size="10.00">SDL_include.h</text>
</a>
</g>
</g>
<!-- Node4&#45;&gt;Node5 -->
<g id="edge5" class="edge"><title>Node4&#45;&gt;Node5</title>
<path fill="none" stroke="midnightblue" d="M261.411,-168.44C246.527,-156.258 223.666,-133.06 233.924,-112 254.581,-69.5915 302.612,-39.742 333.881,-23.9775"/>
<polygon fill="midnightblue" stroke="midnightblue" points="335.539,-27.0631 342.998,-19.5389 332.475,-20.7693 335.539,-27.0631"/>
</g>
<!-- Node6 -->
<g id="node7" class="node"><title>Node6</title>
<polygon fill="white" stroke="#bfbfbf" points="242.924,-112.5 242.924,-131.5 286.924,-131.5 286.924,-112.5 242.924,-112.5"/>
<text text-anchor="middle" x="264.924" y="-119.5" font-family="Helvetica,sans-Serif" font-size="10.00">vector</text>
</g>
<!-- Node4&#45;&gt;Node6 -->
<g id="edge6" class="edge"><title>Node4&#45;&gt;Node6</title>
<path fill="none" stroke="midnightblue" d="M271.602,-168.083C270.542,-160.927 269.018,-150.635 267.693,-141.691"/>
<polygon fill="midnightblue" stroke="midnightblue" points="271.148,-141.13 266.22,-131.751 264.223,-142.156 271.148,-141.13"/>
</g>
<!-- Node7 -->
<g id="node8" class="node"><title>Node7</title>
<polygon fill="white" stroke="#bfbfbf" points="304.924,-112.5 304.924,-131.5 356.924,-131.5 356.924,-112.5 304.924,-112.5"/>
<text text-anchor="middle" x="330.924" y="-119.5" font-family="Helvetica,sans-Serif" font-size="10.00">memory</text>
</g>
<!-- Node4&#45;&gt;Node7 -->
<g id="edge7" class="edge"><title>Node4&#45;&gt;Node7</title>
<path fill="none" stroke="midnightblue" d="M282.242,-168.324C290.816,-160.341 303.736,-148.313 314.111,-138.653"/>
<polygon fill="midnightblue" stroke="midnightblue" points="316.501,-141.21 321.435,-131.834 311.731,-136.086 316.501,-141.21"/>
</g>
<!-- Node8 -->
<g id="node9" class="node"><title>Node8</title>
<polygon fill="white" stroke="#bfbfbf" points="145.424,-112.5 145.424,-131.5 186.424,-131.5 186.424,-112.5 145.424,-112.5"/>
<text text-anchor="middle" x="165.924" y="-119.5" font-family="Helvetica,sans-Serif" font-size="10.00">string</text>
</g>
<!-- Node4&#45;&gt;Node8 -->
<g id="edge8" class="edge"><title>Node4&#45;&gt;Node8</title>
<path fill="none" stroke="midnightblue" d="M255.732,-168.324C238.573,-159.664 211.978,-146.242 192.176,-136.249"/>
<polygon fill="midnightblue" stroke="midnightblue" points="193.577,-133.035 183.072,-131.655 190.423,-139.285 193.577,-133.035"/>
</g>
<!-- Node4&#45;&gt;Node9 -->
<g id="edge11" class="edge"><title>Node4&#45;&gt;Node9</title>
<path fill="none" stroke="midnightblue" d="M301.762,-168.444C334.372,-158.768 387.382,-143.04 421.7,-132.858"/>
<polygon fill="midnightblue" stroke="midnightblue" points="423.115,-136.089 431.706,-129.889 421.124,-129.378 423.115,-136.089"/>
</g>
<!-- Node9&#45;&gt;Node5 -->
<g id="edge12" class="edge"><title>Node9&#45;&gt;Node5</title>
<path fill="none" stroke="midnightblue" d="M458.287,-112.201C462.763,-98.8971 468.918,-73.3735 457.924,-56 447.713,-39.8655 429.981,-29.4027 412.58,-22.6707"/>
<polygon fill="midnightblue" stroke="midnightblue" points="413.592,-19.3165 402.997,-19.3022 411.271,-25.9204 413.592,-19.3165"/>
</g>
<!-- Node9&#45;&gt;Node10 -->
<g id="edge13" class="edge"><title>Node9&#45;&gt;Node10</title>
<path fill="none" stroke="midnightblue" d="M440.142,-112.324C425.656,-103.822 403.35,-90.7288 386.43,-80.7975"/>
<polygon fill="midnightblue" stroke="midnightblue" points="388.064,-77.6981 377.668,-75.6545 384.521,-83.735 388.064,-77.6981"/>
</g>
<!-- Node11 -->
<g id="node12" class="node"><title>Node11</title>
<polygon fill="white" stroke="#bfbfbf" points="404.924,-56.5 404.924,-75.5 448.924,-75.5 448.924,-56.5 404.924,-56.5"/>
<text text-anchor="middle" x="426.924" y="-63.5" font-family="Helvetica,sans-Serif" font-size="10.00">cmath</text>
</g>
<!-- Node9&#45;&gt;Node11 -->
<g id="edge15" class="edge"><title>Node9&#45;&gt;Node11</title>
<path fill="none" stroke="midnightblue" d="M450.3,-112.083C446.467,-104.691 440.899,-93.9533 436.159,-84.8111"/>
<polygon fill="midnightblue" stroke="midnightblue" points="439.171,-83.0175 431.461,-75.7511 432.957,-86.2398 439.171,-83.0175"/>
</g>
<!-- Node10&#45;&gt;Node5 -->
<g id="edge14" class="edge"><title>Node10&#45;&gt;Node5</title>
<path fill="none" stroke="midnightblue" d="M362.924,-56.083C362.924,-49.0059 362.924,-38.8611 362.924,-29.9865"/>
<polygon fill="midnightblue" stroke="midnightblue" points="366.424,-29.751 362.924,-19.7511 359.424,-29.7511 366.424,-29.751"/>
</g>
<!-- Node13 -->
<g id="node14" class="node"><title>Node13</title>
<polygon fill="white" stroke="#bfbfbf" points="58.9235,-224.5 58.9235,-243.5 112.924,-243.5 112.924,-224.5 58.9235,-224.5"/>
<text text-anchor="middle" x="85.9235" y="-231.5" font-family="Helvetica,sans-Serif" font-size="10.00">iostream</text>
</g>
<!-- Node12&#45;&gt;Node13 -->
<g id="edge20" class="edge"><title>Node12&#45;&gt;Node13</title>
<path fill="none" stroke="midnightblue" d="M143.837,-280.324C133.438,-272.185 117.663,-259.839 105.202,-250.087"/>
<polygon fill="midnightblue" stroke="midnightblue" points="107.243,-247.241 97.2113,-243.834 102.929,-252.753 107.243,-247.241"/>
</g>
<!-- Node14 -->
<g id="node15" class="node"><title>Node14</title>
<polygon fill="white" stroke="#bfbfbf" points="130.924,-224.5 130.924,-243.5 178.924,-243.5 178.924,-224.5 130.924,-224.5"/>
<text text-anchor="middle" x="154.924" y="-231.5" font-family="Helvetica,sans-Serif" font-size="10.00">stdlib.h</text>
</g>
<!-- Node12&#45;&gt;Node14 -->
<g id="edge21" class="edge"><title>Node12&#45;&gt;Node14</title>
<path fill="none" stroke="midnightblue" d="M154.924,-280.083C154.924,-273.006 154.924,-262.861 154.924,-253.986"/>
<polygon fill="midnightblue" stroke="midnightblue" points="158.424,-253.751 154.924,-243.751 151.424,-253.751 158.424,-253.751"/>
</g>
<!-- Node15&#45;&gt;Node2 -->
<g id="edge25" class="edge"><title>Node15&#45;&gt;Node2</title>
<path fill="none" stroke="midnightblue" d="M328.319,-280.324C318.467,-272.263 303.573,-260.077 291.708,-250.369"/>
<polygon fill="midnightblue" stroke="midnightblue" points="293.676,-247.457 283.721,-243.834 289.244,-252.875 293.676,-247.457"/>
</g>
<!-- Node15&#45;&gt;Node3 -->
<g id="edge26" class="edge"><title>Node15&#45;&gt;Node3</title>
<path fill="none" stroke="midnightblue" d="M310.399,-280.378C286.845,-272.627 253.009,-260.01 225.924,-244 173.543,-213.039 120.487,-164.042 94.8091,-138.954"/>
<polygon fill="midnightblue" stroke="midnightblue" points="97.0431,-136.241 87.4698,-131.702 92.1231,-141.22 97.0431,-136.241"/>
</g>
<!-- Node15&#45;&gt;Node4 -->
<g id="edge27" class="edge"><title>Node15&#45;&gt;Node4</title>
<path fill="none" stroke="midnightblue" d="M337.68,-280.446C335.498,-267.461 330.108,-242.348 318.924,-224 312.067,-212.753 301.769,-202.32 292.653,-194.337"/>
<polygon fill="midnightblue" stroke="midnightblue" points="294.668,-191.46 284.747,-187.742 290.184,-196.836 294.668,-191.46"/>
</g>
<!-- Node15&#45;&gt;Node9 -->
<g id="edge28" class="edge"><title>Node15&#45;&gt;Node9</title>
<path fill="none" stroke="midnightblue" d="M384.035,-283.867C409.394,-278.413 439.059,-267.171 454.924,-244 476.013,-213.198 467.824,-166.855 460.842,-141.388"/>
<polygon fill="midnightblue" stroke="midnightblue" points="464.127,-140.158 457.92,-131.572 457.418,-142.155 464.127,-140.158"/>
</g>
<!-- Node15&#45;&gt;Node10 -->
<g id="edge29" class="edge"><title>Node15&#45;&gt;Node10</title>
<path fill="none" stroke="midnightblue" d="M341.436,-280.229C348.536,-254.552 368.096,-177.242 365.924,-112 365.637,-103.383 365.042,-93.8541 364.456,-85.7913"/>
<polygon fill="midnightblue" stroke="midnightblue" points="367.93,-85.3184 363.669,-75.6183 360.951,-85.8585 367.93,-85.3184"/>
</g>
<!-- Node16 -->
<g id="node17" class="node"><title>Node16</title>
<polygon fill="white" stroke="#bfbfbf" points="405.424,-224.5 405.424,-243.5 446.424,-243.5 446.424,-224.5 405.424,-224.5"/>
<text text-anchor="middle" x="425.924" y="-231.5" font-family="Helvetica,sans-Serif" font-size="10.00">cfloat</text>
</g>
<!-- Node15&#45;&gt;Node16 -->
<g id="edge24" class="edge"><title>Node15&#45;&gt;Node16</title>
<path fill="none" stroke="midnightblue" d="M352.902,-280.324C366.473,-271.9 387.304,-258.971 403.249,-249.074"/>
<polygon fill="midnightblue" stroke="midnightblue" points="405.33,-251.902 411.98,-243.655 401.638,-245.954 405.33,-251.902"/>
</g>
</g>
</svg>
