<?xml version="1.0" encoding="UTF-8" standalone="no"?>
<!DOCTYPE svg PUBLIC "-//W3C//DTD SVG 1.1//EN"
 "http://www.w3.org/Graphics/SVG/1.1/DTD/svg11.dtd">
<!-- Generated by graphviz version 2.40.1 (20161225.0304)
 -->
<!-- Title: Gráfico de Hierarquia de Classes Pages: 1 -->
<svg width="351pt" height="262pt"
 viewBox="0.00 0.00 351.00 261.50" xmlns="http://www.w3.org/2000/svg" xmlns:xlink="http://www.w3.org/1999/xlink">
<g id="graph0" class="graph" transform="scale(1 1) rotate(0) translate(4 257.5)">
<title>Gráfico de Hierarquia de Classes</title>
<polygon fill="#ffffff" stroke="transparent" points="-4,4 -4,-257.5 347,-257.5 347,4 -4,4"/>
<!-- Node20 -->
<g id="node1" class="node">
<title>Node20</title>
<g id="a_node1"><a xlink:href="classRattletrapEngine_1_1Component.html" target="_top" xlink:title="Modela os componentes. ">
<polygon fill="#ffffff" stroke="#000000" points="0,-120 0,-139 146,-139 146,-120 0,-120"/>
<text text-anchor="middle" x="73" y="-127" font-family="Helvetica,sans-Serif" font-size="10.00" fill="#000000">RattletrapEngine::Component</text>
</a>
</g>
</g>
<!-- Node21 -->
<g id="node2" class="node">
<title>Node21</title>
<g id="a_node2"><a xlink:href="classRattletrapEngine_1_1Button.html" target="_top" xlink:title="RattletrapEngine::Button">
<polygon fill="#ffffff" stroke="#000000" points="200.5,-234 200.5,-253 324.5,-253 324.5,-234 200.5,-234"/>
<text text-anchor="middle" x="262.5" y="-241" font-family="Helvetica,sans-Serif" font-size="10.00" fill="#000000">RattletrapEngine::Button</text>
</a>
</g>
</g>
<!-- Node20&#45;&gt;Node21 -->
<g id="edge1" class="edge">
<title>Node20&#45;&gt;Node21</title>
<path fill="none" stroke="#191970" d="M87.7504,-146.7165C107.158,-168.2405 143.3605,-204.6615 182,-224.5 189.5369,-228.3696 197.8755,-231.4648 206.2461,-233.937"/>
<polygon fill="#191970" stroke="#191970" points="90.1853,-144.1861 80.9431,-139.0061 84.9378,-148.819 90.1853,-144.1861"/>
</g>
<!-- Node22 -->
<g id="node3" class="node">
<title>Node22</title>
<g id="a_node3"><a xlink:href="classRattletrapEngine_1_1Grouper.html" target="_top" xlink:title="RattletrapEngine::Grouper">
<polygon fill="#ffffff" stroke="#000000" points="197.5,-196 197.5,-215 327.5,-215 327.5,-196 197.5,-196"/>
<text text-anchor="middle" x="262.5" y="-203" font-family="Helvetica,sans-Serif" font-size="10.00" fill="#000000">RattletrapEngine::Grouper</text>
</a>
</g>
</g>
<!-- Node20&#45;&gt;Node22 -->
<g id="edge2" class="edge">
<title>Node20&#45;&gt;Node22</title>
<path fill="none" stroke="#191970" d="M97.1049,-144.3542C118.6709,-157.0891 151.4966,-175.1296 182,-186.5 191.9569,-190.2115 202.8838,-193.3649 213.388,-195.9727"/>
<polygon fill="#191970" stroke="#191970" points="98.6915,-141.2247 88.3144,-139.0879 95.0941,-147.2296 98.6915,-141.2247"/>
</g>
<!-- Node23 -->
<g id="node4" class="node">
<title>Node23</title>
<g id="a_node4"><a xlink:href="classRattletrapEngine_1_1RectTransform.html" target="_top" xlink:title="RattletrapEngine::RectTransform">
<polygon fill="#ffffff" stroke="#000000" points="182,-158 182,-177 343,-177 343,-158 182,-158"/>
<text text-anchor="middle" x="262.5" y="-165" font-family="Helvetica,sans-Serif" font-size="10.00" fill="#000000">RattletrapEngine::RectTransform</text>
</a>
</g>
</g>
<!-- Node20&#45;&gt;Node23 -->
<g id="edge3" class="edge">
<title>Node20&#45;&gt;Node23</title>
<path fill="none" stroke="#191970" d="M130.8948,-141.1095C157.846,-146.514 189.5102,-152.8635 215.025,-157.9799"/>
<polygon fill="#191970" stroke="#191970" points="131.3118,-137.6235 120.8189,-139.089 129.9355,-144.4869 131.3118,-137.6235"/>
</g>
<!-- Node24 -->
<g id="node5" class="node">
<title>Node24</title>
<g id="a_node5"><a xlink:href="classRattletrapEngine_1_1Sprite.html" target="_top" xlink:title="Classe que modela uma sprite. Sprite é uma imagem carregada na memória. Essa classe também traz uma s...">
<polygon fill="#ffffff" stroke="#000000" points="202,-120 202,-139 323,-139 323,-120 202,-120"/>
<text text-anchor="middle" x="262.5" y="-127" font-family="Helvetica,sans-Serif" font-size="10.00" fill="#000000">RattletrapEngine::Sprite</text>
</a>
</g>
</g>
<!-- Node20&#45;&gt;Node24 -->
<g id="edge4" class="edge">
<title>Node20&#45;&gt;Node24</title>
<path fill="none" stroke="#191970" d="M156.6766,-129.5C171.8311,-129.5 187.3688,-129.5 201.7101,-129.5"/>
<polygon fill="#191970" stroke="#191970" points="156.2657,-126.0001 146.2656,-129.5 156.2656,-133.0001 156.2657,-126.0001"/>
</g>
<!-- Node25 -->
<g id="node6" class="node">
<title>Node25</title>
<g id="a_node6"><a xlink:href="classRattletrapEngine_1_1Text.html" target="_top" xlink:title="RattletrapEngine::Text">
<polygon fill="#ffffff" stroke="#000000" points="205,-82 205,-101 320,-101 320,-82 205,-82"/>
<text text-anchor="middle" x="262.5" y="-89" font-family="Helvetica,sans-Serif" font-size="10.00" fill="#000000">RattletrapEngine::Text</text>
</a>
</g>
</g>
<!-- Node20&#45;&gt;Node25 -->
<g id="edge5" class="edge">
<title>Node20&#45;&gt;Node25</title>
<path fill="none" stroke="#191970" d="M130.8948,-117.8905C157.846,-112.486 189.5102,-106.1365 215.025,-101.0201"/>
<polygon fill="#191970" stroke="#191970" points="129.9355,-114.5131 120.8189,-119.911 131.3118,-121.3765 129.9355,-114.5131"/>
</g>
<!-- Node1 -->
<g id="node7" class="node">
<title>Node1</title>
<g id="a_node7"><a xlink:href="classRattletrapEngine_1_1TileMap.html" target="_top" xlink:title="RattletrapEngine::TileMap\&lt; T \&gt;">
<polygon fill="#ffffff" stroke="#000000" points="185.5,-6 185.5,-25 339.5,-25 339.5,-6 185.5,-6"/>
<text text-anchor="middle" x="262.5" y="-13" font-family="Helvetica,sans-Serif" font-size="10.00" fill="#000000">RattletrapEngine::TileMap&lt; T &gt;</text>
</a>
</g>
</g>
<!-- Node20&#45;&gt;Node1 -->
<g id="edge6" class="edge">
<title>Node20&#45;&gt;Node1</title>
<path fill="none" stroke="#191970" d="M87.7504,-112.2835C107.158,-90.7595 143.3605,-54.3385 182,-34.5 189.5369,-30.6304 197.8755,-27.5352 206.2461,-25.063"/>
<polygon fill="#191970" stroke="#191970" points="84.9378,-110.181 80.9431,-119.9939 90.1853,-114.8139 84.9378,-110.181"/>
</g>
<!-- Node26 -->
<g id="node8" class="node">
<title>Node26</title>
<g id="a_node8"><a xlink:href="classRattletrapEngine_1_1TileSet.html" target="_top" xlink:title="RattletrapEngine::TileSet">
<polygon fill="#ffffff" stroke="#000000" points="199.5,-44 199.5,-63 325.5,-63 325.5,-44 199.5,-44"/>
<text text-anchor="middle" x="262.5" y="-51" font-family="Helvetica,sans-Serif" font-size="10.00" fill="#000000">RattletrapEngine::TileSet</text>
</a>
</g>
</g>
<!-- Node20&#45;&gt;Node26 -->
<g id="edge7" class="edge">
<title>Node20&#45;&gt;Node26</title>
<path fill="none" stroke="#191970" d="M97.1049,-114.6458C118.6709,-101.9109 151.4966,-83.8704 182,-72.5 191.9569,-68.7885 202.8838,-65.6351 213.388,-63.0273"/>
<polygon fill="#191970" stroke="#191970" points="95.0941,-111.7704 88.3144,-119.9121 98.6915,-117.7753 95.0941,-111.7704"/>
</g>
<!-- Node0 -->
<g id="node9" class="node">
<title>Node0</title>
<g id="a_node9"><a xlink:href="classRattletrapEngine_1_1NearestFinder.html" target="_top" xlink:title="RattletrapEngine::Nearest\lFinder\&lt; T \&gt;">
<polygon fill="#ffffff" stroke="#000000" points="8,-.5 8,-30.5 138,-30.5 138,-.5 8,-.5"/>
<text text-anchor="start" x="16" y="-18.5" font-family="Helvetica,sans-Serif" font-size="10.00" fill="#000000">RattletrapEngine::Nearest</text>
<text text-anchor="middle" x="73" y="-7.5" font-family="Helvetica,sans-Serif" font-size="10.00" fill="#000000">Finder&lt; T &gt;</text>
</a>
</g>
</g>
<!-- Node0&#45;&gt;Node1 -->
<g id="edge8" class="edge">
<title>Node0&#45;&gt;Node1</title>
<path fill="none" stroke="#8b1a1a" d="M148.335,-15.5C160.5303,-15.5 173.174,-15.5 185.4103,-15.5"/>
<polygon fill="#8b1a1a" stroke="#8b1a1a" points="148.2152,-12.0001 138.2151,-15.5 148.2151,-19.0001 148.2152,-12.0001"/>
</g>
</g>
</svg>
