<?xml version="1.0" encoding="UTF-8" standalone="no"?>
<!DOCTYPE svg PUBLIC "-//W3C//DTD SVG 1.1//EN"
 "http://www.w3.org/Graphics/SVG/1.1/DTD/svg11.dtd">
<!-- Generated by graphviz version 2.38.0 (20140413.2041)
 -->
<!-- Title: Gráfico de Hierarquia de Classes Pages: 1 -->
<svg width="246pt" height="294pt"
 viewBox="0.00 0.00 246.00 294.00" xmlns="http://www.w3.org/2000/svg" xmlns:xlink="http://www.w3.org/1999/xlink">
<g id="graph0" class="graph" transform="scale(1 1) rotate(0) translate(4 290)">
<title>Gráfico de Hierarquia de Classes</title>
<polygon fill="white" stroke="none" points="-4,4 -4,-290 242,-290 242,4 -4,4"/>
<!-- Node18 -->
<g id="node1" class="node"><title>Node18</title>
<g id="a_node1"><a xlink:href="classComponent.html" target="_top" xlink:title="Modela os componentes. ">
<polygon fill="white" stroke="black" points="17.5,-133.5 17.5,-152.5 84.5,-152.5 84.5,-133.5 17.5,-133.5"/>
<text text-anchor="middle" x="51" y="-140.5" font-family="Helvetica,sans-Serif" font-size="10.00">Component</text>
</a>
</g>
</g>
<!-- Node19 -->
<g id="node2" class="node"><title>Node19</title>
<g id="a_node2"><a xlink:href="classButton.html" target="_top" xlink:title="Button">
<polygon fill="white" stroke="black" points="165.5,-266.5 165.5,-285.5 210.5,-285.5 210.5,-266.5 165.5,-266.5"/>
<text text-anchor="middle" x="188" y="-273.5" font-family="Helvetica,sans-Serif" font-size="10.00">Button</text>
</a>
</g>
</g>
<!-- Node18&#45;&gt;Node19 -->
<g id="edge1" class="edge"><title>Node18&#45;&gt;Node19</title>
<path fill="none" stroke="midnightblue" d="M61.6158,-161.494C75.4192,-186.392 103.079,-230.607 138,-257 146.007,-263.052 156.18,-267.411 165.179,-270.414"/>
<polygon fill="midnightblue" stroke="midnightblue" points="64.6936,-159.828 56.8668,-152.687 58.5323,-163.15 64.6936,-159.828"/>
</g>
<!-- Node20 -->
<g id="node3" class="node"><title>Node20</title>
<g id="a_node3"><a xlink:href="classDragAndDrop.html" target="_top" xlink:title="Classe responsável por arrastar e posicionar Objetos. ">
<polygon fill="white" stroke="black" points="138,-228.5 138,-247.5 238,-247.5 238,-228.5 138,-228.5"/>
<text text-anchor="middle" x="188" y="-235.5" font-family="Helvetica,sans-Serif" font-size="10.00">DragAndDrop&lt; T &gt;</text>
</a>
</g>
</g>
<!-- Node18&#45;&gt;Node20 -->
<g id="edge2" class="edge"><title>Node18&#45;&gt;Node20</title>
<path fill="none" stroke="midnightblue" d="M67.7703,-160.103C84.0349,-176.93 110.795,-202.439 138,-219 144.001,-222.653 150.825,-225.828 157.434,-228.481"/>
<polygon fill="midnightblue" stroke="midnightblue" points="70.0932,-157.466 60.673,-152.617 65.0134,-162.282 70.0932,-157.466"/>
</g>
<!-- Node21 -->
<g id="node4" class="node"><title>Node21</title>
<g id="a_node4"><a xlink:href="classGrouper.html" target="_top" xlink:title="Grouper">
<polygon fill="white" stroke="black" points="162.5,-190.5 162.5,-209.5 213.5,-209.5 213.5,-190.5 162.5,-190.5"/>
<text text-anchor="middle" x="188" y="-197.5" font-family="Helvetica,sans-Serif" font-size="10.00">Grouper</text>
</a>
</g>
</g>
<!-- Node18&#45;&gt;Node21 -->
<g id="edge3" class="edge"><title>Node18&#45;&gt;Node21</title>
<path fill="none" stroke="midnightblue" d="M82.2134,-156.758C98.6349,-164.133 119.345,-173.266 138,-181 145.923,-184.284 154.634,-187.719 162.486,-190.75"/>
<polygon fill="midnightblue" stroke="midnightblue" points="83.6431,-153.564 73.0882,-152.643 80.7656,-159.945 83.6431,-153.564"/>
</g>
<!-- Node22 -->
<g id="node5" class="node"><title>Node22</title>
<g id="a_node5"><a xlink:href="classRectTransform.html" target="_top" xlink:title="RectTransform">
<polygon fill="white" stroke="black" points="147,-152.5 147,-171.5 229,-171.5 229,-152.5 147,-152.5"/>
<text text-anchor="middle" x="188" y="-159.5" font-family="Helvetica,sans-Serif" font-size="10.00">RectTransform</text>
</a>
</g>
</g>
<!-- Node18&#45;&gt;Node22 -->
<g id="edge4" class="edge"><title>Node18&#45;&gt;Node22</title>
<path fill="none" stroke="midnightblue" d="M94.7286,-149.014C111.426,-151.364 130.472,-154.044 146.907,-156.357"/>
<polygon fill="midnightblue" stroke="midnightblue" points="95.07,-145.527 84.6797,-147.599 94.0943,-152.459 95.07,-145.527"/>
</g>
<!-- Node23 -->
<g id="node6" class="node"><title>Node23</title>
<g id="a_node6"><a xlink:href="classSprite.html" target="_top" xlink:title="Classe que modela uma sprite. Sprite é uma imagem carregada na memória. Essa classe também traz uma s...">
<polygon fill="white" stroke="black" points="167,-114.5 167,-133.5 209,-133.5 209,-114.5 167,-114.5"/>
<text text-anchor="middle" x="188" y="-121.5" font-family="Helvetica,sans-Serif" font-size="10.00">Sprite</text>
</a>
</g>
</g>
<!-- Node18&#45;&gt;Node23 -->
<g id="edge5" class="edge"><title>Node18&#45;&gt;Node23</title>
<path fill="none" stroke="midnightblue" d="M94.6656,-136.995C118.769,-133.603 147.781,-129.52 166.771,-126.847"/>
<polygon fill="midnightblue" stroke="midnightblue" points="94.0943,-133.541 84.6797,-138.401 95.07,-140.473 94.0943,-133.541"/>
</g>
<!-- Node24 -->
<g id="node7" class="node"><title>Node24</title>
<g id="a_node7"><a xlink:href="classText.html" target="_top" xlink:title="Text">
<polygon fill="white" stroke="black" points="170,-76.5 170,-95.5 206,-95.5 206,-76.5 170,-76.5"/>
<text text-anchor="middle" x="188" y="-83.5" font-family="Helvetica,sans-Serif" font-size="10.00">Text</text>
</a>
</g>
</g>
<!-- Node18&#45;&gt;Node24 -->
<g id="edge6" class="edge"><title>Node18&#45;&gt;Node24</title>
<path fill="none" stroke="midnightblue" d="M82.2134,-129.242C98.6349,-121.867 119.345,-112.734 138,-105 148.451,-100.667 160.274,-96.0742 169.688,-92.4894"/>
<polygon fill="midnightblue" stroke="midnightblue" points="80.7656,-126.055 73.0882,-133.357 83.6431,-132.436 80.7656,-126.055"/>
</g>
<!-- Node1 -->
<g id="node8" class="node"><title>Node1</title>
<g id="a_node8"><a xlink:href="classTileMap.html" target="_top" xlink:title="TileMap\&lt; T \&gt;">
<polygon fill="white" stroke="black" points="150.5,-0.5 150.5,-19.5 225.5,-19.5 225.5,-0.5 150.5,-0.5"/>
<text text-anchor="middle" x="188" y="-7.5" font-family="Helvetica,sans-Serif" font-size="10.00">TileMap&lt; T &gt;</text>
</a>
</g>
</g>
<!-- Node18&#45;&gt;Node1 -->
<g id="edge7" class="edge"><title>Node18&#45;&gt;Node1</title>
<path fill="none" stroke="midnightblue" d="M61.6158,-124.506C75.4192,-99.6075 103.079,-55.3931 138,-29 143.022,-25.204 148.897,-22.074 154.8,-19.5268"/>
<polygon fill="midnightblue" stroke="midnightblue" points="58.5323,-122.85 56.8668,-133.313 64.6936,-126.172 58.5323,-122.85"/>
</g>
<!-- Node25 -->
<g id="node9" class="node"><title>Node25</title>
<g id="a_node9"><a xlink:href="classTileSet.html" target="_top" xlink:title="TileSet">
<polygon fill="white" stroke="black" points="164.5,-38.5 164.5,-57.5 211.5,-57.5 211.5,-38.5 164.5,-38.5"/>
<text text-anchor="middle" x="188" y="-45.5" font-family="Helvetica,sans-Serif" font-size="10.00">TileSet</text>
</a>
</g>
</g>
<!-- Node18&#45;&gt;Node25 -->
<g id="edge8" class="edge"><title>Node18&#45;&gt;Node25</title>
<path fill="none" stroke="midnightblue" d="M67.7703,-125.897C84.0349,-109.07 110.795,-83.561 138,-67 146.105,-62.0659 155.712,-58.005 164.262,-54.9222"/>
<polygon fill="midnightblue" stroke="midnightblue" points="65.0134,-123.718 60.673,-133.383 70.0932,-128.534 65.0134,-123.718"/>
</g>
<!-- Node0 -->
<g id="node10" class="node"><title>Node0</title>
<g id="a_node10"><a xlink:href="classNearestFinder.html" target="_top" xlink:title="NearestFinder\&lt; T \&gt;">
<polygon fill="white" stroke="black" points="0,-0.5 0,-19.5 102,-19.5 102,-0.5 0,-0.5"/>
<text text-anchor="middle" x="51" y="-7.5" font-family="Helvetica,sans-Serif" font-size="10.00">NearestFinder&lt; T &gt;</text>
</a>
</g>
</g>
<!-- Node0&#45;&gt;Node1 -->
<g id="edge9" class="edge"><title>Node0&#45;&gt;Node1</title>
<path fill="none" stroke="#8b1a1a" d="M112.472,-10C125.332,-10 138.535,-10 150.189,-10"/>
<polygon fill="#8b1a1a" stroke="#8b1a1a" points="112.269,-6.5001 102.269,-10 112.269,-13.5001 112.269,-6.5001"/>
</g>
</g>
</svg>
