<?xml version="1.0" encoding="UTF-8" standalone="no"?>
<!DOCTYPE svg PUBLIC "-//W3C//DTD SVG 1.1//EN"
 "http://www.w3.org/Graphics/SVG/1.1/DTD/svg11.dtd">
<!-- Generated by graphviz version 2.38.0 (20140413.2041)
 -->
<!-- Title: include/InputManager.h Pages: 1 -->
<svg width="1233pt" height="252pt"
 viewBox="0.00 0.00 1232.59 252.00" xmlns="http://www.w3.org/2000/svg" xmlns:xlink="http://www.w3.org/1999/xlink">
<g id="graph0" class="graph" transform="scale(1 1) rotate(0) translate(4 248)">
<title>include/InputManager.h</title>
<polygon fill="white" stroke="none" points="-4,4 -4,-248 1228.59,-248 1228.59,4 -4,4"/>
<!-- Node5 -->
<g id="node1" class="node"><title>Node5</title>
<polygon fill="#bfbfbf" stroke="black" points="631.093,-224.5 631.093,-243.5 749.093,-243.5 749.093,-224.5 631.093,-224.5"/>
<text text-anchor="middle" x="690.093" y="-231.5" font-family="Helvetica,sans-Serif" font-size="10.00">include/InputManager.h</text>
</g>
<!-- Node6 -->
<g id="node2" class="node"><title>Node6</title>
<g id="a_node2"><a xlink:href="ActionManager_8h.html" target="_top" xlink:title="include/ActionManager.h">
<polygon fill="white" stroke="black" points="361.093,-168.5 361.093,-187.5 485.093,-187.5 485.093,-168.5 361.093,-168.5"/>
<text text-anchor="middle" x="423.093" y="-175.5" font-family="Helvetica,sans-Serif" font-size="10.00">include/ActionManager.h</text>
</a>
</g>
</g>
<!-- Node5&#45;&gt;Node6 -->
<g id="edge1" class="edge"><title>Node5&#45;&gt;Node6</title>
<path fill="none" stroke="midnightblue" d="M637.729,-222.41C587.269,-212.204 511.894,-196.96 465.202,-187.516"/>
<polygon fill="midnightblue" stroke="midnightblue" points="637.291,-225.892 647.786,-224.444 638.678,-219.031 637.291,-225.892"/>
</g>
<!-- Node9 -->
<g id="node5" class="node"><title>Node9</title>
<g id="a_node5"><a xlink:href="DragAndDrop_8h.html" target="_top" xlink:title="include/DragAndDrop.h">
<polygon fill="white" stroke="black" points="111.093,-0.5 111.093,-19.5 229.093,-19.5 229.093,-0.5 111.093,-0.5"/>
<text text-anchor="middle" x="170.093" y="-7.5" font-family="Helvetica,sans-Serif" font-size="10.00">include/DragAndDrop.h</text>
</a>
</g>
</g>
<!-- Node5&#45;&gt;Node9 -->
<g id="edge20" class="edge"><title>Node5&#45;&gt;Node9</title>
<path fill="none" stroke="midnightblue" d="M620.542,-233.371C464.761,-232.58 95.3338,-221.13 17.0931,-132 -5.19815,-106.606 -5.19736,-83.019 15.0931,-56 27.4605,-39.5314 76.7324,-27.1382 116.448,-19.5703"/>
<polygon fill="midnightblue" stroke="midnightblue" points="620.923,-236.873 630.936,-233.41 620.949,-229.873 620.923,-236.873"/>
</g>
<!-- Node11 -->
<g id="node7" class="node"><title>Node11</title>
<g id="a_node7"><a xlink:href="Camera_8cpp.html" target="_top" xlink:title="src/Camera.cpp">
<polygon fill="white" stroke="black" points="700.093,-56.5 700.093,-75.5 786.093,-75.5 786.093,-56.5 700.093,-56.5"/>
<text text-anchor="middle" x="743.093" y="-63.5" font-family="Helvetica,sans-Serif" font-size="10.00">src/Camera.cpp</text>
</a>
</g>
</g>
<!-- Node5&#45;&gt;Node11 -->
<g id="edge34" class="edge"><title>Node5&#45;&gt;Node11</title>
<path fill="none" stroke="midnightblue" d="M666.893,-218.683C650.17,-206.375 631.878,-187.562 640.093,-168 658.227,-124.82 704.828,-90.8312 728.631,-75.6461"/>
<polygon fill="midnightblue" stroke="midnightblue" points="665.123,-221.713 675.346,-224.495 669.089,-215.945 665.123,-221.713"/>
</g>
<!-- Node17 -->
<g id="node13" class="node"><title>Node17</title>
<g id="a_node13"><a xlink:href="Sprite_8h.html" target="_top" xlink:title="include/Sprite.h">
<polygon fill="white" stroke="black" points="503.093,-168.5 503.093,-187.5 587.093,-187.5 587.093,-168.5 503.093,-168.5"/>
<text text-anchor="middle" x="545.093" y="-175.5" font-family="Helvetica,sans-Serif" font-size="10.00">include/Sprite.h</text>
</a>
</g>
</g>
<!-- Node5&#45;&gt;Node17 -->
<g id="edge13" class="edge"><title>Node5&#45;&gt;Node17</title>
<path fill="none" stroke="midnightblue" d="M657.618,-220.906C630.357,-210.754 592.101,-196.506 567.961,-187.516"/>
<polygon fill="midnightblue" stroke="midnightblue" points="656.525,-224.233 667.117,-224.444 658.968,-217.674 656.525,-224.233"/>
</g>
<!-- Node21 -->
<g id="node17" class="node"><title>Node21</title>
<g id="a_node17"><a xlink:href="State_8h.html" target="_top" xlink:title="include/State.h">
<polygon fill="white" stroke="black" points="649.093,-168.5 649.093,-187.5 731.093,-187.5 731.093,-168.5 649.093,-168.5"/>
<text text-anchor="middle" x="690.093" y="-175.5" font-family="Helvetica,sans-Serif" font-size="10.00">include/State.h</text>
</a>
</g>
</g>
<!-- Node5&#45;&gt;Node21 -->
<g id="edge21" class="edge"><title>Node5&#45;&gt;Node21</title>
<path fill="none" stroke="midnightblue" d="M690.093,-213.805C690.093,-204.91 690.093,-194.78 690.093,-187.751"/>
<polygon fill="midnightblue" stroke="midnightblue" points="686.593,-214.083 690.093,-224.083 693.593,-214.083 686.593,-214.083"/>
</g>
<!-- Node22 -->
<g id="node18" class="node"><title>Node22</title>
<g id="a_node18"><a xlink:href="Game_8h.html" target="_top" xlink:title="include/Game.h">
<polygon fill="white" stroke="black" points="716.593,-112.5 716.593,-131.5 801.593,-131.5 801.593,-112.5 716.593,-112.5"/>
<text text-anchor="middle" x="759.093" y="-119.5" font-family="Helvetica,sans-Serif" font-size="10.00">include/Game.h</text>
</a>
</g>
</g>
<!-- Node5&#45;&gt;Node22 -->
<g id="edge30" class="edge"><title>Node5&#45;&gt;Node22</title>
<path fill="none" stroke="midnightblue" d="M711.734,-217.952C721.646,-210.062 732.786,-199.624 740.093,-188 751.481,-169.884 756.28,-144.674 758.103,-131.613"/>
<polygon fill="midnightblue" stroke="midnightblue" points="709.338,-215.375 703.467,-224.195 713.556,-220.961 709.338,-215.375"/>
</g>
<!-- Node26 -->
<g id="node22" class="node"><title>Node26</title>
<g id="a_node22"><a xlink:href="Music_8h.html" target="_top" xlink:title="include/Music.h">
<polygon fill="white" stroke="black" points="787.593,-168.5 787.593,-187.5 872.593,-187.5 872.593,-168.5 787.593,-168.5"/>
<text text-anchor="middle" x="830.093" y="-175.5" font-family="Helvetica,sans-Serif" font-size="10.00">include/Music.h</text>
</a>
</g>
</g>
<!-- Node5&#45;&gt;Node26 -->
<g id="edge31" class="edge"><title>Node5&#45;&gt;Node26</title>
<path fill="none" stroke="midnightblue" d="M721.795,-220.772C748.093,-210.629 784.809,-196.467 808.013,-187.516"/>
<polygon fill="midnightblue" stroke="midnightblue" points="720.347,-217.579 712.276,-224.444 722.866,-224.11 720.347,-217.579"/>
</g>
<!-- Node28 -->
<g id="node24" class="node"><title>Node28</title>
<g id="a_node24"><a xlink:href="Button_8cpp.html" target="_top" xlink:title="src/Button.cpp">
<polygon fill="white" stroke="black" points="891.093,-168.5 891.093,-187.5 971.093,-187.5 971.093,-168.5 891.093,-168.5"/>
<text text-anchor="middle" x="931.093" y="-175.5" font-family="Helvetica,sans-Serif" font-size="10.00">src/Button.cpp</text>
</a>
</g>
</g>
<!-- Node5&#45;&gt;Node28 -->
<g id="edge33" class="edge"><title>Node5&#45;&gt;Node28</title>
<path fill="none" stroke="midnightblue" d="M738.216,-222.217C783.755,-212.013 851.203,-196.901 893.085,-187.516"/>
<polygon fill="midnightblue" stroke="midnightblue" points="737.273,-218.842 728.28,-224.444 738.804,-225.672 737.273,-218.842"/>
</g>
<!-- Node29 -->
<g id="node25" class="node"><title>Node29</title>
<g id="a_node25"><a xlink:href="InputManager_8cpp.html" target="_top" xlink:title="src/InputManager.cpp">
<polygon fill="white" stroke="black" points="989.593,-168.5 989.593,-187.5 1100.59,-187.5 1100.59,-168.5 989.593,-168.5"/>
<text text-anchor="middle" x="1045.09" y="-175.5" font-family="Helvetica,sans-Serif" font-size="10.00">src/InputManager.cpp</text>
</a>
</g>
</g>
<!-- Node5&#45;&gt;Node29 -->
<g id="edge35" class="edge"><title>Node5&#45;&gt;Node29</title>
<path fill="none" stroke="midnightblue" d="M756.397,-222.914C823.567,-212.697 926.31,-197.068 989.398,-187.472"/>
<polygon fill="midnightblue" stroke="midnightblue" points="755.704,-219.479 746.344,-224.444 756.757,-226.4 755.704,-219.479"/>
</g>
<!-- Node7 -->
<g id="node3" class="node"><title>Node7</title>
<g id="a_node3"><a xlink:href="Camera_8h.html" target="_top" xlink:title="include/Camera.h">
<polygon fill="white" stroke="black" points="393.593,-112.5 393.593,-131.5 486.593,-131.5 486.593,-112.5 393.593,-112.5"/>
<text text-anchor="middle" x="440.093" y="-119.5" font-family="Helvetica,sans-Serif" font-size="10.00">include/Camera.h</text>
</a>
</g>
</g>
<!-- Node6&#45;&gt;Node7 -->
<g id="edge2" class="edge"><title>Node6&#45;&gt;Node7</title>
<path fill="none" stroke="midnightblue" d="M428.95,-158.396C431.794,-149.362 435.076,-138.936 437.338,-131.751"/>
<polygon fill="midnightblue" stroke="midnightblue" points="425.565,-157.493 425.9,-168.083 432.242,-159.596 425.565,-157.493"/>
</g>
<!-- Node16 -->
<g id="node12" class="node"><title>Node16</title>
<g id="a_node12"><a xlink:href="ActionManager_8cpp.html" target="_top" xlink:title="src/ActionManager.cpp">
<polygon fill="white" stroke="black" points="26.5931,-112.5 26.5931,-131.5 143.593,-131.5 143.593,-112.5 26.5931,-112.5"/>
<text text-anchor="middle" x="85.0931" y="-119.5" font-family="Helvetica,sans-Serif" font-size="10.00">src/ActionManager.cpp</text>
</a>
</g>
</g>
<!-- Node6&#45;&gt;Node16 -->
<g id="edge12" class="edge"><title>Node6&#45;&gt;Node16</title>
<path fill="none" stroke="midnightblue" d="M359.585,-166.854C295.723,-156.651 198.371,-141.098 138.4,-131.516"/>
<polygon fill="midnightblue" stroke="midnightblue" points="359.109,-170.322 369.536,-168.444 360.213,-163.41 359.109,-170.322"/>
</g>
<!-- Node8 -->
<g id="node4" class="node"><title>Node8</title>
<g id="a_node4"><a xlink:href="TileMap_8h.html" target="_top" xlink:title="include/TileMap.h">
<polygon fill="white" stroke="black" points="123.593,-56.5 123.593,-75.5 216.593,-75.5 216.593,-56.5 123.593,-56.5"/>
<text text-anchor="middle" x="170.093" y="-63.5" font-family="Helvetica,sans-Serif" font-size="10.00">include/TileMap.h</text>
</a>
</g>
</g>
<!-- Node7&#45;&gt;Node8 -->
<g id="edge3" class="edge"><title>Node7&#45;&gt;Node8</title>
<path fill="none" stroke="midnightblue" d="M387.46,-110.473C336.432,-100.268 259.99,-84.9794 212.675,-75.5164"/>
<polygon fill="midnightblue" stroke="midnightblue" points="386.819,-113.914 397.311,-112.444 388.191,-107.05 386.819,-113.914"/>
</g>
<!-- Node7&#45;&gt;Node9 -->
<g id="edge5" class="edge"><title>Node7&#45;&gt;Node9</title>
<path fill="none" stroke="midnightblue" d="M420.952,-106.26C401.173,-91.6578 368.927,-69.5683 338.093,-56 298.848,-38.7307 251.45,-26.774 217.019,-19.5496"/>
<polygon fill="midnightblue" stroke="midnightblue" points="419.014,-109.181 429.113,-112.385 423.216,-103.582 419.014,-109.181"/>
</g>
<!-- Node10 -->
<g id="node6" class="node"><title>Node10</title>
<g id="a_node6"><a xlink:href="Animation_8cpp.html" target="_top" xlink:title="src/Animation.cpp">
<polygon fill="white" stroke="black" points="234.593,-56.5 234.593,-75.5 329.593,-75.5 329.593,-56.5 234.593,-56.5"/>
<text text-anchor="middle" x="282.093" y="-63.5" font-family="Helvetica,sans-Serif" font-size="10.00">src/Animation.cpp</text>
</a>
</g>
</g>
<!-- Node7&#45;&gt;Node10 -->
<g id="edge6" class="edge"><title>Node7&#45;&gt;Node10</title>
<path fill="none" stroke="midnightblue" d="M405.485,-109.172C375.734,-99.0039 333.546,-84.5852 307.012,-75.5164"/>
<polygon fill="midnightblue" stroke="midnightblue" points="404.463,-112.521 415.057,-112.444 406.727,-105.898 404.463,-112.521"/>
</g>
<!-- Node7&#45;&gt;Node11 -->
<g id="edge7" class="edge"><title>Node7&#45;&gt;Node11</title>
<path fill="none" stroke="midnightblue" d="M496.654,-110.92C555.516,-100.43 646.407,-84.2311 699.799,-74.7158"/>
<polygon fill="midnightblue" stroke="midnightblue" points="496.004,-107.481 486.773,-112.681 497.232,-114.372 496.004,-107.481"/>
</g>
<!-- Node12 -->
<g id="node8" class="node"><title>Node12</title>
<g id="a_node8"><a xlink:href="GameObject_8cpp.html" target="_top" xlink:title="src/GameObject.cpp">
<polygon fill="white" stroke="black" points="386.593,-56.5 386.593,-75.5 493.593,-75.5 493.593,-56.5 386.593,-56.5"/>
<text text-anchor="middle" x="440.093" y="-63.5" font-family="Helvetica,sans-Serif" font-size="10.00">src/GameObject.cpp</text>
</a>
</g>
</g>
<!-- Node7&#45;&gt;Node12 -->
<g id="edge8" class="edge"><title>Node7&#45;&gt;Node12</title>
<path fill="none" stroke="midnightblue" d="M440.093,-101.805C440.093,-92.9102 440.093,-82.7798 440.093,-75.7511"/>
<polygon fill="midnightblue" stroke="midnightblue" points="436.593,-102.083 440.093,-112.083 443.593,-102.083 436.593,-102.083"/>
</g>
<!-- Node13 -->
<g id="node9" class="node"><title>Node13</title>
<g id="a_node9"><a xlink:href="RectTransform_8cpp.html" target="_top" xlink:title="src/RectTransform.cpp">
<polygon fill="white" stroke="black" points="804.593,-56.5 804.593,-75.5 921.593,-75.5 921.593,-56.5 804.593,-56.5"/>
<text text-anchor="middle" x="863.093" y="-63.5" font-family="Helvetica,sans-Serif" font-size="10.00">src/RectTransform.cpp</text>
</a>
</g>
</g>
<!-- Node7&#45;&gt;Node13 -->
<g id="edge9" class="edge"><title>Node7&#45;&gt;Node13</title>
<path fill="none" stroke="midnightblue" d="M496.565,-113.939C566.613,-105.158 689.687,-89.656 795.093,-76 798.164,-75.6022 801.312,-75.1924 804.49,-74.777"/>
<polygon fill="midnightblue" stroke="midnightblue" points="496.11,-110.468 486.623,-115.185 496.981,-117.414 496.11,-110.468"/>
</g>
<!-- Node14 -->
<g id="node10" class="node"><title>Node14</title>
<g id="a_node10"><a xlink:href="Sprite_8cpp.html" target="_top" xlink:title="src/Sprite.cpp">
<polygon fill="white" stroke="black" points="604.593,-56.5 604.593,-75.5 681.593,-75.5 681.593,-56.5 604.593,-56.5"/>
<text text-anchor="middle" x="643.093" y="-63.5" font-family="Helvetica,sans-Serif" font-size="10.00">src/Sprite.cpp</text>
</a>
</g>
</g>
<!-- Node7&#45;&gt;Node14 -->
<g id="edge10" class="edge"><title>Node7&#45;&gt;Node14</title>
<path fill="none" stroke="midnightblue" d="M482.088,-109.829C520.416,-99.6333 576.245,-84.7823 611.078,-75.5164"/>
<polygon fill="midnightblue" stroke="midnightblue" points="481.023,-106.49 472.259,-112.444 482.823,-113.255 481.023,-106.49"/>
</g>
<!-- Node15 -->
<g id="node11" class="node"><title>Node15</title>
<g id="a_node11"><a xlink:href="State_8cpp.html" target="_top" xlink:title="src/State.cpp">
<polygon fill="white" stroke="black" points="511.593,-56.5 511.593,-75.5 586.593,-75.5 586.593,-56.5 511.593,-56.5"/>
<text text-anchor="middle" x="549.093" y="-63.5" font-family="Helvetica,sans-Serif" font-size="10.00">src/State.cpp</text>
</a>
</g>
</g>
<!-- Node7&#45;&gt;Node15 -->
<g id="edge11" class="edge"><title>Node7&#45;&gt;Node15</title>
<path fill="none" stroke="midnightblue" d="M466.612,-107.862C486.823,-97.8492 514.08,-84.3458 531.624,-75.6545"/>
<polygon fill="midnightblue" stroke="midnightblue" points="465.013,-104.748 457.606,-112.324 468.12,-111.021 465.013,-104.748"/>
</g>
<!-- Node8&#45;&gt;Node9 -->
<g id="edge4" class="edge"><title>Node8&#45;&gt;Node9</title>
<path fill="none" stroke="midnightblue" d="M170.093,-45.8045C170.093,-36.9102 170.093,-26.7798 170.093,-19.7511"/>
<polygon fill="midnightblue" stroke="midnightblue" points="166.593,-46.083 170.093,-56.083 173.593,-46.083 166.593,-46.083"/>
</g>
<!-- Node17&#45;&gt;Node14 -->
<g id="edge19" class="edge"><title>Node17&#45;&gt;Node14</title>
<path fill="none" stroke="midnightblue" d="M559.44,-160.897C580.508,-137.249 619.084,-93.9493 635.439,-75.5914"/>
<polygon fill="midnightblue" stroke="midnightblue" points="556.822,-158.574 552.783,-168.368 562.048,-163.23 556.822,-158.574"/>
</g>
<!-- Node18 -->
<g id="node14" class="node"><title>Node18</title>
<g id="a_node14"><a xlink:href="Animation_8h.html" target="_top" xlink:title="include/Animation.h">
<polygon fill="white" stroke="black" points="271.093,-112.5 271.093,-131.5 373.093,-131.5 373.093,-112.5 271.093,-112.5"/>
<text text-anchor="middle" x="322.093" y="-119.5" font-family="Helvetica,sans-Serif" font-size="10.00">include/Animation.h</text>
</a>
</g>
</g>
<!-- Node17&#45;&gt;Node18 -->
<g id="edge14" class="edge"><title>Node17&#45;&gt;Node18</title>
<path fill="none" stroke="midnightblue" d="M500.032,-166.088C457.902,-155.887 395.853,-140.861 357.263,-131.516"/>
<polygon fill="midnightblue" stroke="midnightblue" points="499.215,-169.492 509.758,-168.444 500.863,-162.688 499.215,-169.492"/>
</g>
<!-- Node19 -->
<g id="node15" class="node"><title>Node19</title>
<g id="a_node15"><a xlink:href="Tileset_8h.html" target="_top" xlink:title="include/Tileset.h">
<polygon fill="white" stroke="black" points="162.093,-112.5 162.093,-131.5 250.093,-131.5 250.093,-112.5 162.093,-112.5"/>
<text text-anchor="middle" x="206.093" y="-119.5" font-family="Helvetica,sans-Serif" font-size="10.00">include/Tileset.h</text>
</a>
</g>
</g>
<!-- Node17&#45;&gt;Node19 -->
<g id="edge16" class="edge"><title>Node17&#45;&gt;Node19</title>
<path fill="none" stroke="midnightblue" d="M493.147,-167.87C389.509,-150.759 362.04,-147.786 262.093,-132 258.203,-131.386 254.161,-130.743 250.11,-130.097"/>
<polygon fill="midnightblue" stroke="midnightblue" points="492.643,-171.334 503.08,-169.515 493.786,-164.428 492.643,-171.334"/>
</g>
<!-- Node18&#45;&gt;Node10 -->
<g id="edge15" class="edge"><title>Node18&#45;&gt;Node10</title>
<path fill="none" stroke="midnightblue" d="M309.393,-103.855C302.467,-94.5048 294.187,-83.3265 288.575,-75.7511"/>
<polygon fill="midnightblue" stroke="midnightblue" points="306.723,-106.131 315.488,-112.083 312.348,-101.964 306.723,-106.131"/>
</g>
<!-- Node19&#45;&gt;Node8 -->
<g id="edge17" class="edge"><title>Node19&#45;&gt;Node8</title>
<path fill="none" stroke="midnightblue" d="M194.47,-103.566C188.276,-94.2747 180.925,-83.2484 175.927,-75.7511"/>
<polygon fill="midnightblue" stroke="midnightblue" points="191.689,-105.704 200.148,-112.083 197.514,-101.821 191.689,-105.704"/>
</g>
<!-- Node20 -->
<g id="node16" class="node"><title>Node20</title>
<g id="a_node16"><a xlink:href="Tileset_8cpp.html" target="_top" xlink:title="src/Tileset.cpp">
<polygon fill="white" stroke="black" points="24.5931,-56.5 24.5931,-75.5 105.593,-75.5 105.593,-56.5 24.5931,-56.5"/>
<text text-anchor="middle" x="65.0931" y="-63.5" font-family="Helvetica,sans-Serif" font-size="10.00">src/Tileset.cpp</text>
</a>
</g>
</g>
<!-- Node19&#45;&gt;Node20 -->
<g id="edge18" class="edge"><title>Node19&#45;&gt;Node20</title>
<path fill="none" stroke="midnightblue" d="M174.164,-108.772C147.679,-98.6287 110.701,-84.4669 87.3304,-75.5164"/>
<polygon fill="midnightblue" stroke="midnightblue" points="173.161,-112.136 183.751,-112.444 175.664,-105.599 173.161,-112.136"/>
</g>
<!-- Node21&#45;&gt;Node15 -->
<g id="edge29" class="edge"><title>Node21&#45;&gt;Node15</title>
<path fill="none" stroke="midnightblue" d="M671.016,-162.118C641.088,-138.769 584.048,-94.2699 560.106,-75.5914"/>
<polygon fill="midnightblue" stroke="midnightblue" points="668.992,-164.977 679.029,-168.368 673.297,-159.458 668.992,-164.977"/>
</g>
<!-- Node21&#45;&gt;Node22 -->
<g id="edge22" class="edge"><title>Node21&#45;&gt;Node22</title>
<path fill="none" stroke="midnightblue" d="M709.131,-162.101C721.549,-152.382 737.336,-140.027 747.805,-131.834"/>
<polygon fill="midnightblue" stroke="midnightblue" points="706.897,-159.405 701.179,-168.324 711.211,-164.917 706.897,-159.405"/>
</g>
<!-- Node22&#45;&gt;Node11 -->
<g id="edge23" class="edge"><title>Node22&#45;&gt;Node11</title>
<path fill="none" stroke="midnightblue" d="M753.581,-102.396C750.904,-93.362 747.815,-82.936 745.686,-75.7511"/>
<polygon fill="midnightblue" stroke="midnightblue" points="750.254,-103.489 756.451,-112.083 756.966,-101.501 750.254,-103.489"/>
</g>
<!-- Node22&#45;&gt;Node13 -->
<g id="edge25" class="edge"><title>Node22&#45;&gt;Node13</title>
<path fill="none" stroke="midnightblue" d="M784.921,-107.59C804.15,-97.6052 829.838,-84.2672 846.425,-75.6545"/>
<polygon fill="midnightblue" stroke="midnightblue" points="783.065,-104.61 775.802,-112.324 786.29,-110.822 783.065,-104.61"/>
</g>
<!-- Node22&#45;&gt;Node14 -->
<g id="edge27" class="edge"><title>Node22&#45;&gt;Node14</title>
<path fill="none" stroke="midnightblue" d="M731.373,-108.096C709.701,-98.0073 680.191,-84.2697 661.388,-75.5164"/>
<polygon fill="midnightblue" stroke="midnightblue" points="730.17,-111.396 740.713,-112.444 733.124,-105.05 730.17,-111.396"/>
</g>
<!-- Node23 -->
<g id="node19" class="node"><title>Node23</title>
<g id="a_node19"><a xlink:href="Game_8cpp.html" target="_top" xlink:title="src/Game.cpp">
<polygon fill="white" stroke="black" points="940.093,-56.5 940.093,-75.5 1018.09,-75.5 1018.09,-56.5 940.093,-56.5"/>
<text text-anchor="middle" x="979.093" y="-63.5" font-family="Helvetica,sans-Serif" font-size="10.00">src/Game.cpp</text>
</a>
</g>
</g>
<!-- Node22&#45;&gt;Node23 -->
<g id="edge24" class="edge"><title>Node22&#45;&gt;Node23</title>
<path fill="none" stroke="midnightblue" d="M803.811,-110.024C845.369,-99.8232 906.406,-84.8414 944.397,-75.5164"/>
<polygon fill="midnightblue" stroke="midnightblue" points="802.83,-106.661 793.953,-112.444 804.499,-113.459 802.83,-106.661"/>
</g>
<!-- Node24 -->
<g id="node20" class="node"><title>Node24</title>
<g id="a_node20"><a xlink:href="Resources_8cpp.html" target="_top" xlink:title="src/Resources.cpp">
<polygon fill="white" stroke="black" points="1036.59,-56.5 1036.59,-75.5 1135.59,-75.5 1135.59,-56.5 1036.59,-56.5"/>
<text text-anchor="middle" x="1086.09" y="-63.5" font-family="Helvetica,sans-Serif" font-size="10.00">src/Resources.cpp</text>
</a>
</g>
</g>
<!-- Node22&#45;&gt;Node24 -->
<g id="edge26" class="edge"><title>Node22&#45;&gt;Node24</title>
<path fill="none" stroke="midnightblue" d="M811.739,-111.904C896.725,-97.6244 983.394,-83.546 1036.39,-74.9923"/>
<polygon fill="midnightblue" stroke="midnightblue" points="810.935,-108.49 801.655,-113.601 812.097,-115.393 810.935,-108.49"/>
</g>
<!-- Node25 -->
<g id="node21" class="node"><title>Node25</title>
<g id="a_node21"><a xlink:href="Text_8cpp.html" target="_top" xlink:title="src/Text.cpp">
<polygon fill="white" stroke="black" points="1153.59,-56.5 1153.59,-75.5 1224.59,-75.5 1224.59,-56.5 1153.59,-56.5"/>
<text text-anchor="middle" x="1189.09" y="-63.5" font-family="Helvetica,sans-Serif" font-size="10.00">src/Text.cpp</text>
</a>
</g>
</g>
<!-- Node22&#45;&gt;Node25 -->
<g id="edge28" class="edge"><title>Node22&#45;&gt;Node25</title>
<path fill="none" stroke="midnightblue" d="M811.603,-112.023C960.659,-91.576 1000.74,-98.4918 1145.09,-76 1147.71,-75.5919 1150.41,-75.1334 1153.12,-74.6452"/>
<polygon fill="midnightblue" stroke="midnightblue" points="811.048,-108.567 801.625,-113.41 812.012,-115.5 811.048,-108.567"/>
</g>
<!-- Node27 -->
<g id="node23" class="node"><title>Node27</title>
<g id="a_node23"><a xlink:href="Music_8cpp.html" target="_top" xlink:title="src/Music.cpp">
<polygon fill="white" stroke="black" points="820.093,-112.5 820.093,-131.5 898.093,-131.5 898.093,-112.5 820.093,-112.5"/>
<text text-anchor="middle" x="859.093" y="-119.5" font-family="Helvetica,sans-Serif" font-size="10.00">src/Music.cpp</text>
</a>
</g>
</g>
<!-- Node26&#45;&gt;Node27 -->
<g id="edge32" class="edge"><title>Node26&#45;&gt;Node27</title>
<path fill="none" stroke="midnightblue" d="M839.769,-158.983C844.691,-149.817 850.451,-139.092 854.393,-131.751"/>
<polygon fill="midnightblue" stroke="midnightblue" points="836.53,-157.617 834.882,-168.083 842.697,-160.929 836.53,-157.617"/>
</g>
</g>
</svg>
