<?xml version="1.0" encoding="UTF-8" standalone="no"?>
<!DOCTYPE svg PUBLIC "-//W3C//DTD SVG 1.1//EN"
 "http://www.w3.org/Graphics/SVG/1.1/DTD/svg11.dtd">
<!-- Generated by graphviz version 2.38.0 (20140413.2041)
 -->
<!-- Title: include/InputManager.h Pages: 1 -->
<svg width="2295pt" height="308pt"
 viewBox="0.00 0.00 2295.47 308.00" xmlns="http://www.w3.org/2000/svg" xmlns:xlink="http://www.w3.org/1999/xlink">
<g id="graph0" class="graph" transform="scale(1 1) rotate(0) translate(4 304)">
<title>include/InputManager.h</title>
<polygon fill="white" stroke="none" points="-4,4 -4,-304 2291.47,-304 2291.47,4 -4,4"/>
<!-- Node5 -->
<g id="node1" class="node"><title>Node5</title>
<polygon fill="#bfbfbf" stroke="black" points="1138.97,-280.5 1138.97,-299.5 1256.97,-299.5 1256.97,-280.5 1138.97,-280.5"/>
<text text-anchor="middle" x="1197.97" y="-287.5" font-family="Helvetica,sans-Serif" font-size="10.00">include/InputManager.h</text>
</g>
<!-- Node6 -->
<g id="node2" class="node"><title>Node6</title>
<g id="a_node2"><a xlink:href="ActionManager_8h.html" target="_top" xlink:title="include/ActionManager.h">
<polygon fill="white" stroke="black" points="294.967,-224.5 294.967,-243.5 418.967,-243.5 418.967,-224.5 294.967,-224.5"/>
<text text-anchor="middle" x="356.967" y="-231.5" font-family="Helvetica,sans-Serif" font-size="10.00">include/ActionManager.h</text>
</a>
</g>
</g>
<!-- Node5&#45;&gt;Node6 -->
<g id="edge1" class="edge"><title>Node5&#45;&gt;Node6</title>
<path fill="none" stroke="midnightblue" d="M1128.59,-284.546C967.961,-274.232 572.516,-248.84 419.157,-238.993"/>
<polygon fill="midnightblue" stroke="midnightblue" points="1128.63,-288.055 1138.83,-285.203 1129.07,-281.069 1128.63,-288.055"/>
</g>
<!-- Node9 -->
<g id="node5" class="node"><title>Node9</title>
<g id="a_node5"><a xlink:href="Camera_8cpp.html" target="_top" xlink:title="src/Camera.cpp">
<polygon fill="white" stroke="black" points="12.9671,-112.5 12.9671,-131.5 98.9671,-131.5 98.9671,-112.5 12.9671,-112.5"/>
<text text-anchor="middle" x="55.9671" y="-119.5" font-family="Helvetica,sans-Serif" font-size="10.00">src/Camera.cpp</text>
</a>
</g>
</g>
<!-- Node5&#45;&gt;Node9 -->
<g id="edge61" class="edge"><title>Node5&#45;&gt;Node9</title>
<path fill="none" stroke="midnightblue" d="M1128.58,-289.025C944.219,-288.543 445.382,-283.513 285.967,-244 194.876,-221.422 99.9719,-155.654 67.5854,-131.785"/>
<polygon fill="midnightblue" stroke="midnightblue" points="1128.69,-292.525 1138.69,-289.048 1128.7,-285.525 1128.69,-292.525"/>
</g>
<!-- Node10 -->
<g id="node6" class="node"><title>Node10</title>
<g id="a_node6"><a xlink:href="DragAndDrop_8cpp.html" target="_top" xlink:title="src/DragAndDrop.cpp">
<polygon fill="white" stroke="black" points="611.467,-0.5 611.467,-19.5 722.467,-19.5 722.467,-0.5 611.467,-0.5"/>
<text text-anchor="middle" x="666.967" y="-7.5" font-family="Helvetica,sans-Serif" font-size="10.00">src/DragAndDrop.cpp</text>
</a>
</g>
</g>
<!-- Node5&#45;&gt;Node10 -->
<g id="edge62" class="edge"><title>Node5&#45;&gt;Node10</title>
<path fill="none" stroke="midnightblue" d="M1219.61,-274.183C1229.76,-266.264 1241.29,-255.734 1248.97,-244 1282.26,-193.116 1324.35,-158.337 1284.97,-112 1275.8,-101.218 872.591,-41.1416 722.492,-19.1054"/>
<polygon fill="midnightblue" stroke="midnightblue" points="1217.46,-271.419 1211.51,-280.19 1221.63,-277.04 1217.46,-271.419"/>
</g>
<!-- Node14 -->
<g id="node10" class="node"><title>Node14</title>
<g id="a_node10"><a xlink:href="TileMap_8cpp.html" target="_top" xlink:title="src/TileMap.cpp">
<polygon fill="white" stroke="black" points="176.967,-56.5 176.967,-75.5 262.967,-75.5 262.967,-56.5 176.967,-56.5"/>
<text text-anchor="middle" x="219.967" y="-63.5" font-family="Helvetica,sans-Serif" font-size="10.00">src/TileMap.cpp</text>
</a>
</g>
</g>
<!-- Node5&#45;&gt;Node14 -->
<g id="edge64" class="edge"><title>Node5&#45;&gt;Node14</title>
<path fill="none" stroke="midnightblue" d="M1128.93,-289.559C936.289,-290.527 395.857,-289.029 224.967,-244 118.486,-215.943 61.6045,-225.826 3.96713,-132 -0.685549,-124.426 -1.64079,-118.897 3.96713,-112 25.2939,-85.7722 119.888,-74.3195 176.583,-69.7357"/>
<polygon fill="midnightblue" stroke="midnightblue" points="1128.95,-293.06 1138.93,-289.505 1128.91,-286.06 1128.95,-293.06"/>
</g>
<!-- Node17 -->
<g id="node13" class="node"><title>Node17</title>
<g id="a_node13"><a xlink:href="Sprite_8h.html" target="_top" xlink:title="include/Sprite.h">
<polygon fill="white" stroke="black" points="1155.97,-224.5 1155.97,-243.5 1239.97,-243.5 1239.97,-224.5 1155.97,-224.5"/>
<text text-anchor="middle" x="1197.97" y="-231.5" font-family="Helvetica,sans-Serif" font-size="10.00">include/Sprite.h</text>
</a>
</g>
</g>
<!-- Node5&#45;&gt;Node17 -->
<g id="edge12" class="edge"><title>Node5&#45;&gt;Node17</title>
<path fill="none" stroke="midnightblue" d="M1197.97,-269.805C1197.97,-260.91 1197.97,-250.78 1197.97,-243.751"/>
<polygon fill="midnightblue" stroke="midnightblue" points="1194.47,-270.083 1197.97,-280.083 1201.47,-270.083 1194.47,-270.083"/>
</g>
<!-- Node37 -->
<g id="node33" class="node"><title>Node37</title>
<g id="a_node33"><a xlink:href="UItextButton_8cpp.html" target="_top" xlink:title="src/UItextButton.cpp">
<polygon fill="white" stroke="black" points="1463.47,-0.5 1463.47,-19.5 1570.47,-19.5 1570.47,-0.5 1463.47,-0.5"/>
<text text-anchor="middle" x="1516.97" y="-7.5" font-family="Helvetica,sans-Serif" font-size="10.00">src/UItextButton.cpp</text>
</a>
</g>
</g>
<!-- Node5&#45;&gt;Node37 -->
<g id="edge66" class="edge"><title>Node5&#45;&gt;Node37</title>
<path fill="none" stroke="midnightblue" d="M1267.26,-284.067C1463.71,-268.479 2016.87,-212.97 2121.97,-76 2127.38,-68.948 2128.04,-62.4915 2121.97,-56 2080.96,-12.1664 1642.68,-26.0585 1582.97,-20 1578.94,-19.5915 1574.78,-19.1264 1570.6,-18.6279"/>
<polygon fill="midnightblue" stroke="midnightblue" points="1266.76,-280.595 1257.07,-284.865 1267.31,-287.574 1266.76,-280.595"/>
</g>
<!-- Node40 -->
<g id="node36" class="node"><title>Node40</title>
<g id="a_node36"><a xlink:href="State_8h.html" target="_top" xlink:title="include/State.h">
<polygon fill="white" stroke="black" points="924.967,-224.5 924.967,-243.5 1006.97,-243.5 1006.97,-224.5 924.967,-224.5"/>
<text text-anchor="middle" x="965.967" y="-231.5" font-family="Helvetica,sans-Serif" font-size="10.00">include/State.h</text>
</a>
</g>
</g>
<!-- Node5&#45;&gt;Node40 -->
<g id="edge46" class="edge"><title>Node5&#45;&gt;Node40</title>
<path fill="none" stroke="midnightblue" d="M1151.36,-278.153C1107.53,-267.95 1042.79,-252.881 1002.56,-243.516"/>
<polygon fill="midnightblue" stroke="midnightblue" points="1150.67,-281.585 1161.21,-280.444 1152.26,-274.768 1150.67,-281.585"/>
</g>
<!-- Node41 -->
<g id="node37" class="node"><title>Node41</title>
<g id="a_node37"><a xlink:href="Game_8h.html" target="_top" xlink:title="include/Game.h">
<polygon fill="white" stroke="black" points="923.467,-168.5 923.467,-187.5 1008.47,-187.5 1008.47,-168.5 923.467,-168.5"/>
<text text-anchor="middle" x="965.967" y="-175.5" font-family="Helvetica,sans-Serif" font-size="10.00">include/Game.h</text>
</a>
</g>
</g>
<!-- Node5&#45;&gt;Node41 -->
<g id="edge58" class="edge"><title>Node5&#45;&gt;Node41</title>
<path fill="none" stroke="midnightblue" d="M1170.59,-276.021C1122.61,-253.272 1024.58,-206.791 984.087,-187.591"/>
<polygon fill="midnightblue" stroke="midnightblue" points="1169.23,-279.247 1179.76,-280.368 1172.23,-272.922 1169.23,-279.247"/>
</g>
<!-- Node46 -->
<g id="node42" class="node"><title>Node46</title>
<g id="a_node42"><a xlink:href="Music_8h.html" target="_top" xlink:title="include/Music.h">
<polygon fill="white" stroke="black" points="1966.47,-224.5 1966.47,-243.5 2051.47,-243.5 2051.47,-224.5 1966.47,-224.5"/>
<text text-anchor="middle" x="2008.97" y="-231.5" font-family="Helvetica,sans-Serif" font-size="10.00">include/Music.h</text>
</a>
</g>
</g>
<!-- Node5&#45;&gt;Node46 -->
<g id="edge59" class="edge"><title>Node5&#45;&gt;Node46</title>
<path fill="none" stroke="midnightblue" d="M1267.33,-287.11C1400.42,-282.984 1700.71,-271.269 1951.97,-244 1956.65,-243.492 1961.53,-242.867 1966.39,-242.185"/>
<polygon fill="midnightblue" stroke="midnightblue" points="1267.16,-283.613 1257.27,-287.417 1267.37,-290.61 1267.16,-283.613"/>
</g>
<!-- Node48 -->
<g id="node44" class="node"><title>Node48</title>
<g id="a_node44"><a xlink:href="InputManager_8cpp.html" target="_top" xlink:title="src/InputManager.cpp">
<polygon fill="white" stroke="black" points="2069.47,-224.5 2069.47,-243.5 2180.47,-243.5 2180.47,-224.5 2069.47,-224.5"/>
<text text-anchor="middle" x="2124.97" y="-231.5" font-family="Helvetica,sans-Serif" font-size="10.00">src/InputManager.cpp</text>
</a>
</g>
</g>
<!-- Node5&#45;&gt;Node48 -->
<g id="edge63" class="edge"><title>Node5&#45;&gt;Node48</title>
<path fill="none" stroke="midnightblue" d="M1267.34,-287.389C1413.97,-283.541 1766.05,-271.969 2059.97,-244 2063.03,-243.709 2066.17,-243.379 2069.33,-243.021"/>
<polygon fill="midnightblue" stroke="midnightblue" points="1267.05,-283.895 1257.14,-287.652 1267.23,-290.893 1267.05,-283.895"/>
</g>
<!-- Node49 -->
<g id="node45" class="node"><title>Node49</title>
<g id="a_node45"><a xlink:href="UIbutton_8cpp.html" target="_top" xlink:title="src/UIbutton.cpp">
<polygon fill="white" stroke="black" points="2198.47,-224.5 2198.47,-243.5 2287.47,-243.5 2287.47,-224.5 2198.47,-224.5"/>
<text text-anchor="middle" x="2242.97" y="-231.5" font-family="Helvetica,sans-Serif" font-size="10.00">src/UIbutton.cpp</text>
</a>
</g>
</g>
<!-- Node5&#45;&gt;Node49 -->
<g id="edge65" class="edge"><title>Node5&#45;&gt;Node49</title>
<path fill="none" stroke="midnightblue" d="M1267.37,-288.702C1429.27,-287.384 1844.35,-280.41 2188.97,-244 2191.99,-243.68 2195.1,-243.3 2198.23,-242.879"/>
<polygon fill="midnightblue" stroke="midnightblue" points="1267.05,-285.204 1257.07,-288.781 1267.1,-292.204 1267.05,-285.204"/>
</g>
<!-- Node7 -->
<g id="node3" class="node"><title>Node7</title>
<g id="a_node3"><a xlink:href="Camera_8h.html" target="_top" xlink:title="include/Camera.h">
<polygon fill="white" stroke="black" points="310.467,-168.5 310.467,-187.5 403.467,-187.5 403.467,-168.5 310.467,-168.5"/>
<text text-anchor="middle" x="356.967" y="-175.5" font-family="Helvetica,sans-Serif" font-size="10.00">include/Camera.h</text>
</a>
</g>
</g>
<!-- Node6&#45;&gt;Node7 -->
<g id="edge2" class="edge"><title>Node6&#45;&gt;Node7</title>
<path fill="none" stroke="midnightblue" d="M356.967,-213.805C356.967,-204.91 356.967,-194.78 356.967,-187.751"/>
<polygon fill="midnightblue" stroke="midnightblue" points="353.467,-214.083 356.967,-224.083 360.467,-214.083 353.467,-214.083"/>
</g>
<!-- Node16 -->
<g id="node12" class="node"><title>Node16</title>
<g id="a_node12"><a xlink:href="ActionManager_8cpp.html" target="_top" xlink:title="src/ActionManager.cpp">
<polygon fill="white" stroke="black" points="175.467,-168.5 175.467,-187.5 292.467,-187.5 292.467,-168.5 175.467,-168.5"/>
<text text-anchor="middle" x="233.967" y="-175.5" font-family="Helvetica,sans-Serif" font-size="10.00">src/ActionManager.cpp</text>
</a>
</g>
</g>
<!-- Node6&#45;&gt;Node16 -->
<g id="edge11" class="edge"><title>Node6&#45;&gt;Node16</title>
<path fill="none" stroke="midnightblue" d="M328.194,-220.368C305.16,-210.255 273.483,-196.349 253.366,-187.516"/>
<polygon fill="midnightblue" stroke="midnightblue" points="326.914,-223.628 337.477,-224.444 329.728,-217.219 326.914,-223.628"/>
</g>
<!-- Node8 -->
<g id="node4" class="node"><title>Node8</title>
<g id="a_node4"><a xlink:href="Animation_8cpp.html" target="_top" xlink:title="src/Animation.cpp">
<polygon fill="white" stroke="black" points="412.467,-112.5 412.467,-131.5 507.467,-131.5 507.467,-112.5 412.467,-112.5"/>
<text text-anchor="middle" x="459.967" y="-119.5" font-family="Helvetica,sans-Serif" font-size="10.00">src/Animation.cpp</text>
</a>
</g>
</g>
<!-- Node7&#45;&gt;Node8 -->
<g id="edge3" class="edge"><title>Node7&#45;&gt;Node8</title>
<path fill="none" stroke="midnightblue" d="M382.546,-163.59C401.591,-153.605 427.032,-140.267 443.459,-131.655"/>
<polygon fill="midnightblue" stroke="midnightblue" points="380.747,-160.581 373.516,-168.324 383.998,-166.78 380.747,-160.581"/>
</g>
<!-- Node7&#45;&gt;Node9 -->
<g id="edge4" class="edge"><title>Node7&#45;&gt;Node9</title>
<path fill="none" stroke="midnightblue" d="M300.107,-166.799C241.755,-156.331 152.241,-140.272 99.3554,-130.784"/>
<polygon fill="midnightblue" stroke="midnightblue" points="299.805,-170.301 310.266,-168.622 301.041,-163.411 299.805,-170.301"/>
</g>
<!-- Node7&#45;&gt;Node10 -->
<g id="edge5" class="edge"><title>Node7&#45;&gt;Node10</title>
<path fill="none" stroke="midnightblue" d="M334.308,-162.368C316.623,-149.107 297.045,-129.085 309.967,-112 346.345,-63.9022 520.506,-32.13 611.425,-18.5337"/>
<polygon fill="midnightblue" stroke="midnightblue" points="332.502,-165.377 342.688,-168.292 336.543,-159.661 332.502,-165.377"/>
</g>
<!-- Node11 -->
<g id="node7" class="node"><title>Node11</title>
<g id="a_node7"><a xlink:href="GameObject_8cpp.html" target="_top" xlink:title="src/GameObject.cpp">
<polygon fill="white" stroke="black" points="117.467,-112.5 117.467,-131.5 224.467,-131.5 224.467,-112.5 117.467,-112.5"/>
<text text-anchor="middle" x="170.967" y="-119.5" font-family="Helvetica,sans-Serif" font-size="10.00">src/GameObject.cpp</text>
</a>
</g>
</g>
<!-- Node7&#45;&gt;Node11 -->
<g id="edge6" class="edge"><title>Node7&#45;&gt;Node11</title>
<path fill="none" stroke="midnightblue" d="M317.589,-165.568C282.502,-155.381 231.946,-140.703 200.301,-131.516"/>
<polygon fill="midnightblue" stroke="midnightblue" points="316.916,-169.017 327.495,-168.444 318.867,-162.294 316.916,-169.017"/>
</g>
<!-- Node12 -->
<g id="node8" class="node"><title>Node12</title>
<g id="a_node8"><a xlink:href="Sprite_8cpp.html" target="_top" xlink:title="src/Sprite.cpp">
<polygon fill="white" stroke="black" points="525.467,-112.5 525.467,-131.5 602.467,-131.5 602.467,-112.5 525.467,-112.5"/>
<text text-anchor="middle" x="563.967" y="-119.5" font-family="Helvetica,sans-Serif" font-size="10.00">src/Sprite.cpp</text>
</a>
</g>
</g>
<!-- Node7&#45;&gt;Node12 -->
<g id="edge7" class="edge"><title>Node7&#45;&gt;Node12</title>
<path fill="none" stroke="midnightblue" d="M399.789,-165.829C438.873,-155.633 495.802,-140.782 531.321,-131.516"/>
<polygon fill="midnightblue" stroke="midnightblue" points="398.56,-162.533 389.767,-168.444 400.327,-169.306 398.56,-162.533"/>
</g>
<!-- Node13 -->
<g id="node9" class="node"><title>Node13</title>
<g id="a_node9"><a xlink:href="State_8cpp.html" target="_top" xlink:title="src/State.cpp">
<polygon fill="white" stroke="black" points="319.467,-112.5 319.467,-131.5 394.467,-131.5 394.467,-112.5 319.467,-112.5"/>
<text text-anchor="middle" x="356.967" y="-119.5" font-family="Helvetica,sans-Serif" font-size="10.00">src/State.cpp</text>
</a>
</g>
</g>
<!-- Node7&#45;&gt;Node13 -->
<g id="edge8" class="edge"><title>Node7&#45;&gt;Node13</title>
<path fill="none" stroke="midnightblue" d="M356.967,-157.805C356.967,-148.91 356.967,-138.78 356.967,-131.751"/>
<polygon fill="midnightblue" stroke="midnightblue" points="353.467,-158.083 356.967,-168.083 360.467,-158.083 353.467,-158.083"/>
</g>
<!-- Node7&#45;&gt;Node14 -->
<g id="edge9" class="edge"><title>Node7&#45;&gt;Node14</title>
<path fill="none" stroke="midnightblue" d="M328.358,-163.893C312.402,-155.873 292.646,-144.721 276.967,-132 255.755,-114.789 235.894,-89.1967 226.185,-75.8394"/>
<polygon fill="midnightblue" stroke="midnightblue" points="327.21,-167.228 337.732,-168.468 330.28,-160.937 327.21,-167.228"/>
</g>
<!-- Node15 -->
<g id="node11" class="node"><title>Node15</title>
<g id="a_node11"><a xlink:href="Tileset_8cpp.html" target="_top" xlink:title="src/Tileset.cpp">
<polygon fill="white" stroke="black" points="731.467,-112.5 731.467,-131.5 812.467,-131.5 812.467,-112.5 731.467,-112.5"/>
<text text-anchor="middle" x="771.967" y="-119.5" font-family="Helvetica,sans-Serif" font-size="10.00">src/Tileset.cpp</text>
</a>
</g>
</g>
<!-- Node7&#45;&gt;Node15 -->
<g id="edge10" class="edge"><title>Node7&#45;&gt;Node15</title>
<path fill="none" stroke="midnightblue" d="M413.952,-170.964C485.888,-163.117 613.364,-148.456 721.967,-132 725.019,-131.538 728.172,-131.033 731.339,-130.507"/>
<polygon fill="midnightblue" stroke="midnightblue" points="413.314,-167.513 403.751,-172.072 414.07,-174.472 413.314,-167.513"/>
</g>
<!-- Node17&#45;&gt;Node12 -->
<g id="edge45" class="edge"><title>Node17&#45;&gt;Node12</title>
<path fill="none" stroke="midnightblue" d="M1145.6,-230.087C1038.67,-223.812 798.654,-207.955 718.967,-188 665.752,-174.674 607.104,-145.865 579.702,-131.501"/>
<polygon fill="midnightblue" stroke="midnightblue" points="1145.64,-233.595 1155.82,-230.682 1146.04,-226.607 1145.64,-233.595"/>
</g>
<!-- Node18 -->
<g id="node14" class="node"><title>Node18</title>
<g id="a_node14"><a xlink:href="Animation_8h.html" target="_top" xlink:title="include/Animation.h">
<polygon fill="white" stroke="black" points="487.967,-168.5 487.967,-187.5 589.967,-187.5 589.967,-168.5 487.967,-168.5"/>
<text text-anchor="middle" x="538.967" y="-175.5" font-family="Helvetica,sans-Serif" font-size="10.00">include/Animation.h</text>
</a>
</g>
</g>
<!-- Node17&#45;&gt;Node18 -->
<g id="edge13" class="edge"><title>Node17&#45;&gt;Node18</title>
<path fill="none" stroke="midnightblue" d="M1145.76,-228.722C1022.15,-218.593 712.76,-193.241 590.163,-183.195"/>
<polygon fill="midnightblue" stroke="midnightblue" points="1145.49,-232.211 1155.74,-229.54 1146.06,-225.235 1145.49,-232.211"/>
</g>
<!-- Node19 -->
<g id="node15" class="node"><title>Node19</title>
<g id="a_node15"><a xlink:href="Tileset_8h.html" target="_top" xlink:title="include/Tileset.h">
<polygon fill="white" stroke="black" points="727.967,-168.5 727.967,-187.5 815.967,-187.5 815.967,-168.5 727.967,-168.5"/>
<text text-anchor="middle" x="771.967" y="-175.5" font-family="Helvetica,sans-Serif" font-size="10.00">include/Tileset.h</text>
</a>
</g>
</g>
<!-- Node17&#45;&gt;Node19 -->
<g id="edge15" class="edge"><title>Node17&#45;&gt;Node19</title>
<path fill="none" stroke="midnightblue" d="M1145.8,-226.387C1061.16,-215.659 895.439,-194.651 816.207,-184.608"/>
<polygon fill="midnightblue" stroke="midnightblue" points="1145.59,-229.889 1155.95,-227.674 1146.47,-222.945 1145.59,-229.889"/>
</g>
<!-- Node22 -->
<g id="node18" class="node"><title>Node22</title>
<g id="a_node18"><a xlink:href="UIelement_8h.html" target="_top" xlink:title="include/UIelement.h">
<polygon fill="white" stroke="black" points="1540.97,-168.5 1540.97,-187.5 1644.97,-187.5 1644.97,-168.5 1540.97,-168.5"/>
<text text-anchor="middle" x="1592.97" y="-175.5" font-family="Helvetica,sans-Serif" font-size="10.00">include/UIelement.h</text>
</a>
</g>
</g>
<!-- Node17&#45;&gt;Node22 -->
<g id="edge22" class="edge"><title>Node17&#45;&gt;Node22</title>
<path fill="none" stroke="midnightblue" d="M1250.49,-225.82C1326.2,-215.47 1465.17,-196.471 1540.72,-186.142"/>
<polygon fill="midnightblue" stroke="midnightblue" points="1249.67,-222.399 1240.24,-227.221 1250.62,-229.334 1249.67,-222.399"/>
</g>
<!-- Node31 -->
<g id="node27" class="node"><title>Node31</title>
<g id="a_node27"><a xlink:href="UIimage_8h.html" target="_top" xlink:title="include/UIimage.h">
<polygon fill="white" stroke="black" points="1333.47,-112.5 1333.47,-131.5 1428.47,-131.5 1428.47,-112.5 1333.47,-112.5"/>
<text text-anchor="middle" x="1380.97" y="-119.5" font-family="Helvetica,sans-Serif" font-size="10.00">include/UIimage.h</text>
</a>
</g>
</g>
<!-- Node17&#45;&gt;Node31 -->
<g id="edge43" class="edge"><title>Node17&#45;&gt;Node31</title>
<path fill="none" stroke="midnightblue" d="M1208.87,-215.539C1218.77,-200.986 1234.59,-180.659 1252.97,-168 1279.15,-149.958 1313.32,-138.43 1339.76,-131.564"/>
<polygon fill="midnightblue" stroke="midnightblue" points="1205.8,-213.844 1203.26,-224.129 1211.66,-217.673 1205.8,-213.844"/>
</g>
<!-- Node32 -->
<g id="node28" class="node"><title>Node32</title>
<g id="a_node28"><a xlink:href="UIimageButton_8h.html" target="_top" xlink:title="include/UIimageButton.h">
<polygon fill="white" stroke="black" points="1314.97,-56.5 1314.97,-75.5 1438.97,-75.5 1438.97,-56.5 1314.97,-56.5"/>
<text text-anchor="middle" x="1376.97" y="-63.5" font-family="Helvetica,sans-Serif" font-size="10.00">include/UIimageButton.h</text>
</a>
</g>
</g>
<!-- Node17&#45;&gt;Node32 -->
<g id="edge44" class="edge"><title>Node17&#45;&gt;Node32</title>
<path fill="none" stroke="midnightblue" d="M1249.98,-227.519C1306.89,-218.433 1395.52,-194.511 1436.97,-132 1451.82,-109.601 1418.33,-87.4509 1395.65,-75.6767"/>
<polygon fill="midnightblue" stroke="midnightblue" points="1249.46,-224.057 1240.09,-229 1250.5,-230.98 1249.46,-224.057"/>
</g>
<!-- Node18&#45;&gt;Node8 -->
<g id="edge14" class="edge"><title>Node18&#45;&gt;Node8</title>
<path fill="none" stroke="midnightblue" d="M517.933,-162.622C503.501,-152.757 484.826,-139.992 472.628,-131.655"/>
<polygon fill="midnightblue" stroke="midnightblue" points="516.044,-165.57 526.274,-168.324 519.994,-159.791 516.044,-165.57"/>
</g>
<!-- Node19&#45;&gt;Node15 -->
<g id="edge21" class="edge"><title>Node19&#45;&gt;Node15</title>
<path fill="none" stroke="midnightblue" d="M771.967,-157.805C771.967,-148.91 771.967,-138.78 771.967,-131.751"/>
<polygon fill="midnightblue" stroke="midnightblue" points="768.467,-158.083 771.967,-168.083 775.467,-158.083 768.467,-158.083"/>
</g>
<!-- Node20 -->
<g id="node16" class="node"><title>Node20</title>
<g id="a_node16"><a xlink:href="TileMap_8h.html" target="_top" xlink:title="include/TileMap.h">
<polygon fill="white" stroke="black" points="620.467,-112.5 620.467,-131.5 713.467,-131.5 713.467,-112.5 620.467,-112.5"/>
<text text-anchor="middle" x="666.967" y="-119.5" font-family="Helvetica,sans-Serif" font-size="10.00">include/TileMap.h</text>
</a>
</g>
</g>
<!-- Node19&#45;&gt;Node20 -->
<g id="edge16" class="edge"><title>Node19&#45;&gt;Node20</title>
<path fill="none" stroke="midnightblue" d="M746.157,-163.726C726.714,-153.727 700.619,-140.307 683.795,-131.655"/>
<polygon fill="midnightblue" stroke="midnightblue" points="744.603,-166.863 755.097,-168.324 747.805,-160.638 744.603,-166.863"/>
</g>
<!-- Node20&#45;&gt;Node10 -->
<g id="edge19" class="edge"><title>Node20&#45;&gt;Node10</title>
<path fill="none" stroke="midnightblue" d="M654.726,-103.834C649.72,-95.7882 644.513,-85.8248 641.967,-76 636.569,-55.1668 650.764,-31.8799 659.915,-19.6235"/>
<polygon fill="midnightblue" stroke="midnightblue" points="651.887,-105.886 660.338,-112.275 657.716,-102.01 651.887,-105.886"/>
</g>
<!-- Node20&#45;&gt;Node14 -->
<g id="edge20" class="edge"><title>Node20&#45;&gt;Node14</title>
<path fill="none" stroke="midnightblue" d="M610.302,-111.965C477.636,-93.8514 333.544,-78.5317 263.151,-71.3315"/>
<polygon fill="midnightblue" stroke="midnightblue" points="609.856,-115.436 620.24,-113.33 610.809,-108.501 609.856,-115.436"/>
</g>
<!-- Node21 -->
<g id="node17" class="node"><title>Node21</title>
<g id="a_node17"><a xlink:href="DragAndDrop_8h.html" target="_top" xlink:title="include/DragAndDrop.h">
<polygon fill="white" stroke="black" points="650.967,-56.5 650.967,-75.5 768.967,-75.5 768.967,-56.5 650.967,-56.5"/>
<text text-anchor="middle" x="709.967" y="-63.5" font-family="Helvetica,sans-Serif" font-size="10.00">include/DragAndDrop.h</text>
</a>
</g>
</g>
<!-- Node20&#45;&gt;Node21 -->
<g id="edge17" class="edge"><title>Node20&#45;&gt;Node21</title>
<path fill="none" stroke="midnightblue" d="M680.39,-104.144C687.881,-94.7357 696.904,-83.4046 702.999,-75.7511"/>
<polygon fill="midnightblue" stroke="midnightblue" points="677.559,-102.08 674.068,-112.083 683.035,-106.44 677.559,-102.08"/>
</g>
<!-- Node21&#45;&gt;Node10 -->
<g id="edge18" class="edge"><title>Node21&#45;&gt;Node10</title>
<path fill="none" stroke="midnightblue" d="M696.545,-48.144C689.053,-38.7357 680.03,-27.4046 673.936,-19.7511"/>
<polygon fill="midnightblue" stroke="midnightblue" points="693.899,-50.4404 702.867,-56.083 699.375,-46.0799 693.899,-50.4404"/>
</g>
<!-- Node23 -->
<g id="node19" class="node"><title>Node23</title>
<g id="a_node19"><a xlink:href="UIcanvas_8h.html" target="_top" xlink:title="include/UIcanvas.h">
<polygon fill="white" stroke="black" points="1757.47,-112.5 1757.47,-131.5 1858.47,-131.5 1858.47,-112.5 1757.47,-112.5"/>
<text text-anchor="middle" x="1807.97" y="-119.5" font-family="Helvetica,sans-Serif" font-size="10.00">include/UIcanvas.h</text>
</a>
</g>
</g>
<!-- Node22&#45;&gt;Node23 -->
<g id="edge23" class="edge"><title>Node22&#45;&gt;Node23</title>
<path fill="none" stroke="midnightblue" d="M1636.93,-165.959C1677.53,-155.76 1737.01,-140.822 1774.06,-131.516"/>
<polygon fill="midnightblue" stroke="midnightblue" points="1635.88,-162.613 1627.03,-168.444 1637.59,-169.402 1635.88,-162.613"/>
</g>
<!-- Node24 -->
<g id="node20" class="node"><title>Node24</title>
<g id="a_node20"><a xlink:href="UIgridGroup_8h.html" target="_top" xlink:title="include/UIgridGroup.h">
<polygon fill="white" stroke="black" points="2002.47,-56.5 2002.47,-75.5 2113.47,-75.5 2113.47,-56.5 2002.47,-56.5"/>
<text text-anchor="middle" x="2057.97" y="-63.5" font-family="Helvetica,sans-Serif" font-size="10.00">include/UIgridGroup.h</text>
</a>
</g>
</g>
<!-- Node22&#45;&gt;Node24 -->
<g id="edge31" class="edge"><title>Node22&#45;&gt;Node24</title>
<path fill="none" stroke="midnightblue" d="M1655.1,-169.773C1711.03,-162.566 1795.21,-149.971 1866.97,-132 1929.83,-116.257 2001.58,-89.3225 2036.55,-75.5932"/>
<polygon fill="midnightblue" stroke="midnightblue" points="1654.48,-166.325 1645,-171.057 1655.36,-173.269 1654.48,-166.325"/>
</g>
<!-- Node26 -->
<g id="node22" class="node"><title>Node26</title>
<g id="a_node22"><a xlink:href="UIhorizontalGroup_8h.html" target="_top" xlink:title="include/UIhorizontalGroup.h">
<polygon fill="white" stroke="black" points="1589.47,-56.5 1589.47,-75.5 1726.47,-75.5 1726.47,-56.5 1589.47,-56.5"/>
<text text-anchor="middle" x="1657.97" y="-63.5" font-family="Helvetica,sans-Serif" font-size="10.00">include/UIhorizontalGroup.h</text>
</a>
</g>
</g>
<!-- Node22&#45;&gt;Node26 -->
<g id="edge32" class="edge"><title>Node22&#45;&gt;Node26</title>
<path fill="none" stroke="midnightblue" d="M1603.23,-159.64C1617.35,-135.744 1642.23,-93.6286 1652.89,-75.5914"/>
<polygon fill="midnightblue" stroke="midnightblue" points="1600.14,-157.979 1598.07,-168.368 1606.17,-161.54 1600.14,-157.979"/>
</g>
<!-- Node28 -->
<g id="node24" class="node"><title>Node28</title>
<g id="a_node24"><a xlink:href="UIverticalGroup_8h.html" target="_top" xlink:title="include/UIverticalGroup.h">
<polygon fill="white" stroke="black" points="1744.47,-56.5 1744.47,-75.5 1871.47,-75.5 1871.47,-56.5 1744.47,-56.5"/>
<text text-anchor="middle" x="1807.97" y="-63.5" font-family="Helvetica,sans-Serif" font-size="10.00">include/UIverticalGroup.h</text>
</a>
</g>
</g>
<!-- Node22&#45;&gt;Node28 -->
<g id="edge41" class="edge"><title>Node22&#45;&gt;Node28</title>
<path fill="none" stroke="midnightblue" d="M1618.89,-163.735C1663.56,-140.884 1753.81,-94.7108 1791.17,-75.5914"/>
<polygon fill="midnightblue" stroke="midnightblue" points="1617.15,-160.698 1609.84,-168.368 1620.33,-166.93 1617.15,-160.698"/>
</g>
<!-- Node22&#45;&gt;Node31 -->
<g id="edge33" class="edge"><title>Node22&#45;&gt;Node31</title>
<path fill="none" stroke="midnightblue" d="M1549.62,-165.959C1509.58,-155.76 1450.93,-140.822 1414.4,-131.516"/>
<polygon fill="midnightblue" stroke="midnightblue" points="1548.82,-169.367 1559.38,-168.444 1550.55,-162.583 1548.82,-169.367"/>
</g>
<!-- Node35 -->
<g id="node31" class="node"><title>Node35</title>
<g id="a_node31"><a xlink:href="UItext_8h.html" target="_top" xlink:title="include/UItext.h">
<polygon fill="white" stroke="black" points="1484.97,-112.5 1484.97,-131.5 1570.97,-131.5 1570.97,-112.5 1484.97,-112.5"/>
<text text-anchor="middle" x="1527.97" y="-119.5" font-family="Helvetica,sans-Serif" font-size="10.00">include/UItext.h</text>
</a>
</g>
</g>
<!-- Node22&#45;&gt;Node35 -->
<g id="edge37" class="edge"><title>Node22&#45;&gt;Node35</title>
<path fill="none" stroke="midnightblue" d="M1574.69,-161.82C1563.05,-152.145 1548.37,-139.948 1538.6,-131.834"/>
<polygon fill="midnightblue" stroke="midnightblue" points="1572.6,-164.626 1582.52,-168.324 1577.07,-159.242 1572.6,-164.626"/>
</g>
<!-- Node39 -->
<g id="node35" class="node"><title>Node39</title>
<g id="a_node35"><a xlink:href="UIelement_8cpp.html" target="_top" xlink:title="src/UIelement.cpp">
<polygon fill="white" stroke="black" points="1179.47,-112.5 1179.47,-131.5 1276.47,-131.5 1276.47,-112.5 1179.47,-112.5"/>
<text text-anchor="middle" x="1227.97" y="-119.5" font-family="Helvetica,sans-Serif" font-size="10.00">src/UIelement.cpp</text>
</a>
</g>
</g>
<!-- Node22&#45;&gt;Node39 -->
<g id="edge42" class="edge"><title>Node22&#45;&gt;Node39</title>
<path fill="none" stroke="midnightblue" d="M1530.4,-167.744C1458.53,-157.11 1342.12,-139.888 1276.67,-130.205"/>
<polygon fill="midnightblue" stroke="midnightblue" points="1530.27,-171.262 1540.67,-169.263 1531.29,-164.337 1530.27,-171.262"/>
</g>
<!-- Node23&#45;&gt;Node24 -->
<g id="edge24" class="edge"><title>Node23&#45;&gt;Node24</title>
<path fill="none" stroke="midnightblue" d="M1857.59,-110.281C1904.83,-100.077 1975,-84.9203 2018.54,-75.5164"/>
<polygon fill="midnightblue" stroke="midnightblue" points="1856.62,-106.911 1847.58,-112.444 1858.09,-113.753 1856.62,-106.911"/>
</g>
<!-- Node23&#45;&gt;Node26 -->
<g id="edge26" class="edge"><title>Node23&#45;&gt;Node26</title>
<path fill="none" stroke="midnightblue" d="M1774.74,-109.039C1746.52,-98.8786 1706.71,-84.5457 1681.62,-75.5164"/>
<polygon fill="midnightblue" stroke="midnightblue" points="1773.6,-112.349 1784.2,-112.444 1775.98,-105.763 1773.6,-112.349"/>
</g>
<!-- Node23&#45;&gt;Node28 -->
<g id="edge28" class="edge"><title>Node23&#45;&gt;Node28</title>
<path fill="none" stroke="midnightblue" d="M1807.97,-101.805C1807.97,-92.9102 1807.97,-82.7798 1807.97,-75.7511"/>
<polygon fill="midnightblue" stroke="midnightblue" points="1804.47,-102.083 1807.97,-112.083 1811.47,-102.083 1804.47,-102.083"/>
</g>
<!-- Node30 -->
<g id="node26" class="node"><title>Node30</title>
<g id="a_node26"><a xlink:href="UIcanvas_8cpp.html" target="_top" xlink:title="src/UIcanvas.cpp">
<polygon fill="white" stroke="black" points="1889.97,-56.5 1889.97,-75.5 1983.97,-75.5 1983.97,-56.5 1889.97,-56.5"/>
<text text-anchor="middle" x="1936.97" y="-63.5" font-family="Helvetica,sans-Serif" font-size="10.00">src/UIcanvas.cpp</text>
</a>
</g>
</g>
<!-- Node23&#45;&gt;Node30 -->
<g id="edge30" class="edge"><title>Node23&#45;&gt;Node30</title>
<path fill="none" stroke="midnightblue" d="M1837.82,-108.503C1862,-98.3795 1895.43,-84.388 1916.62,-75.5164"/>
<polygon fill="midnightblue" stroke="midnightblue" points="1836.28,-105.354 1828.41,-112.444 1838.98,-111.811 1836.28,-105.354"/>
</g>
<!-- Node25 -->
<g id="node21" class="node"><title>Node25</title>
<g id="a_node21"><a xlink:href="UIgridGroup_8cpp.html" target="_top" xlink:title="src/UIgridGroup.cpp">
<polygon fill="white" stroke="black" points="2005.97,-0.5 2005.97,-19.5 2109.97,-19.5 2109.97,-0.5 2005.97,-0.5"/>
<text text-anchor="middle" x="2057.97" y="-7.5" font-family="Helvetica,sans-Serif" font-size="10.00">src/UIgridGroup.cpp</text>
</a>
</g>
</g>
<!-- Node24&#45;&gt;Node25 -->
<g id="edge25" class="edge"><title>Node24&#45;&gt;Node25</title>
<path fill="none" stroke="midnightblue" d="M2057.97,-45.8045C2057.97,-36.9102 2057.97,-26.7798 2057.97,-19.7511"/>
<polygon fill="midnightblue" stroke="midnightblue" points="2054.47,-46.083 2057.97,-56.083 2061.47,-46.083 2054.47,-46.083"/>
</g>
<!-- Node27 -->
<g id="node23" class="node"><title>Node27</title>
<g id="a_node23"><a xlink:href="UIhorizontalGroup_8cpp.html" target="_top" xlink:title="src/UIhorizontalGroup.cpp">
<polygon fill="white" stroke="black" points="1592.47,-0.5 1592.47,-19.5 1723.47,-19.5 1723.47,-0.5 1592.47,-0.5"/>
<text text-anchor="middle" x="1657.97" y="-7.5" font-family="Helvetica,sans-Serif" font-size="10.00">src/UIhorizontalGroup.cpp</text>
</a>
</g>
</g>
<!-- Node26&#45;&gt;Node27 -->
<g id="edge27" class="edge"><title>Node26&#45;&gt;Node27</title>
<path fill="none" stroke="midnightblue" d="M1657.97,-45.8045C1657.97,-36.9102 1657.97,-26.7798 1657.97,-19.7511"/>
<polygon fill="midnightblue" stroke="midnightblue" points="1654.47,-46.083 1657.97,-56.083 1661.47,-46.083 1654.47,-46.083"/>
</g>
<!-- Node29 -->
<g id="node25" class="node"><title>Node29</title>
<g id="a_node25"><a xlink:href="UIverticalGroup_8cpp.html" target="_top" xlink:title="src/UIverticalGroup.cpp">
<polygon fill="white" stroke="black" points="1747.97,-0.5 1747.97,-19.5 1867.97,-19.5 1867.97,-0.5 1747.97,-0.5"/>
<text text-anchor="middle" x="1807.97" y="-7.5" font-family="Helvetica,sans-Serif" font-size="10.00">src/UIverticalGroup.cpp</text>
</a>
</g>
</g>
<!-- Node28&#45;&gt;Node29 -->
<g id="edge29" class="edge"><title>Node28&#45;&gt;Node29</title>
<path fill="none" stroke="midnightblue" d="M1807.97,-45.8045C1807.97,-36.9102 1807.97,-26.7798 1807.97,-19.7511"/>
<polygon fill="midnightblue" stroke="midnightblue" points="1804.47,-46.083 1807.97,-56.083 1811.47,-46.083 1804.47,-46.083"/>
</g>
<!-- Node31&#45;&gt;Node32 -->
<g id="edge34" class="edge"><title>Node31&#45;&gt;Node32</title>
<path fill="none" stroke="midnightblue" d="M1379.57,-102.101C1378.9,-93.1357 1378.14,-82.8579 1377.62,-75.7511"/>
<polygon fill="midnightblue" stroke="midnightblue" points="1376.08,-102.369 1380.31,-112.083 1383.06,-101.852 1376.08,-102.369"/>
</g>
<!-- Node34 -->
<g id="node30" class="node"><title>Node34</title>
<g id="a_node30"><a xlink:href="UIimage_8cpp.html" target="_top" xlink:title="src/UIimage.cpp">
<polygon fill="white" stroke="black" points="1208.47,-56.5 1208.47,-75.5 1297.47,-75.5 1297.47,-56.5 1208.47,-56.5"/>
<text text-anchor="middle" x="1252.97" y="-63.5" font-family="Helvetica,sans-Serif" font-size="10.00">src/UIimage.cpp</text>
</a>
</g>
</g>
<!-- Node31&#45;&gt;Node34 -->
<g id="edge36" class="edge"><title>Node31&#45;&gt;Node34</title>
<path fill="none" stroke="midnightblue" d="M1351.34,-108.503C1327.35,-98.3795 1294.18,-84.388 1273.15,-75.5164"/>
<polygon fill="midnightblue" stroke="midnightblue" points="1350.11,-111.781 1360.69,-112.444 1352.83,-105.332 1350.11,-111.781"/>
</g>
<!-- Node33 -->
<g id="node29" class="node"><title>Node33</title>
<g id="a_node29"><a xlink:href="UIimageButton_8cpp.html" target="_top" xlink:title="src/UIimageButton.cpp">
<polygon fill="white" stroke="black" points="1318.47,-0.5 1318.47,-19.5 1435.47,-19.5 1435.47,-0.5 1318.47,-0.5"/>
<text text-anchor="middle" x="1376.97" y="-7.5" font-family="Helvetica,sans-Serif" font-size="10.00">src/UIimageButton.cpp</text>
</a>
</g>
</g>
<!-- Node32&#45;&gt;Node33 -->
<g id="edge35" class="edge"><title>Node32&#45;&gt;Node33</title>
<path fill="none" stroke="midnightblue" d="M1376.97,-45.8045C1376.97,-36.9102 1376.97,-26.7798 1376.97,-19.7511"/>
<polygon fill="midnightblue" stroke="midnightblue" points="1373.47,-46.083 1376.97,-56.083 1380.47,-46.083 1373.47,-46.083"/>
</g>
<!-- Node36 -->
<g id="node32" class="node"><title>Node36</title>
<g id="a_node32"><a xlink:href="UItextButton_8h.html" target="_top" xlink:title="include/UItextButton.h">
<polygon fill="white" stroke="black" points="1456.97,-56.5 1456.97,-75.5 1570.97,-75.5 1570.97,-56.5 1456.97,-56.5"/>
<text text-anchor="middle" x="1513.97" y="-63.5" font-family="Helvetica,sans-Serif" font-size="10.00">include/UItextButton.h</text>
</a>
</g>
</g>
<!-- Node35&#45;&gt;Node36 -->
<g id="edge38" class="edge"><title>Node35&#45;&gt;Node36</title>
<path fill="none" stroke="midnightblue" d="M1523.14,-102.396C1520.8,-93.362 1518.1,-82.936 1516.24,-75.7511"/>
<polygon fill="midnightblue" stroke="midnightblue" points="1519.76,-103.281 1525.66,-112.083 1526.53,-101.525 1519.76,-103.281"/>
</g>
<!-- Node38 -->
<g id="node34" class="node"><title>Node38</title>
<g id="a_node34"><a xlink:href="UItext_8cpp.html" target="_top" xlink:title="src/UItext.cpp">
<polygon fill="white" stroke="black" points="1111.47,-56.5 1111.47,-75.5 1190.47,-75.5 1190.47,-56.5 1111.47,-56.5"/>
<text text-anchor="middle" x="1150.97" y="-63.5" font-family="Helvetica,sans-Serif" font-size="10.00">src/UItext.cpp</text>
</a>
</g>
</g>
<!-- Node35&#45;&gt;Node38 -->
<g id="edge40" class="edge"><title>Node35&#45;&gt;Node38</title>
<path fill="none" stroke="midnightblue" d="M1474.72,-114.539C1409.56,-106.443 1295.93,-91.7115 1198.97,-76 1196.21,-75.5525 1193.36,-75.0708 1190.49,-74.5711"/>
<polygon fill="midnightblue" stroke="midnightblue" points="1474.4,-118.026 1484.75,-115.781 1475.26,-111.079 1474.4,-118.026"/>
</g>
<!-- Node36&#45;&gt;Node37 -->
<g id="edge39" class="edge"><title>Node36&#45;&gt;Node37</title>
<path fill="none" stroke="midnightblue" d="M1515.03,-45.8045C1515.53,-36.9102 1516.09,-26.7798 1516.48,-19.7511"/>
<polygon fill="midnightblue" stroke="midnightblue" points="1511.52,-45.9042 1514.46,-56.083 1518.51,-46.2926 1511.52,-45.9042"/>
</g>
<!-- Node40&#45;&gt;Node13 -->
<g id="edge57" class="edge"><title>Node40&#45;&gt;Node13</title>
<path fill="none" stroke="midnightblue" d="M914.553,-230.822C806.558,-225.829 559.46,-212.093 478.967,-188 435.743,-175.062 390.209,-146.072 369.069,-131.584"/>
<polygon fill="midnightblue" stroke="midnightblue" points="914.719,-234.333 924.868,-231.292 915.038,-227.34 914.719,-234.333"/>
</g>
<!-- Node40&#45;&gt;Node41 -->
<g id="edge47" class="edge"><title>Node40&#45;&gt;Node41</title>
<path fill="none" stroke="midnightblue" d="M965.967,-213.805C965.967,-204.91 965.967,-194.78 965.967,-187.751"/>
<polygon fill="midnightblue" stroke="midnightblue" points="962.467,-214.083 965.967,-224.083 969.467,-214.083 962.467,-214.083"/>
</g>
<!-- Node41&#45;&gt;Node9 -->
<g id="edge50" class="edge"><title>Node41&#45;&gt;Node9</title>
<path fill="none" stroke="midnightblue" d="M913.202,-173.462C886.724,-171.729 854.153,-169.664 824.967,-168 506.416,-149.837 425.08,-167.272 107.967,-132 105.053,-131.676 102.055,-131.292 99.04,-130.869"/>
<polygon fill="midnightblue" stroke="midnightblue" points="913.194,-176.969 923.402,-174.132 913.653,-169.984 913.194,-176.969"/>
</g>
<!-- Node41&#45;&gt;Node12 -->
<g id="edge53" class="edge"><title>Node41&#45;&gt;Node12</title>
<path fill="none" stroke="midnightblue" d="M912.969,-171.339C843.453,-163.671 717.764,-148.977 610.967,-132 608.259,-131.57 605.469,-131.101 602.662,-130.61"/>
<polygon fill="midnightblue" stroke="midnightblue" points="912.898,-174.852 923.22,-172.463 913.662,-167.894 912.898,-174.852"/>
</g>
<!-- Node41&#45;&gt;Node15 -->
<g id="edge54" class="edge"><title>Node41&#45;&gt;Node15</title>
<path fill="none" stroke="midnightblue" d="M925.366,-165.699C888.752,-155.507 835.71,-140.743 802.563,-131.516"/>
<polygon fill="midnightblue" stroke="midnightblue" points="924.655,-169.134 935.227,-168.444 926.532,-162.39 924.655,-169.134"/>
</g>
<!-- Node41&#45;&gt;Node38 -->
<g id="edge56" class="edge"><title>Node41&#45;&gt;Node38</title>
<path fill="none" stroke="midnightblue" d="M1019.08,-175.405C1055.05,-171.548 1101.26,-160.762 1130.97,-132 1146.57,-116.888 1150.08,-89.9204 1150.81,-75.9465"/>
<polygon fill="midnightblue" stroke="midnightblue" points="1018.39,-171.953 1008.75,-176.355 1019.03,-178.924 1018.39,-171.953"/>
</g>
<!-- Node41&#45;&gt;Node39 -->
<g id="edge55" class="edge"><title>Node41&#45;&gt;Node39</title>
<path fill="none" stroke="midnightblue" d="M1017.35,-166.41C1066.87,-156.204 1140.83,-140.96 1186.65,-131.516"/>
<polygon fill="midnightblue" stroke="midnightblue" points="1016.57,-162.997 1007.48,-168.444 1017.98,-169.853 1016.57,-162.997"/>
</g>
<!-- Node42 -->
<g id="node38" class="node"><title>Node42</title>
<g id="a_node38"><a xlink:href="Text_8h.html" target="_top" xlink:title="include/Text.h">
<polygon fill="white" stroke="black" points="830.967,-112.5 830.967,-131.5 908.967,-131.5 908.967,-112.5 830.967,-112.5"/>
<text text-anchor="middle" x="869.967" y="-119.5" font-family="Helvetica,sans-Serif" font-size="10.00">include/Text.h</text>
</a>
</g>
</g>
<!-- Node41&#45;&gt;Node42 -->
<g id="edge48" class="edge"><title>Node41&#45;&gt;Node42</title>
<path fill="none" stroke="midnightblue" d="M941.394,-163.177C923.728,-153.241 900.455,-140.149 885.353,-131.655"/>
<polygon fill="midnightblue" stroke="midnightblue" points="940.111,-166.472 950.543,-168.324 943.543,-160.371 940.111,-166.472"/>
</g>
<!-- Node44 -->
<g id="node40" class="node"><title>Node44</title>
<g id="a_node40"><a xlink:href="Game_8cpp.html" target="_top" xlink:title="src/Game.cpp">
<polygon fill="white" stroke="black" points="926.967,-112.5 926.967,-131.5 1004.97,-131.5 1004.97,-112.5 926.967,-112.5"/>
<text text-anchor="middle" x="965.967" y="-119.5" font-family="Helvetica,sans-Serif" font-size="10.00">src/Game.cpp</text>
</a>
</g>
</g>
<!-- Node41&#45;&gt;Node44 -->
<g id="edge51" class="edge"><title>Node41&#45;&gt;Node44</title>
<path fill="none" stroke="midnightblue" d="M965.967,-157.805C965.967,-148.91 965.967,-138.78 965.967,-131.751"/>
<polygon fill="midnightblue" stroke="midnightblue" points="962.467,-158.083 965.967,-168.083 969.467,-158.083 962.467,-158.083"/>
</g>
<!-- Node45 -->
<g id="node41" class="node"><title>Node45</title>
<g id="a_node41"><a xlink:href="Resources_8cpp.html" target="_top" xlink:title="src/Resources.cpp">
<polygon fill="white" stroke="black" points="1023.47,-112.5 1023.47,-131.5 1122.47,-131.5 1122.47,-112.5 1023.47,-112.5"/>
<text text-anchor="middle" x="1072.97" y="-119.5" font-family="Helvetica,sans-Serif" font-size="10.00">src/Resources.cpp</text>
</a>
</g>
</g>
<!-- Node41&#45;&gt;Node45 -->
<g id="edge52" class="edge"><title>Node41&#45;&gt;Node45</title>
<path fill="none" stroke="midnightblue" d="M992.269,-163.726C1012.08,-153.727 1038.67,-140.307 1055.82,-131.655"/>
<polygon fill="midnightblue" stroke="midnightblue" points="990.509,-160.694 983.159,-168.324 993.663,-166.943 990.509,-160.694"/>
</g>
<!-- Node43 -->
<g id="node39" class="node"><title>Node43</title>
<g id="a_node39"><a xlink:href="Text_8cpp.html" target="_top" xlink:title="src/Text.cpp">
<polygon fill="white" stroke="black" points="834.467,-56.5 834.467,-75.5 905.467,-75.5 905.467,-56.5 834.467,-56.5"/>
<text text-anchor="middle" x="869.967" y="-63.5" font-family="Helvetica,sans-Serif" font-size="10.00">src/Text.cpp</text>
</a>
</g>
</g>
<!-- Node42&#45;&gt;Node43 -->
<g id="edge49" class="edge"><title>Node42&#45;&gt;Node43</title>
<path fill="none" stroke="midnightblue" d="M869.967,-101.805C869.967,-92.9102 869.967,-82.7798 869.967,-75.7511"/>
<polygon fill="midnightblue" stroke="midnightblue" points="866.467,-102.083 869.967,-112.083 873.467,-102.083 866.467,-102.083"/>
</g>
<!-- Node47 -->
<g id="node43" class="node"><title>Node47</title>
<g id="a_node43"><a xlink:href="Music_8cpp.html" target="_top" xlink:title="src/Music.cpp">
<polygon fill="white" stroke="black" points="1969.97,-168.5 1969.97,-187.5 2047.97,-187.5 2047.97,-168.5 1969.97,-168.5"/>
<text text-anchor="middle" x="2008.97" y="-175.5" font-family="Helvetica,sans-Serif" font-size="10.00">src/Music.cpp</text>
</a>
</g>
</g>
<!-- Node46&#45;&gt;Node47 -->
<g id="edge60" class="edge"><title>Node46&#45;&gt;Node47</title>
<path fill="none" stroke="midnightblue" d="M2008.97,-213.805C2008.97,-204.91 2008.97,-194.78 2008.97,-187.751"/>
<polygon fill="midnightblue" stroke="midnightblue" points="2005.47,-214.083 2008.97,-224.083 2012.47,-214.083 2005.47,-214.083"/>
</g>
</g>
</svg>
