<?xml version="1.0" encoding="UTF-8" standalone="no"?>
<!DOCTYPE svg PUBLIC "-//W3C//DTD SVG 1.1//EN"
 "http://www.w3.org/Graphics/SVG/1.1/DTD/svg11.dtd">
<!-- Generated by graphviz version 2.40.1 (20161225.0304)
 -->
<!-- Title: src/InputManager.cpp Pages: 1 -->
<svg width="422pt" height="252pt"
 viewBox="0.00 0.00 422.00 252.00" xmlns="http://www.w3.org/2000/svg" xmlns:xlink="http://www.w3.org/1999/xlink">
<g id="graph0" class="graph" transform="scale(1 1) rotate(0) translate(4 248)">
<title>src/InputManager.cpp</title>
<polygon fill="#ffffff" stroke="transparent" points="-4,4 -4,-248 418,-248 418,4 -4,4"/>
<!-- Node0 -->
<g id="node1" class="node">
<title>Node0</title>
<polygon fill="#bfbfbf" stroke="#000000" points="199.5,-224.5 199.5,-243.5 310.5,-243.5 310.5,-224.5 199.5,-224.5"/>
<text text-anchor="middle" x="255" y="-231.5" font-family="Helvetica,sans-Serif" font-size="10.00" fill="#000000">src/InputManager.cpp</text>
</g>
<!-- Node1 -->
<g id="node2" class="node">
<title>Node1</title>
<g id="a_node2"><a xlink:href="InputManager_8h.html" target="_top" xlink:title="InputManager.h">
<polygon fill="#ffffff" stroke="#000000" points="128,-168.5 128,-187.5 212,-187.5 212,-168.5 128,-168.5"/>
<text text-anchor="middle" x="170" y="-175.5" font-family="Helvetica,sans-Serif" font-size="10.00" fill="#000000">InputManager.h</text>
</a>
</g>
</g>
<!-- Node0&#45;&gt;Node1 -->
<g id="edge1" class="edge">
<title>Node0&#45;&gt;Node1</title>
<path fill="none" stroke="#191970" d="M240.1941,-224.2455C227.2744,-215.7337 208.3069,-203.2375 193.3448,-193.3801"/>
<polygon fill="#191970" stroke="#191970" points="194.9124,-190.2216 184.6362,-187.6427 191.0613,-196.067 194.9124,-190.2216"/>
</g>
<!-- Node8 -->
<g id="node9" class="node">
<title>Node8</title>
<polygon fill="#ffffff" stroke="#bfbfbf" points="230.5,-168.5 230.5,-187.5 279.5,-187.5 279.5,-168.5 230.5,-168.5"/>
<text text-anchor="middle" x="255" y="-175.5" font-family="Helvetica,sans-Serif" font-size="10.00" fill="#000000">string.h</text>
</g>
<!-- Node0&#45;&gt;Node8 -->
<g id="edge11" class="edge">
<title>Node0&#45;&gt;Node8</title>
<path fill="none" stroke="#191970" d="M255,-224.2455C255,-216.9382 255,-206.6944 255,-197.7046"/>
<polygon fill="#191970" stroke="#191970" points="258.5001,-197.6426 255,-187.6427 251.5001,-197.6427 258.5001,-197.6426"/>
</g>
<!-- Node9 -->
<g id="node10" class="node">
<title>Node9</title>
<g id="a_node10"><a xlink:href="Error_8h.html" target="_top" xlink:title="Error.h">
<polygon fill="#ffffff" stroke="#000000" points="298,-168.5 298,-187.5 344,-187.5 344,-168.5 298,-168.5"/>
<text text-anchor="middle" x="321" y="-175.5" font-family="Helvetica,sans-Serif" font-size="10.00" fill="#000000">Error.h</text>
</a>
</g>
</g>
<!-- Node0&#45;&gt;Node9 -->
<g id="edge12" class="edge">
<title>Node0&#45;&gt;Node9</title>
<path fill="none" stroke="#191970" d="M266.4963,-224.2455C276.2442,-215.9746 290.4259,-203.9416 301.8798,-194.2232"/>
<polygon fill="#191970" stroke="#191970" points="304.2747,-196.7813 309.6354,-187.6427 299.7459,-191.4437 304.2747,-196.7813"/>
</g>
<!-- Node2 -->
<g id="node3" class="node">
<title>Node2</title>
<g id="a_node3"><a xlink:href="SDL__include_8h.html" target="_top" xlink:title="SDL_include.h">
<polygon fill="#ffffff" stroke="#000000" points="0,-.5 0,-19.5 80,-19.5 80,-.5 0,-.5"/>
<text text-anchor="middle" x="40" y="-7.5" font-family="Helvetica,sans-Serif" font-size="10.00" fill="#000000">SDL_include.h</text>
</a>
</g>
</g>
<!-- Node1&#45;&gt;Node2 -->
<g id="edge2" class="edge">
<title>Node1&#45;&gt;Node2</title>
<path fill="none" stroke="#191970" d="M127.8189,-172.2524C102.3797,-166.4815 71.5898,-154.9585 54,-132 31.2978,-102.3686 33.1008,-56.2005 36.5082,-29.977"/>
<polygon fill="#191970" stroke="#191970" points="40.018,-30.1746 38.0521,-19.7637 33.0967,-29.1282 40.018,-30.1746"/>
</g>
<!-- Node3 -->
<g id="node4" class="node">
<title>Node3</title>
<g id="a_node4"><a xlink:href="Vec2_8h.html" target="_top" xlink:title="Vec2.h">
<polygon fill="#ffffff" stroke="#000000" points="63.5,-112.5 63.5,-131.5 110.5,-131.5 110.5,-112.5 63.5,-112.5"/>
<text text-anchor="middle" x="87" y="-119.5" font-family="Helvetica,sans-Serif" font-size="10.00" fill="#000000">Vec2.h</text>
</a>
</g>
</g>
<!-- Node1&#45;&gt;Node3 -->
<g id="edge3" class="edge">
<title>Node1&#45;&gt;Node3</title>
<path fill="none" stroke="#191970" d="M155.5425,-168.2455C142.9268,-159.7337 124.4056,-147.2375 109.7955,-137.3801"/>
<polygon fill="#191970" stroke="#191970" points="111.5391,-134.3343 101.2918,-131.6427 107.6239,-140.1371 111.5391,-134.3343"/>
</g>
<!-- Node6 -->
<g id="node7" class="node">
<title>Node6</title>
<polygon fill="#ffffff" stroke="#bfbfbf" points="128.5,-112.5 128.5,-131.5 211.5,-131.5 211.5,-112.5 128.5,-112.5"/>
<text text-anchor="middle" x="170" y="-119.5" font-family="Helvetica,sans-Serif" font-size="10.00" fill="#000000">unordered_map</text>
</g>
<!-- Node1&#45;&gt;Node6 -->
<g id="edge9" class="edge">
<title>Node1&#45;&gt;Node6</title>
<path fill="none" stroke="#191970" d="M170,-168.2455C170,-160.9382 170,-150.6944 170,-141.7046"/>
<polygon fill="#191970" stroke="#191970" points="173.5001,-141.6426 170,-131.6427 166.5001,-141.6427 173.5001,-141.6426"/>
</g>
<!-- Node7 -->
<g id="node8" class="node">
<title>Node7</title>
<polygon fill="#ffffff" stroke="#bfbfbf" points="230,-112.5 230,-131.5 276,-131.5 276,-112.5 230,-112.5"/>
<text text-anchor="middle" x="253" y="-119.5" font-family="Helvetica,sans-Serif" font-size="10.00" fill="#000000">cstdint</text>
</g>
<!-- Node1&#45;&gt;Node7 -->
<g id="edge10" class="edge">
<title>Node1&#45;&gt;Node7</title>
<path fill="none" stroke="#191970" d="M184.4575,-168.2455C197.0732,-159.7337 215.5944,-147.2375 230.2045,-137.3801"/>
<polygon fill="#191970" stroke="#191970" points="232.3761,-140.1371 238.7082,-131.6427 228.4609,-134.3343 232.3761,-140.1371"/>
</g>
<!-- Node3&#45;&gt;Node2 -->
<g id="edge4" class="edge">
<title>Node3&#45;&gt;Node2</title>
<path fill="none" stroke="#191970" d="M82.9928,-112.4509C75.2578,-94.0186 58.1392,-53.2254 47.9913,-29.043"/>
<polygon fill="#191970" stroke="#191970" points="51.094,-27.3915 43.9971,-19.5249 44.6393,-30.1002 51.094,-27.3915"/>
</g>
<!-- Node4 -->
<g id="node5" class="node">
<title>Node4</title>
<g id="a_node5"><a xlink:href="Rect_8h.html" target="_top" xlink:title="Rect.h">
<polygon fill="#ffffff" stroke="#000000" points="83,-56.5 83,-75.5 129,-75.5 129,-56.5 83,-56.5"/>
<text text-anchor="middle" x="106" y="-63.5" font-family="Helvetica,sans-Serif" font-size="10.00" fill="#000000">Rect.h</text>
</a>
</g>
</g>
<!-- Node3&#45;&gt;Node4 -->
<g id="edge5" class="edge">
<title>Node3&#45;&gt;Node4</title>
<path fill="none" stroke="#191970" d="M85.0427,-112.2455C86.1462,-104.6973 89.387,-94.0158 93.1981,-84.8197"/>
<polygon fill="#191970" stroke="#191970" points="96.4236,-86.1844 97.4832,-75.6427 90.081,-83.2227 96.4236,-86.1844"/>
</g>
<!-- Node4&#45;&gt;Node2 -->
<g id="edge6" class="edge">
<title>Node4&#45;&gt;Node2</title>
<path fill="none" stroke="#191970" d="M94.5037,-56.2455C84.7558,-47.9746 70.5741,-35.9416 59.1202,-26.2232"/>
<polygon fill="#191970" stroke="#191970" points="61.2541,-23.4437 51.3646,-19.6427 56.7253,-28.7813 61.2541,-23.4437"/>
</g>
<!-- Node4&#45;&gt;Node3 -->
<g id="edge7" class="edge">
<title>Node4&#45;&gt;Node3</title>
<path fill="none" stroke="#191970" d="M107.9735,-75.6427C106.8912,-83.1598 103.6638,-93.8331 99.8584,-103.0437"/>
<polygon fill="#191970" stroke="#191970" points="96.6222,-101.7024 95.5764,-112.2455 102.9687,-104.6558 96.6222,-101.7024"/>
</g>
<!-- Node5 -->
<g id="node6" class="node">
<title>Node5</title>
<polygon fill="#ffffff" stroke="#bfbfbf" points="98,-.5 98,-19.5 142,-19.5 142,-.5 98,-.5"/>
<text text-anchor="middle" x="120" y="-7.5" font-family="Helvetica,sans-Serif" font-size="10.00" fill="#000000">cmath</text>
</g>
<!-- Node4&#45;&gt;Node5 -->
<g id="edge8" class="edge">
<title>Node4&#45;&gt;Node5</title>
<path fill="none" stroke="#191970" d="M108.4386,-56.2455C110.2855,-48.8579 112.8828,-38.4689 115.1478,-29.4087"/>
<polygon fill="#191970" stroke="#191970" points="118.5594,-30.193 117.5893,-19.6427 111.7684,-28.4952 118.5594,-30.193"/>
</g>
<!-- Node10 -->
<g id="node11" class="node">
<title>Node10</title>
<polygon fill="#ffffff" stroke="#bfbfbf" points="294,-112.5 294,-131.5 348,-131.5 348,-112.5 294,-112.5"/>
<text text-anchor="middle" x="321" y="-119.5" font-family="Helvetica,sans-Serif" font-size="10.00" fill="#000000">iostream</text>
</g>
<!-- Node9&#45;&gt;Node10 -->
<g id="edge13" class="edge">
<title>Node9&#45;&gt;Node10</title>
<path fill="none" stroke="#191970" d="M321,-168.2455C321,-160.9382 321,-150.6944 321,-141.7046"/>
<polygon fill="#191970" stroke="#191970" points="324.5001,-141.6426 321,-131.6427 317.5001,-141.6427 324.5001,-141.6426"/>
</g>
<!-- Node11 -->
<g id="node12" class="node">
<title>Node11</title>
<polygon fill="#ffffff" stroke="#bfbfbf" points="366,-112.5 366,-131.5 414,-131.5 414,-112.5 366,-112.5"/>
<text text-anchor="middle" x="390" y="-119.5" font-family="Helvetica,sans-Serif" font-size="10.00" fill="#000000">stdlib.h</text>
</g>
<!-- Node9&#45;&gt;Node11 -->
<g id="edge14" class="edge">
<title>Node9&#45;&gt;Node11</title>
<path fill="none" stroke="#191970" d="M333.0189,-168.2455C343.2098,-159.9746 358.0362,-147.9416 370.0107,-138.2232"/>
<polygon fill="#191970" stroke="#191970" points="372.5598,-140.662 378.1188,-131.6427 368.1486,-135.2268 372.5598,-140.662"/>
</g>
</g>
</svg>
