<?xml version="1.0" encoding="UTF-8" standalone="no"?>
<!DOCTYPE svg PUBLIC "-//W3C//DTD SVG 1.1//EN"
 "http://www.w3.org/Graphics/SVG/1.1/DTD/svg11.dtd">
<!-- Generated by graphviz version 2.40.1 (20161225.0304)
 -->
<!-- Title: include/InputManager.h Pages: 1 -->
<svg width="1169pt" height="308pt"
 viewBox="0.00 0.00 1169.00 308.00" xmlns="http://www.w3.org/2000/svg" xmlns:xlink="http://www.w3.org/1999/xlink">
<g id="graph0" class="graph" transform="scale(1 1) rotate(0) translate(4 304)">
<title>include/InputManager.h</title>
<polygon fill="#ffffff" stroke="transparent" points="-4,4 -4,-304 1165,-304 1165,4 -4,4"/>
<!-- Node7 -->
<g id="node1" class="node">
<title>Node7</title>
<polygon fill="#bfbfbf" stroke="#000000" points="645.5,-280.5 645.5,-299.5 763.5,-299.5 763.5,-280.5 645.5,-280.5"/>
<text text-anchor="middle" x="704.5" y="-287.5" font-family="Helvetica,sans-Serif" font-size="10.00" fill="#000000">include/InputManager.h</text>
</g>
<!-- Node8 -->
<g id="node2" class="node">
<title>Node8</title>
<g id="a_node2"><a xlink:href="ActionManager_8h.html" target="_top" xlink:title="include/ActionManager.h">
<polygon fill="#ffffff" stroke="#000000" points="420.5,-224.5 420.5,-243.5 544.5,-243.5 544.5,-224.5 420.5,-224.5"/>
<text text-anchor="middle" x="482.5" y="-231.5" font-family="Helvetica,sans-Serif" font-size="10.00" fill="#000000">include/ActionManager.h</text>
</a>
</g>
</g>
<!-- Node7&#45;&gt;Node8 -->
<g id="edge1" class="edge">
<title>Node7&#45;&gt;Node8</title>
<path fill="none" stroke="#191970" d="M656.8572,-277.982C616.0097,-267.6781 557.9525,-253.0331 520.2546,-243.5237"/>
<polygon fill="#191970" stroke="#191970" points="656.0367,-281.3846 666.5891,-280.4369 657.7489,-274.5972 656.0367,-281.3846"/>
</g>
<!-- Node13 -->
<g id="node7" class="node">
<title>Node13</title>
<g id="a_node7"><a xlink:href="Camera_8cpp.html" target="_top" xlink:title="src/Camera.cpp">
<polygon fill="#ffffff" stroke="#000000" points="430.5,-112.5 430.5,-131.5 516.5,-131.5 516.5,-112.5 430.5,-112.5"/>
<text text-anchor="middle" x="473.5" y="-119.5" font-family="Helvetica,sans-Serif" font-size="10.00" fill="#000000">src/Camera.cpp</text>
</a>
</g>
</g>
<!-- Node7&#45;&gt;Node13 -->
<g id="edge35" class="edge">
<title>Node7&#45;&gt;Node13</title>
<path fill="none" stroke="#191970" d="M683.4399,-274.5346C651.8066,-251.3231 590.1207,-206.1304 537.5,-168 520.2149,-155.4748 500.2304,-141.1331 487.255,-131.8399"/>
<polygon fill="#191970" stroke="#191970" points="681.4001,-277.379 691.5326,-280.4744 685.5419,-271.7359 681.4001,-277.379"/>
</g>
<!-- Node19 -->
<g id="node13" class="node">
<title>Node19</title>
<g id="a_node13"><a xlink:href="State_8h.html" target="_top" xlink:title="include/State.h">
<polygon fill="#ffffff" stroke="#000000" points="698.5,-224.5 698.5,-243.5 780.5,-243.5 780.5,-224.5 698.5,-224.5"/>
<text text-anchor="middle" x="739.5" y="-231.5" font-family="Helvetica,sans-Serif" font-size="10.00" fill="#000000">include/State.h</text>
</a>
</g>
</g>
<!-- Node7&#45;&gt;Node19 -->
<g id="edge12" class="edge">
<title>Node7&#45;&gt;Node19</title>
<path fill="none" stroke="#191970" d="M715.9815,-271.6296C721.8196,-262.2887 728.6752,-251.3197 733.4733,-243.6427"/>
<polygon fill="#191970" stroke="#191970" points="712.9286,-269.9105 710.5965,-280.2455 718.8646,-273.6206 712.9286,-269.9105"/>
</g>
<!-- Node20 -->
<g id="node14" class="node">
<title>Node20</title>
<g id="a_node14"><a xlink:href="Game_8h.html" target="_top" xlink:title="include/Game.h">
<polygon fill="#ffffff" stroke="#000000" points="663,-168.5 663,-187.5 748,-187.5 748,-168.5 663,-168.5"/>
<text text-anchor="middle" x="705.5" y="-175.5" font-family="Helvetica,sans-Serif" font-size="10.00" fill="#000000">include/Game.h</text>
</a>
</g>
</g>
<!-- Node7&#45;&gt;Node20 -->
<g id="edge26" class="edge">
<title>Node7&#45;&gt;Node20</title>
<path fill="none" stroke="#191970" d="M696.0822,-270.8495C691.3221,-257.7362 686.8124,-239.9077 689.5,-224 691.6974,-210.9939 697.1581,-196.7574 701.089,-187.6198"/>
<polygon fill="#191970" stroke="#191970" points="692.8666,-272.2352 699.8205,-280.2286 699.3691,-269.6433 692.8666,-272.2352"/>
</g>
<!-- Node26 -->
<g id="node20" class="node">
<title>Node26</title>
<g id="a_node20"><a xlink:href="Sprite_8h.html" target="_top" xlink:title="include/Sprite.h">
<polygon fill="#ffffff" stroke="#000000" points="230.5,-224.5 230.5,-243.5 314.5,-243.5 314.5,-224.5 230.5,-224.5"/>
<text text-anchor="middle" x="272.5" y="-231.5" font-family="Helvetica,sans-Serif" font-size="10.00" fill="#000000">include/Sprite.h</text>
</a>
</g>
</g>
<!-- Node7&#45;&gt;Node26 -->
<g id="edge27" class="edge">
<title>Node7&#45;&gt;Node26</title>
<path fill="none" stroke="#191970" d="M635.1785,-281.0139C544.7283,-269.2889 389.2378,-249.1327 314.7224,-239.4733"/>
<polygon fill="#191970" stroke="#191970" points="634.9711,-284.5162 645.3381,-282.3309 635.871,-277.5743 634.9711,-284.5162"/>
</g>
<!-- Node29 -->
<g id="node23" class="node">
<title>Node29</title>
<g id="a_node23"><a xlink:href="Music_8h.html" target="_top" xlink:title="include/Music.h">
<polygon fill="#ffffff" stroke="#000000" points="799,-224.5 799,-243.5 884,-243.5 884,-224.5 799,-224.5"/>
<text text-anchor="middle" x="841.5" y="-231.5" font-family="Helvetica,sans-Serif" font-size="10.00" fill="#000000">include/Music.h</text>
</a>
</g>
</g>
<!-- Node7&#45;&gt;Node29 -->
<g id="edge32" class="edge">
<title>Node7&#45;&gt;Node29</title>
<path fill="none" stroke="#191970" d="M737.4806,-276.5189C762.4311,-266.3201 796.0734,-252.5685 818.2562,-243.5011"/>
<polygon fill="#191970" stroke="#191970" points="735.9834,-273.3497 728.0511,-280.3733 738.632,-279.8293 735.9834,-273.3497"/>
</g>
<!-- Node31 -->
<g id="node25" class="node">
<title>Node31</title>
<g id="a_node25"><a xlink:href="Button_8cpp.html" target="_top" xlink:title="src/Button.cpp">
<polygon fill="#ffffff" stroke="#000000" points="902.5,-224.5 902.5,-243.5 982.5,-243.5 982.5,-224.5 902.5,-224.5"/>
<text text-anchor="middle" x="942.5" y="-231.5" font-family="Helvetica,sans-Serif" font-size="10.00" fill="#000000">src/Button.cpp</text>
</a>
</g>
</g>
<!-- Node7&#45;&gt;Node31 -->
<g id="edge34" class="edge">
<title>Node7&#45;&gt;Node31</title>
<path fill="none" stroke="#191970" d="M755.053,-278.1052C799.0139,-267.7614 861.8573,-252.9748 902.4214,-243.4303"/>
<polygon fill="#191970" stroke="#191970" points="754.0757,-274.7395 745.1432,-280.4369 755.6791,-281.5534 754.0757,-274.7395"/>
</g>
<!-- Node32 -->
<g id="node26" class="node">
<title>Node32</title>
<g id="a_node26"><a xlink:href="InputManager_8cpp.html" target="_top" xlink:title="src/InputManager.cpp">
<polygon fill="#ffffff" stroke="#000000" points="1001,-224.5 1001,-243.5 1112,-243.5 1112,-224.5 1001,-224.5"/>
<text text-anchor="middle" x="1056.5" y="-231.5" font-family="Helvetica,sans-Serif" font-size="10.00" fill="#000000">src/InputManager.cpp</text>
</a>
</g>
</g>
<!-- Node7&#45;&gt;Node32 -->
<g id="edge36" class="edge">
<title>Node7&#45;&gt;Node32</title>
<path fill="none" stroke="#191970" d="M773.7772,-278.9786C840.206,-268.4104 939.2233,-252.6577 1000.7242,-242.8734"/>
<polygon fill="#191970" stroke="#191970" points="773.1398,-275.5359 763.814,-280.5637 774.2397,-282.449 773.1398,-275.5359"/>
</g>
<!-- Node9 -->
<g id="node3" class="node">
<title>Node9</title>
<g id="a_node3"><a xlink:href="Camera_8h.html" target="_top" xlink:title="include/Camera.h">
<polygon fill="#ffffff" stroke="#000000" points="436,-168.5 436,-187.5 529,-187.5 529,-168.5 436,-168.5"/>
<text text-anchor="middle" x="482.5" y="-175.5" font-family="Helvetica,sans-Serif" font-size="10.00" fill="#000000">include/Camera.h</text>
</a>
</g>
</g>
<!-- Node8&#45;&gt;Node9 -->
<g id="edge2" class="edge">
<title>Node8&#45;&gt;Node9</title>
<path fill="none" stroke="#191970" d="M482.5,-214.1575C482.5,-205.155 482.5,-194.9199 482.5,-187.6427"/>
<polygon fill="#191970" stroke="#191970" points="479.0001,-214.2455 482.5,-224.2455 486.0001,-214.2456 479.0001,-214.2455"/>
</g>
<!-- Node18 -->
<g id="node12" class="node">
<title>Node18</title>
<g id="a_node12"><a xlink:href="ActionManager_8cpp.html" target="_top" xlink:title="src/ActionManager.cpp">
<polygon fill="#ffffff" stroke="#000000" points="301,-168.5 301,-187.5 418,-187.5 418,-168.5 301,-168.5"/>
<text text-anchor="middle" x="359.5" y="-175.5" font-family="Helvetica,sans-Serif" font-size="10.00" fill="#000000">src/ActionManager.cpp</text>
</a>
</g>
</g>
<!-- Node8&#45;&gt;Node18 -->
<g id="edge11" class="edge">
<title>Node8&#45;&gt;Node18</title>
<path fill="none" stroke="#191970" d="M451.9935,-220.1109C429.6888,-209.9559 400.0201,-196.4482 380.3685,-187.5011"/>
<polygon fill="#191970" stroke="#191970" points="450.8041,-223.415 461.3555,-224.3733 453.7047,-217.0442 450.8041,-223.415"/>
</g>
<!-- Node10 -->
<g id="node4" class="node">
<title>Node10</title>
<g id="a_node4"><a xlink:href="TileMap_8h.html" target="_top" xlink:title="include/TileMap.h">
<polygon fill="#ffffff" stroke="#000000" points="99,-112.5 99,-131.5 192,-131.5 192,-112.5 99,-112.5"/>
<text text-anchor="middle" x="145.5" y="-119.5" font-family="Helvetica,sans-Serif" font-size="10.00" fill="#000000">include/TileMap.h</text>
</a>
</g>
</g>
<!-- Node9&#45;&gt;Node10 -->
<g id="edge3" class="edge">
<title>Node9&#45;&gt;Node10</title>
<path fill="none" stroke="#191970" d="M425.7317,-167.8968C324.5464,-150.922 297.6301,-148.564 200.5,-132 197.8212,-131.5432 195.0705,-131.0667 192.2955,-130.5802"/>
<polygon fill="#191970" stroke="#191970" points="425.318,-171.3763 435.7605,-169.5861 426.4808,-164.4736 425.318,-171.3763"/>
</g>
<!-- Node9&#45;&gt;Node13 -->
<g id="edge6" class="edge">
<title>Node9&#45;&gt;Node13</title>
<path fill="none" stroke="#191970" d="M479.311,-158.1575C477.8642,-149.155 476.2193,-138.9199 475.0497,-131.6427"/>
<polygon fill="#191970" stroke="#191970" points="475.8898,-158.9276 480.9323,-168.2455 482.8011,-157.8168 475.8898,-158.9276"/>
</g>
<!-- Node14 -->
<g id="node8" class="node">
<title>Node14</title>
<g id="a_node8"><a xlink:href="GameObject_8cpp.html" target="_top" xlink:title="src/GameObject.cpp">
<polygon fill="#ffffff" stroke="#000000" points="210,-112.5 210,-131.5 317,-131.5 317,-112.5 210,-112.5"/>
<text text-anchor="middle" x="263.5" y="-119.5" font-family="Helvetica,sans-Serif" font-size="10.00" fill="#000000">src/GameObject.cpp</text>
</a>
</g>
</g>
<!-- Node9&#45;&gt;Node14 -->
<g id="edge7" class="edge">
<title>Node9&#45;&gt;Node14</title>
<path fill="none" stroke="#191970" d="M434.9892,-165.8511C394.6898,-155.5462 337.6852,-140.9697 300.6562,-131.5011"/>
<polygon fill="#191970" stroke="#191970" points="434.2972,-169.2867 444.8526,-168.3733 436.0314,-162.5049 434.2972,-169.2867"/>
</g>
<!-- Node15 -->
<g id="node9" class="node">
<title>Node15</title>
<g id="a_node9"><a xlink:href="RectTransform_8cpp.html" target="_top" xlink:title="src/RectTransform.cpp">
<polygon fill="#ffffff" stroke="#000000" points="535,-112.5 535,-131.5 652,-131.5 652,-112.5 535,-112.5"/>
<text text-anchor="middle" x="593.5" y="-119.5" font-family="Helvetica,sans-Serif" font-size="10.00" fill="#000000">src/RectTransform.cpp</text>
</a>
</g>
</g>
<!-- Node9&#45;&gt;Node15 -->
<g id="edge8" class="edge">
<title>Node9&#45;&gt;Node15</title>
<path fill="none" stroke="#191970" d="M510.5734,-163.8368C530.6385,-153.7139 557.0922,-140.3679 574.6674,-131.5011"/>
<polygon fill="#191970" stroke="#191970" points="508.9332,-160.7441 501.5816,-168.3733 512.0862,-166.9938 508.9332,-160.7441"/>
</g>
<!-- Node16 -->
<g id="node10" class="node">
<title>Node16</title>
<g id="a_node10"><a xlink:href="Sprite_8cpp.html" target="_top" xlink:title="src/Sprite.cpp">
<polygon fill="#ffffff" stroke="#000000" points="335,-112.5 335,-131.5 412,-131.5 412,-112.5 335,-112.5"/>
<text text-anchor="middle" x="373.5" y="-119.5" font-family="Helvetica,sans-Serif" font-size="10.00" fill="#000000">src/Sprite.cpp</text>
</a>
</g>
</g>
<!-- Node9&#45;&gt;Node16 -->
<g id="edge9" class="edge">
<title>Node9&#45;&gt;Node16</title>
<path fill="none" stroke="#191970" d="M454.4658,-163.5971C434.9254,-153.558 409.3908,-140.4393 392.2688,-131.6427"/>
<polygon fill="#191970" stroke="#191970" points="453.0194,-166.7889 463.5136,-168.2455 456.2183,-160.5625 453.0194,-166.7889"/>
</g>
<!-- Node17 -->
<g id="node11" class="node">
<title>Node17</title>
<g id="a_node11"><a xlink:href="State_8cpp.html" target="_top" xlink:title="src/State.cpp">
<polygon fill="#ffffff" stroke="#000000" points="876,-112.5 876,-131.5 951,-131.5 951,-112.5 876,-112.5"/>
<text text-anchor="middle" x="913.5" y="-119.5" font-family="Helvetica,sans-Serif" font-size="10.00" fill="#000000">src/State.cpp</text>
</a>
</g>
</g>
<!-- Node9&#45;&gt;Node17 -->
<g id="edge10" class="edge">
<title>Node9&#45;&gt;Node17</title>
<path fill="none" stroke="#191970" d="M539.442,-172.9058C614.7939,-165.7745 751.6315,-151.471 867.5,-132 870.2403,-131.5395 873.0641,-131.025 875.9009,-130.4788"/>
<polygon fill="#191970" stroke="#191970" points="538.8555,-169.4453 529.2262,-173.8642 539.5094,-176.4147 538.8555,-169.4453"/>
</g>
<!-- Node11 -->
<g id="node5" class="node">
<title>Node11</title>
<g id="a_node5"><a xlink:href="ManhattanDistance_8h.html" target="_top" xlink:title="include/ManhattanDistance.h">
<polygon fill="#ffffff" stroke="#000000" points="74,-56.5 74,-75.5 217,-75.5 217,-56.5 74,-56.5"/>
<text text-anchor="middle" x="145.5" y="-63.5" font-family="Helvetica,sans-Serif" font-size="10.00" fill="#000000">include/ManhattanDistance.h</text>
</a>
</g>
</g>
<!-- Node10&#45;&gt;Node11 -->
<g id="edge4" class="edge">
<title>Node10&#45;&gt;Node11</title>
<path fill="none" stroke="#191970" d="M145.5,-102.1575C145.5,-93.155 145.5,-82.9199 145.5,-75.6427"/>
<polygon fill="#191970" stroke="#191970" points="142.0001,-102.2455 145.5,-112.2455 149.0001,-102.2456 142.0001,-102.2455"/>
</g>
<!-- Node12 -->
<g id="node6" class="node">
<title>Node12</title>
<g id="a_node6"><a xlink:href="ManhattanDistance_8cpp.html" target="_top" xlink:title="src/ManhattanDistance.cpp">
<polygon fill="#ffffff" stroke="#000000" points="77,-.5 77,-19.5 214,-19.5 214,-.5 77,-.5"/>
<text text-anchor="middle" x="145.5" y="-7.5" font-family="Helvetica,sans-Serif" font-size="10.00" fill="#000000">src/ManhattanDistance.cpp</text>
</a>
</g>
</g>
<!-- Node11&#45;&gt;Node12 -->
<g id="edge5" class="edge">
<title>Node11&#45;&gt;Node12</title>
<path fill="none" stroke="#191970" d="M145.5,-46.1575C145.5,-37.155 145.5,-26.9199 145.5,-19.6427"/>
<polygon fill="#191970" stroke="#191970" points="142.0001,-46.2455 145.5,-56.2455 149.0001,-46.2456 142.0001,-46.2455"/>
</g>
<!-- Node19&#45;&gt;Node17 -->
<g id="edge25" class="edge">
<title>Node19&#45;&gt;Node17</title>
<path fill="none" stroke="#191970" d="M762.8345,-218.9801C799.2189,-195.5603 868.4293,-151.011 898.7024,-131.5249"/>
<polygon fill="#191970" stroke="#191970" points="760.8494,-216.0954 754.3351,-224.4509 764.6382,-221.9815 760.8494,-216.0954"/>
</g>
<!-- Node19&#45;&gt;Node20 -->
<g id="edge13" class="edge">
<title>Node19&#45;&gt;Node20</title>
<path fill="none" stroke="#191970" d="M728.3465,-215.6296C722.6753,-206.2887 716.0155,-195.3197 711.3545,-187.6427"/>
<polygon fill="#191970" stroke="#191970" points="725.3961,-217.5141 733.5777,-224.2455 731.3796,-213.8812 725.3961,-217.5141"/>
</g>
<!-- Node25 -->
<g id="node19" class="node">
<title>Node25</title>
<g id="a_node19"><a xlink:href="Threading_8h.html" target="_top" xlink:title="include/Threading.h">
<polygon fill="#ffffff" stroke="#000000" points="863,-168.5 863,-187.5 964,-187.5 964,-168.5 863,-168.5"/>
<text text-anchor="middle" x="913.5" y="-175.5" font-family="Helvetica,sans-Serif" font-size="10.00" fill="#000000">include/Threading.h</text>
</a>
</g>
</g>
<!-- Node19&#45;&gt;Node25 -->
<g id="edge21" class="edge">
<title>Node19&#45;&gt;Node25</title>
<path fill="none" stroke="#191970" d="M779.301,-221.1905C811.179,-210.9309 855.1816,-196.7691 883.9787,-187.5011"/>
<polygon fill="#191970" stroke="#191970" points="777.8585,-217.9779 769.4117,-224.3733 780.0031,-224.6413 777.8585,-217.9779"/>
</g>
<!-- Node20&#45;&gt;Node13 -->
<g id="edge14" class="edge">
<title>Node20&#45;&gt;Node13</title>
<path fill="none" stroke="#191970" d="M655.9816,-166.0473C613.2803,-155.7401 552.4345,-141.0532 512.9552,-131.5237"/>
<polygon fill="#191970" stroke="#191970" points="655.3393,-169.4927 665.8814,-168.4369 656.9818,-162.6881 655.3393,-169.4927"/>
</g>
<!-- Node20&#45;&gt;Node15 -->
<g id="edge16" class="edge">
<title>Node20&#45;&gt;Node15</title>
<path fill="none" stroke="#191970" d="M677.1737,-163.8368C656.9279,-153.7139 630.2358,-140.3679 612.5022,-131.5011"/>
<polygon fill="#191970" stroke="#191970" points="675.737,-167.0316 686.2465,-168.3733 678.8675,-160.7706 675.737,-167.0316"/>
</g>
<!-- Node20&#45;&gt;Node16 -->
<g id="edge18" class="edge">
<title>Node20&#45;&gt;Node16</title>
<path fill="none" stroke="#191970" d="M652.3375,-170.1171C595.1847,-161.4727 501.7202,-146.8453 421.5,-132 418.4867,-131.4424 415.3718,-130.8438 412.2432,-130.2269"/>
<polygon fill="#191970" stroke="#191970" points="652.1653,-173.6306 662.5753,-171.6603 653.2087,-166.7088 652.1653,-173.6306"/>
</g>
<!-- Node21 -->
<g id="node15" class="node">
<title>Node21</title>
<g id="a_node15"><a xlink:href="Game_8cpp.html" target="_top" xlink:title="src/Game.cpp">
<polygon fill="#ffffff" stroke="#000000" points="969.5,-112.5 969.5,-131.5 1047.5,-131.5 1047.5,-112.5 969.5,-112.5"/>
<text text-anchor="middle" x="1008.5" y="-119.5" font-family="Helvetica,sans-Serif" font-size="10.00" fill="#000000">src/Game.cpp</text>
</a>
</g>
</g>
<!-- Node20&#45;&gt;Node21 -->
<g id="edge15" class="edge">
<title>Node20&#45;&gt;Node21</title>
<path fill="none" stroke="#191970" d="M758.353,-168.8933C809.9783,-159.8974 890.7421,-145.5558 960.5,-132 963.4246,-131.4317 966.4467,-130.8318 969.485,-130.2197"/>
<polygon fill="#191970" stroke="#191970" points="757.6807,-165.4576 748.4283,-170.6194 758.8802,-172.3541 757.6807,-165.4576"/>
</g>
<!-- Node22 -->
<g id="node16" class="node">
<title>Node22</title>
<g id="a_node16"><a xlink:href="Resources_8cpp.html" target="_top" xlink:title="src/Resources.cpp">
<polygon fill="#ffffff" stroke="#000000" points="759,-112.5 759,-131.5 858,-131.5 858,-112.5 759,-112.5"/>
<text text-anchor="middle" x="808.5" y="-119.5" font-family="Helvetica,sans-Serif" font-size="10.00" fill="#000000">src/Resources.cpp</text>
</a>
</g>
</g>
<!-- Node20&#45;&gt;Node22 -->
<g id="edge17" class="edge">
<title>Node20&#45;&gt;Node22</title>
<path fill="none" stroke="#191970" d="M732.2432,-163.46C750.675,-153.4388 774.6584,-140.3993 790.7644,-131.6427"/>
<polygon fill="#191970" stroke="#191970" points="730.5549,-160.394 723.4412,-168.2455 733.8985,-166.5438 730.5549,-160.394"/>
</g>
<!-- Node23 -->
<g id="node17" class="node">
<title>Node23</title>
<g id="a_node17"><a xlink:href="Text_8cpp.html" target="_top" xlink:title="src/Text.cpp">
<polygon fill="#ffffff" stroke="#000000" points="670,-112.5 670,-131.5 741,-131.5 741,-112.5 670,-112.5"/>
<text text-anchor="middle" x="705.5" y="-119.5" font-family="Helvetica,sans-Serif" font-size="10.00" fill="#000000">src/Text.cpp</text>
</a>
</g>
</g>
<!-- Node20&#45;&gt;Node23 -->
<g id="edge19" class="edge">
<title>Node20&#45;&gt;Node23</title>
<path fill="none" stroke="#191970" d="M705.5,-158.1575C705.5,-149.155 705.5,-138.9199 705.5,-131.6427"/>
<polygon fill="#191970" stroke="#191970" points="702.0001,-158.2455 705.5,-168.2455 709.0001,-158.2456 702.0001,-158.2455"/>
</g>
<!-- Node24 -->
<g id="node18" class="node">
<title>Node24</title>
<g id="a_node18"><a xlink:href="Threading_8cpp.html" target="_top" xlink:title="src/Threading.cpp">
<polygon fill="#ffffff" stroke="#000000" points="1066,-112.5 1066,-131.5 1161,-131.5 1161,-112.5 1066,-112.5"/>
<text text-anchor="middle" x="1113.5" y="-119.5" font-family="Helvetica,sans-Serif" font-size="10.00" fill="#000000">src/Threading.cpp</text>
</a>
</g>
</g>
<!-- Node20&#45;&gt;Node24 -->
<g id="edge20" class="edge">
<title>Node20&#45;&gt;Node24</title>
<path fill="none" stroke="#191970" d="M758.4191,-171.7899C827.2161,-163.5504 951.0447,-148.1529 1056.5,-132 1059.5787,-131.5284 1062.7475,-131.0244 1065.9396,-130.5028"/>
<polygon fill="#191970" stroke="#191970" points="757.7838,-168.3408 748.2691,-173.0014 758.6135,-175.2915 757.7838,-168.3408"/>
</g>
<!-- Node25&#45;&gt;Node17 -->
<g id="edge23" class="edge">
<title>Node25&#45;&gt;Node17</title>
<path fill="none" stroke="#191970" d="M913.5,-158.1575C913.5,-149.155 913.5,-138.9199 913.5,-131.6427"/>
<polygon fill="#191970" stroke="#191970" points="910.0001,-158.2455 913.5,-168.2455 917.0001,-158.2456 910.0001,-158.2455"/>
</g>
<!-- Node25&#45;&gt;Node21 -->
<g id="edge22" class="edge">
<title>Node25&#45;&gt;Node21</title>
<path fill="none" stroke="#191970" d="M938.8676,-163.0465C955.771,-153.0824 977.4904,-140.2794 992.1419,-131.6427"/>
<polygon fill="#191970" stroke="#191970" points="936.8851,-160.1522 930.0477,-168.2455 940.4398,-166.1825 936.8851,-160.1522"/>
</g>
<!-- Node25&#45;&gt;Node24 -->
<g id="edge24" class="edge">
<title>Node25&#45;&gt;Node24</title>
<path fill="none" stroke="#191970" d="M957.8278,-165.5882C994.573,-155.2996 1046.0375,-140.8895 1079.5674,-131.5011"/>
<polygon fill="#191970" stroke="#191970" points="956.5671,-162.3065 947.8812,-168.3733 958.4546,-169.0473 956.5671,-162.3065"/>
</g>
<!-- Node26&#45;&gt;Node16 -->
<g id="edge31" class="edge">
<title>Node26&#45;&gt;Node16</title>
<path fill="none" stroke="#191970" d="M274.1917,-214.2975C276.2885,-200.1355 280.9843,-181.275 291.5,-168 305.183,-150.7266 327.2382,-138.879 345.0305,-131.5383"/>
<polygon fill="#191970" stroke="#191970" points="270.6896,-214.1128 273.0057,-224.4514 277.6423,-214.925 270.6896,-214.1128"/>
</g>
<!-- Node27 -->
<g id="node21" class="node">
<title>Node27</title>
<g id="a_node21"><a xlink:href="Tileset_8h.html" target="_top" xlink:title="include/Tileset.h">
<polygon fill="#ffffff" stroke="#000000" points="101.5,-168.5 101.5,-187.5 189.5,-187.5 189.5,-168.5 101.5,-168.5"/>
<text text-anchor="middle" x="145.5" y="-175.5" font-family="Helvetica,sans-Serif" font-size="10.00" fill="#000000">include/Tileset.h</text>
</a>
</g>
</g>
<!-- Node26&#45;&gt;Node27 -->
<g id="edge28" class="edge">
<title>Node26&#45;&gt;Node27</title>
<path fill="none" stroke="#191970" d="M241.3108,-220.2473C218.2463,-210.0771 187.4288,-196.4883 167.0472,-187.5011"/>
<polygon fill="#191970" stroke="#191970" points="240.1058,-223.5411 250.6679,-224.3733 242.9301,-217.1361 240.1058,-223.5411"/>
</g>
<!-- Node27&#45;&gt;Node10 -->
<g id="edge29" class="edge">
<title>Node27&#45;&gt;Node10</title>
<path fill="none" stroke="#191970" d="M145.5,-158.1575C145.5,-149.155 145.5,-138.9199 145.5,-131.6427"/>
<polygon fill="#191970" stroke="#191970" points="142.0001,-158.2455 145.5,-168.2455 149.0001,-158.2456 142.0001,-158.2455"/>
</g>
<!-- Node28 -->
<g id="node22" class="node">
<title>Node28</title>
<g id="a_node22"><a xlink:href="Tileset_8cpp.html" target="_top" xlink:title="src/Tileset.cpp">
<polygon fill="#ffffff" stroke="#000000" points="0,-112.5 0,-131.5 81,-131.5 81,-112.5 0,-112.5"/>
<text text-anchor="middle" x="40.5" y="-119.5" font-family="Helvetica,sans-Serif" font-size="10.00" fill="#000000">src/Tileset.cpp</text>
</a>
</g>
</g>
<!-- Node27&#45;&gt;Node28 -->
<g id="edge30" class="edge">
<title>Node27&#45;&gt;Node28</title>
<path fill="none" stroke="#191970" d="M118.2375,-163.46C99.4478,-153.4388 74.9987,-140.3993 58.58,-131.6427"/>
<polygon fill="#191970" stroke="#191970" points="116.7398,-166.6278 127.2104,-168.2455 120.0339,-160.4514 116.7398,-166.6278"/>
</g>
<!-- Node30 -->
<g id="node24" class="node">
<title>Node30</title>
<g id="a_node24"><a xlink:href="Music_8cpp.html" target="_top" xlink:title="src/Music.cpp">
<polygon fill="#ffffff" stroke="#000000" points="982.5,-168.5 982.5,-187.5 1060.5,-187.5 1060.5,-168.5 982.5,-168.5"/>
<text text-anchor="middle" x="1021.5" y="-175.5" font-family="Helvetica,sans-Serif" font-size="10.00" fill="#000000">src/Music.cpp</text>
</a>
</g>
</g>
<!-- Node29&#45;&gt;Node30 -->
<g id="edge33" class="edge">
<title>Node29&#45;&gt;Node30</title>
<path fill="none" stroke="#191970" d="M882.2459,-221.3235C915.2563,-211.0536 961.0417,-196.8093 990.9607,-187.5011"/>
<polygon fill="#191970" stroke="#191970" points="880.9519,-218.0605 872.4431,-224.3733 883.0314,-224.7445 880.9519,-218.0605"/>
</g>
</g>
</svg>
