<?xml version="1.0" encoding="UTF-8" standalone="no"?>
<!DOCTYPE svg PUBLIC "-//W3C//DTD SVG 1.1//EN"
 "http://www.w3.org/Graphics/SVG/1.1/DTD/svg11.dtd">
<!-- Generated by graphviz version 2.40.1 (20161225.0304)
 -->
<!-- Title: include/InputManager.h Pages: 1 -->
<svg width="284pt" height="196pt"
 viewBox="0.00 0.00 284.00 196.00" xmlns="http://www.w3.org/2000/svg" xmlns:xlink="http://www.w3.org/1999/xlink">
<g id="graph0" class="graph" transform="scale(1 1) rotate(0) translate(4 192)">
<title>include/InputManager.h</title>
<polygon fill="#ffffff" stroke="transparent" points="-4,4 -4,-192 280,-192 280,4 -4,4"/>
<!-- Node0 -->
<g id="node1" class="node">
<title>Node0</title>
<polygon fill="#bfbfbf" stroke="#000000" points="69,-168.5 69,-187.5 187,-187.5 187,-168.5 69,-168.5"/>
<text text-anchor="middle" x="128" y="-175.5" font-family="Helvetica,sans-Serif" font-size="10.00" fill="#000000">include/InputManager.h</text>
</g>
<!-- Node1 -->
<g id="node2" class="node">
<title>Node1</title>
<g id="a_node2"><a xlink:href="SDL__include_8h.html" target="_top" xlink:title="SDL_include.h">
<polygon fill="#ffffff" stroke="#000000" points="0,-.5 0,-19.5 80,-19.5 80,-.5 0,-.5"/>
<text text-anchor="middle" x="40" y="-7.5" font-family="Helvetica,sans-Serif" font-size="10.00" fill="#000000">SDL_include.h</text>
</a>
</g>
</g>
<!-- Node0&#45;&gt;Node1 -->
<g id="edge1" class="edge">
<title>Node0&#45;&gt;Node1</title>
<path fill="none" stroke="#191970" d="M102.1125,-168.4926C85.8355,-161.1092 65.9152,-149.2019 55,-132 35.0808,-100.608 35.3262,-55.4404 37.5159,-29.7857"/>
<polygon fill="#191970" stroke="#191970" points="41.0025,-30.0949 38.5566,-19.7863 34.0401,-29.3702 41.0025,-30.0949"/>
</g>
<!-- Node2 -->
<g id="node3" class="node">
<title>Node2</title>
<g id="a_node3"><a xlink:href="Vec2_8h.html" target="_top" xlink:title="Vec2.h">
<polygon fill="#ffffff" stroke="#000000" points="63.5,-112.5 63.5,-131.5 110.5,-131.5 110.5,-112.5 63.5,-112.5"/>
<text text-anchor="middle" x="87" y="-119.5" font-family="Helvetica,sans-Serif" font-size="10.00" fill="#000000">Vec2.h</text>
</a>
</g>
</g>
<!-- Node0&#45;&gt;Node2 -->
<g id="edge2" class="edge">
<title>Node0&#45;&gt;Node2</title>
<path fill="none" stroke="#191970" d="M120.8583,-168.2455C115.1556,-160.4564 107.01,-149.3308 100.1375,-139.9439"/>
<polygon fill="#191970" stroke="#191970" points="102.7913,-137.6437 94.0598,-131.6427 97.1432,-141.7789 102.7913,-137.6437"/>
</g>
<!-- Node5 -->
<g id="node6" class="node">
<title>Node5</title>
<polygon fill="#ffffff" stroke="#bfbfbf" points="128.5,-112.5 128.5,-131.5 211.5,-131.5 211.5,-112.5 128.5,-112.5"/>
<text text-anchor="middle" x="170" y="-119.5" font-family="Helvetica,sans-Serif" font-size="10.00" fill="#000000">unordered_map</text>
</g>
<!-- Node0&#45;&gt;Node5 -->
<g id="edge8" class="edge">
<title>Node0&#45;&gt;Node5</title>
<path fill="none" stroke="#191970" d="M135.3158,-168.2455C141.2179,-160.3761 149.6742,-149.101 156.7594,-139.6542"/>
<polygon fill="#191970" stroke="#191970" points="159.568,-141.7427 162.768,-131.6427 153.9679,-137.5427 159.568,-141.7427"/>
</g>
<!-- Node6 -->
<g id="node7" class="node">
<title>Node6</title>
<polygon fill="#ffffff" stroke="#bfbfbf" points="230,-112.5 230,-131.5 276,-131.5 276,-112.5 230,-112.5"/>
<text text-anchor="middle" x="253" y="-119.5" font-family="Helvetica,sans-Serif" font-size="10.00" fill="#000000">cstdint</text>
</g>
<!-- Node0&#45;&gt;Node6 -->
<g id="edge9" class="edge">
<title>Node0&#45;&gt;Node6</title>
<path fill="none" stroke="#191970" d="M149.4883,-168.3733C169.644,-159.3435 199.988,-145.7494 222.618,-135.6111"/>
<polygon fill="#191970" stroke="#191970" points="224.0971,-138.7838 231.7921,-131.5011 221.2351,-132.3955 224.0971,-138.7838"/>
</g>
<!-- Node2&#45;&gt;Node1 -->
<g id="edge3" class="edge">
<title>Node2&#45;&gt;Node1</title>
<path fill="none" stroke="#191970" d="M82.9928,-112.4509C75.2578,-94.0186 58.1392,-53.2254 47.9913,-29.043"/>
<polygon fill="#191970" stroke="#191970" points="51.094,-27.3915 43.9971,-19.5249 44.6393,-30.1002 51.094,-27.3915"/>
</g>
<!-- Node3 -->
<g id="node4" class="node">
<title>Node3</title>
<g id="a_node4"><a xlink:href="Rect_8h.html" target="_top" xlink:title="Rect.h">
<polygon fill="#ffffff" stroke="#000000" points="83,-56.5 83,-75.5 129,-75.5 129,-56.5 83,-56.5"/>
<text text-anchor="middle" x="106" y="-63.5" font-family="Helvetica,sans-Serif" font-size="10.00" fill="#000000">Rect.h</text>
</a>
</g>
</g>
<!-- Node2&#45;&gt;Node3 -->
<g id="edge4" class="edge">
<title>Node2&#45;&gt;Node3</title>
<path fill="none" stroke="#191970" d="M85.0427,-112.2455C86.1462,-104.6973 89.387,-94.0158 93.1981,-84.8197"/>
<polygon fill="#191970" stroke="#191970" points="96.4236,-86.1844 97.4832,-75.6427 90.081,-83.2227 96.4236,-86.1844"/>
</g>
<!-- Node3&#45;&gt;Node1 -->
<g id="edge5" class="edge">
<title>Node3&#45;&gt;Node1</title>
<path fill="none" stroke="#191970" d="M94.5037,-56.2455C84.7558,-47.9746 70.5741,-35.9416 59.1202,-26.2232"/>
<polygon fill="#191970" stroke="#191970" points="61.2541,-23.4437 51.3646,-19.6427 56.7253,-28.7813 61.2541,-23.4437"/>
</g>
<!-- Node3&#45;&gt;Node2 -->
<g id="edge6" class="edge">
<title>Node3&#45;&gt;Node2</title>
<path fill="none" stroke="#191970" d="M107.9735,-75.6427C106.8912,-83.1598 103.6638,-93.8331 99.8584,-103.0437"/>
<polygon fill="#191970" stroke="#191970" points="96.6222,-101.7024 95.5764,-112.2455 102.9687,-104.6558 96.6222,-101.7024"/>
</g>
<!-- Node4 -->
<g id="node5" class="node">
<title>Node4</title>
<polygon fill="#ffffff" stroke="#bfbfbf" points="98,-.5 98,-19.5 142,-19.5 142,-.5 98,-.5"/>
<text text-anchor="middle" x="120" y="-7.5" font-family="Helvetica,sans-Serif" font-size="10.00" fill="#000000">cmath</text>
</g>
<!-- Node3&#45;&gt;Node4 -->
<g id="edge7" class="edge">
<title>Node3&#45;&gt;Node4</title>
<path fill="none" stroke="#191970" d="M108.4386,-56.2455C110.2855,-48.8579 112.8828,-38.4689 115.1478,-29.4087"/>
<polygon fill="#191970" stroke="#191970" points="118.5594,-30.193 117.5893,-19.6427 111.7684,-28.4952 118.5594,-30.193"/>
</g>
</g>
</svg>
