<?xml version="1.0" encoding="UTF-8" standalone="no"?>
<!DOCTYPE svg PUBLIC "-//W3C//DTD SVG 1.1//EN"
 "http://www.w3.org/Graphics/SVG/1.1/DTD/svg11.dtd">
<!-- Generated by graphviz version 2.38.0 (20140413.2041)
 -->
<!-- Title: src/ManhattanDistance.cpp Pages: 1 -->
<svg width="145pt" height="252pt"
 viewBox="0.00 0.00 145.00 252.00" xmlns="http://www.w3.org/2000/svg" xmlns:xlink="http://www.w3.org/1999/xlink">
<g id="graph0" class="graph" transform="scale(1 1) rotate(0) translate(4 248)">
<title>src/ManhattanDistance.cpp</title>
<polygon fill="white" stroke="none" points="-4,4 -4,-248 141,-248 141,4 -4,4"/>
<!-- Node0 -->
<g id="node1" class="node"><title>Node0</title>
<polygon fill="#bfbfbf" stroke="black" points="0,-224.5 0,-243.5 137,-243.5 137,-224.5 0,-224.5"/>
<text text-anchor="middle" x="68.5" y="-231.5" font-family="Helvetica,sans-Serif" font-size="10.00">src/ManhattanDistance.cpp</text>
</g>
<!-- Node1 -->
<g id="node2" class="node"><title>Node1</title>
<g id="a_node2"><a xlink:href="ManhattanDistance_8h.html" target="_top" xlink:title="ManhattanDistance.h">
<polygon fill="white" stroke="black" points="13.5,-168.5 13.5,-187.5 123.5,-187.5 123.5,-168.5 13.5,-168.5"/>
<text text-anchor="middle" x="68.5" y="-175.5" font-family="Helvetica,sans-Serif" font-size="10.00">ManhattanDistance.h</text>
</a>
</g>
</g>
<!-- Node0&#45;&gt;Node1 -->
<g id="edge1" class="edge"><title>Node0&#45;&gt;Node1</title>
<path fill="none" stroke="midnightblue" d="M68.5,-224.083C68.5,-217.006 68.5,-206.861 68.5,-197.986"/>
<polygon fill="midnightblue" stroke="midnightblue" points="72.0001,-197.751 68.5,-187.751 65.0001,-197.751 72.0001,-197.751"/>
</g>
<!-- Node2 -->
<g id="node3" class="node"><title>Node2</title>
<g id="a_node3"><a xlink:href="AStarHeuristic_8h.html" target="_top" xlink:title="AStarHeuristic.h">
<polygon fill="white" stroke="black" points="24,-112.5 24,-131.5 113,-131.5 113,-112.5 24,-112.5"/>
<text text-anchor="middle" x="68.5" y="-119.5" font-family="Helvetica,sans-Serif" font-size="10.00">AStarHeuristic.h</text>
</a>
</g>
</g>
<!-- Node1&#45;&gt;Node2 -->
<g id="edge2" class="edge"><title>Node1&#45;&gt;Node2</title>
<path fill="none" stroke="midnightblue" d="M68.5,-168.083C68.5,-161.006 68.5,-150.861 68.5,-141.986"/>
<polygon fill="midnightblue" stroke="midnightblue" points="72.0001,-141.751 68.5,-131.751 65.0001,-141.751 72.0001,-141.751"/>
</g>
<!-- Node3 -->
<g id="node4" class="node"><title>Node3</title>
<g id="a_node4"><a xlink:href="Vec2_8h.html" target="_top" xlink:title="Vec2.h">
<polygon fill="white" stroke="black" points="45,-56.5 45,-75.5 92,-75.5 92,-56.5 45,-56.5"/>
<text text-anchor="middle" x="68.5" y="-63.5" font-family="Helvetica,sans-Serif" font-size="10.00">Vec2.h</text>
</a>
</g>
</g>
<!-- Node2&#45;&gt;Node3 -->
<g id="edge3" class="edge"><title>Node2&#45;&gt;Node3</title>
<path fill="none" stroke="midnightblue" d="M68.5,-112.083C68.5,-105.006 68.5,-94.8611 68.5,-85.9865"/>
<polygon fill="midnightblue" stroke="midnightblue" points="72.0001,-85.751 68.5,-75.7511 65.0001,-85.7511 72.0001,-85.751"/>
</g>
<!-- Node4 -->
<g id="node5" class="node"><title>Node4</title>
<g id="a_node5"><a xlink:href="SDL__include_8h.html" target="_top" xlink:title="SDL_include.h">
<polygon fill="white" stroke="black" points="28.5,-0.5 28.5,-19.5 108.5,-19.5 108.5,-0.5 28.5,-0.5"/>
<text text-anchor="middle" x="68.5" y="-7.5" font-family="Helvetica,sans-Serif" font-size="10.00">SDL_include.h</text>
</a>
</g>
</g>
<!-- Node3&#45;&gt;Node4 -->
<g id="edge4" class="edge"><title>Node3&#45;&gt;Node4</title>
<path fill="none" stroke="midnightblue" d="M68.5,-56.083C68.5,-49.0059 68.5,-38.8611 68.5,-29.9865"/>
<polygon fill="midnightblue" stroke="midnightblue" points="72.0001,-29.751 68.5,-19.7511 65.0001,-29.7511 72.0001,-29.751"/>
</g>
</g>
</svg>
