<?xml version="1.0" encoding="UTF-8" standalone="no"?>
<!DOCTYPE svg PUBLIC "-//W3C//DTD SVG 1.1//EN"
 "http://www.w3.org/Graphics/SVG/1.1/DTD/svg11.dtd">
<!-- Generated by graphviz version 2.38.0 (20140413.2041)
 -->
<!-- Title: include/ManhattanDistance.h Pages: 1 -->
<svg width="151pt" height="196pt"
 viewBox="0.00 0.00 151.00 196.00" xmlns="http://www.w3.org/2000/svg" xmlns:xlink="http://www.w3.org/1999/xlink">
<g id="graph0" class="graph" transform="scale(1 1) rotate(0) translate(4 192)">
<title>include/ManhattanDistance.h</title>
<polygon fill="white" stroke="none" points="-4,4 -4,-192 147,-192 147,4 -4,4"/>
<!-- Node0 -->
<g id="node1" class="node"><title>Node0</title>
<polygon fill="#bfbfbf" stroke="black" points="0,-168.5 0,-187.5 143,-187.5 143,-168.5 0,-168.5"/>
<text text-anchor="middle" x="71.5" y="-175.5" font-family="Helvetica,sans-Serif" font-size="10.00">include/ManhattanDistance.h</text>
</g>
<!-- Node1 -->
<g id="node2" class="node"><title>Node1</title>
<g id="a_node2"><a xlink:href="AStarHeuristic_8h.html" target="_top" xlink:title="AStarHeuristic.h">
<polygon fill="white" stroke="black" points="27,-112.5 27,-131.5 116,-131.5 116,-112.5 27,-112.5"/>
<text text-anchor="middle" x="71.5" y="-119.5" font-family="Helvetica,sans-Serif" font-size="10.00">AStarHeuristic.h</text>
</a>
</g>
</g>
<!-- Node0&#45;&gt;Node1 -->
<g id="edge1" class="edge"><title>Node0&#45;&gt;Node1</title>
<path fill="none" stroke="midnightblue" d="M71.5,-168.083C71.5,-161.006 71.5,-150.861 71.5,-141.986"/>
<polygon fill="midnightblue" stroke="midnightblue" points="75.0001,-141.751 71.5,-131.751 68.0001,-141.751 75.0001,-141.751"/>
</g>
<!-- Node2 -->
<g id="node3" class="node"><title>Node2</title>
<g id="a_node3"><a xlink:href="Vec2_8h.html" target="_top" xlink:title="Vec2.h">
<polygon fill="white" stroke="black" points="48,-56.5 48,-75.5 95,-75.5 95,-56.5 48,-56.5"/>
<text text-anchor="middle" x="71.5" y="-63.5" font-family="Helvetica,sans-Serif" font-size="10.00">Vec2.h</text>
</a>
</g>
</g>
<!-- Node1&#45;&gt;Node2 -->
<g id="edge2" class="edge"><title>Node1&#45;&gt;Node2</title>
<path fill="none" stroke="midnightblue" d="M71.5,-112.083C71.5,-105.006 71.5,-94.8611 71.5,-85.9865"/>
<polygon fill="midnightblue" stroke="midnightblue" points="75.0001,-85.751 71.5,-75.7511 68.0001,-85.7511 75.0001,-85.751"/>
</g>
<!-- Node3 -->
<g id="node4" class="node"><title>Node3</title>
<g id="a_node4"><a xlink:href="SDL__include_8h.html" target="_top" xlink:title="SDL_include.h">
<polygon fill="white" stroke="black" points="31.5,-0.5 31.5,-19.5 111.5,-19.5 111.5,-0.5 31.5,-0.5"/>
<text text-anchor="middle" x="71.5" y="-7.5" font-family="Helvetica,sans-Serif" font-size="10.00">SDL_include.h</text>
</a>
</g>
</g>
<!-- Node2&#45;&gt;Node3 -->
<g id="edge3" class="edge"><title>Node2&#45;&gt;Node3</title>
<path fill="none" stroke="midnightblue" d="M71.5,-56.083C71.5,-49.0059 71.5,-38.8611 71.5,-29.9865"/>
<polygon fill="midnightblue" stroke="midnightblue" points="75.0001,-29.751 71.5,-19.7511 68.0001,-29.7511 75.0001,-29.751"/>
</g>
</g>
</svg>
