<?xml version="1.0" encoding="UTF-8" standalone="no"?>
<!DOCTYPE svg PUBLIC "-//W3C//DTD SVG 1.1//EN"
 "http://www.w3.org/Graphics/SVG/1.1/DTD/svg11.dtd">
<!-- Generated by graphviz version 2.40.1 (20161225.0304)
 -->
<!-- Title: src/Music.cpp Pages: 1 -->
<svg width="552pt" height="308pt"
 viewBox="0.00 0.00 551.72 308.00" xmlns="http://www.w3.org/2000/svg" xmlns:xlink="http://www.w3.org/1999/xlink">
<g id="graph0" class="graph" transform="scale(1 1) rotate(0) translate(4 304)">
<title>src/Music.cpp</title>
<polygon fill="#ffffff" stroke="transparent" points="-4,4 -4,-304 547.7155,-304 547.7155,4 -4,4"/>
<!-- Node0 -->
<g id="node1" class="node">
<title>Node0</title>
<polygon fill="#bfbfbf" stroke="#000000" points="258.7155,-280.5 258.7155,-299.5 336.7155,-299.5 336.7155,-280.5 258.7155,-280.5"/>
<text text-anchor="middle" x="297.7155" y="-287.5" font-family="Helvetica,sans-Serif" font-size="10.00" fill="#000000">src/Music.cpp</text>
</g>
<!-- Node1 -->
<g id="node2" class="node">
<title>Node1</title>
<g id="a_node2"><a xlink:href="Music_8h.html" target="_top" xlink:title="Music.h">
<polygon fill="#ffffff" stroke="#000000" points="272.2155,-224.5 272.2155,-243.5 323.2155,-243.5 323.2155,-224.5 272.2155,-224.5"/>
<text text-anchor="middle" x="297.7155" y="-231.5" font-family="Helvetica,sans-Serif" font-size="10.00" fill="#000000">Music.h</text>
</a>
</g>
</g>
<!-- Node0&#45;&gt;Node1 -->
<g id="edge1" class="edge">
<title>Node0&#45;&gt;Node1</title>
<path fill="none" stroke="#191970" d="M297.7155,-280.2455C297.7155,-272.9382 297.7155,-262.6944 297.7155,-253.7046"/>
<polygon fill="#191970" stroke="#191970" points="301.2156,-253.6426 297.7155,-243.6427 294.2156,-253.6427 301.2156,-253.6426"/>
</g>
<!-- Node2 -->
<g id="node3" class="node">
<title>Node2</title>
<g id="a_node3"><a xlink:href="SDL__include_8h.html" target="_top" xlink:title="SDL_include.h">
<polygon fill="#ffffff" stroke="#000000" points=".7155,-.5 .7155,-19.5 80.7155,-19.5 80.7155,-.5 .7155,-.5"/>
<text text-anchor="middle" x="40.7155" y="-7.5" font-family="Helvetica,sans-Serif" font-size="10.00" fill="#000000">SDL_include.h</text>
</a>
</g>
</g>
<!-- Node1&#45;&gt;Node2 -->
<g id="edge2" class="edge">
<title>Node1&#45;&gt;Node2</title>
<path fill="none" stroke="#191970" d="M272.0909,-230.8995C218.851,-224.1539 98.1923,-207.2005 61.7155,-188 30.2895,-171.4581 18.4512,-164.7501 4.7155,-132 -.0112,-120.73 -3.5438,-85.3661 6.7155,-56 10.4105,-45.4237 17.4515,-35.2359 24.1719,-27.148"/>
<polygon fill="#191970" stroke="#191970" points="26.8914,-29.3565 30.9057,-19.5515 21.6532,-24.7131 26.8914,-29.3565"/>
</g>
<!-- Node3 -->
<g id="node4" class="node">
<title>Node3</title>
<polygon fill="#ffffff" stroke="#bfbfbf" points="294.2155,-112.5 294.2155,-131.5 335.2155,-131.5 335.2155,-112.5 294.2155,-112.5"/>
<text text-anchor="middle" x="314.7155" y="-119.5" font-family="Helvetica,sans-Serif" font-size="10.00" fill="#000000">string</text>
</g>
<!-- Node1&#45;&gt;Node3 -->
<g id="edge3" class="edge">
<title>Node1&#45;&gt;Node3</title>
<path fill="none" stroke="#191970" d="M301.1259,-224.2694C304.1971,-215.0535 308.551,-200.7641 310.7155,-188 313.2984,-172.7687 314.2711,-155.312 314.6127,-142.1789"/>
<polygon fill="#191970" stroke="#191970" points="318.1164,-141.9694 314.7751,-131.9153 311.1173,-141.8586 318.1164,-141.9694"/>
</g>
<!-- Node4 -->
<g id="node5" class="node">
<title>Node4</title>
<polygon fill="#ffffff" stroke="#bfbfbf" points="353.7155,-112.5 353.7155,-131.5 405.7155,-131.5 405.7155,-112.5 353.7155,-112.5"/>
<text text-anchor="middle" x="379.7155" y="-119.5" font-family="Helvetica,sans-Serif" font-size="10.00" fill="#000000">memory</text>
</g>
<!-- Node1&#45;&gt;Node4 -->
<g id="edge4" class="edge">
<title>Node1&#45;&gt;Node4</title>
<path fill="none" stroke="#191970" d="M304.7068,-224.4509C318.444,-205.688 349.1451,-163.7548 366.7142,-139.758"/>
<polygon fill="#191970" stroke="#191970" points="369.6586,-141.6611 372.742,-131.5249 364.0105,-137.5259 369.6586,-141.6611"/>
</g>
<!-- Node5 -->
<g id="node6" class="node">
<title>Node5</title>
<g id="a_node6"><a xlink:href="Resources_8h.html" target="_top" xlink:title="Resources.h">
<polygon fill="#ffffff" stroke="#000000" points="229.7155,-168.5 229.7155,-187.5 301.7155,-187.5 301.7155,-168.5 229.7155,-168.5"/>
<text text-anchor="middle" x="265.7155" y="-175.5" font-family="Helvetica,sans-Serif" font-size="10.00" fill="#000000">Resources.h</text>
</a>
</g>
</g>
<!-- Node1&#45;&gt;Node5 -->
<g id="edge5" class="edge">
<title>Node1&#45;&gt;Node5</title>
<path fill="none" stroke="#191970" d="M292.1416,-224.2455C287.7824,-216.617 281.5945,-205.7881 276.3023,-196.5267"/>
<polygon fill="#191970" stroke="#191970" points="279.2259,-194.5886 271.2256,-187.6427 273.1482,-198.0616 279.2259,-194.5886"/>
</g>
<!-- Node7 -->
<g id="node8" class="node">
<title>Node7</title>
<g id="a_node8"><a xlink:href="Error_8h.html" target="_top" xlink:title="Error.h">
<polygon fill="#ffffff" stroke="#000000" points="427.7155,-168.5 427.7155,-187.5 473.7155,-187.5 473.7155,-168.5 427.7155,-168.5"/>
<text text-anchor="middle" x="450.7155" y="-175.5" font-family="Helvetica,sans-Serif" font-size="10.00" fill="#000000">Error.h</text>
</a>
</g>
</g>
<!-- Node1&#45;&gt;Node7 -->
<g id="edge10" class="edge">
<title>Node1&#45;&gt;Node7</title>
<path fill="none" stroke="#191970" d="M323.3243,-224.6269C349.3495,-215.1013 389.7559,-200.312 418.0657,-189.9503"/>
<polygon fill="#191970" stroke="#191970" points="419.3437,-193.2097 427.5314,-186.4857 416.9376,-186.6361 419.3437,-193.2097"/>
</g>
<!-- Node10 -->
<g id="node11" class="node">
<title>Node10</title>
<g id="a_node11"><a xlink:href="InputManager_8h.html" target="_top" xlink:title="InputManager.h">
<polygon fill="#ffffff" stroke="#000000" points="70.7155,-168.5 70.7155,-187.5 154.7155,-187.5 154.7155,-168.5 70.7155,-168.5"/>
<text text-anchor="middle" x="112.7155" y="-175.5" font-family="Helvetica,sans-Serif" font-size="10.00" fill="#000000">InputManager.h</text>
</a>
</g>
</g>
<!-- Node1&#45;&gt;Node10 -->
<g id="edge13" class="edge">
<title>Node1&#45;&gt;Node10</title>
<path fill="none" stroke="#191970" d="M271.9921,-226.2134C241.4998,-216.9833 190.2777,-201.4783 154.1675,-190.5476"/>
<polygon fill="#191970" stroke="#191970" points="154.9982,-187.1423 144.413,-187.5949 152.9701,-193.8421 154.9982,-187.1423"/>
</g>
<!-- Node5&#45;&gt;Node2 -->
<g id="edge6" class="edge">
<title>Node5&#45;&gt;Node2</title>
<path fill="none" stroke="#191970" d="M265.0543,-168.4361C263.6432,-154.5842 259.2565,-128.7659 245.7155,-112 206.3074,-63.2062 137.6064,-35.813 90.689,-21.9753"/>
<polygon fill="#191970" stroke="#191970" points="91.6025,-18.5964 81.0264,-19.2255 89.6864,-25.3291 91.6025,-18.5964"/>
</g>
<!-- Node5&#45;&gt;Node3 -->
<g id="edge7" class="edge">
<title>Node5&#45;&gt;Node3</title>
<path fill="none" stroke="#191970" d="M274.2507,-168.2455C281.2067,-160.2958 291.2038,-148.8706 299.5207,-139.3656"/>
<polygon fill="#191970" stroke="#191970" points="302.3271,-141.4732 306.2782,-131.6427 297.0591,-136.8637 302.3271,-141.4732"/>
</g>
<!-- Node5&#45;&gt;Node4 -->
<g id="edge9" class="edge">
<title>Node5&#45;&gt;Node4</title>
<path fill="none" stroke="#191970" d="M285.3128,-168.3733C303.4487,-159.4644 330.629,-146.1127 351.1742,-136.0203"/>
<polygon fill="#191970" stroke="#191970" points="352.9416,-139.0517 360.374,-131.5011 349.8552,-132.7688 352.9416,-139.0517"/>
</g>
<!-- Node6 -->
<g id="node7" class="node">
<title>Node6</title>
<polygon fill="#ffffff" stroke="#bfbfbf" points="154.2155,-112.5 154.2155,-131.5 237.2155,-131.5 237.2155,-112.5 154.2155,-112.5"/>
<text text-anchor="middle" x="195.7155" y="-119.5" font-family="Helvetica,sans-Serif" font-size="10.00" fill="#000000">unordered_map</text>
</g>
<!-- Node5&#45;&gt;Node6 -->
<g id="edge8" class="edge">
<title>Node5&#45;&gt;Node6</title>
<path fill="none" stroke="#191970" d="M253.5225,-168.2455C243.0834,-159.8943 227.8501,-147.7076 215.6416,-137.9408"/>
<polygon fill="#191970" stroke="#191970" points="217.764,-135.1566 207.7689,-131.6427 213.3911,-140.6227 217.764,-135.1566"/>
</g>
<!-- Node8 -->
<g id="node9" class="node">
<title>Node8</title>
<polygon fill="#ffffff" stroke="#bfbfbf" points="423.7155,-112.5 423.7155,-131.5 477.7155,-131.5 477.7155,-112.5 423.7155,-112.5"/>
<text text-anchor="middle" x="450.7155" y="-119.5" font-family="Helvetica,sans-Serif" font-size="10.00" fill="#000000">iostream</text>
</g>
<!-- Node7&#45;&gt;Node8 -->
<g id="edge11" class="edge">
<title>Node7&#45;&gt;Node8</title>
<path fill="none" stroke="#191970" d="M450.7155,-168.2455C450.7155,-160.9382 450.7155,-150.6944 450.7155,-141.7046"/>
<polygon fill="#191970" stroke="#191970" points="454.2156,-141.6426 450.7155,-131.6427 447.2156,-141.6427 454.2156,-141.6426"/>
</g>
<!-- Node9 -->
<g id="node10" class="node">
<title>Node9</title>
<polygon fill="#ffffff" stroke="#bfbfbf" points="495.7155,-112.5 495.7155,-131.5 543.7155,-131.5 543.7155,-112.5 495.7155,-112.5"/>
<text text-anchor="middle" x="519.7155" y="-119.5" font-family="Helvetica,sans-Serif" font-size="10.00" fill="#000000">stdlib.h</text>
</g>
<!-- Node7&#45;&gt;Node9 -->
<g id="edge12" class="edge">
<title>Node7&#45;&gt;Node9</title>
<path fill="none" stroke="#191970" d="M462.7344,-168.2455C472.9254,-159.9746 487.7518,-147.9416 499.7262,-138.2232"/>
<polygon fill="#191970" stroke="#191970" points="502.2754,-140.662 507.8344,-131.6427 497.8642,-135.2268 502.2754,-140.662"/>
</g>
<!-- Node10&#45;&gt;Node2 -->
<g id="edge14" class="edge">
<title>Node10&#45;&gt;Node2</title>
<path fill="none" stroke="#191970" d="M70.5488,-169.0979C50.2851,-162.4716 27.8208,-151.138 15.7155,-132 -4.6908,-99.738 14.9433,-53.9448 29.0932,-28.6317"/>
<polygon fill="#191970" stroke="#191970" points="32.2848,-30.1087 34.3318,-19.7135 26.249,-26.5633 32.2848,-30.1087"/>
</g>
<!-- Node10&#45;&gt;Node6 -->
<g id="edge21" class="edge">
<title>Node10&#45;&gt;Node6</title>
<path fill="none" stroke="#191970" d="M127.173,-168.2455C139.7888,-159.7337 158.31,-147.2375 172.9201,-137.3801"/>
<polygon fill="#191970" stroke="#191970" points="175.0916,-140.1371 181.4237,-131.6427 171.1765,-134.3343 175.0916,-140.1371"/>
</g>
<!-- Node11 -->
<g id="node12" class="node">
<title>Node11</title>
<g id="a_node12"><a xlink:href="Vec2_8h.html" target="_top" xlink:title="Vec2.h">
<polygon fill="#ffffff" stroke="#000000" points="89.2155,-112.5 89.2155,-131.5 136.2155,-131.5 136.2155,-112.5 89.2155,-112.5"/>
<text text-anchor="middle" x="112.7155" y="-119.5" font-family="Helvetica,sans-Serif" font-size="10.00" fill="#000000">Vec2.h</text>
</a>
</g>
</g>
<!-- Node10&#45;&gt;Node11 -->
<g id="edge15" class="edge">
<title>Node10&#45;&gt;Node11</title>
<path fill="none" stroke="#191970" d="M112.7155,-168.2455C112.7155,-160.9382 112.7155,-150.6944 112.7155,-141.7046"/>
<polygon fill="#191970" stroke="#191970" points="116.2156,-141.6426 112.7155,-131.6427 109.2156,-141.6427 116.2156,-141.6426"/>
</g>
<!-- Node14 -->
<g id="node15" class="node">
<title>Node14</title>
<polygon fill="#ffffff" stroke="#bfbfbf" points="24.7155,-112.5 24.7155,-131.5 70.7155,-131.5 70.7155,-112.5 24.7155,-112.5"/>
<text text-anchor="middle" x="47.7155" y="-119.5" font-family="Helvetica,sans-Serif" font-size="10.00" fill="#000000">cstdint</text>
</g>
<!-- Node10&#45;&gt;Node14 -->
<g id="edge22" class="edge">
<title>Node10&#45;&gt;Node14</title>
<path fill="none" stroke="#191970" d="M101.3934,-168.2455C91.7932,-159.9746 77.8264,-147.9416 66.5461,-138.2232"/>
<polygon fill="#191970" stroke="#191970" points="68.7685,-135.5182 58.9079,-131.6427 64.1995,-140.8214 68.7685,-135.5182"/>
</g>
<!-- Node11&#45;&gt;Node2 -->
<g id="edge16" class="edge">
<title>Node11&#45;&gt;Node2</title>
<path fill="none" stroke="#191970" d="M105.6677,-112.2515C99.0596,-103.0228 88.9859,-88.7249 80.7155,-76 70.3748,-60.0896 59.2333,-41.5836 51.3419,-28.2232"/>
<polygon fill="#191970" stroke="#191970" points="54.31,-26.3657 46.228,-19.515 48.2738,-29.9105 54.31,-26.3657"/>
</g>
<!-- Node12 -->
<g id="node13" class="node">
<title>Node12</title>
<g id="a_node13"><a xlink:href="Rect_8h.html" target="_top" xlink:title="Rect.h">
<polygon fill="#ffffff" stroke="#000000" points="89.7155,-56.5 89.7155,-75.5 135.7155,-75.5 135.7155,-56.5 89.7155,-56.5"/>
<text text-anchor="middle" x="112.7155" y="-63.5" font-family="Helvetica,sans-Serif" font-size="10.00" fill="#000000">Rect.h</text>
</a>
</g>
</g>
<!-- Node11&#45;&gt;Node12 -->
<g id="edge17" class="edge">
<title>Node11&#45;&gt;Node12</title>
<path fill="none" stroke="#191970" d="M107.4487,-112.2455C106.0377,-104.9382 105.6334,-94.6944 106.236,-85.7046"/>
<polygon fill="#191970" stroke="#191970" points="109.7266,-85.9945 107.4704,-75.6427 102.7787,-85.1421 109.7266,-85.9945"/>
</g>
<!-- Node12&#45;&gt;Node2 -->
<g id="edge18" class="edge">
<title>Node12&#45;&gt;Node2</title>
<path fill="none" stroke="#191970" d="M100.1741,-56.2455C89.4368,-47.8943 73.7682,-35.7076 61.2109,-25.9408"/>
<polygon fill="#191970" stroke="#191970" points="63.1556,-23.0194 53.1133,-19.6427 58.858,-28.5449 63.1556,-23.0194"/>
</g>
<!-- Node12&#45;&gt;Node11 -->
<g id="edge19" class="edge">
<title>Node12&#45;&gt;Node11</title>
<path fill="none" stroke="#191970" d="M117.9607,-75.6427C119.382,-82.9199 119.7965,-93.155 119.2042,-102.1575"/>
<polygon fill="#191970" stroke="#191970" points="115.7102,-101.8972 117.9824,-112.2455 122.6595,-102.739 115.7102,-101.8972"/>
</g>
<!-- Node13 -->
<g id="node14" class="node">
<title>Node13</title>
<polygon fill="#ffffff" stroke="#bfbfbf" points="98.7155,-.5 98.7155,-19.5 142.7155,-19.5 142.7155,-.5 98.7155,-.5"/>
<text text-anchor="middle" x="120.7155" y="-7.5" font-family="Helvetica,sans-Serif" font-size="10.00" fill="#000000">cmath</text>
</g>
<!-- Node12&#45;&gt;Node13 -->
<g id="edge20" class="edge">
<title>Node12&#45;&gt;Node13</title>
<path fill="none" stroke="#191970" d="M114.109,-56.2455C115.1529,-48.9382 116.6163,-38.6944 117.9006,-29.7046"/>
<polygon fill="#191970" stroke="#191970" points="121.3885,-30.0372 119.338,-19.6427 114.4589,-29.0472 121.3885,-30.0372"/>
</g>
</g>
</svg>
