<?xml version="1.0" encoding="UTF-8" standalone="no"?>
<!DOCTYPE svg PUBLIC "-//W3C//DTD SVG 1.1//EN"
 "http://www.w3.org/Graphics/SVG/1.1/DTD/svg11.dtd">
<!-- Generated by graphviz version 2.40.1 (20161225.0304)
 -->
<!-- Title: include/NearestFinder.h Pages: 1 -->
<svg width="203pt" height="196pt"
 viewBox="0.00 0.00 203.00 196.00" xmlns="http://www.w3.org/2000/svg" xmlns:xlink="http://www.w3.org/1999/xlink">
<g id="graph0" class="graph" transform="scale(1 1) rotate(0) translate(4 192)">
<title>include/NearestFinder.h</title>
<polygon fill="#ffffff" stroke="transparent" points="-4,4 -4,-192 199,-192 199,4 -4,4"/>
<!-- Node0 -->
<g id="node1" class="node">
<title>Node0</title>
<polygon fill="#bfbfbf" stroke="#000000" points="22,-168.5 22,-187.5 142,-187.5 142,-168.5 22,-168.5"/>
<text text-anchor="middle" x="82" y="-175.5" font-family="Helvetica,sans-Serif" font-size="10.00" fill="#000000">include/NearestFinder.h</text>
</g>
<!-- Node1 -->
<g id="node2" class="node">
<title>Node1</title>
<polygon fill="#ffffff" stroke="#bfbfbf" points="0,-112.5 0,-131.5 44,-131.5 44,-112.5 0,-112.5"/>
<text text-anchor="middle" x="22" y="-119.5" font-family="Helvetica,sans-Serif" font-size="10.00" fill="#000000">vector</text>
</g>
<!-- Node0&#45;&gt;Node1 -->
<g id="edge1" class="edge">
<title>Node0&#45;&gt;Node1</title>
<path fill="none" stroke="#191970" d="M71.5488,-168.2455C62.7731,-160.0549 50.0446,-148.1749 39.686,-138.5069"/>
<polygon fill="#191970" stroke="#191970" points="42.0301,-135.9072 32.3314,-131.6427 37.2539,-141.0246 42.0301,-135.9072"/>
</g>
<!-- Node2 -->
<g id="node3" class="node">
<title>Node2</title>
<polygon fill="#ffffff" stroke="#bfbfbf" points="62,-112.5 62,-131.5 102,-131.5 102,-112.5 62,-112.5"/>
<text text-anchor="middle" x="82" y="-119.5" font-family="Helvetica,sans-Serif" font-size="10.00" fill="#000000">limits</text>
</g>
<!-- Node0&#45;&gt;Node2 -->
<g id="edge2" class="edge">
<title>Node0&#45;&gt;Node2</title>
<path fill="none" stroke="#191970" d="M82,-168.2455C82,-160.9382 82,-150.6944 82,-141.7046"/>
<polygon fill="#191970" stroke="#191970" points="85.5001,-141.6426 82,-131.6427 78.5001,-141.6427 85.5001,-141.6426"/>
</g>
<!-- Node3 -->
<g id="node4" class="node">
<title>Node3</title>
<g id="a_node4"><a xlink:href="Vec2_8h.html" target="_top" xlink:title="Vec2.h">
<polygon fill="#ffffff" stroke="#000000" points="120.5,-112.5 120.5,-131.5 167.5,-131.5 167.5,-112.5 120.5,-112.5"/>
<text text-anchor="middle" x="144" y="-119.5" font-family="Helvetica,sans-Serif" font-size="10.00" fill="#000000">Vec2.h</text>
</a>
</g>
</g>
<!-- Node0&#45;&gt;Node3 -->
<g id="edge3" class="edge">
<title>Node0&#45;&gt;Node3</title>
<path fill="none" stroke="#191970" d="M92.7996,-168.2455C101.8678,-160.0549 115.0206,-148.1749 125.7245,-138.5069"/>
<polygon fill="#191970" stroke="#191970" points="128.2491,-140.9429 133.3242,-131.6427 123.5571,-135.7482 128.2491,-140.9429"/>
</g>
<!-- Node4 -->
<g id="node5" class="node">
<title>Node4</title>
<g id="a_node5"><a xlink:href="SDL__include_8h.html" target="_top" xlink:title="SDL_include.h">
<polygon fill="#ffffff" stroke="#000000" points="53,-.5 53,-19.5 133,-19.5 133,-.5 53,-.5"/>
<text text-anchor="middle" x="93" y="-7.5" font-family="Helvetica,sans-Serif" font-size="10.00" fill="#000000">SDL_include.h</text>
</a>
</g>
</g>
<!-- Node3&#45;&gt;Node4 -->
<g id="edge4" class="edge">
<title>Node3&#45;&gt;Node4</title>
<path fill="none" stroke="#191970" d="M135.8732,-112.3546C128.7089,-103.4271 118.4362,-89.5288 112,-76 104.9567,-61.1949 99.9982,-43.2537 96.9168,-29.8162"/>
<polygon fill="#191970" stroke="#191970" points="100.2793,-28.8027 94.7655,-19.7557 93.4341,-30.2666 100.2793,-28.8027"/>
</g>
<!-- Node5 -->
<g id="node6" class="node">
<title>Node5</title>
<g id="a_node6"><a xlink:href="Rect_8h.html" target="_top" xlink:title="Rect.h">
<polygon fill="#ffffff" stroke="#000000" points="121,-56.5 121,-75.5 167,-75.5 167,-56.5 121,-56.5"/>
<text text-anchor="middle" x="144" y="-63.5" font-family="Helvetica,sans-Serif" font-size="10.00" fill="#000000">Rect.h</text>
</a>
</g>
</g>
<!-- Node3&#45;&gt;Node5 -->
<g id="edge5" class="edge">
<title>Node3&#45;&gt;Node5</title>
<path fill="none" stroke="#191970" d="M138.7332,-112.2455C137.3221,-104.9382 136.9179,-94.6944 137.5205,-85.7046"/>
<polygon fill="#191970" stroke="#191970" points="141.0111,-85.9945 138.7549,-75.6427 134.0632,-85.1421 141.0111,-85.9945"/>
</g>
<!-- Node5&#45;&gt;Node3 -->
<g id="edge7" class="edge">
<title>Node5&#45;&gt;Node3</title>
<path fill="none" stroke="#191970" d="M149.2451,-75.6427C150.6665,-82.9199 151.081,-93.155 150.4887,-102.1575"/>
<polygon fill="#191970" stroke="#191970" points="146.9947,-101.8972 149.2668,-112.2455 153.9439,-102.739 146.9947,-101.8972"/>
</g>
<!-- Node5&#45;&gt;Node4 -->
<g id="edge6" class="edge">
<title>Node5&#45;&gt;Node4</title>
<path fill="none" stroke="#191970" d="M135.1165,-56.2455C127.8034,-48.2155 117.2609,-36.6394 108.5533,-27.0781"/>
<polygon fill="#191970" stroke="#191970" points="111.1028,-24.6795 101.7817,-19.6427 105.9273,-29.3928 111.1028,-24.6795"/>
</g>
<!-- Node6 -->
<g id="node7" class="node">
<title>Node6</title>
<polygon fill="#ffffff" stroke="#bfbfbf" points="151,-.5 151,-19.5 195,-19.5 195,-.5 151,-.5"/>
<text text-anchor="middle" x="173" y="-7.5" font-family="Helvetica,sans-Serif" font-size="10.00" fill="#000000">cmath</text>
</g>
<!-- Node5&#45;&gt;Node6 -->
<g id="edge8" class="edge">
<title>Node5&#45;&gt;Node6</title>
<path fill="none" stroke="#191970" d="M149.0514,-56.2455C153.0019,-48.617 158.6097,-37.7881 163.4058,-28.5267"/>
<polygon fill="#191970" stroke="#191970" points="166.5159,-30.1321 168.0065,-19.6427 160.2999,-26.9131 166.5159,-30.1321"/>
</g>
</g>
</svg>
