<?xml version="1.0" encoding="UTF-8" standalone="no"?>
<!DOCTYPE svg PUBLIC "-//W3C//DTD SVG 1.1//EN"
 "http://www.w3.org/Graphics/SVG/1.1/DTD/svg11.dtd">
<!-- Generated by graphviz version 2.40.1 (20161225.0304)
 -->
<!-- Title: include/NearestFinder.h Pages: 1 -->
<svg width="151pt" height="196pt"
 viewBox="0.00 0.00 151.00 196.00" xmlns="http://www.w3.org/2000/svg" xmlns:xlink="http://www.w3.org/1999/xlink">
<g id="graph0" class="graph" transform="scale(1 1) rotate(0) translate(4 192)">
<title>include/NearestFinder.h</title>
<polygon fill="#ffffff" stroke="transparent" points="-4,4 -4,-192 147,-192 147,4 -4,4"/>
<!-- Node7 -->
<g id="node1" class="node">
<title>Node7</title>
<polygon fill="#bfbfbf" stroke="#000000" points="11.5,-168.5 11.5,-187.5 131.5,-187.5 131.5,-168.5 11.5,-168.5"/>
<text text-anchor="middle" x="71.5" y="-175.5" font-family="Helvetica,sans-Serif" font-size="10.00" fill="#000000">include/NearestFinder.h</text>
</g>
<!-- Node8 -->
<g id="node2" class="node">
<title>Node8</title>
<g id="a_node2"><a xlink:href="TileMap_8h.html" target="_top" xlink:title="include/TileMap.h">
<polygon fill="#ffffff" stroke="#000000" points="25,-112.5 25,-131.5 118,-131.5 118,-112.5 25,-112.5"/>
<text text-anchor="middle" x="71.5" y="-119.5" font-family="Helvetica,sans-Serif" font-size="10.00" fill="#000000">include/TileMap.h</text>
</a>
</g>
</g>
<!-- Node7&#45;&gt;Node8 -->
<g id="edge1" class="edge">
<title>Node7&#45;&gt;Node8</title>
<path fill="none" stroke="#191970" d="M71.5,-158.1575C71.5,-149.155 71.5,-138.9199 71.5,-131.6427"/>
<polygon fill="#191970" stroke="#191970" points="68.0001,-158.2455 71.5,-168.2455 75.0001,-158.2456 68.0001,-158.2455"/>
</g>
<!-- Node9 -->
<g id="node3" class="node">
<title>Node9</title>
<g id="a_node3"><a xlink:href="ManhattanDistance_8h.html" target="_top" xlink:title="include/ManhattanDistance.h">
<polygon fill="#ffffff" stroke="#000000" points="0,-56.5 0,-75.5 143,-75.5 143,-56.5 0,-56.5"/>
<text text-anchor="middle" x="71.5" y="-63.5" font-family="Helvetica,sans-Serif" font-size="10.00" fill="#000000">include/ManhattanDistance.h</text>
</a>
</g>
</g>
<!-- Node8&#45;&gt;Node9 -->
<g id="edge2" class="edge">
<title>Node8&#45;&gt;Node9</title>
<path fill="none" stroke="#191970" d="M71.5,-102.1575C71.5,-93.155 71.5,-82.9199 71.5,-75.6427"/>
<polygon fill="#191970" stroke="#191970" points="68.0001,-102.2455 71.5,-112.2455 75.0001,-102.2456 68.0001,-102.2455"/>
</g>
<!-- Node10 -->
<g id="node4" class="node">
<title>Node10</title>
<g id="a_node4"><a xlink:href="ManhattanDistance_8cpp.html" target="_top" xlink:title="src/ManhattanDistance.cpp">
<polygon fill="#ffffff" stroke="#000000" points="3,-.5 3,-19.5 140,-19.5 140,-.5 3,-.5"/>
<text text-anchor="middle" x="71.5" y="-7.5" font-family="Helvetica,sans-Serif" font-size="10.00" fill="#000000">src/ManhattanDistance.cpp</text>
</a>
</g>
</g>
<!-- Node9&#45;&gt;Node10 -->
<g id="edge3" class="edge">
<title>Node9&#45;&gt;Node10</title>
<path fill="none" stroke="#191970" d="M71.5,-46.1575C71.5,-37.155 71.5,-26.9199 71.5,-19.6427"/>
<polygon fill="#191970" stroke="#191970" points="68.0001,-46.2455 71.5,-56.2455 75.0001,-46.2456 68.0001,-46.2455"/>
</g>
</g>
</svg>
