<?xml version="1.0" encoding="UTF-8" standalone="no"?>
<!DOCTYPE svg PUBLIC "-//W3C//DTD SVG 1.1//EN"
 "http://www.w3.org/Graphics/SVG/1.1/DTD/svg11.dtd">
<!-- Generated by graphviz version 2.40.1 (20161225.0304)
 -->
<!-- Title: include/NearestGOFinder.h Pages: 1 -->
<svg width="467pt" height="196pt"
 viewBox="0.00 0.00 467.00 196.00" xmlns="http://www.w3.org/2000/svg" xmlns:xlink="http://www.w3.org/1999/xlink">
<g id="graph0" class="graph" transform="scale(1 1) rotate(0) translate(4 192)">
<title>include/NearestGOFinder.h</title>
<polygon fill="#ffffff" stroke="transparent" points="-4,4 -4,-192 463,-192 463,4 -4,4"/>
<!-- Node0 -->
<g id="node1" class="node">
<title>Node0</title>
<polygon fill="#bfbfbf" stroke="#000000" points="43.5,-168.5 43.5,-187.5 178.5,-187.5 178.5,-168.5 43.5,-168.5"/>
<text text-anchor="middle" x="111" y="-175.5" font-family="Helvetica,sans-Serif" font-size="10.00" fill="#000000">include/NearestGOFinder.h</text>
</g>
<!-- Node1 -->
<g id="node2" class="node">
<title>Node1</title>
<polygon fill="#ffffff" stroke="#bfbfbf" points="3,-112.5 3,-131.5 43,-131.5 43,-112.5 3,-112.5"/>
<text text-anchor="middle" x="23" y="-119.5" font-family="Helvetica,sans-Serif" font-size="10.00" fill="#000000">limits</text>
</g>
<!-- Node0&#45;&gt;Node1 -->
<g id="edge1" class="edge">
<title>Node0&#45;&gt;Node1</title>
<path fill="none" stroke="#191970" d="M95.6716,-168.2455C82.1697,-159.6534 62.2878,-147.0014 46.7314,-137.1018"/>
<polygon fill="#191970" stroke="#191970" points="48.4685,-134.0587 38.1528,-131.6427 44.7103,-139.9643 48.4685,-134.0587"/>
</g>
<!-- Node2 -->
<g id="node3" class="node">
<title>Node2</title>
<polygon fill="#ffffff" stroke="#bfbfbf" points="115,-56.5 115,-75.5 159,-75.5 159,-56.5 115,-56.5"/>
<text text-anchor="middle" x="137" y="-63.5" font-family="Helvetica,sans-Serif" font-size="10.00" fill="#000000">vector</text>
</g>
<!-- Node0&#45;&gt;Node2 -->
<g id="edge2" class="edge">
<title>Node0&#45;&gt;Node2</title>
<path fill="none" stroke="#191970" d="M113.2167,-168.4509C117.4765,-150.1013 126.8807,-109.5908 132.5035,-85.3693"/>
<polygon fill="#191970" stroke="#191970" points="135.9368,-86.0573 134.7889,-75.5249 129.1182,-84.4744 135.9368,-86.0573"/>
</g>
<!-- Node3 -->
<g id="node4" class="node">
<title>Node3</title>
<g id="a_node4"><a xlink:href="Vec2_8h.html" target="_top" xlink:title="Vec2.h">
<polygon fill="#ffffff" stroke="#000000" points="61.5,-112.5 61.5,-131.5 108.5,-131.5 108.5,-112.5 61.5,-112.5"/>
<text text-anchor="middle" x="85" y="-119.5" font-family="Helvetica,sans-Serif" font-size="10.00" fill="#000000">Vec2.h</text>
</a>
</g>
</g>
<!-- Node0&#45;&gt;Node3 -->
<g id="edge3" class="edge">
<title>Node0&#45;&gt;Node3</title>
<path fill="none" stroke="#191970" d="M106.4711,-168.2455C102.9666,-160.6973 98.0073,-150.0158 93.7377,-140.8197"/>
<polygon fill="#191970" stroke="#191970" points="96.8627,-139.2389 89.477,-131.6427 90.5136,-142.1867 96.8627,-139.2389"/>
</g>
<!-- Node7 -->
<g id="node8" class="node">
<title>Node7</title>
<g id="a_node8"><a xlink:href="GameObject_8h.html" target="_top" xlink:title="GameObject.h">
<polygon fill="#ffffff" stroke="#000000" points="207,-112.5 207,-131.5 287,-131.5 287,-112.5 207,-112.5"/>
<text text-anchor="middle" x="247" y="-119.5" font-family="Helvetica,sans-Serif" font-size="10.00" fill="#000000">GameObject.h</text>
</a>
</g>
</g>
<!-- Node0&#45;&gt;Node7 -->
<g id="edge9" class="edge">
<title>Node0&#45;&gt;Node7</title>
<path fill="none" stroke="#191970" d="M134.3792,-168.3733C156.5045,-159.2629 189.9134,-145.5062 214.6019,-135.3404"/>
<polygon fill="#191970" stroke="#191970" points="216.0117,-138.5451 223.9258,-131.5011 213.3464,-132.0723 216.0117,-138.5451"/>
</g>
<!-- Node4 -->
<g id="node5" class="node">
<title>Node4</title>
<g id="a_node5"><a xlink:href="SDL__include_8h.html" target="_top" xlink:title="SDL_include.h">
<polygon fill="#ffffff" stroke="#000000" points="62,-.5 62,-19.5 142,-19.5 142,-.5 62,-.5"/>
<text text-anchor="middle" x="102" y="-7.5" font-family="Helvetica,sans-Serif" font-size="10.00" fill="#000000">SDL_include.h</text>
</a>
</g>
</g>
<!-- Node3&#45;&gt;Node4 -->
<g id="edge4" class="edge">
<title>Node3&#45;&gt;Node4</title>
<path fill="none" stroke="#191970" d="M86.4494,-112.4509C89.2221,-94.184 95.3282,-53.9553 99.0102,-29.6976"/>
<polygon fill="#191970" stroke="#191970" points="102.5139,-29.9369 100.5543,-19.5249 95.5931,-28.8864 102.5139,-29.9369"/>
</g>
<!-- Node5 -->
<g id="node6" class="node">
<title>Node5</title>
<g id="a_node6"><a xlink:href="Rect_8h.html" target="_top" xlink:title="Rect.h">
<polygon fill="#ffffff" stroke="#000000" points="13,-56.5 13,-75.5 59,-75.5 59,-56.5 13,-56.5"/>
<text text-anchor="middle" x="36" y="-63.5" font-family="Helvetica,sans-Serif" font-size="10.00" fill="#000000">Rect.h</text>
</a>
</g>
</g>
<!-- Node3&#45;&gt;Node5 -->
<g id="edge5" class="edge">
<title>Node3&#45;&gt;Node5</title>
<path fill="none" stroke="#191970" d="M71.198,-112.2455C62.8785,-104.4564 52.7834,-93.3308 45.3538,-83.9439"/>
<polygon fill="#191970" stroke="#191970" points="47.9627,-81.5864 39.1922,-75.6427 42.3419,-85.7585 47.9627,-81.5864"/>
</g>
<!-- Node5&#45;&gt;Node3 -->
<g id="edge7" class="edge">
<title>Node5&#45;&gt;Node3</title>
<path fill="none" stroke="#191970" d="M49.6825,-75.6427C58.0705,-83.4797 68.2926,-94.7472 75.7689,-104.2112"/>
<polygon fill="#191970" stroke="#191970" points="72.9615,-106.3013 81.7317,-112.2455 78.5826,-102.1295 72.9615,-106.3013"/>
</g>
<!-- Node5&#45;&gt;Node4 -->
<g id="edge6" class="edge">
<title>Node5&#45;&gt;Node4</title>
<path fill="none" stroke="#191970" d="M47.4963,-56.2455C57.2442,-47.9746 71.4259,-35.9416 82.8798,-26.2232"/>
<polygon fill="#191970" stroke="#191970" points="85.2747,-28.7813 90.6354,-19.6427 80.7459,-23.4437 85.2747,-28.7813"/>
</g>
<!-- Node6 -->
<g id="node7" class="node">
<title>Node6</title>
<polygon fill="#ffffff" stroke="#bfbfbf" points="0,-.5 0,-19.5 44,-19.5 44,-.5 0,-.5"/>
<text text-anchor="middle" x="22" y="-7.5" font-family="Helvetica,sans-Serif" font-size="10.00" fill="#000000">cmath</text>
</g>
<!-- Node5&#45;&gt;Node6 -->
<g id="edge8" class="edge">
<title>Node5&#45;&gt;Node6</title>
<path fill="none" stroke="#191970" d="M33.5614,-56.2455C31.7145,-48.8579 29.1172,-38.4689 26.8522,-29.4087"/>
<polygon fill="#191970" stroke="#191970" points="30.2316,-28.4952 24.4107,-19.6427 23.4406,-30.193 30.2316,-28.4952"/>
</g>
<!-- Node7&#45;&gt;Node2 -->
<g id="edge11" class="edge">
<title>Node7&#45;&gt;Node2</title>
<path fill="none" stroke="#191970" d="M227.8395,-112.2455C210.4889,-103.4125 184.7099,-90.2887 165.0417,-80.2758"/>
<polygon fill="#191970" stroke="#191970" points="166.4405,-77.0605 155.941,-75.6427 163.2647,-83.2986 166.4405,-77.0605"/>
</g>
<!-- Node7&#45;&gt;Node4 -->
<g id="edge10" class="edge">
<title>Node7&#45;&gt;Node4</title>
<path fill="none" stroke="#191970" d="M246.6684,-112.1482C245.6679,-97.9378 241.7877,-71.6773 227,-56 207.3893,-35.2096 177.5787,-23.772 151.9879,-17.5023"/>
<polygon fill="#191970" stroke="#191970" points="152.5779,-14.0477 142.0537,-15.269 151.0424,-20.8772 152.5779,-14.0477"/>
</g>
<!-- Node7&#45;&gt;Node5 -->
<g id="edge18" class="edge">
<title>Node7&#45;&gt;Node5</title>
<path fill="none" stroke="#191970" d="M210.7278,-112.3733C170.8158,-101.7805 107.2371,-84.9065 68.7757,-74.6988"/>
<polygon fill="#191970" stroke="#191970" points="69.6646,-71.3136 59.1014,-72.1312 67.8689,-78.0793 69.6646,-71.3136"/>
</g>
<!-- Node8 -->
<g id="node9" class="node">
<title>Node8</title>
<polygon fill="#ffffff" stroke="#bfbfbf" points="407,-56.5 407,-75.5 459,-75.5 459,-56.5 407,-56.5"/>
<text text-anchor="middle" x="433" y="-63.5" font-family="Helvetica,sans-Serif" font-size="10.00" fill="#000000">memory</text>
</g>
<!-- Node7&#45;&gt;Node8 -->
<g id="edge12" class="edge">
<title>Node7&#45;&gt;Node8</title>
<path fill="none" stroke="#191970" d="M278.9745,-112.3733C311.8729,-102.4684 363.0125,-87.0715 397.2344,-76.7681"/>
<polygon fill="#191970" stroke="#191970" points="398.2741,-80.1104 406.8404,-73.876 396.256,-73.4076 398.2741,-80.1104"/>
</g>
<!-- Node9 -->
<g id="node10" class="node">
<title>Node9</title>
<polygon fill="#ffffff" stroke="#bfbfbf" points="177.5,-56.5 177.5,-75.5 218.5,-75.5 218.5,-56.5 177.5,-56.5"/>
<text text-anchor="middle" x="198" y="-63.5" font-family="Helvetica,sans-Serif" font-size="10.00" fill="#000000">string</text>
</g>
<!-- Node7&#45;&gt;Node9 -->
<g id="edge13" class="edge">
<title>Node7&#45;&gt;Node9</title>
<path fill="none" stroke="#191970" d="M238.4649,-112.2455C231.5088,-104.2958 221.5117,-92.8706 213.1949,-83.3656"/>
<polygon fill="#191970" stroke="#191970" points="215.6564,-80.8637 206.4373,-75.6427 210.3884,-85.4732 215.6564,-80.8637"/>
</g>
<!-- Node10 -->
<g id="node11" class="node">
<title>Node10</title>
<g id="a_node11"><a xlink:href="Component_8h.html" target="_top" xlink:title="Component.h">
<polygon fill="#ffffff" stroke="#000000" points="275.5,-56.5 275.5,-75.5 350.5,-75.5 350.5,-56.5 275.5,-56.5"/>
<text text-anchor="middle" x="313" y="-63.5" font-family="Helvetica,sans-Serif" font-size="10.00" fill="#000000">Component.h</text>
</a>
</g>
</g>
<!-- Node7&#45;&gt;Node10 -->
<g id="edge14" class="edge">
<title>Node7&#45;&gt;Node10</title>
<path fill="none" stroke="#191970" d="M253.2295,-112.2455C261.4594,-103.8943 275.5247,-91.7076 288.053,-81.9408"/>
<polygon fill="#191970" stroke="#191970" points="290.5208,-84.4631 296.3903,-75.6427 286.3014,-78.8776 290.5208,-84.4631"/>
</g>
<!-- Node11 -->
<g id="node12" class="node">
<title>Node11</title>
<g id="a_node12"><a xlink:href="ComponentType_8h.html" target="_top" xlink:title="ComponentType.h">
<polygon fill="#ffffff" stroke="#000000" points="297.5,-.5 297.5,-19.5 394.5,-19.5 394.5,-.5 297.5,-.5"/>
<text text-anchor="middle" x="346" y="-7.5" font-family="Helvetica,sans-Serif" font-size="10.00" fill="#000000">ComponentType.h</text>
</a>
</g>
</g>
<!-- Node7&#45;&gt;Node11 -->
<g id="edge17" class="edge">
<title>Node7&#45;&gt;Node11</title>
<path fill="none" stroke="#191970" d="M287.2639,-116.8065C312.4674,-111.2445 343.0818,-99.7463 359,-76 368.3142,-62.1054 363.1359,-43.0978 356.7668,-29.0484"/>
<polygon fill="#191970" stroke="#191970" points="359.7453,-27.1825 352.1088,-19.8386 353.4988,-30.3419 359.7453,-27.1825"/>
</g>
<!-- Node10&#45;&gt;Node7 -->
<g id="edge16" class="edge">
<title>Node10&#45;&gt;Node7</title>
<path fill="none" stroke="#191970" d="M306.8806,-75.6427C298.6244,-84.0394 284.3864,-96.3743 271.7538,-106.2097"/>
<polygon fill="#191970" stroke="#191970" points="269.633,-103.4253 263.7632,-112.2455 273.8522,-109.0109 269.633,-103.4253"/>
</g>
<!-- Node10&#45;&gt;Node11 -->
<g id="edge15" class="edge">
<title>Node10&#45;&gt;Node11</title>
<path fill="none" stroke="#191970" d="M318.7482,-56.2455C323.2435,-48.617 329.6248,-37.7881 335.0825,-28.5267"/>
<polygon fill="#191970" stroke="#191970" points="338.2561,-30.035 340.3177,-19.6427 332.2253,-26.4811 338.2561,-30.035"/>
</g>
</g>
</svg>
