<?xml version="1.0" encoding="UTF-8" standalone="no"?>
<!DOCTYPE svg PUBLIC "-//W3C//DTD SVG 1.1//EN"
 "http://www.w3.org/Graphics/SVG/1.1/DTD/svg11.dtd">
<!-- Generated by graphviz version 2.38.0 (20140413.2041)
 -->
<!-- Title: include/NearestGOFinder.h Pages: 1 -->
<svg width="429pt" height="252pt"
 viewBox="0.00 0.00 429.05 252.00" xmlns="http://www.w3.org/2000/svg" xmlns:xlink="http://www.w3.org/1999/xlink">
<g id="graph0" class="graph" transform="scale(1 1) rotate(0) translate(4 248)">
<title>include/NearestGOFinder.h</title>
<polygon fill="white" stroke="none" points="-4,4 -4,-248 425.053,-248 425.053,4 -4,4"/>
<!-- Node0 -->
<g id="node1" class="node"><title>Node0</title>
<polygon fill="#bfbfbf" stroke="black" points="101.5,-224.5 101.5,-243.5 236.5,-243.5 236.5,-224.5 101.5,-224.5"/>
<text text-anchor="middle" x="169" y="-231.5" font-family="Helvetica,sans-Serif" font-size="10.00">include/NearestGOFinder.h</text>
</g>
<!-- Node1 -->
<g id="node2" class="node"><title>Node1</title>
<polygon fill="white" stroke="#bfbfbf" points="67,-168.5 67,-187.5 107,-187.5 107,-168.5 67,-168.5"/>
<text text-anchor="middle" x="87" y="-175.5" font-family="Helvetica,sans-Serif" font-size="10.00">limits</text>
</g>
<!-- Node0&#45;&gt;Node1 -->
<g id="edge1" class="edge"><title>Node0&#45;&gt;Node1</title>
<path fill="none" stroke="midnightblue" d="M155.825,-224.324C143.153,-215.979 123.767,-203.212 108.794,-193.352"/>
<polygon fill="midnightblue" stroke="midnightblue" points="110.419,-190.231 100.142,-187.655 106.569,-196.078 110.419,-190.231"/>
</g>
<!-- Node2 -->
<g id="node3" class="node"><title>Node2</title>
<polygon fill="white" stroke="#bfbfbf" points="0,-112.5 0,-131.5 44,-131.5 44,-112.5 0,-112.5"/>
<text text-anchor="middle" x="22" y="-119.5" font-family="Helvetica,sans-Serif" font-size="10.00">vector</text>
</g>
<!-- Node0&#45;&gt;Node2 -->
<g id="edge2" class="edge"><title>Node0&#45;&gt;Node2</title>
<path fill="none" stroke="midnightblue" d="M163.778,-224.399C155.224,-210.897 137.056,-184.566 116,-168 97.2311,-153.233 72.8277,-141.731 53.5896,-134.053"/>
<polygon fill="midnightblue" stroke="midnightblue" points="54.6473,-130.71 44.0573,-130.389 52.1358,-137.244 54.6473,-130.71"/>
</g>
<!-- Node3 -->
<g id="node4" class="node"><title>Node3</title>
<g id="a_node4"><a xlink:href="Vec2_8h.html" target="_top" xlink:title="Vec2.h">
<polygon fill="white" stroke="black" points="343.5,-56.5 343.5,-75.5 390.5,-75.5 390.5,-56.5 343.5,-56.5"/>
<text text-anchor="middle" x="367" y="-63.5" font-family="Helvetica,sans-Serif" font-size="10.00">Vec2.h</text>
</a>
</g>
</g>
<!-- Node0&#45;&gt;Node3 -->
<g id="edge3" class="edge"><title>Node0&#45;&gt;Node3</title>
<path fill="none" stroke="midnightblue" d="M236.711,-225.969C295.418,-215.891 377.048,-191.409 417,-132 429.153,-113.928 408.93,-94.2452 390.683,-81.3292"/>
<polygon fill="midnightblue" stroke="midnightblue" points="392.298,-78.1995 382.035,-75.5689 388.418,-84.0255 392.298,-78.1995"/>
</g>
<!-- Node5 -->
<g id="node6" class="node"><title>Node5</title>
<g id="a_node6"><a xlink:href="GameObject_8h.html" target="_top" xlink:title="GameObject.h">
<polygon fill="white" stroke="black" points="163,-168.5 163,-187.5 243,-187.5 243,-168.5 163,-168.5"/>
<text text-anchor="middle" x="203" y="-175.5" font-family="Helvetica,sans-Serif" font-size="10.00">GameObject.h</text>
</a>
</g>
</g>
<!-- Node0&#45;&gt;Node5 -->
<g id="edge5" class="edge"><title>Node0&#45;&gt;Node5</title>
<path fill="none" stroke="midnightblue" d="M174.614,-224.083C179.367,-216.534 186.318,-205.495 192.152,-196.23"/>
<polygon fill="midnightblue" stroke="midnightblue" points="195.124,-198.078 197.49,-187.751 189.2,-194.349 195.124,-198.078"/>
</g>
<!-- Node4 -->
<g id="node5" class="node"><title>Node4</title>
<g id="a_node5"><a xlink:href="SDL__include_8h.html" target="_top" xlink:title="SDL_include.h">
<polygon fill="white" stroke="black" points="275,-0.5 275,-19.5 355,-19.5 355,-0.5 275,-0.5"/>
<text text-anchor="middle" x="315" y="-7.5" font-family="Helvetica,sans-Serif" font-size="10.00">SDL_include.h</text>
</a>
</g>
</g>
<!-- Node3&#45;&gt;Node4 -->
<g id="edge4" class="edge"><title>Node3&#45;&gt;Node4</title>
<path fill="none" stroke="midnightblue" d="M358.413,-56.083C350.841,-48.2195 339.622,-36.5688 330.486,-27.0813"/>
<polygon fill="midnightblue" stroke="midnightblue" points="332.885,-24.5266 323.427,-19.7511 327.842,-29.3821 332.885,-24.5266"/>
</g>
<!-- Node5&#45;&gt;Node2 -->
<g id="edge7" class="edge"><title>Node5&#45;&gt;Node2</title>
<path fill="none" stroke="midnightblue" d="M174.32,-168.444C141.618,-158.687 88.2875,-142.776 54.1897,-132.604"/>
<polygon fill="midnightblue" stroke="midnightblue" points="54.8525,-129.149 44.2692,-129.644 52.8512,-135.857 54.8525,-129.149"/>
</g>
<!-- Node5&#45;&gt;Node4 -->
<g id="edge6" class="edge"><title>Node5&#45;&gt;Node4</title>
<path fill="none" stroke="midnightblue" d="M162.763,-172.171C137.571,-166.836 106.959,-155.611 91,-132 75.3171,-108.797 102.726,-66.2045 115,-56 137.449,-37.335 213.267,-24.1116 264.829,-17.021"/>
<polygon fill="midnightblue" stroke="midnightblue" points="265.349,-20.4827 274.795,-15.6848 264.418,-13.5448 265.349,-20.4827"/>
</g>
<!-- Node6 -->
<g id="node7" class="node"><title>Node6</title>
<polygon fill="white" stroke="#bfbfbf" points="356,-112.5 356,-131.5 408,-131.5 408,-112.5 356,-112.5"/>
<text text-anchor="middle" x="382" y="-119.5" font-family="Helvetica,sans-Serif" font-size="10.00">memory</text>
</g>
<!-- Node5&#45;&gt;Node6 -->
<g id="edge8" class="edge"><title>Node5&#45;&gt;Node6</title>
<path fill="none" stroke="midnightblue" d="M231.363,-168.444C262.364,-159.091 312.109,-144.084 345.879,-133.897"/>
<polygon fill="midnightblue" stroke="midnightblue" points="347.245,-137.141 355.808,-130.902 345.223,-130.439 347.245,-137.141"/>
</g>
<!-- Node7 -->
<g id="node8" class="node"><title>Node7</title>
<polygon fill="white" stroke="#bfbfbf" points="100.5,-112.5 100.5,-131.5 141.5,-131.5 141.5,-112.5 100.5,-112.5"/>
<text text-anchor="middle" x="121" y="-119.5" font-family="Helvetica,sans-Serif" font-size="10.00">string</text>
</g>
<!-- Node5&#45;&gt;Node7 -->
<g id="edge9" class="edge"><title>Node5&#45;&gt;Node7</title>
<path fill="none" stroke="midnightblue" d="M189.825,-168.324C177.153,-159.979 157.767,-147.212 142.794,-137.352"/>
<polygon fill="midnightblue" stroke="midnightblue" points="144.419,-134.231 134.142,-131.655 140.569,-140.078 144.419,-134.231"/>
</g>
<!-- Node8 -->
<g id="node9" class="node"><title>Node8</title>
<g id="a_node9"><a xlink:href="Component_8h.html" target="_top" xlink:title="Component.h">
<polygon fill="white" stroke="black" points="198.5,-112.5 198.5,-131.5 273.5,-131.5 273.5,-112.5 198.5,-112.5"/>
<text text-anchor="middle" x="236" y="-119.5" font-family="Helvetica,sans-Serif" font-size="10.00">Component.h</text>
</a>
</g>
</g>
<!-- Node5&#45;&gt;Node8 -->
<g id="edge10" class="edge"><title>Node5&#45;&gt;Node8</title>
<path fill="none" stroke="midnightblue" d="M203.283,-168.083C206.335,-160.455 212.791,-149.264 219.332,-139.941"/>
<polygon fill="midnightblue" stroke="midnightblue" points="222.284,-141.839 225.521,-131.751 216.7,-137.619 222.284,-141.839"/>
</g>
<!-- Node9 -->
<g id="node10" class="node"><title>Node9</title>
<g id="a_node10"><a xlink:href="ComponentType_8h.html" target="_top" xlink:title="ComponentType.h">
<polygon fill="white" stroke="black" points="124.5,-56.5 124.5,-75.5 221.5,-75.5 221.5,-56.5 124.5,-56.5"/>
<text text-anchor="middle" x="173" y="-63.5" font-family="Helvetica,sans-Serif" font-size="10.00">ComponentType.h</text>
</a>
</g>
</g>
<!-- Node5&#45;&gt;Node9 -->
<g id="edge13" class="edge"><title>Node5&#45;&gt;Node9</title>
<path fill="none" stroke="midnightblue" d="M200.161,-168.419C197.217,-159.398 192.554,-144.769 189,-132 184.709,-116.586 180.406,-98.9525 177.345,-85.9442"/>
<polygon fill="midnightblue" stroke="midnightblue" points="180.678,-84.824 175.006,-75.8754 173.86,-86.408 180.678,-84.824"/>
</g>
<!-- Node10 -->
<g id="node11" class="node"><title>Node10</title>
<g id="a_node11"><a xlink:href="Rect_8h.html" target="_top" xlink:title="Rect.h">
<polygon fill="white" stroke="black" points="292,-112.5 292,-131.5 338,-131.5 338,-112.5 292,-112.5"/>
<text text-anchor="middle" x="315" y="-119.5" font-family="Helvetica,sans-Serif" font-size="10.00">Rect.h</text>
</a>
</g>
</g>
<!-- Node5&#45;&gt;Node10 -->
<g id="edge14" class="edge"><title>Node5&#45;&gt;Node10</title>
<path fill="none" stroke="midnightblue" d="M220.995,-168.324C239.038,-159.625 267.047,-146.12 287.803,-136.113"/>
<polygon fill="midnightblue" stroke="midnightblue" points="289.562,-139.15 297.05,-131.655 286.522,-132.845 289.562,-139.15"/>
</g>
<!-- Node8&#45;&gt;Node5 -->
<g id="edge12" class="edge"><title>Node8&#45;&gt;Node5</title>
<path fill="none" stroke="midnightblue" d="M235.783,-131.751C232.781,-139.327 226.35,-150.505 219.811,-159.855"/>
<polygon fill="midnightblue" stroke="midnightblue" points="216.835,-157.989 213.616,-168.083 222.427,-162.2 216.835,-157.989"/>
</g>
<!-- Node8&#45;&gt;Node9 -->
<g id="edge11" class="edge"><title>Node8&#45;&gt;Node9</title>
<path fill="none" stroke="midnightblue" d="M225.878,-112.324C216.474,-104.263 202.256,-92.0765 190.931,-82.3695"/>
<polygon fill="midnightblue" stroke="midnightblue" points="193.177,-79.6844 183.306,-75.8339 188.621,-84.9993 193.177,-79.6844"/>
</g>
<!-- Node10&#45;&gt;Node3 -->
<g id="edge16" class="edge"><title>Node10&#45;&gt;Node3</title>
<path fill="none" stroke="midnightblue" d="M323.587,-112.083C331.159,-104.22 342.378,-92.5688 351.514,-83.0813"/>
<polygon fill="midnightblue" stroke="midnightblue" points="354.158,-85.3821 358.573,-75.7511 349.115,-80.5266 354.158,-85.3821"/>
</g>
<!-- Node10&#45;&gt;Node4 -->
<g id="edge15" class="edge"><title>Node10&#45;&gt;Node4</title>
<path fill="none" stroke="midnightblue" d="M315,-112.368C315,-94.617 315,-53.6664 315,-29.5974"/>
<polygon fill="midnightblue" stroke="midnightblue" points="318.5,-29.5914 315,-19.5914 311.5,-29.5915 318.5,-29.5914"/>
</g>
<!-- Node11 -->
<g id="node12" class="node"><title>Node11</title>
<polygon fill="white" stroke="#bfbfbf" points="243,-56.5 243,-75.5 287,-75.5 287,-56.5 243,-56.5"/>
<text text-anchor="middle" x="265" y="-63.5" font-family="Helvetica,sans-Serif" font-size="10.00">cmath</text>
</g>
<!-- Node10&#45;&gt;Node11 -->
<g id="edge17" class="edge"><title>Node10&#45;&gt;Node11</title>
<path fill="none" stroke="midnightblue" d="M306.744,-112.083C299.535,-104.298 288.89,-92.8015 280.154,-83.3665"/>
<polygon fill="midnightblue" stroke="midnightblue" points="282.465,-80.7108 273.103,-75.7511 277.329,-85.4666 282.465,-80.7108"/>
</g>
</g>
</svg>
