<?xml version="1.0" encoding="UTF-8" standalone="no"?>
<!DOCTYPE svg PUBLIC "-//W3C//DTD SVG 1.1//EN"
 "http://www.w3.org/Graphics/SVG/1.1/DTD/svg11.dtd">
<!-- Generated by graphviz version 2.38.0 (20140413.2041)
 -->
<!-- Title: include/RectTransform.h Pages: 1 -->
<svg width="417pt" height="84pt"
 viewBox="0.00 0.00 416.50 84.00" xmlns="http://www.w3.org/2000/svg" xmlns:xlink="http://www.w3.org/1999/xlink">
<g id="graph0" class="graph" transform="scale(1 1) rotate(0) translate(4 80)">
<title>include/RectTransform.h</title>
<polygon fill="white" stroke="none" points="-4,4 -4,-80 412.5,-80 412.5,4 -4,4"/>
<!-- Node12 -->
<g id="node1" class="node"><title>Node12</title>
<polygon fill="#bfbfbf" stroke="black" points="139,-56.5 139,-75.5 263,-75.5 263,-56.5 139,-56.5"/>
<text text-anchor="middle" x="201" y="-63.5" font-family="Helvetica,sans-Serif" font-size="10.00">include/RectTransform.h</text>
</g>
<!-- Node13 -->
<g id="node2" class="node"><title>Node13</title>
<g id="a_node2"><a xlink:href="Button_8cpp.html" target="_top" xlink:title="src/Button.cpp">
<polygon fill="white" stroke="black" points="0,-0.5 0,-19.5 80,-19.5 80,-0.5 0,-0.5"/>
<text text-anchor="middle" x="40" y="-7.5" font-family="Helvetica,sans-Serif" font-size="10.00">src/Button.cpp</text>
</a>
</g>
</g>
<!-- Node12&#45;&gt;Node13 -->
<g id="edge1" class="edge"><title>Node12&#45;&gt;Node13</title>
<path fill="none" stroke="midnightblue" d="M165.735,-53.172C135.419,-43.0039 92.4298,-28.5852 65.3916,-19.5164"/>
<polygon fill="midnightblue" stroke="midnightblue" points="164.895,-56.5819 175.489,-56.4435 167.121,-49.9452 164.895,-56.5819"/>
</g>
<!-- Node14 -->
<g id="node3" class="node"><title>Node14</title>
<g id="a_node3"><a xlink:href="Grouper_8cpp.html" target="_top" xlink:title="src/Grouper.cpp">
<polygon fill="white" stroke="black" points="98,-0.5 98,-19.5 184,-19.5 184,-0.5 98,-0.5"/>
<text text-anchor="middle" x="141" y="-7.5" font-family="Helvetica,sans-Serif" font-size="10.00">src/Grouper.cpp</text>
</a>
</g>
</g>
<!-- Node12&#45;&gt;Node14 -->
<g id="edge2" class="edge"><title>Node12&#45;&gt;Node14</title>
<path fill="none" stroke="midnightblue" d="M183.819,-49.5372C173.121,-39.9087 159.744,-27.8694 150.815,-19.8339"/>
<polygon fill="midnightblue" stroke="midnightblue" points="181.586,-52.2358 191.36,-56.324 186.268,-47.0327 181.586,-52.2358"/>
</g>
<!-- Node15 -->
<g id="node4" class="node"><title>Node15</title>
<g id="a_node4"><a xlink:href="RectTransform_8cpp.html" target="_top" xlink:title="src/RectTransform.cpp">
<polygon fill="white" stroke="black" points="202.5,-0.5 202.5,-19.5 319.5,-19.5 319.5,-0.5 202.5,-0.5"/>
<text text-anchor="middle" x="261" y="-7.5" font-family="Helvetica,sans-Serif" font-size="10.00">src/RectTransform.cpp</text>
</a>
</g>
</g>
<!-- Node12&#45;&gt;Node15 -->
<g id="edge3" class="edge"><title>Node12&#45;&gt;Node15</title>
<path fill="none" stroke="midnightblue" d="M218.181,-49.5372C228.879,-39.9087 242.256,-27.8694 251.185,-19.8339"/>
<polygon fill="midnightblue" stroke="midnightblue" points="215.732,-47.0327 210.64,-56.324 220.414,-52.2358 215.732,-47.0327"/>
</g>
<!-- Node16 -->
<g id="node5" class="node"><title>Node16</title>
<g id="a_node5"><a xlink:href="Text_8cpp.html" target="_top" xlink:title="src/Text.cpp">
<polygon fill="white" stroke="black" points="337.5,-0.5 337.5,-19.5 408.5,-19.5 408.5,-0.5 337.5,-0.5"/>
<text text-anchor="middle" x="373" y="-7.5" font-family="Helvetica,sans-Serif" font-size="10.00">src/Text.cpp</text>
</a>
</g>
</g>
<!-- Node12&#45;&gt;Node16 -->
<g id="edge4" class="edge"><title>Node12&#45;&gt;Node16</title>
<path fill="none" stroke="midnightblue" d="M237.832,-53.4363C270.262,-43.2551 316.737,-28.664 345.874,-19.5164"/>
<polygon fill="midnightblue" stroke="midnightblue" points="236.746,-50.1088 228.254,-56.4435 238.843,-56.7874 236.746,-50.1088"/>
</g>
</g>
</svg>
