<?xml version="1.0" encoding="UTF-8" standalone="no"?>
<!DOCTYPE svg PUBLIC "-//W3C//DTD SVG 1.1//EN"
 "http://www.w3.org/Graphics/SVG/1.1/DTD/svg11.dtd">
<!-- Generated by graphviz version 2.40.1 (20161225.0304)
 -->
<!-- Title: src/RectTransform.cpp Pages: 1 -->
<svg width="907pt" height="364pt"
 viewBox="0.00 0.00 906.63 364.00" xmlns="http://www.w3.org/2000/svg" xmlns:xlink="http://www.w3.org/1999/xlink">
<g id="graph0" class="graph" transform="scale(1 1) rotate(0) translate(4 360)">
<title>src/RectTransform.cpp</title>
<polygon fill="#ffffff" stroke="transparent" points="-4,4 -4,-360 902.625,-360 902.625,4 -4,4"/>
<!-- Node0 -->
<g id="node1" class="node">
<title>Node0</title>
<polygon fill="#bfbfbf" stroke="#000000" points="369.125,-336.5 369.125,-355.5 486.125,-355.5 486.125,-336.5 369.125,-336.5"/>
<text text-anchor="middle" x="427.625" y="-343.5" font-family="Helvetica,sans-Serif" font-size="10.00" fill="#000000">src/RectTransform.cpp</text>
</g>
<!-- Node1 -->
<g id="node2" class="node">
<title>Node1</title>
<g id="a_node2"><a xlink:href="RectTransform_8h.html" target="_top" xlink:title="RectTransform.h">
<polygon fill="#ffffff" stroke="#000000" points="64.625,-280.5 64.625,-299.5 154.625,-299.5 154.625,-280.5 64.625,-280.5"/>
<text text-anchor="middle" x="109.625" y="-287.5" font-family="Helvetica,sans-Serif" font-size="10.00" fill="#000000">RectTransform.h</text>
</a>
</g>
</g>
<!-- Node0&#45;&gt;Node1 -->
<g id="edge1" class="edge">
<title>Node0&#45;&gt;Node1</title>
<path fill="none" stroke="#191970" d="M373.3202,-336.4369C315.2518,-326.211 223.6458,-310.0791 165.1229,-299.7732"/>
<polygon fill="#191970" stroke="#191970" points="165.4092,-296.2699 154.9537,-297.9824 164.1951,-303.1638 165.4092,-296.2699"/>
</g>
<!-- Node13 -->
<g id="node14" class="node">
<title>Node13</title>
<g id="a_node14"><a xlink:href="Camera_8h.html" target="_top" xlink:title="Camera.h">
<polygon fill="#ffffff" stroke="#000000" points="317.125,-280.5 317.125,-299.5 376.125,-299.5 376.125,-280.5 317.125,-280.5"/>
<text text-anchor="middle" x="346.625" y="-287.5" font-family="Helvetica,sans-Serif" font-size="10.00" fill="#000000">Camera.h</text>
</a>
</g>
</g>
<!-- Node0&#45;&gt;Node13 -->
<g id="edge22" class="edge">
<title>Node0&#45;&gt;Node13</title>
<path fill="none" stroke="#191970" d="M413.5159,-336.2455C401.2041,-327.7337 383.1292,-315.2375 368.8712,-305.3801"/>
<polygon fill="#191970" stroke="#191970" points="370.7884,-302.4506 360.5725,-299.6427 366.8076,-308.2085 370.7884,-302.4506"/>
</g>
<!-- Node18 -->
<g id="node19" class="node">
<title>Node18</title>
<g id="a_node19"><a xlink:href="Error_8h.html" target="_top" xlink:title="Error.h">
<polygon fill="#ffffff" stroke="#000000" points="450.625,-280.5 450.625,-299.5 496.625,-299.5 496.625,-280.5 450.625,-280.5"/>
<text text-anchor="middle" x="473.625" y="-287.5" font-family="Helvetica,sans-Serif" font-size="10.00" fill="#000000">Error.h</text>
</a>
</g>
</g>
<!-- Node0&#45;&gt;Node18 -->
<g id="edge31" class="edge">
<title>Node0&#45;&gt;Node18</title>
<path fill="none" stroke="#191970" d="M435.6376,-336.2455C442.1018,-328.3761 451.3635,-317.101 459.1234,-307.6542"/>
<polygon fill="#191970" stroke="#191970" points="462.0614,-309.5916 465.7042,-299.6427 456.6523,-305.1484 462.0614,-309.5916"/>
</g>
<!-- Node21 -->
<g id="node22" class="node">
<title>Node21</title>
<g id="a_node22"><a xlink:href="Game_8h.html" target="_top" xlink:title="Game.h">
<polygon fill="#ffffff" stroke="#000000" points="681.125,-280.5 681.125,-299.5 732.125,-299.5 732.125,-280.5 681.125,-280.5"/>
<text text-anchor="middle" x="706.625" y="-287.5" font-family="Helvetica,sans-Serif" font-size="10.00" fill="#000000">Game.h</text>
</a>
</g>
</g>
<!-- Node0&#45;&gt;Node21 -->
<g id="edge34" class="edge">
<title>Node0&#45;&gt;Node21</title>
<path fill="none" stroke="#191970" d="M475.2698,-336.4369C530.7748,-325.2961 621.2048,-307.1453 670.976,-297.1554"/>
<polygon fill="#191970" stroke="#191970" points="671.8367,-300.5525 680.9523,-295.1529 670.4591,-293.6894 671.8367,-300.5525"/>
</g>
<!-- Node2 -->
<g id="node3" class="node">
<title>Node2</title>
<polygon fill="#ffffff" stroke="#bfbfbf" points="165.125,-224.5 165.125,-243.5 206.125,-243.5 206.125,-224.5 165.125,-224.5"/>
<text text-anchor="middle" x="185.625" y="-231.5" font-family="Helvetica,sans-Serif" font-size="10.00" fill="#000000">cfloat</text>
</g>
<!-- Node1&#45;&gt;Node2 -->
<g id="edge2" class="edge">
<title>Node1&#45;&gt;Node2</title>
<path fill="none" stroke="#191970" d="M122.8632,-280.2455C134.306,-271.814 151.0546,-259.4729 164.3725,-249.6598"/>
<polygon fill="#191970" stroke="#191970" points="166.5642,-252.3924 172.5385,-243.6427 162.4117,-246.757 166.5642,-252.3924"/>
</g>
<!-- Node3 -->
<g id="node4" class="node">
<title>Node3</title>
<g id="a_node4"><a xlink:href="Component_8h.html" target="_top" xlink:title="Component.h">
<polygon fill="#ffffff" stroke="#000000" points="72.125,-224.5 72.125,-243.5 147.125,-243.5 147.125,-224.5 72.125,-224.5"/>
<text text-anchor="middle" x="109.625" y="-231.5" font-family="Helvetica,sans-Serif" font-size="10.00" fill="#000000">Component.h</text>
</a>
</g>
</g>
<!-- Node1&#45;&gt;Node3 -->
<g id="edge3" class="edge">
<title>Node1&#45;&gt;Node3</title>
<path fill="none" stroke="#191970" d="M109.625,-280.2455C109.625,-272.9382 109.625,-262.6944 109.625,-253.7046"/>
<polygon fill="#191970" stroke="#191970" points="113.1251,-253.6426 109.625,-243.6427 106.1251,-253.6427 113.1251,-253.6426"/>
</g>
<!-- Node4 -->
<g id="node5" class="node">
<title>Node4</title>
<g id="a_node5"><a xlink:href="ComponentType_8h.html" target="_top" xlink:title="ComponentType.h">
<polygon fill="#ffffff" stroke="#000000" points="61.125,-112.5 61.125,-131.5 158.125,-131.5 158.125,-112.5 61.125,-112.5"/>
<text text-anchor="middle" x="109.625" y="-119.5" font-family="Helvetica,sans-Serif" font-size="10.00" fill="#000000">ComponentType.h</text>
</a>
</g>
</g>
<!-- Node1&#45;&gt;Node4 -->
<g id="edge18" class="edge">
<title>Node1&#45;&gt;Node4</title>
<path fill="none" stroke="#191970" d="M77.735,-280.4777C60.2073,-273.43 39.9745,-261.8893 29.625,-244 12.7103,-214.7625 12.7103,-197.2375 29.625,-168 38.1957,-153.1854 53.5443,-142.7247 68.5215,-135.5639"/>
<polygon fill="#191970" stroke="#191970" points="69.9834,-138.7446 77.735,-131.5223 67.1714,-132.3342 69.9834,-138.7446"/>
</g>
<!-- Node5 -->
<g id="node6" class="node">
<title>Node5</title>
<g id="a_node6"><a xlink:href="GameObject_8h.html" target="_top" xlink:title="GameObject.h">
<polygon fill="#ffffff" stroke="#000000" points="217.625,-168.5 217.625,-187.5 297.625,-187.5 297.625,-168.5 217.625,-168.5"/>
<text text-anchor="middle" x="257.625" y="-175.5" font-family="Helvetica,sans-Serif" font-size="10.00" fill="#000000">GameObject.h</text>
</a>
</g>
</g>
<!-- Node1&#45;&gt;Node5 -->
<g id="edge19" class="edge">
<title>Node1&#45;&gt;Node5</title>
<path fill="none" stroke="#191970" d="M144.5758,-280.365C166.4668,-273.0391 194.2818,-261.2441 214.625,-244 229.8819,-231.0674 241.7406,-211.3708 249.1043,-196.8594"/>
<polygon fill="#191970" stroke="#191970" points="252.2871,-198.3169 253.4707,-187.7884 245.9798,-195.2808 252.2871,-198.3169"/>
</g>
<!-- Node10 -->
<g id="node11" class="node">
<title>Node10</title>
<g id="a_node11"><a xlink:href="Rect_8h.html" target="_top" xlink:title="Rect.h">
<polygon fill="#ffffff" stroke="#000000" points="213.625,-112.5 213.625,-131.5 259.625,-131.5 259.625,-112.5 213.625,-112.5"/>
<text text-anchor="middle" x="236.625" y="-119.5" font-family="Helvetica,sans-Serif" font-size="10.00" fill="#000000">Rect.h</text>
</a>
</g>
</g>
<!-- Node1&#45;&gt;Node10 -->
<g id="edge20" class="edge">
<title>Node1&#45;&gt;Node10</title>
<path fill="none" stroke="#191970" d="M94.1919,-280.3442C76.2442,-267.8329 50.527,-245.1153 62.625,-224 92.9389,-171.0912 162.5259,-142.9657 203.9286,-130.3886"/>
<polygon fill="#191970" stroke="#191970" points="204.9318,-133.7419 213.5572,-127.5894 202.9777,-127.0202 204.9318,-133.7419"/>
</g>
<!-- Node11 -->
<g id="node12" class="node">
<title>Node11</title>
<g id="a_node12"><a xlink:href="Vec2_8h.html" target="_top" xlink:title="Vec2.h">
<polygon fill="#ffffff" stroke="#000000" points="316.125,-56.5 316.125,-75.5 363.125,-75.5 363.125,-56.5 316.125,-56.5"/>
<text text-anchor="middle" x="339.625" y="-63.5" font-family="Helvetica,sans-Serif" font-size="10.00" fill="#000000">Vec2.h</text>
</a>
</g>
</g>
<!-- Node1&#45;&gt;Node11 -->
<g id="edge21" class="edge">
<title>Node1&#45;&gt;Node11</title>
<path fill="none" stroke="#191970" d="M68.4265,-280.3939C49.1759,-273.6178 28.0286,-262.3627 16.625,-244 -15.3949,-192.4395 1.0335,-145.5299 51.625,-112 56.9174,-108.4924 230.8097,-82.2286 305.7802,-71.0322"/>
<polygon fill="#191970" stroke="#191970" points="306.7177,-74.4311 316.0919,-69.4941 305.6849,-67.5077 306.7177,-74.4311"/>
</g>
<!-- Node3&#45;&gt;Node4 -->
<g id="edge4" class="edge">
<title>Node3&#45;&gt;Node4</title>
<path fill="none" stroke="#191970" d="M109.625,-224.4509C109.625,-206.184 109.625,-165.9553 109.625,-141.6976"/>
<polygon fill="#191970" stroke="#191970" points="113.1251,-141.5249 109.625,-131.5249 106.1251,-141.5249 113.1251,-141.5249"/>
</g>
<!-- Node3&#45;&gt;Node5 -->
<g id="edge5" class="edge">
<title>Node3&#45;&gt;Node5</title>
<path fill="none" stroke="#191970" d="M129.8251,-224.3733C152.4163,-215.1419 189.237,-201.1402 217.6395,-190.9375"/>
<polygon fill="#191970" stroke="#191970" points="219.0495,-194.1508 227.2976,-187.5011 216.7029,-187.5558 219.0495,-194.1508"/>
</g>
<!-- Node5&#45;&gt;Node3 -->
<g id="edge10" class="edge">
<title>Node5&#45;&gt;Node3</title>
<path fill="none" stroke="#191970" d="M237.7322,-187.5011C215.2709,-196.6889 178.4771,-210.686 149.9985,-220.9231"/>
<polygon fill="#191970" stroke="#191970" points="148.5557,-217.7215 140.3091,-224.3733 150.9038,-224.316 148.5557,-217.7215"/>
</g>
<!-- Node5&#45;&gt;Node4 -->
<g id="edge11" class="edge">
<title>Node5&#45;&gt;Node4</title>
<path fill="none" stroke="#191970" d="M232.1829,-168.3733C207.8924,-159.1822 171.1042,-145.2624 144.1707,-135.0713"/>
<polygon fill="#191970" stroke="#191970" points="145.3266,-131.7666 134.7351,-131.5011 142.8493,-138.3136 145.3266,-131.7666"/>
</g>
<!-- Node6 -->
<g id="node7" class="node">
<title>Node6</title>
<g id="a_node7"><a xlink:href="SDL__include_8h.html" target="_top" xlink:title="SDL_include.h">
<polygon fill="#ffffff" stroke="#000000" points="446.625,-.5 446.625,-19.5 526.625,-19.5 526.625,-.5 446.625,-.5"/>
<text text-anchor="middle" x="486.625" y="-7.5" font-family="Helvetica,sans-Serif" font-size="10.00" fill="#000000">SDL_include.h</text>
</a>
</g>
</g>
<!-- Node5&#45;&gt;Node6 -->
<g id="edge6" class="edge">
<title>Node5&#45;&gt;Node6</title>
<path fill="none" stroke="#191970" d="M260.264,-168.3912C267.5822,-142.4057 288.7714,-71.6443 306.625,-56 325.8354,-39.1668 390.171,-25.5555 436.4441,-17.6223"/>
<polygon fill="#191970" stroke="#191970" points="437.0291,-21.0732 446.3133,-15.9687 435.8723,-14.1694 437.0291,-21.0732"/>
</g>
<!-- Node7 -->
<g id="node8" class="node">
<title>Node7</title>
<polygon fill="#ffffff" stroke="#bfbfbf" points="416.625,-112.5 416.625,-131.5 460.625,-131.5 460.625,-112.5 416.625,-112.5"/>
<text text-anchor="middle" x="438.625" y="-119.5" font-family="Helvetica,sans-Serif" font-size="10.00" fill="#000000">vector</text>
</g>
<!-- Node5&#45;&gt;Node7 -->
<g id="edge7" class="edge">
<title>Node5&#45;&gt;Node7</title>
<path fill="none" stroke="#191970" d="M288.74,-168.3733C321.7158,-158.1708 373.525,-142.1414 406.7768,-131.8536"/>
<polygon fill="#191970" stroke="#191970" points="407.9405,-135.1573 416.4592,-128.8579 405.8714,-128.4701 407.9405,-135.1573"/>
</g>
<!-- Node8 -->
<g id="node9" class="node">
<title>Node8</title>
<polygon fill="#ffffff" stroke="#bfbfbf" points="478.625,-112.5 478.625,-131.5 530.625,-131.5 530.625,-112.5 478.625,-112.5"/>
<text text-anchor="middle" x="504.625" y="-119.5" font-family="Helvetica,sans-Serif" font-size="10.00" fill="#000000">memory</text>
</g>
<!-- Node5&#45;&gt;Node8 -->
<g id="edge8" class="edge">
<title>Node5&#45;&gt;Node8</title>
<path fill="none" stroke="#191970" d="M297.6585,-170.1171C338.3297,-161.9305 403.3447,-148.3567 468.3011,-132.2229"/>
<polygon fill="#191970" stroke="#191970" points="469.4509,-135.5431 478.3009,-129.7184 467.7501,-128.7529 469.4509,-135.5431"/>
</g>
<!-- Node9 -->
<g id="node10" class="node">
<title>Node9</title>
<polygon fill="#ffffff" stroke="#bfbfbf" points="549.125,-112.5 549.125,-131.5 590.125,-131.5 590.125,-112.5 549.125,-112.5"/>
<text text-anchor="middle" x="569.625" y="-119.5" font-family="Helvetica,sans-Serif" font-size="10.00" fill="#000000">string</text>
</g>
<!-- Node5&#45;&gt;Node9 -->
<g id="edge9" class="edge">
<title>Node5&#45;&gt;Node9</title>
<path fill="none" stroke="#191970" d="M297.7271,-173.5103C350.8979,-167.1095 447.71,-153.9016 539.384,-131.7142"/>
<polygon fill="#191970" stroke="#191970" points="540.2212,-135.1127 549.0953,-129.3248 538.5487,-128.3154 540.2212,-135.1127"/>
</g>
<!-- Node5&#45;&gt;Node10 -->
<g id="edge12" class="edge">
<title>Node5&#45;&gt;Node10</title>
<path fill="none" stroke="#191970" d="M253.9671,-168.2455C251.1666,-160.7776 247.216,-150.2427 243.7927,-141.1137"/>
<polygon fill="#191970" stroke="#191970" points="247.0295,-139.777 240.241,-131.6427 240.4752,-142.2349 247.0295,-139.777"/>
</g>
<!-- Node10&#45;&gt;Node6 -->
<g id="edge13" class="edge">
<title>Node10&#45;&gt;Node6</title>
<path fill="none" stroke="#191970" d="M225.9284,-112.1087C212.2921,-98.3152 192.1238,-73.0779 206.625,-56 221.2997,-38.7177 359.6611,-22.5038 436.2328,-14.7586"/>
<polygon fill="#191970" stroke="#191970" points="437.0053,-18.199 446.608,-13.7227 436.3098,-11.2336 437.0053,-18.199"/>
</g>
<!-- Node10&#45;&gt;Node11 -->
<g id="edge14" class="edge">
<title>Node10&#45;&gt;Node11</title>
<path fill="none" stroke="#191970" d="M249.2994,-112.2455C263.9063,-103.3724 287.9617,-90.1693 307.6651,-80.1394"/>
<polygon fill="#191970" stroke="#191970" points="309.2701,-83.2501 316.6442,-75.6427 306.1356,-76.9911 309.2701,-83.2501"/>
</g>
<!-- Node12 -->
<g id="node13" class="node">
<title>Node12</title>
<polygon fill="#ffffff" stroke="#bfbfbf" points="215.625,-56.5 215.625,-75.5 259.625,-75.5 259.625,-56.5 215.625,-56.5"/>
<text text-anchor="middle" x="237.625" y="-63.5" font-family="Helvetica,sans-Serif" font-size="10.00" fill="#000000">cmath</text>
</g>
<!-- Node10&#45;&gt;Node12 -->
<g id="edge17" class="edge">
<title>Node10&#45;&gt;Node12</title>
<path fill="none" stroke="#191970" d="M236.7992,-112.2455C236.9297,-104.9382 237.1126,-94.6944 237.2731,-85.7046"/>
<polygon fill="#191970" stroke="#191970" points="240.7736,-85.7036 237.4528,-75.6427 233.7747,-85.5786 240.7736,-85.7036"/>
</g>
<!-- Node11&#45;&gt;Node6 -->
<g id="edge15" class="edge">
<title>Node11&#45;&gt;Node6</title>
<path fill="none" stroke="#191970" d="M363.2431,-57.0026C387.2409,-47.8606 424.6712,-33.6014 452.0153,-23.1846"/>
<polygon fill="#191970" stroke="#191970" points="453.4907,-26.368 461.5896,-19.5373 450.9987,-19.8266 453.4907,-26.368"/>
</g>
<!-- Node11&#45;&gt;Node10 -->
<g id="edge16" class="edge">
<title>Node11&#45;&gt;Node10</title>
<path fill="none" stroke="#191970" d="M327.367,-75.5011C312.8155,-84.3679 288.5148,-97.7139 268.6315,-107.8368"/>
<polygon fill="#191970" stroke="#191970" points="266.9474,-104.7658 259.5734,-112.3733 270.082,-111.0247 266.9474,-104.7658"/>
</g>
<!-- Node13&#45;&gt;Node5 -->
<g id="edge23" class="edge">
<title>Node13&#45;&gt;Node5</title>
<path fill="none" stroke="#191970" d="M334.1582,-280.2933C323.416,-271.5405 307.9038,-257.9368 296.625,-244 284.6325,-229.1812 273.8508,-210.2836 266.6793,-196.5105"/>
<polygon fill="#191970" stroke="#191970" points="269.7675,-194.8614 262.1297,-187.5187 263.5216,-198.0218 269.7675,-194.8614"/>
</g>
<!-- Node13&#45;&gt;Node11 -->
<g id="edge24" class="edge">
<title>Node13&#45;&gt;Node11</title>
<path fill="none" stroke="#191970" d="M341.9401,-280.4115C337.7648,-271.2959 331.9636,-257.0744 329.625,-244 319.4849,-187.3106 329.3671,-118.9975 335.5234,-85.9032"/>
<polygon fill="#191970" stroke="#191970" points="339.0259,-86.2282 337.5066,-75.7429 332.1556,-84.8871 339.0259,-86.2282"/>
</g>
<!-- Node14 -->
<g id="node15" class="node">
<title>Node14</title>
<g id="a_node15"><a xlink:href="ActionManager_8h.html" target="_top" xlink:title="ActionManager.h">
<polygon fill="#ffffff" stroke="#000000" points="338.625,-224.5 338.625,-243.5 428.625,-243.5 428.625,-224.5 338.625,-224.5"/>
<text text-anchor="middle" x="383.625" y="-231.5" font-family="Helvetica,sans-Serif" font-size="10.00" fill="#000000">ActionManager.h</text>
</a>
</g>
</g>
<!-- Node13&#45;&gt;Node14 -->
<g id="edge25" class="edge">
<title>Node13&#45;&gt;Node14</title>
<path fill="none" stroke="#191970" d="M353.0699,-280.2455C358.1632,-272.5367 365.4159,-261.5598 371.577,-252.2348"/>
<polygon fill="#191970" stroke="#191970" points="374.6615,-253.9155 377.254,-243.6427 368.8212,-250.0566 374.6615,-253.9155"/>
</g>
<!-- Node15 -->
<g id="node16" class="node">
<title>Node15</title>
<g id="a_node16"><a xlink:href="InputManager_8h.html" target="_top" xlink:title="InputManager.h">
<polygon fill="#ffffff" stroke="#000000" points="754.625,-168.5 754.625,-187.5 838.625,-187.5 838.625,-168.5 754.625,-168.5"/>
<text text-anchor="middle" x="796.625" y="-175.5" font-family="Helvetica,sans-Serif" font-size="10.00" fill="#000000">InputManager.h</text>
</a>
</g>
</g>
<!-- Node14&#45;&gt;Node15 -->
<g id="edge26" class="edge">
<title>Node14&#45;&gt;Node15</title>
<path fill="none" stroke="#191970" d="M428.6741,-225.4637C431.7002,-224.9501 434.7049,-224.4571 437.625,-224 546.2747,-206.9925 674.1574,-191.7399 744.1946,-183.7917"/>
<polygon fill="#191970" stroke="#191970" points="744.9689,-187.2266 754.5128,-182.6261 744.1831,-180.2708 744.9689,-187.2266"/>
</g>
<!-- Node15&#45;&gt;Node6 -->
<g id="edge27" class="edge">
<title>Node15&#45;&gt;Node6</title>
<path fill="none" stroke="#191970" d="M794.4955,-168.0705C790.9322,-153.7632 782.4356,-127.3832 765.625,-112 700.5258,-52.4283 597.814,-26.9233 536.8481,-16.5584"/>
<polygon fill="#191970" stroke="#191970" points="537.134,-13.0589 526.7017,-14.9078 536.01,-19.9681 537.134,-13.0589"/>
</g>
<!-- Node15&#45;&gt;Node11 -->
<g id="edge28" class="edge">
<title>Node15&#45;&gt;Node11</title>
<path fill="none" stroke="#191970" d="M791.4787,-168.3651C782.9234,-153.4215 764.2509,-125.0236 739.625,-112 676.2927,-78.5061 457.9251,-69.1577 373.4053,-66.7619"/>
<polygon fill="#191970" stroke="#191970" points="373.4081,-63.2608 363.3178,-66.4913 373.2203,-70.2583 373.4081,-63.2608"/>
</g>
<!-- Node16 -->
<g id="node17" class="node">
<title>Node16</title>
<polygon fill="#ffffff" stroke="#bfbfbf" points="647.125,-112.5 647.125,-131.5 730.125,-131.5 730.125,-112.5 647.125,-112.5"/>
<text text-anchor="middle" x="688.625" y="-119.5" font-family="Helvetica,sans-Serif" font-size="10.00" fill="#000000">unordered_map</text>
</g>
<!-- Node15&#45;&gt;Node16 -->
<g id="edge29" class="edge">
<title>Node15&#45;&gt;Node16</title>
<path fill="none" stroke="#191970" d="M777.8128,-168.2455C760.7777,-159.4125 735.4675,-146.2887 716.1569,-136.2758"/>
<polygon fill="#191970" stroke="#191970" points="717.7103,-133.1388 707.2216,-131.6427 714.488,-139.353 717.7103,-133.1388"/>
</g>
<!-- Node17 -->
<g id="node18" class="node">
<title>Node17</title>
<polygon fill="#ffffff" stroke="#bfbfbf" points="824.625,-112.5 824.625,-131.5 870.625,-131.5 870.625,-112.5 824.625,-112.5"/>
<text text-anchor="middle" x="847.625" y="-119.5" font-family="Helvetica,sans-Serif" font-size="10.00" fill="#000000">cstdint</text>
</g>
<!-- Node15&#45;&gt;Node17 -->
<g id="edge30" class="edge">
<title>Node15&#45;&gt;Node17</title>
<path fill="none" stroke="#191970" d="M805.5085,-168.2455C812.8216,-160.2155 823.3641,-148.6394 832.0717,-139.0781"/>
<polygon fill="#191970" stroke="#191970" points="834.6977,-141.3928 838.8433,-131.6427 829.5223,-136.6795 834.6977,-141.3928"/>
</g>
<!-- Node19 -->
<g id="node20" class="node">
<title>Node19</title>
<polygon fill="#ffffff" stroke="#bfbfbf" points="446.625,-224.5 446.625,-243.5 500.625,-243.5 500.625,-224.5 446.625,-224.5"/>
<text text-anchor="middle" x="473.625" y="-231.5" font-family="Helvetica,sans-Serif" font-size="10.00" fill="#000000">iostream</text>
</g>
<!-- Node18&#45;&gt;Node19 -->
<g id="edge32" class="edge">
<title>Node18&#45;&gt;Node19</title>
<path fill="none" stroke="#191970" d="M473.625,-280.2455C473.625,-272.9382 473.625,-262.6944 473.625,-253.7046"/>
<polygon fill="#191970" stroke="#191970" points="477.1251,-253.6426 473.625,-243.6427 470.1251,-253.6427 477.1251,-253.6426"/>
</g>
<!-- Node20 -->
<g id="node21" class="node">
<title>Node20</title>
<polygon fill="#ffffff" stroke="#bfbfbf" points="518.625,-224.5 518.625,-243.5 566.625,-243.5 566.625,-224.5 518.625,-224.5"/>
<text text-anchor="middle" x="542.625" y="-231.5" font-family="Helvetica,sans-Serif" font-size="10.00" fill="#000000">stdlib.h</text>
</g>
<!-- Node18&#45;&gt;Node20 -->
<g id="edge33" class="edge">
<title>Node18&#45;&gt;Node20</title>
<path fill="none" stroke="#191970" d="M485.6439,-280.2455C495.8349,-271.9746 510.6612,-259.9416 522.6357,-250.2232"/>
<polygon fill="#191970" stroke="#191970" points="525.1849,-252.662 530.7439,-243.6427 520.7737,-247.2268 525.1849,-252.662"/>
</g>
<!-- Node21&#45;&gt;Node6 -->
<g id="edge49" class="edge">
<title>Node21&#45;&gt;Node6</title>
<path fill="none" stroke="#191970" d="M732.519,-287.0092C784.9268,-279.3656 898.625,-254.0225 898.625,-178 898.625,-178 898.625,-178 898.625,-122 898.625,-47.859 647.0423,-21.199 537.067,-13.0869"/>
<polygon fill="#191970" stroke="#191970" points="537.1036,-9.5807 526.8795,-12.3588 536.6045,-16.5629 537.1036,-9.5807"/>
</g>
<!-- Node21&#45;&gt;Node9 -->
<g id="edge35" class="edge">
<title>Node21&#45;&gt;Node9</title>
<path fill="none" stroke="#191970" d="M717.7078,-280.147C730.8201,-267.2356 749.6782,-243.8951 739.625,-224 712.078,-169.4847 641.0315,-141.5355 600.0311,-129.5174"/>
<polygon fill="#191970" stroke="#191970" points="600.8723,-126.1184 590.2994,-126.7987 598.9889,-132.8603 600.8723,-126.1184"/>
</g>
<!-- Node21&#45;&gt;Node11 -->
<g id="edge48" class="edge">
<title>Node21&#45;&gt;Node11</title>
<path fill="none" stroke="#191970" d="M698.9706,-280.3695C686.9941,-265.951 662.4072,-238.8626 635.625,-224 582.0792,-194.2851 559.065,-211.7623 502.625,-188 457.4533,-168.9819 446.5964,-161.7222 407.625,-132 388.1601,-117.1547 368.3497,-97.2695 355.1715,-83.2184"/>
<polygon fill="#191970" stroke="#191970" points="357.5866,-80.6747 348.2314,-75.7016 352.4435,-85.4232 357.5866,-80.6747"/>
</g>
<!-- Node21&#45;&gt;Node15 -->
<g id="edge47" class="edge">
<title>Node21&#45;&gt;Node15</title>
<path fill="none" stroke="#191970" d="M726.4307,-280.4457C741.016,-272.5062 760.3665,-259.9445 772.625,-244 783.0626,-230.424 789.2714,-211.878 792.7498,-197.9021"/>
<polygon fill="#191970" stroke="#191970" points="796.2296,-198.377 794.9826,-187.8558 789.3963,-196.8582 796.2296,-198.377"/>
</g>
<!-- Node22 -->
<g id="node23" class="node">
<title>Node22</title>
<polygon fill="#ffffff" stroke="#bfbfbf" points="585.125,-224.5 585.125,-243.5 626.125,-243.5 626.125,-224.5 585.125,-224.5"/>
<text text-anchor="middle" x="605.625" y="-231.5" font-family="Helvetica,sans-Serif" font-size="10.00" fill="#000000">stack</text>
</g>
<!-- Node21&#45;&gt;Node22 -->
<g id="edge36" class="edge">
<title>Node21&#45;&gt;Node22</title>
<path fill="none" stroke="#191970" d="M689.0322,-280.2455C673.246,-271.4928 649.8611,-258.527 631.8663,-248.5496"/>
<polygon fill="#191970" stroke="#191970" points="633.4591,-245.4308 623.0163,-243.6427 630.0647,-251.5528 633.4591,-245.4308"/>
</g>
<!-- Node23 -->
<g id="node24" class="node">
<title>Node23</title>
<g id="a_node24"><a xlink:href="State_8h.html" target="_top" xlink:title="State.h">
<polygon fill="#ffffff" stroke="#000000" points="682.625,-224.5 682.625,-243.5 730.625,-243.5 730.625,-224.5 682.625,-224.5"/>
<text text-anchor="middle" x="706.625" y="-231.5" font-family="Helvetica,sans-Serif" font-size="10.00" fill="#000000">State.h</text>
</a>
</g>
</g>
<!-- Node21&#45;&gt;Node23 -->
<g id="edge37" class="edge">
<title>Node21&#45;&gt;Node23</title>
<path fill="none" stroke="#191970" d="M706.625,-280.2455C706.625,-272.9382 706.625,-262.6944 706.625,-253.7046"/>
<polygon fill="#191970" stroke="#191970" points="710.1251,-253.6426 706.625,-243.6427 703.1251,-253.6427 710.1251,-253.6426"/>
</g>
<!-- Node23&#45;&gt;Node5 -->
<g id="edge46" class="edge">
<title>Node23&#45;&gt;Node5</title>
<path fill="none" stroke="#191970" d="M682.3237,-230.4619C668.6188,-228.4956 651.1762,-226.0412 635.625,-224 518.3293,-208.6041 380.3158,-192.2553 307.863,-183.8087"/>
<polygon fill="#191970" stroke="#191970" points="307.9969,-180.3008 297.6592,-182.6209 307.1874,-187.2538 307.9969,-180.3008"/>
</g>
<!-- Node23&#45;&gt;Node7 -->
<g id="edge38" class="edge">
<title>Node23&#45;&gt;Node7</title>
<path fill="none" stroke="#191970" d="M682.5868,-227.6236C640.4341,-216.3819 556.4223,-193.6859 543.625,-188 512.6014,-174.216 479.9634,-152.3757 459.4674,-137.6312"/>
<polygon fill="#191970" stroke="#191970" points="461.3504,-134.6724 451.2106,-131.6007 457.2218,-140.3252 461.3504,-134.6724"/>
</g>
<!-- Node23&#45;&gt;Node8 -->
<g id="edge39" class="edge">
<title>Node23&#45;&gt;Node8</title>
<path fill="none" stroke="#191970" d="M682.5548,-227.029C649.5558,-217.2436 592.2369,-199.362 573.625,-188 552.3355,-175.0034 532.235,-154.4836 519.2808,-139.7744"/>
<polygon fill="#191970" stroke="#191970" points="521.6878,-137.2042 512.5243,-131.8861 516.3713,-141.7579 521.6878,-137.2042"/>
</g>
<!-- Node23&#45;&gt;Node15 -->
<g id="edge40" class="edge">
<title>Node23&#45;&gt;Node15</title>
<path fill="none" stroke="#191970" d="M722.3018,-224.2455C736.1106,-215.6534 756.4443,-203.0014 772.3542,-193.1018"/>
<polygon fill="#191970" stroke="#191970" points="774.4863,-195.8974 781.1279,-187.6427 770.7882,-189.954 774.4863,-195.8974"/>
</g>
<!-- Node24 -->
<g id="node25" class="node">
<title>Node24</title>
<g id="a_node25"><a xlink:href="Resources_8h.html" target="_top" xlink:title="Resources.h">
<polygon fill="#ffffff" stroke="#000000" points="582.625,-168.5 582.625,-187.5 654.625,-187.5 654.625,-168.5 582.625,-168.5"/>
<text text-anchor="middle" x="618.625" y="-175.5" font-family="Helvetica,sans-Serif" font-size="10.00" fill="#000000">Resources.h</text>
</a>
</g>
</g>
<!-- Node23&#45;&gt;Node24 -->
<g id="edge41" class="edge">
<title>Node23&#45;&gt;Node24</title>
<path fill="none" stroke="#191970" d="M691.2966,-224.2455C677.7947,-215.6534 657.9129,-203.0014 642.3564,-193.1018"/>
<polygon fill="#191970" stroke="#191970" points="644.0935,-190.0587 633.7778,-187.6427 640.3353,-195.9643 644.0935,-190.0587"/>
</g>
<!-- Node24&#45;&gt;Node6 -->
<g id="edge42" class="edge">
<title>Node24&#45;&gt;Node6</title>
<path fill="none" stroke="#191970" d="M617.5402,-168.3656C615.6634,-154.8772 610.8703,-130.0002 599.625,-112 576.4522,-74.9078 536.0183,-43.1472 510.3232,-25.3253"/>
<polygon fill="#191970" stroke="#191970" points="512.1431,-22.3306 501.9017,-19.6169 508.2155,-28.1249 512.1431,-22.3306"/>
</g>
<!-- Node24&#45;&gt;Node8 -->
<g id="edge45" class="edge">
<title>Node24&#45;&gt;Node8</title>
<path fill="none" stroke="#191970" d="M599.0277,-168.3733C580.8919,-159.4644 553.7115,-146.1127 533.1663,-136.0203"/>
<polygon fill="#191970" stroke="#191970" points="534.4853,-132.7688 523.9666,-131.5011 531.399,-139.0517 534.4853,-132.7688"/>
</g>
<!-- Node24&#45;&gt;Node9 -->
<g id="edge43" class="edge">
<title>Node24&#45;&gt;Node9</title>
<path fill="none" stroke="#191970" d="M610.0899,-168.2455C603.1339,-160.2958 593.1367,-148.8706 584.8199,-139.3656"/>
<polygon fill="#191970" stroke="#191970" points="587.2815,-136.8637 578.0624,-131.6427 582.0134,-141.4732 587.2815,-136.8637"/>
</g>
<!-- Node24&#45;&gt;Node16 -->
<g id="edge44" class="edge">
<title>Node24&#45;&gt;Node16</title>
<path fill="none" stroke="#191970" d="M630.8181,-168.2455C641.2571,-159.8943 656.4905,-147.7076 668.699,-137.9408"/>
<polygon fill="#191970" stroke="#191970" points="670.9494,-140.6227 676.5717,-131.6427 666.5765,-135.1566 670.9494,-140.6227"/>
</g>
</g>
</svg>
