<?xml version="1.0" encoding="UTF-8" standalone="no"?>
<!DOCTYPE svg PUBLIC "-//W3C//DTD SVG 1.1//EN"
 "http://www.w3.org/Graphics/SVG/1.1/DTD/svg11.dtd">
<!-- Generated by graphviz version 2.40.1 (20161225.0304)
 -->
<!-- Title: include/Rect.h Pages: 1 -->
<svg width="1810pt" height="476pt"
 viewBox="0.00 0.00 1809.50 476.00" xmlns="http://www.w3.org/2000/svg" xmlns:xlink="http://www.w3.org/1999/xlink">
<g id="graph0" class="graph" transform="scale(1 1) rotate(0) translate(4 472)">
<title>include/Rect.h</title>
<polygon fill="#ffffff" stroke="transparent" points="-4,4 -4,-472 1805.5,-472 1805.5,4 -4,4"/>
<!-- Node4 -->
<g id="node1" class="node">
<title>Node4</title>
<polygon fill="#bfbfbf" stroke="#000000" points="1123,-448.5 1123,-467.5 1203,-467.5 1203,-448.5 1123,-448.5"/>
<text text-anchor="middle" x="1163" y="-455.5" font-family="Helvetica,sans-Serif" font-size="10.00" fill="#000000">include/Rect.h</text>
</g>
<!-- Node5 -->
<g id="node2" class="node">
<title>Node5</title>
<g id="a_node2"><a xlink:href="Vec2_8h.html" target="_top" xlink:title="include/Vec2.h">
<polygon fill="#ffffff" stroke="#000000" points="678.5,-392.5 678.5,-411.5 759.5,-411.5 759.5,-392.5 678.5,-392.5"/>
<text text-anchor="middle" x="719" y="-399.5" font-family="Helvetica,sans-Serif" font-size="10.00" fill="#000000">include/Vec2.h</text>
</a>
</g>
</g>
<!-- Node4&#45;&gt;Node5 -->
<g id="edge1" class="edge">
<title>Node4&#45;&gt;Node5</title>
<path fill="none" stroke="#191970" d="M1112.6535,-452.1942C1023.8079,-441.3997 841.2174,-418.3685 759.7147,-407.6743"/>
<polygon fill="#191970" stroke="#191970" points="1112.4055,-455.6896 1122.7538,-453.4173 1113.2471,-448.7404 1112.4055,-455.6896"/>
</g>
<!-- Node25 -->
<g id="node22" class="node">
<title>Node25</title>
<g id="a_node22"><a xlink:href="Sprite_8h.html" target="_top" xlink:title="include/Sprite.h">
<polygon fill="#ffffff" stroke="#000000" points="246,-224.5 246,-243.5 330,-243.5 330,-224.5 246,-224.5"/>
<text text-anchor="middle" x="288" y="-231.5" font-family="Helvetica,sans-Serif" font-size="10.00" fill="#000000">include/Sprite.h</text>
</a>
</g>
</g>
<!-- Node4&#45;&gt;Node25 -->
<g id="edge78" class="edge">
<title>Node4&#45;&gt;Node25</title>
<path fill="none" stroke="#191970" d="M1112.875,-454.284C915.0954,-439.0983 196.692,-378.8055 136,-300 130.5763,-292.9576 130.7026,-287.1379 136,-280 142.8395,-270.7843 205.0795,-254.0979 247.7629,-243.5568"/>
<polygon fill="#191970" stroke="#191970" points="1112.7473,-457.7843 1122.9847,-455.0556 1113.2801,-450.8046 1112.7473,-457.7843"/>
</g>
<!-- Node26 -->
<g id="node23" class="node">
<title>Node26</title>
<g id="a_node23"><a xlink:href="Tileset_8h.html" target="_top" xlink:title="include/Tileset.h">
<polygon fill="#ffffff" stroke="#000000" points="0,-168.5 0,-187.5 88,-187.5 88,-168.5 0,-168.5"/>
<text text-anchor="middle" x="44" y="-175.5" font-family="Helvetica,sans-Serif" font-size="10.00" fill="#000000">include/Tileset.h</text>
</a>
</g>
</g>
<!-- Node4&#45;&gt;Node26 -->
<g id="edge80" class="edge">
<title>Node4&#45;&gt;Node26</title>
<path fill="none" stroke="#191970" d="M1112.6265,-455.8193C889.7162,-445.8441 3,-402.6062 3,-346 3,-346 3,-346 3,-290 3,-250.0367 26.3034,-206.6726 37.773,-187.7496"/>
<polygon fill="#191970" stroke="#191970" points="1112.5876,-459.321 1122.7333,-456.2691 1112.8988,-452.3279 1112.5876,-459.321"/>
</g>
<!-- Node33 -->
<g id="node30" class="node">
<title>Node33</title>
<g id="a_node30"><a xlink:href="Grouper_8cpp.html" target="_top" xlink:title="src/Grouper.cpp">
<polygon fill="#ffffff" stroke="#000000" points="1468,-224.5 1468,-243.5 1554,-243.5 1554,-224.5 1468,-224.5"/>
<text text-anchor="middle" x="1511" y="-231.5" font-family="Helvetica,sans-Serif" font-size="10.00" fill="#000000">src/Grouper.cpp</text>
</a>
</g>
</g>
<!-- Node4&#45;&gt;Node33 -->
<g id="edge81" class="edge">
<title>Node4&#45;&gt;Node33</title>
<path fill="none" stroke="#191970" d="M1212.8778,-446.14C1311.8006,-421.4754 1526.7828,-361.7855 1567,-300 1581.1001,-278.3381 1550.9739,-255.9909 1529.6855,-243.6578"/>
<polygon fill="#191970" stroke="#191970" points="1211.9756,-442.7576 1203.1082,-448.5559 1213.6561,-449.5529 1211.9756,-442.7576"/>
</g>
<!-- Node35 -->
<g id="node32" class="node">
<title>Node35</title>
<g id="a_node32"><a xlink:href="RectTransform_8h.html" target="_top" xlink:title="include/RectTransform.h">
<polygon fill="#ffffff" stroke="#000000" points="925,-280.5 925,-299.5 1049,-299.5 1049,-280.5 925,-280.5"/>
<text text-anchor="middle" x="987" y="-287.5" font-family="Helvetica,sans-Serif" font-size="10.00" fill="#000000">include/RectTransform.h</text>
</a>
</g>
</g>
<!-- Node4&#45;&gt;Node35 -->
<g id="edge79" class="edge">
<title>Node4&#45;&gt;Node35</title>
<path fill="none" stroke="#191970" d="M1152.0462,-439.7267C1136.0392,-414.1459 1104.1956,-367.29 1068,-336 1050.138,-320.5588 1026.3041,-307.7685 1009.1197,-299.6276"/>
<polygon fill="#191970" stroke="#191970" points="1149.1651,-441.7235 1157.3816,-448.4123 1155.1296,-438.0595 1149.1651,-441.7235"/>
</g>
<!-- Node39 -->
<g id="node36" class="node">
<title>Node39</title>
<g id="a_node36"><a xlink:href="GameObject_8h.html" target="_top" xlink:title="include/GameObject.h">
<polygon fill="#ffffff" stroke="#000000" points="1191.5,-392.5 1191.5,-411.5 1304.5,-411.5 1304.5,-392.5 1191.5,-392.5"/>
<text text-anchor="middle" x="1248" y="-399.5" font-family="Helvetica,sans-Serif" font-size="10.00" fill="#000000">include/GameObject.h</text>
</a>
</g>
</g>
<!-- Node4&#45;&gt;Node39 -->
<g id="edge58" class="edge">
<title>Node4&#45;&gt;Node39</title>
<path fill="none" stroke="#191970" d="M1186.5419,-442.49C1201.539,-432.6096 1220.4973,-420.1194 1233.3638,-411.6427"/>
<polygon fill="#191970" stroke="#191970" points="1184.2309,-439.8212 1177.8059,-448.2455 1188.0821,-445.6666 1184.2309,-439.8212"/>
</g>
<!-- Node43 -->
<g id="node40" class="node">
<title>Node43</title>
<g id="a_node40"><a xlink:href="Collision_8h.html" target="_top" xlink:title="include/Collision.h">
<polygon fill="#ffffff" stroke="#000000" points="1614,-392.5 1614,-411.5 1710,-411.5 1710,-392.5 1614,-392.5"/>
<text text-anchor="middle" x="1662" y="-399.5" font-family="Helvetica,sans-Serif" font-size="10.00" fill="#000000">include/Collision.h</text>
</a>
</g>
</g>
<!-- Node4&#45;&gt;Node43 -->
<g id="edge77" class="edge">
<title>Node4&#45;&gt;Node43</title>
<path fill="none" stroke="#191970" d="M1213.1195,-453.6285C1294.4653,-446.3303 1460.2215,-430.6149 1600,-412 1604.5392,-411.3955 1609.2578,-410.7202 1613.9747,-410.0136"/>
<polygon fill="#191970" stroke="#191970" points="1212.8031,-450.1427 1203.154,-454.5183 1213.4257,-457.115 1212.8031,-450.1427"/>
</g>
<!-- Node44 -->
<g id="node41" class="node">
<title>Node44</title>
<g id="a_node41"><a xlink:href="Rect_8cpp.html" target="_top" xlink:title="src/Rect.cpp">
<polygon fill="#ffffff" stroke="#000000" points="1728.5,-392.5 1728.5,-411.5 1801.5,-411.5 1801.5,-392.5 1728.5,-392.5"/>
<text text-anchor="middle" x="1765" y="-399.5" font-family="Helvetica,sans-Serif" font-size="10.00" fill="#000000">src/Rect.cpp</text>
</a>
</g>
</g>
<!-- Node4&#45;&gt;Node44 -->
<g id="edge82" class="edge">
<title>Node4&#45;&gt;Node44</title>
<path fill="none" stroke="#191970" d="M1213.5338,-456.046C1311.5032,-451.7666 1533.9157,-439.6516 1719,-412 1722.0715,-411.5411 1725.2447,-410.9981 1728.4218,-410.4061"/>
<polygon fill="#191970" stroke="#191970" points="1213.1692,-452.5583 1203.3281,-456.483 1213.4687,-459.5519 1213.1692,-452.5583"/>
</g>
<!-- Node5&#45;&gt;Node4 -->
<g id="edge39" class="edge">
<title>Node5&#45;&gt;Node4</title>
<path fill="none" stroke="#191970" d="M769.7089,-407.8499C858.8225,-418.6792 1041.4451,-441.7156 1122.6542,-452.3741"/>
<polygon fill="#191970" stroke="#191970" points="769.9241,-404.3504 759.5757,-406.6225 769.0823,-411.2996 769.9241,-404.3504"/>
</g>
<!-- Node6 -->
<g id="node3" class="node">
<title>Node6</title>
<g id="a_node3"><a xlink:href="InputManager_8h.html" target="_top" xlink:title="include/InputManager.h">
<polygon fill="#ffffff" stroke="#000000" points="357,-336.5 357,-355.5 475,-355.5 475,-336.5 357,-336.5"/>
<text text-anchor="middle" x="416" y="-343.5" font-family="Helvetica,sans-Serif" font-size="10.00" fill="#000000">include/InputManager.h</text>
</a>
</g>
</g>
<!-- Node5&#45;&gt;Node6 -->
<g id="edge2" class="edge">
<title>Node5&#45;&gt;Node6</title>
<path fill="none" stroke="#191970" d="M668.4486,-392.6572C612.7154,-382.3566 523.5351,-365.8745 467.4467,-355.5083"/>
<polygon fill="#191970" stroke="#191970" points="667.9809,-396.1299 678.4505,-394.5057 669.2531,-389.2465 667.9809,-396.1299"/>
</g>
<!-- Node8 -->
<g id="node5" class="node">
<title>Node8</title>
<g id="a_node5"><a xlink:href="Camera_8h.html" target="_top" xlink:title="include/Camera.h">
<polygon fill="#ffffff" stroke="#000000" points="745.5,-224.5 745.5,-243.5 838.5,-243.5 838.5,-224.5 745.5,-224.5"/>
<text text-anchor="middle" x="792" y="-231.5" font-family="Helvetica,sans-Serif" font-size="10.00" fill="#000000">include/Camera.h</text>
</a>
</g>
</g>
<!-- Node5&#45;&gt;Node8 -->
<g id="edge40" class="edge">
<title>Node5&#45;&gt;Node8</title>
<path fill="none" stroke="#191970" d="M693.544,-386.8966C674.7449,-373.7678 654.4319,-354.0702 667,-336 693.2566,-298.2487 730.7473,-331.762 764,-300 780.2012,-284.5251 787.4623,-258.1824 790.3456,-243.9053"/>
<polygon fill="#191970" stroke="#191970" points="691.6755,-389.8569 701.9513,-392.4371 695.5273,-384.0119 691.6755,-389.8569"/>
</g>
<!-- Node19 -->
<g id="node16" class="node">
<title>Node19</title>
<g id="a_node16"><a xlink:href="Game_8h.html" target="_top" xlink:title="include/Game.h">
<polygon fill="#ffffff" stroke="#000000" points="349.5,-224.5 349.5,-243.5 434.5,-243.5 434.5,-224.5 349.5,-224.5"/>
<text text-anchor="middle" x="392" y="-231.5" font-family="Helvetica,sans-Serif" font-size="10.00" fill="#000000">include/Game.h</text>
</a>
</g>
</g>
<!-- Node5&#45;&gt;Node19 -->
<g id="edge41" class="edge">
<title>Node5&#45;&gt;Node19</title>
<path fill="none" stroke="#191970" d="M668.3138,-396.1618C629.33,-390.1396 575.0336,-378.3492 532,-356 473.9197,-325.8364 419.9192,-266.7969 400.0491,-243.6437"/>
<polygon fill="#191970" stroke="#191970" points="667.9763,-399.6497 678.379,-397.6414 668.9944,-392.7241 667.9763,-399.6497"/>
</g>
<!-- Node5&#45;&gt;Node26 -->
<g id="edge52" class="edge">
<title>Node5&#45;&gt;Node26</title>
<path fill="none" stroke="#191970" d="M668.2161,-398.9783C540.4584,-390.5051 209.6634,-362.9048 122,-300 80.5372,-270.2475 55.7854,-210.9671 47.3139,-187.6965"/>
<polygon fill="#191970" stroke="#191970" points="668.2933,-402.4907 678.4996,-399.6479 668.7482,-395.5055 668.2933,-402.4907"/>
</g>
<!-- Node30 -->
<g id="node27" class="node">
<title>Node30</title>
<g id="a_node27"><a xlink:href="Button_8cpp.html" target="_top" xlink:title="src/Button.cpp">
<polygon fill="#ffffff" stroke="#000000" points="857,-224.5 857,-243.5 937,-243.5 937,-224.5 857,-224.5"/>
<text text-anchor="middle" x="897" y="-231.5" font-family="Helvetica,sans-Serif" font-size="10.00" fill="#000000">src/Button.cpp</text>
</a>
</g>
</g>
<!-- Node5&#45;&gt;Node30 -->
<g id="edge56" class="edge">
<title>Node5&#45;&gt;Node30</title>
<path fill="none" stroke="#191970" d="M714.368,-381.9695C712.2942,-367.9325 712.0229,-349.3661 721,-336 742.965,-303.2962 767.67,-319.3249 802,-300 833.3258,-282.3662 867.2906,-257.1243 884.8885,-243.5351"/>
<polygon fill="#191970" stroke="#191970" points="710.9805,-382.8932 716.2753,-392.0701 717.859,-381.5943 710.9805,-382.8932"/>
</g>
<!-- Node32 -->
<g id="node29" class="node">
<title>Node32</title>
<g id="a_node29"><a xlink:href="Grouper_8h.html" target="_top" xlink:title="include/Grouper.h">
<polygon fill="#ffffff" stroke="#000000" points="1464.5,-280.5 1464.5,-299.5 1557.5,-299.5 1557.5,-280.5 1464.5,-280.5"/>
<text text-anchor="middle" x="1511" y="-287.5" font-family="Helvetica,sans-Serif" font-size="10.00" fill="#000000">include/Grouper.h</text>
</a>
</g>
</g>
<!-- Node5&#45;&gt;Node32 -->
<g id="edge42" class="edge">
<title>Node5&#45;&gt;Node32</title>
<path fill="none" stroke="#191970" d="M769.6848,-401.5859C904.8283,-399.9936 1271.2831,-392.3502 1386,-356 1402.3489,-350.8195 1403.9846,-344.2861 1419,-336 1443.234,-322.6267 1471.8486,-308.5844 1490.6552,-299.5857"/>
<polygon fill="#191970" stroke="#191970" points="769.5623,-398.087 759.602,-401.6984 769.6405,-405.0865 769.5623,-398.087"/>
</g>
<!-- Node34 -->
<g id="node31" class="node">
<title>Node34</title>
<g id="a_node31"><a xlink:href="NearestFinder_8h.html" target="_top" xlink:title="include/NearestFinder.h">
<polygon fill="#ffffff" stroke="#000000" points="747,-336.5 747,-355.5 867,-355.5 867,-336.5 747,-336.5"/>
<text text-anchor="middle" x="807" y="-343.5" font-family="Helvetica,sans-Serif" font-size="10.00" fill="#000000">include/NearestFinder.h</text>
</a>
</g>
</g>
<!-- Node5&#45;&gt;Node34 -->
<g id="edge44" class="edge">
<title>Node5&#45;&gt;Node34</title>
<path fill="none" stroke="#191970" d="M742.9345,-386.769C758.5283,-376.8456 778.401,-364.1994 791.8472,-355.6427"/>
<polygon fill="#191970" stroke="#191970" points="740.886,-383.9239 734.3284,-392.2455 744.6441,-389.8296 740.886,-383.9239"/>
</g>
<!-- Node5&#45;&gt;Node35 -->
<g id="edge46" class="edge">
<title>Node5&#45;&gt;Node35</title>
<path fill="none" stroke="#191970" d="M719.3942,-382.0958C720.7962,-367.2542 725.1899,-347.6169 738,-336 745.0115,-329.6416 855.3172,-311.0142 926.7394,-299.5068"/>
<polygon fill="#191970" stroke="#191970" points="715.8875,-382.116 718.8153,-392.2982 722.8762,-382.5126 715.8875,-382.116"/>
</g>
<!-- Node36 -->
<g id="node33" class="node">
<title>Node36</title>
<g id="a_node33"><a xlink:href="NearestGOFinder_8h.html" target="_top" xlink:title="include/NearestGOFinder.h">
<polygon fill="#ffffff" stroke="#000000" points="923.5,-336.5 923.5,-355.5 1058.5,-355.5 1058.5,-336.5 923.5,-336.5"/>
<text text-anchor="middle" x="991" y="-343.5" font-family="Helvetica,sans-Serif" font-size="10.00" fill="#000000">include/NearestGOFinder.h</text>
</a>
</g>
</g>
<!-- Node5&#45;&gt;Node36 -->
<g id="edge53" class="edge">
<title>Node5&#45;&gt;Node36</title>
<path fill="none" stroke="#191970" d="M769.6965,-391.5625C819.8329,-381.2403 895.909,-365.5776 944.5241,-355.5686"/>
<polygon fill="#191970" stroke="#191970" points="768.8099,-388.1715 759.7211,-393.6162 770.2215,-395.0277 768.8099,-388.1715"/>
</g>
<!-- Node37 -->
<g id="node34" class="node">
<title>Node37</title>
<g id="a_node34"><a xlink:href="Text_8h.html" target="_top" xlink:title="include/Text.h">
<polygon fill="#ffffff" stroke="#000000" points="1105,-280.5 1105,-299.5 1183,-299.5 1183,-280.5 1105,-280.5"/>
<text text-anchor="middle" x="1144" y="-287.5" font-family="Helvetica,sans-Serif" font-size="10.00" fill="#000000">include/Text.h</text>
</a>
</g>
</g>
<!-- Node5&#45;&gt;Node37 -->
<g id="edge54" class="edge">
<title>Node5&#45;&gt;Node37</title>
<path fill="none" stroke="#191970" d="M768.8531,-389.9715C800.1246,-381.7979 841.0049,-369.9545 876,-356 894.0941,-348.7848 896.6099,-342.4235 915,-336 923.9367,-332.8785 1041.6993,-309.8319 1104.7567,-297.5918"/>
<polygon fill="#191970" stroke="#191970" points="767.8683,-386.6108 759.0573,-392.4943 769.6142,-393.3896 767.8683,-386.6108"/>
</g>
<!-- Node38 -->
<g id="node35" class="node">
<title>Node38</title>
<g id="a_node35"><a xlink:href="Vec2_8cpp.html" target="_top" xlink:title="src/Vec2.cpp">
<polygon fill="#ffffff" stroke="#000000" points="541,-336.5 541,-355.5 615,-355.5 615,-336.5 541,-336.5"/>
<text text-anchor="middle" x="578" y="-343.5" font-family="Helvetica,sans-Serif" font-size="10.00" fill="#000000">src/Vec2.cpp</text>
</a>
</g>
</g>
<!-- Node5&#45;&gt;Node38 -->
<g id="edge57" class="edge">
<title>Node5&#45;&gt;Node38</title>
<path fill="none" stroke="#191970" d="M685.3968,-388.6541C659.6841,-378.4419 624.8539,-364.6086 601.9225,-355.5011"/>
<polygon fill="#191970" stroke="#191970" points="684.1755,-391.9349 694.7612,-392.3733 686.7593,-385.4292 684.1755,-391.9349"/>
</g>
<!-- Node7 -->
<g id="node4" class="node">
<title>Node7</title>
<g id="a_node4"><a xlink:href="ActionManager_8h.html" target="_top" xlink:title="include/ActionManager.h">
<polygon fill="#ffffff" stroke="#000000" points="631,-280.5 631,-299.5 755,-299.5 755,-280.5 631,-280.5"/>
<text text-anchor="middle" x="693" y="-287.5" font-family="Helvetica,sans-Serif" font-size="10.00" fill="#000000">include/ActionManager.h</text>
</a>
</g>
</g>
<!-- Node6&#45;&gt;Node7 -->
<g id="edge3" class="edge">
<title>Node6&#45;&gt;Node7</title>
<path fill="none" stroke="#191970" d="M473.1976,-334.4366C524.2639,-324.1127 598.1582,-309.1738 645.8918,-299.5237"/>
<polygon fill="#191970" stroke="#191970" points="472.4114,-331.0246 463.3033,-336.4369 473.7985,-337.8858 472.4114,-331.0246"/>
</g>
<!-- Node12 -->
<g id="node9" class="node">
<title>Node12</title>
<g id="a_node9"><a xlink:href="Camera_8cpp.html" target="_top" xlink:title="src/Camera.cpp">
<polygon fill="#ffffff" stroke="#000000" points="111,-168.5 111,-187.5 197,-187.5 197,-168.5 111,-168.5"/>
<text text-anchor="middle" x="154" y="-175.5" font-family="Helvetica,sans-Serif" font-size="10.00" fill="#000000">src/Camera.cpp</text>
</a>
</g>
</g>
<!-- Node6&#45;&gt;Node12 -->
<g id="edge37" class="edge">
<title>Node6&#45;&gt;Node12</title>
<path fill="none" stroke="#191970" d="M346.5138,-339.2635C268.0667,-330.9429 149.5222,-315.925 136,-300 108.0074,-267.0334 135.3978,-210.1326 148.1986,-187.5944"/>
<polygon fill="#191970" stroke="#191970" points="346.5144,-342.7826 356.8245,-340.3432 347.2434,-335.8207 346.5144,-342.7826"/>
</g>
<!-- Node18 -->
<g id="node15" class="node">
<title>Node18</title>
<g id="a_node15"><a xlink:href="State_8h.html" target="_top" xlink:title="include/State.h">
<polygon fill="#ffffff" stroke="#000000" points="531,-280.5 531,-299.5 613,-299.5 613,-280.5 531,-280.5"/>
<text text-anchor="middle" x="572" y="-287.5" font-family="Helvetica,sans-Serif" font-size="10.00" fill="#000000">include/State.h</text>
</a>
</g>
</g>
<!-- Node6&#45;&gt;Node18 -->
<g id="edge14" class="edge">
<title>Node6&#45;&gt;Node18</title>
<path fill="none" stroke="#191970" d="M452.4284,-332.9231C480.9461,-322.686 519.9381,-308.6889 545.5326,-299.5011"/>
<polygon fill="#191970" stroke="#191970" points="451.0468,-329.7004 442.8174,-336.3733 453.4119,-336.2887 451.0468,-329.7004"/>
</g>
<!-- Node6&#45;&gt;Node19 -->
<g id="edge28" class="edge">
<title>Node6&#45;&gt;Node19</title>
<path fill="none" stroke="#191970" d="M414.1938,-325.7795C412.7863,-312.6295 410.4779,-295.1695 407,-280 404.0717,-267.2274 399.1422,-252.9399 395.7378,-243.7267"/>
<polygon fill="#191970" stroke="#191970" points="410.7429,-326.451 415.2054,-336.0602 417.7092,-325.7655 410.7429,-326.451"/>
</g>
<!-- Node6&#45;&gt;Node25 -->
<g id="edge29" class="edge">
<title>Node6&#45;&gt;Node25</title>
<path fill="none" stroke="#191970" d="M359.1134,-334.0984C325.6326,-325.812 287.9454,-313.7986 278,-300 265.8027,-283.0772 275.7017,-257.3227 282.6542,-243.5224"/>
<polygon fill="#191970" stroke="#191970" points="358.3339,-337.5107 368.8747,-336.4416 359.9679,-330.704 358.3339,-337.5107"/>
</g>
<!-- Node28 -->
<g id="node25" class="node">
<title>Node28</title>
<g id="a_node25"><a xlink:href="Music_8h.html" target="_top" xlink:title="include/Music.h">
<polygon fill="#ffffff" stroke="#000000" points="145.5,-280.5 145.5,-299.5 230.5,-299.5 230.5,-280.5 145.5,-280.5"/>
<text text-anchor="middle" x="188" y="-287.5" font-family="Helvetica,sans-Serif" font-size="10.00" fill="#000000">include/Music.h</text>
</a>
</g>
</g>
<!-- Node6&#45;&gt;Node28 -->
<g id="edge34" class="edge">
<title>Node6&#45;&gt;Node28</title>
<path fill="none" stroke="#191970" d="M367.3354,-334.0473C325.3703,-323.7401 265.5736,-309.0532 226.7749,-299.5237"/>
<polygon fill="#191970" stroke="#191970" points="366.5182,-337.4505 377.0645,-336.4369 368.188,-330.6526 366.5182,-337.4505"/>
</g>
<!-- Node6&#45;&gt;Node30 -->
<g id="edge36" class="edge">
<title>Node6&#45;&gt;Node30</title>
<path fill="none" stroke="#191970" d="M485.1883,-339.5707C571.3575,-331.0919 713.3957,-315.4338 764,-300 809.1201,-286.2388 857.6958,-258.4257 881.7302,-243.6825"/>
<polygon fill="#191970" stroke="#191970" points="484.8373,-336.0882 475.2249,-340.5436 485.5177,-343.0551 484.8373,-336.0882"/>
</g>
<!-- Node31 -->
<g id="node28" class="node">
<title>Node31</title>
<g id="a_node28"><a xlink:href="InputManager_8cpp.html" target="_top" xlink:title="src/InputManager.cpp">
<polygon fill="#ffffff" stroke="#000000" points="287.5,-280.5 287.5,-299.5 398.5,-299.5 398.5,-280.5 287.5,-280.5"/>
<text text-anchor="middle" x="343" y="-287.5" font-family="Helvetica,sans-Serif" font-size="10.00" fill="#000000">src/InputManager.cpp</text>
</a>
</g>
</g>
<!-- Node6&#45;&gt;Node31 -->
<g id="edge38" class="edge">
<title>Node6&#45;&gt;Node31</title>
<path fill="none" stroke="#191970" d="M395.049,-329.928C382.2893,-320.1397 366.4115,-307.9595 355.5699,-299.6427"/>
<polygon fill="#191970" stroke="#191970" points="393.2197,-332.9359 403.2844,-336.2455 397.4804,-327.3819 393.2197,-332.9359"/>
</g>
<!-- Node7&#45;&gt;Node8 -->
<g id="edge4" class="edge">
<title>Node7&#45;&gt;Node8</title>
<path fill="none" stroke="#191970" d="M719.4357,-275.0465C737.0508,-265.0824 759.6847,-252.2794 774.9531,-243.6427"/>
<polygon fill="#191970" stroke="#191970" points="717.2253,-272.2756 710.2445,-280.2455 720.6717,-278.3684 717.2253,-272.2756"/>
</g>
<!-- Node17 -->
<g id="node14" class="node">
<title>Node17</title>
<g id="a_node14"><a xlink:href="ActionManager_8cpp.html" target="_top" xlink:title="src/ActionManager.cpp">
<polygon fill="#ffffff" stroke="#000000" points="610.5,-224.5 610.5,-243.5 727.5,-243.5 727.5,-224.5 610.5,-224.5"/>
<text text-anchor="middle" x="669" y="-231.5" font-family="Helvetica,sans-Serif" font-size="10.00" fill="#000000">src/ActionManager.cpp</text>
</a>
</g>
</g>
<!-- Node7&#45;&gt;Node17 -->
<g id="edge13" class="edge">
<title>Node7&#45;&gt;Node17</title>
<path fill="none" stroke="#191970" d="M684.8759,-271.0437C680.9285,-261.8331 676.3542,-251.1598 673.1326,-243.6427"/>
<polygon fill="#191970" stroke="#191970" points="681.6633,-272.4328 688.8195,-280.2455 688.0973,-269.6753 681.6633,-272.4328"/>
</g>
<!-- Node9 -->
<g id="node6" class="node">
<title>Node9</title>
<g id="a_node6"><a xlink:href="TileMap_8h.html" target="_top" xlink:title="include/TileMap.h">
<polygon fill="#ffffff" stroke="#000000" points="947.5,-112.5 947.5,-131.5 1040.5,-131.5 1040.5,-112.5 947.5,-112.5"/>
<text text-anchor="middle" x="994" y="-119.5" font-family="Helvetica,sans-Serif" font-size="10.00" fill="#000000">include/TileMap.h</text>
</a>
</g>
</g>
<!-- Node8&#45;&gt;Node9 -->
<g id="edge5" class="edge">
<title>Node8&#45;&gt;Node9</title>
<path fill="none" stroke="#191970" d="M818.0238,-219.5709C859.9637,-196.3171 941.3787,-151.1761 976.8212,-131.5249"/>
<polygon fill="#191970" stroke="#191970" points="816.2709,-216.5408 809.2224,-224.4509 819.6653,-222.6628 816.2709,-216.5408"/>
</g>
<!-- Node8&#45;&gt;Node12 -->
<g id="edge8" class="edge">
<title>Node8&#45;&gt;Node12</title>
<path fill="none" stroke="#191970" d="M735.0332,-223.8746C500.4862,-195.4545 437.2595,-217.9616 206,-188 203.0826,-187.622 200.082,-187.1823 197.0646,-186.7021"/>
<polygon fill="#191970" stroke="#191970" points="734.8945,-227.3838 745.247,-225.1311 735.7492,-220.4362 734.8945,-227.3838"/>
</g>
<!-- Node13 -->
<g id="node10" class="node">
<title>Node13</title>
<g id="a_node10"><a xlink:href="GameObject_8cpp.html" target="_top" xlink:title="src/GameObject.cpp">
<polygon fill="#ffffff" stroke="#000000" points="1404.5,-168.5 1404.5,-187.5 1511.5,-187.5 1511.5,-168.5 1404.5,-168.5"/>
<text text-anchor="middle" x="1458" y="-175.5" font-family="Helvetica,sans-Serif" font-size="10.00" fill="#000000">src/GameObject.cpp</text>
</a>
</g>
</g>
<!-- Node8&#45;&gt;Node13 -->
<g id="edge9" class="edge">
<title>Node8&#45;&gt;Node13</title>
<path fill="none" stroke="#191970" d="M848.7487,-224.0304C1060.2963,-197.671 1299.6119,-184.9344 1404.3714,-180.2133"/>
<polygon fill="#191970" stroke="#191970" points="848.1811,-220.5741 838.6967,-225.2959 849.0556,-227.5193 848.1811,-220.5741"/>
</g>
<!-- Node14 -->
<g id="node11" class="node">
<title>Node14</title>
<g id="a_node11"><a xlink:href="RectTransform_8cpp.html" target="_top" xlink:title="src/RectTransform.cpp">
<polygon fill="#ffffff" stroke="#000000" points="733.5,-168.5 733.5,-187.5 850.5,-187.5 850.5,-168.5 733.5,-168.5"/>
<text text-anchor="middle" x="792" y="-175.5" font-family="Helvetica,sans-Serif" font-size="10.00" fill="#000000">src/RectTransform.cpp</text>
</a>
</g>
</g>
<!-- Node8&#45;&gt;Node14 -->
<g id="edge10" class="edge">
<title>Node8&#45;&gt;Node14</title>
<path fill="none" stroke="#191970" d="M792,-214.1575C792,-205.155 792,-194.9199 792,-187.6427"/>
<polygon fill="#191970" stroke="#191970" points="788.5001,-214.2455 792,-224.2455 795.5001,-214.2456 788.5001,-214.2455"/>
</g>
<!-- Node15 -->
<g id="node12" class="node">
<title>Node15</title>
<g id="a_node12"><a xlink:href="Sprite_8cpp.html" target="_top" xlink:title="src/Sprite.cpp">
<polygon fill="#ffffff" stroke="#000000" points="332.5,-168.5 332.5,-187.5 409.5,-187.5 409.5,-168.5 332.5,-168.5"/>
<text text-anchor="middle" x="371" y="-175.5" font-family="Helvetica,sans-Serif" font-size="10.00" fill="#000000">src/Sprite.cpp</text>
</a>
</g>
</g>
<!-- Node8&#45;&gt;Node15 -->
<g id="edge11" class="edge">
<title>Node8&#45;&gt;Node15</title>
<path fill="none" stroke="#191970" d="M735.3292,-223.8329C594.1277,-203.5548 555.6691,-210.3595 418,-188 415.2826,-187.5587 412.4848,-187.0649 409.6725,-186.5397"/>
<polygon fill="#191970" stroke="#191970" points="734.8276,-227.2966 745.2276,-225.2742 735.8363,-220.3697 734.8276,-227.2966"/>
</g>
<!-- Node16 -->
<g id="node13" class="node">
<title>Node16</title>
<g id="a_node13"><a xlink:href="State_8cpp.html" target="_top" xlink:title="src/State.cpp">
<polygon fill="#ffffff" stroke="#000000" points="637.5,-168.5 637.5,-187.5 712.5,-187.5 712.5,-168.5 637.5,-168.5"/>
<text text-anchor="middle" x="675" y="-175.5" font-family="Helvetica,sans-Serif" font-size="10.00" fill="#000000">src/State.cpp</text>
</a>
</g>
</g>
<!-- Node8&#45;&gt;Node16 -->
<g id="edge12" class="edge">
<title>Node8&#45;&gt;Node16</title>
<path fill="none" stroke="#191970" d="M762.6958,-219.9741C741.512,-209.8348 713.4597,-196.408 694.8506,-187.5011"/>
<polygon fill="#191970" stroke="#191970" points="761.3559,-223.2129 771.887,-224.3733 764.378,-216.8989 761.3559,-223.2129"/>
</g>
<!-- Node10 -->
<g id="node7" class="node">
<title>Node10</title>
<g id="a_node7"><a xlink:href="ManhattanDistance_8h.html" target="_top" xlink:title="include/ManhattanDistance.h">
<polygon fill="#ffffff" stroke="#000000" points="922.5,-56.5 922.5,-75.5 1065.5,-75.5 1065.5,-56.5 922.5,-56.5"/>
<text text-anchor="middle" x="994" y="-63.5" font-family="Helvetica,sans-Serif" font-size="10.00" fill="#000000">include/ManhattanDistance.h</text>
</a>
</g>
</g>
<!-- Node9&#45;&gt;Node10 -->
<g id="edge6" class="edge">
<title>Node9&#45;&gt;Node10</title>
<path fill="none" stroke="#191970" d="M994,-102.1575C994,-93.155 994,-82.9199 994,-75.6427"/>
<polygon fill="#191970" stroke="#191970" points="990.5001,-102.2455 994,-112.2455 997.5001,-102.2456 990.5001,-102.2455"/>
</g>
<!-- Node11 -->
<g id="node8" class="node">
<title>Node11</title>
<g id="a_node8"><a xlink:href="ManhattanDistance_8cpp.html" target="_top" xlink:title="src/ManhattanDistance.cpp">
<polygon fill="#ffffff" stroke="#000000" points="925.5,-.5 925.5,-19.5 1062.5,-19.5 1062.5,-.5 925.5,-.5"/>
<text text-anchor="middle" x="994" y="-7.5" font-family="Helvetica,sans-Serif" font-size="10.00" fill="#000000">src/ManhattanDistance.cpp</text>
</a>
</g>
</g>
<!-- Node10&#45;&gt;Node11 -->
<g id="edge7" class="edge">
<title>Node10&#45;&gt;Node11</title>
<path fill="none" stroke="#191970" d="M994,-46.1575C994,-37.155 994,-26.9199 994,-19.6427"/>
<polygon fill="#191970" stroke="#191970" points="990.5001,-46.2455 994,-56.2455 997.5001,-46.2456 990.5001,-46.2455"/>
</g>
<!-- Node18&#45;&gt;Node16 -->
<g id="edge27" class="edge">
<title>Node18&#45;&gt;Node16</title>
<path fill="none" stroke="#191970" d="M577.5729,-270.3567C582.3202,-256.258 590.2605,-237.4507 602,-224 616.0857,-207.8611 637.213,-195.3991 653.12,-187.542"/>
<polygon fill="#191970" stroke="#191970" points="574.1849,-269.465 574.5551,-280.0534 580.8687,-271.5452 574.1849,-269.465"/>
</g>
<!-- Node18&#45;&gt;Node19 -->
<g id="edge15" class="edge">
<title>Node18&#45;&gt;Node19</title>
<path fill="none" stroke="#191970" d="M531.2541,-277.3235C498.2437,-267.0536 452.4583,-252.8093 422.5393,-243.5011"/>
<polygon fill="#191970" stroke="#191970" points="530.4686,-280.7445 541.0569,-280.3733 532.5481,-274.0605 530.4686,-280.7445"/>
</g>
<!-- Node24 -->
<g id="node21" class="node">
<title>Node24</title>
<g id="a_node21"><a xlink:href="Threading_8h.html" target="_top" xlink:title="include/Threading.h">
<polygon fill="#ffffff" stroke="#000000" points="452.5,-224.5 452.5,-243.5 553.5,-243.5 553.5,-224.5 452.5,-224.5"/>
<text text-anchor="middle" x="503" y="-231.5" font-family="Helvetica,sans-Serif" font-size="10.00" fill="#000000">include/Threading.h</text>
</a>
</g>
</g>
<!-- Node18&#45;&gt;Node24 -->
<g id="edge23" class="edge">
<title>Node18&#45;&gt;Node24</title>
<path fill="none" stroke="#191970" d="M552.197,-273.928C540.1364,-264.1397 525.1286,-251.9595 514.8812,-243.6427"/>
<polygon fill="#191970" stroke="#191970" points="550.0109,-276.6614 559.9811,-280.2455 554.4221,-271.2262 550.0109,-276.6614"/>
</g>
<!-- Node19&#45;&gt;Node12 -->
<g id="edge16" class="edge">
<title>Node19&#45;&gt;Node12</title>
<path fill="none" stroke="#191970" d="M341.478,-222.1125C297.6588,-211.8021 235.0614,-197.0733 194.4756,-187.5237"/>
<polygon fill="#191970" stroke="#191970" points="340.8209,-225.5534 351.3568,-224.4369 342.4243,-218.7395 340.8209,-225.5534"/>
</g>
<!-- Node19&#45;&gt;Node14 -->
<g id="edge18" class="edge">
<title>Node19&#45;&gt;Node14</title>
<path fill="none" stroke="#191970" d="M444.4287,-224.0152C568.6692,-204.2452 601.6865,-204.3832 722,-188 725.6492,-187.5031 729.4044,-186.9853 733.1906,-186.4584"/>
<polygon fill="#191970" stroke="#191970" points="443.8498,-220.5632 434.5296,-225.6015 444.9575,-227.475 443.8498,-220.5632"/>
</g>
<!-- Node19&#45;&gt;Node15 -->
<g id="edge20" class="edge">
<title>Node19&#45;&gt;Node15</title>
<path fill="none" stroke="#191970" d="M384.781,-214.7493C381.3524,-205.6064 377.4049,-195.0798 374.616,-187.6427"/>
<polygon fill="#191970" stroke="#191970" points="381.5536,-216.1112 388.3421,-224.2455 388.1079,-213.6533 381.5536,-216.1112"/>
</g>
<!-- Node20 -->
<g id="node17" class="node">
<title>Node20</title>
<g id="a_node17"><a xlink:href="Game_8cpp.html" target="_top" xlink:title="src/Game.cpp">
<polygon fill="#ffffff" stroke="#000000" points="541,-168.5 541,-187.5 619,-187.5 619,-168.5 541,-168.5"/>
<text text-anchor="middle" x="580" y="-175.5" font-family="Helvetica,sans-Serif" font-size="10.00" fill="#000000">src/Game.cpp</text>
</a>
</g>
</g>
<!-- Node19&#45;&gt;Node20 -->
<g id="edge17" class="edge">
<title>Node19&#45;&gt;Node20</title>
<path fill="none" stroke="#191970" d="M434.1117,-221.4561C468.6218,-211.1765 516.7199,-196.8494 548.1034,-187.5011"/>
<polygon fill="#191970" stroke="#191970" points="432.903,-218.1641 424.3184,-224.3733 434.9014,-224.8728 432.903,-218.1641"/>
</g>
<!-- Node21 -->
<g id="node18" class="node">
<title>Node21</title>
<g id="a_node18"><a xlink:href="Resources_8cpp.html" target="_top" xlink:title="src/Resources.cpp">
<polygon fill="#ffffff" stroke="#000000" points="215.5,-168.5 215.5,-187.5 314.5,-187.5 314.5,-168.5 215.5,-168.5"/>
<text text-anchor="middle" x="265" y="-175.5" font-family="Helvetica,sans-Serif" font-size="10.00" fill="#000000">src/Resources.cpp</text>
</a>
</g>
</g>
<!-- Node19&#45;&gt;Node21 -->
<g id="edge19" class="edge">
<title>Node19&#45;&gt;Node21</title>
<path fill="none" stroke="#191970" d="M360.8108,-220.2473C337.7463,-210.0771 306.9288,-196.4883 286.5472,-187.5011"/>
<polygon fill="#191970" stroke="#191970" points="359.6058,-223.5411 370.1679,-224.3733 362.4301,-217.1361 359.6058,-223.5411"/>
</g>
<!-- Node22 -->
<g id="node19" class="node">
<title>Node22</title>
<g id="a_node19"><a xlink:href="Text_8cpp.html" target="_top" xlink:title="src/Text.cpp">
<polygon fill="#ffffff" stroke="#000000" points="967.5,-168.5 967.5,-187.5 1038.5,-187.5 1038.5,-168.5 967.5,-168.5"/>
<text text-anchor="middle" x="1003" y="-175.5" font-family="Helvetica,sans-Serif" font-size="10.00" fill="#000000">src/Text.cpp</text>
</a>
</g>
</g>
<!-- Node19&#45;&gt;Node22 -->
<g id="edge21" class="edge">
<title>Node19&#45;&gt;Node22</title>
<path fill="none" stroke="#191970" d="M444.4604,-224.1138C563.6986,-208.7833 864.0345,-187.5393 967.448,-180.4206"/>
<polygon fill="#191970" stroke="#191970" points="443.9562,-220.65 434.5054,-225.4387 444.8798,-227.5888 443.9562,-220.65"/>
</g>
<!-- Node23 -->
<g id="node20" class="node">
<title>Node23</title>
<g id="a_node20"><a xlink:href="Threading_8cpp.html" target="_top" xlink:title="src/Threading.cpp">
<polygon fill="#ffffff" stroke="#000000" points="427.5,-168.5 427.5,-187.5 522.5,-187.5 522.5,-168.5 427.5,-168.5"/>
<text text-anchor="middle" x="475" y="-175.5" font-family="Helvetica,sans-Serif" font-size="10.00" fill="#000000">src/Threading.cpp</text>
</a>
</g>
</g>
<!-- Node19&#45;&gt;Node23 -->
<g id="edge22" class="edge">
<title>Node19&#45;&gt;Node23</title>
<path fill="none" stroke="#191970" d="M414.988,-218.49C429.6322,-208.6096 448.1444,-196.1194 460.7082,-187.6427"/>
<polygon fill="#191970" stroke="#191970" points="412.7896,-215.7511 406.4575,-224.2455 416.7047,-221.5539 412.7896,-215.7511"/>
</g>
<!-- Node24&#45;&gt;Node16 -->
<g id="edge25" class="edge">
<title>Node24&#45;&gt;Node16</title>
<path fill="none" stroke="#191970" d="M542.3435,-221.1905C573.8551,-210.9309 617.3519,-196.7691 645.818,-187.5011"/>
<polygon fill="#191970" stroke="#191970" points="540.993,-217.9493 532.5679,-224.3733 543.1601,-224.6054 540.993,-217.9493"/>
</g>
<!-- Node24&#45;&gt;Node20 -->
<g id="edge24" class="edge">
<title>Node24&#45;&gt;Node20</title>
<path fill="none" stroke="#191970" d="M524.7116,-218.2097C538.2353,-208.3743 555.1958,-196.0394 566.7413,-187.6427"/>
<polygon fill="#191970" stroke="#191970" points="522.4411,-215.5332 516.4124,-224.2455 526.5584,-221.1944 522.4411,-215.5332"/>
</g>
<!-- Node24&#45;&gt;Node23 -->
<g id="edge26" class="edge">
<title>Node24&#45;&gt;Node23</title>
<path fill="none" stroke="#191970" d="M493.5219,-215.0437C488.9165,-205.8331 483.5799,-195.1598 479.8213,-187.6427"/>
<polygon fill="#191970" stroke="#191970" points="490.5201,-216.8665 498.1228,-224.2455 496.7811,-213.736 490.5201,-216.8665"/>
</g>
<!-- Node25&#45;&gt;Node15 -->
<g id="edge33" class="edge">
<title>Node25&#45;&gt;Node15</title>
<path fill="none" stroke="#191970" d="M310.988,-218.49C325.6322,-208.6096 344.1444,-196.1194 356.7082,-187.6427"/>
<polygon fill="#191970" stroke="#191970" points="308.7896,-215.7511 302.4575,-224.2455 312.7047,-221.5539 308.7896,-215.7511"/>
</g>
<!-- Node25&#45;&gt;Node26 -->
<g id="edge30" class="edge">
<title>Node25&#45;&gt;Node26</title>
<path fill="none" stroke="#191970" d="M236.4878,-222.1775C191.5507,-211.8641 127.1926,-197.0934 85.496,-187.5237"/>
<polygon fill="#191970" stroke="#191970" points="235.8026,-225.6112 246.3321,-224.4369 237.3685,-218.7886 235.8026,-225.6112"/>
</g>
<!-- Node26&#45;&gt;Node9 -->
<g id="edge31" class="edge">
<title>Node26&#45;&gt;Node9</title>
<path fill="none" stroke="#191970" d="M98.1921,-168.4488C99.4726,-168.2903 100.7433,-168.1402 102,-168 424.0906,-132.0581 814.8028,-124.1427 947.4108,-122.4478"/>
<polygon fill="#191970" stroke="#191970" points="97.6883,-164.9851 88.2561,-169.8105 98.6387,-171.9203 97.6883,-164.9851"/>
</g>
<!-- Node27 -->
<g id="node24" class="node">
<title>Node27</title>
<g id="a_node24"><a xlink:href="Tileset_8cpp.html" target="_top" xlink:title="src/Tileset.cpp">
<polygon fill="#ffffff" stroke="#000000" points="3.5,-112.5 3.5,-131.5 84.5,-131.5 84.5,-112.5 3.5,-112.5"/>
<text text-anchor="middle" x="44" y="-119.5" font-family="Helvetica,sans-Serif" font-size="10.00" fill="#000000">src/Tileset.cpp</text>
</a>
</g>
</g>
<!-- Node26&#45;&gt;Node27 -->
<g id="edge32" class="edge">
<title>Node26&#45;&gt;Node27</title>
<path fill="none" stroke="#191970" d="M44,-158.1575C44,-149.155 44,-138.9199 44,-131.6427"/>
<polygon fill="#191970" stroke="#191970" points="40.5001,-158.2455 44,-168.2455 47.5001,-158.2456 40.5001,-158.2455"/>
</g>
<!-- Node29 -->
<g id="node26" class="node">
<title>Node29</title>
<g id="a_node26"><a xlink:href="Music_8cpp.html" target="_top" xlink:title="src/Music.cpp">
<polygon fill="#ffffff" stroke="#000000" points="149,-224.5 149,-243.5 227,-243.5 227,-224.5 149,-224.5"/>
<text text-anchor="middle" x="188" y="-231.5" font-family="Helvetica,sans-Serif" font-size="10.00" fill="#000000">src/Music.cpp</text>
</a>
</g>
</g>
<!-- Node28&#45;&gt;Node29 -->
<g id="edge35" class="edge">
<title>Node28&#45;&gt;Node29</title>
<path fill="none" stroke="#191970" d="M188,-270.1575C188,-261.155 188,-250.9199 188,-243.6427"/>
<polygon fill="#191970" stroke="#191970" points="184.5001,-270.2455 188,-280.2455 191.5001,-270.2456 184.5001,-270.2455"/>
</g>
<!-- Node32&#45;&gt;Node33 -->
<g id="edge43" class="edge">
<title>Node32&#45;&gt;Node33</title>
<path fill="none" stroke="#191970" d="M1511,-270.1575C1511,-261.155 1511,-250.9199 1511,-243.6427"/>
<polygon fill="#191970" stroke="#191970" points="1507.5001,-270.2455 1511,-280.2455 1514.5001,-270.2456 1507.5001,-270.2455"/>
</g>
<!-- Node34&#45;&gt;Node9 -->
<g id="edge45" class="edge">
<title>Node34&#45;&gt;Node9</title>
<path fill="none" stroke="#191970" d="M874.0962,-334.7708C947.4313,-322.3414 1055.016,-303.5805 1058,-300 1075.0268,-279.5692 1129.6055,-325.8505 1048,-168 1039.8558,-152.2465 1023.7879,-139.661 1011.2873,-131.664"/>
<polygon fill="#191970" stroke="#191970" points="873.2661,-331.3614 863.99,-336.4804 874.4337,-338.2633 873.2661,-331.3614"/>
</g>
<!-- Node35&#45;&gt;Node14 -->
<g id="edge50" class="edge">
<title>Node35&#45;&gt;Node14</title>
<path fill="none" stroke="#191970" d="M979.7179,-271.1068C973.0677,-256.254 961.8483,-236.113 946,-224 918.5098,-202.989 881.5194,-191.54 850.6818,-185.3193"/>
<polygon fill="#191970" stroke="#191970" points="976.508,-272.5032 983.5925,-280.381 982.967,-269.8046 976.508,-272.5032"/>
</g>
<!-- Node35&#45;&gt;Node22 -->
<g id="edge51" class="edge">
<title>Node35&#45;&gt;Node22</title>
<path fill="none" stroke="#191970" d="M989.8185,-270.2702C993.2859,-245.9985 999.0325,-205.7725 1001.6393,-187.5249"/>
<polygon fill="#191970" stroke="#191970" points="986.3136,-270.0564 988.3642,-280.4509 993.2433,-271.0465 986.3136,-270.0564"/>
</g>
<!-- Node35&#45;&gt;Node25 -->
<g id="edge47" class="edge">
<title>Node35&#45;&gt;Node25</title>
<path fill="none" stroke="#191970" d="M914.8985,-285.9604C770.2972,-277.6799 449.3765,-258.3533 340,-244 336.8097,-243.5813 333.5198,-243.0902 330.2171,-242.5543"/>
<polygon fill="#191970" stroke="#191970" points="914.8164,-289.4613 924.9997,-286.5373 915.2156,-282.4727 914.8164,-289.4613"/>
</g>
<!-- Node35&#45;&gt;Node30 -->
<g id="edge48" class="edge">
<title>Node35&#45;&gt;Node30</title>
<path fill="none" stroke="#191970" d="M962.5216,-274.769C946.5734,-264.8456 926.249,-252.1994 912.4972,-243.6427"/>
<polygon fill="#191970" stroke="#191970" points="960.9835,-277.9342 971.3232,-280.2455 964.6817,-271.9908 960.9835,-277.9342"/>
</g>
<!-- Node35&#45;&gt;Node33 -->
<g id="edge49" class="edge">
<title>Node35&#45;&gt;Node33</title>
<path fill="none" stroke="#191970" d="M1059.24,-282.2797C1169.9009,-270.4533 1377.9885,-248.215 1467.8579,-238.6106"/>
<polygon fill="#191970" stroke="#191970" points="1058.7388,-278.8132 1049.1674,-283.3562 1059.4827,-285.7736 1058.7388,-278.8132"/>
</g>
<!-- Node37&#45;&gt;Node22 -->
<g id="edge55" class="edge">
<title>Node37&#45;&gt;Node22</title>
<path fill="none" stroke="#191970" d="M1123.9539,-274.0768C1094.1864,-250.4317 1039.2109,-206.7633 1014.9912,-187.5249"/>
<polygon fill="#191970" stroke="#191970" points="1121.9711,-276.9717 1131.9784,-280.4509 1126.325,-271.4905 1121.9711,-276.9717"/>
</g>
<!-- Node39&#45;&gt;Node8 -->
<g id="edge70" class="edge">
<title>Node39&#45;&gt;Node8</title>
<path fill="none" stroke="#191970" d="M1221.7712,-387.7616C1193.2903,-372.8537 1146.0889,-349.7392 1103,-336 1022.3628,-310.2882 995.8019,-328.1977 916,-300 874.1509,-285.2127 829.1324,-258.0926 806.6029,-243.6493"/>
<polygon fill="#191970" stroke="#191970" points="1220.2037,-390.8919 1230.6792,-392.4773 1223.4787,-384.7053 1220.2037,-390.8919"/>
</g>
<!-- Node39&#45;&gt;Node13 -->
<g id="edge76" class="edge">
<title>Node39&#45;&gt;Node13</title>
<path fill="none" stroke="#191970" d="M1314.6586,-390.6934C1399.6439,-374.6948 1538.9732,-342.5896 1567,-300 1575.4704,-287.1283 1580.811,-249.2358 1563,-224 1549.86,-205.3825 1527.4693,-194.2167 1506.7315,-187.5613"/>
<polygon fill="#191970" stroke="#191970" points="1313.7688,-387.2987 1304.5751,-392.5643 1315.0458,-394.1813 1313.7688,-387.2987"/>
</g>
<!-- Node39&#45;&gt;Node18 -->
<g id="edge71" class="edge">
<title>Node39&#45;&gt;Node18</title>
<path fill="none" stroke="#191970" d="M1206.6957,-389.4547C1179.2797,-380.8052 1142.6504,-368.6286 1111,-356 1091.4236,-348.189 1088.3798,-341.3767 1068,-336 875.7125,-285.2696 818.9497,-327.5475 622,-300 619.1069,-299.5953 616.1287,-299.1288 613.1357,-298.6231"/>
<polygon fill="#191970" stroke="#191970" points="1205.7643,-392.8305 1216.3532,-392.476 1207.8544,-386.1498 1205.7643,-392.8305"/>
</g>
<!-- Node39&#45;&gt;Node32 -->
<g id="edge72" class="edge">
<title>Node39&#45;&gt;Node32</title>
<path fill="none" stroke="#191970" d="M1301.8449,-390.084C1332.7636,-382.299 1371.9009,-370.8192 1405,-356 1440.8124,-339.9659 1478.9725,-313.6121 1498.2581,-299.5466"/>
<polygon fill="#191970" stroke="#191970" points="1300.9857,-386.6909 1292.1132,-392.4813 1302.6601,-393.4877 1300.9857,-386.6909"/>
</g>
<!-- Node39&#45;&gt;Node35 -->
<g id="edge73" class="edge">
<title>Node39&#45;&gt;Node35</title>
<path fill="none" stroke="#191970" d="M1233.9275,-384.6318C1220.765,-369.541 1199.7635,-348.2363 1177,-336 1137.3906,-314.7084 1087.8846,-303.1341 1049.3373,-296.922"/>
<polygon fill="#191970" stroke="#191970" points="1231.2651,-386.9037 1240.395,-392.2792 1236.61,-382.3835 1231.2651,-386.9037"/>
</g>
<!-- Node39&#45;&gt;Node36 -->
<g id="edge74" class="edge">
<title>Node39&#45;&gt;Node36</title>
<path fill="none" stroke="#191970" d="M1194.3388,-390.3073C1146.9821,-379.9883 1078.8095,-365.1336 1034.7068,-355.5237"/>
<polygon fill="#191970" stroke="#191970" points="1193.5962,-393.7275 1204.1121,-392.4369 1195.0866,-386.888 1193.5962,-393.7275"/>
</g>
<!-- Node39&#45;&gt;Node37 -->
<g id="edge75" class="edge">
<title>Node39&#45;&gt;Node37</title>
<path fill="none" stroke="#191970" d="M1241.3934,-382.412C1235.9357,-368.3408 1227.1149,-349.5435 1215,-336 1200.8994,-320.2366 1180.1971,-307.6523 1164.7816,-299.6583"/>
<polygon fill="#191970" stroke="#191970" points="1238.2042,-383.8835 1244.9103,-392.0858 1244.7829,-381.4918 1238.2042,-383.8835"/>
</g>
<!-- Node40 -->
<g id="node37" class="node">
<title>Node40</title>
<g id="a_node37"><a xlink:href="Component_8h.html" target="_top" xlink:title="include/Component.h">
<polygon fill="#ffffff" stroke="#000000" points="1267.5,-336.5 1267.5,-355.5 1376.5,-355.5 1376.5,-336.5 1267.5,-336.5"/>
<text text-anchor="middle" x="1322" y="-343.5" font-family="Helvetica,sans-Serif" font-size="10.00" fill="#000000">include/Component.h</text>
</a>
</g>
</g>
<!-- Node39&#45;&gt;Node40 -->
<g id="edge59" class="edge">
<title>Node39&#45;&gt;Node40</title>
<path fill="none" stroke="#191970" d="M1263.4101,-385.645C1275.3088,-375.9058 1291.5196,-363.8795 1304.0128,-355.6427"/>
<polygon fill="#191970" stroke="#191970" points="1260.9883,-383.1096 1255.623,-392.2455 1265.5144,-388.4495 1260.9883,-383.1096"/>
</g>
<!-- Node41 -->
<g id="node38" class="node">
<title>Node41</title>
<g id="a_node38"><a xlink:href="Button_8h.html" target="_top" xlink:title="include/Button.h">
<polygon fill="#ffffff" stroke="#000000" points="1359.5,-280.5 1359.5,-299.5 1446.5,-299.5 1446.5,-280.5 1359.5,-280.5"/>
<text text-anchor="middle" x="1403" y="-287.5" font-family="Helvetica,sans-Serif" font-size="10.00" fill="#000000">include/Button.h</text>
</a>
</g>
</g>
<!-- Node39&#45;&gt;Node41 -->
<g id="edge69" class="edge">
<title>Node39&#45;&gt;Node41</title>
<path fill="none" stroke="#191970" d="M1300.7723,-389.9629C1334.4878,-381.258 1374.0461,-368.817 1386,-356 1400.5266,-340.4246 1403.0297,-314.1227 1403.2356,-299.8787"/>
<polygon fill="#191970" stroke="#191970" points="1299.8322,-386.5903 1290.9909,-392.4283 1301.5431,-393.378 1299.8322,-386.5903"/>
</g>
<!-- Node40&#45;&gt;Node9 -->
<g id="edge64" class="edge">
<title>Node40&#45;&gt;Node9</title>
<path fill="none" stroke="#191970" d="M1289.7979,-331.998C1271.7009,-323.6181 1249.0012,-312.2375 1230,-300 1151.6274,-249.5251 1142.7889,-222.2772 1067,-168 1048.1228,-154.4808 1025.3434,-140.4693 1010.3075,-131.5176"/>
<polygon fill="#191970" stroke="#191970" points="1288.7738,-335.3771 1299.3256,-336.3312 1291.6718,-329.0052 1288.7738,-335.3771"/>
</g>
<!-- Node40&#45;&gt;Node25 -->
<g id="edge65" class="edge">
<title>Node40&#45;&gt;Node25</title>
<path fill="none" stroke="#191970" d="M1257.2229,-343.0866C1079.6479,-334.9854 593.549,-312.0002 522,-300 445.1953,-287.1183 357.5547,-258.5231 314.5905,-243.5549"/>
<polygon fill="#191970" stroke="#191970" points="1257.3131,-346.5942 1267.462,-343.5528 1257.6315,-339.6015 1257.3131,-346.5942"/>
</g>
<!-- Node40&#45;&gt;Node32 -->
<g id="edge63" class="edge">
<title>Node40&#45;&gt;Node32</title>
<path fill="none" stroke="#191970" d="M1364.3357,-333.4561C1399.0294,-323.1765 1447.3834,-308.8494 1478.9337,-299.5011"/>
<polygon fill="#191970" stroke="#191970" points="1363.0839,-330.1765 1354.4903,-336.3733 1365.0726,-336.8881 1363.0839,-330.1765"/>
</g>
<!-- Node40&#45;&gt;Node35 -->
<g id="edge66" class="edge">
<title>Node40&#45;&gt;Node35</title>
<path fill="none" stroke="#191970" d="M1257.4018,-335.2015C1195.5857,-324.8681 1103.2436,-309.4318 1044.0691,-299.5399"/>
<polygon fill="#191970" stroke="#191970" points="1256.9906,-338.6813 1267.4309,-336.878 1258.1448,-331.7771 1256.9906,-338.6813"/>
</g>
<!-- Node40&#45;&gt;Node37 -->
<g id="edge67" class="edge">
<title>Node40&#45;&gt;Node37</title>
<path fill="none" stroke="#191970" d="M1281.7069,-333.3235C1249.0632,-323.0536 1203.7866,-308.8093 1174.2,-299.5011"/>
<polygon fill="#191970" stroke="#191970" points="1280.8113,-336.7108 1291.4007,-336.3733 1282.912,-330.0335 1280.8113,-336.7108"/>
</g>
<!-- Node40&#45;&gt;Node39 -->
<g id="edge62" class="edge">
<title>Node40&#45;&gt;Node39</title>
<path fill="none" stroke="#191970" d="M1306.7508,-362.2232C1294.8912,-371.9416 1278.6832,-383.9746 1266.1567,-392.2455"/>
<polygon fill="#191970" stroke="#191970" points="1309.1443,-364.7824 1314.503,-355.6427 1304.6143,-359.4458 1309.1443,-364.7824"/>
</g>
<!-- Node40&#45;&gt;Node41 -->
<g id="edge60" class="edge">
<title>Node40&#45;&gt;Node41</title>
<path fill="none" stroke="#191970" d="M1344.434,-330.49C1358.7254,-320.6096 1376.7916,-308.1194 1389.0526,-299.6427"/>
<polygon fill="#191970" stroke="#191970" points="1342.3443,-327.6797 1336.1091,-336.2455 1346.3251,-333.4376 1342.3443,-327.6797"/>
</g>
<!-- Node42 -->
<g id="node39" class="node">
<title>Node42</title>
<g id="a_node39"><a xlink:href="Component_8cpp.html" target="_top" xlink:title="src/Component.cpp">
<polygon fill="#ffffff" stroke="#000000" points="1239,-280.5 1239,-299.5 1341,-299.5 1341,-280.5 1239,-280.5"/>
<text text-anchor="middle" x="1290" y="-287.5" font-family="Helvetica,sans-Serif" font-size="10.00" fill="#000000">src/Component.cpp</text>
</a>
</g>
</g>
<!-- Node40&#45;&gt;Node42 -->
<g id="edge68" class="edge">
<title>Node40&#45;&gt;Node42</title>
<path fill="none" stroke="#191970" d="M1311.3355,-327.3372C1306.0346,-318.0605 1299.8513,-307.2398 1295.5101,-299.6427"/>
<polygon fill="#191970" stroke="#191970" points="1308.4257,-329.2996 1316.426,-336.2455 1314.5034,-325.8266 1308.4257,-329.2996"/>
</g>
<!-- Node41&#45;&gt;Node30 -->
<g id="edge61" class="edge">
<title>Node41&#45;&gt;Node30</title>
<path fill="none" stroke="#191970" d="M1349.4369,-280.032C1190.8091,-257.4019 1014.7116,-242.8116 937.1349,-236.9192"/>
<polygon fill="#191970" stroke="#191970" points="1348.9796,-283.5022 1359.3766,-281.464 1349.9779,-276.5737 1348.9796,-283.5022"/>
</g>
</g>
</svg>
