<?xml version="1.0" encoding="UTF-8" standalone="no"?>
<!DOCTYPE svg PUBLIC "-//W3C//DTD SVG 1.1//EN"
 "http://www.w3.org/Graphics/SVG/1.1/DTD/svg11.dtd">
<!-- Generated by graphviz version 2.40.1 (20161225.0304)
 -->
<!-- Title: include/RectTransform.h Pages: 1 -->
<svg width="650pt" height="308pt"
 viewBox="0.00 0.00 650.00 308.00" xmlns="http://www.w3.org/2000/svg" xmlns:xlink="http://www.w3.org/1999/xlink">
<g id="graph0" class="graph" transform="scale(1 1) rotate(0) translate(4 304)">
<title>include/RectTransform.h</title>
<polygon fill="#ffffff" stroke="transparent" points="-4,4 -4,-304 646,-304 646,4 -4,4"/>
<!-- Node12 -->
<g id="node1" class="node">
<title>Node12</title>
<polygon fill="#bfbfbf" stroke="#000000" points="312.5,-280.5 312.5,-299.5 436.5,-299.5 436.5,-280.5 312.5,-280.5"/>
<text text-anchor="middle" x="374.5" y="-287.5" font-family="Helvetica,sans-Serif" font-size="10.00" fill="#000000">include/RectTransform.h</text>
</g>
<!-- Node13 -->
<g id="node2" class="node">
<title>Node13</title>
<g id="a_node2"><a xlink:href="Sprite_8h.html" target="_top" xlink:title="include/Sprite.h">
<polygon fill="#ffffff" stroke="#000000" points="131.5,-224.5 131.5,-243.5 215.5,-243.5 215.5,-224.5 131.5,-224.5"/>
<text text-anchor="middle" x="173.5" y="-231.5" font-family="Helvetica,sans-Serif" font-size="10.00" fill="#000000">include/Sprite.h</text>
</a>
</g>
</g>
<!-- Node12&#45;&gt;Node13 -->
<g id="edge1" class="edge">
<title>Node12&#45;&gt;Node13</title>
<path fill="none" stroke="#191970" d="M329.9506,-277.5882C293.0216,-267.2996 241.2998,-252.8895 207.6022,-243.5011"/>
<polygon fill="#191970" stroke="#191970" points="329.3744,-281.0609 339.9469,-280.3733 331.2531,-274.3177 329.3744,-281.0609"/>
</g>
<!-- Node20 -->
<g id="node9" class="node">
<title>Node20</title>
<g id="a_node9"><a xlink:href="Button_8cpp.html" target="_top" xlink:title="src/Button.cpp">
<polygon fill="#ffffff" stroke="#000000" points="233.5,-224.5 233.5,-243.5 313.5,-243.5 313.5,-224.5 233.5,-224.5"/>
<text text-anchor="middle" x="273.5" y="-231.5" font-family="Helvetica,sans-Serif" font-size="10.00" fill="#000000">src/Button.cpp</text>
</a>
</g>
</g>
<!-- Node12&#45;&gt;Node20 -->
<g id="edge8" class="edge">
<title>Node12&#45;&gt;Node20</title>
<path fill="none" stroke="#191970" d="M348.0281,-275.3225C329.9875,-265.3198 306.6123,-252.3593 290.8913,-243.6427"/>
<polygon fill="#191970" stroke="#191970" points="346.4643,-278.4574 356.9071,-280.2455 349.8587,-272.3354 346.4643,-278.4574"/>
</g>
<!-- Node21 -->
<g id="node10" class="node">
<title>Node21</title>
<g id="a_node10"><a xlink:href="Grouper_8cpp.html" target="_top" xlink:title="src/Grouper.cpp">
<polygon fill="#ffffff" stroke="#000000" points="331.5,-224.5 331.5,-243.5 417.5,-243.5 417.5,-224.5 331.5,-224.5"/>
<text text-anchor="middle" x="374.5" y="-231.5" font-family="Helvetica,sans-Serif" font-size="10.00" fill="#000000">src/Grouper.cpp</text>
</a>
</g>
</g>
<!-- Node12&#45;&gt;Node21 -->
<g id="edge9" class="edge">
<title>Node12&#45;&gt;Node21</title>
<path fill="none" stroke="#191970" d="M374.5,-270.1575C374.5,-261.155 374.5,-250.9199 374.5,-243.6427"/>
<polygon fill="#191970" stroke="#191970" points="371.0001,-270.2455 374.5,-280.2455 378.0001,-270.2456 371.0001,-270.2455"/>
</g>
<!-- Node22 -->
<g id="node11" class="node">
<title>Node22</title>
<g id="a_node11"><a xlink:href="RectTransform_8cpp.html" target="_top" xlink:title="src/RectTransform.cpp">
<polygon fill="#ffffff" stroke="#000000" points="436,-224.5 436,-243.5 553,-243.5 553,-224.5 436,-224.5"/>
<text text-anchor="middle" x="494.5" y="-231.5" font-family="Helvetica,sans-Serif" font-size="10.00" fill="#000000">src/RectTransform.cpp</text>
</a>
</g>
</g>
<!-- Node12&#45;&gt;Node22 -->
<g id="edge10" class="edge">
<title>Node12&#45;&gt;Node22</title>
<path fill="none" stroke="#191970" d="M404.2624,-276.1109C426.0232,-265.9559 454.9682,-252.4482 474.1405,-243.5011"/>
<polygon fill="#191970" stroke="#191970" points="402.7105,-272.9727 395.1287,-280.3733 405.6707,-279.316 402.7105,-272.9727"/>
</g>
<!-- Node23 -->
<g id="node12" class="node">
<title>Node23</title>
<g id="a_node12"><a xlink:href="Text_8cpp.html" target="_top" xlink:title="src/Text.cpp">
<polygon fill="#ffffff" stroke="#000000" points="571,-224.5 571,-243.5 642,-243.5 642,-224.5 571,-224.5"/>
<text text-anchor="middle" x="606.5" y="-231.5" font-family="Helvetica,sans-Serif" font-size="10.00" fill="#000000">src/Text.cpp</text>
</a>
</g>
</g>
<!-- Node12&#45;&gt;Node23 -->
<g id="edge11" class="edge">
<title>Node12&#45;&gt;Node23</title>
<path fill="none" stroke="#191970" d="M424.0511,-278.0394C468.1488,-267.3951 531.5779,-252.0847 570.8515,-242.6048"/>
<polygon fill="#191970" stroke="#191970" points="423.0182,-274.6881 414.1186,-280.4369 424.6607,-281.4927 423.0182,-274.6881"/>
</g>
<!-- Node14 -->
<g id="node3" class="node">
<title>Node14</title>
<g id="a_node3"><a xlink:href="Tileset_8h.html" target="_top" xlink:title="include/Tileset.h">
<polygon fill="#ffffff" stroke="#000000" points="79.5,-168.5 79.5,-187.5 167.5,-187.5 167.5,-168.5 79.5,-168.5"/>
<text text-anchor="middle" x="123.5" y="-175.5" font-family="Helvetica,sans-Serif" font-size="10.00" fill="#000000">include/Tileset.h</text>
</a>
</g>
</g>
<!-- Node13&#45;&gt;Node14 -->
<g id="edge2" class="edge">
<title>Node13&#45;&gt;Node14</title>
<path fill="none" stroke="#191970" d="M157.8753,-216.5004C149.3727,-206.9775 139.1782,-195.5596 132.1095,-187.6427"/>
<polygon fill="#191970" stroke="#191970" points="155.5197,-219.1172 164.7907,-224.2455 160.7413,-214.4551 155.5197,-219.1172"/>
</g>
<!-- Node19 -->
<g id="node8" class="node">
<title>Node19</title>
<g id="a_node8"><a xlink:href="Sprite_8cpp.html" target="_top" xlink:title="src/Sprite.cpp">
<polygon fill="#ffffff" stroke="#000000" points="186,-168.5 186,-187.5 263,-187.5 263,-168.5 186,-168.5"/>
<text text-anchor="middle" x="224.5" y="-175.5" font-family="Helvetica,sans-Serif" font-size="10.00" fill="#000000">src/Sprite.cpp</text>
</a>
</g>
</g>
<!-- Node13&#45;&gt;Node19 -->
<g id="edge7" class="edge">
<title>Node13&#45;&gt;Node19</title>
<path fill="none" stroke="#191970" d="M189.1749,-216.7884C197.8994,-207.2085 208.4354,-195.6396 215.7183,-187.6427"/>
<polygon fill="#191970" stroke="#191970" points="186.5291,-214.4954 182.3835,-224.2455 191.7046,-219.2088 186.5291,-214.4954"/>
</g>
<!-- Node15 -->
<g id="node4" class="node">
<title>Node15</title>
<g id="a_node4"><a xlink:href="TileMap_8h.html" target="_top" xlink:title="include/TileMap.h">
<polygon fill="#ffffff" stroke="#000000" points="25,-112.5 25,-131.5 118,-131.5 118,-112.5 25,-112.5"/>
<text text-anchor="middle" x="71.5" y="-119.5" font-family="Helvetica,sans-Serif" font-size="10.00" fill="#000000">include/TileMap.h</text>
</a>
</g>
</g>
<!-- Node14&#45;&gt;Node15 -->
<g id="edge3" class="edge">
<title>Node14&#45;&gt;Node15</title>
<path fill="none" stroke="#191970" d="M107.5178,-160.7884C98.6222,-151.2085 87.8796,-139.6396 80.4539,-131.6427"/>
<polygon fill="#191970" stroke="#191970" points="105.073,-163.2992 114.4423,-168.2455 110.2025,-158.536 105.073,-163.2992"/>
</g>
<!-- Node18 -->
<g id="node7" class="node">
<title>Node18</title>
<g id="a_node7"><a xlink:href="Tileset_8cpp.html" target="_top" xlink:title="src/Tileset.cpp">
<polygon fill="#ffffff" stroke="#000000" points="136,-112.5 136,-131.5 217,-131.5 217,-112.5 136,-112.5"/>
<text text-anchor="middle" x="176.5" y="-119.5" font-family="Helvetica,sans-Serif" font-size="10.00" fill="#000000">src/Tileset.cpp</text>
</a>
</g>
</g>
<!-- Node14&#45;&gt;Node18 -->
<g id="edge6" class="edge">
<title>Node14&#45;&gt;Node18</title>
<path fill="none" stroke="#191970" d="M139.7896,-160.7884C148.8562,-151.2085 159.8054,-139.6396 167.3739,-131.6427"/>
<polygon fill="#191970" stroke="#191970" points="137.0637,-158.5767 132.7319,-168.2455 142.1478,-163.3884 137.0637,-158.5767"/>
</g>
<!-- Node16 -->
<g id="node5" class="node">
<title>Node16</title>
<g id="a_node5"><a xlink:href="ManhattanDistance_8h.html" target="_top" xlink:title="include/ManhattanDistance.h">
<polygon fill="#ffffff" stroke="#000000" points="0,-56.5 0,-75.5 143,-75.5 143,-56.5 0,-56.5"/>
<text text-anchor="middle" x="71.5" y="-63.5" font-family="Helvetica,sans-Serif" font-size="10.00" fill="#000000">include/ManhattanDistance.h</text>
</a>
</g>
</g>
<!-- Node15&#45;&gt;Node16 -->
<g id="edge4" class="edge">
<title>Node15&#45;&gt;Node16</title>
<path fill="none" stroke="#191970" d="M71.5,-102.1575C71.5,-93.155 71.5,-82.9199 71.5,-75.6427"/>
<polygon fill="#191970" stroke="#191970" points="68.0001,-102.2455 71.5,-112.2455 75.0001,-102.2456 68.0001,-102.2455"/>
</g>
<!-- Node17 -->
<g id="node6" class="node">
<title>Node17</title>
<g id="a_node6"><a xlink:href="ManhattanDistance_8cpp.html" target="_top" xlink:title="src/ManhattanDistance.cpp">
<polygon fill="#ffffff" stroke="#000000" points="3,-.5 3,-19.5 140,-19.5 140,-.5 3,-.5"/>
<text text-anchor="middle" x="71.5" y="-7.5" font-family="Helvetica,sans-Serif" font-size="10.00" fill="#000000">src/ManhattanDistance.cpp</text>
</a>
</g>
</g>
<!-- Node16&#45;&gt;Node17 -->
<g id="edge5" class="edge">
<title>Node16&#45;&gt;Node17</title>
<path fill="none" stroke="#191970" d="M71.5,-46.1575C71.5,-37.155 71.5,-26.9199 71.5,-19.6427"/>
<polygon fill="#191970" stroke="#191970" points="68.0001,-46.2455 71.5,-56.2455 75.0001,-46.2456 68.0001,-46.2455"/>
</g>
</g>
</svg>
