<?xml version="1.0" encoding="UTF-8" standalone="no"?>
<!DOCTYPE svg PUBLIC "-//W3C//DTD SVG 1.1//EN"
 "http://www.w3.org/Graphics/SVG/1.1/DTD/svg11.dtd">
<!-- Generated by graphviz version 2.38.0 (20140413.2041)
 -->
<!-- Title: include/Rect.h Pages: 1 -->
<svg width="2511pt" height="308pt"
 viewBox="0.00 0.00 2510.50 308.00" xmlns="http://www.w3.org/2000/svg" xmlns:xlink="http://www.w3.org/1999/xlink">
<g id="graph0" class="graph" transform="scale(1 1) rotate(0) translate(4 304)">
<title>include/Rect.h</title>
<polygon fill="white" stroke="none" points="-4,4 -4,-304 2506.5,-304 2506.5,4 -4,4"/>
<!-- Node4 -->
<g id="node1" class="node"><title>Node4</title>
<polygon fill="#bfbfbf" stroke="black" points="1816,-280.5 1816,-299.5 1896,-299.5 1896,-280.5 1816,-280.5"/>
<text text-anchor="middle" x="1856" y="-287.5" font-family="Helvetica,sans-Serif" font-size="10.00">include/Rect.h</text>
</g>
<!-- Node5 -->
<g id="node2" class="node"><title>Node5</title>
<g id="a_node2"><a xlink:href="GameObject_8h.html" target="_top" xlink:title="include/GameObject.h">
<polygon fill="white" stroke="black" points="347.5,-224.5 347.5,-243.5 460.5,-243.5 460.5,-224.5 347.5,-224.5"/>
<text text-anchor="middle" x="404" y="-231.5" font-family="Helvetica,sans-Serif" font-size="10.00">include/GameObject.h</text>
</a>
</g>
</g>
<!-- Node4&#45;&gt;Node5 -->
<g id="edge1" class="edge"><title>Node4&#45;&gt;Node5</title>
<path fill="none" stroke="midnightblue" d="M1805.59,-287.125C1583.66,-278.872 694.285,-245.796 460.521,-237.102"/>
<polygon fill="midnightblue" stroke="midnightblue" points="1805.53,-290.625 1815.65,-287.499 1805.79,-283.63 1805.53,-290.625"/>
</g>
<!-- Node23 -->
<g id="node20" class="node"><title>Node23</title>
<g id="a_node20"><a xlink:href="Text_8h.html" target="_top" xlink:title="include/Text.h">
<polygon fill="white" stroke="black" points="1182,-56.5 1182,-75.5 1260,-75.5 1260,-56.5 1182,-56.5"/>
<text text-anchor="middle" x="1221" y="-63.5" font-family="Helvetica,sans-Serif" font-size="10.00">include/Text.h</text>
</a>
</g>
</g>
<!-- Node4&#45;&gt;Node23 -->
<g id="edge67" class="edge"><title>Node4&#45;&gt;Node23</title>
<path fill="none" stroke="midnightblue" d="M1805.89,-286.827C1712.02,-282.204 1513.45,-269.653 1450,-244 1349.38,-203.319 1255.53,-105.278 1228.66,-75.6339"/>
<polygon fill="midnightblue" stroke="midnightblue" points="1805.83,-290.328 1815.99,-287.314 1806.17,-283.336 1805.83,-290.328"/>
</g>
<!-- Node29 -->
<g id="node26" class="node"><title>Node29</title>
<g id="a_node26"><a xlink:href="Sprite_8h.html" target="_top" xlink:title="include/Sprite.h">
<polygon fill="white" stroke="black" points="1476,-224.5 1476,-243.5 1560,-243.5 1560,-224.5 1476,-224.5"/>
<text text-anchor="middle" x="1518" y="-231.5" font-family="Helvetica,sans-Serif" font-size="10.00">include/Sprite.h</text>
</a>
</g>
</g>
<!-- Node4&#45;&gt;Node29 -->
<g id="edge37" class="edge"><title>Node4&#45;&gt;Node29</title>
<path fill="none" stroke="midnightblue" d="M1805.76,-281C1749.36,-272.015 1655.11,-256.989 1574,-244 1569.53,-243.284 1564.85,-242.534 1560.2,-241.787"/>
<polygon fill="midnightblue" stroke="midnightblue" points="1805.41,-284.489 1815.84,-282.605 1806.51,-277.576 1805.41,-284.489"/>
</g>
<!-- Node31 -->
<g id="node28" class="node"><title>Node31</title>
<g id="a_node28"><a xlink:href="UIelement_8h.html" target="_top" xlink:title="include/UIelement.h">
<polygon fill="white" stroke="black" points="1648,-168.5 1648,-187.5 1752,-187.5 1752,-168.5 1648,-168.5"/>
<text text-anchor="middle" x="1700" y="-175.5" font-family="Helvetica,sans-Serif" font-size="10.00">include/UIelement.h</text>
</a>
</g>
</g>
<!-- Node4&#45;&gt;Node31 -->
<g id="edge72" class="edge"><title>Node4&#45;&gt;Node31</title>
<path fill="none" stroke="midnightblue" d="M1824.75,-276.301C1806.78,-268.299 1784.23,-257.031 1766,-244 1742.19,-226.976 1718.88,-201.305 1707.39,-187.886"/>
<polygon fill="midnightblue" stroke="midnightblue" points="1823.64,-279.633 1834.2,-280.4 1826.42,-273.211 1823.64,-279.633"/>
</g>
<!-- Node32 -->
<g id="node29" class="node"><title>Node32</title>
<g id="a_node29"><a xlink:href="UIcanvas_8h.html" target="_top" xlink:title="include/UIcanvas.h">
<polygon fill="white" stroke="black" points="1652.5,-112.5 1652.5,-131.5 1753.5,-131.5 1753.5,-112.5 1652.5,-112.5"/>
<text text-anchor="middle" x="1703" y="-119.5" font-family="Helvetica,sans-Serif" font-size="10.00">include/UIcanvas.h</text>
</a>
</g>
</g>
<!-- Node4&#45;&gt;Node32 -->
<g id="edge73" class="edge"><title>Node4&#45;&gt;Node32</title>
<path fill="none" stroke="midnightblue" d="M1844.4,-271.617C1827.59,-247.092 1794.77,-201.581 1761,-168 1746.9,-153.982 1728.45,-140.338 1716.18,-131.818"/>
<polygon fill="midnightblue" stroke="midnightblue" points="1841.7,-273.88 1850.21,-280.197 1847.5,-269.955 1841.7,-273.88"/>
</g>
<!-- Node33 -->
<g id="node30" class="node"><title>Node33</title>
<g id="a_node30"><a xlink:href="UIgridGroup_8h.html" target="_top" xlink:title="include/UIgridGroup.h">
<polygon fill="white" stroke="black" points="1393.5,-56.5 1393.5,-75.5 1504.5,-75.5 1504.5,-56.5 1393.5,-56.5"/>
<text text-anchor="middle" x="1449" y="-63.5" font-family="Helvetica,sans-Serif" font-size="10.00">include/UIgridGroup.h</text>
</a>
</g>
</g>
<!-- Node4&#45;&gt;Node33 -->
<g id="edge74" class="edge"><title>Node4&#45;&gt;Node33</title>
<path fill="none" stroke="midnightblue" d="M1805.86,-286.656C1706.13,-281.505 1490.4,-267.725 1467,-244 1420.37,-196.719 1439.37,-104.01 1446.65,-75.5276"/>
<polygon fill="midnightblue" stroke="midnightblue" points="1805.83,-290.16 1816,-287.171 1806.19,-283.169 1805.83,-290.16"/>
</g>
<!-- Node35 -->
<g id="node32" class="node"><title>Node35</title>
<g id="a_node32"><a xlink:href="UIhorizontalGroup_8h.html" target="_top" xlink:title="include/UIhorizontalGroup.h">
<polygon fill="white" stroke="black" points="1877.5,-56.5 1877.5,-75.5 2014.5,-75.5 2014.5,-56.5 1877.5,-56.5"/>
<text text-anchor="middle" x="1946" y="-63.5" font-family="Helvetica,sans-Serif" font-size="10.00">include/UIhorizontalGroup.h</text>
</a>
</g>
</g>
<!-- Node4&#45;&gt;Node35 -->
<g id="edge75" class="edge"><title>Node4&#45;&gt;Node35</title>
<path fill="none" stroke="midnightblue" d="M1863.35,-270.872C1881.69,-225.627 1928.98,-108.993 1942.4,-75.8837"/>
<polygon fill="midnightblue" stroke="midnightblue" points="1860.04,-269.715 1859.53,-280.297 1866.53,-272.345 1860.04,-269.715"/>
</g>
<!-- Node37 -->
<g id="node34" class="node"><title>Node37</title>
<g id="a_node34"><a xlink:href="UIverticalGroup_8h.html" target="_top" xlink:title="include/UIverticalGroup.h">
<polygon fill="white" stroke="black" points="1522.5,-56.5 1522.5,-75.5 1649.5,-75.5 1649.5,-56.5 1522.5,-56.5"/>
<text text-anchor="middle" x="1586" y="-63.5" font-family="Helvetica,sans-Serif" font-size="10.00">include/UIverticalGroup.h</text>
</a>
</g>
</g>
<!-- Node4&#45;&gt;Node37 -->
<g id="edge80" class="edge"><title>Node4&#45;&gt;Node37</title>
<path fill="none" stroke="midnightblue" d="M1806.12,-277.856C1757.16,-264.457 1683.55,-237.341 1639,-188 1607.65,-153.276 1592.61,-97.057 1587.79,-75.651"/>
<polygon fill="midnightblue" stroke="midnightblue" points="1805.3,-281.261 1815.87,-280.433 1807.09,-274.494 1805.3,-281.261"/>
</g>
<!-- Node40 -->
<g id="node37" class="node"><title>Node40</title>
<g id="a_node37"><a xlink:href="UIimage_8h.html" target="_top" xlink:title="include/UIimage.h">
<polygon fill="white" stroke="black" points="1952.5,-112.5 1952.5,-131.5 2047.5,-131.5 2047.5,-112.5 1952.5,-112.5"/>
<text text-anchor="middle" x="2000" y="-119.5" font-family="Helvetica,sans-Serif" font-size="10.00">include/UIimage.h</text>
</a>
</g>
</g>
<!-- Node4&#45;&gt;Node40 -->
<g id="edge76" class="edge"><title>Node4&#45;&gt;Node40</title>
<path fill="none" stroke="midnightblue" d="M1888.85,-276.45C1905.17,-268.951 1924.28,-258.114 1938,-244 1971.56,-209.471 1991.01,-153.137 1997.52,-131.675"/>
<polygon fill="midnightblue" stroke="midnightblue" points="1887.39,-273.269 1879.62,-280.479 1890.19,-279.684 1887.39,-273.269"/>
</g>
<!-- Node41 -->
<g id="node38" class="node"><title>Node41</title>
<g id="a_node38"><a xlink:href="UIimageButton_8h.html" target="_top" xlink:title="include/UIimageButton.h">
<polygon fill="white" stroke="black" points="2139,-56.5 2139,-75.5 2263,-75.5 2263,-56.5 2139,-56.5"/>
<text text-anchor="middle" x="2201" y="-63.5" font-family="Helvetica,sans-Serif" font-size="10.00">include/UIimageButton.h</text>
</a>
</g>
</g>
<!-- Node4&#45;&gt;Node41 -->
<g id="edge77" class="edge"><title>Node4&#45;&gt;Node41</title>
<path fill="none" stroke="midnightblue" d="M1889.22,-276.684C1909.87,-268.502 1936.64,-256.914 1959,-244 2044.6,-194.571 2058,-170.062 2138,-112 2155.62,-99.2098 2176.17,-84.5869 2188.88,-75.5726"/>
<polygon fill="midnightblue" stroke="midnightblue" points="1887.68,-273.53 1879.63,-280.418 1890.22,-280.053 1887.68,-273.53"/>
</g>
<!-- Node44 -->
<g id="node41" class="node"><title>Node44</title>
<g id="a_node41"><a xlink:href="UItext_8h.html" target="_top" xlink:title="include/UItext.h">
<polygon fill="white" stroke="black" points="1810,-112.5 1810,-131.5 1896,-131.5 1896,-112.5 1810,-112.5"/>
<text text-anchor="middle" x="1853" y="-119.5" font-family="Helvetica,sans-Serif" font-size="10.00">include/UItext.h</text>
</a>
</g>
</g>
<!-- Node4&#45;&gt;Node44 -->
<g id="edge78" class="edge"><title>Node4&#45;&gt;Node44</title>
<path fill="none" stroke="midnightblue" d="M1855.66,-269.93C1855,-233.92 1853.62,-157.231 1853.15,-131.568"/>
<polygon fill="midnightblue" stroke="midnightblue" points="1852.16,-270.14 1855.84,-280.075 1859.16,-270.013 1852.16,-270.14"/>
</g>
<!-- Node45 -->
<g id="node42" class="node"><title>Node45</title>
<g id="a_node42"><a xlink:href="UItextButton_8h.html" target="_top" xlink:title="include/UItextButton.h">
<polygon fill="white" stroke="black" points="2281,-56.5 2281,-75.5 2395,-75.5 2395,-56.5 2281,-56.5"/>
<text text-anchor="middle" x="2338" y="-63.5" font-family="Helvetica,sans-Serif" font-size="10.00">include/UItextButton.h</text>
</a>
</g>
</g>
<!-- Node4&#45;&gt;Node45 -->
<g id="edge79" class="edge"><title>Node4&#45;&gt;Node45</title>
<path fill="none" stroke="midnightblue" d="M1895.65,-277.507C1922.24,-269.313 1957.78,-257.405 1988,-244 2098.57,-194.958 2116.78,-163.981 2226,-112 2255.71,-97.8614 2291.1,-84.1395 2314.03,-75.641"/>
<polygon fill="midnightblue" stroke="midnightblue" points="1894.48,-274.205 1885.93,-280.461 1896.52,-280.902 1894.48,-274.205"/>
</g>
<!-- Node47 -->
<g id="node44" class="node"><title>Node47</title>
<g id="a_node44"><a xlink:href="Collision_8h.html" target="_top" xlink:title="include/Collision.h">
<polygon fill="white" stroke="black" points="2218,-224.5 2218,-243.5 2314,-243.5 2314,-224.5 2218,-224.5"/>
<text text-anchor="middle" x="2266" y="-231.5" font-family="Helvetica,sans-Serif" font-size="10.00">include/Collision.h</text>
</a>
</g>
</g>
<!-- Node4&#45;&gt;Node47 -->
<g id="edge66" class="edge"><title>Node4&#45;&gt;Node47</title>
<path fill="none" stroke="midnightblue" d="M1906.18,-282.76C1973.85,-274.289 2098.08,-258.535 2204,-244 2208.53,-243.379 2213.24,-242.719 2217.95,-242.051"/>
<polygon fill="midnightblue" stroke="midnightblue" points="1905.7,-279.292 1896.22,-284.006 1906.57,-286.238 1905.7,-279.292"/>
</g>
<!-- Node48 -->
<g id="node45" class="node"><title>Node48</title>
<g id="a_node45"><a xlink:href="UIbutton_8h.html" target="_top" xlink:title="include/UIbutton.h">
<polygon fill="white" stroke="black" points="2235,-112.5 2235,-131.5 2331,-131.5 2331,-112.5 2235,-112.5"/>
<text text-anchor="middle" x="2283" y="-119.5" font-family="Helvetica,sans-Serif" font-size="10.00">include/UIbutton.h</text>
</a>
</g>
</g>
<!-- Node4&#45;&gt;Node48 -->
<g id="edge68" class="edge"><title>Node4&#45;&gt;Node48</title>
<path fill="none" stroke="midnightblue" d="M1906.27,-285.654C1982.12,-279.948 2121.67,-266.694 2166,-244 2219.84,-216.434 2263.11,-154.335 2277.7,-131.572"/>
<polygon fill="midnightblue" stroke="midnightblue" points="1905.72,-282.185 1896.01,-286.409 1906.24,-289.166 1905.72,-282.185"/>
</g>
<!-- Node50 -->
<g id="node47" class="node"><title>Node50</title>
<g id="a_node47"><a xlink:href="Rect_8cpp.html" target="_top" xlink:title="src/Rect.cpp">
<polygon fill="white" stroke="black" points="2332.5,-224.5 2332.5,-243.5 2405.5,-243.5 2405.5,-224.5 2332.5,-224.5"/>
<text text-anchor="middle" x="2369" y="-231.5" font-family="Helvetica,sans-Serif" font-size="10.00">src/Rect.cpp</text>
</a>
</g>
</g>
<!-- Node4&#45;&gt;Node50 -->
<g id="edge81" class="edge"><title>Node4&#45;&gt;Node50</title>
<path fill="none" stroke="midnightblue" d="M1906.38,-285.758C1992.2,-279.874 2172.12,-265.976 2323,-244 2326.06,-243.554 2329.23,-243.043 2332.4,-242.494"/>
<polygon fill="midnightblue" stroke="midnightblue" points="1905.88,-282.283 1896.14,-286.452 1906.35,-289.267 1905.88,-282.283"/>
</g>
<!-- Node6 -->
<g id="node3" class="node"><title>Node6</title>
<g id="a_node3"><a xlink:href="Animation_8h.html" target="_top" xlink:title="include/Animation.h">
<polygon fill="white" stroke="black" points="545,-168.5 545,-187.5 647,-187.5 647,-168.5 545,-168.5"/>
<text text-anchor="middle" x="596" y="-175.5" font-family="Helvetica,sans-Serif" font-size="10.00">include/Animation.h</text>
</a>
</g>
</g>
<!-- Node5&#45;&gt;Node6 -->
<g id="edge2" class="edge"><title>Node5&#45;&gt;Node6</title>
<path fill="none" stroke="midnightblue" d="M444.183,-221.699C480.419,-211.507 532.914,-196.743 565.719,-187.516"/>
<polygon fill="midnightblue" stroke="midnightblue" points="443.102,-218.367 434.423,-224.444 444.997,-225.105 443.102,-218.367"/>
</g>
<!-- Node8 -->
<g id="node5" class="node"><title>Node8</title>
<g id="a_node5"><a xlink:href="Component_8h.html" target="_top" xlink:title="include/Component.h">
<polygon fill="white" stroke="black" points="75.5,-168.5 75.5,-187.5 184.5,-187.5 184.5,-168.5 75.5,-168.5"/>
<text text-anchor="middle" x="130" y="-175.5" font-family="Helvetica,sans-Serif" font-size="10.00">include/Component.h</text>
</a>
</g>
</g>
<!-- Node5&#45;&gt;Node8 -->
<g id="edge4" class="edge"><title>Node5&#45;&gt;Node8</title>
<path fill="none" stroke="midnightblue" d="M345.443,-222.537C291.829,-212.332 214.16,-196.999 168.133,-187.516"/>
<polygon fill="midnightblue" stroke="midnightblue" points="345.018,-226.019 355.495,-224.444 346.322,-219.141 345.018,-226.019"/>
</g>
<!-- Node12 -->
<g id="node9" class="node"><title>Node12</title>
<g id="a_node9"><a xlink:href="Camera_8h.html" target="_top" xlink:title="include/Camera.h">
<polygon fill="white" stroke="black" points="481.5,-112.5 481.5,-131.5 574.5,-131.5 574.5,-112.5 481.5,-112.5"/>
<text text-anchor="middle" x="528" y="-119.5" font-family="Helvetica,sans-Serif" font-size="10.00">include/Camera.h</text>
</a>
</g>
</g>
<!-- Node5&#45;&gt;Node12 -->
<g id="edge9" class="edge"><title>Node5&#45;&gt;Node12</title>
<path fill="none" stroke="midnightblue" d="M421.46,-217.512C447.956,-194.007 497.44,-150.11 518.315,-131.591"/>
<polygon fill="midnightblue" stroke="midnightblue" points="418.888,-215.114 413.73,-224.368 423.534,-220.351 418.888,-215.114"/>
</g>
<!-- Node14 -->
<g id="node11" class="node"><title>Node14</title>
<g id="a_node11"><a xlink:href="GameObject_8cpp.html" target="_top" xlink:title="src/GameObject.cpp">
<polygon fill="white" stroke="black" points="298.5,-56.5 298.5,-75.5 405.5,-75.5 405.5,-56.5 298.5,-56.5"/>
<text text-anchor="middle" x="352" y="-63.5" font-family="Helvetica,sans-Serif" font-size="10.00">src/GameObject.cpp</text>
</a>
</g>
</g>
<!-- Node5&#45;&gt;Node14 -->
<g id="edge36" class="edge"><title>Node5&#45;&gt;Node14</title>
<path fill="none" stroke="midnightblue" d="M398.172,-214.395C386.954,-178.585 362.758,-101.342 354.684,-75.5681"/>
<polygon fill="midnightblue" stroke="midnightblue" points="394.875,-215.579 401.204,-224.075 401.555,-213.486 394.875,-215.579"/>
</g>
<!-- Node19 -->
<g id="node16" class="node"><title>Node19</title>
<g id="a_node16"><a xlink:href="TileMap_8h.html" target="_top" xlink:title="include/TileMap.h">
<polygon fill="white" stroke="black" points="212.5,-112.5 212.5,-131.5 305.5,-131.5 305.5,-112.5 212.5,-112.5"/>
<text text-anchor="middle" x="259" y="-119.5" font-family="Helvetica,sans-Serif" font-size="10.00">include/TileMap.h</text>
</a>
</g>
</g>
<!-- Node5&#45;&gt;Node19 -->
<g id="edge18" class="edge"><title>Node5&#45;&gt;Node19</title>
<path fill="none" stroke="midnightblue" d="M391.469,-215.75C380.599,-201.645 363.841,-181.84 346,-168 325.712,-152.261 299.089,-139.433 280.662,-131.557"/>
<polygon fill="midnightblue" stroke="midnightblue" points="388.914,-218.176 397.715,-224.076 394.514,-213.976 388.914,-218.176"/>
</g>
<!-- Node20 -->
<g id="node17" class="node"><title>Node20</title>
<g id="a_node17"><a xlink:href="NearestGOFinder_8h.html" target="_top" xlink:title="include/NearestGOFinder.h">
<polygon fill="white" stroke="black" points="202.5,-168.5 202.5,-187.5 337.5,-187.5 337.5,-168.5 202.5,-168.5"/>
<text text-anchor="middle" x="270" y="-175.5" font-family="Helvetica,sans-Serif" font-size="10.00">include/NearestGOFinder.h</text>
</a>
</g>
</g>
<!-- Node5&#45;&gt;Node20 -->
<g id="edge22" class="edge"><title>Node5&#45;&gt;Node20</title>
<path fill="none" stroke="midnightblue" d="M373.323,-220.638C348.177,-210.504 313.246,-196.427 291.133,-187.516"/>
<polygon fill="midnightblue" stroke="midnightblue" points="372.184,-223.952 382.767,-224.444 374.8,-217.459 372.184,-223.952"/>
</g>
<!-- Node21 -->
<g id="node18" class="node"><title>Node21</title>
<g id="a_node18"><a xlink:href="State_8h.html" target="_top" xlink:title="include/State.h">
<polygon fill="white" stroke="black" points="771,-168.5 771,-187.5 853,-187.5 853,-168.5 771,-168.5"/>
<text text-anchor="middle" x="812" y="-175.5" font-family="Helvetica,sans-Serif" font-size="10.00">include/State.h</text>
</a>
</g>
</g>
<!-- Node5&#45;&gt;Node21 -->
<g id="edge24" class="edge"><title>Node5&#45;&gt;Node21</title>
<path fill="none" stroke="midnightblue" d="M470.839,-225.671C542.862,-217.524 660.779,-203.46 762,-188 764.877,-187.561 767.844,-187.085 770.828,-186.589"/>
<polygon fill="midnightblue" stroke="midnightblue" points="470.098,-222.233 460.553,-226.83 470.882,-229.189 470.098,-222.233"/>
</g>
<!-- Node7 -->
<g id="node4" class="node"><title>Node7</title>
<g id="a_node4"><a xlink:href="Animation_8cpp.html" target="_top" xlink:title="src/Animation.cpp">
<polygon fill="white" stroke="black" points="555.5,-56.5 555.5,-75.5 650.5,-75.5 650.5,-56.5 555.5,-56.5"/>
<text text-anchor="middle" x="603" y="-63.5" font-family="Helvetica,sans-Serif" font-size="10.00">src/Animation.cpp</text>
</a>
</g>
</g>
<!-- Node6&#45;&gt;Node7 -->
<g id="edge3" class="edge"><title>Node6&#45;&gt;Node7</title>
<path fill="none" stroke="midnightblue" d="M597.187,-158.348C598.72,-134.254 601.326,-93.3079 602.453,-75.5914"/>
<polygon fill="midnightblue" stroke="midnightblue" points="593.692,-158.166 596.549,-168.368 600.677,-158.611 593.692,-158.166"/>
</g>
<!-- Node8&#45;&gt;Node5 -->
<g id="edge5" class="edge"><title>Node8&#45;&gt;Node5</title>
<path fill="none" stroke="midnightblue" d="M188.331,-189.42C241.878,-199.611 319.557,-214.944 365.673,-224.444"/>
<polygon fill="midnightblue" stroke="midnightblue" points="188.77,-185.941 178.293,-187.516 187.466,-192.818 188.77,-185.941"/>
</g>
<!-- Node9 -->
<g id="node6" class="node"><title>Node9</title>
<g id="a_node6"><a xlink:href="DragAndDrop_8h.html" target="_top" xlink:title="include/DragAndDrop.h">
<polygon fill="white" stroke="black" points="20,-56.5 20,-75.5 138,-75.5 138,-56.5 20,-56.5"/>
<text text-anchor="middle" x="79" y="-63.5" font-family="Helvetica,sans-Serif" font-size="10.00">include/DragAndDrop.h</text>
</a>
</g>
</g>
<!-- Node8&#45;&gt;Node9 -->
<g id="edge6" class="edge"><title>Node8&#45;&gt;Node9</title>
<path fill="none" stroke="midnightblue" d="M126.294,-158.359C123.232,-145.024 118.21,-126.878 111,-112 104.395,-98.3697 93.7532,-84.4229 86.574,-75.7423"/>
<polygon fill="midnightblue" stroke="midnightblue" points="122.896,-159.204 128.411,-168.251 129.741,-157.74 122.896,-159.204"/>
</g>
<!-- Node11 -->
<g id="node8" class="node"><title>Node11</title>
<g id="a_node8"><a xlink:href="Component_8cpp.html" target="_top" xlink:title="src/Component.cpp">
<polygon fill="white" stroke="black" points="0,-112.5 0,-131.5 102,-131.5 102,-112.5 0,-112.5"/>
<text text-anchor="middle" x="51" y="-119.5" font-family="Helvetica,sans-Serif" font-size="10.00">src/Component.cpp</text>
</a>
</g>
</g>
<!-- Node8&#45;&gt;Node11 -->
<g id="edge8" class="edge"><title>Node8&#45;&gt;Node11</title>
<path fill="none" stroke="midnightblue" d="M108.966,-162.622C94.5339,-152.757 75.8585,-139.992 63.6612,-131.655"/>
<polygon fill="midnightblue" stroke="midnightblue" points="107.077,-165.57 117.307,-168.324 111.027,-159.791 107.077,-165.57"/>
</g>
<!-- Node10 -->
<g id="node7" class="node"><title>Node10</title>
<g id="a_node7"><a xlink:href="DragAndDrop_8cpp.html" target="_top" xlink:title="src/DragAndDrop.cpp">
<polygon fill="white" stroke="black" points="110.5,-0.5 110.5,-19.5 221.5,-19.5 221.5,-0.5 110.5,-0.5"/>
<text text-anchor="middle" x="166" y="-7.5" font-family="Helvetica,sans-Serif" font-size="10.00">src/DragAndDrop.cpp</text>
</a>
</g>
</g>
<!-- Node9&#45;&gt;Node10 -->
<g id="edge7" class="edge"><title>Node9&#45;&gt;Node10</title>
<path fill="none" stroke="midnightblue" d="M101.716,-50.9005C117.669,-40.9986 138.497,-28.0705 152.057,-19.6545"/>
<polygon fill="midnightblue" stroke="midnightblue" points="99.6287,-48.0765 92.9781,-56.324 103.32,-54.024 99.6287,-48.0765"/>
</g>
<!-- Node12&#45;&gt;Node7 -->
<g id="edge10" class="edge"><title>Node12&#45;&gt;Node7</title>
<path fill="none" stroke="midnightblue" d="M548.305,-106.38C561.861,-96.6204 579.242,-84.1057 590.731,-75.8339"/>
<polygon fill="midnightblue" stroke="midnightblue" points="546.12,-103.641 540.05,-112.324 550.21,-109.321 546.12,-103.641"/>
</g>
<!-- Node12&#45;&gt;Node10 -->
<g id="edge12" class="edge"><title>Node12&#45;&gt;Node10</title>
<path fill="none" stroke="midnightblue" d="M527.148,-102.121C525.41,-87.2646 520.503,-67.253 507,-56 464.796,-20.8291 307.099,-12.9693 221.733,-11.3302"/>
<polygon fill="midnightblue" stroke="midnightblue" points="523.671,-102.553 527.949,-112.245 530.649,-102 523.671,-102.553"/>
</g>
<!-- Node13 -->
<g id="node10" class="node"><title>Node13</title>
<g id="a_node10"><a xlink:href="Camera_8cpp.html" target="_top" xlink:title="src/Camera.cpp">
<polygon fill="white" stroke="black" points="768,-56.5 768,-75.5 854,-75.5 854,-56.5 768,-56.5"/>
<text text-anchor="middle" x="811" y="-63.5" font-family="Helvetica,sans-Serif" font-size="10.00">src/Camera.cpp</text>
</a>
</g>
</g>
<!-- Node12&#45;&gt;Node13 -->
<g id="edge11" class="edge"><title>Node12&#45;&gt;Node13</title>
<path fill="none" stroke="midnightblue" d="M582.924,-110.52C636.912,-100.218 718.211,-84.7054 767.76,-75.2508"/>
<polygon fill="midnightblue" stroke="midnightblue" points="582.009,-107.131 572.842,-112.444 583.321,-114.007 582.009,-107.131"/>
</g>
<!-- Node12&#45;&gt;Node14 -->
<g id="edge13" class="edge"><title>Node12&#45;&gt;Node14</title>
<path fill="none" stroke="midnightblue" d="M490.311,-109.436C457.128,-99.2551 409.572,-84.664 379.757,-75.5164"/>
<polygon fill="midnightblue" stroke="midnightblue" points="489.525,-112.856 500.112,-112.444 491.579,-106.164 489.525,-112.856"/>
</g>
<!-- Node15 -->
<g id="node12" class="node"><title>Node15</title>
<g id="a_node12"><a xlink:href="Sprite_8cpp.html" target="_top" xlink:title="src/Sprite.cpp">
<polygon fill="white" stroke="black" points="872.5,-56.5 872.5,-75.5 949.5,-75.5 949.5,-56.5 872.5,-56.5"/>
<text text-anchor="middle" x="911" y="-63.5" font-family="Helvetica,sans-Serif" font-size="10.00">src/Sprite.cpp</text>
</a>
</g>
</g>
<!-- Node12&#45;&gt;Node15 -->
<g id="edge14" class="edge"><title>Node12&#45;&gt;Node15</title>
<path fill="none" stroke="midnightblue" d="M585.022,-114.254C651.793,-106.143 765.658,-91.653 863,-76 866.014,-75.5154 869.129,-74.9891 872.257,-74.4425"/>
<polygon fill="midnightblue" stroke="midnightblue" points="584.226,-110.824 574.719,-115.5 585.067,-117.774 584.226,-110.824"/>
</g>
<!-- Node16 -->
<g id="node13" class="node"><title>Node16</title>
<g id="a_node13"><a xlink:href="State_8cpp.html" target="_top" xlink:title="src/State.cpp">
<polygon fill="white" stroke="black" points="423.5,-56.5 423.5,-75.5 498.5,-75.5 498.5,-56.5 423.5,-56.5"/>
<text text-anchor="middle" x="461" y="-63.5" font-family="Helvetica,sans-Serif" font-size="10.00">src/State.cpp</text>
</a>
</g>
</g>
<!-- Node12&#45;&gt;Node16 -->
<g id="edge15" class="edge"><title>Node12&#45;&gt;Node16</title>
<path fill="none" stroke="midnightblue" d="M509.165,-105.82C497.162,-96.1452 482.028,-83.9481 471.961,-75.8339"/>
<polygon fill="midnightblue" stroke="midnightblue" points="507.253,-108.774 517.235,-112.324 511.646,-103.324 507.253,-108.774"/>
</g>
<!-- Node17 -->
<g id="node14" class="node"><title>Node17</title>
<g id="a_node14"><a xlink:href="TileMap_8cpp.html" target="_top" xlink:title="src/TileMap.cpp">
<polygon fill="white" stroke="black" points="194,-56.5 194,-75.5 280,-75.5 280,-56.5 194,-56.5"/>
<text text-anchor="middle" x="237" y="-63.5" font-family="Helvetica,sans-Serif" font-size="10.00">src/TileMap.cpp</text>
</a>
</g>
</g>
<!-- Node12&#45;&gt;Node17 -->
<g id="edge16" class="edge"><title>Node12&#45;&gt;Node17</title>
<path fill="none" stroke="midnightblue" d="M471.778,-110.567C415.75,-100.17 330.93,-84.4304 280.048,-74.9883"/>
<polygon fill="midnightblue" stroke="midnightblue" points="471.419,-114.06 481.89,-112.444 472.697,-107.178 471.419,-114.06"/>
</g>
<!-- Node18 -->
<g id="node15" class="node"><title>Node18</title>
<g id="a_node15"><a xlink:href="Tileset_8cpp.html" target="_top" xlink:title="src/Tileset.cpp">
<polygon fill="white" stroke="black" points="668.5,-56.5 668.5,-75.5 749.5,-75.5 749.5,-56.5 668.5,-56.5"/>
<text text-anchor="middle" x="709" y="-63.5" font-family="Helvetica,sans-Serif" font-size="10.00">src/Tileset.cpp</text>
</a>
</g>
</g>
<!-- Node12&#45;&gt;Node18 -->
<g id="edge17" class="edge"><title>Node12&#45;&gt;Node18</title>
<path fill="none" stroke="midnightblue" d="M566.319,-109.568C600.464,-99.381 649.661,-84.7034 680.454,-75.5164"/>
<polygon fill="midnightblue" stroke="midnightblue" points="565.262,-106.231 556.68,-112.444 567.263,-112.938 565.262,-106.231"/>
</g>
<!-- Node19&#45;&gt;Node9 -->
<g id="edge19" class="edge"><title>Node19&#45;&gt;Node9</title>
<path fill="none" stroke="midnightblue" d="M220.892,-109.568C186.937,-99.381 138.011,-84.7034 107.388,-75.5164"/>
<polygon fill="midnightblue" stroke="midnightblue" points="219.894,-112.922 230.478,-112.444 221.906,-106.218 219.894,-112.922"/>
</g>
<!-- Node19&#45;&gt;Node10 -->
<g id="edge20" class="edge"><title>Node19&#45;&gt;Node10</title>
<path fill="none" stroke="midnightblue" d="M226.827,-108.009C212.171,-100.612 195.736,-89.9942 185,-76 171.975,-59.023 167.867,-33.3321 166.58,-19.8981"/>
<polygon fill="midnightblue" stroke="midnightblue" points="225.588,-111.295 236.124,-112.409 228.582,-104.968 225.588,-111.295"/>
</g>
<!-- Node19&#45;&gt;Node17 -->
<g id="edge21" class="edge"><title>Node19&#45;&gt;Node17</title>
<path fill="none" stroke="midnightblue" d="M251.54,-102.69C247.833,-93.589 243.524,-83.0141 240.565,-75.7511"/>
<polygon fill="midnightblue" stroke="midnightblue" points="248.353,-104.143 255.367,-112.083 254.835,-101.502 248.353,-104.143"/>
</g>
<!-- Node20&#45;&gt;Node19 -->
<g id="edge23" class="edge"><title>Node20&#45;&gt;Node19</title>
<path fill="none" stroke="midnightblue" d="M266.15,-158.101C264.324,-149.136 262.23,-138.858 260.783,-131.751"/>
<polygon fill="midnightblue" stroke="midnightblue" points="262.758,-158.983 268.184,-168.083 269.617,-157.586 262.758,-158.983"/>
</g>
<!-- Node21&#45;&gt;Node16 -->
<g id="edge35" class="edge"><title>Node21&#45;&gt;Node16</title>
<path fill="none" stroke="midnightblue" d="M760.847,-168.124C682.669,-159.73 516.905,-174.965 472,-132 456.619,-117.283 457.781,-89.6385 459.567,-75.6209"/>
<polygon fill="midnightblue" stroke="midnightblue" points="760.465,-171.604 770.829,-169.405 761.356,-164.661 760.465,-171.604"/>
</g>
<!-- Node22 -->
<g id="node19" class="node"><title>Node22</title>
<g id="a_node19"><a xlink:href="Game_8h.html" target="_top" xlink:title="include/Game.h">
<polygon fill="white" stroke="black" points="1071.5,-112.5 1071.5,-131.5 1156.5,-131.5 1156.5,-112.5 1071.5,-112.5"/>
<text text-anchor="middle" x="1114" y="-119.5" font-family="Helvetica,sans-Serif" font-size="10.00">include/Game.h</text>
</a>
</g>
</g>
<!-- Node21&#45;&gt;Node22 -->
<g id="edge25" class="edge"><title>Node21&#45;&gt;Node22</title>
<path fill="none" stroke="midnightblue" d="M863.169,-167.851C921.646,-157.394 1016.32,-140.467 1071.1,-130.672"/>
<polygon fill="midnightblue" stroke="midnightblue" points="862.271,-164.456 853.043,-169.661 863.503,-171.346 862.271,-164.456"/>
</g>
<!-- Node22&#45;&gt;Node13 -->
<g id="edge28" class="edge"><title>Node22&#45;&gt;Node13</title>
<path fill="none" stroke="midnightblue" d="M1061.04,-111.561C1002.25,-101.083 908.496,-84.3755 854.042,-74.6708"/>
<polygon fill="midnightblue" stroke="midnightblue" points="1060.77,-115.069 1071.23,-113.378 1062,-108.177 1060.77,-115.069"/>
</g>
<!-- Node22&#45;&gt;Node15 -->
<g id="edge31" class="edge"><title>Node22&#45;&gt;Node15</title>
<path fill="none" stroke="midnightblue" d="M1072.01,-109.829C1033.68,-99.6333 977.848,-84.7823 943.015,-75.5164"/>
<polygon fill="midnightblue" stroke="midnightblue" points="1071.27,-113.255 1081.83,-112.444 1073.07,-106.49 1071.27,-113.255"/>
</g>
<!-- Node22&#45;&gt;Node18 -->
<g id="edge32" class="edge"><title>Node22&#45;&gt;Node18</title>
<path fill="none" stroke="midnightblue" d="M1061.03,-115.156C991.545,-107.292 865.889,-92.3834 759,-76 755.949,-75.5323 752.797,-75.0243 749.63,-74.4957"/>
<polygon fill="midnightblue" stroke="midnightblue" points="1060.95,-118.669 1071.28,-116.311 1061.73,-111.713 1060.95,-118.669"/>
</g>
<!-- Node22&#45;&gt;Node23 -->
<g id="edge26" class="edge"><title>Node22&#45;&gt;Node23</title>
<path fill="none" stroke="midnightblue" d="M1140.3,-107.726C1160.11,-97.7271 1186.71,-84.3065 1203.85,-75.6545"/>
<polygon fill="midnightblue" stroke="midnightblue" points="1138.54,-104.694 1131.19,-112.324 1141.7,-110.943 1138.54,-104.694"/>
</g>
<!-- Node25 -->
<g id="node22" class="node"><title>Node25</title>
<g id="a_node22"><a xlink:href="Game_8cpp.html" target="_top" xlink:title="src/Game.cpp">
<polygon fill="white" stroke="black" points="968,-56.5 968,-75.5 1046,-75.5 1046,-56.5 968,-56.5"/>
<text text-anchor="middle" x="1007" y="-63.5" font-family="Helvetica,sans-Serif" font-size="10.00">src/Game.cpp</text>
</a>
</g>
</g>
<!-- Node22&#45;&gt;Node25 -->
<g id="edge29" class="edge"><title>Node22&#45;&gt;Node25</title>
<path fill="none" stroke="midnightblue" d="M1087.7,-107.726C1067.89,-97.7271 1041.29,-84.3065 1024.15,-75.6545"/>
<polygon fill="midnightblue" stroke="midnightblue" points="1086.3,-110.943 1096.81,-112.324 1089.46,-104.694 1086.3,-110.943"/>
</g>
<!-- Node26 -->
<g id="node23" class="node"><title>Node26</title>
<g id="a_node23"><a xlink:href="Resources_8cpp.html" target="_top" xlink:title="src/Resources.cpp">
<polygon fill="white" stroke="black" points="1064.5,-56.5 1064.5,-75.5 1163.5,-75.5 1163.5,-56.5 1064.5,-56.5"/>
<text text-anchor="middle" x="1114" y="-63.5" font-family="Helvetica,sans-Serif" font-size="10.00">src/Resources.cpp</text>
</a>
</g>
</g>
<!-- Node22&#45;&gt;Node26 -->
<g id="edge30" class="edge"><title>Node22&#45;&gt;Node26</title>
<path fill="none" stroke="midnightblue" d="M1114,-101.805C1114,-92.9102 1114,-82.7798 1114,-75.7511"/>
<polygon fill="midnightblue" stroke="midnightblue" points="1110.5,-102.083 1114,-112.083 1117.5,-102.083 1110.5,-102.083"/>
</g>
<!-- Node27 -->
<g id="node24" class="node"><title>Node27</title>
<g id="a_node24"><a xlink:href="UIelement_8cpp.html" target="_top" xlink:title="src/UIelement.cpp">
<polygon fill="white" stroke="black" points="1278.5,-56.5 1278.5,-75.5 1375.5,-75.5 1375.5,-56.5 1278.5,-56.5"/>
<text text-anchor="middle" x="1327" y="-63.5" font-family="Helvetica,sans-Serif" font-size="10.00">src/UIelement.cpp</text>
</a>
</g>
</g>
<!-- Node22&#45;&gt;Node27 -->
<g id="edge33" class="edge"><title>Node22&#45;&gt;Node27</title>
<path fill="none" stroke="midnightblue" d="M1157.55,-109.959C1197.78,-99.7598 1256.7,-84.8217 1293.41,-75.5164"/>
<polygon fill="midnightblue" stroke="midnightblue" points="1156.58,-106.593 1147.75,-112.444 1158.3,-113.379 1156.58,-106.593"/>
</g>
<!-- Node28 -->
<g id="node25" class="node"><title>Node28</title>
<g id="a_node25"><a xlink:href="UItext_8cpp.html" target="_top" xlink:title="src/UItext.cpp">
<polygon fill="white" stroke="black" points="1780.5,-56.5 1780.5,-75.5 1859.5,-75.5 1859.5,-56.5 1780.5,-56.5"/>
<text text-anchor="middle" x="1820" y="-63.5" font-family="Helvetica,sans-Serif" font-size="10.00">src/UItext.cpp</text>
</a>
</g>
</g>
<!-- Node22&#45;&gt;Node28 -->
<g id="edge34" class="edge"><title>Node22&#45;&gt;Node28</title>
<path fill="none" stroke="midnightblue" d="M1166.83,-119.412C1278.67,-115.604 1547.42,-104.098 1771,-76 1774.09,-75.6117 1777.28,-75.1547 1780.48,-74.6559"/>
<polygon fill="midnightblue" stroke="midnightblue" points="1166.7,-115.914 1156.82,-119.746 1166.93,-122.91 1166.7,-115.914"/>
</g>
<!-- Node24 -->
<g id="node21" class="node"><title>Node24</title>
<g id="a_node21"><a xlink:href="Text_8cpp.html" target="_top" xlink:title="src/Text.cpp">
<polygon fill="white" stroke="black" points="1185.5,-0.5 1185.5,-19.5 1256.5,-19.5 1256.5,-0.5 1185.5,-0.5"/>
<text text-anchor="middle" x="1221" y="-7.5" font-family="Helvetica,sans-Serif" font-size="10.00">src/Text.cpp</text>
</a>
</g>
</g>
<!-- Node23&#45;&gt;Node24 -->
<g id="edge27" class="edge"><title>Node23&#45;&gt;Node24</title>
<path fill="none" stroke="midnightblue" d="M1221,-45.8045C1221,-36.9102 1221,-26.7798 1221,-19.7511"/>
<polygon fill="midnightblue" stroke="midnightblue" points="1217.5,-46.083 1221,-56.083 1224.5,-46.083 1217.5,-46.083"/>
</g>
<!-- Node29&#45;&gt;Node6 -->
<g id="edge38" class="edge"><title>Node29&#45;&gt;Node6</title>
<path fill="none" stroke="midnightblue" d="M1465.7,-232.031C1331.1,-229.155 961.887,-218.853 656,-188 653.066,-187.704 650.055,-187.365 647.021,-186.996"/>
<polygon fill="midnightblue" stroke="midnightblue" points="1465.66,-235.531 1475.73,-232.241 1465.81,-228.532 1465.66,-235.531"/>
</g>
<!-- Node29&#45;&gt;Node15 -->
<g id="edge65" class="edge"><title>Node29&#45;&gt;Node15</title>
<path fill="none" stroke="midnightblue" d="M1465.81,-224.743C1380.19,-210.466 1205.11,-178.195 1062,-132 1012.02,-115.868 955.882,-89.3468 928.255,-75.7045"/>
<polygon fill="midnightblue" stroke="midnightblue" points="1465.36,-228.216 1475.8,-226.394 1466.51,-221.31 1465.36,-228.216"/>
</g>
<!-- Node30 -->
<g id="node27" class="node"><title>Node30</title>
<g id="a_node27"><a xlink:href="Tileset_8h.html" target="_top" xlink:title="include/Tileset.h">
<polygon fill="white" stroke="black" points="665,-168.5 665,-187.5 753,-187.5 753,-168.5 665,-168.5"/>
<text text-anchor="middle" x="709" y="-175.5" font-family="Helvetica,sans-Serif" font-size="10.00">include/Tileset.h</text>
</a>
</g>
</g>
<!-- Node29&#45;&gt;Node30 -->
<g id="edge39" class="edge"><title>Node29&#45;&gt;Node30</title>
<path fill="none" stroke="midnightblue" d="M1465.37,-231.836C1342.07,-228.68 1025.07,-218.075 762,-188 759.125,-187.671 756.17,-187.29 753.195,-186.874"/>
<polygon fill="midnightblue" stroke="midnightblue" points="1465.56,-235.342 1475.65,-232.093 1465.74,-228.344 1465.56,-235.342"/>
</g>
<!-- Node29&#45;&gt;Node31 -->
<g id="edge42" class="edge"><title>Node29&#45;&gt;Node31</title>
<path fill="none" stroke="midnightblue" d="M1556.53,-221.568C1590.86,-211.381 1640.33,-196.703 1671.3,-187.516"/>
<polygon fill="midnightblue" stroke="midnightblue" points="1555.43,-218.244 1546.84,-224.444 1557.42,-224.954 1555.43,-218.244"/>
</g>
<!-- Node29&#45;&gt;Node40 -->
<g id="edge63" class="edge"><title>Node29&#45;&gt;Node40</title>
<path fill="none" stroke="midnightblue" d="M1570.48,-224.566C1619.87,-216.327 1695.78,-202.88 1761,-188 1837.72,-170.495 1926.88,-144.802 1971.5,-131.572"/>
<polygon fill="midnightblue" stroke="midnightblue" points="1569.65,-221.156 1560.36,-226.244 1570.8,-228.062 1569.65,-221.156"/>
</g>
<!-- Node29&#45;&gt;Node41 -->
<g id="edge64" class="edge"><title>Node29&#45;&gt;Node41</title>
<path fill="none" stroke="midnightblue" d="M1570.54,-228.281C1668.45,-218.374 1884.56,-191.245 2057,-132 2076.93,-125.152 2080.82,-120.734 2100,-112 2128.3,-99.1139 2161.23,-84.5165 2181.6,-75.5338"/>
<polygon fill="midnightblue" stroke="midnightblue" points="1569.92,-224.825 1560.31,-229.296 1570.61,-231.791 1569.92,-224.825"/>
</g>
<!-- Node30&#45;&gt;Node18 -->
<g id="edge41" class="edge"><title>Node30&#45;&gt;Node18</title>
<path fill="none" stroke="midnightblue" d="M709,-158.348C709,-134.254 709,-93.3079 709,-75.5914"/>
<polygon fill="midnightblue" stroke="midnightblue" points="705.5,-158.368 709,-168.368 712.5,-158.369 705.5,-158.368"/>
</g>
<!-- Node30&#45;&gt;Node19 -->
<g id="edge40" class="edge"><title>Node30&#45;&gt;Node19</title>
<path fill="none" stroke="midnightblue" d="M654.858,-167.905C522.357,-149.374 378.011,-134.519 305.557,-127.434"/>
<polygon fill="midnightblue" stroke="midnightblue" points="654.392,-171.374 664.782,-169.303 655.368,-164.442 654.392,-171.374"/>
</g>
<!-- Node31&#45;&gt;Node27 -->
<g id="edge62" class="edge"><title>Node31&#45;&gt;Node27</title>
<path fill="none" stroke="midnightblue" d="M1661.04,-165.51C1585.87,-143.342 1422.38,-95.127 1355.94,-75.5345"/>
<polygon fill="midnightblue" stroke="midnightblue" points="1660.46,-168.988 1671.04,-168.46 1662.44,-162.274 1660.46,-168.988"/>
</g>
<!-- Node31&#45;&gt;Node32 -->
<g id="edge43" class="edge"><title>Node31&#45;&gt;Node32</title>
<path fill="none" stroke="midnightblue" d="M1701.07,-157.805C1701.56,-148.91 1702.12,-138.78 1702.51,-131.751"/>
<polygon fill="midnightblue" stroke="midnightblue" points="1697.56,-157.904 1700.5,-168.083 1704.54,-158.293 1697.56,-157.904"/>
</g>
<!-- Node31&#45;&gt;Node33 -->
<g id="edge51" class="edge"><title>Node31&#45;&gt;Node33</title>
<path fill="none" stroke="midnightblue" d="M1671.03,-164.305C1619.36,-141.66 1512.6,-94.8712 1468.6,-75.5914"/>
<polygon fill="midnightblue" stroke="midnightblue" points="1669.74,-167.56 1680.3,-168.368 1672.55,-161.149 1669.74,-167.56"/>
</g>
<!-- Node31&#45;&gt;Node35 -->
<g id="edge52" class="edge"><title>Node31&#45;&gt;Node35</title>
<path fill="none" stroke="midnightblue" d="M1719.36,-162.264C1739.04,-147.847 1770.85,-126.063 1801,-112 1836.23,-95.5678 1879,-83.1323 1908.93,-75.543"/>
<polygon fill="midnightblue" stroke="midnightblue" points="1717.16,-159.541 1711.22,-168.316 1721.34,-165.158 1717.16,-159.541"/>
</g>
<!-- Node31&#45;&gt;Node37 -->
<g id="edge61" class="edge"><title>Node31&#45;&gt;Node37</title>
<path fill="none" stroke="midnightblue" d="M1679.81,-162.076C1668.85,-153.659 1655.28,-142.708 1644,-132 1624.26,-113.253 1603.6,-88.7342 1593.08,-75.8282"/>
<polygon fill="midnightblue" stroke="midnightblue" points="1677.86,-164.989 1687.95,-168.231 1682.08,-159.407 1677.86,-164.989"/>
</g>
<!-- Node31&#45;&gt;Node40 -->
<g id="edge53" class="edge"><title>Node31&#45;&gt;Node40</title>
<path fill="none" stroke="midnightblue" d="M1757.42,-166.664C1814.12,-156.459 1899.79,-141.039 1952.69,-131.516"/>
<polygon fill="midnightblue" stroke="midnightblue" points="1756.76,-163.227 1747.54,-168.444 1758,-170.117 1756.76,-163.227"/>
</g>
<!-- Node31&#45;&gt;Node44 -->
<g id="edge57" class="edge"><title>Node31&#45;&gt;Node44</title>
<path fill="none" stroke="midnightblue" d="M1733.89,-165.039C1762.68,-154.879 1803.29,-140.546 1828.87,-131.516"/>
<polygon fill="midnightblue" stroke="midnightblue" points="1732.51,-161.815 1724.24,-168.444 1734.84,-168.416 1732.51,-161.815"/>
</g>
<!-- Node32&#45;&gt;Node33 -->
<g id="edge44" class="edge"><title>Node32&#45;&gt;Node33</title>
<path fill="none" stroke="midnightblue" d="M1652.88,-110.346C1604.88,-100.141 1533.38,-84.94 1489.06,-75.5164"/>
<polygon fill="midnightblue" stroke="midnightblue" points="1652.24,-113.787 1662.75,-112.444 1653.7,-106.94 1652.24,-113.787"/>
</g>
<!-- Node32&#45;&gt;Node35 -->
<g id="edge46" class="edge"><title>Node32&#45;&gt;Node35</title>
<path fill="none" stroke="midnightblue" d="M1751.52,-110.217C1797.44,-100.013 1865.45,-84.9006 1907.68,-75.5164"/>
<polygon fill="midnightblue" stroke="midnightblue" points="1750.51,-106.858 1741.5,-112.444 1752.03,-113.691 1750.51,-106.858"/>
</g>
<!-- Node32&#45;&gt;Node37 -->
<g id="edge48" class="edge"><title>Node32&#45;&gt;Node37</title>
<path fill="none" stroke="midnightblue" d="M1675.34,-108.232C1653.45,-98.1312 1623.5,-84.3091 1604.45,-75.5164"/>
<polygon fill="midnightblue" stroke="midnightblue" points="1673.91,-111.431 1684.46,-112.444 1676.85,-105.075 1673.91,-111.431"/>
</g>
<!-- Node39 -->
<g id="node36" class="node"><title>Node39</title>
<g id="a_node36"><a xlink:href="UIcanvas_8cpp.html" target="_top" xlink:title="src/UIcanvas.cpp">
<polygon fill="white" stroke="black" points="1668,-56.5 1668,-75.5 1762,-75.5 1762,-56.5 1668,-56.5"/>
<text text-anchor="middle" x="1715" y="-63.5" font-family="Helvetica,sans-Serif" font-size="10.00">src/UIcanvas.cpp</text>
</a>
</g>
</g>
<!-- Node32&#45;&gt;Node39 -->
<g id="edge50" class="edge"><title>Node32&#45;&gt;Node39</title>
<path fill="none" stroke="midnightblue" d="M1707.2,-102.101C1709.19,-93.1357 1711.48,-82.8579 1713.06,-75.7511"/>
<polygon fill="midnightblue" stroke="midnightblue" points="1703.73,-101.562 1704.98,-112.083 1710.57,-103.08 1703.73,-101.562"/>
</g>
<!-- Node34 -->
<g id="node31" class="node"><title>Node34</title>
<g id="a_node31"><a xlink:href="UIgridGroup_8cpp.html" target="_top" xlink:title="src/UIgridGroup.cpp">
<polygon fill="white" stroke="black" points="1397,-0.5 1397,-19.5 1501,-19.5 1501,-0.5 1397,-0.5"/>
<text text-anchor="middle" x="1449" y="-7.5" font-family="Helvetica,sans-Serif" font-size="10.00">src/UIgridGroup.cpp</text>
</a>
</g>
</g>
<!-- Node33&#45;&gt;Node34 -->
<g id="edge45" class="edge"><title>Node33&#45;&gt;Node34</title>
<path fill="none" stroke="midnightblue" d="M1449,-45.8045C1449,-36.9102 1449,-26.7798 1449,-19.7511"/>
<polygon fill="midnightblue" stroke="midnightblue" points="1445.5,-46.083 1449,-56.083 1452.5,-46.083 1445.5,-46.083"/>
</g>
<!-- Node36 -->
<g id="node33" class="node"><title>Node36</title>
<g id="a_node33"><a xlink:href="UIhorizontalGroup_8cpp.html" target="_top" xlink:title="src/UIhorizontalGroup.cpp">
<polygon fill="white" stroke="black" points="1880.5,-0.5 1880.5,-19.5 2011.5,-19.5 2011.5,-0.5 1880.5,-0.5"/>
<text text-anchor="middle" x="1946" y="-7.5" font-family="Helvetica,sans-Serif" font-size="10.00">src/UIhorizontalGroup.cpp</text>
</a>
</g>
</g>
<!-- Node35&#45;&gt;Node36 -->
<g id="edge47" class="edge"><title>Node35&#45;&gt;Node36</title>
<path fill="none" stroke="midnightblue" d="M1946,-45.8045C1946,-36.9102 1946,-26.7798 1946,-19.7511"/>
<polygon fill="midnightblue" stroke="midnightblue" points="1942.5,-46.083 1946,-56.083 1949.5,-46.083 1942.5,-46.083"/>
</g>
<!-- Node38 -->
<g id="node35" class="node"><title>Node38</title>
<g id="a_node35"><a xlink:href="UIverticalGroup_8cpp.html" target="_top" xlink:title="src/UIverticalGroup.cpp">
<polygon fill="white" stroke="black" points="1526,-0.5 1526,-19.5 1646,-19.5 1646,-0.5 1526,-0.5"/>
<text text-anchor="middle" x="1586" y="-7.5" font-family="Helvetica,sans-Serif" font-size="10.00">src/UIverticalGroup.cpp</text>
</a>
</g>
</g>
<!-- Node37&#45;&gt;Node38 -->
<g id="edge49" class="edge"><title>Node37&#45;&gt;Node38</title>
<path fill="none" stroke="midnightblue" d="M1586,-45.8045C1586,-36.9102 1586,-26.7798 1586,-19.7511"/>
<polygon fill="midnightblue" stroke="midnightblue" points="1582.5,-46.083 1586,-56.083 1589.5,-46.083 1582.5,-46.083"/>
</g>
<!-- Node40&#45;&gt;Node41 -->
<g id="edge54" class="edge"><title>Node40&#45;&gt;Node41</title>
<path fill="none" stroke="midnightblue" d="M2041.58,-109.829C2079.53,-99.6333 2134.81,-84.7823 2169.3,-75.5164"/>
<polygon fill="midnightblue" stroke="midnightblue" points="2040.6,-106.469 2031.85,-112.444 2042.41,-113.229 2040.6,-106.469"/>
</g>
<!-- Node43 -->
<g id="node40" class="node"><title>Node43</title>
<g id="a_node40"><a xlink:href="UIimage_8cpp.html" target="_top" xlink:title="src/UIimage.cpp">
<polygon fill="white" stroke="black" points="2032.5,-56.5 2032.5,-75.5 2121.5,-75.5 2121.5,-56.5 2032.5,-56.5"/>
<text text-anchor="middle" x="2077" y="-63.5" font-family="Helvetica,sans-Serif" font-size="10.00">src/UIimage.cpp</text>
</a>
</g>
</g>
<!-- Node40&#45;&gt;Node43 -->
<g id="edge56" class="edge"><title>Node40&#45;&gt;Node43</title>
<path fill="none" stroke="midnightblue" d="M2020.9,-106.342C2034.91,-96.5169 2052.88,-83.9132 2064.66,-75.6545"/>
<polygon fill="midnightblue" stroke="midnightblue" points="2018.55,-103.717 2012.37,-112.324 2022.57,-109.448 2018.55,-103.717"/>
</g>
<!-- Node42 -->
<g id="node39" class="node"><title>Node42</title>
<g id="a_node39"><a xlink:href="UIimageButton_8cpp.html" target="_top" xlink:title="src/UIimageButton.cpp">
<polygon fill="white" stroke="black" points="2142.5,-0.5 2142.5,-19.5 2259.5,-19.5 2259.5,-0.5 2142.5,-0.5"/>
<text text-anchor="middle" x="2201" y="-7.5" font-family="Helvetica,sans-Serif" font-size="10.00">src/UIimageButton.cpp</text>
</a>
</g>
</g>
<!-- Node41&#45;&gt;Node42 -->
<g id="edge55" class="edge"><title>Node41&#45;&gt;Node42</title>
<path fill="none" stroke="midnightblue" d="M2201,-45.8045C2201,-36.9102 2201,-26.7798 2201,-19.7511"/>
<polygon fill="midnightblue" stroke="midnightblue" points="2197.5,-46.083 2201,-56.083 2204.5,-46.083 2197.5,-46.083"/>
</g>
<!-- Node44&#45;&gt;Node28 -->
<g id="edge60" class="edge"><title>Node44&#45;&gt;Node28</title>
<path fill="none" stroke="midnightblue" d="M1842.17,-103.275C1836.53,-94.0454 1829.88,-83.1703 1825.35,-75.7511"/>
<polygon fill="midnightblue" stroke="midnightblue" points="1839.35,-105.375 1847.55,-112.083 1845.32,-101.725 1839.35,-105.375"/>
</g>
<!-- Node44&#45;&gt;Node45 -->
<g id="edge58" class="edge"><title>Node44&#45;&gt;Node45</title>
<path fill="none" stroke="midnightblue" d="M1906.45,-115.753C1986.14,-107.818 2140.81,-91.986 2272,-76 2274.87,-75.6503 2277.81,-75.2831 2280.78,-74.905"/>
<polygon fill="midnightblue" stroke="midnightblue" points="1905.78,-112.302 1896.17,-116.773 1906.47,-119.268 1905.78,-112.302"/>
</g>
<!-- Node46 -->
<g id="node43" class="node"><title>Node46</title>
<g id="a_node43"><a xlink:href="UItextButton_8cpp.html" target="_top" xlink:title="src/UItextButton.cpp">
<polygon fill="white" stroke="black" points="2284.5,-0.5 2284.5,-19.5 2391.5,-19.5 2391.5,-0.5 2284.5,-0.5"/>
<text text-anchor="middle" x="2338" y="-7.5" font-family="Helvetica,sans-Serif" font-size="10.00">src/UItextButton.cpp</text>
</a>
</g>
</g>
<!-- Node45&#45;&gt;Node46 -->
<g id="edge59" class="edge"><title>Node45&#45;&gt;Node46</title>
<path fill="none" stroke="midnightblue" d="M2338,-45.8045C2338,-36.9102 2338,-26.7798 2338,-19.7511"/>
<polygon fill="midnightblue" stroke="midnightblue" points="2334.5,-46.083 2338,-56.083 2341.5,-46.083 2334.5,-46.083"/>
</g>
<!-- Node48&#45;&gt;Node41 -->
<g id="edge69" class="edge"><title>Node48&#45;&gt;Node41</title>
<path fill="none" stroke="midnightblue" d="M2261.17,-106.622C2246.19,-96.7574 2226.8,-83.9919 2214.14,-75.6545"/>
<polygon fill="midnightblue" stroke="midnightblue" points="2259.55,-109.747 2269.83,-112.324 2263.4,-103.901 2259.55,-109.747"/>
</g>
<!-- Node48&#45;&gt;Node45 -->
<g id="edge70" class="edge"><title>Node48&#45;&gt;Node45</title>
<path fill="none" stroke="midnightblue" d="M2299.29,-105.002C2309.04,-95.4329 2321.05,-83.6389 2329.09,-75.7511"/>
<polygon fill="midnightblue" stroke="midnightblue" points="2296.77,-102.58 2292.08,-112.083 2301.67,-107.575 2296.77,-102.58"/>
</g>
<!-- Node49 -->
<g id="node46" class="node"><title>Node49</title>
<g id="a_node46"><a xlink:href="UIbutton_8cpp.html" target="_top" xlink:title="src/UIbutton.cpp">
<polygon fill="white" stroke="black" points="2413.5,-56.5 2413.5,-75.5 2502.5,-75.5 2502.5,-56.5 2413.5,-56.5"/>
<text text-anchor="middle" x="2458" y="-63.5" font-family="Helvetica,sans-Serif" font-size="10.00">src/UIbutton.cpp</text>
</a>
</g>
</g>
<!-- Node48&#45;&gt;Node49 -->
<g id="edge71" class="edge"><title>Node48&#45;&gt;Node49</title>
<path fill="none" stroke="midnightblue" d="M2320.47,-109.436C2353.47,-99.2551 2400.76,-84.664 2430.4,-75.5164"/>
<polygon fill="midnightblue" stroke="midnightblue" points="2319.25,-106.151 2310.73,-112.444 2321.32,-112.839 2319.25,-106.151"/>
</g>
</g>
</svg>
