<?xml version="1.0" encoding="UTF-8" standalone="no"?>
<!DOCTYPE svg PUBLIC "-//W3C//DTD SVG 1.1//EN"
 "http://www.w3.org/Graphics/SVG/1.1/DTD/svg11.dtd">
<!-- Generated by graphviz version 2.38.0 (20140413.2041)
 -->
<!-- Title: include/Rect.h Pages: 1 -->
<svg width="1720pt" height="364pt"
 viewBox="0.00 0.00 1720.00 364.00" xmlns="http://www.w3.org/2000/svg" xmlns:xlink="http://www.w3.org/1999/xlink">
<g id="graph0" class="graph" transform="scale(1 1) rotate(0) translate(4 360)">
<title>include/Rect.h</title>
<polygon fill="white" stroke="none" points="-4,4 -4,-360 1716,-360 1716,4 -4,4"/>
<!-- Node4 -->
<g id="node1" class="node"><title>Node4</title>
<polygon fill="#bfbfbf" stroke="black" points="1254.5,-336.5 1254.5,-355.5 1334.5,-355.5 1334.5,-336.5 1254.5,-336.5"/>
<text text-anchor="middle" x="1294.5" y="-343.5" font-family="Helvetica,sans-Serif" font-size="10.00">include/Rect.h</text>
</g>
<!-- Node5 -->
<g id="node2" class="node"><title>Node5</title>
<g id="a_node2"><a xlink:href="GameObject_8h.html" target="_top" xlink:title="include/GameObject.h">
<polygon fill="white" stroke="black" points="975,-280.5 975,-299.5 1088,-299.5 1088,-280.5 975,-280.5"/>
<text text-anchor="middle" x="1031.5" y="-287.5" font-family="Helvetica,sans-Serif" font-size="10.00">include/GameObject.h</text>
</a>
</g>
</g>
<!-- Node4&#45;&gt;Node5 -->
<g id="edge1" class="edge"><title>Node4&#45;&gt;Node5</title>
<path fill="none" stroke="midnightblue" d="M1244.38,-334.71C1194.7,-324.509 1119.48,-309.064 1073.03,-299.527"/>
<polygon fill="midnightblue" stroke="midnightblue" points="1243.77,-338.157 1254.27,-336.74 1245.18,-331.3 1243.77,-338.157"/>
</g>
<!-- Node9 -->
<g id="node6" class="node"><title>Node9</title>
<g id="a_node6"><a xlink:href="Sprite_8h.html" target="_top" xlink:title="include/Sprite.h">
<polygon fill="white" stroke="black" points="579.5,-168.5 579.5,-187.5 663.5,-187.5 663.5,-168.5 579.5,-168.5"/>
<text text-anchor="middle" x="621.5" y="-175.5" font-family="Helvetica,sans-Serif" font-size="10.00">include/Sprite.h</text>
</a>
</g>
</g>
<!-- Node4&#45;&gt;Node9 -->
<g id="edge51" class="edge"><title>Node4&#45;&gt;Node9</title>
<path fill="none" stroke="midnightblue" d="M1244.19,-344.086C1106.84,-340.559 729.792,-323.671 640.5,-244 624.183,-229.441 621.547,-201.725 621.325,-187.656"/>
<polygon fill="midnightblue" stroke="midnightblue" points="1244.34,-347.59 1254.43,-344.335 1244.51,-340.592 1244.34,-347.59"/>
</g>
<!-- Node10 -->
<g id="node7" class="node"><title>Node10</title>
<g id="a_node7"><a xlink:href="Tileset_8h.html" target="_top" xlink:title="include/Tileset.h">
<polygon fill="white" stroke="black" points="256.5,-112.5 256.5,-131.5 344.5,-131.5 344.5,-112.5 256.5,-112.5"/>
<text text-anchor="middle" x="300.5" y="-119.5" font-family="Helvetica,sans-Serif" font-size="10.00">include/Tileset.h</text>
</a>
</g>
</g>
<!-- Node4&#45;&gt;Node10 -->
<g id="edge53" class="edge"><title>Node4&#45;&gt;Node10</title>
<path fill="none" stroke="midnightblue" d="M1244.12,-345.36C1141.86,-345.168 903.054,-340.018 707.5,-300 555.761,-268.948 512.359,-264.17 377.5,-188 349.472,-172.17 321.956,-145.516 308.695,-131.776"/>
<polygon fill="midnightblue" stroke="midnightblue" points="1244.16,-348.86 1254.16,-345.363 1244.16,-341.86 1244.16,-348.86"/>
</g>
<!-- Node18 -->
<g id="node15" class="node"><title>Node18</title>
<g id="a_node15"><a xlink:href="Grouper_8cpp.html" target="_top" xlink:title="src/Grouper.cpp">
<polygon fill="white" stroke="black" points="1378.5,-112.5 1378.5,-131.5 1464.5,-131.5 1464.5,-112.5 1378.5,-112.5"/>
<text text-anchor="middle" x="1421.5" y="-119.5" font-family="Helvetica,sans-Serif" font-size="10.00">src/Grouper.cpp</text>
</a>
</g>
</g>
<!-- Node4&#45;&gt;Node18 -->
<g id="edge55" class="edge"><title>Node4&#45;&gt;Node18</title>
<path fill="none" stroke="midnightblue" d="M1321.45,-331.71C1363.98,-309.025 1445.15,-258.368 1477.5,-188 1488.26,-164.586 1458.9,-143.134 1438.74,-131.684"/>
<polygon fill="midnightblue" stroke="midnightblue" points="1319.75,-328.648 1312.5,-336.373 1322.99,-334.856 1319.75,-328.648"/>
</g>
<!-- Node19 -->
<g id="node16" class="node"><title>Node19</title>
<g id="a_node16"><a xlink:href="RectTransform_8h.html" target="_top" xlink:title="include/RectTransform.h">
<polygon fill="white" stroke="black" points="1232.5,-168.5 1232.5,-187.5 1356.5,-187.5 1356.5,-168.5 1232.5,-168.5"/>
<text text-anchor="middle" x="1294.5" y="-175.5" font-family="Helvetica,sans-Serif" font-size="10.00">include/RectTransform.h</text>
</a>
</g>
</g>
<!-- Node4&#45;&gt;Node19 -->
<g id="edge54" class="edge"><title>Node4&#45;&gt;Node19</title>
<path fill="none" stroke="midnightblue" d="M1294.5,-325.93C1294.5,-289.92 1294.5,-213.231 1294.5,-187.568"/>
<polygon fill="midnightblue" stroke="midnightblue" points="1291,-326.075 1294.5,-336.075 1298,-326.075 1291,-326.075"/>
</g>
<!-- Node33 -->
<g id="node30" class="node"><title>Node33</title>
<g id="a_node30"><a xlink:href="Collision_8h.html" target="_top" xlink:title="include/Collision.h">
<polygon fill="white" stroke="black" points="1524.5,-280.5 1524.5,-299.5 1620.5,-299.5 1620.5,-280.5 1524.5,-280.5"/>
<text text-anchor="middle" x="1572.5" y="-287.5" font-family="Helvetica,sans-Serif" font-size="10.00">include/Collision.h</text>
</a>
</g>
</g>
<!-- Node4&#45;&gt;Node33 -->
<g id="edge52" class="edge"><title>Node4&#45;&gt;Node33</title>
<path fill="none" stroke="midnightblue" d="M1344.72,-335.245C1397.22,-325.048 1478.76,-309.208 1528.72,-299.505"/>
<polygon fill="midnightblue" stroke="midnightblue" points="1343.78,-331.863 1334.63,-337.206 1345.11,-338.735 1343.78,-331.863"/>
</g>
<!-- Node34 -->
<g id="node31" class="node"><title>Node34</title>
<g id="a_node31"><a xlink:href="Rect_8cpp.html" target="_top" xlink:title="src/Rect.cpp">
<polygon fill="white" stroke="black" points="1639,-280.5 1639,-299.5 1712,-299.5 1712,-280.5 1639,-280.5"/>
<text text-anchor="middle" x="1675.5" y="-287.5" font-family="Helvetica,sans-Serif" font-size="10.00">src/Rect.cpp</text>
</a>
</g>
</g>
<!-- Node4&#45;&gt;Node34 -->
<g id="edge56" class="edge"><title>Node4&#45;&gt;Node34</title>
<path fill="none" stroke="midnightblue" d="M1344.65,-339.211C1410.27,-331.418 1528.78,-316.602 1629.5,-300 1632.55,-299.497 1635.71,-298.945 1638.88,-298.37"/>
<polygon fill="midnightblue" stroke="midnightblue" points="1344.1,-335.751 1334.58,-340.401 1344.92,-342.703 1344.1,-335.751"/>
</g>
<!-- Node6 -->
<g id="node3" class="node"><title>Node6</title>
<g id="a_node3"><a xlink:href="Animation_8h.html" target="_top" xlink:title="include/Animation.h">
<polygon fill="white" stroke="black" points="793.5,-112.5 793.5,-131.5 895.5,-131.5 895.5,-112.5 793.5,-112.5"/>
<text text-anchor="middle" x="844.5" y="-119.5" font-family="Helvetica,sans-Serif" font-size="10.00">include/Animation.h</text>
</a>
</g>
</g>
<!-- Node5&#45;&gt;Node6 -->
<g id="edge2" class="edge"><title>Node5&#45;&gt;Node6</title>
<path fill="none" stroke="midnightblue" d="M1019.09,-271.957C1007.68,-257.381 989.529,-236.787 969.5,-224 927.564,-197.226 897.917,-223.93 863.5,-188 848.536,-172.378 845.267,-145.633 844.612,-131.825"/>
<polygon fill="midnightblue" stroke="midnightblue" points="1016.46,-274.274 1025.29,-280.132 1022.04,-270.047 1016.46,-274.274"/>
</g>
<!-- Node8 -->
<g id="node5" class="node"><title>Node8</title>
<g id="a_node5"><a xlink:href="Component_8h.html" target="_top" xlink:title="include/Component.h">
<polygon fill="white" stroke="black" points="1018,-224.5 1018,-243.5 1127,-243.5 1127,-224.5 1018,-224.5"/>
<text text-anchor="middle" x="1072.5" y="-231.5" font-family="Helvetica,sans-Serif" font-size="10.00">include/Component.h</text>
</a>
</g>
</g>
<!-- Node5&#45;&gt;Node8 -->
<g id="edge4" class="edge"><title>Node5&#45;&gt;Node8</title>
<path fill="none" stroke="midnightblue" d="M1038.38,-271.566C1044.64,-262.275 1053.42,-251.248 1060.72,-243.751"/>
<polygon fill="midnightblue" stroke="midnightblue" points="1035.39,-269.738 1033.1,-280.083 1041.34,-273.424 1035.39,-269.738"/>
</g>
<!-- Node15 -->
<g id="node12" class="node"><title>Node15</title>
<g id="a_node12"><a xlink:href="Button_8h.html" target="_top" xlink:title="include/Button.h">
<polygon fill="white" stroke="black" points="1127,-168.5 1127,-187.5 1214,-187.5 1214,-168.5 1127,-168.5"/>
<text text-anchor="middle" x="1170.5" y="-175.5" font-family="Helvetica,sans-Serif" font-size="10.00">include/Button.h</text>
</a>
</g>
</g>
<!-- Node5&#45;&gt;Node15 -->
<g id="edge27" class="edge"><title>Node5&#45;&gt;Node15</title>
<path fill="none" stroke="midnightblue" d="M1075.7,-277.194C1095.75,-270.121 1118.69,-259.434 1135.5,-244 1152.87,-228.053 1163.35,-201.451 1167.87,-187.748"/>
<polygon fill="midnightblue" stroke="midnightblue" points="1074.51,-273.901 1066.13,-280.381 1076.72,-280.543 1074.51,-273.901"/>
</g>
<!-- Node17 -->
<g id="node14" class="node"><title>Node17</title>
<g id="a_node14"><a xlink:href="Grouper_8h.html" target="_top" xlink:title="include/Grouper.h">
<polygon fill="white" stroke="black" points="1375,-168.5 1375,-187.5 1468,-187.5 1468,-168.5 1375,-168.5"/>
<text text-anchor="middle" x="1421.5" y="-175.5" font-family="Helvetica,sans-Serif" font-size="10.00">include/Grouper.h</text>
</a>
</g>
</g>
<!-- Node5&#45;&gt;Node17 -->
<g id="edge46" class="edge"><title>Node5&#45;&gt;Node17</title>
<path fill="none" stroke="midnightblue" d="M1072.12,-277.695C1104.68,-268.622 1151.54,-255.538 1192.5,-244 1263.9,-223.887 1347.76,-200.023 1391.5,-187.556"/>
<polygon fill="midnightblue" stroke="midnightblue" points="1070.77,-274.438 1062.08,-280.493 1072.65,-281.181 1070.77,-274.438"/>
</g>
<!-- Node5&#45;&gt;Node19 -->
<g id="edge48" class="edge"><title>Node5&#45;&gt;Node19</title>
<path fill="none" stroke="midnightblue" d="M1067.44,-277.231C1092.85,-268.654 1127.57,-256.408 1157.5,-244 1201.76,-225.65 1252.33,-200.539 1277.87,-187.554"/>
<polygon fill="midnightblue" stroke="midnightblue" points="1066.22,-273.949 1057.85,-280.445 1068.45,-280.587 1066.22,-273.949"/>
</g>
<!-- Node22 -->
<g id="node19" class="node"><title>Node22</title>
<g id="a_node19"><a xlink:href="Text_8h.html" target="_top" xlink:title="include/Text.h">
<polygon fill="white" stroke="black" points="872.5,-168.5 872.5,-187.5 950.5,-187.5 950.5,-168.5 872.5,-168.5"/>
<text text-anchor="middle" x="911.5" y="-175.5" font-family="Helvetica,sans-Serif" font-size="10.00">include/Text.h</text>
</a>
</g>
</g>
<!-- Node5&#45;&gt;Node22 -->
<g id="edge49" class="edge"><title>Node5&#45;&gt;Node22</title>
<path fill="none" stroke="midnightblue" d="M964.519,-284.055C908.529,-278.363 834.949,-266.71 816.5,-244 795.331,-217.942 842.859,-198.092 878.037,-187.524"/>
<polygon fill="midnightblue" stroke="midnightblue" points="964.46,-287.565 974.752,-285.049 965.137,-280.598 964.46,-287.565"/>
</g>
<!-- Node24 -->
<g id="node21" class="node"><title>Node24</title>
<g id="a_node21"><a xlink:href="Camera_8h.html" target="_top" xlink:title="include/Camera.h">
<polygon fill="white" stroke="black" points="402,-168.5 402,-187.5 495,-187.5 495,-168.5 402,-168.5"/>
<text text-anchor="middle" x="448.5" y="-175.5" font-family="Helvetica,sans-Serif" font-size="10.00">include/Camera.h</text>
</a>
</g>
</g>
<!-- Node5&#45;&gt;Node24 -->
<g id="edge28" class="edge"><title>Node5&#45;&gt;Node24</title>
<path fill="none" stroke="midnightblue" d="M972.312,-278.643C926.962,-270.338 862.964,-257.818 807.5,-244 777.346,-236.487 770.817,-230.827 740.5,-224 654.807,-204.703 553.095,-191.086 495.143,-184.185"/>
<polygon fill="midnightblue" stroke="midnightblue" points="971.805,-282.109 982.27,-280.454 973.058,-275.222 971.805,-282.109"/>
</g>
<!-- Node26 -->
<g id="node23" class="node"><title>Node26</title>
<g id="a_node23"><a xlink:href="GameObject_8cpp.html" target="_top" xlink:title="src/GameObject.cpp">
<polygon fill="white" stroke="black" points="0,-112.5 0,-131.5 107,-131.5 107,-112.5 0,-112.5"/>
<text text-anchor="middle" x="53.5" y="-119.5" font-family="Helvetica,sans-Serif" font-size="10.00">src/GameObject.cpp</text>
</a>
</g>
</g>
<!-- Node5&#45;&gt;Node26 -->
<g id="edge50" class="edge"><title>Node5&#45;&gt;Node26</title>
<path fill="none" stroke="midnightblue" d="M964.325,-283.62C832.581,-272.258 531.52,-242.294 283.5,-188 208.714,-171.629 122.26,-145.093 79.8011,-131.548"/>
<polygon fill="midnightblue" stroke="midnightblue" points="964.39,-287.138 974.652,-284.502 964.986,-280.163 964.39,-287.138"/>
</g>
<!-- Node28 -->
<g id="node25" class="node"><title>Node28</title>
<g id="a_node25"><a xlink:href="State_8h.html" target="_top" xlink:title="include/State.h">
<polygon fill="white" stroke="black" points="649.5,-224.5 649.5,-243.5 731.5,-243.5 731.5,-224.5 649.5,-224.5"/>
<text text-anchor="middle" x="690.5" y="-231.5" font-family="Helvetica,sans-Serif" font-size="10.00">include/State.h</text>
</a>
</g>
</g>
<!-- Node5&#45;&gt;Node28 -->
<g id="edge37" class="edge"><title>Node5&#45;&gt;Node28</title>
<path fill="none" stroke="midnightblue" d="M966.537,-278.895C908.558,-269.848 821.344,-256.172 745.5,-244 741.01,-243.279 736.315,-242.52 731.641,-241.76"/>
<polygon fill="midnightblue" stroke="midnightblue" points="966.236,-282.39 976.656,-280.473 967.315,-275.474 966.236,-282.39"/>
</g>
<!-- Node32 -->
<g id="node29" class="node"><title>Node32</title>
<g id="a_node29"><a xlink:href="NearestGOFinder_8h.html" target="_top" xlink:title="include/NearestGOFinder.h">
<polygon fill="white" stroke="black" points="826,-224.5 826,-243.5 961,-243.5 961,-224.5 826,-224.5"/>
<text text-anchor="middle" x="893.5" y="-231.5" font-family="Helvetica,sans-Serif" font-size="10.00">include/NearestGOFinder.h</text>
</a>
</g>
</g>
<!-- Node5&#45;&gt;Node32 -->
<g id="edge47" class="edge"><title>Node5&#45;&gt;Node32</title>
<path fill="none" stroke="midnightblue" d="M1000.25,-276.772C974.329,-266.629 938.138,-252.467 915.264,-243.516"/>
<polygon fill="midnightblue" stroke="midnightblue" points="999.046,-280.059 1009.63,-280.444 1001.6,-273.54 999.046,-280.059"/>
</g>
<!-- Node7 -->
<g id="node4" class="node"><title>Node7</title>
<g id="a_node4"><a xlink:href="Animation_8cpp.html" target="_top" xlink:title="src/Animation.cpp">
<polygon fill="white" stroke="black" points="633,-56.5 633,-75.5 728,-75.5 728,-56.5 633,-56.5"/>
<text text-anchor="middle" x="680.5" y="-63.5" font-family="Helvetica,sans-Serif" font-size="10.00">src/Animation.cpp</text>
</a>
</g>
</g>
<!-- Node6&#45;&gt;Node7 -->
<g id="edge3" class="edge"><title>Node6&#45;&gt;Node7</title>
<path fill="none" stroke="midnightblue" d="M808.98,-109.304C778.078,-99.1294 734.027,-84.6246 706.365,-75.5164"/>
<polygon fill="midnightblue" stroke="midnightblue" points="807.921,-112.64 818.514,-112.444 810.11,-105.992 807.921,-112.64"/>
</g>
<!-- Node8&#45;&gt;Node5 -->
<g id="edge5" class="edge"><title>Node8&#45;&gt;Node5</title>
<path fill="none" stroke="midnightblue" d="M1065.56,-252.52C1059.35,-261.724 1050.68,-272.613 1043.44,-280.083"/>
<polygon fill="midnightblue" stroke="midnightblue" points="1068.7,-254.097 1070.99,-243.751 1062.75,-250.415 1068.7,-254.097"/>
</g>
<!-- Node8&#45;&gt;Node9 -->
<g id="edge6" class="edge"><title>Node8&#45;&gt;Node9</title>
<path fill="none" stroke="midnightblue" d="M1007.54,-226.864C928.454,-219.119 790.894,-204.764 673.5,-188 670.326,-187.547 667.047,-187.049 663.752,-186.528"/>
<polygon fill="midnightblue" stroke="midnightblue" points="1007.54,-230.381 1017.84,-227.867 1008.22,-223.414 1007.54,-230.381"/>
</g>
<!-- Node11 -->
<g id="node8" class="node"><title>Node11</title>
<g id="a_node8"><a xlink:href="TileMap_8h.html" target="_top" xlink:title="include/TileMap.h">
<polygon fill="white" stroke="black" points="357,-56.5 357,-75.5 450,-75.5 450,-56.5 357,-56.5"/>
<text text-anchor="middle" x="403.5" y="-63.5" font-family="Helvetica,sans-Serif" font-size="10.00">include/TileMap.h</text>
</a>
</g>
</g>
<!-- Node8&#45;&gt;Node11 -->
<g id="edge16" class="edge"><title>Node8&#45;&gt;Node11</title>
<path fill="none" stroke="midnightblue" d="M1007.93,-227.11C995.194,-226.019 981.929,-224.931 969.5,-224 905.444,-219.204 436.485,-234.814 392.5,-188 362.891,-156.486 387.756,-97.8522 398.839,-75.7412"/>
<polygon fill="midnightblue" stroke="midnightblue" points="1007.73,-230.606 1018,-227.983 1008.34,-223.632 1007.73,-230.606"/>
</g>
<!-- Node12 -->
<g id="node9" class="node"><title>Node12</title>
<g id="a_node9"><a xlink:href="DragAndDrop_8h.html" target="_top" xlink:title="include/DragAndDrop.h">
<polygon fill="white" stroke="black" points="344.5,-0.5 344.5,-19.5 462.5,-19.5 462.5,-0.5 344.5,-0.5"/>
<text text-anchor="middle" x="403.5" y="-7.5" font-family="Helvetica,sans-Serif" font-size="10.00">include/DragAndDrop.h</text>
</a>
</g>
</g>
<!-- Node8&#45;&gt;Node12 -->
<g id="edge15" class="edge"><title>Node8&#45;&gt;Node12</title>
<path fill="none" stroke="midnightblue" d="M1080.87,-215.016C1088.51,-200.43 1101.1,-180.334 1117.5,-168 1160.39,-135.735 1260.06,-152.204 1224.5,-112 1174.01,-54.9217 642.881,-23.0625 462.816,-13.8401"/>
<polygon fill="midnightblue" stroke="midnightblue" points="1077.69,-213.555 1076.39,-224.07 1083.96,-216.661 1077.69,-213.555"/>
</g>
<!-- Node8&#45;&gt;Node15 -->
<g id="edge13" class="edge"><title>Node8&#45;&gt;Node15</title>
<path fill="none" stroke="midnightblue" d="M1097.09,-219.453C1115.18,-209.483 1139.23,-196.228 1154.79,-187.655"/>
<polygon fill="midnightblue" stroke="midnightblue" points="1095.31,-216.432 1088.25,-224.324 1098.69,-222.563 1095.31,-216.432"/>
</g>
<!-- Node8&#45;&gt;Node17 -->
<g id="edge17" class="edge"><title>Node8&#45;&gt;Node17</title>
<path fill="none" stroke="midnightblue" d="M1137.04,-223.219C1196.43,-214.189 1286.92,-200.348 1365.5,-188 1368.52,-187.526 1371.62,-187.035 1374.75,-186.538"/>
<polygon fill="midnightblue" stroke="midnightblue" points="1136.42,-219.774 1127.06,-224.737 1137.47,-226.694 1136.42,-219.774"/>
</g>
<!-- Node8&#45;&gt;Node19 -->
<g id="edge19" class="edge"><title>Node8&#45;&gt;Node19</title>
<path fill="none" stroke="midnightblue" d="M1117.62,-222.024C1159.56,-211.823 1221.15,-196.841 1259.49,-187.516"/>
<polygon fill="midnightblue" stroke="midnightblue" points="1116.57,-218.679 1107.68,-224.444 1118.22,-225.481 1116.57,-218.679"/>
</g>
<!-- Node8&#45;&gt;Node22 -->
<g id="edge24" class="edge"><title>Node8&#45;&gt;Node22</title>
<path fill="none" stroke="midnightblue" d="M1037.24,-221.172C1006.92,-211.004 963.93,-196.585 936.892,-187.516"/>
<polygon fill="midnightblue" stroke="midnightblue" points="1036.4,-224.582 1046.99,-224.444 1038.62,-217.945 1036.4,-224.582"/>
</g>
<!-- Node23 -->
<g id="node20" class="node"><title>Node23</title>
<g id="a_node20"><a xlink:href="Component_8cpp.html" target="_top" xlink:title="src/Component.cpp">
<polygon fill="white" stroke="black" points="968.5,-168.5 968.5,-187.5 1070.5,-187.5 1070.5,-168.5 968.5,-168.5"/>
<text text-anchor="middle" x="1019.5" y="-175.5" font-family="Helvetica,sans-Serif" font-size="10.00">src/Component.cpp</text>
</a>
</g>
</g>
<!-- Node8&#45;&gt;Node23 -->
<g id="edge26" class="edge"><title>Node8&#45;&gt;Node23</title>
<path fill="none" stroke="midnightblue" d="M1056.52,-216.718C1047.18,-207.2 1035.75,-195.561 1028.09,-187.751"/>
<polygon fill="midnightblue" stroke="midnightblue" points="1054.25,-219.398 1063.75,-224.083 1059.24,-214.494 1054.25,-219.398"/>
</g>
<!-- Node9&#45;&gt;Node6 -->
<g id="edge7" class="edge"><title>Node9&#45;&gt;Node6</title>
<path fill="none" stroke="midnightblue" d="M666.561,-166.088C708.691,-155.887 770.74,-140.861 809.33,-131.516"/>
<polygon fill="midnightblue" stroke="midnightblue" points="665.73,-162.688 656.835,-168.444 667.378,-169.492 665.73,-162.688"/>
</g>
<!-- Node9&#45;&gt;Node10 -->
<g id="edge8" class="edge"><title>Node9&#45;&gt;Node10</title>
<path fill="none" stroke="midnightblue" d="M569.166,-168.196C506.695,-157.687 403.329,-140.298 344.693,-130.434"/>
<polygon fill="midnightblue" stroke="midnightblue" points="568.763,-171.677 579.205,-169.885 569.924,-164.774 568.763,-171.677"/>
</g>
<!-- Node14 -->
<g id="node11" class="node"><title>Node14</title>
<g id="a_node11"><a xlink:href="Sprite_8cpp.html" target="_top" xlink:title="src/Sprite.cpp">
<polygon fill="white" stroke="black" points="581,-112.5 581,-131.5 658,-131.5 658,-112.5 581,-112.5"/>
<text text-anchor="middle" x="619.5" y="-119.5" font-family="Helvetica,sans-Serif" font-size="10.00">src/Sprite.cpp</text>
</a>
</g>
</g>
<!-- Node9&#45;&gt;Node14 -->
<g id="edge12" class="edge"><title>Node9&#45;&gt;Node14</title>
<path fill="none" stroke="midnightblue" d="M620.789,-157.805C620.46,-148.91 620.084,-138.78 619.824,-131.751"/>
<polygon fill="midnightblue" stroke="midnightblue" points="617.302,-158.219 621.17,-168.083 624.297,-157.96 617.302,-158.219"/>
</g>
<!-- Node10&#45;&gt;Node11 -->
<g id="edge9" class="edge"><title>Node10&#45;&gt;Node11</title>
<path fill="none" stroke="midnightblue" d="M326.079,-107.59C345.123,-97.6052 370.564,-84.2672 386.992,-75.6545"/>
<polygon fill="midnightblue" stroke="midnightblue" points="324.28,-104.581 317.049,-112.324 327.531,-110.78 324.28,-104.581"/>
</g>
<!-- Node13 -->
<g id="node10" class="node"><title>Node13</title>
<g id="a_node10"><a xlink:href="Tileset_8cpp.html" target="_top" xlink:title="src/Tileset.cpp">
<polygon fill="white" stroke="black" points="258,-56.5 258,-75.5 339,-75.5 339,-56.5 258,-56.5"/>
<text text-anchor="middle" x="298.5" y="-63.5" font-family="Helvetica,sans-Serif" font-size="10.00">src/Tileset.cpp</text>
</a>
</g>
</g>
<!-- Node10&#45;&gt;Node13 -->
<g id="edge11" class="edge"><title>Node10&#45;&gt;Node13</title>
<path fill="none" stroke="midnightblue" d="M299.789,-101.805C299.46,-92.9102 299.084,-82.7798 298.824,-75.7511"/>
<polygon fill="midnightblue" stroke="midnightblue" points="296.302,-102.219 300.17,-112.083 303.297,-101.96 296.302,-102.219"/>
</g>
<!-- Node11&#45;&gt;Node12 -->
<g id="edge10" class="edge"><title>Node11&#45;&gt;Node12</title>
<path fill="none" stroke="midnightblue" d="M403.5,-45.8045C403.5,-36.9102 403.5,-26.7798 403.5,-19.7511"/>
<polygon fill="midnightblue" stroke="midnightblue" points="400,-46.083 403.5,-56.083 407,-46.083 400,-46.083"/>
</g>
<!-- Node16 -->
<g id="node13" class="node"><title>Node16</title>
<g id="a_node13"><a xlink:href="Button_8cpp.html" target="_top" xlink:title="src/Button.cpp">
<polygon fill="white" stroke="black" points="1272.5,-112.5 1272.5,-131.5 1352.5,-131.5 1352.5,-112.5 1272.5,-112.5"/>
<text text-anchor="middle" x="1312.5" y="-119.5" font-family="Helvetica,sans-Serif" font-size="10.00">src/Button.cpp</text>
</a>
</g>
</g>
<!-- Node15&#45;&gt;Node16 -->
<g id="edge14" class="edge"><title>Node15&#45;&gt;Node16</title>
<path fill="none" stroke="midnightblue" d="M1202.66,-164.772C1229.33,-154.629 1266.57,-140.467 1290.1,-131.516"/>
<polygon fill="midnightblue" stroke="midnightblue" points="1201.1,-161.618 1193,-168.444 1203.59,-168.16 1201.1,-161.618"/>
</g>
<!-- Node17&#45;&gt;Node18 -->
<g id="edge18" class="edge"><title>Node17&#45;&gt;Node18</title>
<path fill="none" stroke="midnightblue" d="M1421.5,-157.805C1421.5,-148.91 1421.5,-138.78 1421.5,-131.751"/>
<polygon fill="midnightblue" stroke="midnightblue" points="1418,-158.083 1421.5,-168.083 1425,-158.083 1418,-158.083"/>
</g>
<!-- Node19&#45;&gt;Node16 -->
<g id="edge20" class="edge"><title>Node19&#45;&gt;Node16</title>
<path fill="none" stroke="midnightblue" d="M1300.7,-158.396C1303.71,-149.362 1307.19,-138.936 1309.58,-131.751"/>
<polygon fill="midnightblue" stroke="midnightblue" points="1297.31,-157.489 1297.47,-168.083 1303.96,-159.703 1297.31,-157.489"/>
</g>
<!-- Node19&#45;&gt;Node18 -->
<g id="edge21" class="edge"><title>Node19&#45;&gt;Node18</title>
<path fill="none" stroke="midnightblue" d="M1323.89,-164.503C1347.7,-154.38 1380.61,-140.388 1401.47,-131.516"/>
<polygon fill="midnightblue" stroke="midnightblue" points="1322.46,-161.31 1314.62,-168.444 1325.2,-167.751 1322.46,-161.31"/>
</g>
<!-- Node20 -->
<g id="node17" class="node"><title>Node20</title>
<g id="a_node17"><a xlink:href="RectTransform_8cpp.html" target="_top" xlink:title="src/RectTransform.cpp">
<polygon fill="white" stroke="black" points="1010,-112.5 1010,-131.5 1127,-131.5 1127,-112.5 1010,-112.5"/>
<text text-anchor="middle" x="1068.5" y="-119.5" font-family="Helvetica,sans-Serif" font-size="10.00">src/RectTransform.cpp</text>
</a>
</g>
</g>
<!-- Node19&#45;&gt;Node20 -->
<g id="edge22" class="edge"><title>Node19&#45;&gt;Node20</title>
<path fill="none" stroke="midnightblue" d="M1248.83,-166.088C1206.14,-155.887 1143.25,-140.861 1104.14,-131.516"/>
<polygon fill="midnightblue" stroke="midnightblue" points="1248.15,-169.524 1258.69,-168.444 1249.78,-162.715 1248.15,-169.524"/>
</g>
<!-- Node21 -->
<g id="node18" class="node"><title>Node21</title>
<g id="a_node18"><a xlink:href="Text_8cpp.html" target="_top" xlink:title="src/Text.cpp">
<polygon fill="white" stroke="black" points="1145,-112.5 1145,-131.5 1216,-131.5 1216,-112.5 1145,-112.5"/>
<text text-anchor="middle" x="1180.5" y="-119.5" font-family="Helvetica,sans-Serif" font-size="10.00">src/Text.cpp</text>
</a>
</g>
</g>
<!-- Node19&#45;&gt;Node21 -->
<g id="edge23" class="edge"><title>Node19&#45;&gt;Node21</title>
<path fill="none" stroke="midnightblue" d="M1267.26,-164.096C1245.96,-154.007 1216.96,-140.27 1198.48,-131.516"/>
<polygon fill="midnightblue" stroke="midnightblue" points="1265.9,-167.326 1276.44,-168.444 1268.9,-161 1265.9,-167.326"/>
</g>
<!-- Node22&#45;&gt;Node21 -->
<g id="edge25" class="edge"><title>Node22&#45;&gt;Node21</title>
<path fill="none" stroke="midnightblue" d="M960.506,-167.162C1013.72,-156.479 1097.44,-139.674 1144.78,-130.171"/>
<polygon fill="midnightblue" stroke="midnightblue" points="959.73,-163.748 950.615,-169.148 961.108,-170.611 959.73,-163.748"/>
</g>
<!-- Node24&#45;&gt;Node7 -->
<g id="edge31" class="edge"><title>Node24&#45;&gt;Node7</title>
<path fill="none" stroke="midnightblue" d="M449.012,-158.002C450.454,-143.372 454.843,-123.728 467.5,-112 491.065,-90.1649 577.261,-77.4855 632.515,-71.4307"/>
<polygon fill="midnightblue" stroke="midnightblue" points="445.493,-158.22 448.387,-168.412 452.48,-158.64 445.493,-158.22"/>
</g>
<!-- Node24&#45;&gt;Node11 -->
<g id="edge29" class="edge"><title>Node24&#45;&gt;Node11</title>
<path fill="none" stroke="midnightblue" d="M441.136,-158.998C431.317,-134.997 414.328,-93.4683 407.015,-75.5914"/>
<polygon fill="midnightblue" stroke="midnightblue" points="437.943,-160.438 444.969,-168.368 444.422,-157.788 437.943,-160.438"/>
</g>
<!-- Node24&#45;&gt;Node12 -->
<g id="edge30" class="edge"><title>Node24&#45;&gt;Node12</title>
<path fill="none" stroke="midnightblue" d="M391.687,-172.098C338.723,-166.211 265.298,-154.223 247.5,-132 238.728,-121.047 225.426,-86.1613 248.5,-56 261.056,-39.5868 310.6,-27.1484 350.34,-19.5533"/>
<polygon fill="midnightblue" stroke="midnightblue" points="391.337,-175.58 401.652,-173.161 392.08,-168.62 391.337,-175.58"/>
</g>
<!-- Node24&#45;&gt;Node14 -->
<g id="edge35" class="edge"><title>Node24&#45;&gt;Node14</title>
<path fill="none" stroke="midnightblue" d="M485.536,-165.304C517.757,-155.129 563.689,-140.625 592.531,-131.516"/>
<polygon fill="midnightblue" stroke="midnightblue" points="484.077,-162.095 475.595,-168.444 486.185,-168.77 484.077,-162.095"/>
</g>
<!-- Node24&#45;&gt;Node20 -->
<g id="edge34" class="edge"><title>Node24&#45;&gt;Node20</title>
<path fill="none" stroke="midnightblue" d="M505.236,-172.739C626.091,-163.603 905.627,-142.139 1000.5,-132 1003.58,-131.671 1006.73,-131.316 1009.92,-130.944"/>
<polygon fill="midnightblue" stroke="midnightblue" points="504.789,-169.263 495.081,-173.506 505.317,-176.243 504.789,-169.263"/>
</g>
<!-- Node25 -->
<g id="node22" class="node"><title>Node25</title>
<g id="a_node22"><a xlink:href="Camera_8cpp.html" target="_top" xlink:title="src/Camera.cpp">
<polygon fill="white" stroke="black" points="476.5,-112.5 476.5,-131.5 562.5,-131.5 562.5,-112.5 476.5,-112.5"/>
<text text-anchor="middle" x="519.5" y="-119.5" font-family="Helvetica,sans-Serif" font-size="10.00">src/Camera.cpp</text>
</a>
</g>
</g>
<!-- Node24&#45;&gt;Node25 -->
<g id="edge32" class="edge"><title>Node24&#45;&gt;Node25</title>
<path fill="none" stroke="midnightblue" d="M468.09,-162.101C480.868,-152.382 497.113,-140.027 507.885,-131.834"/>
<polygon fill="midnightblue" stroke="midnightblue" points="465.748,-159.484 459.907,-168.324 469.986,-165.056 465.748,-159.484"/>
</g>
<!-- Node24&#45;&gt;Node26 -->
<g id="edge33" class="edge"><title>Node24&#45;&gt;Node26</title>
<path fill="none" stroke="midnightblue" d="M391.646,-169.49C325.336,-160.691 212.429,-145.584 115.5,-132 112.807,-131.623 110.049,-131.233 107.264,-130.837"/>
<polygon fill="midnightblue" stroke="midnightblue" points="391.505,-173.002 401.879,-170.847 392.425,-166.063 391.505,-173.002"/>
</g>
<!-- Node27 -->
<g id="node24" class="node"><title>Node27</title>
<g id="a_node24"><a xlink:href="State_8cpp.html" target="_top" xlink:title="src/State.cpp">
<polygon fill="white" stroke="black" points="125,-112.5 125,-131.5 200,-131.5 200,-112.5 125,-112.5"/>
<text text-anchor="middle" x="162.5" y="-119.5" font-family="Helvetica,sans-Serif" font-size="10.00">src/State.cpp</text>
</a>
</g>
</g>
<!-- Node24&#45;&gt;Node27 -->
<g id="edge36" class="edge"><title>Node24&#45;&gt;Node27</title>
<path fill="none" stroke="midnightblue" d="M393.3,-166.578C336.544,-155.862 249.687,-139.462 200.299,-130.137"/>
<polygon fill="midnightblue" stroke="midnightblue" points="392.707,-170.027 403.182,-168.444 394.005,-163.149 392.707,-170.027"/>
</g>
<!-- Node28&#45;&gt;Node27 -->
<g id="edge45" class="edge"><title>Node28&#45;&gt;Node27</title>
<path fill="none" stroke="midnightblue" d="M639.343,-229.032C573.681,-223.265 456.532,-210.692 358.5,-188 293.536,-172.962 219.506,-145.463 183.878,-131.549"/>
<polygon fill="midnightblue" stroke="midnightblue" points="639.165,-232.53 649.428,-229.9 639.765,-225.555 639.165,-232.53"/>
</g>
<!-- Node29 -->
<g id="node26" class="node"><title>Node29</title>
<g id="a_node26"><a xlink:href="Game_8h.html" target="_top" xlink:title="include/Game.h">
<polygon fill="white" stroke="black" points="683,-168.5 683,-187.5 768,-187.5 768,-168.5 683,-168.5"/>
<text text-anchor="middle" x="725.5" y="-175.5" font-family="Helvetica,sans-Serif" font-size="10.00">include/Game.h</text>
</a>
</g>
</g>
<!-- Node28&#45;&gt;Node29 -->
<g id="edge38" class="edge"><title>Node28&#45;&gt;Node29</title>
<path fill="none" stroke="midnightblue" d="M701.8,-215.566C707.822,-206.275 714.969,-195.248 719.828,-187.751"/>
<polygon fill="midnightblue" stroke="midnightblue" points="698.781,-213.788 696.28,-224.083 704.656,-217.595 698.781,-213.788"/>
</g>
<!-- Node29&#45;&gt;Node14 -->
<g id="edge43" class="edge"><title>Node29&#45;&gt;Node14</title>
<path fill="none" stroke="midnightblue" d="M699.444,-163.726C679.816,-153.727 653.472,-140.307 636.488,-131.655"/>
<polygon fill="midnightblue" stroke="midnightblue" points="697.97,-166.903 708.469,-168.324 701.148,-160.666 697.97,-166.903"/>
</g>
<!-- Node29&#45;&gt;Node20 -->
<g id="edge41" class="edge"><title>Node29&#45;&gt;Node20</title>
<path fill="none" stroke="midnightblue" d="M778.141,-168.712C842.198,-158.628 949.785,-141.69 1014.47,-131.507"/>
<polygon fill="midnightblue" stroke="midnightblue" points="777.582,-165.257 768.248,-170.27 778.67,-172.172 777.582,-165.257"/>
</g>
<!-- Node29&#45;&gt;Node21 -->
<g id="edge44" class="edge"><title>Node29&#45;&gt;Node21</title>
<path fill="none" stroke="midnightblue" d="M778.248,-172.707C856.498,-166.001 1007.83,-151.733 1135.5,-132 1138.49,-131.538 1141.59,-131.014 1144.69,-130.458"/>
<polygon fill="midnightblue" stroke="midnightblue" points="777.827,-169.23 768.159,-173.565 778.42,-176.205 777.827,-169.23"/>
</g>
<!-- Node29&#45;&gt;Node25 -->
<g id="edge39" class="edge"><title>Node29&#45;&gt;Node25</title>
<path fill="none" stroke="midnightblue" d="M682.885,-165.829C643.99,-155.633 587.336,-140.782 551.989,-131.516"/>
<polygon fill="midnightblue" stroke="midnightblue" points="682.298,-169.293 692.859,-168.444 684.073,-162.522 682.298,-169.293"/>
</g>
<!-- Node30 -->
<g id="node27" class="node"><title>Node30</title>
<g id="a_node27"><a xlink:href="Game_8cpp.html" target="_top" xlink:title="src/Game.cpp">
<polygon fill="white" stroke="black" points="913.5,-112.5 913.5,-131.5 991.5,-131.5 991.5,-112.5 913.5,-112.5"/>
<text text-anchor="middle" x="952.5" y="-119.5" font-family="Helvetica,sans-Serif" font-size="10.00">src/Game.cpp</text>
</a>
</g>
</g>
<!-- Node29&#45;&gt;Node30 -->
<g id="edge40" class="edge"><title>Node29&#45;&gt;Node30</title>
<path fill="none" stroke="midnightblue" d="M771.369,-166.088C814.255,-155.887 877.417,-140.861 916.699,-131.516"/>
<polygon fill="midnightblue" stroke="midnightblue" points="770.387,-162.724 761.469,-168.444 772.007,-169.534 770.387,-162.724"/>
</g>
<!-- Node31 -->
<g id="node28" class="node"><title>Node31</title>
<g id="a_node28"><a xlink:href="Resources_8cpp.html" target="_top" xlink:title="src/Resources.cpp">
<polygon fill="white" stroke="black" points="676,-112.5 676,-131.5 775,-131.5 775,-112.5 676,-112.5"/>
<text text-anchor="middle" x="725.5" y="-119.5" font-family="Helvetica,sans-Serif" font-size="10.00">src/Resources.cpp</text>
</a>
</g>
</g>
<!-- Node29&#45;&gt;Node31 -->
<g id="edge42" class="edge"><title>Node29&#45;&gt;Node31</title>
<path fill="none" stroke="midnightblue" d="M725.5,-157.805C725.5,-148.91 725.5,-138.78 725.5,-131.751"/>
<polygon fill="midnightblue" stroke="midnightblue" points="722,-158.083 725.5,-168.083 729,-158.083 722,-158.083"/>
</g>
</g>
</svg>
