<?xml version="1.0" encoding="UTF-8" standalone="no"?>
<!DOCTYPE svg PUBLIC "-//W3C//DTD SVG 1.1//EN"
 "http://www.w3.org/Graphics/SVG/1.1/DTD/svg11.dtd">
<!-- Generated by graphviz version 2.40.1 (20161225.0304)
 -->
<!-- Title: include/RectTransform.h Pages: 1 -->
<svg width="425pt" height="308pt"
 viewBox="0.00 0.00 425.00 308.00" xmlns="http://www.w3.org/2000/svg" xmlns:xlink="http://www.w3.org/1999/xlink">
<g id="graph0" class="graph" transform="scale(1 1) rotate(0) translate(4 304)">
<title>include/RectTransform.h</title>
<polygon fill="#ffffff" stroke="transparent" points="-4,4 -4,-304 421,-304 421,4 -4,4"/>
<!-- Node0 -->
<g id="node1" class="node">
<title>Node0</title>
<polygon fill="#bfbfbf" stroke="#000000" points="149.5,-280.5 149.5,-299.5 273.5,-299.5 273.5,-280.5 149.5,-280.5"/>
<text text-anchor="middle" x="211.5" y="-287.5" font-family="Helvetica,sans-Serif" font-size="10.00" fill="#000000">include/RectTransform.h</text>
</g>
<!-- Node1 -->
<g id="node2" class="node">
<title>Node1</title>
<polygon fill="#ffffff" stroke="#bfbfbf" points="23,-224.5 23,-243.5 64,-243.5 64,-224.5 23,-224.5"/>
<text text-anchor="middle" x="43.5" y="-231.5" font-family="Helvetica,sans-Serif" font-size="10.00" fill="#000000">cfloat</text>
</g>
<!-- Node0&#45;&gt;Node1 -->
<g id="edge1" class="edge">
<title>Node0&#45;&gt;Node1</title>
<path fill="none" stroke="#191970" d="M182.6198,-280.3733C152.2762,-270.2587 104.7521,-254.4174 73.8628,-244.1209"/>
<polygon fill="#191970" stroke="#191970" points="74.6675,-240.6999 64.0738,-240.8579 72.4538,-247.3407 74.6675,-240.6999"/>
</g>
<!-- Node2 -->
<g id="node3" class="node">
<title>Node2</title>
<g id="a_node3"><a xlink:href="Component_8h.html" target="_top" xlink:title="Component.h">
<polygon fill="#ffffff" stroke="#000000" points="141,-224.5 141,-243.5 216,-243.5 216,-224.5 141,-224.5"/>
<text text-anchor="middle" x="178.5" y="-231.5" font-family="Helvetica,sans-Serif" font-size="10.00" fill="#000000">Component.h</text>
</a>
</g>
</g>
<!-- Node0&#45;&gt;Node2 -->
<g id="edge2" class="edge">
<title>Node0&#45;&gt;Node2</title>
<path fill="none" stroke="#191970" d="M205.7518,-280.2455C201.2565,-272.617 194.8752,-261.7881 189.4175,-252.5267"/>
<polygon fill="#191970" stroke="#191970" points="192.2747,-250.4811 184.1823,-243.6427 186.2439,-254.035 192.2747,-250.4811"/>
</g>
<!-- Node3 -->
<g id="node4" class="node">
<title>Node3</title>
<g id="a_node4"><a xlink:href="ComponentType_8h.html" target="_top" xlink:title="ComponentType.h">
<polygon fill="#ffffff" stroke="#000000" points="0,-112.5 0,-131.5 97,-131.5 97,-112.5 0,-112.5"/>
<text text-anchor="middle" x="48.5" y="-119.5" font-family="Helvetica,sans-Serif" font-size="10.00" fill="#000000">ComponentType.h</text>
</a>
</g>
</g>
<!-- Node0&#45;&gt;Node3 -->
<g id="edge17" class="edge">
<title>Node0&#45;&gt;Node3</title>
<path fill="none" stroke="#191970" d="M189.03,-280.4633C171.9382,-272.4542 148.5354,-259.7944 131.5,-244 98.1658,-213.0941 71.1651,-166.4178 57.7332,-140.6822"/>
<polygon fill="#191970" stroke="#191970" points="60.7773,-138.9471 53.1185,-131.6264 54.5404,-142.1253 60.7773,-138.9471"/>
</g>
<!-- Node4 -->
<g id="node5" class="node">
<title>Node4</title>
<g id="a_node5"><a xlink:href="GameObject_8h.html" target="_top" xlink:title="GameObject.h">
<polygon fill="#ffffff" stroke="#000000" points="158.5,-168.5 158.5,-187.5 238.5,-187.5 238.5,-168.5 158.5,-168.5"/>
<text text-anchor="middle" x="198.5" y="-175.5" font-family="Helvetica,sans-Serif" font-size="10.00" fill="#000000">GameObject.h</text>
</a>
</g>
</g>
<!-- Node0&#45;&gt;Node4 -->
<g id="edge18" class="edge">
<title>Node0&#45;&gt;Node4</title>
<path fill="none" stroke="#191970" d="M216.2381,-280.0721C221.806,-267.0799 229.6695,-243.652 224.5,-224 221.8888,-214.0734 216.5933,-204.0366 211.4588,-195.8822"/>
<polygon fill="#191970" stroke="#191970" points="214.364,-193.9303 205.8819,-187.5817 208.5537,-197.8342 214.364,-193.9303"/>
</g>
<!-- Node9 -->
<g id="node10" class="node">
<title>Node9</title>
<g id="a_node10"><a xlink:href="Rect_8h.html" target="_top" xlink:title="Rect.h">
<polygon fill="#ffffff" stroke="#000000" points="345.5,-112.5 345.5,-131.5 391.5,-131.5 391.5,-112.5 345.5,-112.5"/>
<text text-anchor="middle" x="368.5" y="-119.5" font-family="Helvetica,sans-Serif" font-size="10.00" fill="#000000">Rect.h</text>
</a>
</g>
</g>
<!-- Node0&#45;&gt;Node9 -->
<g id="edge19" class="edge">
<title>Node0&#45;&gt;Node9</title>
<path fill="none" stroke="#191970" d="M220.3908,-280.4862C245.8535,-253.2396 319.328,-174.6172 352.2303,-139.4096"/>
<polygon fill="#191970" stroke="#191970" points="355.0449,-141.5239 359.3156,-131.8279 349.9306,-136.7444 355.0449,-141.5239"/>
</g>
<!-- Node10 -->
<g id="node11" class="node">
<title>Node10</title>
<g id="a_node11"><a xlink:href="Vec2_8h.html" target="_top" xlink:title="Vec2.h">
<polygon fill="#ffffff" stroke="#000000" points="370,-56.5 370,-75.5 417,-75.5 417,-56.5 370,-56.5"/>
<text text-anchor="middle" x="393.5" y="-63.5" font-family="Helvetica,sans-Serif" font-size="10.00" fill="#000000">Vec2.h</text>
</a>
</g>
</g>
<!-- Node0&#45;&gt;Node10 -->
<g id="edge20" class="edge">
<title>Node0&#45;&gt;Node10</title>
<path fill="none" stroke="#191970" d="M232.8375,-280.3558C274.7754,-260.0271 366.7921,-208.2818 400.5,-132 406.9678,-117.3633 404.3583,-99.184 400.6166,-85.6131"/>
<polygon fill="#191970" stroke="#191970" points="403.8864,-84.3456 397.5249,-75.8732 397.2145,-86.4635 403.8864,-84.3456"/>
</g>
<!-- Node2&#45;&gt;Node3 -->
<g id="edge3" class="edge">
<title>Node2&#45;&gt;Node3</title>
<path fill="none" stroke="#191970" d="M168.4529,-224.3667C154.7225,-211.3005 129.206,-187.3683 106.5,-168 94.3449,-157.6317 80.3181,-146.486 69.1037,-137.7629"/>
<polygon fill="#191970" stroke="#191970" points="71.206,-134.9642 61.1537,-131.6174 66.9249,-140.5025 71.206,-134.9642"/>
</g>
<!-- Node2&#45;&gt;Node4 -->
<g id="edge4" class="edge">
<title>Node2&#45;&gt;Node4</title>
<path fill="none" stroke="#191970" d="M176.7169,-224.2455C177.9551,-216.6973 181.3867,-206.0158 185.362,-196.8197"/>
<polygon fill="#191970" stroke="#191970" points="188.5981,-198.1679 189.8111,-187.6427 182.2992,-195.1142 188.5981,-198.1679"/>
</g>
<!-- Node4&#45;&gt;Node2 -->
<g id="edge9" class="edge">
<title>Node4&#45;&gt;Node2</title>
<path fill="none" stroke="#191970" d="M200.3013,-187.6427C199.0848,-195.1598 195.6668,-205.8331 191.6969,-215.0437"/>
<polygon fill="#191970" stroke="#191970" points="188.45,-213.7188 187.2506,-224.2455 194.7527,-216.7643 188.45,-213.7188"/>
</g>
<!-- Node4&#45;&gt;Node3 -->
<g id="edge10" class="edge">
<title>Node4&#45;&gt;Node3</title>
<path fill="none" stroke="#191970" d="M172.7141,-168.3733C148.0953,-159.1822 110.81,-145.2624 83.5125,-135.0713"/>
<polygon fill="#191970" stroke="#191970" points="84.542,-131.7198 73.9494,-131.5011 82.0937,-138.2777 84.542,-131.7198"/>
</g>
<!-- Node5 -->
<g id="node6" class="node">
<title>Node5</title>
<g id="a_node6"><a xlink:href="SDL__include_8h.html" target="_top" xlink:title="SDL_include.h">
<polygon fill="#ffffff" stroke="#000000" points="239.5,-.5 239.5,-19.5 319.5,-19.5 319.5,-.5 239.5,-.5"/>
<text text-anchor="middle" x="279.5" y="-7.5" font-family="Helvetica,sans-Serif" font-size="10.00" fill="#000000">SDL_include.h</text>
</a>
</g>
</g>
<!-- Node4&#45;&gt;Node5 -->
<g id="edge5" class="edge">
<title>Node4&#45;&gt;Node5</title>
<path fill="none" stroke="#191970" d="M180.8624,-168.499C161.1021,-156.4981 133.2184,-134.6636 144.5,-112 165.7074,-69.3965 214.1391,-39.8656 246.8443,-23.9238"/>
<polygon fill="#191970" stroke="#191970" points="248.4714,-27.0264 256.0285,-19.6006 245.4901,-20.693 248.4714,-27.0264"/>
</g>
<!-- Node6 -->
<g id="node7" class="node">
<title>Node6</title>
<polygon fill="#ffffff" stroke="#bfbfbf" points="153.5,-112.5 153.5,-131.5 197.5,-131.5 197.5,-112.5 153.5,-112.5"/>
<text text-anchor="middle" x="175.5" y="-119.5" font-family="Helvetica,sans-Serif" font-size="10.00" fill="#000000">vector</text>
</g>
<!-- Node4&#45;&gt;Node6 -->
<g id="edge6" class="edge">
<title>Node4&#45;&gt;Node6</title>
<path fill="none" stroke="#191970" d="M194.4937,-168.2455C191.4265,-160.7776 187.0997,-150.2427 183.3503,-141.1137"/>
<polygon fill="#191970" stroke="#191970" points="186.4972,-139.5631 179.4604,-131.6427 180.0221,-142.2226 186.4972,-139.5631"/>
</g>
<!-- Node7 -->
<g id="node8" class="node">
<title>Node7</title>
<polygon fill="#ffffff" stroke="#bfbfbf" points="215.5,-112.5 215.5,-131.5 267.5,-131.5 267.5,-112.5 215.5,-112.5"/>
<text text-anchor="middle" x="241.5" y="-119.5" font-family="Helvetica,sans-Serif" font-size="10.00" fill="#000000">memory</text>
</g>
<!-- Node4&#45;&gt;Node7 -->
<g id="edge7" class="edge">
<title>Node4&#45;&gt;Node7</title>
<path fill="none" stroke="#191970" d="M205.99,-168.2455C212.0326,-160.3761 220.6903,-149.101 227.9441,-139.6542"/>
<polygon fill="#191970" stroke="#191970" points="230.7815,-141.7058 234.0958,-131.6427 225.2295,-137.4426 230.7815,-141.7058"/>
</g>
<!-- Node8 -->
<g id="node9" class="node">
<title>Node8</title>
<polygon fill="#ffffff" stroke="#bfbfbf" points="286,-112.5 286,-131.5 327,-131.5 327,-112.5 286,-112.5"/>
<text text-anchor="middle" x="306.5" y="-119.5" font-family="Helvetica,sans-Serif" font-size="10.00" fill="#000000">string</text>
</g>
<!-- Node4&#45;&gt;Node8 -->
<g id="edge8" class="edge">
<title>Node4&#45;&gt;Node8</title>
<path fill="none" stroke="#191970" d="M217.3122,-168.2455C234.3473,-159.4125 259.6575,-146.2887 278.9681,-136.2758"/>
<polygon fill="#191970" stroke="#191970" points="280.637,-139.353 287.9034,-131.6427 277.4147,-133.1388 280.637,-139.353"/>
</g>
<!-- Node4&#45;&gt;Node9 -->
<g id="edge11" class="edge">
<title>Node4&#45;&gt;Node9</title>
<path fill="none" stroke="#191970" d="M227.724,-168.3733C257.7914,-158.4687 304.5294,-143.0727 335.8075,-132.7693"/>
<polygon fill="#191970" stroke="#191970" points="336.9759,-136.0695 345.3788,-129.6164 334.7858,-129.4209 336.9759,-136.0695"/>
</g>
<!-- Node9&#45;&gt;Node5 -->
<g id="edge12" class="edge">
<title>Node9&#45;&gt;Node5</title>
<path fill="none" stroke="#191970" d="M346.1754,-112.4863C330.6604,-104.7869 310.6602,-92.509 298.5,-76 288.5679,-62.5159 283.8149,-43.961 281.5478,-29.9583"/>
<polygon fill="#191970" stroke="#191970" points="284.9966,-29.3407 280.2111,-19.8883 278.0575,-30.2619 284.9966,-29.3407"/>
</g>
<!-- Node9&#45;&gt;Node10 -->
<g id="edge13" class="edge">
<title>Node9&#45;&gt;Node10</title>
<path fill="none" stroke="#191970" d="M367.5878,-112.2455C369.5204,-104.617 373.9789,-93.7881 378.8349,-84.5267"/>
<polygon fill="#191970" stroke="#191970" points="381.9935,-86.0553 383.9501,-75.6427 375.9272,-82.5625 381.9935,-86.0553"/>
</g>
<!-- Node11 -->
<g id="node12" class="node">
<title>Node11</title>
<polygon fill="#ffffff" stroke="#bfbfbf" points="307.5,-56.5 307.5,-75.5 351.5,-75.5 351.5,-56.5 307.5,-56.5"/>
<text text-anchor="middle" x="329.5" y="-63.5" font-family="Helvetica,sans-Serif" font-size="10.00" fill="#000000">cmath</text>
</g>
<!-- Node9&#45;&gt;Node11 -->
<g id="edge16" class="edge">
<title>Node9&#45;&gt;Node11</title>
<path fill="none" stroke="#191970" d="M361.7067,-112.2455C356.2822,-104.4564 348.5339,-93.3308 341.9967,-83.9439"/>
<polygon fill="#191970" stroke="#191970" points="344.8025,-81.8485 336.2154,-75.6427 339.0583,-85.849 344.8025,-81.8485"/>
</g>
<!-- Node10&#45;&gt;Node5 -->
<g id="edge14" class="edge">
<title>Node10&#45;&gt;Node5</title>
<path fill="none" stroke="#191970" d="M373.9027,-56.3733C355.7669,-47.4644 328.5865,-34.1127 308.0413,-24.0203"/>
<polygon fill="#191970" stroke="#191970" points="309.3603,-20.7688 298.8416,-19.5011 306.2739,-27.0517 309.3603,-20.7688"/>
</g>
<!-- Node10&#45;&gt;Node9 -->
<g id="edge15" class="edge">
<title>Node10&#45;&gt;Node9</title>
<path fill="none" stroke="#191970" d="M394.4404,-75.6427C392.5326,-83.2398 388.0884,-94.0605 383.2363,-103.3372"/>
<polygon fill="#191970" stroke="#191970" points="380.0655,-101.8306 378.1215,-112.2455 386.1361,-105.3161 380.0655,-101.8306"/>
</g>
</g>
</svg>
