<?xml version="1.0" encoding="UTF-8" standalone="no"?>
<!DOCTYPE svg PUBLIC "-//W3C//DTD SVG 1.1//EN"
 "http://www.w3.org/Graphics/SVG/1.1/DTD/svg11.dtd">
<!-- Generated by graphviz version 2.40.1 (20161225.0304)
 -->
<!-- Title: include/Rect.h Pages: 1 -->
<svg width="160pt" height="140pt"
 viewBox="0.00 0.00 160.00 140.00" xmlns="http://www.w3.org/2000/svg" xmlns:xlink="http://www.w3.org/1999/xlink">
<g id="graph0" class="graph" transform="scale(1 1) rotate(0) translate(4 136)">
<title>include/Rect.h</title>
<polygon fill="#ffffff" stroke="transparent" points="-4,4 -4,-136 156,-136 156,4 -4,4"/>
<!-- Node0 -->
<g id="node1" class="node">
<title>Node0</title>
<polygon fill="#bfbfbf" stroke="#000000" points="26,-112.5 26,-131.5 106,-131.5 106,-112.5 26,-112.5"/>
<text text-anchor="middle" x="66" y="-119.5" font-family="Helvetica,sans-Serif" font-size="10.00" fill="#000000">include/Rect.h</text>
</g>
<!-- Node1 -->
<g id="node2" class="node">
<title>Node1</title>
<g id="a_node2"><a xlink:href="SDL__include_8h.html" target="_top" xlink:title="SDL_include.h">
<polygon fill="#ffffff" stroke="#000000" points="0,-.5 0,-19.5 80,-19.5 80,-.5 0,-.5"/>
<text text-anchor="middle" x="40" y="-7.5" font-family="Helvetica,sans-Serif" font-size="10.00" fill="#000000">SDL_include.h</text>
</a>
</g>
</g>
<!-- Node0&#45;&gt;Node1 -->
<g id="edge1" class="edge">
<title>Node0&#45;&gt;Node1</title>
<path fill="none" stroke="#191970" d="M56.3508,-112.4346C48.35,-103.7723 37.5738,-90.2221 33,-76 28.1494,-60.9172 30.5288,-42.9965 33.771,-29.6377"/>
<polygon fill="#191970" stroke="#191970" points="37.2409,-30.2243 36.5575,-19.6516 30.4985,-28.3429 37.2409,-30.2243"/>
</g>
<!-- Node2 -->
<g id="node3" class="node">
<title>Node2</title>
<g id="a_node3"><a xlink:href="Vec2_8h.html" target="_top" xlink:title="Vec2.h">
<polygon fill="#ffffff" stroke="#000000" points="42.5,-56.5 42.5,-75.5 89.5,-75.5 89.5,-56.5 42.5,-56.5"/>
<text text-anchor="middle" x="66" y="-63.5" font-family="Helvetica,sans-Serif" font-size="10.00" fill="#000000">Vec2.h</text>
</a>
</g>
</g>
<!-- Node0&#45;&gt;Node2 -->
<g id="edge2" class="edge">
<title>Node0&#45;&gt;Node2</title>
<path fill="none" stroke="#191970" d="M60.7332,-112.2455C59.3221,-104.9382 58.9179,-94.6944 59.5205,-85.7046"/>
<polygon fill="#191970" stroke="#191970" points="63.0111,-85.9945 60.7549,-75.6427 56.0632,-85.1421 63.0111,-85.9945"/>
</g>
<!-- Node3 -->
<g id="node4" class="node">
<title>Node3</title>
<polygon fill="#ffffff" stroke="#bfbfbf" points="108,-56.5 108,-75.5 152,-75.5 152,-56.5 108,-56.5"/>
<text text-anchor="middle" x="130" y="-63.5" font-family="Helvetica,sans-Serif" font-size="10.00" fill="#000000">cmath</text>
</g>
<!-- Node0&#45;&gt;Node3 -->
<g id="edge5" class="edge">
<title>Node0&#45;&gt;Node3</title>
<path fill="none" stroke="#191970" d="M77.1479,-112.2455C86.5087,-104.0549 100.0858,-92.1749 111.1349,-82.5069"/>
<polygon fill="#191970" stroke="#191970" points="113.7588,-84.8618 118.9798,-75.6427 109.1492,-79.5937 113.7588,-84.8618"/>
</g>
<!-- Node2&#45;&gt;Node0 -->
<g id="edge4" class="edge">
<title>Node2&#45;&gt;Node0</title>
<path fill="none" stroke="#191970" d="M71.2451,-75.6427C72.6665,-82.9199 73.081,-93.155 72.4887,-102.1575"/>
<polygon fill="#191970" stroke="#191970" points="68.9947,-101.8972 71.2668,-112.2455 75.9439,-102.739 68.9947,-101.8972"/>
</g>
<!-- Node2&#45;&gt;Node1 -->
<g id="edge3" class="edge">
<title>Node2&#45;&gt;Node1</title>
<path fill="none" stroke="#191970" d="M61.4711,-56.2455C57.9666,-48.6973 53.0073,-38.0158 48.7377,-28.8197"/>
<polygon fill="#191970" stroke="#191970" points="51.8627,-27.2389 44.477,-19.6427 45.5136,-30.1867 51.8627,-27.2389"/>
</g>
</g>
</svg>
