<?xml version="1.0" encoding="UTF-8" standalone="no"?>
<!DOCTYPE svg PUBLIC "-//W3C//DTD SVG 1.1//EN"
 "http://www.w3.org/Graphics/SVG/1.1/DTD/svg11.dtd">
<!-- Generated by graphviz version 2.38.0 (20140413.2041)
 -->
<!-- Title: src/RectTransform.cpp Pages: 1 -->
<svg width="907pt" height="364pt"
 viewBox="0.00 0.00 906.78 364.00" xmlns="http://www.w3.org/2000/svg" xmlns:xlink="http://www.w3.org/1999/xlink">
<g id="graph0" class="graph" transform="scale(1 1) rotate(0) translate(4 360)">
<title>src/RectTransform.cpp</title>
<polygon fill="white" stroke="none" points="-4,4 -4,-360 902.782,-360 902.782,4 -4,4"/>
<!-- Node0 -->
<g id="node1" class="node"><title>Node0</title>
<polygon fill="#bfbfbf" stroke="black" points="369.282,-336.5 369.282,-355.5 486.282,-355.5 486.282,-336.5 369.282,-336.5"/>
<text text-anchor="middle" x="427.782" y="-343.5" font-family="Helvetica,sans-Serif" font-size="10.00">src/RectTransform.cpp</text>
</g>
<!-- Node1 -->
<g id="node2" class="node"><title>Node1</title>
<g id="a_node2"><a xlink:href="RectTransform_8h.html" target="_top" xlink:title="RectTransform.h">
<polygon fill="white" stroke="black" points="64.7815,-280.5 64.7815,-299.5 154.782,-299.5 154.782,-280.5 64.7815,-280.5"/>
<text text-anchor="middle" x="109.782" y="-287.5" font-family="Helvetica,sans-Serif" font-size="10.00">RectTransform.h</text>
</a>
</g>
</g>
<!-- Node0&#45;&gt;Node1 -->
<g id="edge1" class="edge"><title>Node0&#45;&gt;Node1</title>
<path fill="none" stroke="midnightblue" d="M377.394,-336.444C319.45,-326.604 224.642,-310.505 164.811,-300.345"/>
<polygon fill="midnightblue" stroke="midnightblue" points="165.237,-296.867 154.792,-298.643 164.065,-303.768 165.237,-296.867"/>
</g>
<!-- Node13 -->
<g id="node14" class="node"><title>Node13</title>
<g id="a_node14"><a xlink:href="Camera_8h.html" target="_top" xlink:title="Camera.h">
<polygon fill="white" stroke="black" points="317.282,-280.5 317.282,-299.5 376.282,-299.5 376.282,-280.5 317.282,-280.5"/>
<text text-anchor="middle" x="346.782" y="-287.5" font-family="Helvetica,sans-Serif" font-size="10.00">Camera.h</text>
</a>
</g>
</g>
<!-- Node0&#45;&gt;Node13 -->
<g id="edge21" class="edge"><title>Node0&#45;&gt;Node13</title>
<path fill="none" stroke="midnightblue" d="M414.767,-336.324C402.25,-327.979 383.1,-315.212 368.31,-305.352"/>
<polygon fill="midnightblue" stroke="midnightblue" points="370.025,-302.289 359.763,-299.655 366.142,-308.114 370.025,-302.289"/>
</g>
<!-- Node18 -->
<g id="node19" class="node"><title>Node18</title>
<g id="a_node19"><a xlink:href="Error_8h.html" target="_top" xlink:title="Error.h">
<polygon fill="white" stroke="black" points="450.782,-280.5 450.782,-299.5 496.782,-299.5 496.782,-280.5 450.782,-280.5"/>
<text text-anchor="middle" x="473.782" y="-287.5" font-family="Helvetica,sans-Serif" font-size="10.00">Error.h</text>
</a>
</g>
</g>
<!-- Node0&#45;&gt;Node18 -->
<g id="edge30" class="edge"><title>Node0&#45;&gt;Node18</title>
<path fill="none" stroke="midnightblue" d="M435.378,-336.083C442.009,-328.298 451.803,-316.801 459.84,-307.367"/>
<polygon fill="midnightblue" stroke="midnightblue" points="462.507,-309.633 466.327,-299.751 457.178,-305.094 462.507,-309.633"/>
</g>
<!-- Node21 -->
<g id="node22" class="node"><title>Node21</title>
<g id="a_node22"><a xlink:href="Game_8h.html" target="_top" xlink:title="Game.h">
<polygon fill="white" stroke="black" points="681.282,-280.5 681.282,-299.5 732.282,-299.5 732.282,-280.5 681.282,-280.5"/>
<text text-anchor="middle" x="706.782" y="-287.5" font-family="Helvetica,sans-Serif" font-size="10.00">Game.h</text>
</a>
</g>
</g>
<!-- Node0&#45;&gt;Node21 -->
<g id="edge33" class="edge"><title>Node0&#45;&gt;Node21</title>
<path fill="none" stroke="midnightblue" d="M471.99,-336.444C527.19,-325.76 620.521,-307.696 671.296,-297.868"/>
<polygon fill="midnightblue" stroke="midnightblue" points="672.006,-301.296 681.158,-295.959 670.675,-294.423 672.006,-301.296"/>
</g>
<!-- Node2 -->
<g id="node3" class="node"><title>Node2</title>
<polygon fill="white" stroke="#bfbfbf" points="165.282,-224.5 165.282,-243.5 206.282,-243.5 206.282,-224.5 165.282,-224.5"/>
<text text-anchor="middle" x="185.782" y="-231.5" font-family="Helvetica,sans-Serif" font-size="10.00">cfloat</text>
</g>
<!-- Node1&#45;&gt;Node2 -->
<g id="edge2" class="edge"><title>Node1&#45;&gt;Node2</title>
<path fill="none" stroke="midnightblue" d="M121.992,-280.324C133.557,-272.107 151.157,-259.602 164.942,-249.807"/>
<polygon fill="midnightblue" stroke="midnightblue" points="167.224,-252.479 173.349,-243.834 163.17,-246.773 167.224,-252.479"/>
</g>
<!-- Node3 -->
<g id="node4" class="node"><title>Node3</title>
<g id="a_node4"><a xlink:href="Component_8h.html" target="_top" xlink:title="Component.h">
<polygon fill="white" stroke="black" points="72.2815,-224.5 72.2815,-243.5 147.282,-243.5 147.282,-224.5 72.2815,-224.5"/>
<text text-anchor="middle" x="109.782" y="-231.5" font-family="Helvetica,sans-Serif" font-size="10.00">Component.h</text>
</a>
</g>
</g>
<!-- Node1&#45;&gt;Node3 -->
<g id="edge3" class="edge"><title>Node1&#45;&gt;Node3</title>
<path fill="none" stroke="midnightblue" d="M109.782,-280.083C109.782,-273.006 109.782,-262.861 109.782,-253.986"/>
<polygon fill="midnightblue" stroke="midnightblue" points="113.282,-253.751 109.782,-243.751 106.282,-253.751 113.282,-253.751"/>
</g>
<!-- Node4 -->
<g id="node5" class="node"><title>Node4</title>
<g id="a_node5"><a xlink:href="ComponentType_8h.html" target="_top" xlink:title="ComponentType.h">
<polygon fill="white" stroke="black" points="61.2815,-112.5 61.2815,-131.5 158.282,-131.5 158.282,-112.5 61.2815,-112.5"/>
<text text-anchor="middle" x="109.782" y="-119.5" font-family="Helvetica,sans-Serif" font-size="10.00">ComponentType.h</text>
</a>
</g>
</g>
<!-- Node1&#45;&gt;Node4 -->
<g id="edge17" class="edge"><title>Node1&#45;&gt;Node4</title>
<path fill="none" stroke="midnightblue" d="M79.5342,-280.488C61.6563,-273.726 40.4813,-262.295 29.7815,-244 12.729,-214.843 12.729,-197.157 29.7815,-168 38.6423,-152.85 54.6869,-142.406 70.0937,-135.424"/>
<polygon fill="midnightblue" stroke="midnightblue" points="71.6355,-138.573 79.5342,-131.512 68.9561,-132.106 71.6355,-138.573"/>
</g>
<!-- Node5 -->
<g id="node6" class="node"><title>Node5</title>
<g id="a_node6"><a xlink:href="GameObject_8h.html" target="_top" xlink:title="GameObject.h">
<polygon fill="white" stroke="black" points="217.782,-168.5 217.782,-187.5 297.782,-187.5 297.782,-168.5 217.782,-168.5"/>
<text text-anchor="middle" x="257.782" y="-175.5" font-family="Helvetica,sans-Serif" font-size="10.00">GameObject.h</text>
</a>
</g>
</g>
<!-- Node1&#45;&gt;Node5 -->
<g id="edge18" class="edge"><title>Node1&#45;&gt;Node5</title>
<path fill="none" stroke="midnightblue" d="M142.27,-280.464C164.482,-273.415 193.619,-261.667 214.782,-244 230.16,-231.161 242.134,-211.43 249.497,-197.074"/>
<polygon fill="midnightblue" stroke="midnightblue" points="252.807,-198.271 254.026,-187.746 246.51,-195.213 252.807,-198.271"/>
</g>
<!-- Node10 -->
<g id="node11" class="node"><title>Node10</title>
<g id="a_node11"><a xlink:href="Rect_8h.html" target="_top" xlink:title="Rect.h">
<polygon fill="white" stroke="black" points="213.782,-112.5 213.782,-131.5 259.782,-131.5 259.782,-112.5 213.782,-112.5"/>
<text text-anchor="middle" x="236.782" y="-119.5" font-family="Helvetica,sans-Serif" font-size="10.00">Rect.h</text>
</a>
</g>
</g>
<!-- Node1&#45;&gt;Node10 -->
<g id="edge19" class="edge"><title>Node1&#45;&gt;Node10</title>
<path fill="none" stroke="midnightblue" d="M95.6027,-280.353C77.6585,-268.256 50.4821,-245.361 62.7815,-224 93.1328,-171.288 162.706,-143.554 204.097,-131.208"/>
<polygon fill="midnightblue" stroke="midnightblue" points="205.066,-134.571 213.722,-128.462 203.146,-127.839 205.066,-134.571"/>
</g>
<!-- Node11 -->
<g id="node12" class="node"><title>Node11</title>
<g id="a_node12"><a xlink:href="Vec2_8h.html" target="_top" xlink:title="Vec2.h">
<polygon fill="white" stroke="black" points="340.282,-56.5 340.282,-75.5 387.282,-75.5 387.282,-56.5 340.282,-56.5"/>
<text text-anchor="middle" x="363.782" y="-63.5" font-family="Helvetica,sans-Serif" font-size="10.00">Vec2.h</text>
</a>
</g>
</g>
<!-- Node1&#45;&gt;Node11 -->
<g id="edge20" class="edge"><title>Node1&#45;&gt;Node11</title>
<path fill="none" stroke="midnightblue" d="M70.5268,-280.475C50.786,-273.99 28.5972,-262.843 16.7815,-244 -15.4617,-192.579 0.937638,-145.146 51.7815,-112 74.8239,-96.9783 254.098,-77.7972 330.006,-70.2542"/>
<polygon fill="midnightblue" stroke="midnightblue" points="330.395,-73.7329 340.004,-69.2687 329.709,-66.7666 330.395,-73.7329"/>
</g>
<!-- Node3&#45;&gt;Node4 -->
<g id="edge4" class="edge"><title>Node3&#45;&gt;Node4</title>
<path fill="none" stroke="midnightblue" d="M109.782,-224.368C109.782,-206.617 109.782,-165.666 109.782,-141.597"/>
<polygon fill="midnightblue" stroke="midnightblue" points="113.282,-141.591 109.782,-131.591 106.282,-141.591 113.282,-141.591"/>
</g>
<!-- Node3&#45;&gt;Node5 -->
<g id="edge5" class="edge"><title>Node3&#45;&gt;Node5</title>
<path fill="none" stroke="midnightblue" d="M128.144,-224.444C151.049,-215.359 190.372,-200.939 219.798,-190.783"/>
<polygon fill="midnightblue" stroke="midnightblue" points="221.029,-194.061 229.36,-187.516 218.766,-187.437 221.029,-194.061"/>
</g>
<!-- Node5&#45;&gt;Node3 -->
<g id="edge10" class="edge"><title>Node5&#45;&gt;Node3</title>
<path fill="none" stroke="midnightblue" d="M239.52,-187.516C216.663,-196.585 177.35,-211.004 147.895,-221.172"/>
<polygon fill="midnightblue" stroke="midnightblue" points="146.652,-217.898 138.321,-224.444 148.916,-224.522 146.652,-217.898"/>
</g>
<!-- Node5&#45;&gt;Node4 -->
<g id="edge11" class="edge"><title>Node5&#45;&gt;Node4</title>
<path fill="none" stroke="midnightblue" d="M234.331,-168.444C209.649,-159.438 170.596,-145.189 142.805,-135.049"/>
<polygon fill="midnightblue" stroke="midnightblue" points="143.717,-131.656 133.123,-131.516 141.317,-138.232 143.717,-131.656"/>
</g>
<!-- Node6 -->
<g id="node7" class="node"><title>Node6</title>
<g id="a_node7"><a xlink:href="SDL__include_8h.html" target="_top" xlink:title="SDL_include.h">
<polygon fill="white" stroke="black" points="450.782,-0.5 450.782,-19.5 530.782,-19.5 530.782,-0.5 450.782,-0.5"/>
<text text-anchor="middle" x="490.782" y="-7.5" font-family="Helvetica,sans-Serif" font-size="10.00">SDL_include.h</text>
</a>
</g>
</g>
<!-- Node5&#45;&gt;Node6 -->
<g id="edge6" class="edge"><title>Node5&#45;&gt;Node6</title>
<path fill="none" stroke="midnightblue" d="M260.447,-168.461C267.809,-146.314 290.58,-86.6286 330.782,-56 362.503,-31.8321 406.606,-20.6435 440.476,-15.464"/>
<polygon fill="midnightblue" stroke="midnightblue" points="441.216,-18.8946 450.634,-14.0418 440.245,-11.9622 441.216,-18.8946"/>
</g>
<!-- Node7 -->
<g id="node8" class="node"><title>Node7</title>
<polygon fill="white" stroke="#bfbfbf" points="416.782,-112.5 416.782,-131.5 460.782,-131.5 460.782,-112.5 416.782,-112.5"/>
<text text-anchor="middle" x="438.782" y="-119.5" font-family="Helvetica,sans-Serif" font-size="10.00">vector</text>
</g>
<!-- Node5&#45;&gt;Node7 -->
<g id="edge7" class="edge"><title>Node5&#45;&gt;Node7</title>
<path fill="none" stroke="midnightblue" d="M286.462,-168.444C319.163,-158.687 372.494,-142.776 406.592,-132.604"/>
<polygon fill="midnightblue" stroke="midnightblue" points="407.93,-135.857 416.512,-129.644 405.929,-129.149 407.93,-135.857"/>
</g>
<!-- Node8 -->
<g id="node9" class="node"><title>Node8</title>
<polygon fill="white" stroke="#bfbfbf" points="478.782,-112.5 478.782,-131.5 530.782,-131.5 530.782,-112.5 478.782,-112.5"/>
<text text-anchor="middle" x="504.782" y="-119.5" font-family="Helvetica,sans-Serif" font-size="10.00">memory</text>
</g>
<!-- Node5&#45;&gt;Node8 -->
<g id="edge8" class="edge"><title>Node5&#45;&gt;Node8</title>
<path fill="none" stroke="midnightblue" d="M298.142,-168.965C338.793,-160.754 403.544,-147.354 468.445,-132.242"/>
<polygon fill="midnightblue" stroke="midnightblue" points="469.499,-135.59 478.438,-129.902 467.903,-128.775 469.499,-135.59"/>
</g>
<!-- Node9 -->
<g id="node10" class="node"><title>Node9</title>
<polygon fill="white" stroke="#bfbfbf" points="549.282,-112.5 549.282,-131.5 590.282,-131.5 590.282,-112.5 549.282,-112.5"/>
<text text-anchor="middle" x="569.782" y="-119.5" font-family="Helvetica,sans-Serif" font-size="10.00">string</text>
</g>
<!-- Node5&#45;&gt;Node9 -->
<g id="edge9" class="edge"><title>Node5&#45;&gt;Node9</title>
<path fill="none" stroke="midnightblue" d="M297.799,-172.321C350.822,-165.748 447.385,-152.485 539.205,-131.847"/>
<polygon fill="midnightblue" stroke="midnightblue" points="540.25,-135.198 549.221,-129.561 538.693,-128.374 540.25,-135.198"/>
</g>
<!-- Node5&#45;&gt;Node10 -->
<g id="edge12" class="edge"><title>Node5&#45;&gt;Node10</title>
<path fill="none" stroke="midnightblue" d="M254.314,-168.083C251.47,-160.77 247.352,-150.181 243.822,-141.103"/>
<polygon fill="midnightblue" stroke="midnightblue" points="247.071,-139.803 240.185,-131.751 240.547,-142.34 247.071,-139.803"/>
</g>
<!-- Node10&#45;&gt;Node6 -->
<g id="edge13" class="edge"><title>Node10&#45;&gt;Node6</title>
<path fill="none" stroke="midnightblue" d="M227.028,-112.158C213.452,-98.7974 192.091,-73.201 206.782,-56 236.214,-21.537 366.762,-13.3232 440.185,-11.4602"/>
<polygon fill="midnightblue" stroke="midnightblue" points="440.665,-14.9505 450.584,-11.2291 440.509,-7.95224 440.665,-14.9505"/>
</g>
<!-- Node10&#45;&gt;Node11 -->
<g id="edge14" class="edge"><title>Node10&#45;&gt;Node11</title>
<path fill="none" stroke="midnightblue" d="M256.905,-112.444C277.806,-103.557 310.716,-89.5632 334.498,-79.4514"/>
<polygon fill="midnightblue" stroke="midnightblue" points="335.919,-82.6504 343.752,-75.5164 333.18,-76.2085 335.919,-82.6504"/>
</g>
<!-- Node12 -->
<g id="node13" class="node"><title>Node12</title>
<polygon fill="white" stroke="#bfbfbf" points="215.782,-56.5 215.782,-75.5 259.782,-75.5 259.782,-56.5 215.782,-56.5"/>
<text text-anchor="middle" x="237.782" y="-63.5" font-family="Helvetica,sans-Serif" font-size="10.00">cmath</text>
</g>
<!-- Node10&#45;&gt;Node12 -->
<g id="edge16" class="edge"><title>Node10&#45;&gt;Node12</title>
<path fill="none" stroke="midnightblue" d="M236.947,-112.083C237.078,-105.006 237.266,-94.8611 237.43,-85.9865"/>
<polygon fill="midnightblue" stroke="midnightblue" points="240.934,-85.8142 237.619,-75.7511 233.935,-85.6845 240.934,-85.8142"/>
</g>
<!-- Node11&#45;&gt;Node6 -->
<g id="edge15" class="edge"><title>Node11&#45;&gt;Node6</title>
<path fill="none" stroke="midnightblue" d="M383.905,-56.4435C404.806,-47.5566 437.716,-33.5632 461.498,-23.4514"/>
<polygon fill="midnightblue" stroke="midnightblue" points="462.919,-26.6504 470.752,-19.5164 460.18,-20.2085 462.919,-26.6504"/>
</g>
<!-- Node13&#45;&gt;Node5 -->
<g id="edge22" class="edge"><title>Node13&#45;&gt;Node5</title>
<path fill="none" stroke="midnightblue" d="M335.157,-280.201C324.4,-271.695 308.367,-258.06 296.782,-244 284.644,-229.27 273.742,-210.368 266.571,-196.749"/>
<polygon fill="midnightblue" stroke="midnightblue" points="269.522,-194.833 261.856,-187.52 263.289,-198.018 269.522,-194.833"/>
</g>
<!-- Node13&#45;&gt;Node11 -->
<g id="edge23" class="edge"><title>Node13&#45;&gt;Node11</title>
<path fill="none" stroke="midnightblue" d="M342.415,-280.307C338.222,-271.437 332.182,-257.145 329.782,-244 319.177,-185.923 342.671,-117.311 355.763,-85.2376"/>
<polygon fill="midnightblue" stroke="midnightblue" points="359.07,-86.4032 359.739,-75.8295 352.622,-83.6778 359.07,-86.4032"/>
</g>
<!-- Node14 -->
<g id="node15" class="node"><title>Node14</title>
<g id="a_node15"><a xlink:href="ActionManager_8h.html" target="_top" xlink:title="ActionManager.h">
<polygon fill="white" stroke="black" points="338.782,-224.5 338.782,-243.5 428.782,-243.5 428.782,-224.5 338.782,-224.5"/>
<text text-anchor="middle" x="383.782" y="-231.5" font-family="Helvetica,sans-Serif" font-size="10.00">ActionManager.h</text>
</a>
</g>
</g>
<!-- Node13&#45;&gt;Node14 -->
<g id="edge24" class="edge"><title>Node13&#45;&gt;Node14</title>
<path fill="none" stroke="midnightblue" d="M352.891,-280.083C358.064,-272.534 365.628,-261.495 371.976,-252.23"/>
<polygon fill="midnightblue" stroke="midnightblue" points="375.02,-253.979 377.785,-243.751 369.246,-250.022 375.02,-253.979"/>
</g>
<!-- Node15 -->
<g id="node16" class="node"><title>Node15</title>
<g id="a_node16"><a xlink:href="InputManager_8h.html" target="_top" xlink:title="InputManager.h">
<polygon fill="white" stroke="black" points="754.782,-168.5 754.782,-187.5 838.782,-187.5 838.782,-168.5 754.782,-168.5"/>
<text text-anchor="middle" x="796.782" y="-175.5" font-family="Helvetica,sans-Serif" font-size="10.00">InputManager.h</text>
</a>
</g>
</g>
<!-- Node14&#45;&gt;Node15 -->
<g id="edge25" class="edge"><title>Node14&#45;&gt;Node15</title>
<path fill="none" stroke="midnightblue" d="M428.841,-225.35C431.865,-224.88 434.866,-224.425 437.782,-224 546.564,-208.124 674.398,-192.923 744.391,-184.894"/>
<polygon fill="midnightblue" stroke="midnightblue" points="745.165,-188.329 754.702,-183.716 744.37,-181.374 745.165,-188.329"/>
</g>
<!-- Node15&#45;&gt;Node6 -->
<g id="edge26" class="edge"><title>Node15&#45;&gt;Node6</title>
<path fill="none" stroke="midnightblue" d="M794.84,-168.144C791.362,-154.294 782.787,-127.493 765.782,-112 701.806,-53.7164 601.384,-28.291 541.229,-17.7931"/>
<polygon fill="midnightblue" stroke="midnightblue" points="541.648,-14.3147 531.208,-16.1175 540.494,-21.2189 541.648,-14.3147"/>
</g>
<!-- Node15&#45;&gt;Node11 -->
<g id="edge27" class="edge"><title>Node15&#45;&gt;Node11</title>
<path fill="none" stroke="midnightblue" d="M792.015,-168.462C783.454,-154.041 763.991,-125.151 738.782,-112 679.736,-81.1972 478.291,-70.9448 397.603,-68.0238"/>
<polygon fill="midnightblue" stroke="midnightblue" points="397.605,-64.5219 387.489,-67.6735 397.362,-71.5177 397.605,-64.5219"/>
</g>
<!-- Node16 -->
<g id="node17" class="node"><title>Node16</title>
<polygon fill="white" stroke="#bfbfbf" points="647.282,-112.5 647.282,-131.5 730.282,-131.5 730.282,-112.5 647.282,-112.5"/>
<text text-anchor="middle" x="688.782" y="-119.5" font-family="Helvetica,sans-Serif" font-size="10.00">unordered_map</text>
</g>
<!-- Node15&#45;&gt;Node16 -->
<g id="edge28" class="edge"><title>Node15&#45;&gt;Node16</title>
<path fill="none" stroke="midnightblue" d="M779.429,-168.324C762.11,-159.664 735.266,-146.242 715.28,-136.249"/>
<polygon fill="midnightblue" stroke="midnightblue" points="716.6,-132.996 706.091,-131.655 713.47,-139.257 716.6,-132.996"/>
</g>
<!-- Node17 -->
<g id="node18" class="node"><title>Node17</title>
<polygon fill="white" stroke="#bfbfbf" points="824.782,-112.5 824.782,-131.5 870.782,-131.5 870.782,-112.5 824.782,-112.5"/>
<text text-anchor="middle" x="847.782" y="-119.5" font-family="Helvetica,sans-Serif" font-size="10.00">cstdint</text>
</g>
<!-- Node15&#45;&gt;Node17 -->
<g id="edge29" class="edge"><title>Node15&#45;&gt;Node17</title>
<path fill="none" stroke="midnightblue" d="M805.203,-168.083C812.63,-160.22 823.633,-148.569 832.594,-139.081"/>
<polygon fill="midnightblue" stroke="midnightblue" points="835.195,-141.424 839.517,-131.751 830.106,-136.618 835.195,-141.424"/>
</g>
<!-- Node19 -->
<g id="node20" class="node"><title>Node19</title>
<polygon fill="white" stroke="#bfbfbf" points="446.782,-224.5 446.782,-243.5 500.782,-243.5 500.782,-224.5 446.782,-224.5"/>
<text text-anchor="middle" x="473.782" y="-231.5" font-family="Helvetica,sans-Serif" font-size="10.00">iostream</text>
</g>
<!-- Node18&#45;&gt;Node19 -->
<g id="edge31" class="edge"><title>Node18&#45;&gt;Node19</title>
<path fill="none" stroke="midnightblue" d="M473.782,-280.083C473.782,-273.006 473.782,-262.861 473.782,-253.986"/>
<polygon fill="midnightblue" stroke="midnightblue" points="477.282,-253.751 473.782,-243.751 470.282,-253.751 477.282,-253.751"/>
</g>
<!-- Node20 -->
<g id="node21" class="node"><title>Node20</title>
<polygon fill="white" stroke="#bfbfbf" points="518.782,-224.5 518.782,-243.5 566.782,-243.5 566.782,-224.5 518.782,-224.5"/>
<text text-anchor="middle" x="542.782" y="-231.5" font-family="Helvetica,sans-Serif" font-size="10.00">stdlib.h</text>
</g>
<!-- Node18&#45;&gt;Node20 -->
<g id="edge32" class="edge"><title>Node18&#45;&gt;Node20</title>
<path fill="none" stroke="midnightblue" d="M484.868,-280.324C495.268,-272.185 511.042,-259.839 523.503,-250.087"/>
<polygon fill="midnightblue" stroke="midnightblue" points="525.776,-252.753 531.494,-243.834 521.462,-247.241 525.776,-252.753"/>
</g>
<!-- Node21&#45;&gt;Node6 -->
<g id="edge48" class="edge"><title>Node21&#45;&gt;Node6</title>
<path fill="none" stroke="midnightblue" d="M732.676,-286.224C785.083,-279.023 898.782,-254.68 898.782,-179 898.782,-179 898.782,-179 898.782,-121 898.782,-47.7091 650.244,-21.8158 541.13,-13.9795"/>
<polygon fill="midnightblue" stroke="midnightblue" points="541.237,-10.4787 531.019,-13.2766 540.752,-17.4618 541.237,-10.4787"/>
</g>
<!-- Node21&#45;&gt;Node9 -->
<g id="edge34" class="edge"><title>Node21&#45;&gt;Node9</title>
<path fill="none" stroke="midnightblue" d="M716.935,-280.174C730.019,-267.677 749.941,-244.106 739.782,-224 712.306,-169.626 641.232,-142.103 600.208,-130.333"/>
<polygon fill="midnightblue" stroke="midnightblue" points="601.039,-126.931 590.47,-127.673 599.195,-133.684 601.039,-126.931"/>
</g>
<!-- Node21&#45;&gt;Node11 -->
<g id="edge47" class="edge"><title>Node21&#45;&gt;Node11</title>
<path fill="none" stroke="midnightblue" d="M699.734,-280.46C687.804,-266.559 662.236,-239.079 634.782,-224 582.233,-195.139 560.074,-211.173 504.782,-188 458.871,-168.759 444.217,-165.919 407.782,-132 393.174,-118.401 380.88,-99.0888 373.033,-85.0504"/>
<polygon fill="midnightblue" stroke="midnightblue" points="375.946,-83.0764 368.135,-75.9176 369.777,-86.3845 375.946,-83.0764"/>
</g>
<!-- Node21&#45;&gt;Node15 -->
<g id="edge46" class="edge"><title>Node21&#45;&gt;Node15</title>
<path fill="none" stroke="midnightblue" d="M725.365,-280.368C740.063,-272.689 760.148,-260.176 772.782,-244 783.415,-230.385 789.671,-211.59 793.114,-197.712"/>
<polygon fill="midnightblue" stroke="midnightblue" points="796.558,-198.349 795.303,-187.828 789.723,-196.835 796.558,-198.349"/>
</g>
<!-- Node22 -->
<g id="node23" class="node"><title>Node22</title>
<polygon fill="white" stroke="#bfbfbf" points="585.282,-224.5 585.282,-243.5 626.282,-243.5 626.282,-224.5 585.282,-224.5"/>
<text text-anchor="middle" x="605.782" y="-231.5" font-family="Helvetica,sans-Serif" font-size="10.00">stack</text>
</g>
<!-- Node21&#45;&gt;Node22 -->
<g id="edge35" class="edge"><title>Node21&#45;&gt;Node22</title>
<path fill="none" stroke="midnightblue" d="M690.554,-280.324C674.431,-271.703 649.481,-258.364 630.817,-248.386"/>
<polygon fill="midnightblue" stroke="midnightblue" points="632.438,-245.283 621.969,-243.655 629.137,-251.456 632.438,-245.283"/>
</g>
<!-- Node23 -->
<g id="node24" class="node"><title>Node23</title>
<g id="a_node24"><a xlink:href="State_8h.html" target="_top" xlink:title="State.h">
<polygon fill="white" stroke="black" points="682.782,-224.5 682.782,-243.5 730.782,-243.5 730.782,-224.5 682.782,-224.5"/>
<text text-anchor="middle" x="706.782" y="-231.5" font-family="Helvetica,sans-Serif" font-size="10.00">State.h</text>
</a>
</g>
</g>
<!-- Node21&#45;&gt;Node23 -->
<g id="edge36" class="edge"><title>Node21&#45;&gt;Node23</title>
<path fill="none" stroke="midnightblue" d="M706.782,-280.083C706.782,-273.006 706.782,-262.861 706.782,-253.986"/>
<polygon fill="midnightblue" stroke="midnightblue" points="710.282,-253.751 706.782,-243.751 703.282,-253.751 710.282,-253.751"/>
</g>
<!-- Node23&#45;&gt;Node5 -->
<g id="edge45" class="edge"><title>Node23&#45;&gt;Node5</title>
<path fill="none" stroke="midnightblue" d="M682.457,-229.925C668.506,-228.17 650.662,-225.94 634.782,-224 517.852,-209.713 380.454,-193.444 308.148,-184.922"/>
<polygon fill="midnightblue" stroke="midnightblue" points="308.304,-181.416 297.963,-183.722 307.485,-188.368 308.304,-181.416"/>
</g>
<!-- Node23&#45;&gt;Node7 -->
<g id="edge37" class="edge"><title>Node23&#45;&gt;Node7</title>
<path fill="none" stroke="midnightblue" d="M682.651,-227.176C643.913,-217.68 569.673,-198.834 544.782,-188 512.884,-174.117 479.14,-151.955 458.515,-137.439"/>
<polygon fill="midnightblue" stroke="midnightblue" points="460.441,-134.513 450.269,-131.548 456.372,-140.209 460.441,-134.513"/>
</g>
<!-- Node23&#45;&gt;Node8 -->
<g id="edge38" class="edge"><title>Node23&#45;&gt;Node8</title>
<path fill="none" stroke="midnightblue" d="M682.722,-226.205C649.735,-216.661 592.431,-199.202 573.782,-188 552.082,-174.966 531.549,-154.129 518.614,-139.572"/>
<polygon fill="midnightblue" stroke="midnightblue" points="521.112,-137.11 511.925,-131.833 515.816,-141.687 521.112,-137.11"/>
</g>
<!-- Node23&#45;&gt;Node15 -->
<g id="edge39" class="edge"><title>Node23&#45;&gt;Node15</title>
<path fill="none" stroke="midnightblue" d="M721.242,-224.324C735.281,-215.9 756.83,-202.971 773.325,-193.074"/>
<polygon fill="midnightblue" stroke="midnightblue" points="775.583,-195.801 782.357,-187.655 771.982,-189.798 775.583,-195.801"/>
</g>
<!-- Node24 -->
<g id="node25" class="node"><title>Node24</title>
<g id="a_node25"><a xlink:href="Resources_8h.html" target="_top" xlink:title="Resources.h">
<polygon fill="white" stroke="black" points="582.782,-168.5 582.782,-187.5 654.782,-187.5 654.782,-168.5 582.782,-168.5"/>
<text text-anchor="middle" x="618.782" y="-175.5" font-family="Helvetica,sans-Serif" font-size="10.00">Resources.h</text>
</a>
</g>
</g>
<!-- Node23&#45;&gt;Node24 -->
<g id="edge40" class="edge"><title>Node23&#45;&gt;Node24</title>
<path fill="none" stroke="midnightblue" d="M692.643,-224.324C678.915,-215.9 657.845,-202.971 641.717,-193.074"/>
<polygon fill="midnightblue" stroke="midnightblue" points="643.239,-189.902 632.885,-187.655 639.578,-195.868 643.239,-189.902"/>
</g>
<!-- Node24&#45;&gt;Node6 -->
<g id="edge41" class="edge"><title>Node24&#45;&gt;Node6</title>
<path fill="none" stroke="midnightblue" d="M617.59,-168.414C615.475,-155.387 610.172,-130.221 598.782,-112 575.876,-75.358 536.399,-43.2354 512.046,-25.531"/>
<polygon fill="midnightblue" stroke="midnightblue" points="513.995,-22.6221 503.817,-19.679 509.938,-28.3268 513.995,-22.6221"/>
</g>
<!-- Node24&#45;&gt;Node8 -->
<g id="edge44" class="edge"><title>Node24&#45;&gt;Node8</title>
<path fill="none" stroke="midnightblue" d="M600.718,-168.444C582.207,-159.675 553.201,-145.935 531.926,-135.858"/>
<polygon fill="midnightblue" stroke="midnightblue" points="533.296,-132.634 522.761,-131.516 530.3,-138.96 533.296,-132.634"/>
</g>
<!-- Node24&#45;&gt;Node9 -->
<g id="edge42" class="edge"><title>Node24&#45;&gt;Node9</title>
<path fill="none" stroke="midnightblue" d="M610.69,-168.083C603.626,-160.298 593.194,-148.801 584.633,-139.367"/>
<polygon fill="midnightblue" stroke="midnightblue" points="587.034,-136.805 577.722,-131.751 581.85,-141.509 587.034,-136.805"/>
</g>
<!-- Node24&#45;&gt;Node16 -->
<g id="edge43" class="edge"><title>Node24&#45;&gt;Node16</title>
<path fill="none" stroke="midnightblue" d="M630.028,-168.324C640.579,-160.185 656.582,-147.839 669.224,-138.087"/>
<polygon fill="midnightblue" stroke="midnightblue" points="671.55,-140.713 677.33,-131.834 667.275,-135.171 671.55,-140.713"/>
</g>
</g>
</svg>
