<?xml version="1.0" encoding="UTF-8" standalone="no"?>
<!DOCTYPE svg PUBLIC "-//W3C//DTD SVG 1.1//EN"
 "http://www.w3.org/Graphics/SVG/1.1/DTD/svg11.dtd">
<!-- Generated by graphviz version 2.38.0 (20140413.2041)
 -->
<!-- Title: include/RectTransform.h Pages: 1 -->
<svg width="451pt" height="308pt"
 viewBox="0.00 0.00 451.00 308.00" xmlns="http://www.w3.org/2000/svg" xmlns:xlink="http://www.w3.org/1999/xlink">
<g id="graph0" class="graph" transform="scale(1 1) rotate(0) translate(4 304)">
<title>include/RectTransform.h</title>
<polygon fill="white" stroke="none" points="-4,4 -4,-304 447,-304 447,4 -4,4"/>
<!-- Node0 -->
<g id="node1" class="node"><title>Node0</title>
<polygon fill="#bfbfbf" stroke="black" points="157.5,-280.5 157.5,-299.5 281.5,-299.5 281.5,-280.5 157.5,-280.5"/>
<text text-anchor="middle" x="219.5" y="-287.5" font-family="Helvetica,sans-Serif" font-size="10.00">include/RectTransform.h</text>
</g>
<!-- Node1 -->
<g id="node2" class="node"><title>Node1</title>
<polygon fill="white" stroke="#bfbfbf" points="31,-224.5 31,-243.5 72,-243.5 72,-224.5 31,-224.5"/>
<text text-anchor="middle" x="51.5" y="-231.5" font-family="Helvetica,sans-Serif" font-size="10.00">cfloat</text>
</g>
<!-- Node0&#45;&gt;Node1 -->
<g id="edge1" class="edge"><title>Node0&#45;&gt;Node1</title>
<path fill="none" stroke="midnightblue" d="M192.88,-280.444C162.658,-270.729 113.453,-254.913 81.788,-244.735"/>
<polygon fill="midnightblue" stroke="midnightblue" points="82.7611,-241.372 72.1698,-241.644 80.619,-248.036 82.7611,-241.372"/>
</g>
<!-- Node2 -->
<g id="node3" class="node"><title>Node2</title>
<g id="a_node3"><a xlink:href="Component_8h.html" target="_top" xlink:title="Component.h">
<polygon fill="white" stroke="black" points="149,-224.5 149,-243.5 224,-243.5 224,-224.5 149,-224.5"/>
<text text-anchor="middle" x="186.5" y="-231.5" font-family="Helvetica,sans-Serif" font-size="10.00">Component.h</text>
</a>
</g>
</g>
<!-- Node0&#45;&gt;Node2 -->
<g id="edge2" class="edge"><title>Node0&#45;&gt;Node2</title>
<path fill="none" stroke="midnightblue" d="M214.051,-280.083C209.486,-272.613 202.832,-261.724 197.207,-252.52"/>
<polygon fill="midnightblue" stroke="midnightblue" points="200.049,-250.459 191.848,-243.751 194.076,-254.109 200.049,-250.459"/>
</g>
<!-- Node3 -->
<g id="node4" class="node"><title>Node3</title>
<g id="a_node4"><a xlink:href="ComponentType_8h.html" target="_top" xlink:title="ComponentType.h">
<polygon fill="white" stroke="black" points="0,-112.5 0,-131.5 97,-131.5 97,-112.5 0,-112.5"/>
<text text-anchor="middle" x="48.5" y="-119.5" font-family="Helvetica,sans-Serif" font-size="10.00">ComponentType.h</text>
</a>
</g>
</g>
<!-- Node0&#45;&gt;Node3 -->
<g id="edge16" class="edge"><title>Node0&#45;&gt;Node3</title>
<path fill="none" stroke="midnightblue" d="M199.581,-280.424C182.694,-272.537 158.431,-259.703 140.5,-244 104.746,-212.689 73.7667,-165.549 58.5385,-140.347"/>
<polygon fill="midnightblue" stroke="midnightblue" points="61.4406,-138.379 53.3326,-131.559 55.418,-141.947 61.4406,-138.379"/>
</g>
<!-- Node4 -->
<g id="node5" class="node"><title>Node4</title>
<g id="a_node5"><a xlink:href="GameObject_8h.html" target="_top" xlink:title="GameObject.h">
<polygon fill="white" stroke="black" points="166.5,-168.5 166.5,-187.5 246.5,-187.5 246.5,-168.5 166.5,-168.5"/>
<text text-anchor="middle" x="206.5" y="-175.5" font-family="Helvetica,sans-Serif" font-size="10.00">GameObject.h</text>
</a>
</g>
</g>
<!-- Node0&#45;&gt;Node4 -->
<g id="edge17" class="edge"><title>Node0&#45;&gt;Node4</title>
<path fill="none" stroke="midnightblue" d="M224.135,-280.089C230.074,-267.492 238.985,-243.802 233.5,-224 230.708,-213.921 224.991,-203.832 219.533,-195.769"/>
<polygon fill="midnightblue" stroke="midnightblue" points="222.347,-193.688 213.651,-187.636 216.675,-197.79 222.347,-193.688"/>
</g>
<!-- Node9 -->
<g id="node10" class="node"><title>Node9</title>
<g id="a_node10"><a xlink:href="Rect_8h.html" target="_top" xlink:title="Rect.h">
<polygon fill="white" stroke="black" points="345.5,-112.5 345.5,-131.5 391.5,-131.5 391.5,-112.5 345.5,-112.5"/>
<text text-anchor="middle" x="368.5" y="-119.5" font-family="Helvetica,sans-Serif" font-size="10.00">Rect.h</text>
</a>
</g>
</g>
<!-- Node0&#45;&gt;Node9 -->
<g id="edge18" class="edge"><title>Node0&#45;&gt;Node9</title>
<path fill="none" stroke="midnightblue" d="M227.511,-280.075C251.472,-253.38 322.844,-173.865 353.85,-139.322"/>
<polygon fill="midnightblue" stroke="midnightblue" points="356.734,-141.348 360.809,-131.568 351.525,-136.672 356.734,-141.348"/>
</g>
<!-- Node10 -->
<g id="node11" class="node"><title>Node10</title>
<g id="a_node11"><a xlink:href="Vec2_8h.html" target="_top" xlink:title="Vec2.h">
<polygon fill="white" stroke="black" points="396,-56.5 396,-75.5 443,-75.5 443,-56.5 396,-56.5"/>
<text text-anchor="middle" x="419.5" y="-63.5" font-family="Helvetica,sans-Serif" font-size="10.00">Vec2.h</text>
</a>
</g>
</g>
<!-- Node0&#45;&gt;Node10 -->
<g id="edge19" class="edge"><title>Node0&#45;&gt;Node10</title>
<path fill="none" stroke="midnightblue" d="M234.66,-280.399C269.708,-259.693 356.686,-203.457 400.5,-132 409.238,-117.749 414.131,-99.2764 416.754,-85.6684"/>
<polygon fill="midnightblue" stroke="midnightblue" points="420.244,-86.0245 418.459,-75.5811 413.342,-84.8582 420.244,-86.0245"/>
</g>
<!-- Node2&#45;&gt;Node3 -->
<g id="edge3" class="edge"><title>Node2&#45;&gt;Node3</title>
<path fill="none" stroke="midnightblue" d="M177.531,-224.169C164.243,-211.26 138.328,-186.738 114.5,-168 100.552,-157.032 84.0604,-145.787 71.0514,-137.281"/>
<polygon fill="midnightblue" stroke="midnightblue" points="72.5795,-134.102 62.2806,-131.615 68.7811,-139.981 72.5795,-134.102"/>
</g>
<!-- Node2&#45;&gt;Node4 -->
<g id="edge4" class="edge"><title>Node2&#45;&gt;Node4</title>
<path fill="none" stroke="midnightblue" d="M184.636,-224.083C185.815,-216.691 189.384,-205.953 193.513,-196.811"/>
<polygon fill="midnightblue" stroke="midnightblue" points="196.708,-198.25 198.128,-187.751 190.471,-195.073 196.708,-198.25"/>
</g>
<!-- Node4&#45;&gt;Node2 -->
<g id="edge9" class="edge"><title>Node4&#45;&gt;Node2</title>
<path fill="none" stroke="midnightblue" d="M208.39,-187.751C207.247,-195.092 203.701,-205.817 199.579,-214.983"/>
<polygon fill="midnightblue" stroke="midnightblue" points="196.366,-213.581 194.969,-224.083 202.611,-216.744 196.366,-213.581"/>
</g>
<!-- Node4&#45;&gt;Node3 -->
<g id="edge10" class="edge"><title>Node4&#45;&gt;Node3</title>
<path fill="none" stroke="midnightblue" d="M181.464,-168.444C154.884,-159.359 112.691,-144.939 82.9766,-134.783"/>
<polygon fill="midnightblue" stroke="midnightblue" points="84.013,-131.439 73.4184,-131.516 81.7491,-138.062 84.013,-131.439"/>
</g>
<!-- Node5 -->
<g id="node6" class="node"><title>Node5</title>
<g id="a_node6"><a xlink:href="SDL__include_8h.html" target="_top" xlink:title="SDL_include.h">
<polygon fill="white" stroke="black" points="265.5,-0.5 265.5,-19.5 345.5,-19.5 345.5,-0.5 265.5,-0.5"/>
<text text-anchor="middle" x="305.5" y="-7.5" font-family="Helvetica,sans-Serif" font-size="10.00">SDL_include.h</text>
</a>
</g>
</g>
<!-- Node4&#45;&gt;Node5 -->
<g id="edge5" class="edge"><title>Node4&#45;&gt;Node5</title>
<path fill="none" stroke="midnightblue" d="M187.056,-168.378C164.346,-156.993 131.441,-135.608 144.5,-112 170.304,-65.3517 227.663,-37.3558 266.47,-23.0487"/>
<polygon fill="midnightblue" stroke="midnightblue" points="268.134,-26.1727 276.394,-19.5375 265.799,-19.5736 268.134,-26.1727"/>
</g>
<!-- Node6 -->
<g id="node7" class="node"><title>Node6</title>
<polygon fill="white" stroke="#bfbfbf" points="153.5,-112.5 153.5,-131.5 197.5,-131.5 197.5,-112.5 153.5,-112.5"/>
<text text-anchor="middle" x="175.5" y="-119.5" font-family="Helvetica,sans-Serif" font-size="10.00">vector</text>
</g>
<!-- Node4&#45;&gt;Node6 -->
<g id="edge6" class="edge"><title>Node4&#45;&gt;Node6</title>
<path fill="none" stroke="midnightblue" d="M201.381,-168.083C197.092,-160.613 190.842,-149.724 185.558,-140.52"/>
<polygon fill="midnightblue" stroke="midnightblue" points="188.538,-138.681 180.524,-131.751 182.467,-142.166 188.538,-138.681"/>
</g>
<!-- Node7 -->
<g id="node8" class="node"><title>Node7</title>
<polygon fill="white" stroke="#bfbfbf" points="215.5,-112.5 215.5,-131.5 267.5,-131.5 267.5,-112.5 215.5,-112.5"/>
<text text-anchor="middle" x="241.5" y="-119.5" font-family="Helvetica,sans-Serif" font-size="10.00">memory</text>
</g>
<!-- Node4&#45;&gt;Node7 -->
<g id="edge7" class="edge"><title>Node4&#45;&gt;Node7</title>
<path fill="none" stroke="midnightblue" d="M212.28,-168.083C217.172,-160.534 224.327,-149.495 230.333,-140.23"/>
<polygon fill="midnightblue" stroke="midnightblue" points="233.326,-142.046 235.828,-131.751 227.452,-138.239 233.326,-142.046"/>
</g>
<!-- Node8 -->
<g id="node9" class="node"><title>Node8</title>
<polygon fill="white" stroke="#bfbfbf" points="286,-112.5 286,-131.5 327,-131.5 327,-112.5 286,-112.5"/>
<text text-anchor="middle" x="306.5" y="-119.5" font-family="Helvetica,sans-Serif" font-size="10.00">string</text>
</g>
<!-- Node4&#45;&gt;Node8 -->
<g id="edge8" class="edge"><title>Node4&#45;&gt;Node8</title>
<path fill="none" stroke="midnightblue" d="M222.567,-168.324C238.458,-159.743 263.007,-146.486 281.458,-136.522"/>
<polygon fill="midnightblue" stroke="midnightblue" points="283.337,-139.486 290.473,-131.655 280.011,-133.326 283.337,-139.486"/>
</g>
<!-- Node4&#45;&gt;Node9 -->
<g id="edge11" class="edge"><title>Node4&#45;&gt;Node9</title>
<path fill="none" stroke="midnightblue" d="M232.169,-168.444C260.144,-159.119 304.985,-144.172 335.543,-133.986"/>
<polygon fill="midnightblue" stroke="midnightblue" points="336.933,-137.212 345.313,-130.729 334.719,-130.571 336.933,-137.212"/>
</g>
<!-- Node9&#45;&gt;Node5 -->
<g id="edge12" class="edge"><title>Node9&#45;&gt;Node5</title>
<path fill="none" stroke="midnightblue" d="M357.157,-112.179C347.193,-103.859 332.996,-90.5244 324.5,-76 316.06,-61.5704 311.134,-43.1178 308.422,-29.5626"/>
<polygon fill="midnightblue" stroke="midnightblue" points="311.834,-28.7564 306.637,-19.5238 304.942,-29.9822 311.834,-28.7564"/>
</g>
<!-- Node9&#45;&gt;Node10 -->
<g id="edge13" class="edge"><title>Node9&#45;&gt;Node10</title>
<path fill="none" stroke="midnightblue" d="M376.922,-112.083C384.348,-104.22 395.352,-92.5688 404.312,-83.0813"/>
<polygon fill="midnightblue" stroke="midnightblue" points="406.913,-85.4244 411.235,-75.7511 401.824,-80.618 406.913,-85.4244"/>
</g>
<!-- Node11 -->
<g id="node12" class="node"><title>Node11</title>
<polygon fill="white" stroke="#bfbfbf" points="333.5,-56.5 333.5,-75.5 377.5,-75.5 377.5,-56.5 333.5,-56.5"/>
<text text-anchor="middle" x="355.5" y="-63.5" font-family="Helvetica,sans-Serif" font-size="10.00">cmath</text>
</g>
<!-- Node9&#45;&gt;Node11 -->
<g id="edge15" class="edge"><title>Node9&#45;&gt;Node11</title>
<path fill="none" stroke="midnightblue" d="M366.353,-112.083C364.631,-104.927 362.153,-94.6353 360,-85.6911"/>
<polygon fill="midnightblue" stroke="midnightblue" points="363.35,-84.6541 357.607,-75.7511 356.545,-86.2925 363.35,-84.6541"/>
</g>
<!-- Node10&#45;&gt;Node5 -->
<g id="edge14" class="edge"><title>Node10&#45;&gt;Node5</title>
<path fill="none" stroke="midnightblue" d="M401.436,-56.4435C382.925,-47.6751 353.919,-33.9355 332.645,-23.8579"/>
<polygon fill="midnightblue" stroke="midnightblue" points="334.015,-20.6343 323.479,-19.5164 331.018,-26.9604 334.015,-20.6343"/>
</g>
</g>
</svg>
