<?xml version="1.0" encoding="UTF-8" standalone="no"?>
<!DOCTYPE svg PUBLIC "-//W3C//DTD SVG 1.1//EN"
 "http://www.w3.org/Graphics/SVG/1.1/DTD/svg11.dtd">
<!-- Generated by graphviz version 2.40.1 (20161225.0304)
 -->
<!-- Title: src/Resources.cpp Pages: 1 -->
<svg width="725pt" height="364pt"
 viewBox="0.00 0.00 725.00 364.00" xmlns="http://www.w3.org/2000/svg" xmlns:xlink="http://www.w3.org/1999/xlink">
<g id="graph0" class="graph" transform="scale(1 1) rotate(0) translate(4 360)">
<title>src/Resources.cpp</title>
<polygon fill="#ffffff" stroke="transparent" points="-4,4 -4,-360 721,-360 721,4 -4,4"/>
<!-- Node0 -->
<g id="node1" class="node">
<title>Node0</title>
<polygon fill="#bfbfbf" stroke="#000000" points="226.5,-336.5 226.5,-355.5 325.5,-355.5 325.5,-336.5 226.5,-336.5"/>
<text text-anchor="middle" x="276" y="-343.5" font-family="Helvetica,sans-Serif" font-size="10.00" fill="#000000">src/Resources.cpp</text>
</g>
<!-- Node1 -->
<g id="node2" class="node">
<title>Node1</title>
<g id="a_node2"><a xlink:href="Resources_8h.html" target="_top" xlink:title="Resources.h">
<polygon fill="#ffffff" stroke="#000000" points="266,-168.5 266,-187.5 338,-187.5 338,-168.5 266,-168.5"/>
<text text-anchor="middle" x="302" y="-175.5" font-family="Helvetica,sans-Serif" font-size="10.00" fill="#000000">Resources.h</text>
</a>
</g>
</g>
<!-- Node0&#45;&gt;Node1 -->
<g id="edge1" class="edge">
<title>Node0&#45;&gt;Node1</title>
<path fill="none" stroke="#191970" d="M265.441,-336.2076C256.9991,-327.6048 245.8094,-314.2634 241,-300 238.1599,-291.577 239.2789,-288.7207 241,-280 246.2097,-253.6028 250.1647,-247.0767 264,-224 270.152,-213.7387 278.4879,-203.373 285.7848,-195.0859"/>
<polygon fill="#191970" stroke="#191970" points="288.4785,-197.3261 292.616,-187.5725 283.2992,-192.617 288.4785,-197.3261"/>
</g>
<!-- Node6 -->
<g id="node7" class="node">
<title>Node6</title>
<g id="a_node7"><a xlink:href="Error_8h.html" target="_top" xlink:title="Error.h">
<polygon fill="#ffffff" stroke="#000000" points="441,-280.5 441,-299.5 487,-299.5 487,-280.5 441,-280.5"/>
<text text-anchor="middle" x="464" y="-287.5" font-family="Helvetica,sans-Serif" font-size="10.00" fill="#000000">Error.h</text>
</a>
</g>
</g>
<!-- Node0&#45;&gt;Node6 -->
<g id="edge6" class="edge">
<title>Node0&#45;&gt;Node6</title>
<path fill="none" stroke="#191970" d="M308.3184,-336.3733C342.7171,-326.1268 396.8466,-310.0031 431.3656,-299.7209"/>
<polygon fill="#191970" stroke="#191970" points="432.3922,-303.0671 440.9769,-296.8579 430.3939,-296.3584 432.3922,-303.0671"/>
</g>
<!-- Node9 -->
<g id="node10" class="node">
<title>Node9</title>
<g id="a_node10"><a xlink:href="Game_8h.html" target="_top" xlink:title="Game.h">
<polygon fill="#ffffff" stroke="#000000" points="250.5,-280.5 250.5,-299.5 301.5,-299.5 301.5,-280.5 250.5,-280.5"/>
<text text-anchor="middle" x="276" y="-287.5" font-family="Helvetica,sans-Serif" font-size="10.00" fill="#000000">Game.h</text>
</a>
</g>
</g>
<!-- Node0&#45;&gt;Node9 -->
<g id="edge9" class="edge">
<title>Node0&#45;&gt;Node9</title>
<path fill="none" stroke="#191970" d="M276,-336.2455C276,-328.9382 276,-318.6944 276,-309.7046"/>
<polygon fill="#191970" stroke="#191970" points="279.5001,-309.6426 276,-299.6427 272.5001,-309.6427 279.5001,-309.6426"/>
</g>
<!-- Node2 -->
<g id="node3" class="node">
<title>Node2</title>
<g id="a_node3"><a xlink:href="SDL__include_8h.html" target="_top" xlink:title="SDL_include.h">
<polygon fill="#ffffff" stroke="#000000" points="176,-.5 176,-19.5 256,-19.5 256,-.5 176,-.5"/>
<text text-anchor="middle" x="216" y="-7.5" font-family="Helvetica,sans-Serif" font-size="10.00" fill="#000000">SDL_include.h</text>
</a>
</g>
</g>
<!-- Node1&#45;&gt;Node2 -->
<g id="edge2" class="edge">
<title>Node1&#45;&gt;Node2</title>
<path fill="none" stroke="#191970" d="M300.9682,-168.235C299.3106,-155.0196 295.3532,-130.9189 287,-112 272.6524,-79.5044 247.3939,-46.6189 231.1925,-27.285"/>
<polygon fill="#191970" stroke="#191970" points="233.816,-24.9675 224.6596,-19.6372 228.4935,-29.5141 233.816,-24.9675"/>
</g>
<!-- Node3 -->
<g id="node4" class="node">
<title>Node3</title>
<polygon fill="#ffffff" stroke="#bfbfbf" points="405.5,-112.5 405.5,-131.5 446.5,-131.5 446.5,-112.5 405.5,-112.5"/>
<text text-anchor="middle" x="426" y="-119.5" font-family="Helvetica,sans-Serif" font-size="10.00" fill="#000000">string</text>
</g>
<!-- Node1&#45;&gt;Node3 -->
<g id="edge3" class="edge">
<title>Node1&#45;&gt;Node3</title>
<path fill="none" stroke="#191970" d="M323.3164,-168.3733C343.3422,-159.3293 373.5066,-145.7067 395.9667,-135.5634"/>
<polygon fill="#191970" stroke="#191970" points="397.7007,-138.6208 405.3738,-131.315 394.8195,-132.2412 397.7007,-138.6208"/>
</g>
<!-- Node4 -->
<g id="node5" class="node">
<title>Node4</title>
<polygon fill="#ffffff" stroke="#bfbfbf" points="195.5,-112.5 195.5,-131.5 278.5,-131.5 278.5,-112.5 195.5,-112.5"/>
<text text-anchor="middle" x="237" y="-119.5" font-family="Helvetica,sans-Serif" font-size="10.00" fill="#000000">unordered_map</text>
</g>
<!-- Node1&#45;&gt;Node4 -->
<g id="edge4" class="edge">
<title>Node1&#45;&gt;Node4</title>
<path fill="none" stroke="#191970" d="M290.6779,-168.2455C281.0777,-159.9746 267.1108,-147.9416 255.8305,-138.2232"/>
<polygon fill="#191970" stroke="#191970" points="258.053,-135.5182 248.1924,-131.6427 253.484,-140.8214 258.053,-135.5182"/>
</g>
<!-- Node5 -->
<g id="node6" class="node">
<title>Node5</title>
<polygon fill="#ffffff" stroke="#bfbfbf" points="335,-112.5 335,-131.5 387,-131.5 387,-112.5 335,-112.5"/>
<text text-anchor="middle" x="361" y="-119.5" font-family="Helvetica,sans-Serif" font-size="10.00" fill="#000000">memory</text>
</g>
<!-- Node1&#45;&gt;Node5 -->
<g id="edge5" class="edge">
<title>Node1&#45;&gt;Node5</title>
<path fill="none" stroke="#191970" d="M312.277,-168.2455C320.8218,-160.1352 333.1778,-148.4075 343.3085,-138.7919"/>
<polygon fill="#191970" stroke="#191970" points="345.9972,-141.0655 350.8408,-131.6427 341.1782,-135.9884 345.9972,-141.0655"/>
</g>
<!-- Node7 -->
<g id="node8" class="node">
<title>Node7</title>
<polygon fill="#ffffff" stroke="#bfbfbf" points="437,-224.5 437,-243.5 491,-243.5 491,-224.5 437,-224.5"/>
<text text-anchor="middle" x="464" y="-231.5" font-family="Helvetica,sans-Serif" font-size="10.00" fill="#000000">iostream</text>
</g>
<!-- Node6&#45;&gt;Node7 -->
<g id="edge7" class="edge">
<title>Node6&#45;&gt;Node7</title>
<path fill="none" stroke="#191970" d="M464,-280.2455C464,-272.9382 464,-262.6944 464,-253.7046"/>
<polygon fill="#191970" stroke="#191970" points="467.5001,-253.6426 464,-243.6427 460.5001,-253.6427 467.5001,-253.6426"/>
</g>
<!-- Node8 -->
<g id="node9" class="node">
<title>Node8</title>
<polygon fill="#ffffff" stroke="#bfbfbf" points="509,-224.5 509,-243.5 557,-243.5 557,-224.5 509,-224.5"/>
<text text-anchor="middle" x="533" y="-231.5" font-family="Helvetica,sans-Serif" font-size="10.00" fill="#000000">stdlib.h</text>
</g>
<!-- Node6&#45;&gt;Node8 -->
<g id="edge8" class="edge">
<title>Node6&#45;&gt;Node8</title>
<path fill="none" stroke="#191970" d="M476.0189,-280.2455C486.2098,-271.9746 501.0362,-259.9416 513.0107,-250.2232"/>
<polygon fill="#191970" stroke="#191970" points="515.5598,-252.662 521.1188,-243.6427 511.1486,-247.2268 515.5598,-252.662"/>
</g>
<!-- Node9&#45;&gt;Node2 -->
<g id="edge38" class="edge">
<title>Node9&#45;&gt;Node2</title>
<path fill="none" stroke="#191970" d="M250.0346,-285.2403C181.3282,-271.9111 0,-231.6508 0,-178 0,-178 0,-178 0,-122 0,-47.7743 101.7666,-22.6774 165.5951,-14.2364"/>
<polygon fill="#191970" stroke="#191970" points="166.3784,-17.6666 175.8783,-12.9759 165.5267,-10.7186 166.3784,-17.6666"/>
</g>
<!-- Node9&#45;&gt;Node3 -->
<g id="edge10" class="edge">
<title>Node9&#45;&gt;Node3</title>
<path fill="none" stroke="#191970" d="M301.6417,-286.1078C327.2522,-280.8961 366.0224,-269.1985 389,-244 415.2415,-215.2222 422.8894,-168.3666 425.1066,-141.8807"/>
<polygon fill="#191970" stroke="#191970" points="428.6197,-141.7914 425.7768,-131.5851 421.6345,-141.3366 428.6197,-141.7914"/>
</g>
<!-- Node10 -->
<g id="node11" class="node">
<title>Node10</title>
<polygon fill="#ffffff" stroke="#bfbfbf" points="339.5,-224.5 339.5,-243.5 380.5,-243.5 380.5,-224.5 339.5,-224.5"/>
<text text-anchor="middle" x="360" y="-231.5" font-family="Helvetica,sans-Serif" font-size="10.00" fill="#000000">stack</text>
</g>
<!-- Node9&#45;&gt;Node10 -->
<g id="edge11" class="edge">
<title>Node9&#45;&gt;Node10</title>
<path fill="none" stroke="#191970" d="M290.6317,-280.2455C303.3994,-271.7337 322.1438,-259.2375 336.9299,-249.3801"/>
<polygon fill="#191970" stroke="#191970" points="339.1569,-252.1019 345.536,-243.6427 335.274,-246.2775 339.1569,-252.1019"/>
</g>
<!-- Node11 -->
<g id="node12" class="node">
<title>Node11</title>
<g id="a_node12"><a xlink:href="State_8h.html" target="_top" xlink:title="State.h">
<polygon fill="#ffffff" stroke="#000000" points="273,-224.5 273,-243.5 321,-243.5 321,-224.5 273,-224.5"/>
<text text-anchor="middle" x="297" y="-231.5" font-family="Helvetica,sans-Serif" font-size="10.00" fill="#000000">State.h</text>
</a>
</g>
</g>
<!-- Node9&#45;&gt;Node11 -->
<g id="edge12" class="edge">
<title>Node9&#45;&gt;Node11</title>
<path fill="none" stroke="#191970" d="M279.6579,-280.2455C282.4584,-272.7776 286.409,-262.2427 289.8324,-253.1137"/>
<polygon fill="#191970" stroke="#191970" points="293.1499,-254.2349 293.384,-243.6427 286.5955,-251.777 293.1499,-254.2349"/>
</g>
<!-- Node13 -->
<g id="node14" class="node">
<title>Node13</title>
<g id="a_node14"><a xlink:href="InputManager_8h.html" target="_top" xlink:title="InputManager.h">
<polygon fill="#ffffff" stroke="#000000" points="115,-168.5 115,-187.5 199,-187.5 199,-168.5 115,-168.5"/>
<text text-anchor="middle" x="157" y="-175.5" font-family="Helvetica,sans-Serif" font-size="10.00" fill="#000000">InputManager.h</text>
</a>
</g>
</g>
<!-- Node9&#45;&gt;Node13 -->
<g id="edge36" class="edge">
<title>Node9&#45;&gt;Node13</title>
<path fill="none" stroke="#191970" d="M264.6868,-280.3003C254.0473,-271.1061 237.7442,-256.8315 224,-244 206.4407,-227.6068 186.935,-208.2572 173.5197,-194.7637"/>
<polygon fill="#191970" stroke="#191970" points="175.9099,-192.2033 166.3856,-187.5623 170.937,-197.1298 175.9099,-192.2033"/>
</g>
<!-- Node14 -->
<g id="node15" class="node">
<title>Node14</title>
<g id="a_node15"><a xlink:href="Vec2_8h.html" target="_top" xlink:title="Vec2.h">
<polygon fill="#ffffff" stroke="#000000" points="130.5,-112.5 130.5,-131.5 177.5,-131.5 177.5,-112.5 130.5,-112.5"/>
<text text-anchor="middle" x="154" y="-119.5" font-family="Helvetica,sans-Serif" font-size="10.00" fill="#000000">Vec2.h</text>
</a>
</g>
</g>
<!-- Node9&#45;&gt;Node14 -->
<g id="edge37" class="edge">
<title>Node9&#45;&gt;Node14</title>
<path fill="none" stroke="#191970" d="M272.0765,-280.4237C262.9581,-258.8691 238.7524,-205.4998 208,-168 198.8485,-156.8405 186.7598,-146.2586 176.3408,-138.064"/>
<polygon fill="#191970" stroke="#191970" points="178.1605,-135.0507 168.0826,-131.7817 173.9223,-140.6219 178.1605,-135.0507"/>
</g>
<!-- Node11&#45;&gt;Node1 -->
<g id="edge25" class="edge">
<title>Node11&#45;&gt;Node1</title>
<path fill="none" stroke="#191970" d="M297.8709,-224.2455C298.5234,-216.9382 299.438,-206.6944 300.2407,-197.7046"/>
<polygon fill="#191970" stroke="#191970" points="303.7358,-197.9143 301.139,-187.6427 296.7635,-197.2918 303.7358,-197.9143"/>
</g>
<!-- Node11&#45;&gt;Node5 -->
<g id="edge14" class="edge">
<title>Node11&#45;&gt;Node5</title>
<path fill="none" stroke="#191970" d="M311.5728,-224.4448C322.995,-216.1714 338.3557,-203.1666 347,-188 355.0657,-173.8484 358.4998,-155.5961 359.9541,-141.8742"/>
<polygon fill="#191970" stroke="#191970" points="363.467,-141.848 360.7683,-131.6027 356.4889,-141.2948 363.467,-141.848"/>
</g>
<!-- Node12 -->
<g id="node13" class="node">
<title>Node12</title>
<polygon fill="#ffffff" stroke="#bfbfbf" points="673,-112.5 673,-131.5 717,-131.5 717,-112.5 673,-112.5"/>
<text text-anchor="middle" x="695" y="-119.5" font-family="Helvetica,sans-Serif" font-size="10.00" fill="#000000">vector</text>
</g>
<!-- Node11&#45;&gt;Node12 -->
<g id="edge13" class="edge">
<title>Node11&#45;&gt;Node12</title>
<path fill="none" stroke="#191970" d="M321.046,-226.2875C324.0444,-225.4519 327.0816,-224.6651 330,-224 431.7361,-200.8126 462.5428,-219.562 562,-188 602.0445,-175.2922 645.009,-152.0135 670.9441,-136.7748"/>
<polygon fill="#191970" stroke="#191970" points="672.8952,-139.6864 679.6917,-131.5588 669.3101,-133.6741 672.8952,-139.6864"/>
</g>
<!-- Node11&#45;&gt;Node13 -->
<g id="edge15" class="edge">
<title>Node11&#45;&gt;Node13</title>
<path fill="none" stroke="#191970" d="M272.9331,-224.3733C250.1572,-215.2629 215.7656,-201.5062 190.351,-191.3404"/>
<polygon fill="#191970" stroke="#191970" points="191.3375,-187.9654 180.7528,-187.5011 188.7377,-194.4648 191.3375,-187.9654"/>
</g>
<!-- Node18 -->
<g id="node19" class="node">
<title>Node18</title>
<g id="a_node19"><a xlink:href="GameObject_8h.html" target="_top" xlink:title="GameObject.h">
<polygon fill="#ffffff" stroke="#000000" points="473,-168.5 473,-187.5 553,-187.5 553,-168.5 473,-168.5"/>
<text text-anchor="middle" x="513" y="-175.5" font-family="Helvetica,sans-Serif" font-size="10.00" fill="#000000">GameObject.h</text>
</a>
</g>
</g>
<!-- Node11&#45;&gt;Node18 -->
<g id="edge26" class="edge">
<title>Node11&#45;&gt;Node18</title>
<path fill="none" stroke="#191970" d="M321.1117,-226.5477C324.0988,-225.6675 327.1154,-224.7991 330,-224 374.7285,-211.609 425.9996,-198.8439 462.8716,-189.9139"/>
<polygon fill="#191970" stroke="#191970" points="463.9723,-193.2488 472.8721,-187.5004 462.3301,-186.4442 463.9723,-193.2488"/>
</g>
<!-- Node13&#45;&gt;Node2 -->
<g id="edge16" class="edge">
<title>Node13&#45;&gt;Node2</title>
<path fill="none" stroke="#191970" d="M115.3647,-168.4979C81.4575,-158.5193 41.5364,-140.2921 57,-112 81.9793,-66.2982 137.1548,-38.0457 175.4496,-23.1806"/>
<polygon fill="#191970" stroke="#191970" points="177.1324,-26.2885 185.2778,-19.5134 174.6852,-19.7302 177.1324,-26.2885"/>
</g>
<!-- Node13&#45;&gt;Node4 -->
<g id="edge23" class="edge">
<title>Node13&#45;&gt;Node4</title>
<path fill="none" stroke="#191970" d="M170.9349,-168.2455C183.0947,-159.7337 200.9464,-147.2375 215.0285,-137.3801"/>
<polygon fill="#191970" stroke="#191970" points="217.0395,-140.2447 223.2248,-131.6427 213.0253,-134.51 217.0395,-140.2447"/>
</g>
<!-- Node13&#45;&gt;Node14 -->
<g id="edge17" class="edge">
<title>Node13&#45;&gt;Node14</title>
<path fill="none" stroke="#191970" d="M156.4774,-168.2455C156.086,-160.9382 155.5372,-150.6944 155.0556,-141.7046"/>
<polygon fill="#191970" stroke="#191970" points="158.5466,-141.4411 154.5166,-131.6427 151.5566,-141.8156 158.5466,-141.4411"/>
</g>
<!-- Node17 -->
<g id="node18" class="node">
<title>Node17</title>
<polygon fill="#ffffff" stroke="#bfbfbf" points="66,-112.5 66,-131.5 112,-131.5 112,-112.5 66,-112.5"/>
<text text-anchor="middle" x="89" y="-119.5" font-family="Helvetica,sans-Serif" font-size="10.00" fill="#000000">cstdint</text>
</g>
<!-- Node13&#45;&gt;Node17 -->
<g id="edge24" class="edge">
<title>Node13&#45;&gt;Node17</title>
<path fill="none" stroke="#191970" d="M145.1553,-168.2455C135.112,-159.9746 120.5005,-147.9416 108.6996,-138.2232"/>
<polygon fill="#191970" stroke="#191970" points="110.6533,-135.298 100.709,-131.6427 106.2033,-140.7015 110.6533,-135.298"/>
</g>
<!-- Node14&#45;&gt;Node2 -->
<g id="edge18" class="edge">
<title>Node14&#45;&gt;Node2</title>
<path fill="none" stroke="#191970" d="M159.2861,-112.4509C169.5812,-93.8533 192.4777,-52.4919 205.8163,-28.3964"/>
<polygon fill="#191970" stroke="#191970" points="208.9462,-29.969 210.7273,-19.5249 202.822,-26.5787 208.9462,-29.969"/>
</g>
<!-- Node15 -->
<g id="node16" class="node">
<title>Node15</title>
<g id="a_node16"><a xlink:href="Rect_8h.html" target="_top" xlink:title="Rect.h">
<polygon fill="#ffffff" stroke="#000000" points="335,-56.5 335,-75.5 381,-75.5 381,-56.5 335,-56.5"/>
<text text-anchor="middle" x="358" y="-63.5" font-family="Helvetica,sans-Serif" font-size="10.00" fill="#000000">Rect.h</text>
</a>
</g>
</g>
<!-- Node14&#45;&gt;Node15 -->
<g id="edge19" class="edge">
<title>Node14&#45;&gt;Node15</title>
<path fill="none" stroke="#191970" d="M175.3092,-112.4934C175.8768,-112.3267 176.441,-112.162 177,-112 228.0704,-97.198 288.1684,-81.5186 324.8331,-72.8243"/>
<polygon fill="#191970" stroke="#191970" points="326.0297,-76.1393 334.9746,-70.4614 324.4412,-69.3219 326.0297,-76.1393"/>
</g>
<!-- Node15&#45;&gt;Node2 -->
<g id="edge20" class="edge">
<title>Node15&#45;&gt;Node2</title>
<path fill="none" stroke="#191970" d="M334.8692,-56.878C311.8728,-47.809 276.3356,-33.7943 250.1035,-23.4492"/>
<polygon fill="#191970" stroke="#191970" points="251.1377,-20.0948 240.5509,-19.682 248.5696,-26.6067 251.1377,-20.0948"/>
</g>
<!-- Node15&#45;&gt;Node14 -->
<g id="edge21" class="edge">
<title>Node15&#45;&gt;Node14</title>
<path fill="none" stroke="#191970" d="M334.8533,-73.5239C303.0166,-82.3419 244.7286,-97.5869 195,-112 192.6031,-112.6947 190.1115,-113.4372 187.5818,-114.192"/>
<polygon fill="#191970" stroke="#191970" points="186.3583,-110.9037 177.7564,-117.089 188.338,-117.618 186.3583,-110.9037"/>
</g>
<!-- Node16 -->
<g id="node17" class="node">
<title>Node16</title>
<polygon fill="#ffffff" stroke="#bfbfbf" points="336,-.5 336,-19.5 380,-19.5 380,-.5 336,-.5"/>
<text text-anchor="middle" x="358" y="-7.5" font-family="Helvetica,sans-Serif" font-size="10.00" fill="#000000">cmath</text>
</g>
<!-- Node15&#45;&gt;Node16 -->
<g id="edge22" class="edge">
<title>Node15&#45;&gt;Node16</title>
<path fill="none" stroke="#191970" d="M358,-56.2455C358,-48.9382 358,-38.6944 358,-29.7046"/>
<polygon fill="#191970" stroke="#191970" points="361.5001,-29.6426 358,-19.6427 354.5001,-29.6427 361.5001,-29.6426"/>
</g>
<!-- Node18&#45;&gt;Node2 -->
<g id="edge27" class="edge">
<title>Node18&#45;&gt;Node2</title>
<path fill="none" stroke="#191970" d="M509.7743,-168.0606C504.8899,-154.2098 494.5114,-128.9051 479,-112 422.7775,-50.7262 325.4286,-25.8616 266.2475,-16.0642"/>
<polygon fill="#191970" stroke="#191970" points="266.4394,-12.5515 256.0175,-14.4578 265.3535,-19.4668 266.4394,-12.5515"/>
</g>
<!-- Node18&#45;&gt;Node3 -->
<g id="edge30" class="edge">
<title>Node18&#45;&gt;Node3</title>
<path fill="none" stroke="#191970" d="M497.8458,-168.2455C484.4973,-159.6534 464.8414,-147.0014 449.4617,-137.1018"/>
<polygon fill="#191970" stroke="#191970" points="451.2836,-134.1121 440.9806,-131.6427 447.4949,-139.9982 451.2836,-134.1121"/>
</g>
<!-- Node18&#45;&gt;Node5 -->
<g id="edge29" class="edge">
<title>Node18&#45;&gt;Node5</title>
<path fill="none" stroke="#191970" d="M486.8703,-168.3733C461.9232,-159.1822 424.1408,-145.2624 396.4794,-135.0713"/>
<polygon fill="#191970" stroke="#191970" points="397.3822,-131.674 386.7888,-131.5011 394.9622,-138.2424 397.3822,-131.674"/>
</g>
<!-- Node18&#45;&gt;Node12 -->
<g id="edge28" class="edge">
<title>Node18&#45;&gt;Node12</title>
<path fill="none" stroke="#191970" d="M544.2869,-168.3733C577.537,-158.1425 629.8299,-142.0523 663.2541,-131.768"/>
<polygon fill="#191970" stroke="#191970" points="664.4508,-135.0618 672.9793,-128.7756 662.3922,-128.3713 664.4508,-135.0618"/>
</g>
<!-- Node18&#45;&gt;Node15 -->
<g id="edge35" class="edge">
<title>Node18&#45;&gt;Node15</title>
<path fill="none" stroke="#191970" d="M506.4953,-168.3754C496.6889,-154.4478 476.9193,-128.5363 455,-112 435.3984,-97.2122 410.2828,-85.4623 390.5195,-77.5399"/>
<polygon fill="#191970" stroke="#191970" points="391.6023,-74.2059 381.0133,-73.8559 389.0729,-80.7329 391.6023,-74.2059"/>
</g>
<!-- Node19 -->
<g id="node20" class="node">
<title>Node19</title>
<g id="a_node20"><a xlink:href="Component_8h.html" target="_top" xlink:title="Component.h">
<polygon fill="#ffffff" stroke="#000000" points="541.5,-112.5 541.5,-131.5 616.5,-131.5 616.5,-112.5 541.5,-112.5"/>
<text text-anchor="middle" x="579" y="-119.5" font-family="Helvetica,sans-Serif" font-size="10.00" fill="#000000">Component.h</text>
</a>
</g>
</g>
<!-- Node18&#45;&gt;Node19 -->
<g id="edge31" class="edge">
<title>Node18&#45;&gt;Node19</title>
<path fill="none" stroke="#191970" d="M519.2295,-168.2455C527.4594,-159.8943 541.5247,-147.7076 554.053,-137.9408"/>
<polygon fill="#191970" stroke="#191970" points="556.5208,-140.4631 562.3903,-131.6427 552.3014,-134.8776 556.5208,-140.4631"/>
</g>
<!-- Node20 -->
<g id="node21" class="node">
<title>Node20</title>
<g id="a_node21"><a xlink:href="ComponentType_8h.html" target="_top" xlink:title="ComponentType.h">
<polygon fill="#ffffff" stroke="#000000" points="568.5,-56.5 568.5,-75.5 665.5,-75.5 665.5,-56.5 568.5,-56.5"/>
<text text-anchor="middle" x="617" y="-63.5" font-family="Helvetica,sans-Serif" font-size="10.00" fill="#000000">ComponentType.h</text>
</a>
</g>
</g>
<!-- Node18&#45;&gt;Node20 -->
<g id="edge34" class="edge">
<title>Node18&#45;&gt;Node20</title>
<path fill="none" stroke="#191970" d="M553.0524,-173.0304C578.5811,-167.5596 609.8047,-156.0785 626,-132 635.2446,-118.2556 631.3268,-99.2301 626.0816,-85.1358"/>
<polygon fill="#191970" stroke="#191970" points="629.2975,-83.754 622.1969,-75.8906 622.844,-86.4656 629.2975,-83.754"/>
</g>
<!-- Node19&#45;&gt;Node18 -->
<g id="edge33" class="edge">
<title>Node19&#45;&gt;Node18</title>
<path fill="none" stroke="#191970" d="M572.8806,-131.6427C564.6244,-140.0394 550.3864,-152.3743 537.7538,-162.2097"/>
<polygon fill="#191970" stroke="#191970" points="535.633,-159.4253 529.7632,-168.2455 539.8522,-165.0109 535.633,-159.4253"/>
</g>
<!-- Node19&#45;&gt;Node20 -->
<g id="edge32" class="edge">
<title>Node19&#45;&gt;Node20</title>
<path fill="none" stroke="#191970" d="M585.6191,-112.2455C590.9046,-104.4564 598.4541,-93.3308 604.8238,-83.9439"/>
<polygon fill="#191970" stroke="#191970" points="607.7379,-85.8827 610.4568,-75.6427 601.9455,-81.9522 607.7379,-85.8827"/>
</g>
</g>
</svg>
