<?xml version="1.0" encoding="UTF-8" standalone="no"?>
<!DOCTYPE svg PUBLIC "-//W3C//DTD SVG 1.1//EN"
 "http://www.w3.org/Graphics/SVG/1.1/DTD/svg11.dtd">
<!-- Generated by graphviz version 2.40.1 (20161225.0304)
 -->
<!-- Title: include/Resources.h Pages: 1 -->
<svg width="319pt" height="84pt"
 viewBox="0.00 0.00 319.00 84.00" xmlns="http://www.w3.org/2000/svg" xmlns:xlink="http://www.w3.org/1999/xlink">
<g id="graph0" class="graph" transform="scale(1 1) rotate(0) translate(4 80)">
<title>include/Resources.h</title>
<polygon fill="#ffffff" stroke="transparent" points="-4,4 -4,-80 315,-80 315,4 -4,4"/>
<!-- Node0 -->
<g id="node1" class="node">
<title>Node0</title>
<polygon fill="#bfbfbf" stroke="#000000" points="106,-56.5 106,-75.5 212,-75.5 212,-56.5 106,-56.5"/>
<text text-anchor="middle" x="159" y="-63.5" font-family="Helvetica,sans-Serif" font-size="10.00" fill="#000000">include/Resources.h</text>
</g>
<!-- Node1 -->
<g id="node2" class="node">
<title>Node1</title>
<g id="a_node2"><a xlink:href="SDL__include_8h.html" target="_top" xlink:title="SDL_include.h">
<polygon fill="#ffffff" stroke="#000000" points="0,-.5 0,-19.5 80,-19.5 80,-.5 0,-.5"/>
<text text-anchor="middle" x="40" y="-7.5" font-family="Helvetica,sans-Serif" font-size="10.00" fill="#000000">SDL_include.h</text>
</a>
</g>
</g>
<!-- Node0&#45;&gt;Node1 -->
<g id="edge1" class="edge">
<title>Node0&#45;&gt;Node1</title>
<path fill="none" stroke="#191970" d="M138.5432,-56.3733C119.5262,-47.4241 90.9825,-33.9917 69.5024,-23.8835"/>
<polygon fill="#191970" stroke="#191970" points="70.7284,-20.5923 60.1899,-19.5011 67.7478,-26.926 70.7284,-20.5923"/>
</g>
<!-- Node2 -->
<g id="node3" class="node">
<title>Node2</title>
<polygon fill="#ffffff" stroke="#bfbfbf" points="98.5,-.5 98.5,-19.5 139.5,-19.5 139.5,-.5 98.5,-.5"/>
<text text-anchor="middle" x="119" y="-7.5" font-family="Helvetica,sans-Serif" font-size="10.00" fill="#000000">string</text>
</g>
<!-- Node0&#45;&gt;Node2 -->
<g id="edge2" class="edge">
<title>Node0&#45;&gt;Node2</title>
<path fill="none" stroke="#191970" d="M152.0325,-56.2455C146.4689,-48.4564 138.522,-37.3308 131.8171,-27.9439"/>
<polygon fill="#191970" stroke="#191970" points="134.5481,-25.7457 125.8876,-19.6427 128.852,-29.8144 134.5481,-25.7457"/>
</g>
<!-- Node3 -->
<g id="node4" class="node">
<title>Node3</title>
<polygon fill="#ffffff" stroke="#bfbfbf" points="157.5,-.5 157.5,-19.5 240.5,-19.5 240.5,-.5 157.5,-.5"/>
<text text-anchor="middle" x="199" y="-7.5" font-family="Helvetica,sans-Serif" font-size="10.00" fill="#000000">unordered_map</text>
</g>
<!-- Node0&#45;&gt;Node3 -->
<g id="edge3" class="edge">
<title>Node0&#45;&gt;Node3</title>
<path fill="none" stroke="#191970" d="M165.9675,-56.2455C171.5311,-48.4564 179.478,-37.3308 186.1829,-27.9439"/>
<polygon fill="#191970" stroke="#191970" points="189.148,-29.8144 192.1124,-19.6427 183.4519,-25.7457 189.148,-29.8144"/>
</g>
<!-- Node4 -->
<g id="node5" class="node">
<title>Node4</title>
<polygon fill="#ffffff" stroke="#bfbfbf" points="259,-.5 259,-19.5 311,-19.5 311,-.5 259,-.5"/>
<text text-anchor="middle" x="285" y="-7.5" font-family="Helvetica,sans-Serif" font-size="10.00" fill="#000000">memory</text>
</g>
<!-- Node0&#45;&gt;Node4 -->
<g id="edge4" class="edge">
<title>Node0&#45;&gt;Node4</title>
<path fill="none" stroke="#191970" d="M180.6602,-56.3733C200.9772,-47.3435 231.564,-33.7494 254.375,-23.6111"/>
<polygon fill="#191970" stroke="#191970" points="255.9059,-26.7609 263.6225,-19.5011 253.0628,-20.3642 255.9059,-26.7609"/>
</g>
</g>
</svg>
