<?xml version="1.0" encoding="UTF-8" standalone="no"?>
<!DOCTYPE svg PUBLIC "-//W3C//DTD SVG 1.1//EN"
 "http://www.w3.org/Graphics/SVG/1.1/DTD/svg11.dtd">
<!-- Generated by graphviz version 2.38.0 (20140413.2041)
 -->
<!-- Title: include/Resources.h Pages: 1 -->
<svg width="943pt" height="252pt"
 viewBox="0.00 0.00 942.50 252.00" xmlns="http://www.w3.org/2000/svg" xmlns:xlink="http://www.w3.org/1999/xlink">
<g id="graph0" class="graph" transform="scale(1 1) rotate(0) translate(4 248)">
<title>include/Resources.h</title>
<polygon fill="white" stroke="none" points="-4,4 -4,-248 938.5,-248 938.5,4 -4,4"/>
<!-- Node5 -->
<g id="node1" class="node"><title>Node5</title>
<polygon fill="#bfbfbf" stroke="black" points="577,-224.5 577,-243.5 683,-243.5 683,-224.5 577,-224.5"/>
<text text-anchor="middle" x="630" y="-231.5" font-family="Helvetica,sans-Serif" font-size="10.00">include/Resources.h</text>
</g>
<!-- Node6 -->
<g id="node2" class="node"><title>Node6</title>
<g id="a_node2"><a xlink:href="TileMap_8h.html" target="_top" xlink:title="include/TileMap.h">
<polygon fill="white" stroke="black" points="151.5,-168.5 151.5,-187.5 244.5,-187.5 244.5,-168.5 151.5,-168.5"/>
<text text-anchor="middle" x="198" y="-175.5" font-family="Helvetica,sans-Serif" font-size="10.00">include/TileMap.h</text>
</a>
</g>
</g>
<!-- Node5&#45;&gt;Node6 -->
<g id="edge1" class="edge"><title>Node5&#45;&gt;Node6</title>
<path fill="none" stroke="midnightblue" d="M566.505,-225.063C478.765,-214.096 322.492,-194.561 244.689,-184.836"/>
<polygon fill="midnightblue" stroke="midnightblue" points="566.238,-228.557 576.595,-226.324 567.106,-221.611 566.238,-228.557"/>
</g>
<!-- Node10 -->
<g id="node6" class="node"><title>Node10</title>
<g id="a_node6"><a xlink:href="State_8h.html" target="_top" xlink:title="include/State.h">
<polygon fill="white" stroke="black" points="518,-168.5 518,-187.5 600,-187.5 600,-168.5 518,-168.5"/>
<text text-anchor="middle" x="559" y="-175.5" font-family="Helvetica,sans-Serif" font-size="10.00">include/State.h</text>
</a>
</g>
</g>
<!-- Node5&#45;&gt;Node10 -->
<g id="edge6" class="edge"><title>Node5&#45;&gt;Node10</title>
<path fill="none" stroke="midnightblue" d="M610.41,-218.101C597.632,-208.382 581.387,-196.027 570.615,-187.834"/>
<polygon fill="midnightblue" stroke="midnightblue" points="608.514,-221.056 618.593,-224.324 612.752,-215.484 608.514,-221.056"/>
</g>
<!-- Node12 -->
<g id="node8" class="node"><title>Node12</title>
<g id="a_node8"><a xlink:href="Text_8h.html" target="_top" xlink:title="include/Text.h">
<polygon fill="white" stroke="black" points="133,-56.5 133,-75.5 211,-75.5 211,-56.5 133,-56.5"/>
<text text-anchor="middle" x="172" y="-63.5" font-family="Helvetica,sans-Serif" font-size="10.00">include/Text.h</text>
</a>
</g>
</g>
<!-- Node5&#45;&gt;Node12 -->
<g id="edge20" class="edge"><title>Node5&#45;&gt;Node12</title>
<path fill="none" stroke="midnightblue" d="M582.436,-222.058C548.516,-213.82 502.017,-201.64 462,-188 356.661,-152.095 235.053,-96.5776 189.996,-75.5049"/>
<polygon fill="midnightblue" stroke="midnightblue" points="581.996,-225.552 592.537,-224.485 583.632,-218.746 581.996,-225.552"/>
</g>
<!-- Node15 -->
<g id="node11" class="node"><title>Node15</title>
<g id="a_node11"><a xlink:href="Game_8cpp.html" target="_top" xlink:title="src/Game.cpp">
<polygon fill="white" stroke="black" points="229,-56.5 229,-75.5 307,-75.5 307,-56.5 229,-56.5"/>
<text text-anchor="middle" x="268" y="-63.5" font-family="Helvetica,sans-Serif" font-size="10.00">src/Game.cpp</text>
</a>
</g>
</g>
<!-- Node5&#45;&gt;Node15 -->
<g id="edge21" class="edge"><title>Node5&#45;&gt;Node15</title>
<path fill="none" stroke="midnightblue" d="M595.108,-221.162C570.718,-212.612 537.536,-200.426 509,-188 421.863,-150.057 321.379,-96.2045 283.507,-75.5325"/>
<polygon fill="midnightblue" stroke="midnightblue" points="594.059,-224.503 604.654,-224.481 596.358,-217.891 594.059,-224.503"/>
</g>
<!-- Node16 -->
<g id="node12" class="node"><title>Node16</title>
<g id="a_node12"><a xlink:href="Resources_8cpp.html" target="_top" xlink:title="src/Resources.cpp">
<polygon fill="white" stroke="black" points="643.5,-56.5 643.5,-75.5 742.5,-75.5 742.5,-56.5 643.5,-56.5"/>
<text text-anchor="middle" x="693" y="-63.5" font-family="Helvetica,sans-Serif" font-size="10.00">src/Resources.cpp</text>
</a>
</g>
</g>
<!-- Node5&#45;&gt;Node16 -->
<g id="edge22" class="edge"><title>Node5&#45;&gt;Node16</title>
<path fill="none" stroke="midnightblue" d="M630.759,-214.175C632.4,-189.536 637.59,-145.547 654,-112 661.087,-97.5128 674.019,-83.9717 683.04,-75.6032"/>
<polygon fill="midnightblue" stroke="midnightblue" points="627.256,-214.134 630.216,-224.307 634.246,-214.509 627.256,-214.134"/>
</g>
<!-- Node17 -->
<g id="node13" class="node"><title>Node17</title>
<g id="a_node13"><a xlink:href="Sprite_8cpp.html" target="_top" xlink:title="src/Sprite.cpp">
<polygon fill="white" stroke="black" points="760.5,-56.5 760.5,-75.5 837.5,-75.5 837.5,-56.5 760.5,-56.5"/>
<text text-anchor="middle" x="799" y="-63.5" font-family="Helvetica,sans-Serif" font-size="10.00">src/Sprite.cpp</text>
</a>
</g>
</g>
<!-- Node5&#45;&gt;Node17 -->
<g id="edge24" class="edge"><title>Node5&#45;&gt;Node17</title>
<path fill="none" stroke="midnightblue" d="M637.386,-215.046C649.961,-185.179 675.743,-127.075 692,-112 711.653,-93.7756 739.766,-82.3414 762.244,-75.561"/>
<polygon fill="midnightblue" stroke="midnightblue" points="634.139,-213.739 633.526,-224.316 640.601,-216.43 634.139,-213.739"/>
</g>
<!-- Node20 -->
<g id="node16" class="node"><title>Node20</title>
<g id="a_node16"><a xlink:href="UItext_8cpp.html" target="_top" xlink:title="src/UItext.cpp">
<polygon fill="white" stroke="black" points="855.5,-56.5 855.5,-75.5 934.5,-75.5 934.5,-56.5 855.5,-56.5"/>
<text text-anchor="middle" x="895" y="-63.5" font-family="Helvetica,sans-Serif" font-size="10.00">src/UItext.cpp</text>
</a>
</g>
</g>
<!-- Node5&#45;&gt;Node20 -->
<g id="edge25" class="edge"><title>Node5&#45;&gt;Node20</title>
<path fill="none" stroke="midnightblue" d="M643.907,-216.73C651.143,-208.215 660.103,-197.591 668,-188 695.53,-154.563 692.761,-135.721 729,-112 749.674,-98.4675 812.995,-83.6247 855.182,-74.8216"/>
<polygon fill="midnightblue" stroke="midnightblue" points="641.17,-214.545 637.349,-224.427 646.499,-219.085 641.17,-214.545"/>
</g>
<!-- Node22 -->
<g id="node18" class="node"><title>Node22</title>
<g id="a_node18"><a xlink:href="Music_8h.html" target="_top" xlink:title="include/Music.h">
<polygon fill="white" stroke="black" points="734.5,-168.5 734.5,-187.5 819.5,-187.5 819.5,-168.5 734.5,-168.5"/>
<text text-anchor="middle" x="777" y="-175.5" font-family="Helvetica,sans-Serif" font-size="10.00">include/Music.h</text>
</a>
</g>
</g>
<!-- Node5&#45;&gt;Node22 -->
<g id="edge18" class="edge"><title>Node5&#45;&gt;Node22</title>
<path fill="none" stroke="midnightblue" d="M662.923,-220.906C690.56,-210.754 729.344,-196.506 753.816,-187.516"/>
<polygon fill="midnightblue" stroke="midnightblue" points="661.472,-217.71 653.293,-224.444 663.886,-224.281 661.472,-217.71"/>
</g>
<!-- Node24 -->
<g id="node20" class="node"><title>Node24</title>
<g id="a_node20"><a xlink:href="Sound_8cpp.html" target="_top" xlink:title="src/Sound.cpp">
<polygon fill="white" stroke="black" points="838,-168.5 838,-187.5 918,-187.5 918,-168.5 838,-168.5"/>
<text text-anchor="middle" x="878" y="-175.5" font-family="Helvetica,sans-Serif" font-size="10.00">src/Sound.cpp</text>
</a>
</g>
</g>
<!-- Node5&#45;&gt;Node24 -->
<g id="edge23" class="edge"><title>Node5&#45;&gt;Node24</title>
<path fill="none" stroke="midnightblue" d="M679.226,-222.281C726.091,-212.077 795.699,-196.92 838.888,-187.516"/>
<polygon fill="midnightblue" stroke="midnightblue" points="678.323,-218.896 669.296,-224.444 679.812,-225.736 678.323,-218.896"/>
</g>
<!-- Node7 -->
<g id="node3" class="node"><title>Node7</title>
<g id="a_node3"><a xlink:href="DragAndDrop_8h.html" target="_top" xlink:title="include/DragAndDrop.h">
<polygon fill="white" stroke="black" points="0,-112.5 0,-131.5 118,-131.5 118,-112.5 0,-112.5"/>
<text text-anchor="middle" x="59" y="-119.5" font-family="Helvetica,sans-Serif" font-size="10.00">include/DragAndDrop.h</text>
</a>
</g>
</g>
<!-- Node6&#45;&gt;Node7 -->
<g id="edge2" class="edge"><title>Node6&#45;&gt;Node7</title>
<path fill="none" stroke="midnightblue" d="M166.524,-164.772C140.415,-154.629 103.961,-140.467 80.9219,-131.516"/>
<polygon fill="midnightblue" stroke="midnightblue" points="165.386,-168.085 175.975,-168.444 167.921,-161.56 165.386,-168.085"/>
</g>
<!-- Node8 -->
<g id="node4" class="node"><title>Node8</title>
<g id="a_node4"><a xlink:href="DragAndDrop_8cpp.html" target="_top" xlink:title="src/DragAndDrop.cpp">
<polygon fill="white" stroke="black" points="3.5,-56.5 3.5,-75.5 114.5,-75.5 114.5,-56.5 3.5,-56.5"/>
<text text-anchor="middle" x="59" y="-63.5" font-family="Helvetica,sans-Serif" font-size="10.00">src/DragAndDrop.cpp</text>
</a>
</g>
</g>
<!-- Node6&#45;&gt;Node8 -->
<g id="edge4" class="edge"><title>Node6&#45;&gt;Node8</title>
<path fill="none" stroke="midnightblue" d="M181.855,-160.859C167.869,-147.215 146.82,-127.476 127,-112 109.259,-98.147 87.3242,-84.1429 73.2487,-75.5193"/>
<polygon fill="midnightblue" stroke="midnightblue" points="179.633,-163.583 189.212,-168.11 184.547,-158.598 179.633,-163.583"/>
</g>
<!-- Node9 -->
<g id="node5" class="node"><title>Node9</title>
<g id="a_node5"><a xlink:href="TileMap_8cpp.html" target="_top" xlink:title="src/TileMap.cpp">
<polygon fill="white" stroke="black" points="174,-112.5 174,-131.5 260,-131.5 260,-112.5 174,-112.5"/>
<text text-anchor="middle" x="217" y="-119.5" font-family="Helvetica,sans-Serif" font-size="10.00">src/TileMap.cpp</text>
</a>
</g>
</g>
<!-- Node6&#45;&gt;Node9 -->
<g id="edge5" class="edge"><title>Node6&#45;&gt;Node9</title>
<path fill="none" stroke="midnightblue" d="M204.546,-158.396C207.724,-149.362 211.393,-138.936 213.921,-131.751"/>
<polygon fill="midnightblue" stroke="midnightblue" points="201.155,-157.488 201.137,-168.083 207.758,-159.812 201.155,-157.488"/>
</g>
<!-- Node7&#45;&gt;Node8 -->
<g id="edge3" class="edge"><title>Node7&#45;&gt;Node8</title>
<path fill="none" stroke="midnightblue" d="M59,-101.805C59,-92.9102 59,-82.7798 59,-75.7511"/>
<polygon fill="midnightblue" stroke="midnightblue" points="55.5001,-102.083 59,-112.083 62.5001,-102.083 55.5001,-102.083"/>
</g>
<!-- Node11 -->
<g id="node7" class="node"><title>Node11</title>
<g id="a_node7"><a xlink:href="Game_8h.html" target="_top" xlink:title="include/Game.h">
<polygon fill="white" stroke="black" points="516.5,-112.5 516.5,-131.5 601.5,-131.5 601.5,-112.5 516.5,-112.5"/>
<text text-anchor="middle" x="559" y="-119.5" font-family="Helvetica,sans-Serif" font-size="10.00">include/Game.h</text>
</a>
</g>
</g>
<!-- Node10&#45;&gt;Node11 -->
<g id="edge7" class="edge"><title>Node10&#45;&gt;Node11</title>
<path fill="none" stroke="midnightblue" d="M559,-157.805C559,-148.91 559,-138.78 559,-131.751"/>
<polygon fill="midnightblue" stroke="midnightblue" points="555.5,-158.083 559,-168.083 562.5,-158.083 555.5,-158.083"/>
</g>
<!-- Node21 -->
<g id="node17" class="node"><title>Node21</title>
<g id="a_node17"><a xlink:href="State_8cpp.html" target="_top" xlink:title="src/State.cpp">
<polygon fill="white" stroke="black" points="423.5,-112.5 423.5,-131.5 498.5,-131.5 498.5,-112.5 423.5,-112.5"/>
<text text-anchor="middle" x="461" y="-119.5" font-family="Helvetica,sans-Serif" font-size="10.00">src/State.cpp</text>
</a>
</g>
</g>
<!-- Node10&#45;&gt;Node21 -->
<g id="edge17" class="edge"><title>Node10&#45;&gt;Node21</title>
<path fill="none" stroke="midnightblue" d="M534.414,-163.453C516.322,-153.483 492.265,-140.228 476.706,-131.655"/>
<polygon fill="midnightblue" stroke="midnightblue" points="532.807,-166.563 543.255,-168.324 536.185,-160.432 532.807,-166.563"/>
</g>
<!-- Node11&#45;&gt;Node12 -->
<g id="edge8" class="edge"><title>Node11&#45;&gt;Node12</title>
<path fill="none" stroke="midnightblue" d="M506.251,-111.958C378.123,-93.1615 343.788,-95.3506 220,-76 217.152,-75.5548 214.214,-75.0691 211.259,-74.5615"/>
<polygon fill="midnightblue" stroke="midnightblue" points="506.054,-115.467 516.459,-113.471 507.08,-108.543 506.054,-115.467"/>
</g>
<!-- Node14 -->
<g id="node10" class="node"><title>Node14</title>
<g id="a_node10"><a xlink:href="Camera_8cpp.html" target="_top" xlink:title="src/Camera.cpp">
<polygon fill="white" stroke="black" points="325,-56.5 325,-75.5 411,-75.5 411,-56.5 325,-56.5"/>
<text text-anchor="middle" x="368" y="-63.5" font-family="Helvetica,sans-Serif" font-size="10.00">src/Camera.cpp</text>
</a>
</g>
</g>
<!-- Node11&#45;&gt;Node14 -->
<g id="edge10" class="edge"><title>Node11&#45;&gt;Node14</title>
<path fill="none" stroke="midnightblue" d="M519.027,-109.699C482.979,-99.507 430.757,-84.7429 398.123,-75.5164"/>
<polygon fill="midnightblue" stroke="midnightblue" points="518.16,-113.091 528.735,-112.444 520.065,-106.355 518.16,-113.091"/>
</g>
<!-- Node11&#45;&gt;Node15 -->
<g id="edge11" class="edge"><title>Node11&#45;&gt;Node15</title>
<path fill="none" stroke="midnightblue" d="M506.324,-111.28C457.099,-102.189 381.564,-88.2174 316,-76 313.083,-75.4564 310.066,-74.8932 307.031,-74.3259"/>
<polygon fill="midnightblue" stroke="midnightblue" points="505.946,-114.77 516.415,-113.144 507.217,-107.886 505.946,-114.77"/>
</g>
<!-- Node11&#45;&gt;Node16 -->
<g id="edge12" class="edge"><title>Node11&#45;&gt;Node16</title>
<path fill="none" stroke="midnightblue" d="M589.677,-108.638C614.823,-98.504 649.754,-84.4274 671.867,-75.5164"/>
<polygon fill="midnightblue" stroke="midnightblue" points="588.2,-105.459 580.233,-112.444 590.816,-111.952 588.2,-105.459"/>
</g>
<!-- Node11&#45;&gt;Node17 -->
<g id="edge13" class="edge"><title>Node11&#45;&gt;Node17</title>
<path fill="none" stroke="midnightblue" d="M606.923,-110.217C652.274,-100.013 719.442,-84.9006 761.149,-75.5164"/>
<polygon fill="midnightblue" stroke="midnightblue" points="606.016,-106.834 597.029,-112.444 607.553,-113.663 606.016,-106.834"/>
</g>
<!-- Node18 -->
<g id="node14" class="node"><title>Node18</title>
<g id="a_node14"><a xlink:href="Tileset_8cpp.html" target="_top" xlink:title="src/Tileset.cpp">
<polygon fill="white" stroke="black" points="429.5,-56.5 429.5,-75.5 510.5,-75.5 510.5,-56.5 429.5,-56.5"/>
<text text-anchor="middle" x="470" y="-63.5" font-family="Helvetica,sans-Serif" font-size="10.00">src/Tileset.cpp</text>
</a>
</g>
</g>
<!-- Node11&#45;&gt;Node18 -->
<g id="edge14" class="edge"><title>Node11&#45;&gt;Node18</title>
<path fill="none" stroke="midnightblue" d="M535.762,-106.901C519.442,-96.9986 498.135,-84.0705 484.264,-75.6545"/>
<polygon fill="midnightblue" stroke="midnightblue" points="534.336,-110.129 544.701,-112.324 537.967,-104.144 534.336,-110.129"/>
</g>
<!-- Node19 -->
<g id="node15" class="node"><title>Node19</title>
<g id="a_node15"><a xlink:href="UIelement_8cpp.html" target="_top" xlink:title="src/UIelement.cpp">
<polygon fill="white" stroke="black" points="528.5,-56.5 528.5,-75.5 625.5,-75.5 625.5,-56.5 528.5,-56.5"/>
<text text-anchor="middle" x="577" y="-63.5" font-family="Helvetica,sans-Serif" font-size="10.00">src/UIelement.cpp</text>
</a>
</g>
</g>
<!-- Node11&#45;&gt;Node19 -->
<g id="edge15" class="edge"><title>Node11&#45;&gt;Node19</title>
<path fill="none" stroke="midnightblue" d="M565.201,-102.396C568.213,-93.362 571.688,-82.936 574.083,-75.7511"/>
<polygon fill="midnightblue" stroke="midnightblue" points="561.814,-101.489 561.972,-112.083 568.455,-103.703 561.814,-101.489"/>
</g>
<!-- Node11&#45;&gt;Node20 -->
<g id="edge16" class="edge"><title>Node11&#45;&gt;Node20</title>
<path fill="none" stroke="midnightblue" d="M611.812,-113.142C669.44,-104.469 764.387,-89.8908 846,-76 849.07,-75.4775 852.245,-74.9241 855.435,-74.3586"/>
<polygon fill="midnightblue" stroke="midnightblue" points="611.215,-109.692 601.846,-114.639 612.255,-116.615 611.215,-109.692"/>
</g>
<!-- Node13 -->
<g id="node9" class="node"><title>Node13</title>
<g id="a_node9"><a xlink:href="Text_8cpp.html" target="_top" xlink:title="src/Text.cpp">
<polygon fill="white" stroke="black" points="136.5,-0.5 136.5,-19.5 207.5,-19.5 207.5,-0.5 136.5,-0.5"/>
<text text-anchor="middle" x="172" y="-7.5" font-family="Helvetica,sans-Serif" font-size="10.00">src/Text.cpp</text>
</a>
</g>
</g>
<!-- Node12&#45;&gt;Node13 -->
<g id="edge9" class="edge"><title>Node12&#45;&gt;Node13</title>
<path fill="none" stroke="midnightblue" d="M172,-45.8045C172,-36.9102 172,-26.7798 172,-19.7511"/>
<polygon fill="midnightblue" stroke="midnightblue" points="168.5,-46.083 172,-56.083 175.5,-46.083 168.5,-46.083"/>
</g>
<!-- Node23 -->
<g id="node19" class="node"><title>Node23</title>
<g id="a_node19"><a xlink:href="Music_8cpp.html" target="_top" xlink:title="src/Music.cpp">
<polygon fill="white" stroke="black" points="738,-112.5 738,-131.5 816,-131.5 816,-112.5 738,-112.5"/>
<text text-anchor="middle" x="777" y="-119.5" font-family="Helvetica,sans-Serif" font-size="10.00">src/Music.cpp</text>
</a>
</g>
</g>
<!-- Node22&#45;&gt;Node23 -->
<g id="edge19" class="edge"><title>Node22&#45;&gt;Node23</title>
<path fill="none" stroke="midnightblue" d="M777,-157.805C777,-148.91 777,-138.78 777,-131.751"/>
<polygon fill="midnightblue" stroke="midnightblue" points="773.5,-158.083 777,-168.083 780.5,-158.083 773.5,-158.083"/>
</g>
</g>
</svg>
