<?xml version="1.0" encoding="UTF-8" standalone="no"?>
<!DOCTYPE svg PUBLIC "-//W3C//DTD SVG 1.1//EN"
 "http://www.w3.org/Graphics/SVG/1.1/DTD/svg11.dtd">
<!-- Generated by graphviz version 2.38.0 (20140413.2041)
 -->
<!-- Title: include/Resources.h Pages: 1 -->
<svg width="715pt" height="196pt"
 viewBox="0.00 0.00 715.00 196.00" xmlns="http://www.w3.org/2000/svg" xmlns:xlink="http://www.w3.org/1999/xlink">
<g id="graph0" class="graph" transform="scale(1 1) rotate(0) translate(4 192)">
<title>include/Resources.h</title>
<polygon fill="white" stroke="none" points="-4,4 -4,-192 711,-192 711,4 -4,4"/>
<!-- Node5 -->
<g id="node1" class="node"><title>Node5</title>
<polygon fill="#bfbfbf" stroke="black" points="404,-168.5 404,-187.5 510,-187.5 510,-168.5 404,-168.5"/>
<text text-anchor="middle" x="457" y="-175.5" font-family="Helvetica,sans-Serif" font-size="10.00">include/Resources.h</text>
</g>
<!-- Node6 -->
<g id="node2" class="node"><title>Node6</title>
<g id="a_node2"><a xlink:href="State_8h.html" target="_top" xlink:title="include/State.h">
<polygon fill="white" stroke="black" points="307,-112.5 307,-131.5 389,-131.5 389,-112.5 307,-112.5"/>
<text text-anchor="middle" x="348" y="-119.5" font-family="Helvetica,sans-Serif" font-size="10.00">include/State.h</text>
</a>
</g>
</g>
<!-- Node5&#45;&gt;Node6 -->
<g id="edge1" class="edge"><title>Node5&#45;&gt;Node6</title>
<path fill="none" stroke="midnightblue" d="M430.481,-163.862C410.27,-153.849 383.013,-140.346 365.469,-131.655"/>
<polygon fill="midnightblue" stroke="midnightblue" points="428.973,-167.021 439.487,-168.324 432.08,-160.748 428.973,-167.021"/>
</g>
<!-- Node9 -->
<g id="node5" class="node"><title>Node9</title>
<g id="a_node5"><a xlink:href="Game_8cpp.html" target="_top" xlink:title="src/Game.cpp">
<polygon fill="white" stroke="black" points="0,-0.5 0,-19.5 78,-19.5 78,-0.5 0,-0.5"/>
<text text-anchor="middle" x="39" y="-7.5" font-family="Helvetica,sans-Serif" font-size="10.00">src/Game.cpp</text>
</a>
</g>
</g>
<!-- Node5&#45;&gt;Node9 -->
<g id="edge12" class="edge"><title>Node5&#45;&gt;Node9</title>
<path fill="none" stroke="midnightblue" d="M410.487,-165.947C378.444,-157.822 335.118,-145.82 298,-132 203.118,-96.6724 94.9865,-40.812 54.9731,-19.5763"/>
<polygon fill="midnightblue" stroke="midnightblue" points="409.921,-169.413 420.471,-168.446 411.621,-162.622 409.921,-169.413"/>
</g>
<!-- Node11 -->
<g id="node7" class="node"><title>Node11</title>
<g id="a_node7"><a xlink:href="Resources_8cpp.html" target="_top" xlink:title="src/Resources.cpp">
<polygon fill="white" stroke="black" points="335.5,-0.5 335.5,-19.5 434.5,-19.5 434.5,-0.5 335.5,-0.5"/>
<text text-anchor="middle" x="385" y="-7.5" font-family="Helvetica,sans-Serif" font-size="10.00">src/Resources.cpp</text>
</a>
</g>
</g>
<!-- Node5&#45;&gt;Node11 -->
<g id="edge13" class="edge"><title>Node5&#45;&gt;Node11</title>
<path fill="none" stroke="midnightblue" d="M449.13,-158.856C433.688,-123.252 399.944,-45.4534 388.716,-19.5681"/>
<polygon fill="midnightblue" stroke="midnightblue" points="445.939,-160.294 453.129,-168.075 452.361,-157.508 445.939,-160.294"/>
</g>
<!-- Node12 -->
<g id="node8" class="node"><title>Node12</title>
<g id="a_node8"><a xlink:href="Sprite_8cpp.html" target="_top" xlink:title="src/Sprite.cpp">
<polygon fill="white" stroke="black" points="452.5,-0.5 452.5,-19.5 529.5,-19.5 529.5,-0.5 452.5,-0.5"/>
<text text-anchor="middle" x="491" y="-7.5" font-family="Helvetica,sans-Serif" font-size="10.00">src/Sprite.cpp</text>
</a>
</g>
</g>
<!-- Node5&#45;&gt;Node12 -->
<g id="edge15" class="edge"><title>Node5&#45;&gt;Node12</title>
<path fill="none" stroke="midnightblue" d="M460.55,-158.414C465.122,-134.638 473.388,-92.2016 481,-56 483.668,-43.3124 486.964,-28.6622 489.024,-19.6141"/>
<polygon fill="midnightblue" stroke="midnightblue" points="457.066,-157.998 458.621,-168.478 463.941,-159.315 457.066,-157.998"/>
</g>
<!-- Node13 -->
<g id="node9" class="node"><title>Node13</title>
<g id="a_node9"><a xlink:href="Text_8cpp.html" target="_top" xlink:title="src/Text.cpp">
<polygon fill="white" stroke="black" points="547.5,-0.5 547.5,-19.5 618.5,-19.5 618.5,-0.5 547.5,-0.5"/>
<text text-anchor="middle" x="583" y="-7.5" font-family="Helvetica,sans-Serif" font-size="10.00">src/Text.cpp</text>
</a>
</g>
</g>
<!-- Node5&#45;&gt;Node13 -->
<g id="edge16" class="edge"><title>Node5&#45;&gt;Node13</title>
<path fill="none" stroke="midnightblue" d="M466.593,-159.377C471.046,-151.103 476.368,-141.085 481,-132 498.065,-98.5313 493.536,-84.5108 518,-56 531.496,-40.2716 551.685,-27.4416 565.977,-19.5629"/>
<polygon fill="midnightblue" stroke="midnightblue" points="463.378,-157.962 461.696,-168.423 469.534,-161.295 463.378,-157.962"/>
</g>
<!-- Node15 -->
<g id="node11" class="node"><title>Node15</title>
<g id="a_node11"><a xlink:href="Music_8h.html" target="_top" xlink:title="include/Music.h">
<polygon fill="white" stroke="black" points="523.5,-112.5 523.5,-131.5 608.5,-131.5 608.5,-112.5 523.5,-112.5"/>
<text text-anchor="middle" x="566" y="-119.5" font-family="Helvetica,sans-Serif" font-size="10.00">include/Music.h</text>
</a>
</g>
</g>
<!-- Node5&#45;&gt;Node15 -->
<g id="edge10" class="edge"><title>Node5&#45;&gt;Node15</title>
<path fill="none" stroke="midnightblue" d="M483.519,-163.862C503.73,-153.849 530.987,-140.346 548.531,-131.655"/>
<polygon fill="midnightblue" stroke="midnightblue" points="481.92,-160.748 474.513,-168.324 485.027,-167.021 481.92,-160.748"/>
</g>
<!-- Node17 -->
<g id="node13" class="node"><title>Node17</title>
<g id="a_node13"><a xlink:href="Sound_8cpp.html" target="_top" xlink:title="src/Sound.cpp">
<polygon fill="white" stroke="black" points="627,-112.5 627,-131.5 707,-131.5 707,-112.5 627,-112.5"/>
<text text-anchor="middle" x="667" y="-119.5" font-family="Helvetica,sans-Serif" font-size="10.00">src/Sound.cpp</text>
</a>
</g>
</g>
<!-- Node5&#45;&gt;Node17 -->
<g id="edge14" class="edge"><title>Node5&#45;&gt;Node17</title>
<path fill="none" stroke="midnightblue" d="M500.19,-165.894C539.847,-155.697 597.77,-140.802 633.881,-131.516"/>
<polygon fill="midnightblue" stroke="midnightblue" points="499.088,-162.563 490.275,-168.444 500.832,-169.343 499.088,-162.563"/>
</g>
<!-- Node7 -->
<g id="node3" class="node"><title>Node7</title>
<g id="a_node3"><a xlink:href="Game_8h.html" target="_top" xlink:title="include/Game.h">
<polygon fill="white" stroke="black" points="305.5,-56.5 305.5,-75.5 390.5,-75.5 390.5,-56.5 305.5,-56.5"/>
<text text-anchor="middle" x="348" y="-63.5" font-family="Helvetica,sans-Serif" font-size="10.00">include/Game.h</text>
</a>
</g>
</g>
<!-- Node6&#45;&gt;Node7 -->
<g id="edge2" class="edge"><title>Node6&#45;&gt;Node7</title>
<path fill="none" stroke="midnightblue" d="M348,-101.805C348,-92.9102 348,-82.7798 348,-75.7511"/>
<polygon fill="midnightblue" stroke="midnightblue" points="344.5,-102.083 348,-112.083 351.5,-102.083 344.5,-102.083"/>
</g>
<!-- Node14 -->
<g id="node10" class="node"><title>Node14</title>
<g id="a_node10"><a xlink:href="State_8cpp.html" target="_top" xlink:title="src/State.cpp">
<polygon fill="white" stroke="black" points="212.5,-56.5 212.5,-75.5 287.5,-75.5 287.5,-56.5 212.5,-56.5"/>
<text text-anchor="middle" x="250" y="-63.5" font-family="Helvetica,sans-Serif" font-size="10.00">src/State.cpp</text>
</a>
</g>
</g>
<!-- Node6&#45;&gt;Node14 -->
<g id="edge9" class="edge"><title>Node6&#45;&gt;Node14</title>
<path fill="none" stroke="midnightblue" d="M323.414,-107.453C305.322,-97.4835 281.265,-84.2279 265.706,-75.6545"/>
<polygon fill="midnightblue" stroke="midnightblue" points="321.807,-110.563 332.255,-112.324 325.185,-104.432 321.807,-110.563"/>
</g>
<!-- Node8 -->
<g id="node4" class="node"><title>Node8</title>
<g id="a_node4"><a xlink:href="Camera_8cpp.html" target="_top" xlink:title="src/Camera.cpp">
<polygon fill="white" stroke="black" points="96,-0.5 96,-19.5 182,-19.5 182,-0.5 96,-0.5"/>
<text text-anchor="middle" x="139" y="-7.5" font-family="Helvetica,sans-Serif" font-size="10.00">src/Camera.cpp</text>
</a>
</g>
</g>
<!-- Node7&#45;&gt;Node8 -->
<g id="edge3" class="edge"><title>Node7&#45;&gt;Node8</title>
<path fill="none" stroke="midnightblue" d="M305.016,-53.8941C265.548,-43.6966 207.9,-28.802 171.962,-19.5164"/>
<polygon fill="midnightblue" stroke="midnightblue" points="304.326,-57.3306 314.883,-56.4435 306.077,-50.5532 304.326,-57.3306"/>
</g>
<!-- Node7&#45;&gt;Node9 -->
<g id="edge4" class="edge"><title>Node7&#45;&gt;Node9</title>
<path fill="none" stroke="midnightblue" d="M295.497,-55.9166C201.49,-39.7303 176.688,-36.1317 87,-20 84.0794,-19.4747 81.0601,-18.9248 78.0239,-18.3668"/>
<polygon fill="midnightblue" stroke="midnightblue" points="294.984,-59.3796 305.433,-57.6298 296.174,-52.4814 294.984,-59.3796"/>
</g>
<!-- Node10 -->
<g id="node6" class="node"><title>Node10</title>
<g id="a_node6"><a xlink:href="RectTransform_8cpp.html" target="_top" xlink:title="src/RectTransform.cpp">
<polygon fill="white" stroke="black" points="200.5,-0.5 200.5,-19.5 317.5,-19.5 317.5,-0.5 200.5,-0.5"/>
<text text-anchor="middle" x="259" y="-7.5" font-family="Helvetica,sans-Serif" font-size="10.00">src/RectTransform.cpp</text>
</a>
</g>
</g>
<!-- Node7&#45;&gt;Node10 -->
<g id="edge5" class="edge"><title>Node7&#45;&gt;Node10</title>
<path fill="none" stroke="midnightblue" d="M324.762,-50.9005C308.442,-40.9986 287.135,-28.0705 273.264,-19.6545"/>
<polygon fill="midnightblue" stroke="midnightblue" points="323.336,-54.1289 333.701,-56.324 326.967,-48.1444 323.336,-54.1289"/>
</g>
<!-- Node7&#45;&gt;Node11 -->
<g id="edge6" class="edge"><title>Node7&#45;&gt;Node11</title>
<path fill="none" stroke="midnightblue" d="M359.946,-47.5656C366.312,-38.2747 373.867,-27.2484 379.004,-19.7511"/>
<polygon fill="midnightblue" stroke="midnightblue" points="356.875,-45.8553 354.11,-56.083 362.649,-49.812 356.875,-45.8553"/>
</g>
<!-- Node7&#45;&gt;Node12 -->
<g id="edge7" class="edge"><title>Node7&#45;&gt;Node12</title>
<path fill="none" stroke="midnightblue" d="M380.027,-52.9058C406.912,-42.7536 444.641,-28.5063 468.447,-19.5164"/>
<polygon fill="midnightblue" stroke="midnightblue" points="378.778,-49.6364 370.659,-56.4435 381.25,-56.1851 378.778,-49.6364"/>
</g>
<!-- Node7&#45;&gt;Node13 -->
<g id="edge8" class="edge"><title>Node7&#45;&gt;Node13</title>
<path fill="none" stroke="midnightblue" d="M395.044,-54.19C440.01,-43.8573 506.803,-28.5091 547.476,-19.1629"/>
<polygon fill="midnightblue" stroke="midnightblue" points="394.199,-50.7929 385.236,-56.4435 395.766,-57.6151 394.199,-50.7929"/>
</g>
<!-- Node16 -->
<g id="node12" class="node"><title>Node16</title>
<g id="a_node12"><a xlink:href="Music_8cpp.html" target="_top" xlink:title="src/Music.cpp">
<polygon fill="white" stroke="black" points="527,-56.5 527,-75.5 605,-75.5 605,-56.5 527,-56.5"/>
<text text-anchor="middle" x="566" y="-63.5" font-family="Helvetica,sans-Serif" font-size="10.00">src/Music.cpp</text>
</a>
</g>
</g>
<!-- Node15&#45;&gt;Node16 -->
<g id="edge11" class="edge"><title>Node15&#45;&gt;Node16</title>
<path fill="none" stroke="midnightblue" d="M566,-101.805C566,-92.9102 566,-82.7798 566,-75.7511"/>
<polygon fill="midnightblue" stroke="midnightblue" points="562.5,-102.083 566,-112.083 569.5,-102.083 562.5,-102.083"/>
</g>
</g>
</svg>
