<?xml version="1.0" encoding="UTF-8" standalone="no"?>
<!DOCTYPE svg PUBLIC "-//W3C//DTD SVG 1.1//EN"
 "http://www.w3.org/Graphics/SVG/1.1/DTD/svg11.dtd">
<!-- Generated by graphviz version 2.40.1 (20161225.0304)
 -->
<!-- Title: include/Resources.h Pages: 1 -->
<svg width="889pt" height="196pt"
 viewBox="0.00 0.00 888.50 196.00" xmlns="http://www.w3.org/2000/svg" xmlns:xlink="http://www.w3.org/1999/xlink">
<g id="graph0" class="graph" transform="scale(1 1) rotate(0) translate(4 192)">
<title>include/Resources.h</title>
<polygon fill="#ffffff" stroke="transparent" points="-4,4 -4,-192 884.5,-192 884.5,4 -4,4"/>
<!-- Node5 -->
<g id="node1" class="node">
<title>Node5</title>
<polygon fill="#bfbfbf" stroke="#000000" points="577.5,-168.5 577.5,-187.5 683.5,-187.5 683.5,-168.5 577.5,-168.5"/>
<text text-anchor="middle" x="630.5" y="-175.5" font-family="Helvetica,sans-Serif" font-size="10.00" fill="#000000">include/Resources.h</text>
</g>
<!-- Node6 -->
<g id="node2" class="node">
<title>Node6</title>
<g id="a_node2"><a xlink:href="State_8h.html" target="_top" xlink:title="include/State.h">
<polygon fill="#ffffff" stroke="#000000" points="250.5,-112.5 250.5,-131.5 332.5,-131.5 332.5,-112.5 250.5,-112.5"/>
<text text-anchor="middle" x="291.5" y="-119.5" font-family="Helvetica,sans-Serif" font-size="10.00" fill="#000000">include/State.h</text>
</a>
</g>
</g>
<!-- Node5&#45;&gt;Node6 -->
<g id="edge1" class="edge">
<title>Node5&#45;&gt;Node6</title>
<path fill="none" stroke="#191970" d="M566.9003,-167.4939C498.2281,-156.1498 390.8636,-138.4141 332.5466,-128.7806"/>
<polygon fill="#191970" stroke="#191970" points="566.7216,-171.0117 577.1583,-169.1884 567.8625,-164.1053 566.7216,-171.0117"/>
</g>
<!-- Node9 -->
<g id="node5" class="node">
<title>Node9</title>
<g id="a_node5"><a xlink:href="Game_8cpp.html" target="_top" xlink:title="src/Game.cpp">
<polygon fill="#ffffff" stroke="#000000" points="93.5,-.5 93.5,-19.5 171.5,-19.5 171.5,-.5 93.5,-.5"/>
<text text-anchor="middle" x="132.5" y="-7.5" font-family="Helvetica,sans-Serif" font-size="10.00" fill="#000000">src/Game.cpp</text>
</a>
</g>
</g>
<!-- Node5&#45;&gt;Node9 -->
<g id="edge17" class="edge">
<title>Node5&#45;&gt;Node9</title>
<path fill="none" stroke="#191970" d="M567.4179,-174.7067C472.7566,-169.0654 298.9357,-155.7953 241.5,-132 204.3707,-116.6175 196.7787,-106.4079 170.5,-76 155.1113,-58.1933 142.7511,-33.2407 136.6476,-19.6883"/>
<polygon fill="#191970" stroke="#191970" points="567.2534,-178.203 577.4408,-175.2931 567.6623,-171.2149 567.2534,-178.203"/>
</g>
<!-- Node11 -->
<g id="node7" class="node">
<title>Node11</title>
<g id="a_node7"><a xlink:href="Resources_8cpp.html" target="_top" xlink:title="src/Resources.cpp">
<polygon fill="#ffffff" stroke="#000000" points="543,-.5 543,-19.5 642,-19.5 642,-.5 543,-.5"/>
<text text-anchor="middle" x="592.5" y="-7.5" font-family="Helvetica,sans-Serif" font-size="10.00" fill="#000000">src/Resources.cpp</text>
</a>
</g>
</g>
<!-- Node5&#45;&gt;Node11 -->
<g id="edge18" class="edge">
<title>Node5&#45;&gt;Node11</title>
<path fill="none" stroke="#191970" d="M624.0971,-158.5292C621.5432,-150.3834 618.6949,-140.7847 616.5,-132 606.1394,-90.5334 597.4484,-40.2294 594.0421,-19.5639"/>
<polygon fill="#191970" stroke="#191970" points="620.8158,-159.7586 627.2053,-168.21 627.4807,-157.6187 620.8158,-159.7586"/>
</g>
<!-- Node12 -->
<g id="node8" class="node">
<title>Node12</title>
<g id="a_node8"><a xlink:href="Sprite_8cpp.html" target="_top" xlink:title="src/Sprite.cpp">
<polygon fill="#ffffff" stroke="#000000" points="660,-.5 660,-19.5 737,-19.5 737,-.5 660,-.5"/>
<text text-anchor="middle" x="698.5" y="-7.5" font-family="Helvetica,sans-Serif" font-size="10.00" fill="#000000">src/Sprite.cpp</text>
</a>
</g>
</g>
<!-- Node5&#45;&gt;Node12 -->
<g id="edge20" class="edge">
<title>Node5&#45;&gt;Node12</title>
<path fill="none" stroke="#191970" d="M631.0181,-158.1083C632.4096,-132.9898 637.3405,-89.0644 654.5,-56 662.1359,-41.2865 675.9297,-28.0225 686.0435,-19.5609"/>
<polygon fill="#191970" stroke="#191970" points="627.5163,-158.0822 630.5967,-168.2193 634.5102,-158.3738 627.5163,-158.0822"/>
</g>
<!-- Node13 -->
<g id="node9" class="node">
<title>Node13</title>
<g id="a_node9"><a xlink:href="Text_8cpp.html" target="_top" xlink:title="src/Text.cpp">
<polygon fill="#ffffff" stroke="#000000" points="755,-.5 755,-19.5 826,-19.5 826,-.5 755,-.5"/>
<text text-anchor="middle" x="790.5" y="-7.5" font-family="Helvetica,sans-Serif" font-size="10.00" fill="#000000">src/Text.cpp</text>
</a>
</g>
</g>
<!-- Node5&#45;&gt;Node13 -->
<g id="edge21" class="edge">
<title>Node5&#45;&gt;Node13</title>
<path fill="none" stroke="#191970" d="M638.3143,-158.658C650.8849,-128.2831 675.7764,-71.279 691.5,-56 709.4415,-38.5658 735.2019,-26.8806 755.9478,-19.651"/>
<polygon fill="#191970" stroke="#191970" points="634.9661,-157.5988 634.417,-168.1794 641.4444,-160.2506 634.9661,-157.5988"/>
</g>
<!-- Node17 -->
<g id="node13" class="node">
<title>Node17</title>
<g id="a_node13"><a xlink:href="Music_8h.html" target="_top" xlink:title="include/Music.h">
<polygon fill="#ffffff" stroke="#000000" points="697,-112.5 697,-131.5 782,-131.5 782,-112.5 697,-112.5"/>
<text text-anchor="middle" x="739.5" y="-119.5" font-family="Helvetica,sans-Serif" font-size="10.00" fill="#000000">include/Music.h</text>
</a>
</g>
</g>
<!-- Node5&#45;&gt;Node17 -->
<g id="edge15" class="edge">
<title>Node5&#45;&gt;Node17</title>
<path fill="none" stroke="#191970" d="M658.5342,-163.5971C678.0746,-153.558 703.6092,-140.4393 720.7312,-131.6427"/>
<polygon fill="#191970" stroke="#191970" points="656.7817,-160.5625 649.4864,-168.2455 659.9806,-166.7889 656.7817,-160.5625"/>
</g>
<!-- Node19 -->
<g id="node15" class="node">
<title>Node19</title>
<g id="a_node15"><a xlink:href="Sound_8cpp.html" target="_top" xlink:title="src/Sound.cpp">
<polygon fill="#ffffff" stroke="#000000" points="800.5,-112.5 800.5,-131.5 880.5,-131.5 880.5,-112.5 800.5,-112.5"/>
<text text-anchor="middle" x="840.5" y="-119.5" font-family="Helvetica,sans-Serif" font-size="10.00" fill="#000000">src/Sound.cpp</text>
</a>
</g>
</g>
<!-- Node5&#45;&gt;Node19 -->
<g id="edge19" class="edge">
<title>Node5&#45;&gt;Node19</title>
<path fill="none" stroke="#191970" d="M676.5504,-165.7199C715.1645,-155.4228 769.5139,-140.9296 804.8708,-131.5011"/>
<polygon fill="#191970" stroke="#191970" points="675.3608,-162.4147 666.6003,-168.3733 677.1645,-169.1784 675.3608,-162.4147"/>
</g>
<!-- Node7 -->
<g id="node3" class="node">
<title>Node7</title>
<g id="a_node3"><a xlink:href="Game_8h.html" target="_top" xlink:title="include/Game.h">
<polygon fill="#ffffff" stroke="#000000" points="364,-56.5 364,-75.5 449,-75.5 449,-56.5 364,-56.5"/>
<text text-anchor="middle" x="406.5" y="-63.5" font-family="Helvetica,sans-Serif" font-size="10.00" fill="#000000">include/Game.h</text>
</a>
</g>
</g>
<!-- Node6&#45;&gt;Node7 -->
<g id="edge2" class="edge">
<title>Node6&#45;&gt;Node7</title>
<path fill="none" stroke="#191970" d="M320.3033,-107.9741C341.125,-97.8348 368.6978,-84.408 386.9888,-75.5011"/>
<polygon fill="#191970" stroke="#191970" points="318.7276,-104.8484 311.2692,-112.3733 321.7922,-111.1419 318.7276,-104.8484"/>
</g>
<!-- Node15 -->
<g id="node11" class="node">
<title>Node15</title>
<g id="a_node11"><a xlink:href="Threading_8h.html" target="_top" xlink:title="include/Threading.h">
<polygon fill="#ffffff" stroke="#000000" points="180,-56.5 180,-75.5 281,-75.5 281,-56.5 180,-56.5"/>
<text text-anchor="middle" x="230.5" y="-63.5" font-family="Helvetica,sans-Serif" font-size="10.00" fill="#000000">include/Threading.h</text>
</a>
</g>
</g>
<!-- Node6&#45;&gt;Node15 -->
<g id="edge10" class="edge">
<title>Node6&#45;&gt;Node15</title>
<path fill="none" stroke="#191970" d="M273.3751,-105.3607C262.822,-95.6727 249.8888,-83.7995 241.0036,-75.6427"/>
<polygon fill="#191970" stroke="#191970" points="271.1411,-108.0611 280.8746,-112.2455 275.875,-102.9045 271.1411,-108.0611"/>
</g>
<!-- Node16 -->
<g id="node12" class="node">
<title>Node16</title>
<g id="a_node12"><a xlink:href="State_8cpp.html" target="_top" xlink:title="src/State.cpp">
<polygon fill="#ffffff" stroke="#000000" points="0,-.5 0,-19.5 75,-19.5 75,-.5 0,-.5"/>
<text text-anchor="middle" x="37.5" y="-7.5" font-family="Helvetica,sans-Serif" font-size="10.00" fill="#000000">src/State.cpp</text>
</a>
</g>
</g>
<!-- Node6&#45;&gt;Node16 -->
<g id="edge14" class="edge">
<title>Node6&#45;&gt;Node16</title>
<path fill="none" stroke="#191970" d="M254.3072,-108.924C230.179,-100.1813 198.1927,-88.1008 170.5,-76 128.4557,-57.628 80.5791,-32.8962 55.3075,-19.5309"/>
<polygon fill="#191970" stroke="#191970" points="253.2064,-112.2476 263.8009,-112.3389 255.5758,-105.6607 253.2064,-112.2476"/>
</g>
<!-- Node8 -->
<g id="node4" class="node">
<title>Node8</title>
<g id="a_node4"><a xlink:href="Camera_8cpp.html" target="_top" xlink:title="src/Camera.cpp">
<polygon fill="#ffffff" stroke="#000000" points="303.5,-.5 303.5,-19.5 389.5,-19.5 389.5,-.5 303.5,-.5"/>
<text text-anchor="middle" x="346.5" y="-7.5" font-family="Helvetica,sans-Serif" font-size="10.00" fill="#000000">src/Camera.cpp</text>
</a>
</g>
</g>
<!-- Node7&#45;&gt;Node8 -->
<g id="edge3" class="edge">
<title>Node7&#45;&gt;Node8</title>
<path fill="none" stroke="#191970" d="M388.6722,-49.3607C378.2922,-39.6727 365.5709,-27.7995 356.8314,-19.6427"/>
<polygon fill="#191970" stroke="#191970" points="386.3501,-51.981 396.0488,-56.2455 391.1263,-46.8636 386.3501,-51.981"/>
</g>
<!-- Node7&#45;&gt;Node9 -->
<g id="edge4" class="edge">
<title>Node7&#45;&gt;Node9</title>
<path fill="none" stroke="#191970" d="M353.5835,-55.3009C307.7736,-46.0216 239.7478,-32.2012 180.5,-20 177.5819,-19.3991 174.5646,-18.7755 171.5296,-18.1468"/>
<polygon fill="#191970" stroke="#191970" points="353.087,-58.7713 363.5827,-57.3257 354.4763,-51.9106 353.087,-58.7713"/>
</g>
<!-- Node10 -->
<g id="node6" class="node">
<title>Node10</title>
<g id="a_node6"><a xlink:href="RectTransform_8cpp.html" target="_top" xlink:title="src/RectTransform.cpp">
<polygon fill="#ffffff" stroke="#000000" points="408,-.5 408,-19.5 525,-19.5 525,-.5 408,-.5"/>
<text text-anchor="middle" x="466.5" y="-7.5" font-family="Helvetica,sans-Serif" font-size="10.00" fill="#000000">src/RectTransform.cpp</text>
</a>
</g>
</g>
<!-- Node7&#45;&gt;Node10 -->
<g id="edge5" class="edge">
<title>Node7&#45;&gt;Node10</title>
<path fill="none" stroke="#191970" d="M424.3278,-49.3607C434.7078,-39.6727 447.4291,-27.7995 456.1686,-19.6427"/>
<polygon fill="#191970" stroke="#191970" points="421.8737,-46.8636 416.9512,-56.2455 426.6499,-51.981 421.8737,-46.8636"/>
</g>
<!-- Node7&#45;&gt;Node11 -->
<g id="edge6" class="edge">
<title>Node7&#45;&gt;Node11</title>
<path fill="none" stroke="#191970" d="M448.1637,-53.4561C482.3067,-43.1765 529.8931,-28.8494 560.9427,-19.5011"/>
<polygon fill="#191970" stroke="#191970" points="447.0409,-50.1389 438.4745,-56.3733 449.059,-56.8417 447.0409,-50.1389"/>
</g>
<!-- Node7&#45;&gt;Node12 -->
<g id="edge7" class="edge">
<title>Node7&#45;&gt;Node12</title>
<path fill="none" stroke="#191970" d="M459.4428,-56.3197C508.9045,-47.2047 584.7737,-33.0408 650.5,-20 653.5058,-19.4036 656.6155,-18.7772 659.7403,-18.141"/>
<polygon fill="#191970" stroke="#191970" points="458.5035,-52.9337 449.3022,-58.1859 459.7705,-59.8181 458.5035,-52.9337"/>
</g>
<!-- Node7&#45;&gt;Node13 -->
<g id="edge8" class="edge">
<title>Node7&#45;&gt;Node13</title>
<path fill="none" stroke="#191970" d="M459.4018,-60.3206C526.4666,-52.7822 645.5178,-38.269 746.5,-20 749.1209,-19.5258 751.8218,-19.0012 754.5351,-18.448"/>
<polygon fill="#191970" stroke="#191970" points="458.6458,-56.8832 449.0954,-61.4701 459.4217,-63.84 458.6458,-56.8832"/>
</g>
<!-- Node14 -->
<g id="node10" class="node">
<title>Node14</title>
<g id="a_node10"><a xlink:href="Threading_8cpp.html" target="_top" xlink:title="src/Threading.cpp">
<polygon fill="#ffffff" stroke="#000000" points="190,-.5 190,-19.5 285,-19.5 285,-.5 190,-.5"/>
<text text-anchor="middle" x="237.5" y="-7.5" font-family="Helvetica,sans-Serif" font-size="10.00" fill="#000000">src/Threading.cpp</text>
</a>
</g>
</g>
<!-- Node7&#45;&gt;Node14 -->
<g id="edge9" class="edge">
<title>Node7&#45;&gt;Node14</title>
<path fill="none" stroke="#191970" d="M367.8427,-53.1905C336.8807,-42.9309 294.1426,-28.7691 266.173,-19.5011"/>
<polygon fill="#191970" stroke="#191970" points="366.8545,-56.5501 377.4479,-56.3733 369.0563,-49.9054 366.8545,-56.5501"/>
</g>
<!-- Node15&#45;&gt;Node9 -->
<g id="edge11" class="edge">
<title>Node15&#45;&gt;Node9</title>
<path fill="none" stroke="#191970" d="M204.3314,-51.0465C186.8942,-41.0824 164.4889,-28.2794 149.3747,-19.6427"/>
<polygon fill="#191970" stroke="#191970" points="203.0108,-54.323 213.4297,-56.2455 206.4838,-48.2453 203.0108,-54.323"/>
</g>
<!-- Node15&#45;&gt;Node14 -->
<g id="edge13" class="edge">
<title>Node15&#45;&gt;Node14</title>
<path fill="none" stroke="#191970" d="M232.9803,-46.1575C234.1056,-37.155 235.385,-26.9199 236.2947,-19.6427"/>
<polygon fill="#191970" stroke="#191970" points="229.4868,-45.8886 231.7193,-56.2455 236.4327,-46.7569 229.4868,-45.8886"/>
</g>
<!-- Node15&#45;&gt;Node16 -->
<g id="edge12" class="edge">
<title>Node15&#45;&gt;Node16</title>
<path fill="none" stroke="#191970" d="M187.2683,-53.4561C151.8404,-43.1765 102.463,-28.8494 70.2449,-19.5011"/>
<polygon fill="#191970" stroke="#191970" points="186.7429,-56.9479 197.3221,-56.3733 188.6936,-50.2252 186.7429,-56.9479"/>
</g>
<!-- Node18 -->
<g id="node14" class="node">
<title>Node18</title>
<g id="a_node14"><a xlink:href="Music_8cpp.html" target="_top" xlink:title="src/Music.cpp">
<polygon fill="#ffffff" stroke="#000000" points="700.5,-56.5 700.5,-75.5 778.5,-75.5 778.5,-56.5 700.5,-56.5"/>
<text text-anchor="middle" x="739.5" y="-63.5" font-family="Helvetica,sans-Serif" font-size="10.00" fill="#000000">src/Music.cpp</text>
</a>
</g>
</g>
<!-- Node17&#45;&gt;Node18 -->
<g id="edge16" class="edge">
<title>Node17&#45;&gt;Node18</title>
<path fill="none" stroke="#191970" d="M739.5,-102.1575C739.5,-93.155 739.5,-82.9199 739.5,-75.6427"/>
<polygon fill="#191970" stroke="#191970" points="736.0001,-102.2455 739.5,-112.2455 743.0001,-102.2456 736.0001,-102.2455"/>
</g>
</g>
</svg>
