<?xml version="1.0" encoding="UTF-8" standalone="no"?>
<!DOCTYPE svg PUBLIC "-//W3C//DTD SVG 1.1//EN"
 "http://www.w3.org/Graphics/SVG/1.1/DTD/svg11.dtd">
<!-- Generated by graphviz version 2.38.0 (20140413.2041)
 -->
<!-- Title: src/Sound.cpp Pages: 1 -->
<svg width="457pt" height="140pt"
 viewBox="0.00 0.00 457.00 140.00" xmlns="http://www.w3.org/2000/svg" xmlns:xlink="http://www.w3.org/1999/xlink">
<g id="graph0" class="graph" transform="scale(1 1) rotate(0) translate(4 136)">
<title>src/Sound.cpp</title>
<polygon fill="white" stroke="none" points="-4,4 -4,-136 453,-136 453,4 -4,4"/>
<!-- Node0 -->
<g id="node1" class="node"><title>Node0</title>
<polygon fill="#bfbfbf" stroke="black" points="157,-112.5 157,-131.5 237,-131.5 237,-112.5 157,-112.5"/>
<text text-anchor="middle" x="197" y="-119.5" font-family="Helvetica,sans-Serif" font-size="10.00">src/Sound.cpp</text>
</g>
<!-- Node1 -->
<g id="node2" class="node"><title>Node1</title>
<g id="a_node2"><a xlink:href="Sound_8h.html" target="_top" xlink:title="Sound.h">
<polygon fill="white" stroke="black" points="89.5,-56.5 89.5,-75.5 142.5,-75.5 142.5,-56.5 89.5,-56.5"/>
<text text-anchor="middle" x="116" y="-63.5" font-family="Helvetica,sans-Serif" font-size="10.00">Sound.h</text>
</a>
</g>
</g>
<!-- Node0&#45;&gt;Node1 -->
<g id="edge1" class="edge"><title>Node0&#45;&gt;Node1</title>
<path fill="none" stroke="midnightblue" d="M183.986,-112.324C171.468,-103.979 152.318,-91.2122 137.529,-81.3524"/>
<polygon fill="midnightblue" stroke="midnightblue" points="139.244,-78.2894 128.982,-75.6545 135.361,-84.1137 139.244,-78.2894"/>
</g>
<!-- Node5 -->
<g id="node6" class="node"><title>Node5</title>
<g id="a_node6"><a xlink:href="Resources_8h.html" target="_top" xlink:title="Resources.h">
<polygon fill="white" stroke="black" points="161,-56.5 161,-75.5 233,-75.5 233,-56.5 161,-56.5"/>
<text text-anchor="middle" x="197" y="-63.5" font-family="Helvetica,sans-Serif" font-size="10.00">Resources.h</text>
</a>
</g>
</g>
<!-- Node0&#45;&gt;Node5 -->
<g id="edge5" class="edge"><title>Node0&#45;&gt;Node5</title>
<path fill="none" stroke="midnightblue" d="M197,-112.083C197,-105.006 197,-94.8611 197,-85.9865"/>
<polygon fill="midnightblue" stroke="midnightblue" points="200.5,-85.751 197,-75.7511 193.5,-85.7511 200.5,-85.751"/>
</g>
<!-- Node7 -->
<g id="node8" class="node"><title>Node7</title>
<g id="a_node8"><a xlink:href="Error_8h.html" target="_top" xlink:title="Error.h">
<polygon fill="white" stroke="black" points="333,-56.5 333,-75.5 379,-75.5 379,-56.5 333,-56.5"/>
<text text-anchor="middle" x="356" y="-63.5" font-family="Helvetica,sans-Serif" font-size="10.00">Error.h</text>
</a>
</g>
</g>
<!-- Node0&#45;&gt;Node7 -->
<g id="edge10" class="edge"><title>Node0&#45;&gt;Node7</title>
<path fill="none" stroke="midnightblue" d="M222.194,-112.444C249.572,-103.145 293.409,-88.2572 323.395,-78.0735"/>
<polygon fill="midnightblue" stroke="midnightblue" points="324.646,-81.3451 332.989,-74.8151 322.394,-74.7169 324.646,-81.3451"/>
</g>
<!-- Node2 -->
<g id="node3" class="node"><title>Node2</title>
<g id="a_node3"><a xlink:href="SDL__include_8h.html" target="_top" xlink:title="SDL_include.h">
<polygon fill="white" stroke="black" points="0,-0.5 0,-19.5 80,-19.5 80,-0.5 0,-0.5"/>
<text text-anchor="middle" x="40" y="-7.5" font-family="Helvetica,sans-Serif" font-size="10.00">SDL_include.h</text>
</a>
</g>
</g>
<!-- Node1&#45;&gt;Node2 -->
<g id="edge2" class="edge"><title>Node1&#45;&gt;Node2</title>
<path fill="none" stroke="midnightblue" d="M103.789,-56.324C92.2241,-48.1066 74.6246,-35.6017 60.8393,-25.8069"/>
<polygon fill="midnightblue" stroke="midnightblue" points="62.612,-22.7729 52.4329,-19.8339 58.5575,-28.4791 62.612,-22.7729"/>
</g>
<!-- Node3 -->
<g id="node4" class="node"><title>Node3</title>
<polygon fill="white" stroke="#bfbfbf" points="98,-0.5 98,-19.5 150,-19.5 150,-0.5 98,-0.5"/>
<text text-anchor="middle" x="124" y="-7.5" font-family="Helvetica,sans-Serif" font-size="10.00">memory</text>
</g>
<!-- Node1&#45;&gt;Node3 -->
<g id="edge3" class="edge"><title>Node1&#45;&gt;Node3</title>
<path fill="none" stroke="midnightblue" d="M117.321,-56.083C118.381,-48.9272 119.906,-38.6353 121.231,-29.6911"/>
<polygon fill="midnightblue" stroke="midnightblue" points="124.7,-30.1561 122.704,-19.7511 117.776,-29.1302 124.7,-30.1561"/>
</g>
<!-- Node4 -->
<g id="node5" class="node"><title>Node4</title>
<polygon fill="white" stroke="#bfbfbf" points="168.5,-0.5 168.5,-19.5 209.5,-19.5 209.5,-0.5 168.5,-0.5"/>
<text text-anchor="middle" x="189" y="-7.5" font-family="Helvetica,sans-Serif" font-size="10.00">string</text>
</g>
<!-- Node1&#45;&gt;Node4 -->
<g id="edge4" class="edge"><title>Node1&#45;&gt;Node4</title>
<path fill="none" stroke="midnightblue" d="M127.729,-56.324C138.837,-48.1066 155.742,-35.6017 168.983,-25.8069"/>
<polygon fill="midnightblue" stroke="midnightblue" points="171.1,-28.5948 177.058,-19.8339 166.937,-22.9671 171.1,-28.5948"/>
</g>
<!-- Node5&#45;&gt;Node2 -->
<g id="edge6" class="edge"><title>Node5&#45;&gt;Node2</title>
<path fill="none" stroke="midnightblue" d="M172.123,-56.4435C145.711,-47.3591 103.785,-32.9388 74.2584,-22.7831"/>
<polygon fill="midnightblue" stroke="midnightblue" points="75.3554,-19.4593 64.7607,-19.5164 73.0786,-26.0787 75.3554,-19.4593"/>
</g>
<!-- Node5&#45;&gt;Node3 -->
<g id="edge9" class="edge"><title>Node5&#45;&gt;Node3</title>
<path fill="none" stroke="midnightblue" d="M185.271,-56.324C174.163,-48.1066 157.258,-35.6017 144.017,-25.8069"/>
<polygon fill="midnightblue" stroke="midnightblue" points="146.063,-22.9671 135.942,-19.8339 141.9,-28.5948 146.063,-22.9671"/>
</g>
<!-- Node5&#45;&gt;Node4 -->
<g id="edge7" class="edge"><title>Node5&#45;&gt;Node4</title>
<path fill="none" stroke="midnightblue" d="M195.679,-56.083C194.619,-48.9272 193.094,-38.6353 191.769,-29.6911"/>
<polygon fill="midnightblue" stroke="midnightblue" points="195.224,-29.1302 190.296,-19.7511 188.3,-30.1561 195.224,-29.1302"/>
</g>
<!-- Node6 -->
<g id="node7" class="node"><title>Node6</title>
<polygon fill="white" stroke="#bfbfbf" points="227.5,-0.5 227.5,-19.5 310.5,-19.5 310.5,-0.5 227.5,-0.5"/>
<text text-anchor="middle" x="269" y="-7.5" font-family="Helvetica,sans-Serif" font-size="10.00">unordered_map</text>
</g>
<!-- Node5&#45;&gt;Node6 -->
<g id="edge8" class="edge"><title>Node5&#45;&gt;Node6</title>
<path fill="none" stroke="midnightblue" d="M208.568,-56.324C219.42,-48.1849 235.881,-35.8395 248.883,-26.0874"/>
<polygon fill="midnightblue" stroke="midnightblue" points="251.321,-28.6339 257.221,-19.8339 247.121,-23.0339 251.321,-28.6339"/>
</g>
<!-- Node8 -->
<g id="node9" class="node"><title>Node8</title>
<polygon fill="white" stroke="#bfbfbf" points="329,-0.5 329,-19.5 383,-19.5 383,-0.5 329,-0.5"/>
<text text-anchor="middle" x="356" y="-7.5" font-family="Helvetica,sans-Serif" font-size="10.00">iostream</text>
</g>
<!-- Node7&#45;&gt;Node8 -->
<g id="edge11" class="edge"><title>Node7&#45;&gt;Node8</title>
<path fill="none" stroke="midnightblue" d="M356,-56.083C356,-49.0059 356,-38.8611 356,-29.9865"/>
<polygon fill="midnightblue" stroke="midnightblue" points="359.5,-29.751 356,-19.7511 352.5,-29.7511 359.5,-29.751"/>
</g>
<!-- Node9 -->
<g id="node10" class="node"><title>Node9</title>
<polygon fill="white" stroke="#bfbfbf" points="401,-0.5 401,-19.5 449,-19.5 449,-0.5 401,-0.5"/>
<text text-anchor="middle" x="425" y="-7.5" font-family="Helvetica,sans-Serif" font-size="10.00">stdlib.h</text>
</g>
<!-- Node7&#45;&gt;Node9 -->
<g id="edge12" class="edge"><title>Node7&#45;&gt;Node9</title>
<path fill="none" stroke="midnightblue" d="M367.086,-56.324C377.486,-48.1849 393.261,-35.8395 405.722,-26.0874"/>
<polygon fill="midnightblue" stroke="midnightblue" points="407.994,-28.7533 413.712,-19.8339 403.68,-23.2407 407.994,-28.7533"/>
</g>
</g>
</svg>
