<?xml version="1.0" encoding="UTF-8" standalone="no"?>
<!DOCTYPE svg PUBLIC "-//W3C//DTD SVG 1.1//EN"
 "http://www.w3.org/Graphics/SVG/1.1/DTD/svg11.dtd">
<!-- Generated by graphviz version 2.40.1 (20161225.0304)
 -->
<!-- Title: include/Sound.h Pages: 1 -->
<svg width="218pt" height="84pt"
 viewBox="0.00 0.00 217.50 84.00" xmlns="http://www.w3.org/2000/svg" xmlns:xlink="http://www.w3.org/1999/xlink">
<g id="graph0" class="graph" transform="scale(1 1) rotate(0) translate(4 80)">
<title>include/Sound.h</title>
<polygon fill="#ffffff" stroke="transparent" points="-4,4 -4,-80 213.5,-80 213.5,4 -4,4"/>
<!-- Node0 -->
<g id="node1" class="node">
<title>Node0</title>
<polygon fill="#bfbfbf" stroke="#000000" points="81,-56.5 81,-75.5 167,-75.5 167,-56.5 81,-56.5"/>
<text text-anchor="middle" x="124" y="-63.5" font-family="Helvetica,sans-Serif" font-size="10.00" fill="#000000">include/Sound.h</text>
</g>
<!-- Node1 -->
<g id="node2" class="node">
<title>Node1</title>
<g id="a_node2"><a xlink:href="SDL__include_8h.html" target="_top" xlink:title="SDL_include.h">
<polygon fill="#ffffff" stroke="#000000" points="0,-.5 0,-19.5 80,-19.5 80,-.5 0,-.5"/>
<text text-anchor="middle" x="40" y="-7.5" font-family="Helvetica,sans-Serif" font-size="10.00" fill="#000000">SDL_include.h</text>
</a>
</g>
</g>
<!-- Node0&#45;&gt;Node1 -->
<g id="edge1" class="edge">
<title>Node0&#45;&gt;Node1</title>
<path fill="none" stroke="#191970" d="M109.3683,-56.2455C96.6006,-47.7337 77.8562,-35.2375 63.0701,-25.3801"/>
<polygon fill="#191970" stroke="#191970" points="64.726,-22.2775 54.464,-19.6427 60.8431,-28.1019 64.726,-22.2775"/>
</g>
<!-- Node2 -->
<g id="node3" class="node">
<title>Node2</title>
<polygon fill="#ffffff" stroke="#bfbfbf" points="98,-.5 98,-19.5 150,-19.5 150,-.5 98,-.5"/>
<text text-anchor="middle" x="124" y="-7.5" font-family="Helvetica,sans-Serif" font-size="10.00" fill="#000000">memory</text>
</g>
<!-- Node0&#45;&gt;Node2 -->
<g id="edge2" class="edge">
<title>Node0&#45;&gt;Node2</title>
<path fill="none" stroke="#191970" d="M124,-56.2455C124,-48.9382 124,-38.6944 124,-29.7046"/>
<polygon fill="#191970" stroke="#191970" points="127.5001,-29.6426 124,-19.6427 120.5001,-29.6427 127.5001,-29.6426"/>
</g>
<!-- Node3 -->
<g id="node4" class="node">
<title>Node3</title>
<polygon fill="#ffffff" stroke="#bfbfbf" points="168.5,-.5 168.5,-19.5 209.5,-19.5 209.5,-.5 168.5,-.5"/>
<text text-anchor="middle" x="189" y="-7.5" font-family="Helvetica,sans-Serif" font-size="10.00" fill="#000000">string</text>
</g>
<!-- Node0&#45;&gt;Node3 -->
<g id="edge3" class="edge">
<title>Node0&#45;&gt;Node3</title>
<path fill="none" stroke="#191970" d="M135.3221,-56.2455C144.9223,-47.9746 158.8892,-35.9416 170.1695,-26.2232"/>
<polygon fill="#191970" stroke="#191970" points="172.516,-28.8214 177.8076,-19.6427 167.947,-23.5182 172.516,-28.8214"/>
</g>
</g>
</svg>
