<?xml version="1.0" encoding="UTF-8" standalone="no"?>
<!DOCTYPE svg PUBLIC "-//W3C//DTD SVG 1.1//EN"
 "http://www.w3.org/Graphics/SVG/1.1/DTD/svg11.dtd">
<!-- Generated by graphviz version 2.40.1 (20161225.0304)
 -->
<!-- Title: src/Sound.cpp Pages: 1 -->
<svg width="457pt" height="140pt"
 viewBox="0.00 0.00 457.00 140.00" xmlns="http://www.w3.org/2000/svg" xmlns:xlink="http://www.w3.org/1999/xlink">
<g id="graph0" class="graph" transform="scale(1 1) rotate(0) translate(4 136)">
<title>src/Sound.cpp</title>
<polygon fill="#ffffff" stroke="transparent" points="-4,4 -4,-136 453,-136 453,4 -4,4"/>
<!-- Node0 -->
<g id="node1" class="node">
<title>Node0</title>
<polygon fill="#bfbfbf" stroke="#000000" points="157,-112.5 157,-131.5 237,-131.5 237,-112.5 157,-112.5"/>
<text text-anchor="middle" x="197" y="-119.5" font-family="Helvetica,sans-Serif" font-size="10.00" fill="#000000">src/Sound.cpp</text>
</g>
<!-- Node1 -->
<g id="node2" class="node">
<title>Node1</title>
<g id="a_node2"><a xlink:href="Sound_8h.html" target="_top" xlink:title="Sound.h">
<polygon fill="#ffffff" stroke="#000000" points="89.5,-56.5 89.5,-75.5 142.5,-75.5 142.5,-56.5 89.5,-56.5"/>
<text text-anchor="middle" x="116" y="-63.5" font-family="Helvetica,sans-Serif" font-size="10.00" fill="#000000">Sound.h</text>
</a>
</g>
</g>
<!-- Node0&#45;&gt;Node1 -->
<g id="edge1" class="edge">
<title>Node0&#45;&gt;Node1</title>
<path fill="none" stroke="#191970" d="M182.8909,-112.2455C170.5791,-103.7337 152.5042,-91.2375 138.2462,-81.3801"/>
<polygon fill="#191970" stroke="#191970" points="140.1634,-78.4506 129.9474,-75.6427 136.1826,-84.2085 140.1634,-78.4506"/>
</g>
<!-- Node5 -->
<g id="node6" class="node">
<title>Node5</title>
<g id="a_node6"><a xlink:href="Resources_8h.html" target="_top" xlink:title="Resources.h">
<polygon fill="#ffffff" stroke="#000000" points="161,-56.5 161,-75.5 233,-75.5 233,-56.5 161,-56.5"/>
<text text-anchor="middle" x="197" y="-63.5" font-family="Helvetica,sans-Serif" font-size="10.00" fill="#000000">Resources.h</text>
</a>
</g>
</g>
<!-- Node0&#45;&gt;Node5 -->
<g id="edge5" class="edge">
<title>Node0&#45;&gt;Node5</title>
<path fill="none" stroke="#191970" d="M197,-112.2455C197,-104.9382 197,-94.6944 197,-85.7046"/>
<polygon fill="#191970" stroke="#191970" points="200.5001,-85.6426 197,-75.6427 193.5001,-85.6427 200.5001,-85.6426"/>
</g>
<!-- Node7 -->
<g id="node8" class="node">
<title>Node7</title>
<g id="a_node8"><a xlink:href="Error_8h.html" target="_top" xlink:title="Error.h">
<polygon fill="#ffffff" stroke="#000000" points="333,-56.5 333,-75.5 379,-75.5 379,-56.5 333,-56.5"/>
<text text-anchor="middle" x="356" y="-63.5" font-family="Helvetica,sans-Serif" font-size="10.00" fill="#000000">Error.h</text>
</a>
</g>
</g>
<!-- Node0&#45;&gt;Node7 -->
<g id="edge10" class="edge">
<title>Node0&#45;&gt;Node7</title>
<path fill="none" stroke="#191970" d="M224.3331,-112.3733C251.6554,-102.7503 293.6959,-87.9436 322.8936,-77.6601"/>
<polygon fill="#191970" stroke="#191970" points="324.3711,-80.8506 332.6404,-74.2273 322.0456,-74.2481 324.3711,-80.8506"/>
</g>
<!-- Node2 -->
<g id="node3" class="node">
<title>Node2</title>
<g id="a_node3"><a xlink:href="SDL__include_8h.html" target="_top" xlink:title="SDL_include.h">
<polygon fill="#ffffff" stroke="#000000" points="0,-.5 0,-19.5 80,-19.5 80,-.5 0,-.5"/>
<text text-anchor="middle" x="40" y="-7.5" font-family="Helvetica,sans-Serif" font-size="10.00" fill="#000000">SDL_include.h</text>
</a>
</g>
</g>
<!-- Node1&#45;&gt;Node2 -->
<g id="edge2" class="edge">
<title>Node1&#45;&gt;Node2</title>
<path fill="none" stroke="#191970" d="M102.7618,-56.2455C91.319,-47.814 74.5704,-35.4729 61.2525,-25.6598"/>
<polygon fill="#191970" stroke="#191970" points="63.2133,-22.757 53.0865,-19.6427 59.0609,-28.3924 63.2133,-22.757"/>
</g>
<!-- Node3 -->
<g id="node4" class="node">
<title>Node3</title>
<polygon fill="#ffffff" stroke="#bfbfbf" points="98,-.5 98,-19.5 150,-19.5 150,-.5 98,-.5"/>
<text text-anchor="middle" x="124" y="-7.5" font-family="Helvetica,sans-Serif" font-size="10.00" fill="#000000">memory</text>
</g>
<!-- Node1&#45;&gt;Node3 -->
<g id="edge3" class="edge">
<title>Node1&#45;&gt;Node3</title>
<path fill="none" stroke="#191970" d="M117.3935,-56.2455C118.4374,-48.9382 119.9008,-38.6944 121.1851,-29.7046"/>
<polygon fill="#191970" stroke="#191970" points="124.673,-30.0372 122.6225,-19.6427 117.7434,-29.0472 124.673,-30.0372"/>
</g>
<!-- Node4 -->
<g id="node5" class="node">
<title>Node4</title>
<polygon fill="#ffffff" stroke="#bfbfbf" points="168.5,-.5 168.5,-19.5 209.5,-19.5 209.5,-.5 168.5,-.5"/>
<text text-anchor="middle" x="189" y="-7.5" font-family="Helvetica,sans-Serif" font-size="10.00" fill="#000000">string</text>
</g>
<!-- Node1&#45;&gt;Node4 -->
<g id="edge4" class="edge">
<title>Node1&#45;&gt;Node4</title>
<path fill="none" stroke="#191970" d="M128.7156,-56.2455C139.602,-47.8943 155.4883,-35.7076 168.22,-25.9408"/>
<polygon fill="#191970" stroke="#191970" points="170.6261,-28.5063 176.4301,-19.6427 166.3654,-22.9523 170.6261,-28.5063"/>
</g>
<!-- Node5&#45;&gt;Node2 -->
<g id="edge6" class="edge">
<title>Node5&#45;&gt;Node2</title>
<path fill="none" stroke="#191970" d="M170.0107,-56.3733C144.1301,-47.1419 104.8752,-33.1402 76.2711,-22.9375"/>
<polygon fill="#191970" stroke="#191970" points="77.2317,-19.5642 66.6371,-19.5011 74.88,-26.1573 77.2317,-19.5642"/>
</g>
<!-- Node5&#45;&gt;Node3 -->
<g id="edge9" class="edge">
<title>Node5&#45;&gt;Node3</title>
<path fill="none" stroke="#191970" d="M184.2844,-56.2455C173.398,-47.8943 157.5117,-35.7076 144.78,-25.9408"/>
<polygon fill="#191970" stroke="#191970" points="146.6346,-22.9523 136.5699,-19.6427 142.3739,-28.5063 146.6346,-22.9523"/>
</g>
<!-- Node5&#45;&gt;Node4 -->
<g id="edge7" class="edge">
<title>Node5&#45;&gt;Node4</title>
<path fill="none" stroke="#191970" d="M195.6065,-56.2455C194.5626,-48.9382 193.0992,-38.6944 191.8149,-29.7046"/>
<polygon fill="#191970" stroke="#191970" points="195.2566,-29.0472 190.3775,-19.6427 188.327,-30.0372 195.2566,-29.0472"/>
</g>
<!-- Node6 -->
<g id="node7" class="node">
<title>Node6</title>
<polygon fill="#ffffff" stroke="#bfbfbf" points="227.5,-.5 227.5,-19.5 310.5,-19.5 310.5,-.5 227.5,-.5"/>
<text text-anchor="middle" x="269" y="-7.5" font-family="Helvetica,sans-Serif" font-size="10.00" fill="#000000">unordered_map</text>
</g>
<!-- Node5&#45;&gt;Node6 -->
<g id="edge8" class="edge">
<title>Node5&#45;&gt;Node6</title>
<path fill="none" stroke="#191970" d="M209.5414,-56.2455C220.2787,-47.8943 235.9473,-35.7076 248.5047,-25.9408"/>
<polygon fill="#191970" stroke="#191970" points="250.8575,-28.5449 256.6023,-19.6427 246.5599,-23.0194 250.8575,-28.5449"/>
</g>
<!-- Node8 -->
<g id="node9" class="node">
<title>Node8</title>
<polygon fill="#ffffff" stroke="#bfbfbf" points="329,-.5 329,-19.5 383,-19.5 383,-.5 329,-.5"/>
<text text-anchor="middle" x="356" y="-7.5" font-family="Helvetica,sans-Serif" font-size="10.00" fill="#000000">iostream</text>
</g>
<!-- Node7&#45;&gt;Node8 -->
<g id="edge11" class="edge">
<title>Node7&#45;&gt;Node8</title>
<path fill="none" stroke="#191970" d="M356,-56.2455C356,-48.9382 356,-38.6944 356,-29.7046"/>
<polygon fill="#191970" stroke="#191970" points="359.5001,-29.6426 356,-19.6427 352.5001,-29.6427 359.5001,-29.6426"/>
</g>
<!-- Node9 -->
<g id="node10" class="node">
<title>Node9</title>
<polygon fill="#ffffff" stroke="#bfbfbf" points="401,-.5 401,-19.5 449,-19.5 449,-.5 401,-.5"/>
<text text-anchor="middle" x="425" y="-7.5" font-family="Helvetica,sans-Serif" font-size="10.00" fill="#000000">stdlib.h</text>
</g>
<!-- Node7&#45;&gt;Node9 -->
<g id="edge12" class="edge">
<title>Node7&#45;&gt;Node9</title>
<path fill="none" stroke="#191970" d="M368.0189,-56.2455C378.2098,-47.9746 393.0362,-35.9416 405.0107,-26.2232"/>
<polygon fill="#191970" stroke="#191970" points="407.5598,-28.662 413.1188,-19.6427 403.1486,-23.2268 407.5598,-28.662"/>
</g>
</g>
</svg>
