<?xml version="1.0" encoding="UTF-8" standalone="no"?>
<!DOCTYPE svg PUBLIC "-//W3C//DTD SVG 1.1//EN"
 "http://www.w3.org/Graphics/SVG/1.1/DTD/svg11.dtd">
<!-- Generated by graphviz version 2.38.0 (20140413.2041)
 -->
<!-- Title: include/Sprite.h Pages: 1 -->
<svg width="654pt" height="308pt"
 viewBox="0.00 0.00 653.91 308.00" xmlns="http://www.w3.org/2000/svg" xmlns:xlink="http://www.w3.org/1999/xlink">
<g id="graph0" class="graph" transform="scale(1 1) rotate(0) translate(4 304)">
<title>include/Sprite.h</title>
<polygon fill="white" stroke="none" points="-4,4 -4,-304 649.911,-304 649.911,4 -4,4"/>
<!-- Node0 -->
<g id="node1" class="node"><title>Node0</title>
<polygon fill="#bfbfbf" stroke="black" points="373.911,-280.5 373.911,-299.5 457.911,-299.5 457.911,-280.5 373.911,-280.5"/>
<text text-anchor="middle" x="415.911" y="-287.5" font-family="Helvetica,sans-Serif" font-size="10.00">include/Sprite.h</text>
</g>
<!-- Node1 -->
<g id="node2" class="node"><title>Node1</title>
<g id="a_node2"><a xlink:href="SDL__include_8h.html" target="_top" xlink:title="SDL_include.h">
<polygon fill="white" stroke="black" points="273.911,-0.5 273.911,-19.5 353.911,-19.5 353.911,-0.5 273.911,-0.5"/>
<text text-anchor="middle" x="313.911" y="-7.5" font-family="Helvetica,sans-Serif" font-size="10.00">SDL_include.h</text>
</a>
</g>
</g>
<!-- Node0&#45;&gt;Node1 -->
<g id="edge1" class="edge"><title>Node0&#45;&gt;Node1</title>
<path fill="none" stroke="midnightblue" d="M373.835,-286.788C268.33,-280.098 0.911152,-255.586 0.911152,-179 0.911152,-179 0.911152,-179 0.911152,-121 0.911152,-90.9022 -2.73345,-75.8267 19.9112,-56 55.3456,-24.975 189.564,-15.3159 263.791,-12.3265"/>
<polygon fill="midnightblue" stroke="midnightblue" points="263.989,-15.8216 273.851,-11.9474 263.726,-8.82658 263.989,-15.8216"/>
</g>
<!-- Node2 -->
<g id="node3" class="node"><title>Node2</title>
<polygon fill="white" stroke="#bfbfbf" points="494.411,-112.5 494.411,-131.5 535.411,-131.5 535.411,-112.5 494.411,-112.5"/>
<text text-anchor="middle" x="514.911" y="-119.5" font-family="Helvetica,sans-Serif" font-size="10.00">string</text>
</g>
<!-- Node0&#45;&gt;Node2 -->
<g id="edge2" class="edge"><title>Node0&#45;&gt;Node2</title>
<path fill="none" stroke="midnightblue" d="M426.95,-280.329C437.09,-271.912 452.004,-258.339 461.911,-244 484.85,-210.8 501.295,-166.074 509.335,-141.352"/>
<polygon fill="midnightblue" stroke="midnightblue" points="512.68,-142.382 512.347,-131.793 506.004,-140.279 512.68,-142.382"/>
</g>
<!-- Node3 -->
<g id="node4" class="node"><title>Node3</title>
<polygon fill="white" stroke="#bfbfbf" points="553.911,-112.5 553.911,-131.5 605.911,-131.5 605.911,-112.5 553.911,-112.5"/>
<text text-anchor="middle" x="579.911" y="-119.5" font-family="Helvetica,sans-Serif" font-size="10.00">memory</text>
</g>
<!-- Node0&#45;&gt;Node3 -->
<g id="edge3" class="edge"><title>Node0&#45;&gt;Node3</title>
<path fill="none" stroke="midnightblue" d="M431.502,-280.376C445.732,-272.093 466.92,-258.697 482.911,-244 518.594,-211.206 552.054,-164.706 568.776,-139.989"/>
<polygon fill="midnightblue" stroke="midnightblue" points="571.696,-141.917 574.334,-131.656 565.873,-138.032 571.696,-141.917"/>
</g>
<!-- Node4 -->
<g id="node5" class="node"><title>Node4</title>
<g id="a_node5"><a xlink:href="Component_8h.html" target="_top" xlink:title="Component.h">
<polygon fill="white" stroke="black" points="378.411,-224.5 378.411,-243.5 453.411,-243.5 453.411,-224.5 378.411,-224.5"/>
<text text-anchor="middle" x="415.911" y="-231.5" font-family="Helvetica,sans-Serif" font-size="10.00">Component.h</text>
</a>
</g>
</g>
<!-- Node0&#45;&gt;Node4 -->
<g id="edge4" class="edge"><title>Node0&#45;&gt;Node4</title>
<path fill="none" stroke="midnightblue" d="M415.911,-280.083C415.911,-273.006 415.911,-262.861 415.911,-253.986"/>
<polygon fill="midnightblue" stroke="midnightblue" points="419.411,-253.751 415.911,-243.751 412.411,-253.751 419.411,-253.751"/>
</g>
<!-- Node8 -->
<g id="node9" class="node"><title>Node8</title>
<g id="a_node9"><a xlink:href="Rect_8h.html" target="_top" xlink:title="Rect.h">
<polygon fill="white" stroke="black" points="213.911,-112.5 213.911,-131.5 259.911,-131.5 259.911,-112.5 213.911,-112.5"/>
<text text-anchor="middle" x="236.911" y="-119.5" font-family="Helvetica,sans-Serif" font-size="10.00">Rect.h</text>
</a>
</g>
</g>
<!-- Node0&#45;&gt;Node8 -->
<g id="edge20" class="edge"><title>Node0&#45;&gt;Node8</title>
<path fill="none" stroke="midnightblue" d="M406.287,-280.075C377.257,-253.153 290.302,-172.514 253.575,-138.453"/>
<polygon fill="midnightblue" stroke="midnightblue" points="255.863,-135.802 246.15,-131.568 251.103,-140.934 255.863,-135.802"/>
</g>
<!-- Node11 -->
<g id="node12" class="node"><title>Node11</title>
<g id="a_node12"><a xlink:href="Color_8h.html" target="_top" xlink:title="Color.h">
<polygon fill="white" stroke="black" points="597.911,-168.5 597.911,-187.5 645.911,-187.5 645.911,-168.5 597.911,-168.5"/>
<text text-anchor="middle" x="621.911" y="-175.5" font-family="Helvetica,sans-Serif" font-size="10.00">Color.h</text>
</a>
</g>
</g>
<!-- Node0&#45;&gt;Node11 -->
<g id="edge18" class="edge"><title>Node0&#45;&gt;Node11</title>
<path fill="none" stroke="midnightblue" d="M458.046,-284.16C491.311,-278.702 537.665,-267.327 571.911,-244 589.694,-231.887 603.906,-211.424 612.566,-196.69"/>
<polygon fill="midnightblue" stroke="midnightblue" points="615.833,-198.016 617.65,-187.578 609.721,-194.605 615.833,-198.016"/>
</g>
<!-- Node12 -->
<g id="node13" class="node"><title>Node12</title>
<g id="a_node13"><a xlink:href="InputManager_8h.html" target="_top" xlink:title="InputManager.h">
<polygon fill="white" stroke="black" points="111.911,-112.5 111.911,-131.5 195.911,-131.5 195.911,-112.5 111.911,-112.5"/>
<text text-anchor="middle" x="153.911" y="-119.5" font-family="Helvetica,sans-Serif" font-size="10.00">InputManager.h</text>
</a>
</g>
</g>
<!-- Node0&#45;&gt;Node12 -->
<g id="edge21" class="edge"><title>Node0&#45;&gt;Node12</title>
<path fill="none" stroke="midnightblue" d="M402.194,-280.309C359.483,-253.248 228.603,-170.324 176.072,-137.041"/>
<polygon fill="midnightblue" stroke="midnightblue" points="177.813,-134.001 167.493,-131.605 174.067,-139.914 177.813,-134.001"/>
</g>
<!-- Node5 -->
<g id="node6" class="node"><title>Node5</title>
<g id="a_node6"><a xlink:href="ComponentType_8h.html" target="_top" xlink:title="ComponentType.h">
<polygon fill="white" stroke="black" points="278.411,-112.5 278.411,-131.5 375.411,-131.5 375.411,-112.5 278.411,-112.5"/>
<text text-anchor="middle" x="326.911" y="-119.5" font-family="Helvetica,sans-Serif" font-size="10.00">ComponentType.h</text>
</a>
</g>
</g>
<!-- Node4&#45;&gt;Node5 -->
<g id="edge5" class="edge"><title>Node4&#45;&gt;Node5</title>
<path fill="none" stroke="midnightblue" d="M404.972,-224.454C394.468,-215.919 378.524,-202.077 366.911,-188 354.698,-173.196 343.5,-154.336 336.078,-140.749"/>
<polygon fill="midnightblue" stroke="midnightblue" points="339.168,-139.104 331.381,-131.92 332.988,-142.393 339.168,-139.104"/>
</g>
<!-- Node6 -->
<g id="node7" class="node"><title>Node6</title>
<g id="a_node7"><a xlink:href="GameObject_8h.html" target="_top" xlink:title="GameObject.h">
<polygon fill="white" stroke="black" points="375.911,-168.5 375.911,-187.5 455.911,-187.5 455.911,-168.5 375.911,-168.5"/>
<text text-anchor="middle" x="415.911" y="-175.5" font-family="Helvetica,sans-Serif" font-size="10.00">GameObject.h</text>
</a>
</g>
</g>
<!-- Node4&#45;&gt;Node6 -->
<g id="edge6" class="edge"><title>Node4&#45;&gt;Node6</title>
<path fill="none" stroke="midnightblue" d="M410.745,-224.083C409.235,-216.927 408.805,-206.635 409.454,-197.691"/>
<polygon fill="midnightblue" stroke="midnightblue" points="412.927,-198.126 410.78,-187.751 405.988,-197.2 412.927,-198.126"/>
</g>
<!-- Node6&#45;&gt;Node1 -->
<g id="edge7" class="edge"><title>Node6&#45;&gt;Node1</title>
<path fill="none" stroke="midnightblue" d="M425.546,-168.126C437.952,-155.572 456.804,-131.935 446.911,-112 425.653,-69.1635 376.578,-39.5993 344.355,-23.9868"/>
<polygon fill="midnightblue" stroke="midnightblue" points="345.487,-20.6524 334.946,-19.5902 342.524,-26.9943 345.487,-20.6524"/>
</g>
<!-- Node6&#45;&gt;Node2 -->
<g id="edge10" class="edge"><title>Node6&#45;&gt;Node2</title>
<path fill="none" stroke="midnightblue" d="M431.817,-168.324C447.549,-159.743 471.853,-146.486 490.12,-136.522"/>
<polygon fill="midnightblue" stroke="midnightblue" points="491.942,-139.516 499.045,-131.655 488.59,-133.37 491.942,-139.516"/>
</g>
<!-- Node6&#45;&gt;Node3 -->
<g id="edge9" class="edge"><title>Node6&#45;&gt;Node3</title>
<path fill="none" stroke="midnightblue" d="M441.897,-168.444C469.607,-159.32 513.663,-144.813 544.527,-134.651"/>
<polygon fill="midnightblue" stroke="midnightblue" points="545.643,-137.968 554.046,-131.516 543.453,-131.32 545.643,-137.968"/>
</g>
<!-- Node6&#45;&gt;Node4 -->
<g id="edge11" class="edge"><title>Node6&#45;&gt;Node4</title>
<path fill="none" stroke="midnightblue" d="M421.042,-187.751C422.568,-194.858 423.016,-205.136 422.384,-214.101"/>
<polygon fill="midnightblue" stroke="midnightblue" points="418.904,-213.713 421.077,-224.083 425.845,-214.622 418.904,-213.713"/>
</g>
<!-- Node6&#45;&gt;Node5 -->
<g id="edge12" class="edge"><title>Node6&#45;&gt;Node5</title>
<path fill="none" stroke="midnightblue" d="M401.612,-168.324C387.728,-159.9 366.419,-146.971 350.107,-137.074"/>
<polygon fill="midnightblue" stroke="midnightblue" points="351.54,-133.85 341.175,-131.655 347.909,-139.834 351.54,-133.85"/>
</g>
<!-- Node7 -->
<g id="node8" class="node"><title>Node7</title>
<polygon fill="white" stroke="#bfbfbf" points="393.911,-112.5 393.911,-131.5 437.911,-131.5 437.911,-112.5 393.911,-112.5"/>
<text text-anchor="middle" x="415.911" y="-119.5" font-family="Helvetica,sans-Serif" font-size="10.00">vector</text>
</g>
<!-- Node6&#45;&gt;Node7 -->
<g id="edge8" class="edge"><title>Node6&#45;&gt;Node7</title>
<path fill="none" stroke="midnightblue" d="M415.911,-168.083C415.911,-161.006 415.911,-150.861 415.911,-141.986"/>
<polygon fill="midnightblue" stroke="midnightblue" points="419.411,-141.751 415.911,-131.751 412.411,-141.751 419.411,-141.751"/>
</g>
<!-- Node6&#45;&gt;Node8 -->
<g id="edge13" class="edge"><title>Node6&#45;&gt;Node8</title>
<path fill="none" stroke="midnightblue" d="M387.548,-168.444C355.565,-158.795 303.629,-143.127 269.87,-132.943"/>
<polygon fill="midnightblue" stroke="midnightblue" points="270.603,-129.508 260.019,-129.971 268.582,-136.21 270.603,-129.508"/>
</g>
<!-- Node8&#45;&gt;Node1 -->
<g id="edge14" class="edge"><title>Node8&#45;&gt;Node1</title>
<path fill="none" stroke="midnightblue" d="M260.129,-113.475C292.131,-102.873 346.487,-83.9464 351.911,-76 363.103,-59.6027 347.641,-39.7838 333.211,-26.3743"/>
<polygon fill="midnightblue" stroke="midnightblue" points="335.319,-23.5689 325.477,-19.6464 330.725,-28.8503 335.319,-23.5689"/>
</g>
<!-- Node9 -->
<g id="node10" class="node"><title>Node9</title>
<g id="a_node10"><a xlink:href="Vec2_8h.html" target="_top" xlink:title="Vec2.h">
<polygon fill="white" stroke="black" points="233.411,-56.5 233.411,-75.5 280.411,-75.5 280.411,-56.5 233.411,-56.5"/>
<text text-anchor="middle" x="256.911" y="-63.5" font-family="Helvetica,sans-Serif" font-size="10.00">Vec2.h</text>
</a>
</g>
</g>
<!-- Node8&#45;&gt;Node9 -->
<g id="edge15" class="edge"><title>Node8&#45;&gt;Node9</title>
<path fill="none" stroke="midnightblue" d="M240.214,-112.083C242.893,-104.849 246.76,-94.4087 250.098,-85.3968"/>
<polygon fill="midnightblue" stroke="midnightblue" points="253.479,-86.3442 253.67,-75.7511 246.915,-83.9129 253.479,-86.3442"/>
</g>
<!-- Node10 -->
<g id="node11" class="node"><title>Node10</title>
<polygon fill="white" stroke="#bfbfbf" points="298.911,-56.5 298.911,-75.5 342.911,-75.5 342.911,-56.5 298.911,-56.5"/>
<text text-anchor="middle" x="320.911" y="-63.5" font-family="Helvetica,sans-Serif" font-size="10.00">cmath</text>
</g>
<!-- Node8&#45;&gt;Node10 -->
<g id="edge17" class="edge"><title>Node8&#45;&gt;Node10</title>
<path fill="none" stroke="midnightblue" d="M250.407,-112.324C263.511,-103.9 283.623,-90.9709 299.018,-81.0741"/>
<polygon fill="midnightblue" stroke="midnightblue" points="300.929,-84.0063 307.449,-75.6545 297.144,-78.118 300.929,-84.0063"/>
</g>
<!-- Node9&#45;&gt;Node1 -->
<g id="edge16" class="edge"><title>Node9&#45;&gt;Node1</title>
<path fill="none" stroke="midnightblue" d="M266.069,-56.324C274.413,-48.4196 286.944,-36.5482 297.088,-26.9377"/>
<polygon fill="midnightblue" stroke="midnightblue" points="299.734,-29.2522 304.586,-19.8339 294.92,-24.1705 299.734,-29.2522"/>
</g>
<!-- Node11&#45;&gt;Node1 -->
<g id="edge19" class="edge"><title>Node11&#45;&gt;Node1</title>
<path fill="none" stroke="midnightblue" d="M623.667,-168.33C625.888,-154.734 627.997,-128.276 614.911,-112 553.561,-35.6929 432.43,-16.6532 364.016,-12.1471"/>
<polygon fill="midnightblue" stroke="midnightblue" points="364.098,-8.6461 353.912,-11.5623 363.693,-15.6344 364.098,-8.6461"/>
</g>
<!-- Node12&#45;&gt;Node1 -->
<g id="edge22" class="edge"><title>Node12&#45;&gt;Node1</title>
<path fill="none" stroke="midnightblue" d="M161.858,-112.156C174.189,-98.7923 199.103,-73.1922 223.911,-56 242.447,-43.1546 265.175,-31.8213 283.153,-23.7415"/>
<polygon fill="midnightblue" stroke="midnightblue" points="284.845,-26.8215 292.596,-19.5986 282.032,-20.4113 284.845,-26.8215"/>
</g>
<!-- Node12&#45;&gt;Node9 -->
<g id="edge23" class="edge"><title>Node12&#45;&gt;Node9</title>
<path fill="none" stroke="midnightblue" d="M170.46,-112.324C186.903,-103.703 212.346,-90.3643 231.38,-80.3855"/>
<polygon fill="midnightblue" stroke="midnightblue" points="233.172,-83.3977 240.403,-75.6545 229.922,-77.198 233.172,-83.3977"/>
</g>
<!-- Node13 -->
<g id="node14" class="node"><title>Node13</title>
<polygon fill="white" stroke="#bfbfbf" points="93.4112,-56.5 93.4112,-75.5 176.411,-75.5 176.411,-56.5 93.4112,-56.5"/>
<text text-anchor="middle" x="134.911" y="-63.5" font-family="Helvetica,sans-Serif" font-size="10.00">unordered_map</text>
</g>
<!-- Node12&#45;&gt;Node13 -->
<g id="edge24" class="edge"><title>Node12&#45;&gt;Node13</title>
<path fill="none" stroke="midnightblue" d="M150.774,-112.083C148.228,-104.849 144.555,-94.4087 141.384,-85.3968"/>
<polygon fill="midnightblue" stroke="midnightblue" points="144.611,-84.0225 137.99,-75.7511 138.008,-86.3459 144.611,-84.0225"/>
</g>
<!-- Node14 -->
<g id="node15" class="node"><title>Node14</title>
<polygon fill="white" stroke="#bfbfbf" points="28.9112,-56.5 28.9112,-75.5 74.9112,-75.5 74.9112,-56.5 28.9112,-56.5"/>
<text text-anchor="middle" x="51.9112" y="-63.5" font-family="Helvetica,sans-Serif" font-size="10.00">cstdint</text>
</g>
<!-- Node12&#45;&gt;Node14 -->
<g id="edge25" class="edge"><title>Node12&#45;&gt;Node14</title>
<path fill="none" stroke="midnightblue" d="M137.523,-112.324C121.24,-103.703 96.0437,-90.3643 77.1949,-80.3855"/>
<polygon fill="midnightblue" stroke="midnightblue" points="78.7341,-77.2402 68.2585,-75.6545 75.4588,-83.4267 78.7341,-77.2402"/>
</g>
</g>
</svg>
