<?xml version="1.0" encoding="UTF-8" standalone="no"?>
<!DOCTYPE svg PUBLIC "-//W3C//DTD SVG 1.1//EN"
 "http://www.w3.org/Graphics/SVG/1.1/DTD/svg11.dtd">
<!-- Generated by graphviz version 2.38.0 (20140413.2041)
 -->
<!-- Title: include/Sprite.h Pages: 1 -->
<svg width="1331pt" height="252pt"
 viewBox="0.00 0.00 1330.50 252.00" xmlns="http://www.w3.org/2000/svg" xmlns:xlink="http://www.w3.org/1999/xlink">
<g id="graph0" class="graph" transform="scale(1 1) rotate(0) translate(4 248)">
<title>include/Sprite.h</title>
<polygon fill="white" stroke="none" points="-4,4 -4,-248 1326.5,-248 1326.5,4 -4,4"/>
<!-- Node11 -->
<g id="node1" class="node"><title>Node11</title>
<polygon fill="#bfbfbf" stroke="black" points="880.5,-224.5 880.5,-243.5 964.5,-243.5 964.5,-224.5 880.5,-224.5"/>
<text text-anchor="middle" x="922.5" y="-231.5" font-family="Helvetica,sans-Serif" font-size="10.00">include/Sprite.h</text>
</g>
<!-- Node12 -->
<g id="node2" class="node"><title>Node12</title>
<g id="a_node2"><a xlink:href="Animation_8h.html" target="_top" xlink:title="include/Animation.h">
<polygon fill="white" stroke="black" points="45.5,-168.5 45.5,-187.5 147.5,-187.5 147.5,-168.5 45.5,-168.5"/>
<text text-anchor="middle" x="96.5" y="-175.5" font-family="Helvetica,sans-Serif" font-size="10.00">include/Animation.h</text>
</a>
</g>
</g>
<!-- Node11&#45;&gt;Node12 -->
<g id="edge1" class="edge"><title>Node11&#45;&gt;Node12</title>
<path fill="none" stroke="midnightblue" d="M870.235,-230.074C751.864,-223.368 454.249,-206.074 205.5,-188 186.562,-186.624 165.787,-184.95 147.5,-183.42"/>
<polygon fill="midnightblue" stroke="midnightblue" points="870.275,-233.581 880.456,-230.651 870.67,-226.593 870.275,-233.581"/>
</g>
<!-- Node14 -->
<g id="node4" class="node"><title>Node14</title>
<g id="a_node4"><a xlink:href="Tileset_8h.html" target="_top" xlink:title="include/Tileset.h">
<polygon fill="white" stroke="black" points="214.5,-168.5 214.5,-187.5 302.5,-187.5 302.5,-168.5 214.5,-168.5"/>
<text text-anchor="middle" x="258.5" y="-175.5" font-family="Helvetica,sans-Serif" font-size="10.00">include/Tileset.h</text>
</a>
</g>
</g>
<!-- Node11&#45;&gt;Node14 -->
<g id="edge3" class="edge"><title>Node11&#45;&gt;Node14</title>
<path fill="none" stroke="midnightblue" d="M870.226,-228.749C743.27,-218.424 420.462,-192.172 302.514,-182.579"/>
<polygon fill="midnightblue" stroke="midnightblue" points="870.209,-232.259 880.46,-229.581 870.777,-225.282 870.209,-232.259"/>
</g>
<!-- Node20 -->
<g id="node10" class="node"><title>Node20</title>
<g id="a_node10"><a xlink:href="UIelement_8h.html" target="_top" xlink:title="include/UIelement.h">
<polygon fill="white" stroke="black" points="806.5,-168.5 806.5,-187.5 910.5,-187.5 910.5,-168.5 806.5,-168.5"/>
<text text-anchor="middle" x="858.5" y="-175.5" font-family="Helvetica,sans-Serif" font-size="10.00">include/UIelement.h</text>
</a>
</g>
</g>
<!-- Node11&#45;&gt;Node20 -->
<g id="edge10" class="edge"><title>Node11&#45;&gt;Node20</title>
<path fill="none" stroke="midnightblue" d="M904.509,-217.82C893.042,-208.145 878.587,-195.948 868.97,-187.834"/>
<polygon fill="midnightblue" stroke="midnightblue" points="902.317,-220.55 912.217,-224.324 906.831,-215.2 902.317,-220.55"/>
</g>
<!-- Node29 -->
<g id="node19" class="node"><title>Node29</title>
<g id="a_node19"><a xlink:href="UIimage_8h.html" target="_top" xlink:title="include/UIimage.h">
<polygon fill="white" stroke="black" points="1034,-112.5 1034,-131.5 1129,-131.5 1129,-112.5 1034,-112.5"/>
<text text-anchor="middle" x="1081.5" y="-119.5" font-family="Helvetica,sans-Serif" font-size="10.00">include/UIimage.h</text>
</a>
</g>
</g>
<!-- Node11&#45;&gt;Node29 -->
<g id="edge31" class="edge"><title>Node11&#45;&gt;Node29</title>
<path fill="none" stroke="midnightblue" d="M943.579,-218.417C977.209,-195.151 1041.97,-150.35 1069.08,-131.591"/>
<polygon fill="midnightblue" stroke="midnightblue" points="941.209,-215.801 934.976,-224.368 945.192,-221.557 941.209,-215.801"/>
</g>
<!-- Node30 -->
<g id="node20" class="node"><title>Node30</title>
<g id="a_node20"><a xlink:href="UIimageButton_8h.html" target="_top" xlink:title="include/UIimageButton.h">
<polygon fill="white" stroke="black" points="1198.5,-56.5 1198.5,-75.5 1322.5,-75.5 1322.5,-56.5 1198.5,-56.5"/>
<text text-anchor="middle" x="1260.5" y="-63.5" font-family="Helvetica,sans-Serif" font-size="10.00">include/UIimageButton.h</text>
</a>
</g>
</g>
<!-- Node11&#45;&gt;Node30 -->
<g id="edge32" class="edge"><title>Node11&#45;&gt;Node30</title>
<path fill="none" stroke="midnightblue" d="M950.96,-220.264C992.49,-201.55 1071.99,-165.238 1138.5,-132 1177.14,-112.688 1221.76,-88.3987 1244.84,-75.6787"/>
<polygon fill="midnightblue" stroke="midnightblue" points="949.415,-217.121 941.731,-224.415 952.286,-223.505 949.415,-217.121"/>
</g>
<!-- Node38 -->
<g id="node28" class="node"><title>Node38</title>
<g id="a_node28"><a xlink:href="Sprite_8cpp.html" target="_top" xlink:title="src/Sprite.cpp">
<polygon fill="white" stroke="black" points="1186,-168.5 1186,-187.5 1263,-187.5 1263,-168.5 1186,-168.5"/>
<text text-anchor="middle" x="1224.5" y="-175.5" font-family="Helvetica,sans-Serif" font-size="10.00">src/Sprite.cpp</text>
</a>
</g>
</g>
<!-- Node11&#45;&gt;Node38 -->
<g id="edge33" class="edge"><title>Node11&#45;&gt;Node38</title>
<path fill="none" stroke="midnightblue" d="M974.854,-223.639C1034.97,-212.89 1132.16,-195.51 1185.82,-185.916"/>
<polygon fill="midnightblue" stroke="midnightblue" points="974.038,-220.229 964.81,-225.435 975.27,-227.12 974.038,-220.229"/>
</g>
<!-- Node13 -->
<g id="node3" class="node"><title>Node13</title>
<g id="a_node3"><a xlink:href="Animation_8cpp.html" target="_top" xlink:title="src/Animation.cpp">
<polygon fill="white" stroke="black" points="0,-112.5 0,-131.5 95,-131.5 95,-112.5 0,-112.5"/>
<text text-anchor="middle" x="47.5" y="-119.5" font-family="Helvetica,sans-Serif" font-size="10.00">src/Animation.cpp</text>
</a>
</g>
</g>
<!-- Node12&#45;&gt;Node13 -->
<g id="edge2" class="edge"><title>Node12&#45;&gt;Node13</title>
<path fill="none" stroke="midnightblue" d="M81.4655,-160.431C72.8778,-150.967 62.4565,-139.483 55.4408,-131.751"/>
<polygon fill="midnightblue" stroke="midnightblue" points="79.0967,-163.029 88.4086,-168.083 84.2807,-158.325 79.0967,-163.029"/>
</g>
<!-- Node15 -->
<g id="node5" class="node"><title>Node15</title>
<g id="a_node5"><a xlink:href="TileMap_8h.html" target="_top" xlink:title="include/TileMap.h">
<polygon fill="white" stroke="black" points="212,-112.5 212,-131.5 305,-131.5 305,-112.5 212,-112.5"/>
<text text-anchor="middle" x="258.5" y="-119.5" font-family="Helvetica,sans-Serif" font-size="10.00">include/TileMap.h</text>
</a>
</g>
</g>
<!-- Node14&#45;&gt;Node15 -->
<g id="edge4" class="edge"><title>Node14&#45;&gt;Node15</title>
<path fill="none" stroke="midnightblue" d="M258.5,-157.805C258.5,-148.91 258.5,-138.78 258.5,-131.751"/>
<polygon fill="midnightblue" stroke="midnightblue" points="255,-158.083 258.5,-168.083 262,-158.083 255,-158.083"/>
</g>
<!-- Node19 -->
<g id="node9" class="node"><title>Node19</title>
<g id="a_node9"><a xlink:href="Tileset_8cpp.html" target="_top" xlink:title="src/Tileset.cpp">
<polygon fill="white" stroke="black" points="113,-112.5 113,-131.5 194,-131.5 194,-112.5 113,-112.5"/>
<text text-anchor="middle" x="153.5" y="-119.5" font-family="Helvetica,sans-Serif" font-size="10.00">src/Tileset.cpp</text>
</a>
</g>
</g>
<!-- Node14&#45;&gt;Node19 -->
<g id="edge9" class="edge"><title>Node14&#45;&gt;Node19</title>
<path fill="none" stroke="midnightblue" d="M232.69,-163.726C213.247,-153.727 187.152,-140.307 170.328,-131.655"/>
<polygon fill="midnightblue" stroke="midnightblue" points="231.136,-166.863 241.63,-168.324 234.338,-160.638 231.136,-166.863"/>
</g>
<!-- Node16 -->
<g id="node6" class="node"><title>Node16</title>
<g id="a_node6"><a xlink:href="DragAndDrop_8h.html" target="_top" xlink:title="include/DragAndDrop.h">
<polygon fill="white" stroke="black" points="41.5,-56.5 41.5,-75.5 159.5,-75.5 159.5,-56.5 41.5,-56.5"/>
<text text-anchor="middle" x="100.5" y="-63.5" font-family="Helvetica,sans-Serif" font-size="10.00">include/DragAndDrop.h</text>
</a>
</g>
</g>
<!-- Node15&#45;&gt;Node16 -->
<g id="edge5" class="edge"><title>Node15&#45;&gt;Node16</title>
<path fill="none" stroke="midnightblue" d="M223.892,-109.172C194.141,-99.0039 151.953,-84.5852 125.418,-75.5164"/>
<polygon fill="midnightblue" stroke="midnightblue" points="222.87,-112.521 233.464,-112.444 225.134,-105.898 222.87,-112.521"/>
</g>
<!-- Node17 -->
<g id="node7" class="node"><title>Node17</title>
<g id="a_node7"><a xlink:href="DragAndDrop_8cpp.html" target="_top" xlink:title="src/DragAndDrop.cpp">
<polygon fill="white" stroke="black" points="88,-0.5 88,-19.5 199,-19.5 199,-0.5 88,-0.5"/>
<text text-anchor="middle" x="143.5" y="-7.5" font-family="Helvetica,sans-Serif" font-size="10.00">src/DragAndDrop.cpp</text>
</a>
</g>
</g>
<!-- Node15&#45;&gt;Node17 -->
<g id="edge7" class="edge"><title>Node15&#45;&gt;Node17</title>
<path fill="none" stroke="midnightblue" d="M240.106,-105.762C229.998,-97.2198 217.346,-86.2507 206.5,-76 185.941,-56.5697 163.147,-32.3282 151.425,-19.6474"/>
<polygon fill="midnightblue" stroke="midnightblue" points="237.991,-108.556 247.904,-112.297 242.488,-103.191 237.991,-108.556"/>
</g>
<!-- Node18 -->
<g id="node8" class="node"><title>Node18</title>
<g id="a_node8"><a xlink:href="TileMap_8cpp.html" target="_top" xlink:title="src/TileMap.cpp">
<polygon fill="white" stroke="black" points="215.5,-56.5 215.5,-75.5 301.5,-75.5 301.5,-56.5 215.5,-56.5"/>
<text text-anchor="middle" x="258.5" y="-63.5" font-family="Helvetica,sans-Serif" font-size="10.00">src/TileMap.cpp</text>
</a>
</g>
</g>
<!-- Node15&#45;&gt;Node18 -->
<g id="edge8" class="edge"><title>Node15&#45;&gt;Node18</title>
<path fill="none" stroke="midnightblue" d="M258.5,-101.805C258.5,-92.9102 258.5,-82.7798 258.5,-75.7511"/>
<polygon fill="midnightblue" stroke="midnightblue" points="255,-102.083 258.5,-112.083 262,-102.083 255,-102.083"/>
</g>
<!-- Node16&#45;&gt;Node17 -->
<g id="edge6" class="edge"><title>Node16&#45;&gt;Node17</title>
<path fill="none" stroke="midnightblue" d="M113.922,-48.144C121.414,-38.7357 130.437,-27.4046 136.532,-19.7511"/>
<polygon fill="midnightblue" stroke="midnightblue" points="111.092,-46.0799 107.601,-56.083 116.568,-50.4404 111.092,-46.0799"/>
</g>
<!-- Node21 -->
<g id="node11" class="node"><title>Node21</title>
<g id="a_node11"><a xlink:href="UIcanvas_8h.html" target="_top" xlink:title="include/UIcanvas.h">
<polygon fill="white" stroke="black" points="761,-112.5 761,-131.5 862,-131.5 862,-112.5 761,-112.5"/>
<text text-anchor="middle" x="811.5" y="-119.5" font-family="Helvetica,sans-Serif" font-size="10.00">include/UIcanvas.h</text>
</a>
</g>
</g>
<!-- Node20&#45;&gt;Node21 -->
<g id="edge11" class="edge"><title>Node20&#45;&gt;Node21</title>
<path fill="none" stroke="midnightblue" d="M844.079,-160.431C835.842,-150.967 825.846,-139.483 819.117,-131.751"/>
<polygon fill="midnightblue" stroke="midnightblue" points="841.534,-162.838 850.739,-168.083 846.814,-158.242 841.534,-162.838"/>
</g>
<!-- Node22 -->
<g id="node12" class="node"><title>Node22</title>
<g id="a_node12"><a xlink:href="UIgridGroup_8h.html" target="_top" xlink:title="include/UIgridGroup.h">
<polygon fill="white" stroke="black" points="695,-56.5 695,-75.5 806,-75.5 806,-56.5 695,-56.5"/>
<text text-anchor="middle" x="750.5" y="-63.5" font-family="Helvetica,sans-Serif" font-size="10.00">include/UIgridGroup.h</text>
</a>
</g>
</g>
<!-- Node20&#45;&gt;Node22 -->
<g id="edge19" class="edge"><title>Node20&#45;&gt;Node22</title>
<path fill="none" stroke="midnightblue" d="M798.889,-165.336C780.64,-158.691 762.498,-148.283 751.5,-132 740.003,-114.978 744.348,-89.3062 747.82,-75.8869"/>
<polygon fill="midnightblue" stroke="midnightblue" points="797.812,-168.666 808.405,-168.479 800.007,-162.019 797.812,-168.666"/>
</g>
<!-- Node24 -->
<g id="node14" class="node"><title>Node24</title>
<g id="a_node14"><a xlink:href="UIhorizontalGroup_8h.html" target="_top" xlink:title="include/UIhorizontalGroup.h">
<polygon fill="white" stroke="black" points="937,-56.5 937,-75.5 1074,-75.5 1074,-56.5 937,-56.5"/>
<text text-anchor="middle" x="1005.5" y="-63.5" font-family="Helvetica,sans-Serif" font-size="10.00">include/UIhorizontalGroup.h</text>
</a>
</g>
</g>
<!-- Node20&#45;&gt;Node24 -->
<g id="edge20" class="edge"><title>Node20&#45;&gt;Node24</title>
<path fill="none" stroke="midnightblue" d="M920.331,-167.248C943.47,-160.752 968.289,-149.95 985.5,-132 1000.54,-116.319 1004.29,-89.6003 1005.21,-75.8115"/>
<polygon fill="midnightblue" stroke="midnightblue" points="919.351,-163.886 910.544,-169.776 921.102,-170.663 919.351,-163.886"/>
</g>
<!-- Node26 -->
<g id="node16" class="node"><title>Node26</title>
<g id="a_node16"><a xlink:href="UIverticalGroup_8h.html" target="_top" xlink:title="include/UIverticalGroup.h">
<polygon fill="white" stroke="black" points="550,-56.5 550,-75.5 677,-75.5 677,-56.5 550,-56.5"/>
<text text-anchor="middle" x="613.5" y="-63.5" font-family="Helvetica,sans-Serif" font-size="10.00">include/UIverticalGroup.h</text>
</a>
</g>
</g>
<!-- Node20&#45;&gt;Node26 -->
<g id="edge29" class="edge"><title>Node20&#45;&gt;Node26</title>
<path fill="none" stroke="midnightblue" d="M824.46,-164.958C800.911,-156.373 768.991,-144.228 741.5,-132 700.055,-113.565 652.844,-88.4891 629.014,-75.5326"/>
<polygon fill="midnightblue" stroke="midnightblue" points="823.408,-168.299 834.002,-168.409 825.789,-161.717 823.408,-168.299"/>
</g>
<!-- Node20&#45;&gt;Node29 -->
<g id="edge21" class="edge"><title>Node20&#45;&gt;Node29</title>
<path fill="none" stroke="midnightblue" d="M903.561,-166.088C945.691,-155.887 1007.74,-140.861 1046.33,-131.516"/>
<polygon fill="midnightblue" stroke="midnightblue" points="902.73,-162.688 893.835,-168.444 904.378,-169.492 902.73,-162.688"/>
</g>
<!-- Node33 -->
<g id="node23" class="node"><title>Node33</title>
<g id="a_node23"><a xlink:href="UItext_8h.html" target="_top" xlink:title="include/UItext.h">
<polygon fill="white" stroke="black" points="431.5,-112.5 431.5,-131.5 517.5,-131.5 517.5,-112.5 431.5,-112.5"/>
<text text-anchor="middle" x="474.5" y="-119.5" font-family="Helvetica,sans-Serif" font-size="10.00">include/UItext.h</text>
</a>
</g>
</g>
<!-- Node20&#45;&gt;Node33 -->
<g id="edge25" class="edge"><title>Node20&#45;&gt;Node33</title>
<path fill="none" stroke="midnightblue" d="M796.105,-168.226C717.823,-157.217 585.626,-138.627 517.676,-129.072"/>
<polygon fill="midnightblue" stroke="midnightblue" points="795.922,-171.734 806.312,-169.661 796.897,-164.803 795.922,-171.734"/>
</g>
<!-- Node37 -->
<g id="node27" class="node"><title>Node37</title>
<g id="a_node27"><a xlink:href="UIelement_8cpp.html" target="_top" xlink:title="src/UIelement.cpp">
<polygon fill="white" stroke="black" points="880,-112.5 880,-131.5 977,-131.5 977,-112.5 880,-112.5"/>
<text text-anchor="middle" x="928.5" y="-119.5" font-family="Helvetica,sans-Serif" font-size="10.00">src/UIelement.cpp</text>
</a>
</g>
</g>
<!-- Node20&#45;&gt;Node37 -->
<g id="edge30" class="edge"><title>Node20&#45;&gt;Node37</title>
<path fill="none" stroke="midnightblue" d="M877.814,-162.101C890.412,-152.382 906.428,-140.027 917.049,-131.834"/>
<polygon fill="midnightblue" stroke="midnightblue" points="875.527,-159.445 869.747,-168.324 879.802,-164.987 875.527,-159.445"/>
</g>
<!-- Node21&#45;&gt;Node22 -->
<g id="edge12" class="edge"><title>Node21&#45;&gt;Node22</title>
<path fill="none" stroke="midnightblue" d="M794.033,-105.537C783.156,-95.9087 769.556,-83.8694 760.479,-75.8339"/>
<polygon fill="midnightblue" stroke="midnightblue" points="791.892,-108.316 801.699,-112.324 796.532,-103.075 791.892,-108.316"/>
</g>
<!-- Node21&#45;&gt;Node24 -->
<g id="edge14" class="edge"><title>Node21&#45;&gt;Node24</title>
<path fill="none" stroke="midnightblue" d="M852.101,-109.699C888.715,-99.507 941.757,-84.7429 974.904,-75.5164"/>
<polygon fill="midnightblue" stroke="midnightblue" points="850.935,-106.39 842.24,-112.444 852.812,-113.134 850.935,-106.39"/>
</g>
<!-- Node21&#45;&gt;Node26 -->
<g id="edge16" class="edge"><title>Node21&#45;&gt;Node26</title>
<path fill="none" stroke="midnightblue" d="M770.062,-109.699C732.693,-99.507 678.557,-84.7429 644.727,-75.5164"/>
<polygon fill="midnightblue" stroke="midnightblue" points="769.558,-113.189 780.126,-112.444 771.4,-106.436 769.558,-113.189"/>
</g>
<!-- Node28 -->
<g id="node18" class="node"><title>Node28</title>
<g id="a_node18"><a xlink:href="UIcanvas_8cpp.html" target="_top" xlink:title="src/UIcanvas.cpp">
<polygon fill="white" stroke="black" points="824.5,-56.5 824.5,-75.5 918.5,-75.5 918.5,-56.5 824.5,-56.5"/>
<text text-anchor="middle" x="871.5" y="-63.5" font-family="Helvetica,sans-Serif" font-size="10.00">src/UIcanvas.cpp</text>
</a>
</g>
</g>
<!-- Node21&#45;&gt;Node28 -->
<g id="edge18" class="edge"><title>Node21&#45;&gt;Node28</title>
<path fill="none" stroke="midnightblue" d="M828.681,-105.537C839.379,-95.9087 852.756,-83.8694 861.685,-75.8339"/>
<polygon fill="midnightblue" stroke="midnightblue" points="826.232,-103.033 821.14,-112.324 830.914,-108.236 826.232,-103.033"/>
</g>
<!-- Node23 -->
<g id="node13" class="node"><title>Node23</title>
<g id="a_node13"><a xlink:href="UIgridGroup_8cpp.html" target="_top" xlink:title="src/UIgridGroup.cpp">
<polygon fill="white" stroke="black" points="698.5,-0.5 698.5,-19.5 802.5,-19.5 802.5,-0.5 698.5,-0.5"/>
<text text-anchor="middle" x="750.5" y="-7.5" font-family="Helvetica,sans-Serif" font-size="10.00">src/UIgridGroup.cpp</text>
</a>
</g>
</g>
<!-- Node22&#45;&gt;Node23 -->
<g id="edge13" class="edge"><title>Node22&#45;&gt;Node23</title>
<path fill="none" stroke="midnightblue" d="M750.5,-45.8045C750.5,-36.9102 750.5,-26.7798 750.5,-19.7511"/>
<polygon fill="midnightblue" stroke="midnightblue" points="747,-46.083 750.5,-56.083 754,-46.083 747,-46.083"/>
</g>
<!-- Node25 -->
<g id="node15" class="node"><title>Node25</title>
<g id="a_node15"><a xlink:href="UIhorizontalGroup_8cpp.html" target="_top" xlink:title="src/UIhorizontalGroup.cpp">
<polygon fill="white" stroke="black" points="940,-0.5 940,-19.5 1071,-19.5 1071,-0.5 940,-0.5"/>
<text text-anchor="middle" x="1005.5" y="-7.5" font-family="Helvetica,sans-Serif" font-size="10.00">src/UIhorizontalGroup.cpp</text>
</a>
</g>
</g>
<!-- Node24&#45;&gt;Node25 -->
<g id="edge15" class="edge"><title>Node24&#45;&gt;Node25</title>
<path fill="none" stroke="midnightblue" d="M1005.5,-45.8045C1005.5,-36.9102 1005.5,-26.7798 1005.5,-19.7511"/>
<polygon fill="midnightblue" stroke="midnightblue" points="1002,-46.083 1005.5,-56.083 1009,-46.083 1002,-46.083"/>
</g>
<!-- Node27 -->
<g id="node17" class="node"><title>Node27</title>
<g id="a_node17"><a xlink:href="UIverticalGroup_8cpp.html" target="_top" xlink:title="src/UIverticalGroup.cpp">
<polygon fill="white" stroke="black" points="553.5,-0.5 553.5,-19.5 673.5,-19.5 673.5,-0.5 553.5,-0.5"/>
<text text-anchor="middle" x="613.5" y="-7.5" font-family="Helvetica,sans-Serif" font-size="10.00">src/UIverticalGroup.cpp</text>
</a>
</g>
</g>
<!-- Node26&#45;&gt;Node27 -->
<g id="edge17" class="edge"><title>Node26&#45;&gt;Node27</title>
<path fill="none" stroke="midnightblue" d="M613.5,-45.8045C613.5,-36.9102 613.5,-26.7798 613.5,-19.7511"/>
<polygon fill="midnightblue" stroke="midnightblue" points="610,-46.083 613.5,-56.083 617,-46.083 610,-46.083"/>
</g>
<!-- Node29&#45;&gt;Node30 -->
<g id="edge22" class="edge"><title>Node29&#45;&gt;Node30</title>
<path fill="none" stroke="midnightblue" d="M1119.83,-109.436C1153.58,-99.2551 1201.95,-84.664 1232.27,-75.5164"/>
<polygon fill="midnightblue" stroke="midnightblue" points="1118.43,-106.204 1109.86,-112.444 1120.45,-112.906 1118.43,-106.204"/>
</g>
<!-- Node32 -->
<g id="node22" class="node"><title>Node32</title>
<g id="a_node22"><a xlink:href="UIimage_8cpp.html" target="_top" xlink:title="src/UIimage.cpp">
<polygon fill="white" stroke="black" points="1092,-56.5 1092,-75.5 1181,-75.5 1181,-56.5 1092,-56.5"/>
<text text-anchor="middle" x="1136.5" y="-63.5" font-family="Helvetica,sans-Serif" font-size="10.00">src/UIimage.cpp</text>
</a>
</g>
</g>
<!-- Node29&#45;&gt;Node32 -->
<g id="edge24" class="edge"><title>Node29&#45;&gt;Node32</title>
<path fill="none" stroke="midnightblue" d="M1097.79,-105.002C1107.54,-95.4329 1119.55,-83.6389 1127.59,-75.7511"/>
<polygon fill="midnightblue" stroke="midnightblue" points="1095.27,-102.58 1090.58,-112.083 1100.17,-107.575 1095.27,-102.58"/>
</g>
<!-- Node31 -->
<g id="node21" class="node"><title>Node31</title>
<g id="a_node21"><a xlink:href="UIimageButton_8cpp.html" target="_top" xlink:title="src/UIimageButton.cpp">
<polygon fill="white" stroke="black" points="1202,-0.5 1202,-19.5 1319,-19.5 1319,-0.5 1202,-0.5"/>
<text text-anchor="middle" x="1260.5" y="-7.5" font-family="Helvetica,sans-Serif" font-size="10.00">src/UIimageButton.cpp</text>
</a>
</g>
</g>
<!-- Node30&#45;&gt;Node31 -->
<g id="edge23" class="edge"><title>Node30&#45;&gt;Node31</title>
<path fill="none" stroke="midnightblue" d="M1260.5,-45.8045C1260.5,-36.9102 1260.5,-26.7798 1260.5,-19.7511"/>
<polygon fill="midnightblue" stroke="midnightblue" points="1257,-46.083 1260.5,-56.083 1264,-46.083 1257,-46.083"/>
</g>
<!-- Node34 -->
<g id="node24" class="node"><title>Node34</title>
<g id="a_node24"><a xlink:href="UItextButton_8h.html" target="_top" xlink:title="include/UItextButton.h">
<polygon fill="white" stroke="black" points="417.5,-56.5 417.5,-75.5 531.5,-75.5 531.5,-56.5 417.5,-56.5"/>
<text text-anchor="middle" x="474.5" y="-63.5" font-family="Helvetica,sans-Serif" font-size="10.00">include/UItextButton.h</text>
</a>
</g>
</g>
<!-- Node33&#45;&gt;Node34 -->
<g id="edge26" class="edge"><title>Node33&#45;&gt;Node34</title>
<path fill="none" stroke="midnightblue" d="M474.5,-101.805C474.5,-92.9102 474.5,-82.7798 474.5,-75.7511"/>
<polygon fill="midnightblue" stroke="midnightblue" points="471,-102.083 474.5,-112.083 478,-102.083 471,-102.083"/>
</g>
<!-- Node36 -->
<g id="node26" class="node"><title>Node36</title>
<g id="a_node26"><a xlink:href="UItext_8cpp.html" target="_top" xlink:title="src/UItext.cpp">
<polygon fill="white" stroke="black" points="320,-56.5 320,-75.5 399,-75.5 399,-56.5 320,-56.5"/>
<text text-anchor="middle" x="359.5" y="-63.5" font-family="Helvetica,sans-Serif" font-size="10.00">src/UItext.cpp</text>
</a>
</g>
</g>
<!-- Node33&#45;&gt;Node36 -->
<g id="edge28" class="edge"><title>Node33&#45;&gt;Node36</title>
<path fill="none" stroke="midnightblue" d="M447.019,-108.096C425.534,-98.0073 396.278,-84.2697 377.637,-75.5164"/>
<polygon fill="midnightblue" stroke="midnightblue" points="445.738,-111.361 456.278,-112.444 448.714,-105.025 445.738,-111.361"/>
</g>
<!-- Node35 -->
<g id="node25" class="node"><title>Node35</title>
<g id="a_node25"><a xlink:href="UItextButton_8cpp.html" target="_top" xlink:title="src/UItextButton.cpp">
<polygon fill="white" stroke="black" points="421,-0.5 421,-19.5 528,-19.5 528,-0.5 421,-0.5"/>
<text text-anchor="middle" x="474.5" y="-7.5" font-family="Helvetica,sans-Serif" font-size="10.00">src/UItextButton.cpp</text>
</a>
</g>
</g>
<!-- Node34&#45;&gt;Node35 -->
<g id="edge27" class="edge"><title>Node34&#45;&gt;Node35</title>
<path fill="none" stroke="midnightblue" d="M474.5,-45.8045C474.5,-36.9102 474.5,-26.7798 474.5,-19.7511"/>
<polygon fill="midnightblue" stroke="midnightblue" points="471,-46.083 474.5,-56.083 478,-46.083 471,-46.083"/>
</g>
</g>
</svg>
