<?xml version="1.0" encoding="UTF-8" standalone="no"?>
<!DOCTYPE svg PUBLIC "-//W3C//DTD SVG 1.1//EN"
 "http://www.w3.org/Graphics/SVG/1.1/DTD/svg11.dtd">
<!-- Generated by graphviz version 2.38.0 (20140413.2041)
 -->
<!-- Title: src/Sprite.cpp Pages: 1 -->
<svg width="885pt" height="364pt"
 viewBox="0.00 0.00 884.67 364.00" xmlns="http://www.w3.org/2000/svg" xmlns:xlink="http://www.w3.org/1999/xlink">
<g id="graph0" class="graph" transform="scale(1 1) rotate(0) translate(4 360)">
<title>src/Sprite.cpp</title>
<polygon fill="white" stroke="none" points="-4,4 -4,-360 880.668,-360 880.668,4 -4,4"/>
<!-- Node0 -->
<g id="node1" class="node"><title>Node0</title>
<polygon fill="#bfbfbf" stroke="black" points="234.5,-336.5 234.5,-355.5 311.5,-355.5 311.5,-336.5 234.5,-336.5"/>
<text text-anchor="middle" x="273" y="-343.5" font-family="Helvetica,sans-Serif" font-size="10.00">src/Sprite.cpp</text>
</g>
<!-- Node1 -->
<g id="node2" class="node"><title>Node1</title>
<g id="a_node2"><a xlink:href="Sprite_8h.html" target="_top" xlink:title="Sprite.h">
<polygon fill="white" stroke="black" points="337,-168.5 337,-187.5 387,-187.5 387,-168.5 337,-168.5"/>
<text text-anchor="middle" x="362" y="-175.5" font-family="Helvetica,sans-Serif" font-size="10.00">Sprite.h</text>
</a>
</g>
</g>
<!-- Node0&#45;&gt;Node1 -->
<g id="edge1" class="edge"><title>Node0&#45;&gt;Node1</title>
<path fill="none" stroke="midnightblue" d="M277.785,-336.075C291.916,-309.719 333.65,-231.878 352.531,-196.661"/>
<polygon fill="midnightblue" stroke="midnightblue" points="355.766,-198.035 357.406,-187.568 349.596,-194.728 355.766,-198.035"/>
</g>
<!-- Node12 -->
<g id="node13" class="node"><title>Node12</title>
<g id="a_node13"><a xlink:href="Camera_8h.html" target="_top" xlink:title="Camera.h">
<polygon fill="white" stroke="black" points="623.5,-224.5 623.5,-243.5 682.5,-243.5 682.5,-224.5 623.5,-224.5"/>
<text text-anchor="middle" x="653" y="-231.5" font-family="Helvetica,sans-Serif" font-size="10.00">Camera.h</text>
</a>
</g>
</g>
<!-- Node0&#45;&gt;Node12 -->
<g id="edge17" class="edge"><title>Node0&#45;&gt;Node12</title>
<path fill="none" stroke="midnightblue" d="M302.502,-336.46C370.341,-316.822 537.445,-268.45 613.799,-246.348"/>
<polygon fill="midnightblue" stroke="midnightblue" points="614.885,-249.677 623.517,-243.535 612.938,-242.953 614.885,-249.677"/>
</g>
<!-- Node18 -->
<g id="node19" class="node"><title>Node18</title>
<g id="a_node19"><a xlink:href="Error_8h.html" target="_top" xlink:title="Error.h">
<polygon fill="white" stroke="black" points="70,-280.5 70,-299.5 116,-299.5 116,-280.5 70,-280.5"/>
<text text-anchor="middle" x="93" y="-287.5" font-family="Helvetica,sans-Serif" font-size="10.00">Error.h</text>
</a>
</g>
</g>
<!-- Node0&#45;&gt;Node18 -->
<g id="edge31" class="edge"><title>Node0&#45;&gt;Node18</title>
<path fill="none" stroke="midnightblue" d="M244.478,-336.444C212.317,-326.795 160.091,-311.127 126.143,-300.943"/>
<polygon fill="midnightblue" stroke="midnightblue" points="126.821,-297.492 116.237,-297.971 124.809,-304.197 126.821,-297.492"/>
</g>
<!-- Node21 -->
<g id="node22" class="node"><title>Node21</title>
<g id="a_node22"><a xlink:href="Game_8h.html" target="_top" xlink:title="Game.h">
<polygon fill="white" stroke="black" points="343.5,-280.5 343.5,-299.5 394.5,-299.5 394.5,-280.5 343.5,-280.5"/>
<text text-anchor="middle" x="369" y="-287.5" font-family="Helvetica,sans-Serif" font-size="10.00">Game.h</text>
</a>
</g>
</g>
<!-- Node0&#45;&gt;Node21 -->
<g id="edge34" class="edge"><title>Node0&#45;&gt;Node21</title>
<path fill="none" stroke="midnightblue" d="M288.424,-336.324C303.54,-327.822 326.815,-314.729 344.471,-304.797"/>
<polygon fill="midnightblue" stroke="midnightblue" points="346.614,-307.608 353.614,-299.655 343.183,-301.507 346.614,-307.608"/>
</g>
<!-- Node24 -->
<g id="node25" class="node"><title>Node24</title>
<g id="a_node25"><a xlink:href="Resources_8h.html" target="_top" xlink:title="Resources.h">
<polygon fill="white" stroke="black" points="204,-168.5 204,-187.5 276,-187.5 276,-168.5 204,-168.5"/>
<text text-anchor="middle" x="240" y="-175.5" font-family="Helvetica,sans-Serif" font-size="10.00">Resources.h</text>
</a>
</g>
</g>
<!-- Node0&#45;&gt;Node24 -->
<g id="edge50" class="edge"><title>Node0&#45;&gt;Node24</title>
<path fill="none" stroke="midnightblue" d="M269.939,-336.476C266.813,-327.501 262.005,-312.91 259,-300 250.673,-264.225 244.933,-221.639 242.08,-197.721"/>
<polygon fill="midnightblue" stroke="midnightblue" points="245.534,-197.125 240.912,-187.591 238.58,-197.926 245.534,-197.125"/>
</g>
<!-- Node2 -->
<g id="node3" class="node"><title>Node2</title>
<g id="a_node3"><a xlink:href="SDL__include_8h.html" target="_top" xlink:title="SDL_include.h">
<polygon fill="white" stroke="black" points="371,-0.5 371,-19.5 451,-19.5 451,-0.5 371,-0.5"/>
<text text-anchor="middle" x="411" y="-7.5" font-family="Helvetica,sans-Serif" font-size="10.00">SDL_include.h</text>
</a>
</g>
</g>
<!-- Node1&#45;&gt;Node2 -->
<g id="edge2" class="edge"><title>Node1&#45;&gt;Node2</title>
<path fill="none" stroke="midnightblue" d="M364.569,-168.165C368.21,-155.657 375.085,-132.074 381,-112 389.507,-83.1314 399.471,-49.6511 405.505,-29.4115"/>
<polygon fill="midnightblue" stroke="midnightblue" points="408.914,-30.2262 408.419,-19.6429 402.207,-28.2252 408.914,-30.2262"/>
</g>
<!-- Node3 -->
<g id="node4" class="node"><title>Node3</title>
<polygon fill="white" stroke="#bfbfbf" points="254.5,-112.5 254.5,-131.5 295.5,-131.5 295.5,-112.5 254.5,-112.5"/>
<text text-anchor="middle" x="275" y="-119.5" font-family="Helvetica,sans-Serif" font-size="10.00">string</text>
</g>
<!-- Node1&#45;&gt;Node3 -->
<g id="edge3" class="edge"><title>Node1&#45;&gt;Node3</title>
<path fill="none" stroke="midnightblue" d="M348.022,-168.324C334.45,-159.9 313.62,-146.971 297.675,-137.074"/>
<polygon fill="midnightblue" stroke="midnightblue" points="299.286,-133.954 288.943,-131.655 295.594,-139.902 299.286,-133.954"/>
</g>
<!-- Node4 -->
<g id="node5" class="node"><title>Node4</title>
<polygon fill="white" stroke="#bfbfbf" points="390,-112.5 390,-131.5 442,-131.5 442,-112.5 390,-112.5"/>
<text text-anchor="middle" x="416" y="-119.5" font-family="Helvetica,sans-Serif" font-size="10.00">memory</text>
</g>
<!-- Node1&#45;&gt;Node4 -->
<g id="edge4" class="edge"><title>Node1&#45;&gt;Node4</title>
<path fill="none" stroke="midnightblue" d="M370.917,-168.083C378.78,-160.22 390.431,-148.569 399.919,-139.081"/>
<polygon fill="midnightblue" stroke="midnightblue" points="402.653,-141.297 407.249,-131.751 397.703,-136.347 402.653,-141.297"/>
</g>
<!-- Node5 -->
<g id="node6" class="node"><title>Node5</title>
<g id="a_node6"><a xlink:href="Color_8h.html" target="_top" xlink:title="Color.h">
<polygon fill="white" stroke="black" points="316,-56.5 316,-75.5 364,-75.5 364,-56.5 316,-56.5"/>
<text text-anchor="middle" x="340" y="-63.5" font-family="Helvetica,sans-Serif" font-size="10.00">Color.h</text>
</a>
</g>
</g>
<!-- Node1&#45;&gt;Node5 -->
<g id="edge5" class="edge"><title>Node1&#45;&gt;Node5</title>
<path fill="none" stroke="midnightblue" d="M358.852,-168.495C355.655,-159.536 350.789,-144.958 348,-132 344.706,-116.697 342.641,-99.0552 341.436,-86.0154"/>
<polygon fill="midnightblue" stroke="midnightblue" points="344.913,-85.588 340.589,-75.9154 337.937,-86.1729 344.913,-85.588"/>
</g>
<!-- Node6 -->
<g id="node7" class="node"><title>Node6</title>
<g id="a_node7"><a xlink:href="Rect_8h.html" target="_top" xlink:title="Rect.h">
<polygon fill="white" stroke="black" points="562,-112.5 562,-131.5 608,-131.5 608,-112.5 562,-112.5"/>
<text text-anchor="middle" x="585" y="-119.5" font-family="Helvetica,sans-Serif" font-size="10.00">Rect.h</text>
</a>
</g>
</g>
<!-- Node1&#45;&gt;Node6 -->
<g id="edge7" class="edge"><title>Node1&#45;&gt;Node6</title>
<path fill="none" stroke="midnightblue" d="M387.113,-171.443C421.923,-163.663 487.028,-148.835 551.965,-132.185"/>
<polygon fill="midnightblue" stroke="midnightblue" points="553.151,-135.494 561.96,-129.607 551.403,-128.715 553.151,-135.494"/>
</g>
<!-- Node9 -->
<g id="node10" class="node"><title>Node9</title>
<g id="a_node10"><a xlink:href="InputManager_8h.html" target="_top" xlink:title="InputManager.h">
<polygon fill="white" stroke="black" points="460,-112.5 460,-131.5 544,-131.5 544,-112.5 460,-112.5"/>
<text text-anchor="middle" x="502" y="-119.5" font-family="Helvetica,sans-Serif" font-size="10.00">InputManager.h</text>
</a>
</g>
</g>
<!-- Node1&#45;&gt;Node9 -->
<g id="edge12" class="edge"><title>Node1&#45;&gt;Node9</title>
<path fill="none" stroke="midnightblue" d="M384.183,-168.444C407.428,-159.478 444.149,-145.314 470.415,-135.183"/>
<polygon fill="midnightblue" stroke="midnightblue" points="471.85,-138.381 479.92,-131.516 469.331,-131.85 471.85,-138.381"/>
</g>
<!-- Node5&#45;&gt;Node2 -->
<g id="edge6" class="edge"><title>Node5&#45;&gt;Node2</title>
<path fill="none" stroke="midnightblue" d="M351.407,-56.324C362.109,-48.1849 378.341,-35.8395 391.163,-26.0874"/>
<polygon fill="midnightblue" stroke="midnightblue" points="393.544,-28.6734 399.385,-19.8339 389.307,-23.1018 393.544,-28.6734"/>
</g>
<!-- Node6&#45;&gt;Node2 -->
<g id="edge8" class="edge"><title>Node6&#45;&gt;Node2</title>
<path fill="none" stroke="midnightblue" d="M586.388,-112.19C588.027,-98.402 588.976,-71.6852 575,-56 546.634,-24.1639 498.078,-13.9265 461.14,-11.0504"/>
<polygon fill="midnightblue" stroke="midnightblue" points="461.255,-7.55081 451.057,-10.4225 460.82,-14.5373 461.255,-7.55081"/>
</g>
<!-- Node7 -->
<g id="node8" class="node"><title>Node7</title>
<g id="a_node8"><a xlink:href="Vec2_8h.html" target="_top" xlink:title="Vec2.h">
<polygon fill="white" stroke="black" points="622.5,-56.5 622.5,-75.5 669.5,-75.5 669.5,-56.5 622.5,-56.5"/>
<text text-anchor="middle" x="646" y="-63.5" font-family="Helvetica,sans-Serif" font-size="10.00">Vec2.h</text>
</a>
</g>
</g>
<!-- Node6&#45;&gt;Node7 -->
<g id="edge9" class="edge"><title>Node6&#45;&gt;Node7</title>
<path fill="none" stroke="midnightblue" d="M594.801,-112.324C603.818,-104.341 617.406,-92.3128 628.318,-82.6529"/>
<polygon fill="midnightblue" stroke="midnightblue" points="630.853,-85.083 636.021,-75.8339 626.213,-79.8416 630.853,-85.083"/>
</g>
<!-- Node8 -->
<g id="node9" class="node"><title>Node8</title>
<polygon fill="white" stroke="#bfbfbf" points="522,-56.5 522,-75.5 566,-75.5 566,-56.5 522,-56.5"/>
<text text-anchor="middle" x="544" y="-63.5" font-family="Helvetica,sans-Serif" font-size="10.00">cmath</text>
</g>
<!-- Node6&#45;&gt;Node8 -->
<g id="edge11" class="edge"><title>Node6&#45;&gt;Node8</title>
<path fill="none" stroke="midnightblue" d="M578.23,-112.083C572.438,-104.455 563.942,-93.2645 556.862,-83.9408"/>
<polygon fill="midnightblue" stroke="midnightblue" points="559.479,-81.5991 550.644,-75.7511 553.904,-85.8321 559.479,-81.5991"/>
</g>
<!-- Node7&#45;&gt;Node2 -->
<g id="edge10" class="edge"><title>Node7&#45;&gt;Node2</title>
<path fill="none" stroke="midnightblue" d="M622.29,-59.3537C617.558,-58.2355 612.622,-57.0753 608,-56 557.077,-44.1539 498.683,-30.8501 458.772,-21.8002"/>
<polygon fill="midnightblue" stroke="midnightblue" points="459.313,-18.3342 448.787,-19.5374 457.766,-25.1611 459.313,-18.3342"/>
</g>
<!-- Node9&#45;&gt;Node2 -->
<g id="edge13" class="edge"><title>Node9&#45;&gt;Node2</title>
<path fill="none" stroke="midnightblue" d="M489.596,-112.369C478.135,-103.981 461.101,-90.4271 449,-76 436.817,-61.475 426.242,-42.5456 419.363,-28.8641"/>
<polygon fill="midnightblue" stroke="midnightblue" points="422.374,-27.0518 414.857,-19.5846 416.076,-30.1091 422.374,-27.0518"/>
</g>
<!-- Node9&#45;&gt;Node7 -->
<g id="edge14" class="edge"><title>Node9&#45;&gt;Node7</title>
<path fill="none" stroke="midnightblue" d="M524.817,-112.444C548.832,-103.438 586.829,-89.1891 613.869,-79.049"/>
<polygon fill="midnightblue" stroke="midnightblue" points="615.155,-82.3049 623.29,-75.5164 612.697,-75.7506 615.155,-82.3049"/>
</g>
<!-- Node10 -->
<g id="node11" class="node"><title>Node10</title>
<polygon fill="white" stroke="#bfbfbf" points="214.5,-56.5 214.5,-75.5 297.5,-75.5 297.5,-56.5 214.5,-56.5"/>
<text text-anchor="middle" x="256" y="-63.5" font-family="Helvetica,sans-Serif" font-size="10.00">unordered_map</text>
</g>
<!-- Node9&#45;&gt;Node10 -->
<g id="edge15" class="edge"><title>Node9&#45;&gt;Node10</title>
<path fill="none" stroke="midnightblue" d="M463.021,-112.444C420.106,-103.023 351.054,-87.8656 304.631,-77.6752"/>
<polygon fill="midnightblue" stroke="midnightblue" points="305.315,-74.242 294.797,-75.5164 303.814,-81.0792 305.315,-74.242"/>
</g>
<!-- Node11 -->
<g id="node12" class="node"><title>Node11</title>
<polygon fill="white" stroke="#bfbfbf" points="458,-56.5 458,-75.5 504,-75.5 504,-56.5 458,-56.5"/>
<text text-anchor="middle" x="481" y="-63.5" font-family="Helvetica,sans-Serif" font-size="10.00">cstdint</text>
</g>
<!-- Node9&#45;&gt;Node11 -->
<g id="edge16" class="edge"><title>Node9&#45;&gt;Node11</title>
<path fill="none" stroke="midnightblue" d="M498.532,-112.083C495.688,-104.77 491.571,-94.1814 488.04,-85.1034"/>
<polygon fill="midnightblue" stroke="midnightblue" points="491.29,-83.8025 484.403,-75.7511 484.766,-86.3397 491.29,-83.8025"/>
</g>
<!-- Node12&#45;&gt;Node7 -->
<g id="edge28" class="edge"><title>Node12&#45;&gt;Node7</title>
<path fill="none" stroke="midnightblue" d="M682.725,-227.427C749.045,-213.721 899.437,-174.842 849,-112 838.413,-98.8091 734.522,-80.8131 679.62,-72.118"/>
<polygon fill="midnightblue" stroke="midnightblue" points="680.074,-68.6466 669.653,-70.5565 678.991,-75.5622 680.074,-68.6466"/>
</g>
<!-- Node13 -->
<g id="node14" class="node"><title>Node13</title>
<g id="a_node14"><a xlink:href="GameObject_8h.html" target="_top" xlink:title="GameObject.h">
<polygon fill="white" stroke="black" points="665,-168.5 665,-187.5 745,-187.5 745,-168.5 665,-168.5"/>
<text text-anchor="middle" x="705" y="-175.5" font-family="Helvetica,sans-Serif" font-size="10.00">GameObject.h</text>
</a>
</g>
</g>
<!-- Node12&#45;&gt;Node13 -->
<g id="edge18" class="edge"><title>Node12&#45;&gt;Node13</title>
<path fill="none" stroke="midnightblue" d="M661.587,-224.083C669.159,-216.22 680.378,-204.569 689.514,-195.081"/>
<polygon fill="midnightblue" stroke="midnightblue" points="692.158,-197.382 696.573,-187.751 687.115,-192.527 692.158,-197.382"/>
</g>
<!-- Node17 -->
<g id="node18" class="node"><title>Node17</title>
<g id="a_node18"><a xlink:href="ActionManager_8h.html" target="_top" xlink:title="ActionManager.h">
<polygon fill="white" stroke="black" points="557,-168.5 557,-187.5 647,-187.5 647,-168.5 557,-168.5"/>
<text text-anchor="middle" x="602" y="-175.5" font-family="Helvetica,sans-Serif" font-size="10.00">ActionManager.h</text>
</a>
</g>
</g>
<!-- Node12&#45;&gt;Node17 -->
<g id="edge29" class="edge"><title>Node12&#45;&gt;Node17</title>
<path fill="none" stroke="midnightblue" d="M644.578,-224.083C637.152,-216.22 626.148,-204.569 617.188,-195.081"/>
<polygon fill="midnightblue" stroke="midnightblue" points="619.676,-192.618 610.265,-187.751 614.587,-197.424 619.676,-192.618"/>
</g>
<!-- Node13&#45;&gt;Node2 -->
<g id="edge19" class="edge"><title>Node13&#45;&gt;Node2</title>
<path fill="none" stroke="midnightblue" d="M705.993,-168.448C708.048,-146.271 710.165,-86.5172 678,-56 647.591,-27.1488 529.967,-16.6565 461.405,-12.9457"/>
<polygon fill="midnightblue" stroke="midnightblue" points="461.418,-9.44192 451.253,-12.4263 461.061,-16.4328 461.418,-9.44192"/>
</g>
<!-- Node13&#45;&gt;Node3 -->
<g id="edge22" class="edge"><title>Node13&#45;&gt;Node3</title>
<path fill="none" stroke="midnightblue" d="M664.924,-169.423C661.908,-168.919 658.908,-168.438 656,-168 526.232,-148.44 370.525,-132.332 305.678,-125.949"/>
<polygon fill="midnightblue" stroke="midnightblue" points="306.005,-122.465 295.712,-124.975 305.324,-129.432 306.005,-122.465"/>
</g>
<!-- Node13&#45;&gt;Node4 -->
<g id="edge21" class="edge"><title>Node13&#45;&gt;Node4</title>
<path fill="none" stroke="midnightblue" d="M664.893,-169.607C661.884,-169.061 658.894,-168.52 656,-168 568.064,-152.203 543.107,-151.56 452.223,-132.137"/>
<polygon fill="midnightblue" stroke="midnightblue" points="452.834,-128.688 442.321,-130.002 451.359,-135.531 452.834,-128.688"/>
</g>
<!-- Node13&#45;&gt;Node6 -->
<g id="edge27" class="edge"><title>Node13&#45;&gt;Node6</title>
<path fill="none" stroke="midnightblue" d="M685.986,-168.444C666.412,-159.636 635.692,-145.812 613.271,-135.722"/>
<polygon fill="midnightblue" stroke="midnightblue" points="614.481,-132.428 603.925,-131.516 611.608,-138.812 614.481,-132.428"/>
</g>
<!-- Node14 -->
<g id="node15" class="node"><title>Node14</title>
<polygon fill="white" stroke="#bfbfbf" points="626,-112.5 626,-131.5 670,-131.5 670,-112.5 626,-112.5"/>
<text text-anchor="middle" x="648" y="-119.5" font-family="Helvetica,sans-Serif" font-size="10.00">vector</text>
</g>
<!-- Node13&#45;&gt;Node14 -->
<g id="edge20" class="edge"><title>Node13&#45;&gt;Node14</title>
<path fill="none" stroke="midnightblue" d="M695.842,-168.324C687.499,-160.42 674.968,-148.548 664.823,-138.938"/>
<polygon fill="midnightblue" stroke="midnightblue" points="666.991,-136.171 657.325,-131.834 662.177,-141.252 666.991,-136.171"/>
</g>
<!-- Node15 -->
<g id="node16" class="node"><title>Node15</title>
<g id="a_node16"><a xlink:href="Component_8h.html" target="_top" xlink:title="Component.h">
<polygon fill="white" stroke="black" points="764.5,-112.5 764.5,-131.5 839.5,-131.5 839.5,-112.5 764.5,-112.5"/>
<text text-anchor="middle" x="802" y="-119.5" font-family="Helvetica,sans-Serif" font-size="10.00">Component.h</text>
</a>
</g>
</g>
<!-- Node13&#45;&gt;Node15 -->
<g id="edge23" class="edge"><title>Node13&#45;&gt;Node15</title>
<path fill="none" stroke="midnightblue" d="M715.47,-168.324C729.151,-159.664 752.998,-146.242 772.298,-136.249"/>
<polygon fill="midnightblue" stroke="midnightblue" points="774.013,-139.304 781.344,-131.655 770.843,-133.063 774.013,-139.304"/>
</g>
<!-- Node16 -->
<g id="node17" class="node"><title>Node16</title>
<g id="a_node17"><a xlink:href="ComponentType_8h.html" target="_top" xlink:title="ComponentType.h">
<polygon fill="white" stroke="black" points="739.5,-56.5 739.5,-75.5 836.5,-75.5 836.5,-56.5 739.5,-56.5"/>
<text text-anchor="middle" x="788" y="-63.5" font-family="Helvetica,sans-Serif" font-size="10.00">ComponentType.h</text>
</a>
</g>
</g>
<!-- Node13&#45;&gt;Node16 -->
<g id="edge26" class="edge"><title>Node13&#45;&gt;Node16</title>
<path fill="none" stroke="midnightblue" d="M711.513,-168.368C725.271,-150.135 757.497,-107.426 775.418,-83.6752"/>
<polygon fill="midnightblue" stroke="midnightblue" points="778.288,-85.6821 781.517,-75.5914 772.7,-81.4659 778.288,-85.6821"/>
</g>
<!-- Node15&#45;&gt;Node13 -->
<g id="edge25" class="edge"><title>Node15&#45;&gt;Node13</title>
<path fill="none" stroke="midnightblue" d="M791.564,-131.655C777.9,-140.307 754.058,-153.727 734.75,-163.726"/>
<polygon fill="midnightblue" stroke="midnightblue" points="733.03,-160.674 725.7,-168.324 736.2,-166.915 733.03,-160.674"/>
</g>
<!-- Node15&#45;&gt;Node16 -->
<g id="edge24" class="edge"><title>Node15&#45;&gt;Node16</title>
<path fill="none" stroke="midnightblue" d="M799.688,-112.083C797.833,-104.927 795.165,-94.6353 792.846,-85.6911"/>
<polygon fill="midnightblue" stroke="midnightblue" points="796.166,-84.5527 790.269,-75.7511 789.391,-86.3094 796.166,-84.5527"/>
</g>
<!-- Node17&#45;&gt;Node9 -->
<g id="edge30" class="edge"><title>Node17&#45;&gt;Node9</title>
<path fill="none" stroke="midnightblue" d="M585.933,-168.324C570.042,-159.743 545.493,-146.486 527.042,-136.522"/>
<polygon fill="midnightblue" stroke="midnightblue" points="528.489,-133.326 518.027,-131.655 525.163,-139.486 528.489,-133.326"/>
</g>
<!-- Node19 -->
<g id="node20" class="node"><title>Node19</title>
<polygon fill="white" stroke="#bfbfbf" points="66,-224.5 66,-243.5 120,-243.5 120,-224.5 66,-224.5"/>
<text text-anchor="middle" x="93" y="-231.5" font-family="Helvetica,sans-Serif" font-size="10.00">iostream</text>
</g>
<!-- Node18&#45;&gt;Node19 -->
<g id="edge32" class="edge"><title>Node18&#45;&gt;Node19</title>
<path fill="none" stroke="midnightblue" d="M93,-280.083C93,-273.006 93,-262.861 93,-253.986"/>
<polygon fill="midnightblue" stroke="midnightblue" points="96.5001,-253.751 93,-243.751 89.5001,-253.751 96.5001,-253.751"/>
</g>
<!-- Node20 -->
<g id="node21" class="node"><title>Node20</title>
<polygon fill="white" stroke="#bfbfbf" points="0,-224.5 0,-243.5 48,-243.5 48,-224.5 0,-224.5"/>
<text text-anchor="middle" x="24" y="-231.5" font-family="Helvetica,sans-Serif" font-size="10.00">stdlib.h</text>
</g>
<!-- Node18&#45;&gt;Node20 -->
<g id="edge33" class="edge"><title>Node18&#45;&gt;Node20</title>
<path fill="none" stroke="midnightblue" d="M81.914,-280.324C71.514,-272.185 55.7394,-259.839 43.2784,-250.087"/>
<polygon fill="midnightblue" stroke="midnightblue" points="45.3199,-247.241 35.2878,-243.834 41.0057,-252.753 45.3199,-247.241"/>
</g>
<!-- Node21&#45;&gt;Node2 -->
<g id="edge49" class="edge"><title>Node21&#45;&gt;Node2</title>
<path fill="none" stroke="midnightblue" d="M343.216,-287.908C284.919,-283.92 148,-265.359 148,-179 148,-179 148,-179 148,-121 148,-29.8885 284.001,-12.9322 360.405,-10.5952"/>
<polygon fill="midnightblue" stroke="midnightblue" points="360.853,-14.0858 370.77,-10.3562 360.692,-7.0877 360.853,-14.0858"/>
</g>
<!-- Node21&#45;&gt;Node3 -->
<g id="edge35" class="edge"><title>Node21&#45;&gt;Node3</title>
<path fill="none" stroke="midnightblue" d="M362.751,-280.207C356.485,-271.258 346.689,-256.907 339,-244 317.705,-208.253 295.601,-164.803 283.756,-140.908"/>
<polygon fill="midnightblue" stroke="midnightblue" points="286.766,-139.097 279.208,-131.673 280.487,-142.19 286.766,-139.097"/>
</g>
<!-- Node21&#45;&gt;Node7 -->
<g id="edge48" class="edge"><title>Node21&#45;&gt;Node7</title>
<path fill="none" stroke="midnightblue" d="M394.713,-286.864C483.185,-279.015 773.256,-249.007 840,-188 866.459,-163.816 889.678,-139.761 867,-112 855.199,-97.5539 738.514,-79.6804 679.628,-71.4864"/>
<polygon fill="midnightblue" stroke="midnightblue" points="680.065,-68.0137 669.682,-70.118 679.111,-74.9484 680.065,-68.0137"/>
</g>
<!-- Node21&#45;&gt;Node9 -->
<g id="edge47" class="edge"><title>Node21&#45;&gt;Node9</title>
<path fill="none" stroke="midnightblue" d="M394.609,-283.771C417.089,-277.869 449.069,-266.067 468,-244 493.247,-214.57 499.826,-167.694 501.489,-141.773"/>
<polygon fill="midnightblue" stroke="midnightblue" points="504.986,-141.917 501.949,-131.767 497.994,-141.596 504.986,-141.917"/>
</g>
<!-- Node22 -->
<g id="node23" class="node"><title>Node22</title>
<polygon fill="white" stroke="#bfbfbf" points="348.5,-224.5 348.5,-243.5 389.5,-243.5 389.5,-224.5 348.5,-224.5"/>
<text text-anchor="middle" x="369" y="-231.5" font-family="Helvetica,sans-Serif" font-size="10.00">stack</text>
</g>
<!-- Node21&#45;&gt;Node22 -->
<g id="edge36" class="edge"><title>Node21&#45;&gt;Node22</title>
<path fill="none" stroke="midnightblue" d="M369,-280.083C369,-273.006 369,-262.861 369,-253.986"/>
<polygon fill="midnightblue" stroke="midnightblue" points="372.5,-253.751 369,-243.751 365.5,-253.751 372.5,-253.751"/>
</g>
<!-- Node23 -->
<g id="node24" class="node"><title>Node23</title>
<g id="a_node24"><a xlink:href="State_8h.html" target="_top" xlink:title="State.h">
<polygon fill="white" stroke="black" points="411,-224.5 411,-243.5 459,-243.5 459,-224.5 411,-224.5"/>
<text text-anchor="middle" x="435" y="-231.5" font-family="Helvetica,sans-Serif" font-size="10.00">State.h</text>
</a>
</g>
</g>
<!-- Node21&#45;&gt;Node23 -->
<g id="edge37" class="edge"><title>Node21&#45;&gt;Node23</title>
<path fill="none" stroke="midnightblue" d="M379.604,-280.324C389.456,-272.263 404.351,-260.077 416.215,-250.369"/>
<polygon fill="midnightblue" stroke="midnightblue" points="418.68,-252.875 424.203,-243.834 414.247,-247.457 418.68,-252.875"/>
</g>
<!-- Node23&#45;&gt;Node4 -->
<g id="edge39" class="edge"><title>Node23&#45;&gt;Node4</title>
<path fill="none" stroke="midnightblue" d="M433.509,-224.368C430.443,-206.617 423.37,-165.666 419.212,-141.597"/>
<polygon fill="midnightblue" stroke="midnightblue" points="422.635,-140.85 417.484,-131.591 415.737,-142.041 422.635,-140.85"/>
</g>
<!-- Node23&#45;&gt;Node9 -->
<g id="edge40" class="edge"><title>Node23&#45;&gt;Node9</title>
<path fill="none" stroke="midnightblue" d="M440.257,-224.368C451.265,-206.296 476.92,-164.176 491.458,-140.307"/>
<polygon fill="midnightblue" stroke="midnightblue" points="494.554,-141.953 496.767,-131.591 488.576,-138.311 494.554,-141.953"/>
</g>
<!-- Node23&#45;&gt;Node13 -->
<g id="edge46" class="edge"><title>Node23&#45;&gt;Node13</title>
<path fill="none" stroke="midnightblue" d="M459.437,-228.113C503.399,-219.32 596.643,-200.671 654.739,-189.052"/>
<polygon fill="midnightblue" stroke="midnightblue" points="655.686,-192.432 664.805,-187.039 654.313,-185.568 655.686,-192.432"/>
</g>
<!-- Node23&#45;&gt;Node14 -->
<g id="edge38" class="edge"><title>Node23&#45;&gt;Node14</title>
<path fill="none" stroke="midnightblue" d="M449.021,-224.332C470.139,-211.415 511.523,-186.641 548,-168 571.164,-156.163 598.09,-144.142 618.162,-135.505"/>
<polygon fill="midnightblue" stroke="midnightblue" points="619.596,-138.699 627.419,-131.553 616.847,-132.261 619.596,-138.699"/>
</g>
<!-- Node23&#45;&gt;Node24 -->
<g id="edge41" class="edge"><title>Node23&#45;&gt;Node24</title>
<path fill="none" stroke="midnightblue" d="M410.697,-226.27C378.107,-217.245 319.803,-201.099 280.517,-190.22"/>
<polygon fill="midnightblue" stroke="midnightblue" points="281.291,-186.803 270.719,-187.507 279.423,-193.549 281.291,-186.803"/>
</g>
<!-- Node24&#45;&gt;Node2 -->
<g id="edge42" class="edge"><title>Node24&#45;&gt;Node2</title>
<path fill="none" stroke="midnightblue" d="M232.791,-168.352C215.86,-146.953 177.023,-90.7481 205,-56 224.195,-32.1591 306.211,-20.2637 360.786,-14.8804"/>
<polygon fill="midnightblue" stroke="midnightblue" points="361.345,-18.3433 370.972,-13.9193 360.688,-11.3743 361.345,-18.3433"/>
</g>
<!-- Node24&#45;&gt;Node3 -->
<g id="edge43" class="edge"><title>Node24&#45;&gt;Node3</title>
<path fill="none" stroke="midnightblue" d="M245.78,-168.083C250.672,-160.534 257.827,-149.495 263.833,-140.23"/>
<polygon fill="midnightblue" stroke="midnightblue" points="266.826,-142.046 269.328,-131.751 260.952,-138.239 266.826,-142.046"/>
</g>
<!-- Node24&#45;&gt;Node4 -->
<g id="edge45" class="edge"><title>Node24&#45;&gt;Node4</title>
<path fill="none" stroke="midnightblue" d="M267.888,-168.444C298.281,-159.118 346.999,-144.171 380.197,-133.985"/>
<polygon fill="midnightblue" stroke="midnightblue" points="381.431,-137.268 389.964,-130.988 379.377,-130.576 381.431,-137.268"/>
</g>
<!-- Node24&#45;&gt;Node10 -->
<g id="edge44" class="edge"><title>Node24&#45;&gt;Node10</title>
<path fill="none" stroke="midnightblue" d="M240.225,-168.115C240.648,-155.548 241.825,-131.894 245,-112 246.412,-103.155 248.677,-93.4883 250.786,-85.3896"/>
<polygon fill="midnightblue" stroke="midnightblue" points="254.217,-86.1104 253.47,-75.5419 247.464,-84.2695 254.217,-86.1104"/>
</g>
</g>
</svg>
