<?xml version="1.0" encoding="UTF-8" standalone="no"?>
<!DOCTYPE svg PUBLIC "-//W3C//DTD SVG 1.1//EN"
 "http://www.w3.org/Graphics/SVG/1.1/DTD/svg11.dtd">
<!-- Generated by graphviz version 2.40.1 (20161225.0304)
 -->
<!-- Title: include/Sprite.h Pages: 1 -->
<svg width="689pt" height="364pt"
 viewBox="0.00 0.00 688.50 364.00" xmlns="http://www.w3.org/2000/svg" xmlns:xlink="http://www.w3.org/1999/xlink">
<g id="graph0" class="graph" transform="scale(1 1) rotate(0) translate(4 360)">
<title>include/Sprite.h</title>
<polygon fill="#ffffff" stroke="transparent" points="-4,4 -4,-360 684.5,-360 684.5,4 -4,4"/>
<!-- Node0 -->
<g id="node1" class="node">
<title>Node0</title>
<polygon fill="#bfbfbf" stroke="#000000" points="251,-336.5 251,-355.5 335,-355.5 335,-336.5 251,-336.5"/>
<text text-anchor="middle" x="293" y="-343.5" font-family="Helvetica,sans-Serif" font-size="10.00" fill="#000000">include/Sprite.h</text>
</g>
<!-- Node1 -->
<g id="node2" class="node">
<title>Node1</title>
<g id="a_node2"><a xlink:href="SDL__include_8h.html" target="_top" xlink:title="SDL_include.h">
<polygon fill="#ffffff" stroke="#000000" points="134,-.5 134,-19.5 214,-19.5 214,-.5 134,-.5"/>
<text text-anchor="middle" x="174" y="-7.5" font-family="Helvetica,sans-Serif" font-size="10.00" fill="#000000">SDL_include.h</text>
</a>
</g>
</g>
<!-- Node0&#45;&gt;Node1 -->
<g id="edge1" class="edge">
<title>Node0&#45;&gt;Node1</title>
<path fill="none" stroke="#191970" d="M250.7643,-341.0501C192.2999,-333.6416 90.2607,-318.5382 58,-300 24.1416,-280.5437 0,-273.0505 0,-234 0,-234 0,-234 0,-122 0,-62.7232 72.2832,-33.3308 123.672,-19.9247"/>
<polygon fill="#191970" stroke="#191970" points="124.7797,-23.2562 133.6436,-17.4526 123.0951,-16.4619 124.7797,-23.2562"/>
</g>
<!-- Node2 -->
<g id="node3" class="node">
<title>Node2</title>
<polygon fill="#ffffff" stroke="#bfbfbf" points="426.5,-112.5 426.5,-131.5 467.5,-131.5 467.5,-112.5 426.5,-112.5"/>
<text text-anchor="middle" x="447" y="-119.5" font-family="Helvetica,sans-Serif" font-size="10.00" fill="#000000">string</text>
</g>
<!-- Node0&#45;&gt;Node2 -->
<g id="edge2" class="edge">
<title>Node0&#45;&gt;Node2</title>
<path fill="none" stroke="#191970" d="M304.7238,-336.3546C324.7529,-319.3929 365.9186,-282.3692 392,-244 414.6411,-210.692 431.8383,-166.5531 440.5828,-141.5238"/>
<polygon fill="#191970" stroke="#191970" points="443.9956,-142.3589 443.8999,-131.7645 437.3679,-140.1062 443.9956,-142.3589"/>
</g>
<!-- Node3 -->
<g id="node4" class="node">
<title>Node3</title>
<polygon fill="#ffffff" stroke="#bfbfbf" points="486,-112.5 486,-131.5 538,-131.5 538,-112.5 486,-112.5"/>
<text text-anchor="middle" x="512" y="-119.5" font-family="Helvetica,sans-Serif" font-size="10.00" fill="#000000">memory</text>
</g>
<!-- Node0&#45;&gt;Node3 -->
<g id="edge3" class="edge">
<title>Node0&#45;&gt;Node3</title>
<path fill="none" stroke="#191970" d="M312.1085,-336.4135C327.7876,-328.0307 350.0799,-314.8907 367,-300 424.4349,-249.4538 477.2612,-174.6322 500.0987,-140.3579"/>
<polygon fill="#191970" stroke="#191970" points="503.1449,-142.096 505.7237,-131.8198 497.2994,-138.2449 503.1449,-142.096"/>
</g>
<!-- Node4 -->
<g id="node5" class="node">
<title>Node4</title>
<g id="a_node5"><a xlink:href="Component_8h.html" target="_top" xlink:title="Component.h">
<polygon fill="#ffffff" stroke="#000000" points="292.5,-224.5 292.5,-243.5 367.5,-243.5 367.5,-224.5 292.5,-224.5"/>
<text text-anchor="middle" x="330" y="-231.5" font-family="Helvetica,sans-Serif" font-size="10.00" fill="#000000">Component.h</text>
</a>
</g>
</g>
<!-- Node0&#45;&gt;Node4 -->
<g id="edge4" class="edge">
<title>Node0&#45;&gt;Node4</title>
<path fill="none" stroke="#191970" d="M297.129,-336.2267C300.9623,-326.9806 306.7074,-312.6708 311,-300 316.2008,-284.6483 321.2357,-266.9904 324.8144,-253.8043"/>
<polygon fill="#191970" stroke="#191970" points="328.2531,-254.4928 327.4497,-243.9284 321.4897,-252.688 328.2531,-254.4928"/>
</g>
<!-- Node8 -->
<g id="node9" class="node">
<title>Node8</title>
<g id="a_node9"><a xlink:href="Rect_8h.html" target="_top" xlink:title="Rect.h">
<polygon fill="#ffffff" stroke="#000000" points="108,-112.5 108,-131.5 154,-131.5 154,-112.5 108,-112.5"/>
<text text-anchor="middle" x="131" y="-119.5" font-family="Helvetica,sans-Serif" font-size="10.00" fill="#000000">Rect.h</text>
</a>
</g>
</g>
<!-- Node0&#45;&gt;Node8 -->
<g id="edge21" class="edge">
<title>Node0&#45;&gt;Node8</title>
<path fill="none" stroke="#191970" d="M251.6637,-336.4192C207.4239,-323.6832 139.6175,-296.4066 110,-244 91.4123,-211.11 108.2521,-165.8668 120.6308,-140.7419"/>
<polygon fill="#191970" stroke="#191970" points="123.8825,-142.0748 125.389,-131.5876 117.6714,-138.8464 123.8825,-142.0748"/>
</g>
<!-- Node11 -->
<g id="node12" class="node">
<title>Node11</title>
<g id="a_node12"><a xlink:href="Color_8h.html" target="_top" xlink:title="Color.h">
<polygon fill="#ffffff" stroke="#000000" points="28,-168.5 28,-187.5 76,-187.5 76,-168.5 28,-168.5"/>
<text text-anchor="middle" x="52" y="-175.5" font-family="Helvetica,sans-Serif" font-size="10.00" fill="#000000">Color.h</text>
</a>
</g>
</g>
<!-- Node0&#45;&gt;Node11 -->
<g id="edge19" class="edge">
<title>Node0&#45;&gt;Node11</title>
<path fill="none" stroke="#191970" d="M250.5938,-342.4972C194.4999,-336.9725 99.9225,-324.2755 76,-300 49.0867,-272.6895 47.9667,-224.5439 49.8034,-197.6239"/>
<polygon fill="#191970" stroke="#191970" points="53.3033,-197.7801 50.7051,-187.5089 46.3309,-197.1586 53.3033,-197.7801"/>
</g>
<!-- Node12 -->
<g id="node13" class="node">
<title>Node12</title>
<g id="a_node13"><a xlink:href="RectTransform_8h.html" target="_top" xlink:title="RectTransform.h">
<polygon fill="#ffffff" stroke="#000000" points="212,-280.5 212,-299.5 302,-299.5 302,-280.5 212,-280.5"/>
<text text-anchor="middle" x="257" y="-287.5" font-family="Helvetica,sans-Serif" font-size="10.00" fill="#000000">RectTransform.h</text>
</a>
</g>
</g>
<!-- Node0&#45;&gt;Node12 -->
<g id="edge22" class="edge">
<title>Node0&#45;&gt;Node12</title>
<path fill="none" stroke="#191970" d="M286.7293,-336.2455C281.7736,-328.5367 274.717,-317.5598 268.7224,-308.2348"/>
<polygon fill="#191970" stroke="#191970" points="271.5506,-306.1618 263.1989,-299.6427 265.6624,-309.9471 271.5506,-306.1618"/>
</g>
<!-- Node14 -->
<g id="node15" class="node">
<title>Node14</title>
<g id="a_node15"><a xlink:href="InputManager_8h.html" target="_top" xlink:title="InputManager.h">
<polygon fill="#ffffff" stroke="#000000" points="556,-112.5 556,-131.5 640,-131.5 640,-112.5 556,-112.5"/>
<text text-anchor="middle" x="598" y="-119.5" font-family="Helvetica,sans-Serif" font-size="10.00" fill="#000000">InputManager.h</text>
</a>
</g>
</g>
<!-- Node0&#45;&gt;Node14 -->
<g id="edge29" class="edge">
<title>Node0&#45;&gt;Node14</title>
<path fill="none" stroke="#191970" d="M318.1415,-336.4182C338.5437,-328.1293 367.6496,-315.1168 391,-300 468.7203,-249.6848 548.3558,-172.5166 581.7319,-138.7711"/>
<polygon fill="#191970" stroke="#191970" points="584.3342,-141.1164 588.8423,-131.5285 579.3391,-136.2124 584.3342,-141.1164"/>
</g>
<!-- Node5 -->
<g id="node6" class="node">
<title>Node5</title>
<g id="a_node6"><a xlink:href="ComponentType_8h.html" target="_top" xlink:title="ComponentType.h">
<polygon fill="#ffffff" stroke="#000000" points="172.5,-112.5 172.5,-131.5 269.5,-131.5 269.5,-112.5 172.5,-112.5"/>
<text text-anchor="middle" x="221" y="-119.5" font-family="Helvetica,sans-Serif" font-size="10.00" fill="#000000">ComponentType.h</text>
</a>
</g>
</g>
<!-- Node4&#45;&gt;Node5 -->
<g id="edge5" class="edge">
<title>Node4&#45;&gt;Node5</title>
<path fill="none" stroke="#191970" d="M319.2553,-224.3654C309.1702,-215.2172 293.7675,-200.9736 281,-188 265.1688,-171.9133 247.9156,-152.7506 235.9911,-139.2288"/>
<polygon fill="#191970" stroke="#191970" points="238.5403,-136.8273 229.3154,-131.6166 233.2773,-141.4427 238.5403,-136.8273"/>
</g>
<!-- Node6 -->
<g id="node7" class="node">
<title>Node6</title>
<g id="a_node7"><a xlink:href="GameObject_8h.html" target="_top" xlink:title="GameObject.h">
<polygon fill="#ffffff" stroke="#000000" points="290,-168.5 290,-187.5 370,-187.5 370,-168.5 290,-168.5"/>
<text text-anchor="middle" x="330" y="-175.5" font-family="Helvetica,sans-Serif" font-size="10.00" fill="#000000">GameObject.h</text>
</a>
</g>
</g>
<!-- Node4&#45;&gt;Node6 -->
<g id="edge6" class="edge">
<title>Node4&#45;&gt;Node6</title>
<path fill="none" stroke="#191970" d="M324.7332,-224.2455C323.3221,-216.9382 322.9179,-206.6944 323.5205,-197.7046"/>
<polygon fill="#191970" stroke="#191970" points="327.0111,-197.9945 324.7549,-187.6427 320.0632,-197.1421 327.0111,-197.9945"/>
</g>
<!-- Node6&#45;&gt;Node1 -->
<g id="edge7" class="edge">
<title>Node6&#45;&gt;Node1</title>
<path fill="none" stroke="#191970" d="M326.9643,-168.2096C319.5647,-145.743 298.6244,-89.8237 264,-56 249.3844,-41.7224 229.4455,-30.9165 212.0493,-23.3778"/>
<polygon fill="#191970" stroke="#191970" points="213.2756,-20.0977 202.6963,-19.5245 210.6091,-26.5699 213.2756,-20.0977"/>
</g>
<!-- Node6&#45;&gt;Node2 -->
<g id="edge10" class="edge">
<title>Node6&#45;&gt;Node2</title>
<path fill="none" stroke="#191970" d="M350.113,-168.3733C368.8103,-159.4241 396.8744,-145.9917 417.9934,-135.8835"/>
<polygon fill="#191970" stroke="#191970" points="419.6405,-138.9755 427.1494,-131.5011 416.6183,-132.6614 419.6405,-138.9755"/>
</g>
<!-- Node6&#45;&gt;Node3 -->
<g id="edge9" class="edge">
<title>Node6&#45;&gt;Node3</title>
<path fill="none" stroke="#191970" d="M361.2869,-168.3733C393.1555,-158.5676 442.5171,-143.3793 475.9926,-133.0792"/>
<polygon fill="#191970" stroke="#191970" points="477.3061,-136.3371 485.8346,-130.0509 475.2474,-129.6466 477.3061,-136.3371"/>
</g>
<!-- Node6&#45;&gt;Node4 -->
<g id="edge11" class="edge">
<title>Node6&#45;&gt;Node4</title>
<path fill="none" stroke="#191970" d="M335.2451,-187.6427C336.6665,-194.9199 337.081,-205.155 336.4887,-214.1575"/>
<polygon fill="#191970" stroke="#191970" points="332.9947,-213.8972 335.2668,-224.2455 339.9439,-214.739 332.9947,-213.8972"/>
</g>
<!-- Node6&#45;&gt;Node5 -->
<g id="edge12" class="edge">
<title>Node6&#45;&gt;Node5</title>
<path fill="none" stroke="#191970" d="M311.0136,-168.2455C293.8208,-159.4125 268.2762,-146.2887 248.7868,-136.2758"/>
<polygon fill="#191970" stroke="#191970" points="250.263,-133.0993 239.7688,-131.6427 247.0641,-139.3257 250.263,-133.0993"/>
</g>
<!-- Node7 -->
<g id="node8" class="node">
<title>Node7</title>
<polygon fill="#ffffff" stroke="#bfbfbf" points="326,-112.5 326,-131.5 370,-131.5 370,-112.5 326,-112.5"/>
<text text-anchor="middle" x="348" y="-119.5" font-family="Helvetica,sans-Serif" font-size="10.00" fill="#000000">vector</text>
</g>
<!-- Node6&#45;&gt;Node7 -->
<g id="edge8" class="edge">
<title>Node6&#45;&gt;Node7</title>
<path fill="none" stroke="#191970" d="M333.1354,-168.2455C335.51,-160.8579 338.8493,-150.4689 341.7615,-141.4087"/>
<polygon fill="#191970" stroke="#191970" points="345.1725,-142.234 344.9006,-131.6427 338.5083,-140.0919 345.1725,-142.234"/>
</g>
<!-- Node6&#45;&gt;Node8 -->
<g id="edge13" class="edge">
<title>Node6&#45;&gt;Node8</title>
<path fill="none" stroke="#191970" d="M294.6337,-168.4628C260.9793,-159.3251 208.9498,-145.0365 164,-132 163.8994,-131.9708 163.7986,-131.9416 163.6977,-131.9123"/>
<polygon fill="#191970" stroke="#191970" points="164.64,-128.5412 154.0581,-129.064 162.6564,-135.2542 164.64,-128.5412"/>
</g>
<!-- Node8&#45;&gt;Node1 -->
<g id="edge14" class="edge">
<title>Node8&#45;&gt;Node1</title>
<path fill="none" stroke="#191970" d="M129.9453,-112.1882C128.9126,-98.9196 128.4415,-74.7589 136,-56 140.3553,-45.191 148.2212,-34.9986 155.6711,-26.9683"/>
<polygon fill="#191970" stroke="#191970" points="158.2981,-29.2894 162.837,-19.716 153.3188,-24.3694 158.2981,-29.2894"/>
</g>
<!-- Node9 -->
<g id="node10" class="node">
<title>Node9</title>
<g id="a_node10"><a xlink:href="Vec2_8h.html" target="_top" xlink:title="Vec2.h">
<polygon fill="#ffffff" stroke="#000000" points="207.5,-56.5 207.5,-75.5 254.5,-75.5 254.5,-56.5 207.5,-56.5"/>
<text text-anchor="middle" x="231" y="-63.5" font-family="Helvetica,sans-Serif" font-size="10.00" fill="#000000">Vec2.h</text>
</a>
</g>
</g>
<!-- Node8&#45;&gt;Node9 -->
<g id="edge15" class="edge">
<title>Node8&#45;&gt;Node9</title>
<path fill="none" stroke="#191970" d="M143.1518,-112.2455C157.2194,-103.4125 180.4203,-90.2887 199.5372,-80.2758"/>
<polygon fill="#191970" stroke="#191970" points="201.2472,-83.3321 208.5358,-75.6427 198.0428,-77.1085 201.2472,-83.3321"/>
</g>
<!-- Node10 -->
<g id="node11" class="node">
<title>Node10</title>
<polygon fill="#ffffff" stroke="#bfbfbf" points="145,-56.5 145,-75.5 189,-75.5 189,-56.5 145,-56.5"/>
<text text-anchor="middle" x="167" y="-63.5" font-family="Helvetica,sans-Serif" font-size="10.00" fill="#000000">cmath</text>
</g>
<!-- Node8&#45;&gt;Node10 -->
<g id="edge18" class="edge">
<title>Node8&#45;&gt;Node10</title>
<path fill="none" stroke="#191970" d="M137.2707,-112.2455C142.2264,-104.5367 149.283,-93.5598 155.2776,-84.2348"/>
<polygon fill="#191970" stroke="#191970" points="158.3376,-85.9471 160.8011,-75.6427 152.4494,-82.1618 158.3376,-85.9471"/>
</g>
<!-- Node9&#45;&gt;Node1 -->
<g id="edge16" class="edge">
<title>Node9&#45;&gt;Node1</title>
<path fill="none" stroke="#191970" d="M221.0714,-56.2455C212.8162,-48.1352 200.8791,-36.4075 191.0918,-26.7919"/>
<polygon fill="#191970" stroke="#191970" points="193.4011,-24.1542 183.8149,-19.6427 188.4954,-29.1476 193.4011,-24.1542"/>
</g>
<!-- Node9&#45;&gt;Node8 -->
<g id="edge17" class="edge">
<title>Node9&#45;&gt;Node8</title>
<path fill="none" stroke="#191970" d="M219.251,-75.5011C205.2382,-84.3278 181.802,-97.5932 162.5106,-107.6992"/>
<polygon fill="#191970" stroke="#191970" points="160.7212,-104.6838 153.4326,-112.3733 163.9256,-110.9073 160.7212,-104.6838"/>
</g>
<!-- Node11&#45;&gt;Node1 -->
<g id="edge20" class="edge">
<title>Node11&#45;&gt;Node1</title>
<path fill="none" stroke="#191970" d="M56.7851,-168.2682C67.5502,-146.8456 95.158,-94.4572 126,-56 134.4895,-45.4144 145.3045,-34.8502 154.5188,-26.5202"/>
<polygon fill="#191970" stroke="#191970" points="156.9196,-29.0696 162.1054,-19.8307 152.29,-23.8192 156.9196,-29.0696"/>
</g>
<!-- Node12&#45;&gt;Node4 -->
<g id="edge24" class="edge">
<title>Node12&#45;&gt;Node4</title>
<path fill="none" stroke="#191970" d="M269.7156,-280.2455C280.602,-271.8943 296.4883,-259.7076 309.22,-249.9408"/>
<polygon fill="#191970" stroke="#191970" points="311.6261,-252.5063 317.4301,-243.6427 307.3654,-246.9523 311.6261,-252.5063"/>
</g>
<!-- Node12&#45;&gt;Node5 -->
<g id="edge25" class="edge">
<title>Node12&#45;&gt;Node5</title>
<path fill="none" stroke="#191970" d="M254.9613,-280.4862C249.2459,-253.8144 232.9811,-177.9117 225.2204,-141.695"/>
<polygon fill="#191970" stroke="#191970" points="228.6237,-140.8725 223.106,-131.8279 221.779,-142.3393 228.6237,-140.8725"/>
</g>
<!-- Node12&#45;&gt;Node6 -->
<g id="edge26" class="edge">
<title>Node12&#45;&gt;Node6</title>
<path fill="none" stroke="#191970" d="M259.5937,-280.4628C263.5106,-267.09 271.7973,-242.3495 284,-224 291.2782,-213.0556 301.4452,-202.5557 310.3705,-194.3578"/>
<polygon fill="#191970" stroke="#191970" points="312.9225,-196.7734 318.0996,-187.5295 308.288,-191.5273 312.9225,-196.7734"/>
</g>
<!-- Node12&#45;&gt;Node8 -->
<g id="edge27" class="edge">
<title>Node12&#45;&gt;Node8</title>
<path fill="none" stroke="#191970" d="M249.8647,-280.4862C229.5159,-253.3545 170.9598,-175.2798 144.3932,-139.8576"/>
<polygon fill="#191970" stroke="#191970" points="147.171,-137.7279 138.3709,-131.8279 141.5709,-141.9279 147.171,-137.7279"/>
</g>
<!-- Node12&#45;&gt;Node9 -->
<g id="edge28" class="edge">
<title>Node12&#45;&gt;Node9</title>
<path fill="none" stroke="#191970" d="M294.5208,-280.4839C325.8862,-271.6971 367.0472,-257.9348 377,-244 384.4706,-233.5405 383.8804,-118.6275 379,-112 365.3427,-93.4535 303.7618,-79.1404 264.4634,-71.6931"/>
<polygon fill="#191970" stroke="#191970" points="264.9802,-68.2295 254.5121,-69.8629 263.714,-75.1141 264.9802,-68.2295"/>
</g>
<!-- Node13 -->
<g id="node14" class="node">
<title>Node13</title>
<polygon fill="#ffffff" stroke="#bfbfbf" points="118.5,-224.5 118.5,-243.5 159.5,-243.5 159.5,-224.5 118.5,-224.5"/>
<text text-anchor="middle" x="139" y="-231.5" font-family="Helvetica,sans-Serif" font-size="10.00" fill="#000000">cfloat</text>
</g>
<!-- Node12&#45;&gt;Node13 -->
<g id="edge23" class="edge">
<title>Node12&#45;&gt;Node13</title>
<path fill="none" stroke="#191970" d="M236.7151,-280.3733C217.8579,-271.4241 189.554,-257.9917 168.2545,-247.8835"/>
<polygon fill="#191970" stroke="#191970" points="169.5551,-244.6266 159.0202,-243.5011 166.5539,-250.9506 169.5551,-244.6266"/>
</g>
<!-- Node14&#45;&gt;Node1 -->
<g id="edge30" class="edge">
<title>Node14&#45;&gt;Node1</title>
<path fill="none" stroke="#191970" d="M561.85,-112.4509C484.8736,-92.1176 304.8826,-44.5728 219.9337,-22.1334"/>
<polygon fill="#191970" stroke="#191970" points="220.6208,-18.6949 210.0585,-19.5249 218.833,-25.4628 220.6208,-18.6949"/>
</g>
<!-- Node14&#45;&gt;Node9 -->
<g id="edge31" class="edge">
<title>Node14&#45;&gt;Node9</title>
<path fill="none" stroke="#191970" d="M555.7286,-113.5457C552.7776,-113.0065 549.8461,-112.4859 547,-112 444.6212,-94.5221 322.8571,-77.9905 264.9064,-70.3801"/>
<polygon fill="#191970" stroke="#191970" points="265.2168,-66.891 254.8474,-69.0647 264.3091,-73.8319 265.2168,-66.891"/>
</g>
<!-- Node15 -->
<g id="node16" class="node">
<title>Node15</title>
<polygon fill="#ffffff" stroke="#bfbfbf" points="597.5,-56.5 597.5,-75.5 680.5,-75.5 680.5,-56.5 597.5,-56.5"/>
<text text-anchor="middle" x="639" y="-63.5" font-family="Helvetica,sans-Serif" font-size="10.00" fill="#000000">unordered_map</text>
</g>
<!-- Node14&#45;&gt;Node15 -->
<g id="edge32" class="edge">
<title>Node14&#45;&gt;Node15</title>
<path fill="none" stroke="#191970" d="M605.1417,-112.2455C610.8444,-104.4564 618.99,-93.3308 625.8625,-83.9439"/>
<polygon fill="#191970" stroke="#191970" points="628.8568,-85.7789 631.9402,-75.6427 623.2087,-81.6437 628.8568,-85.7789"/>
</g>
<!-- Node16 -->
<g id="node17" class="node">
<title>Node16</title>
<polygon fill="#ffffff" stroke="#bfbfbf" points="533,-56.5 533,-75.5 579,-75.5 579,-56.5 533,-56.5"/>
<text text-anchor="middle" x="556" y="-63.5" font-family="Helvetica,sans-Serif" font-size="10.00" fill="#000000">cstdint</text>
</g>
<!-- Node14&#45;&gt;Node16 -->
<g id="edge33" class="edge">
<title>Node14&#45;&gt;Node16</title>
<path fill="none" stroke="#191970" d="M590.6842,-112.2455C584.7821,-104.3761 576.3258,-93.101 569.2406,-83.6542"/>
<polygon fill="#191970" stroke="#191970" points="572.0321,-81.5427 563.232,-75.6427 566.432,-85.7427 572.0321,-81.5427"/>
</g>
</g>
</svg>
