<?xml version="1.0" encoding="UTF-8" standalone="no"?>
<!DOCTYPE svg PUBLIC "-//W3C//DTD SVG 1.1//EN"
 "http://www.w3.org/Graphics/SVG/1.1/DTD/svg11.dtd">
<!-- Generated by graphviz version 2.38.0 (20140413.2041)
 -->
<!-- Title: src/Sprite.cpp Pages: 1 -->
<svg width="1056pt" height="364pt"
 viewBox="0.00 0.00 1056.00 364.00" xmlns="http://www.w3.org/2000/svg" xmlns:xlink="http://www.w3.org/1999/xlink">
<g id="graph0" class="graph" transform="scale(1 1) rotate(0) translate(4 360)">
<title>src/Sprite.cpp</title>
<polygon fill="white" stroke="none" points="-4,4 -4,-360 1052,-360 1052,4 -4,4"/>
<!-- Node0 -->
<g id="node1" class="node"><title>Node0</title>
<polygon fill="#bfbfbf" stroke="black" points="636.5,-336.5 636.5,-355.5 713.5,-355.5 713.5,-336.5 636.5,-336.5"/>
<text text-anchor="middle" x="675" y="-343.5" font-family="Helvetica,sans-Serif" font-size="10.00">src/Sprite.cpp</text>
</g>
<!-- Node1 -->
<g id="node2" class="node"><title>Node1</title>
<g id="a_node2"><a xlink:href="Sprite_8h.html" target="_top" xlink:title="Sprite.h">
<polygon fill="white" stroke="black" points="266,-280.5 266,-299.5 316,-299.5 316,-280.5 266,-280.5"/>
<text text-anchor="middle" x="291" y="-287.5" font-family="Helvetica,sans-Serif" font-size="10.00">Sprite.h</text>
</a>
</g>
</g>
<!-- Node0&#45;&gt;Node1 -->
<g id="edge1" class="edge"><title>Node0&#45;&gt;Node1</title>
<path fill="none" stroke="midnightblue" d="M636.422,-339.575C561.737,-329.072 398.423,-306.106 326.364,-295.973"/>
<polygon fill="midnightblue" stroke="midnightblue" points="326.806,-292.501 316.416,-294.574 325.831,-299.433 326.806,-292.501"/>
</g>
<!-- Node16 -->
<g id="node17" class="node"><title>Node16</title>
<g id="a_node17"><a xlink:href="Camera_8h.html" target="_top" xlink:title="Camera.h">
<polygon fill="white" stroke="black" points="538.5,-280.5 538.5,-299.5 597.5,-299.5 597.5,-280.5 538.5,-280.5"/>
<text text-anchor="middle" x="568" y="-287.5" font-family="Helvetica,sans-Serif" font-size="10.00">Camera.h</text>
</a>
</g>
</g>
<!-- Node0&#45;&gt;Node16 -->
<g id="edge27" class="edge"><title>Node0&#45;&gt;Node16</title>
<path fill="none" stroke="midnightblue" d="M657.809,-336.324C640.649,-327.664 614.054,-314.242 594.253,-304.249"/>
<polygon fill="midnightblue" stroke="midnightblue" points="595.653,-301.035 585.149,-299.655 592.499,-307.285 595.653,-301.035"/>
</g>
<!-- Node18 -->
<g id="node19" class="node"><title>Node18</title>
<g id="a_node19"><a xlink:href="Error_8h.html" target="_top" xlink:title="Error.h">
<polygon fill="white" stroke="black" points="929,-280.5 929,-299.5 975,-299.5 975,-280.5 929,-280.5"/>
<text text-anchor="middle" x="952" y="-287.5" font-family="Helvetica,sans-Serif" font-size="10.00">Error.h</text>
</a>
</g>
</g>
<!-- Node0&#45;&gt;Node18 -->
<g id="edge32" class="edge"><title>Node0&#45;&gt;Node18</title>
<path fill="none" stroke="midnightblue" d="M713.516,-337.492C768.172,-326.836 867.311,-307.51 918.861,-297.46"/>
<polygon fill="midnightblue" stroke="midnightblue" points="919.662,-300.87 928.808,-295.521 918.323,-293.999 919.662,-300.87"/>
</g>
<!-- Node21 -->
<g id="node22" class="node"><title>Node21</title>
<g id="a_node22"><a xlink:href="Game_8h.html" target="_top" xlink:title="Game.h">
<polygon fill="white" stroke="black" points="649.5,-280.5 649.5,-299.5 700.5,-299.5 700.5,-280.5 649.5,-280.5"/>
<text text-anchor="middle" x="675" y="-287.5" font-family="Helvetica,sans-Serif" font-size="10.00">Game.h</text>
</a>
</g>
</g>
<!-- Node0&#45;&gt;Node21 -->
<g id="edge35" class="edge"><title>Node0&#45;&gt;Node21</title>
<path fill="none" stroke="midnightblue" d="M675,-336.083C675,-329.006 675,-318.861 675,-309.986"/>
<polygon fill="midnightblue" stroke="midnightblue" points="678.5,-309.751 675,-299.751 671.5,-309.751 678.5,-309.751"/>
</g>
<!-- Node24 -->
<g id="node25" class="node"><title>Node24</title>
<g id="a_node25"><a xlink:href="Resources_8h.html" target="_top" xlink:title="Resources.h">
<polygon fill="white" stroke="black" points="601,-168.5 601,-187.5 673,-187.5 673,-168.5 601,-168.5"/>
<text text-anchor="middle" x="637" y="-175.5" font-family="Helvetica,sans-Serif" font-size="10.00">Resources.h</text>
</a>
</g>
</g>
<!-- Node0&#45;&gt;Node24 -->
<g id="edge51" class="edge"><title>Node0&#45;&gt;Node24</title>
<path fill="none" stroke="midnightblue" d="M697.908,-336.473C744.078,-318.019 840.884,-272.139 804,-224 796.514,-214.229 730.107,-198.514 683.328,-188.478"/>
<polygon fill="midnightblue" stroke="midnightblue" points="683.888,-185.018 673.379,-186.365 682.433,-191.866 683.888,-185.018"/>
</g>
<!-- Node2 -->
<g id="node3" class="node"><title>Node2</title>
<g id="a_node3"><a xlink:href="SDL__include_8h.html" target="_top" xlink:title="SDL_include.h">
<polygon fill="white" stroke="black" points="315,-0.5 315,-19.5 395,-19.5 395,-0.5 315,-0.5"/>
<text text-anchor="middle" x="355" y="-7.5" font-family="Helvetica,sans-Serif" font-size="10.00">SDL_include.h</text>
</a>
</g>
</g>
<!-- Node1&#45;&gt;Node2 -->
<g id="edge2" class="edge"><title>Node1&#45;&gt;Node2</title>
<path fill="none" stroke="midnightblue" d="M266.257,-280.432C248.669,-273.199 225.658,-261.239 211,-244 171.206,-197.2 138.651,-164.831 170,-112 199.426,-62.4094 262.723,-35.6006 307.043,-22.317"/>
<polygon fill="midnightblue" stroke="midnightblue" points="308.104,-25.6539 316.75,-19.5311 306.173,-18.9255 308.104,-25.6539"/>
</g>
<!-- Node3 -->
<g id="node4" class="node"><title>Node3</title>
<polygon fill="white" stroke="#bfbfbf" points="433.5,-112.5 433.5,-131.5 474.5,-131.5 474.5,-112.5 433.5,-112.5"/>
<text text-anchor="middle" x="454" y="-119.5" font-family="Helvetica,sans-Serif" font-size="10.00">string</text>
</g>
<!-- Node1&#45;&gt;Node3 -->
<g id="edge3" class="edge"><title>Node1&#45;&gt;Node3</title>
<path fill="none" stroke="midnightblue" d="M298.01,-280.406C314.772,-260.043 358.845,-207.599 400,-168 411.102,-157.318 424.387,-146.227 435.002,-137.729"/>
<polygon fill="midnightblue" stroke="midnightblue" points="437.174,-140.473 442.85,-131.527 432.834,-134.981 437.174,-140.473"/>
</g>
<!-- Node4 -->
<g id="node5" class="node"><title>Node4</title>
<polygon fill="white" stroke="#bfbfbf" points="493,-112.5 493,-131.5 545,-131.5 545,-112.5 493,-112.5"/>
<text text-anchor="middle" x="519" y="-119.5" font-family="Helvetica,sans-Serif" font-size="10.00">memory</text>
</g>
<!-- Node1&#45;&gt;Node4 -->
<g id="edge4" class="edge"><title>Node1&#45;&gt;Node4</title>
<path fill="none" stroke="midnightblue" d="M302.937,-280.309C339.874,-253.416 452.589,-171.352 498.856,-137.666"/>
<polygon fill="midnightblue" stroke="midnightblue" points="501.157,-140.321 507.181,-131.605 497.037,-134.662 501.157,-140.321"/>
</g>
<!-- Node5 -->
<g id="node6" class="node"><title>Node5</title>
<g id="a_node6"><a xlink:href="Component_8h.html" target="_top" xlink:title="Component.h">
<polygon fill="white" stroke="black" points="220.5,-224.5 220.5,-243.5 295.5,-243.5 295.5,-224.5 220.5,-224.5"/>
<text text-anchor="middle" x="258" y="-231.5" font-family="Helvetica,sans-Serif" font-size="10.00">Component.h</text>
</a>
</g>
</g>
<!-- Node1&#45;&gt;Node5 -->
<g id="edge5" class="edge"><title>Node1&#45;&gt;Node5</title>
<path fill="none" stroke="midnightblue" d="M285.551,-280.083C280.986,-272.613 274.332,-261.724 268.707,-252.52"/>
<polygon fill="midnightblue" stroke="midnightblue" points="271.549,-250.459 263.348,-243.751 265.576,-254.109 271.549,-250.459"/>
</g>
<!-- Node9 -->
<g id="node10" class="node"><title>Node9</title>
<g id="a_node10"><a xlink:href="Rect_8h.html" target="_top" xlink:title="Rect.h">
<polygon fill="white" stroke="black" points="77,-112.5 77,-131.5 123,-131.5 123,-112.5 77,-112.5"/>
<text text-anchor="middle" x="100" y="-119.5" font-family="Helvetica,sans-Serif" font-size="10.00">Rect.h</text>
</a>
</g>
</g>
<!-- Node1&#45;&gt;Node9 -->
<g id="edge21" class="edge"><title>Node1&#45;&gt;Node9</title>
<path fill="none" stroke="midnightblue" d="M265.789,-288.671C231.929,-286.847 171.979,-278.546 137,-244 109.09,-216.435 102.114,-168.45 100.447,-141.945"/>
<polygon fill="midnightblue" stroke="midnightblue" points="103.934,-141.565 100.005,-131.726 96.9406,-141.868 103.934,-141.565"/>
</g>
<!-- Node12 -->
<g id="node13" class="node"><title>Node12</title>
<g id="a_node13"><a xlink:href="Color_8h.html" target="_top" xlink:title="Color.h">
<polygon fill="white" stroke="black" points="0,-56.5 0,-75.5 48,-75.5 48,-56.5 0,-56.5"/>
<text text-anchor="middle" x="24" y="-63.5" font-family="Helvetica,sans-Serif" font-size="10.00">Color.h</text>
</a>
</g>
</g>
<!-- Node1&#45;&gt;Node12 -->
<g id="edge19" class="edge"><title>Node1&#45;&gt;Node12</title>
<path fill="none" stroke="midnightblue" d="M265.763,-288.529C229.578,-286.61 162.529,-278.277 119,-244 65.6128,-201.96 38.4603,-121.38 28.5341,-85.2799"/>
<polygon fill="midnightblue" stroke="midnightblue" points="31.9172,-84.3825 25.9966,-75.5963 25.1458,-86.1569 31.9172,-84.3825"/>
</g>
<!-- Node13 -->
<g id="node14" class="node"><title>Node13</title>
<g id="a_node14"><a xlink:href="InputManager_8h.html" target="_top" xlink:title="InputManager.h">
<polygon fill="white" stroke="black" points="700,-168.5 700,-187.5 784,-187.5 784,-168.5 700,-168.5"/>
<text text-anchor="middle" x="742" y="-175.5" font-family="Helvetica,sans-Serif" font-size="10.00">InputManager.h</text>
</a>
</g>
</g>
<!-- Node1&#45;&gt;Node13 -->
<g id="edge22" class="edge"><title>Node1&#45;&gt;Node13</title>
<path fill="none" stroke="midnightblue" d="M316.256,-286.326C364.418,-280.89 472.478,-267.072 561,-244 615.783,-229.722 677.399,-205.843 712.764,-191.344"/>
<polygon fill="midnightblue" stroke="midnightblue" points="714.111,-194.575 722.016,-187.52 711.437,-188.106 714.111,-194.575"/>
</g>
<!-- Node6 -->
<g id="node7" class="node"><title>Node6</title>
<g id="a_node7"><a xlink:href="ComponentType_8h.html" target="_top" xlink:title="ComponentType.h">
<polygon fill="white" stroke="black" points="179.5,-112.5 179.5,-131.5 276.5,-131.5 276.5,-112.5 179.5,-112.5"/>
<text text-anchor="middle" x="228" y="-119.5" font-family="Helvetica,sans-Serif" font-size="10.00">ComponentType.h</text>
</a>
</g>
</g>
<!-- Node5&#45;&gt;Node6 -->
<g id="edge6" class="edge"><title>Node5&#45;&gt;Node6</title>
<path fill="none" stroke="midnightblue" d="M247.562,-224.245C238.576,-215.969 226.254,-202.663 221,-188 215.616,-172.975 218.259,-154.843 221.735,-141.552"/>
<polygon fill="midnightblue" stroke="midnightblue" points="225.17,-142.284 224.693,-131.7 218.466,-140.271 225.17,-142.284"/>
</g>
<!-- Node7 -->
<g id="node8" class="node"><title>Node7</title>
<g id="a_node8"><a xlink:href="GameObject_8h.html" target="_top" xlink:title="GameObject.h">
<polygon fill="white" stroke="black" points="230,-168.5 230,-187.5 310,-187.5 310,-168.5 230,-168.5"/>
<text text-anchor="middle" x="270" y="-175.5" font-family="Helvetica,sans-Serif" font-size="10.00">GameObject.h</text>
</a>
</g>
</g>
<!-- Node5&#45;&gt;Node7 -->
<g id="edge7" class="edge"><title>Node5&#45;&gt;Node7</title>
<path fill="none" stroke="midnightblue" d="M254.815,-224.083C254.897,-216.849 256.794,-206.409 259.476,-197.397"/>
<polygon fill="midnightblue" stroke="midnightblue" points="262.854,-198.346 262.924,-187.751 256.262,-195.989 262.854,-198.346"/>
</g>
<!-- Node7&#45;&gt;Node2 -->
<g id="edge8" class="edge"><title>Node7&#45;&gt;Node2</title>
<path fill="none" stroke="midnightblue" d="M274.57,-168.075C288.066,-141.719 327.924,-63.878 345.957,-28.6608"/>
<polygon fill="midnightblue" stroke="midnightblue" points="349.17,-30.0643 350.613,-19.5681 342.94,-26.8739 349.17,-30.0643"/>
</g>
<!-- Node7&#45;&gt;Node3 -->
<g id="edge11" class="edge"><title>Node7&#45;&gt;Node3</title>
<path fill="none" stroke="midnightblue" d="M299.155,-168.444C333.042,-158.499 388.718,-142.159 423.265,-132.02"/>
<polygon fill="midnightblue" stroke="midnightblue" points="424.651,-135.261 433.261,-129.086 422.68,-128.544 424.651,-135.261"/>
</g>
<!-- Node7&#45;&gt;Node4 -->
<g id="edge10" class="edge"><title>Node7&#45;&gt;Node4</title>
<path fill="none" stroke="midnightblue" d="M310.139,-168.978C351.02,-160.706 416.471,-147.183 482.879,-131.957"/>
<polygon fill="midnightblue" stroke="midnightblue" points="483.722,-135.354 492.681,-129.698 482.15,-128.533 483.722,-135.354"/>
</g>
<!-- Node7&#45;&gt;Node5 -->
<g id="edge12" class="edge"><title>Node7&#45;&gt;Node5</title>
<path fill="none" stroke="midnightblue" d="M273.186,-187.751C273.133,-194.936 271.256,-205.362 268.585,-214.396"/>
<polygon fill="midnightblue" stroke="midnightblue" points="265.194,-213.488 265.148,-224.083 271.791,-215.829 265.194,-213.488"/>
</g>
<!-- Node7&#45;&gt;Node6 -->
<g id="edge13" class="edge"><title>Node7&#45;&gt;Node6</title>
<path fill="none" stroke="midnightblue" d="M263.065,-168.083C257.071,-160.377 248.248,-149.033 240.952,-139.653"/>
<polygon fill="midnightblue" stroke="midnightblue" points="243.709,-137.496 234.806,-131.751 238.183,-141.793 243.709,-137.496"/>
</g>
<!-- Node8 -->
<g id="node9" class="node"><title>Node8</title>
<polygon fill="white" stroke="#bfbfbf" points="333,-112.5 333,-131.5 377,-131.5 377,-112.5 333,-112.5"/>
<text text-anchor="middle" x="355" y="-119.5" font-family="Helvetica,sans-Serif" font-size="10.00">vector</text>
</g>
<!-- Node7&#45;&gt;Node8 -->
<g id="edge9" class="edge"><title>Node7&#45;&gt;Node8</title>
<path fill="none" stroke="midnightblue" d="M283.657,-168.324C296.916,-159.9 317.268,-146.971 332.846,-137.074"/>
<polygon fill="midnightblue" stroke="midnightblue" points="334.813,-139.971 341.377,-131.655 331.06,-134.063 334.813,-139.971"/>
</g>
<!-- Node7&#45;&gt;Node9 -->
<g id="edge14" class="edge"><title>Node7&#45;&gt;Node9</title>
<path fill="none" stroke="midnightblue" d="M243.063,-168.444C213.241,-158.971 165.154,-143.696 133.071,-133.505"/>
<polygon fill="midnightblue" stroke="midnightblue" points="133.85,-130.08 123.26,-130.388 131.731,-136.752 133.85,-130.08"/>
</g>
<!-- Node9&#45;&gt;Node2 -->
<g id="edge15" class="edge"><title>Node9&#45;&gt;Node2</title>
<path fill="none" stroke="midnightblue" d="M95.8534,-112.248C90.0391,-98.5408 81.5887,-71.9319 95,-56 121.272,-24.7903 236.838,-15.2258 304.732,-12.2949"/>
<polygon fill="midnightblue" stroke="midnightblue" points="304.94,-15.7895 314.793,-11.8939 304.661,-8.79503 304.94,-15.7895"/>
</g>
<!-- Node10 -->
<g id="node11" class="node"><title>Node10</title>
<g id="a_node11"><a xlink:href="Vec2_8h.html" target="_top" xlink:title="Vec2.h">
<polygon fill="white" stroke="black" points="381.5,-56.5 381.5,-75.5 428.5,-75.5 428.5,-56.5 381.5,-56.5"/>
<text text-anchor="middle" x="405" y="-63.5" font-family="Helvetica,sans-Serif" font-size="10.00">Vec2.h</text>
</a>
</g>
</g>
<!-- Node9&#45;&gt;Node10 -->
<g id="edge16" class="edge"><title>Node9&#45;&gt;Node10</title>
<path fill="none" stroke="midnightblue" d="M123.175,-116.897C176.66,-107.427 308.903,-84.014 371.336,-72.9602"/>
<polygon fill="midnightblue" stroke="midnightblue" points="372.205,-76.3608 381.442,-71.1709 370.985,-69.468 372.205,-76.3608"/>
</g>
<!-- Node11 -->
<g id="node12" class="node"><title>Node11</title>
<polygon fill="white" stroke="#bfbfbf" points="104,-56.5 104,-75.5 148,-75.5 148,-56.5 104,-56.5"/>
<text text-anchor="middle" x="126" y="-63.5" font-family="Helvetica,sans-Serif" font-size="10.00">cmath</text>
</g>
<!-- Node9&#45;&gt;Node11 -->
<g id="edge18" class="edge"><title>Node9&#45;&gt;Node11</title>
<path fill="none" stroke="midnightblue" d="M104.293,-112.083C107.852,-104.691 113.022,-93.9533 117.424,-84.8111"/>
<polygon fill="midnightblue" stroke="midnightblue" points="120.602,-86.2795 121.787,-75.7511 114.295,-83.2427 120.602,-86.2795"/>
</g>
<!-- Node10&#45;&gt;Node2 -->
<g id="edge17" class="edge"><title>Node10&#45;&gt;Node2</title>
<path fill="none" stroke="midnightblue" d="M396.744,-56.083C389.535,-48.2982 378.89,-36.8015 370.154,-27.3665"/>
<polygon fill="midnightblue" stroke="midnightblue" points="372.465,-24.7108 363.103,-19.7511 367.329,-29.4666 372.465,-24.7108"/>
</g>
<!-- Node12&#45;&gt;Node2 -->
<g id="edge20" class="edge"><title>Node12&#45;&gt;Node2</title>
<path fill="none" stroke="midnightblue" d="M48.0597,-58.9945C52.6726,-57.9303 57.4749,-56.8819 62,-56 146.584,-39.5156 245.872,-25.3433 304.44,-17.511"/>
<polygon fill="midnightblue" stroke="midnightblue" points="305.086,-20.9561 314.538,-16.1697 304.164,-14.0171 305.086,-20.9561"/>
</g>
<!-- Node13&#45;&gt;Node2 -->
<g id="edge23" class="edge"><title>Node13&#45;&gt;Node2</title>
<path fill="none" stroke="midnightblue" d="M746.787,-168.395C753.585,-154.89 763.861,-128.553 751,-112 708.684,-57.5369 502.25,-27.5452 405.378,-16.2672"/>
<polygon fill="midnightblue" stroke="midnightblue" points="405.571,-12.7666 395.238,-15.1086 404.776,-19.7213 405.571,-12.7666"/>
</g>
<!-- Node13&#45;&gt;Node10 -->
<g id="edge24" class="edge"><title>Node13&#45;&gt;Node10</title>
<path fill="none" stroke="midnightblue" d="M743.41,-168.403C745.163,-154.419 746.28,-126.822 731,-112 689.957,-72.1894 513.808,-67.1227 438.911,-66.8066"/>
<polygon fill="midnightblue" stroke="midnightblue" points="438.629,-63.3063 428.624,-66.7909 438.618,-70.3062 438.629,-63.3063"/>
</g>
<!-- Node14 -->
<g id="node15" class="node"><title>Node14</title>
<polygon fill="white" stroke="#bfbfbf" points="639.5,-112.5 639.5,-131.5 722.5,-131.5 722.5,-112.5 639.5,-112.5"/>
<text text-anchor="middle" x="681" y="-119.5" font-family="Helvetica,sans-Serif" font-size="10.00">unordered_map</text>
</g>
<!-- Node13&#45;&gt;Node14 -->
<g id="edge25" class="edge"><title>Node13&#45;&gt;Node14</title>
<path fill="none" stroke="midnightblue" d="M732.199,-168.324C723.182,-160.341 709.594,-148.313 698.682,-138.653"/>
<polygon fill="midnightblue" stroke="midnightblue" points="700.787,-135.842 690.979,-131.834 696.147,-141.083 700.787,-135.842"/>
</g>
<!-- Node15 -->
<g id="node16" class="node"><title>Node15</title>
<polygon fill="white" stroke="#bfbfbf" points="817,-112.5 817,-131.5 863,-131.5 863,-112.5 817,-112.5"/>
<text text-anchor="middle" x="840" y="-119.5" font-family="Helvetica,sans-Serif" font-size="10.00">cstdint</text>
</g>
<!-- Node13&#45;&gt;Node15 -->
<g id="edge26" class="edge"><title>Node13&#45;&gt;Node15</title>
<path fill="none" stroke="midnightblue" d="M757.745,-168.324C773.319,-159.743 797.377,-146.486 815.459,-136.522"/>
<polygon fill="midnightblue" stroke="midnightblue" points="817.224,-139.546 824.294,-131.655 813.846,-133.415 817.224,-139.546"/>
</g>
<!-- Node16&#45;&gt;Node7 -->
<g id="edge28" class="edge"><title>Node16&#45;&gt;Node7</title>
<path fill="none" stroke="midnightblue" d="M538.488,-280.684C509.183,-272.215 463.105,-258.325 424,-244 379.249,-227.607 328.538,-205.497 297.931,-191.751"/>
<polygon fill="midnightblue" stroke="midnightblue" points="299.287,-188.523 288.732,-187.6 296.407,-194.904 299.287,-188.523"/>
</g>
<!-- Node16&#45;&gt;Node10 -->
<g id="edge29" class="edge"><title>Node16&#45;&gt;Node10</title>
<path fill="none" stroke="midnightblue" d="M538.755,-280.455C518.935,-273.402 493.298,-261.652 476,-244 431.251,-198.336 413.614,-120.853 407.648,-85.5346"/>
<polygon fill="midnightblue" stroke="midnightblue" points="411.104,-84.9824 406.102,-75.643 404.188,-86.0636 411.104,-84.9824"/>
</g>
<!-- Node17 -->
<g id="node18" class="node"><title>Node17</title>
<g id="a_node18"><a xlink:href="ActionManager_8h.html" target="_top" xlink:title="ActionManager.h">
<polygon fill="white" stroke="black" points="646,-224.5 646,-243.5 736,-243.5 736,-224.5 646,-224.5"/>
<text text-anchor="middle" x="691" y="-231.5" font-family="Helvetica,sans-Serif" font-size="10.00">ActionManager.h</text>
</a>
</g>
</g>
<!-- Node16&#45;&gt;Node17 -->
<g id="edge30" class="edge"><title>Node16&#45;&gt;Node17</title>
<path fill="none" stroke="midnightblue" d="M587.49,-280.444C607.642,-271.596 639.323,-257.687 662.331,-247.586"/>
<polygon fill="midnightblue" stroke="midnightblue" points="663.852,-250.741 671.601,-243.516 661.038,-244.332 663.852,-250.741"/>
</g>
<!-- Node17&#45;&gt;Node13 -->
<g id="edge31" class="edge"><title>Node17&#45;&gt;Node13</title>
<path fill="none" stroke="midnightblue" d="M699.422,-224.083C706.848,-216.22 717.852,-204.569 726.812,-195.081"/>
<polygon fill="midnightblue" stroke="midnightblue" points="729.413,-197.424 733.735,-187.751 724.324,-192.618 729.413,-197.424"/>
</g>
<!-- Node19 -->
<g id="node20" class="node"><title>Node19</title>
<polygon fill="white" stroke="#bfbfbf" points="994,-224.5 994,-243.5 1048,-243.5 1048,-224.5 994,-224.5"/>
<text text-anchor="middle" x="1021" y="-231.5" font-family="Helvetica,sans-Serif" font-size="10.00">iostream</text>
</g>
<!-- Node18&#45;&gt;Node19 -->
<g id="edge33" class="edge"><title>Node18&#45;&gt;Node19</title>
<path fill="none" stroke="midnightblue" d="M963.086,-280.324C973.486,-272.185 989.261,-259.839 1001.72,-250.087"/>
<polygon fill="midnightblue" stroke="midnightblue" points="1003.99,-252.753 1009.71,-243.834 999.68,-247.241 1003.99,-252.753"/>
</g>
<!-- Node20 -->
<g id="node21" class="node"><title>Node20</title>
<polygon fill="white" stroke="#bfbfbf" points="928,-224.5 928,-243.5 976,-243.5 976,-224.5 928,-224.5"/>
<text text-anchor="middle" x="952" y="-231.5" font-family="Helvetica,sans-Serif" font-size="10.00">stdlib.h</text>
</g>
<!-- Node18&#45;&gt;Node20 -->
<g id="edge34" class="edge"><title>Node18&#45;&gt;Node20</title>
<path fill="none" stroke="midnightblue" d="M952,-280.083C952,-273.006 952,-262.861 952,-253.986"/>
<polygon fill="midnightblue" stroke="midnightblue" points="955.5,-253.751 952,-243.751 948.5,-253.751 955.5,-253.751"/>
</g>
<!-- Node21&#45;&gt;Node2 -->
<g id="edge50" class="edge"><title>Node21&#45;&gt;Node2</title>
<path fill="none" stroke="midnightblue" d="M700.81,-288.106C759.911,-284.542 900,-266.831 900,-179 900,-179 900,-179 900,-121 900,-20.5747 539.941,-10.7302 405.142,-10.5635"/>
<polygon fill="midnightblue" stroke="midnightblue" points="405.073,-7.06341 395.075,-10.5687 405.077,-14.0634 405.073,-7.06341"/>
</g>
<!-- Node21&#45;&gt;Node3 -->
<g id="edge36" class="edge"><title>Node21&#45;&gt;Node3</title>
<path fill="none" stroke="midnightblue" d="M649.416,-285.655C605.291,-279.402 517.445,-264.682 495,-244 465.73,-217.029 457.349,-168.417 454.954,-141.754"/>
<polygon fill="midnightblue" stroke="midnightblue" points="458.426,-141.232 454.236,-131.501 451.443,-141.721 458.426,-141.232"/>
</g>
<!-- Node21&#45;&gt;Node10 -->
<g id="edge49" class="edge"><title>Node21&#45;&gt;Node10</title>
<path fill="none" stroke="midnightblue" d="M667.653,-280.425C659.952,-271.41 647.533,-256.785 637,-244 616.699,-219.356 609.237,-214.876 592,-188 571.612,-156.212 582.879,-136.335 554,-112 521.09,-84.2678 471.46,-73.6246 438.651,-69.5409"/>
<polygon fill="midnightblue" stroke="midnightblue" points="438.956,-66.0534 428.632,-68.4321 438.186,-73.011 438.956,-66.0534"/>
</g>
<!-- Node21&#45;&gt;Node13 -->
<g id="edge48" class="edge"><title>Node21&#45;&gt;Node13</title>
<path fill="none" stroke="midnightblue" d="M700.72,-288.328C731.136,-285.985 780.582,-276.971 804,-244 817.969,-224.332 792.419,-204.701 770.009,-192.242"/>
<polygon fill="midnightblue" stroke="midnightblue" points="771.516,-189.08 761.036,-187.52 768.255,-195.274 771.516,-189.08"/>
</g>
<!-- Node22 -->
<g id="node23" class="node"><title>Node22</title>
<polygon fill="white" stroke="#bfbfbf" points="754.5,-224.5 754.5,-243.5 795.5,-243.5 795.5,-224.5 754.5,-224.5"/>
<text text-anchor="middle" x="775" y="-231.5" font-family="Helvetica,sans-Serif" font-size="10.00">stack</text>
</g>
<!-- Node21&#45;&gt;Node22 -->
<g id="edge37" class="edge"><title>Node21&#45;&gt;Node22</title>
<path fill="none" stroke="midnightblue" d="M691.067,-280.324C706.958,-271.743 731.507,-258.486 749.958,-248.522"/>
<polygon fill="midnightblue" stroke="midnightblue" points="751.837,-251.486 758.973,-243.655 748.511,-245.326 751.837,-251.486"/>
</g>
<!-- Node23 -->
<g id="node24" class="node"><title>Node23</title>
<g id="a_node24"><a xlink:href="State_8h.html" target="_top" xlink:title="State.h">
<polygon fill="white" stroke="black" points="504,-224.5 504,-243.5 552,-243.5 552,-224.5 504,-224.5"/>
<text text-anchor="middle" x="528" y="-231.5" font-family="Helvetica,sans-Serif" font-size="10.00">State.h</text>
</a>
</g>
</g>
<!-- Node21&#45;&gt;Node23 -->
<g id="edge38" class="edge"><title>Node21&#45;&gt;Node23</title>
<path fill="none" stroke="midnightblue" d="M651.707,-280.444C627.193,-271.438 588.404,-257.189 560.8,-247.049"/>
<polygon fill="midnightblue" stroke="midnightblue" points="561.777,-243.679 551.184,-243.516 559.363,-250.25 561.777,-243.679"/>
</g>
<!-- Node23&#45;&gt;Node4 -->
<g id="edge40" class="edge"><title>Node23&#45;&gt;Node4</title>
<path fill="none" stroke="midnightblue" d="M527.294,-224.368C525.841,-206.617 522.491,-165.666 520.522,-141.597"/>
<polygon fill="midnightblue" stroke="midnightblue" points="524.007,-141.273 519.703,-131.591 517.03,-141.844 524.007,-141.273"/>
</g>
<!-- Node23&#45;&gt;Node7 -->
<g id="edge47" class="edge"><title>Node23&#45;&gt;Node7</title>
<path fill="none" stroke="midnightblue" d="M503.728,-227.92C461.924,-219.17 375.518,-201.085 320.283,-189.524"/>
<polygon fill="midnightblue" stroke="midnightblue" points="320.855,-186.068 310.35,-187.445 319.421,-192.92 320.855,-186.068"/>
</g>
<!-- Node23&#45;&gt;Node8 -->
<g id="edge39" class="edge"><title>Node23&#45;&gt;Node8</title>
<path fill="none" stroke="midnightblue" d="M514.425,-224.368C484.738,-205.492 413.796,-160.385 377.39,-137.237"/>
<polygon fill="midnightblue" stroke="midnightblue" points="378.829,-134.004 368.512,-131.591 375.073,-139.911 378.829,-134.004"/>
</g>
<!-- Node23&#45;&gt;Node13 -->
<g id="edge41" class="edge"><title>Node23&#45;&gt;Node13</title>
<path fill="none" stroke="midnightblue" d="M552.133,-226.91C587.525,-217.98 654.083,-201.185 698.237,-190.043"/>
<polygon fill="midnightblue" stroke="midnightblue" points="699.282,-193.389 708.122,-187.549 697.569,-186.602 699.282,-193.389"/>
</g>
<!-- Node23&#45;&gt;Node24 -->
<g id="edge42" class="edge"><title>Node23&#45;&gt;Node24</title>
<path fill="none" stroke="midnightblue" d="M545.513,-224.324C563.072,-215.625 590.331,-202.12 610.531,-192.113"/>
<polygon fill="midnightblue" stroke="midnightblue" points="612.124,-195.23 619.531,-187.655 609.016,-188.958 612.124,-195.23"/>
</g>
<!-- Node24&#45;&gt;Node2 -->
<g id="edge43" class="edge"><title>Node24&#45;&gt;Node2</title>
<path fill="none" stroke="midnightblue" d="M632.26,-168.293C624.445,-154.647 607.649,-128.12 587,-112 528.689,-66.4777 446.704,-37.1415 397.423,-22.3947"/>
<polygon fill="midnightblue" stroke="midnightblue" points="398.302,-19.0052 387.721,-19.554 396.335,-25.7231 398.302,-19.0052"/>
</g>
<!-- Node24&#45;&gt;Node3 -->
<g id="edge44" class="edge"><title>Node24&#45;&gt;Node3</title>
<path fill="none" stroke="midnightblue" d="M607.655,-168.42C578.771,-159.964 533.154,-146.579 484.434,-132.117"/>
<polygon fill="midnightblue" stroke="midnightblue" points="485.235,-128.704 474.652,-129.212 483.242,-135.414 485.235,-128.704"/>
</g>
<!-- Node24&#45;&gt;Node4 -->
<g id="edge46" class="edge"><title>Node24&#45;&gt;Node4</title>
<path fill="none" stroke="midnightblue" d="M618.303,-168.444C599.056,-159.636 568.848,-145.812 546.8,-135.722"/>
<polygon fill="midnightblue" stroke="midnightblue" points="548.16,-132.495 537.61,-131.516 545.247,-138.86 548.16,-132.495"/>
</g>
<!-- Node24&#45;&gt;Node14 -->
<g id="edge45" class="edge"><title>Node24&#45;&gt;Node14</title>
<path fill="none" stroke="midnightblue" d="M644.266,-168.083C650.545,-160.377 659.788,-149.033 667.431,-139.653"/>
<polygon fill="midnightblue" stroke="midnightblue" points="670.266,-141.714 673.869,-131.751 664.839,-137.293 670.266,-141.714"/>
</g>
</g>
</svg>
