<?xml version="1.0" encoding="UTF-8" standalone="no"?>
<!DOCTYPE svg PUBLIC "-//W3C//DTD SVG 1.1//EN"
 "http://www.w3.org/Graphics/SVG/1.1/DTD/svg11.dtd">
<!-- Generated by graphviz version 2.38.0 (20140413.2041)
 -->
<!-- Title: include/Sprite.h Pages: 1 -->
<svg width="485pt" height="196pt"
 viewBox="0.00 0.00 485.35 196.00" xmlns="http://www.w3.org/2000/svg" xmlns:xlink="http://www.w3.org/1999/xlink">
<g id="graph0" class="graph" transform="scale(1 1) rotate(0) translate(4 192)">
<title>include/Sprite.h</title>
<polygon fill="white" stroke="none" points="-4,4 -4,-192 481.346,-192 481.346,4 -4,4"/>
<!-- Node0 -->
<g id="node1" class="node"><title>Node0</title>
<polygon fill="#bfbfbf" stroke="black" points="82.3461,-168.5 82.3461,-187.5 166.346,-187.5 166.346,-168.5 82.3461,-168.5"/>
<text text-anchor="middle" x="124.346" y="-175.5" font-family="Helvetica,sans-Serif" font-size="10.00">include/Sprite.h</text>
</g>
<!-- Node1 -->
<g id="node2" class="node"><title>Node1</title>
<g id="a_node2"><a xlink:href="SDL__include_8h.html" target="_top" xlink:title="SDL_include.h">
<polygon fill="white" stroke="black" points="95.3461,-0.5 95.3461,-19.5 175.346,-19.5 175.346,-0.5 95.3461,-0.5"/>
<text text-anchor="middle" x="135.346" y="-7.5" font-family="Helvetica,sans-Serif" font-size="10.00">SDL_include.h</text>
</a>
</g>
</g>
<!-- Node0&#45;&gt;Node1 -->
<g id="edge1" class="edge"><title>Node0&#45;&gt;Node1</title>
<path fill="none" stroke="midnightblue" d="M81.9963,-171.959C41.6197,-164.908 -11.1843,-148.576 2.34614,-112 18.7802,-67.5746 68.4053,-38.7175 102.165,-23.6512"/>
<polygon fill="midnightblue" stroke="midnightblue" points="103.835,-26.7434 111.651,-19.5909 101.081,-20.3081 103.835,-26.7434"/>
</g>
<!-- Node2 -->
<g id="node3" class="node"><title>Node2</title>
<polygon fill="white" stroke="#bfbfbf" points="11.8461,-112.5 11.8461,-131.5 52.8461,-131.5 52.8461,-112.5 11.8461,-112.5"/>
<text text-anchor="middle" x="32.3461" y="-119.5" font-family="Helvetica,sans-Serif" font-size="10.00">string</text>
</g>
<!-- Node0&#45;&gt;Node2 -->
<g id="edge2" class="edge"><title>Node0&#45;&gt;Node2</title>
<path fill="none" stroke="midnightblue" d="M109.565,-168.324C95.0791,-159.822 72.7731,-146.729 55.8529,-136.797"/>
<polygon fill="midnightblue" stroke="midnightblue" points="57.4867,-133.698 47.0908,-131.655 53.9433,-139.735 57.4867,-133.698"/>
</g>
<!-- Node3 -->
<g id="node4" class="node"><title>Node3</title>
<polygon fill="white" stroke="#bfbfbf" points="71.3461,-112.5 71.3461,-131.5 123.346,-131.5 123.346,-112.5 71.3461,-112.5"/>
<text text-anchor="middle" x="97.3461" y="-119.5" font-family="Helvetica,sans-Serif" font-size="10.00">memory</text>
</g>
<!-- Node0&#45;&gt;Node3 -->
<g id="edge3" class="edge"><title>Node0&#45;&gt;Node3</title>
<path fill="none" stroke="midnightblue" d="M119.888,-168.083C116.192,-160.691 110.823,-149.953 106.252,-140.811"/>
<polygon fill="midnightblue" stroke="midnightblue" points="109.324,-139.13 101.722,-131.751 103.063,-142.261 109.324,-139.13"/>
</g>
<!-- Node4 -->
<g id="node5" class="node"><title>Node4</title>
<g id="a_node5"><a xlink:href="Color_8h.html" target="_top" xlink:title="Color.h">
<polygon fill="white" stroke="black" points="59.3461,-56.5 59.3461,-75.5 107.346,-75.5 107.346,-56.5 59.3461,-56.5"/>
<text text-anchor="middle" x="83.3461" y="-63.5" font-family="Helvetica,sans-Serif" font-size="10.00">Color.h</text>
</a>
</g>
</g>
<!-- Node0&#45;&gt;Node4 -->
<g id="edge4" class="edge"><title>Node0&#45;&gt;Node4</title>
<path fill="none" stroke="midnightblue" d="M128.219,-168.169C133.279,-155.26 140.578,-130.737 132.346,-112 126.956,-99.732 116.388,-89.3414 106.442,-81.6461"/>
<polygon fill="midnightblue" stroke="midnightblue" points="108.174,-78.5811 98.0076,-75.598 104.095,-84.2697 108.174,-78.5811"/>
</g>
<!-- Node5 -->
<g id="node6" class="node"><title>Node5</title>
<g id="a_node6"><a xlink:href="Rect_8h.html" target="_top" xlink:title="Rect.h">
<polygon fill="white" stroke="black" points="179.346,-112.5 179.346,-131.5 225.346,-131.5 225.346,-112.5 179.346,-112.5"/>
<text text-anchor="middle" x="202.346" y="-119.5" font-family="Helvetica,sans-Serif" font-size="10.00">Rect.h</text>
</a>
</g>
</g>
<!-- Node0&#45;&gt;Node5 -->
<g id="edge6" class="edge"><title>Node0&#45;&gt;Node5</title>
<path fill="none" stroke="midnightblue" d="M136.878,-168.324C148.932,-159.979 167.373,-147.212 181.615,-137.352"/>
<polygon fill="midnightblue" stroke="midnightblue" points="183.615,-140.224 189.845,-131.655 179.631,-134.469 183.615,-140.224"/>
</g>
<!-- Node8 -->
<g id="node9" class="node"><title>Node8</title>
<g id="a_node9"><a xlink:href="InputManager_8h.html" target="_top" xlink:title="InputManager.h">
<polygon fill="white" stroke="black" points="259.346,-112.5 259.346,-131.5 343.346,-131.5 343.346,-112.5 259.346,-112.5"/>
<text text-anchor="middle" x="301.346" y="-119.5" font-family="Helvetica,sans-Serif" font-size="10.00">InputManager.h</text>
</a>
</g>
</g>
<!-- Node0&#45;&gt;Node8 -->
<g id="edge11" class="edge"><title>Node0&#45;&gt;Node8</title>
<path fill="none" stroke="midnightblue" d="M152.392,-168.444C182.428,-159.28 230.259,-144.688 263.589,-134.519"/>
<polygon fill="midnightblue" stroke="midnightblue" points="264.888,-137.782 273.431,-131.516 262.845,-131.087 264.888,-137.782"/>
</g>
<!-- Node4&#45;&gt;Node1 -->
<g id="edge5" class="edge"><title>Node4&#45;&gt;Node1</title>
<path fill="none" stroke="midnightblue" d="M91.9329,-56.083C99.5051,-48.2195 110.724,-36.5688 119.86,-27.0813"/>
<polygon fill="midnightblue" stroke="midnightblue" points="122.504,-29.3821 126.919,-19.7511 117.462,-24.5266 122.504,-29.3821"/>
</g>
<!-- Node5&#45;&gt;Node1 -->
<g id="edge7" class="edge"><title>Node5&#45;&gt;Node1</title>
<path fill="none" stroke="midnightblue" d="M189.944,-112.399C179.055,-104.228 163.556,-90.9875 154.346,-76 145.594,-61.7573 140.703,-43.284 138.083,-29.6734"/>
<polygon fill="midnightblue" stroke="midnightblue" points="141.496,-28.863 136.383,-19.5838 134.594,-30.0265 141.496,-28.863"/>
</g>
<!-- Node6 -->
<g id="node7" class="node"><title>Node6</title>
<g id="a_node7"><a xlink:href="Vec2_8h.html" target="_top" xlink:title="Vec2.h">
<polygon fill="white" stroke="black" points="225.846,-56.5 225.846,-75.5 272.846,-75.5 272.846,-56.5 225.846,-56.5"/>
<text text-anchor="middle" x="249.346" y="-63.5" font-family="Helvetica,sans-Serif" font-size="10.00">Vec2.h</text>
</a>
</g>
</g>
<!-- Node5&#45;&gt;Node6 -->
<g id="edge8" class="edge"><title>Node5&#45;&gt;Node6</title>
<path fill="none" stroke="midnightblue" d="M210.107,-112.083C216.883,-104.298 226.889,-92.8015 235.101,-83.3665"/>
<polygon fill="midnightblue" stroke="midnightblue" points="237.804,-85.592 241.729,-75.7511 232.524,-80.9963 237.804,-85.592"/>
</g>
<!-- Node7 -->
<g id="node8" class="node"><title>Node7</title>
<polygon fill="white" stroke="#bfbfbf" points="163.346,-56.5 163.346,-75.5 207.346,-75.5 207.346,-56.5 163.346,-56.5"/>
<text text-anchor="middle" x="185.346" y="-63.5" font-family="Helvetica,sans-Serif" font-size="10.00">cmath</text>
</g>
<!-- Node5&#45;&gt;Node7 -->
<g id="edge10" class="edge"><title>Node5&#45;&gt;Node7</title>
<path fill="none" stroke="midnightblue" d="M199.539,-112.083C197.261,-104.849 193.975,-94.4087 191.138,-85.3968"/>
<polygon fill="midnightblue" stroke="midnightblue" points="194.443,-84.2385 188.101,-75.7511 187.766,-86.3406 194.443,-84.2385"/>
</g>
<!-- Node6&#45;&gt;Node1 -->
<g id="edge9" class="edge"><title>Node6&#45;&gt;Node1</title>
<path fill="none" stroke="midnightblue" d="M231.282,-56.4435C212.771,-47.6751 183.765,-33.9355 162.491,-23.8579"/>
<polygon fill="midnightblue" stroke="midnightblue" points="163.861,-20.6343 153.325,-19.5164 160.864,-26.9604 163.861,-20.6343"/>
</g>
<!-- Node8&#45;&gt;Node1 -->
<g id="edge12" class="edge"><title>Node8&#45;&gt;Node1</title>
<path fill="none" stroke="midnightblue" d="M301.134,-112.114C300.317,-98.2221 296.704,-71.3653 281.346,-56 256.161,-30.8026 217.212,-19.6583 185.876,-14.7569"/>
<polygon fill="midnightblue" stroke="midnightblue" points="185.959,-11.2348 175.572,-13.3228 184.994,-18.168 185.959,-11.2348"/>
</g>
<!-- Node8&#45;&gt;Node6 -->
<g id="edge13" class="edge"><title>Node8&#45;&gt;Node6</title>
<path fill="none" stroke="midnightblue" d="M292.759,-112.083C285.187,-104.22 273.968,-92.5688 264.832,-83.0813"/>
<polygon fill="midnightblue" stroke="midnightblue" points="267.231,-80.5266 257.773,-75.7511 262.188,-85.3821 267.231,-80.5266"/>
</g>
<!-- Node9 -->
<g id="node10" class="node"><title>Node9</title>
<polygon fill="white" stroke="#bfbfbf" points="329.846,-56.5 329.846,-75.5 412.846,-75.5 412.846,-56.5 329.846,-56.5"/>
<text text-anchor="middle" x="371.346" y="-63.5" font-family="Helvetica,sans-Serif" font-size="10.00">unordered_map</text>
</g>
<!-- Node8&#45;&gt;Node9 -->
<g id="edge14" class="edge"><title>Node8&#45;&gt;Node9</title>
<path fill="none" stroke="midnightblue" d="M312.593,-112.324C323.144,-104.185 339.147,-91.8395 351.788,-82.0874"/>
<polygon fill="midnightblue" stroke="midnightblue" points="354.115,-84.7132 359.895,-75.8339 349.839,-79.1707 354.115,-84.7132"/>
</g>
<!-- Node10 -->
<g id="node11" class="node"><title>Node10</title>
<polygon fill="white" stroke="#bfbfbf" points="431.346,-56.5 431.346,-75.5 477.346,-75.5 477.346,-56.5 431.346,-56.5"/>
<text text-anchor="middle" x="454.346" y="-63.5" font-family="Helvetica,sans-Serif" font-size="10.00">cstdint</text>
</g>
<!-- Node8&#45;&gt;Node10 -->
<g id="edge15" class="edge"><title>Node8&#45;&gt;Node10</title>
<path fill="none" stroke="midnightblue" d="M325.589,-112.444C351.518,-103.292 392.789,-88.726 421.594,-78.5594"/>
<polygon fill="midnightblue" stroke="midnightblue" points="422.953,-81.7917 431.218,-75.1629 420.623,-75.1907 422.953,-81.7917"/>
</g>
</g>
</svg>
