<?xml version="1.0" encoding="UTF-8" standalone="no"?>
<!DOCTYPE svg PUBLIC "-//W3C//DTD SVG 1.1//EN"
 "http://www.w3.org/Graphics/SVG/1.1/DTD/svg11.dtd">
<!-- Generated by graphviz version 2.40.1 (20161225.0304)
 -->
<!-- Title: src/Sprite.cpp Pages: 1 -->
<svg width="1152pt" height="420pt"
 viewBox="0.00 0.00 1152.00 420.00" xmlns="http://www.w3.org/2000/svg" xmlns:xlink="http://www.w3.org/1999/xlink">
<g id="graph0" class="graph" transform="scale(1 1) rotate(0) translate(4 416)">
<title>src/Sprite.cpp</title>
<polygon fill="#ffffff" stroke="transparent" points="-4,4 -4,-416 1148,-416 1148,4 -4,4"/>
<!-- Node0 -->
<g id="node1" class="node">
<title>Node0</title>
<polygon fill="#bfbfbf" stroke="#000000" points="745.5,-392.5 745.5,-411.5 822.5,-411.5 822.5,-392.5 745.5,-392.5"/>
<text text-anchor="middle" x="784" y="-399.5" font-family="Helvetica,sans-Serif" font-size="10.00" fill="#000000">src/Sprite.cpp</text>
</g>
<!-- Node1 -->
<g id="node2" class="node">
<title>Node1</title>
<g id="a_node2"><a xlink:href="Sprite_8h.html" target="_top" xlink:title="Sprite.h">
<polygon fill="#ffffff" stroke="#000000" points="395,-336.5 395,-355.5 445,-355.5 445,-336.5 395,-336.5"/>
<text text-anchor="middle" x="420" y="-343.5" font-family="Helvetica,sans-Serif" font-size="10.00" fill="#000000">Sprite.h</text>
</a>
</g>
</g>
<!-- Node0&#45;&gt;Node1 -->
<g id="edge1" class="edge">
<title>Node0&#45;&gt;Node1</title>
<path fill="none" stroke="#191970" d="M745.3902,-396.06C674.3563,-385.1317 523.96,-361.9939 455.3982,-351.4459"/>
<polygon fill="#191970" stroke="#191970" points="455.5378,-347.9262 445.1218,-349.8649 454.4733,-354.8449 455.5378,-347.9262"/>
</g>
<!-- Node18 -->
<g id="node19" class="node">
<title>Node18</title>
<g id="a_node19"><a xlink:href="Camera_8h.html" target="_top" xlink:title="Camera.h">
<polygon fill="#ffffff" stroke="#000000" points="640.5,-280.5 640.5,-299.5 699.5,-299.5 699.5,-280.5 640.5,-280.5"/>
<text text-anchor="middle" x="670" y="-287.5" font-family="Helvetica,sans-Serif" font-size="10.00" fill="#000000">Camera.h</text>
</a>
</g>
</g>
<!-- Node0&#45;&gt;Node18 -->
<g id="edge35" class="edge">
<title>Node0&#45;&gt;Node18</title>
<path fill="none" stroke="#191970" d="M774.2804,-392.4509C754.9301,-373.4401 711.3681,-330.6423 687.1163,-306.816"/>
<polygon fill="#191970" stroke="#191970" points="689.2813,-304.0364 679.695,-299.5249 684.3755,-309.0298 689.2813,-304.0364"/>
</g>
<!-- Node20 -->
<g id="node21" class="node">
<title>Node20</title>
<g id="a_node21"><a xlink:href="Error_8h.html" target="_top" xlink:title="Error.h">
<polygon fill="#ffffff" stroke="#000000" points="1025,-336.5 1025,-355.5 1071,-355.5 1071,-336.5 1025,-336.5"/>
<text text-anchor="middle" x="1048" y="-343.5" font-family="Helvetica,sans-Serif" font-size="10.00" fill="#000000">Error.h</text>
</a>
</g>
</g>
<!-- Node0&#45;&gt;Node20 -->
<g id="edge40" class="edge">
<title>Node0&#45;&gt;Node20</title>
<path fill="none" stroke="#191970" d="M822.6706,-393.7971C874.5746,-382.7872 965.8952,-363.4162 1014.8269,-353.0367"/>
<polygon fill="#191970" stroke="#191970" points="1015.8251,-356.4029 1024.8811,-350.904 1014.3725,-349.5553 1015.8251,-356.4029"/>
</g>
<!-- Node23 -->
<g id="node24" class="node">
<title>Node23</title>
<g id="a_node24"><a xlink:href="Game_8h.html" target="_top" xlink:title="Game.h">
<polygon fill="#ffffff" stroke="#000000" points="812.5,-280.5 812.5,-299.5 863.5,-299.5 863.5,-280.5 812.5,-280.5"/>
<text text-anchor="middle" x="838" y="-287.5" font-family="Helvetica,sans-Serif" font-size="10.00" fill="#000000">Game.h</text>
</a>
</g>
</g>
<!-- Node0&#45;&gt;Node23 -->
<g id="edge43" class="edge">
<title>Node0&#45;&gt;Node23</title>
<path fill="none" stroke="#191970" d="M788.604,-392.4509C797.5309,-373.936 817.3358,-332.8591 828.9749,-308.7187"/>
<polygon fill="#191970" stroke="#191970" points="832.2173,-310.0527 833.4076,-299.5249 825.9119,-307.0125 832.2173,-310.0527"/>
</g>
<!-- Node26 -->
<g id="node27" class="node">
<title>Node26</title>
<g id="a_node27"><a xlink:href="Resources_8h.html" target="_top" xlink:title="Resources.h">
<polygon fill="#ffffff" stroke="#000000" points="642,-168.5 642,-187.5 714,-187.5 714,-168.5 642,-168.5"/>
<text text-anchor="middle" x="678" y="-175.5" font-family="Helvetica,sans-Serif" font-size="10.00" fill="#000000">Resources.h</text>
</a>
</g>
</g>
<!-- Node0&#45;&gt;Node26 -->
<g id="edge59" class="edge">
<title>Node0&#45;&gt;Node26</title>
<path fill="none" stroke="#191970" d="M785.8542,-392.4662C790.8365,-364.0089 801.7763,-278.292 765,-224 754.8274,-208.9824 738.1298,-198.5095 722.0687,-191.3945"/>
<polygon fill="#191970" stroke="#191970" points="723.3208,-188.1253 712.7398,-187.5844 720.6741,-194.6057 723.3208,-188.1253"/>
</g>
<!-- Node2 -->
<g id="node3" class="node">
<title>Node2</title>
<g id="a_node3"><a xlink:href="SDL__include_8h.html" target="_top" xlink:title="SDL_include.h">
<polygon fill="#ffffff" stroke="#000000" points="395,-.5 395,-19.5 475,-19.5 475,-.5 395,-.5"/>
<text text-anchor="middle" x="435" y="-7.5" font-family="Helvetica,sans-Serif" font-size="10.00" fill="#000000">SDL_include.h</text>
</a>
</g>
</g>
<!-- Node1&#45;&gt;Node2 -->
<g id="edge2" class="edge">
<title>Node1&#45;&gt;Node2</title>
<path fill="none" stroke="#191970" d="M394.9849,-344.7665C304.5667,-339.6377 0,-316.2566 0,-234 0,-234 0,-234 0,-122 0,-43.3521 270.044,-19.1094 384.5952,-12.3638"/>
<polygon fill="#191970" stroke="#191970" points="385.0701,-15.8426 394.856,-11.7821 384.6738,-8.8538 385.0701,-15.8426"/>
</g>
<!-- Node3 -->
<g id="node4" class="node">
<title>Node3</title>
<polygon fill="#ffffff" stroke="#bfbfbf" points="608.5,-112.5 608.5,-131.5 649.5,-131.5 649.5,-112.5 608.5,-112.5"/>
<text text-anchor="middle" x="629" y="-119.5" font-family="Helvetica,sans-Serif" font-size="10.00" fill="#000000">string</text>
</g>
<!-- Node1&#45;&gt;Node3 -->
<g id="edge3" class="edge">
<title>Node1&#45;&gt;Node3</title>
<path fill="none" stroke="#191970" d="M428.9805,-336.375C461.2709,-301.7671 571.7542,-183.3544 613.1599,-138.9769"/>
<polygon fill="#191970" stroke="#191970" points="615.79,-141.2885 620.053,-131.5891 610.6719,-136.5131 615.79,-141.2885"/>
</g>
<!-- Node4 -->
<g id="node5" class="node">
<title>Node4</title>
<polygon fill="#ffffff" stroke="#bfbfbf" points="500,-112.5 500,-131.5 552,-131.5 552,-112.5 500,-112.5"/>
<text text-anchor="middle" x="526" y="-119.5" font-family="Helvetica,sans-Serif" font-size="10.00" fill="#000000">memory</text>
</g>
<!-- Node1&#45;&gt;Node4 -->
<g id="edge4" class="edge">
<title>Node1&#45;&gt;Node4</title>
<path fill="none" stroke="#191970" d="M422.3033,-336.1945C429.1053,-308.3941 450.8561,-227.2441 486,-168 492.1554,-157.6235 500.7607,-147.3667 508.4134,-139.1806"/>
<polygon fill="#191970" stroke="#191970" points="511.1667,-141.3693 515.6226,-131.757 506.145,-136.4926 511.1667,-141.3693"/>
</g>
<!-- Node5 -->
<g id="node6" class="node">
<title>Node5</title>
<g id="a_node6"><a xlink:href="Component_8h.html" target="_top" xlink:title="Component.h">
<polygon fill="#ffffff" stroke="#000000" points="316.5,-224.5 316.5,-243.5 391.5,-243.5 391.5,-224.5 316.5,-224.5"/>
<text text-anchor="middle" x="354" y="-231.5" font-family="Helvetica,sans-Serif" font-size="10.00" fill="#000000">Component.h</text>
</a>
</g>
</g>
<!-- Node1&#45;&gt;Node5 -->
<g id="edge5" class="edge">
<title>Node1&#45;&gt;Node5</title>
<path fill="none" stroke="#191970" d="M414.3729,-336.4509C403.4136,-317.8533 379.0399,-276.4919 364.8407,-252.3964"/>
<polygon fill="#191970" stroke="#191970" points="367.7052,-250.3633 359.6129,-243.5249 361.6745,-253.9172 367.7052,-250.3633"/>
</g>
<!-- Node9 -->
<g id="node10" class="node">
<title>Node9</title>
<g id="a_node10"><a xlink:href="Rect_8h.html" target="_top" xlink:title="Rect.h">
<polygon fill="#ffffff" stroke="#000000" points="100,-112.5 100,-131.5 146,-131.5 146,-112.5 100,-112.5"/>
<text text-anchor="middle" x="123" y="-119.5" font-family="Helvetica,sans-Serif" font-size="10.00" fill="#000000">Rect.h</text>
</a>
</g>
</g>
<!-- Node1&#45;&gt;Node9 -->
<g id="edge22" class="edge">
<title>Node1&#45;&gt;Node9</title>
<path fill="none" stroke="#191970" d="M394.8085,-343.1091C337.7989,-336.3218 200.5512,-318.5349 158,-300 120.1868,-283.5289 102.3657,-280.9302 84,-244 78.7589,-233.461 74.2994,-199.4142 86,-168 90.0244,-157.1951 97.6571,-147.0032 104.9496,-138.9722"/>
<polygon fill="#191970" stroke="#191970" points="107.5342,-141.3346 111.9825,-131.7188 102.5086,-136.4618 107.5342,-141.3346"/>
</g>
<!-- Node12 -->
<g id="node13" class="node">
<title>Node12</title>
<g id="a_node13"><a xlink:href="Color_8h.html" target="_top" xlink:title="Color.h">
<polygon fill="#ffffff" stroke="#000000" points="477,-56.5 477,-75.5 525,-75.5 525,-56.5 477,-56.5"/>
<text text-anchor="middle" x="501" y="-63.5" font-family="Helvetica,sans-Serif" font-size="10.00" fill="#000000">Color.h</text>
</a>
</g>
</g>
<!-- Node1&#45;&gt;Node12 -->
<g id="edge20" class="edge">
<title>Node1&#45;&gt;Node12</title>
<path fill="none" stroke="#191970" d="M439.5024,-336.4396C454.1844,-328.4179 473.9452,-315.7524 487,-300 539.0618,-237.1799 544.1952,-211.8398 561,-132 562.8308,-123.3017 564.9331,-119.9714 561,-112 554.5207,-98.8681 542.2938,-88.4457 530.5593,-80.8651"/>
<polygon fill="#191970" stroke="#191970" points="532.1652,-77.7475 521.7852,-75.6244 528.5756,-83.7572 532.1652,-77.7475"/>
</g>
<!-- Node13 -->
<g id="node14" class="node">
<title>Node13</title>
<g id="a_node14"><a xlink:href="RectTransform_8h.html" target="_top" xlink:title="RectTransform.h">
<polygon fill="#ffffff" stroke="#000000" points="167,-280.5 167,-299.5 257,-299.5 257,-280.5 167,-280.5"/>
<text text-anchor="middle" x="212" y="-287.5" font-family="Helvetica,sans-Serif" font-size="10.00" fill="#000000">RectTransform.h</text>
</a>
</g>
</g>
<!-- Node1&#45;&gt;Node13 -->
<g id="edge23" class="edge">
<title>Node1&#45;&gt;Node13</title>
<path fill="none" stroke="#191970" d="M394.9103,-339.2451C360.8999,-330.0884 299.5761,-313.5782 257.3764,-302.2167"/>
<polygon fill="#191970" stroke="#191970" points="258.1859,-298.8101 247.6198,-299.5899 256.366,-305.5694 258.1859,-298.8101"/>
</g>
<!-- Node15 -->
<g id="node16" class="node">
<title>Node15</title>
<g id="a_node16"><a xlink:href="InputManager_8h.html" target="_top" xlink:title="InputManager.h">
<polygon fill="#ffffff" stroke="#000000" points="846,-168.5 846,-187.5 930,-187.5 930,-168.5 846,-168.5"/>
<text text-anchor="middle" x="888" y="-175.5" font-family="Helvetica,sans-Serif" font-size="10.00" fill="#000000">InputManager.h</text>
</a>
</g>
</g>
<!-- Node1&#45;&gt;Node15 -->
<g id="edge30" class="edge">
<title>Node1&#45;&gt;Node15</title>
<path fill="none" stroke="#191970" d="M445.0447,-344.5949C534.4283,-339.4246 834.4252,-320.6799 872,-300 899.7301,-284.7383 905.6539,-273.9138 916,-244 921.7518,-227.3699 912.6114,-208.9792 903.273,-195.8442"/>
<polygon fill="#191970" stroke="#191970" points="905.8431,-193.4462 896.957,-187.6767 900.3057,-197.7285 905.8431,-193.4462"/>
</g>
<!-- Node6 -->
<g id="node7" class="node">
<title>Node6</title>
<g id="a_node7"><a xlink:href="ComponentType_8h.html" target="_top" xlink:title="ComponentType.h">
<polygon fill="#ffffff" stroke="#000000" points="240.5,-112.5 240.5,-131.5 337.5,-131.5 337.5,-112.5 240.5,-112.5"/>
<text text-anchor="middle" x="289" y="-119.5" font-family="Helvetica,sans-Serif" font-size="10.00" fill="#000000">ComponentType.h</text>
</a>
</g>
</g>
<!-- Node5&#45;&gt;Node6 -->
<g id="edge6" class="edge">
<title>Node5&#45;&gt;Node6</title>
<path fill="none" stroke="#191970" d="M340.9612,-224.4662C330.3207,-216.0211 315.6756,-202.7662 307,-188 298.6334,-173.7597 294.045,-155.5152 291.599,-141.8187"/>
<polygon fill="#191970" stroke="#191970" points="295.0013,-140.9178 290.0122,-131.5711 288.0837,-141.9889 295.0013,-140.9178"/>
</g>
<!-- Node7 -->
<g id="node8" class="node">
<title>Node7</title>
<g id="a_node8"><a xlink:href="GameObject_8h.html" target="_top" xlink:title="GameObject.h">
<polygon fill="#ffffff" stroke="#000000" points="316,-168.5 316,-187.5 396,-187.5 396,-168.5 316,-168.5"/>
<text text-anchor="middle" x="356" y="-175.5" font-family="Helvetica,sans-Serif" font-size="10.00" fill="#000000">GameObject.h</text>
</a>
</g>
</g>
<!-- Node5&#45;&gt;Node7 -->
<g id="edge7" class="edge">
<title>Node5&#45;&gt;Node7</title>
<path fill="none" stroke="#191970" d="M349.0815,-224.2455C347.9315,-216.9382 347.8931,-206.6944 348.8168,-197.7046"/>
<polygon fill="#191970" stroke="#191970" points="352.3029,-198.0671 350.4105,-187.6427 345.3891,-196.972 352.3029,-198.0671"/>
</g>
<!-- Node7&#45;&gt;Node2 -->
<g id="edge8" class="edge">
<title>Node7&#45;&gt;Node2</title>
<path fill="none" stroke="#191970" d="M360.4737,-168.4862C373.0699,-141.6994 409.0163,-65.2565 425.9578,-29.2289"/>
<polygon fill="#191970" stroke="#191970" points="429.2904,-30.3667 430.3786,-19.8279 422.9558,-27.3879 429.2904,-30.3667"/>
</g>
<!-- Node7&#45;&gt;Node3 -->
<g id="edge11" class="edge">
<title>Node7&#45;&gt;Node3</title>
<path fill="none" stroke="#191970" d="M396.2821,-169.737C451.2779,-158.4558 548.6715,-138.4777 598.2096,-128.316"/>
<polygon fill="#191970" stroke="#191970" points="599.213,-131.6831 608.3057,-126.245 597.8063,-124.8259 599.213,-131.6831"/>
</g>
<!-- Node7&#45;&gt;Node4 -->
<g id="edge10" class="edge">
<title>Node7&#45;&gt;Node4</title>
<path fill="none" stroke="#191970" d="M385.224,-168.3733C414.3491,-158.7791 459.1164,-144.0323 490.3223,-133.7527"/>
<polygon fill="#191970" stroke="#191970" points="491.5377,-137.0374 499.9406,-130.5843 489.3475,-130.3888 491.5377,-137.0374"/>
</g>
<!-- Node7&#45;&gt;Node5 -->
<g id="edge12" class="edge">
<title>Node7&#45;&gt;Node5</title>
<path fill="none" stroke="#191970" d="M360.9008,-187.6427C362.0622,-194.9199 362.1111,-205.155 361.1973,-214.1575"/>
<polygon fill="#191970" stroke="#191970" points="357.7069,-213.824 359.6152,-224.2455 364.6224,-214.9086 357.7069,-213.824"/>
</g>
<!-- Node7&#45;&gt;Node6 -->
<g id="edge13" class="edge">
<title>Node7&#45;&gt;Node6</title>
<path fill="none" stroke="#191970" d="M344.3295,-168.2455C334.4339,-159.9746 320.0373,-147.9416 308.4099,-138.2232"/>
<polygon fill="#191970" stroke="#191970" points="310.4542,-135.3703 300.5368,-131.6427 305.965,-140.7413 310.4542,-135.3703"/>
</g>
<!-- Node8 -->
<g id="node9" class="node">
<title>Node8</title>
<polygon fill="#ffffff" stroke="#bfbfbf" points="438,-112.5 438,-131.5 482,-131.5 482,-112.5 438,-112.5"/>
<text text-anchor="middle" x="460" y="-119.5" font-family="Helvetica,sans-Serif" font-size="10.00" fill="#000000">vector</text>
</g>
<!-- Node7&#45;&gt;Node8 -->
<g id="edge9" class="edge">
<title>Node7&#45;&gt;Node8</title>
<path fill="none" stroke="#191970" d="M374.1154,-168.2455C390.445,-159.4527 414.671,-146.4079 433.2339,-136.4125"/>
<polygon fill="#191970" stroke="#191970" points="434.9468,-139.4654 442.0922,-131.6427 431.6281,-133.3021 434.9468,-139.4654"/>
</g>
<!-- Node7&#45;&gt;Node9 -->
<g id="edge14" class="edge">
<title>Node7&#45;&gt;Node9</title>
<path fill="none" stroke="#191970" d="M316.2106,-168.4369C271.0623,-157.5858 198.2443,-140.0845 156.0816,-129.9509"/>
<polygon fill="#191970" stroke="#191970" points="156.8513,-126.5363 146.3102,-127.6025 155.2154,-133.3425 156.8513,-126.5363"/>
</g>
<!-- Node9&#45;&gt;Node2 -->
<g id="edge15" class="edge">
<title>Node9&#45;&gt;Node2</title>
<path fill="none" stroke="#191970" d="M120.6127,-112.4626C117.6614,-98.1657 114.6328,-71.234 129,-56 146.2759,-37.6818 302.3665,-21.5228 384.6844,-14.1851"/>
<polygon fill="#191970" stroke="#191970" points="385.1705,-17.656 394.8251,-13.2926 384.5567,-10.6829 385.1705,-17.656"/>
</g>
<!-- Node10 -->
<g id="node11" class="node">
<title>Node10</title>
<g id="a_node11"><a xlink:href="Vec2_8h.html" target="_top" xlink:title="Vec2.h">
<polygon fill="#ffffff" stroke="#000000" points="200.5,-56.5 200.5,-75.5 247.5,-75.5 247.5,-56.5 200.5,-56.5"/>
<text text-anchor="middle" x="224" y="-63.5" font-family="Helvetica,sans-Serif" font-size="10.00" fill="#000000">Vec2.h</text>
</a>
</g>
</g>
<!-- Node9&#45;&gt;Node10 -->
<g id="edge16" class="edge">
<title>Node9&#45;&gt;Node10</title>
<path fill="none" stroke="#191970" d="M135.326,-112.2455C149.5514,-103.4125 172.9866,-90.2887 192.2822,-80.2758"/>
<polygon fill="#191970" stroke="#191970" points="194.0465,-83.3049 201.3636,-75.6427 190.8653,-77.0695 194.0465,-83.3049"/>
</g>
<!-- Node11 -->
<g id="node12" class="node">
<title>Node11</title>
<polygon fill="#ffffff" stroke="#bfbfbf" points="138,-56.5 138,-75.5 182,-75.5 182,-56.5 138,-56.5"/>
<text text-anchor="middle" x="160" y="-63.5" font-family="Helvetica,sans-Serif" font-size="10.00" fill="#000000">cmath</text>
</g>
<!-- Node9&#45;&gt;Node11 -->
<g id="edge19" class="edge">
<title>Node9&#45;&gt;Node11</title>
<path fill="none" stroke="#191970" d="M129.4449,-112.2455C134.5382,-104.5367 141.7908,-93.5598 147.952,-84.2348"/>
<polygon fill="#191970" stroke="#191970" points="151.0365,-85.9155 153.6289,-75.6427 145.1962,-82.0566 151.0365,-85.9155"/>
</g>
<!-- Node10&#45;&gt;Node2 -->
<g id="edge17" class="edge">
<title>Node10&#45;&gt;Node2</title>
<path fill="none" stroke="#191970" d="M247.7942,-59.6849C281.9903,-50.6092 345.6956,-33.7016 389.2044,-22.1543"/>
<polygon fill="#191970" stroke="#191970" points="390.2131,-25.5078 398.9806,-19.5596 388.4174,-18.742 390.2131,-25.5078"/>
</g>
<!-- Node10&#45;&gt;Node9 -->
<g id="edge18" class="edge">
<title>Node10&#45;&gt;Node9</title>
<path fill="none" stroke="#191970" d="M212.0813,-75.5011C197.9109,-84.3278 174.2378,-97.5932 154.7659,-107.6992"/>
<polygon fill="#191970" stroke="#191970" points="152.9216,-104.7109 145.6045,-112.3733 156.1029,-110.9463 152.9216,-104.7109"/>
</g>
<!-- Node12&#45;&gt;Node2 -->
<g id="edge21" class="edge">
<title>Node12&#45;&gt;Node2</title>
<path fill="none" stroke="#191970" d="M489.5037,-56.2455C479.7558,-47.9746 465.5741,-35.9416 454.1202,-26.2232"/>
<polygon fill="#191970" stroke="#191970" points="456.2541,-23.4437 446.3646,-19.6427 451.7253,-28.7813 456.2541,-23.4437"/>
</g>
<!-- Node13&#45;&gt;Node5 -->
<g id="edge25" class="edge">
<title>Node13&#45;&gt;Node5</title>
<path fill="none" stroke="#191970" d="M236.4107,-280.3733C259.6142,-271.2226 294.7038,-257.3844 320.5142,-247.2057"/>
<polygon fill="#191970" stroke="#191970" points="321.8892,-250.4258 329.9079,-243.5011 319.3211,-243.9139 321.8892,-250.4258"/>
</g>
<!-- Node13&#45;&gt;Node6 -->
<g id="edge26" class="edge">
<title>Node13&#45;&gt;Node6</title>
<path fill="none" stroke="#191970" d="M216.3605,-280.4862C228.6378,-253.6994 263.6741,-177.2565 280.1867,-141.2289"/>
<polygon fill="#191970" stroke="#191970" points="283.5107,-142.3769 284.4956,-131.8279 277.1472,-139.4602 283.5107,-142.3769"/>
</g>
<!-- Node13&#45;&gt;Node7 -->
<g id="edge27" class="edge">
<title>Node13&#45;&gt;Node7</title>
<path fill="none" stroke="#191970" d="M224.2774,-280.4509C249.0387,-261.1921 305.1862,-217.5218 335.5655,-193.8935"/>
<polygon fill="#191970" stroke="#191970" points="338.009,-196.4271 343.7537,-187.5249 333.7114,-190.9016 338.009,-196.4271"/>
</g>
<!-- Node13&#45;&gt;Node9 -->
<g id="edge28" class="edge">
<title>Node13&#45;&gt;Node9</title>
<path fill="none" stroke="#191970" d="M175.2865,-280.44C144.6184,-271.6241 104.4323,-257.8435 95,-244 73.2998,-212.1511 95.1024,-165.8808 110.5487,-140.4543"/>
<polygon fill="#191970" stroke="#191970" points="113.6378,-142.1192 116.0535,-131.8034 107.7321,-138.3612 113.6378,-142.1192"/>
</g>
<!-- Node13&#45;&gt;Node10 -->
<g id="edge29" class="edge">
<title>Node13&#45;&gt;Node10</title>
<path fill="none" stroke="#191970" d="M208.978,-280.1497C201.0912,-252.8909 181.5973,-174.355 198,-112 200.6112,-102.0734 205.9067,-92.0366 211.0412,-83.8822"/>
<polygon fill="#191970" stroke="#191970" points="213.9463,-85.8342 216.6181,-75.5817 208.136,-81.9303 213.9463,-85.8342"/>
</g>
<!-- Node14 -->
<g id="node15" class="node">
<title>Node14</title>
<polygon fill="#ffffff" stroke="#bfbfbf" points="104.5,-224.5 104.5,-243.5 145.5,-243.5 145.5,-224.5 104.5,-224.5"/>
<text text-anchor="middle" x="125" y="-231.5" font-family="Helvetica,sans-Serif" font-size="10.00" fill="#000000">cfloat</text>
</g>
<!-- Node13&#45;&gt;Node14 -->
<g id="edge24" class="edge">
<title>Node13&#45;&gt;Node14</title>
<path fill="none" stroke="#191970" d="M196.8458,-280.2455C183.4973,-271.6534 163.8414,-259.0014 148.4617,-249.1018"/>
<polygon fill="#191970" stroke="#191970" points="150.2836,-246.1121 139.9806,-243.6427 146.4949,-251.9982 150.2836,-246.1121"/>
</g>
<!-- Node15&#45;&gt;Node2 -->
<g id="edge31" class="edge">
<title>Node15&#45;&gt;Node2</title>
<path fill="none" stroke="#191970" d="M882.1873,-168.2951C872.9788,-153.7794 853.6345,-126.5658 830,-112 719.208,-43.7195 563.9596,-20.9086 485.154,-13.4716"/>
<polygon fill="#191970" stroke="#191970" points="485.2858,-9.9694 475.0126,-12.5601 484.6591,-16.9413 485.2858,-9.9694"/>
</g>
<!-- Node15&#45;&gt;Node10 -->
<g id="edge32" class="edge">
<title>Node15&#45;&gt;Node10</title>
<path fill="none" stroke="#191970" d="M878.576,-168.2261C863.2885,-153.0919 831.4122,-124.4377 798,-112 747.3483,-93.1449 372.6885,-73.3209 257.5574,-67.619"/>
<polygon fill="#191970" stroke="#191970" points="257.7112,-64.1225 247.5513,-67.1268 257.3672,-71.114 257.7112,-64.1225"/>
</g>
<!-- Node16 -->
<g id="node17" class="node">
<title>Node16</title>
<polygon fill="#ffffff" stroke="#bfbfbf" points="706.5,-112.5 706.5,-131.5 789.5,-131.5 789.5,-112.5 706.5,-112.5"/>
<text text-anchor="middle" x="748" y="-119.5" font-family="Helvetica,sans-Serif" font-size="10.00" fill="#000000">unordered_map</text>
</g>
<!-- Node15&#45;&gt;Node16 -->
<g id="edge33" class="edge">
<title>Node15&#45;&gt;Node16</title>
<path fill="none" stroke="#191970" d="M863.9331,-168.3733C841.1572,-159.2629 806.7656,-145.5062 781.351,-135.3404"/>
<polygon fill="#191970" stroke="#191970" points="782.3375,-131.9654 771.7528,-131.5011 779.7377,-138.4648 782.3375,-131.9654"/>
</g>
<!-- Node17 -->
<g id="node18" class="node">
<title>Node17</title>
<polygon fill="#ffffff" stroke="#bfbfbf" points="884,-112.5 884,-131.5 930,-131.5 930,-112.5 884,-112.5"/>
<text text-anchor="middle" x="907" y="-119.5" font-family="Helvetica,sans-Serif" font-size="10.00" fill="#000000">cstdint</text>
</g>
<!-- Node15&#45;&gt;Node17 -->
<g id="edge34" class="edge">
<title>Node15&#45;&gt;Node17</title>
<path fill="none" stroke="#191970" d="M891.3095,-168.2455C893.8433,-160.7776 897.4177,-150.2427 900.515,-141.1137"/>
<polygon fill="#191970" stroke="#191970" points="903.8298,-142.237 903.7284,-131.6427 897.2009,-139.9879 903.8298,-142.237"/>
</g>
<!-- Node18&#45;&gt;Node7 -->
<g id="edge36" class="edge">
<title>Node18&#45;&gt;Node7</title>
<path fill="none" stroke="#191970" d="M640.3503,-285.0493C602.7317,-278.25 536.222,-264.4861 482,-244 444.9246,-229.9922 404.8127,-207.6071 380.0442,-192.8545"/>
<polygon fill="#191970" stroke="#191970" points="381.7122,-189.7733 371.341,-187.6076 378.098,-195.7681 381.7122,-189.7733"/>
</g>
<!-- Node18&#45;&gt;Node10 -->
<g id="edge37" class="edge">
<title>Node18&#45;&gt;Node10</title>
<path fill="none" stroke="#191970" d="M640.2494,-289.3371C563.8357,-287.1523 362.7701,-278.2178 307,-244 255.7256,-212.5405 251.6801,-188.4898 231,-132 225.5534,-117.1221 223.9382,-99.1862 223.61,-85.7693"/>
<polygon fill="#191970" stroke="#191970" points="227.1099,-85.7182 223.5811,-75.7284 220.11,-85.7385 227.1099,-85.7182"/>
</g>
<!-- Node19 -->
<g id="node20" class="node">
<title>Node19</title>
<g id="a_node20"><a xlink:href="ActionManager_8h.html" target="_top" xlink:title="ActionManager.h">
<polygon fill="#ffffff" stroke="#000000" points="666,-224.5 666,-243.5 756,-243.5 756,-224.5 666,-224.5"/>
<text text-anchor="middle" x="711" y="-231.5" font-family="Helvetica,sans-Serif" font-size="10.00" fill="#000000">ActionManager.h</text>
</a>
</g>
</g>
<!-- Node18&#45;&gt;Node19 -->
<g id="edge38" class="edge">
<title>Node18&#45;&gt;Node19</title>
<path fill="none" stroke="#191970" d="M677.1417,-280.2455C682.8444,-272.4564 690.99,-261.3308 697.8625,-251.9439"/>
<polygon fill="#191970" stroke="#191970" points="700.8568,-253.7789 703.9402,-243.6427 695.2087,-249.6437 700.8568,-253.7789"/>
</g>
<!-- Node19&#45;&gt;Node15 -->
<g id="edge39" class="edge">
<title>Node19&#45;&gt;Node15</title>
<path fill="none" stroke="#191970" d="M741.4274,-224.3733C770.9872,-215.021 816.0226,-200.7725 848.3695,-190.5385"/>
<polygon fill="#191970" stroke="#191970" points="849.4913,-193.8546 857.9697,-187.5011 847.3797,-187.1807 849.4913,-193.8546"/>
</g>
<!-- Node21 -->
<g id="node22" class="node">
<title>Node21</title>
<polygon fill="#ffffff" stroke="#bfbfbf" points="1090,-280.5 1090,-299.5 1144,-299.5 1144,-280.5 1090,-280.5"/>
<text text-anchor="middle" x="1117" y="-287.5" font-family="Helvetica,sans-Serif" font-size="10.00" fill="#000000">iostream</text>
</g>
<!-- Node20&#45;&gt;Node21 -->
<g id="edge41" class="edge">
<title>Node20&#45;&gt;Node21</title>
<path fill="none" stroke="#191970" d="M1060.0189,-336.2455C1070.2098,-327.9746 1085.0362,-315.9416 1097.0107,-306.2232"/>
<polygon fill="#191970" stroke="#191970" points="1099.5598,-308.662 1105.1188,-299.6427 1095.1486,-303.2268 1099.5598,-308.662"/>
</g>
<!-- Node22 -->
<g id="node23" class="node">
<title>Node22</title>
<polygon fill="#ffffff" stroke="#bfbfbf" points="1024,-280.5 1024,-299.5 1072,-299.5 1072,-280.5 1024,-280.5"/>
<text text-anchor="middle" x="1048" y="-287.5" font-family="Helvetica,sans-Serif" font-size="10.00" fill="#000000">stdlib.h</text>
</g>
<!-- Node20&#45;&gt;Node22 -->
<g id="edge42" class="edge">
<title>Node20&#45;&gt;Node22</title>
<path fill="none" stroke="#191970" d="M1048,-336.2455C1048,-328.9382 1048,-318.6944 1048,-309.7046"/>
<polygon fill="#191970" stroke="#191970" points="1051.5001,-309.6426 1048,-299.6427 1044.5001,-309.6427 1051.5001,-309.6426"/>
</g>
<!-- Node23&#45;&gt;Node2 -->
<g id="edge58" class="edge">
<title>Node23&#45;&gt;Node2</title>
<path fill="none" stroke="#191970" d="M861.9954,-280.4657C897.0144,-264.7839 958,-230.0082 958,-178 958,-178 958,-178 958,-122 958,-73.9703 616.3904,-30.4196 485.3431,-15.4798"/>
<polygon fill="#191970" stroke="#191970" points="485.5005,-11.9754 475.1705,-14.3295 484.7139,-18.931 485.5005,-11.9754"/>
</g>
<!-- Node23&#45;&gt;Node3 -->
<g id="edge44" class="edge">
<title>Node23&#45;&gt;Node3</title>
<path fill="none" stroke="#191970" d="M833.5874,-280.2702C827.1073,-266.6685 814.031,-241.6577 798,-224 758.52,-180.5138 696.1559,-149.5371 659.2435,-133.8109"/>
<polygon fill="#191970" stroke="#191970" points="660.125,-130.3871 649.5474,-129.782 657.439,-136.8513 660.125,-130.3871"/>
</g>
<!-- Node23&#45;&gt;Node10 -->
<g id="edge57" class="edge">
<title>Node23&#45;&gt;Node10</title>
<path fill="none" stroke="#191970" d="M812.4375,-287.8675C766.8403,-283.4925 668.9499,-271.4997 591,-244 474.3583,-202.8504 458.5625,-163.2664 346,-112 316.6689,-98.6412 282.2253,-85.9127 257.4295,-77.2457"/>
<polygon fill="#191970" stroke="#191970" points="258.3633,-73.8653 247.7685,-73.9036 256.0748,-80.4807 258.3633,-73.8653"/>
</g>
<!-- Node23&#45;&gt;Node15 -->
<g id="edge56" class="edge">
<title>Node23&#45;&gt;Node15</title>
<path fill="none" stroke="#191970" d="M859.7658,-280.3857C874.0664,-272.773 891.6252,-260.6416 900,-244 907.3425,-229.4096 903.0381,-210.9966 897.6446,-197.3287"/>
<polygon fill="#191970" stroke="#191970" points="900.7361,-195.6661 893.4827,-187.9435 894.337,-198.5038 900.7361,-195.6661"/>
</g>
<!-- Node24 -->
<g id="node25" class="node">
<title>Node24</title>
<polygon fill="#ffffff" stroke="#bfbfbf" points="850.5,-224.5 850.5,-243.5 891.5,-243.5 891.5,-224.5 850.5,-224.5"/>
<text text-anchor="middle" x="871" y="-231.5" font-family="Helvetica,sans-Serif" font-size="10.00" fill="#000000">stack</text>
</g>
<!-- Node23&#45;&gt;Node24 -->
<g id="edge45" class="edge">
<title>Node23&#45;&gt;Node24</title>
<path fill="none" stroke="#191970" d="M843.7482,-280.2455C848.2435,-272.617 854.6248,-261.7881 860.0825,-252.5267"/>
<polygon fill="#191970" stroke="#191970" points="863.2561,-254.035 865.3177,-243.6427 857.2253,-250.4811 863.2561,-254.035"/>
</g>
<!-- Node25 -->
<g id="node26" class="node">
<title>Node25</title>
<g id="a_node26"><a xlink:href="State_8h.html" target="_top" xlink:title="State.h">
<polygon fill="#ffffff" stroke="#000000" points="600,-224.5 600,-243.5 648,-243.5 648,-224.5 600,-224.5"/>
<text text-anchor="middle" x="624" y="-231.5" font-family="Helvetica,sans-Serif" font-size="10.00" fill="#000000">State.h</text>
</a>
</g>
</g>
<!-- Node23&#45;&gt;Node25 -->
<g id="edge46" class="edge">
<title>Node23&#45;&gt;Node25</title>
<path fill="none" stroke="#191970" d="M812.4247,-283.8876C779.0625,-275.8305 718.6681,-260.9602 657.8707,-244.1575"/>
<polygon fill="#191970" stroke="#191970" points="658.6858,-240.7515 648.1137,-241.445 656.8108,-247.4957 658.6858,-240.7515"/>
</g>
<!-- Node25&#45;&gt;Node4 -->
<g id="edge48" class="edge">
<title>Node25&#45;&gt;Node4</title>
<path fill="none" stroke="#191970" d="M615.6446,-224.4509C599.0824,-205.5227 561.8873,-163.014 540.9869,-139.1279"/>
<polygon fill="#191970" stroke="#191970" points="543.5534,-136.7459 534.3343,-131.5249 538.2853,-141.3555 543.5534,-136.7459"/>
</g>
<!-- Node25&#45;&gt;Node7 -->
<g id="edge55" class="edge">
<title>Node25&#45;&gt;Node7</title>
<path fill="none" stroke="#191970" d="M599.7441,-228.9316C556.2289,-219.8389 464.0693,-200.5816 406.3714,-188.5254"/>
<polygon fill="#191970" stroke="#191970" points="406.8739,-185.0548 396.3694,-186.4354 405.442,-191.9068 406.8739,-185.0548"/>
</g>
<!-- Node25&#45;&gt;Node8 -->
<g id="edge47" class="edge">
<title>Node25&#45;&gt;Node8</title>
<path fill="none" stroke="#191970" d="M610.0175,-224.4509C581.5749,-205.0268 516.7708,-160.7703 482.3882,-137.2895"/>
<polygon fill="#191970" stroke="#191970" points="484.1791,-134.2742 473.9472,-131.5249 480.2313,-140.0549 484.1791,-134.2742"/>
</g>
<!-- Node25&#45;&gt;Node15 -->
<g id="edge49" class="edge">
<title>Node25&#45;&gt;Node15</title>
<path fill="none" stroke="#191970" d="M648.0749,-226.408C651.0683,-225.5518 654.0965,-224.7272 657,-224 717.9756,-208.7289 789.0137,-195.2115 836.0441,-186.8479"/>
<polygon fill="#191970" stroke="#191970" points="836.7561,-190.2764 845.9955,-185.0915 835.5394,-183.383 836.7561,-190.2764"/>
</g>
<!-- Node25&#45;&gt;Node26 -->
<g id="edge50" class="edge">
<title>Node25&#45;&gt;Node26</title>
<path fill="none" stroke="#191970" d="M633.4061,-224.2455C641.1493,-216.2155 652.312,-204.6394 661.5318,-195.0781"/>
<polygon fill="#191970" stroke="#191970" points="664.2798,-197.2706 668.7017,-187.6427 659.2409,-192.4117 664.2798,-197.2706"/>
</g>
<!-- Node26&#45;&gt;Node2 -->
<g id="edge51" class="edge">
<title>Node26&#45;&gt;Node2</title>
<path fill="none" stroke="#191970" d="M677.5073,-168.2945C676.3061,-154.2662 672.1784,-128.2304 658,-112 612.7049,-60.1496 535.646,-33.104 485.0301,-20.2158"/>
<polygon fill="#191970" stroke="#191970" points="485.8226,-16.8065 475.2767,-17.8237 484.1552,-23.605 485.8226,-16.8065"/>
</g>
<!-- Node26&#45;&gt;Node3 -->
<g id="edge52" class="edge">
<title>Node26&#45;&gt;Node3</title>
<path fill="none" stroke="#191970" d="M669.4649,-168.2455C662.5088,-160.2958 652.5117,-148.8706 644.1949,-139.3656"/>
<polygon fill="#191970" stroke="#191970" points="646.6564,-136.8637 637.4373,-131.6427 641.3884,-141.4732 646.6564,-136.8637"/>
</g>
<!-- Node26&#45;&gt;Node4 -->
<g id="edge54" class="edge">
<title>Node26&#45;&gt;Node4</title>
<path fill="none" stroke="#191970" d="M651.8703,-168.3733C626.9232,-159.1822 589.1408,-145.2624 561.4794,-135.0713"/>
<polygon fill="#191970" stroke="#191970" points="562.3822,-131.674 551.7888,-131.5011 559.9622,-138.2424 562.3822,-131.674"/>
</g>
<!-- Node26&#45;&gt;Node16 -->
<g id="edge53" class="edge">
<title>Node26&#45;&gt;Node16</title>
<path fill="none" stroke="#191970" d="M690.1931,-168.2455C700.6321,-159.8943 715.8655,-147.7076 728.074,-137.9408"/>
<polygon fill="#191970" stroke="#191970" points="730.3244,-140.6227 735.9467,-131.6427 725.9515,-135.1566 730.3244,-140.6227"/>
</g>
</g>
</svg>
