<?xml version="1.0" encoding="UTF-8" standalone="no"?>
<!DOCTYPE svg PUBLIC "-//W3C//DTD SVG 1.1//EN"
 "http://www.w3.org/Graphics/SVG/1.1/DTD/svg11.dtd">
<!-- Generated by graphviz version 2.40.1 (20161225.0304)
 -->
<!-- Title: src/State.cpp Pages: 1 -->
<svg width="892pt" height="364pt"
 viewBox="0.00 0.00 892.02 364.00" xmlns="http://www.w3.org/2000/svg" xmlns:xlink="http://www.w3.org/1999/xlink">
<g id="graph0" class="graph" transform="scale(1 1) rotate(0) translate(4 360)">
<title>src/State.cpp</title>
<polygon fill="#ffffff" stroke="transparent" points="-4,4 -4,-360 888.018,-360 888.018,4 -4,4"/>
<!-- Node0 -->
<g id="node1" class="node">
<title>Node0</title>
<polygon fill="#bfbfbf" stroke="#000000" points="487.518,-336.5 487.518,-355.5 562.518,-355.5 562.518,-336.5 487.518,-336.5"/>
<text text-anchor="middle" x="525.018" y="-343.5" font-family="Helvetica,sans-Serif" font-size="10.00" fill="#000000">src/State.cpp</text>
</g>
<!-- Node1 -->
<g id="node2" class="node">
<title>Node1</title>
<g id="a_node2"><a xlink:href="State_8h.html" target="_top" xlink:title="State.h">
<polygon fill="#ffffff" stroke="#000000" points="468.018,-224.5 468.018,-243.5 516.018,-243.5 516.018,-224.5 468.018,-224.5"/>
<text text-anchor="middle" x="492.018" y="-231.5" font-family="Helvetica,sans-Serif" font-size="10.00" fill="#000000">State.h</text>
</a>
</g>
</g>
<!-- Node0&#45;&gt;Node1 -->
<g id="edge1" class="edge">
<title>Node0&#45;&gt;Node1</title>
<path fill="none" stroke="#191970" d="M522.2044,-336.4509C516.7978,-318.1013 504.8617,-277.5908 497.725,-253.3693"/>
<polygon fill="#191970" stroke="#191970" points="501.0081,-252.128 494.8244,-243.5249 494.2935,-254.1064 501.0081,-252.128"/>
</g>
<!-- Node16 -->
<g id="node17" class="node">
<title>Node16</title>
<g id="a_node17"><a xlink:href="Error_8h.html" target="_top" xlink:title="Error.h">
<polygon fill="#ffffff" stroke="#000000" points="768.018,-280.5 768.018,-299.5 814.018,-299.5 814.018,-280.5 768.018,-280.5"/>
<text text-anchor="middle" x="791.018" y="-287.5" font-family="Helvetica,sans-Serif" font-size="10.00" fill="#000000">Error.h</text>
</a>
</g>
</g>
<!-- Node0&#45;&gt;Node16 -->
<g id="edge29" class="edge">
<title>Node0&#45;&gt;Node16</title>
<path fill="none" stroke="#191970" d="M562.5651,-338.0953C614.7078,-327.1179 708.2213,-307.4309 757.8957,-296.9731"/>
<polygon fill="#191970" stroke="#191970" points="758.7352,-300.3732 767.7997,-294.8881 757.2931,-293.5233 758.7352,-300.3732"/>
</g>
<!-- Node19 -->
<g id="node20" class="node">
<title>Node19</title>
<g id="a_node20"><a xlink:href="Camera_8h.html" target="_top" xlink:title="Camera.h">
<polygon fill="#ffffff" stroke="#000000" points="254.518,-280.5 254.518,-299.5 313.518,-299.5 313.518,-280.5 254.518,-280.5"/>
<text text-anchor="middle" x="284.018" y="-287.5" font-family="Helvetica,sans-Serif" font-size="10.00" fill="#000000">Camera.h</text>
</a>
</g>
</g>
<!-- Node0&#45;&gt;Node19 -->
<g id="edge32" class="edge">
<title>Node0&#45;&gt;Node19</title>
<path fill="none" stroke="#191970" d="M487.3617,-337.25C442.8079,-326.8972 368.968,-309.7394 323.5928,-299.1958"/>
<polygon fill="#191970" stroke="#191970" points="324.3437,-295.7771 313.811,-296.9229 322.7593,-302.5955 324.3437,-295.7771"/>
</g>
<!-- Node21 -->
<g id="node22" class="node">
<title>Node21</title>
<g id="a_node22"><a xlink:href="Threading_8h.html" target="_top" xlink:title="Threading.h">
<polygon fill="#ffffff" stroke="#000000" points="547.018,-280.5 547.018,-299.5 615.018,-299.5 615.018,-280.5 547.018,-280.5"/>
<text text-anchor="middle" x="581.018" y="-287.5" font-family="Helvetica,sans-Serif" font-size="10.00" fill="#000000">Threading.h</text>
</a>
</g>
</g>
<!-- Node0&#45;&gt;Node21 -->
<g id="edge37" class="edge">
<title>Node0&#45;&gt;Node21</title>
<path fill="none" stroke="#191970" d="M534.7724,-336.2455C542.8828,-328.1352 554.6105,-316.4075 564.2261,-306.7919"/>
<polygon fill="#191970" stroke="#191970" points="566.7791,-309.1887 571.3753,-299.6427 561.8293,-304.2389 566.7791,-309.1887"/>
</g>
<!-- Node2 -->
<g id="node3" class="node">
<title>Node2</title>
<polygon fill="#ffffff" stroke="#bfbfbf" points="458.018,-112.5 458.018,-131.5 502.018,-131.5 502.018,-112.5 458.018,-112.5"/>
<text text-anchor="middle" x="480.018" y="-119.5" font-family="Helvetica,sans-Serif" font-size="10.00" fill="#000000">vector</text>
</g>
<!-- Node1&#45;&gt;Node2 -->
<g id="edge2" class="edge">
<title>Node1&#45;&gt;Node2</title>
<path fill="none" stroke="#191970" d="M490.9949,-224.4509C489.0377,-206.184 484.7275,-165.9553 482.1284,-141.6976"/>
<polygon fill="#191970" stroke="#191970" points="485.584,-141.0951 481.0385,-131.5249 478.6238,-141.8409 485.584,-141.0951"/>
</g>
<!-- Node3 -->
<g id="node4" class="node">
<title>Node3</title>
<polygon fill="#ffffff" stroke="#bfbfbf" points="618.018,-112.5 618.018,-131.5 670.018,-131.5 670.018,-112.5 618.018,-112.5"/>
<text text-anchor="middle" x="644.018" y="-119.5" font-family="Helvetica,sans-Serif" font-size="10.00" fill="#000000">memory</text>
</g>
<!-- Node1&#45;&gt;Node3 -->
<g id="edge3" class="edge">
<title>Node1&#45;&gt;Node3</title>
<path fill="none" stroke="#191970" d="M516.2817,-225.2235C536.1929,-217.3227 564.5073,-204.4363 586.018,-188 604.0855,-174.1947 620.7771,-154.0894 631.5693,-139.7014"/>
<polygon fill="#191970" stroke="#191970" points="634.4211,-141.7309 637.4863,-131.5891 628.7656,-137.6059 634.4211,-141.7309"/>
</g>
<!-- Node4 -->
<g id="node5" class="node">
<title>Node4</title>
<g id="a_node5"><a xlink:href="InputManager_8h.html" target="_top" xlink:title="InputManager.h">
<polygon fill="#ffffff" stroke="#000000" points="188.018,-168.5 188.018,-187.5 272.018,-187.5 272.018,-168.5 188.018,-168.5"/>
<text text-anchor="middle" x="230.018" y="-175.5" font-family="Helvetica,sans-Serif" font-size="10.00" fill="#000000">InputManager.h</text>
</a>
</g>
</g>
<!-- Node1&#45;&gt;Node4 -->
<g id="edge4" class="edge">
<title>Node1&#45;&gt;Node4</title>
<path fill="none" stroke="#191970" d="M467.8393,-228.832C425.7735,-219.8409 338.2374,-201.1309 281.9055,-189.0905"/>
<polygon fill="#191970" stroke="#191970" points="282.6235,-185.6649 272.1128,-186.9974 281.1603,-192.5103 282.6235,-185.6649"/>
</g>
<!-- Node11 -->
<g id="node12" class="node">
<title>Node11</title>
<g id="a_node12"><a xlink:href="Resources_8h.html" target="_top" xlink:title="Resources.h">
<polygon fill="#ffffff" stroke="#000000" points="505.018,-168.5 505.018,-187.5 577.018,-187.5 577.018,-168.5 505.018,-168.5"/>
<text text-anchor="middle" x="541.018" y="-175.5" font-family="Helvetica,sans-Serif" font-size="10.00" fill="#000000">Resources.h</text>
</a>
</g>
</g>
<!-- Node1&#45;&gt;Node11 -->
<g id="edge14" class="edge">
<title>Node1&#45;&gt;Node11</title>
<path fill="none" stroke="#191970" d="M500.5531,-224.2455C507.5091,-216.2958 517.5062,-204.8706 525.8231,-195.3656"/>
<polygon fill="#191970" stroke="#191970" points="528.6296,-197.4732 532.5806,-187.6427 523.3615,-192.8637 528.6296,-197.4732"/>
</g>
<!-- Node13 -->
<g id="node14" class="node">
<title>Node13</title>
<g id="a_node14"><a xlink:href="GameObject_8h.html" target="_top" xlink:title="GameObject.h">
<polygon fill="#ffffff" stroke="#000000" points="309.018,-168.5 309.018,-187.5 389.018,-187.5 389.018,-168.5 309.018,-168.5"/>
<text text-anchor="middle" x="349.018" y="-175.5" font-family="Helvetica,sans-Serif" font-size="10.00" fill="#000000">GameObject.h</text>
</a>
</g>
</g>
<!-- Node1&#45;&gt;Node13 -->
<g id="edge19" class="edge">
<title>Node1&#45;&gt;Node13</title>
<path fill="none" stroke="#191970" d="M467.76,-224.5004C444.4429,-215.3692 408.993,-201.4867 382.8947,-191.2664"/>
<polygon fill="#191970" stroke="#191970" points="383.9827,-187.9337 373.395,-187.5462 381.4302,-194.4518 383.9827,-187.9337"/>
</g>
<!-- Node5 -->
<g id="node6" class="node">
<title>Node5</title>
<g id="a_node6"><a xlink:href="SDL__include_8h.html" target="_top" xlink:title="SDL_include.h">
<polygon fill="#ffffff" stroke="#000000" points="27.018,-.5 27.018,-19.5 107.018,-19.5 107.018,-.5 27.018,-.5"/>
<text text-anchor="middle" x="67.018" y="-7.5" font-family="Helvetica,sans-Serif" font-size="10.00" fill="#000000">SDL_include.h</text>
</a>
</g>
</g>
<!-- Node4&#45;&gt;Node5 -->
<g id="edge5" class="edge">
<title>Node4&#45;&gt;Node5</title>
<path fill="none" stroke="#191970" d="M187.5864,-175.366C129.8259,-170.7942 31.0874,-159.136 9.018,-132 -17.8024,-99.0222 22.4292,-51.5859 48.2106,-26.6956"/>
<polygon fill="#191970" stroke="#191970" points="50.7414,-29.1209 55.6576,-19.7357 45.9617,-24.0067 50.7414,-29.1209"/>
</g>
<!-- Node6 -->
<g id="node7" class="node">
<title>Node6</title>
<g id="a_node7"><a xlink:href="Vec2_8h.html" target="_top" xlink:title="Vec2.h">
<polygon fill="#ffffff" stroke="#000000" points="18.518,-112.5 18.518,-131.5 65.518,-131.5 65.518,-112.5 18.518,-112.5"/>
<text text-anchor="middle" x="42.018" y="-119.5" font-family="Helvetica,sans-Serif" font-size="10.00" fill="#000000">Vec2.h</text>
</a>
</g>
</g>
<!-- Node4&#45;&gt;Node6 -->
<g id="edge6" class="edge">
<title>Node4&#45;&gt;Node6</title>
<path fill="none" stroke="#191970" d="M197.6431,-168.4508C168.2351,-159.7636 123.4098,-146.4899 75.4386,-132.1149"/>
<polygon fill="#191970" stroke="#191970" points="76.3901,-128.7463 65.8061,-129.2263 74.3793,-135.4513 76.3901,-128.7463"/>
</g>
<!-- Node9 -->
<g id="node10" class="node">
<title>Node9</title>
<polygon fill="#ffffff" stroke="#bfbfbf" points="318.518,-112.5 318.518,-131.5 401.518,-131.5 401.518,-112.5 318.518,-112.5"/>
<text text-anchor="middle" x="360.018" y="-119.5" font-family="Helvetica,sans-Serif" font-size="10.00" fill="#000000">unordered_map</text>
</g>
<!-- Node4&#45;&gt;Node9 -->
<g id="edge12" class="edge">
<title>Node4&#45;&gt;Node9</title>
<path fill="none" stroke="#191970" d="M252.3658,-168.3733C273.4213,-159.3032 305.1675,-145.6279 328.7355,-135.4755"/>
<polygon fill="#191970" stroke="#191970" points="330.1624,-138.6719 337.9618,-131.5011 327.393,-132.243 330.1624,-138.6719"/>
</g>
<!-- Node10 -->
<g id="node11" class="node">
<title>Node10</title>
<polygon fill="#ffffff" stroke="#bfbfbf" points="84.018,-112.5 84.018,-131.5 130.018,-131.5 130.018,-112.5 84.018,-112.5"/>
<text text-anchor="middle" x="107.018" y="-119.5" font-family="Helvetica,sans-Serif" font-size="10.00" fill="#000000">cstdint</text>
</g>
<!-- Node4&#45;&gt;Node10 -->
<g id="edge13" class="edge">
<title>Node4&#45;&gt;Node10</title>
<path fill="none" stroke="#191970" d="M208.8735,-168.3733C189.1288,-159.3838 159.4481,-145.8706 137.2125,-135.7471"/>
<polygon fill="#191970" stroke="#191970" points="138.4379,-132.4594 127.8865,-131.5011 135.5374,-138.8302 138.4379,-132.4594"/>
</g>
<!-- Node6&#45;&gt;Node5 -->
<g id="edge7" class="edge">
<title>Node6&#45;&gt;Node5</title>
<path fill="none" stroke="#191970" d="M44.1495,-112.4509C48.2454,-94.1013 57.2879,-53.5908 62.6945,-29.3693"/>
<polygon fill="#191970" stroke="#191970" points="66.1292,-30.0472 64.8919,-19.5249 59.2973,-28.5222 66.1292,-30.0472"/>
</g>
<!-- Node7 -->
<g id="node8" class="node">
<title>Node7</title>
<g id="a_node8"><a xlink:href="Rect_8h.html" target="_top" xlink:title="Rect.h">
<polygon fill="#ffffff" stroke="#000000" points="70.018,-56.5 70.018,-75.5 116.018,-75.5 116.018,-56.5 70.018,-56.5"/>
<text text-anchor="middle" x="93.018" y="-63.5" font-family="Helvetica,sans-Serif" font-size="10.00" fill="#000000">Rect.h</text>
</a>
</g>
</g>
<!-- Node6&#45;&gt;Node7 -->
<g id="edge8" class="edge">
<title>Node6&#45;&gt;Node7</title>
<path fill="none" stroke="#191970" d="M45.6347,-112.2455C51.4548,-104.1352 61.8095,-92.4075 71.481,-82.7919"/>
<polygon fill="#191970" stroke="#191970" points="74.1614,-85.0726 78.9911,-75.6427 69.3349,-80.0026 74.1614,-85.0726"/>
</g>
<!-- Node7&#45;&gt;Node5 -->
<g id="edge9" class="edge">
<title>Node7&#45;&gt;Node5</title>
<path fill="none" stroke="#191970" d="M88.4891,-56.2455C84.9846,-48.6973 80.0253,-38.0158 75.7557,-28.8197"/>
<polygon fill="#191970" stroke="#191970" points="78.8806,-27.2389 71.4949,-19.6427 72.5316,-30.1867 78.8806,-27.2389"/>
</g>
<!-- Node7&#45;&gt;Node6 -->
<g id="edge10" class="edge">
<title>Node7&#45;&gt;Node6</title>
<path fill="none" stroke="#191970" d="M89.4814,-75.6427C83.7032,-83.7196 73.3663,-95.4402 63.6886,-105.0751"/>
<polygon fill="#191970" stroke="#191970" points="60.9905,-102.8117 56.1684,-112.2455 65.8211,-107.8779 60.9905,-102.8117"/>
</g>
<!-- Node8 -->
<g id="node9" class="node">
<title>Node8</title>
<polygon fill="#ffffff" stroke="#bfbfbf" points="125.018,-.5 125.018,-19.5 169.018,-19.5 169.018,-.5 125.018,-.5"/>
<text text-anchor="middle" x="147.018" y="-7.5" font-family="Helvetica,sans-Serif" font-size="10.00" fill="#000000">cmath</text>
</g>
<!-- Node7&#45;&gt;Node8 -->
<g id="edge11" class="edge">
<title>Node7&#45;&gt;Node8</title>
<path fill="none" stroke="#191970" d="M102.4241,-56.2455C110.1673,-48.2155 121.33,-36.6394 130.5498,-27.0781"/>
<polygon fill="#191970" stroke="#191970" points="133.2978,-29.2706 137.7197,-19.6427 128.2588,-24.4117 133.2978,-29.2706"/>
</g>
<!-- Node11&#45;&gt;Node3 -->
<g id="edge18" class="edge">
<title>Node11&#45;&gt;Node3</title>
<path fill="none" stroke="#191970" d="M558.9592,-168.2455C575.058,-159.4928 598.9059,-146.527 617.2571,-136.5496"/>
<polygon fill="#191970" stroke="#191970" points="619.1687,-139.4942 626.2824,-131.6427 615.8251,-133.3444 619.1687,-139.4942"/>
</g>
<!-- Node11&#45;&gt;Node5 -->
<g id="edge15" class="edge">
<title>Node11&#45;&gt;Node5</title>
<path fill="none" stroke="#191970" d="M551.1439,-168.3404C564.0713,-154.8222 583.2671,-129.9099 570.018,-112 510.5914,-31.668 234.3996,-36.6985 117.2494,-19.988"/>
<polygon fill="#191970" stroke="#191970" points="117.5053,-16.486 107.0871,-18.4127 116.4329,-23.4034 117.5053,-16.486"/>
</g>
<!-- Node11&#45;&gt;Node9 -->
<g id="edge17" class="edge">
<title>Node11&#45;&gt;Node9</title>
<path fill="none" stroke="#191970" d="M509.903,-168.3733C479.6751,-159.021 433.622,-144.7725 400.5441,-134.5385"/>
<polygon fill="#191970" stroke="#191970" points="401.3147,-131.1133 390.727,-131.5011 399.2457,-137.8005 401.3147,-131.1133"/>
</g>
<!-- Node12 -->
<g id="node13" class="node">
<title>Node12</title>
<polygon fill="#ffffff" stroke="#bfbfbf" points="520.518,-112.5 520.518,-131.5 561.518,-131.5 561.518,-112.5 520.518,-112.5"/>
<text text-anchor="middle" x="541.018" y="-119.5" font-family="Helvetica,sans-Serif" font-size="10.00" fill="#000000">string</text>
</g>
<!-- Node11&#45;&gt;Node12 -->
<g id="edge16" class="edge">
<title>Node11&#45;&gt;Node12</title>
<path fill="none" stroke="#191970" d="M541.018,-168.2455C541.018,-160.9382 541.018,-150.6944 541.018,-141.7046"/>
<polygon fill="#191970" stroke="#191970" points="544.5181,-141.6426 541.018,-131.6427 537.5181,-141.6427 544.5181,-141.6426"/>
</g>
<!-- Node13&#45;&gt;Node2 -->
<g id="edge21" class="edge">
<title>Node13&#45;&gt;Node2</title>
<path fill="none" stroke="#191970" d="M371.5377,-168.3733C392.7552,-159.3032 424.7456,-145.6279 448.4948,-135.4755"/>
<polygon fill="#191970" stroke="#191970" points="449.9728,-138.6502 457.7921,-131.5011 447.2213,-132.2136 449.9728,-138.6502"/>
</g>
<!-- Node13&#45;&gt;Node3 -->
<g id="edge22" class="edge">
<title>Node13&#45;&gt;Node3</title>
<path fill="none" stroke="#191970" d="M389.11,-170.3893C446.8291,-159.4325 552.4745,-139.3777 607.8973,-128.8568"/>
<polygon fill="#191970" stroke="#191970" points="608.7893,-132.2501 617.961,-126.9464 607.4837,-125.3729 608.7893,-132.2501"/>
</g>
<!-- Node13&#45;&gt;Node5 -->
<g id="edge20" class="edge">
<title>Node13&#45;&gt;Node5</title>
<path fill="none" stroke="#191970" d="M369.5177,-168.4465C391.9944,-156.5582 423.2289,-135.0007 410.018,-112 343.4243,3.942 254.7241,-43.5619 117.1086,-20.0732"/>
<polygon fill="#191970" stroke="#191970" points="117.5803,-16.6016 107.1154,-18.2561 116.3279,-23.4887 117.5803,-16.6016"/>
</g>
<!-- Node13&#45;&gt;Node7 -->
<g id="edge28" class="edge">
<title>Node13&#45;&gt;Node7</title>
<path fill="none" stroke="#191970" d="M308.7875,-171.9873C272.8414,-165.5304 219.4565,-153.2193 177.018,-132 151.3086,-119.1453 125.941,-97.6651 109.9243,-82.7147"/>
<polygon fill="#191970" stroke="#191970" points="112.0969,-79.9497 102.4487,-75.5721 107.2611,-85.0109 112.0969,-79.9497"/>
</g>
<!-- Node13&#45;&gt;Node12 -->
<g id="edge23" class="edge">
<title>Node13&#45;&gt;Node12</title>
<path fill="none" stroke="#191970" d="M384.2299,-168.494C415.144,-160.039 461.5311,-147.0889 510.8348,-131.9599"/>
<polygon fill="#191970" stroke="#191970" points="511.8771,-135.3012 520.4006,-129.0082 509.8131,-128.6124 511.8771,-135.3012"/>
</g>
<!-- Node14 -->
<g id="node15" class="node">
<title>Node14</title>
<g id="a_node15"><a xlink:href="Component_8h.html" target="_top" xlink:title="Component.h">
<polygon fill="#ffffff" stroke="#000000" points="186.518,-112.5 186.518,-131.5 261.518,-131.5 261.518,-112.5 186.518,-112.5"/>
<text text-anchor="middle" x="224.018" y="-119.5" font-family="Helvetica,sans-Serif" font-size="10.00" fill="#000000">Component.h</text>
</a>
</g>
</g>
<!-- Node13&#45;&gt;Node14 -->
<g id="edge24" class="edge">
<title>Node13&#45;&gt;Node14</title>
<path fill="none" stroke="#191970" d="M322.2877,-168.3733C300.5612,-159.4241 270.3519,-145.9917 249.087,-135.8835"/>
<polygon fill="#191970" stroke="#191970" points="250.5358,-132.6965 240.0086,-131.5011 247.4926,-139.0004 250.5358,-132.6965"/>
</g>
<!-- Node15 -->
<g id="node16" class="node">
<title>Node15</title>
<g id="a_node16"><a xlink:href="ComponentType_8h.html" target="_top" xlink:title="ComponentType.h">
<polygon fill="#ffffff" stroke="#000000" points="208.518,-56.5 208.518,-75.5 305.518,-75.5 305.518,-56.5 208.518,-56.5"/>
<text text-anchor="middle" x="257.018" y="-63.5" font-family="Helvetica,sans-Serif" font-size="10.00" fill="#000000">ComponentType.h</text>
</a>
</g>
</g>
<!-- Node13&#45;&gt;Node15 -->
<g id="edge27" class="edge">
<title>Node13&#45;&gt;Node15</title>
<path fill="none" stroke="#191970" d="M340.2954,-168.2479C332.0969,-159.0167 319.5464,-144.717 309.018,-132 295.5873,-115.7775 280.7666,-96.8611 270.3954,-83.449"/>
<polygon fill="#191970" stroke="#191970" points="273.1576,-81.2994 264.2819,-75.5139 267.6124,-85.5716 273.1576,-81.2994"/>
</g>
<!-- Node14&#45;&gt;Node13 -->
<g id="edge26" class="edge">
<title>Node14&#45;&gt;Node13</title>
<path fill="none" stroke="#191970" d="M250.4431,-131.5011C272.0897,-140.408 302.3007,-153.8348 323.6492,-163.9741"/>
<polygon fill="#191970" stroke="#191970" points="322.2441,-167.1821 332.7717,-168.3733 325.2847,-160.877 322.2441,-167.1821"/>
</g>
<!-- Node14&#45;&gt;Node15 -->
<g id="edge25" class="edge">
<title>Node14&#45;&gt;Node15</title>
<path fill="none" stroke="#191970" d="M229.7661,-112.2455C234.2615,-104.617 240.6428,-93.7881 246.1004,-84.5267"/>
<polygon fill="#191970" stroke="#191970" points="249.2741,-86.035 251.3357,-75.6427 243.2433,-82.4811 249.2741,-86.035"/>
</g>
<!-- Node17 -->
<g id="node18" class="node">
<title>Node17</title>
<polygon fill="#ffffff" stroke="#bfbfbf" points="764.018,-224.5 764.018,-243.5 818.018,-243.5 818.018,-224.5 764.018,-224.5"/>
<text text-anchor="middle" x="791.018" y="-231.5" font-family="Helvetica,sans-Serif" font-size="10.00" fill="#000000">iostream</text>
</g>
<!-- Node16&#45;&gt;Node17 -->
<g id="edge30" class="edge">
<title>Node16&#45;&gt;Node17</title>
<path fill="none" stroke="#191970" d="M791.018,-280.2455C791.018,-272.9382 791.018,-262.6944 791.018,-253.7046"/>
<polygon fill="#191970" stroke="#191970" points="794.5181,-253.6426 791.018,-243.6427 787.5181,-253.6427 794.5181,-253.6426"/>
</g>
<!-- Node18 -->
<g id="node19" class="node">
<title>Node18</title>
<polygon fill="#ffffff" stroke="#bfbfbf" points="836.018,-224.5 836.018,-243.5 884.018,-243.5 884.018,-224.5 836.018,-224.5"/>
<text text-anchor="middle" x="860.018" y="-231.5" font-family="Helvetica,sans-Serif" font-size="10.00" fill="#000000">stdlib.h</text>
</g>
<!-- Node16&#45;&gt;Node18 -->
<g id="edge31" class="edge">
<title>Node16&#45;&gt;Node18</title>
<path fill="none" stroke="#191970" d="M803.0369,-280.2455C813.2278,-271.9746 828.0542,-259.9416 840.0287,-250.2232"/>
<polygon fill="#191970" stroke="#191970" points="842.5778,-252.662 848.1368,-243.6427 838.1666,-247.2268 842.5778,-252.662"/>
</g>
<!-- Node19&#45;&gt;Node6 -->
<g id="edge34" class="edge">
<title>Node19&#45;&gt;Node6</title>
<path fill="none" stroke="#191970" d="M259.8634,-280.4151C239.9007,-272.0332 211.1797,-258.8938 188.018,-244 137.4089,-211.4566 84.9015,-163.4569 58.8207,-138.4735"/>
<polygon fill="#191970" stroke="#191970" points="61.2295,-135.934 51.6064,-131.5015 56.365,-140.9676 61.2295,-135.934"/>
</g>
<!-- Node19&#45;&gt;Node13 -->
<g id="edge33" class="edge">
<title>Node19&#45;&gt;Node13</title>
<path fill="none" stroke="#191970" d="M289.5598,-280.4509C300.3531,-261.8533 324.3575,-220.4919 338.3415,-196.3964"/>
<polygon fill="#191970" stroke="#191970" points="341.4978,-197.9307 343.4901,-187.5249 335.4435,-194.417 341.4978,-197.9307"/>
</g>
<!-- Node20 -->
<g id="node21" class="node">
<title>Node20</title>
<g id="a_node21"><a xlink:href="ActionManager_8h.html" target="_top" xlink:title="ActionManager.h">
<polygon fill="#ffffff" stroke="#000000" points="197.018,-224.5 197.018,-243.5 287.018,-243.5 287.018,-224.5 197.018,-224.5"/>
<text text-anchor="middle" x="242.018" y="-231.5" font-family="Helvetica,sans-Serif" font-size="10.00" fill="#000000">ActionManager.h</text>
</a>
</g>
</g>
<!-- Node19&#45;&gt;Node20 -->
<g id="edge35" class="edge">
<title>Node19&#45;&gt;Node20</title>
<path fill="none" stroke="#191970" d="M276.7021,-280.2455C270.8001,-272.3761 262.3437,-261.101 255.2586,-251.6542"/>
<polygon fill="#191970" stroke="#191970" points="258.05,-249.5427 249.25,-243.6427 252.45,-253.7427 258.05,-249.5427"/>
</g>
<!-- Node20&#45;&gt;Node4 -->
<g id="edge36" class="edge">
<title>Node20&#45;&gt;Node4</title>
<path fill="none" stroke="#191970" d="M239.9277,-224.2455C238.3619,-216.9382 236.1668,-206.6944 234.2404,-197.7046"/>
<polygon fill="#191970" stroke="#191970" points="237.6019,-196.6873 232.0843,-187.6427 230.7573,-198.1541 237.6019,-196.6873"/>
</g>
<!-- Node21&#45;&gt;Node1 -->
<g id="edge44" class="edge">
<title>Node21&#45;&gt;Node1</title>
<path fill="none" stroke="#191970" d="M565.5154,-280.2455C551.86,-271.6534 531.7523,-259.0014 516.0191,-249.1018"/>
<polygon fill="#191970" stroke="#191970" points="517.6709,-246.006 507.3429,-243.6427 513.9429,-251.9307 517.6709,-246.006"/>
</g>
<!-- Node22 -->
<g id="node23" class="node">
<title>Node22</title>
<polygon fill="#ffffff" stroke="#bfbfbf" points="534.018,-224.5 534.018,-243.5 578.018,-243.5 578.018,-224.5 534.018,-224.5"/>
<text text-anchor="middle" x="556.018" y="-231.5" font-family="Helvetica,sans-Serif" font-size="10.00" fill="#000000">thread</text>
</g>
<!-- Node21&#45;&gt;Node22 -->
<g id="edge38" class="edge">
<title>Node21&#45;&gt;Node22</title>
<path fill="none" stroke="#191970" d="M576.6633,-280.2455C573.2936,-272.6973 568.525,-262.0158 564.4196,-252.8197"/>
<polygon fill="#191970" stroke="#191970" points="567.5953,-251.3473 560.3228,-243.6427 561.2033,-254.2009 567.5953,-251.3473"/>
</g>
<!-- Node23 -->
<g id="node24" class="node">
<title>Node23</title>
<polygon fill="#ffffff" stroke="#bfbfbf" points="633.518,-168.5 633.518,-187.5 690.518,-187.5 690.518,-168.5 633.518,-168.5"/>
<text text-anchor="middle" x="662.018" y="-175.5" font-family="Helvetica,sans-Serif" font-size="10.00" fill="#000000">pthread.h</text>
</g>
<!-- Node21&#45;&gt;Node23 -->
<g id="edge39" class="edge">
<title>Node21&#45;&gt;Node23</title>
<path fill="none" stroke="#191970" d="M587.0242,-280.4187C595.2636,-267.4115 610.686,-243.5459 625.018,-224 632.1087,-214.3298 640.4465,-203.8904 647.4104,-195.4048"/>
<polygon fill="#191970" stroke="#191970" points="650.1333,-197.6043 653.8193,-187.6713 644.7435,-193.1377 650.1333,-197.6043"/>
</g>
<!-- Node24 -->
<g id="node25" class="node">
<title>Node24</title>
<polygon fill="#ffffff" stroke="#bfbfbf" points="708.518,-168.5 708.518,-187.5 781.518,-187.5 781.518,-168.5 708.518,-168.5"/>
<text text-anchor="middle" x="745.018" y="-175.5" font-family="Helvetica,sans-Serif" font-size="10.00" fill="#000000">semaphore.h</text>
</g>
<!-- Node21&#45;&gt;Node24 -->
<g id="edge40" class="edge">
<title>Node21&#45;&gt;Node24</title>
<path fill="none" stroke="#191970" d="M615.1473,-286.1427C645.0587,-281.1194 688.0172,-269.701 716.018,-244 729.2436,-231.8607 736.7527,-212.6047 740.7993,-198.0181"/>
<polygon fill="#191970" stroke="#191970" points="744.281,-198.5142 743.2561,-187.969 737.4813,-196.8517 744.281,-198.5142"/>
</g>
<!-- Node25 -->
<g id="node26" class="node">
<title>Node25</title>
<g id="a_node26"><a xlink:href="FowardList_8h.html" target="_top" xlink:title="FowardList.h">
<polygon fill="#ffffff" stroke="#000000" points="634.518,-224.5 634.518,-243.5 707.518,-243.5 707.518,-224.5 634.518,-224.5"/>
<text text-anchor="middle" x="671.018" y="-231.5" font-family="Helvetica,sans-Serif" font-size="10.00" fill="#000000">FowardList.h</text>
</a>
</g>
</g>
<!-- Node21&#45;&gt;Node25 -->
<g id="edge41" class="edge">
<title>Node21&#45;&gt;Node25</title>
<path fill="none" stroke="#191970" d="M596.6948,-280.2455C610.5036,-271.6534 630.8372,-259.0014 646.7472,-249.1018"/>
<polygon fill="#191970" stroke="#191970" points="648.8793,-251.8974 655.5208,-243.6427 645.1812,-245.954 648.8793,-251.8974"/>
</g>
<!-- Node25&#45;&gt;Node23 -->
<g id="edge42" class="edge">
<title>Node25&#45;&gt;Node23</title>
<path fill="none" stroke="#191970" d="M669.4503,-224.2455C668.2759,-216.9382 666.6296,-206.6944 665.1848,-197.7046"/>
<polygon fill="#191970" stroke="#191970" points="668.6102,-196.9606 663.5677,-187.6427 661.6989,-198.0714 668.6102,-196.9606"/>
</g>
<!-- Node25&#45;&gt;Node24 -->
<g id="edge43" class="edge">
<title>Node25&#45;&gt;Node24</title>
<path fill="none" stroke="#191970" d="M683.9078,-224.2455C694.9433,-215.8943 711.0472,-203.7076 723.9533,-193.9408"/>
<polygon fill="#191970" stroke="#191970" points="726.4139,-196.4681 732.2759,-187.6427 722.1897,-190.8862 726.4139,-196.4681"/>
</g>
</g>
</svg>
