<?xml version="1.0" encoding="UTF-8" standalone="no"?>
<!DOCTYPE svg PUBLIC "-//W3C//DTD SVG 1.1//EN"
 "http://www.w3.org/Graphics/SVG/1.1/DTD/svg11.dtd">
<!-- Generated by graphviz version 2.38.0 (20140413.2041)
 -->
<!-- Title: include/State.h Pages: 1 -->
<svg width="810pt" height="196pt"
 viewBox="0.00 0.00 809.50 196.00" xmlns="http://www.w3.org/2000/svg" xmlns:xlink="http://www.w3.org/1999/xlink">
<g id="graph0" class="graph" transform="scale(1 1) rotate(0) translate(4 192)">
<title>include/State.h</title>
<polygon fill="white" stroke="none" points="-4,4 -4,-192 805.5,-192 805.5,4 -4,4"/>
<!-- Node15 -->
<g id="node1" class="node"><title>Node15</title>
<polygon fill="#bfbfbf" stroke="black" points="407,-168.5 407,-187.5 489,-187.5 489,-168.5 407,-168.5"/>
<text text-anchor="middle" x="448" y="-175.5" font-family="Helvetica,sans-Serif" font-size="10.00">include/State.h</text>
</g>
<!-- Node16 -->
<g id="node2" class="node"><title>Node16</title>
<g id="a_node2"><a xlink:href="Game_8h.html" target="_top" xlink:title="include/Game.h">
<polygon fill="white" stroke="black" points="356.5,-112.5 356.5,-131.5 441.5,-131.5 441.5,-112.5 356.5,-112.5"/>
<text text-anchor="middle" x="399" y="-119.5" font-family="Helvetica,sans-Serif" font-size="10.00">include/Game.h</text>
</a>
</g>
</g>
<!-- Node15&#45;&gt;Node16 -->
<g id="edge1" class="edge"><title>Node15&#45;&gt;Node16</title>
<path fill="none" stroke="midnightblue" d="M432.966,-160.431C424.378,-150.967 413.957,-139.483 406.941,-131.751"/>
<polygon fill="midnightblue" stroke="midnightblue" points="430.597,-163.029 439.909,-168.083 435.781,-158.325 430.597,-163.029"/>
</g>
<!-- Node26 -->
<g id="node12" class="node"><title>Node26</title>
<g id="a_node12"><a xlink:href="State_8cpp.html" target="_top" xlink:title="src/State.cpp">
<polygon fill="white" stroke="black" points="459.5,-112.5 459.5,-131.5 534.5,-131.5 534.5,-112.5 459.5,-112.5"/>
<text text-anchor="middle" x="497" y="-119.5" font-family="Helvetica,sans-Serif" font-size="10.00">src/State.cpp</text>
</a>
</g>
</g>
<!-- Node15&#45;&gt;Node26 -->
<g id="edge11" class="edge"><title>Node15&#45;&gt;Node26</title>
<path fill="none" stroke="midnightblue" d="M463.034,-160.431C471.622,-150.967 482.043,-139.483 489.059,-131.751"/>
<polygon fill="midnightblue" stroke="midnightblue" points="460.219,-158.325 456.091,-168.083 465.403,-163.029 460.219,-158.325"/>
</g>
<!-- Node17 -->
<g id="node3" class="node"><title>Node17</title>
<g id="a_node3"><a xlink:href="Text_8h.html" target="_top" xlink:title="include/Text.h">
<polygon fill="white" stroke="black" points="0,-56.5 0,-75.5 78,-75.5 78,-56.5 0,-56.5"/>
<text text-anchor="middle" x="39" y="-63.5" font-family="Helvetica,sans-Serif" font-size="10.00">include/Text.h</text>
</a>
</g>
</g>
<!-- Node16&#45;&gt;Node17 -->
<g id="edge2" class="edge"><title>Node16&#45;&gt;Node17</title>
<path fill="none" stroke="midnightblue" d="M346.316,-114.09C284.201,-105.784 177.907,-91.0714 87,-76 84.0725,-75.5146 81.0482,-74.9938 78.0084,-74.4562"/>
<polygon fill="midnightblue" stroke="midnightblue" points="345.894,-117.565 356.268,-115.417 346.818,-110.626 345.894,-117.565"/>
</g>
<!-- Node19 -->
<g id="node5" class="node"><title>Node19</title>
<g id="a_node5"><a xlink:href="Camera_8cpp.html" target="_top" xlink:title="src/Camera.cpp">
<polygon fill="white" stroke="black" points="96,-56.5 96,-75.5 182,-75.5 182,-56.5 96,-56.5"/>
<text text-anchor="middle" x="139" y="-63.5" font-family="Helvetica,sans-Serif" font-size="10.00">src/Camera.cpp</text>
</a>
</g>
</g>
<!-- Node16&#45;&gt;Node19 -->
<g id="edge4" class="edge"><title>Node16&#45;&gt;Node19</title>
<path fill="none" stroke="midnightblue" d="M348.009,-110.41C298.872,-100.204 225.473,-84.9597 180.005,-75.5164"/>
<polygon fill="midnightblue" stroke="midnightblue" points="347.299,-113.837 357.802,-112.444 348.723,-106.983 347.299,-113.837"/>
</g>
<!-- Node20 -->
<g id="node6" class="node"><title>Node20</title>
<g id="a_node6"><a xlink:href="Game_8cpp.html" target="_top" xlink:title="src/Game.cpp">
<polygon fill="white" stroke="black" points="200,-56.5 200,-75.5 278,-75.5 278,-56.5 200,-56.5"/>
<text text-anchor="middle" x="239" y="-63.5" font-family="Helvetica,sans-Serif" font-size="10.00">src/Game.cpp</text>
</a>
</g>
</g>
<!-- Node16&#45;&gt;Node20 -->
<g id="edge5" class="edge"><title>Node16&#45;&gt;Node20</title>
<path fill="none" stroke="midnightblue" d="M363.954,-109.172C333.826,-99.0039 291.104,-84.5852 264.234,-75.5164"/>
<polygon fill="midnightblue" stroke="midnightblue" points="363.053,-112.562 373.648,-112.444 365.292,-105.929 363.053,-112.562"/>
</g>
<!-- Node21 -->
<g id="node7" class="node"><title>Node21</title>
<g id="a_node7"><a xlink:href="Resources_8cpp.html" target="_top" xlink:title="src/Resources.cpp">
<polygon fill="white" stroke="black" points="296.5,-56.5 296.5,-75.5 395.5,-75.5 395.5,-56.5 296.5,-56.5"/>
<text text-anchor="middle" x="346" y="-63.5" font-family="Helvetica,sans-Serif" font-size="10.00">src/Resources.cpp</text>
</a>
</g>
</g>
<!-- Node16&#45;&gt;Node21 -->
<g id="edge6" class="edge"><title>Node16&#45;&gt;Node21</title>
<path fill="none" stroke="midnightblue" d="M383.019,-104.718C373.678,-95.1997 362.254,-83.5608 354.589,-75.7511"/>
<polygon fill="midnightblue" stroke="midnightblue" points="380.746,-107.398 390.248,-112.083 385.741,-102.494 380.746,-107.398"/>
</g>
<!-- Node22 -->
<g id="node8" class="node"><title>Node22</title>
<g id="a_node8"><a xlink:href="Sprite_8cpp.html" target="_top" xlink:title="src/Sprite.cpp">
<polygon fill="white" stroke="black" points="413.5,-56.5 413.5,-75.5 490.5,-75.5 490.5,-56.5 413.5,-56.5"/>
<text text-anchor="middle" x="452" y="-63.5" font-family="Helvetica,sans-Serif" font-size="10.00">src/Sprite.cpp</text>
</a>
</g>
</g>
<!-- Node16&#45;&gt;Node22 -->
<g id="edge7" class="edge"><title>Node16&#45;&gt;Node22</title>
<path fill="none" stroke="midnightblue" d="M414.981,-104.718C424.322,-95.1997 435.746,-83.5608 443.411,-75.7511"/>
<polygon fill="midnightblue" stroke="midnightblue" points="412.259,-102.494 407.752,-112.083 417.254,-107.398 412.259,-102.494"/>
</g>
<!-- Node23 -->
<g id="node9" class="node"><title>Node23</title>
<g id="a_node9"><a xlink:href="Tileset_8cpp.html" target="_top" xlink:title="src/Tileset.cpp">
<polygon fill="white" stroke="black" points="508.5,-56.5 508.5,-75.5 589.5,-75.5 589.5,-56.5 508.5,-56.5"/>
<text text-anchor="middle" x="549" y="-63.5" font-family="Helvetica,sans-Serif" font-size="10.00">src/Tileset.cpp</text>
</a>
</g>
</g>
<!-- Node16&#45;&gt;Node23 -->
<g id="edge8" class="edge"><title>Node16&#45;&gt;Node23</title>
<path fill="none" stroke="midnightblue" d="M432.225,-109.039C460.448,-98.8786 500.262,-84.5457 525.343,-75.5164"/>
<polygon fill="midnightblue" stroke="midnightblue" points="430.991,-105.763 422.768,-112.444 433.362,-112.349 430.991,-105.763"/>
</g>
<!-- Node24 -->
<g id="node10" class="node"><title>Node24</title>
<g id="a_node10"><a xlink:href="UIelement_8cpp.html" target="_top" xlink:title="src/UIelement.cpp">
<polygon fill="white" stroke="black" points="607.5,-56.5 607.5,-75.5 704.5,-75.5 704.5,-56.5 607.5,-56.5"/>
<text text-anchor="middle" x="656" y="-63.5" font-family="Helvetica,sans-Serif" font-size="10.00">src/UIelement.cpp</text>
</a>
</g>
</g>
<!-- Node16&#45;&gt;Node24 -->
<g id="edge9" class="edge"><title>Node16&#45;&gt;Node24</title>
<path fill="none" stroke="midnightblue" d="M449.707,-110.346C498.276,-100.141 570.619,-84.94 615.468,-75.5164"/>
<polygon fill="midnightblue" stroke="midnightblue" points="448.789,-106.962 439.722,-112.444 450.228,-113.812 448.789,-106.962"/>
</g>
<!-- Node25 -->
<g id="node11" class="node"><title>Node25</title>
<g id="a_node11"><a xlink:href="UItext_8cpp.html" target="_top" xlink:title="src/UItext.cpp">
<polygon fill="white" stroke="black" points="722.5,-56.5 722.5,-75.5 801.5,-75.5 801.5,-56.5 722.5,-56.5"/>
<text text-anchor="middle" x="762" y="-63.5" font-family="Helvetica,sans-Serif" font-size="10.00">src/UItext.cpp</text>
</a>
</g>
</g>
<!-- Node16&#45;&gt;Node25 -->
<g id="edge10" class="edge"><title>Node16&#45;&gt;Node25</title>
<path fill="none" stroke="midnightblue" d="M451.675,-111.95C569.291,-93.9736 600.726,-94.3607 714,-76 716.762,-75.5523 719.609,-75.0705 722.474,-74.5708"/>
<polygon fill="midnightblue" stroke="midnightblue" points="450.897,-108.528 441.547,-113.51 451.963,-115.446 450.897,-108.528"/>
</g>
<!-- Node18 -->
<g id="node4" class="node"><title>Node18</title>
<g id="a_node4"><a xlink:href="Text_8cpp.html" target="_top" xlink:title="src/Text.cpp">
<polygon fill="white" stroke="black" points="3.5,-0.5 3.5,-19.5 74.5,-19.5 74.5,-0.5 3.5,-0.5"/>
<text text-anchor="middle" x="39" y="-7.5" font-family="Helvetica,sans-Serif" font-size="10.00">src/Text.cpp</text>
</a>
</g>
</g>
<!-- Node17&#45;&gt;Node18 -->
<g id="edge3" class="edge"><title>Node17&#45;&gt;Node18</title>
<path fill="none" stroke="midnightblue" d="M39,-45.8045C39,-36.9102 39,-26.7798 39,-19.7511"/>
<polygon fill="midnightblue" stroke="midnightblue" points="35.5001,-46.083 39,-56.083 42.5001,-46.083 35.5001,-46.083"/>
</g>
</g>
</svg>
