<?xml version="1.0" encoding="UTF-8" standalone="no"?>
<!DOCTYPE svg PUBLIC "-//W3C//DTD SVG 1.1//EN"
 "http://www.w3.org/Graphics/SVG/1.1/DTD/svg11.dtd">
<!-- Generated by graphviz version 2.40.1 (20161225.0304)
 -->
<!-- Title: include/State.h Pages: 1 -->
<svg width="697pt" height="252pt"
 viewBox="0.00 0.00 696.50 252.00" xmlns="http://www.w3.org/2000/svg" xmlns:xlink="http://www.w3.org/1999/xlink">
<g id="graph0" class="graph" transform="scale(1 1) rotate(0) translate(4 248)">
<title>include/State.h</title>
<polygon fill="#ffffff" stroke="transparent" points="-4,4 -4,-248 692.5,-248 692.5,4 -4,4"/>
<!-- Node0 -->
<g id="node1" class="node">
<title>Node0</title>
<polygon fill="#bfbfbf" stroke="#000000" points="317,-224.5 317,-243.5 399,-243.5 399,-224.5 317,-224.5"/>
<text text-anchor="middle" x="358" y="-231.5" font-family="Helvetica,sans-Serif" font-size="10.00" fill="#000000">include/State.h</text>
</g>
<!-- Node1 -->
<g id="node2" class="node">
<title>Node1</title>
<polygon fill="#ffffff" stroke="#bfbfbf" points="437,-112.5 437,-131.5 481,-131.5 481,-112.5 437,-112.5"/>
<text text-anchor="middle" x="459" y="-119.5" font-family="Helvetica,sans-Serif" font-size="10.00" fill="#000000">vector</text>
</g>
<!-- Node0&#45;&gt;Node1 -->
<g id="edge1" class="edge">
<title>Node0&#45;&gt;Node1</title>
<path fill="none" stroke="#191970" d="M366.6112,-224.4509C383.6804,-205.5227 422.0141,-163.014 443.5543,-139.1279"/>
<polygon fill="#191970" stroke="#191970" points="446.3128,-141.2952 450.4106,-131.5249 441.1144,-136.6073 446.3128,-141.2952"/>
</g>
<!-- Node2 -->
<g id="node3" class="node">
<title>Node2</title>
<polygon fill="#ffffff" stroke="#bfbfbf" points="307,-112.5 307,-131.5 359,-131.5 359,-112.5 307,-112.5"/>
<text text-anchor="middle" x="333" y="-119.5" font-family="Helvetica,sans-Serif" font-size="10.00" fill="#000000">memory</text>
</g>
<!-- Node0&#45;&gt;Node2 -->
<g id="edge2" class="edge">
<title>Node0&#45;&gt;Node2</title>
<path fill="none" stroke="#191970" d="M355.8685,-224.4509C351.7726,-206.1013 342.7301,-165.5908 337.3235,-141.3693"/>
<polygon fill="#191970" stroke="#191970" points="340.7206,-140.5222 335.1261,-131.5249 333.8888,-142.0472 340.7206,-140.5222"/>
</g>
<!-- Node3 -->
<g id="node4" class="node">
<title>Node3</title>
<g id="a_node4"><a xlink:href="InputManager_8h.html" target="_top" xlink:title="InputManager.h">
<polygon fill="#ffffff" stroke="#000000" points="84,-168.5 84,-187.5 168,-187.5 168,-168.5 84,-168.5"/>
<text text-anchor="middle" x="126" y="-175.5" font-family="Helvetica,sans-Serif" font-size="10.00" fill="#000000">InputManager.h</text>
</a>
</g>
</g>
<!-- Node0&#45;&gt;Node3 -->
<g id="edge3" class="edge">
<title>Node0&#45;&gt;Node3</title>
<path fill="none" stroke="#191970" d="M318.3814,-224.4369C278.8432,-214.8932 217.9931,-200.2052 175.3418,-189.9101"/>
<polygon fill="#191970" stroke="#191970" points="175.9973,-186.4679 165.4552,-187.5237 174.3548,-193.2724 175.9973,-186.4679"/>
</g>
<!-- Node10 -->
<g id="node11" class="node">
<title>Node10</title>
<g id="a_node11"><a xlink:href="Resources_8h.html" target="_top" xlink:title="Resources.h">
<polygon fill="#ffffff" stroke="#000000" points="258,-168.5 258,-187.5 330,-187.5 330,-168.5 258,-168.5"/>
<text text-anchor="middle" x="294" y="-175.5" font-family="Helvetica,sans-Serif" font-size="10.00" fill="#000000">Resources.h</text>
</a>
</g>
</g>
<!-- Node0&#45;&gt;Node10 -->
<g id="edge13" class="edge">
<title>Node0&#45;&gt;Node10</title>
<path fill="none" stroke="#191970" d="M346.8521,-224.2455C337.4913,-216.0549 323.9142,-204.1749 312.8651,-194.5069"/>
<polygon fill="#191970" stroke="#191970" points="314.8508,-191.5937 305.0202,-187.6427 310.2412,-196.8618 314.8508,-191.5937"/>
</g>
<!-- Node12 -->
<g id="node13" class="node">
<title>Node12</title>
<g id="a_node13"><a xlink:href="GameObject_8h.html" target="_top" xlink:title="GameObject.h">
<polygon fill="#ffffff" stroke="#000000" points="469,-168.5 469,-187.5 549,-187.5 549,-168.5 469,-168.5"/>
<text text-anchor="middle" x="509" y="-175.5" font-family="Helvetica,sans-Serif" font-size="10.00" fill="#000000">GameObject.h</text>
</a>
</g>
</g>
<!-- Node0&#45;&gt;Node12 -->
<g id="edge18" class="edge">
<title>Node0&#45;&gt;Node12</title>
<path fill="none" stroke="#191970" d="M383.9578,-224.3733C408.7407,-215.1822 446.2746,-201.2624 473.754,-191.0713"/>
<polygon fill="#191970" stroke="#191970" points="475.2219,-194.26 483.3809,-187.5011 472.7879,-187.6968 475.2219,-194.26"/>
</g>
<!-- Node4 -->
<g id="node5" class="node">
<title>Node4</title>
<g id="a_node5"><a xlink:href="SDL__include_8h.html" target="_top" xlink:title="SDL_include.h">
<polygon fill="#ffffff" stroke="#000000" points="159,-.5 159,-19.5 239,-19.5 239,-.5 159,-.5"/>
<text text-anchor="middle" x="199" y="-7.5" font-family="Helvetica,sans-Serif" font-size="10.00" fill="#000000">SDL_include.h</text>
</a>
</g>
</g>
<!-- Node3&#45;&gt;Node4 -->
<g id="edge4" class="edge">
<title>Node3&#45;&gt;Node4</title>
<path fill="none" stroke="#191970" d="M116.3508,-168.4346C108.35,-159.7723 97.5738,-146.2221 93,-132 88.1142,-116.8078 81.8097,-74.2907 94,-56 101.6583,-44.5092 131.8678,-31.9593 157.9291,-22.8749"/>
<polygon fill="#191970" stroke="#191970" points="159.3142,-26.101 167.6586,-19.5724 157.0642,-19.4724 159.3142,-26.101"/>
</g>
<!-- Node5 -->
<g id="node6" class="node">
<title>Node5</title>
<g id="a_node6"><a xlink:href="Vec2_8h.html" target="_top" xlink:title="Vec2.h">
<polygon fill="#ffffff" stroke="#000000" points="102.5,-112.5 102.5,-131.5 149.5,-131.5 149.5,-112.5 102.5,-112.5"/>
<text text-anchor="middle" x="126" y="-119.5" font-family="Helvetica,sans-Serif" font-size="10.00" fill="#000000">Vec2.h</text>
</a>
</g>
</g>
<!-- Node3&#45;&gt;Node5 -->
<g id="edge5" class="edge">
<title>Node3&#45;&gt;Node5</title>
<path fill="none" stroke="#191970" d="M126,-168.2455C126,-160.9382 126,-150.6944 126,-141.7046"/>
<polygon fill="#191970" stroke="#191970" points="129.5001,-141.6426 126,-131.6427 122.5001,-141.6427 129.5001,-141.6426"/>
</g>
<!-- Node8 -->
<g id="node9" class="node">
<title>Node8</title>
<polygon fill="#ffffff" stroke="#bfbfbf" points="167.5,-112.5 167.5,-131.5 250.5,-131.5 250.5,-112.5 167.5,-112.5"/>
<text text-anchor="middle" x="209" y="-119.5" font-family="Helvetica,sans-Serif" font-size="10.00" fill="#000000">unordered_map</text>
</g>
<!-- Node3&#45;&gt;Node8 -->
<g id="edge11" class="edge">
<title>Node3&#45;&gt;Node8</title>
<path fill="none" stroke="#191970" d="M140.4575,-168.2455C153.0732,-159.7337 171.5944,-147.2375 186.2045,-137.3801"/>
<polygon fill="#191970" stroke="#191970" points="188.3761,-140.1371 194.7082,-131.6427 184.4609,-134.3343 188.3761,-140.1371"/>
</g>
<!-- Node9 -->
<g id="node10" class="node">
<title>Node9</title>
<polygon fill="#ffffff" stroke="#bfbfbf" points="0,-112.5 0,-131.5 46,-131.5 46,-112.5 0,-112.5"/>
<text text-anchor="middle" x="23" y="-119.5" font-family="Helvetica,sans-Serif" font-size="10.00" fill="#000000">cstdint</text>
</g>
<!-- Node3&#45;&gt;Node9 -->
<g id="edge12" class="edge">
<title>Node3&#45;&gt;Node9</title>
<path fill="none" stroke="#191970" d="M108.0588,-168.2455C91.96,-159.4928 68.1121,-146.527 49.7609,-136.5496"/>
<polygon fill="#191970" stroke="#191970" points="51.1929,-133.3444 40.7356,-131.6427 47.8493,-139.4942 51.1929,-133.3444"/>
</g>
<!-- Node5&#45;&gt;Node4 -->
<g id="edge6" class="edge">
<title>Node5&#45;&gt;Node4</title>
<path fill="none" stroke="#191970" d="M133.0159,-112.2305C139.6013,-102.9871 149.6597,-88.6791 158,-76 168.3796,-60.2207 179.6699,-41.9588 187.7698,-28.6501"/>
<polygon fill="#191970" stroke="#191970" points="190.8578,-30.3076 193.0453,-19.941 184.8706,-26.6808 190.8578,-30.3076"/>
</g>
<!-- Node6 -->
<g id="node7" class="node">
<title>Node6</title>
<g id="a_node7"><a xlink:href="Rect_8h.html" target="_top" xlink:title="Rect.h">
<polygon fill="#ffffff" stroke="#000000" points="103,-56.5 103,-75.5 149,-75.5 149,-56.5 103,-56.5"/>
<text text-anchor="middle" x="126" y="-63.5" font-family="Helvetica,sans-Serif" font-size="10.00" fill="#000000">Rect.h</text>
</a>
</g>
</g>
<!-- Node5&#45;&gt;Node6 -->
<g id="edge7" class="edge">
<title>Node5&#45;&gt;Node6</title>
<path fill="none" stroke="#191970" d="M120.7332,-112.2455C119.3221,-104.9382 118.9179,-94.6944 119.5205,-85.7046"/>
<polygon fill="#191970" stroke="#191970" points="123.0111,-85.9945 120.7549,-75.6427 116.0632,-85.1421 123.0111,-85.9945"/>
</g>
<!-- Node6&#45;&gt;Node4 -->
<g id="edge8" class="edge">
<title>Node6&#45;&gt;Node4</title>
<path fill="none" stroke="#191970" d="M138.7156,-56.2455C149.602,-47.8943 165.4883,-35.7076 178.22,-25.9408"/>
<polygon fill="#191970" stroke="#191970" points="180.6261,-28.5063 186.4301,-19.6427 176.3654,-22.9523 180.6261,-28.5063"/>
</g>
<!-- Node6&#45;&gt;Node5 -->
<g id="edge9" class="edge">
<title>Node6&#45;&gt;Node5</title>
<path fill="none" stroke="#191970" d="M131.2451,-75.6427C132.6665,-82.9199 133.081,-93.155 132.4887,-102.1575"/>
<polygon fill="#191970" stroke="#191970" points="128.9947,-101.8972 131.2668,-112.2455 135.9439,-102.739 128.9947,-101.8972"/>
</g>
<!-- Node7 -->
<g id="node8" class="node">
<title>Node7</title>
<polygon fill="#ffffff" stroke="#bfbfbf" points="97,-.5 97,-19.5 141,-19.5 141,-.5 97,-.5"/>
<text text-anchor="middle" x="119" y="-7.5" font-family="Helvetica,sans-Serif" font-size="10.00" fill="#000000">cmath</text>
</g>
<!-- Node6&#45;&gt;Node7 -->
<g id="edge10" class="edge">
<title>Node6&#45;&gt;Node7</title>
<path fill="none" stroke="#191970" d="M124.7807,-56.2455C123.8673,-48.9382 122.5868,-38.6944 121.4631,-29.7046"/>
<polygon fill="#191970" stroke="#191970" points="124.9187,-29.1313 120.2053,-19.6427 117.9728,-29.9996 124.9187,-29.1313"/>
</g>
<!-- Node10&#45;&gt;Node2 -->
<g id="edge17" class="edge">
<title>Node10&#45;&gt;Node2</title>
<path fill="none" stroke="#191970" d="M300.7933,-168.2455C306.2178,-160.4564 313.9661,-149.3308 320.5033,-139.9439"/>
<polygon fill="#191970" stroke="#191970" points="323.4417,-141.849 326.2846,-131.6427 317.6975,-137.8485 323.4417,-141.849"/>
</g>
<!-- Node10&#45;&gt;Node4 -->
<g id="edge14" class="edge">
<title>Node10&#45;&gt;Node4</title>
<path fill="none" stroke="#191970" d="M288.9164,-168.0867C282.2225,-155.1103 270.0102,-131.6994 259,-112 242.4727,-82.4295 222.3445,-48.6363 210.1103,-28.3273"/>
<polygon fill="#191970" stroke="#191970" points="213.1036,-26.5133 204.9373,-19.7632 207.1118,-30.1325 213.1036,-26.5133"/>
</g>
<!-- Node10&#45;&gt;Node8 -->
<g id="edge16" class="edge">
<title>Node10&#45;&gt;Node8</title>
<path fill="none" stroke="#191970" d="M279.1941,-168.2455C266.2744,-159.7337 247.3069,-147.2375 232.3448,-137.3801"/>
<polygon fill="#191970" stroke="#191970" points="233.9124,-134.2216 223.6362,-131.6427 230.0613,-140.067 233.9124,-134.2216"/>
</g>
<!-- Node11 -->
<g id="node12" class="node">
<title>Node11</title>
<polygon fill="#ffffff" stroke="#bfbfbf" points="377.5,-112.5 377.5,-131.5 418.5,-131.5 418.5,-112.5 377.5,-112.5"/>
<text text-anchor="middle" x="398" y="-119.5" font-family="Helvetica,sans-Serif" font-size="10.00" fill="#000000">string</text>
</g>
<!-- Node10&#45;&gt;Node11 -->
<g id="edge15" class="edge">
<title>Node10&#45;&gt;Node11</title>
<path fill="none" stroke="#191970" d="M312.1154,-168.2455C328.445,-159.4527 352.671,-146.4079 371.2339,-136.4125"/>
<polygon fill="#191970" stroke="#191970" points="372.9468,-139.4654 380.0922,-131.6427 369.6281,-133.3021 372.9468,-139.4654"/>
</g>
<!-- Node12&#45;&gt;Node1 -->
<g id="edge20" class="edge">
<title>Node12&#45;&gt;Node1</title>
<path fill="none" stroke="#191970" d="M500.2907,-168.2455C493.1927,-160.2958 482.9916,-148.8706 474.505,-139.3656"/>
<polygon fill="#191970" stroke="#191970" points="476.8805,-136.771 467.6095,-131.6427 471.6589,-141.4331 476.8805,-136.771"/>
</g>
<!-- Node12&#45;&gt;Node2 -->
<g id="edge21" class="edge">
<title>Node12&#45;&gt;Node2</title>
<path fill="none" stroke="#191970" d="M478.7445,-168.3733C448.1938,-158.6526 401.0187,-143.6423 368.6658,-133.3482"/>
<polygon fill="#191970" stroke="#191970" points="369.7265,-130.0129 359.136,-130.316 367.604,-136.6833 369.7265,-130.0129"/>
</g>
<!-- Node12&#45;&gt;Node4 -->
<g id="edge19" class="edge">
<title>Node12&#45;&gt;Node4</title>
<path fill="none" stroke="#191970" d="M512.627,-168.4199C517.2036,-154.5478 523.1135,-128.7046 511,-112 479.8397,-69.0298 328.8243,-34.5867 248.8824,-19.0136"/>
<polygon fill="#191970" stroke="#191970" points="249.5109,-15.5704 239.03,-17.1197 248.1895,-22.4445 249.5109,-15.5704"/>
</g>
<!-- Node12&#45;&gt;Node6 -->
<g id="edge27" class="edge">
<title>Node12&#45;&gt;Node6</title>
<path fill="none" stroke="#191970" d="M509.2872,-168.182C509.1331,-153.5183 506.4841,-126.1143 490,-112 465.0602,-90.6457 244.1794,-73.8502 159.1558,-68.122"/>
<polygon fill="#191970" stroke="#191970" points="159.2281,-64.6192 149.018,-67.4483 158.7639,-71.6038 159.2281,-64.6192"/>
</g>
<!-- Node12&#45;&gt;Node11 -->
<g id="edge22" class="edge">
<title>Node12&#45;&gt;Node11</title>
<path fill="none" stroke="#191970" d="M489.9184,-168.3733C472.2598,-159.4644 445.7947,-146.1127 425.7902,-136.0203"/>
<polygon fill="#191970" stroke="#191970" points="427.3372,-132.8806 416.8326,-131.5011 424.1842,-139.1303 427.3372,-132.8806"/>
</g>
<!-- Node13 -->
<g id="node14" class="node">
<title>Node13</title>
<g id="a_node14"><a xlink:href="Component_8h.html" target="_top" xlink:title="Component.h">
<polygon fill="#ffffff" stroke="#000000" points="613.5,-112.5 613.5,-131.5 688.5,-131.5 688.5,-112.5 613.5,-112.5"/>
<text text-anchor="middle" x="651" y="-119.5" font-family="Helvetica,sans-Serif" font-size="10.00" fill="#000000">Component.h</text>
</a>
</g>
</g>
<!-- Node12&#45;&gt;Node13 -->
<g id="edge23" class="edge">
<title>Node12&#45;&gt;Node13</title>
<path fill="none" stroke="#191970" d="M528.1686,-168.3733C549.6764,-159.1822 584.783,-145.2624 612.0424,-135.0713"/>
<polygon fill="#191970" stroke="#191970" points="613.5268,-138.2541 621.6906,-131.5011 611.0974,-131.6891 613.5268,-138.2541"/>
</g>
<!-- Node14 -->
<g id="node15" class="node">
<title>Node14</title>
<g id="a_node15"><a xlink:href="ComponentType_8h.html" target="_top" xlink:title="ComponentType.h">
<polygon fill="#ffffff" stroke="#000000" points="588.5,-56.5 588.5,-75.5 685.5,-75.5 685.5,-56.5 588.5,-56.5"/>
<text text-anchor="middle" x="637" y="-63.5" font-family="Helvetica,sans-Serif" font-size="10.00" fill="#000000">ComponentType.h</text>
</a>
</g>
</g>
<!-- Node12&#45;&gt;Node14 -->
<g id="edge26" class="edge">
<title>Node12&#45;&gt;Node14</title>
<path fill="none" stroke="#191970" d="M519.9132,-168.4509C541.8289,-149.2747 591.4043,-105.8962 618.4871,-82.1988"/>
<polygon fill="#191970" stroke="#191970" points="620.8934,-84.744 626.1144,-75.5249 616.2838,-79.4759 620.8934,-84.744"/>
</g>
<!-- Node13&#45;&gt;Node12 -->
<g id="edge25" class="edge">
<title>Node13&#45;&gt;Node12</title>
<path fill="none" stroke="#191970" d="M632.1252,-131.5011C610.7421,-140.6488 575.6621,-154.5639 548.3315,-164.7888"/>
<polygon fill="#191970" stroke="#191970" points="546.8147,-161.6181 538.6527,-168.3733 549.2458,-168.1825 546.8147,-161.6181"/>
</g>
<!-- Node13&#45;&gt;Node14 -->
<g id="edge24" class="edge">
<title>Node13&#45;&gt;Node14</title>
<path fill="none" stroke="#191970" d="M648.5614,-112.2455C646.7145,-104.8579 644.1172,-94.4689 641.8522,-85.4087"/>
<polygon fill="#191970" stroke="#191970" points="645.2316,-84.4952 639.4107,-75.6427 638.4406,-86.193 645.2316,-84.4952"/>
</g>
</g>
</svg>
