<?xml version="1.0" encoding="UTF-8" standalone="no"?>
<!DOCTYPE svg PUBLIC "-//W3C//DTD SVG 1.1//EN"
 "http://www.w3.org/Graphics/SVG/1.1/DTD/svg11.dtd">
<!-- Generated by graphviz version 2.38.0 (20140413.2041)
 -->
<!-- Title: include/State.h Pages: 1 -->
<svg width="627pt" height="140pt"
 viewBox="0.00 0.00 626.50 140.00" xmlns="http://www.w3.org/2000/svg" xmlns:xlink="http://www.w3.org/1999/xlink">
<g id="graph0" class="graph" transform="scale(1 1) rotate(0) translate(4 136)">
<title>include/State.h</title>
<polygon fill="white" stroke="none" points="-4,4 -4,-136 622.5,-136 622.5,4 -4,4"/>
<!-- Node15 -->
<g id="node1" class="node"><title>Node15</title>
<polygon fill="#bfbfbf" stroke="black" points="330,-112.5 330,-131.5 412,-131.5 412,-112.5 330,-112.5"/>
<text text-anchor="middle" x="371" y="-119.5" font-family="Helvetica,sans-Serif" font-size="10.00">include/State.h</text>
</g>
<!-- Node16 -->
<g id="node2" class="node"><title>Node16</title>
<g id="a_node2"><a xlink:href="Game_8h.html" target="_top" xlink:title="include/Game.h">
<polygon fill="white" stroke="black" points="279.5,-56.5 279.5,-75.5 364.5,-75.5 364.5,-56.5 279.5,-56.5"/>
<text text-anchor="middle" x="322" y="-63.5" font-family="Helvetica,sans-Serif" font-size="10.00">include/Game.h</text>
</a>
</g>
</g>
<!-- Node15&#45;&gt;Node16 -->
<g id="edge1" class="edge"><title>Node15&#45;&gt;Node16</title>
<path fill="none" stroke="midnightblue" d="M355.966,-104.431C347.378,-94.9673 336.957,-83.4827 329.941,-75.7511"/>
<polygon fill="midnightblue" stroke="midnightblue" points="353.597,-107.029 362.909,-112.083 358.781,-102.325 353.597,-107.029"/>
</g>
<!-- Node23 -->
<g id="node9" class="node"><title>Node23</title>
<g id="a_node9"><a xlink:href="State_8cpp.html" target="_top" xlink:title="src/State.cpp">
<polygon fill="white" stroke="black" points="382.5,-56.5 382.5,-75.5 457.5,-75.5 457.5,-56.5 382.5,-56.5"/>
<text text-anchor="middle" x="420" y="-63.5" font-family="Helvetica,sans-Serif" font-size="10.00">src/State.cpp</text>
</a>
</g>
</g>
<!-- Node15&#45;&gt;Node23 -->
<g id="edge8" class="edge"><title>Node15&#45;&gt;Node23</title>
<path fill="none" stroke="midnightblue" d="M386.034,-104.431C394.622,-94.9673 405.043,-83.4827 412.059,-75.7511"/>
<polygon fill="midnightblue" stroke="midnightblue" points="383.219,-102.325 379.091,-112.083 388.403,-107.029 383.219,-102.325"/>
</g>
<!-- Node17 -->
<g id="node3" class="node"><title>Node17</title>
<g id="a_node3"><a xlink:href="Camera_8cpp.html" target="_top" xlink:title="src/Camera.cpp">
<polygon fill="white" stroke="black" points="0,-0.5 0,-19.5 86,-19.5 86,-0.5 0,-0.5"/>
<text text-anchor="middle" x="43" y="-7.5" font-family="Helvetica,sans-Serif" font-size="10.00">src/Camera.cpp</text>
</a>
</g>
</g>
<!-- Node16&#45;&gt;Node17 -->
<g id="edge2" class="edge"><title>Node16&#45;&gt;Node17</title>
<path fill="none" stroke="midnightblue" d="M269.433,-54.8257C216.406,-44.5624 135.514,-28.906 86.1319,-19.3481"/>
<polygon fill="midnightblue" stroke="midnightblue" points="268.839,-58.2757 279.322,-56.7398 270.17,-51.4033 268.839,-58.2757"/>
</g>
<!-- Node18 -->
<g id="node4" class="node"><title>Node18</title>
<g id="a_node4"><a xlink:href="Game_8cpp.html" target="_top" xlink:title="src/Game.cpp">
<polygon fill="white" stroke="black" points="104,-0.5 104,-19.5 182,-19.5 182,-0.5 104,-0.5"/>
<text text-anchor="middle" x="143" y="-7.5" font-family="Helvetica,sans-Serif" font-size="10.00">src/Game.cpp</text>
</a>
</g>
</g>
<!-- Node16&#45;&gt;Node18 -->
<g id="edge3" class="edge"><title>Node16&#45;&gt;Node18</title>
<path fill="none" stroke="midnightblue" d="M283.669,-53.4363C249.92,-43.2551 201.553,-28.664 171.23,-19.5164"/>
<polygon fill="midnightblue" stroke="midnightblue" points="283.052,-56.9061 293.637,-56.4435 285.074,-50.2044 283.052,-56.9061"/>
</g>
<!-- Node19 -->
<g id="node5" class="node"><title>Node19</title>
<g id="a_node5"><a xlink:href="RectTransform_8cpp.html" target="_top" xlink:title="src/RectTransform.cpp">
<polygon fill="white" stroke="black" points="200.5,-0.5 200.5,-19.5 317.5,-19.5 317.5,-0.5 200.5,-0.5"/>
<text text-anchor="middle" x="259" y="-7.5" font-family="Helvetica,sans-Serif" font-size="10.00">src/RectTransform.cpp</text>
</a>
</g>
</g>
<!-- Node16&#45;&gt;Node19 -->
<g id="edge4" class="edge"><title>Node16&#45;&gt;Node19</title>
<path fill="none" stroke="midnightblue" d="M303.96,-49.5372C292.727,-39.9087 278.681,-27.8694 269.306,-19.8339"/>
<polygon fill="midnightblue" stroke="midnightblue" points="302.008,-52.4734 311.878,-56.324 306.563,-47.1586 302.008,-52.4734"/>
</g>
<!-- Node20 -->
<g id="node6" class="node"><title>Node20</title>
<g id="a_node6"><a xlink:href="Resources_8cpp.html" target="_top" xlink:title="src/Resources.cpp">
<polygon fill="white" stroke="black" points="335.5,-0.5 335.5,-19.5 434.5,-19.5 434.5,-0.5 335.5,-0.5"/>
<text text-anchor="middle" x="385" y="-7.5" font-family="Helvetica,sans-Serif" font-size="10.00">src/Resources.cpp</text>
</a>
</g>
</g>
<!-- Node16&#45;&gt;Node20 -->
<g id="edge5" class="edge"><title>Node16&#45;&gt;Node20</title>
<path fill="none" stroke="midnightblue" d="M340.04,-49.5372C351.273,-39.9087 365.319,-27.8694 374.694,-19.8339"/>
<polygon fill="midnightblue" stroke="midnightblue" points="337.437,-47.1586 332.122,-56.324 341.992,-52.4734 337.437,-47.1586"/>
</g>
<!-- Node21 -->
<g id="node7" class="node"><title>Node21</title>
<g id="a_node7"><a xlink:href="Sprite_8cpp.html" target="_top" xlink:title="src/Sprite.cpp">
<polygon fill="white" stroke="black" points="452.5,-0.5 452.5,-19.5 529.5,-19.5 529.5,-0.5 452.5,-0.5"/>
<text text-anchor="middle" x="491" y="-7.5" font-family="Helvetica,sans-Serif" font-size="10.00">src/Sprite.cpp</text>
</a>
</g>
</g>
<!-- Node16&#45;&gt;Node21 -->
<g id="edge6" class="edge"><title>Node16&#45;&gt;Node21</title>
<path fill="none" stroke="midnightblue" d="M358.603,-53.3044C390.447,-43.1294 435.842,-28.6246 464.347,-19.5164"/>
<polygon fill="midnightblue" stroke="midnightblue" points="357.239,-50.0659 348.779,-56.4435 359.369,-56.7337 357.239,-50.0659"/>
</g>
<!-- Node22 -->
<g id="node8" class="node"><title>Node22</title>
<g id="a_node8"><a xlink:href="Text_8cpp.html" target="_top" xlink:title="src/Text.cpp">
<polygon fill="white" stroke="black" points="547.5,-0.5 547.5,-19.5 618.5,-19.5 618.5,-0.5 547.5,-0.5"/>
<text text-anchor="middle" x="583" y="-7.5" font-family="Helvetica,sans-Serif" font-size="10.00">src/Text.cpp</text>
</a>
</g>
</g>
<!-- Node16&#45;&gt;Node22 -->
<g id="edge7" class="edge"><title>Node16&#45;&gt;Node22</title>
<path fill="none" stroke="midnightblue" d="M373.256,-54.3953C424.599,-43.7726 502.278,-27.7011 547.289,-18.3884"/>
<polygon fill="midnightblue" stroke="midnightblue" points="372.44,-50.99 363.356,-56.4435 373.858,-57.8448 372.44,-50.99"/>
</g>
</g>
</svg>
