<?xml version="1.0" encoding="UTF-8" standalone="no"?>
<!DOCTYPE svg PUBLIC "-//W3C//DTD SVG 1.1//EN"
 "http://www.w3.org/Graphics/SVG/1.1/DTD/svg11.dtd">
<!-- Generated by graphviz version 2.40.1 (20161225.0304)
 -->
<!-- Title: include/State.h Pages: 1 -->
<svg width="834pt" height="140pt"
 viewBox="0.00 0.00 834.00 140.00" xmlns="http://www.w3.org/2000/svg" xmlns:xlink="http://www.w3.org/1999/xlink">
<g id="graph0" class="graph" transform="scale(1 1) rotate(0) translate(4 136)">
<title>include/State.h</title>
<polygon fill="#ffffff" stroke="transparent" points="-4,4 -4,-136 830,-136 830,4 -4,4"/>
<!-- Node15 -->
<g id="node1" class="node">
<title>Node15</title>
<polygon fill="#bfbfbf" stroke="#000000" points="91.5,-112.5 91.5,-131.5 173.5,-131.5 173.5,-112.5 91.5,-112.5"/>
<text text-anchor="middle" x="132.5" y="-119.5" font-family="Helvetica,sans-Serif" font-size="10.00" fill="#000000">include/State.h</text>
</g>
<!-- Node16 -->
<g id="node2" class="node">
<title>Node16</title>
<g id="a_node2"><a xlink:href="Game_8h.html" target="_top" xlink:title="include/Game.h">
<polygon fill="#ffffff" stroke="#000000" points="344,-56.5 344,-75.5 429,-75.5 429,-56.5 344,-56.5"/>
<text text-anchor="middle" x="386.5" y="-63.5" font-family="Helvetica,sans-Serif" font-size="10.00" fill="#000000">include/Game.h</text>
</a>
</g>
</g>
<!-- Node15&#45;&gt;Node16 -->
<g id="edge1" class="edge">
<title>Node15&#45;&gt;Node16</title>
<path fill="none" stroke="#191970" d="M183.5717,-110.7401C230.6037,-100.3708 299.5876,-85.1618 343.7707,-75.4206"/>
<polygon fill="#191970" stroke="#191970" points="182.6037,-107.3694 173.5918,-112.9404 184.1108,-114.2052 182.6037,-107.3694"/>
</g>
<!-- Node24 -->
<g id="node10" class="node">
<title>Node24</title>
<g id="a_node10"><a xlink:href="Threading_8h.html" target="_top" xlink:title="include/Threading.h">
<polygon fill="#ffffff" stroke="#000000" points="82,-56.5 82,-75.5 183,-75.5 183,-56.5 82,-56.5"/>
<text text-anchor="middle" x="132.5" y="-63.5" font-family="Helvetica,sans-Serif" font-size="10.00" fill="#000000">include/Threading.h</text>
</a>
</g>
</g>
<!-- Node15&#45;&gt;Node24 -->
<g id="edge9" class="edge">
<title>Node15&#45;&gt;Node24</title>
<path fill="none" stroke="#191970" d="M132.5,-102.1575C132.5,-93.155 132.5,-82.9199 132.5,-75.6427"/>
<polygon fill="#191970" stroke="#191970" points="129.0001,-102.2455 132.5,-112.2455 136.0001,-102.2456 129.0001,-102.2455"/>
</g>
<!-- Node25 -->
<g id="node11" class="node">
<title>Node25</title>
<g id="a_node11"><a xlink:href="State_8cpp.html" target="_top" xlink:title="src/State.cpp">
<polygon fill="#ffffff" stroke="#000000" points="0,-.5 0,-19.5 75,-19.5 75,-.5 0,-.5"/>
<text text-anchor="middle" x="37.5" y="-7.5" font-family="Helvetica,sans-Serif" font-size="10.00" fill="#000000">src/State.cpp</text>
</a>
</g>
</g>
<!-- Node15&#45;&gt;Node25 -->
<g id="edge13" class="edge">
<title>Node15&#45;&gt;Node25</title>
<path fill="none" stroke="#191970" d="M107.93,-106.7693C96.2012,-98.6549 82.5656,-87.8982 72.5,-76 57.5894,-58.3747 46.4928,-33.3513 41.115,-19.7388"/>
<polygon fill="#191970" stroke="#191970" points="106.1734,-109.8046 116.4366,-112.4347 110.0536,-103.9784 106.1734,-109.8046"/>
</g>
<!-- Node17 -->
<g id="node3" class="node">
<title>Node17</title>
<g id="a_node3"><a xlink:href="Camera_8cpp.html" target="_top" xlink:title="src/Camera.cpp">
<polygon fill="#ffffff" stroke="#000000" points="392.5,-.5 392.5,-19.5 478.5,-19.5 478.5,-.5 392.5,-.5"/>
<text text-anchor="middle" x="435.5" y="-7.5" font-family="Helvetica,sans-Serif" font-size="10.00" fill="#000000">src/Camera.cpp</text>
</a>
</g>
</g>
<!-- Node16&#45;&gt;Node17 -->
<g id="edge2" class="edge">
<title>Node16&#45;&gt;Node17</title>
<path fill="none" stroke="#191970" d="M401.8122,-48.5004C410.1447,-38.9775 420.1353,-27.5596 427.0627,-19.6427"/>
<polygon fill="#191970" stroke="#191970" points="398.9862,-46.415 395.0351,-56.2455 404.2543,-51.0245 398.9862,-46.415"/>
</g>
<!-- Node18 -->
<g id="node4" class="node">
<title>Node18</title>
<g id="a_node4"><a xlink:href="Game_8cpp.html" target="_top" xlink:title="src/Game.cpp">
<polygon fill="#ffffff" stroke="#000000" points="93.5,-.5 93.5,-19.5 171.5,-19.5 171.5,-.5 93.5,-.5"/>
<text text-anchor="middle" x="132.5" y="-7.5" font-family="Helvetica,sans-Serif" font-size="10.00" fill="#000000">src/Game.cpp</text>
</a>
</g>
</g>
<!-- Node16&#45;&gt;Node18 -->
<g id="edge3" class="edge">
<title>Node16&#45;&gt;Node18</title>
<path fill="none" stroke="#191970" d="M334.0478,-54.4357C285.8117,-43.801 215.3657,-28.2696 171.8088,-18.6665"/>
<polygon fill="#191970" stroke="#191970" points="333.467,-57.8917 343.9861,-56.6269 334.9742,-51.0558 333.467,-57.8917"/>
</g>
<!-- Node19 -->
<g id="node5" class="node">
<title>Node19</title>
<g id="a_node5"><a xlink:href="RectTransform_8cpp.html" target="_top" xlink:title="src/RectTransform.cpp">
<polygon fill="#ffffff" stroke="#000000" points="497,-.5 497,-19.5 614,-19.5 614,-.5 497,-.5"/>
<text text-anchor="middle" x="555.5" y="-7.5" font-family="Helvetica,sans-Serif" font-size="10.00" fill="#000000">src/RectTransform.cpp</text>
</a>
</g>
</g>
<!-- Node16&#45;&gt;Node19 -->
<g id="edge4" class="edge">
<title>Node16&#45;&gt;Node19</title>
<path fill="none" stroke="#191970" d="M425.1573,-53.1905C456.1193,-42.9309 498.8574,-28.7691 526.827,-19.5011"/>
<polygon fill="#191970" stroke="#191970" points="423.9437,-49.9054 415.5521,-56.3733 426.1455,-56.5501 423.9437,-49.9054"/>
</g>
<!-- Node20 -->
<g id="node6" class="node">
<title>Node20</title>
<g id="a_node6"><a xlink:href="Resources_8cpp.html" target="_top" xlink:title="src/Resources.cpp">
<polygon fill="#ffffff" stroke="#000000" points="632,-.5 632,-19.5 731,-19.5 731,-.5 632,-.5"/>
<text text-anchor="middle" x="681.5" y="-7.5" font-family="Helvetica,sans-Serif" font-size="10.00" fill="#000000">src/Resources.cpp</text>
</a>
</g>
</g>
<!-- Node16&#45;&gt;Node20 -->
<g id="edge5" class="edge">
<title>Node16&#45;&gt;Node20</title>
<path fill="none" stroke="#191970" d="M439.2397,-55.9884C493.8015,-45.6309 578.3634,-29.5785 631.784,-19.4376"/>
<polygon fill="#191970" stroke="#191970" points="438.2523,-52.6133 429.0805,-57.9169 439.5578,-59.4904 438.2523,-52.6133"/>
</g>
<!-- Node21 -->
<g id="node7" class="node">
<title>Node21</title>
<g id="a_node7"><a xlink:href="Sprite_8cpp.html" target="_top" xlink:title="src/Sprite.cpp">
<polygon fill="#ffffff" stroke="#000000" points="749,-.5 749,-19.5 826,-19.5 826,-.5 749,-.5"/>
<text text-anchor="middle" x="787.5" y="-7.5" font-family="Helvetica,sans-Serif" font-size="10.00" fill="#000000">src/Sprite.cpp</text>
</a>
</g>
</g>
<!-- Node16&#45;&gt;Node21 -->
<g id="edge6" class="edge">
<title>Node16&#45;&gt;Node21</title>
<path fill="none" stroke="#191970" d="M439.3996,-60.4699C508.7744,-52.9105 634.1682,-38.1902 740.5,-20 743.2136,-19.5358 746.0085,-19.0251 748.8188,-18.4876"/>
<polygon fill="#191970" stroke="#191970" points="438.734,-57.0214 429.1686,-61.577 439.4871,-63.9808 438.734,-57.0214"/>
</g>
<!-- Node22 -->
<g id="node8" class="node">
<title>Node22</title>
<g id="a_node8"><a xlink:href="Text_8cpp.html" target="_top" xlink:title="src/Text.cpp">
<polygon fill="#ffffff" stroke="#000000" points="303,-.5 303,-19.5 374,-19.5 374,-.5 303,-.5"/>
<text text-anchor="middle" x="338.5" y="-7.5" font-family="Helvetica,sans-Serif" font-size="10.00" fill="#000000">src/Text.cpp</text>
</a>
</g>
</g>
<!-- Node16&#45;&gt;Node22 -->
<g id="edge7" class="edge">
<title>Node16&#45;&gt;Node22</title>
<path fill="none" stroke="#191970" d="M371.5003,-48.5004C363.3378,-38.9775 353.5511,-27.5596 346.7651,-19.6427"/>
<polygon fill="#191970" stroke="#191970" points="368.9737,-50.9307 378.139,-56.2455 374.2885,-46.3752 368.9737,-50.9307"/>
</g>
<!-- Node23 -->
<g id="node9" class="node">
<title>Node23</title>
<g id="a_node9"><a xlink:href="Threading_8cpp.html" target="_top" xlink:title="src/Threading.cpp">
<polygon fill="#ffffff" stroke="#000000" points="190,-.5 190,-19.5 285,-19.5 285,-.5 190,-.5"/>
<text text-anchor="middle" x="237.5" y="-7.5" font-family="Helvetica,sans-Serif" font-size="10.00" fill="#000000">src/Threading.cpp</text>
</a>
</g>
</g>
<!-- Node16&#45;&gt;Node23 -->
<g id="edge8" class="edge">
<title>Node16&#45;&gt;Node23</title>
<path fill="none" stroke="#191970" d="M351.3488,-52.7888C324.1432,-42.5639 287.1191,-28.6488 262.7798,-19.5011"/>
<polygon fill="#191970" stroke="#191970" points="350.2939,-56.1313 360.886,-56.3733 352.7566,-49.5788 350.2939,-56.1313"/>
</g>
<!-- Node24&#45;&gt;Node18 -->
<g id="edge10" class="edge">
<title>Node24&#45;&gt;Node18</title>
<path fill="none" stroke="#191970" d="M132.5,-46.1575C132.5,-37.155 132.5,-26.9199 132.5,-19.6427"/>
<polygon fill="#191970" stroke="#191970" points="129.0001,-46.2455 132.5,-56.2455 136.0001,-46.2456 129.0001,-46.2455"/>
</g>
<!-- Node24&#45;&gt;Node23 -->
<g id="edge12" class="edge">
<title>Node24&#45;&gt;Node23</title>
<path fill="none" stroke="#191970" d="M159.7625,-51.46C178.5522,-41.4388 203.0013,-28.3993 219.42,-19.6427"/>
<polygon fill="#191970" stroke="#191970" points="157.9661,-48.4514 150.7896,-56.2455 161.2602,-54.6278 157.9661,-48.4514"/>
</g>
<!-- Node24&#45;&gt;Node25 -->
<g id="edge11" class="edge">
<title>Node24&#45;&gt;Node25</title>
<path fill="none" stroke="#191970" d="M107.1324,-51.0465C90.229,-41.0824 68.5096,-28.2794 53.8581,-19.6427"/>
<polygon fill="#191970" stroke="#191970" points="105.5602,-54.1825 115.9523,-56.2455 109.1149,-48.1522 105.5602,-54.1825"/>
</g>
</g>
</svg>
