<?xml version="1.0" encoding="UTF-8" standalone="no"?>
<!DOCTYPE svg PUBLIC "-//W3C//DTD SVG 1.1//EN"
 "http://www.w3.org/Graphics/SVG/1.1/DTD/svg11.dtd">
<!-- Generated by graphviz version 2.40.1 (20161225.0304)
 -->
<!-- Title: RattletrapEngine::Color Pages: 1 -->
<svg width="127pt" height="128pt"
 viewBox="0.00 0.00 127.00 128.00" xmlns="http://www.w3.org/2000/svg" xmlns:xlink="http://www.w3.org/1999/xlink">
<g id="graph0" class="graph" transform="scale(1 1) rotate(0) translate(4 124)">
<title>RattletrapEngine::Color</title>
<polygon fill="#ffffff" stroke="transparent" points="-4,4 -4,-124 123,-124 123,4 -4,4"/>
<!-- Node1 -->
<g id="node1" class="node">
<title>Node1</title>
<polygon fill="#bfbfbf" stroke="#000000" points="0,-.5 0,-19.5 119,-19.5 119,-.5 0,-.5"/>
<text text-anchor="middle" x="59.5" y="-7.5" font-family="Helvetica,sans-Serif" font-size="10.00" fill="#000000">RattletrapEngine::Color</text>
</g>
<!-- Node2 -->
<g id="node2" class="node">
<title>Node2</title>
<polygon fill="#ffffff" stroke="#bfbfbf" points="21,-100.5 21,-119.5 98,-119.5 98,-100.5 21,-100.5"/>
<text text-anchor="middle" x="59.5" y="-107.5" font-family="Helvetica,sans-Serif" font-size="10.00" fill="#000000">unsigned char</text>
</g>
<!-- Node2&#45;&gt;Node1 -->
<g id="edge1" class="edge">
<title>Node2&#45;&gt;Node1</title>
<path fill="none" stroke="#9a32cd" stroke-dasharray="5,2" d="M59.5,-90.2332C59.5,-68.9448 59.5,-35.9485 59.5,-19.7063"/>
<polygon fill="#9a32cd" stroke="#9a32cd" points="56.0001,-90.4115 59.5,-100.4116 63.0001,-90.4116 56.0001,-90.4115"/>
<text text-anchor="middle" x="64" y="-74" font-family="Helvetica,sans-Serif" font-size="10.00" fill="#000000"> g</text>
<text text-anchor="middle" x="64" y="-63" font-family="Helvetica,sans-Serif" font-size="10.00" fill="#000000">a</text>
<text text-anchor="middle" x="64" y="-52" font-family="Helvetica,sans-Serif" font-size="10.00" fill="#000000">r</text>
<text text-anchor="middle" x="64" y="-41" font-family="Helvetica,sans-Serif" font-size="10.00" fill="#000000">b</text>
</g>
</g>
</svg>
