<?xml version="1.0" encoding="UTF-8" standalone="no"?>
<!DOCTYPE svg PUBLIC "-//W3C//DTD SVG 1.1//EN"
 "http://www.w3.org/Graphics/SVG/1.1/DTD/svg11.dtd">
<!-- Generated by graphviz version 2.40.1 (20161225.0304)
 -->
<!-- Title: fowardListElement Pages: 1 -->
<svg width="146pt" height="95pt"
 viewBox="0.00 0.00 146.00 95.00" xmlns="http://www.w3.org/2000/svg" xmlns:xlink="http://www.w3.org/1999/xlink">
<g id="graph0" class="graph" transform="scale(1 1) rotate(0) translate(4 91)">
<title>fowardListElement</title>
<polygon fill="#ffffff" stroke="transparent" points="-4,4 -4,-91 142,-91 142,4 -4,4"/>
<!-- Node1 -->
<g id="node1" class="node">
<title>Node1</title>
<polygon fill="#bfbfbf" stroke="#000000" points="0,-.5 0,-19.5 98,-19.5 98,-.5 0,-.5"/>
<text text-anchor="middle" x="49" y="-7.5" font-family="Helvetica,sans-Serif" font-size="10.00" fill="#000000">fowardListElement</text>
</g>
<!-- Node1&#45;&gt;Node1 -->
<g id="edge1" class="edge">
<title>Node1&#45;&gt;Node1</title>
<path fill="none" stroke="#9a32cd" stroke-dasharray="5,2" d="M108.323,-14.5752C113.0648,-13.5758 116,-12.0508 116,-10 116,-6.7188 108.4858,-4.7833 98.0804,-4.1937"/>
<polygon fill="#9a32cd" stroke="#9a32cd" points="107.5913,-11.1379 98.0804,-15.8063 108.4267,-18.0879 107.5913,-11.1379"/>
<text text-anchor="middle" x="127" y="-7.5" font-family="Helvetica,sans-Serif" font-size="10.00" fill="#000000"> next</text>
</g>
<!-- Node2 -->
<g id="node2" class="node">
<title>Node2</title>
<polygon fill="#ffffff" stroke="#bfbfbf" points="28.5,-67.5 28.5,-86.5 69.5,-86.5 69.5,-67.5 28.5,-67.5"/>
<text text-anchor="middle" x="49" y="-74.5" font-family="Helvetica,sans-Serif" font-size="10.00" fill="#000000">void *</text>
</g>
<!-- Node2&#45;&gt;Node1 -->
<g id="edge2" class="edge">
<title>Node2&#45;&gt;Node1</title>
<path fill="none" stroke="#9a32cd" stroke-dasharray="5,2" d="M49,-57.1079C49,-44.714 49,-29.3263 49,-19.5817"/>
<polygon fill="#9a32cd" stroke="#9a32cd" points="45.5001,-57.4005 49,-67.4005 52.5001,-57.4006 45.5001,-57.4005"/>
<text text-anchor="middle" x="60" y="-41" font-family="Helvetica,sans-Serif" font-size="10.00" fill="#000000"> data</text>
</g>
</g>
</svg>
