<?xml version="1.0" encoding="UTF-8" standalone="no"?>
<!DOCTYPE svg PUBLIC "-//W3C//DTD SVG 1.1//EN"
 "http://www.w3.org/Graphics/SVG/1.1/DTD/svg11.dtd">
<!-- Generated by graphviz version 2.40.1 (20161225.0304)
 -->
<!-- Title: RattletrapEngine::Threading::ThreadContex Pages: 1 -->
<svg width="447pt" height="251pt"
 viewBox="0.00 0.00 446.50 251.00" xmlns="http://www.w3.org/2000/svg" xmlns:xlink="http://www.w3.org/1999/xlink">
<g id="graph0" class="graph" transform="scale(1 1) rotate(0) translate(4 247)">
<title>RattletrapEngine::Threading::ThreadContex</title>
<polygon fill="#ffffff" stroke="transparent" points="-4,4 -4,-247 442.5,-247 442.5,4 -4,4"/>
<!-- Node1 -->
<g id="node1" class="node">
<title>Node1</title>
<polygon fill="#bfbfbf" stroke="#000000" points="188.5,-.5 188.5,-30.5 326.5,-30.5 326.5,-.5 188.5,-.5"/>
<text text-anchor="start" x="196.5" y="-18.5" font-family="Helvetica,sans-Serif" font-size="10.00" fill="#000000">RattletrapEngine::Threading</text>
<text text-anchor="middle" x="257.5" y="-7.5" font-family="Helvetica,sans-Serif" font-size="10.00" fill="#000000">::ThreadContex</text>
</g>
<!-- Node2 -->
<g id="node2" class="node">
<title>Node2</title>
<g id="a_node2"><a xlink:href="structfowardList.html" target="_top" xlink:title="fowardList">
<polygon fill="#ffffff" stroke="#000000" points="139.5,-78.5 139.5,-97.5 201.5,-97.5 201.5,-78.5 139.5,-78.5"/>
<text text-anchor="middle" x="170.5" y="-85.5" font-family="Helvetica,sans-Serif" font-size="10.00" fill="#000000">fowardList</text>
</a>
</g>
</g>
<!-- Node2&#45;&gt;Node1 -->
<g id="edge1" class="edge">
<title>Node2&#45;&gt;Node1</title>
<path fill="none" stroke="#9a32cd" stroke-dasharray="5,2" d="M190.2189,-71.5676C204.9531,-59.2891 224.9427,-42.6311 239.2984,-30.668"/>
<polygon fill="#9a32cd" stroke="#9a32cd" points="187.6748,-69.1317 182.2332,-78.2223 192.1561,-74.5092 187.6748,-69.1317"/>
<text text-anchor="middle" x="224.5" y="-52" font-family="Helvetica,sans-Serif" font-size="10.00" fill="#000000"> fw</text>
</g>
<!-- Node3 -->
<g id="node3" class="node">
<title>Node3</title>
<g id="a_node3"><a xlink:href="structfowardListElement.html" target="_top" xlink:title="fowardListElement">
<polygon fill="#ffffff" stroke="#000000" points="106.5,-156.5 106.5,-175.5 204.5,-175.5 204.5,-156.5 106.5,-156.5"/>
<text text-anchor="middle" x="155.5" y="-163.5" font-family="Helvetica,sans-Serif" font-size="10.00" fill="#000000">fowardListElement</text>
</a>
</g>
</g>
<!-- Node3&#45;&gt;Node2 -->
<g id="edge2" class="edge">
<title>Node3&#45;&gt;Node2</title>
<path fill="none" stroke="#9a32cd" stroke-dasharray="5,2" d="M153.9009,-146.0684C153.663,-136.8017 154.1054,-125.7086 156.5,-116 158.0878,-109.5624 161.3418,-102.9015 164.3133,-97.6922"/>
<polygon fill="#9a32cd" stroke="#9a32cd" points="150.4162,-146.4505 154.4431,-156.2503 157.4063,-146.0783 150.4162,-146.4505"/>
<text text-anchor="middle" x="170" y="-130" font-family="Helvetica,sans-Serif" font-size="10.00" fill="#000000"> begin</text>
<text text-anchor="middle" x="170" y="-119" font-family="Helvetica,sans-Serif" font-size="10.00" fill="#000000">end</text>
</g>
<!-- Node3&#45;&gt;Node3 -->
<g id="edge3" class="edge">
<title>Node3&#45;&gt;Node3</title>
<path fill="none" stroke="#9a32cd" stroke-dasharray="5,2" d="M214.823,-170.5752C219.5648,-169.5758 222.5,-168.0508 222.5,-166 222.5,-162.7188 214.9858,-160.7833 204.5804,-160.1937"/>
<polygon fill="#9a32cd" stroke="#9a32cd" points="214.0913,-167.1379 204.5804,-171.8063 214.9267,-174.0879 214.0913,-167.1379"/>
<text text-anchor="middle" x="233.5" y="-163.5" font-family="Helvetica,sans-Serif" font-size="10.00" fill="#000000"> next</text>
</g>
<!-- Node4 -->
<g id="node4" class="node">
<title>Node4</title>
<polygon fill="#ffffff" stroke="#bfbfbf" points="135,-223.5 135,-242.5 176,-242.5 176,-223.5 135,-223.5"/>
<text text-anchor="middle" x="155.5" y="-230.5" font-family="Helvetica,sans-Serif" font-size="10.00" fill="#000000">void *</text>
</g>
<!-- Node4&#45;&gt;Node3 -->
<g id="edge4" class="edge">
<title>Node4&#45;&gt;Node3</title>
<path fill="none" stroke="#9a32cd" stroke-dasharray="5,2" d="M155.5,-213.1079C155.5,-200.714 155.5,-185.3263 155.5,-175.5817"/>
<polygon fill="#9a32cd" stroke="#9a32cd" points="152.0001,-213.4005 155.5,-223.4005 159.0001,-213.4006 152.0001,-213.4005"/>
<text text-anchor="middle" x="166.5" y="-197" font-family="Helvetica,sans-Serif" font-size="10.00" fill="#000000"> data</text>
</g>
<!-- Node5 -->
<g id="node5" class="node">
<title>Node5</title>
<polygon fill="#ffffff" stroke="#bfbfbf" points="0,-156.5 0,-175.5 89,-175.5 89,-156.5 0,-156.5"/>
<text text-anchor="middle" x="44.5" y="-163.5" font-family="Helvetica,sans-Serif" font-size="10.00" fill="#000000">pthread_mutex_t</text>
</g>
<!-- Node5&#45;&gt;Node1 -->
<g id="edge7" class="edge">
<title>Node5&#45;&gt;Node1</title>
<path fill="none" stroke="#9a32cd" stroke-dasharray="5,2" d="M52.1079,-146.947C60.8566,-127.237 76.969,-96.7644 99.5,-78 126.5873,-55.441 162.8141,-40.3242 193.7456,-30.6173"/>
<polygon fill="#9a32cd" stroke="#9a32cd" points="48.7814,-145.8271 48.1099,-156.4007 55.2286,-148.5537 48.7814,-145.8271"/>
<text text-anchor="middle" x="115" y="-85.5" font-family="Helvetica,sans-Serif" font-size="10.00" fill="#000000"> mutex</text>
</g>
<!-- Node5&#45;&gt;Node2 -->
<g id="edge5" class="edge">
<title>Node5&#45;&gt;Node2</title>
<path fill="none" stroke="#9a32cd" stroke-dasharray="5,2" d="M66.5537,-150.5722C81.3267,-140.4189 101.3261,-127.019 119.5,-116 130.0374,-109.611 142.1141,-102.9524 151.8697,-97.7322"/>
<polygon fill="#9a32cd" stroke="#9a32cd" points="64.3269,-147.8568 58.0939,-156.4242 68.3092,-153.6137 64.3269,-147.8568"/>
<text text-anchor="middle" x="135" y="-124.5" font-family="Helvetica,sans-Serif" font-size="10.00" fill="#000000"> mutex</text>
</g>
<!-- Node6 -->
<g id="node6" class="node">
<title>Node6</title>
<polygon fill="#ffffff" stroke="#bfbfbf" points="262.5,-156.5 262.5,-175.5 306.5,-175.5 306.5,-156.5 262.5,-156.5"/>
<text text-anchor="middle" x="284.5" y="-163.5" font-family="Helvetica,sans-Serif" font-size="10.00" fill="#000000">sem_t</text>
</g>
<!-- Node6&#45;&gt;Node1 -->
<g id="edge8" class="edge">
<title>Node6&#45;&gt;Node1</title>
<path fill="none" stroke="#9a32cd" stroke-dasharray="5,2" d="M280.9605,-146.2704C275.5105,-115.8917 265.1789,-58.303 260.25,-30.8289"/>
<polygon fill="#9a32cd" stroke="#9a32cd" points="277.5175,-146.9005 282.7285,-156.1253 284.4075,-145.6643 277.5175,-146.9005"/>
<text text-anchor="middle" x="317.5" y="-85.5" font-family="Helvetica,sans-Serif" font-size="10.00" fill="#000000"> mutexForEndInform</text>
</g>
<!-- Node6&#45;&gt;Node2 -->
<g id="edge6" class="edge">
<title>Node6&#45;&gt;Node2</title>
<path fill="none" stroke="#9a32cd" stroke-dasharray="5,2" d="M252.472,-155.5022C232.7333,-148.8593 210.4567,-140.9812 206.5,-138 192.1478,-127.1862 181.129,-109.0323 175.2494,-97.8293"/>
<polygon fill="#9a32cd" stroke="#9a32cd" points="251.565,-158.8892 262.1587,-158.7338 253.7803,-152.249 251.565,-158.8892"/>
<text text-anchor="middle" x="232.5" y="-124.5" font-family="Helvetica,sans-Serif" font-size="10.00" fill="#000000"> semaphore</text>
</g>
<!-- Node7 -->
<g id="node7" class="node">
<title>Node7</title>
<polygon fill="#ffffff" stroke="#bfbfbf" points="381,-78.5 381,-97.5 410,-97.5 410,-78.5 381,-78.5"/>
<text text-anchor="middle" x="395.5" y="-85.5" font-family="Helvetica,sans-Serif" font-size="10.00" fill="#000000">int</text>
</g>
<!-- Node7&#45;&gt;Node1 -->
<g id="edge9" class="edge">
<title>Node7&#45;&gt;Node1</title>
<path fill="none" stroke="#9a32cd" stroke-dasharray="5,2" d="M371.9834,-75.6453C348.2505,-63.1769 311.5721,-43.9074 286.1539,-30.5537"/>
<polygon fill="#9a32cd" stroke="#9a32cd" points="370.5119,-78.8258 380.9924,-80.3783 373.7676,-72.6289 370.5119,-78.8258"/>
<text text-anchor="middle" x="388.5" y="-52" font-family="Helvetica,sans-Serif" font-size="10.00" fill="#000000"> remainingGOsCounter</text>
</g>
</g>
</svg>
