<?xml version="1.0" encoding="UTF-8" standalone="no"?>
<!DOCTYPE svg PUBLIC "-//W3C//DTD SVG 1.1//EN"
 "http://www.w3.org/Graphics/SVG/1.1/DTD/svg11.dtd">
<!-- Generated by graphviz version 2.40.1 (20161225.0304)
 -->
<!-- Title: RattletrapEngine::Button::Callback Pages: 1 -->
<svg width="150pt" height="106pt"
 viewBox="0.00 0.00 150.00 106.00" xmlns="http://www.w3.org/2000/svg" xmlns:xlink="http://www.w3.org/1999/xlink">
<g id="graph0" class="graph" transform="scale(1 1) rotate(0) translate(4 102)">
<title>RattletrapEngine::Button::Callback</title>
<polygon fill="#ffffff" stroke="transparent" points="-4,4 -4,-102 146,-102 146,4 -4,4"/>
<!-- Node1 -->
<g id="node1" class="node">
<title>Node1</title>
<polygon fill="#bfbfbf" stroke="#000000" points="17.5,-.5 17.5,-30.5 141.5,-30.5 141.5,-.5 17.5,-.5"/>
<text text-anchor="start" x="25.5" y="-18.5" font-family="Helvetica,sans-Serif" font-size="10.00" fill="#000000">RattletrapEngine::Button</text>
<text text-anchor="middle" x="79.5" y="-7.5" font-family="Helvetica,sans-Serif" font-size="10.00" fill="#000000">::Callback</text>
</g>
<!-- Node2 -->
<g id="node2" class="node">
<title>Node2</title>
<polygon fill="#ffffff" stroke="#bfbfbf" points="0,-78.5 0,-97.5 75,-97.5 75,-78.5 0,-78.5"/>
<text text-anchor="middle" x="37.5" y="-85.5" font-family="Helvetica,sans-Serif" font-size="10.00" fill="#000000">void(*)(void *)</text>
</g>
<!-- Node2&#45;&gt;Node1 -->
<g id="edge1" class="edge">
<title>Node2&#45;&gt;Node1</title>
<path fill="none" stroke="#9a32cd" stroke-dasharray="5,2" d="M34.833,-68.4567C34.7585,-61.9818 35.5976,-54.9223 38.5,-49 41.9788,-41.9015 47.7474,-35.7917 53.8746,-30.8075"/>
<polygon fill="#9a32cd" stroke="#9a32cd" points="31.3491,-68.8005 35.6178,-78.4972 38.3278,-68.2549 31.3491,-68.8005"/>
<text text-anchor="middle" x="69" y="-52" font-family="Helvetica,sans-Serif" font-size="10.00" fill="#000000"> callbackFunc</text>
</g>
<!-- Node3 -->
<g id="node3" class="node">
<title>Node3</title>
<polygon fill="#ffffff" stroke="#bfbfbf" points="101,-78.5 101,-97.5 142,-97.5 142,-78.5 101,-78.5"/>
<text text-anchor="middle" x="121.5" y="-85.5" font-family="Helvetica,sans-Serif" font-size="10.00" fill="#000000">void *</text>
</g>
<!-- Node3&#45;&gt;Node1 -->
<g id="edge2" class="edge">
<title>Node3&#45;&gt;Node1</title>
<path fill="none" stroke="#9a32cd" stroke-dasharray="5,2" d="M111.2334,-69.5829C107.5657,-63.0615 103.3805,-55.6855 99.5,-49 96.0316,-43.0246 92.152,-36.4926 88.7396,-30.7962"/>
<polygon fill="#9a32cd" stroke="#9a32cd" points="108.201,-71.3312 116.141,-78.346 114.3085,-67.9109 108.201,-71.3312"/>
<text text-anchor="middle" x="119" y="-52" font-family="Helvetica,sans-Serif" font-size="10.00" fill="#000000"> caller</text>
</g>
</g>
</svg>
