<?xml version="1.0" encoding="UTF-8" standalone="no"?>
<!DOCTYPE svg PUBLIC "-//W3C//DTD SVG 1.1//EN"
 "http://www.w3.org/Graphics/SVG/1.1/DTD/svg11.dtd">
<!-- Generated by graphviz version 2.40.1 (20161225.0304)
 -->
<!-- Title: fowardList Pages: 1 -->
<svg width="318pt" height="173pt"
 viewBox="0.00 0.00 318.00 173.00" xmlns="http://www.w3.org/2000/svg" xmlns:xlink="http://www.w3.org/1999/xlink">
<g id="graph0" class="graph" transform="scale(1 1) rotate(0) translate(4 169)">
<title>fowardList</title>
<polygon fill="#ffffff" stroke="transparent" points="-4,4 -4,-169 314,-169 314,4 -4,4"/>
<!-- Node1 -->
<g id="node1" class="node">
<title>Node1</title>
<polygon fill="#bfbfbf" stroke="#000000" points="170,-.5 170,-19.5 232,-19.5 232,-.5 170,-.5"/>
<text text-anchor="middle" x="201" y="-7.5" font-family="Helvetica,sans-Serif" font-size="10.00" fill="#000000">fowardList</text>
</g>
<!-- Node2 -->
<g id="node2" class="node">
<title>Node2</title>
<g id="a_node2"><a xlink:href="structfowardListElement.html" target="_top" xlink:title="fowardListElement">
<polygon fill="#ffffff" stroke="#000000" points="0,-78.5 0,-97.5 98,-97.5 98,-78.5 0,-78.5"/>
<text text-anchor="middle" x="49" y="-85.5" font-family="Helvetica,sans-Serif" font-size="10.00" fill="#000000">fowardListElement</text>
</a>
</g>
</g>
<!-- Node2&#45;&gt;Node1 -->
<g id="edge1" class="edge">
<title>Node2&#45;&gt;Node1</title>
<path fill="none" stroke="#9a32cd" stroke-dasharray="5,2" d="M76.9061,-73.6798C107.5181,-57.971 155.8009,-33.1943 182.2094,-19.6426"/>
<polygon fill="#9a32cd" stroke="#9a32cd" points="74.9372,-70.7561 67.6382,-78.4357 78.1331,-76.984 74.9372,-70.7561"/>
<text text-anchor="middle" x="157.5" y="-52" font-family="Helvetica,sans-Serif" font-size="10.00" fill="#000000"> begin</text>
<text text-anchor="middle" x="157.5" y="-41" font-family="Helvetica,sans-Serif" font-size="10.00" fill="#000000">end</text>
</g>
<!-- Node2&#45;&gt;Node2 -->
<g id="edge2" class="edge">
<title>Node2&#45;&gt;Node2</title>
<path fill="none" stroke="#9a32cd" stroke-dasharray="5,2" d="M108.323,-92.5752C113.0648,-91.5758 116,-90.0508 116,-88 116,-84.7188 108.4858,-82.7833 98.0804,-82.1937"/>
<polygon fill="#9a32cd" stroke="#9a32cd" points="107.5913,-89.1379 98.0804,-93.8063 108.4267,-96.0879 107.5913,-89.1379"/>
<text text-anchor="middle" x="127" y="-85.5" font-family="Helvetica,sans-Serif" font-size="10.00" fill="#000000"> next</text>
</g>
<!-- Node3 -->
<g id="node3" class="node">
<title>Node3</title>
<polygon fill="#ffffff" stroke="#bfbfbf" points="28.5,-145.5 28.5,-164.5 69.5,-164.5 69.5,-145.5 28.5,-145.5"/>
<text text-anchor="middle" x="49" y="-152.5" font-family="Helvetica,sans-Serif" font-size="10.00" fill="#000000">void *</text>
</g>
<!-- Node3&#45;&gt;Node2 -->
<g id="edge3" class="edge">
<title>Node3&#45;&gt;Node2</title>
<path fill="none" stroke="#9a32cd" stroke-dasharray="5,2" d="M49,-135.1079C49,-122.714 49,-107.3263 49,-97.5817"/>
<polygon fill="#9a32cd" stroke="#9a32cd" points="45.5001,-135.4005 49,-145.4005 52.5001,-135.4006 45.5001,-135.4005"/>
<text text-anchor="middle" x="60" y="-119" font-family="Helvetica,sans-Serif" font-size="10.00" fill="#000000"> data</text>
</g>
<!-- Node4 -->
<g id="node4" class="node">
<title>Node4</title>
<polygon fill="#ffffff" stroke="#bfbfbf" points="156.5,-78.5 156.5,-97.5 245.5,-97.5 245.5,-78.5 156.5,-78.5"/>
<text text-anchor="middle" x="201" y="-85.5" font-family="Helvetica,sans-Serif" font-size="10.00" fill="#000000">pthread_mutex_t</text>
</g>
<!-- Node4&#45;&gt;Node1 -->
<g id="edge4" class="edge">
<title>Node4&#45;&gt;Node1</title>
<path fill="none" stroke="#9a32cd" stroke-dasharray="5,2" d="M201,-68.2866C201,-52.7395 201,-31.7276 201,-19.6426"/>
<polygon fill="#9a32cd" stroke="#9a32cd" points="197.5001,-68.4356 201,-78.4357 204.5001,-68.4357 197.5001,-68.4356"/>
<text text-anchor="middle" x="216.5" y="-46.5" font-family="Helvetica,sans-Serif" font-size="10.00" fill="#000000"> mutex</text>
</g>
<!-- Node5 -->
<g id="node5" class="node">
<title>Node5</title>
<polygon fill="#ffffff" stroke="#bfbfbf" points="263,-78.5 263,-97.5 307,-97.5 307,-78.5 263,-78.5"/>
<text text-anchor="middle" x="285" y="-85.5" font-family="Helvetica,sans-Serif" font-size="10.00" fill="#000000">sem_t</text>
</g>
<!-- Node5&#45;&gt;Node1 -->
<g id="edge5" class="edge">
<title>Node5&#45;&gt;Node1</title>
<path fill="none" stroke="#9a32cd" stroke-dasharray="5,2" d="M269.1821,-70.8543C259.8134,-60.9582 247.5508,-48.444 236,-38 228.9582,-31.6329 220.6792,-24.9753 213.9415,-19.7502"/>
<polygon fill="#9a32cd" stroke="#9a32cd" points="266.9023,-73.5404 276.2919,-78.4484 272.0123,-68.7563 266.9023,-73.5404"/>
<text text-anchor="middle" x="284" y="-46.5" font-family="Helvetica,sans-Serif" font-size="10.00" fill="#000000"> semaphore</text>
</g>
</g>
</svg>
