<?xml version="1.0" encoding="UTF-8" standalone="no"?>
<!DOCTYPE svg PUBLIC "-//W3C//DTD SVG 1.1//EN"
 "http://www.w3.org/Graphics/SVG/1.1/DTD/svg11.dtd">
<!-- Generated by graphviz version 2.40.1 (20161225.0304)
 -->
<!-- Title: src/Text.cpp Pages: 1 -->
<svg width="1080pt" height="364pt"
 viewBox="0.00 0.00 1079.50 364.00" xmlns="http://www.w3.org/2000/svg" xmlns:xlink="http://www.w3.org/1999/xlink">
<g id="graph0" class="graph" transform="scale(1 1) rotate(0) translate(4 360)">
<title>src/Text.cpp</title>
<polygon fill="#ffffff" stroke="transparent" points="-4,4 -4,-360 1075.5031,-360 1075.5031,4 -4,4"/>
<!-- Node0 -->
<g id="node1" class="node">
<title>Node0</title>
<polygon fill="#bfbfbf" stroke="#000000" points="567.0031,-336.5 567.0031,-355.5 638.0031,-355.5 638.0031,-336.5 567.0031,-336.5"/>
<text text-anchor="middle" x="602.5031" y="-343.5" font-family="Helvetica,sans-Serif" font-size="10.00" fill="#000000">src/Text.cpp</text>
</g>
<!-- Node1 -->
<g id="node2" class="node">
<title>Node1</title>
<g id="a_node2"><a xlink:href="Text_8h.html" target="_top" xlink:title="Text.h">
<polygon fill="#ffffff" stroke="#000000" points="415.5031,-280.5 415.5031,-299.5 459.5031,-299.5 459.5031,-280.5 415.5031,-280.5"/>
<text text-anchor="middle" x="437.5031" y="-287.5" font-family="Helvetica,sans-Serif" font-size="10.00" fill="#000000">Text.h</text>
</a>
</g>
</g>
<!-- Node0&#45;&gt;Node1 -->
<g id="edge1" class="edge">
<title>Node0&#45;&gt;Node1</title>
<path fill="none" stroke="#191970" d="M574.1386,-336.3733C544.9992,-326.4835 499.7275,-311.1186 469.37,-300.8154"/>
<polygon fill="#191970" stroke="#191970" points="470.2858,-297.4302 459.6915,-297.5306 468.0361,-304.0589 470.2858,-297.4302"/>
</g>
<!-- Node16 -->
<g id="node17" class="node">
<title>Node16</title>
<g id="a_node17"><a xlink:href="Game_8h.html" target="_top" xlink:title="Game.h">
<polygon fill="#ffffff" stroke="#000000" points="723.0031,-280.5 723.0031,-299.5 774.0031,-299.5 774.0031,-280.5 723.0031,-280.5"/>
<text text-anchor="middle" x="748.5031" y="-287.5" font-family="Helvetica,sans-Serif" font-size="10.00" fill="#000000">Game.h</text>
</a>
</g>
</g>
<!-- Node0&#45;&gt;Node16 -->
<g id="edge27" class="edge">
<title>Node0&#45;&gt;Node16</title>
<path fill="none" stroke="#191970" d="M627.6014,-336.3733C651.4586,-327.2226 687.5366,-313.3844 714.0741,-303.2057"/>
<polygon fill="#191970" stroke="#191970" points="715.649,-306.3503 723.7323,-299.5011 713.1421,-299.8145 715.649,-306.3503"/>
</g>
<!-- Node22 -->
<g id="node23" class="node">
<title>Node22</title>
<g id="a_node23"><a xlink:href="Resources_8h.html" target="_top" xlink:title="Resources.h">
<polygon fill="#ffffff" stroke="#000000" points="770.5031,-168.5 770.5031,-187.5 842.5031,-187.5 842.5031,-168.5 770.5031,-168.5"/>
<text text-anchor="middle" x="806.5031" y="-175.5" font-family="Helvetica,sans-Serif" font-size="10.00" fill="#000000">Resources.h</text>
</a>
</g>
</g>
<!-- Node0&#45;&gt;Node22 -->
<g id="edge54" class="edge">
<title>Node0&#45;&gt;Node22</title>
<path fill="none" stroke="#191970" d="M638.056,-342.2004C675.9767,-336.9876 736.8749,-325.2183 783.5031,-300 815.875,-282.492 829.6964,-277.6932 844.5031,-244 852.1515,-226.5959 839.2216,-207.9223 826.4161,-194.8952"/>
<polygon fill="#191970" stroke="#191970" points="828.7189,-192.2557 819.0474,-187.9298 823.9103,-197.3427 828.7189,-192.2557"/>
</g>
<!-- Node23 -->
<g id="node24" class="node">
<title>Node23</title>
<g id="a_node24"><a xlink:href="RectTransform_8h.html" target="_top" xlink:title="RectTransform.h">
<polygon fill="#ffffff" stroke="#000000" points="76.5031,-280.5 76.5031,-299.5 166.5031,-299.5 166.5031,-280.5 76.5031,-280.5"/>
<text text-anchor="middle" x="121.5031" y="-287.5" font-family="Helvetica,sans-Serif" font-size="10.00" fill="#000000">RectTransform.h</text>
</a>
</g>
</g>
<!-- Node0&#45;&gt;Node23 -->
<g id="edge47" class="edge">
<title>Node0&#45;&gt;Node23</title>
<path fill="none" stroke="#191970" d="M566.7429,-341.8366C483.5776,-332.1542 276.6827,-308.0667 176.9674,-296.4574"/>
<polygon fill="#191970" stroke="#191970" points="177.1314,-292.9529 166.7937,-295.2729 176.3219,-299.906 177.1314,-292.9529"/>
</g>
<!-- Node2 -->
<g id="node3" class="node">
<title>Node2</title>
<g id="a_node3"><a xlink:href="SDL__include_8h.html" target="_top" xlink:title="SDL_include.h">
<polygon fill="#ffffff" stroke="#000000" points="519.5031,-.5 519.5031,-19.5 599.5031,-19.5 599.5031,-.5 519.5031,-.5"/>
<text text-anchor="middle" x="559.5031" y="-7.5" font-family="Helvetica,sans-Serif" font-size="10.00" fill="#000000">SDL_include.h</text>
</a>
</g>
</g>
<!-- Node1&#45;&gt;Node2 -->
<g id="edge2" class="edge">
<title>Node1&#45;&gt;Node2</title>
<path fill="none" stroke="#191970" d="M421.4472,-280.2231C389.5539,-259.5587 323.6827,-209.8993 352.5031,-168 377.8566,-131.141 407.8438,-154.513 446.5031,-132 480.3359,-112.2977 488.0995,-104.9083 514.5031,-76 528.0294,-61.1905 540.6347,-42.0495 549.0426,-28.1977"/>
<polygon fill="#191970" stroke="#191970" points="552.0674,-29.9589 554.1526,-19.5712 546.0447,-26.3912 552.0674,-29.9589"/>
</g>
<!-- Node3 -->
<g id="node4" class="node">
<title>Node3</title>
<polygon fill="#ffffff" stroke="#bfbfbf" points="614.0031,-112.5 614.0031,-131.5 655.0031,-131.5 655.0031,-112.5 614.0031,-112.5"/>
<text text-anchor="middle" x="634.5031" y="-119.5" font-family="Helvetica,sans-Serif" font-size="10.00" fill="#000000">string</text>
</g>
<!-- Node1&#45;&gt;Node3 -->
<g id="edge3" class="edge">
<title>Node1&#45;&gt;Node3</title>
<path fill="none" stroke="#191970" d="M459.7076,-286.4226C499.2854,-279.6184 579.7331,-263.7165 599.5031,-244 627.08,-216.4979 633.2613,-168.8158 634.4457,-141.9294"/>
<polygon fill="#191970" stroke="#191970" points="637.9478,-141.8826 634.6951,-131.7994 630.9499,-141.7102 637.9478,-141.8826"/>
</g>
<!-- Node4 -->
<g id="node5" class="node">
<title>Node4</title>
<g id="a_node5"><a xlink:href="Color_8h.html" target="_top" xlink:title="Color.h">
<polygon fill="#ffffff" stroke="#000000" points="561.5031,-56.5 561.5031,-75.5 609.5031,-75.5 609.5031,-56.5 561.5031,-56.5"/>
<text text-anchor="middle" x="585.5031" y="-63.5" font-family="Helvetica,sans-Serif" font-size="10.00" fill="#000000">Color.h</text>
</a>
</g>
</g>
<!-- Node1&#45;&gt;Node4 -->
<g id="edge4" class="edge">
<title>Node1&#45;&gt;Node4</title>
<path fill="none" stroke="#191970" d="M450.3575,-280.4381C461.4031,-271.7781 477.2779,-258.2293 488.5031,-244 529.8074,-191.6421 563.111,-119.2687 577.6275,-85.1979"/>
<polygon fill="#191970" stroke="#191970" points="581.031,-86.1315 581.6668,-75.5558 574.5747,-83.4268 581.031,-86.1315"/>
</g>
<!-- Node5 -->
<g id="node6" class="node">
<title>Node5</title>
<g id="a_node6"><a xlink:href="Component_8h.html" target="_top" xlink:title="Component.h">
<polygon fill="#ffffff" stroke="#000000" points="188.0031,-224.5 188.0031,-243.5 263.0031,-243.5 263.0031,-224.5 188.0031,-224.5"/>
<text text-anchor="middle" x="225.5031" y="-231.5" font-family="Helvetica,sans-Serif" font-size="10.00" fill="#000000">Component.h</text>
</a>
</g>
</g>
<!-- Node1&#45;&gt;Node5 -->
<g id="edge6" class="edge">
<title>Node1&#45;&gt;Node5</title>
<path fill="none" stroke="#191970" d="M415.2161,-284.1129C381.2172,-275.132 315.6722,-257.8182 271.2559,-246.0856"/>
<polygon fill="#191970" stroke="#191970" points="272.1259,-242.6955 261.5636,-243.5254 270.3381,-249.4633 272.1259,-242.6955"/>
</g>
<!-- Node6 -->
<g id="node7" class="node">
<title>Node6</title>
<g id="a_node7"><a xlink:href="ComponentType_8h.html" target="_top" xlink:title="ComponentType.h">
<polygon fill="#ffffff" stroke="#000000" points="150.0031,-112.5 150.0031,-131.5 247.0031,-131.5 247.0031,-112.5 150.0031,-112.5"/>
<text text-anchor="middle" x="198.5031" y="-119.5" font-family="Helvetica,sans-Serif" font-size="10.00" fill="#000000">ComponentType.h</text>
</a>
</g>
</g>
<!-- Node1&#45;&gt;Node6 -->
<g id="edge21" class="edge">
<title>Node1&#45;&gt;Node6</title>
<path fill="none" stroke="#191970" d="M415.18,-289.5471C358.0136,-287.8691 208.7169,-280.0527 178.5031,-244 153.8098,-214.5345 173.4621,-166.5769 187.4934,-140.4289"/>
<polygon fill="#191970" stroke="#191970" points="190.6313,-141.9896 192.4916,-131.5593 184.533,-138.553 190.6313,-141.9896"/>
</g>
<!-- Node7 -->
<g id="node8" class="node">
<title>Node7</title>
<g id="a_node8"><a xlink:href="GameObject_8h.html" target="_top" xlink:title="GameObject.h">
<polygon fill="#ffffff" stroke="#000000" points="225.5031,-168.5 225.5031,-187.5 305.5031,-187.5 305.5031,-168.5 225.5031,-168.5"/>
<text text-anchor="middle" x="265.5031" y="-175.5" font-family="Helvetica,sans-Serif" font-size="10.00" fill="#000000">GameObject.h</text>
</a>
</g>
</g>
<!-- Node1&#45;&gt;Node7 -->
<g id="edge25" class="edge">
<title>Node1&#45;&gt;Node7</title>
<path fill="none" stroke="#191970" d="M418.0373,-280.3428C400.7165,-271.5163 374.8892,-257.776 353.5031,-244 329.1678,-228.3242 302.799,-208.0731 285.3363,-194.1606"/>
<polygon fill="#191970" stroke="#191970" points="287.0616,-191.0569 277.0743,-187.5208 282.6766,-196.5133 287.0616,-191.0569"/>
</g>
<!-- Node11 -->
<g id="node12" class="node">
<title>Node11</title>
<g id="a_node12"><a xlink:href="Vec2_8h.html" target="_top" xlink:title="Vec2.h">
<polygon fill="#ffffff" stroke="#000000" points="458.0031,-56.5 458.0031,-75.5 505.0031,-75.5 505.0031,-56.5 458.0031,-56.5"/>
<text text-anchor="middle" x="481.5031" y="-63.5" font-family="Helvetica,sans-Serif" font-size="10.00" fill="#000000">Vec2.h</text>
</a>
</g>
</g>
<!-- Node1&#45;&gt;Node11 -->
<g id="edge26" class="edge">
<title>Node1&#45;&gt;Node11</title>
<path fill="none" stroke="#191970" d="M445.3795,-280.2294C452.3753,-271.2177 462.5412,-257.2659 469.5031,-244 481.8552,-220.4629 485.7603,-214.1548 490.5031,-188 496.9803,-152.2803 490.7956,-109.8708 485.9699,-85.6293"/>
<polygon fill="#191970" stroke="#191970" points="489.3363,-84.6324 483.8351,-75.5777 482.489,-86.0867 489.3363,-84.6324"/>
</g>
<!-- Node13 -->
<g id="node14" class="node">
<title>Node13</title>
<g id="a_node14"><a xlink:href="Error_8h.html" target="_top" xlink:title="Error.h">
<polygon fill="#ffffff" stroke="#000000" points="414.5031,-224.5 414.5031,-243.5 460.5031,-243.5 460.5031,-224.5 414.5031,-224.5"/>
<text text-anchor="middle" x="437.5031" y="-231.5" font-family="Helvetica,sans-Serif" font-size="10.00" fill="#000000">Error.h</text>
</a>
</g>
</g>
<!-- Node1&#45;&gt;Node13 -->
<g id="edge22" class="edge">
<title>Node1&#45;&gt;Node13</title>
<path fill="none" stroke="#191970" d="M437.5031,-280.2455C437.5031,-272.9382 437.5031,-262.6944 437.5031,-253.7046"/>
<polygon fill="#191970" stroke="#191970" points="441.0032,-253.6426 437.5031,-243.6427 434.0032,-253.6427 441.0032,-253.6426"/>
</g>
<!-- Node4&#45;&gt;Node2 -->
<g id="edge5" class="edge">
<title>Node4&#45;&gt;Node2</title>
<path fill="none" stroke="#191970" d="M580.9743,-56.2455C577.4697,-48.6973 572.5104,-38.0158 568.2408,-28.8197"/>
<polygon fill="#191970" stroke="#191970" points="571.3658,-27.2389 563.9801,-19.6427 565.0167,-30.1867 571.3658,-27.2389"/>
</g>
<!-- Node5&#45;&gt;Node6 -->
<g id="edge7" class="edge">
<title>Node5&#45;&gt;Node6</title>
<path fill="none" stroke="#191970" d="M223.2011,-224.4509C218.7775,-206.1013 209.0116,-165.5908 203.1725,-141.3693"/>
<polygon fill="#191970" stroke="#191970" points="206.5455,-140.4261 200.7993,-131.5249 199.7404,-142.0667 206.5455,-140.4261"/>
</g>
<!-- Node5&#45;&gt;Node7 -->
<g id="edge8" class="edge">
<title>Node5&#45;&gt;Node7</title>
<path fill="none" stroke="#191970" d="M227.2037,-224.2455C231.347,-216.2958 239.1645,-204.8706 246.8019,-195.3656"/>
<polygon fill="#191970" stroke="#191970" points="249.5577,-197.5277 253.3704,-187.6427 244.2254,-192.9926 249.5577,-197.5277"/>
</g>
<!-- Node7&#45;&gt;Node2 -->
<g id="edge9" class="edge">
<title>Node7&#45;&gt;Node2</title>
<path fill="none" stroke="#191970" d="M278.3596,-168.227C307.6198,-146.2697 381.8947,-92.1298 449.5031,-56 473.2508,-43.3093 501.2654,-31.6389 523.0795,-23.2285"/>
<polygon fill="#191970" stroke="#191970" points="524.5227,-26.4243 532.6283,-19.6016 522.0371,-19.8805 524.5227,-26.4243"/>
</g>
<!-- Node7&#45;&gt;Node3 -->
<g id="edge12" class="edge">
<title>Node7&#45;&gt;Node3</title>
<path fill="none" stroke="#191970" d="M305.695,-171.9004C379.8329,-160.6491 536.6211,-136.8547 603.3654,-126.7255"/>
<polygon fill="#191970" stroke="#191970" points="604.2838,-130.1263 613.6454,-125.1654 603.2335,-123.2055 604.2838,-130.1263"/>
</g>
<!-- Node7&#45;&gt;Node5 -->
<g id="edge13" class="edge">
<title>Node7&#45;&gt;Node5</title>
<path fill="none" stroke="#191970" d="M263.8606,-187.6427C259.7519,-195.5596 251.951,-206.9775 244.312,-216.5004"/>
<polygon fill="#191970" stroke="#191970" points="241.5406,-214.3568 237.7374,-224.2455 246.8772,-218.8868 241.5406,-214.3568"/>
</g>
<!-- Node7&#45;&gt;Node6 -->
<g id="edge14" class="edge">
<title>Node7&#45;&gt;Node6</title>
<path fill="none" stroke="#191970" d="M253.8326,-168.2455C243.937,-159.9746 229.5404,-147.9416 217.913,-138.2232"/>
<polygon fill="#191970" stroke="#191970" points="219.9573,-135.3703 210.0399,-131.6427 215.4681,-140.7413 219.9573,-135.3703"/>
</g>
<!-- Node8 -->
<g id="node9" class="node">
<title>Node8</title>
<polygon fill="#ffffff" stroke="#bfbfbf" points="393.5031,-112.5 393.5031,-131.5 437.5031,-131.5 437.5031,-112.5 393.5031,-112.5"/>
<text text-anchor="middle" x="415.5031" y="-119.5" font-family="Helvetica,sans-Serif" font-size="10.00" fill="#000000">vector</text>
</g>
<!-- Node7&#45;&gt;Node8 -->
<g id="edge10" class="edge">
<title>Node7&#45;&gt;Node8</title>
<path fill="none" stroke="#191970" d="M291.289,-168.3733C316.9523,-158.7923 356.3795,-144.0728 383.9091,-133.7951"/>
<polygon fill="#191970" stroke="#191970" points="385.3215,-137.0038 393.4658,-130.2273 382.8732,-130.4459 385.3215,-137.0038"/>
</g>
<!-- Node9 -->
<g id="node10" class="node">
<title>Node9</title>
<polygon fill="#ffffff" stroke="#bfbfbf" points="711.5031,-112.5 711.5031,-131.5 763.5031,-131.5 763.5031,-112.5 711.5031,-112.5"/>
<text text-anchor="middle" x="737.5031" y="-119.5" font-family="Helvetica,sans-Serif" font-size="10.00" fill="#000000">memory</text>
</g>
<!-- Node7&#45;&gt;Node9 -->
<g id="edge11" class="edge">
<title>Node7&#45;&gt;Node9</title>
<path fill="none" stroke="#191970" d="M305.6449,-173.3836C405.1124,-161.943 655.6392,-133.1179 664.5031,-132 676.3577,-130.5049 689.28,-128.7695 700.9126,-127.1683"/>
<polygon fill="#191970" stroke="#191970" points="701.7412,-130.5869 711.1654,-125.7462 700.7794,-123.6533 701.7412,-130.5869"/>
</g>
<!-- Node10 -->
<g id="node11" class="node">
<title>Node10</title>
<g id="a_node11"><a xlink:href="Rect_8h.html" target="_top" xlink:title="Rect.h">
<polygon fill="#ffffff" stroke="#000000" points="47.5031,-112.5 47.5031,-131.5 93.5031,-131.5 93.5031,-112.5 47.5031,-112.5"/>
<text text-anchor="middle" x="70.5031" y="-119.5" font-family="Helvetica,sans-Serif" font-size="10.00" fill="#000000">Rect.h</text>
</a>
</g>
</g>
<!-- Node7&#45;&gt;Node10 -->
<g id="edge15" class="edge">
<title>Node7&#45;&gt;Node10</title>
<path fill="none" stroke="#191970" d="M231.9814,-168.3733C196.0045,-158.0414 139.2197,-141.734 103.4617,-131.465"/>
<polygon fill="#191970" stroke="#191970" points="104.105,-128.0084 93.5274,-128.6121 102.1728,-134.7364 104.105,-128.0084"/>
</g>
<!-- Node10&#45;&gt;Node2 -->
<g id="edge16" class="edge">
<title>Node10&#45;&gt;Node2</title>
<path fill="none" stroke="#191970" d="M93.5925,-114.1482C133.6741,-100.7414 218.8975,-73.2182 292.5031,-56 367.3711,-38.4865 455.4904,-24.5836 509.4126,-16.8209"/>
<polygon fill="#191970" stroke="#191970" points="509.9935,-20.2736 519.3994,-15.3972 509.0055,-13.3437 509.9935,-20.2736"/>
</g>
<!-- Node10&#45;&gt;Node11 -->
<g id="edge17" class="edge">
<title>Node10&#45;&gt;Node11</title>
<path fill="none" stroke="#191970" d="M93.7344,-113.0026C95.3372,-112.6436 96.9358,-112.3066 98.5031,-112 225.8734,-87.085 380.4366,-73.1606 447.7436,-68.1551"/>
<polygon fill="#191970" stroke="#191970" points="448.0583,-71.6416 457.7792,-67.428 447.5524,-64.6599 448.0583,-71.6416"/>
</g>
<!-- Node12 -->
<g id="node13" class="node">
<title>Node12</title>
<polygon fill="#ffffff" stroke="#bfbfbf" points="48.5031,-56.5 48.5031,-75.5 92.5031,-75.5 92.5031,-56.5 48.5031,-56.5"/>
<text text-anchor="middle" x="70.5031" y="-63.5" font-family="Helvetica,sans-Serif" font-size="10.00" fill="#000000">cmath</text>
</g>
<!-- Node10&#45;&gt;Node12 -->
<g id="edge20" class="edge">
<title>Node10&#45;&gt;Node12</title>
<path fill="none" stroke="#191970" d="M70.5031,-112.2455C70.5031,-104.9382 70.5031,-94.6944 70.5031,-85.7046"/>
<polygon fill="#191970" stroke="#191970" points="74.0032,-85.6426 70.5031,-75.6427 67.0032,-85.6427 74.0032,-85.6426"/>
</g>
<!-- Node11&#45;&gt;Node2 -->
<g id="edge18" class="edge">
<title>Node11&#45;&gt;Node2</title>
<path fill="none" stroke="#191970" d="M495.0897,-56.2455C506.8336,-47.814 524.023,-35.4729 537.6913,-25.6598"/>
<polygon fill="#191970" stroke="#191970" points="539.9902,-28.3179 546.0722,-19.6427 535.9078,-22.6316 539.9902,-28.3179"/>
</g>
<!-- Node11&#45;&gt;Node10 -->
<g id="edge19" class="edge">
<title>Node11&#45;&gt;Node10</title>
<path fill="none" stroke="#191970" d="M457.9103,-68.1089C399.3925,-73.0746 244.2672,-87.0079 116.5031,-112 112.389,-112.8048 108.059,-113.8191 103.7344,-114.891"/>
<polygon fill="#191970" stroke="#191970" points="102.588,-111.571 93.7576,-117.4254 104.3115,-118.3555 102.588,-111.571"/>
</g>
<!-- Node14 -->
<g id="node15" class="node">
<title>Node14</title>
<polygon fill="#ffffff" stroke="#bfbfbf" points="361.5031,-168.5 361.5031,-187.5 415.5031,-187.5 415.5031,-168.5 361.5031,-168.5"/>
<text text-anchor="middle" x="388.5031" y="-175.5" font-family="Helvetica,sans-Serif" font-size="10.00" fill="#000000">iostream</text>
</g>
<!-- Node13&#45;&gt;Node14 -->
<g id="edge23" class="edge">
<title>Node13&#45;&gt;Node14</title>
<path fill="none" stroke="#191970" d="M428.968,-224.2455C422.012,-216.2958 412.0149,-204.8706 403.698,-195.3656"/>
<polygon fill="#191970" stroke="#191970" points="406.1596,-192.8637 396.9405,-187.6427 400.8915,-197.4732 406.1596,-192.8637"/>
</g>
<!-- Node15 -->
<g id="node16" class="node">
<title>Node15</title>
<polygon fill="#ffffff" stroke="#bfbfbf" points="433.5031,-168.5 433.5031,-187.5 481.5031,-187.5 481.5031,-168.5 433.5031,-168.5"/>
<text text-anchor="middle" x="457.5031" y="-175.5" font-family="Helvetica,sans-Serif" font-size="10.00" fill="#000000">stdlib.h</text>
</g>
<!-- Node13&#45;&gt;Node15 -->
<g id="edge24" class="edge">
<title>Node13&#45;&gt;Node15</title>
<path fill="none" stroke="#191970" d="M440.9868,-224.2455C443.654,-216.7776 447.4164,-206.2427 450.6768,-197.1137"/>
<polygon fill="#191970" stroke="#191970" points="453.992,-198.2373 454.0593,-187.6427 447.3998,-195.8829 453.992,-198.2373"/>
</g>
<!-- Node16&#45;&gt;Node2 -->
<g id="edge46" class="edge">
<title>Node16&#45;&gt;Node2</title>
<path fill="none" stroke="#191970" d="M774.1184,-286.7504C850.5147,-276.3511 1071.5031,-240.8388 1071.5031,-178 1071.5031,-178 1071.5031,-178 1071.5031,-122 1071.5031,-56.4087 1002.3169,-74.8852 939.5031,-56 878.9758,-37.8022 698.5953,-21.2508 609.8909,-13.9462"/>
<polygon fill="#191970" stroke="#191970" points="610.0504,-10.4477 599.7988,-13.1226 609.4809,-17.4245 610.0504,-10.4477"/>
</g>
<!-- Node16&#45;&gt;Node3 -->
<g id="edge28" class="edge">
<title>Node16&#45;&gt;Node3</title>
<path fill="none" stroke="#191970" d="M730.3879,-280.4172C716.5198,-272.3012 697.7511,-259.5222 685.5031,-244 660.7285,-212.6023 646.0542,-167.4368 639.2069,-141.784"/>
<polygon fill="#191970" stroke="#191970" points="642.5225,-140.6196 636.6739,-131.7853 635.7369,-142.3386 642.5225,-140.6196"/>
</g>
<!-- Node16&#45;&gt;Node11 -->
<g id="edge45" class="edge">
<title>Node16&#45;&gt;Node11</title>
<path fill="none" stroke="#191970" d="M741.7901,-280.4106C735.5712,-271.2943 726.2862,-257.0724 719.5031,-244 690.2309,-187.5868 712.6542,-153.4823 664.5031,-112 642.2944,-92.8671 561.7023,-78.0042 515.21,-70.7917"/>
<polygon fill="#191970" stroke="#191970" points="515.698,-67.3258 505.2865,-69.288 514.6492,-74.2468 515.698,-67.3258"/>
</g>
<!-- Node17 -->
<g id="node18" class="node">
<title>Node17</title>
<polygon fill="#ffffff" stroke="#bfbfbf" points="728.0031,-224.5 728.0031,-243.5 769.0031,-243.5 769.0031,-224.5 728.0031,-224.5"/>
<text text-anchor="middle" x="748.5031" y="-231.5" font-family="Helvetica,sans-Serif" font-size="10.00" fill="#000000">stack</text>
</g>
<!-- Node16&#45;&gt;Node17 -->
<g id="edge29" class="edge">
<title>Node16&#45;&gt;Node17</title>
<path fill="none" stroke="#191970" d="M748.5031,-280.2455C748.5031,-272.9382 748.5031,-262.6944 748.5031,-253.7046"/>
<polygon fill="#191970" stroke="#191970" points="752.0032,-253.6426 748.5031,-243.6427 745.0032,-253.6427 752.0032,-253.6426"/>
</g>
<!-- Node18 -->
<g id="node19" class="node">
<title>Node18</title>
<g id="a_node19"><a xlink:href="State_8h.html" target="_top" xlink:title="State.h">
<polygon fill="#ffffff" stroke="#000000" points="787.5031,-224.5 787.5031,-243.5 835.5031,-243.5 835.5031,-224.5 787.5031,-224.5"/>
<text text-anchor="middle" x="811.5031" y="-231.5" font-family="Helvetica,sans-Serif" font-size="10.00" fill="#000000">State.h</text>
</a>
</g>
</g>
<!-- Node16&#45;&gt;Node18 -->
<g id="edge30" class="edge">
<title>Node16&#45;&gt;Node18</title>
<path fill="none" stroke="#191970" d="M759.4769,-280.2455C768.6913,-272.0549 782.0563,-260.1749 792.9328,-250.5069"/>
<polygon fill="#191970" stroke="#191970" points="795.5063,-252.9023 800.6551,-243.6427 790.8557,-247.6704 795.5063,-252.9023"/>
</g>
<!-- Node19 -->
<g id="node20" class="node">
<title>Node19</title>
<g id="a_node20"><a xlink:href="InputManager_8h.html" target="_top" xlink:title="InputManager.h">
<polygon fill="#ffffff" stroke="#000000" points="875.5031,-168.5 875.5031,-187.5 959.5031,-187.5 959.5031,-168.5 875.5031,-168.5"/>
<text text-anchor="middle" x="917.5031" y="-175.5" font-family="Helvetica,sans-Serif" font-size="10.00" fill="#000000">InputManager.h</text>
</a>
</g>
</g>
<!-- Node16&#45;&gt;Node19 -->
<g id="edge44" class="edge">
<title>Node16&#45;&gt;Node19</title>
<path fill="none" stroke="#191970" d="M773.2172,-280.4837C793.2527,-272.2329 821.7897,-259.2396 844.5031,-244 865.8115,-229.7031 887.2432,-209.4654 901.3195,-195.1781"/>
<polygon fill="#191970" stroke="#191970" points="903.8962,-197.5484 908.3355,-187.9285 898.8661,-192.6804 903.8962,-197.5484"/>
</g>
<!-- Node18&#45;&gt;Node7 -->
<g id="edge43" class="edge">
<title>Node18&#45;&gt;Node7</title>
<path fill="none" stroke="#191970" d="M787.4986,-226.0894C784.4931,-225.2878 781.4429,-224.5632 778.5031,-224 591.8881,-188.2514 541.5739,-206.8507 352.5031,-188 340.6851,-186.8217 327.9786,-185.4314 316.0263,-184.0681"/>
<polygon fill="#191970" stroke="#191970" points="316.0935,-180.5528 305.7582,-182.8831 315.2909,-187.5066 316.0935,-180.5528"/>
</g>
<!-- Node18&#45;&gt;Node8 -->
<g id="edge31" class="edge">
<title>Node18&#45;&gt;Node8</title>
<path fill="none" stroke="#191970" d="M787.3694,-226.6251C784.3861,-225.7316 781.3764,-224.8389 778.5031,-224 656.4788,-188.3715 510.7073,-148.1042 447.4286,-130.7363"/>
<polygon fill="#191970" stroke="#191970" points="448.2153,-127.3229 437.6457,-128.0534 446.3639,-134.0737 448.2153,-127.3229"/>
</g>
<!-- Node18&#45;&gt;Node9 -->
<g id="edge32" class="edge">
<title>Node18&#45;&gt;Node9</title>
<path fill="none" stroke="#191970" d="M797.9322,-224.4437C786.7956,-215.9849 771.316,-202.7224 761.5031,-188 752.0055,-173.7506 745.7052,-155.2701 741.9528,-141.4906"/>
<polygon fill="#191970" stroke="#191970" points="745.3045,-140.4665 739.4773,-131.6181 738.5147,-142.1691 745.3045,-140.4665"/>
</g>
<!-- Node18&#45;&gt;Node19 -->
<g id="edge33" class="edge">
<title>Node18&#45;&gt;Node19</title>
<path fill="none" stroke="#191970" d="M829.9669,-224.2455C846.6106,-215.4527 871.3024,-202.4079 890.2223,-192.4125"/>
<polygon fill="#191970" stroke="#191970" points="892.0439,-195.4086 899.2509,-187.6427 888.774,-189.2193 892.0439,-195.4086"/>
</g>
<!-- Node18&#45;&gt;Node22 -->
<g id="edge38" class="edge">
<title>Node18&#45;&gt;Node22</title>
<path fill="none" stroke="#191970" d="M810.6322,-224.2455C809.9797,-216.9382 809.0651,-206.6944 808.2625,-197.7046"/>
<polygon fill="#191970" stroke="#191970" points="811.7396,-197.2918 807.3641,-187.6427 804.7673,-197.9143 811.7396,-197.2918"/>
</g>
<!-- Node19&#45;&gt;Node2 -->
<g id="edge34" class="edge">
<title>Node19&#45;&gt;Node2</title>
<path fill="none" stroke="#191970" d="M954.822,-168.4591C990.255,-157.5879 1035.2539,-137.9176 1014.5031,-112 964.191,-49.1604 717.4491,-22.3976 609.8406,-13.5829"/>
<polygon fill="#191970" stroke="#191970" points="609.813,-10.0696 599.5658,-12.7614 609.255,-17.0474 609.813,-10.0696"/>
</g>
<!-- Node19&#45;&gt;Node11 -->
<g id="edge35" class="edge">
<title>Node19&#45;&gt;Node11</title>
<path fill="none" stroke="#191970" d="M920.1535,-168.3953C923.4764,-154.0103 927.1126,-126.9652 912.5031,-112 884.4217,-83.2348 592.4145,-80.8043 552.5031,-76 540.2679,-74.5272 526.8777,-72.698 515.0556,-71.0083"/>
<polygon fill="#191970" stroke="#191970" points="515.5371,-67.5416 505.1386,-69.5718 514.5336,-74.4693 515.5371,-67.5416"/>
</g>
<!-- Node20 -->
<g id="node21" class="node">
<title>Node20</title>
<polygon fill="#ffffff" stroke="#bfbfbf" points="820.0031,-112.5 820.0031,-131.5 903.0031,-131.5 903.0031,-112.5 820.0031,-112.5"/>
<text text-anchor="middle" x="861.5031" y="-119.5" font-family="Helvetica,sans-Serif" font-size="10.00" fill="#000000">unordered_map</text>
</g>
<!-- Node19&#45;&gt;Node20 -->
<g id="edge36" class="edge">
<title>Node19&#45;&gt;Node20</title>
<path fill="none" stroke="#191970" d="M907.7487,-168.2455C899.6383,-160.1352 887.9106,-148.4075 878.295,-138.7919"/>
<polygon fill="#191970" stroke="#191970" points="880.6918,-136.2389 871.1458,-131.6427 875.742,-141.1887 880.6918,-136.2389"/>
</g>
<!-- Node21 -->
<g id="node22" class="node">
<title>Node21</title>
<polygon fill="#ffffff" stroke="#bfbfbf" points="959.5031,-112.5 959.5031,-131.5 1005.5031,-131.5 1005.5031,-112.5 959.5031,-112.5"/>
<text text-anchor="middle" x="982.5031" y="-119.5" font-family="Helvetica,sans-Serif" font-size="10.00" fill="#000000">cstdint</text>
</g>
<!-- Node19&#45;&gt;Node21 -->
<g id="edge37" class="edge">
<title>Node19&#45;&gt;Node21</title>
<path fill="none" stroke="#191970" d="M928.8253,-168.2455C938.4254,-159.9746 952.3923,-147.9416 963.6726,-138.2232"/>
<polygon fill="#191970" stroke="#191970" points="966.0191,-140.8214 971.3107,-131.6427 961.4501,-135.5182 966.0191,-140.8214"/>
</g>
<!-- Node22&#45;&gt;Node2 -->
<g id="edge39" class="edge">
<title>Node22&#45;&gt;Node2</title>
<path fill="none" stroke="#191970" d="M803.6929,-168.2772C799.1936,-154.2275 789.1455,-128.1651 772.5031,-112 724.8646,-65.7276 652.237,-37.1757 605.3148,-22.4447"/>
<polygon fill="#191970" stroke="#191970" points="606.2969,-19.0851 595.7105,-19.5097 604.251,-25.7795 606.2969,-19.0851"/>
</g>
<!-- Node22&#45;&gt;Node3 -->
<g id="edge40" class="edge">
<title>Node22&#45;&gt;Node3</title>
<path fill="none" stroke="#191970" d="M776.9353,-168.3733C745.5608,-158.1583 696.2458,-142.1023 664.652,-131.8159"/>
<polygon fill="#191970" stroke="#191970" points="665.6545,-128.4615 655.0622,-128.6936 663.4873,-135.1176 665.6545,-128.4615"/>
</g>
<!-- Node22&#45;&gt;Node9 -->
<g id="edge42" class="edge">
<title>Node22&#45;&gt;Node9</title>
<path fill="none" stroke="#191970" d="M794.4842,-168.2455C784.2933,-159.9746 769.4669,-147.9416 757.4924,-138.2232"/>
<polygon fill="#191970" stroke="#191970" points="759.3545,-135.2268 749.3843,-131.6427 754.9433,-140.662 759.3545,-135.2268"/>
</g>
<!-- Node22&#45;&gt;Node20 -->
<g id="edge41" class="edge">
<title>Node22&#45;&gt;Node20</title>
<path fill="none" stroke="#191970" d="M816.0834,-168.2455C824.0489,-160.1352 835.5672,-148.4075 845.0111,-138.7919"/>
<polygon fill="#191970" stroke="#191970" points="847.5226,-141.2297 852.0326,-131.6427 842.5284,-136.3247 847.5226,-141.2297"/>
</g>
<!-- Node23&#45;&gt;Node5 -->
<g id="edge49" class="edge">
<title>Node23&#45;&gt;Node5</title>
<path fill="none" stroke="#191970" d="M139.6185,-280.2455C155.9482,-271.4527 180.1741,-258.4079 198.737,-248.4125"/>
<polygon fill="#191970" stroke="#191970" points="200.4499,-251.4654 207.5953,-243.6427 197.1312,-245.3021 200.4499,-251.4654"/>
</g>
<!-- Node23&#45;&gt;Node6 -->
<g id="edge50" class="edge">
<title>Node23&#45;&gt;Node6</title>
<path fill="none" stroke="#191970" d="M76.3446,-282.5919C35.7369,-273.7362 -14.7893,-255.94 4.5031,-224 34.3794,-174.5378 97.0752,-147.8653 143.1411,-134.3498"/>
<polygon fill="#191970" stroke="#191970" points="144.3118,-137.6565 152.9933,-131.5834 142.4194,-130.9171 144.3118,-137.6565"/>
</g>
<!-- Node23&#45;&gt;Node7 -->
<g id="edge51" class="edge">
<title>Node23&#45;&gt;Node7</title>
<path fill="none" stroke="#191970" d="M166.5045,-282.2471C205.9349,-274.4286 258.8727,-261.0843 271.5031,-244 281.314,-230.7295 278.2471,-211.61 273.6533,-197.3621"/>
<polygon fill="#191970" stroke="#191970" points="276.7895,-195.7528 270.0308,-187.5937 270.2263,-198.1868 276.7895,-195.7528"/>
</g>
<!-- Node23&#45;&gt;Node10 -->
<g id="edge52" class="edge">
<title>Node23&#45;&gt;Node10</title>
<path fill="none" stroke="#191970" d="M118.6046,-280.4861C115.7715,-271.1845 111.3372,-256.6199 107.5031,-244 96.5116,-207.8214 83.7129,-165.5989 76.4138,-141.5104"/>
<polygon fill="#191970" stroke="#191970" points="79.7227,-140.361 73.4734,-131.8056 73.0235,-142.3908 79.7227,-140.361"/>
</g>
<!-- Node23&#45;&gt;Node11 -->
<g id="edge53" class="edge">
<title>Node23&#45;&gt;Node11</title>
<path fill="none" stroke="#191970" d="M118.9229,-280.2183C111.682,-250.3062 94.5655,-159.2304 140.5031,-112 161.7508,-90.1544 365.7823,-73.9083 447.7065,-68.2148"/>
<polygon fill="#191970" stroke="#191970" points="448.0123,-71.7022 457.7499,-67.5274 447.5342,-64.7185 448.0123,-71.7022"/>
</g>
<!-- Node24 -->
<g id="node25" class="node">
<title>Node24</title>
<polygon fill="#ffffff" stroke="#bfbfbf" points="14.0031,-224.5 14.0031,-243.5 55.0031,-243.5 55.0031,-224.5 14.0031,-224.5"/>
<text text-anchor="middle" x="34.5031" y="-231.5" font-family="Helvetica,sans-Serif" font-size="10.00" fill="#000000">cfloat</text>
</g>
<!-- Node23&#45;&gt;Node24 -->
<g id="edge48" class="edge">
<title>Node23&#45;&gt;Node24</title>
<path fill="none" stroke="#191970" d="M106.3489,-280.2455C93.0004,-271.6534 73.3445,-259.0014 57.9649,-249.1018"/>
<polygon fill="#191970" stroke="#191970" points="59.7867,-246.1121 49.4837,-243.6427 55.998,-251.9982 59.7867,-246.1121"/>
</g>
</g>
</svg>
