<?xml version="1.0" encoding="UTF-8" standalone="no"?>
<!DOCTYPE svg PUBLIC "-//W3C//DTD SVG 1.1//EN"
 "http://www.w3.org/Graphics/SVG/1.1/DTD/svg11.dtd">
<!-- Generated by graphviz version 2.38.0 (20140413.2041)
 -->
<!-- Title: include/Text.h Pages: 1 -->
<svg width="643pt" height="308pt"
 viewBox="0.00 0.00 643.00 308.00" xmlns="http://www.w3.org/2000/svg" xmlns:xlink="http://www.w3.org/1999/xlink">
<g id="graph0" class="graph" transform="scale(1 1) rotate(0) translate(4 304)">
<title>include/Text.h</title>
<polygon fill="white" stroke="none" points="-4,4 -4,-304 639,-304 639,4 -4,4"/>
<!-- Node0 -->
<g id="node1" class="node"><title>Node0</title>
<polygon fill="#bfbfbf" stroke="black" points="300,-280.5 300,-299.5 378,-299.5 378,-280.5 300,-280.5"/>
<text text-anchor="middle" x="339" y="-287.5" font-family="Helvetica,sans-Serif" font-size="10.00">include/Text.h</text>
</g>
<!-- Node1 -->
<g id="node2" class="node"><title>Node1</title>
<g id="a_node2"><a xlink:href="SDL__include_8h.html" target="_top" xlink:title="SDL_include.h">
<polygon fill="white" stroke="black" points="192,-0.5 192,-19.5 272,-19.5 272,-0.5 192,-0.5"/>
<text text-anchor="middle" x="232" y="-7.5" font-family="Helvetica,sans-Serif" font-size="10.00">SDL_include.h</text>
</a>
</g>
</g>
<!-- Node0&#45;&gt;Node1 -->
<g id="edge1" class="edge"><title>Node0&#45;&gt;Node1</title>
<path fill="none" stroke="midnightblue" d="M371.846,-280.458C415.448,-266.906 487,-235.985 487,-179 487,-179 487,-179 487,-121 487,-32.7023 356.501,-14.4428 282.214,-11.2017"/>
<polygon fill="midnightblue" stroke="midnightblue" points="282.244,-7.70059 272.124,-10.8383 281.992,-14.6961 282.244,-7.70059"/>
</g>
<!-- Node2 -->
<g id="node3" class="node"><title>Node2</title>
<polygon fill="white" stroke="#bfbfbf" points="29.5,-112.5 29.5,-131.5 70.5,-131.5 70.5,-112.5 29.5,-112.5"/>
<text text-anchor="middle" x="50" y="-119.5" font-family="Helvetica,sans-Serif" font-size="10.00">string</text>
</g>
<!-- Node0&#45;&gt;Node2 -->
<g id="edge2" class="edge"><title>Node0&#45;&gt;Node2</title>
<path fill="none" stroke="midnightblue" d="M319.609,-280.464C300.383,-271.829 270.234,-257.815 245,-244 180.198,-208.521 106.964,-160.955 71.5119,-137.427"/>
<polygon fill="midnightblue" stroke="midnightblue" points="73.2089,-134.352 62.9459,-131.721 69.3282,-140.178 73.2089,-134.352"/>
</g>
<!-- Node3 -->
<g id="node4" class="node"><title>Node3</title>
<g id="a_node4"><a xlink:href="Color_8h.html" target="_top" xlink:title="Color.h">
<polygon fill="white" stroke="black" points="0,-56.5 0,-75.5 48,-75.5 48,-56.5 0,-56.5"/>
<text text-anchor="middle" x="24" y="-63.5" font-family="Helvetica,sans-Serif" font-size="10.00">Color.h</text>
</a>
</g>
</g>
<!-- Node0&#45;&gt;Node3 -->
<g id="edge3" class="edge"><title>Node0&#45;&gt;Node3</title>
<path fill="none" stroke="midnightblue" d="M299.81,-283.768C228.201,-271.805 78.2343,-235.043 20,-132 12.0114,-117.865 14.2444,-99.1334 17.7448,-85.411"/>
<polygon fill="midnightblue" stroke="midnightblue" points="21.1479,-86.2464 20.6527,-75.6632 14.44,-84.2453 21.1479,-86.2464"/>
</g>
<!-- Node4 -->
<g id="node5" class="node"><title>Node4</title>
<g id="a_node5"><a xlink:href="Component_8h.html" target="_top" xlink:title="Component.h">
<polygon fill="white" stroke="black" points="268.5,-224.5 268.5,-243.5 343.5,-243.5 343.5,-224.5 268.5,-224.5"/>
<text text-anchor="middle" x="306" y="-231.5" font-family="Helvetica,sans-Serif" font-size="10.00">Component.h</text>
</a>
</g>
</g>
<!-- Node0&#45;&gt;Node4 -->
<g id="edge5" class="edge"><title>Node0&#45;&gt;Node4</title>
<path fill="none" stroke="midnightblue" d="M333.551,-280.083C328.986,-272.613 322.332,-261.724 316.707,-252.52"/>
<polygon fill="midnightblue" stroke="midnightblue" points="319.549,-250.459 311.348,-243.751 313.576,-254.109 319.549,-250.459"/>
</g>
<!-- Node5 -->
<g id="node6" class="node"><title>Node5</title>
<g id="a_node6"><a xlink:href="ComponentType_8h.html" target="_top" xlink:title="ComponentType.h">
<polygon fill="white" stroke="black" points="323.5,-112.5 323.5,-131.5 420.5,-131.5 420.5,-112.5 323.5,-112.5"/>
<text text-anchor="middle" x="372" y="-119.5" font-family="Helvetica,sans-Serif" font-size="10.00">ComponentType.h</text>
</a>
</g>
</g>
<!-- Node0&#45;&gt;Node5 -->
<g id="edge19" class="edge"><title>Node0&#45;&gt;Node5</title>
<path fill="none" stroke="midnightblue" d="M341.795,-280.451C344.659,-271.456 349.093,-256.849 352,-244 360.117,-208.128 366.386,-165.576 369.605,-141.691"/>
<polygon fill="midnightblue" stroke="midnightblue" points="373.101,-141.946 370.935,-131.575 366.161,-141.034 373.101,-141.946"/>
</g>
<!-- Node6 -->
<g id="node7" class="node"><title>Node6</title>
<g id="a_node7"><a xlink:href="GameObject_8h.html" target="_top" xlink:title="GameObject.h">
<polygon fill="white" stroke="black" points="200,-168.5 200,-187.5 280,-187.5 280,-168.5 200,-168.5"/>
<text text-anchor="middle" x="240" y="-175.5" font-family="Helvetica,sans-Serif" font-size="10.00">GameObject.h</text>
</a>
</g>
</g>
<!-- Node0&#45;&gt;Node6 -->
<g id="edge23" class="edge"><title>Node0&#45;&gt;Node6</title>
<path fill="none" stroke="midnightblue" d="M313.157,-280.414C295.503,-273.288 272.878,-261.467 259,-244 248.381,-230.635 243.696,-211.523 241.629,-197.481"/>
<polygon fill="midnightblue" stroke="midnightblue" points="245.102,-197.042 240.47,-187.513 238.149,-197.851 245.102,-197.042"/>
</g>
<!-- Node10 -->
<g id="node11" class="node"><title>Node10</title>
<g id="a_node11"><a xlink:href="Vec2_8h.html" target="_top" xlink:title="Vec2.h">
<polygon fill="white" stroke="black" points="322.5,-56.5 322.5,-75.5 369.5,-75.5 369.5,-56.5 322.5,-56.5"/>
<text text-anchor="middle" x="346" y="-63.5" font-family="Helvetica,sans-Serif" font-size="10.00">Vec2.h</text>
</a>
</g>
</g>
<!-- Node0&#45;&gt;Node10 -->
<g id="edge24" class="edge"><title>Node0&#45;&gt;Node10</title>
<path fill="none" stroke="midnightblue" d="M346.4,-280.221C364.954,-257.545 413.105,-194.415 429,-132 431.194,-123.386 433.547,-119.638 429,-112 418.246,-93.9369 397.436,-82.6782 379.345,-75.9397"/>
<polygon fill="midnightblue" stroke="midnightblue" points="380.249,-72.5505 369.655,-72.6465 377.996,-79.1782 380.249,-72.5505"/>
</g>
<!-- Node12 -->
<g id="node13" class="node"><title>Node12</title>
<g id="a_node13"><a xlink:href="Error_8h.html" target="_top" xlink:title="Error.h">
<polygon fill="white" stroke="black" points="519,-224.5 519,-243.5 565,-243.5 565,-224.5 519,-224.5"/>
<text text-anchor="middle" x="542" y="-231.5" font-family="Helvetica,sans-Serif" font-size="10.00">Error.h</text>
</a>
</g>
</g>
<!-- Node0&#45;&gt;Node12 -->
<g id="edge20" class="edge"><title>Node0&#45;&gt;Node12</title>
<path fill="none" stroke="midnightblue" d="M371.166,-280.444C408.772,-270.44 470.701,-253.966 508.762,-243.842"/>
<polygon fill="midnightblue" stroke="midnightblue" points="510.06,-247.118 518.825,-241.165 508.261,-240.353 510.06,-247.118"/>
</g>
<!-- Node3&#45;&gt;Node1 -->
<g id="edge4" class="edge"><title>Node3&#45;&gt;Node1</title>
<path fill="none" stroke="midnightblue" d="M48.2673,-58.6998C82.7926,-49.7365 146.617,-33.1669 189.197,-22.1123"/>
<polygon fill="midnightblue" stroke="midnightblue" points="190.203,-25.4673 199.002,-19.5667 188.444,-18.6919 190.203,-25.4673"/>
</g>
<!-- Node4&#45;&gt;Node5 -->
<g id="edge6" class="edge"><title>Node4&#45;&gt;Node5</title>
<path fill="none" stroke="midnightblue" d="M311.179,-224.368C322.023,-206.296 347.294,-164.176 361.616,-140.307"/>
<polygon fill="midnightblue" stroke="midnightblue" points="364.701,-141.967 366.845,-131.591 358.699,-138.366 364.701,-141.967"/>
</g>
<!-- Node4&#45;&gt;Node6 -->
<g id="edge7" class="edge"><title>Node4&#45;&gt;Node6</title>
<path fill="none" stroke="midnightblue" d="M290.281,-224.324C278.909,-216.42 264.031,-204.548 253.26,-194.938"/>
<polygon fill="midnightblue" stroke="midnightblue" points="255.347,-192.098 245.648,-187.834 250.571,-197.215 255.347,-192.098"/>
</g>
<!-- Node6&#45;&gt;Node1 -->
<g id="edge8" class="edge"><title>Node6&#45;&gt;Node1</title>
<path fill="none" stroke="midnightblue" d="M199.873,-173.822C171.862,-169.268 136.331,-158.299 118,-132 87.6206,-88.4144 159.873,-44.9478 202.868,-23.9646"/>
<polygon fill="midnightblue" stroke="midnightblue" points="204.532,-27.0494 212.065,-19.5992 201.53,-20.7258 204.532,-27.0494"/>
</g>
<!-- Node6&#45;&gt;Node2 -->
<g id="edge11" class="edge"><title>Node6&#45;&gt;Node2</title>
<path fill="none" stroke="midnightblue" d="M209.894,-168.444C174.466,-158.374 115.972,-141.75 80.412,-131.643"/>
<polygon fill="midnightblue" stroke="midnightblue" points="81.1718,-128.221 70.5959,-128.854 79.2581,-134.954 81.1718,-128.221"/>
</g>
<!-- Node6&#45;&gt;Node4 -->
<g id="edge12" class="edge"><title>Node6&#45;&gt;Node4</title>
<path fill="none" stroke="midnightblue" d="M255.571,-187.573C267.033,-195.526 282.108,-207.559 292.941,-217.242"/>
<polygon fill="midnightblue" stroke="midnightblue" points="290.57,-219.817 300.268,-224.083 295.347,-214.7 290.57,-219.817"/>
</g>
<!-- Node6&#45;&gt;Node5 -->
<g id="edge13" class="edge"><title>Node6&#45;&gt;Node5</title>
<path fill="none" stroke="midnightblue" d="M260.916,-168.444C282.736,-159.517 317.15,-145.439 341.892,-135.317"/>
<polygon fill="midnightblue" stroke="midnightblue" points="343.252,-138.542 351.182,-131.516 340.601,-132.063 343.252,-138.542"/>
</g>
<!-- Node7 -->
<g id="node8" class="node"><title>Node7</title>
<polygon fill="white" stroke="#bfbfbf" points="127,-112.5 127,-131.5 171,-131.5 171,-112.5 127,-112.5"/>
<text text-anchor="middle" x="149" y="-119.5" font-family="Helvetica,sans-Serif" font-size="10.00">vector</text>
</g>
<!-- Node6&#45;&gt;Node7 -->
<g id="edge9" class="edge"><title>Node6&#45;&gt;Node7</title>
<path fill="none" stroke="midnightblue" d="M225.379,-168.324C211.051,-159.822 188.987,-146.729 172.251,-136.797"/>
<polygon fill="midnightblue" stroke="midnightblue" points="173.97,-133.748 163.584,-131.655 170.398,-139.768 173.97,-133.748"/>
</g>
<!-- Node8 -->
<g id="node9" class="node"><title>Node8</title>
<polygon fill="white" stroke="#bfbfbf" points="189,-112.5 189,-131.5 241,-131.5 241,-112.5 189,-112.5"/>
<text text-anchor="middle" x="215" y="-119.5" font-family="Helvetica,sans-Serif" font-size="10.00">memory</text>
</g>
<!-- Node6&#45;&gt;Node8 -->
<g id="edge10" class="edge"><title>Node6&#45;&gt;Node8</title>
<path fill="none" stroke="midnightblue" d="M235.872,-168.083C232.486,-160.77 227.584,-150.181 223.381,-141.103"/>
<polygon fill="midnightblue" stroke="midnightblue" points="226.429,-139.355 219.051,-131.751 220.077,-142.296 226.429,-139.355"/>
</g>
<!-- Node9 -->
<g id="node10" class="node"><title>Node9</title>
<g id="a_node10"><a xlink:href="Rect_8h.html" target="_top" xlink:title="Rect.h">
<polygon fill="white" stroke="black" points="259,-112.5 259,-131.5 305,-131.5 305,-112.5 259,-112.5"/>
<text text-anchor="middle" x="282" y="-119.5" font-family="Helvetica,sans-Serif" font-size="10.00">Rect.h</text>
</a>
</g>
</g>
<!-- Node6&#45;&gt;Node9 -->
<g id="edge14" class="edge"><title>Node6&#45;&gt;Node9</title>
<path fill="none" stroke="midnightblue" d="M246.935,-168.083C252.929,-160.377 261.752,-149.033 269.048,-139.653"/>
<polygon fill="midnightblue" stroke="midnightblue" points="271.817,-141.793 275.194,-131.751 266.291,-137.496 271.817,-141.793"/>
</g>
<!-- Node9&#45;&gt;Node1 -->
<g id="edge15" class="edge"><title>Node9&#45;&gt;Node1</title>
<path fill="none" stroke="midnightblue" d="M274.679,-112.217C267.736,-103.506 257.436,-89.5371 251,-76 243.901,-61.0685 238.868,-42.9276 235.773,-29.6088"/>
<polygon fill="midnightblue" stroke="midnightblue" points="239.171,-28.7601 233.627,-19.7314 232.33,-30.2466 239.171,-28.7601"/>
</g>
<!-- Node9&#45;&gt;Node10 -->
<g id="edge16" class="edge"><title>Node9&#45;&gt;Node10</title>
<path fill="none" stroke="midnightblue" d="M292.283,-112.324C301.836,-104.263 316.28,-92.0765 327.784,-82.3695"/>
<polygon fill="midnightblue" stroke="midnightblue" points="330.144,-84.9577 335.53,-75.8339 325.63,-79.6076 330.144,-84.9577"/>
</g>
<!-- Node11 -->
<g id="node12" class="node"><title>Node11</title>
<polygon fill="white" stroke="#bfbfbf" points="260,-56.5 260,-75.5 304,-75.5 304,-56.5 260,-56.5"/>
<text text-anchor="middle" x="282" y="-63.5" font-family="Helvetica,sans-Serif" font-size="10.00">cmath</text>
</g>
<!-- Node9&#45;&gt;Node11 -->
<g id="edge18" class="edge"><title>Node9&#45;&gt;Node11</title>
<path fill="none" stroke="midnightblue" d="M282,-112.083C282,-105.006 282,-94.8611 282,-85.9865"/>
<polygon fill="midnightblue" stroke="midnightblue" points="285.5,-85.751 282,-75.7511 278.5,-85.7511 285.5,-85.751"/>
</g>
<!-- Node10&#45;&gt;Node1 -->
<g id="edge17" class="edge"><title>Node10&#45;&gt;Node1</title>
<path fill="none" stroke="midnightblue" d="M327.936,-56.4435C309.425,-47.6751 280.419,-33.9355 259.145,-23.8579"/>
<polygon fill="midnightblue" stroke="midnightblue" points="260.515,-20.6343 249.979,-19.5164 257.518,-26.9604 260.515,-20.6343"/>
</g>
<!-- Node13 -->
<g id="node14" class="node"><title>Node13</title>
<polygon fill="white" stroke="#bfbfbf" points="515,-168.5 515,-187.5 569,-187.5 569,-168.5 515,-168.5"/>
<text text-anchor="middle" x="542" y="-175.5" font-family="Helvetica,sans-Serif" font-size="10.00">iostream</text>
</g>
<!-- Node12&#45;&gt;Node13 -->
<g id="edge21" class="edge"><title>Node12&#45;&gt;Node13</title>
<path fill="none" stroke="midnightblue" d="M542,-224.083C542,-217.006 542,-206.861 542,-197.986"/>
<polygon fill="midnightblue" stroke="midnightblue" points="545.5,-197.751 542,-187.751 538.5,-197.751 545.5,-197.751"/>
</g>
<!-- Node14 -->
<g id="node15" class="node"><title>Node14</title>
<polygon fill="white" stroke="#bfbfbf" points="587,-168.5 587,-187.5 635,-187.5 635,-168.5 587,-168.5"/>
<text text-anchor="middle" x="611" y="-175.5" font-family="Helvetica,sans-Serif" font-size="10.00">stdlib.h</text>
</g>
<!-- Node12&#45;&gt;Node14 -->
<g id="edge22" class="edge"><title>Node12&#45;&gt;Node14</title>
<path fill="none" stroke="midnightblue" d="M553.086,-224.324C563.486,-216.185 579.261,-203.839 591.722,-194.087"/>
<polygon fill="midnightblue" stroke="midnightblue" points="593.994,-196.753 599.712,-187.834 589.68,-191.241 593.994,-196.753"/>
</g>
</g>
</svg>
