<?xml version="1.0" encoding="UTF-8" standalone="no"?>
<!DOCTYPE svg PUBLIC "-//W3C//DTD SVG 1.1//EN"
 "http://www.w3.org/Graphics/SVG/1.1/DTD/svg11.dtd">
<!-- Generated by graphviz version 2.40.1 (20161225.0304)
 -->
<!-- Title: include/Text.h Pages: 1 -->
<svg width="626pt" height="308pt"
 viewBox="0.00 0.00 625.89 308.00" xmlns="http://www.w3.org/2000/svg" xmlns:xlink="http://www.w3.org/1999/xlink">
<g id="graph0" class="graph" transform="scale(1 1) rotate(0) translate(4 304)">
<title>include/Text.h</title>
<polygon fill="#ffffff" stroke="transparent" points="-4,4 -4,-304 621.8852,-304 621.8852,4 -4,4"/>
<!-- Node0 -->
<g id="node1" class="node">
<title>Node0</title>
<polygon fill="#bfbfbf" stroke="#000000" points="323.8852,-280.5 323.8852,-299.5 401.8852,-299.5 401.8852,-280.5 323.8852,-280.5"/>
<text text-anchor="middle" x="362.8852" y="-287.5" font-family="Helvetica,sans-Serif" font-size="10.00" fill="#000000">include/Text.h</text>
</g>
<!-- Node1 -->
<g id="node2" class="node">
<title>Node1</title>
<g id="a_node2"><a xlink:href="SDL__include_8h.html" target="_top" xlink:title="SDL_include.h">
<polygon fill="#ffffff" stroke="#000000" points="178.8852,-.5 178.8852,-19.5 258.8852,-19.5 258.8852,-.5 178.8852,-.5"/>
<text text-anchor="middle" x="218.8852" y="-7.5" font-family="Helvetica,sans-Serif" font-size="10.00" fill="#000000">SDL_include.h</text>
</a>
</g>
</g>
<!-- Node0&#45;&gt;Node1 -->
<g id="edge1" class="edge">
<title>Node0&#45;&gt;Node1</title>
<path fill="none" stroke="#191970" d="M373.9712,-280.4418C393.4759,-262.4968 431.8852,-221.6211 431.8852,-178 431.8852,-178 431.8852,-178 431.8852,-122 431.8852,-48.7835 332.0723,-23.3235 269.0998,-14.5465"/>
<polygon fill="#191970" stroke="#191970" points="269.3159,-11.0453 258.9488,-13.2304 268.4158,-17.9872 269.3159,-11.0453"/>
</g>
<!-- Node2 -->
<g id="node3" class="node">
<title>Node2</title>
<polygon fill="#ffffff" stroke="#bfbfbf" points="247.3852,-112.5 247.3852,-131.5 288.3852,-131.5 288.3852,-112.5 247.3852,-112.5"/>
<text text-anchor="middle" x="267.8852" y="-119.5" font-family="Helvetica,sans-Serif" font-size="10.00" fill="#000000">string</text>
</g>
<!-- Node0&#45;&gt;Node2 -->
<g id="edge2" class="edge">
<title>Node0&#45;&gt;Node2</title>
<path fill="none" stroke="#191970" d="M357.5054,-280.4862C342.293,-253.5845 298.7598,-176.5994 278.4976,-140.7673"/>
<polygon fill="#191970" stroke="#191970" points="281.4116,-138.8097 273.4426,-131.8279 275.3183,-142.2554 281.4116,-138.8097"/>
</g>
<!-- Node3 -->
<g id="node4" class="node">
<title>Node3</title>
<g id="a_node4"><a xlink:href="Color_8h.html" target="_top" xlink:title="Color.h">
<polygon fill="#ffffff" stroke="#000000" points="459.8852,-56.5 459.8852,-75.5 507.8852,-75.5 507.8852,-56.5 459.8852,-56.5"/>
<text text-anchor="middle" x="483.8852" y="-63.5" font-family="Helvetica,sans-Serif" font-size="10.00" fill="#000000">Color.h</text>
</a>
</g>
</g>
<!-- Node0&#45;&gt;Node3 -->
<g id="edge3" class="edge">
<title>Node0&#45;&gt;Node3</title>
<path fill="none" stroke="#191970" d="M393.3299,-280.3777C411.2787,-273.1589 432.9414,-261.475 445.8852,-244 481.5396,-195.864 485.2266,-121.4113 484.7393,-86.013"/>
<polygon fill="#191970" stroke="#191970" points="488.2267,-85.5004 484.4542,-75.6 481.2293,-85.6921 488.2267,-85.5004"/>
</g>
<!-- Node4 -->
<g id="node5" class="node">
<title>Node4</title>
<g id="a_node5"><a xlink:href="Component_8h.html" target="_top" xlink:title="Component.h">
<polygon fill="#ffffff" stroke="#000000" points="240.3852,-224.5 240.3852,-243.5 315.3852,-243.5 315.3852,-224.5 240.3852,-224.5"/>
<text text-anchor="middle" x="277.8852" y="-231.5" font-family="Helvetica,sans-Serif" font-size="10.00" fill="#000000">Component.h</text>
</a>
</g>
</g>
<!-- Node0&#45;&gt;Node4 -->
<g id="edge5" class="edge">
<title>Node0&#45;&gt;Node4</title>
<path fill="none" stroke="#191970" d="M348.0793,-280.2455C335.1596,-271.7337 316.1921,-259.2375 301.2299,-249.3801"/>
<polygon fill="#191970" stroke="#191970" points="302.7976,-246.2216 292.5214,-243.6427 298.9464,-252.067 302.7976,-246.2216"/>
</g>
<!-- Node5 -->
<g id="node6" class="node">
<title>Node5</title>
<g id="a_node6"><a xlink:href="ComponentType_8h.html" target="_top" xlink:title="ComponentType.h">
<polygon fill="#ffffff" stroke="#000000" points="306.3852,-112.5 306.3852,-131.5 403.3852,-131.5 403.3852,-112.5 306.3852,-112.5"/>
<text text-anchor="middle" x="354.8852" y="-119.5" font-family="Helvetica,sans-Serif" font-size="10.00" fill="#000000">ComponentType.h</text>
</a>
</g>
</g>
<!-- Node0&#45;&gt;Node5 -->
<g id="edge20" class="edge">
<title>Node0&#45;&gt;Node5</title>
<path fill="none" stroke="#191970" d="M362.5637,-280.1916C361.8666,-259.4678 360.0992,-209.702 357.8852,-168 357.4243,-159.3189 356.8144,-149.7228 356.2649,-141.5512"/>
<polygon fill="#191970" stroke="#191970" points="359.7523,-141.2464 355.5728,-131.5108 352.7689,-141.7279 359.7523,-141.2464"/>
</g>
<!-- Node6 -->
<g id="node7" class="node">
<title>Node6</title>
<g id="a_node7"><a xlink:href="GameObject_8h.html" target="_top" xlink:title="GameObject.h">
<polygon fill="#ffffff" stroke="#000000" points="178.8852,-168.5 178.8852,-187.5 258.8852,-187.5 258.8852,-168.5 178.8852,-168.5"/>
<text text-anchor="middle" x="218.8852" y="-175.5" font-family="Helvetica,sans-Serif" font-size="10.00" fill="#000000">GameObject.h</text>
</a>
</g>
</g>
<!-- Node0&#45;&gt;Node6 -->
<g id="edge24" class="edge">
<title>Node0&#45;&gt;Node6</title>
<path fill="none" stroke="#191970" d="M323.8289,-281.011C289.5152,-272.3191 243.1903,-258.3841 230.8852,-244 220.1324,-231.4306 217.6173,-212.4927 217.5091,-198.122"/>
<polygon fill="#191970" stroke="#191970" points="221.0179,-197.8879 217.827,-187.7851 214.0212,-197.6727 221.0179,-197.8879"/>
</g>
<!-- Node10 -->
<g id="node11" class="node">
<title>Node10</title>
<g id="a_node11"><a xlink:href="Vec2_8h.html" target="_top" xlink:title="Vec2.h">
<polygon fill="#ffffff" stroke="#000000" points="43.3852,-56.5 43.3852,-75.5 90.3852,-75.5 90.3852,-56.5 43.3852,-56.5"/>
<text text-anchor="middle" x="66.8852" y="-63.5" font-family="Helvetica,sans-Serif" font-size="10.00" fill="#000000">Vec2.h</text>
</a>
</g>
</g>
<!-- Node0&#45;&gt;Node10 -->
<g id="edge25" class="edge">
<title>Node0&#45;&gt;Node10</title>
<path fill="none" stroke="#191970" d="M323.7614,-286.7798C245.8358,-277.9745 72.8227,-245.8877 3.8852,-132 -8.3164,-111.8425 14.9319,-92.827 36.5531,-80.432"/>
<polygon fill="#191970" stroke="#191970" points="38.475,-83.372 45.6115,-75.5412 35.1493,-77.2124 38.475,-83.372"/>
</g>
<!-- Node12 -->
<g id="node13" class="node">
<title>Node12</title>
<g id="a_node13"><a xlink:href="Error_8h.html" target="_top" xlink:title="Error.h">
<polygon fill="#ffffff" stroke="#000000" points="498.8852,-224.5 498.8852,-243.5 544.8852,-243.5 544.8852,-224.5 498.8852,-224.5"/>
<text text-anchor="middle" x="521.8852" y="-231.5" font-family="Helvetica,sans-Serif" font-size="10.00" fill="#000000">Error.h</text>
</a>
</g>
</g>
<!-- Node0&#45;&gt;Node12 -->
<g id="edge21" class="edge">
<title>Node0&#45;&gt;Node12</title>
<path fill="none" stroke="#191970" d="M390.2182,-280.3733C417.5406,-270.7503 459.5811,-255.9436 488.7788,-245.6601"/>
<polygon fill="#191970" stroke="#191970" points="490.2562,-248.8506 498.5256,-242.2273 487.9308,-242.2481 490.2562,-248.8506"/>
</g>
<!-- Node3&#45;&gt;Node1 -->
<g id="edge4" class="edge">
<title>Node3&#45;&gt;Node1</title>
<path fill="none" stroke="#191970" d="M459.8143,-59.4429C455.2023,-58.2498 450.4033,-57.0514 445.8852,-56 385.4435,-41.9353 315.3791,-28.1109 269.2597,-19.3484"/>
<polygon fill="#191970" stroke="#191970" points="269.6974,-15.8692 259.221,-17.4493 268.3961,-22.7472 269.6974,-15.8692"/>
</g>
<!-- Node4&#45;&gt;Node5 -->
<g id="edge6" class="edge">
<title>Node4&#45;&gt;Node5</title>
<path fill="none" stroke="#191970" d="M284.4502,-224.4509C297.2928,-205.7707 325.9251,-164.1238 342.4578,-140.0761"/>
<polygon fill="#191970" stroke="#191970" points="345.5556,-141.7482 348.3368,-131.5249 339.7873,-137.7825 345.5556,-141.7482"/>
</g>
<!-- Node4&#45;&gt;Node6 -->
<g id="edge7" class="edge">
<title>Node4&#45;&gt;Node6</title>
<path fill="none" stroke="#191970" d="M262.3413,-224.2455C252.3305,-216.2155 239.7995,-204.6394 230.6071,-195.0781"/>
<polygon fill="#191970" stroke="#191970" points="233.1337,-192.6547 223.7993,-187.6427 227.9708,-197.3818 233.1337,-192.6547"/>
</g>
<!-- Node6&#45;&gt;Node1 -->
<g id="edge8" class="edge">
<title>Node6&#45;&gt;Node1</title>
<path fill="none" stroke="#191970" d="M218.8852,-168.4862C218.8852,-141.9293 218.8852,-66.5651 218.8852,-30.1655"/>
<polygon fill="#191970" stroke="#191970" points="222.3853,-29.8278 218.8852,-19.8279 215.3853,-29.8279 222.3853,-29.8278"/>
</g>
<!-- Node6&#45;&gt;Node2 -->
<g id="edge11" class="edge">
<title>Node6&#45;&gt;Node2</title>
<path fill="none" stroke="#191970" d="M227.4203,-168.2455C234.3763,-160.2958 244.3734,-148.8706 252.6903,-139.3656"/>
<polygon fill="#191970" stroke="#191970" points="255.4968,-141.4732 259.4478,-131.6427 250.2287,-136.8637 255.4968,-141.4732"/>
</g>
<!-- Node6&#45;&gt;Node4 -->
<g id="edge12" class="edge">
<title>Node6&#45;&gt;Node4</title>
<path fill="none" stroke="#191970" d="M234.2896,-187.6427C244.2768,-195.6396 256.8115,-207.2085 266.0349,-216.7884"/>
<polygon fill="#191970" stroke="#191970" points="263.5361,-219.242 272.875,-224.2455 268.6947,-214.5103 263.5361,-219.242"/>
</g>
<!-- Node6&#45;&gt;Node5 -->
<g id="edge13" class="edge">
<title>Node6&#45;&gt;Node5</title>
<path fill="none" stroke="#191970" d="M242.2644,-168.3733C264.3896,-159.2629 297.7986,-145.5062 322.4871,-135.3404"/>
<polygon fill="#191970" stroke="#191970" points="323.8969,-138.5451 331.811,-131.5011 321.2316,-132.0723 323.8969,-138.5451"/>
</g>
<!-- Node7 -->
<g id="node8" class="node">
<title>Node7</title>
<polygon fill="#ffffff" stroke="#bfbfbf" points="12.8852,-112.5 12.8852,-131.5 56.8852,-131.5 56.8852,-112.5 12.8852,-112.5"/>
<text text-anchor="middle" x="34.8852" y="-119.5" font-family="Helvetica,sans-Serif" font-size="10.00" fill="#000000">vector</text>
</g>
<!-- Node6&#45;&gt;Node7 -->
<g id="edge9" class="edge">
<title>Node6&#45;&gt;Node7</title>
<path fill="none" stroke="#191970" d="M186.5915,-168.4947C157.5852,-159.9119 113.5935,-146.7846 66.9036,-132.2798"/>
<polygon fill="#191970" stroke="#191970" points="67.8077,-128.8956 57.2193,-129.2634 65.726,-135.5789 67.8077,-128.8956"/>
</g>
<!-- Node8 -->
<g id="node9" class="node">
<title>Node8</title>
<polygon fill="#ffffff" stroke="#bfbfbf" points="74.8852,-112.5 74.8852,-131.5 126.8852,-131.5 126.8852,-112.5 74.8852,-112.5"/>
<text text-anchor="middle" x="100.8852" y="-119.5" font-family="Helvetica,sans-Serif" font-size="10.00" fill="#000000">memory</text>
</g>
<!-- Node6&#45;&gt;Node8 -->
<g id="edge10" class="edge">
<title>Node6&#45;&gt;Node8</title>
<path fill="none" stroke="#191970" d="M198.6003,-168.3733C179.7431,-159.4241 151.4392,-145.9917 130.1397,-135.8835"/>
<polygon fill="#191970" stroke="#191970" points="131.4403,-132.6266 120.9054,-131.5011 128.439,-138.9506 131.4403,-132.6266"/>
</g>
<!-- Node9 -->
<g id="node10" class="node">
<title>Node9</title>
<g id="a_node10"><a xlink:href="Rect_8h.html" target="_top" xlink:title="Rect.h">
<polygon fill="#ffffff" stroke="#000000" points="144.8852,-112.5 144.8852,-131.5 190.8852,-131.5 190.8852,-112.5 144.8852,-112.5"/>
<text text-anchor="middle" x="167.8852" y="-119.5" font-family="Helvetica,sans-Serif" font-size="10.00" fill="#000000">Rect.h</text>
</a>
</g>
</g>
<!-- Node6&#45;&gt;Node9 -->
<g id="edge14" class="edge">
<title>Node6&#45;&gt;Node9</title>
<path fill="none" stroke="#191970" d="M210.0017,-168.2455C202.6886,-160.2155 192.146,-148.6394 183.4385,-139.0781"/>
<polygon fill="#191970" stroke="#191970" points="185.9879,-136.6795 176.6669,-131.6427 180.8125,-141.3928 185.9879,-136.6795"/>
</g>
<!-- Node9&#45;&gt;Node1 -->
<g id="edge15" class="edge">
<title>Node9&#45;&gt;Node1</title>
<path fill="none" stroke="#191970" d="M172.2334,-112.4509C180.6643,-93.936 199.369,-52.8591 210.3615,-28.7187"/>
<polygon fill="#191970" stroke="#191970" points="213.5891,-30.0762 214.5479,-19.5249 207.2184,-27.1753 213.5891,-30.0762"/>
</g>
<!-- Node9&#45;&gt;Node10 -->
<g id="edge16" class="edge">
<title>Node9&#45;&gt;Node10</title>
<path fill="none" stroke="#191970" d="M145.2806,-112.3733C127.873,-103.666 104.2539,-90.7145 87.3932,-80.7102"/>
<polygon fill="#191970" stroke="#191970" points="89.1693,-77.694 78.8038,-75.5011 85.5394,-83.6793 89.1693,-77.694"/>
</g>
<!-- Node11 -->
<g id="node12" class="node">
<title>Node11</title>
<polygon fill="#ffffff" stroke="#bfbfbf" points="108.8852,-56.5 108.8852,-75.5 152.8852,-75.5 152.8852,-56.5 108.8852,-56.5"/>
<text text-anchor="middle" x="130.8852" y="-63.5" font-family="Helvetica,sans-Serif" font-size="10.00" fill="#000000">cmath</text>
</g>
<!-- Node9&#45;&gt;Node11 -->
<g id="edge19" class="edge">
<title>Node9&#45;&gt;Node11</title>
<path fill="none" stroke="#191970" d="M161.4403,-112.2455C156.3469,-104.5367 149.0943,-93.5598 142.9332,-84.2348"/>
<polygon fill="#191970" stroke="#191970" points="145.689,-82.0566 137.2562,-75.6427 139.8487,-85.9155 145.689,-82.0566"/>
</g>
<!-- Node10&#45;&gt;Node1 -->
<g id="edge17" class="edge">
<title>Node10&#45;&gt;Node1</title>
<path fill="none" stroke="#191970" d="M90.6352,-57.25C115.5069,-48.0867 154.8489,-33.5923 183.4049,-23.0717"/>
<polygon fill="#191970" stroke="#191970" points="184.8409,-26.2727 193.0144,-19.5314 182.4209,-19.7043 184.8409,-26.2727"/>
</g>
<!-- Node10&#45;&gt;Node9 -->
<g id="edge18" class="edge">
<title>Node10&#45;&gt;Node9</title>
<path fill="none" stroke="#191970" d="M89.5216,-75.6427C106.7853,-84.2794 130.1452,-97.0824 146.9667,-107.0465"/>
<polygon fill="#191970" stroke="#191970" points="145.1915,-110.0632 155.5592,-112.2455 148.8153,-104.0741 145.1915,-110.0632"/>
</g>
<!-- Node13 -->
<g id="node14" class="node">
<title>Node13</title>
<polygon fill="#ffffff" stroke="#bfbfbf" points="563.8852,-168.5 563.8852,-187.5 617.8852,-187.5 617.8852,-168.5 563.8852,-168.5"/>
<text text-anchor="middle" x="590.8852" y="-175.5" font-family="Helvetica,sans-Serif" font-size="10.00" fill="#000000">iostream</text>
</g>
<!-- Node12&#45;&gt;Node13 -->
<g id="edge22" class="edge">
<title>Node12&#45;&gt;Node13</title>
<path fill="none" stroke="#191970" d="M533.9041,-224.2455C544.095,-215.9746 558.9214,-203.9416 570.8958,-194.2232"/>
<polygon fill="#191970" stroke="#191970" points="573.445,-196.662 579.004,-187.6427 569.0338,-191.2268 573.445,-196.662"/>
</g>
<!-- Node14 -->
<g id="node15" class="node">
<title>Node14</title>
<polygon fill="#ffffff" stroke="#bfbfbf" points="497.8852,-168.5 497.8852,-187.5 545.8852,-187.5 545.8852,-168.5 497.8852,-168.5"/>
<text text-anchor="middle" x="521.8852" y="-175.5" font-family="Helvetica,sans-Serif" font-size="10.00" fill="#000000">stdlib.h</text>
</g>
<!-- Node12&#45;&gt;Node14 -->
<g id="edge23" class="edge">
<title>Node12&#45;&gt;Node14</title>
<path fill="none" stroke="#191970" d="M521.8852,-224.2455C521.8852,-216.9382 521.8852,-206.6944 521.8852,-197.7046"/>
<polygon fill="#191970" stroke="#191970" points="525.3853,-197.6426 521.8852,-187.6427 518.3853,-197.6427 525.3853,-197.6426"/>
</g>
</g>
</svg>
