<?xml version="1.0" encoding="UTF-8" standalone="no"?>
<!DOCTYPE svg PUBLIC "-//W3C//DTD SVG 1.1//EN"
 "http://www.w3.org/Graphics/SVG/1.1/DTD/svg11.dtd">
<!-- Generated by graphviz version 2.38.0 (20140413.2041)
 -->
<!-- Title: src/Text.cpp Pages: 1 -->
<svg width="1094pt" height="364pt"
 viewBox="0.00 0.00 1094.00 364.00" xmlns="http://www.w3.org/2000/svg" xmlns:xlink="http://www.w3.org/1999/xlink">
<g id="graph0" class="graph" transform="scale(1 1) rotate(0) translate(4 360)">
<title>src/Text.cpp</title>
<polygon fill="white" stroke="none" points="-4,4 -4,-360 1090,-360 1090,4 -4,4"/>
<!-- Node0 -->
<g id="node1" class="node"><title>Node0</title>
<polygon fill="#bfbfbf" stroke="black" points="601.5,-336.5 601.5,-355.5 672.5,-355.5 672.5,-336.5 601.5,-336.5"/>
<text text-anchor="middle" x="637" y="-343.5" font-family="Helvetica,sans-Serif" font-size="10.00">src/Text.cpp</text>
</g>
<!-- Node1 -->
<g id="node2" class="node"><title>Node1</title>
<g id="a_node2"><a xlink:href="Text_8h.html" target="_top" xlink:title="Text.h">
<polygon fill="white" stroke="black" points="181,-280.5 181,-299.5 225,-299.5 225,-280.5 181,-280.5"/>
<text text-anchor="middle" x="203" y="-287.5" font-family="Helvetica,sans-Serif" font-size="10.00">Text.h</text>
</a>
</g>
</g>
<!-- Node0&#45;&gt;Node1 -->
<g id="edge1" class="edge"><title>Node0&#45;&gt;Node1</title>
<path fill="none" stroke="midnightblue" d="M601.484,-340.581C518.923,-330.308 315.069,-304.944 235.527,-295.047"/>
<polygon fill="midnightblue" stroke="midnightblue" points="235.51,-291.518 225.154,-293.756 234.645,-298.465 235.51,-291.518"/>
</g>
<!-- Node16 -->
<g id="node17" class="node"><title>Node16</title>
<g id="a_node17"><a xlink:href="Game_8h.html" target="_top" xlink:title="Game.h">
<polygon fill="white" stroke="black" points="727.5,-280.5 727.5,-299.5 778.5,-299.5 778.5,-280.5 727.5,-280.5"/>
<text text-anchor="middle" x="753" y="-287.5" font-family="Helvetica,sans-Serif" font-size="10.00">Game.h</text>
</a>
</g>
</g>
<!-- Node0&#45;&gt;Node16 -->
<g id="edge26" class="edge"><title>Node0&#45;&gt;Node16</title>
<path fill="none" stroke="midnightblue" d="M655.381,-336.444C674.216,-327.675 703.731,-313.935 725.379,-303.858"/>
<polygon fill="midnightblue" stroke="midnightblue" points="727.117,-306.91 734.705,-299.516 724.162,-300.564 727.117,-306.91"/>
</g>
<!-- Node22 -->
<g id="node23" class="node"><title>Node22</title>
<g id="a_node23"><a xlink:href="Resources_8h.html" target="_top" xlink:title="Resources.h">
<polygon fill="white" stroke="black" points="780,-168.5 780,-187.5 852,-187.5 852,-168.5 780,-168.5"/>
<text text-anchor="middle" x="816" y="-175.5" font-family="Helvetica,sans-Serif" font-size="10.00">Resources.h</text>
</a>
</g>
</g>
<!-- Node0&#45;&gt;Node22 -->
<g id="edge53" class="edge"><title>Node0&#45;&gt;Node22</title>
<path fill="none" stroke="midnightblue" d="M672.706,-338.923C704.257,-332.503 750.757,-320.417 787,-300 819.352,-281.775 833.924,-277.933 849,-244 856.575,-226.952 844.485,-207.985 832.865,-194.962"/>
<polygon fill="midnightblue" stroke="midnightblue" points="835.326,-192.472 825.871,-187.692 830.282,-197.325 835.326,-192.472"/>
</g>
<!-- Node23 -->
<g id="node24" class="node"><title>Node23</title>
<g id="a_node24"><a xlink:href="RectTransform_8h.html" target="_top" xlink:title="RectTransform.h">
<polygon fill="white" stroke="black" points="477,-280.5 477,-299.5 567,-299.5 567,-280.5 477,-280.5"/>
<text text-anchor="middle" x="522" y="-287.5" font-family="Helvetica,sans-Serif" font-size="10.00">RectTransform.h</text>
</a>
</g>
</g>
<!-- Node0&#45;&gt;Node23 -->
<g id="edge46" class="edge"><title>Node0&#45;&gt;Node23</title>
<path fill="none" stroke="midnightblue" d="M618.778,-336.444C600.104,-327.675 570.844,-313.935 549.383,-303.858"/>
<polygon fill="midnightblue" stroke="midnightblue" points="550.676,-300.599 540.137,-299.516 547.701,-306.935 550.676,-300.599"/>
</g>
<!-- Node2 -->
<g id="node3" class="node"><title>Node2</title>
<g id="a_node3"><a xlink:href="SDL__include_8h.html" target="_top" xlink:title="SDL_include.h">
<polygon fill="white" stroke="black" points="528,-0.5 528,-19.5 608,-19.5 608,-0.5 528,-0.5"/>
<text text-anchor="middle" x="568" y="-7.5" font-family="Helvetica,sans-Serif" font-size="10.00">SDL_include.h</text>
</a>
</g>
</g>
<!-- Node1&#45;&gt;Node2 -->
<g id="edge2" class="edge"><title>Node1&#45;&gt;Node2</title>
<path fill="none" stroke="midnightblue" d="M180.878,-281.447C144.492,-267.457 76,-233.838 76,-179 76,-179 76,-179 76,-121 76,-31.1855 392.205,-14.68 517.624,-11.6657"/>
<polygon fill="midnightblue" stroke="midnightblue" points="517.817,-15.1624 527.738,-11.4422 517.663,-8.1641 517.817,-15.1624"/>
</g>
<!-- Node3 -->
<g id="node4" class="node"><title>Node3</title>
<polygon fill="white" stroke="#bfbfbf" points="528.5,-112.5 528.5,-131.5 569.5,-131.5 569.5,-112.5 528.5,-112.5"/>
<text text-anchor="middle" x="549" y="-119.5" font-family="Helvetica,sans-Serif" font-size="10.00">string</text>
</g>
<!-- Node1&#45;&gt;Node3 -->
<g id="edge3" class="edge"><title>Node1&#45;&gt;Node3</title>
<path fill="none" stroke="midnightblue" d="M210.322,-280.25C222.201,-266.545 246.979,-239.939 273,-224 315.864,-197.744 456.24,-152.075 518.636,-132.429"/>
<polygon fill="midnightblue" stroke="midnightblue" points="519.807,-135.73 528.302,-129.397 517.713,-129.05 519.807,-135.73"/>
</g>
<!-- Node4 -->
<g id="node5" class="node"><title>Node4</title>
<g id="a_node5"><a xlink:href="Color_8h.html" target="_top" xlink:title="Color.h">
<polygon fill="white" stroke="black" points="0,-56.5 0,-75.5 48,-75.5 48,-56.5 0,-56.5"/>
<text text-anchor="middle" x="24" y="-63.5" font-family="Helvetica,sans-Serif" font-size="10.00">Color.h</text>
</a>
</g>
</g>
<!-- Node1&#45;&gt;Node4 -->
<g id="edge4" class="edge"><title>Node1&#45;&gt;Node4</title>
<path fill="none" stroke="midnightblue" d="M180.792,-288.482C149.525,-286.495 92.9008,-278.069 62,-244 21.4029,-199.241 20.3515,-121.875 22.3443,-86.1271"/>
<polygon fill="midnightblue" stroke="midnightblue" points="25.8671,-85.9293 23.0841,-75.7065 18.8846,-85.4335 25.8671,-85.9293"/>
</g>
<!-- Node5 -->
<g id="node6" class="node"><title>Node5</title>
<g id="a_node6"><a xlink:href="Component_8h.html" target="_top" xlink:title="Component.h">
<polygon fill="white" stroke="black" points="282.5,-224.5 282.5,-243.5 357.5,-243.5 357.5,-224.5 282.5,-224.5"/>
<text text-anchor="middle" x="320" y="-231.5" font-family="Helvetica,sans-Serif" font-size="10.00">Component.h</text>
</a>
</g>
</g>
<!-- Node1&#45;&gt;Node5 -->
<g id="edge6" class="edge"><title>Node1&#45;&gt;Node5</title>
<path fill="none" stroke="midnightblue" d="M221.539,-280.444C240.623,-271.636 270.575,-257.812 292.436,-247.722"/>
<polygon fill="midnightblue" stroke="midnightblue" points="293.935,-250.885 301.548,-243.516 291.001,-244.529 293.935,-250.885"/>
</g>
<!-- Node6 -->
<g id="node7" class="node"><title>Node6</title>
<g id="a_node7"><a xlink:href="ComponentType_8h.html" target="_top" xlink:title="ComponentType.h">
<polygon fill="white" stroke="black" points="310.5,-112.5 310.5,-131.5 407.5,-131.5 407.5,-112.5 310.5,-112.5"/>
<text text-anchor="middle" x="359" y="-119.5" font-family="Helvetica,sans-Serif" font-size="10.00">ComponentType.h</text>
</a>
</g>
</g>
<!-- Node1&#45;&gt;Node6 -->
<g id="edge20" class="edge"><title>Node1&#45;&gt;Node6</title>
<path fill="none" stroke="midnightblue" d="M194.249,-280.286C186.437,-271.84 175.549,-258.246 171,-244 160.726,-211.823 150.079,-194.519 171,-168 186.913,-147.829 251.04,-135.689 300.016,-129.189"/>
<polygon fill="midnightblue" stroke="midnightblue" points="300.739,-132.625 310.215,-127.887 299.852,-125.682 300.739,-132.625"/>
</g>
<!-- Node7 -->
<g id="node8" class="node"><title>Node7</title>
<g id="a_node8"><a xlink:href="GameObject_8h.html" target="_top" xlink:title="GameObject.h">
<polygon fill="white" stroke="black" points="452,-168.5 452,-187.5 532,-187.5 532,-168.5 452,-168.5"/>
<text text-anchor="middle" x="492" y="-175.5" font-family="Helvetica,sans-Serif" font-size="10.00">GameObject.h</text>
</a>
</g>
</g>
<!-- Node1&#45;&gt;Node7 -->
<g id="edge24" class="edge"><title>Node1&#45;&gt;Node7</title>
<path fill="none" stroke="midnightblue" d="M225.086,-284.431C256.868,-277.515 317.06,-263.141 366,-244 367.299,-243.492 429.953,-211.103 466.407,-192.244"/>
<polygon fill="midnightblue" stroke="midnightblue" points="468.217,-195.249 475.49,-187.545 465,-189.032 468.217,-195.249"/>
</g>
<!-- Node11 -->
<g id="node12" class="node"><title>Node11</title>
<g id="a_node12"><a xlink:href="Vec2_8h.html" target="_top" xlink:title="Vec2.h">
<polygon fill="white" stroke="black" points="572.5,-56.5 572.5,-75.5 619.5,-75.5 619.5,-56.5 572.5,-56.5"/>
<text text-anchor="middle" x="596" y="-63.5" font-family="Helvetica,sans-Serif" font-size="10.00">Vec2.h</text>
</a>
</g>
</g>
<!-- Node1&#45;&gt;Node11 -->
<g id="edge25" class="edge"><title>Node1&#45;&gt;Node11</title>
<path fill="none" stroke="midnightblue" d="M191.443,-280.446C181.44,-272.306 167.577,-259.086 161,-244 147.483,-212.994 137.903,-195.917 157,-168 195.771,-111.323 234.659,-129.729 301,-112 349.816,-98.9546 495.516,-79.6627 562.112,-71.2177"/>
<polygon fill="midnightblue" stroke="midnightblue" points="562.611,-74.6826 572.094,-69.9581 561.735,-67.7376 562.611,-74.6826"/>
</g>
<!-- Node13 -->
<g id="node14" class="node"><title>Node13</title>
<g id="a_node14"><a xlink:href="Error_8h.html" target="_top" xlink:title="Error.h">
<polygon fill="white" stroke="black" points="180,-224.5 180,-243.5 226,-243.5 226,-224.5 180,-224.5"/>
<text text-anchor="middle" x="203" y="-231.5" font-family="Helvetica,sans-Serif" font-size="10.00">Error.h</text>
</a>
</g>
</g>
<!-- Node1&#45;&gt;Node13 -->
<g id="edge21" class="edge"><title>Node1&#45;&gt;Node13</title>
<path fill="none" stroke="midnightblue" d="M203,-280.083C203,-273.006 203,-262.861 203,-253.986"/>
<polygon fill="midnightblue" stroke="midnightblue" points="206.5,-253.751 203,-243.751 199.5,-253.751 206.5,-253.751"/>
</g>
<!-- Node4&#45;&gt;Node2 -->
<g id="edge5" class="edge"><title>Node4&#45;&gt;Node2</title>
<path fill="none" stroke="midnightblue" d="M48.018,-58.7607C52.6348,-57.718 57.4491,-56.7374 62,-56 227.56,-29.1753 426.374,-17.3718 517.674,-13.0751"/>
<polygon fill="midnightblue" stroke="midnightblue" points="517.915,-16.5679 527.743,-12.6114 517.593,-9.57528 517.915,-16.5679"/>
</g>
<!-- Node5&#45;&gt;Node6 -->
<g id="edge7" class="edge"><title>Node5&#45;&gt;Node6</title>
<path fill="none" stroke="midnightblue" d="M323.06,-224.368C329.382,-206.537 344.004,-165.295 352.522,-141.272"/>
<polygon fill="midnightblue" stroke="midnightblue" points="355.911,-142.186 355.954,-131.591 349.313,-139.847 355.911,-142.186"/>
</g>
<!-- Node5&#45;&gt;Node7 -->
<g id="edge8" class="edge"><title>Node5&#45;&gt;Node7</title>
<path fill="none" stroke="midnightblue" d="M342.165,-224.444C369.46,-215.241 416.036,-200.562 450.102,-190.388"/>
<polygon fill="midnightblue" stroke="midnightblue" points="451.2,-193.713 459.794,-187.516 449.211,-187.001 451.2,-193.713"/>
</g>
<!-- Node7&#45;&gt;Node2 -->
<g id="edge9" class="edge"><title>Node7&#45;&gt;Node2</title>
<path fill="none" stroke="midnightblue" d="M481.562,-168.245C472.576,-159.969 460.254,-146.663 455,-132 449.697,-117.2 442.641,-75.3893 456,-56 470.085,-35.5571 495.119,-24.3979 517.952,-18.308"/>
<polygon fill="midnightblue" stroke="midnightblue" points="518.993,-21.6578 527.902,-15.9237 517.361,-14.8505 518.993,-21.6578"/>
</g>
<!-- Node7&#45;&gt;Node3 -->
<g id="edge12" class="edge"><title>Node7&#45;&gt;Node3</title>
<path fill="none" stroke="midnightblue" d="M501.158,-168.324C509.501,-160.42 522.032,-148.548 532.177,-138.938"/>
<polygon fill="midnightblue" stroke="midnightblue" points="534.823,-141.252 539.675,-131.834 530.009,-136.171 534.823,-141.252"/>
</g>
<!-- Node7&#45;&gt;Node5 -->
<g id="edge13" class="edge"><title>Node7&#45;&gt;Node5</title>
<path fill="none" stroke="midnightblue" d="M469.954,-187.516C442.715,-196.703 396.149,-211.381 362.047,-221.568"/>
<polygon fill="midnightblue" stroke="midnightblue" points="360.936,-218.246 352.343,-224.444 362.925,-224.958 360.936,-218.246"/>
</g>
<!-- Node7&#45;&gt;Node6 -->
<g id="edge14" class="edge"><title>Node7&#45;&gt;Node6</title>
<path fill="none" stroke="midnightblue" d="M470.926,-168.444C448.94,-159.517 414.266,-145.439 389.336,-135.317"/>
<polygon fill="midnightblue" stroke="midnightblue" points="390.558,-132.035 379.976,-131.516 387.924,-138.521 390.558,-132.035"/>
</g>
<!-- Node8 -->
<g id="node9" class="node"><title>Node8</title>
<polygon fill="white" stroke="#bfbfbf" points="626,-112.5 626,-131.5 670,-131.5 670,-112.5 626,-112.5"/>
<text text-anchor="middle" x="648" y="-119.5" font-family="Helvetica,sans-Serif" font-size="10.00">vector</text>
</g>
<!-- Node7&#45;&gt;Node8 -->
<g id="edge10" class="edge"><title>Node7&#45;&gt;Node8</title>
<path fill="none" stroke="midnightblue" d="M516.719,-168.444C543.617,-159.133 586.709,-144.216 616.131,-134.032"/>
<polygon fill="midnightblue" stroke="midnightblue" points="617.614,-137.222 625.919,-130.643 615.324,-130.607 617.614,-137.222"/>
</g>
<!-- Node9 -->
<g id="node10" class="node"><title>Node9</title>
<polygon fill="white" stroke="#bfbfbf" points="726,-112.5 726,-131.5 778,-131.5 778,-112.5 726,-112.5"/>
<text text-anchor="middle" x="752" y="-119.5" font-family="Helvetica,sans-Serif" font-size="10.00">memory</text>
</g>
<!-- Node7&#45;&gt;Node9 -->
<g id="edge11" class="edge"><title>Node7&#45;&gt;Node9</title>
<path fill="none" stroke="midnightblue" d="M532.055,-168.681C582.219,-158.262 667.429,-140.565 715.743,-130.53"/>
<polygon fill="midnightblue" stroke="midnightblue" points="716.675,-133.912 725.754,-128.451 715.251,-127.058 716.675,-133.912"/>
</g>
<!-- Node10 -->
<g id="node11" class="node"><title>Node10</title>
<g id="a_node11"><a xlink:href="Rect_8h.html" target="_top" xlink:title="Rect.h">
<polygon fill="white" stroke="black" points="464,-112.5 464,-131.5 510,-131.5 510,-112.5 464,-112.5"/>
<text text-anchor="middle" x="487" y="-119.5" font-family="Helvetica,sans-Serif" font-size="10.00">Rect.h</text>
</a>
</g>
</g>
<!-- Node7&#45;&gt;Node10 -->
<g id="edge15" class="edge"><title>Node7&#45;&gt;Node10</title>
<path fill="none" stroke="midnightblue" d="M491.174,-168.083C490.519,-161.006 489.58,-150.861 488.758,-141.986"/>
<polygon fill="midnightblue" stroke="midnightblue" points="492.217,-141.386 487.81,-131.751 485.247,-142.031 492.217,-141.386"/>
</g>
<!-- Node10&#45;&gt;Node2 -->
<g id="edge16" class="edge"><title>Node10&#45;&gt;Node2</title>
<path fill="none" stroke="midnightblue" d="M493.356,-112.368C506.782,-94.135 538.232,-51.4257 555.721,-27.6752"/>
<polygon fill="midnightblue" stroke="midnightblue" points="558.562,-29.7192 561.674,-19.5914 552.926,-25.5685 558.562,-29.7192"/>
</g>
<!-- Node10&#45;&gt;Node11 -->
<g id="edge17" class="edge"><title>Node10&#45;&gt;Node11</title>
<path fill="none" stroke="midnightblue" d="M504.513,-112.324C522.072,-103.625 549.331,-90.1202 569.531,-80.113"/>
<polygon fill="midnightblue" stroke="midnightblue" points="571.124,-83.23 578.531,-75.6545 568.016,-76.9575 571.124,-83.23"/>
</g>
<!-- Node12 -->
<g id="node13" class="node"><title>Node12</title>
<polygon fill="white" stroke="#bfbfbf" points="465,-56.5 465,-75.5 509,-75.5 509,-56.5 465,-56.5"/>
<text text-anchor="middle" x="487" y="-63.5" font-family="Helvetica,sans-Serif" font-size="10.00">cmath</text>
</g>
<!-- Node10&#45;&gt;Node12 -->
<g id="edge19" class="edge"><title>Node10&#45;&gt;Node12</title>
<path fill="none" stroke="midnightblue" d="M487,-112.083C487,-105.006 487,-94.8611 487,-85.9865"/>
<polygon fill="midnightblue" stroke="midnightblue" points="490.5,-85.751 487,-75.7511 483.5,-85.7511 490.5,-85.751"/>
</g>
<!-- Node11&#45;&gt;Node2 -->
<g id="edge18" class="edge"><title>Node11&#45;&gt;Node2</title>
<path fill="none" stroke="midnightblue" d="M591.376,-56.083C587.544,-48.6913 581.976,-37.9533 577.235,-28.8111"/>
<polygon fill="midnightblue" stroke="midnightblue" points="580.248,-27.0175 572.538,-19.7511 574.034,-30.2398 580.248,-27.0175"/>
</g>
<!-- Node14 -->
<g id="node15" class="node"><title>Node14</title>
<polygon fill="white" stroke="#bfbfbf" points="246,-168.5 246,-187.5 300,-187.5 300,-168.5 246,-168.5"/>
<text text-anchor="middle" x="273" y="-175.5" font-family="Helvetica,sans-Serif" font-size="10.00">iostream</text>
</g>
<!-- Node13&#45;&gt;Node14 -->
<g id="edge22" class="edge"><title>Node13&#45;&gt;Node14</title>
<path fill="none" stroke="midnightblue" d="M214.247,-224.324C224.797,-216.185 240.801,-203.839 253.442,-194.087"/>
<polygon fill="midnightblue" stroke="midnightblue" points="255.769,-196.713 261.549,-187.834 251.493,-191.171 255.769,-196.713"/>
</g>
<!-- Node15 -->
<g id="node16" class="node"><title>Node15</title>
<polygon fill="white" stroke="#bfbfbf" points="180,-168.5 180,-187.5 228,-187.5 228,-168.5 180,-168.5"/>
<text text-anchor="middle" x="204" y="-175.5" font-family="Helvetica,sans-Serif" font-size="10.00">stdlib.h</text>
</g>
<!-- Node13&#45;&gt;Node15 -->
<g id="edge23" class="edge"><title>Node13&#45;&gt;Node15</title>
<path fill="none" stroke="midnightblue" d="M203.165,-224.083C203.296,-217.006 203.484,-206.861 203.648,-197.986"/>
<polygon fill="midnightblue" stroke="midnightblue" points="207.152,-197.814 203.838,-187.751 200.153,-197.685 207.152,-197.814"/>
</g>
<!-- Node16&#45;&gt;Node2 -->
<g id="edge45" class="edge"><title>Node16&#45;&gt;Node2</title>
<path fill="none" stroke="midnightblue" d="M778.577,-286.155C856.553,-276.778 1086,-243.69 1086,-179 1086,-179 1086,-179 1086,-121 1086,-26.0056 748.452,-12.6978 618.321,-11.097"/>
<polygon fill="midnightblue" stroke="midnightblue" points="618.252,-7.59615 608.216,-10.9913 618.178,-14.5958 618.252,-7.59615"/>
</g>
<!-- Node16&#45;&gt;Node3 -->
<g id="edge27" class="edge"><title>Node16&#45;&gt;Node3</title>
<path fill="none" stroke="midnightblue" d="M740.207,-280.358C727.305,-271.527 706.927,-257.266 690,-244 643.723,-207.732 591.864,-161.769 565.833,-138.303"/>
<polygon fill="midnightblue" stroke="midnightblue" points="568.093,-135.627 558.329,-131.515 563.397,-140.819 568.093,-135.627"/>
</g>
<!-- Node16&#45;&gt;Node11 -->
<g id="edge44" class="edge"><title>Node16&#45;&gt;Node11</title>
<path fill="none" stroke="midnightblue" d="M746.292,-280.455C739.669,-271.7 729.6,-257.496 723,-244 695.83,-188.448 718.738,-159.383 679,-112 665.969,-96.4618 646.148,-85.4321 629.143,-78.1822"/>
<polygon fill="midnightblue" stroke="midnightblue" points="630.114,-74.8013 619.529,-74.3448 627.519,-81.3026 630.114,-74.8013"/>
</g>
<!-- Node17 -->
<g id="node18" class="node"><title>Node17</title>
<polygon fill="white" stroke="#bfbfbf" points="732.5,-224.5 732.5,-243.5 773.5,-243.5 773.5,-224.5 732.5,-224.5"/>
<text text-anchor="middle" x="753" y="-231.5" font-family="Helvetica,sans-Serif" font-size="10.00">stack</text>
</g>
<!-- Node16&#45;&gt;Node17 -->
<g id="edge28" class="edge"><title>Node16&#45;&gt;Node17</title>
<path fill="none" stroke="midnightblue" d="M753,-280.083C753,-273.006 753,-262.861 753,-253.986"/>
<polygon fill="midnightblue" stroke="midnightblue" points="756.5,-253.751 753,-243.751 749.5,-253.751 756.5,-253.751"/>
</g>
<!-- Node18 -->
<g id="node19" class="node"><title>Node18</title>
<g id="a_node19"><a xlink:href="State_8h.html" target="_top" xlink:title="State.h">
<polygon fill="white" stroke="black" points="792,-224.5 792,-243.5 840,-243.5 840,-224.5 792,-224.5"/>
<text text-anchor="middle" x="816" y="-231.5" font-family="Helvetica,sans-Serif" font-size="10.00">State.h</text>
</a>
</g>
</g>
<!-- Node16&#45;&gt;Node18 -->
<g id="edge29" class="edge"><title>Node16&#45;&gt;Node18</title>
<path fill="none" stroke="midnightblue" d="M763.122,-280.324C772.526,-272.263 786.744,-260.077 798.069,-250.369"/>
<polygon fill="midnightblue" stroke="midnightblue" points="800.379,-252.999 805.694,-243.834 795.823,-247.684 800.379,-252.999"/>
</g>
<!-- Node19 -->
<g id="node20" class="node"><title>Node19</title>
<g id="a_node20"><a xlink:href="InputManager_8h.html" target="_top" xlink:title="InputManager.h">
<polygon fill="white" stroke="black" points="894,-168.5 894,-187.5 978,-187.5 978,-168.5 894,-168.5"/>
<text text-anchor="middle" x="936" y="-175.5" font-family="Helvetica,sans-Serif" font-size="10.00">InputManager.h</text>
</a>
</g>
</g>
<!-- Node16&#45;&gt;Node19 -->
<g id="edge43" class="edge"><title>Node16&#45;&gt;Node19</title>
<path fill="none" stroke="midnightblue" d="M774.611,-280.363C794.498,-272.071 824.529,-258.669 849,-244 874.201,-228.894 900.959,-208.093 918.04,-194.128"/>
<polygon fill="midnightblue" stroke="midnightblue" points="920.558,-196.587 926.031,-187.515 916.095,-191.194 920.558,-196.587"/>
</g>
<!-- Node18&#45;&gt;Node7 -->
<g id="edge42" class="edge"><title>Node18&#45;&gt;Node7</title>
<path fill="none" stroke="midnightblue" d="M791.928,-226.294C788.606,-225.467 785.227,-224.676 782,-224 698.497,-206.52 600.159,-192.654 542.119,-185.153"/>
<polygon fill="midnightblue" stroke="midnightblue" points="542.476,-181.671 532.112,-183.872 541.587,-188.614 542.476,-181.671"/>
</g>
<!-- Node18&#45;&gt;Node8 -->
<g id="edge30" class="edge"><title>Node18&#45;&gt;Node8</title>
<path fill="none" stroke="midnightblue" d="M802.817,-224.368C773.988,-205.492 705.097,-160.385 669.743,-137.237"/>
<polygon fill="midnightblue" stroke="midnightblue" points="671.405,-134.141 661.121,-131.591 667.57,-139.997 671.405,-134.141"/>
</g>
<!-- Node18&#45;&gt;Node9 -->
<g id="edge31" class="edge"><title>Node18&#45;&gt;Node9</title>
<path fill="none" stroke="midnightblue" d="M804.392,-224.233C794.196,-215.949 779.673,-202.638 771,-188 762.479,-173.618 757.562,-155.16 754.874,-141.591"/>
<polygon fill="midnightblue" stroke="midnightblue" points="758.286,-140.784 753.111,-131.539 751.391,-141.994 758.286,-140.784"/>
</g>
<!-- Node18&#45;&gt;Node19 -->
<g id="edge32" class="edge"><title>Node18&#45;&gt;Node19</title>
<path fill="none" stroke="midnightblue" d="M835.014,-224.444C854.588,-215.636 885.308,-201.812 907.729,-191.722"/>
<polygon fill="midnightblue" stroke="midnightblue" points="909.392,-194.812 917.075,-187.516 906.519,-188.428 909.392,-194.812"/>
</g>
<!-- Node18&#45;&gt;Node22 -->
<g id="edge37" class="edge"><title>Node18&#45;&gt;Node22</title>
<path fill="none" stroke="midnightblue" d="M816,-224.083C816,-217.006 816,-206.861 816,-197.986"/>
<polygon fill="midnightblue" stroke="midnightblue" points="819.5,-197.751 816,-187.751 812.5,-197.751 819.5,-197.751"/>
</g>
<!-- Node19&#45;&gt;Node2 -->
<g id="edge33" class="edge"><title>Node19&#45;&gt;Node2</title>
<path fill="none" stroke="midnightblue" d="M940.963,-168.422C948.028,-154.954 958.789,-128.667 946,-112 906.093,-59.9921 711.485,-28.9938 618.139,-16.8886"/>
<polygon fill="midnightblue" stroke="midnightblue" points="618.444,-13.3992 608.082,-15.6068 617.559,-20.343 618.444,-13.3992"/>
</g>
<!-- Node19&#45;&gt;Node11 -->
<g id="edge34" class="edge"><title>Node19&#45;&gt;Node11</title>
<path fill="none" stroke="midnightblue" d="M937.714,-168.435C939.955,-154.497 942.002,-126.965 927,-112 885.812,-70.9131 705.877,-66.5877 629.972,-66.6386"/>
<polygon fill="midnightblue" stroke="midnightblue" points="629.544,-63.14 619.556,-66.674 629.568,-70.1399 629.544,-63.14"/>
</g>
<!-- Node20 -->
<g id="node21" class="node"><title>Node20</title>
<polygon fill="white" stroke="#bfbfbf" points="834.5,-112.5 834.5,-131.5 917.5,-131.5 917.5,-112.5 834.5,-112.5"/>
<text text-anchor="middle" x="876" y="-119.5" font-family="Helvetica,sans-Serif" font-size="10.00">unordered_map</text>
</g>
<!-- Node19&#45;&gt;Node20 -->
<g id="edge35" class="edge"><title>Node19&#45;&gt;Node20</title>
<path fill="none" stroke="midnightblue" d="M926.36,-168.324C917.49,-160.341 904.125,-148.313 893.392,-138.653"/>
<polygon fill="midnightblue" stroke="midnightblue" points="895.59,-135.922 885.815,-131.834 890.907,-141.125 895.59,-135.922"/>
</g>
<!-- Node21 -->
<g id="node22" class="node"><title>Node21</title>
<polygon fill="white" stroke="#bfbfbf" points="1012,-112.5 1012,-131.5 1058,-131.5 1058,-112.5 1012,-112.5"/>
<text text-anchor="middle" x="1035" y="-119.5" font-family="Helvetica,sans-Serif" font-size="10.00">cstdint</text>
</g>
<!-- Node19&#45;&gt;Node21 -->
<g id="edge36" class="edge"><title>Node19&#45;&gt;Node21</title>
<path fill="none" stroke="midnightblue" d="M951.906,-168.324C967.638,-159.743 991.942,-146.486 1010.21,-136.522"/>
<polygon fill="midnightblue" stroke="midnightblue" points="1012.03,-139.516 1019.13,-131.655 1008.68,-133.37 1012.03,-139.516"/>
</g>
<!-- Node22&#45;&gt;Node2 -->
<g id="edge38" class="edge"><title>Node22&#45;&gt;Node2</title>
<path fill="none" stroke="midnightblue" d="M814.2,-168.306C810.968,-154.679 802.977,-128.177 787,-112 739.245,-63.6454 664.005,-36.0052 615.333,-22.2511"/>
<polygon fill="midnightblue" stroke="midnightblue" points="616.239,-18.8703 605.669,-19.6038 614.389,-25.6216 616.239,-18.8703"/>
</g>
<!-- Node22&#45;&gt;Node3 -->
<g id="edge39" class="edge"><title>Node22&#45;&gt;Node3</title>
<path fill="none" stroke="midnightblue" d="M779.991,-169.717C727.101,-159.02 629.321,-139.245 579.662,-129.201"/>
<polygon fill="midnightblue" stroke="midnightblue" points="580.325,-125.765 569.829,-127.213 578.937,-132.626 580.325,-125.765"/>
</g>
<!-- Node22&#45;&gt;Node9 -->
<g id="edge41" class="edge"><title>Node22&#45;&gt;Node9</title>
<path fill="none" stroke="midnightblue" d="M805.717,-168.324C796.164,-160.263 781.72,-148.077 770.216,-138.369"/>
<polygon fill="midnightblue" stroke="midnightblue" points="772.37,-135.608 762.47,-131.834 767.856,-140.958 772.37,-135.608"/>
</g>
<!-- Node22&#45;&gt;Node20 -->
<g id="edge40" class="edge"><title>Node22&#45;&gt;Node20</title>
<path fill="none" stroke="midnightblue" d="M825.64,-168.324C834.51,-160.341 847.875,-148.313 858.608,-138.653"/>
<polygon fill="midnightblue" stroke="midnightblue" points="861.093,-141.125 866.185,-131.834 856.41,-135.922 861.093,-141.125"/>
</g>
<!-- Node23&#45;&gt;Node5 -->
<g id="edge48" class="edge"><title>Node23&#45;&gt;Node5</title>
<path fill="none" stroke="midnightblue" d="M489.992,-280.444C455.271,-271.162 399.712,-256.309 361.623,-246.127"/>
<polygon fill="midnightblue" stroke="midnightblue" points="362.422,-242.718 351.858,-243.516 360.615,-249.48 362.422,-242.718"/>
</g>
<!-- Node23&#45;&gt;Node6 -->
<g id="edge49" class="edge"><title>Node23&#45;&gt;Node6</title>
<path fill="none" stroke="midnightblue" d="M514.693,-280.399C503.888,-267.777 482.886,-243.607 464,-224 433.947,-192.801 397.111,-158.142 376.018,-138.616"/>
<polygon fill="midnightblue" stroke="midnightblue" points="378.226,-135.892 368.503,-131.684 373.48,-141.037 378.226,-135.892"/>
</g>
<!-- Node23&#45;&gt;Node7 -->
<g id="edge50" class="edge"><title>Node23&#45;&gt;Node7</title>
<path fill="none" stroke="midnightblue" d="M519.646,-280.368C514.783,-262.537 503.535,-221.295 496.983,-197.272"/>
<polygon fill="midnightblue" stroke="midnightblue" points="500.351,-196.318 494.343,-187.591 493.598,-198.16 500.351,-196.318"/>
</g>
<!-- Node23&#45;&gt;Node10 -->
<g id="edge51" class="edge"><title>Node23&#45;&gt;Node10</title>
<path fill="none" stroke="midnightblue" d="M526.612,-280.312C536.856,-259.747 559.219,-206.899 541,-168 534.955,-155.094 523.188,-144.599 512.177,-137"/>
<polygon fill="midnightblue" stroke="midnightblue" points="513.943,-133.975 503.633,-131.536 510.172,-139.872 513.943,-133.975"/>
</g>
<!-- Node23&#45;&gt;Node11 -->
<g id="edge52" class="edge"><title>Node23&#45;&gt;Node11</title>
<path fill="none" stroke="midnightblue" d="M531.125,-280.22C539.404,-271.726 551.308,-258.1 558,-244 583.555,-190.153 592.101,-118.954 594.815,-85.6594"/>
<polygon fill="midnightblue" stroke="midnightblue" points="598.315,-85.7818 595.55,-75.5542 591.334,-85.274 598.315,-85.7818"/>
</g>
<!-- Node24 -->
<g id="node25" class="node"><title>Node24</title>
<polygon fill="white" stroke="#bfbfbf" points="414.5,-224.5 414.5,-243.5 455.5,-243.5 455.5,-224.5 414.5,-224.5"/>
<text text-anchor="middle" x="435" y="-231.5" font-family="Helvetica,sans-Serif" font-size="10.00">cfloat</text>
</g>
<!-- Node23&#45;&gt;Node24 -->
<g id="edge47" class="edge"><title>Node23&#45;&gt;Node24</title>
<path fill="none" stroke="midnightblue" d="M508.022,-280.324C494.45,-271.9 473.62,-258.971 457.675,-249.074"/>
<polygon fill="midnightblue" stroke="midnightblue" points="459.286,-245.954 448.943,-243.655 455.594,-251.902 459.286,-245.954"/>
</g>
</g>
</svg>
