<?xml version="1.0" encoding="UTF-8" standalone="no"?>
<!DOCTYPE svg PUBLIC "-//W3C//DTD SVG 1.1//EN"
 "http://www.w3.org/Graphics/SVG/1.1/DTD/svg11.dtd">
<!-- Generated by graphviz version 2.40.1 (20161225.0304)
 -->
<!-- Title: include/Threading.h Pages: 1 -->
<svg width="780pt" height="308pt"
 viewBox="0.00 0.00 780.00 308.00" xmlns="http://www.w3.org/2000/svg" xmlns:xlink="http://www.w3.org/1999/xlink">
<g id="graph0" class="graph" transform="scale(1 1) rotate(0) translate(4 304)">
<title>include/Threading.h</title>
<polygon fill="#ffffff" stroke="transparent" points="-4,4 -4,-304 776,-304 776,4 -4,4"/>
<!-- Node0 -->
<g id="node1" class="node">
<title>Node0</title>
<polygon fill="#bfbfbf" stroke="#000000" points="86.5,-280.5 86.5,-299.5 187.5,-299.5 187.5,-280.5 86.5,-280.5"/>
<text text-anchor="middle" x="137" y="-287.5" font-family="Helvetica,sans-Serif" font-size="10.00" fill="#000000">include/Threading.h</text>
</g>
<!-- Node1 -->
<g id="node2" class="node">
<title>Node1</title>
<polygon fill="#ffffff" stroke="#bfbfbf" points="0,-224.5 0,-243.5 44,-243.5 44,-224.5 0,-224.5"/>
<text text-anchor="middle" x="22" y="-231.5" font-family="Helvetica,sans-Serif" font-size="10.00" fill="#000000">thread</text>
</g>
<!-- Node0&#45;&gt;Node1 -->
<g id="edge1" class="edge">
<title>Node0&#45;&gt;Node1</title>
<path fill="none" stroke="#191970" d="M117.2308,-280.3733C98.8531,-271.4241 71.2688,-257.9917 50.5107,-247.8835"/>
<polygon fill="#191970" stroke="#191970" points="52.0343,-244.7325 41.5112,-243.5011 48.9696,-251.026 52.0343,-244.7325"/>
</g>
<!-- Node2 -->
<g id="node3" class="node">
<title>Node2</title>
<polygon fill="#ffffff" stroke="#bfbfbf" points="43.5,-168.5 43.5,-187.5 100.5,-187.5 100.5,-168.5 43.5,-168.5"/>
<text text-anchor="middle" x="72" y="-175.5" font-family="Helvetica,sans-Serif" font-size="10.00" fill="#000000">pthread.h</text>
</g>
<!-- Node0&#45;&gt;Node2 -->
<g id="edge2" class="edge">
<title>Node0&#45;&gt;Node2</title>
<path fill="none" stroke="#191970" d="M124.2977,-280.3768C113.9196,-271.8772 99.6059,-258.5924 91,-244 82.5768,-229.7174 77.6983,-211.4765 74.9989,-197.7922"/>
<polygon fill="#191970" stroke="#191970" points="78.3799,-196.8061 73.214,-187.556 71.4839,-198.0086 78.3799,-196.8061"/>
</g>
<!-- Node3 -->
<g id="node4" class="node">
<title>Node3</title>
<polygon fill="#ffffff" stroke="#bfbfbf" points="118.5,-168.5 118.5,-187.5 191.5,-187.5 191.5,-168.5 118.5,-168.5"/>
<text text-anchor="middle" x="155" y="-175.5" font-family="Helvetica,sans-Serif" font-size="10.00" fill="#000000">semaphore.h</text>
</g>
<!-- Node0&#45;&gt;Node3 -->
<g id="edge3" class="edge">
<title>Node0&#45;&gt;Node3</title>
<path fill="none" stroke="#191970" d="M151.3737,-280.1853C162.0705,-271.9414 175.8409,-259.1035 182,-244 188.6089,-227.7934 179.684,-209.3585 170.3667,-196.099"/>
<polygon fill="#191970" stroke="#191970" points="172.8985,-193.6485 164.0396,-187.8372 167.341,-197.9046 172.8985,-193.6485"/>
</g>
<!-- Node4 -->
<g id="node5" class="node">
<title>Node4</title>
<g id="a_node5"><a xlink:href="FowardList_8h.html" target="_top" xlink:title="FowardList.h">
<polygon fill="#ffffff" stroke="#000000" points="100.5,-224.5 100.5,-243.5 173.5,-243.5 173.5,-224.5 100.5,-224.5"/>
<text text-anchor="middle" x="137" y="-231.5" font-family="Helvetica,sans-Serif" font-size="10.00" fill="#000000">FowardList.h</text>
</a>
</g>
</g>
<!-- Node0&#45;&gt;Node4 -->
<g id="edge4" class="edge">
<title>Node0&#45;&gt;Node4</title>
<path fill="none" stroke="#191970" d="M137,-280.2455C137,-272.9382 137,-262.6944 137,-253.7046"/>
<polygon fill="#191970" stroke="#191970" points="140.5001,-253.6426 137,-243.6427 133.5001,-253.6427 140.5001,-253.6426"/>
</g>
<!-- Node5 -->
<g id="node6" class="node">
<title>Node5</title>
<g id="a_node6"><a xlink:href="State_8h.html" target="_top" xlink:title="State.h">
<polygon fill="#ffffff" stroke="#000000" points="420,-224.5 420,-243.5 468,-243.5 468,-224.5 420,-224.5"/>
<text text-anchor="middle" x="444" y="-231.5" font-family="Helvetica,sans-Serif" font-size="10.00" fill="#000000">State.h</text>
</a>
</g>
</g>
<!-- Node0&#45;&gt;Node5 -->
<g id="edge7" class="edge">
<title>Node0&#45;&gt;Node5</title>
<path fill="none" stroke="#191970" d="M187.6948,-280.7527C250.4419,-269.307 355.6055,-250.1241 409.647,-240.2663"/>
<polygon fill="#191970" stroke="#191970" points="410.5364,-243.6619 419.746,-238.4242 409.2802,-236.7756 410.5364,-243.6619"/>
</g>
<!-- Node4&#45;&gt;Node2 -->
<g id="edge5" class="edge">
<title>Node4&#45;&gt;Node2</title>
<path fill="none" stroke="#191970" d="M125.6779,-224.2455C116.0777,-215.9746 102.1108,-203.9416 90.8305,-194.2232"/>
<polygon fill="#191970" stroke="#191970" points="93.053,-191.5182 83.1924,-187.6427 88.484,-196.8214 93.053,-191.5182"/>
</g>
<!-- Node4&#45;&gt;Node3 -->
<g id="edge6" class="edge">
<title>Node4&#45;&gt;Node3</title>
<path fill="none" stroke="#191970" d="M140.1354,-224.2455C142.51,-216.8579 145.8493,-206.4689 148.7615,-197.4087"/>
<polygon fill="#191970" stroke="#191970" points="152.1725,-198.234 151.9006,-187.6427 145.5083,-196.0919 152.1725,-198.234"/>
</g>
<!-- Node6 -->
<g id="node7" class="node">
<title>Node6</title>
<polygon fill="#ffffff" stroke="#bfbfbf" points="728,-112.5 728,-131.5 772,-131.5 772,-112.5 728,-112.5"/>
<text text-anchor="middle" x="750" y="-119.5" font-family="Helvetica,sans-Serif" font-size="10.00" fill="#000000">vector</text>
</g>
<!-- Node5&#45;&gt;Node6 -->
<g id="edge8" class="edge">
<title>Node5&#45;&gt;Node6</title>
<path fill="none" stroke="#191970" d="M468.1251,-229.263C502.1709,-222.2119 565.9678,-207.6475 618,-188 656.4264,-173.4901 698.4901,-151.2709 724.5666,-136.688"/>
<polygon fill="#191970" stroke="#191970" points="726.4292,-139.6557 733.414,-131.6893 722.9859,-133.5611 726.4292,-139.6557"/>
</g>
<!-- Node7 -->
<g id="node8" class="node">
<title>Node7</title>
<polygon fill="#ffffff" stroke="#bfbfbf" points="451,-112.5 451,-131.5 503,-131.5 503,-112.5 451,-112.5"/>
<text text-anchor="middle" x="477" y="-119.5" font-family="Helvetica,sans-Serif" font-size="10.00" fill="#000000">memory</text>
</g>
<!-- Node5&#45;&gt;Node7 -->
<g id="edge9" class="edge">
<title>Node5&#45;&gt;Node7</title>
<path fill="none" stroke="#191970" d="M446.8136,-224.4509C452.2202,-206.1013 464.1563,-165.5908 471.293,-141.3693"/>
<polygon fill="#191970" stroke="#191970" points="474.7245,-142.1064 474.1936,-131.5249 468.0099,-140.128 474.7245,-142.1064"/>
</g>
<!-- Node8 -->
<g id="node9" class="node">
<title>Node8</title>
<g id="a_node9"><a xlink:href="InputManager_8h.html" target="_top" xlink:title="InputManager.h">
<polygon fill="#ffffff" stroke="#000000" points="210,-168.5 210,-187.5 294,-187.5 294,-168.5 210,-168.5"/>
<text text-anchor="middle" x="252" y="-175.5" font-family="Helvetica,sans-Serif" font-size="10.00" fill="#000000">InputManager.h</text>
</a>
</g>
</g>
<!-- Node5&#45;&gt;Node8 -->
<g id="edge10" class="edge">
<title>Node5&#45;&gt;Node8</title>
<path fill="none" stroke="#191970" d="M419.6831,-226.9076C388.2816,-217.7488 333.1067,-201.6561 294.6574,-190.4417"/>
<polygon fill="#191970" stroke="#191970" points="295.3593,-187.0007 284.7793,-187.5606 293.3993,-193.7207 295.3593,-187.0007"/>
</g>
<!-- Node15 -->
<g id="node16" class="node">
<title>Node15</title>
<g id="a_node16"><a xlink:href="Resources_8h.html" target="_top" xlink:title="Resources.h">
<polygon fill="#ffffff" stroke="#000000" points="376,-168.5 376,-187.5 448,-187.5 448,-168.5 376,-168.5"/>
<text text-anchor="middle" x="412" y="-175.5" font-family="Helvetica,sans-Serif" font-size="10.00" fill="#000000">Resources.h</text>
</a>
</g>
</g>
<!-- Node5&#45;&gt;Node15 -->
<g id="edge20" class="edge">
<title>Node5&#45;&gt;Node15</title>
<path fill="none" stroke="#191970" d="M438.426,-224.2455C434.0669,-216.617 427.8789,-205.7881 422.5867,-196.5267"/>
<polygon fill="#191970" stroke="#191970" points="425.5104,-194.5886 417.5101,-187.6427 419.4327,-198.0616 425.5104,-194.5886"/>
</g>
<!-- Node17 -->
<g id="node18" class="node">
<title>Node17</title>
<g id="a_node18"><a xlink:href="GameObject_8h.html" target="_top" xlink:title="GameObject.h">
<polygon fill="#ffffff" stroke="#000000" points="529,-168.5 529,-187.5 609,-187.5 609,-168.5 529,-168.5"/>
<text text-anchor="middle" x="569" y="-175.5" font-family="Helvetica,sans-Serif" font-size="10.00" fill="#000000">GameObject.h</text>
</a>
</g>
</g>
<!-- Node5&#45;&gt;Node17 -->
<g id="edge25" class="edge">
<title>Node5&#45;&gt;Node17</title>
<path fill="none" stroke="#191970" d="M465.4883,-224.3733C485.644,-215.3435 515.988,-201.7494 538.618,-191.6111"/>
<polygon fill="#191970" stroke="#191970" points="540.0971,-194.7838 547.7921,-187.5011 537.2351,-188.3955 540.0971,-194.7838"/>
</g>
<!-- Node9 -->
<g id="node10" class="node">
<title>Node9</title>
<g id="a_node10"><a xlink:href="SDL__include_8h.html" target="_top" xlink:title="SDL_include.h">
<polygon fill="#ffffff" stroke="#000000" points="243,-.5 243,-19.5 323,-19.5 323,-.5 243,-.5"/>
<text text-anchor="middle" x="283" y="-7.5" font-family="Helvetica,sans-Serif" font-size="10.00" fill="#000000">SDL_include.h</text>
</a>
</g>
</g>
<!-- Node8&#45;&gt;Node9 -->
<g id="edge11" class="edge">
<title>Node8&#45;&gt;Node9</title>
<path fill="none" stroke="#191970" d="M209.9037,-169.7051C173.3723,-161.5507 124.5731,-148.0204 113,-132 107.7948,-124.7946 109.2959,-120.0804 113,-112 135.108,-63.7717 192.2258,-36.6419 234.1781,-22.6881"/>
<polygon fill="#191970" stroke="#191970" points="235.4797,-25.947 243.9496,-19.582 233.3592,-19.2759 235.4797,-25.947"/>
</g>
<!-- Node10 -->
<g id="node11" class="node">
<title>Node10</title>
<g id="a_node11"><a xlink:href="Vec2_8h.html" target="_top" xlink:title="Vec2.h">
<polygon fill="#ffffff" stroke="#000000" points="186.5,-112.5 186.5,-131.5 233.5,-131.5 233.5,-112.5 186.5,-112.5"/>
<text text-anchor="middle" x="210" y="-119.5" font-family="Helvetica,sans-Serif" font-size="10.00" fill="#000000">Vec2.h</text>
</a>
</g>
</g>
<!-- Node8&#45;&gt;Node10 -->
<g id="edge12" class="edge">
<title>Node8&#45;&gt;Node10</title>
<path fill="none" stroke="#191970" d="M244.6842,-168.2455C238.7821,-160.3761 230.3258,-149.101 223.2406,-139.6542"/>
<polygon fill="#191970" stroke="#191970" points="226.0321,-137.5427 217.232,-131.6427 220.432,-141.7427 226.0321,-137.5427"/>
</g>
<!-- Node13 -->
<g id="node14" class="node">
<title>Node13</title>
<polygon fill="#ffffff" stroke="#bfbfbf" points="251.5,-112.5 251.5,-131.5 334.5,-131.5 334.5,-112.5 251.5,-112.5"/>
<text text-anchor="middle" x="293" y="-119.5" font-family="Helvetica,sans-Serif" font-size="10.00" fill="#000000">unordered_map</text>
</g>
<!-- Node8&#45;&gt;Node13 -->
<g id="edge18" class="edge">
<title>Node8&#45;&gt;Node13</title>
<path fill="none" stroke="#191970" d="M259.1417,-168.2455C264.8444,-160.4564 272.99,-149.3308 279.8625,-139.9439"/>
<polygon fill="#191970" stroke="#191970" points="282.8568,-141.7789 285.9402,-131.6427 277.2087,-137.6437 282.8568,-141.7789"/>
</g>
<!-- Node14 -->
<g id="node15" class="node">
<title>Node14</title>
<polygon fill="#ffffff" stroke="#bfbfbf" points="122,-112.5 122,-131.5 168,-131.5 168,-112.5 122,-112.5"/>
<text text-anchor="middle" x="145" y="-119.5" font-family="Helvetica,sans-Serif" font-size="10.00" fill="#000000">cstdint</text>
</g>
<!-- Node8&#45;&gt;Node14 -->
<g id="edge19" class="edge">
<title>Node8&#45;&gt;Node14</title>
<path fill="none" stroke="#191970" d="M233.362,-168.2455C216.5614,-159.4527 191.6366,-146.4079 172.5382,-136.4125"/>
<polygon fill="#191970" stroke="#191970" points="173.9073,-133.1787 163.4244,-131.6427 170.6614,-139.3807 173.9073,-133.1787"/>
</g>
<!-- Node10&#45;&gt;Node9 -->
<g id="edge13" class="edge">
<title>Node10&#45;&gt;Node9</title>
<path fill="none" stroke="#191970" d="M217.0159,-112.2305C223.6013,-102.9871 233.6597,-88.6791 242,-76 252.3796,-60.2207 263.6699,-41.9588 271.7698,-28.6501"/>
<polygon fill="#191970" stroke="#191970" points="274.8578,-30.3076 277.0453,-19.941 268.8706,-26.6808 274.8578,-30.3076"/>
</g>
<!-- Node11 -->
<g id="node12" class="node">
<title>Node11</title>
<g id="a_node12"><a xlink:href="Rect_8h.html" target="_top" xlink:title="Rect.h">
<polygon fill="#ffffff" stroke="#000000" points="187,-56.5 187,-75.5 233,-75.5 233,-56.5 187,-56.5"/>
<text text-anchor="middle" x="210" y="-63.5" font-family="Helvetica,sans-Serif" font-size="10.00" fill="#000000">Rect.h</text>
</a>
</g>
</g>
<!-- Node10&#45;&gt;Node11 -->
<g id="edge14" class="edge">
<title>Node10&#45;&gt;Node11</title>
<path fill="none" stroke="#191970" d="M204.7332,-112.2455C203.3221,-104.9382 202.9179,-94.6944 203.5205,-85.7046"/>
<polygon fill="#191970" stroke="#191970" points="207.0111,-85.9945 204.7549,-75.6427 200.0632,-85.1421 207.0111,-85.9945"/>
</g>
<!-- Node11&#45;&gt;Node9 -->
<g id="edge15" class="edge">
<title>Node11&#45;&gt;Node9</title>
<path fill="none" stroke="#191970" d="M222.7156,-56.2455C233.602,-47.8943 249.4883,-35.7076 262.22,-25.9408"/>
<polygon fill="#191970" stroke="#191970" points="264.6261,-28.5063 270.4301,-19.6427 260.3654,-22.9523 264.6261,-28.5063"/>
</g>
<!-- Node11&#45;&gt;Node10 -->
<g id="edge16" class="edge">
<title>Node11&#45;&gt;Node10</title>
<path fill="none" stroke="#191970" d="M215.2451,-75.6427C216.6665,-82.9199 217.081,-93.155 216.4887,-102.1575"/>
<polygon fill="#191970" stroke="#191970" points="212.9947,-101.8972 215.2668,-112.2455 219.9439,-102.739 212.9947,-101.8972"/>
</g>
<!-- Node12 -->
<g id="node13" class="node">
<title>Node12</title>
<polygon fill="#ffffff" stroke="#bfbfbf" points="181,-.5 181,-19.5 225,-19.5 225,-.5 181,-.5"/>
<text text-anchor="middle" x="203" y="-7.5" font-family="Helvetica,sans-Serif" font-size="10.00" fill="#000000">cmath</text>
</g>
<!-- Node11&#45;&gt;Node12 -->
<g id="edge17" class="edge">
<title>Node11&#45;&gt;Node12</title>
<path fill="none" stroke="#191970" d="M208.7807,-56.2455C207.8673,-48.9382 206.5868,-38.6944 205.4631,-29.7046"/>
<polygon fill="#191970" stroke="#191970" points="208.9187,-29.1313 204.2053,-19.6427 201.9728,-29.9996 208.9187,-29.1313"/>
</g>
<!-- Node15&#45;&gt;Node7 -->
<g id="edge24" class="edge">
<title>Node15&#45;&gt;Node7</title>
<path fill="none" stroke="#191970" d="M423.3221,-168.2455C432.9223,-159.9746 446.8892,-147.9416 458.1695,-138.2232"/>
<polygon fill="#191970" stroke="#191970" points="460.516,-140.8214 465.8076,-131.6427 455.947,-135.5182 460.516,-140.8214"/>
</g>
<!-- Node15&#45;&gt;Node9 -->
<g id="edge21" class="edge">
<title>Node15&#45;&gt;Node9</title>
<path fill="none" stroke="#191970" d="M404.6948,-168.4862C383.8615,-141.3545 323.9112,-63.2798 296.7121,-27.8576"/>
<polygon fill="#191970" stroke="#191970" points="299.4127,-25.6278 290.5464,-19.8279 293.8607,-29.891 299.4127,-25.6278"/>
</g>
<!-- Node15&#45;&gt;Node13 -->
<g id="edge23" class="edge">
<title>Node15&#45;&gt;Node13</title>
<path fill="none" stroke="#191970" d="M391.5432,-168.3733C372.5262,-159.4241 343.9825,-145.9917 322.5024,-135.8835"/>
<polygon fill="#191970" stroke="#191970" points="323.7284,-132.5923 313.1899,-131.5011 320.7478,-138.926 323.7284,-132.5923"/>
</g>
<!-- Node16 -->
<g id="node17" class="node">
<title>Node16</title>
<polygon fill="#ffffff" stroke="#bfbfbf" points="391.5,-112.5 391.5,-131.5 432.5,-131.5 432.5,-112.5 391.5,-112.5"/>
<text text-anchor="middle" x="412" y="-119.5" font-family="Helvetica,sans-Serif" font-size="10.00" fill="#000000">string</text>
</g>
<!-- Node15&#45;&gt;Node16 -->
<g id="edge22" class="edge">
<title>Node15&#45;&gt;Node16</title>
<path fill="none" stroke="#191970" d="M412,-168.2455C412,-160.9382 412,-150.6944 412,-141.7046"/>
<polygon fill="#191970" stroke="#191970" points="415.5001,-141.6426 412,-131.6427 408.5001,-141.6427 415.5001,-141.6426"/>
</g>
<!-- Node17&#45;&gt;Node6 -->
<g id="edge27" class="edge">
<title>Node17&#45;&gt;Node6</title>
<path fill="none" stroke="#191970" d="M601.1829,-168.4605C629.7717,-159.9281 672.9265,-146.9066 718.0798,-132.5696"/>
<polygon fill="#191970" stroke="#191970" points="719.2753,-135.8621 727.7408,-129.4914 717.1502,-129.1925 719.2753,-135.8621"/>
</g>
<!-- Node17&#45;&gt;Node7 -->
<g id="edge28" class="edge">
<title>Node17&#45;&gt;Node7</title>
<path fill="none" stroke="#191970" d="M552.9748,-168.2455C538.8592,-159.6534 518.0737,-147.0014 501.8101,-137.1018"/>
<polygon fill="#191970" stroke="#191970" points="503.2034,-133.8525 492.8415,-131.6427 499.5637,-139.8319 503.2034,-133.8525"/>
</g>
<!-- Node17&#45;&gt;Node9 -->
<g id="edge26" class="edge">
<title>Node17&#45;&gt;Node9</title>
<path fill="none" stroke="#191970" d="M566.9729,-168.1371C563.5665,-153.9129 555.3957,-127.6353 539,-112 481.1451,-56.8282 389.7464,-30.2232 333.2438,-18.3985"/>
<polygon fill="#191970" stroke="#191970" points="333.6098,-14.902 323.1156,-16.359 332.2279,-21.7642 333.6098,-14.902"/>
</g>
<!-- Node17&#45;&gt;Node11 -->
<g id="edge34" class="edge">
<title>Node17&#45;&gt;Node11</title>
<path fill="none" stroke="#191970" d="M563.796,-168.4717C555.1618,-153.6742 536.3831,-125.4728 512,-112 466.2846,-86.74 312.1443,-73.1195 243.4819,-68.1807"/>
<polygon fill="#191970" stroke="#191970" points="243.4458,-64.6697 233.2256,-67.4621 242.9565,-71.6525 243.4458,-64.6697"/>
</g>
<!-- Node17&#45;&gt;Node16 -->
<g id="edge29" class="edge">
<title>Node17&#45;&gt;Node16</title>
<path fill="none" stroke="#191970" d="M542.0107,-168.3733C514.2478,-158.4706 471.0947,-143.0784 442.2085,-132.775"/>
<polygon fill="#191970" stroke="#191970" points="443.2293,-129.4232 432.6347,-129.3601 440.8776,-136.0163 443.2293,-129.4232"/>
</g>
<!-- Node18 -->
<g id="node19" class="node">
<title>Node18</title>
<g id="a_node19"><a xlink:href="Component_8h.html" target="_top" xlink:title="Component.h">
<polygon fill="#ffffff" stroke="#000000" points="635.5,-112.5 635.5,-131.5 710.5,-131.5 710.5,-112.5 635.5,-112.5"/>
<text text-anchor="middle" x="673" y="-119.5" font-family="Helvetica,sans-Serif" font-size="10.00" fill="#000000">Component.h</text>
</a>
</g>
</g>
<!-- Node17&#45;&gt;Node18 -->
<g id="edge30" class="edge">
<title>Node17&#45;&gt;Node18</title>
<path fill="none" stroke="#191970" d="M581.8486,-168.2455C596.6139,-159.3724 620.905,-146.1693 640.7876,-136.1394"/>
<polygon fill="#191970" stroke="#191970" points="642.4459,-139.2238 649.847,-131.6427 639.3336,-132.9537 642.4459,-139.2238"/>
</g>
<!-- Node19 -->
<g id="node20" class="node">
<title>Node19</title>
<g id="a_node20"><a xlink:href="ComponentType_8h.html" target="_top" xlink:title="ComponentType.h">
<polygon fill="#ffffff" stroke="#000000" points="610.5,-56.5 610.5,-75.5 707.5,-75.5 707.5,-56.5 610.5,-56.5"/>
<text text-anchor="middle" x="659" y="-63.5" font-family="Helvetica,sans-Serif" font-size="10.00" fill="#000000">ComponentType.h</text>
</a>
</g>
</g>
<!-- Node17&#45;&gt;Node19 -->
<g id="edge33" class="edge">
<title>Node17&#45;&gt;Node19</title>
<path fill="none" stroke="#191970" d="M576.6733,-168.4509C591.8171,-149.6054 625.7443,-107.3849 644.9842,-83.4419"/>
<polygon fill="#191970" stroke="#191970" points="647.8104,-85.5124 651.3461,-75.5249 642.3538,-81.1276 647.8104,-85.5124"/>
</g>
<!-- Node18&#45;&gt;Node17 -->
<g id="edge32" class="edge">
<title>Node18&#45;&gt;Node17</title>
<path fill="none" stroke="#191970" d="M660.5723,-131.5011C645.8625,-140.3679 621.3234,-153.7139 601.2594,-163.8368"/>
<polygon fill="#191970" stroke="#191970" points="599.5213,-160.792 592.1203,-168.3733 602.6337,-167.0621 599.5213,-160.792"/>
</g>
<!-- Node18&#45;&gt;Node19 -->
<g id="edge31" class="edge">
<title>Node18&#45;&gt;Node19</title>
<path fill="none" stroke="#191970" d="M670.5614,-112.2455C668.7145,-104.8579 666.1172,-94.4689 663.8522,-85.4087"/>
<polygon fill="#191970" stroke="#191970" points="667.2316,-84.4952 661.4107,-75.6427 660.4406,-86.193 667.2316,-84.4952"/>
</g>
</g>
</svg>
