<?xml version="1.0" encoding="UTF-8" standalone="no"?>
<!DOCTYPE svg PUBLIC "-//W3C//DTD SVG 1.1//EN"
 "http://www.w3.org/Graphics/SVG/1.1/DTD/svg11.dtd">
<!-- Generated by graphviz version 2.40.1 (20161225.0304)
 -->
<!-- Title: include/Threading.h Pages: 1 -->
<svg width="293pt" height="84pt"
 viewBox="0.00 0.00 292.50 84.00" xmlns="http://www.w3.org/2000/svg" xmlns:xlink="http://www.w3.org/1999/xlink">
<g id="graph0" class="graph" transform="scale(1 1) rotate(0) translate(4 80)">
<title>include/Threading.h</title>
<polygon fill="#ffffff" stroke="transparent" points="-4,4 -4,-80 288.5,-80 288.5,4 -4,4"/>
<!-- Node20 -->
<g id="node1" class="node">
<title>Node20</title>
<polygon fill="#bfbfbf" stroke="#000000" points="83.5,-56.5 83.5,-75.5 184.5,-75.5 184.5,-56.5 83.5,-56.5"/>
<text text-anchor="middle" x="134" y="-63.5" font-family="Helvetica,sans-Serif" font-size="10.00" fill="#000000">include/Threading.h</text>
</g>
<!-- Node21 -->
<g id="node2" class="node">
<title>Node21</title>
<g id="a_node2"><a xlink:href="Game_8cpp.html" target="_top" xlink:title="src/Game.cpp">
<polygon fill="#ffffff" stroke="#000000" points="0,-.5 0,-19.5 78,-19.5 78,-.5 0,-.5"/>
<text text-anchor="middle" x="39" y="-7.5" font-family="Helvetica,sans-Serif" font-size="10.00" fill="#000000">src/Game.cpp</text>
</a>
</g>
</g>
<!-- Node20&#45;&gt;Node21 -->
<g id="edge1" class="edge">
<title>Node20&#45;&gt;Node21</title>
<path fill="none" stroke="#191970" d="M108.6324,-51.0465C91.729,-41.0824 70.0096,-28.2794 55.3581,-19.6427"/>
<polygon fill="#191970" stroke="#191970" points="107.0602,-54.1825 117.4523,-56.2455 110.6149,-48.1522 107.0602,-54.1825"/>
</g>
<!-- Node22 -->
<g id="node3" class="node">
<title>Node22</title>
<g id="a_node3"><a xlink:href="State_8cpp.html" target="_top" xlink:title="src/State.cpp">
<polygon fill="#ffffff" stroke="#000000" points="96.5,-.5 96.5,-19.5 171.5,-19.5 171.5,-.5 96.5,-.5"/>
<text text-anchor="middle" x="134" y="-7.5" font-family="Helvetica,sans-Serif" font-size="10.00" fill="#000000">src/State.cpp</text>
</a>
</g>
</g>
<!-- Node20&#45;&gt;Node22 -->
<g id="edge2" class="edge">
<title>Node20&#45;&gt;Node22</title>
<path fill="none" stroke="#191970" d="M134,-46.1575C134,-37.155 134,-26.9199 134,-19.6427"/>
<polygon fill="#191970" stroke="#191970" points="130.5001,-46.2455 134,-56.2455 137.5001,-46.2456 130.5001,-46.2455"/>
</g>
<!-- Node23 -->
<g id="node4" class="node">
<title>Node23</title>
<g id="a_node4"><a xlink:href="Threading_8cpp.html" target="_top" xlink:title="src/Threading.cpp">
<polygon fill="#ffffff" stroke="#000000" points="189.5,-.5 189.5,-19.5 284.5,-19.5 284.5,-.5 189.5,-.5"/>
<text text-anchor="middle" x="237" y="-7.5" font-family="Helvetica,sans-Serif" font-size="10.00" fill="#000000">src/Threading.cpp</text>
</a>
</g>
</g>
<!-- Node20&#45;&gt;Node23 -->
<g id="edge3" class="edge">
<title>Node20&#45;&gt;Node23</title>
<path fill="none" stroke="#191970" d="M160.7432,-51.46C179.175,-41.4388 203.1584,-28.3993 219.2644,-19.6427"/>
<polygon fill="#191970" stroke="#191970" points="159.0549,-48.394 151.9412,-56.2455 162.3985,-54.5438 159.0549,-48.394"/>
</g>
</g>
</svg>
