<?xml version="1.0" encoding="UTF-8" standalone="no"?>
<!DOCTYPE svg PUBLIC "-//W3C//DTD SVG 1.1//EN"
 "http://www.w3.org/Graphics/SVG/1.1/DTD/svg11.dtd">
<!-- Generated by graphviz version 2.40.1 (20161225.0304)
 -->
<!-- Title: src/Threading.cpp Pages: 1 -->
<svg width="923pt" height="364pt"
 viewBox="0.00 0.00 923.00 364.00" xmlns="http://www.w3.org/2000/svg" xmlns:xlink="http://www.w3.org/1999/xlink">
<g id="graph0" class="graph" transform="scale(1 1) rotate(0) translate(4 360)">
<title>src/Threading.cpp</title>
<polygon fill="#ffffff" stroke="transparent" points="-4,4 -4,-360 919,-360 919,4 -4,4"/>
<!-- Node0 -->
<g id="node1" class="node">
<title>Node0</title>
<polygon fill="#bfbfbf" stroke="#000000" points="514.5,-336.5 514.5,-355.5 609.5,-355.5 609.5,-336.5 514.5,-336.5"/>
<text text-anchor="middle" x="562" y="-343.5" font-family="Helvetica,sans-Serif" font-size="10.00" fill="#000000">src/Threading.cpp</text>
</g>
<!-- Node1 -->
<g id="node2" class="node">
<title>Node1</title>
<g id="a_node2"><a xlink:href="Threading_8h.html" target="_top" xlink:title="Threading.h">
<polygon fill="#ffffff" stroke="#000000" points="136,-280.5 136,-299.5 204,-299.5 204,-280.5 136,-280.5"/>
<text text-anchor="middle" x="170" y="-287.5" font-family="Helvetica,sans-Serif" font-size="10.00" fill="#000000">Threading.h</text>
</a>
</g>
</g>
<!-- Node0&#45;&gt;Node1 -->
<g id="edge1" class="edge">
<title>Node0&#45;&gt;Node1</title>
<path fill="none" stroke="#191970" d="M514.325,-339.1893C437.7393,-328.2485 288.3921,-306.9132 214.1254,-296.3036"/>
<polygon fill="#191970" stroke="#191970" points="214.5542,-292.8294 204.1597,-294.88 213.5642,-299.7591 214.5542,-292.8294"/>
</g>
<!-- Node21 -->
<g id="node22" class="node">
<title>Node21</title>
<g id="a_node22"><a xlink:href="Game_8h.html" target="_top" xlink:title="Game.h">
<polygon fill="#ffffff" stroke="#000000" points="536.5,-280.5 536.5,-299.5 587.5,-299.5 587.5,-280.5 536.5,-280.5"/>
<text text-anchor="middle" x="562" y="-287.5" font-family="Helvetica,sans-Serif" font-size="10.00" fill="#000000">Game.h</text>
</a>
</g>
</g>
<!-- Node0&#45;&gt;Node21 -->
<g id="edge36" class="edge">
<title>Node0&#45;&gt;Node21</title>
<path fill="none" stroke="#191970" d="M562,-336.2455C562,-328.9382 562,-318.6944 562,-309.7046"/>
<polygon fill="#191970" stroke="#191970" points="565.5001,-309.6426 562,-299.6427 558.5001,-309.6427 565.5001,-309.6426"/>
</g>
<!-- Node23 -->
<g id="node24" class="node">
<title>Node23</title>
<g id="a_node24"><a xlink:href="Error_8h.html" target="_top" xlink:title="Error.h">
<polygon fill="#ffffff" stroke="#000000" points="799,-280.5 799,-299.5 845,-299.5 845,-280.5 799,-280.5"/>
<text text-anchor="middle" x="822" y="-287.5" font-family="Helvetica,sans-Serif" font-size="10.00" fill="#000000">Error.h</text>
</a>
</g>
</g>
<!-- Node0&#45;&gt;Node23 -->
<g id="edge43" class="edge">
<title>Node0&#45;&gt;Node23</title>
<path fill="none" stroke="#191970" d="M606.4002,-336.4369C658.1785,-325.2846 742.5705,-307.1079 788.9219,-297.1245"/>
<polygon fill="#191970" stroke="#191970" points="789.7164,-300.5337 798.7552,-295.0066 788.2424,-293.6907 789.7164,-300.5337"/>
</g>
<!-- Node2 -->
<g id="node3" class="node">
<title>Node2</title>
<polygon fill="#ffffff" stroke="#bfbfbf" points="0,-224.5 0,-243.5 44,-243.5 44,-224.5 0,-224.5"/>
<text text-anchor="middle" x="22" y="-231.5" font-family="Helvetica,sans-Serif" font-size="10.00" fill="#000000">thread</text>
</g>
<!-- Node1&#45;&gt;Node2 -->
<g id="edge2" class="edge">
<title>Node1&#45;&gt;Node2</title>
<path fill="none" stroke="#191970" d="M144.5579,-280.3733C119.3841,-270.848 80.7872,-256.2438 53.6477,-245.9748"/>
<polygon fill="#191970" stroke="#191970" points="54.8049,-242.6705 44.2134,-242.4051 52.3276,-249.2176 54.8049,-242.6705"/>
</g>
<!-- Node3 -->
<g id="node4" class="node">
<title>Node3</title>
<polygon fill="#ffffff" stroke="#bfbfbf" points="34.5,-168.5 34.5,-187.5 91.5,-187.5 91.5,-168.5 34.5,-168.5"/>
<text text-anchor="middle" x="63" y="-175.5" font-family="Helvetica,sans-Serif" font-size="10.00" fill="#000000">pthread.h</text>
</g>
<!-- Node1&#45;&gt;Node3 -->
<g id="edge3" class="edge">
<title>Node1&#45;&gt;Node3</title>
<path fill="none" stroke="#191970" d="M145.0873,-280.493C127.9401,-272.8644 105.6906,-260.6699 91,-244 79.196,-230.6056 71.8293,-211.5011 67.6332,-197.2902"/>
<polygon fill="#191970" stroke="#191970" points="70.9926,-196.3045 65.0215,-187.5526 64.2316,-198.118 70.9926,-196.3045"/>
</g>
<!-- Node4 -->
<g id="node5" class="node">
<title>Node4</title>
<polygon fill="#ffffff" stroke="#bfbfbf" points="109.5,-168.5 109.5,-187.5 182.5,-187.5 182.5,-168.5 109.5,-168.5"/>
<text text-anchor="middle" x="146" y="-175.5" font-family="Helvetica,sans-Serif" font-size="10.00" fill="#000000">semaphore.h</text>
</g>
<!-- Node1&#45;&gt;Node4 -->
<g id="edge4" class="edge">
<title>Node1&#45;&gt;Node4</title>
<path fill="none" stroke="#191970" d="M174.7406,-280.3695C180.5039,-267.3065 188.6812,-243.3778 182,-224 178.2813,-213.2144 170.8787,-203.0249 163.7481,-194.9904"/>
<polygon fill="#191970" stroke="#191970" points="166.2791,-192.5729 156.8548,-187.7321 161.2033,-197.3934 166.2791,-192.5729"/>
</g>
<!-- Node5 -->
<g id="node6" class="node">
<title>Node5</title>
<g id="a_node6"><a xlink:href="FowardList_8h.html" target="_top" xlink:title="FowardList.h">
<polygon fill="#ffffff" stroke="#000000" points="100.5,-224.5 100.5,-243.5 173.5,-243.5 173.5,-224.5 100.5,-224.5"/>
<text text-anchor="middle" x="137" y="-231.5" font-family="Helvetica,sans-Serif" font-size="10.00" fill="#000000">FowardList.h</text>
</a>
</g>
</g>
<!-- Node1&#45;&gt;Node5 -->
<g id="edge5" class="edge">
<title>Node1&#45;&gt;Node5</title>
<path fill="none" stroke="#191970" d="M164.2518,-280.2455C159.7565,-272.617 153.3752,-261.7881 147.9175,-252.5267"/>
<polygon fill="#191970" stroke="#191970" points="150.7747,-250.4811 142.6823,-243.6427 144.7439,-254.035 150.7747,-250.4811"/>
</g>
<!-- Node6 -->
<g id="node7" class="node">
<title>Node6</title>
<g id="a_node7"><a xlink:href="State_8h.html" target="_top" xlink:title="State.h">
<polygon fill="#ffffff" stroke="#000000" points="323,-224.5 323,-243.5 371,-243.5 371,-224.5 323,-224.5"/>
<text text-anchor="middle" x="347" y="-231.5" font-family="Helvetica,sans-Serif" font-size="10.00" fill="#000000">State.h</text>
</a>
</g>
</g>
<!-- Node1&#45;&gt;Node6 -->
<g id="edge8" class="edge">
<title>Node1&#45;&gt;Node6</title>
<path fill="none" stroke="#191970" d="M200.4274,-280.3733C231.8683,-270.4259 280.817,-254.9393 313.3834,-244.6358"/>
<polygon fill="#191970" stroke="#191970" points="314.4484,-247.9699 322.9268,-241.6164 312.3368,-241.296 314.4484,-247.9699"/>
</g>
<!-- Node5&#45;&gt;Node3 -->
<g id="edge6" class="edge">
<title>Node5&#45;&gt;Node3</title>
<path fill="none" stroke="#191970" d="M124.1102,-224.2455C113.0746,-215.8943 96.9708,-203.7076 84.0647,-193.9408"/>
<polygon fill="#191970" stroke="#191970" points="85.8283,-190.8862 75.7421,-187.6427 81.6041,-196.4681 85.8283,-190.8862"/>
</g>
<!-- Node5&#45;&gt;Node4 -->
<g id="edge7" class="edge">
<title>Node5&#45;&gt;Node4</title>
<path fill="none" stroke="#191970" d="M138.5677,-224.2455C139.7421,-216.9382 141.3884,-206.6944 142.8332,-197.7046"/>
<polygon fill="#191970" stroke="#191970" points="146.3191,-198.0714 144.4503,-187.6427 139.4078,-196.9606 146.3191,-198.0714"/>
</g>
<!-- Node7 -->
<g id="node8" class="node">
<title>Node7</title>
<polygon fill="#ffffff" stroke="#bfbfbf" points="51,-112.5 51,-131.5 95,-131.5 95,-112.5 51,-112.5"/>
<text text-anchor="middle" x="73" y="-119.5" font-family="Helvetica,sans-Serif" font-size="10.00" fill="#000000">vector</text>
</g>
<!-- Node6&#45;&gt;Node7 -->
<g id="edge9" class="edge">
<title>Node6&#45;&gt;Node7</title>
<path fill="none" stroke="#191970" d="M322.9586,-225.3445C299.1011,-216.5697 261.6272,-202.2844 230,-188 212.2471,-179.9819 208.7645,-175.9924 191,-168 162.2258,-155.0542 128.6331,-142.168 104.665,-133.3424"/>
<polygon fill="#191970" stroke="#191970" points="105.6183,-129.9645 95.0244,-129.8203 103.2161,-136.5394 105.6183,-129.9645"/>
</g>
<!-- Node8 -->
<g id="node9" class="node">
<title>Node8</title>
<polygon fill="#ffffff" stroke="#bfbfbf" points="321,-112.5 321,-131.5 373,-131.5 373,-112.5 321,-112.5"/>
<text text-anchor="middle" x="347" y="-119.5" font-family="Helvetica,sans-Serif" font-size="10.00" fill="#000000">memory</text>
</g>
<!-- Node6&#45;&gt;Node8 -->
<g id="edge10" class="edge">
<title>Node6&#45;&gt;Node8</title>
<path fill="none" stroke="#191970" d="M347,-224.4509C347,-206.184 347,-165.9553 347,-141.6976"/>
<polygon fill="#191970" stroke="#191970" points="350.5001,-141.5249 347,-131.5249 343.5001,-141.5249 350.5001,-141.5249"/>
</g>
<!-- Node9 -->
<g id="node10" class="node">
<title>Node9</title>
<g id="a_node10"><a xlink:href="InputManager_8h.html" target="_top" xlink:title="InputManager.h">
<polygon fill="#ffffff" stroke="#000000" points="571,-168.5 571,-187.5 655,-187.5 655,-168.5 571,-168.5"/>
<text text-anchor="middle" x="613" y="-175.5" font-family="Helvetica,sans-Serif" font-size="10.00" fill="#000000">InputManager.h</text>
</a>
</g>
</g>
<!-- Node6&#45;&gt;Node9 -->
<g id="edge11" class="edge">
<title>Node6&#45;&gt;Node9</title>
<path fill="none" stroke="#191970" d="M371.0749,-228.9316C413.6621,-219.9659 503.1915,-201.1176 560.5852,-189.0347"/>
<polygon fill="#191970" stroke="#191970" points="561.4941,-192.4202 570.5585,-186.935 560.052,-185.5703 561.4941,-192.4202"/>
</g>
<!-- Node16 -->
<g id="node17" class="node">
<title>Node16</title>
<g id="a_node17"><a xlink:href="Resources_8h.html" target="_top" xlink:title="Resources.h">
<polygon fill="#ffffff" stroke="#000000" points="375,-168.5 375,-187.5 447,-187.5 447,-168.5 375,-168.5"/>
<text text-anchor="middle" x="411" y="-175.5" font-family="Helvetica,sans-Serif" font-size="10.00" fill="#000000">Resources.h</text>
</a>
</g>
</g>
<!-- Node6&#45;&gt;Node16 -->
<g id="edge21" class="edge">
<title>Node6&#45;&gt;Node16</title>
<path fill="none" stroke="#191970" d="M358.1479,-224.2455C367.5087,-216.0549 381.0858,-204.1749 392.1349,-194.5069"/>
<polygon fill="#191970" stroke="#191970" points="394.7588,-196.8618 399.9798,-187.6427 390.1492,-191.5937 394.7588,-196.8618"/>
</g>
<!-- Node18 -->
<g id="node19" class="node">
<title>Node18</title>
<g id="a_node19"><a xlink:href="GameObject_8h.html" target="_top" xlink:title="GameObject.h">
<polygon fill="#ffffff" stroke="#000000" points="239,-168.5 239,-187.5 319,-187.5 319,-168.5 239,-168.5"/>
<text text-anchor="middle" x="279" y="-175.5" font-family="Helvetica,sans-Serif" font-size="10.00" fill="#000000">GameObject.h</text>
</a>
</g>
</g>
<!-- Node6&#45;&gt;Node18 -->
<g id="edge26" class="edge">
<title>Node6&#45;&gt;Node18</title>
<path fill="none" stroke="#191970" d="M335.1553,-224.2455C325.112,-215.9746 310.5005,-203.9416 298.6996,-194.2232"/>
<polygon fill="#191970" stroke="#191970" points="300.6533,-191.298 290.709,-187.6427 296.2033,-196.7015 300.6533,-191.298"/>
</g>
<!-- Node10 -->
<g id="node11" class="node">
<title>Node10</title>
<g id="a_node11"><a xlink:href="SDL__include_8h.html" target="_top" xlink:title="SDL_include.h">
<polygon fill="#ffffff" stroke="#000000" points="438,-.5 438,-19.5 518,-19.5 518,-.5 438,-.5"/>
<text text-anchor="middle" x="478" y="-7.5" font-family="Helvetica,sans-Serif" font-size="10.00" fill="#000000">SDL_include.h</text>
</a>
</g>
</g>
<!-- Node9&#45;&gt;Node10 -->
<g id="edge12" class="edge">
<title>Node9&#45;&gt;Node10</title>
<path fill="none" stroke="#191970" d="M623.5359,-168.473C636.5182,-155.5273 655.6291,-131.7312 645,-112 619.6958,-65.0268 562.5872,-37.2994 522.2203,-22.8826"/>
<polygon fill="#191970" stroke="#191970" points="523.1985,-19.5181 512.6039,-19.5847 520.9276,-26.1395 523.1985,-19.5181"/>
</g>
<!-- Node11 -->
<g id="node12" class="node">
<title>Node11</title>
<g id="a_node12"><a xlink:href="Vec2_8h.html" target="_top" xlink:title="Vec2.h">
<polygon fill="#ffffff" stroke="#000000" points="589.5,-112.5 589.5,-131.5 636.5,-131.5 636.5,-112.5 589.5,-112.5"/>
<text text-anchor="middle" x="613" y="-119.5" font-family="Helvetica,sans-Serif" font-size="10.00" fill="#000000">Vec2.h</text>
</a>
</g>
</g>
<!-- Node9&#45;&gt;Node11 -->
<g id="edge13" class="edge">
<title>Node9&#45;&gt;Node11</title>
<path fill="none" stroke="#191970" d="M613,-168.2455C613,-160.9382 613,-150.6944 613,-141.7046"/>
<polygon fill="#191970" stroke="#191970" points="616.5001,-141.6426 613,-131.6427 609.5001,-141.6427 616.5001,-141.6426"/>
</g>
<!-- Node14 -->
<g id="node15" class="node">
<title>Node14</title>
<polygon fill="#ffffff" stroke="#bfbfbf" points="488.5,-112.5 488.5,-131.5 571.5,-131.5 571.5,-112.5 488.5,-112.5"/>
<text text-anchor="middle" x="530" y="-119.5" font-family="Helvetica,sans-Serif" font-size="10.00" fill="#000000">unordered_map</text>
</g>
<!-- Node9&#45;&gt;Node14 -->
<g id="edge19" class="edge">
<title>Node9&#45;&gt;Node14</title>
<path fill="none" stroke="#191970" d="M598.5425,-168.2455C585.9268,-159.7337 567.4056,-147.2375 552.7955,-137.3801"/>
<polygon fill="#191970" stroke="#191970" points="554.5391,-134.3343 544.2918,-131.6427 550.6239,-140.1371 554.5391,-134.3343"/>
</g>
<!-- Node15 -->
<g id="node16" class="node">
<title>Node15</title>
<polygon fill="#ffffff" stroke="#bfbfbf" points="693,-112.5 693,-131.5 739,-131.5 739,-112.5 693,-112.5"/>
<text text-anchor="middle" x="716" y="-119.5" font-family="Helvetica,sans-Serif" font-size="10.00" fill="#000000">cstdint</text>
</g>
<!-- Node9&#45;&gt;Node15 -->
<g id="edge20" class="edge">
<title>Node9&#45;&gt;Node15</title>
<path fill="none" stroke="#191970" d="M630.9412,-168.2455C647.04,-159.4928 670.8879,-146.527 689.2391,-136.5496"/>
<polygon fill="#191970" stroke="#191970" points="691.1507,-139.4942 698.2644,-131.6427 687.8071,-133.3444 691.1507,-139.4942"/>
</g>
<!-- Node11&#45;&gt;Node10 -->
<g id="edge14" class="edge">
<title>Node11&#45;&gt;Node10</title>
<path fill="none" stroke="#191970" d="M601.49,-112.4509C578.3758,-93.2747 526.0892,-49.8962 497.5254,-26.1988"/>
<polygon fill="#191970" stroke="#191970" points="499.4119,-23.2162 489.4809,-19.5249 494.9424,-28.6036 499.4119,-23.2162"/>
</g>
<!-- Node12 -->
<g id="node13" class="node">
<title>Node12</title>
<g id="a_node13"><a xlink:href="Rect_8h.html" target="_top" xlink:title="Rect.h">
<polygon fill="#ffffff" stroke="#000000" points="327,-56.5 327,-75.5 373,-75.5 373,-56.5 327,-56.5"/>
<text text-anchor="middle" x="350" y="-63.5" font-family="Helvetica,sans-Serif" font-size="10.00" fill="#000000">Rect.h</text>
</a>
</g>
</g>
<!-- Node11&#45;&gt;Node12 -->
<g id="edge15" class="edge">
<title>Node11&#45;&gt;Node12</title>
<path fill="none" stroke="#191970" d="M589.1772,-117.0084C583.112,-115.3013 576.8065,-113.4568 571,-112 504.7731,-95.3844 426.6311,-80.8006 383.1224,-72.7152"/>
<polygon fill="#191970" stroke="#191970" points="383.564,-69.2373 373.0927,-70.8502 382.2843,-76.1194 383.564,-69.2373"/>
</g>
<!-- Node12&#45;&gt;Node10 -->
<g id="edge16" class="edge">
<title>Node12&#45;&gt;Node10</title>
<path fill="none" stroke="#191970" d="M372.004,-56.3733C392.6435,-47.3435 423.7158,-33.7494 446.8889,-23.6111"/>
<polygon fill="#191970" stroke="#191970" points="448.5245,-26.7159 456.2831,-19.5011 445.7187,-20.3028 448.5245,-26.7159"/>
</g>
<!-- Node12&#45;&gt;Node11 -->
<g id="edge17" class="edge">
<title>Node12&#45;&gt;Node11</title>
<path fill="none" stroke="#191970" d="M373.1892,-69.0425C414.6805,-75.4046 503.3242,-91.0717 580.8706,-110.0018"/>
<polygon fill="#191970" stroke="#191970" points="580.2071,-113.4431 590.7551,-112.4481 581.8889,-106.6481 580.2071,-113.4431"/>
</g>
<!-- Node13 -->
<g id="node14" class="node">
<title>Node13</title>
<polygon fill="#ffffff" stroke="#bfbfbf" points="328,-.5 328,-19.5 372,-19.5 372,-.5 328,-.5"/>
<text text-anchor="middle" x="350" y="-7.5" font-family="Helvetica,sans-Serif" font-size="10.00" fill="#000000">cmath</text>
</g>
<!-- Node12&#45;&gt;Node13 -->
<g id="edge18" class="edge">
<title>Node12&#45;&gt;Node13</title>
<path fill="none" stroke="#191970" d="M350,-56.2455C350,-48.9382 350,-38.6944 350,-29.7046"/>
<polygon fill="#191970" stroke="#191970" points="353.5001,-29.6426 350,-19.6427 346.5001,-29.6427 353.5001,-29.6426"/>
</g>
<!-- Node16&#45;&gt;Node8 -->
<g id="edge25" class="edge">
<title>Node16&#45;&gt;Node8</title>
<path fill="none" stroke="#191970" d="M399.8521,-168.2455C390.4913,-160.0549 376.9142,-148.1749 365.8651,-138.5069"/>
<polygon fill="#191970" stroke="#191970" points="367.8508,-135.5937 358.0202,-131.6427 363.2412,-140.8618 367.8508,-135.5937"/>
</g>
<!-- Node16&#45;&gt;Node10 -->
<g id="edge22" class="edge">
<title>Node16&#45;&gt;Node10</title>
<path fill="none" stroke="#191970" d="M411.1762,-168.3407C411.6688,-155.245 413.4763,-131.2795 420,-112 430.7097,-80.3496 451.5056,-47.3843 465.0665,-27.782"/>
<polygon fill="#191970" stroke="#191970" points="467.9833,-29.7191 470.8962,-19.5326 462.2667,-25.6793 467.9833,-29.7191"/>
</g>
<!-- Node16&#45;&gt;Node14 -->
<g id="edge24" class="edge">
<title>Node16&#45;&gt;Node14</title>
<path fill="none" stroke="#191970" d="M431.4568,-168.3733C450.4738,-159.4241 479.0175,-145.9917 500.4976,-135.8835"/>
<polygon fill="#191970" stroke="#191970" points="502.2522,-138.926 509.8101,-131.5011 499.2716,-132.5923 502.2522,-138.926"/>
</g>
<!-- Node17 -->
<g id="node18" class="node">
<title>Node17</title>
<polygon fill="#ffffff" stroke="#bfbfbf" points="429.5,-112.5 429.5,-131.5 470.5,-131.5 470.5,-112.5 429.5,-112.5"/>
<text text-anchor="middle" x="450" y="-119.5" font-family="Helvetica,sans-Serif" font-size="10.00" fill="#000000">string</text>
</g>
<!-- Node16&#45;&gt;Node17 -->
<g id="edge23" class="edge">
<title>Node16&#45;&gt;Node17</title>
<path fill="none" stroke="#191970" d="M417.7933,-168.2455C423.2178,-160.4564 430.9661,-149.3308 437.5033,-139.9439"/>
<polygon fill="#191970" stroke="#191970" points="440.4417,-141.849 443.2846,-131.6427 434.6975,-137.8485 440.4417,-141.849"/>
</g>
<!-- Node18&#45;&gt;Node7 -->
<g id="edge28" class="edge">
<title>Node18&#45;&gt;Node7</title>
<path fill="none" stroke="#191970" d="M240.2532,-168.4659C206.7638,-160.0804 156.8589,-147.2402 105.0068,-132.1922"/>
<polygon fill="#191970" stroke="#191970" points="105.8861,-128.8028 95.3057,-129.3573 103.9225,-135.5218 105.8861,-128.8028"/>
</g>
<!-- Node18&#45;&gt;Node8 -->
<g id="edge29" class="edge">
<title>Node18&#45;&gt;Node8</title>
<path fill="none" stroke="#191970" d="M290.8447,-168.2455C300.888,-159.9746 315.4995,-147.9416 327.3004,-138.2232"/>
<polygon fill="#191970" stroke="#191970" points="329.7967,-140.7015 335.291,-131.6427 325.3467,-135.298 329.7967,-140.7015"/>
</g>
<!-- Node18&#45;&gt;Node10 -->
<g id="edge27" class="edge">
<title>Node18&#45;&gt;Node10</title>
<path fill="none" stroke="#191970" d="M279.0599,-168.4171C279.75,-145.3989 284.8484,-86.6364 318,-56 334.0951,-41.126 387.2671,-27.7322 427.9411,-19.2843"/>
<polygon fill="#191970" stroke="#191970" points="428.8791,-22.6653 437.9825,-17.2452 427.4859,-15.8054 428.8791,-22.6653"/>
</g>
<!-- Node18&#45;&gt;Node12 -->
<g id="edge35" class="edge">
<title>Node18&#45;&gt;Node12</title>
<path fill="none" stroke="#191970" d="M283.0501,-168.2284C288.7145,-155.0054 299.6994,-130.8961 312,-112 318.5271,-101.9731 326.8996,-91.6303 334.1238,-83.2977"/>
<polygon fill="#191970" stroke="#191970" points="336.8294,-85.522 340.8542,-75.7214 331.5962,-80.873 336.8294,-85.522"/>
</g>
<!-- Node18&#45;&gt;Node17 -->
<g id="edge30" class="edge">
<title>Node18&#45;&gt;Node17</title>
<path fill="none" stroke="#191970" d="M308.3959,-168.3733C339.4156,-158.2148 388.0751,-142.2795 419.5042,-131.9869"/>
<polygon fill="#191970" stroke="#191970" points="420.6447,-135.2964 429.0588,-128.8579 418.4661,-128.644 420.6447,-135.2964"/>
</g>
<!-- Node19 -->
<g id="node20" class="node">
<title>Node19</title>
<g id="a_node20"><a xlink:href="Component_8h.html" target="_top" xlink:title="Component.h">
<polygon fill="#ffffff" stroke="#000000" points="113.5,-112.5 113.5,-131.5 188.5,-131.5 188.5,-112.5 113.5,-112.5"/>
<text text-anchor="middle" x="151" y="-119.5" font-family="Helvetica,sans-Serif" font-size="10.00" fill="#000000">Component.h</text>
</a>
</g>
</g>
<!-- Node18&#45;&gt;Node19 -->
<g id="edge31" class="edge">
<title>Node18&#45;&gt;Node19</title>
<path fill="none" stroke="#191970" d="M251.754,-168.3733C229.5481,-159.4241 198.6192,-145.9917 176.8127,-135.8835"/>
<polygon fill="#191970" stroke="#191970" points="178.0381,-132.592 167.4996,-131.5011 175.0576,-138.9258 178.0381,-132.592"/>
</g>
<!-- Node20 -->
<g id="node21" class="node">
<title>Node20</title>
<g id="a_node21"><a xlink:href="ComponentType_8h.html" target="_top" xlink:title="ComponentType.h">
<polygon fill="#ffffff" stroke="#000000" points="116.5,-56.5 116.5,-75.5 213.5,-75.5 213.5,-56.5 116.5,-56.5"/>
<text text-anchor="middle" x="165" y="-63.5" font-family="Helvetica,sans-Serif" font-size="10.00" fill="#000000">ComponentType.h</text>
</a>
</g>
</g>
<!-- Node18&#45;&gt;Node20 -->
<g id="edge34" class="edge">
<title>Node18&#45;&gt;Node20</title>
<path fill="none" stroke="#191970" d="M269.2804,-168.4509C249.9301,-149.4401 206.3681,-106.6423 182.1163,-82.816"/>
<polygon fill="#191970" stroke="#191970" points="184.2813,-80.0364 174.695,-75.5249 179.3755,-85.0298 184.2813,-80.0364"/>
</g>
<!-- Node19&#45;&gt;Node18 -->
<g id="edge33" class="edge">
<title>Node19&#45;&gt;Node18</title>
<path fill="none" stroke="#191970" d="M177.9341,-131.5011C200.1575,-140.4482 231.267,-153.9559 253.1751,-164.1109"/>
<polygon fill="#191970" stroke="#191970" points="251.6993,-167.2845 262.238,-168.3733 254.6785,-160.9501 251.6993,-167.2845"/>
</g>
<!-- Node19&#45;&gt;Node20 -->
<g id="edge32" class="edge">
<title>Node19&#45;&gt;Node20</title>
<path fill="none" stroke="#191970" d="M153.4386,-112.2455C155.2855,-104.8579 157.8828,-94.4689 160.1478,-85.4087"/>
<polygon fill="#191970" stroke="#191970" points="163.5594,-86.193 162.5893,-75.6427 156.7684,-84.4952 163.5594,-86.193"/>
</g>
<!-- Node21&#45;&gt;Node6 -->
<g id="edge39" class="edge">
<title>Node21&#45;&gt;Node6</title>
<path fill="none" stroke="#191970" d="M536.4924,-283.3562C497.7729,-273.2711 424.114,-254.0855 380.9213,-242.8353"/>
<polygon fill="#191970" stroke="#191970" points="381.7136,-239.425 371.1543,-240.2913 379.9492,-246.199 381.7136,-239.425"/>
</g>
<!-- Node21&#45;&gt;Node9 -->
<g id="edge40" class="edge">
<title>Node21&#45;&gt;Node9</title>
<path fill="none" stroke="#191970" d="M566.3482,-280.4509C574.7791,-261.936 593.4838,-220.8591 604.4763,-196.7187"/>
<polygon fill="#191970" stroke="#191970" points="607.7039,-198.0762 608.6628,-187.5249 601.3333,-195.1753 607.7039,-198.0762"/>
</g>
<!-- Node21&#45;&gt;Node10 -->
<g id="edge42" class="edge">
<title>Node21&#45;&gt;Node10</title>
<path fill="none" stroke="#191970" d="M587.5489,-287.8647C642.5028,-281.7315 767,-258.9084 767,-178 767,-178 767,-178 767,-122 767,-71.3779 610.8877,-34.667 528.1388,-18.7638"/>
<polygon fill="#191970" stroke="#191970" points="528.6602,-15.3004 518.1842,-16.8829 527.3605,-22.1787 528.6602,-15.3004"/>
</g>
<!-- Node21&#45;&gt;Node11 -->
<g id="edge41" class="edge">
<title>Node21&#45;&gt;Node11</title>
<path fill="none" stroke="#191970" d="M559.4527,-280.2765C554.3731,-258.8703 544.8729,-206.5127 562,-168 567.4508,-155.7432 577.9599,-145.3755 588.0289,-137.6036"/>
<polygon fill="#191970" stroke="#191970" points="590.1744,-140.3721 596.2627,-131.7012 586.096,-134.6828 590.1744,-140.3721"/>
</g>
<!-- Node21&#45;&gt;Node17 -->
<g id="edge37" class="edge">
<title>Node21&#45;&gt;Node17</title>
<path fill="none" stroke="#191970" d="M555.6575,-280.4862C537.6463,-253.4695 485.9603,-175.9405 462.2068,-140.3102"/>
<polygon fill="#191970" stroke="#191970" points="465.0111,-138.2069 456.5519,-131.8279 459.1868,-142.0899 465.0111,-138.2069"/>
</g>
<!-- Node22 -->
<g id="node23" class="node">
<title>Node22</title>
<polygon fill="#ffffff" stroke="#bfbfbf" points="609.5,-224.5 609.5,-243.5 650.5,-243.5 650.5,-224.5 609.5,-224.5"/>
<text text-anchor="middle" x="630" y="-231.5" font-family="Helvetica,sans-Serif" font-size="10.00" fill="#000000">stack</text>
</g>
<!-- Node21&#45;&gt;Node22 -->
<g id="edge38" class="edge">
<title>Node21&#45;&gt;Node22</title>
<path fill="none" stroke="#191970" d="M573.8447,-280.2455C583.888,-271.9746 598.4995,-259.9416 610.3004,-250.2232"/>
<polygon fill="#191970" stroke="#191970" points="612.7967,-252.7015 618.291,-243.6427 608.3467,-247.298 612.7967,-252.7015"/>
</g>
<!-- Node24 -->
<g id="node25" class="node">
<title>Node24</title>
<polygon fill="#ffffff" stroke="#bfbfbf" points="795,-224.5 795,-243.5 849,-243.5 849,-224.5 795,-224.5"/>
<text text-anchor="middle" x="822" y="-231.5" font-family="Helvetica,sans-Serif" font-size="10.00" fill="#000000">iostream</text>
</g>
<!-- Node23&#45;&gt;Node24 -->
<g id="edge44" class="edge">
<title>Node23&#45;&gt;Node24</title>
<path fill="none" stroke="#191970" d="M822,-280.2455C822,-272.9382 822,-262.6944 822,-253.7046"/>
<polygon fill="#191970" stroke="#191970" points="825.5001,-253.6426 822,-243.6427 818.5001,-253.6427 825.5001,-253.6426"/>
</g>
<!-- Node25 -->
<g id="node26" class="node">
<title>Node25</title>
<polygon fill="#ffffff" stroke="#bfbfbf" points="867,-224.5 867,-243.5 915,-243.5 915,-224.5 867,-224.5"/>
<text text-anchor="middle" x="891" y="-231.5" font-family="Helvetica,sans-Serif" font-size="10.00" fill="#000000">stdlib.h</text>
</g>
<!-- Node23&#45;&gt;Node25 -->
<g id="edge45" class="edge">
<title>Node23&#45;&gt;Node25</title>
<path fill="none" stroke="#191970" d="M834.0189,-280.2455C844.2098,-271.9746 859.0362,-259.9416 871.0107,-250.2232"/>
<polygon fill="#191970" stroke="#191970" points="873.5598,-252.662 879.1188,-243.6427 869.1486,-247.2268 873.5598,-252.662"/>
</g>
</g>
</svg>
