<?xml version="1.0" encoding="UTF-8" standalone="no"?>
<!DOCTYPE svg PUBLIC "-//W3C//DTD SVG 1.1//EN"
 "http://www.w3.org/Graphics/SVG/1.1/DTD/svg11.dtd">
<!-- Generated by graphviz version 2.38.0 (20140413.2041)
 -->
<!-- Title: include/Tileset.h Pages: 1 -->
<svg width="821pt" height="364pt"
 viewBox="0.00 0.00 821.48 364.00" xmlns="http://www.w3.org/2000/svg" xmlns:xlink="http://www.w3.org/1999/xlink">
<g id="graph0" class="graph" transform="scale(1 1) rotate(0) translate(4 360)">
<title>include/Tileset.h</title>
<polygon fill="white" stroke="none" points="-4,4 -4,-360 817.483,-360 817.483,4 -4,4"/>
<!-- Node0 -->
<g id="node1" class="node"><title>Node0</title>
<polygon fill="#bfbfbf" stroke="black" points="154.483,-336.5 154.483,-355.5 242.483,-355.5 242.483,-336.5 154.483,-336.5"/>
<text text-anchor="middle" x="198.483" y="-343.5" font-family="Helvetica,sans-Serif" font-size="10.00">include/Tileset.h</text>
</g>
<!-- Node1 -->
<g id="node2" class="node"><title>Node1</title>
<polygon fill="white" stroke="#bfbfbf" points="75.983,-112.5 75.983,-131.5 116.983,-131.5 116.983,-112.5 75.983,-112.5"/>
<text text-anchor="middle" x="96.483" y="-119.5" font-family="Helvetica,sans-Serif" font-size="10.00">string</text>
</g>
<!-- Node0&#45;&gt;Node1 -->
<g id="edge1" class="edge"><title>Node0&#45;&gt;Node1</title>
<path fill="none" stroke="midnightblue" d="M154.171,-341.615C119.372,-336.981 71.3061,-326.003 37.483,-300 14.5801,-282.392 12.0842,-271.871 4.48301,-244 -4.65038,-210.511 0.989371,-195.257 22.483,-168 33.8627,-153.569 51.2447,-142.66 66.3034,-135.199"/>
<polygon fill="midnightblue" stroke="midnightblue" points="68.1864,-138.184 75.7772,-130.793 65.234,-131.837 68.1864,-138.184"/>
</g>
<!-- Node2 -->
<g id="node3" class="node"><title>Node2</title>
<polygon fill="white" stroke="#bfbfbf" points="135.483,-112.5 135.483,-131.5 179.483,-131.5 179.483,-112.5 135.483,-112.5"/>
<text text-anchor="middle" x="157.483" y="-119.5" font-family="Helvetica,sans-Serif" font-size="10.00">vector</text>
</g>
<!-- Node0&#45;&gt;Node2 -->
<g id="edge2" class="edge"><title>Node0&#45;&gt;Node2</title>
<path fill="none" stroke="midnightblue" d="M154.851,-336.399C108.818,-324.615 39.3024,-298.375 12.483,-244 -14.6427,-189.003 75.2628,-149.781 125.674,-132.64"/>
<polygon fill="midnightblue" stroke="midnightblue" points="126.781,-135.96 135.184,-129.508 124.591,-129.312 126.781,-135.96"/>
</g>
<!-- Node3 -->
<g id="node4" class="node"><title>Node3</title>
<g id="a_node4"><a xlink:href="Error_8h.html" target="_top" xlink:title="Error.h">
<polygon fill="white" stroke="black" points="94.483,-280.5 94.483,-299.5 140.483,-299.5 140.483,-280.5 94.483,-280.5"/>
<text text-anchor="middle" x="117.483" y="-287.5" font-family="Helvetica,sans-Serif" font-size="10.00">Error.h</text>
</a>
</g>
</g>
<!-- Node0&#45;&gt;Node3 -->
<g id="edge3" class="edge"><title>Node0&#45;&gt;Node3</title>
<path fill="none" stroke="midnightblue" d="M185.469,-336.324C172.951,-327.979 153.801,-315.212 139.012,-305.352"/>
<polygon fill="midnightblue" stroke="midnightblue" points="140.727,-302.289 130.465,-299.655 136.844,-308.114 140.727,-302.289"/>
</g>
<!-- Node6 -->
<g id="node7" class="node"><title>Node6</title>
<g id="a_node7"><a xlink:href="Sprite_8h.html" target="_top" xlink:title="Sprite.h">
<polygon fill="white" stroke="black" points="254.483,-280.5 254.483,-299.5 304.483,-299.5 304.483,-280.5 254.483,-280.5"/>
<text text-anchor="middle" x="279.483" y="-287.5" font-family="Helvetica,sans-Serif" font-size="10.00">Sprite.h</text>
</a>
</g>
</g>
<!-- Node0&#45;&gt;Node6 -->
<g id="edge6" class="edge"><title>Node0&#45;&gt;Node6</title>
<path fill="none" stroke="midnightblue" d="M211.497,-336.324C224.015,-327.979 243.165,-315.212 257.954,-305.352"/>
<polygon fill="midnightblue" stroke="midnightblue" points="260.122,-308.114 266.501,-299.655 256.239,-302.289 260.122,-308.114"/>
</g>
<!-- Node12 -->
<g id="node13" class="node"><title>Node12</title>
<g id="a_node13"><a xlink:href="Rect_8h.html" target="_top" xlink:title="Rect.h">
<polygon fill="white" stroke="black" points="459.483,-112.5 459.483,-131.5 505.483,-131.5 505.483,-112.5 459.483,-112.5"/>
<text text-anchor="middle" x="482.483" y="-119.5" font-family="Helvetica,sans-Serif" font-size="10.00">Rect.h</text>
</a>
</g>
</g>
<!-- Node0&#45;&gt;Node12 -->
<g id="edge33" class="edge"><title>Node0&#45;&gt;Node12</title>
<path fill="none" stroke="midnightblue" d="M236.302,-336.396C289.217,-323.048 386.684,-293.589 456.483,-244 483.206,-225.014 493.11,-218.744 504.483,-188 510.403,-171.996 502.812,-153.552 494.975,-140.409"/>
<polygon fill="midnightblue" stroke="midnightblue" points="497.81,-138.349 489.415,-131.886 491.947,-142.174 497.81,-138.349"/>
</g>
<!-- Node13 -->
<g id="node14" class="node"><title>Node13</title>
<g id="a_node14"><a xlink:href="Vec2_8h.html" target="_top" xlink:title="Vec2.h">
<polygon fill="white" stroke="black" points="561.983,-56.5 561.983,-75.5 608.983,-75.5 608.983,-56.5 561.983,-56.5"/>
<text text-anchor="middle" x="585.483" y="-63.5" font-family="Helvetica,sans-Serif" font-size="10.00">Vec2.h</text>
</a>
</g>
</g>
<!-- Node0&#45;&gt;Node13 -->
<g id="edge32" class="edge"><title>Node0&#45;&gt;Node13</title>
<path fill="none" stroke="midnightblue" d="M242.544,-342.258C346.713,-334.572 599.483,-308.363 599.483,-235 599.483,-235 599.483,-235 599.483,-177 599.483,-144.541 593.41,-107.121 589.264,-85.3564"/>
<polygon fill="midnightblue" stroke="midnightblue" points="592.69,-84.6401 587.313,-75.5108 585.823,-86.0003 592.69,-84.6401"/>
</g>
<!-- Node4 -->
<g id="node5" class="node"><title>Node4</title>
<polygon fill="white" stroke="#bfbfbf" points="21.483,-224.5 21.483,-243.5 75.483,-243.5 75.483,-224.5 21.483,-224.5"/>
<text text-anchor="middle" x="48.483" y="-231.5" font-family="Helvetica,sans-Serif" font-size="10.00">iostream</text>
</g>
<!-- Node3&#45;&gt;Node4 -->
<g id="edge4" class="edge"><title>Node3&#45;&gt;Node4</title>
<path fill="none" stroke="midnightblue" d="M106.397,-280.324C95.997,-272.185 80.2224,-259.839 67.7614,-250.087"/>
<polygon fill="midnightblue" stroke="midnightblue" points="69.8029,-247.241 59.7708,-243.834 65.4887,-252.753 69.8029,-247.241"/>
</g>
<!-- Node5 -->
<g id="node6" class="node"><title>Node5</title>
<polygon fill="white" stroke="#bfbfbf" points="93.483,-224.5 93.483,-243.5 141.483,-243.5 141.483,-224.5 93.483,-224.5"/>
<text text-anchor="middle" x="117.483" y="-231.5" font-family="Helvetica,sans-Serif" font-size="10.00">stdlib.h</text>
</g>
<!-- Node3&#45;&gt;Node5 -->
<g id="edge5" class="edge"><title>Node3&#45;&gt;Node5</title>
<path fill="none" stroke="midnightblue" d="M117.483,-280.083C117.483,-273.006 117.483,-262.861 117.483,-253.986"/>
<polygon fill="midnightblue" stroke="midnightblue" points="120.983,-253.751 117.483,-243.751 113.983,-253.751 120.983,-253.751"/>
</g>
<!-- Node6&#45;&gt;Node1 -->
<g id="edge8" class="edge"><title>Node6&#45;&gt;Node1</title>
<path fill="none" stroke="midnightblue" d="M257.131,-280.349C238.823,-272.581 212.87,-259.954 193.483,-244 155.877,-213.053 122.985,-165.427 106.921,-140.144"/>
<polygon fill="midnightblue" stroke="midnightblue" points="109.874,-138.264 101.614,-131.629 103.934,-141.967 109.874,-138.264"/>
</g>
<!-- Node7 -->
<g id="node8" class="node"><title>Node7</title>
<g id="a_node8"><a xlink:href="SDL__include_8h.html" target="_top" xlink:title="SDL_include.h">
<polygon fill="white" stroke="black" points="443.483,-0.5 443.483,-19.5 523.483,-19.5 523.483,-0.5 443.483,-0.5"/>
<text text-anchor="middle" x="483.483" y="-7.5" font-family="Helvetica,sans-Serif" font-size="10.00">SDL_include.h</text>
</a>
</g>
</g>
<!-- Node6&#45;&gt;Node7 -->
<g id="edge7" class="edge"><title>Node6&#45;&gt;Node7</title>
<path fill="none" stroke="midnightblue" d="M268.548,-280.297C248.406,-263.203 207.483,-223.051 207.483,-179 207.483,-179 207.483,-179 207.483,-121 207.483,-72.8939 354.001,-36.4934 433.53,-20.2788"/>
<polygon fill="midnightblue" stroke="midnightblue" points="434.234,-23.7075 443.35,-18.3097 432.857,-16.8441 434.234,-23.7075"/>
</g>
<!-- Node8 -->
<g id="node9" class="node"><title>Node8</title>
<polygon fill="white" stroke="#bfbfbf" points="235.483,-112.5 235.483,-131.5 287.483,-131.5 287.483,-112.5 235.483,-112.5"/>
<text text-anchor="middle" x="261.483" y="-119.5" font-family="Helvetica,sans-Serif" font-size="10.00">memory</text>
</g>
<!-- Node6&#45;&gt;Node8 -->
<g id="edge9" class="edge"><title>Node6&#45;&gt;Node8</title>
<path fill="none" stroke="midnightblue" d="M276.251,-280.18C273.128,-271.21 268.572,-256.842 266.483,-244 260.652,-208.154 260.413,-165.593 260.875,-141.699"/>
<polygon fill="midnightblue" stroke="midnightblue" points="264.377,-141.667 261.137,-131.579 257.379,-141.486 264.377,-141.667"/>
</g>
<!-- Node9 -->
<g id="node10" class="node"><title>Node9</title>
<g id="a_node10"><a xlink:href="Component_8h.html" target="_top" xlink:title="Component.h">
<polygon fill="white" stroke="black" points="275.983,-224.5 275.983,-243.5 350.983,-243.5 350.983,-224.5 275.983,-224.5"/>
<text text-anchor="middle" x="313.483" y="-231.5" font-family="Helvetica,sans-Serif" font-size="10.00">Component.h</text>
</a>
</g>
</g>
<!-- Node6&#45;&gt;Node9 -->
<g id="edge10" class="edge"><title>Node6&#45;&gt;Node9</title>
<path fill="none" stroke="midnightblue" d="M285.097,-280.083C289.85,-272.534 296.801,-261.495 302.635,-252.23"/>
<polygon fill="midnightblue" stroke="midnightblue" points="305.607,-254.078 307.973,-243.751 299.683,-250.349 305.607,-254.078"/>
</g>
<!-- Node6&#45;&gt;Node12 -->
<g id="edge26" class="edge"><title>Node6&#45;&gt;Node12</title>
<path fill="none" stroke="midnightblue" d="M297.796,-280.446C314.579,-272.211 339.742,-258.845 359.483,-244 371.131,-235.241 436.15,-169.874 466.665,-139.027"/>
<polygon fill="midnightblue" stroke="midnightblue" points="469.416,-141.222 473.956,-131.649 464.437,-136.301 469.416,-141.222"/>
</g>
<!-- Node15 -->
<g id="node16" class="node"><title>Node15</title>
<g id="a_node16"><a xlink:href="Color_8h.html" target="_top" xlink:title="Color.h">
<polygon fill="white" stroke="black" points="447.483,-168.5 447.483,-187.5 495.483,-187.5 495.483,-168.5 447.483,-168.5"/>
<text text-anchor="middle" x="471.483" y="-175.5" font-family="Helvetica,sans-Serif" font-size="10.00">Color.h</text>
</a>
</g>
</g>
<!-- Node6&#45;&gt;Node15 -->
<g id="edge24" class="edge"><title>Node6&#45;&gt;Node15</title>
<path fill="none" stroke="midnightblue" d="M304.722,-287.318C337.538,-283.957 395.175,-273.917 433.483,-244 448.902,-231.958 459.281,-211.778 465.242,-197.093"/>
<polygon fill="midnightblue" stroke="midnightblue" points="468.581,-198.158 468.811,-187.565 462.026,-195.702 468.581,-198.158"/>
</g>
<!-- Node16 -->
<g id="node17" class="node"><title>Node16</title>
<g id="a_node17"><a xlink:href="InputManager_8h.html" target="_top" xlink:title="InputManager.h">
<polygon fill="white" stroke="black" points="627.483,-112.5 627.483,-131.5 711.483,-131.5 711.483,-112.5 627.483,-112.5"/>
<text text-anchor="middle" x="669.483" y="-119.5" font-family="Helvetica,sans-Serif" font-size="10.00">InputManager.h</text>
</a>
</g>
</g>
<!-- Node6&#45;&gt;Node16 -->
<g id="edge27" class="edge"><title>Node6&#45;&gt;Node16</title>
<path fill="none" stroke="midnightblue" d="M304.774,-284.777C339.739,-278.449 404.424,-264.962 456.483,-244 531.04,-213.98 611.596,-162.341 648.663,-137.363"/>
<polygon fill="midnightblue" stroke="midnightblue" points="650.816,-140.132 657.12,-131.616 646.882,-134.342 650.816,-140.132"/>
</g>
<!-- Node10 -->
<g id="node11" class="node"><title>Node10</title>
<g id="a_node11"><a xlink:href="ComponentType_8h.html" target="_top" xlink:title="ComponentType.h">
<polygon fill="white" stroke="black" points="343.983,-112.5 343.983,-131.5 440.983,-131.5 440.983,-112.5 343.983,-112.5"/>
<text text-anchor="middle" x="392.483" y="-119.5" font-family="Helvetica,sans-Serif" font-size="10.00">ComponentType.h</text>
</a>
</g>
</g>
<!-- Node9&#45;&gt;Node10 -->
<g id="edge11" class="edge"><title>Node9&#45;&gt;Node10</title>
<path fill="none" stroke="midnightblue" d="M325.212,-224.429C335.992,-216.083 351.865,-202.557 362.483,-188 373.001,-173.579 381.159,-154.883 386.295,-141.246"/>
<polygon fill="midnightblue" stroke="midnightblue" points="389.683,-142.167 389.753,-131.573 383.091,-139.811 389.683,-142.167"/>
</g>
<!-- Node11 -->
<g id="node12" class="node"><title>Node11</title>
<g id="a_node12"><a xlink:href="GameObject_8h.html" target="_top" xlink:title="GameObject.h">
<polygon fill="white" stroke="black" points="273.483,-168.5 273.483,-187.5 353.483,-187.5 353.483,-168.5 273.483,-168.5"/>
<text text-anchor="middle" x="313.483" y="-175.5" font-family="Helvetica,sans-Serif" font-size="10.00">GameObject.h</text>
</a>
</g>
</g>
<!-- Node9&#45;&gt;Node11 -->
<g id="edge12" class="edge"><title>Node9&#45;&gt;Node11</title>
<path fill="none" stroke="midnightblue" d="M308.317,-224.083C306.807,-216.927 306.377,-206.635 307.026,-197.691"/>
<polygon fill="midnightblue" stroke="midnightblue" points="310.498,-198.126 308.352,-187.751 303.56,-197.2 310.498,-198.126"/>
</g>
<!-- Node11&#45;&gt;Node1 -->
<g id="edge16" class="edge"><title>Node11&#45;&gt;Node1</title>
<path fill="none" stroke="midnightblue" d="M275.362,-168.477C239.535,-160.322 184.207,-147.36 127.034,-132.031"/>
<polygon fill="midnightblue" stroke="midnightblue" points="127.664,-128.576 117.097,-129.348 125.839,-135.334 127.664,-128.576"/>
</g>
<!-- Node11&#45;&gt;Node2 -->
<g id="edge14" class="edge"><title>Node11&#45;&gt;Node2</title>
<path fill="none" stroke="midnightblue" d="M288.764,-168.444C261.866,-159.133 218.774,-144.216 189.352,-134.032"/>
<polygon fill="midnightblue" stroke="midnightblue" points="190.159,-130.607 179.564,-130.643 187.869,-137.222 190.159,-130.607"/>
</g>
<!-- Node11&#45;&gt;Node7 -->
<g id="edge13" class="edge"><title>Node11&#45;&gt;Node7</title>
<path fill="none" stroke="midnightblue" d="M314.485,-168.174C316.379,-154.833 321.528,-129.263 334.483,-112 365.896,-70.1406 419.974,-39.8255 453.62,-23.8643"/>
<polygon fill="midnightblue" stroke="midnightblue" points="455.332,-26.9287 462.945,-19.5598 452.398,-20.5731 455.332,-26.9287"/>
</g>
<!-- Node11&#45;&gt;Node8 -->
<g id="edge15" class="edge"><title>Node11&#45;&gt;Node8</title>
<path fill="none" stroke="midnightblue" d="M304.896,-168.083C297.324,-160.22 286.105,-148.569 276.969,-139.081"/>
<polygon fill="midnightblue" stroke="midnightblue" points="279.368,-136.527 269.91,-131.751 274.325,-141.382 279.368,-136.527"/>
</g>
<!-- Node11&#45;&gt;Node9 -->
<g id="edge17" class="edge"><title>Node11&#45;&gt;Node9</title>
<path fill="none" stroke="midnightblue" d="M318.614,-187.751C320.14,-194.858 320.587,-205.136 319.955,-214.101"/>
<polygon fill="midnightblue" stroke="midnightblue" points="316.476,-213.713 318.649,-224.083 323.417,-214.622 316.476,-213.713"/>
</g>
<!-- Node11&#45;&gt;Node10 -->
<g id="edge18" class="edge"><title>Node11&#45;&gt;Node10</title>
<path fill="none" stroke="midnightblue" d="M326.176,-168.324C338.384,-159.979 357.061,-147.212 371.486,-137.352"/>
<polygon fill="midnightblue" stroke="midnightblue" points="373.541,-140.187 379.822,-131.655 369.591,-134.408 373.541,-140.187"/>
</g>
<!-- Node11&#45;&gt;Node12 -->
<g id="edge19" class="edge"><title>Node11&#45;&gt;Node12</title>
<path fill="none" stroke="midnightblue" d="M340.262,-168.444C369.908,-158.971 417.712,-143.696 449.607,-133.505"/>
<polygon fill="midnightblue" stroke="midnightblue" points="450.9,-136.766 459.36,-130.388 448.769,-130.098 450.9,-136.766"/>
</g>
<!-- Node12&#45;&gt;Node7 -->
<g id="edge20" class="edge"><title>Node12&#45;&gt;Node7</title>
<path fill="none" stroke="midnightblue" d="M473.995,-112.458C462.982,-100.298 445.911,-77.1243 452.483,-56 455.712,-45.6222 462.259,-35.5209 468.508,-27.5268"/>
<polygon fill="midnightblue" stroke="midnightblue" points="471.268,-29.6818 475,-19.7661 465.899,-25.1902 471.268,-29.6818"/>
</g>
<!-- Node12&#45;&gt;Node13 -->
<g id="edge21" class="edge"><title>Node12&#45;&gt;Node13</title>
<path fill="none" stroke="midnightblue" d="M499.032,-112.324C515.475,-103.703 540.918,-90.3643 559.951,-80.3855"/>
<polygon fill="midnightblue" stroke="midnightblue" points="561.744,-83.3977 568.975,-75.6545 558.494,-77.198 561.744,-83.3977"/>
</g>
<!-- Node14 -->
<g id="node15" class="node"><title>Node14</title>
<polygon fill="white" stroke="#bfbfbf" points="461.483,-56.5 461.483,-75.5 505.483,-75.5 505.483,-56.5 461.483,-56.5"/>
<text text-anchor="middle" x="483.483" y="-63.5" font-family="Helvetica,sans-Serif" font-size="10.00">cmath</text>
</g>
<!-- Node12&#45;&gt;Node14 -->
<g id="edge23" class="edge"><title>Node12&#45;&gt;Node14</title>
<path fill="none" stroke="midnightblue" d="M482.648,-112.083C482.779,-105.006 482.967,-94.8611 483.131,-85.9865"/>
<polygon fill="midnightblue" stroke="midnightblue" points="486.635,-85.8142 483.321,-75.7511 479.636,-85.6845 486.635,-85.8142"/>
</g>
<!-- Node13&#45;&gt;Node7 -->
<g id="edge22" class="edge"><title>Node13&#45;&gt;Node7</title>
<path fill="none" stroke="midnightblue" d="M569.095,-56.324C552.812,-47.7034 527.616,-34.3643 508.767,-24.3855"/>
<polygon fill="midnightblue" stroke="midnightblue" points="510.306,-21.2402 499.83,-19.6545 507.031,-27.4267 510.306,-21.2402"/>
</g>
<!-- Node15&#45;&gt;Node7 -->
<g id="edge25" class="edge"><title>Node15&#45;&gt;Node7</title>
<path fill="none" stroke="midnightblue" d="M483.98,-168.302C494.357,-160.251 508.37,-147.245 514.483,-132 527.054,-100.649 524.517,-88.253 514.483,-56 511.254,-45.6222 504.707,-35.5209 498.458,-27.5268"/>
<polygon fill="midnightblue" stroke="midnightblue" points="501.067,-25.1902 491.966,-19.7661 495.698,-29.6818 501.067,-25.1902"/>
</g>
<!-- Node16&#45;&gt;Node7 -->
<g id="edge28" class="edge"><title>Node16&#45;&gt;Node7</title>
<path fill="none" stroke="midnightblue" d="M664.77,-112.074C656.967,-98.1278 640.06,-71.1977 618.483,-56 593.23,-38.2133 560.443,-27.0667 533.504,-20.3168"/>
<polygon fill="midnightblue" stroke="midnightblue" points="534.032,-16.8449 523.494,-17.9405 532.415,-23.6557 534.032,-16.8449"/>
</g>
<!-- Node16&#45;&gt;Node13 -->
<g id="edge29" class="edge"><title>Node16&#45;&gt;Node13</title>
<path fill="none" stroke="midnightblue" d="M655.987,-112.324C642.883,-103.9 622.771,-90.9709 607.376,-81.0741"/>
<polygon fill="midnightblue" stroke="midnightblue" points="609.25,-78.118 598.946,-75.6545 605.465,-84.0063 609.25,-78.118"/>
</g>
<!-- Node17 -->
<g id="node18" class="node"><title>Node17</title>
<polygon fill="white" stroke="#bfbfbf" points="665.983,-56.5 665.983,-75.5 748.983,-75.5 748.983,-56.5 665.983,-56.5"/>
<text text-anchor="middle" x="707.483" y="-63.5" font-family="Helvetica,sans-Serif" font-size="10.00">unordered_map</text>
</g>
<!-- Node16&#45;&gt;Node17 -->
<g id="edge30" class="edge"><title>Node16&#45;&gt;Node17</title>
<path fill="none" stroke="midnightblue" d="M675.758,-112.083C681.125,-104.455 689.001,-93.2645 695.562,-83.9408"/>
<polygon fill="midnightblue" stroke="midnightblue" points="698.432,-85.9434 701.325,-75.7511 692.708,-81.9149 698.432,-85.9434"/>
</g>
<!-- Node18 -->
<g id="node19" class="node"><title>Node18</title>
<polygon fill="white" stroke="#bfbfbf" points="767.483,-56.5 767.483,-75.5 813.483,-75.5 813.483,-56.5 767.483,-56.5"/>
<text text-anchor="middle" x="790.483" y="-63.5" font-family="Helvetica,sans-Serif" font-size="10.00">cstdint</text>
</g>
<!-- Node16&#45;&gt;Node18 -->
<g id="edge31" class="edge"><title>Node16&#45;&gt;Node18</title>
<path fill="none" stroke="midnightblue" d="M688.656,-112.444C708.392,-103.636 739.368,-89.8116 761.976,-79.722"/>
<polygon fill="midnightblue" stroke="midnightblue" points="763.694,-82.788 771.4,-75.5164 760.842,-76.3957 763.694,-82.788"/>
</g>
</g>
</svg>
