<?xml version="1.0" encoding="UTF-8" standalone="no"?>
<!DOCTYPE svg PUBLIC "-//W3C//DTD SVG 1.1//EN"
 "http://www.w3.org/Graphics/SVG/1.1/DTD/svg11.dtd">
<!-- Generated by graphviz version 2.38.0 (20140413.2041)
 -->
<!-- Title: src/Tileset.cpp Pages: 1 -->
<svg width="975pt" height="364pt"
 viewBox="0.00 0.00 975.00 364.00" xmlns="http://www.w3.org/2000/svg" xmlns:xlink="http://www.w3.org/1999/xlink">
<g id="graph0" class="graph" transform="scale(1 1) rotate(0) translate(4 360)">
<title>src/Tileset.cpp</title>
<polygon fill="white" stroke="none" points="-4,4 -4,-360 971,-360 971,4 -4,4"/>
<!-- Node0 -->
<g id="node1" class="node"><title>Node0</title>
<polygon fill="#bfbfbf" stroke="black" points="319.5,-336.5 319.5,-355.5 400.5,-355.5 400.5,-336.5 319.5,-336.5"/>
<text text-anchor="middle" x="360" y="-343.5" font-family="Helvetica,sans-Serif" font-size="10.00">src/Tileset.cpp</text>
</g>
<!-- Node1 -->
<g id="node2" class="node"><title>Node1</title>
<g id="a_node2"><a xlink:href="Tileset_8h.html" target="_top" xlink:title="Tileset.h">
<polygon fill="white" stroke="black" points="602,-224.5 602,-243.5 656,-243.5 656,-224.5 602,-224.5"/>
<text text-anchor="middle" x="629" y="-231.5" font-family="Helvetica,sans-Serif" font-size="10.00">Tileset.h</text>
</a>
</g>
</g>
<!-- Node0&#45;&gt;Node1 -->
<g id="edge1" class="edge"><title>Node0&#45;&gt;Node1</title>
<path fill="none" stroke="midnightblue" d="M381.108,-336.368C428.447,-317.01 543.251,-270.065 598.414,-247.507"/>
<polygon fill="midnightblue" stroke="midnightblue" points="600.059,-250.616 607.99,-243.591 597.409,-244.137 600.059,-250.616"/>
</g>
<!-- Node13 -->
<g id="node14" class="node"><title>Node13</title>
<g id="a_node14"><a xlink:href="Error_8h.html" target="_top" xlink:title="Error.h">
<polygon fill="white" stroke="black" points="73,-280.5 73,-299.5 119,-299.5 119,-280.5 73,-280.5"/>
<text text-anchor="middle" x="96" y="-287.5" font-family="Helvetica,sans-Serif" font-size="10.00">Error.h</text>
</a>
</g>
</g>
<!-- Node0&#45;&gt;Node13 -->
<g id="edge19" class="edge"><title>Node0&#45;&gt;Node13</title>
<path fill="none" stroke="midnightblue" d="M319.329,-336.681C267.046,-325.987 177.269,-307.623 129.001,-297.75"/>
<polygon fill="midnightblue" stroke="midnightblue" points="129.576,-294.296 119.078,-295.72 128.174,-301.154 129.576,-294.296"/>
</g>
<!-- Node16 -->
<g id="node17" class="node"><title>Node16</title>
<g id="a_node17"><a xlink:href="Game_8h.html" target="_top" xlink:title="Game.h">
<polygon fill="white" stroke="black" points="306.5,-280.5 306.5,-299.5 357.5,-299.5 357.5,-280.5 306.5,-280.5"/>
<text text-anchor="middle" x="332" y="-287.5" font-family="Helvetica,sans-Serif" font-size="10.00">Game.h</text>
</a>
</g>
</g>
<!-- Node0&#45;&gt;Node16 -->
<g id="edge22" class="edge"><title>Node0&#45;&gt;Node16</title>
<path fill="none" stroke="midnightblue" d="M355.376,-336.083C351.544,-328.691 345.976,-317.953 341.235,-308.811"/>
<polygon fill="midnightblue" stroke="midnightblue" points="344.248,-307.018 336.538,-299.751 338.034,-310.24 344.248,-307.018"/>
</g>
<!-- Node24 -->
<g id="node25" class="node"><title>Node24</title>
<g id="a_node25"><a xlink:href="Camera_8h.html" target="_top" xlink:title="Camera.h">
<polygon fill="white" stroke="black" points="360.5,-224.5 360.5,-243.5 419.5,-243.5 419.5,-224.5 360.5,-224.5"/>
<text text-anchor="middle" x="390" y="-231.5" font-family="Helvetica,sans-Serif" font-size="10.00">Camera.h</text>
</a>
</g>
</g>
<!-- Node0&#45;&gt;Node24 -->
<g id="edge47" class="edge"><title>Node0&#45;&gt;Node24</title>
<path fill="none" stroke="midnightblue" d="M362.354,-336.368C367.217,-318.537 378.465,-277.295 385.017,-253.272"/>
<polygon fill="midnightblue" stroke="midnightblue" points="388.402,-254.16 387.657,-243.591 381.649,-252.318 388.402,-254.16"/>
</g>
<!-- Node2 -->
<g id="node3" class="node"><title>Node2</title>
<polygon fill="white" stroke="#bfbfbf" points="553.5,-112.5 553.5,-131.5 594.5,-131.5 594.5,-112.5 553.5,-112.5"/>
<text text-anchor="middle" x="574" y="-119.5" font-family="Helvetica,sans-Serif" font-size="10.00">string</text>
</g>
<!-- Node1&#45;&gt;Node2 -->
<g id="edge2" class="edge"><title>Node1&#45;&gt;Node2</title>
<path fill="none" stroke="midnightblue" d="M624.684,-224.368C615.688,-206.376 594.775,-164.55 582.813,-140.627"/>
<polygon fill="midnightblue" stroke="midnightblue" points="585.898,-138.97 578.296,-131.591 579.637,-142.101 585.898,-138.97"/>
</g>
<!-- Node3 -->
<g id="node4" class="node"><title>Node3</title>
<g id="a_node4"><a xlink:href="Sprite_8h.html" target="_top" xlink:title="Sprite.h">
<polygon fill="white" stroke="black" points="640,-168.5 640,-187.5 690,-187.5 690,-168.5 640,-168.5"/>
<text text-anchor="middle" x="665" y="-175.5" font-family="Helvetica,sans-Serif" font-size="10.00">Sprite.h</text>
</a>
</g>
</g>
<!-- Node1&#45;&gt;Node3 -->
<g id="edge3" class="edge"><title>Node1&#45;&gt;Node3</title>
<path fill="none" stroke="midnightblue" d="M634.945,-224.083C639.977,-216.534 647.337,-205.495 653.513,-196.23"/>
<polygon fill="midnightblue" stroke="midnightblue" points="656.531,-198.013 659.166,-187.751 650.707,-194.13 656.531,-198.013"/>
</g>
<!-- Node3&#45;&gt;Node2 -->
<g id="edge5" class="edge"><title>Node3&#45;&gt;Node2</title>
<path fill="none" stroke="midnightblue" d="M650.379,-168.324C636.051,-159.822 613.987,-146.729 597.251,-136.797"/>
<polygon fill="midnightblue" stroke="midnightblue" points="598.97,-133.748 588.584,-131.655 595.398,-139.768 598.97,-133.748"/>
</g>
<!-- Node4 -->
<g id="node5" class="node"><title>Node4</title>
<g id="a_node5"><a xlink:href="SDL__include_8h.html" target="_top" xlink:title="SDL_include.h">
<polygon fill="white" stroke="black" points="467,-0.5 467,-19.5 547,-19.5 547,-0.5 467,-0.5"/>
<text text-anchor="middle" x="507" y="-7.5" font-family="Helvetica,sans-Serif" font-size="10.00">SDL_include.h</text>
</a>
</g>
</g>
<!-- Node3&#45;&gt;Node4 -->
<g id="edge4" class="edge"><title>Node3&#45;&gt;Node4</title>
<path fill="none" stroke="midnightblue" d="M656.505,-168.075C630.989,-141.267 554.771,-61.1902 522.12,-26.8851"/>
<polygon fill="midnightblue" stroke="midnightblue" points="524.585,-24.3986 515.155,-19.5681 519.514,-29.2246 524.585,-24.3986"/>
</g>
<!-- Node5 -->
<g id="node6" class="node"><title>Node5</title>
<polygon fill="white" stroke="#bfbfbf" points="483,-112.5 483,-131.5 535,-131.5 535,-112.5 483,-112.5"/>
<text text-anchor="middle" x="509" y="-119.5" font-family="Helvetica,sans-Serif" font-size="10.00">memory</text>
</g>
<!-- Node3&#45;&gt;Node5 -->
<g id="edge6" class="edge"><title>Node3&#45;&gt;Node5</title>
<path fill="none" stroke="midnightblue" d="M640.281,-168.444C614.152,-159.399 572.741,-145.064 543.424,-134.916"/>
<polygon fill="midnightblue" stroke="midnightblue" points="544.198,-131.48 533.603,-131.516 541.908,-138.095 544.198,-131.48"/>
</g>
<!-- Node6 -->
<g id="node7" class="node"><title>Node6</title>
<g id="a_node7"><a xlink:href="Color_8h.html" target="_top" xlink:title="Color.h">
<polygon fill="white" stroke="black" points="587,-56.5 587,-75.5 635,-75.5 635,-56.5 587,-56.5"/>
<text text-anchor="middle" x="611" y="-63.5" font-family="Helvetica,sans-Serif" font-size="10.00">Color.h</text>
</a>
</g>
</g>
<!-- Node3&#45;&gt;Node6 -->
<g id="edge7" class="edge"><title>Node3&#45;&gt;Node6</title>
<path fill="none" stroke="midnightblue" d="M661.686,-168.441C656.735,-155.871 646.924,-131.765 637,-112 632.344,-102.727 626.624,-92.7044 621.736,-84.4769"/>
<polygon fill="midnightblue" stroke="midnightblue" points="624.659,-82.5464 616.494,-75.7955 618.667,-86.165 624.659,-82.5464"/>
</g>
<!-- Node7 -->
<g id="node8" class="node"><title>Node7</title>
<g id="a_node8"><a xlink:href="Rect_8h.html" target="_top" xlink:title="Rect.h">
<polygon fill="white" stroke="black" points="689,-112.5 689,-131.5 735,-131.5 735,-112.5 689,-112.5"/>
<text text-anchor="middle" x="712" y="-119.5" font-family="Helvetica,sans-Serif" font-size="10.00">Rect.h</text>
</a>
</g>
</g>
<!-- Node3&#45;&gt;Node7 -->
<g id="edge9" class="edge"><title>Node3&#45;&gt;Node7</title>
<path fill="none" stroke="midnightblue" d="M672.761,-168.083C679.537,-160.298 689.543,-148.801 697.755,-139.367"/>
<polygon fill="midnightblue" stroke="midnightblue" points="700.458,-141.592 704.383,-131.751 695.178,-136.996 700.458,-141.592"/>
</g>
<!-- Node10 -->
<g id="node11" class="node"><title>Node10</title>
<g id="a_node11"><a xlink:href="InputManager_8h.html" target="_top" xlink:title="InputManager.h">
<polygon fill="white" stroke="black" points="218,-112.5 218,-131.5 302,-131.5 302,-112.5 218,-112.5"/>
<text text-anchor="middle" x="260" y="-119.5" font-family="Helvetica,sans-Serif" font-size="10.00">InputManager.h</text>
</a>
</g>
</g>
<!-- Node3&#45;&gt;Node10 -->
<g id="edge14" class="edge"><title>Node3&#45;&gt;Node10</title>
<path fill="none" stroke="midnightblue" d="M639.971,-173.663C575.025,-165.003 400.054,-141.674 312.046,-129.94"/>
<polygon fill="midnightblue" stroke="midnightblue" points="312.389,-126.454 302.014,-128.602 311.464,-133.393 312.389,-126.454"/>
</g>
<!-- Node6&#45;&gt;Node4 -->
<g id="edge8" class="edge"><title>Node6&#45;&gt;Node4</title>
<path fill="none" stroke="midnightblue" d="M594.291,-56.324C577.688,-47.7034 551.998,-34.3643 532.78,-24.3855"/>
<polygon fill="midnightblue" stroke="midnightblue" points="534.156,-21.1565 523.668,-19.6545 530.93,-27.3689 534.156,-21.1565"/>
</g>
<!-- Node7&#45;&gt;Node4 -->
<g id="edge10" class="edge"><title>Node7&#45;&gt;Node4</title>
<path fill="none" stroke="midnightblue" d="M714.107,-112.187C716.836,-98.3955 719.753,-71.6737 706,-56 686.726,-34.0349 609.629,-21.6903 557.253,-15.6895"/>
<polygon fill="midnightblue" stroke="midnightblue" points="557.455,-12.1906 547.132,-14.5729 556.688,-19.1484 557.455,-12.1906"/>
</g>
<!-- Node8 -->
<g id="node9" class="node"><title>Node8</title>
<g id="a_node9"><a xlink:href="Vec2_8h.html" target="_top" xlink:title="Vec2.h">
<polygon fill="white" stroke="black" points="379.5,-56.5 379.5,-75.5 426.5,-75.5 426.5,-56.5 379.5,-56.5"/>
<text text-anchor="middle" x="403" y="-63.5" font-family="Helvetica,sans-Serif" font-size="10.00">Vec2.h</text>
</a>
</g>
</g>
<!-- Node7&#45;&gt;Node8 -->
<g id="edge11" class="edge"><title>Node7&#45;&gt;Node8</title>
<path fill="none" stroke="midnightblue" d="M688.775,-116.941C634.663,-107.485 500.006,-83.9525 436.787,-72.9046"/>
<polygon fill="midnightblue" stroke="midnightblue" points="437.373,-69.4539 426.919,-71.1801 436.168,-76.3494 437.373,-69.4539"/>
</g>
<!-- Node9 -->
<g id="node10" class="node"><title>Node9</title>
<polygon fill="white" stroke="#bfbfbf" points="653,-56.5 653,-75.5 697,-75.5 697,-56.5 653,-56.5"/>
<text text-anchor="middle" x="675" y="-63.5" font-family="Helvetica,sans-Serif" font-size="10.00">cmath</text>
</g>
<!-- Node7&#45;&gt;Node9 -->
<g id="edge13" class="edge"><title>Node7&#45;&gt;Node9</title>
<path fill="none" stroke="midnightblue" d="M705.89,-112.083C700.718,-104.534 693.154,-93.4948 686.806,-84.2298"/>
<polygon fill="midnightblue" stroke="midnightblue" points="689.536,-82.0221 680.996,-75.7511 683.761,-85.9787 689.536,-82.0221"/>
</g>
<!-- Node8&#45;&gt;Node4 -->
<g id="edge12" class="edge"><title>Node8&#45;&gt;Node4</title>
<path fill="none" stroke="midnightblue" d="M419.709,-56.324C436.312,-47.7034 462.002,-34.3643 481.22,-24.3855"/>
<polygon fill="midnightblue" stroke="midnightblue" points="483.07,-27.3689 490.332,-19.6545 479.844,-21.1565 483.07,-27.3689"/>
</g>
<!-- Node10&#45;&gt;Node4 -->
<g id="edge15" class="edge"><title>Node10&#45;&gt;Node4</title>
<path fill="none" stroke="midnightblue" d="M243.377,-112.335C221.497,-99.8354 187.723,-76.0419 205,-56 236.858,-19.0432 379.066,-11.968 456.443,-10.9092"/>
<polygon fill="midnightblue" stroke="midnightblue" points="456.951,-14.4041 466.913,-10.7972 456.876,-7.40446 456.951,-14.4041"/>
</g>
<!-- Node10&#45;&gt;Node8 -->
<g id="edge16" class="edge"><title>Node10&#45;&gt;Node8</title>
<path fill="none" stroke="midnightblue" d="M282.659,-112.444C306.402,-103.478 343.909,-89.314 370.738,-79.1827"/>
<polygon fill="midnightblue" stroke="midnightblue" points="372.329,-82.3235 380.447,-75.5164 369.856,-75.7749 372.329,-82.3235"/>
</g>
<!-- Node11 -->
<g id="node12" class="node"><title>Node11</title>
<polygon fill="white" stroke="#bfbfbf" points="278.5,-56.5 278.5,-75.5 361.5,-75.5 361.5,-56.5 278.5,-56.5"/>
<text text-anchor="middle" x="320" y="-63.5" font-family="Helvetica,sans-Serif" font-size="10.00">unordered_map</text>
</g>
<!-- Node10&#45;&gt;Node11 -->
<g id="edge17" class="edge"><title>Node10&#45;&gt;Node11</title>
<path fill="none" stroke="midnightblue" d="M269.64,-112.324C278.51,-104.341 291.875,-92.3128 302.608,-82.6529"/>
<polygon fill="midnightblue" stroke="midnightblue" points="305.093,-85.1251 310.185,-75.8339 300.41,-79.922 305.093,-85.1251"/>
</g>
<!-- Node12 -->
<g id="node13" class="node"><title>Node12</title>
<polygon fill="white" stroke="#bfbfbf" points="214,-56.5 214,-75.5 260,-75.5 260,-56.5 214,-56.5"/>
<text text-anchor="middle" x="237" y="-63.5" font-family="Helvetica,sans-Serif" font-size="10.00">cstdint</text>
</g>
<!-- Node10&#45;&gt;Node12 -->
<g id="edge18" class="edge"><title>Node10&#45;&gt;Node12</title>
<path fill="none" stroke="midnightblue" d="M256.202,-112.083C253.087,-104.77 248.577,-94.1814 244.711,-85.1034"/>
<polygon fill="midnightblue" stroke="midnightblue" points="247.866,-83.5798 240.727,-75.7511 241.426,-86.3229 247.866,-83.5798"/>
</g>
<!-- Node14 -->
<g id="node15" class="node"><title>Node14</title>
<polygon fill="white" stroke="#bfbfbf" points="0,-224.5 0,-243.5 54,-243.5 54,-224.5 0,-224.5"/>
<text text-anchor="middle" x="27" y="-231.5" font-family="Helvetica,sans-Serif" font-size="10.00">iostream</text>
</g>
<!-- Node13&#45;&gt;Node14 -->
<g id="edge20" class="edge"><title>Node13&#45;&gt;Node14</title>
<path fill="none" stroke="midnightblue" d="M84.914,-280.324C74.514,-272.185 58.7394,-259.839 46.2784,-250.087"/>
<polygon fill="midnightblue" stroke="midnightblue" points="48.3199,-247.241 38.2878,-243.834 44.0057,-252.753 48.3199,-247.241"/>
</g>
<!-- Node15 -->
<g id="node16" class="node"><title>Node15</title>
<polygon fill="white" stroke="#bfbfbf" points="72,-224.5 72,-243.5 120,-243.5 120,-224.5 72,-224.5"/>
<text text-anchor="middle" x="96" y="-231.5" font-family="Helvetica,sans-Serif" font-size="10.00">stdlib.h</text>
</g>
<!-- Node13&#45;&gt;Node15 -->
<g id="edge21" class="edge"><title>Node13&#45;&gt;Node15</title>
<path fill="none" stroke="midnightblue" d="M96,-280.083C96,-273.006 96,-262.861 96,-253.986"/>
<polygon fill="midnightblue" stroke="midnightblue" points="99.5001,-253.751 96,-243.751 92.5001,-253.751 99.5001,-253.751"/>
</g>
<!-- Node16&#45;&gt;Node2 -->
<g id="edge23" class="edge"><title>Node16&#45;&gt;Node2</title>
<path fill="none" stroke="midnightblue" d="M357.807,-286.21C405.42,-280.578 504.553,-266.443 530,-244 560.083,-217.469 569.611,-168.68 572.62,-141.872"/>
<polygon fill="midnightblue" stroke="midnightblue" points="576.138,-141.838 573.572,-131.559 569.167,-141.194 576.138,-141.838"/>
</g>
<!-- Node16&#45;&gt;Node4 -->
<g id="edge46" class="edge"><title>Node16&#45;&gt;Node4</title>
<path fill="none" stroke="midnightblue" d="M306.49,-289.343C270.482,-288.403 204.921,-281.24 167,-244 145.526,-222.911 148,-209.098 148,-179 148,-179 148,-179 148,-121 148,-84.8221 165.868,-74.4293 197,-56 239.908,-30.5995 380.406,-18.4988 456.668,-13.6773"/>
<polygon fill="midnightblue" stroke="midnightblue" points="457.219,-17.1502 466.986,-13.0446 456.791,-10.1633 457.219,-17.1502"/>
</g>
<!-- Node16&#45;&gt;Node8 -->
<g id="edge45" class="edge"><title>Node16&#45;&gt;Node8</title>
<path fill="none" stroke="midnightblue" d="M334.483,-280.139C338.02,-267.6 344.773,-243.98 351,-224 366.681,-173.684 386.608,-114.81 396.631,-85.5162"/>
<polygon fill="midnightblue" stroke="midnightblue" points="400.024,-86.4117 399.958,-75.8171 393.402,-84.1405 400.024,-86.4117"/>
</g>
<!-- Node16&#45;&gt;Node10 -->
<g id="edge44" class="edge"><title>Node16&#45;&gt;Node10</title>
<path fill="none" stroke="midnightblue" d="M312.373,-280.373C282.672,-266.092 227.399,-234.433 205,-188 195.352,-168.001 215.962,-149.092 234.643,-136.88"/>
<polygon fill="midnightblue" stroke="midnightblue" points="236.551,-139.816 243.246,-131.604 232.892,-133.849 236.551,-139.816"/>
</g>
<!-- Node17 -->
<g id="node18" class="node"><title>Node17</title>
<polygon fill="white" stroke="#bfbfbf" points="176.5,-224.5 176.5,-243.5 217.5,-243.5 217.5,-224.5 176.5,-224.5"/>
<text text-anchor="middle" x="197" y="-231.5" font-family="Helvetica,sans-Serif" font-size="10.00">stack</text>
</g>
<!-- Node16&#45;&gt;Node17 -->
<g id="edge24" class="edge"><title>Node16&#45;&gt;Node17</title>
<path fill="none" stroke="midnightblue" d="M310.609,-280.444C288.161,-271.465 252.682,-257.273 227.347,-247.139"/>
<polygon fill="midnightblue" stroke="midnightblue" points="228.432,-243.803 217.847,-243.339 225.832,-250.303 228.432,-243.803"/>
</g>
<!-- Node18 -->
<g id="node19" class="node"><title>Node18</title>
<g id="a_node19"><a xlink:href="State_8h.html" target="_top" xlink:title="State.h">
<polygon fill="white" stroke="black" points="473,-224.5 473,-243.5 521,-243.5 521,-224.5 473,-224.5"/>
<text text-anchor="middle" x="497" y="-231.5" font-family="Helvetica,sans-Serif" font-size="10.00">State.h</text>
</a>
</g>
</g>
<!-- Node16&#45;&gt;Node18 -->
<g id="edge25" class="edge"><title>Node16&#45;&gt;Node18</title>
<path fill="none" stroke="midnightblue" d="M357.781,-280.562C386.161,-271.275 431.896,-256.307 463.146,-246.08"/>
<polygon fill="midnightblue" stroke="midnightblue" points="464.327,-249.376 472.742,-242.939 462.15,-242.723 464.327,-249.376"/>
</g>
<!-- Node18&#45;&gt;Node5 -->
<g id="edge27" class="edge"><title>Node18&#45;&gt;Node5</title>
<path fill="none" stroke="midnightblue" d="M502.13,-224.407C507.058,-215.614 514.16,-201.381 517,-188 520.282,-172.533 517.638,-154.69 514.537,-141.616"/>
<polygon fill="midnightblue" stroke="midnightblue" points="517.908,-140.67 511.946,-131.912 511.145,-142.476 517.908,-140.67"/>
</g>
<!-- Node18&#45;&gt;Node10 -->
<g id="edge28" class="edge"><title>Node18&#45;&gt;Node10</title>
<path fill="none" stroke="midnightblue" d="M478.403,-224.368C436.955,-205.131 336.805,-158.648 287.861,-135.931"/>
<polygon fill="midnightblue" stroke="midnightblue" points="289.055,-132.627 278.511,-131.591 286.108,-138.976 289.055,-132.627"/>
</g>
<!-- Node19 -->
<g id="node20" class="node"><title>Node19</title>
<polygon fill="white" stroke="#bfbfbf" points="923,-112.5 923,-131.5 967,-131.5 967,-112.5 923,-112.5"/>
<text text-anchor="middle" x="945" y="-119.5" font-family="Helvetica,sans-Serif" font-size="10.00">vector</text>
</g>
<!-- Node18&#45;&gt;Node19 -->
<g id="edge26" class="edge"><title>Node18&#45;&gt;Node19</title>
<path fill="none" stroke="midnightblue" d="M521.096,-230.392C583.917,-223.448 751.532,-203.948 805,-188 847.726,-175.256 894.052,-151.621 921.25,-136.634"/>
<polygon fill="midnightblue" stroke="midnightblue" points="923.012,-139.659 930.035,-131.726 919.598,-133.548 923.012,-139.659"/>
</g>
<!-- Node20 -->
<g id="node21" class="node"><title>Node20</title>
<g id="a_node21"><a xlink:href="Resources_8h.html" target="_top" xlink:title="Resources.h">
<polygon fill="white" stroke="black" points="436,-168.5 436,-187.5 508,-187.5 508,-168.5 436,-168.5"/>
<text text-anchor="middle" x="472" y="-175.5" font-family="Helvetica,sans-Serif" font-size="10.00">Resources.h</text>
</a>
</g>
</g>
<!-- Node18&#45;&gt;Node20 -->
<g id="edge29" class="edge"><title>Node18&#45;&gt;Node20</title>
<path fill="none" stroke="midnightblue" d="M492.872,-224.083C489.486,-216.77 484.584,-206.181 480.381,-197.103"/>
<polygon fill="midnightblue" stroke="midnightblue" points="483.429,-195.355 476.051,-187.751 477.077,-198.296 483.429,-195.355"/>
</g>
<!-- Node21 -->
<g id="node22" class="node"><title>Node21</title>
<g id="a_node22"><a xlink:href="GameObject_8h.html" target="_top" xlink:title="GameObject.h">
<polygon fill="white" stroke="black" points="716,-168.5 716,-187.5 796,-187.5 796,-168.5 716,-168.5"/>
<text text-anchor="middle" x="756" y="-175.5" font-family="Helvetica,sans-Serif" font-size="10.00">GameObject.h</text>
</a>
</g>
</g>
<!-- Node18&#45;&gt;Node21 -->
<g id="edge34" class="edge"><title>Node18&#45;&gt;Node21</title>
<path fill="none" stroke="midnightblue" d="M521.366,-227.92C563.451,-219.145 650.563,-200.983 705.991,-189.427"/>
<polygon fill="midnightblue" stroke="midnightblue" points="706.879,-192.817 715.954,-187.349 705.45,-185.964 706.879,-192.817"/>
</g>
<!-- Node20&#45;&gt;Node2 -->
<g id="edge31" class="edge"><title>Node20&#45;&gt;Node2</title>
<path fill="none" stroke="midnightblue" d="M488.388,-168.324C504.671,-159.703 529.867,-146.364 548.716,-136.386"/>
<polygon fill="midnightblue" stroke="midnightblue" points="550.452,-139.427 557.653,-131.655 547.177,-133.24 550.452,-139.427"/>
</g>
<!-- Node20&#45;&gt;Node4 -->
<g id="edge30" class="edge"><title>Node20&#45;&gt;Node4</title>
<path fill="none" stroke="midnightblue" d="M471.479,-168.087C470.922,-155.488 470.535,-131.795 474,-112 479.23,-82.1191 491.358,-48.9512 499.363,-29.0491"/>
<polygon fill="midnightblue" stroke="midnightblue" points="502.642,-30.2792 503.216,-19.7 496.17,-27.6119 502.642,-30.2792"/>
</g>
<!-- Node20&#45;&gt;Node5 -->
<g id="edge33" class="edge"><title>Node20&#45;&gt;Node5</title>
<path fill="none" stroke="midnightblue" d="M478.11,-168.083C483.282,-160.534 490.846,-149.495 497.194,-140.23"/>
<polygon fill="midnightblue" stroke="midnightblue" points="500.239,-141.979 503.004,-131.751 494.464,-138.022 500.239,-141.979"/>
</g>
<!-- Node20&#45;&gt;Node11 -->
<g id="edge32" class="edge"><title>Node20&#45;&gt;Node11</title>
<path fill="none" stroke="midnightblue" d="M460.073,-168.368C434.101,-149.573 372.189,-104.768 340.082,-81.5334"/>
<polygon fill="midnightblue" stroke="midnightblue" points="342.025,-78.6187 331.872,-75.5914 337.921,-84.2896 342.025,-78.6187"/>
</g>
<!-- Node21&#45;&gt;Node2 -->
<g id="edge38" class="edge"><title>Node21&#45;&gt;Node2</title>
<path fill="none" stroke="midnightblue" d="M727.162,-168.444C693.643,-158.499 638.572,-142.159 604.401,-132.02"/>
<polygon fill="midnightblue" stroke="midnightblue" points="605.096,-128.576 594.514,-129.086 603.105,-135.286 605.096,-128.576"/>
</g>
<!-- Node21&#45;&gt;Node4 -->
<g id="edge35" class="edge"><title>Node21&#45;&gt;Node4</title>
<path fill="none" stroke="midnightblue" d="M756.745,-168.341C758.15,-145.904 758.477,-85.5777 725,-56 700.599,-34.4412 613.864,-21.7664 557.431,-15.6211"/>
<polygon fill="midnightblue" stroke="midnightblue" points="557.58,-12.1175 547.268,-14.5489 556.845,-19.0788 557.58,-12.1175"/>
</g>
<!-- Node21&#45;&gt;Node5 -->
<g id="edge37" class="edge"><title>Node21&#45;&gt;Node5</title>
<path fill="none" stroke="midnightblue" d="M715.639,-168.965C674.989,-160.754 610.237,-147.354 545.337,-132.242"/>
<polygon fill="midnightblue" stroke="midnightblue" points="545.878,-128.775 535.344,-129.902 544.282,-135.59 545.878,-128.775"/>
</g>
<!-- Node21&#45;&gt;Node7 -->
<g id="edge43" class="edge"><title>Node21&#45;&gt;Node7</title>
<path fill="none" stroke="midnightblue" d="M748.734,-168.083C742.455,-160.377 733.212,-149.033 725.569,-139.653"/>
<polygon fill="midnightblue" stroke="midnightblue" points="728.161,-137.293 719.131,-131.751 722.734,-141.714 728.161,-137.293"/>
</g>
<!-- Node21&#45;&gt;Node19 -->
<g id="edge36" class="edge"><title>Node21&#45;&gt;Node19</title>
<path fill="none" stroke="midnightblue" d="M785.948,-168.444C820.621,-158.537 877.504,-142.285 913.019,-132.137"/>
<polygon fill="midnightblue" stroke="midnightblue" points="914.216,-135.436 922.87,-129.323 912.293,-128.705 914.216,-135.436"/>
</g>
<!-- Node22 -->
<g id="node23" class="node"><title>Node22</title>
<g id="a_node23"><a xlink:href="Component_8h.html" target="_top" xlink:title="Component.h">
<polygon fill="white" stroke="black" points="791.5,-112.5 791.5,-131.5 866.5,-131.5 866.5,-112.5 791.5,-112.5"/>
<text text-anchor="middle" x="829" y="-119.5" font-family="Helvetica,sans-Serif" font-size="10.00">Component.h</text>
</a>
</g>
</g>
<!-- Node21&#45;&gt;Node22 -->
<g id="edge39" class="edge"><title>Node21&#45;&gt;Node22</title>
<path fill="none" stroke="midnightblue" d="M762.614,-168.324C772.088,-159.979 789.038,-147.212 803.554,-137.352"/>
<polygon fill="midnightblue" stroke="midnightblue" points="805.771,-140.083 812.19,-131.655 801.916,-134.24 805.771,-140.083"/>
</g>
<!-- Node23 -->
<g id="node24" class="node"><title>Node23</title>
<g id="a_node24"><a xlink:href="ComponentType_8h.html" target="_top" xlink:title="ComponentType.h">
<polygon fill="white" stroke="black" points="818.5,-56.5 818.5,-75.5 915.5,-75.5 915.5,-56.5 818.5,-56.5"/>
<text text-anchor="middle" x="867" y="-63.5" font-family="Helvetica,sans-Serif" font-size="10.00">ComponentType.h</text>
</a>
</g>
</g>
<!-- Node21&#45;&gt;Node23 -->
<g id="edge42" class="edge"><title>Node21&#45;&gt;Node23</title>
<path fill="none" stroke="midnightblue" d="M796.039,-173.376C823.237,-168.592 857.359,-157.531 875,-132 884.374,-118.434 880.559,-99.3767 875.49,-85.4045"/>
<polygon fill="midnightblue" stroke="midnightblue" points="878.614,-83.7982 871.568,-75.8862 872.142,-86.4654 878.614,-83.7982"/>
</g>
<!-- Node22&#45;&gt;Node21 -->
<g id="edge41" class="edge"><title>Node22&#45;&gt;Node21</title>
<path fill="none" stroke="midnightblue" d="M822.207,-131.834C812.695,-140.184 795.859,-152.859 781.43,-162.658"/>
<polygon fill="midnightblue" stroke="midnightblue" points="779.263,-159.895 772.844,-168.324 783.118,-165.738 779.263,-159.895"/>
</g>
<!-- Node22&#45;&gt;Node23 -->
<g id="edge40" class="edge"><title>Node22&#45;&gt;Node23</title>
<path fill="none" stroke="midnightblue" d="M835.275,-112.083C840.642,-104.455 848.518,-93.2645 855.079,-83.9408"/>
<polygon fill="midnightblue" stroke="midnightblue" points="857.949,-85.9434 860.842,-75.7511 852.225,-81.9149 857.949,-85.9434"/>
</g>
<!-- Node24&#45;&gt;Node8 -->
<g id="edge49" class="edge"><title>Node24&#45;&gt;Node8</title>
<path fill="none" stroke="midnightblue" d="M390.699,-224.075C392.745,-197.945 398.755,-121.211 401.545,-85.577"/>
<polygon fill="midnightblue" stroke="midnightblue" points="405.037,-85.8109 402.329,-75.5681 398.059,-85.2643 405.037,-85.8109"/>
</g>
<!-- Node24&#45;&gt;Node21 -->
<g id="edge48" class="edge"><title>Node24&#45;&gt;Node21</title>
<path fill="none" stroke="midnightblue" d="M419.847,-228.775C475.007,-220.939 596.628,-203.536 699,-188 701.213,-187.664 703.474,-187.318 705.758,-186.967"/>
<polygon fill="midnightblue" stroke="midnightblue" points="706.492,-190.395 715.838,-185.403 705.419,-183.478 706.492,-190.395"/>
</g>
<!-- Node25 -->
<g id="node26" class="node"><title>Node25</title>
<g id="a_node26"><a xlink:href="ActionManager_8h.html" target="_top" xlink:title="ActionManager.h">
<polygon fill="white" stroke="black" points="214,-168.5 214,-187.5 304,-187.5 304,-168.5 214,-168.5"/>
<text text-anchor="middle" x="259" y="-175.5" font-family="Helvetica,sans-Serif" font-size="10.00">ActionManager.h</text>
</a>
</g>
</g>
<!-- Node24&#45;&gt;Node25 -->
<g id="edge50" class="edge"><title>Node24&#45;&gt;Node25</title>
<path fill="none" stroke="midnightblue" d="M369.243,-224.444C347.684,-215.557 313.737,-201.563 289.206,-191.451"/>
<polygon fill="midnightblue" stroke="midnightblue" points="290.239,-188.092 279.66,-187.516 287.572,-194.563 290.239,-188.092"/>
</g>
<!-- Node25&#45;&gt;Node10 -->
<g id="edge51" class="edge"><title>Node25&#45;&gt;Node10</title>
<path fill="none" stroke="midnightblue" d="M259.165,-168.083C259.296,-161.006 259.484,-150.861 259.648,-141.986"/>
<polygon fill="midnightblue" stroke="midnightblue" points="263.152,-141.814 259.838,-131.751 256.153,-141.685 263.152,-141.814"/>
</g>
</g>
</svg>
