<?xml version="1.0" encoding="UTF-8" standalone="no"?>
<!DOCTYPE svg PUBLIC "-//W3C//DTD SVG 1.1//EN"
 "http://www.w3.org/Graphics/SVG/1.1/DTD/svg11.dtd">
<!-- Generated by graphviz version 2.38.0 (20140413.2041)
 -->
<!-- Title: src/TileMap.cpp Pages: 1 -->
<svg width="1132pt" height="364pt"
 viewBox="0.00 0.00 1131.92 364.00" xmlns="http://www.w3.org/2000/svg" xmlns:xlink="http://www.w3.org/1999/xlink">
<g id="graph0" class="graph" transform="scale(1 1) rotate(0) translate(4 360)">
<title>src/TileMap.cpp</title>
<polygon fill="white" stroke="none" points="-4,4 -4,-360 1127.92,-360 1127.92,4 -4,4"/>
<!-- Node0 -->
<g id="node1" class="node"><title>Node0</title>
<polygon fill="#bfbfbf" stroke="black" points="629.921,-336.5 629.921,-355.5 715.921,-355.5 715.921,-336.5 629.921,-336.5"/>
<text text-anchor="middle" x="672.921" y="-343.5" font-family="Helvetica,sans-Serif" font-size="10.00">src/TileMap.cpp</text>
</g>
<!-- Node1 -->
<g id="node2" class="node"><title>Node1</title>
<g id="a_node2"><a xlink:href="TileMap_8h.html" target="_top" xlink:title="TileMap.h">
<polygon fill="white" stroke="black" points="519.421,-280.5 519.421,-299.5 578.421,-299.5 578.421,-280.5 519.421,-280.5"/>
<text text-anchor="middle" x="548.921" y="-287.5" font-family="Helvetica,sans-Serif" font-size="10.00">TileMap.h</text>
</a>
</g>
</g>
<!-- Node0&#45;&gt;Node1 -->
<g id="edge1" class="edge"><title>Node0&#45;&gt;Node1</title>
<path fill="none" stroke="midnightblue" d="M653.273,-336.444C632.957,-327.596 601.018,-313.687 577.823,-303.586"/>
<polygon fill="midnightblue" stroke="midnightblue" points="579.043,-300.3 568.477,-299.516 576.248,-306.718 579.043,-300.3"/>
</g>
<!-- Node9 -->
<g id="node10" class="node"><title>Node9</title>
<polygon fill="white" stroke="#bfbfbf" points="929.921,-224.5 929.921,-243.5 985.921,-243.5 985.921,-224.5 929.921,-224.5"/>
<text text-anchor="middle" x="957.921" y="-231.5" font-family="Helvetica,sans-Serif" font-size="10.00">algorithm</text>
</g>
<!-- Node0&#45;&gt;Node9 -->
<g id="edge52" class="edge"><title>Node0&#45;&gt;Node9</title>
<path fill="none" stroke="midnightblue" d="M695.285,-336.368C745.648,-316.93 868.083,-269.674 926.24,-247.228"/>
<polygon fill="midnightblue" stroke="midnightblue" points="927.593,-250.457 935.662,-243.591 925.072,-243.927 927.593,-250.457"/>
</g>
<!-- Node18 -->
<g id="node19" class="node"><title>Node18</title>
<g id="a_node19"><a xlink:href="InputManager_8h.html" target="_top" xlink:title="InputManager.h">
<polygon fill="white" stroke="black" points="22.9212,-112.5 22.9212,-131.5 106.921,-131.5 106.921,-112.5 22.9212,-112.5"/>
<text text-anchor="middle" x="64.9212" y="-119.5" font-family="Helvetica,sans-Serif" font-size="10.00">InputManager.h</text>
</a>
</g>
</g>
<!-- Node0&#45;&gt;Node18 -->
<g id="edge64" class="edge"><title>Node0&#45;&gt;Node18</title>
<path fill="none" stroke="midnightblue" d="M629.909,-344.023C500.605,-340.224 118.724,-322.457 27.9212,-244 1.49226,-221.165 -7.31055,-199.432 7.92125,-168 14.3182,-154.8 26.6735,-144.303 38.2503,-136.779"/>
<polygon fill="midnightblue" stroke="midnightblue" points="40.0766,-139.765 46.8397,-131.61 36.467,-133.768 40.0766,-139.765"/>
</g>
<!-- Node28 -->
<g id="node29" class="node"><title>Node28</title>
<polygon fill="white" stroke="#bfbfbf" points="617.421,-280.5 617.421,-299.5 660.421,-299.5 660.421,-280.5 617.421,-280.5"/>
<text text-anchor="middle" x="638.921" y="-287.5" font-family="Helvetica,sans-Serif" font-size="10.00">cstdio</text>
</g>
<!-- Node0&#45;&gt;Node28 -->
<g id="edge53" class="edge"><title>Node0&#45;&gt;Node28</title>
<path fill="none" stroke="midnightblue" d="M667.307,-336.083C662.554,-328.534 655.603,-317.495 649.77,-308.23"/>
<polygon fill="midnightblue" stroke="midnightblue" points="652.721,-306.349 644.431,-299.751 646.798,-310.078 652.721,-306.349"/>
</g>
<!-- Node29 -->
<g id="node30" class="node"><title>Node29</title>
<polygon fill="white" stroke="#bfbfbf" points="678.421,-280.5 678.421,-299.5 737.421,-299.5 737.421,-280.5 678.421,-280.5"/>
<text text-anchor="middle" x="707.921" y="-287.5" font-family="Helvetica,sans-Serif" font-size="10.00">exception</text>
</g>
<!-- Node0&#45;&gt;Node29 -->
<g id="edge54" class="edge"><title>Node0&#45;&gt;Node29</title>
<path fill="none" stroke="midnightblue" d="M678.701,-336.083C683.594,-328.534 690.749,-317.495 696.754,-308.23"/>
<polygon fill="midnightblue" stroke="midnightblue" points="699.747,-310.046 702.249,-299.751 693.873,-306.239 699.747,-310.046"/>
</g>
<!-- Node30 -->
<g id="node31" class="node"><title>Node30</title>
<polygon fill="white" stroke="#bfbfbf" points="1003.92,-224.5 1003.92,-243.5 1057.92,-243.5 1057.92,-224.5 1003.92,-224.5"/>
<text text-anchor="middle" x="1030.92" y="-231.5" font-family="Helvetica,sans-Serif" font-size="10.00">iostream</text>
</g>
<!-- Node0&#45;&gt;Node30 -->
<g id="edge55" class="edge"><title>Node0&#45;&gt;Node30</title>
<path fill="none" stroke="midnightblue" d="M703.993,-336.426C735.731,-327.591 786.391,-313.273 829.921,-300 888.295,-282.201 955.704,-260.079 995.741,-246.773"/>
<polygon fill="midnightblue" stroke="midnightblue" points="996.925,-250.068 1005.31,-243.588 994.714,-243.426 996.925,-250.068"/>
</g>
<!-- Node31 -->
<g id="node32" class="node"><title>Node31</title>
<g id="a_node32"><a xlink:href="Camera_8h.html" target="_top" xlink:title="Camera.h">
<polygon fill="white" stroke="black" points="37.4212,-224.5 37.4212,-243.5 96.4212,-243.5 96.4212,-224.5 37.4212,-224.5"/>
<text text-anchor="middle" x="66.9212" y="-231.5" font-family="Helvetica,sans-Serif" font-size="10.00">Camera.h</text>
</a>
</g>
</g>
<!-- Node0&#45;&gt;Node31 -->
<g id="edge56" class="edge"><title>Node0&#45;&gt;Node31</title>
<path fill="none" stroke="midnightblue" d="M629.847,-337.621C535.622,-321.4 304.166,-281.123 110.921,-244 109.486,-243.724 108.024,-243.441 106.548,-243.152"/>
<polygon fill="midnightblue" stroke="midnightblue" points="107.215,-239.716 96.7241,-241.197 105.849,-246.581 107.215,-239.716"/>
</g>
<!-- Node33 -->
<g id="node34" class="node"><title>Node33</title>
<g id="a_node34"><a xlink:href="Error_8h.html" target="_top" xlink:title="Error.h">
<polygon fill="white" stroke="black" points="1007.92,-280.5 1007.92,-299.5 1053.92,-299.5 1053.92,-280.5 1007.92,-280.5"/>
<text text-anchor="middle" x="1030.92" y="-287.5" font-family="Helvetica,sans-Serif" font-size="10.00">Error.h</text>
</a>
</g>
</g>
<!-- Node0&#45;&gt;Node33 -->
<g id="edge61" class="edge"><title>Node0&#45;&gt;Node33</title>
<path fill="none" stroke="midnightblue" d="M716.104,-338.486C788.332,-327.592 932.129,-305.902 997.357,-296.063"/>
<polygon fill="midnightblue" stroke="midnightblue" points="998.128,-299.486 1007.49,-294.534 997.084,-292.564 998.128,-299.486"/>
</g>
<!-- Node2 -->
<g id="node3" class="node"><title>Node2</title>
<polygon fill="white" stroke="#bfbfbf" points="423.421,-112.5 423.421,-131.5 464.421,-131.5 464.421,-112.5 423.421,-112.5"/>
<text text-anchor="middle" x="443.921" y="-119.5" font-family="Helvetica,sans-Serif" font-size="10.00">string</text>
</g>
<!-- Node1&#45;&gt;Node2 -->
<g id="edge2" class="edge"><title>Node1&#45;&gt;Node2</title>
<path fill="none" stroke="midnightblue" d="M519.134,-285.981C472.678,-280.589 386.369,-267.596 367.921,-244 357.794,-231.047 359.201,-194.432 375.921,-168 384.899,-153.808 400.158,-143.106 413.948,-135.707"/>
<polygon fill="midnightblue" stroke="midnightblue" points="415.779,-138.705 423.166,-131.11 412.655,-132.441 415.779,-138.705"/>
</g>
<!-- Node3 -->
<g id="node4" class="node"><title>Node3</title>
<polygon fill="white" stroke="#bfbfbf" points="862.921,-112.5 862.921,-131.5 906.921,-131.5 906.921,-112.5 862.921,-112.5"/>
<text text-anchor="middle" x="884.921" y="-119.5" font-family="Helvetica,sans-Serif" font-size="10.00">vector</text>
</g>
<!-- Node1&#45;&gt;Node3 -->
<g id="edge3" class="edge"><title>Node1&#45;&gt;Node3</title>
<path fill="none" stroke="midnightblue" d="M578.625,-284.409C587.995,-282.977 598.388,-281.405 607.921,-280 664.103,-271.718 819.687,-283.047 860.921,-244 888.951,-217.457 889.407,-168.305 887.223,-141.541"/>
<polygon fill="midnightblue" stroke="midnightblue" points="890.703,-141.162 886.198,-131.573 883.739,-141.878 890.703,-141.162"/>
</g>
<!-- Node4 -->
<g id="node5" class="node"><title>Node4</title>
<polygon fill="white" stroke="#bfbfbf" points="385.421,-224.5 385.421,-243.5 414.421,-243.5 414.421,-224.5 385.421,-224.5"/>
<text text-anchor="middle" x="399.921" y="-231.5" font-family="Helvetica,sans-Serif" font-size="10.00">list</text>
</g>
<!-- Node1&#45;&gt;Node4 -->
<g id="edge4" class="edge"><title>Node1&#45;&gt;Node4</title>
<path fill="none" stroke="midnightblue" d="M524.215,-280.422C500.593,-272.167 463.765,-259.16 423.87,-244.287"/>
<polygon fill="midnightblue" stroke="midnightblue" points="425.089,-241.006 414.497,-240.779 422.635,-247.562 425.089,-241.006"/>
</g>
<!-- Node5 -->
<g id="node6" class="node"><title>Node5</title>
<polygon fill="white" stroke="#bfbfbf" points="432.421,-224.5 432.421,-243.5 475.421,-243.5 475.421,-224.5 432.421,-224.5"/>
<text text-anchor="middle" x="453.921" y="-231.5" font-family="Helvetica,sans-Serif" font-size="10.00">queue</text>
</g>
<!-- Node1&#45;&gt;Node5 -->
<g id="edge5" class="edge"><title>Node1&#45;&gt;Node5</title>
<path fill="none" stroke="midnightblue" d="M533.658,-280.324C518.7,-271.822 495.666,-258.729 478.195,-248.797"/>
<polygon fill="midnightblue" stroke="midnightblue" points="479.57,-245.553 469.147,-243.655 476.111,-251.639 479.57,-245.553"/>
</g>
<!-- Node6 -->
<g id="node7" class="node"><title>Node6</title>
<polygon fill="white" stroke="#bfbfbf" points="625.921,-168.5 625.921,-187.5 665.921,-187.5 665.921,-168.5 625.921,-168.5"/>
<text text-anchor="middle" x="645.921" y="-175.5" font-family="Helvetica,sans-Serif" font-size="10.00">limits</text>
</g>
<!-- Node1&#45;&gt;Node6 -->
<g id="edge6" class="edge"><title>Node1&#45;&gt;Node6</title>
<path fill="none" stroke="midnightblue" d="M554.28,-280.11C562.306,-267.127 578.292,-242.513 594.921,-224 604.661,-213.157 616.866,-202.308 626.894,-193.98"/>
<polygon fill="midnightblue" stroke="midnightblue" points="629.15,-196.656 634.703,-187.633 624.735,-191.224 629.15,-196.656"/>
</g>
<!-- Node7 -->
<g id="node8" class="node"><title>Node7</title>
<polygon fill="white" stroke="#bfbfbf" points="604.421,-224.5 604.421,-243.5 639.421,-243.5 639.421,-224.5 604.421,-224.5"/>
<text text-anchor="middle" x="621.921" y="-231.5" font-family="Helvetica,sans-Serif" font-size="10.00">map</text>
</g>
<!-- Node1&#45;&gt;Node7 -->
<g id="edge7" class="edge"><title>Node1&#45;&gt;Node7</title>
<path fill="none" stroke="midnightblue" d="M560.65,-280.324C571.759,-272.107 588.663,-259.602 601.905,-249.807"/>
<polygon fill="midnightblue" stroke="midnightblue" points="604.021,-252.595 609.979,-243.834 599.858,-246.967 604.021,-252.595"/>
</g>
<!-- Node8 -->
<g id="node9" class="node"><title>Node8</title>
<polygon fill="white" stroke="#bfbfbf" points="657.421,-224.5 657.421,-243.5 716.421,-243.5 716.421,-224.5 657.421,-224.5"/>
<text text-anchor="middle" x="686.921" y="-231.5" font-family="Helvetica,sans-Serif" font-size="10.00">functional</text>
</g>
<!-- Node1&#45;&gt;Node8 -->
<g id="edge8" class="edge"><title>Node1&#45;&gt;Node8</title>
<path fill="none" stroke="midnightblue" d="M570.788,-280.444C593.701,-271.478 629.897,-257.314 655.788,-247.183"/>
<polygon fill="midnightblue" stroke="midnightblue" points="657.12,-250.42 665.157,-243.516 654.569,-243.901 657.12,-250.42"/>
</g>
<!-- Node1&#45;&gt;Node9 -->
<g id="edge9" class="edge"><title>Node1&#45;&gt;Node9</title>
<path fill="none" stroke="midnightblue" d="M578.604,-284.265C587.973,-282.826 598.371,-281.286 607.921,-280 744.509,-261.606 779.944,-266.464 915.921,-244 917.163,-243.795 918.423,-243.578 919.695,-243.351"/>
<polygon fill="midnightblue" stroke="midnightblue" points="920.362,-246.787 929.524,-241.466 919.044,-239.912 920.362,-246.787"/>
</g>
<!-- Node10 -->
<g id="node11" class="node"><title>Node10</title>
<g id="a_node11"><a xlink:href="Tileset_8h.html" target="_top" xlink:title="Tileset.h">
<polygon fill="white" stroke="black" points="493.921,-224.5 493.921,-243.5 547.921,-243.5 547.921,-224.5 493.921,-224.5"/>
<text text-anchor="middle" x="520.921" y="-231.5" font-family="Helvetica,sans-Serif" font-size="10.00">Tileset.h</text>
</a>
</g>
</g>
<!-- Node1&#45;&gt;Node10 -->
<g id="edge10" class="edge"><title>Node1&#45;&gt;Node10</title>
<path fill="none" stroke="midnightblue" d="M544.298,-280.083C540.465,-272.691 534.897,-261.953 530.157,-252.811"/>
<polygon fill="midnightblue" stroke="midnightblue" points="533.169,-251.018 525.459,-243.751 526.955,-254.24 533.169,-251.018"/>
</g>
<!-- Node16 -->
<g id="node17" class="node"><title>Node16</title>
<g id="a_node17"><a xlink:href="Vec2_8h.html" target="_top" xlink:title="Vec2.h">
<polygon fill="white" stroke="black" points="240.421,-56.5 240.421,-75.5 287.421,-75.5 287.421,-56.5 240.421,-56.5"/>
<text text-anchor="middle" x="263.921" y="-63.5" font-family="Helvetica,sans-Serif" font-size="10.00">Vec2.h</text>
</a>
</g>
</g>
<!-- Node1&#45;&gt;Node16 -->
<g id="edge28" class="edge"><title>Node1&#45;&gt;Node16</title>
<path fill="none" stroke="midnightblue" d="M519.162,-287.658C434.474,-283.535 196.767,-269.751 173.921,-244 128.617,-192.934 207.252,-114.963 245.193,-82.2653"/>
<polygon fill="midnightblue" stroke="midnightblue" points="247.644,-84.777 253.032,-75.6546 243.131,-79.4258 247.644,-84.777"/>
</g>
<!-- Node21 -->
<g id="node22" class="node"><title>Node21</title>
<g id="a_node22"><a xlink:href="GameObject_8h.html" target="_top" xlink:title="GameObject.h">
<polygon fill="white" stroke="black" points="728.921,-168.5 728.921,-187.5 808.921,-187.5 808.921,-168.5 728.921,-168.5"/>
<text text-anchor="middle" x="768.921" y="-175.5" font-family="Helvetica,sans-Serif" font-size="10.00">GameObject.h</text>
</a>
</g>
</g>
<!-- Node1&#45;&gt;Node21 -->
<g id="edge29" class="edge"><title>Node1&#45;&gt;Node21</title>
<path fill="none" stroke="midnightblue" d="M578.558,-284.479C653.366,-273.068 843.921,-244 843.921,-244 861.497,-223.54 829.533,-203.797 802.044,-191.545"/>
<polygon fill="midnightblue" stroke="midnightblue" points="803.169,-188.22 792.596,-187.535 800.434,-194.663 803.169,-188.22"/>
</g>
<!-- Node24 -->
<g id="node25" class="node"><title>Node24</title>
<g id="a_node25"><a xlink:href="AStarHeuristic_8h.html" target="_top" xlink:title="AStarHeuristic.h">
<polygon fill="white" stroke="black" points="201.421,-168.5 201.421,-187.5 290.421,-187.5 290.421,-168.5 201.421,-168.5"/>
<text text-anchor="middle" x="245.921" y="-175.5" font-family="Helvetica,sans-Serif" font-size="10.00">AStarHeuristic.h</text>
</a>
</g>
</g>
<!-- Node1&#45;&gt;Node24 -->
<g id="edge39" class="edge"><title>Node1&#45;&gt;Node24</title>
<path fill="none" stroke="midnightblue" d="M519.2,-287.577C435.799,-283.284 204.201,-269.179 181.921,-244 165.357,-225.28 193.546,-204.935 217.6,-192.085"/>
<polygon fill="midnightblue" stroke="midnightblue" points="219.192,-195.203 226.515,-187.546 216.015,-188.965 219.192,-195.203"/>
</g>
<!-- Node25 -->
<g id="node26" class="node"><title>Node25</title>
<g id="a_node26"><a xlink:href="Resources_8h.html" target="_top" xlink:title="Resources.h">
<polygon fill="white" stroke="black" points="384.921,-168.5 384.921,-187.5 456.921,-187.5 456.921,-168.5 384.921,-168.5"/>
<text text-anchor="middle" x="420.921" y="-175.5" font-family="Helvetica,sans-Serif" font-size="10.00">Resources.h</text>
</a>
</g>
</g>
<!-- Node1&#45;&gt;Node25 -->
<g id="edge41" class="edge"><title>Node1&#45;&gt;Node25</title>
<path fill="none" stroke="midnightblue" d="M519.345,-285.637C474.673,-279.88 393.338,-266.526 375.921,-244 362.935,-227.204 382.073,-206.973 399.254,-193.591"/>
<polygon fill="midnightblue" stroke="midnightblue" points="401.398,-196.36 407.382,-187.617 397.252,-190.719 401.398,-196.36"/>
</g>
<!-- Node26 -->
<g id="node27" class="node"><title>Node26</title>
<g id="a_node27"><a xlink:href="TileMapObserver_8h.html" target="_top" xlink:title="TileMapObserver.h">
<polygon fill="white" stroke="black" points="191.421,-224.5 191.421,-243.5 290.421,-243.5 290.421,-224.5 191.421,-224.5"/>
<text text-anchor="middle" x="240.921" y="-231.5" font-family="Helvetica,sans-Serif" font-size="10.00">TileMapObserver.h</text>
</a>
</g>
</g>
<!-- Node1&#45;&gt;Node26 -->
<g id="edge46" class="edge"><title>Node1&#45;&gt;Node26</title>
<path fill="none" stroke="midnightblue" d="M519.389,-283.822C468.938,-274.977 365.255,-256.799 299.623,-245.292"/>
<polygon fill="midnightblue" stroke="midnightblue" points="299.884,-241.784 289.43,-243.505 298.675,-248.679 299.884,-241.784"/>
</g>
<!-- Node27 -->
<g id="node28" class="node"><title>Node27</title>
<g id="a_node28"><a xlink:href="NearestGOFinder_8h.html" target="_top" xlink:title="NearestGOFinder.h">
<polygon fill="white" stroke="black" points="734.421,-224.5 734.421,-243.5 835.421,-243.5 835.421,-224.5 734.421,-224.5"/>
<text text-anchor="middle" x="784.921" y="-231.5" font-family="Helvetica,sans-Serif" font-size="10.00">NearestGOFinder.h</text>
</a>
</g>
</g>
<!-- Node1&#45;&gt;Node27 -->
<g id="edge47" class="edge"><title>Node1&#45;&gt;Node27</title>
<path fill="none" stroke="midnightblue" d="M578.811,-282.161C618.792,-273.013 690.128,-256.69 737.49,-245.853"/>
<polygon fill="midnightblue" stroke="midnightblue" points="738.539,-249.204 747.506,-243.561 736.977,-242.38 738.539,-249.204"/>
</g>
<!-- Node10&#45;&gt;Node2 -->
<g id="edge11" class="edge"><title>Node10&#45;&gt;Node2</title>
<path fill="none" stroke="midnightblue" d="M514.879,-224.368C502.172,-206.215 472.482,-163.802 455.814,-139.99"/>
<polygon fill="midnightblue" stroke="midnightblue" points="458.537,-137.777 449.935,-131.591 452.803,-141.791 458.537,-137.777"/>
</g>
<!-- Node11 -->
<g id="node12" class="node"><title>Node11</title>
<g id="a_node12"><a xlink:href="Sprite_8h.html" target="_top" xlink:title="Sprite.h">
<polygon fill="white" stroke="black" points="512.921,-168.5 512.921,-187.5 562.921,-187.5 562.921,-168.5 512.921,-168.5"/>
<text text-anchor="middle" x="537.921" y="-175.5" font-family="Helvetica,sans-Serif" font-size="10.00">Sprite.h</text>
</a>
</g>
</g>
<!-- Node10&#45;&gt;Node11 -->
<g id="edge12" class="edge"><title>Node10&#45;&gt;Node11</title>
<path fill="none" stroke="midnightblue" d="M523.728,-224.083C526.006,-216.849 529.293,-206.409 532.13,-197.397"/>
<polygon fill="midnightblue" stroke="midnightblue" points="535.502,-198.341 535.166,-187.751 528.825,-196.239 535.502,-198.341"/>
</g>
<!-- Node11&#45;&gt;Node2 -->
<g id="edge14" class="edge"><title>Node11&#45;&gt;Node2</title>
<path fill="none" stroke="midnightblue" d="M522.819,-168.324C508.018,-159.822 485.227,-146.729 467.939,-136.797"/>
<polygon fill="midnightblue" stroke="midnightblue" points="469.401,-133.601 458.986,-131.655 465.914,-139.671 469.401,-133.601"/>
</g>
<!-- Node12 -->
<g id="node13" class="node"><title>Node12</title>
<g id="a_node13"><a xlink:href="SDL__include_8h.html" target="_top" xlink:title="SDL_include.h">
<polygon fill="white" stroke="black" points="452.921,-0.5 452.921,-19.5 532.921,-19.5 532.921,-0.5 452.921,-0.5"/>
<text text-anchor="middle" x="492.921" y="-7.5" font-family="Helvetica,sans-Serif" font-size="10.00">SDL_include.h</text>
</a>
</g>
</g>
<!-- Node11&#45;&gt;Node12 -->
<g id="edge13" class="edge"><title>Node11&#45;&gt;Node12</title>
<path fill="none" stroke="midnightblue" d="M535.502,-168.075C528.418,-141.945 507.617,-65.2106 497.957,-29.577"/>
<polygon fill="midnightblue" stroke="midnightblue" points="501.238,-28.304 495.244,-19.5681 494.482,-30.1355 501.238,-28.304"/>
</g>
<!-- Node13 -->
<g id="node14" class="node"><title>Node13</title>
<polygon fill="white" stroke="#bfbfbf" points="558.921,-112.5 558.921,-131.5 610.921,-131.5 610.921,-112.5 558.921,-112.5"/>
<text text-anchor="middle" x="584.921" y="-119.5" font-family="Helvetica,sans-Serif" font-size="10.00">memory</text>
</g>
<!-- Node11&#45;&gt;Node13 -->
<g id="edge15" class="edge"><title>Node11&#45;&gt;Node13</title>
<path fill="none" stroke="midnightblue" d="M545.682,-168.083C552.458,-160.298 562.464,-148.801 570.676,-139.367"/>
<polygon fill="midnightblue" stroke="midnightblue" points="573.379,-141.592 577.305,-131.751 568.099,-136.996 573.379,-141.592"/>
</g>
<!-- Node14 -->
<g id="node15" class="node"><title>Node14</title>
<g id="a_node15"><a xlink:href="Color_8h.html" target="_top" xlink:title="Color.h">
<polygon fill="white" stroke="black" points="520.921,-56.5 520.921,-75.5 568.921,-75.5 568.921,-56.5 520.921,-56.5"/>
<text text-anchor="middle" x="544.921" y="-63.5" font-family="Helvetica,sans-Serif" font-size="10.00">Color.h</text>
</a>
</g>
</g>
<!-- Node11&#45;&gt;Node14 -->
<g id="edge16" class="edge"><title>Node11&#45;&gt;Node14</title>
<path fill="none" stroke="midnightblue" d="M538.471,-168.368C539.6,-150.617 542.206,-109.666 543.738,-85.5974"/>
<polygon fill="midnightblue" stroke="midnightblue" points="547.232,-85.7935 544.375,-75.5914 540.246,-85.3489 547.232,-85.7935"/>
</g>
<!-- Node15 -->
<g id="node16" class="node"><title>Node15</title>
<g id="a_node16"><a xlink:href="Rect_8h.html" target="_top" xlink:title="Rect.h">
<polygon fill="white" stroke="black" points="628.921,-112.5 628.921,-131.5 674.921,-131.5 674.921,-112.5 628.921,-112.5"/>
<text text-anchor="middle" x="651.921" y="-119.5" font-family="Helvetica,sans-Serif" font-size="10.00">Rect.h</text>
</a>
</g>
</g>
<!-- Node11&#45;&gt;Node15 -->
<g id="edge18" class="edge"><title>Node11&#45;&gt;Node15</title>
<path fill="none" stroke="midnightblue" d="M555.985,-168.444C574.496,-159.675 603.502,-145.935 624.777,-135.858"/>
<polygon fill="midnightblue" stroke="midnightblue" points="626.403,-138.96 633.942,-131.516 623.406,-132.634 626.403,-138.96"/>
</g>
<!-- Node11&#45;&gt;Node18 -->
<g id="edge23" class="edge"><title>Node11&#45;&gt;Node18</title>
<path fill="none" stroke="midnightblue" d="M512.607,-173.757C498.81,-172.009 481.433,-169.84 465.921,-168 341.01,-153.185 194.052,-137.015 117.423,-128.678"/>
<polygon fill="midnightblue" stroke="midnightblue" points="117.406,-125.156 107.086,-127.555 116.65,-132.115 117.406,-125.156"/>
</g>
<!-- Node14&#45;&gt;Node12 -->
<g id="edge17" class="edge"><title>Node14&#45;&gt;Node12</title>
<path fill="none" stroke="midnightblue" d="M536.335,-56.083C528.762,-48.2195 517.543,-36.5688 508.407,-27.0813"/>
<polygon fill="midnightblue" stroke="midnightblue" points="510.806,-24.5266 501.348,-19.7511 505.764,-29.3821 510.806,-24.5266"/>
</g>
<!-- Node15&#45;&gt;Node12 -->
<g id="edge19" class="edge"><title>Node15&#45;&gt;Node12</title>
<path fill="none" stroke="midnightblue" d="M652.942,-112.207C654.024,-98.4443 653.973,-71.7603 639.921,-56 615.64,-28.7662 575.373,-17.7861 543.117,-13.4666"/>
<polygon fill="midnightblue" stroke="midnightblue" points="543.293,-9.96366 532.956,-12.2861 542.485,-16.9169 543.293,-9.96366"/>
</g>
<!-- Node15&#45;&gt;Node16 -->
<g id="edge20" class="edge"><title>Node15&#45;&gt;Node16</title>
<path fill="none" stroke="midnightblue" d="M628.6,-114.009C625.693,-113.266 622.749,-112.573 619.921,-112 502.755,-88.2551 361.207,-74.823 297.667,-69.585"/>
<polygon fill="midnightblue" stroke="midnightblue" points="297.692,-66.0757 287.442,-68.7578 297.127,-73.0529 297.692,-66.0757"/>
</g>
<!-- Node17 -->
<g id="node18" class="node"><title>Node17</title>
<polygon fill="white" stroke="#bfbfbf" points="586.921,-56.5 586.921,-75.5 630.921,-75.5 630.921,-56.5 586.921,-56.5"/>
<text text-anchor="middle" x="608.921" y="-63.5" font-family="Helvetica,sans-Serif" font-size="10.00">cmath</text>
</g>
<!-- Node15&#45;&gt;Node17 -->
<g id="edge22" class="edge"><title>Node15&#45;&gt;Node17</title>
<path fill="none" stroke="midnightblue" d="M644.821,-112.083C638.684,-104.377 629.651,-93.0333 622.182,-83.6531"/>
<polygon fill="midnightblue" stroke="midnightblue" points="624.857,-81.3936 615.89,-75.7511 619.381,-85.7542 624.857,-81.3936"/>
</g>
<!-- Node16&#45;&gt;Node12 -->
<g id="edge21" class="edge"><title>Node16&#45;&gt;Node12</title>
<path fill="none" stroke="midnightblue" d="M287.566,-59.4244C325.013,-50.5941 398.645,-33.231 446.805,-21.8745"/>
<polygon fill="midnightblue" stroke="midnightblue" points="447.743,-25.2494 456.673,-19.5476 446.137,-18.4362 447.743,-25.2494"/>
</g>
<!-- Node18&#45;&gt;Node12 -->
<g id="edge24" class="edge"><title>Node18&#45;&gt;Node12</title>
<path fill="none" stroke="midnightblue" d="M70.537,-112.465C80.5445,-98.0505 102.962,-69.1681 129.921,-56 183.861,-29.6527 356.12,-17.6777 442.512,-13.2168"/>
<polygon fill="midnightblue" stroke="midnightblue" points="442.797,-16.707 452.608,-12.7096 442.445,-9.71585 442.797,-16.707"/>
</g>
<!-- Node18&#45;&gt;Node16 -->
<g id="edge25" class="edge"><title>Node18&#45;&gt;Node16</title>
<path fill="none" stroke="midnightblue" d="M96.4396,-112.471C127.877,-103.961 177.812,-90.4344 230.302,-76.1653"/>
<polygon fill="midnightblue" stroke="midnightblue" points="231.398,-79.4945 240.129,-73.4933 229.561,-72.7398 231.398,-79.4945"/>
</g>
<!-- Node19 -->
<g id="node20" class="node"><title>Node19</title>
<polygon fill="white" stroke="#bfbfbf" points="139.421,-56.5 139.421,-75.5 222.421,-75.5 222.421,-56.5 139.421,-56.5"/>
<text text-anchor="middle" x="180.921" y="-63.5" font-family="Helvetica,sans-Serif" font-size="10.00">unordered_map</text>
</g>
<!-- Node18&#45;&gt;Node19 -->
<g id="edge26" class="edge"><title>Node18&#45;&gt;Node19</title>
<path fill="none" stroke="midnightblue" d="M83.3018,-112.444C102.138,-103.675 131.652,-89.9355 153.301,-79.8579"/>
<polygon fill="midnightblue" stroke="midnightblue" points="155.038,-82.9098 162.627,-75.5164 152.084,-76.5637 155.038,-82.9098"/>
</g>
<!-- Node20 -->
<g id="node21" class="node"><title>Node20</title>
<polygon fill="white" stroke="#bfbfbf" points="36.9212,-56.5 36.9212,-75.5 82.9212,-75.5 82.9212,-56.5 36.9212,-56.5"/>
<text text-anchor="middle" x="59.9212" y="-63.5" font-family="Helvetica,sans-Serif" font-size="10.00">cstdint</text>
</g>
<!-- Node18&#45;&gt;Node20 -->
<g id="edge27" class="edge"><title>Node18&#45;&gt;Node20</title>
<path fill="none" stroke="midnightblue" d="M64.0956,-112.083C63.4403,-105.006 62.501,-94.8611 61.6793,-85.9865"/>
<polygon fill="midnightblue" stroke="midnightblue" points="65.1387,-85.3858 60.7315,-75.7511 58.1685,-86.0312 65.1387,-85.3858"/>
</g>
<!-- Node21&#45;&gt;Node2 -->
<g id="edge33" class="edge"><title>Node21&#45;&gt;Node2</title>
<path fill="none" stroke="midnightblue" d="M728.744,-170.324C663.033,-159.406 533.98,-137.964 474.847,-128.138"/>
<polygon fill="midnightblue" stroke="midnightblue" points="475.089,-124.631 464.65,-126.444 473.941,-131.536 475.089,-124.631"/>
</g>
<!-- Node21&#45;&gt;Node3 -->
<g id="edge31" class="edge"><title>Node21&#45;&gt;Node3</title>
<path fill="none" stroke="midnightblue" d="M787.302,-168.444C806.138,-159.675 835.652,-145.935 857.301,-135.858"/>
<polygon fill="midnightblue" stroke="midnightblue" points="859.038,-138.91 866.627,-131.516 856.084,-132.564 859.038,-138.91"/>
</g>
<!-- Node21&#45;&gt;Node12 -->
<g id="edge30" class="edge"><title>Node21&#45;&gt;Node12</title>
<path fill="none" stroke="midnightblue" d="M759.246,-168.343C749.517,-159.5 734.237,-145.23 721.921,-132 692.027,-99.887 695.819,-79.7382 658.921,-56 623.952,-33.5027 577.909,-22.1655 543.186,-16.5039"/>
<polygon fill="midnightblue" stroke="midnightblue" points="543.669,-13.0372 533.255,-14.9879 542.613,-19.9571 543.669,-13.0372"/>
</g>
<!-- Node21&#45;&gt;Node13 -->
<g id="edge32" class="edge"><title>Node21&#45;&gt;Node13</title>
<path fill="none" stroke="midnightblue" d="M739.766,-168.444C707.485,-158.97 655.432,-143.693 620.707,-133.502"/>
<polygon fill="midnightblue" stroke="midnightblue" points="621.546,-130.101 610.965,-130.643 619.575,-136.818 621.546,-130.101"/>
</g>
<!-- Node21&#45;&gt;Node15 -->
<g id="edge38" class="edge"><title>Node21&#45;&gt;Node15</title>
<path fill="none" stroke="midnightblue" d="M750.382,-168.444C731.298,-159.636 701.346,-145.812 679.486,-135.722"/>
<polygon fill="midnightblue" stroke="midnightblue" points="680.92,-132.529 670.374,-131.516 677.986,-138.885 680.92,-132.529"/>
</g>
<!-- Node22 -->
<g id="node23" class="node"><title>Node22</title>
<g id="a_node23"><a xlink:href="Component_8h.html" target="_top" xlink:title="Component.h">
<polygon fill="white" stroke="black" points="731.421,-112.5 731.421,-131.5 806.421,-131.5 806.421,-112.5 731.421,-112.5"/>
<text text-anchor="middle" x="768.921" y="-119.5" font-family="Helvetica,sans-Serif" font-size="10.00">Component.h</text>
</a>
</g>
</g>
<!-- Node21&#45;&gt;Node22 -->
<g id="edge34" class="edge"><title>Node21&#45;&gt;Node22</title>
<path fill="none" stroke="midnightblue" d="M763.755,-168.083C762.245,-160.927 761.815,-150.635 762.464,-141.691"/>
<polygon fill="midnightblue" stroke="midnightblue" points="765.937,-142.126 763.79,-131.751 758.998,-141.2 765.937,-142.126"/>
</g>
<!-- Node23 -->
<g id="node24" class="node"><title>Node23</title>
<g id="a_node24"><a xlink:href="ComponentType_8h.html" target="_top" xlink:title="ComponentType.h">
<polygon fill="white" stroke="black" points="758.421,-56.5 758.421,-75.5 855.421,-75.5 855.421,-56.5 758.421,-56.5"/>
<text text-anchor="middle" x="806.921" y="-63.5" font-family="Helvetica,sans-Serif" font-size="10.00">ComponentType.h</text>
</a>
</g>
</g>
<!-- Node21&#45;&gt;Node23 -->
<g id="edge37" class="edge"><title>Node21&#45;&gt;Node23</title>
<path fill="none" stroke="midnightblue" d="M782.708,-168.189C793.747,-160.241 808.423,-147.447 814.921,-132 821.183,-117.115 818.034,-98.7385 813.989,-85.3269"/>
<polygon fill="midnightblue" stroke="midnightblue" points="817.275,-84.1177 810.716,-75.797 810.654,-86.3916 817.275,-84.1177"/>
</g>
<!-- Node22&#45;&gt;Node21 -->
<g id="edge36" class="edge"><title>Node22&#45;&gt;Node21</title>
<path fill="none" stroke="midnightblue" d="M774.052,-131.751C775.579,-138.858 776.026,-149.136 775.394,-158.101"/>
<polygon fill="midnightblue" stroke="midnightblue" points="771.915,-157.713 774.088,-168.083 778.855,-158.622 771.915,-157.713"/>
</g>
<!-- Node22&#45;&gt;Node23 -->
<g id="edge35" class="edge"><title>Node22&#45;&gt;Node23</title>
<path fill="none" stroke="midnightblue" d="M775.196,-112.083C780.564,-104.455 788.439,-93.2645 795,-83.9408"/>
<polygon fill="midnightblue" stroke="midnightblue" points="797.87,-85.9434 800.763,-75.7511 792.146,-81.9149 797.87,-85.9434"/>
</g>
<!-- Node24&#45;&gt;Node16 -->
<g id="edge40" class="edge"><title>Node24&#45;&gt;Node16</title>
<path fill="none" stroke="midnightblue" d="M247.334,-168.368C250.238,-150.617 256.939,-109.666 260.878,-85.5974"/>
<polygon fill="midnightblue" stroke="midnightblue" points="264.354,-86.0254 262.515,-75.5914 257.446,-84.8949 264.354,-86.0254"/>
</g>
<!-- Node25&#45;&gt;Node2 -->
<g id="edge43" class="edge"><title>Node25&#45;&gt;Node2</title>
<path fill="none" stroke="midnightblue" d="M424.719,-168.083C427.834,-160.77 432.344,-150.181 436.211,-141.103"/>
<polygon fill="midnightblue" stroke="midnightblue" points="439.495,-142.323 440.194,-131.751 433.055,-139.58 439.495,-142.323"/>
</g>
<!-- Node25&#45;&gt;Node12 -->
<g id="edge42" class="edge"><title>Node25&#45;&gt;Node12</title>
<path fill="none" stroke="midnightblue" d="M417.677,-168.322C413.43,-155.603 407.265,-131.315 413.921,-112 425.98,-77.0099 455.694,-44.8703 475.046,-26.6356"/>
<polygon fill="midnightblue" stroke="midnightblue" points="477.608,-29.0362 482.624,-19.7043 472.883,-23.871 477.608,-29.0362"/>
</g>
<!-- Node25&#45;&gt;Node13 -->
<g id="edge45" class="edge"><title>Node25&#45;&gt;Node13</title>
<path fill="none" stroke="midnightblue" d="M446.908,-168.444C474.617,-159.32 518.674,-144.813 549.537,-134.651"/>
<polygon fill="midnightblue" stroke="midnightblue" points="550.653,-137.968 559.057,-131.516 548.464,-131.32 550.653,-137.968"/>
</g>
<!-- Node25&#45;&gt;Node19 -->
<g id="edge44" class="edge"><title>Node25&#45;&gt;Node19</title>
<path fill="none" stroke="midnightblue" d="M402.089,-168.368C360.028,-149.091 258.275,-102.454 208.825,-79.7894"/>
<polygon fill="midnightblue" stroke="midnightblue" points="210.215,-76.5763 199.666,-75.5914 207.299,-82.9398 210.215,-76.5763"/>
</g>
<!-- Node27&#45;&gt;Node3 -->
<g id="edge49" class="edge"><title>Node27&#45;&gt;Node3</title>
<path fill="none" stroke="midnightblue" d="M792.768,-224.368C809.49,-205.974 848.856,-162.671 870.329,-139.052"/>
<polygon fill="midnightblue" stroke="midnightblue" points="872.974,-141.345 877.111,-131.591 867.794,-136.636 872.974,-141.345"/>
</g>
<!-- Node27&#45;&gt;Node6 -->
<g id="edge48" class="edge"><title>Node27&#45;&gt;Node6</title>
<path fill="none" stroke="midnightblue" d="M762.896,-224.444C739.274,-215.267 701.636,-200.645 675.457,-190.474"/>
<polygon fill="midnightblue" stroke="midnightblue" points="676.627,-187.174 666.038,-186.815 674.092,-193.699 676.627,-187.174"/>
</g>
<!-- Node27&#45;&gt;Node16 -->
<g id="edge50" class="edge"><title>Node27&#45;&gt;Node16</title>
<path fill="none" stroke="midnightblue" d="M734.205,-225.225C731.066,-224.795 727.952,-224.383 724.921,-224 647.571,-214.215 445.666,-222.85 375.921,-188 328.714,-164.411 291.414,-112.044 274.235,-84.5823"/>
<polygon fill="midnightblue" stroke="midnightblue" points="277.017,-82.4213 268.835,-75.691 271.034,-86.055 277.017,-82.4213"/>
</g>
<!-- Node27&#45;&gt;Node21 -->
<g id="edge51" class="edge"><title>Node27&#45;&gt;Node21</title>
<path fill="none" stroke="midnightblue" d="M782.279,-224.083C780.136,-216.849 777.042,-206.409 774.372,-197.397"/>
<polygon fill="midnightblue" stroke="midnightblue" points="777.711,-196.345 771.514,-187.751 770.999,-198.333 777.711,-196.345"/>
</g>
<!-- Node31&#45;&gt;Node16 -->
<g id="edge58" class="edge"><title>Node31&#45;&gt;Node16</title>
<path fill="none" stroke="midnightblue" d="M78.3794,-224.223C88.9688,-215.731 104.712,-202.107 115.921,-188 140.064,-157.614 130.012,-137.892 158.921,-112 169.991,-102.086 204.08,-88.3588 230.446,-78.6801"/>
<polygon fill="midnightblue" stroke="midnightblue" points="231.895,-81.8778 240.109,-75.1852 229.514,-75.2952 231.895,-81.8778"/>
</g>
<!-- Node31&#45;&gt;Node21 -->
<g id="edge57" class="edge"><title>Node31&#45;&gt;Node21</title>
<path fill="none" stroke="midnightblue" d="M96.7023,-230.627C119.918,-228.787 152.966,-226.19 181.921,-224 400.99,-207.429 456.005,-206.471 674.921,-188 689.118,-186.802 704.509,-185.38 718.647,-184.025"/>
<polygon fill="midnightblue" stroke="midnightblue" points="719.069,-187.5 728.686,-183.054 718.395,-180.533 719.069,-187.5"/>
</g>
<!-- Node32 -->
<g id="node33" class="node"><title>Node32</title>
<g id="a_node33"><a xlink:href="ActionManager_8h.html" target="_top" xlink:title="ActionManager.h">
<polygon fill="white" stroke="black" points="16.9212,-168.5 16.9212,-187.5 106.921,-187.5 106.921,-168.5 16.9212,-168.5"/>
<text text-anchor="middle" x="61.9212" y="-175.5" font-family="Helvetica,sans-Serif" font-size="10.00">ActionManager.h</text>
</a>
</g>
</g>
<!-- Node31&#45;&gt;Node32 -->
<g id="edge59" class="edge"><title>Node31&#45;&gt;Node32</title>
<path fill="none" stroke="midnightblue" d="M66.0956,-224.083C65.4403,-217.006 64.501,-206.861 63.6793,-197.986"/>
<polygon fill="midnightblue" stroke="midnightblue" points="67.1387,-197.386 62.7315,-187.751 60.1685,-198.031 67.1387,-197.386"/>
</g>
<!-- Node32&#45;&gt;Node18 -->
<g id="edge60" class="edge"><title>Node32&#45;&gt;Node18</title>
<path fill="none" stroke="midnightblue" d="M62.4166,-168.083C62.8098,-161.006 63.3734,-150.861 63.8664,-141.986"/>
<polygon fill="midnightblue" stroke="midnightblue" points="67.3749,-141.93 64.4351,-131.751 60.3857,-141.542 67.3749,-141.93"/>
</g>
<!-- Node33&#45;&gt;Node30 -->
<g id="edge62" class="edge"><title>Node33&#45;&gt;Node30</title>
<path fill="none" stroke="midnightblue" d="M1030.92,-280.083C1030.92,-273.006 1030.92,-262.861 1030.92,-253.986"/>
<polygon fill="midnightblue" stroke="midnightblue" points="1034.42,-253.751 1030.92,-243.751 1027.42,-253.751 1034.42,-253.751"/>
</g>
<!-- Node34 -->
<g id="node35" class="node"><title>Node34</title>
<polygon fill="white" stroke="#bfbfbf" points="1075.92,-224.5 1075.92,-243.5 1123.92,-243.5 1123.92,-224.5 1075.92,-224.5"/>
<text text-anchor="middle" x="1099.92" y="-231.5" font-family="Helvetica,sans-Serif" font-size="10.00">stdlib.h</text>
</g>
<!-- Node33&#45;&gt;Node34 -->
<g id="edge63" class="edge"><title>Node33&#45;&gt;Node34</title>
<path fill="none" stroke="midnightblue" d="M1042.01,-280.324C1052.41,-272.185 1068.18,-259.839 1080.64,-250.087"/>
<polygon fill="midnightblue" stroke="midnightblue" points="1082.92,-252.753 1088.63,-243.834 1078.6,-247.241 1082.92,-252.753"/>
</g>
</g>
</svg>
