<?xml version="1.0" encoding="UTF-8" standalone="no"?>
<!DOCTYPE svg PUBLIC "-//W3C//DTD SVG 1.1//EN"
 "http://www.w3.org/Graphics/SVG/1.1/DTD/svg11.dtd">
<!-- Generated by graphviz version 2.40.1 (20161225.0304)
 -->
<!-- Title: src/Tileset.cpp Pages: 1 -->
<svg width="1001pt" height="476pt"
 viewBox="0.00 0.00 1000.50 476.00" xmlns="http://www.w3.org/2000/svg" xmlns:xlink="http://www.w3.org/1999/xlink">
<g id="graph0" class="graph" transform="scale(1 1) rotate(0) translate(4 472)">
<title>src/Tileset.cpp</title>
<polygon fill="#ffffff" stroke="transparent" points="-4,4 -4,-472 996.5,-472 996.5,4 -4,4"/>
<!-- Node0 -->
<g id="node1" class="node">
<title>Node0</title>
<polygon fill="#bfbfbf" stroke="#000000" points="746,-448.5 746,-467.5 827,-467.5 827,-448.5 746,-448.5"/>
<text text-anchor="middle" x="786.5" y="-455.5" font-family="Helvetica,sans-Serif" font-size="10.00" fill="#000000">src/Tileset.cpp</text>
</g>
<!-- Node1 -->
<g id="node2" class="node">
<title>Node1</title>
<polygon fill="#ffffff" stroke="#bfbfbf" points="695.5,-392.5 695.5,-411.5 741.5,-411.5 741.5,-392.5 695.5,-392.5"/>
<text text-anchor="middle" x="718.5" y="-399.5" font-family="Helvetica,sans-Serif" font-size="10.00" fill="#000000">stdio.h</text>
</g>
<!-- Node0&#45;&gt;Node1 -->
<g id="edge1" class="edge">
<title>Node0&#45;&gt;Node1</title>
<path fill="none" stroke="#191970" d="M774.6553,-448.2455C764.612,-439.9746 750.0005,-427.9416 738.1996,-418.2232"/>
<polygon fill="#191970" stroke="#191970" points="740.1533,-415.298 730.209,-411.6427 735.7033,-420.7015 740.1533,-415.298"/>
</g>
<!-- Node2 -->
<g id="node3" class="node">
<title>Node2</title>
<g id="a_node3"><a xlink:href="Tileset_8h.html" target="_top" xlink:title="Tileset.h">
<polygon fill="#ffffff" stroke="#000000" points="759.5,-392.5 759.5,-411.5 813.5,-411.5 813.5,-392.5 759.5,-392.5"/>
<text text-anchor="middle" x="786.5" y="-399.5" font-family="Helvetica,sans-Serif" font-size="10.00" fill="#000000">Tileset.h</text>
</a>
</g>
</g>
<!-- Node0&#45;&gt;Node2 -->
<g id="edge2" class="edge">
<title>Node0&#45;&gt;Node2</title>
<path fill="none" stroke="#191970" d="M786.5,-448.2455C786.5,-440.9382 786.5,-430.6944 786.5,-421.7046"/>
<polygon fill="#191970" stroke="#191970" points="790.0001,-421.6426 786.5,-411.6427 783.0001,-421.6427 790.0001,-421.6426"/>
</g>
<!-- Node5 -->
<g id="node6" class="node">
<title>Node5</title>
<g id="a_node6"><a xlink:href="Error_8h.html" target="_top" xlink:title="Error.h">
<polygon fill="#ffffff" stroke="#000000" points="872.5,-336.5 872.5,-355.5 918.5,-355.5 918.5,-336.5 872.5,-336.5"/>
<text text-anchor="middle" x="895.5" y="-343.5" font-family="Helvetica,sans-Serif" font-size="10.00" fill="#000000">Error.h</text>
</a>
</g>
</g>
<!-- Node0&#45;&gt;Node5 -->
<g id="edge45" class="edge">
<title>Node0&#45;&gt;Node5</title>
<path fill="none" stroke="#191970" d="M795.7933,-448.4509C814.2949,-429.4401 855.9463,-386.6423 879.1344,-362.816"/>
<polygon fill="#191970" stroke="#191970" points="881.764,-365.1324 886.2302,-355.5249 876.7475,-360.2502 881.764,-365.1324"/>
</g>
<!-- Node3 -->
<g id="node4" class="node">
<title>Node3</title>
<polygon fill="#ffffff" stroke="#bfbfbf" points="748,-112.5 748,-131.5 789,-131.5 789,-112.5 748,-112.5"/>
<text text-anchor="middle" x="768.5" y="-119.5" font-family="Helvetica,sans-Serif" font-size="10.00" fill="#000000">string</text>
</g>
<!-- Node2&#45;&gt;Node3 -->
<g id="edge3" class="edge">
<title>Node2&#45;&gt;Node3</title>
<path fill="none" stroke="#191970" d="M789.4511,-392.2168C795.0144,-372.8801 806.5,-328.3189 806.5,-290 806.5,-290 806.5,-290 806.5,-234 806.5,-199.6118 790.2366,-162.2832 778.989,-140.5791"/>
<polygon fill="#191970" stroke="#191970" points="781.931,-138.6605 774.107,-131.5166 775.7683,-141.9804 781.931,-138.6605"/>
</g>
<!-- Node4 -->
<g id="node5" class="node">
<title>Node4</title>
<polygon fill="#ffffff" stroke="#bfbfbf" points="814.5,-112.5 814.5,-131.5 858.5,-131.5 858.5,-112.5 814.5,-112.5"/>
<text text-anchor="middle" x="836.5" y="-119.5" font-family="Helvetica,sans-Serif" font-size="10.00" fill="#000000">vector</text>
</g>
<!-- Node2&#45;&gt;Node4 -->
<g id="edge4" class="edge">
<title>Node2&#45;&gt;Node4</title>
<path fill="none" stroke="#191970" d="M795.5625,-392.3829C811.875,-374.0212 844.5,-332.0423 844.5,-290 844.5,-290 844.5,-290 844.5,-234 844.5,-201.6293 841.134,-164.1294 838.7687,-141.7743"/>
<polygon fill="#191970" stroke="#191970" points="842.219,-141.1291 837.6462,-131.5719 835.261,-141.8948 842.219,-141.1291"/>
</g>
<!-- Node2&#45;&gt;Node5 -->
<g id="edge5" class="edge">
<title>Node2&#45;&gt;Node5</title>
<path fill="none" stroke="#191970" d="M805.4864,-392.2455C822.6792,-383.4125 848.2238,-370.2887 867.7132,-360.2758"/>
<polygon fill="#191970" stroke="#191970" points="869.4359,-363.3257 876.7312,-355.6427 866.237,-357.0993 869.4359,-363.3257"/>
</g>
<!-- Node8 -->
<g id="node9" class="node">
<title>Node8</title>
<g id="a_node9"><a xlink:href="Sprite_8h.html" target="_top" xlink:title="Sprite.h">
<polygon fill="#ffffff" stroke="#000000" points="458.5,-336.5 458.5,-355.5 508.5,-355.5 508.5,-336.5 458.5,-336.5"/>
<text text-anchor="middle" x="483.5" y="-343.5" font-family="Helvetica,sans-Serif" font-size="10.00" fill="#000000">Sprite.h</text>
</a>
</g>
</g>
<!-- Node2&#45;&gt;Node8 -->
<g id="edge8" class="edge">
<title>Node2&#45;&gt;Node8</title>
<path fill="none" stroke="#191970" d="M759.4468,-394.1717C756.4389,-393.3949 753.4114,-392.6534 750.5,-392 668.0605,-373.4975 569.8587,-358.3129 518.6014,-350.8994"/>
<polygon fill="#191970" stroke="#191970" points="519.092,-347.434 508.6964,-349.4793 518.0984,-354.3632 519.092,-347.434"/>
</g>
<!-- Node12 -->
<g id="node13" class="node">
<title>Node12</title>
<g id="a_node13"><a xlink:href="ComponentType_8h.html" target="_top" xlink:title="ComponentType.h">
<polygon fill="#ffffff" stroke="#000000" points="550,-112.5 550,-131.5 647,-131.5 647,-112.5 550,-112.5"/>
<text text-anchor="middle" x="598.5" y="-119.5" font-family="Helvetica,sans-Serif" font-size="10.00" fill="#000000">ComponentType.h</text>
</a>
</g>
</g>
<!-- Node2&#45;&gt;Node12 -->
<g id="edge44" class="edge">
<title>Node2&#45;&gt;Node12</title>
<path fill="none" stroke="#191970" d="M786.1886,-392.0907C784.5572,-356.826 774.4109,-235.9125 711.5,-168 696.7796,-152.1093 675.7875,-141.5737 655.8835,-134.6507"/>
<polygon fill="#191970" stroke="#191970" points="656.8238,-131.2765 646.2322,-131.5347 654.6731,-137.9379 656.8238,-131.2765"/>
</g>
<!-- Node14 -->
<g id="node15" class="node">
<title>Node14</title>
<g id="a_node15"><a xlink:href="Rect_8h.html" target="_top" xlink:title="Rect.h">
<polygon fill="#ffffff" stroke="#000000" points="300.5,-112.5 300.5,-131.5 346.5,-131.5 346.5,-112.5 300.5,-112.5"/>
<text text-anchor="middle" x="323.5" y="-119.5" font-family="Helvetica,sans-Serif" font-size="10.00" fill="#000000">Rect.h</text>
</a>
</g>
</g>
<!-- Node2&#45;&gt;Node14 -->
<g id="edge43" class="edge">
<title>Node2&#45;&gt;Node14</title>
<path fill="none" stroke="#191970" d="M759.4788,-394.0197C756.465,-393.2714 753.4273,-392.5781 750.5,-392 635.8295,-369.3525 234.5,-406.8855 234.5,-290 234.5,-290 234.5,-290 234.5,-234 234.5,-192.0503 273.2437,-156.7004 299.6057,-137.503"/>
<polygon fill="#191970" stroke="#191970" points="301.8144,-140.2292 307.9974,-131.6256 297.7987,-134.4956 301.8144,-140.2292"/>
</g>
<!-- Node15 -->
<g id="node16" class="node">
<title>Node15</title>
<g id="a_node16"><a xlink:href="Vec2_8h.html" target="_top" xlink:title="Vec2.h">
<polygon fill="#ffffff" stroke="#000000" points="204,-56.5 204,-75.5 251,-75.5 251,-56.5 204,-56.5"/>
<text text-anchor="middle" x="227.5" y="-63.5" font-family="Helvetica,sans-Serif" font-size="10.00" fill="#000000">Vec2.h</text>
</a>
</g>
</g>
<!-- Node2&#45;&gt;Node15 -->
<g id="edge42" class="edge">
<title>Node2&#45;&gt;Node15</title>
<path fill="none" stroke="#191970" d="M759.1097,-393.7927C756.2204,-393.1069 753.3118,-392.49 750.5,-392 644.03,-373.4475 358.0211,-411.856 265.5,-356 174.2128,-300.8889 207.123,-141.0498 221.8975,-85.387"/>
<polygon fill="#191970" stroke="#191970" points="225.2829,-86.2761 224.5685,-75.7054 218.535,-84.4145 225.2829,-86.2761"/>
</g>
<!-- Node6 -->
<g id="node7" class="node">
<title>Node6</title>
<polygon fill="#ffffff" stroke="#bfbfbf" points="938.5,-280.5 938.5,-299.5 992.5,-299.5 992.5,-280.5 938.5,-280.5"/>
<text text-anchor="middle" x="965.5" y="-287.5" font-family="Helvetica,sans-Serif" font-size="10.00" fill="#000000">iostream</text>
</g>
<!-- Node5&#45;&gt;Node6 -->
<g id="edge6" class="edge">
<title>Node5&#45;&gt;Node6</title>
<path fill="none" stroke="#191970" d="M907.6931,-336.2455C918.1321,-327.8943 933.3655,-315.7076 945.574,-305.9408"/>
<polygon fill="#191970" stroke="#191970" points="947.8244,-308.6227 953.4467,-299.6427 943.4515,-303.1566 947.8244,-308.6227"/>
</g>
<!-- Node7 -->
<g id="node8" class="node">
<title>Node7</title>
<polygon fill="#ffffff" stroke="#bfbfbf" points="872.5,-280.5 872.5,-299.5 920.5,-299.5 920.5,-280.5 872.5,-280.5"/>
<text text-anchor="middle" x="896.5" y="-287.5" font-family="Helvetica,sans-Serif" font-size="10.00" fill="#000000">stdlib.h</text>
</g>
<!-- Node5&#45;&gt;Node7 -->
<g id="edge7" class="edge">
<title>Node5&#45;&gt;Node7</title>
<path fill="none" stroke="#191970" d="M895.6742,-336.2455C895.8047,-328.9382 895.9876,-318.6944 896.1481,-309.7046"/>
<polygon fill="#191970" stroke="#191970" points="899.6486,-309.7036 896.3278,-299.6427 892.6497,-309.5786 899.6486,-309.7036"/>
</g>
<!-- Node8&#45;&gt;Node3 -->
<g id="edge10" class="edge">
<title>Node8&#45;&gt;Node3</title>
<path fill="none" stroke="#191970" d="M508.9928,-340.3786C536.4306,-333.5916 580.6816,-320.4705 614.5,-300 682.5612,-258.8021 736.1716,-177.3127 757.9448,-140.6465"/>
<polygon fill="#191970" stroke="#191970" points="761.2251,-141.968 763.2273,-131.5641 755.1741,-138.4487 761.2251,-141.968"/>
</g>
<!-- Node9 -->
<g id="node10" class="node">
<title>Node9</title>
<g id="a_node10"><a xlink:href="SDL__include_8h.html" target="_top" xlink:title="SDL_include.h">
<polygon fill="#ffffff" stroke="#000000" points="289.5,-.5 289.5,-19.5 369.5,-19.5 369.5,-.5 289.5,-.5"/>
<text text-anchor="middle" x="329.5" y="-7.5" font-family="Helvetica,sans-Serif" font-size="10.00" fill="#000000">SDL_include.h</text>
</a>
</g>
</g>
<!-- Node8&#45;&gt;Node9 -->
<g id="edge9" class="edge">
<title>Node8&#45;&gt;Node9</title>
<path fill="none" stroke="#191970" d="M463.1835,-336.3479C448.8542,-328.5094 430.3494,-316.1193 419.5,-300 357.2025,-207.4429 405.4966,-158.0936 360.5,-56 356.1075,-46.0337 349.5459,-35.8956 343.589,-27.6825"/>
<polygon fill="#191970" stroke="#191970" points="346.3181,-25.4887 337.4937,-19.6252 340.7355,-29.7119 346.3181,-25.4887"/>
</g>
<!-- Node10 -->
<g id="node11" class="node">
<title>Node10</title>
<polygon fill="#ffffff" stroke="#bfbfbf" points="426.5,-112.5 426.5,-131.5 478.5,-131.5 478.5,-112.5 426.5,-112.5"/>
<text text-anchor="middle" x="452.5" y="-119.5" font-family="Helvetica,sans-Serif" font-size="10.00" fill="#000000">memory</text>
</g>
<!-- Node8&#45;&gt;Node10 -->
<g id="edge11" class="edge">
<title>Node8&#45;&gt;Node10</title>
<path fill="none" stroke="#191970" d="M465.5401,-336.3701C452.8676,-328.4681 436.8833,-315.9885 429.5,-300 404.7568,-246.4188 429.2173,-174.6856 443.6176,-140.9911"/>
<polygon fill="#191970" stroke="#191970" points="446.8317,-142.3771 447.698,-131.8177 440.4359,-139.5321 446.8317,-142.3771"/>
</g>
<!-- Node11 -->
<g id="node12" class="node">
<title>Node11</title>
<g id="a_node12"><a xlink:href="Component_8h.html" target="_top" xlink:title="Component.h">
<polygon fill="#ffffff" stroke="#000000" points="551,-224.5 551,-243.5 626,-243.5 626,-224.5 551,-224.5"/>
<text text-anchor="middle" x="588.5" y="-231.5" font-family="Helvetica,sans-Serif" font-size="10.00" fill="#000000">Component.h</text>
</a>
</g>
</g>
<!-- Node8&#45;&gt;Node11 -->
<g id="edge12" class="edge">
<title>Node8&#45;&gt;Node11</title>
<path fill="none" stroke="#191970" d="M496.1537,-336.4488C507.5297,-327.5848 524.4127,-313.7266 537.5,-300 551.7891,-285.0128 566.028,-266.1753 575.8142,-252.4655"/>
<polygon fill="#191970" stroke="#191970" points="578.9434,-254.0994 581.8237,-243.9036 573.2139,-250.0779 578.9434,-254.0994"/>
</g>
<!-- Node8&#45;&gt;Node14 -->
<g id="edge29" class="edge">
<title>Node8&#45;&gt;Node14</title>
<path fill="none" stroke="#191970" d="M458.3553,-343.5881C412.0842,-338.5743 316.3515,-325.3265 296.5,-300 259.3114,-252.5547 293.4826,-175.5673 312.5985,-140.4807"/>
<polygon fill="#191970" stroke="#191970" points="315.6557,-142.1847 317.5191,-131.755 309.5584,-138.7462 315.6557,-142.1847"/>
</g>
<!-- Node17 -->
<g id="node18" class="node">
<title>Node17</title>
<g id="a_node18"><a xlink:href="Color_8h.html" target="_top" xlink:title="Color.h">
<polygon fill="#ffffff" stroke="#000000" points="654.5,-168.5 654.5,-187.5 702.5,-187.5 702.5,-168.5 654.5,-168.5"/>
<text text-anchor="middle" x="678.5" y="-175.5" font-family="Helvetica,sans-Serif" font-size="10.00" fill="#000000">Color.h</text>
</a>
</g>
</g>
<!-- Node8&#45;&gt;Node17 -->
<g id="edge27" class="edge">
<title>Node8&#45;&gt;Node17</title>
<path fill="none" stroke="#191970" d="M508.7508,-337.0637C545.5079,-322.8424 613.6943,-291.6985 653.5,-244 664.6504,-230.6386 671.1235,-211.7876 674.677,-197.6511"/>
<polygon fill="#191970" stroke="#191970" points="678.1758,-198.0416 676.9345,-187.5197 671.3433,-196.5191 678.1758,-198.0416"/>
</g>
<!-- Node18 -->
<g id="node19" class="node">
<title>Node18</title>
<g id="a_node19"><a xlink:href="RectTransform_8h.html" target="_top" xlink:title="RectTransform.h">
<polygon fill="#ffffff" stroke="#000000" points="438.5,-280.5 438.5,-299.5 528.5,-299.5 528.5,-280.5 438.5,-280.5"/>
<text text-anchor="middle" x="483.5" y="-287.5" font-family="Helvetica,sans-Serif" font-size="10.00" fill="#000000">RectTransform.h</text>
</a>
</g>
</g>
<!-- Node8&#45;&gt;Node18 -->
<g id="edge30" class="edge">
<title>Node8&#45;&gt;Node18</title>
<path fill="none" stroke="#191970" d="M483.5,-336.2455C483.5,-328.9382 483.5,-318.6944 483.5,-309.7046"/>
<polygon fill="#191970" stroke="#191970" points="487.0001,-309.6426 483.5,-299.6427 480.0001,-309.6427 487.0001,-309.6426"/>
</g>
<!-- Node20 -->
<g id="node21" class="node">
<title>Node20</title>
<g id="a_node21"><a xlink:href="InputManager_8h.html" target="_top" xlink:title="InputManager.h">
<polygon fill="#ffffff" stroke="#000000" points="84.5,-112.5 84.5,-131.5 168.5,-131.5 168.5,-112.5 84.5,-112.5"/>
<text text-anchor="middle" x="126.5" y="-119.5" font-family="Helvetica,sans-Serif" font-size="10.00" fill="#000000">InputManager.h</text>
</a>
</g>
</g>
<!-- Node8&#45;&gt;Node20 -->
<g id="edge37" class="edge">
<title>Node8&#45;&gt;Node20</title>
<path fill="none" stroke="#191970" d="M458.3619,-342.2301C411.3434,-334.8588 312.1637,-317.7038 282.5,-300 213.5084,-258.8246 158.9016,-176.7093 136.9528,-140.2121"/>
<polygon fill="#191970" stroke="#191970" points="139.9584,-138.4185 131.864,-131.5824 133.9286,-141.9741 139.9584,-138.4185"/>
</g>
<!-- Node11&#45;&gt;Node12 -->
<g id="edge13" class="edge">
<title>Node11&#45;&gt;Node12</title>
<path fill="none" stroke="#191970" d="M589.3526,-224.4509C590.9836,-206.184 594.5754,-165.9553 596.7413,-141.6976"/>
<polygon fill="#191970" stroke="#191970" points="600.2463,-141.7966 597.6496,-131.5249 593.274,-141.174 600.2463,-141.7966"/>
</g>
<!-- Node13 -->
<g id="node14" class="node">
<title>Node13</title>
<g id="a_node14"><a xlink:href="GameObject_8h.html" target="_top" xlink:title="GameObject.h">
<polygon fill="#ffffff" stroke="#000000" points="480.5,-168.5 480.5,-187.5 560.5,-187.5 560.5,-168.5 480.5,-168.5"/>
<text text-anchor="middle" x="520.5" y="-175.5" font-family="Helvetica,sans-Serif" font-size="10.00" fill="#000000">GameObject.h</text>
</a>
</g>
</g>
<!-- Node11&#45;&gt;Node13 -->
<g id="edge14" class="edge">
<title>Node11&#45;&gt;Node13</title>
<path fill="none" stroke="#191970" d="M571.3885,-224.2455C559.8611,-216.0549 545.1187,-204.1749 534.3273,-194.5069"/>
<polygon fill="#191970" stroke="#191970" points="536.6651,-191.9013 526.9638,-187.6427 531.8919,-197.0216 536.6651,-191.9013"/>
</g>
<!-- Node13&#45;&gt;Node3 -->
<g id="edge18" class="edge">
<title>Node13&#45;&gt;Node3</title>
<path fill="none" stroke="#191970" d="M560.6211,-168.9404C610.1176,-157.7638 693.181,-139.0075 737.8556,-128.9197"/>
<polygon fill="#191970" stroke="#191970" points="738.8394,-132.2858 747.8229,-126.669 737.2975,-125.4577 738.8394,-132.2858"/>
</g>
<!-- Node13&#45;&gt;Node4 -->
<g id="edge16" class="edge">
<title>Node13&#45;&gt;Node4</title>
<path fill="none" stroke="#191970" d="M560.6111,-172.4505C614.6688,-164.7184 713.7859,-149.6491 797.5,-132 799.8083,-131.5133 802.1859,-130.9812 804.5743,-130.424"/>
<polygon fill="#191970" stroke="#191970" points="805.4215,-133.82 814.304,-128.045 803.7588,-127.0204 805.4215,-133.82"/>
</g>
<!-- Node13&#45;&gt;Node9 -->
<g id="edge15" class="edge">
<title>Node13&#45;&gt;Node9</title>
<path fill="none" stroke="#191970" d="M517.4142,-168.0824C512.727,-154.2575 502.7169,-128.9833 487.5,-112 451.2541,-71.5464 395.3939,-40.5957 360.7183,-23.8804"/>
<polygon fill="#191970" stroke="#191970" points="362.071,-20.6487 351.5336,-19.5473 359.0842,-26.9796 362.071,-20.6487"/>
</g>
<!-- Node13&#45;&gt;Node10 -->
<g id="edge17" class="edge">
<title>Node13&#45;&gt;Node10</title>
<path fill="none" stroke="#191970" d="M508.6553,-168.2455C498.612,-159.9746 484.0005,-147.9416 472.1996,-138.2232"/>
<polygon fill="#191970" stroke="#191970" points="474.1533,-135.298 464.209,-131.6427 469.7033,-140.7015 474.1533,-135.298"/>
</g>
<!-- Node13&#45;&gt;Node11 -->
<g id="edge19" class="edge">
<title>Node13&#45;&gt;Node11</title>
<path fill="none" stroke="#191970" d="M537.4541,-187.6427C548.952,-195.7995 563.6976,-207.6727 574.5249,-217.3607"/>
<polygon fill="#191970" stroke="#191970" points="572.2175,-219.9946 581.9221,-224.2455 576.9866,-214.8705 572.2175,-219.9946"/>
</g>
<!-- Node13&#45;&gt;Node12 -->
<g id="edge20" class="edge">
<title>Node13&#45;&gt;Node12</title>
<path fill="none" stroke="#191970" d="M534.0866,-168.2455C545.8305,-159.814 563.0199,-147.4729 576.6882,-137.6598"/>
<polygon fill="#191970" stroke="#191970" points="578.9871,-140.3179 585.0691,-131.6427 574.9046,-134.6316 578.9871,-140.3179"/>
</g>
<!-- Node13&#45;&gt;Node14 -->
<g id="edge21" class="edge">
<title>Node13&#45;&gt;Node14</title>
<path fill="none" stroke="#191970" d="M486.6345,-168.3733C450.2886,-158.0414 392.9214,-141.734 356.7967,-131.465"/>
<polygon fill="#191970" stroke="#191970" points="357.3363,-127.9798 346.7604,-128.6121 355.4223,-134.7131 357.3363,-127.9798"/>
</g>
<!-- Node14&#45;&gt;Node9 -->
<g id="edge22" class="edge">
<title>Node14&#45;&gt;Node9</title>
<path fill="none" stroke="#191970" d="M315.5309,-112.2992C306.0588,-99.5524 292.2708,-76.3896 298.5,-56 301.6409,-45.7192 307.9366,-35.6582 314.0388,-27.5799"/>
<polygon fill="#191970" stroke="#191970" points="316.863,-29.6535 320.4259,-19.6757 311.4184,-25.2539 316.863,-29.6535"/>
</g>
<!-- Node14&#45;&gt;Node15 -->
<g id="edge23" class="edge">
<title>Node14&#45;&gt;Node15</title>
<path fill="none" stroke="#191970" d="M301.5112,-112.2455C285.1228,-103.6534 263.1663,-91.0014 247.3205,-81.1018"/>
<polygon fill="#191970" stroke="#191970" points="249.0953,-78.0823 238.7852,-75.6427 245.3236,-83.9793 249.0953,-78.0823"/>
</g>
<!-- Node16 -->
<g id="node17" class="node">
<title>Node16</title>
<polygon fill="#ffffff" stroke="#bfbfbf" points="307.5,-56.5 307.5,-75.5 351.5,-75.5 351.5,-56.5 307.5,-56.5"/>
<text text-anchor="middle" x="329.5" y="-63.5" font-family="Helvetica,sans-Serif" font-size="10.00" fill="#000000">cmath</text>
</g>
<!-- Node14&#45;&gt;Node16 -->
<g id="edge26" class="edge">
<title>Node14&#45;&gt;Node16</title>
<path fill="none" stroke="#191970" d="M324.5451,-112.2455C325.328,-104.9382 326.4256,-94.6944 327.3888,-85.7046"/>
<polygon fill="#191970" stroke="#191970" points="330.8815,-85.9587 328.4669,-75.6427 323.9214,-85.2129 330.8815,-85.9587"/>
</g>
<!-- Node15&#45;&gt;Node9 -->
<g id="edge24" class="edge">
<title>Node15&#45;&gt;Node9</title>
<path fill="none" stroke="#191970" d="M245.267,-56.2455C261.2095,-47.4928 284.8259,-34.527 302.9989,-24.5496"/>
<polygon fill="#191970" stroke="#191970" points="304.8552,-27.5233 311.9366,-19.6427 301.4863,-21.3873 304.8552,-27.5233"/>
</g>
<!-- Node15&#45;&gt;Node14 -->
<g id="edge25" class="edge">
<title>Node15&#45;&gt;Node14</title>
<path fill="none" stroke="#191970" d="M249.2754,-75.6427C265.6153,-84.1994 287.5738,-96.8456 303.4725,-106.769"/>
<polygon fill="#191970" stroke="#191970" points="301.7335,-109.8112 312.0449,-112.2455 305.5022,-103.9123 301.7335,-109.8112"/>
</g>
<!-- Node17&#45;&gt;Node9 -->
<g id="edge28" class="edge">
<title>Node17&#45;&gt;Node9</title>
<path fill="none" stroke="#191970" d="M677.8224,-168.4951C676.2965,-154.2404 671.3644,-127.3633 655.5,-112 615.7699,-73.5248 460.8735,-36.9679 379.7231,-19.959"/>
<polygon fill="#191970" stroke="#191970" points="380.2328,-16.4903 369.7302,-17.8853 378.8104,-23.3443 380.2328,-16.4903"/>
</g>
<!-- Node18&#45;&gt;Node11 -->
<g id="edge32" class="edge">
<title>Node18&#45;&gt;Node11</title>
<path fill="none" stroke="#191970" d="M501.7896,-280.2455C518.2762,-271.4527 542.7352,-258.4079 561.4765,-248.4125"/>
<polygon fill="#191970" stroke="#191970" points="563.2435,-251.4368 570.42,-243.6427 559.9494,-245.2604 563.2435,-251.4368"/>
</g>
<!-- Node18&#45;&gt;Node12 -->
<g id="edge33" class="edge">
<title>Node18&#45;&gt;Node12</title>
<path fill="none" stroke="#191970" d="M528.7974,-282.2893C568.4879,-274.5008 621.7767,-261.1766 634.5,-244 658.0309,-212.2331 631.0487,-165.237 612.6926,-139.8445"/>
<polygon fill="#191970" stroke="#191970" points="615.2436,-137.4141 606.4296,-131.535 609.6536,-141.6274 615.2436,-137.4141"/>
</g>
<!-- Node18&#45;&gt;Node13 -->
<g id="edge34" class="edge">
<title>Node18&#45;&gt;Node13</title>
<path fill="none" stroke="#191970" d="M487.9391,-280.2659C492.0424,-271.0475 498.1452,-256.7564 502.5,-244 507.776,-228.5451 512.5772,-210.652 515.8915,-197.3985"/>
<polygon fill="#191970" stroke="#191970" points="519.3336,-198.0567 518.3037,-187.512 512.533,-196.3974 519.3336,-198.0567"/>
</g>
<!-- Node18&#45;&gt;Node14 -->
<g id="edge35" class="edge">
<title>Node18&#45;&gt;Node14</title>
<path fill="none" stroke="#191970" d="M474.4393,-280.4862C448.4901,-253.2396 373.6116,-174.6172 340.0806,-139.4096"/>
<polygon fill="#191970" stroke="#191970" points="342.291,-136.6555 332.8599,-131.8279 337.222,-141.4831 342.291,-136.6555"/>
</g>
<!-- Node18&#45;&gt;Node15 -->
<g id="edge36" class="edge">
<title>Node18&#45;&gt;Node15</title>
<path fill="none" stroke="#191970" d="M469.7344,-280.4535C456.8024,-271.3676 437.0224,-257.1662 420.5,-244 361.1202,-196.6821 346.6456,-184.191 291.5,-132 274.6042,-116.0094 256.202,-96.8334 243.4853,-83.2824"/>
<polygon fill="#191970" stroke="#191970" points="245.7469,-80.5757 236.3665,-75.6506 240.6282,-85.3505 245.7469,-80.5757"/>
</g>
<!-- Node19 -->
<g id="node20" class="node">
<title>Node19</title>
<polygon fill="#ffffff" stroke="#bfbfbf" points="453,-224.5 453,-243.5 494,-243.5 494,-224.5 453,-224.5"/>
<text text-anchor="middle" x="473.5" y="-231.5" font-family="Helvetica,sans-Serif" font-size="10.00" fill="#000000">cfloat</text>
</g>
<!-- Node18&#45;&gt;Node19 -->
<g id="edge31" class="edge">
<title>Node18&#45;&gt;Node19</title>
<path fill="none" stroke="#191970" d="M481.7581,-280.2455C480.4533,-272.9382 478.624,-262.6944 477.0187,-253.7046"/>
<polygon fill="#191970" stroke="#191970" points="480.4254,-252.8717 475.2219,-243.6427 473.5344,-254.1022 480.4254,-252.8717"/>
</g>
<!-- Node20&#45;&gt;Node9 -->
<g id="edge38" class="edge">
<title>Node20&#45;&gt;Node9</title>
<path fill="none" stroke="#191970" d="M134.2436,-112.0919C145.8868,-97.8114 169.2452,-71.4644 194.5,-56 220.6204,-40.0056 253.0176,-28.7281 279.5273,-21.3435"/>
<polygon fill="#191970" stroke="#191970" points="280.6221,-24.6736 289.3737,-18.7021 278.8084,-17.9126 280.6221,-24.6736"/>
</g>
<!-- Node20&#45;&gt;Node15 -->
<g id="edge39" class="edge">
<title>Node20&#45;&gt;Node15</title>
<path fill="none" stroke="#191970" d="M144.0929,-112.2455C159.879,-103.4928 183.2639,-90.527 201.2587,-80.5496"/>
<polygon fill="#191970" stroke="#191970" points="203.0603,-83.5528 210.1087,-75.6427 199.6659,-77.4308 203.0603,-83.5528"/>
</g>
<!-- Node21 -->
<g id="node22" class="node">
<title>Node21</title>
<polygon fill="#ffffff" stroke="#bfbfbf" points="0,-56.5 0,-75.5 83,-75.5 83,-56.5 0,-56.5"/>
<text text-anchor="middle" x="41.5" y="-63.5" font-family="Helvetica,sans-Serif" font-size="10.00" fill="#000000">unordered_map</text>
</g>
<!-- Node20&#45;&gt;Node21 -->
<g id="edge40" class="edge">
<title>Node20&#45;&gt;Node21</title>
<path fill="none" stroke="#191970" d="M111.6941,-112.2455C98.7744,-103.7337 79.8069,-91.2375 64.8448,-81.3801"/>
<polygon fill="#191970" stroke="#191970" points="66.4124,-78.2216 56.1362,-75.6427 62.5613,-84.067 66.4124,-78.2216"/>
</g>
<!-- Node22 -->
<g id="node23" class="node">
<title>Node22</title>
<polygon fill="#ffffff" stroke="#bfbfbf" points="101.5,-56.5 101.5,-75.5 147.5,-75.5 147.5,-56.5 101.5,-56.5"/>
<text text-anchor="middle" x="124.5" y="-63.5" font-family="Helvetica,sans-Serif" font-size="10.00" fill="#000000">cstdint</text>
</g>
<!-- Node20&#45;&gt;Node22 -->
<g id="edge41" class="edge">
<title>Node20&#45;&gt;Node22</title>
<path fill="none" stroke="#191970" d="M126.1516,-112.2455C125.8907,-104.9382 125.5248,-94.6944 125.2037,-85.7046"/>
<polygon fill="#191970" stroke="#191970" points="128.6992,-85.5113 124.8444,-75.6427 121.7036,-85.7613 128.6992,-85.5113"/>
</g>
</g>
</svg>
