<?xml version="1.0" encoding="UTF-8" standalone="no"?>
<!DOCTYPE svg PUBLIC "-//W3C//DTD SVG 1.1//EN"
 "http://www.w3.org/Graphics/SVG/1.1/DTD/svg11.dtd">
<!-- Generated by graphviz version 2.38.0 (20140413.2041)
 -->
<!-- Title: src/Tileset.cpp Pages: 1 -->
<svg width="806pt" height="420pt"
 viewBox="0.00 0.00 805.88 420.00" xmlns="http://www.w3.org/2000/svg" xmlns:xlink="http://www.w3.org/1999/xlink">
<g id="graph0" class="graph" transform="scale(1 1) rotate(0) translate(4 416)">
<title>src/Tileset.cpp</title>
<polygon fill="white" stroke="none" points="-4,4 -4,-416 801.876,-416 801.876,4 -4,4"/>
<!-- Node0 -->
<g id="node1" class="node"><title>Node0</title>
<polygon fill="#bfbfbf" stroke="black" points="571.376,-392.5 571.376,-411.5 652.376,-411.5 652.376,-392.5 571.376,-392.5"/>
<text text-anchor="middle" x="611.876" y="-399.5" font-family="Helvetica,sans-Serif" font-size="10.00">src/Tileset.cpp</text>
</g>
<!-- Node1 -->
<g id="node2" class="node"><title>Node1</title>
<polygon fill="white" stroke="#bfbfbf" points="520.876,-336.5 520.876,-355.5 566.876,-355.5 566.876,-336.5 520.876,-336.5"/>
<text text-anchor="middle" x="543.876" y="-343.5" font-family="Helvetica,sans-Serif" font-size="10.00">stdio.h</text>
</g>
<!-- Node0&#45;&gt;Node1 -->
<g id="edge1" class="edge"><title>Node0&#45;&gt;Node1</title>
<path fill="none" stroke="midnightblue" d="M600.951,-392.324C590.702,-384.185 575.156,-371.839 562.875,-362.087"/>
<polygon fill="midnightblue" stroke="midnightblue" points="565.008,-359.312 555,-355.834 560.655,-364.794 565.008,-359.312"/>
</g>
<!-- Node2 -->
<g id="node3" class="node"><title>Node2</title>
<g id="a_node3"><a xlink:href="Tileset_8h.html" target="_top" xlink:title="Tileset.h">
<polygon fill="white" stroke="black" points="584.876,-336.5 584.876,-355.5 638.876,-355.5 638.876,-336.5 584.876,-336.5"/>
<text text-anchor="middle" x="611.876" y="-343.5" font-family="Helvetica,sans-Serif" font-size="10.00">Tileset.h</text>
</a>
</g>
</g>
<!-- Node0&#45;&gt;Node2 -->
<g id="edge2" class="edge"><title>Node0&#45;&gt;Node2</title>
<path fill="none" stroke="midnightblue" d="M611.876,-392.083C611.876,-385.006 611.876,-374.861 611.876,-365.986"/>
<polygon fill="midnightblue" stroke="midnightblue" points="615.376,-365.751 611.876,-355.751 608.376,-365.751 615.376,-365.751"/>
</g>
<!-- Node5 -->
<g id="node6" class="node"><title>Node5</title>
<g id="a_node6"><a xlink:href="Error_8h.html" target="_top" xlink:title="Error.h">
<polygon fill="white" stroke="black" points="677.876,-280.5 677.876,-299.5 723.876,-299.5 723.876,-280.5 677.876,-280.5"/>
<text text-anchor="middle" x="700.876" y="-287.5" font-family="Helvetica,sans-Serif" font-size="10.00">Error.h</text>
</a>
</g>
</g>
<!-- Node0&#45;&gt;Node5 -->
<g id="edge36" class="edge"><title>Node0&#45;&gt;Node5</title>
<path fill="none" stroke="midnightblue" d="M618.86,-392.368C633.613,-374.135 668.168,-331.426 687.385,-307.675"/>
<polygon fill="midnightblue" stroke="midnightblue" points="690.356,-309.567 693.925,-299.591 684.914,-305.164 690.356,-309.567"/>
</g>
<!-- Node3 -->
<g id="node4" class="node"><title>Node3</title>
<polygon fill="white" stroke="#bfbfbf" points="641.376,-112.5 641.376,-131.5 682.376,-131.5 682.376,-112.5 641.376,-112.5"/>
<text text-anchor="middle" x="661.876" y="-119.5" font-family="Helvetica,sans-Serif" font-size="10.00">string</text>
</g>
<!-- Node2&#45;&gt;Node3 -->
<g id="edge3" class="edge"><title>Node2&#45;&gt;Node3</title>
<path fill="none" stroke="midnightblue" d="M614.303,-336.405C616.821,-327.373 620.813,-312.735 623.876,-300 637.688,-242.575 651.699,-174.08 658.174,-141.711"/>
<polygon fill="midnightblue" stroke="midnightblue" points="661.685,-141.999 660.204,-131.508 654.82,-140.632 661.685,-141.999"/>
</g>
<!-- Node4 -->
<g id="node5" class="node"><title>Node4</title>
<polygon fill="white" stroke="#bfbfbf" points="578.876,-112.5 578.876,-131.5 622.876,-131.5 622.876,-112.5 578.876,-112.5"/>
<text text-anchor="middle" x="600.876" y="-119.5" font-family="Helvetica,sans-Serif" font-size="10.00">vector</text>
</g>
<!-- Node2&#45;&gt;Node4 -->
<g id="edge4" class="edge"><title>Node2&#45;&gt;Node4</title>
<path fill="none" stroke="midnightblue" d="M611.445,-336.297C609.827,-303.633 604.09,-187.866 601.816,-141.957"/>
<polygon fill="midnightblue" stroke="midnightblue" points="605.307,-141.698 601.317,-131.884 598.316,-142.045 605.307,-141.698"/>
</g>
<!-- Node2&#45;&gt;Node5 -->
<g id="edge5" class="edge"><title>Node2&#45;&gt;Node5</title>
<path fill="none" stroke="midnightblue" d="M626.176,-336.324C640.059,-327.9 661.369,-314.971 677.68,-305.074"/>
<polygon fill="midnightblue" stroke="midnightblue" points="679.879,-307.834 686.612,-299.655 676.247,-301.85 679.879,-307.834"/>
</g>
<!-- Node8 -->
<g id="node9" class="node"><title>Node8</title>
<g id="a_node9"><a xlink:href="Sprite_8h.html" target="_top" xlink:title="Sprite.h">
<polygon fill="white" stroke="black" points="350.876,-280.5 350.876,-299.5 400.876,-299.5 400.876,-280.5 350.876,-280.5"/>
<text text-anchor="middle" x="375.876" y="-287.5" font-family="Helvetica,sans-Serif" font-size="10.00">Sprite.h</text>
</a>
</g>
</g>
<!-- Node2&#45;&gt;Node8 -->
<g id="edge8" class="edge"><title>Node2&#45;&gt;Node8</title>
<path fill="none" stroke="midnightblue" d="M584.766,-338.15C581.769,-337.414 578.76,-336.685 575.876,-336 518.22,-322.309 450.957,-307.391 410.975,-298.634"/>
<polygon fill="midnightblue" stroke="midnightblue" points="411.695,-295.208 401.178,-296.492 410.2,-302.047 411.695,-295.208"/>
</g>
<!-- Node14 -->
<g id="node15" class="node"><title>Node14</title>
<g id="a_node15"><a xlink:href="Rect_8h.html" target="_top" xlink:title="Rect.h">
<polygon fill="white" stroke="black" points="74.8763,-112.5 74.8763,-131.5 120.876,-131.5 120.876,-112.5 74.8763,-112.5"/>
<text text-anchor="middle" x="97.8763" y="-119.5" font-family="Helvetica,sans-Serif" font-size="10.00">Rect.h</text>
</a>
</g>
</g>
<!-- Node2&#45;&gt;Node14 -->
<g id="edge35" class="edge"><title>Node2&#45;&gt;Node14</title>
<path fill="none" stroke="midnightblue" d="M584.849,-337.739C581.836,-337.081 578.8,-336.482 575.876,-336 527.367,-328.011 171.737,-332.531 134.876,-300 89.2123,-259.699 91.51,-178.829 95.3009,-142.023"/>
<polygon fill="midnightblue" stroke="midnightblue" points="98.8197,-142.073 96.5253,-131.729 91.8687,-141.246 98.8197,-142.073"/>
</g>
<!-- Node15 -->
<g id="node16" class="node"><title>Node15</title>
<g id="a_node16"><a xlink:href="Vec2_8h.html" target="_top" xlink:title="Vec2.h">
<polygon fill="white" stroke="black" points="77.3763,-56.5 77.3763,-75.5 124.376,-75.5 124.376,-56.5 77.3763,-56.5"/>
<text text-anchor="middle" x="100.876" y="-63.5" font-family="Helvetica,sans-Serif" font-size="10.00">Vec2.h</text>
</a>
</g>
</g>
<!-- Node2&#45;&gt;Node15 -->
<g id="edge34" class="edge"><title>Node2&#45;&gt;Node15</title>
<path fill="none" stroke="midnightblue" d="M584.81,-337.949C581.805,-337.251 578.781,-336.585 575.876,-336 480.29,-316.742 148.876,-332.507 148.876,-235 148.876,-235 148.876,-235 148.876,-177 148.876,-141.585 127.717,-104.707 113.496,-83.9203"/>
<polygon fill="midnightblue" stroke="midnightblue" points="116.2,-81.6838 107.551,-75.565 110.496,-85.7421 116.2,-81.6838"/>
</g>
<!-- Node6 -->
<g id="node7" class="node"><title>Node6</title>
<polygon fill="white" stroke="#bfbfbf" points="743.876,-224.5 743.876,-243.5 797.876,-243.5 797.876,-224.5 743.876,-224.5"/>
<text text-anchor="middle" x="770.876" y="-231.5" font-family="Helvetica,sans-Serif" font-size="10.00">iostream</text>
</g>
<!-- Node5&#45;&gt;Node6 -->
<g id="edge6" class="edge"><title>Node5&#45;&gt;Node6</title>
<path fill="none" stroke="midnightblue" d="M712.123,-280.324C722.674,-272.185 738.677,-259.839 751.319,-250.087"/>
<polygon fill="midnightblue" stroke="midnightblue" points="753.645,-252.713 759.425,-243.834 749.369,-247.171 753.645,-252.713"/>
</g>
<!-- Node7 -->
<g id="node8" class="node"><title>Node7</title>
<polygon fill="white" stroke="#bfbfbf" points="677.876,-224.5 677.876,-243.5 725.876,-243.5 725.876,-224.5 677.876,-224.5"/>
<text text-anchor="middle" x="701.876" y="-231.5" font-family="Helvetica,sans-Serif" font-size="10.00">stdlib.h</text>
</g>
<!-- Node5&#45;&gt;Node7 -->
<g id="edge7" class="edge"><title>Node5&#45;&gt;Node7</title>
<path fill="none" stroke="midnightblue" d="M701.041,-280.083C701.173,-273.006 701.36,-262.861 701.525,-253.986"/>
<polygon fill="midnightblue" stroke="midnightblue" points="705.028,-253.814 701.714,-243.751 698.03,-253.685 705.028,-253.814"/>
</g>
<!-- Node8&#45;&gt;Node3 -->
<g id="edge10" class="edge"><title>Node8&#45;&gt;Node3</title>
<path fill="none" stroke="midnightblue" d="M400.916,-286.978C436.332,-283.174 502.064,-272.566 549.876,-244 594.96,-217.065 632.949,-166.589 650.856,-140.149"/>
<polygon fill="midnightblue" stroke="midnightblue" points="653.924,-141.855 656.521,-131.583 648.085,-137.993 653.924,-141.855"/>
</g>
<!-- Node9 -->
<g id="node10" class="node"><title>Node9</title>
<g id="a_node10"><a xlink:href="SDL__include_8h.html" target="_top" xlink:title="SDL_include.h">
<polygon fill="white" stroke="black" points="297.876,-0.5 297.876,-19.5 377.876,-19.5 377.876,-0.5 297.876,-0.5"/>
<text text-anchor="middle" x="337.876" y="-7.5" font-family="Helvetica,sans-Serif" font-size="10.00">SDL_include.h</text>
</a>
</g>
</g>
<!-- Node8&#45;&gt;Node9 -->
<g id="edge9" class="edge"><title>Node8&#45;&gt;Node9</title>
<path fill="none" stroke="midnightblue" d="M394.821,-280.331C445.051,-256.103 574.873,-184.681 530.876,-112 500.042,-61.0626 434.131,-34.5769 387.954,-21.7334"/>
<polygon fill="midnightblue" stroke="midnightblue" points="388.693,-18.3084 378.129,-19.1223 386.895,-25.0735 388.693,-18.3084"/>
</g>
<!-- Node10 -->
<g id="node11" class="node"><title>Node10</title>
<polygon fill="white" stroke="#bfbfbf" points="316.876,-112.5 316.876,-131.5 368.876,-131.5 368.876,-112.5 316.876,-112.5"/>
<text text-anchor="middle" x="342.876" y="-119.5" font-family="Helvetica,sans-Serif" font-size="10.00">memory</text>
</g>
<!-- Node8&#45;&gt;Node10 -->
<g id="edge11" class="edge"><title>Node8&#45;&gt;Node10</title>
<path fill="none" stroke="midnightblue" d="M373.081,-280.451C370.217,-271.456 365.784,-256.849 362.876,-244 354.76,-208.128 348.491,-165.576 345.271,-141.691"/>
<polygon fill="midnightblue" stroke="midnightblue" points="348.715,-141.034 343.941,-131.575 341.775,-141.946 348.715,-141.034"/>
</g>
<!-- Node11 -->
<g id="node12" class="node"><title>Node11</title>
<g id="a_node12"><a xlink:href="Component_8h.html" target="_top" xlink:title="Component.h">
<polygon fill="white" stroke="black" points="372.376,-224.5 372.376,-243.5 447.376,-243.5 447.376,-224.5 372.376,-224.5"/>
<text text-anchor="middle" x="409.876" y="-231.5" font-family="Helvetica,sans-Serif" font-size="10.00">Component.h</text>
</a>
</g>
</g>
<!-- Node8&#45;&gt;Node11 -->
<g id="edge12" class="edge"><title>Node8&#45;&gt;Node11</title>
<path fill="none" stroke="midnightblue" d="M381.491,-280.083C386.244,-272.534 393.194,-261.495 399.028,-252.23"/>
<polygon fill="midnightblue" stroke="midnightblue" points="402,-254.078 404.366,-243.751 396.076,-250.349 402,-254.078"/>
</g>
<!-- Node8&#45;&gt;Node14 -->
<g id="edge28" class="edge"><title>Node8&#45;&gt;Node14</title>
<path fill="none" stroke="midnightblue" d="M357.076,-280.477C338.444,-271.852 309.24,-257.846 284.876,-244 222.801,-208.724 152.991,-161.389 118.896,-137.741"/>
<polygon fill="midnightblue" stroke="midnightblue" points="120.469,-134.571 110.263,-131.729 116.469,-140.316 120.469,-134.571"/>
</g>
<!-- Node17 -->
<g id="node18" class="node"><title>Node17</title>
<g id="a_node18"><a xlink:href="Color_8h.html" target="_top" xlink:title="Color.h">
<polygon fill="white" stroke="black" points="264.876,-168.5 264.876,-187.5 312.876,-187.5 312.876,-168.5 264.876,-168.5"/>
<text text-anchor="middle" x="288.876" y="-175.5" font-family="Helvetica,sans-Serif" font-size="10.00">Color.h</text>
</a>
</g>
</g>
<!-- Node8&#45;&gt;Node17 -->
<g id="edge26" class="edge"><title>Node8&#45;&gt;Node17</title>
<path fill="none" stroke="midnightblue" d="M365.143,-280.44C354.839,-271.894 339.211,-258.045 327.876,-244 316.021,-229.311 305.207,-210.676 297.99,-197.129"/>
<polygon fill="midnightblue" stroke="midnightblue" points="300.922,-195.18 293.214,-187.911 294.706,-198.4 300.922,-195.18"/>
</g>
<!-- Node18 -->
<g id="node19" class="node"><title>Node18</title>
<g id="a_node19"><a xlink:href="InputManager_8h.html" target="_top" xlink:title="InputManager.h">
<polygon fill="white" stroke="black" points="176.876,-112.5 176.876,-131.5 260.876,-131.5 260.876,-112.5 176.876,-112.5"/>
<text text-anchor="middle" x="218.876" y="-119.5" font-family="Helvetica,sans-Serif" font-size="10.00">InputManager.h</text>
</a>
</g>
</g>
<!-- Node8&#45;&gt;Node18 -->
<g id="edge29" class="edge"><title>Node8&#45;&gt;Node18</title>
<path fill="none" stroke="midnightblue" d="M361.885,-280.407C348.335,-271.837 327.463,-257.97 310.876,-244 284.194,-221.527 276.903,-215.836 255.876,-188 244.65,-173.138 234.388,-154.525 227.534,-141.029"/>
<polygon fill="midnightblue" stroke="midnightblue" points="230.568,-139.267 222.998,-131.854 224.293,-142.369 230.568,-139.267"/>
</g>
<!-- Node12 -->
<g id="node13" class="node"><title>Node12</title>
<g id="a_node13"><a xlink:href="ComponentType_8h.html" target="_top" xlink:title="ComponentType.h">
<polygon fill="white" stroke="black" points="425.376,-112.5 425.376,-131.5 522.376,-131.5 522.376,-112.5 425.376,-112.5"/>
<text text-anchor="middle" x="473.876" y="-119.5" font-family="Helvetica,sans-Serif" font-size="10.00">ComponentType.h</text>
</a>
</g>
</g>
<!-- Node11&#45;&gt;Node12 -->
<g id="edge13" class="edge"><title>Node11&#45;&gt;Node12</title>
<path fill="none" stroke="midnightblue" d="M423.192,-224.265C434.423,-216.191 450.041,-203.171 458.876,-188 467.164,-173.77 470.872,-155.295 472.532,-141.681"/>
<polygon fill="midnightblue" stroke="midnightblue" points="476.029,-141.876 473.5,-131.588 469.061,-141.208 476.029,-141.876"/>
</g>
<!-- Node13 -->
<g id="node14" class="node"><title>Node13</title>
<g id="a_node14"><a xlink:href="GameObject_8h.html" target="_top" xlink:title="GameObject.h">
<polygon fill="white" stroke="black" points="369.876,-168.5 369.876,-187.5 449.876,-187.5 449.876,-168.5 369.876,-168.5"/>
<text text-anchor="middle" x="409.876" y="-175.5" font-family="Helvetica,sans-Serif" font-size="10.00">GameObject.h</text>
</a>
</g>
</g>
<!-- Node11&#45;&gt;Node13 -->
<g id="edge14" class="edge"><title>Node11&#45;&gt;Node13</title>
<path fill="none" stroke="midnightblue" d="M404.71,-224.083C403.2,-216.927 402.77,-206.635 403.419,-197.691"/>
<polygon fill="midnightblue" stroke="midnightblue" points="406.892,-198.126 404.745,-187.751 399.953,-197.2 406.892,-198.126"/>
</g>
<!-- Node13&#45;&gt;Node3 -->
<g id="edge18" class="edge"><title>Node13&#45;&gt;Node3</title>
<path fill="none" stroke="midnightblue" d="M450.23,-169.968C492.901,-162.277 562.346,-149.042 631.531,-131.892"/>
<polygon fill="midnightblue" stroke="midnightblue" points="632.439,-135.273 641.288,-129.447 630.737,-128.483 632.439,-135.273"/>
</g>
<!-- Node13&#45;&gt;Node4 -->
<g id="edge16" class="edge"><title>Node13&#45;&gt;Node4</title>
<path fill="none" stroke="midnightblue" d="M440.141,-168.444C475.277,-158.51 532.98,-142.196 568.85,-132.054"/>
<polygon fill="midnightblue" stroke="midnightblue" points="570.121,-135.332 578.792,-129.244 568.217,-128.596 570.121,-135.332"/>
</g>
<!-- Node13&#45;&gt;Node9 -->
<g id="edge15" class="edge"><title>Node13&#45;&gt;Node9</title>
<path fill="none" stroke="midnightblue" d="M406.005,-168.075C394.623,-141.832 361.101,-64.5453 345.734,-29.1165"/>
<polygon fill="midnightblue" stroke="midnightblue" points="348.783,-27.3496 341.593,-19.5681 342.361,-30.1351 348.783,-27.3496"/>
</g>
<!-- Node13&#45;&gt;Node10 -->
<g id="edge17" class="edge"><title>Node13&#45;&gt;Node10</title>
<path fill="none" stroke="midnightblue" d="M399.112,-168.324C389.11,-160.263 373.99,-148.077 361.946,-138.369"/>
<polygon fill="midnightblue" stroke="midnightblue" points="363.819,-135.384 353.837,-131.834 359.427,-140.834 363.819,-135.384"/>
</g>
<!-- Node13&#45;&gt;Node11 -->
<g id="edge19" class="edge"><title>Node13&#45;&gt;Node11</title>
<path fill="none" stroke="midnightblue" d="M415.007,-187.751C416.534,-194.858 416.981,-205.136 416.349,-214.101"/>
<polygon fill="midnightblue" stroke="midnightblue" points="412.87,-213.713 415.043,-224.083 419.81,-214.622 412.87,-213.713"/>
</g>
<!-- Node13&#45;&gt;Node12 -->
<g id="edge20" class="edge"><title>Node13&#45;&gt;Node12</title>
<path fill="none" stroke="midnightblue" d="M420.159,-168.324C429.713,-160.263 444.156,-148.077 455.661,-138.369"/>
<polygon fill="midnightblue" stroke="midnightblue" points="458.021,-140.958 463.407,-131.834 453.507,-135.608 458.021,-140.958"/>
</g>
<!-- Node13&#45;&gt;Node14 -->
<g id="edge21" class="edge"><title>Node13&#45;&gt;Node14</title>
<path fill="none" stroke="midnightblue" d="M369.727,-170.051C307.441,-159.271 188.709,-138.721 131.004,-128.734"/>
<polygon fill="midnightblue" stroke="midnightblue" points="131.417,-125.253 120.967,-126.996 130.224,-132.151 131.417,-125.253"/>
</g>
<!-- Node14&#45;&gt;Node9 -->
<g id="edge22" class="edge"><title>Node14&#45;&gt;Node9</title>
<path fill="none" stroke="midnightblue" d="M74.8,-114.98C40.4022,-104.941 -17.8622,-83.1731 5.87632,-56 41.8313,-14.8428 203.885,-9.86088 287.543,-10.1222"/>
<polygon fill="midnightblue" stroke="midnightblue" points="287.567,-13.6223 297.587,-10.1801 287.608,-6.62244 287.567,-13.6223"/>
</g>
<!-- Node14&#45;&gt;Node15 -->
<g id="edge23" class="edge"><title>Node14&#45;&gt;Node15</title>
<path fill="none" stroke="midnightblue" d="M98.3717,-112.083C98.7649,-105.006 99.3285,-94.8611 99.8215,-85.9865"/>
<polygon fill="midnightblue" stroke="midnightblue" points="103.33,-85.9299 100.39,-75.7511 96.3407,-85.5415 103.33,-85.9299"/>
</g>
<!-- Node16 -->
<g id="node17" class="node"><title>Node16</title>
<polygon fill="white" stroke="#bfbfbf" points="14.8763,-56.5 14.8763,-75.5 58.8763,-75.5 58.8763,-56.5 14.8763,-56.5"/>
<text text-anchor="middle" x="36.8763" y="-63.5" font-family="Helvetica,sans-Serif" font-size="10.00">cmath</text>
</g>
<!-- Node14&#45;&gt;Node16 -->
<g id="edge25" class="edge"><title>Node14&#45;&gt;Node16</title>
<path fill="none" stroke="midnightblue" d="M88.0756,-112.324C79.0583,-104.341 65.4704,-92.3128 54.5583,-82.6529"/>
<polygon fill="midnightblue" stroke="midnightblue" points="56.6629,-79.8416 46.8554,-75.8339 52.0231,-85.083 56.6629,-79.8416"/>
</g>
<!-- Node15&#45;&gt;Node9 -->
<g id="edge24" class="edge"><title>Node15&#45;&gt;Node9</title>
<path fill="none" stroke="midnightblue" d="M124.633,-58.3711C127.736,-57.5492 130.878,-56.7391 133.876,-56 186.252,-43.0893 246.63,-29.9906 288.031,-21.2804"/>
<polygon fill="midnightblue" stroke="midnightblue" points="288.801,-24.6953 297.87,-19.218 287.365,-17.8442 288.801,-24.6953"/>
</g>
<!-- Node17&#45;&gt;Node9 -->
<g id="edge27" class="edge"><title>Node17&#45;&gt;Node9</title>
<path fill="none" stroke="midnightblue" d="M291.285,-168.115C294.734,-155.548 301.383,-131.895 307.876,-112 313.154,-95.8282 315.83,-92.2456 320.876,-76 325.64,-60.6644 330.197,-43.0246 333.391,-29.9942"/>
<polygon fill="midnightblue" stroke="midnightblue" points="336.882,-30.4448 335.819,-19.9035 330.077,-28.8073 336.882,-30.4448"/>
</g>
<!-- Node18&#45;&gt;Node9 -->
<g id="edge30" class="edge"><title>Node18&#45;&gt;Node9</title>
<path fill="none" stroke="midnightblue" d="M240.901,-112.354C258.197,-104.744 282.082,-92.3302 298.876,-76 312.846,-62.4163 323.703,-42.8022 330.374,-28.6772"/>
<polygon fill="midnightblue" stroke="midnightblue" points="333.579,-30.0835 334.476,-19.5268 327.191,-27.2196 333.579,-30.0835"/>
</g>
<!-- Node18&#45;&gt;Node15 -->
<g id="edge31" class="edge"><title>Node18&#45;&gt;Node15</title>
<path fill="none" stroke="midnightblue" d="M200.179,-112.444C180.932,-103.636 150.724,-89.8116 128.676,-79.722"/>
<polygon fill="midnightblue" stroke="midnightblue" points="130.036,-76.4951 119.486,-75.5164 127.123,-82.8603 130.036,-76.4951"/>
</g>
<!-- Node19 -->
<g id="node20" class="node"><title>Node19</title>
<polygon fill="white" stroke="#bfbfbf" points="207.376,-56.5 207.376,-75.5 290.376,-75.5 290.376,-56.5 207.376,-56.5"/>
<text text-anchor="middle" x="248.876" y="-63.5" font-family="Helvetica,sans-Serif" font-size="10.00">unordered_map</text>
</g>
<!-- Node18&#45;&gt;Node19 -->
<g id="edge32" class="edge"><title>Node18&#45;&gt;Node19</title>
<path fill="none" stroke="midnightblue" d="M223.83,-112.083C227.98,-104.613 234.029,-93.7244 239.143,-84.5199"/>
<polygon fill="midnightblue" stroke="midnightblue" points="242.218,-86.1924 244.015,-75.7511 236.099,-82.7929 242.218,-86.1924"/>
</g>
<!-- Node20 -->
<g id="node21" class="node"><title>Node20</title>
<polygon fill="white" stroke="#bfbfbf" points="142.876,-56.5 142.876,-75.5 188.876,-75.5 188.876,-56.5 142.876,-56.5"/>
<text text-anchor="middle" x="165.876" y="-63.5" font-family="Helvetica,sans-Serif" font-size="10.00">cstdint</text>
</g>
<!-- Node18&#45;&gt;Node20 -->
<g id="edge33" class="edge"><title>Node18&#45;&gt;Node20</title>
<path fill="none" stroke="midnightblue" d="M210.124,-112.083C202.407,-104.22 190.972,-92.5688 181.66,-83.0813"/>
<polygon fill="midnightblue" stroke="midnightblue" points="183.968,-80.4363 174.465,-75.7511 178.972,-85.3396 183.968,-80.4363"/>
</g>
</g>
</svg>
