<?xml version="1.0" encoding="UTF-8" standalone="no"?>
<!DOCTYPE svg PUBLIC "-//W3C//DTD SVG 1.1//EN"
 "http://www.w3.org/Graphics/SVG/1.1/DTD/svg11.dtd">
<!-- Generated by graphviz version 2.40.1 (20161225.0304)
 -->
<!-- Title: include/Tileset.h Pages: 1 -->
<svg width="874pt" height="420pt"
 viewBox="0.00 0.00 874.00 420.00" xmlns="http://www.w3.org/2000/svg" xmlns:xlink="http://www.w3.org/1999/xlink">
<g id="graph0" class="graph" transform="scale(1 1) rotate(0) translate(4 416)">
<title>include/Tileset.h</title>
<polygon fill="#ffffff" stroke="transparent" points="-4,4 -4,-416 870,-416 870,4 -4,4"/>
<!-- Node0 -->
<g id="node1" class="node">
<title>Node0</title>
<polygon fill="#bfbfbf" stroke="#000000" points="341,-392.5 341,-411.5 429,-411.5 429,-392.5 341,-392.5"/>
<text text-anchor="middle" x="385" y="-399.5" font-family="Helvetica,sans-Serif" font-size="10.00" fill="#000000">include/Tileset.h</text>
</g>
<!-- Node1 -->
<g id="node2" class="node">
<title>Node1</title>
<polygon fill="#ffffff" stroke="#bfbfbf" points="184.5,-112.5 184.5,-131.5 225.5,-131.5 225.5,-112.5 184.5,-112.5"/>
<text text-anchor="middle" x="205" y="-119.5" font-family="Helvetica,sans-Serif" font-size="10.00" fill="#000000">string</text>
</g>
<!-- Node0&#45;&gt;Node1 -->
<g id="edge1" class="edge">
<title>Node0&#45;&gt;Node1</title>
<path fill="none" stroke="#191970" d="M340.6849,-399.0838C301.0621,-394.6864 242.8107,-383.6581 200,-356 168.6328,-335.735 148,-327.3439 148,-290 148,-290 148,-290 148,-234 148,-197.1826 172.7675,-160.2377 189.6501,-139.3313"/>
<polygon fill="#191970" stroke="#191970" points="192.3511,-141.5574 196.0938,-131.6456 186.9869,-137.06 192.3511,-141.5574"/>
</g>
<!-- Node2 -->
<g id="node3" class="node">
<title>Node2</title>
<polygon fill="#ffffff" stroke="#bfbfbf" points="422,-112.5 422,-131.5 466,-131.5 466,-112.5 422,-112.5"/>
<text text-anchor="middle" x="444" y="-119.5" font-family="Helvetica,sans-Serif" font-size="10.00" fill="#000000">vector</text>
</g>
<!-- Node0&#45;&gt;Node2 -->
<g id="edge2" class="edge">
<title>Node0&#45;&gt;Node2</title>
<path fill="none" stroke="#191970" d="M340.8355,-396.7968C282.2084,-387.1494 186,-360.5674 186,-290 186,-290 186,-290 186,-234 186,-126.5264 300.2299,-161.3848 411.9296,-132.0648"/>
<polygon fill="#191970" stroke="#191970" points="413.0012,-135.3995 421.687,-129.3325 411.1136,-128.6588 413.0012,-135.3995"/>
</g>
<!-- Node3 -->
<g id="node4" class="node">
<title>Node3</title>
<g id="a_node4"><a xlink:href="Error_8h.html" target="_top" xlink:title="Error.h">
<polygon fill="#ffffff" stroke="#000000" points="70,-336.5 70,-355.5 116,-355.5 116,-336.5 70,-336.5"/>
<text text-anchor="middle" x="93" y="-343.5" font-family="Helvetica,sans-Serif" font-size="10.00" fill="#000000">Error.h</text>
</a>
</g>
</g>
<!-- Node0&#45;&gt;Node3 -->
<g id="edge3" class="edge">
<title>Node0&#45;&gt;Node3</title>
<path fill="none" stroke="#191970" d="M340.8664,-394.7088C290.6158,-386.2223 206.1388,-371.3942 134,-356 131.4921,-355.4648 128.9036,-354.8891 126.3034,-354.2938"/>
<polygon fill="#191970" stroke="#191970" points="126.8992,-350.8383 116.3625,-351.9461 125.2903,-357.6509 126.8992,-350.8383"/>
</g>
<!-- Node6 -->
<g id="node7" class="node">
<title>Node6</title>
<g id="a_node7"><a xlink:href="Sprite_8h.html" target="_top" xlink:title="Sprite.h">
<polygon fill="#ffffff" stroke="#000000" points="360,-336.5 360,-355.5 410,-355.5 410,-336.5 360,-336.5"/>
<text text-anchor="middle" x="385" y="-343.5" font-family="Helvetica,sans-Serif" font-size="10.00" fill="#000000">Sprite.h</text>
</a>
</g>
</g>
<!-- Node0&#45;&gt;Node6 -->
<g id="edge6" class="edge">
<title>Node0&#45;&gt;Node6</title>
<path fill="none" stroke="#191970" d="M385,-392.2455C385,-384.9382 385,-374.6944 385,-365.7046"/>
<polygon fill="#191970" stroke="#191970" points="388.5001,-365.6426 385,-355.6427 381.5001,-365.6427 388.5001,-365.6426"/>
</g>
<!-- Node10 -->
<g id="node11" class="node">
<title>Node10</title>
<g id="a_node11"><a xlink:href="ComponentType_8h.html" target="_top" xlink:title="ComponentType.h">
<polygon fill="#ffffff" stroke="#000000" points="656.5,-112.5 656.5,-131.5 753.5,-131.5 753.5,-112.5 656.5,-112.5"/>
<text text-anchor="middle" x="705" y="-119.5" font-family="Helvetica,sans-Serif" font-size="10.00" fill="#000000">ComponentType.h</text>
</a>
</g>
</g>
<!-- Node0&#45;&gt;Node10 -->
<g id="edge42" class="edge">
<title>Node0&#45;&gt;Node10</title>
<path fill="none" stroke="#191970" d="M429.0961,-400.2025C541.1478,-394.4402 828,-371.7095 828,-290 828,-290 828,-290 828,-234 828,-185.8817 775.9004,-152.9564 739.5167,-135.8297"/>
<polygon fill="#191970" stroke="#191970" points="740.742,-132.5428 730.1877,-131.6172 737.8612,-138.9225 740.742,-132.5428"/>
</g>
<!-- Node12 -->
<g id="node13" class="node">
<title>Node12</title>
<g id="a_node13"><a xlink:href="Rect_8h.html" target="_top" xlink:title="Rect.h">
<polygon fill="#ffffff" stroke="#000000" points="592,-112.5 592,-131.5 638,-131.5 638,-112.5 592,-112.5"/>
<text text-anchor="middle" x="615" y="-119.5" font-family="Helvetica,sans-Serif" font-size="10.00" fill="#000000">Rect.h</text>
</a>
</g>
</g>
<!-- Node0&#45;&gt;Node12 -->
<g id="edge41" class="edge">
<title>Node0&#45;&gt;Node12</title>
<path fill="none" stroke="#191970" d="M429.1131,-399.1663C534.0802,-391.2181 790,-364.2282 790,-290 790,-290 790,-290 790,-234 790,-200.5362 698.0731,-156.7465 647.4717,-135.1772"/>
<polygon fill="#191970" stroke="#191970" points="648.8134,-131.9446 638.2386,-131.2925 646.0986,-138.3968 648.8134,-131.9446"/>
</g>
<!-- Node13 -->
<g id="node14" class="node">
<title>Node13</title>
<g id="a_node14"><a xlink:href="Vec2_8h.html" target="_top" xlink:title="Vec2.h">
<polygon fill="#ffffff" stroke="#000000" points="684.5,-56.5 684.5,-75.5 731.5,-75.5 731.5,-56.5 684.5,-56.5"/>
<text text-anchor="middle" x="708" y="-63.5" font-family="Helvetica,sans-Serif" font-size="10.00" fill="#000000">Vec2.h</text>
</a>
</g>
</g>
<!-- Node0&#45;&gt;Node13 -->
<g id="edge40" class="edge">
<title>Node0&#45;&gt;Node13</title>
<path fill="none" stroke="#191970" d="M429.3892,-401.0688C548.4648,-397.3764 866,-379.1705 866,-290 866,-290 866,-290 866,-178 866,-117.5136 787.9787,-86.7302 741.5893,-73.7729"/>
<polygon fill="#191970" stroke="#191970" points="742.2176,-70.3184 731.6542,-71.1337 740.4204,-77.0838 742.2176,-70.3184"/>
</g>
<!-- Node4 -->
<g id="node5" class="node">
<title>Node4</title>
<polygon fill="#ffffff" stroke="#bfbfbf" points="66,-280.5 66,-299.5 120,-299.5 120,-280.5 66,-280.5"/>
<text text-anchor="middle" x="93" y="-287.5" font-family="Helvetica,sans-Serif" font-size="10.00" fill="#000000">iostream</text>
</g>
<!-- Node3&#45;&gt;Node4 -->
<g id="edge4" class="edge">
<title>Node3&#45;&gt;Node4</title>
<path fill="none" stroke="#191970" d="M93,-336.2455C93,-328.9382 93,-318.6944 93,-309.7046"/>
<polygon fill="#191970" stroke="#191970" points="96.5001,-309.6426 93,-299.6427 89.5001,-309.6427 96.5001,-309.6426"/>
</g>
<!-- Node5 -->
<g id="node6" class="node">
<title>Node5</title>
<polygon fill="#ffffff" stroke="#bfbfbf" points="0,-280.5 0,-299.5 48,-299.5 48,-280.5 0,-280.5"/>
<text text-anchor="middle" x="24" y="-287.5" font-family="Helvetica,sans-Serif" font-size="10.00" fill="#000000">stdlib.h</text>
</g>
<!-- Node3&#45;&gt;Node5 -->
<g id="edge5" class="edge">
<title>Node3&#45;&gt;Node5</title>
<path fill="none" stroke="#191970" d="M80.9811,-336.2455C70.7902,-327.9746 55.9638,-315.9416 43.9893,-306.2232"/>
<polygon fill="#191970" stroke="#191970" points="45.8514,-303.2268 35.8812,-299.6427 41.4402,-308.662 45.8514,-303.2268"/>
</g>
<!-- Node6&#45;&gt;Node1 -->
<g id="edge8" class="edge">
<title>Node6&#45;&gt;Node1</title>
<path fill="none" stroke="#191970" d="M359.9802,-340.6457C324.7903,-332.625 263.2583,-316.6455 248,-300 206.9049,-255.1687 203.216,-177.9451 203.9765,-141.7729"/>
<polygon fill="#191970" stroke="#191970" points="207.4819,-141.6819 204.338,-131.5643 200.4862,-141.4341 207.4819,-141.6819"/>
</g>
<!-- Node7 -->
<g id="node8" class="node">
<title>Node7</title>
<g id="a_node8"><a xlink:href="SDL__include_8h.html" target="_top" xlink:title="SDL_include.h">
<polygon fill="#ffffff" stroke="#000000" points="493,-.5 493,-19.5 573,-19.5 573,-.5 493,-.5"/>
<text text-anchor="middle" x="533" y="-7.5" font-family="Helvetica,sans-Serif" font-size="10.00" fill="#000000">SDL_include.h</text>
</a>
</g>
</g>
<!-- Node6&#45;&gt;Node7 -->
<g id="edge7" class="edge">
<title>Node6&#45;&gt;Node7</title>
<path fill="none" stroke="#191970" d="M373.4116,-336.2528C363.4525,-327.474 349.1362,-313.855 339,-300 305.9016,-254.7583 294.2657,-242.4641 281,-188 270.6857,-145.6534 261.2442,-93.6126 297,-56 321.8769,-29.8312 420.8995,-18.0242 482.4999,-13.1187"/>
<polygon fill="#191970" stroke="#191970" points="483.0881,-16.5841 492.7936,-12.3351 482.5568,-9.6043 483.0881,-16.5841"/>
</g>
<!-- Node8 -->
<g id="node9" class="node">
<title>Node8</title>
<polygon fill="#ffffff" stroke="#bfbfbf" points="484,-112.5 484,-131.5 536,-131.5 536,-112.5 484,-112.5"/>
<text text-anchor="middle" x="510" y="-119.5" font-family="Helvetica,sans-Serif" font-size="10.00" fill="#000000">memory</text>
</g>
<!-- Node6&#45;&gt;Node8 -->
<g id="edge9" class="edge">
<title>Node6&#45;&gt;Node8</title>
<path fill="none" stroke="#191970" d="M386.3029,-336.3255C390.9088,-303.2735 407.2674,-195.3689 428,-168 439.6175,-152.6639 457.92,-141.6985 474.2889,-134.3301"/>
<polygon fill="#191970" stroke="#191970" points="475.7748,-137.5023 483.6381,-130.4016 473.063,-131.0489 475.7748,-137.5023"/>
</g>
<!-- Node9 -->
<g id="node10" class="node">
<title>Node9</title>
<g id="a_node10"><a xlink:href="Component_8h.html" target="_top" xlink:title="Component.h">
<polygon fill="#ffffff" stroke="#000000" points="472.5,-224.5 472.5,-243.5 547.5,-243.5 547.5,-224.5 472.5,-224.5"/>
<text text-anchor="middle" x="510" y="-231.5" font-family="Helvetica,sans-Serif" font-size="10.00" fill="#000000">Component.h</text>
</a>
</g>
</g>
<!-- Node6&#45;&gt;Node9 -->
<g id="edge10" class="edge">
<title>Node6&#45;&gt;Node9</title>
<path fill="none" stroke="#191970" d="M402.9937,-336.4277C418.0285,-327.9592 439.5827,-314.6914 456,-300 472.1091,-285.5844 487.4094,-266.1418 497.5828,-252.0966"/>
<polygon fill="#191970" stroke="#191970" points="500.567,-253.9385 503.4848,-243.7533 494.8523,-249.8959 500.567,-253.9385"/>
</g>
<!-- Node6&#45;&gt;Node12 -->
<g id="edge27" class="edge">
<title>Node6&#45;&gt;Node12</title>
<path fill="none" stroke="#191970" d="M389.8866,-336.2059C394.4587,-326.945 401.4041,-312.6253 407,-300 432.6848,-242.0512 414.0367,-210.5702 461,-168 478.7919,-151.8724 542.2738,-136.6374 581.9645,-128.385"/>
<polygon fill="#191970" stroke="#191970" points="582.885,-131.7695 591.9855,-126.3443 581.4882,-124.9103 582.885,-131.7695"/>
</g>
<!-- Node15 -->
<g id="node16" class="node">
<title>Node15</title>
<g id="a_node16"><a xlink:href="Color_8h.html" target="_top" xlink:title="Color.h">
<polygon fill="#ffffff" stroke="#000000" points="290,-168.5 290,-187.5 338,-187.5 338,-168.5 290,-168.5"/>
<text text-anchor="middle" x="314" y="-175.5" font-family="Helvetica,sans-Serif" font-size="10.00" fill="#000000">Color.h</text>
</a>
</g>
</g>
<!-- Node6&#45;&gt;Node15 -->
<g id="edge25" class="edge">
<title>Node6&#45;&gt;Node15</title>
<path fill="none" stroke="#191970" d="M376.6722,-336.3639C369.3196,-327.4427 358.7484,-313.5484 352,-300 334.9312,-265.7323 323.6069,-222.2259 318.0387,-197.5083"/>
<polygon fill="#191970" stroke="#191970" points="321.4244,-196.6059 315.8853,-187.5743 314.5833,-198.0888 321.4244,-196.6059"/>
</g>
<!-- Node16 -->
<g id="node17" class="node">
<title>Node16</title>
<g id="a_node17"><a xlink:href="RectTransform_8h.html" target="_top" xlink:title="RectTransform.h">
<polygon fill="#ffffff" stroke="#000000" points="571,-280.5 571,-299.5 661,-299.5 661,-280.5 571,-280.5"/>
<text text-anchor="middle" x="616" y="-287.5" font-family="Helvetica,sans-Serif" font-size="10.00" fill="#000000">RectTransform.h</text>
</a>
</g>
</g>
<!-- Node6&#45;&gt;Node16 -->
<g id="edge28" class="edge">
<title>Node6&#45;&gt;Node16</title>
<path fill="none" stroke="#191970" d="M410.1608,-339.9004C447.6057,-330.8229 518.7297,-313.5807 566.7575,-301.9376"/>
<polygon fill="#191970" stroke="#191970" points="567.7412,-305.3006 576.6351,-299.543 566.0919,-298.4976 567.7412,-305.3006"/>
</g>
<!-- Node18 -->
<g id="node19" class="node">
<title>Node18</title>
<g id="a_node19"><a xlink:href="InputManager_8h.html" target="_top" xlink:title="InputManager.h">
<polygon fill="#ffffff" stroke="#000000" points="320,-112.5 320,-131.5 404,-131.5 404,-112.5 320,-112.5"/>
<text text-anchor="middle" x="362" y="-119.5" font-family="Helvetica,sans-Serif" font-size="10.00" fill="#000000">InputManager.h</text>
</a>
</g>
</g>
<!-- Node6&#45;&gt;Node18 -->
<g id="edge35" class="edge">
<title>Node6&#45;&gt;Node18</title>
<path fill="none" stroke="#191970" d="M384.0117,-336.375C380.5246,-302.4133 368.7508,-187.7472 364.0063,-141.5392"/>
<polygon fill="#191970" stroke="#191970" points="367.4878,-141.1793 362.9846,-131.5891 360.5244,-141.8944 367.4878,-141.1793"/>
</g>
<!-- Node9&#45;&gt;Node10 -->
<g id="edge11" class="edge">
<title>Node9&#45;&gt;Node10</title>
<path fill="none" stroke="#191970" d="M526.6256,-224.4509C560.8042,-204.8201 639.1424,-159.8259 679.6723,-136.5472"/>
<polygon fill="#191970" stroke="#191970" points="681.4882,-139.5405 688.4165,-131.5249 678.0018,-133.4705 681.4882,-139.5405"/>
</g>
<!-- Node11 -->
<g id="node12" class="node">
<title>Node11</title>
<g id="a_node12"><a xlink:href="GameObject_8h.html" target="_top" xlink:title="GameObject.h">
<polygon fill="#ffffff" stroke="#000000" points="470,-168.5 470,-187.5 550,-187.5 550,-168.5 470,-168.5"/>
<text text-anchor="middle" x="510" y="-175.5" font-family="Helvetica,sans-Serif" font-size="10.00" fill="#000000">GameObject.h</text>
</a>
</g>
</g>
<!-- Node9&#45;&gt;Node11 -->
<g id="edge12" class="edge">
<title>Node9&#45;&gt;Node11</title>
<path fill="none" stroke="#191970" d="M504.7332,-224.2455C503.3221,-216.9382 502.9179,-206.6944 503.5205,-197.7046"/>
<polygon fill="#191970" stroke="#191970" points="507.0111,-197.9945 504.7549,-187.6427 500.0632,-197.1421 507.0111,-197.9945"/>
</g>
<!-- Node11&#45;&gt;Node1 -->
<g id="edge16" class="edge">
<title>Node11&#45;&gt;Node1</title>
<path fill="none" stroke="#191970" d="M469.8129,-170.6214C407.9631,-159.2654 290.8055,-137.7545 235.4405,-127.5891"/>
<polygon fill="#191970" stroke="#191970" points="236.0048,-124.1343 225.5371,-125.7708 234.7406,-131.0192 236.0048,-124.1343"/>
</g>
<!-- Node11&#45;&gt;Node2 -->
<g id="edge14" class="edge">
<title>Node11&#45;&gt;Node2</title>
<path fill="none" stroke="#191970" d="M498.5037,-168.2455C488.7558,-159.9746 474.5741,-147.9416 463.1202,-138.2232"/>
<polygon fill="#191970" stroke="#191970" points="465.2541,-135.4437 455.3646,-131.6427 460.7253,-140.7813 465.2541,-135.4437"/>
</g>
<!-- Node11&#45;&gt;Node7 -->
<g id="edge13" class="edge">
<title>Node11&#45;&gt;Node7</title>
<path fill="none" stroke="#191970" d="M520.559,-168.2076C529.0009,-159.6048 540.1906,-146.2634 545,-132 556.7284,-97.2163 547.2061,-53.9243 539.744,-29.3778"/>
<polygon fill="#191970" stroke="#191970" points="543.0531,-28.2354 536.6421,-19.8003 536.3936,-30.3922 543.0531,-28.2354"/>
</g>
<!-- Node11&#45;&gt;Node8 -->
<g id="edge15" class="edge">
<title>Node11&#45;&gt;Node8</title>
<path fill="none" stroke="#191970" d="M510,-168.2455C510,-160.9382 510,-150.6944 510,-141.7046"/>
<polygon fill="#191970" stroke="#191970" points="513.5001,-141.6426 510,-131.6427 506.5001,-141.6427 513.5001,-141.6426"/>
</g>
<!-- Node11&#45;&gt;Node9 -->
<g id="edge17" class="edge">
<title>Node11&#45;&gt;Node9</title>
<path fill="none" stroke="#191970" d="M515.2451,-187.6427C516.6665,-194.9199 517.081,-205.155 516.4887,-214.1575"/>
<polygon fill="#191970" stroke="#191970" points="512.9947,-213.8972 515.2668,-224.2455 519.9439,-214.739 512.9947,-213.8972"/>
</g>
<!-- Node11&#45;&gt;Node10 -->
<g id="edge18" class="edge">
<title>Node11&#45;&gt;Node10</title>
<path fill="none" stroke="#191970" d="M543.5217,-168.3733C576.3683,-158.9404 626.5595,-144.5265 662.2578,-134.2747"/>
<polygon fill="#191970" stroke="#191970" points="663.2703,-137.6255 671.9157,-131.5011 661.3381,-130.8974 663.2703,-137.6255"/>
</g>
<!-- Node11&#45;&gt;Node12 -->
<g id="edge19" class="edge">
<title>Node11&#45;&gt;Node12</title>
<path fill="none" stroke="#191970" d="M528.2896,-168.2455C544.7762,-159.4527 569.2352,-146.4079 587.9765,-136.4125"/>
<polygon fill="#191970" stroke="#191970" points="589.7435,-139.4368 596.92,-131.6427 586.4494,-133.2604 589.7435,-139.4368"/>
</g>
<!-- Node12&#45;&gt;Node7 -->
<g id="edge20" class="edge">
<title>Node12&#45;&gt;Node7</title>
<path fill="none" stroke="#191970" d="M608.8214,-112.437C600.3541,-99.4504 584.5353,-75.6082 570,-56 562.8591,-46.3669 554.5169,-35.9306 547.5631,-27.4376"/>
<polygon fill="#191970" stroke="#191970" points="550.2345,-25.1757 541.168,-19.6939 544.8371,-29.6332 550.2345,-25.1757"/>
</g>
<!-- Node12&#45;&gt;Node13 -->
<g id="edge21" class="edge">
<title>Node12&#45;&gt;Node13</title>
<path fill="none" stroke="#191970" d="M625.9325,-112.2455C638.7782,-103.4928 660.0651,-90.527 677.8335,-80.5496"/>
<polygon fill="#191970" stroke="#191970" points="679.671,-83.5334 686.7411,-75.6427 676.2934,-77.4021 679.671,-83.5334"/>
</g>
<!-- Node14 -->
<g id="node15" class="node">
<title>Node14</title>
<polygon fill="#ffffff" stroke="#bfbfbf" points="622,-56.5 622,-75.5 666,-75.5 666,-56.5 622,-56.5"/>
<text text-anchor="middle" x="644" y="-63.5" font-family="Helvetica,sans-Serif" font-size="10.00" fill="#000000">cmath</text>
</g>
<!-- Node12&#45;&gt;Node14 -->
<g id="edge24" class="edge">
<title>Node12&#45;&gt;Node14</title>
<path fill="none" stroke="#191970" d="M620.0514,-112.2455C624.0019,-104.617 629.6097,-93.7881 634.4058,-84.5267"/>
<polygon fill="#191970" stroke="#191970" points="637.5159,-86.1321 639.0065,-75.6427 631.2999,-82.9131 637.5159,-86.1321"/>
</g>
<!-- Node13&#45;&gt;Node7 -->
<g id="edge22" class="edge">
<title>Node13&#45;&gt;Node7</title>
<path fill="none" stroke="#191970" d="M684.3987,-58.4476C655.7827,-49.2905 607.1183,-33.7179 572.6959,-22.7027"/>
<polygon fill="#191970" stroke="#191970" points="573.5425,-19.2988 562.9515,-19.5845 571.409,-25.9658 573.5425,-19.2988"/>
</g>
<!-- Node13&#45;&gt;Node12 -->
<g id="edge23" class="edge">
<title>Node13&#45;&gt;Node12</title>
<path fill="none" stroke="#191970" d="M697.2314,-75.6427C684.458,-84.3593 663.1923,-97.3198 645.3941,-107.3225"/>
<polygon fill="#191970" stroke="#191970" points="643.533,-104.3518 636.4662,-112.2455 646.9132,-110.4817 643.533,-104.3518"/>
</g>
<!-- Node15&#45;&gt;Node7 -->
<g id="edge26" class="edge">
<title>Node15&#45;&gt;Node7</title>
<path fill="none" stroke="#191970" d="M310.1272,-168.404C301.7304,-145.8625 284.7056,-88.9551 312,-56 333.2829,-30.3032 424.027,-18.4394 482.4133,-13.3754"/>
<polygon fill="#191970" stroke="#191970" points="482.8811,-16.8487 492.5581,-12.5353 482.3033,-9.8726 482.8811,-16.8487"/>
</g>
<!-- Node16&#45;&gt;Node9 -->
<g id="edge30" class="edge">
<title>Node16&#45;&gt;Node9</title>
<path fill="none" stroke="#191970" d="M597.5362,-280.2455C580.8926,-271.4527 556.2007,-258.4079 537.2808,-248.4125"/>
<polygon fill="#191970" stroke="#191970" points="538.7291,-245.2193 528.2522,-243.6427 535.4592,-251.4086 538.7291,-245.2193"/>
</g>
<!-- Node16&#45;&gt;Node10 -->
<g id="edge31" class="edge">
<title>Node16&#45;&gt;Node10</title>
<path fill="none" stroke="#191970" d="M621.04,-280.4862C635.2916,-253.5845 676.0753,-176.5994 695.0578,-140.7673"/>
<polygon fill="#191970" stroke="#191970" points="698.205,-142.303 699.7936,-131.8279 692.0194,-139.026 698.205,-142.303"/>
</g>
<!-- Node16&#45;&gt;Node11 -->
<g id="edge32" class="edge">
<title>Node16&#45;&gt;Node11</title>
<path fill="none" stroke="#191970" d="M607.7915,-280.4212C596.568,-267.4168 575.6901,-243.5544 557,-224 547.4815,-214.0414 536.495,-203.2517 527.5387,-194.6266"/>
<polygon fill="#191970" stroke="#191970" points="529.9234,-192.0643 520.2785,-187.6794 525.0838,-197.1219 529.9234,-192.0643"/>
</g>
<!-- Node16&#45;&gt;Node12 -->
<g id="edge33" class="edge">
<title>Node16&#45;&gt;Node12</title>
<path fill="none" stroke="#191970" d="M615.9434,-280.4862C615.7853,-253.9293 615.3367,-178.5651 615.12,-142.1655"/>
<polygon fill="#191970" stroke="#191970" points="618.6181,-141.8068 615.0585,-131.8279 611.6182,-141.8486 618.6181,-141.8068"/>
</g>
<!-- Node16&#45;&gt;Node13 -->
<g id="edge34" class="edge">
<title>Node16&#45;&gt;Node13</title>
<path fill="none" stroke="#191970" d="M630.5645,-280.3108C662.0374,-258.3781 735.7475,-201.3995 763,-132 766.249,-123.7262 766.7631,-120.053 763,-112 757.0537,-99.2749 745.6642,-88.8307 734.785,-81.129"/>
<polygon fill="#191970" stroke="#191970" points="736.564,-78.1101 726.2833,-75.5491 732.723,-83.9622 736.564,-78.1101"/>
</g>
<!-- Node17 -->
<g id="node18" class="node">
<title>Node17</title>
<polygon fill="#ffffff" stroke="#bfbfbf" points="720.5,-224.5 720.5,-243.5 761.5,-243.5 761.5,-224.5 720.5,-224.5"/>
<text text-anchor="middle" x="741" y="-231.5" font-family="Helvetica,sans-Serif" font-size="10.00" fill="#000000">cfloat</text>
</g>
<!-- Node16&#45;&gt;Node17 -->
<g id="edge29" class="edge">
<title>Node16&#45;&gt;Node17</title>
<path fill="none" stroke="#191970" d="M637.4883,-280.3733C657.7662,-271.2888 688.3562,-257.5844 711.0286,-247.4272"/>
<polygon fill="#191970" stroke="#191970" points="712.5124,-250.5977 720.2075,-243.315 709.6505,-244.2094 712.5124,-250.5977"/>
</g>
<!-- Node18&#45;&gt;Node7 -->
<g id="edge36" class="edge">
<title>Node18&#45;&gt;Node7</title>
<path fill="none" stroke="#191970" d="M398.2077,-112.4961C422.0637,-105.0857 453.1768,-93.1462 477,-76 495.0091,-63.0384 510.8735,-43.0721 521.076,-28.4935"/>
<polygon fill="#191970" stroke="#191970" points="524.2369,-30.0663 526.9285,-19.8191 518.4341,-26.1512 524.2369,-30.0663"/>
</g>
<!-- Node18&#45;&gt;Node13 -->
<g id="edge37" class="edge">
<title>Node18&#45;&gt;Node13</title>
<path fill="none" stroke="#191970" d="M404.267,-113.5195C407.2191,-112.9866 410.152,-112.4745 413,-112 525.7703,-93.2122 558.4059,-100.6809 674.3456,-75.8356"/>
<polygon fill="#191970" stroke="#191970" points="675.2986,-79.2102 684.3248,-73.6623 673.809,-72.3705 675.2986,-79.2102"/>
</g>
<!-- Node19 -->
<g id="node20" class="node">
<title>Node19</title>
<polygon fill="#ffffff" stroke="#bfbfbf" points="320.5,-56.5 320.5,-75.5 403.5,-75.5 403.5,-56.5 320.5,-56.5"/>
<text text-anchor="middle" x="362" y="-63.5" font-family="Helvetica,sans-Serif" font-size="10.00" fill="#000000">unordered_map</text>
</g>
<!-- Node18&#45;&gt;Node19 -->
<g id="edge38" class="edge">
<title>Node18&#45;&gt;Node19</title>
<path fill="none" stroke="#191970" d="M362,-112.2455C362,-104.9382 362,-94.6944 362,-85.7046"/>
<polygon fill="#191970" stroke="#191970" points="365.5001,-85.6426 362,-75.6427 358.5001,-85.6427 365.5001,-85.6426"/>
</g>
<!-- Node20 -->
<g id="node21" class="node">
<title>Node20</title>
<polygon fill="#ffffff" stroke="#bfbfbf" points="422,-56.5 422,-75.5 468,-75.5 468,-56.5 422,-56.5"/>
<text text-anchor="middle" x="445" y="-63.5" font-family="Helvetica,sans-Serif" font-size="10.00" fill="#000000">cstdint</text>
</g>
<!-- Node18&#45;&gt;Node20 -->
<g id="edge39" class="edge">
<title>Node18&#45;&gt;Node20</title>
<path fill="none" stroke="#191970" d="M376.4575,-112.2455C389.0732,-103.7337 407.5944,-91.2375 422.2045,-81.3801"/>
<polygon fill="#191970" stroke="#191970" points="424.3761,-84.1371 430.7082,-75.6427 420.4609,-78.3343 424.3761,-84.1371"/>
</g>
</g>
</svg>
