<?xml version="1.0" encoding="UTF-8" standalone="no"?>
<!DOCTYPE svg PUBLIC "-//W3C//DTD SVG 1.1//EN"
 "http://www.w3.org/Graphics/SVG/1.1/DTD/svg11.dtd">
<!-- Generated by graphviz version 2.38.0 (20140413.2041)
 -->
<!-- Title: include/TileMap.h Pages: 1 -->
<svg width="268pt" height="140pt"
 viewBox="0.00 0.00 268.00 140.00" xmlns="http://www.w3.org/2000/svg" xmlns:xlink="http://www.w3.org/1999/xlink">
<g id="graph0" class="graph" transform="scale(1 1) rotate(0) translate(4 136)">
<title>include/TileMap.h</title>
<polygon fill="white" stroke="none" points="-4,4 -4,-136 264,-136 264,4 -4,4"/>
<!-- Node27 -->
<g id="node1" class="node"><title>Node27</title>
<polygon fill="#bfbfbf" stroke="black" points="99.5,-112.5 99.5,-131.5 192.5,-131.5 192.5,-112.5 99.5,-112.5"/>
<text text-anchor="middle" x="146" y="-119.5" font-family="Helvetica,sans-Serif" font-size="10.00">include/TileMap.h</text>
</g>
<!-- Node28 -->
<g id="node2" class="node"><title>Node28</title>
<g id="a_node2"><a xlink:href="DragAndDrop_8h.html" target="_top" xlink:title="include/DragAndDrop.h">
<polygon fill="white" stroke="black" points="0,-56.5 0,-75.5 118,-75.5 118,-56.5 0,-56.5"/>
<text text-anchor="middle" x="59" y="-63.5" font-family="Helvetica,sans-Serif" font-size="10.00">include/DragAndDrop.h</text>
</a>
</g>
</g>
<!-- Node27&#45;&gt;Node28 -->
<g id="edge1" class="edge"><title>Node27&#45;&gt;Node28</title>
<path fill="none" stroke="midnightblue" d="M123.284,-106.901C107.331,-96.9986 86.5025,-84.0705 72.9434,-75.6545"/>
<polygon fill="midnightblue" stroke="midnightblue" points="121.68,-110.024 132.022,-112.324 125.371,-104.077 121.68,-110.024"/>
</g>
<!-- Node29 -->
<g id="node3" class="node"><title>Node29</title>
<g id="a_node3"><a xlink:href="DragAndDrop_8cpp.html" target="_top" xlink:title="src/DragAndDrop.cpp">
<polygon fill="white" stroke="black" points="46.5,-0.5 46.5,-19.5 157.5,-19.5 157.5,-0.5 46.5,-0.5"/>
<text text-anchor="middle" x="102" y="-7.5" font-family="Helvetica,sans-Serif" font-size="10.00">src/DragAndDrop.cpp</text>
</a>
</g>
</g>
<!-- Node27&#45;&gt;Node29 -->
<g id="edge3" class="edge"><title>Node27&#45;&gt;Node29</title>
<path fill="none" stroke="midnightblue" d="M141.785,-102.589C138.478,-89.3643 133.373,-71.2554 127,-56 121.488,-42.8057 113.1,-28.5262 107.585,-19.6719"/>
<polygon fill="midnightblue" stroke="midnightblue" points="138.396,-103.468 144.128,-112.378 145.204,-101.838 138.396,-103.468"/>
</g>
<!-- Node30 -->
<g id="node4" class="node"><title>Node30</title>
<g id="a_node4"><a xlink:href="TileMap_8cpp.html" target="_top" xlink:title="src/TileMap.cpp">
<polygon fill="white" stroke="black" points="174,-56.5 174,-75.5 260,-75.5 260,-56.5 174,-56.5"/>
<text text-anchor="middle" x="217" y="-63.5" font-family="Helvetica,sans-Serif" font-size="10.00">src/TileMap.cpp</text>
</a>
</g>
</g>
<!-- Node27&#45;&gt;Node30 -->
<g id="edge4" class="edge"><title>Node27&#45;&gt;Node30</title>
<path fill="none" stroke="midnightblue" d="M165.59,-106.101C178.368,-96.3824 194.613,-84.0269 205.385,-75.8339"/>
<polygon fill="midnightblue" stroke="midnightblue" points="163.248,-103.484 157.407,-112.324 167.486,-109.056 163.248,-103.484"/>
</g>
<!-- Node28&#45;&gt;Node29 -->
<g id="edge2" class="edge"><title>Node28&#45;&gt;Node29</title>
<path fill="none" stroke="midnightblue" d="M72.4224,-48.144C79.9142,-38.7357 88.9371,-27.4046 95.0315,-19.7511"/>
<polygon fill="midnightblue" stroke="midnightblue" points="69.5919,-46.0799 66.1006,-56.083 75.0679,-50.4404 69.5919,-46.0799"/>
</g>
</g>
</svg>
