<?xml version="1.0" encoding="UTF-8" standalone="no"?>
<!DOCTYPE svg PUBLIC "-//W3C//DTD SVG 1.1//EN"
 "http://www.w3.org/Graphics/SVG/1.1/DTD/svg11.dtd">
<!-- Generated by graphviz version 2.38.0 (20140413.2041)
 -->
<!-- Title: include/TileMap.h Pages: 1 -->
<svg width="1171pt" height="308pt"
 viewBox="0.00 0.00 1171.18 308.00" xmlns="http://www.w3.org/2000/svg" xmlns:xlink="http://www.w3.org/1999/xlink">
<g id="graph0" class="graph" transform="scale(1 1) rotate(0) translate(4 304)">
<title>include/TileMap.h</title>
<polygon fill="white" stroke="none" points="-4,4 -4,-304 1167.18,-304 1167.18,4 -4,4"/>
<!-- Node0 -->
<g id="node1" class="node"><title>Node0</title>
<polygon fill="#bfbfbf" stroke="black" points="638.183,-280.5 638.183,-299.5 731.183,-299.5 731.183,-280.5 638.183,-280.5"/>
<text text-anchor="middle" x="684.683" y="-287.5" font-family="Helvetica,sans-Serif" font-size="10.00">include/TileMap.h</text>
</g>
<!-- Node1 -->
<g id="node2" class="node"><title>Node1</title>
<polygon fill="white" stroke="#bfbfbf" points="43.1829,-112.5 43.1829,-131.5 84.1829,-131.5 84.1829,-112.5 43.1829,-112.5"/>
<text text-anchor="middle" x="63.6829" y="-119.5" font-family="Helvetica,sans-Serif" font-size="10.00">string</text>
</g>
<!-- Node0&#45;&gt;Node1 -->
<g id="edge1" class="edge"><title>Node0&#45;&gt;Node1</title>
<path fill="none" stroke="midnightblue" d="M638.15,-287.27C539.052,-283.11 310.295,-270.834 237.683,-244 172.659,-219.971 109.102,-165.774 80.0708,-138.828"/>
<polygon fill="midnightblue" stroke="midnightblue" points="82.1905,-136.016 72.5146,-131.7 77.3872,-141.108 82.1905,-136.016"/>
</g>
<!-- Node2 -->
<g id="node3" class="node"><title>Node2</title>
<polygon fill="white" stroke="#bfbfbf" points="698.683,-112.5 698.683,-131.5 742.683,-131.5 742.683,-112.5 698.683,-112.5"/>
<text text-anchor="middle" x="720.683" y="-119.5" font-family="Helvetica,sans-Serif" font-size="10.00">vector</text>
</g>
<!-- Node0&#45;&gt;Node2 -->
<g id="edge2" class="edge"><title>Node0&#45;&gt;Node2</title>
<path fill="none" stroke="midnightblue" d="M687.469,-280.404C690.371,-271.371 694.999,-256.732 698.683,-244 705.845,-219.249 708.956,-213.329 713.683,-188 716.549,-172.639 718.357,-155.002 719.416,-141.978"/>
<polygon fill="midnightblue" stroke="midnightblue" points="722.915,-142.125 720.162,-131.895 715.934,-141.609 722.915,-142.125"/>
</g>
<!-- Node3 -->
<g id="node4" class="node"><title>Node3</title>
<polygon fill="white" stroke="#bfbfbf" points="751.183,-224.5 751.183,-243.5 780.183,-243.5 780.183,-224.5 751.183,-224.5"/>
<text text-anchor="middle" x="765.683" y="-231.5" font-family="Helvetica,sans-Serif" font-size="10.00">list</text>
</g>
<!-- Node0&#45;&gt;Node3 -->
<g id="edge3" class="edge"><title>Node0&#45;&gt;Node3</title>
<path fill="none" stroke="midnightblue" d="M697.697,-280.324C710.214,-271.979 729.365,-259.212 744.154,-249.352"/>
<polygon fill="midnightblue" stroke="midnightblue" points="746.322,-252.114 752.701,-243.655 742.439,-246.289 746.322,-252.114"/>
</g>
<!-- Node4 -->
<g id="node5" class="node"><title>Node4</title>
<polygon fill="white" stroke="#bfbfbf" points="798.183,-224.5 798.183,-243.5 841.183,-243.5 841.183,-224.5 798.183,-224.5"/>
<text text-anchor="middle" x="819.683" y="-231.5" font-family="Helvetica,sans-Serif" font-size="10.00">queue</text>
</g>
<!-- Node0&#45;&gt;Node4 -->
<g id="edge4" class="edge"><title>Node0&#45;&gt;Node4</title>
<path fill="none" stroke="midnightblue" d="M706.074,-280.444C728.39,-271.517 763.586,-257.439 788.891,-247.317"/>
<polygon fill="midnightblue" stroke="midnightblue" points="790.407,-250.48 798.392,-243.516 787.807,-243.981 790.407,-250.48"/>
</g>
<!-- Node5 -->
<g id="node6" class="node"><title>Node5</title>
<polygon fill="white" stroke="#bfbfbf" points="664.683,-168.5 664.683,-187.5 704.683,-187.5 704.683,-168.5 664.683,-168.5"/>
<text text-anchor="middle" x="684.683" y="-175.5" font-family="Helvetica,sans-Serif" font-size="10.00">limits</text>
</g>
<!-- Node0&#45;&gt;Node5 -->
<g id="edge5" class="edge"><title>Node0&#45;&gt;Node5</title>
<path fill="none" stroke="midnightblue" d="M684.683,-280.368C684.683,-262.617 684.683,-221.666 684.683,-197.597"/>
<polygon fill="midnightblue" stroke="midnightblue" points="688.183,-197.591 684.683,-187.591 681.183,-197.591 688.183,-197.591"/>
</g>
<!-- Node6 -->
<g id="node7" class="node"><title>Node6</title>
<polygon fill="white" stroke="#bfbfbf" points="859.183,-224.5 859.183,-243.5 894.183,-243.5 894.183,-224.5 859.183,-224.5"/>
<text text-anchor="middle" x="876.683" y="-231.5" font-family="Helvetica,sans-Serif" font-size="10.00">map</text>
</g>
<!-- Node0&#45;&gt;Node6 -->
<g id="edge6" class="edge"><title>Node0&#45;&gt;Node6</title>
<path fill="none" stroke="midnightblue" d="M718.897,-280.456C750.558,-272.389 799.125,-259.607 849.381,-244.262"/>
<polygon fill="midnightblue" stroke="midnightblue" points="850.588,-247.553 859.115,-241.264 848.527,-240.863 850.588,-247.553"/>
</g>
<!-- Node7 -->
<g id="node8" class="node"><title>Node7</title>
<polygon fill="white" stroke="#bfbfbf" points="912.183,-224.5 912.183,-243.5 971.183,-243.5 971.183,-224.5 912.183,-224.5"/>
<text text-anchor="middle" x="941.683" y="-231.5" font-family="Helvetica,sans-Serif" font-size="10.00">functional</text>
</g>
<!-- Node0&#45;&gt;Node7 -->
<g id="edge7" class="edge"><title>Node0&#45;&gt;Node7</title>
<path fill="none" stroke="midnightblue" d="M728.394,-280.418C770.495,-272.063 836.232,-258.784 901.747,-244.385"/>
<polygon fill="midnightblue" stroke="midnightblue" points="902.821,-247.732 911.832,-242.159 901.312,-240.897 902.821,-247.732"/>
</g>
<!-- Node8 -->
<g id="node9" class="node"><title>Node8</title>
<polygon fill="white" stroke="#bfbfbf" points="989.683,-224.5 989.683,-243.5 1045.68,-243.5 1045.68,-224.5 989.683,-224.5"/>
<text text-anchor="middle" x="1017.68" y="-231.5" font-family="Helvetica,sans-Serif" font-size="10.00">algorithm</text>
</g>
<!-- Node0&#45;&gt;Node8 -->
<g id="edge8" class="edge"><title>Node0&#45;&gt;Node8</title>
<path fill="none" stroke="midnightblue" d="M731.3,-283.2C787.802,-275.885 886.087,-262.249 979.555,-244.081"/>
<polygon fill="midnightblue" stroke="midnightblue" points="980.32,-247.498 989.458,-242.136 978.97,-240.629 980.32,-247.498"/>
</g>
<!-- Node9 -->
<g id="node10" class="node"><title>Node9</title>
<g id="a_node10"><a xlink:href="Tileset_8h.html" target="_top" xlink:title="Tileset.h">
<polygon fill="white" stroke="black" points="246.683,-224.5 246.683,-243.5 300.683,-243.5 300.683,-224.5 246.683,-224.5"/>
<text text-anchor="middle" x="273.683" y="-231.5" font-family="Helvetica,sans-Serif" font-size="10.00">Tileset.h</text>
</a>
</g>
</g>
<!-- Node0&#45;&gt;Node9 -->
<g id="edge9" class="edge"><title>Node0&#45;&gt;Node9</title>
<path fill="none" stroke="midnightblue" d="M637.938,-282.937C571.758,-274.342 446.964,-258.09 340.683,-244 331.028,-242.72 320.592,-241.324 310.896,-240.022"/>
<polygon fill="midnightblue" stroke="midnightblue" points="311.115,-236.52 300.738,-238.656 310.182,-243.458 311.115,-236.52"/>
</g>
<!-- Node15 -->
<g id="node16" class="node"><title>Node15</title>
<g id="a_node16"><a xlink:href="Vec2_8h.html" target="_top" xlink:title="Vec2.h">
<polygon fill="white" stroke="black" points="451.183,-56.5 451.183,-75.5 498.183,-75.5 498.183,-56.5 451.183,-56.5"/>
<text text-anchor="middle" x="474.683" y="-63.5" font-family="Helvetica,sans-Serif" font-size="10.00">Vec2.h</text>
</a>
</g>
</g>
<!-- Node0&#45;&gt;Node15 -->
<g id="edge27" class="edge"><title>Node0&#45;&gt;Node15</title>
<path fill="none" stroke="midnightblue" d="M637.891,-281.137C558.392,-266.665 402.713,-233.114 373.683,-188 368.873,-180.525 370.281,-176.212 373.683,-168 378.131,-157.261 430.24,-108.076 457.811,-82.5208"/>
<polygon fill="midnightblue" stroke="midnightblue" points="460.219,-85.0605 465.189,-75.7033 455.469,-79.9193 460.219,-85.0605"/>
</g>
<!-- Node20 -->
<g id="node21" class="node"><title>Node20</title>
<g id="a_node21"><a xlink:href="GameObject_8h.html" target="_top" xlink:title="GameObject.h">
<polygon fill="white" stroke="black" points="528.683,-168.5 528.683,-187.5 608.683,-187.5 608.683,-168.5 528.683,-168.5"/>
<text text-anchor="middle" x="568.683" y="-175.5" font-family="Helvetica,sans-Serif" font-size="10.00">GameObject.h</text>
</a>
</g>
</g>
<!-- Node0&#45;&gt;Node20 -->
<g id="edge28" class="edge"><title>Node0&#45;&gt;Node20</title>
<path fill="none" stroke="midnightblue" d="M638.133,-287.385C606.467,-283.561 566.646,-272.82 545.683,-244 535.171,-229.547 544.742,-209.845 554.548,-195.931"/>
<polygon fill="midnightblue" stroke="midnightblue" points="557.52,-197.806 560.816,-187.737 551.96,-193.553 557.52,-197.806"/>
</g>
<!-- Node23 -->
<g id="node24" class="node"><title>Node23</title>
<g id="a_node24"><a xlink:href="AStarHeuristic_8h.html" target="_top" xlink:title="AStarHeuristic.h">
<polygon fill="white" stroke="black" points="383.183,-168.5 383.183,-187.5 472.183,-187.5 472.183,-168.5 383.183,-168.5"/>
<text text-anchor="middle" x="427.683" y="-175.5" font-family="Helvetica,sans-Serif" font-size="10.00">AStarHeuristic.h</text>
</a>
</g>
</g>
<!-- Node0&#45;&gt;Node23 -->
<g id="edge38" class="edge"><title>Node0&#45;&gt;Node23</title>
<path fill="none" stroke="midnightblue" d="M648.483,-280.476C618.191,-272.744 574.191,-260.102 537.683,-244 505.007,-229.588 469.923,-207.595 448.385,-193.256"/>
<polygon fill="midnightblue" stroke="midnightblue" points="450.278,-190.311 440.03,-187.624 446.366,-196.116 450.278,-190.311"/>
</g>
<!-- Node24 -->
<g id="node25" class="node"><title>Node24</title>
<g id="a_node25"><a xlink:href="Resources_8h.html" target="_top" xlink:title="Resources.h">
<polygon fill="white" stroke="black" points="27.6829,-168.5 27.6829,-187.5 99.6829,-187.5 99.6829,-168.5 27.6829,-168.5"/>
<text text-anchor="middle" x="63.6829" y="-175.5" font-family="Helvetica,sans-Serif" font-size="10.00">Resources.h</text>
</a>
</g>
</g>
<!-- Node0&#45;&gt;Node24 -->
<g id="edge40" class="edge"><title>Node0&#45;&gt;Node24</title>
<path fill="none" stroke="midnightblue" d="M637.845,-288.8C522.794,-287.728 229.176,-281.307 139.683,-244 114.263,-233.403 91.1653,-210.982 77.2719,-195.459"/>
<polygon fill="midnightblue" stroke="midnightblue" points="79.7274,-192.947 70.544,-187.664 74.4281,-197.521 79.7274,-192.947"/>
</g>
<!-- Node25 -->
<g id="node26" class="node"><title>Node25</title>
<g id="a_node26"><a xlink:href="TileMapObserver_8h.html" target="_top" xlink:title="TileMapObserver.h">
<polygon fill="white" stroke="black" points="1064.18,-224.5 1064.18,-243.5 1163.18,-243.5 1163.18,-224.5 1064.18,-224.5"/>
<text text-anchor="middle" x="1113.68" y="-231.5" font-family="Helvetica,sans-Serif" font-size="10.00">TileMapObserver.h</text>
</a>
</g>
</g>
<!-- Node0&#45;&gt;Node25 -->
<g id="edge45" class="edge"><title>Node0&#45;&gt;Node25</title>
<path fill="none" stroke="midnightblue" d="M731.468,-283.771C799.878,-276.023 931.47,-260.737 1054.18,-244.032"/>
<polygon fill="midnightblue" stroke="midnightblue" points="1054.69,-247.494 1064.12,-242.671 1053.74,-240.558 1054.69,-247.494"/>
</g>
<!-- Node26 -->
<g id="node27" class="node"><title>Node26</title>
<g id="a_node27"><a xlink:href="NearestGOFinder_8h.html" target="_top" xlink:title="NearestGOFinder.h">
<polygon fill="white" stroke="black" points="555.183,-224.5 555.183,-243.5 656.183,-243.5 656.183,-224.5 555.183,-224.5"/>
<text text-anchor="middle" x="605.683" y="-231.5" font-family="Helvetica,sans-Serif" font-size="10.00">NearestGOFinder.h</text>
</a>
</g>
</g>
<!-- Node0&#45;&gt;Node26 -->
<g id="edge46" class="edge"><title>Node0&#45;&gt;Node26</title>
<path fill="none" stroke="midnightblue" d="M671.99,-280.324C659.782,-271.979 641.104,-259.212 626.68,-249.352"/>
<polygon fill="midnightblue" stroke="midnightblue" points="628.575,-246.408 618.344,-243.655 624.625,-252.187 628.575,-246.408"/>
</g>
<!-- Node9&#45;&gt;Node1 -->
<g id="edge10" class="edge"><title>Node9&#45;&gt;Node1</title>
<path fill="none" stroke="midnightblue" d="M260.971,-224.387C241.414,-211.326 202.546,-186.116 167.683,-168 143.419,-155.392 114.847,-143.21 93.7961,-134.708"/>
<polygon fill="midnightblue" stroke="midnightblue" points="94.9925,-131.417 84.4076,-130.958 92.3961,-137.918 94.9925,-131.417"/>
</g>
<!-- Node10 -->
<g id="node11" class="node"><title>Node10</title>
<g id="a_node11"><a xlink:href="Sprite_8h.html" target="_top" xlink:title="Sprite.h">
<polygon fill="white" stroke="black" points="248.683,-168.5 248.683,-187.5 298.683,-187.5 298.683,-168.5 248.683,-168.5"/>
<text text-anchor="middle" x="273.683" y="-175.5" font-family="Helvetica,sans-Serif" font-size="10.00">Sprite.h</text>
</a>
</g>
</g>
<!-- Node9&#45;&gt;Node10 -->
<g id="edge11" class="edge"><title>Node9&#45;&gt;Node10</title>
<path fill="none" stroke="midnightblue" d="M273.683,-224.083C273.683,-217.006 273.683,-206.861 273.683,-197.986"/>
<polygon fill="midnightblue" stroke="midnightblue" points="277.183,-197.751 273.683,-187.751 270.183,-197.751 277.183,-197.751"/>
</g>
<!-- Node10&#45;&gt;Node1 -->
<g id="edge13" class="edge"><title>Node10&#45;&gt;Node1</title>
<path fill="none" stroke="midnightblue" d="M248.544,-171.105C215.433,-163.257 155.183,-148.688 94.1085,-132.016"/>
<polygon fill="midnightblue" stroke="midnightblue" points="94.8733,-128.597 84.3034,-129.323 93.0193,-135.347 94.8733,-128.597"/>
</g>
<!-- Node11 -->
<g id="node12" class="node"><title>Node11</title>
<g id="a_node12"><a xlink:href="SDL__include_8h.html" target="_top" xlink:title="SDL_include.h">
<polygon fill="white" stroke="black" points="282.683,-0.5 282.683,-19.5 362.683,-19.5 362.683,-0.5 282.683,-0.5"/>
<text text-anchor="middle" x="322.683" y="-7.5" font-family="Helvetica,sans-Serif" font-size="10.00">SDL_include.h</text>
</a>
</g>
</g>
<!-- Node10&#45;&gt;Node11 -->
<g id="edge12" class="edge"><title>Node10&#45;&gt;Node11</title>
<path fill="none" stroke="midnightblue" d="M276.264,-168.357C281.472,-150.907 293.601,-110.215 303.683,-76 308.304,-60.3172 313.511,-42.4924 317.304,-29.4804"/>
<polygon fill="midnightblue" stroke="midnightblue" points="320.677,-30.4148 320.114,-19.8349 313.957,-28.4571 320.677,-30.4148"/>
</g>
<!-- Node12 -->
<g id="node13" class="node"><title>Node12</title>
<polygon fill="white" stroke="#bfbfbf" points="204.683,-112.5 204.683,-131.5 256.683,-131.5 256.683,-112.5 204.683,-112.5"/>
<text text-anchor="middle" x="230.683" y="-119.5" font-family="Helvetica,sans-Serif" font-size="10.00">memory</text>
</g>
<!-- Node10&#45;&gt;Node12 -->
<g id="edge14" class="edge"><title>Node10&#45;&gt;Node12</title>
<path fill="none" stroke="midnightblue" d="M266.582,-168.083C260.446,-160.377 251.413,-149.033 243.944,-139.653"/>
<polygon fill="midnightblue" stroke="midnightblue" points="246.619,-137.394 237.651,-131.751 241.143,-141.754 246.619,-137.394"/>
</g>
<!-- Node13 -->
<g id="node14" class="node"><title>Node13</title>
<g id="a_node14"><a xlink:href="Color_8h.html" target="_top" xlink:title="Color.h">
<polygon fill="white" stroke="black" points="246.683,-56.5 246.683,-75.5 294.683,-75.5 294.683,-56.5 246.683,-56.5"/>
<text text-anchor="middle" x="270.683" y="-63.5" font-family="Helvetica,sans-Serif" font-size="10.00">Color.h</text>
</a>
</g>
</g>
<!-- Node10&#45;&gt;Node13 -->
<g id="edge15" class="edge"><title>Node10&#45;&gt;Node13</title>
<path fill="none" stroke="midnightblue" d="M273.448,-168.368C272.963,-150.617 271.847,-109.666 271.19,-85.5974"/>
<polygon fill="midnightblue" stroke="midnightblue" points="274.689,-85.4922 270.917,-75.5914 267.691,-85.6832 274.689,-85.4922"/>
</g>
<!-- Node14 -->
<g id="node15" class="node"><title>Node14</title>
<g id="a_node15"><a xlink:href="Rect_8h.html" target="_top" xlink:title="Rect.h">
<polygon fill="white" stroke="black" points="350.683,-112.5 350.683,-131.5 396.683,-131.5 396.683,-112.5 350.683,-112.5"/>
<text text-anchor="middle" x="373.683" y="-119.5" font-family="Helvetica,sans-Serif" font-size="10.00">Rect.h</text>
</a>
</g>
</g>
<!-- Node10&#45;&gt;Node14 -->
<g id="edge17" class="edge"><title>Node10&#45;&gt;Node14</title>
<path fill="none" stroke="midnightblue" d="M289.75,-168.324C305.641,-159.743 330.19,-146.486 348.641,-136.522"/>
<polygon fill="midnightblue" stroke="midnightblue" points="350.52,-139.486 357.656,-131.655 347.194,-133.326 350.52,-139.486"/>
</g>
<!-- Node17 -->
<g id="node18" class="node"><title>Node17</title>
<g id="a_node18"><a xlink:href="InputManager_8h.html" target="_top" xlink:title="InputManager.h">
<polygon fill="white" stroke="black" points="102.683,-112.5 102.683,-131.5 186.683,-131.5 186.683,-112.5 102.683,-112.5"/>
<text text-anchor="middle" x="144.683" y="-119.5" font-family="Helvetica,sans-Serif" font-size="10.00">InputManager.h</text>
</a>
</g>
</g>
<!-- Node10&#45;&gt;Node17 -->
<g id="edge22" class="edge"><title>Node10&#45;&gt;Node17</title>
<path fill="none" stroke="midnightblue" d="M253.242,-168.444C232.013,-159.557 198.584,-145.563 174.428,-135.451"/>
<polygon fill="midnightblue" stroke="midnightblue" points="175.604,-132.149 165.028,-131.516 172.901,-138.606 175.604,-132.149"/>
</g>
<!-- Node13&#45;&gt;Node11 -->
<g id="edge16" class="edge"><title>Node13&#45;&gt;Node11</title>
<path fill="none" stroke="midnightblue" d="M279.27,-56.083C286.842,-48.2195 298.061,-36.5688 307.197,-27.0813"/>
<polygon fill="midnightblue" stroke="midnightblue" points="309.841,-29.3821 314.256,-19.7511 304.798,-24.5266 309.841,-29.3821"/>
</g>
<!-- Node14&#45;&gt;Node11 -->
<g id="edge18" class="edge"><title>Node14&#45;&gt;Node11</title>
<path fill="none" stroke="midnightblue" d="M369.681,-112.368C361.376,-94.4563 342.12,-52.9233 331.004,-28.9482"/>
<polygon fill="midnightblue" stroke="midnightblue" points="334.048,-27.1916 326.666,-19.5914 327.697,-30.136 334.048,-27.1916"/>
</g>
<!-- Node14&#45;&gt;Node15 -->
<g id="edge19" class="edge"><title>Node14&#45;&gt;Node15</title>
<path fill="none" stroke="midnightblue" d="M389.91,-112.324C406.034,-103.703 430.983,-90.3643 449.647,-80.3855"/>
<polygon fill="midnightblue" stroke="midnightblue" points="451.327,-83.456 458.496,-75.6545 448.027,-77.283 451.327,-83.456"/>
</g>
<!-- Node16 -->
<g id="node17" class="node"><title>Node16</title>
<polygon fill="white" stroke="#bfbfbf" points="388.683,-56.5 388.683,-75.5 432.683,-75.5 432.683,-56.5 388.683,-56.5"/>
<text text-anchor="middle" x="410.683" y="-63.5" font-family="Helvetica,sans-Serif" font-size="10.00">cmath</text>
</g>
<!-- Node14&#45;&gt;Node16 -->
<g id="edge21" class="edge"><title>Node14&#45;&gt;Node16</title>
<path fill="none" stroke="midnightblue" d="M379.793,-112.083C384.965,-104.534 392.529,-93.4948 398.877,-84.2298"/>
<polygon fill="midnightblue" stroke="midnightblue" points="401.922,-85.9787 404.687,-75.7511 396.147,-82.0221 401.922,-85.9787"/>
</g>
<!-- Node15&#45;&gt;Node11 -->
<g id="edge20" class="edge"><title>Node15&#45;&gt;Node11</title>
<path fill="none" stroke="midnightblue" d="M450.933,-56.5625C425.538,-47.5408 385.059,-33.1599 356.377,-22.9702"/>
<polygon fill="midnightblue" stroke="midnightblue" points="357.362,-19.6061 346.768,-19.5565 355.019,-26.2022 357.362,-19.6061"/>
</g>
<!-- Node17&#45;&gt;Node11 -->
<g id="edge23" class="edge"><title>Node17&#45;&gt;Node11</title>
<path fill="none" stroke="midnightblue" d="M144.701,-112.082C145.226,-98.1465 148.321,-71.2309 163.683,-56 192.331,-27.5969 237.48,-16.8196 272.36,-12.8744"/>
<polygon fill="midnightblue" stroke="midnightblue" points="272.751,-16.3529 282.363,-11.8954 272.069,-9.38617 272.751,-16.3529"/>
</g>
<!-- Node17&#45;&gt;Node15 -->
<g id="edge24" class="edge"><title>Node17&#45;&gt;Node15</title>
<path fill="none" stroke="midnightblue" d="M186.691,-113.486C189.732,-112.973 192.754,-112.473 195.683,-112 301.574,-94.9124 331.763,-98.3519 440.874,-75.9363"/>
<polygon fill="midnightblue" stroke="midnightblue" points="441.896,-79.2987 450.973,-73.8348 440.47,-72.4455 441.896,-79.2987"/>
</g>
<!-- Node18 -->
<g id="node19" class="node"><title>Node18</title>
<polygon fill="white" stroke="#bfbfbf" points="19.1829,-56.5 19.1829,-75.5 102.183,-75.5 102.183,-56.5 19.1829,-56.5"/>
<text text-anchor="middle" x="60.6829" y="-63.5" font-family="Helvetica,sans-Serif" font-size="10.00">unordered_map</text>
</g>
<!-- Node17&#45;&gt;Node18 -->
<g id="edge25" class="edge"><title>Node17&#45;&gt;Node18</title>
<path fill="none" stroke="midnightblue" d="M131.187,-112.324C118.083,-103.9 97.971,-90.9709 82.576,-81.0741"/>
<polygon fill="midnightblue" stroke="midnightblue" points="84.4499,-78.118 74.1455,-75.6545 80.6646,-84.0063 84.4499,-78.118"/>
</g>
<!-- Node19 -->
<g id="node20" class="node"><title>Node19</title>
<polygon fill="white" stroke="#bfbfbf" points="172.683,-56.5 172.683,-75.5 218.683,-75.5 218.683,-56.5 172.683,-56.5"/>
<text text-anchor="middle" x="195.683" y="-63.5" font-family="Helvetica,sans-Serif" font-size="10.00">cstdint</text>
</g>
<!-- Node17&#45;&gt;Node19 -->
<g id="edge26" class="edge"><title>Node17&#45;&gt;Node19</title>
<path fill="none" stroke="midnightblue" d="M153.105,-112.083C160.531,-104.22 171.535,-92.5688 180.495,-83.0813"/>
<polygon fill="midnightblue" stroke="midnightblue" points="183.096,-85.4244 187.418,-75.7511 178.007,-80.618 183.096,-85.4244"/>
</g>
<!-- Node20&#45;&gt;Node1 -->
<g id="edge32" class="edge"><title>Node20&#45;&gt;Node1</title>
<path fill="none" stroke="midnightblue" d="M528.387,-172.8C513.41,-171.26 496.273,-169.522 480.683,-168 311.948,-151.524 264.98,-164.481 94.0351,-131.654"/>
<polygon fill="midnightblue" stroke="midnightblue" points="94.6894,-128.216 84.2051,-129.743 93.3532,-135.087 94.6894,-128.216"/>
</g>
<!-- Node20&#45;&gt;Node2 -->
<g id="edge30" class="edge"><title>Node20&#45;&gt;Node2</title>
<path fill="none" stroke="midnightblue" d="M592.768,-168.444C618.677,-159.239 660.005,-144.556 688.643,-134.383"/>
<polygon fill="midnightblue" stroke="midnightblue" points="689.946,-137.634 698.197,-130.988 687.603,-131.038 689.946,-137.634"/>
</g>
<!-- Node20&#45;&gt;Node11 -->
<g id="edge29" class="edge"><title>Node20&#45;&gt;Node11</title>
<path fill="none" stroke="midnightblue" d="M566.878,-168.405C561.734,-146.124 544.839,-86.1405 506.683,-56 468.462,-25.8086 412.879,-15.4893 372.816,-12.1537"/>
<polygon fill="midnightblue" stroke="midnightblue" points="372.953,-8.65456 362.728,-11.4328 372.454,-15.6368 372.953,-8.65456"/>
</g>
<!-- Node20&#45;&gt;Node12 -->
<g id="edge31" class="edge"><title>Node20&#45;&gt;Node12</title>
<path fill="none" stroke="midnightblue" d="M528.583,-170.593C462.158,-159.981 330.325,-138.919 266.698,-128.754"/>
<polygon fill="midnightblue" stroke="midnightblue" points="267.156,-125.283 256.729,-127.161 266.052,-132.195 267.156,-125.283"/>
</g>
<!-- Node20&#45;&gt;Node14 -->
<g id="edge37" class="edge"><title>Node20&#45;&gt;Node14</title>
<path fill="none" stroke="midnightblue" d="M537.785,-168.444C501.955,-158.522 443.14,-142.234 406.509,-132.09"/>
<polygon fill="midnightblue" stroke="midnightblue" points="407.375,-128.698 396.803,-129.403 405.507,-135.445 407.375,-128.698"/>
</g>
<!-- Node21 -->
<g id="node22" class="node"><title>Node21</title>
<g id="a_node22"><a xlink:href="Component_8h.html" target="_top" xlink:title="Component.h">
<polygon fill="white" stroke="black" points="567.183,-112.5 567.183,-131.5 642.183,-131.5 642.183,-112.5 567.183,-112.5"/>
<text text-anchor="middle" x="604.683" y="-119.5" font-family="Helvetica,sans-Serif" font-size="10.00">Component.h</text>
</a>
</g>
</g>
<!-- Node20&#45;&gt;Node21 -->
<g id="edge33" class="edge"><title>Node20&#45;&gt;Node21</title>
<path fill="none" stroke="midnightblue" d="M569.461,-168.083C572.973,-160.377 580.161,-149.033 587.292,-139.653"/>
<polygon fill="midnightblue" stroke="midnightblue" points="590.124,-141.718 593.718,-131.751 584.693,-137.302 590.124,-141.718"/>
</g>
<!-- Node22 -->
<g id="node23" class="node"><title>Node22</title>
<g id="a_node23"><a xlink:href="ComponentType_8h.html" target="_top" xlink:title="ComponentType.h">
<polygon fill="white" stroke="black" points="594.183,-56.5 594.183,-75.5 691.183,-75.5 691.183,-56.5 594.183,-56.5"/>
<text text-anchor="middle" x="642.683" y="-63.5" font-family="Helvetica,sans-Serif" font-size="10.00">ComponentType.h</text>
</a>
</g>
</g>
<!-- Node20&#45;&gt;Node22 -->
<g id="edge36" class="edge"><title>Node20&#45;&gt;Node22</title>
<path fill="none" stroke="midnightblue" d="M600.492,-168.385C618.629,-161.661 639.847,-150.306 650.683,-132 659.082,-117.81 655.397,-98.8357 650.624,-85.0527"/>
<polygon fill="midnightblue" stroke="midnightblue" points="653.859,-83.7165 646.944,-75.6899 647.345,-86.2771 653.859,-83.7165"/>
</g>
<!-- Node21&#45;&gt;Node20 -->
<g id="edge35" class="edge"><title>Node21&#45;&gt;Node20</title>
<path fill="none" stroke="midnightblue" d="M603.98,-131.751C600.521,-139.405 593.359,-150.736 586.228,-160.144"/>
<polygon fill="midnightblue" stroke="midnightblue" points="583.371,-158.11 579.794,-168.083 588.809,-162.517 583.371,-158.11"/>
</g>
<!-- Node21&#45;&gt;Node22 -->
<g id="edge34" class="edge"><title>Node21&#45;&gt;Node22</title>
<path fill="none" stroke="midnightblue" d="M610.958,-112.083C616.325,-104.455 624.201,-93.2645 630.762,-83.9408"/>
<polygon fill="midnightblue" stroke="midnightblue" points="633.632,-85.9434 636.525,-75.7511 627.907,-81.9149 633.632,-85.9434"/>
</g>
<!-- Node23&#45;&gt;Node15 -->
<g id="edge39" class="edge"><title>Node23&#45;&gt;Node15</title>
<path fill="none" stroke="midnightblue" d="M431.371,-168.368C439.024,-150.456 456.77,-108.923 467.014,-84.9482"/>
<polygon fill="midnightblue" stroke="midnightblue" points="470.301,-86.1624 471.012,-75.5914 463.864,-83.412 470.301,-86.1624"/>
</g>
<!-- Node24&#45;&gt;Node1 -->
<g id="edge42" class="edge"><title>Node24&#45;&gt;Node1</title>
<path fill="none" stroke="midnightblue" d="M63.6829,-168.083C63.6829,-161.006 63.6829,-150.861 63.6829,-141.986"/>
<polygon fill="midnightblue" stroke="midnightblue" points="67.183,-141.751 63.6829,-131.751 60.183,-141.751 67.183,-141.751"/>
</g>
<!-- Node24&#45;&gt;Node11 -->
<g id="edge41" class="edge"><title>Node24&#45;&gt;Node11</title>
<path fill="none" stroke="midnightblue" d="M54.1,-168.441C31.4888,-147.244 -21.0486,-91.4658 9.68292,-56 43.0573,-17.4842 192.656,-11.1661 272.342,-10.6018"/>
<polygon fill="midnightblue" stroke="midnightblue" points="272.65,-14.1006 282.635,-10.5582 272.62,-7.1007 272.65,-14.1006"/>
</g>
<!-- Node24&#45;&gt;Node12 -->
<g id="edge44" class="edge"><title>Node24&#45;&gt;Node12</title>
<path fill="none" stroke="midnightblue" d="M90.1446,-168.444C118.444,-159.293 163.487,-144.728 194.928,-134.561"/>
<polygon fill="midnightblue" stroke="midnightblue" points="196.182,-137.835 204.62,-131.428 194.028,-131.174 196.182,-137.835"/>
</g>
<!-- Node24&#45;&gt;Node18 -->
<g id="edge43" class="edge"><title>Node24&#45;&gt;Node18</title>
<path fill="none" stroke="midnightblue" d="M55.4693,-168.182C48.1392,-159.663 37.9275,-146.019 33.6829,-132 28.5617,-115.086 37.8441,-96.5373 46.8903,-83.5994"/>
<polygon fill="midnightblue" stroke="midnightblue" points="49.6817,-85.7108 52.9353,-75.6279 44.1041,-81.4811 49.6817,-85.7108"/>
</g>
<!-- Node26&#45;&gt;Node2 -->
<g id="edge48" class="edge"><title>Node26&#45;&gt;Node2</title>
<path fill="none" stroke="midnightblue" d="M611.095,-224.323C619.556,-211.177 636.907,-185.857 655.683,-168 668.088,-156.202 683.834,-145.219 696.722,-137.056"/>
<polygon fill="midnightblue" stroke="midnightblue" points="698.834,-139.866 705.512,-131.64 695.162,-133.906 698.834,-139.866"/>
</g>
<!-- Node26&#45;&gt;Node5 -->
<g id="edge47" class="edge"><title>Node26&#45;&gt;Node5</title>
<path fill="none" stroke="midnightblue" d="M618.376,-224.324C630.584,-215.979 649.261,-203.212 663.686,-193.352"/>
<polygon fill="midnightblue" stroke="midnightblue" points="665.741,-196.187 672.022,-187.655 661.791,-190.408 665.741,-196.187"/>
</g>
<!-- Node26&#45;&gt;Node15 -->
<g id="edge49" class="edge"><title>Node26&#45;&gt;Node15</title>
<path fill="none" stroke="midnightblue" d="M577.917,-224.405C559.193,-217.329 535.17,-205.573 519.683,-188 493.35,-158.12 481.892,-111.419 477.346,-85.6472"/>
<polygon fill="midnightblue" stroke="midnightblue" points="480.792,-85.0254 475.757,-75.7032 473.879,-86.1304 480.792,-85.0254"/>
</g>
<!-- Node26&#45;&gt;Node20 -->
<g id="edge50" class="edge"><title>Node26&#45;&gt;Node20</title>
<path fill="none" stroke="midnightblue" d="M599.573,-224.083C594.401,-216.534 586.837,-205.495 580.488,-196.23"/>
<polygon fill="midnightblue" stroke="midnightblue" points="583.219,-194.022 574.679,-187.751 577.444,-197.979 583.219,-194.022"/>
</g>
</g>
</svg>
