<?xml version="1.0" encoding="UTF-8" standalone="no"?>
<!DOCTYPE svg PUBLIC "-//W3C//DTD SVG 1.1//EN"
 "http://www.w3.org/Graphics/SVG/1.1/DTD/svg11.dtd">
<!-- Generated by graphviz version 2.38.0 (20140413.2041)
 -->
<!-- Title: include/TileMap.h Pages: 1 -->
<svg width="1060pt" height="420pt"
 viewBox="0.00 0.00 1060.36 420.00" xmlns="http://www.w3.org/2000/svg" xmlns:xlink="http://www.w3.org/1999/xlink">
<g id="graph0" class="graph" transform="scale(1 1) rotate(0) translate(4 416)">
<title>include/TileMap.h</title>
<polygon fill="white" stroke="none" points="-4,4 -4,-416 1056.36,-416 1056.36,4 -4,4"/>
<!-- Node0 -->
<g id="node1" class="node"><title>Node0</title>
<polygon fill="#bfbfbf" stroke="black" points="264.862,-392.5 264.862,-411.5 357.862,-411.5 357.862,-392.5 264.862,-392.5"/>
<text text-anchor="middle" x="311.362" y="-399.5" font-family="Helvetica,sans-Serif" font-size="10.00">include/TileMap.h</text>
</g>
<!-- Node1 -->
<g id="node2" class="node"><title>Node1</title>
<polygon fill="white" stroke="#bfbfbf" points="221.362,-112.5 221.362,-131.5 265.362,-131.5 265.362,-112.5 221.362,-112.5"/>
<text text-anchor="middle" x="243.362" y="-119.5" font-family="Helvetica,sans-Serif" font-size="10.00">vector</text>
</g>
<!-- Node0&#45;&gt;Node1 -->
<g id="edge1" class="edge"><title>Node0&#45;&gt;Node1</title>
<path fill="none" stroke="midnightblue" d="M308.879,-392.115C300.78,-362.984 274.6,-267.67 256.362,-188 252.826,-172.556 249.334,-154.924 246.861,-141.925"/>
<polygon fill="midnightblue" stroke="midnightblue" points="250.257,-141.048 244.974,-131.864 243.377,-142.338 250.257,-141.048"/>
</g>
<!-- Node2 -->
<g id="node3" class="node"><title>Node2</title>
<polygon fill="white" stroke="#bfbfbf" points="14.862,-336.5 14.862,-355.5 43.862,-355.5 43.862,-336.5 14.862,-336.5"/>
<text text-anchor="middle" x="29.362" y="-343.5" font-family="Helvetica,sans-Serif" font-size="10.00">list</text>
</g>
<!-- Node0&#45;&gt;Node2 -->
<g id="edge2" class="edge"><title>Node0&#45;&gt;Node2</title>
<path fill="none" stroke="midnightblue" d="M264.417,-395.727C214.19,-389.449 132.18,-377.373 54.2784,-356.124"/>
<polygon fill="midnightblue" stroke="midnightblue" points="54.8807,-352.659 44.3082,-353.347 53.0024,-359.402 54.8807,-352.659"/>
</g>
<!-- Node3 -->
<g id="node4" class="node"><title>Node3</title>
<polygon fill="white" stroke="#bfbfbf" points="61.862,-336.5 61.862,-355.5 104.862,-355.5 104.862,-336.5 61.862,-336.5"/>
<text text-anchor="middle" x="83.362" y="-343.5" font-family="Helvetica,sans-Serif" font-size="10.00">queue</text>
</g>
<!-- Node0&#45;&gt;Node3 -->
<g id="edge3" class="edge"><title>Node0&#45;&gt;Node3</title>
<path fill="none" stroke="midnightblue" d="M270.825,-392.46C232.987,-384.328 174.738,-371.403 114.988,-356.042"/>
<polygon fill="midnightblue" stroke="midnightblue" points="115.556,-352.574 104.998,-353.455 113.801,-359.351 115.556,-352.574"/>
</g>
<!-- Node4 -->
<g id="node5" class="node"><title>Node4</title>
<polygon fill="white" stroke="#bfbfbf" points="13.362,-280.5 13.362,-299.5 53.362,-299.5 53.362,-280.5 13.362,-280.5"/>
<text text-anchor="middle" x="33.362" y="-287.5" font-family="Helvetica,sans-Serif" font-size="10.00">limits</text>
</g>
<!-- Node0&#45;&gt;Node4 -->
<g id="edge4" class="edge"><title>Node0&#45;&gt;Node4</title>
<path fill="none" stroke="midnightblue" d="M264.736,-401.244C187.52,-400.545 38.3106,-394.148 5.362,-356 -6.85715,-341.853 5.33674,-321.563 17.2421,-307.429"/>
<polygon fill="midnightblue" stroke="midnightblue" points="19.9266,-309.679 24.0316,-299.911 14.7316,-304.987 19.9266,-309.679"/>
</g>
<!-- Node5 -->
<g id="node6" class="node"><title>Node5</title>
<polygon fill="white" stroke="#bfbfbf" points="227.362,-336.5 227.362,-355.5 283.362,-355.5 283.362,-336.5 227.362,-336.5"/>
<text text-anchor="middle" x="255.362" y="-343.5" font-family="Helvetica,sans-Serif" font-size="10.00">algorithm</text>
</g>
<!-- Node0&#45;&gt;Node5 -->
<g id="edge5" class="edge"><title>Node0&#45;&gt;Node5</title>
<path fill="none" stroke="midnightblue" d="M302.365,-392.324C294.168,-384.42 281.856,-372.548 271.89,-362.938"/>
<polygon fill="midnightblue" stroke="midnightblue" points="274.151,-360.256 264.523,-355.834 269.292,-365.295 274.151,-360.256"/>
</g>
<!-- Node6 -->
<g id="node7" class="node"><title>Node6</title>
<g id="a_node7"><a xlink:href="NearestFinder_8h.html" target="_top" xlink:title="NearestFinder.h">
<polygon fill="white" stroke="black" points="123.362,-336.5 123.362,-355.5 209.362,-355.5 209.362,-336.5 123.362,-336.5"/>
<text text-anchor="middle" x="166.362" y="-343.5" font-family="Helvetica,sans-Serif" font-size="10.00">NearestFinder.h</text>
</a>
</g>
</g>
<!-- Node0&#45;&gt;Node6 -->
<g id="edge6" class="edge"><title>Node0&#45;&gt;Node6</title>
<path fill="none" stroke="midnightblue" d="M288.386,-392.444C264.205,-383.438 225.944,-369.189 198.716,-359.049"/>
<polygon fill="midnightblue" stroke="midnightblue" points="199.823,-355.727 189.23,-355.516 197.38,-362.286 199.823,-355.727"/>
</g>
<!-- Node9 -->
<g id="node10" class="node"><title>Node9</title>
<g id="a_node10"><a xlink:href="Component_8h.html" target="_top" xlink:title="Component.h">
<polygon fill="white" stroke="black" points="311.862,-224.5 311.862,-243.5 386.862,-243.5 386.862,-224.5 311.862,-224.5"/>
<text text-anchor="middle" x="349.362" y="-231.5" font-family="Helvetica,sans-Serif" font-size="10.00">Component.h</text>
</a>
</g>
</g>
<!-- Node0&#45;&gt;Node9 -->
<g id="edge11" class="edge"><title>Node0&#45;&gt;Node9</title>
<path fill="none" stroke="midnightblue" d="M314.319,-392.45C317.36,-383.455 322.099,-368.847 325.362,-356 334.468,-320.145 342.212,-277.587 346.287,-253.696"/>
<polygon fill="midnightblue" stroke="midnightblue" points="349.781,-254.019 347.982,-243.578 342.878,-252.862 349.781,-254.019"/>
</g>
<!-- Node16 -->
<g id="node17" class="node"><title>Node16</title>
<g id="a_node17"><a xlink:href="Tileset_8h.html" target="_top" xlink:title="Tileset.h">
<polygon fill="white" stroke="black" points="519.362,-336.5 519.362,-355.5 573.362,-355.5 573.362,-336.5 519.362,-336.5"/>
<text text-anchor="middle" x="546.362" y="-343.5" font-family="Helvetica,sans-Serif" font-size="10.00">Tileset.h</text>
</a>
</g>
</g>
<!-- Node0&#45;&gt;Node16 -->
<g id="edge24" class="edge"><title>Node0&#45;&gt;Node16</title>
<path fill="none" stroke="midnightblue" d="M348.598,-392.444C392.571,-382.339 465.271,-365.634 509.207,-355.538"/>
<polygon fill="midnightblue" stroke="midnightblue" points="510.228,-358.894 519.19,-353.244 508.66,-352.072 510.228,-358.894"/>
</g>
<!-- Node17 -->
<g id="node18" class="node"><title>Node17</title>
<g id="a_node18"><a xlink:href="Error_8h.html" target="_top" xlink:title="Error.h">
<polygon fill="white" stroke="black" points="914.362,-280.5 914.362,-299.5 960.362,-299.5 960.362,-280.5 914.362,-280.5"/>
<text text-anchor="middle" x="937.362" y="-287.5" font-family="Helvetica,sans-Serif" font-size="10.00">Error.h</text>
</a>
</g>
</g>
<!-- Node0&#45;&gt;Node17 -->
<g id="edge46" class="edge"><title>Node0&#45;&gt;Node17</title>
<path fill="none" stroke="midnightblue" d="M358.12,-397.906C431.525,-392.53 578.055,-379.703 700.362,-356 774.35,-341.661 859.07,-316.163 904.487,-301.733"/>
<polygon fill="midnightblue" stroke="midnightblue" points="905.638,-305.039 914.095,-298.658 903.504,-298.372 905.638,-305.039"/>
</g>
<!-- Node25 -->
<g id="node26" class="node"><title>Node25</title>
<g id="a_node26"><a xlink:href="TileMapObserver_8h.html" target="_top" xlink:title="TileMapObserver.h">
<polygon fill="white" stroke="black" points="591.862,-336.5 591.862,-355.5 690.862,-355.5 690.862,-336.5 591.862,-336.5"/>
<text text-anchor="middle" x="641.362" y="-343.5" font-family="Helvetica,sans-Serif" font-size="10.00">TileMapObserver.h</text>
</a>
</g>
</g>
<!-- Node0&#45;&gt;Node25 -->
<g id="edge45" class="edge"><title>Node0&#45;&gt;Node25</title>
<path fill="none" stroke="midnightblue" d="M357.943,-393.378C416.631,-383.774 517.564,-367.258 581.802,-356.746"/>
<polygon fill="midnightblue" stroke="midnightblue" points="582.481,-360.182 591.785,-355.113 581.351,-353.274 582.481,-360.182"/>
</g>
<!-- Node26 -->
<g id="node27" class="node"><title>Node26</title>
<g id="a_node27"><a xlink:href="Camera_8h.html" target="_top" xlink:title="Camera.h">
<polygon fill="white" stroke="black" points="404.862,-224.5 404.862,-243.5 463.862,-243.5 463.862,-224.5 404.862,-224.5"/>
<text text-anchor="middle" x="434.362" y="-231.5" font-family="Helvetica,sans-Serif" font-size="10.00">Camera.h</text>
</a>
</g>
</g>
<!-- Node0&#45;&gt;Node26 -->
<g id="edge47" class="edge"><title>Node0&#45;&gt;Node26</title>
<path fill="none" stroke="midnightblue" d="M317.975,-392.075C337.672,-365.493 396.174,-286.538 421.941,-251.763"/>
<polygon fill="midnightblue" stroke="midnightblue" points="424.872,-253.687 428.013,-243.568 419.248,-249.519 424.872,-253.687"/>
</g>
<!-- Node6&#45;&gt;Node1 -->
<g id="edge7" class="edge"><title>Node6&#45;&gt;Node1</title>
<path fill="none" stroke="midnightblue" d="M169.38,-336.297C180.758,-303.494 221.204,-186.884 236.988,-141.377"/>
<polygon fill="midnightblue" stroke="midnightblue" points="240.31,-142.479 240.281,-131.884 233.697,-140.185 240.31,-142.479"/>
</g>
<!-- Node6&#45;&gt;Node4 -->
<g id="edge8" class="edge"><title>Node6&#45;&gt;Node4</title>
<path fill="none" stroke="midnightblue" d="M145.288,-336.444C123.044,-327.412 87.8101,-313.107 62.8221,-302.961"/>
<polygon fill="midnightblue" stroke="midnightblue" points="64.0492,-299.682 53.467,-299.163 61.4158,-306.168 64.0492,-299.682"/>
</g>
<!-- Node7 -->
<g id="node8" class="node"><title>Node7</title>
<g id="a_node8"><a xlink:href="Vec2_8h.html" target="_top" xlink:title="Vec2.h">
<polygon fill="white" stroke="black" points="510.862,-56.5 510.862,-75.5 557.862,-75.5 557.862,-56.5 510.862,-56.5"/>
<text text-anchor="middle" x="534.362" y="-63.5" font-family="Helvetica,sans-Serif" font-size="10.00">Vec2.h</text>
</a>
</g>
</g>
<!-- Node6&#45;&gt;Node7 -->
<g id="edge9" class="edge"><title>Node6&#45;&gt;Node7</title>
<path fill="none" stroke="midnightblue" d="M164.925,-336.17C159.851,-301.604 146.447,-174.319 212.362,-112 253.313,-73.2832 426.285,-67.5866 500.411,-66.954"/>
<polygon fill="midnightblue" stroke="midnightblue" points="500.623,-70.4529 510.603,-66.8941 500.582,-63.453 500.623,-70.4529"/>
</g>
<!-- Node8 -->
<g id="node9" class="node"><title>Node8</title>
<g id="a_node9"><a xlink:href="SDL__include_8h.html" target="_top" xlink:title="SDL_include.h">
<polygon fill="white" stroke="black" points="648.362,-0.5 648.362,-19.5 728.362,-19.5 728.362,-0.5 648.362,-0.5"/>
<text text-anchor="middle" x="688.362" y="-7.5" font-family="Helvetica,sans-Serif" font-size="10.00">SDL_include.h</text>
</a>
</g>
</g>
<!-- Node7&#45;&gt;Node8 -->
<g id="edge10" class="edge"><title>Node7&#45;&gt;Node8</title>
<path fill="none" stroke="midnightblue" d="M558.087,-56.6808C583.823,-47.6564 625.134,-33.1709 654.327,-22.9345"/>
<polygon fill="midnightblue" stroke="midnightblue" points="655.823,-26.1188 664.102,-19.5069 653.507,-19.5131 655.823,-26.1188"/>
</g>
<!-- Node10 -->
<g id="node11" class="node"><title>Node10</title>
<g id="a_node11"><a xlink:href="ComponentType_8h.html" target="_top" xlink:title="ComponentType.h">
<polygon fill="white" stroke="black" points="284.862,-112.5 284.862,-131.5 381.862,-131.5 381.862,-112.5 284.862,-112.5"/>
<text text-anchor="middle" x="333.362" y="-119.5" font-family="Helvetica,sans-Serif" font-size="10.00">ComponentType.h</text>
</a>
</g>
</g>
<!-- Node9&#45;&gt;Node10 -->
<g id="edge12" class="edge"><title>Node9&#45;&gt;Node10</title>
<path fill="none" stroke="midnightblue" d="M346.546,-224.484C343.71,-215.515 339.462,-200.929 337.362,-188 334.866,-172.636 333.898,-154.998 333.536,-141.976"/>
<polygon fill="midnightblue" stroke="midnightblue" points="337.034,-141.827 333.351,-131.893 330.035,-141.956 337.034,-141.827"/>
</g>
<!-- Node11 -->
<g id="node12" class="node"><title>Node11</title>
<g id="a_node12"><a xlink:href="GameObject_8h.html" target="_top" xlink:title="GameObject.h">
<polygon fill="white" stroke="black" points="346.362,-168.5 346.362,-187.5 426.362,-187.5 426.362,-168.5 346.362,-168.5"/>
<text text-anchor="middle" x="386.362" y="-175.5" font-family="Helvetica,sans-Serif" font-size="10.00">GameObject.h</text>
</a>
</g>
</g>
<!-- Node9&#45;&gt;Node11 -->
<g id="edge13" class="edge"><title>Node9&#45;&gt;Node11</title>
<path fill="none" stroke="midnightblue" d="M350.305,-224.083C353.96,-216.377 361.358,-205.033 368.663,-195.653"/>
<polygon fill="midnightblue" stroke="midnightblue" points="371.531,-197.678 375.235,-187.751 366.15,-193.202 371.531,-197.678"/>
</g>
<!-- Node11&#45;&gt;Node1 -->
<g id="edge15" class="edge"><title>Node11&#45;&gt;Node1</title>
<path fill="none" stroke="midnightblue" d="M363.703,-168.444C339.82,-159.425 302.011,-145.147 275.151,-135.004"/>
<polygon fill="midnightblue" stroke="midnightblue" points="276.037,-131.597 265.445,-131.339 273.564,-138.146 276.037,-131.597"/>
</g>
<!-- Node11&#45;&gt;Node8 -->
<g id="edge14" class="edge"><title>Node11&#45;&gt;Node8</title>
<path fill="none" stroke="midnightblue" d="M391.892,-168.371C406.699,-146.008 449.656,-85.8446 501.362,-56 543.706,-31.5592 598.784,-20.3556 638.178,-15.2423"/>
<polygon fill="midnightblue" stroke="midnightblue" points="638.836,-18.6883 648.343,-14.0123 637.995,-11.739 638.836,-18.6883"/>
</g>
<!-- Node11&#45;&gt;Node9 -->
<g id="edge18" class="edge"><title>Node11&#45;&gt;Node9</title>
<path fill="none" stroke="midnightblue" d="M385.497,-187.751C381.896,-195.405 374.525,-206.736 367.219,-216.144"/>
<polygon fill="midnightblue" stroke="midnightblue" points="364.325,-214.15 360.638,-224.083 369.715,-218.618 364.325,-214.15"/>
</g>
<!-- Node11&#45;&gt;Node10 -->
<g id="edge19" class="edge"><title>Node11&#45;&gt;Node10</title>
<path fill="none" stroke="midnightblue" d="M377.61,-168.083C369.892,-160.22 358.457,-148.569 349.145,-139.081"/>
<polygon fill="midnightblue" stroke="midnightblue" points="351.454,-136.436 341.951,-131.751 346.458,-141.34 351.454,-136.436"/>
</g>
<!-- Node12 -->
<g id="node13" class="node"><title>Node12</title>
<polygon fill="white" stroke="#bfbfbf" points="556.362,-112.5 556.362,-131.5 608.362,-131.5 608.362,-112.5 556.362,-112.5"/>
<text text-anchor="middle" x="582.362" y="-119.5" font-family="Helvetica,sans-Serif" font-size="10.00">memory</text>
</g>
<!-- Node11&#45;&gt;Node12 -->
<g id="edge16" class="edge"><title>Node11&#45;&gt;Node12</title>
<path fill="none" stroke="midnightblue" d="M417.419,-168.444C452.445,-158.793 509.327,-143.122 546.292,-132.938"/>
<polygon fill="midnightblue" stroke="midnightblue" points="547.444,-136.251 556.155,-130.22 545.584,-129.502 547.444,-136.251"/>
</g>
<!-- Node13 -->
<g id="node14" class="node"><title>Node13</title>
<polygon fill="white" stroke="#bfbfbf" points="482.862,-112.5 482.862,-131.5 523.862,-131.5 523.862,-112.5 482.862,-112.5"/>
<text text-anchor="middle" x="503.362" y="-119.5" font-family="Helvetica,sans-Serif" font-size="10.00">string</text>
</g>
<!-- Node11&#45;&gt;Node13 -->
<g id="edge17" class="edge"><title>Node11&#45;&gt;Node13</title>
<path fill="none" stroke="midnightblue" d="M404.901,-168.444C423.985,-159.636 453.937,-145.812 475.798,-135.722"/>
<polygon fill="midnightblue" stroke="midnightblue" points="477.297,-138.885 484.91,-131.516 474.363,-132.529 477.297,-138.885"/>
</g>
<!-- Node14 -->
<g id="node15" class="node"><title>Node14</title>
<g id="a_node15"><a xlink:href="Rect_8h.html" target="_top" xlink:title="Rect.h">
<polygon fill="white" stroke="black" points="818.362,-112.5 818.362,-131.5 864.362,-131.5 864.362,-112.5 818.362,-112.5"/>
<text text-anchor="middle" x="841.362" y="-119.5" font-family="Helvetica,sans-Serif" font-size="10.00">Rect.h</text>
</a>
</g>
</g>
<!-- Node11&#45;&gt;Node14 -->
<g id="edge20" class="edge"><title>Node11&#45;&gt;Node14</title>
<path fill="none" stroke="midnightblue" d="M426.564,-172.455C496.623,-164.501 645.622,-147.431 771.362,-132 783.373,-130.526 796.536,-128.85 808.173,-127.347"/>
<polygon fill="midnightblue" stroke="midnightblue" points="808.889,-130.783 818.355,-126.026 807.988,-123.841 808.889,-130.783"/>
</g>
<!-- Node14&#45;&gt;Node7 -->
<g id="edge22" class="edge"><title>Node14&#45;&gt;Node7</title>
<path fill="none" stroke="midnightblue" d="M818.287,-116.941C764.636,-107.504 631.291,-84.0495 568.32,-72.9731"/>
<polygon fill="midnightblue" stroke="midnightblue" points="568.582,-69.4655 558.127,-71.1801 567.369,-76.3596 568.582,-69.4655"/>
</g>
<!-- Node14&#45;&gt;Node8 -->
<g id="edge21" class="edge"><title>Node14&#45;&gt;Node8</title>
<path fill="none" stroke="midnightblue" d="M850.931,-112.309C864.267,-99.1451 885.317,-73.8024 871.362,-56 855.109,-35.2662 786.884,-22.8105 738.508,-16.4229"/>
<polygon fill="midnightblue" stroke="midnightblue" points="738.874,-12.9413 728.512,-15.1511 737.991,-19.8853 738.874,-12.9413"/>
</g>
<!-- Node15 -->
<g id="node16" class="node"><title>Node15</title>
<polygon fill="white" stroke="#bfbfbf" points="818.362,-56.5 818.362,-75.5 862.362,-75.5 862.362,-56.5 818.362,-56.5"/>
<text text-anchor="middle" x="840.362" y="-63.5" font-family="Helvetica,sans-Serif" font-size="10.00">cmath</text>
</g>
<!-- Node14&#45;&gt;Node15 -->
<g id="edge23" class="edge"><title>Node14&#45;&gt;Node15</title>
<path fill="none" stroke="midnightblue" d="M841.197,-112.083C841.066,-105.006 840.878,-94.8611 840.714,-85.9865"/>
<polygon fill="midnightblue" stroke="midnightblue" points="844.209,-85.6845 840.524,-75.7511 837.21,-85.8142 844.209,-85.6845"/>
</g>
<!-- Node16&#45;&gt;Node1 -->
<g id="edge26" class="edge"><title>Node16&#45;&gt;Node1</title>
<path fill="none" stroke="midnightblue" d="M519.11,-340.3C470.031,-330.549 365.981,-303.838 302.362,-244 271.825,-215.278 255.115,-167.4 247.848,-141.312"/>
<polygon fill="midnightblue" stroke="midnightblue" points="251.219,-140.371 245.299,-131.585 244.448,-142.146 251.219,-140.371"/>
</g>
<!-- Node16&#45;&gt;Node7 -->
<g id="edge43" class="edge"><title>Node16&#45;&gt;Node7</title>
<path fill="none" stroke="midnightblue" d="M552.098,-336.292C566.871,-313.279 605.993,-248.462 619.362,-188 621.281,-179.321 619.521,-176.887 619.362,-168 618.917,-143.099 630.482,-133.169 617.362,-112 606.36,-94.2493 585.751,-83.0211 567.823,-76.2197"/>
<polygon fill="midnightblue" stroke="midnightblue" points="568.811,-72.858 558.216,-72.8833 566.514,-79.4705 568.811,-72.858"/>
</g>
<!-- Node16&#45;&gt;Node13 -->
<g id="edge25" class="edge"><title>Node16&#45;&gt;Node13</title>
<path fill="none" stroke="midnightblue" d="M544.087,-336.207C538.009,-312.457 521.193,-244.965 511.362,-188 508.7,-172.575 506.587,-154.942 505.203,-141.937"/>
<polygon fill="midnightblue" stroke="midnightblue" points="508.673,-141.465 504.179,-131.871 501.709,-142.174 508.673,-141.465"/>
</g>
<!-- Node16&#45;&gt;Node14 -->
<g id="edge44" class="edge"><title>Node16&#45;&gt;Node14</title>
<path fill="none" stroke="midnightblue" d="M573.467,-338.127C576.465,-337.396 579.476,-336.673 582.362,-336 694.417,-309.849 753.565,-334.707 824.362,-244 846.076,-216.18 849.699,-203.213 847.362,-168 846.787,-159.341 845.597,-149.805 844.427,-141.75"/>
<polygon fill="midnightblue" stroke="midnightblue" points="847.843,-140.939 842.853,-131.593 840.926,-142.011 847.843,-140.939"/>
</g>
<!-- Node16&#45;&gt;Node17 -->
<g id="edge27" class="edge"><title>Node16&#45;&gt;Node17</title>
<path fill="none" stroke="midnightblue" d="M573.41,-337.854C576.419,-337.173 579.448,-336.538 582.362,-336 713.551,-311.775 748.23,-318.406 880.362,-300 888.089,-298.924 896.39,-297.669 904.2,-296.445"/>
<polygon fill="midnightblue" stroke="midnightblue" points="904.77,-299.898 914.095,-294.87 903.669,-292.985 904.77,-299.898"/>
</g>
<!-- Node20 -->
<g id="node21" class="node"><title>Node20</title>
<g id="a_node21"><a xlink:href="Sprite_8h.html" target="_top" xlink:title="Sprite.h">
<polygon fill="white" stroke="black" points="689.362,-280.5 689.362,-299.5 739.362,-299.5 739.362,-280.5 689.362,-280.5"/>
<text text-anchor="middle" x="714.362" y="-287.5" font-family="Helvetica,sans-Serif" font-size="10.00">Sprite.h</text>
</a>
</g>
</g>
<!-- Node16&#45;&gt;Node20 -->
<g id="edge30" class="edge"><title>Node16&#45;&gt;Node20</title>
<path fill="none" stroke="midnightblue" d="M572.982,-336.444C601.785,-327.185 647.83,-312.385 679.501,-302.205"/>
<polygon fill="midnightblue" stroke="midnightblue" points="680.789,-305.468 689.238,-299.075 678.647,-298.804 680.789,-305.468"/>
</g>
<!-- Node18 -->
<g id="node19" class="node"><title>Node18</title>
<polygon fill="white" stroke="#bfbfbf" points="998.362,-224.5 998.362,-243.5 1052.36,-243.5 1052.36,-224.5 998.362,-224.5"/>
<text text-anchor="middle" x="1025.36" y="-231.5" font-family="Helvetica,sans-Serif" font-size="10.00">iostream</text>
</g>
<!-- Node17&#45;&gt;Node18 -->
<g id="edge28" class="edge"><title>Node17&#45;&gt;Node18</title>
<path fill="none" stroke="midnightblue" d="M951.501,-280.324C965.228,-271.9 986.298,-258.971 1002.43,-249.074"/>
<polygon fill="midnightblue" stroke="midnightblue" points="1004.57,-251.868 1011.26,-243.655 1000.9,-245.902 1004.57,-251.868"/>
</g>
<!-- Node19 -->
<g id="node20" class="node"><title>Node19</title>
<polygon fill="white" stroke="#bfbfbf" points="932.362,-224.5 932.362,-243.5 980.362,-243.5 980.362,-224.5 932.362,-224.5"/>
<text text-anchor="middle" x="956.362" y="-231.5" font-family="Helvetica,sans-Serif" font-size="10.00">stdlib.h</text>
</g>
<!-- Node17&#45;&gt;Node19 -->
<g id="edge29" class="edge"><title>Node17&#45;&gt;Node19</title>
<path fill="none" stroke="midnightblue" d="M940.499,-280.083C943.045,-272.849 946.718,-262.409 949.889,-253.397"/>
<polygon fill="midnightblue" stroke="midnightblue" points="953.265,-254.346 953.283,-243.751 946.662,-252.023 953.265,-254.346"/>
</g>
<!-- Node20&#45;&gt;Node8 -->
<g id="edge31" class="edge"><title>Node20&#45;&gt;Node8</title>
<path fill="none" stroke="midnightblue" d="M725.905,-280.433C747.166,-263.571 790.362,-223.799 790.362,-179 790.362,-179 790.362,-179 790.362,-121 790.362,-90.9022 790.268,-79.4186 771.362,-56 759.484,-41.2873 741.457,-30.6966 725.235,-23.5005"/>
<polygon fill="midnightblue" stroke="midnightblue" points="726.53,-20.2486 715.952,-19.6504 723.848,-26.7146 726.53,-20.2486"/>
</g>
<!-- Node20&#45;&gt;Node9 -->
<g id="edge34" class="edge"><title>Node20&#45;&gt;Node9</title>
<path fill="none" stroke="midnightblue" d="M689.066,-285.895C636.543,-279.35 511.636,-263.272 396.985,-244.205"/>
<polygon fill="midnightblue" stroke="midnightblue" points="397.429,-240.731 386.988,-242.53 396.272,-247.634 397.429,-240.731"/>
</g>
<!-- Node20&#45;&gt;Node12 -->
<g id="edge33" class="edge"><title>Node20&#45;&gt;Node12</title>
<path fill="none" stroke="midnightblue" d="M711.73,-280.466C704.872,-259.328 684.705,-203.673 652.362,-168 640.614,-155.043 624.323,-144.277 610.413,-136.527"/>
<polygon fill="midnightblue" stroke="midnightblue" points="611.721,-133.259 601.248,-131.655 608.434,-139.44 611.721,-133.259"/>
</g>
<!-- Node20&#45;&gt;Node13 -->
<g id="edge32" class="edge"><title>Node20&#45;&gt;Node13</title>
<path fill="none" stroke="midnightblue" d="M708.445,-280.301C691.387,-255.422 641.895,-184.694 619.362,-168 593.696,-148.985 558.976,-136.923 534.226,-130.125"/>
<polygon fill="midnightblue" stroke="midnightblue" points="534.844,-126.669 524.285,-127.53 533.076,-133.442 534.844,-126.669"/>
</g>
<!-- Node20&#45;&gt;Node14 -->
<g id="edge37" class="edge"><title>Node20&#45;&gt;Node14</title>
<path fill="none" stroke="midnightblue" d="M739.579,-282.404C759.824,-275.859 787.555,-263.875 804.362,-244 829.455,-214.326 837.536,-167.882 840.135,-142.016"/>
<polygon fill="midnightblue" stroke="midnightblue" points="843.65,-141.967 840.984,-131.714 836.674,-141.392 843.65,-141.967"/>
</g>
<!-- Node21 -->
<g id="node22" class="node"><title>Node21</title>
<g id="a_node22"><a xlink:href="Color_8h.html" target="_top" xlink:title="Color.h">
<polygon fill="white" stroke="black" points="899.362,-168.5 899.362,-187.5 947.362,-187.5 947.362,-168.5 899.362,-168.5"/>
<text text-anchor="middle" x="923.362" y="-175.5" font-family="Helvetica,sans-Serif" font-size="10.00">Color.h</text>
</a>
</g>
</g>
<!-- Node20&#45;&gt;Node21 -->
<g id="edge35" class="edge"><title>Node20&#45;&gt;Node21</title>
<path fill="none" stroke="midnightblue" d="M739.478,-282.882C766.084,-275.793 808.799,-262.648 842.362,-244 866.831,-230.404 891.412,-209.393 906.969,-194.961"/>
<polygon fill="midnightblue" stroke="midnightblue" points="909.773,-197.127 914.626,-187.709 904.959,-192.044 909.773,-197.127"/>
</g>
<!-- Node22 -->
<g id="node23" class="node"><title>Node22</title>
<g id="a_node23"><a xlink:href="InputManager_8h.html" target="_top" xlink:title="InputManager.h">
<polygon fill="white" stroke="black" points="678.362,-112.5 678.362,-131.5 762.362,-131.5 762.362,-112.5 678.362,-112.5"/>
<text text-anchor="middle" x="720.362" y="-119.5" font-family="Helvetica,sans-Serif" font-size="10.00">InputManager.h</text>
</a>
</g>
</g>
<!-- Node20&#45;&gt;Node22 -->
<g id="edge38" class="edge"><title>Node20&#45;&gt;Node22</title>
<path fill="none" stroke="midnightblue" d="M716.612,-280.211C721.443,-260.285 732.078,-210.131 728.362,-168 727.586,-159.197 725.971,-149.536 724.393,-141.43"/>
<polygon fill="midnightblue" stroke="midnightblue" points="727.806,-140.648 722.349,-131.567 720.952,-142.069 727.806,-140.648"/>
</g>
<!-- Node21&#45;&gt;Node8 -->
<g id="edge36" class="edge"><title>Node21&#45;&gt;Node8</title>
<path fill="none" stroke="midnightblue" d="M923.552,-168.485C923.553,-146.398 920.335,-86.8414 887.362,-56 866.142,-36.1516 790.388,-23.2616 738.714,-16.5631"/>
<polygon fill="midnightblue" stroke="midnightblue" points="739.083,-13.0819 728.724,-15.3057 738.209,-20.0271 739.083,-13.0819"/>
</g>
<!-- Node22&#45;&gt;Node7 -->
<g id="edge40" class="edge"><title>Node22&#45;&gt;Node7</title>
<path fill="none" stroke="midnightblue" d="M690.89,-112.444C657.419,-102.726 602.92,-86.904 567.864,-76.7263"/>
<polygon fill="midnightblue" stroke="midnightblue" points="568.669,-73.3156 558.089,-73.8886 566.717,-80.038 568.669,-73.3156"/>
</g>
<!-- Node22&#45;&gt;Node8 -->
<g id="edge39" class="edge"><title>Node22&#45;&gt;Node8</title>
<path fill="none" stroke="midnightblue" d="M687.193,-112.497C656.742,-103.94 614.94,-90.0335 605.362,-76 589.696,-53.0468 621.811,-34.4555 650.539,-23.1264"/>
<polygon fill="midnightblue" stroke="midnightblue" points="651.933,-26.3422 660.078,-19.5669 649.485,-19.7839 651.933,-26.3422"/>
</g>
<!-- Node23 -->
<g id="node24" class="node"><title>Node23</title>
<polygon fill="white" stroke="#bfbfbf" points="614.862,-56.5 614.862,-75.5 697.862,-75.5 697.862,-56.5 614.862,-56.5"/>
<text text-anchor="middle" x="656.362" y="-63.5" font-family="Helvetica,sans-Serif" font-size="10.00">unordered_map</text>
</g>
<!-- Node22&#45;&gt;Node23 -->
<g id="edge41" class="edge"><title>Node22&#45;&gt;Node23</title>
<path fill="none" stroke="midnightblue" d="M710.079,-112.324C700.526,-104.263 686.082,-92.0765 674.578,-82.3695"/>
<polygon fill="midnightblue" stroke="midnightblue" points="676.732,-79.6076 666.832,-75.8339 672.218,-84.9577 676.732,-79.6076"/>
</g>
<!-- Node24 -->
<g id="node25" class="node"><title>Node24</title>
<polygon fill="white" stroke="#bfbfbf" points="716.362,-56.5 716.362,-75.5 762.362,-75.5 762.362,-56.5 716.362,-56.5"/>
<text text-anchor="middle" x="739.362" y="-63.5" font-family="Helvetica,sans-Serif" font-size="10.00">cstdint</text>
</g>
<!-- Node22&#45;&gt;Node24 -->
<g id="edge42" class="edge"><title>Node22&#45;&gt;Node24</title>
<path fill="none" stroke="midnightblue" d="M723.499,-112.083C726.045,-104.849 729.718,-94.4087 732.889,-85.3968"/>
<polygon fill="midnightblue" stroke="midnightblue" points="736.265,-86.3459 736.283,-75.7511 729.662,-84.0225 736.265,-86.3459"/>
</g>
<!-- Node26&#45;&gt;Node7 -->
<g id="edge49" class="edge"><title>Node26&#45;&gt;Node7</title>
<path fill="none" stroke="midnightblue" d="M435.321,-224.266C438.007,-203.146 447.201,-148.374 473.362,-112 482.547,-99.2294 496.453,-88.5739 508.67,-80.8425"/>
<polygon fill="midnightblue" stroke="midnightblue" points="510.792,-83.6514 517.576,-75.5136 507.198,-77.6445 510.792,-83.6514"/>
</g>
<!-- Node26&#45;&gt;Node11 -->
<g id="edge48" class="edge"><title>Node26&#45;&gt;Node11</title>
<path fill="none" stroke="midnightblue" d="M426.436,-224.083C419.516,-216.298 409.297,-204.801 400.91,-195.367"/>
<polygon fill="midnightblue" stroke="midnightblue" points="403.4,-192.9 394.141,-187.751 398.168,-197.55 403.4,-192.9"/>
</g>
<!-- Node27 -->
<g id="node28" class="node"><title>Node27</title>
<g id="a_node28"><a xlink:href="ActionManager_8h.html" target="_top" xlink:title="ActionManager.h">
<polygon fill="white" stroke="black" points="520.362,-168.5 520.362,-187.5 610.362,-187.5 610.362,-168.5 520.362,-168.5"/>
<text text-anchor="middle" x="565.362" y="-175.5" font-family="Helvetica,sans-Serif" font-size="10.00">ActionManager.h</text>
</a>
</g>
</g>
<!-- Node26&#45;&gt;Node27 -->
<g id="edge50" class="edge"><title>Node26&#45;&gt;Node27</title>
<path fill="none" stroke="midnightblue" d="M455.119,-224.444C476.678,-215.557 510.625,-201.563 535.156,-191.451"/>
<polygon fill="midnightblue" stroke="midnightblue" points="536.79,-194.563 544.702,-187.516 534.123,-188.092 536.79,-194.563"/>
</g>
<!-- Node27&#45;&gt;Node22 -->
<g id="edge51" class="edge"><title>Node27&#45;&gt;Node22</title>
<path fill="none" stroke="midnightblue" d="M589.922,-168.444C615.885,-159.399 657.03,-145.064 686.159,-134.916"/>
<polygon fill="midnightblue" stroke="midnightblue" points="687.625,-138.112 695.917,-131.516 685.322,-131.501 687.625,-138.112"/>
</g>
</g>
</svg>
