<?xml version="1.0" encoding="UTF-8" standalone="no"?>
<!DOCTYPE svg PUBLIC "-//W3C//DTD SVG 1.1//EN"
 "http://www.w3.org/Graphics/SVG/1.1/DTD/svg11.dtd">
<!-- Generated by graphviz version 2.38.0 (20140413.2041)
 -->
<!-- Title: include/Tileset.h Pages: 1 -->
<svg width="526pt" height="252pt"
 viewBox="0.00 0.00 525.50 252.00" xmlns="http://www.w3.org/2000/svg" xmlns:xlink="http://www.w3.org/1999/xlink">
<g id="graph0" class="graph" transform="scale(1 1) rotate(0) translate(4 248)">
<title>include/Tileset.h</title>
<polygon fill="white" stroke="none" points="-4,4 -4,-248 521.5,-248 521.5,4 -4,4"/>
<!-- Node0 -->
<g id="node1" class="node"><title>Node0</title>
<polygon fill="#bfbfbf" stroke="black" points="40.5,-224.5 40.5,-243.5 128.5,-243.5 128.5,-224.5 40.5,-224.5"/>
<text text-anchor="middle" x="84.5" y="-231.5" font-family="Helvetica,sans-Serif" font-size="10.00">include/Tileset.h</text>
</g>
<!-- Node1 -->
<g id="node2" class="node"><title>Node1</title>
<polygon fill="white" stroke="#bfbfbf" points="0,-112.5 0,-131.5 41,-131.5 41,-112.5 0,-112.5"/>
<text text-anchor="middle" x="20.5" y="-119.5" font-family="Helvetica,sans-Serif" font-size="10.00">string</text>
</g>
<!-- Node0&#45;&gt;Node1 -->
<g id="edge1" class="edge"><title>Node0&#45;&gt;Node1</title>
<path fill="none" stroke="midnightblue" d="M79.478,-224.368C68.9629,-206.296 44.4572,-164.176 30.5697,-140.307"/>
<polygon fill="midnightblue" stroke="midnightblue" points="33.5529,-138.475 25.4986,-131.591 27.5024,-141.995 33.5529,-138.475"/>
</g>
<!-- Node2 -->
<g id="node3" class="node"><title>Node2</title>
<g id="a_node3"><a xlink:href="Sprite_8h.html" target="_top" xlink:title="Sprite.h">
<polygon fill="white" stroke="black" points="98.5,-168.5 98.5,-187.5 148.5,-187.5 148.5,-168.5 98.5,-168.5"/>
<text text-anchor="middle" x="123.5" y="-175.5" font-family="Helvetica,sans-Serif" font-size="10.00">Sprite.h</text>
</a>
</g>
</g>
<!-- Node0&#45;&gt;Node2 -->
<g id="edge2" class="edge"><title>Node0&#45;&gt;Node2</title>
<path fill="none" stroke="midnightblue" d="M90.9401,-224.083C96.4489,-216.455 104.531,-205.264 111.265,-195.941"/>
<polygon fill="midnightblue" stroke="midnightblue" points="114.162,-197.907 117.18,-187.751 108.487,-193.809 114.162,-197.907"/>
</g>
<!-- Node2&#45;&gt;Node1 -->
<g id="edge4" class="edge"><title>Node2&#45;&gt;Node1</title>
<path fill="none" stroke="midnightblue" d="M106.951,-168.324C90.5084,-159.703 65.0652,-146.364 46.0316,-136.386"/>
<polygon fill="midnightblue" stroke="midnightblue" points="47.4895,-133.198 37.0077,-131.655 44.2391,-139.398 47.4895,-133.198"/>
</g>
<!-- Node3 -->
<g id="node4" class="node"><title>Node3</title>
<g id="a_node4"><a xlink:href="SDL__include_8h.html" target="_top" xlink:title="SDL_include.h">
<polygon fill="white" stroke="black" points="135.5,-0.5 135.5,-19.5 215.5,-19.5 215.5,-0.5 135.5,-0.5"/>
<text text-anchor="middle" x="175.5" y="-7.5" font-family="Helvetica,sans-Serif" font-size="10.00">SDL_include.h</text>
</a>
</g>
</g>
<!-- Node2&#45;&gt;Node3 -->
<g id="edge3" class="edge"><title>Node2&#45;&gt;Node3</title>
<path fill="none" stroke="midnightblue" d="M113.944,-168.45C105.412,-160.12 93.5108,-146.604 88.5,-132 83.3006,-116.846 78.9164,-74.4845 90.5,-56 100.135,-40.6243 116.907,-30.1936 133.021,-23.2802"/>
<polygon fill="midnightblue" stroke="midnightblue" points="134.346,-26.5202 142.373,-19.6054 131.786,-20.0051 134.346,-26.5202"/>
</g>
<!-- Node4 -->
<g id="node5" class="node"><title>Node4</title>
<polygon fill="white" stroke="#bfbfbf" points="97.5,-112.5 97.5,-131.5 149.5,-131.5 149.5,-112.5 97.5,-112.5"/>
<text text-anchor="middle" x="123.5" y="-119.5" font-family="Helvetica,sans-Serif" font-size="10.00">memory</text>
</g>
<!-- Node2&#45;&gt;Node4 -->
<g id="edge5" class="edge"><title>Node2&#45;&gt;Node4</title>
<path fill="none" stroke="midnightblue" d="M123.5,-168.083C123.5,-161.006 123.5,-150.861 123.5,-141.986"/>
<polygon fill="midnightblue" stroke="midnightblue" points="127,-141.751 123.5,-131.751 120,-141.751 127,-141.751"/>
</g>
<!-- Node5 -->
<g id="node6" class="node"><title>Node5</title>
<g id="a_node6"><a xlink:href="Color_8h.html" target="_top" xlink:title="Color.h">
<polygon fill="white" stroke="black" points="99.5,-56.5 99.5,-75.5 147.5,-75.5 147.5,-56.5 99.5,-56.5"/>
<text text-anchor="middle" x="123.5" y="-63.5" font-family="Helvetica,sans-Serif" font-size="10.00">Color.h</text>
</a>
</g>
</g>
<!-- Node2&#45;&gt;Node5 -->
<g id="edge6" class="edge"><title>Node2&#45;&gt;Node5</title>
<path fill="none" stroke="midnightblue" d="M133.056,-168.45C141.588,-160.12 153.489,-146.604 158.5,-132 164.505,-114.497 152.605,-96.0629 141.085,-83.3144"/>
<polygon fill="midnightblue" stroke="midnightblue" points="143.256,-80.528 133.762,-75.8248 138.251,-85.4218 143.256,-80.528"/>
</g>
<!-- Node6 -->
<g id="node7" class="node"><title>Node6</title>
<g id="a_node7"><a xlink:href="Rect_8h.html" target="_top" xlink:title="Rect.h">
<polygon fill="white" stroke="black" points="205.5,-112.5 205.5,-131.5 251.5,-131.5 251.5,-112.5 205.5,-112.5"/>
<text text-anchor="middle" x="228.5" y="-119.5" font-family="Helvetica,sans-Serif" font-size="10.00">Rect.h</text>
</a>
</g>
</g>
<!-- Node2&#45;&gt;Node6 -->
<g id="edge8" class="edge"><title>Node2&#45;&gt;Node6</title>
<path fill="none" stroke="midnightblue" d="M140.37,-168.324C157.209,-159.664 183.307,-146.242 202.738,-136.249"/>
<polygon fill="midnightblue" stroke="midnightblue" points="204.38,-139.341 211.672,-131.655 201.178,-133.116 204.38,-139.341"/>
</g>
<!-- Node9 -->
<g id="node10" class="node"><title>Node9</title>
<g id="a_node10"><a xlink:href="InputManager_8h.html" target="_top" xlink:title="InputManager.h">
<polygon fill="white" stroke="black" points="299.5,-112.5 299.5,-131.5 383.5,-131.5 383.5,-112.5 299.5,-112.5"/>
<text text-anchor="middle" x="341.5" y="-119.5" font-family="Helvetica,sans-Serif" font-size="10.00">InputManager.h</text>
</a>
</g>
</g>
<!-- Node2&#45;&gt;Node9 -->
<g id="edge13" class="edge"><title>Node2&#45;&gt;Node9</title>
<path fill="none" stroke="midnightblue" d="M148.507,-170.806C184.795,-161.817 252.595,-145.022 297.395,-133.925"/>
<polygon fill="midnightblue" stroke="midnightblue" points="298.276,-137.313 307.141,-131.511 296.593,-130.518 298.276,-137.313"/>
</g>
<!-- Node5&#45;&gt;Node3 -->
<g id="edge7" class="edge"><title>Node5&#45;&gt;Node3</title>
<path fill="none" stroke="midnightblue" d="M132.087,-56.083C139.659,-48.2195 150.878,-36.5688 160.014,-27.0813"/>
<polygon fill="midnightblue" stroke="midnightblue" points="162.658,-29.3821 167.073,-19.7511 157.615,-24.5266 162.658,-29.3821"/>
</g>
<!-- Node6&#45;&gt;Node3 -->
<g id="edge9" class="edge"><title>Node6&#45;&gt;Node3</title>
<path fill="none" stroke="midnightblue" d="M220.421,-112.343C212.77,-103.725 201.447,-89.8233 194.5,-76 187.076,-61.2276 182.075,-43.071 179.075,-29.7057"/>
<polygon fill="midnightblue" stroke="midnightblue" points="182.475,-28.8657 177.017,-19.7853 175.621,-30.2878 182.475,-28.8657"/>
</g>
<!-- Node7 -->
<g id="node8" class="node"><title>Node7</title>
<g id="a_node8"><a xlink:href="Vec2_8h.html" target="_top" xlink:title="Vec2.h">
<polygon fill="white" stroke="black" points="266,-56.5 266,-75.5 313,-75.5 313,-56.5 266,-56.5"/>
<text text-anchor="middle" x="289.5" y="-63.5" font-family="Helvetica,sans-Serif" font-size="10.00">Vec2.h</text>
</a>
</g>
</g>
<!-- Node6&#45;&gt;Node7 -->
<g id="edge10" class="edge"><title>Node6&#45;&gt;Node7</title>
<path fill="none" stroke="midnightblue" d="M238.301,-112.324C247.318,-104.341 260.906,-92.3128 271.818,-82.6529"/>
<polygon fill="midnightblue" stroke="midnightblue" points="274.353,-85.083 279.521,-75.8339 269.713,-79.8416 274.353,-85.083"/>
</g>
<!-- Node8 -->
<g id="node9" class="node"><title>Node8</title>
<polygon fill="white" stroke="#bfbfbf" points="203.5,-56.5 203.5,-75.5 247.5,-75.5 247.5,-56.5 203.5,-56.5"/>
<text text-anchor="middle" x="225.5" y="-63.5" font-family="Helvetica,sans-Serif" font-size="10.00">cmath</text>
</g>
<!-- Node6&#45;&gt;Node8 -->
<g id="edge12" class="edge"><title>Node6&#45;&gt;Node8</title>
<path fill="none" stroke="midnightblue" d="M228.005,-112.083C227.611,-105.006 227.048,-94.8611 226.555,-85.9865"/>
<polygon fill="midnightblue" stroke="midnightblue" points="230.036,-85.5415 225.986,-75.7511 223.046,-85.9299 230.036,-85.5415"/>
</g>
<!-- Node7&#45;&gt;Node3 -->
<g id="edge11" class="edge"><title>Node7&#45;&gt;Node3</title>
<path fill="none" stroke="midnightblue" d="M271.436,-56.4435C252.925,-47.6751 223.919,-33.9355 202.645,-23.8579"/>
<polygon fill="midnightblue" stroke="midnightblue" points="204.015,-20.6343 193.479,-19.5164 201.018,-26.9604 204.015,-20.6343"/>
</g>
<!-- Node9&#45;&gt;Node3 -->
<g id="edge14" class="edge"><title>Node9&#45;&gt;Node3</title>
<path fill="none" stroke="midnightblue" d="M341.288,-112.114C340.471,-98.2221 336.858,-71.3653 321.5,-56 296.315,-30.8026 257.366,-19.6583 226.03,-14.7569"/>
<polygon fill="midnightblue" stroke="midnightblue" points="226.113,-11.2348 215.726,-13.3228 225.148,-18.168 226.113,-11.2348"/>
</g>
<!-- Node9&#45;&gt;Node7 -->
<g id="edge15" class="edge"><title>Node9&#45;&gt;Node7</title>
<path fill="none" stroke="midnightblue" d="M332.913,-112.083C325.341,-104.22 314.122,-92.5688 304.986,-83.0813"/>
<polygon fill="midnightblue" stroke="midnightblue" points="307.385,-80.5266 297.927,-75.7511 302.342,-85.3821 307.385,-80.5266"/>
</g>
<!-- Node10 -->
<g id="node11" class="node"><title>Node10</title>
<polygon fill="white" stroke="#bfbfbf" points="370,-56.5 370,-75.5 453,-75.5 453,-56.5 370,-56.5"/>
<text text-anchor="middle" x="411.5" y="-63.5" font-family="Helvetica,sans-Serif" font-size="10.00">unordered_map</text>
</g>
<!-- Node9&#45;&gt;Node10 -->
<g id="edge16" class="edge"><title>Node9&#45;&gt;Node10</title>
<path fill="none" stroke="midnightblue" d="M352.747,-112.324C363.297,-104.185 379.301,-91.8395 391.942,-82.0874"/>
<polygon fill="midnightblue" stroke="midnightblue" points="394.269,-84.7132 400.049,-75.8339 389.993,-79.1707 394.269,-84.7132"/>
</g>
<!-- Node11 -->
<g id="node12" class="node"><title>Node11</title>
<polygon fill="white" stroke="#bfbfbf" points="471.5,-56.5 471.5,-75.5 517.5,-75.5 517.5,-56.5 471.5,-56.5"/>
<text text-anchor="middle" x="494.5" y="-63.5" font-family="Helvetica,sans-Serif" font-size="10.00">cstdint</text>
</g>
<!-- Node9&#45;&gt;Node11 -->
<g id="edge17" class="edge"><title>Node9&#45;&gt;Node11</title>
<path fill="none" stroke="midnightblue" d="M365.743,-112.444C391.672,-103.292 432.943,-88.726 461.748,-78.5594"/>
<polygon fill="midnightblue" stroke="midnightblue" points="463.107,-81.7917 471.372,-75.1629 460.777,-75.1907 463.107,-81.7917"/>
</g>
</g>
</svg>
