<?xml version="1.0" encoding="UTF-8" standalone="no"?>
<!DOCTYPE svg PUBLIC "-//W3C//DTD SVG 1.1//EN"
 "http://www.w3.org/Graphics/SVG/1.1/DTD/svg11.dtd">
<!-- Generated by graphviz version 2.40.1 (20161225.0304)
 -->
<!-- Title: include/TileMap.h Pages: 1 -->
<svg width="1307pt" height="420pt"
 viewBox="0.00 0.00 1307.33 420.00" xmlns="http://www.w3.org/2000/svg" xmlns:xlink="http://www.w3.org/1999/xlink">
<g id="graph0" class="graph" transform="scale(1 1) rotate(0) translate(4 416)">
<title>include/TileMap.h</title>
<polygon fill="#ffffff" stroke="transparent" points="-4,4 -4,-416 1303.3286,-416 1303.3286,4 -4,4"/>
<!-- Node0 -->
<g id="node1" class="node">
<title>Node0</title>
<polygon fill="#bfbfbf" stroke="#000000" points="266.8286,-392.5 266.8286,-411.5 359.8286,-411.5 359.8286,-392.5 266.8286,-392.5"/>
<text text-anchor="middle" x="313.3286" y="-399.5" font-family="Helvetica,sans-Serif" font-size="10.00" fill="#000000">include/TileMap.h</text>
</g>
<!-- Node1 -->
<g id="node2" class="node">
<title>Node1</title>
<polygon fill="#ffffff" stroke="#bfbfbf" points="291.3286,-56.5 291.3286,-75.5 335.3286,-75.5 335.3286,-56.5 291.3286,-56.5"/>
<text text-anchor="middle" x="313.3286" y="-63.5" font-family="Helvetica,sans-Serif" font-size="10.00" fill="#000000">vector</text>
</g>
<!-- Node0&#45;&gt;Node1 -->
<g id="edge1" class="edge">
<title>Node0&#45;&gt;Node1</title>
<path fill="none" stroke="#191970" d="M313.3286,-392.3065C313.3286,-346.3189 313.3286,-149.7291 313.3286,-86.0167"/>
<polygon fill="#191970" stroke="#191970" points="316.8287,-85.7328 313.3286,-75.7328 309.8287,-85.7328 316.8287,-85.7328"/>
</g>
<!-- Node2 -->
<g id="node3" class="node">
<title>Node2</title>
<polygon fill="#ffffff" stroke="#bfbfbf" points="16.8286,-336.5 16.8286,-355.5 45.8286,-355.5 45.8286,-336.5 16.8286,-336.5"/>
<text text-anchor="middle" x="31.3286" y="-343.5" font-family="Helvetica,sans-Serif" font-size="10.00" fill="#000000">list</text>
</g>
<!-- Node0&#45;&gt;Node2 -->
<g id="edge2" class="edge">
<title>Node0&#45;&gt;Node2</title>
<path fill="none" stroke="#191970" d="M266.7145,-397.0587C216.4152,-390.9942 134.0164,-378.9349 56.1906,-356.0726"/>
<polygon fill="#191970" stroke="#191970" points="56.817,-352.6063 46.2328,-353.0795 54.802,-359.31 56.817,-352.6063"/>
</g>
<!-- Node3 -->
<g id="node4" class="node">
<title>Node3</title>
<polygon fill="#ffffff" stroke="#bfbfbf" points="63.8286,-336.5 63.8286,-355.5 106.8286,-355.5 106.8286,-336.5 63.8286,-336.5"/>
<text text-anchor="middle" x="85.3286" y="-343.5" font-family="Helvetica,sans-Serif" font-size="10.00" fill="#000000">queue</text>
</g>
<!-- Node0&#45;&gt;Node3 -->
<g id="edge3" class="edge">
<title>Node0&#45;&gt;Node3</title>
<path fill="none" stroke="#191970" d="M267.6761,-392.4614C229.7671,-384.289 174.2511,-371.7425 116.9075,-355.9892"/>
<polygon fill="#191970" stroke="#191970" points="117.5118,-352.5246 106.94,-353.2231 115.6399,-359.2697 117.5118,-352.5246"/>
</g>
<!-- Node4 -->
<g id="node5" class="node">
<title>Node4</title>
<polygon fill="#ffffff" stroke="#bfbfbf" points="124.3286,-280.5 124.3286,-299.5 164.3286,-299.5 164.3286,-280.5 124.3286,-280.5"/>
<text text-anchor="middle" x="144.3286" y="-287.5" font-family="Helvetica,sans-Serif" font-size="10.00" fill="#000000">limits</text>
</g>
<!-- Node0&#45;&gt;Node4 -->
<g id="edge4" class="edge">
<title>Node0&#45;&gt;Node4</title>
<path fill="none" stroke="#191970" d="M266.7617,-398.3149C185.3166,-391.3943 24.0212,-375.3895 7.3286,-356 -25.1673,-318.2539 64.6345,-300.2977 114.1293,-293.4626"/>
<polygon fill="#191970" stroke="#191970" points="114.8461,-296.8988 124.3092,-292.1342 113.9403,-289.9577 114.8461,-296.8988"/>
</g>
<!-- Node5 -->
<g id="node6" class="node">
<title>Node5</title>
<polygon fill="#ffffff" stroke="#bfbfbf" points="229.3286,-336.5 229.3286,-355.5 285.3286,-355.5 285.3286,-336.5 229.3286,-336.5"/>
<text text-anchor="middle" x="257.3286" y="-343.5" font-family="Helvetica,sans-Serif" font-size="10.00" fill="#000000">algorithm</text>
</g>
<!-- Node0&#45;&gt;Node5 -->
<g id="edge5" class="edge">
<title>Node0&#45;&gt;Node5</title>
<path fill="none" stroke="#191970" d="M303.5742,-392.2455C295.4639,-384.1352 283.7361,-372.4075 274.1206,-362.7919"/>
<polygon fill="#191970" stroke="#191970" points="276.5173,-360.2389 266.9713,-355.6427 271.5675,-365.1887 276.5173,-360.2389"/>
</g>
<!-- Node6 -->
<g id="node7" class="node">
<title>Node6</title>
<g id="a_node7"><a xlink:href="NearestFinder_8h.html" target="_top" xlink:title="NearestFinder.h">
<polygon fill="#ffffff" stroke="#000000" points="125.3286,-336.5 125.3286,-355.5 211.3286,-355.5 211.3286,-336.5 125.3286,-336.5"/>
<text text-anchor="middle" x="168.3286" y="-343.5" font-family="Helvetica,sans-Serif" font-size="10.00" fill="#000000">NearestFinder.h</text>
</a>
</g>
</g>
<!-- Node0&#45;&gt;Node6 -->
<g id="edge6" class="edge">
<title>Node0&#45;&gt;Node6</title>
<path fill="none" stroke="#191970" d="M288.4022,-392.3733C264.7085,-383.2226 228.8775,-369.3844 202.5218,-359.2057"/>
<polygon fill="#191970" stroke="#191970" points="203.5192,-355.8389 192.9298,-355.5011 200.9973,-362.3689 203.5192,-355.8389"/>
</g>
<!-- Node11 -->
<g id="node12" class="node">
<title>Node11</title>
<g id="a_node12"><a xlink:href="Component_8h.html" target="_top" xlink:title="Component.h">
<polygon fill="#ffffff" stroke="#000000" points="550.8286,-168.5 550.8286,-187.5 625.8286,-187.5 625.8286,-168.5 550.8286,-168.5"/>
<text text-anchor="middle" x="588.3286" y="-175.5" font-family="Helvetica,sans-Serif" font-size="10.00" fill="#000000">Component.h</text>
</a>
</g>
</g>
<!-- Node0&#45;&gt;Node11 -->
<g id="edge15" class="edge">
<title>Node0&#45;&gt;Node11</title>
<path fill="none" stroke="#191970" d="M325.145,-392.375C367.8969,-357.5517 514.8188,-237.8771 568.4931,-194.1569"/>
<polygon fill="#191970" stroke="#191970" points="571.0133,-196.6183 576.5563,-187.5891 566.5924,-191.191 571.0133,-196.6183"/>
</g>
<!-- Node16 -->
<g id="node17" class="node">
<title>Node16</title>
<g id="a_node17"><a xlink:href="Tileset_8h.html" target="_top" xlink:title="Tileset.h">
<polygon fill="#ffffff" stroke="#000000" points="458.3286,-336.5 458.3286,-355.5 512.3286,-355.5 512.3286,-336.5 458.3286,-336.5"/>
<text text-anchor="middle" x="485.3286" y="-343.5" font-family="Helvetica,sans-Serif" font-size="10.00" fill="#000000">Tileset.h</text>
</a>
</g>
</g>
<!-- Node0&#45;&gt;Node16 -->
<g id="edge25" class="edge">
<title>Node0&#45;&gt;Node16</title>
<path fill="none" stroke="#191970" d="M342.8965,-392.3733C372.1042,-382.8638 416.8601,-368.2921 448.3923,-358.0258"/>
<polygon fill="#191970" stroke="#191970" points="449.7037,-361.2797 458.1289,-354.8557 447.5366,-354.6236 449.7037,-361.2797"/>
</g>
<!-- Node17 -->
<g id="node18" class="node">
<title>Node17</title>
<g id="a_node18"><a xlink:href="Error_8h.html" target="_top" xlink:title="Error.h">
<polygon fill="#ffffff" stroke="#000000" points="1182.3286,-280.5 1182.3286,-299.5 1228.3286,-299.5 1228.3286,-280.5 1182.3286,-280.5"/>
<text text-anchor="middle" x="1205.3286" y="-287.5" font-family="Helvetica,sans-Serif" font-size="10.00" fill="#000000">Error.h</text>
</a>
</g>
</g>
<!-- Node0&#45;&gt;Node17 -->
<g id="edge55" class="edge">
<title>Node0&#45;&gt;Node17</title>
<path fill="none" stroke="#191970" d="M359.9822,-399.5672C488.6525,-392.2018 859.1817,-366.5665 1171.8746,-299.9959"/>
<polygon fill="#191970" stroke="#191970" points="1172.9981,-303.3346 1182.0402,-297.8128 1171.5282,-296.4906 1172.9981,-303.3346"/>
</g>
<!-- Node27 -->
<g id="node28" class="node">
<title>Node27</title>
<g id="a_node28"><a xlink:href="TileMapObserver_8h.html" target="_top" xlink:title="TileMapObserver.h">
<polygon fill="#ffffff" stroke="#000000" points="607.8286,-336.5 607.8286,-355.5 706.8286,-355.5 706.8286,-336.5 607.8286,-336.5"/>
<text text-anchor="middle" x="657.3286" y="-343.5" font-family="Helvetica,sans-Serif" font-size="10.00" fill="#000000">TileMapObserver.h</text>
</a>
</g>
</g>
<!-- Node0&#45;&gt;Node27 -->
<g id="edge54" class="edge">
<title>Node0&#45;&gt;Node27</title>
<path fill="none" stroke="#191970" d="M359.9202,-394.6713C414.502,-386.0491 507.9369,-371.1754 597.5958,-356.2766"/>
<polygon fill="#191970" stroke="#191970" points="598.3712,-359.6958 607.6608,-354.6013 597.2218,-352.7908 598.3712,-359.6958"/>
</g>
<!-- Node28 -->
<g id="node29" class="node">
<title>Node28</title>
<g id="a_node29"><a xlink:href="Camera_8h.html" target="_top" xlink:title="Camera.h">
<polygon fill="#ffffff" stroke="#000000" points="530.8286,-336.5 530.8286,-355.5 589.8286,-355.5 589.8286,-336.5 530.8286,-336.5"/>
<text text-anchor="middle" x="560.3286" y="-343.5" font-family="Helvetica,sans-Serif" font-size="10.00" fill="#000000">Camera.h</text>
</a>
</g>
</g>
<!-- Node0&#45;&gt;Node28 -->
<g id="edge56" class="edge">
<title>Node0&#45;&gt;Node28</title>
<path fill="none" stroke="#191970" d="M358.4656,-392.4719C398.5218,-383.9143 458.8751,-370.7723 520.6241,-356.1117"/>
<polygon fill="#191970" stroke="#191970" points="521.6282,-359.4704 530.5435,-353.7461 520.0044,-352.6614 521.6282,-359.4704"/>
</g>
<!-- Node6&#45;&gt;Node1 -->
<g id="edge7" class="edge">
<title>Node6&#45;&gt;Node1</title>
<path fill="none" stroke="#191970" d="M175.315,-336.3606C188.1834,-317.6259 214.3286,-274.5697 214.3286,-234 214.3286,-234 214.3286,-234 214.3286,-178 214.3286,-134.255 257.2504,-99.5596 286.5704,-80.9623"/>
<polygon fill="#191970" stroke="#191970" points="288.4568,-83.9114 295.1705,-75.7153 284.811,-77.9358 288.4568,-83.9114"/>
</g>
<!-- Node6&#45;&gt;Node4 -->
<g id="edge8" class="edge">
<title>Node6&#45;&gt;Node4</title>
<path fill="none" stroke="#191970" d="M164.1482,-336.2455C160.9476,-328.7776 156.4326,-318.2427 152.5202,-309.1137"/>
<polygon fill="#191970" stroke="#191970" points="155.6175,-307.4554 148.4612,-299.6427 149.1835,-310.2129 155.6175,-307.4554"/>
</g>
<!-- Node7 -->
<g id="node8" class="node">
<title>Node7</title>
<g id="a_node8"><a xlink:href="Vec2_8h.html" target="_top" xlink:title="Vec2.h">
<polygon fill="#ffffff" stroke="#000000" points="932.8286,-168.5 932.8286,-187.5 979.8286,-187.5 979.8286,-168.5 932.8286,-168.5"/>
<text text-anchor="middle" x="956.3286" y="-175.5" font-family="Helvetica,sans-Serif" font-size="10.00" fill="#000000">Vec2.h</text>
</a>
</g>
</g>
<!-- Node6&#45;&gt;Node7 -->
<g id="edge9" class="edge">
<title>Node6&#45;&gt;Node7</title>
<path fill="none" stroke="#191970" d="M211.3937,-337.3009C214.4109,-336.82 217.4114,-336.3793 220.3286,-336 451.8181,-305.9025 515.4895,-346.1074 744.3286,-300 819.8324,-284.7872 846.3451,-289.7197 908.3286,-244 925.1893,-231.5634 938.5872,-211.4726 946.8969,-196.72"/>
<polygon fill="#191970" stroke="#191970" points="950.1878,-197.988 951.817,-187.5191 944.015,-194.6871 950.1878,-197.988"/>
</g>
<!-- Node8 -->
<g id="node9" class="node">
<title>Node8</title>
<g id="a_node9"><a xlink:href="SDL__include_8h.html" target="_top" xlink:title="SDL_include.h">
<polygon fill="#ffffff" stroke="#000000" points="772.3286,-.5 772.3286,-19.5 852.3286,-19.5 852.3286,-.5 772.3286,-.5"/>
<text text-anchor="middle" x="812.3286" y="-7.5" font-family="Helvetica,sans-Serif" font-size="10.00" fill="#000000">SDL_include.h</text>
</a>
</g>
</g>
<!-- Node7&#45;&gt;Node8 -->
<g id="edge10" class="edge">
<title>Node7&#45;&gt;Node8</title>
<path fill="none" stroke="#191970" d="M948.174,-168.4862C924.9182,-141.3545 857.997,-63.2798 827.6351,-27.8576"/>
<polygon fill="#191970" stroke="#191970" points="829.9179,-25.1427 820.7525,-19.8279 824.6031,-29.6983 829.9179,-25.1427"/>
</g>
<!-- Node9 -->
<g id="node10" class="node">
<title>Node9</title>
<g id="a_node10"><a xlink:href="Rect_8h.html" target="_top" xlink:title="Rect.h">
<polygon fill="#ffffff" stroke="#000000" points="886.3286,-56.5 886.3286,-75.5 932.3286,-75.5 932.3286,-56.5 886.3286,-56.5"/>
<text text-anchor="middle" x="909.3286" y="-63.5" font-family="Helvetica,sans-Serif" font-size="10.00" fill="#000000">Rect.h</text>
</a>
</g>
</g>
<!-- Node7&#45;&gt;Node9 -->
<g id="edge11" class="edge">
<title>Node7&#45;&gt;Node9</title>
<path fill="none" stroke="#191970" d="M948.3416,-168.4509C937.4371,-150.1013 920.0126,-109.5908 912.2035,-85.3693"/>
<polygon fill="#191970" stroke="#191970" points="915.4957,-84.1552 909.3501,-75.5249 908.7725,-86.104 915.4957,-84.1552"/>
</g>
<!-- Node9&#45;&gt;Node7 -->
<g id="edge13" class="edge">
<title>Node9&#45;&gt;Node7</title>
<path fill="none" stroke="#191970" d="M917.3013,-75.5249C928.2001,-93.8551 945.6259,-134.363 953.4435,-158.5987"/>
<polygon fill="#191970" stroke="#191970" points="950.1539,-159.8219 956.3012,-168.4509 956.8768,-157.8718 950.1539,-159.8219"/>
</g>
<!-- Node9&#45;&gt;Node8 -->
<g id="edge12" class="edge">
<title>Node9&#45;&gt;Node8</title>
<path fill="none" stroke="#191970" d="M892.4325,-56.2455C877.4107,-47.5731 855.2243,-34.7645 838.0076,-24.825"/>
<polygon fill="#191970" stroke="#191970" points="839.4415,-21.6114 829.0311,-19.6427 835.9416,-27.6737 839.4415,-21.6114"/>
</g>
<!-- Node10 -->
<g id="node11" class="node">
<title>Node10</title>
<polygon fill="#ffffff" stroke="#bfbfbf" points="887.3286,-.5 887.3286,-19.5 931.3286,-19.5 931.3286,-.5 887.3286,-.5"/>
<text text-anchor="middle" x="909.3286" y="-7.5" font-family="Helvetica,sans-Serif" font-size="10.00" fill="#000000">cmath</text>
</g>
<!-- Node9&#45;&gt;Node10 -->
<g id="edge14" class="edge">
<title>Node9&#45;&gt;Node10</title>
<path fill="none" stroke="#191970" d="M909.3286,-56.2455C909.3286,-48.9382 909.3286,-38.6944 909.3286,-29.7046"/>
<polygon fill="#191970" stroke="#191970" points="912.8287,-29.6426 909.3286,-19.6427 905.8287,-29.6427 912.8287,-29.6426"/>
</g>
<!-- Node12 -->
<g id="node13" class="node">
<title>Node12</title>
<g id="a_node13"><a xlink:href="ComponentType_8h.html" target="_top" xlink:title="ComponentType.h">
<polygon fill="#ffffff" stroke="#000000" points="591.8286,-56.5 591.8286,-75.5 688.8286,-75.5 688.8286,-56.5 591.8286,-56.5"/>
<text text-anchor="middle" x="640.3286" y="-63.5" font-family="Helvetica,sans-Serif" font-size="10.00" fill="#000000">ComponentType.h</text>
</a>
</g>
</g>
<!-- Node11&#45;&gt;Node12 -->
<g id="edge16" class="edge">
<title>Node11&#45;&gt;Node12</title>
<path fill="none" stroke="#191970" d="M594.6145,-168.3912C600.4299,-159.2613 609.0917,-145.0301 615.3286,-132 622.6753,-116.6516 629.4083,-98.5328 634.0313,-85.1662"/>
<polygon fill="#191970" stroke="#191970" points="637.3753,-86.2031 637.258,-75.6089 630.7431,-83.9639 637.3753,-86.2031"/>
</g>
<!-- Node13 -->
<g id="node14" class="node">
<title>Node13</title>
<g id="a_node14"><a xlink:href="GameObject_8h.html" target="_top" xlink:title="GameObject.h">
<polygon fill="#ffffff" stroke="#000000" points="526.3286,-112.5 526.3286,-131.5 606.3286,-131.5 606.3286,-112.5 526.3286,-112.5"/>
<text text-anchor="middle" x="566.3286" y="-119.5" font-family="Helvetica,sans-Serif" font-size="10.00" fill="#000000">GameObject.h</text>
</a>
</g>
</g>
<!-- Node11&#45;&gt;Node13 -->
<g id="edge17" class="edge">
<title>Node11&#45;&gt;Node13</title>
<path fill="none" stroke="#191970" d="M579.2297,-168.2455C574.9009,-160.8579 570.422,-150.4689 567.4942,-141.4087"/>
<polygon fill="#191970" stroke="#191970" points="570.8455,-140.3928 564.8717,-131.6427 564.085,-142.2083 570.8455,-140.3928"/>
</g>
<!-- Node13&#45;&gt;Node1 -->
<g id="edge19" class="edge">
<title>Node13&#45;&gt;Node1</title>
<path fill="none" stroke="#191970" d="M526.24,-113.1266C476.2144,-102.0538 391.6528,-83.3366 345.5903,-73.1409"/>
<polygon fill="#191970" stroke="#191970" points="346.0817,-69.665 335.5616,-70.9211 344.5688,-76.4996 346.0817,-69.665"/>
</g>
<!-- Node13&#45;&gt;Node8 -->
<g id="edge18" class="edge">
<title>Node13&#45;&gt;Node8</title>
<path fill="none" stroke="#191970" d="M565.8504,-112.3568C565.6991,-97.9216 567.6967,-70.8119 583.3286,-56 608.5285,-32.1222 702.4581,-19.6074 761.9082,-13.9372"/>
<polygon fill="#191970" stroke="#191970" points="762.5839,-17.3899 772.2214,-12.9889 761.9429,-10.4193 762.5839,-17.3899"/>
</g>
<!-- Node13&#45;&gt;Node9 -->
<g id="edge24" class="edge">
<title>Node13&#45;&gt;Node9</title>
<path fill="none" stroke="#191970" d="M606.3464,-115.4665C674.6714,-104.3114 812.5787,-81.7959 876.0177,-71.4385"/>
<polygon fill="#191970" stroke="#191970" points="876.9468,-74.8333 886.2521,-69.7676 875.8188,-67.9247 876.9468,-74.8333"/>
</g>
<!-- Node13&#45;&gt;Node11 -->
<g id="edge22" class="edge">
<title>Node13&#45;&gt;Node11</title>
<path fill="none" stroke="#191970" d="M575.362,-131.6427C579.6892,-138.9998 584.1751,-149.3803 587.1186,-158.4538"/>
<polygon fill="#191970" stroke="#191970" points="583.7768,-159.5042 589.7634,-168.2455 590.5346,-157.6788 583.7768,-159.5042"/>
</g>
<!-- Node13&#45;&gt;Node12 -->
<g id="edge23" class="edge">
<title>Node13&#45;&gt;Node12</title>
<path fill="none" stroke="#191970" d="M579.2185,-112.2455C590.254,-103.8943 606.3578,-91.7076 619.264,-81.9408"/>
<polygon fill="#191970" stroke="#191970" points="621.7245,-84.4681 627.5865,-75.6427 617.5004,-78.8862 621.7245,-84.4681"/>
</g>
<!-- Node14 -->
<g id="node15" class="node">
<title>Node14</title>
<polygon fill="#ffffff" stroke="#bfbfbf" points="459.3286,-56.5 459.3286,-75.5 511.3286,-75.5 511.3286,-56.5 459.3286,-56.5"/>
<text text-anchor="middle" x="485.3286" y="-63.5" font-family="Helvetica,sans-Serif" font-size="10.00" fill="#000000">memory</text>
</g>
<!-- Node13&#45;&gt;Node14 -->
<g id="edge20" class="edge">
<title>Node13&#45;&gt;Node14</title>
<path fill="none" stroke="#191970" d="M552.2195,-112.2455C539.9078,-103.7337 521.8329,-91.2375 507.5748,-81.3801"/>
<polygon fill="#191970" stroke="#191970" points="509.4921,-78.4506 499.2761,-75.6427 505.5113,-84.2085 509.4921,-78.4506"/>
</g>
<!-- Node15 -->
<g id="node16" class="node">
<title>Node15</title>
<polygon fill="#ffffff" stroke="#bfbfbf" points="387.8286,-56.5 387.8286,-75.5 428.8286,-75.5 428.8286,-56.5 387.8286,-56.5"/>
<text text-anchor="middle" x="408.3286" y="-63.5" font-family="Helvetica,sans-Serif" font-size="10.00" fill="#000000">string</text>
</g>
<!-- Node13&#45;&gt;Node15 -->
<g id="edge21" class="edge">
<title>Node13&#45;&gt;Node15</title>
<path fill="none" stroke="#191970" d="M539.1675,-112.3733C511.2277,-102.4706 467.7997,-87.0784 438.7295,-76.775"/>
<polygon fill="#191970" stroke="#191970" points="439.6895,-73.402 429.0948,-73.3601 437.351,-79.9998 439.6895,-73.402"/>
</g>
<!-- Node16&#45;&gt;Node1 -->
<g id="edge27" class="edge">
<title>Node16&#45;&gt;Node1</title>
<path fill="none" stroke="#191970" d="M479.408,-336.3618C454.443,-295.7211 357.534,-137.9622 324.4617,-84.1236"/>
<polygon fill="#191970" stroke="#191970" points="327.4409,-82.2865 319.2244,-75.5977 321.4763,-85.9504 327.4409,-82.2865"/>
</g>
<!-- Node16&#45;&gt;Node7 -->
<g id="edge51" class="edge">
<title>Node16&#45;&gt;Node7</title>
<path fill="none" stroke="#191970" d="M512.6844,-338.02C515.9163,-337.2518 519.1831,-336.554 522.3286,-336 568.8926,-327.7991 912.945,-333.4812 946.3286,-300 973.1006,-273.1498 967.4127,-224.4665 961.5064,-197.425"/>
<polygon fill="#191970" stroke="#191970" points="964.8827,-196.4956 959.137,-187.594 958.0776,-198.1358 964.8827,-196.4956"/>
</g>
<!-- Node16&#45;&gt;Node9 -->
<g id="edge52" class="edge">
<title>Node16&#45;&gt;Node9</title>
<path fill="none" stroke="#191970" d="M512.6824,-338.0082C515.9146,-337.2421 519.182,-336.548 522.3286,-336 717.3735,-302.0303 772.5302,-340.4796 966.3286,-300 1041.311,-284.3381 1063.0396,-282.3851 1129.3286,-244 1162.0368,-225.0601 1177.7107,-222.4183 1193.3286,-188 1197.0017,-179.9055 1198.4426,-175.2705 1193.3286,-168 1163.5848,-125.7133 1010.8963,-88.0019 942.5158,-72.946"/>
<polygon fill="#191970" stroke="#191970" points="943.1947,-69.5119 932.6795,-70.8088 941.7084,-76.3523 943.1947,-69.5119"/>
</g>
<!-- Node16&#45;&gt;Node12 -->
<g id="edge53" class="edge">
<title>Node16&#45;&gt;Node12</title>
<path fill="none" stroke="#191970" d="M485.1854,-336.4119C484.9089,-317.0545 484.3286,-271.9182 484.3286,-234 484.3286,-234 484.3286,-234 484.3286,-178 484.3286,-145.2043 492.9452,-133.9318 517.3286,-112 535.4165,-95.7307 559.7963,-85.0321 582.0799,-78.0869"/>
<polygon fill="#191970" stroke="#191970" points="583.1909,-81.4087 591.8078,-75.2442 581.2274,-74.6897 583.1909,-81.4087"/>
</g>
<!-- Node16&#45;&gt;Node15 -->
<g id="edge26" class="edge">
<title>Node16&#45;&gt;Node15</title>
<path fill="none" stroke="#191970" d="M481.949,-336.1795C478.7978,-326.9 474.0394,-312.5676 470.3286,-300 447.0487,-221.1567 423.1466,-126.1813 413.165,-85.7593"/>
<polygon fill="#191970" stroke="#191970" points="416.5183,-84.7381 410.7309,-75.8636 409.7209,-86.4102 416.5183,-84.7381"/>
</g>
<!-- Node16&#45;&gt;Node17 -->
<g id="edge28" class="edge">
<title>Node16&#45;&gt;Node17</title>
<path fill="none" stroke="#191970" d="M512.6689,-337.9281C515.9036,-337.1764 519.1753,-336.5076 522.3286,-336 805.0684,-290.4866 886.2887,-350.181 1171.8323,-299.8354"/>
<polygon fill="#191970" stroke="#191970" points="1172.852,-303.2085 1182.0769,-297.9977 1171.616,-296.3184 1172.852,-303.2085"/>
</g>
<!-- Node20 -->
<g id="node21" class="node">
<title>Node20</title>
<g id="a_node21"><a xlink:href="Sprite_8h.html" target="_top" xlink:title="Sprite.h">
<polygon fill="#ffffff" stroke="#000000" points="685.3286,-280.5 685.3286,-299.5 735.3286,-299.5 735.3286,-280.5 685.3286,-280.5"/>
<text text-anchor="middle" x="710.3286" y="-287.5" font-family="Helvetica,sans-Serif" font-size="10.00" fill="#000000">Sprite.h</text>
</a>
</g>
</g>
<!-- Node16&#45;&gt;Node20 -->
<g id="edge31" class="edge">
<title>Node16&#45;&gt;Node20</title>
<path fill="none" stroke="#191970" d="M512.3867,-338.6067C515.7318,-337.7164 519.1066,-336.8295 522.3286,-336 575.4221,-322.3318 637.205,-307.4008 675.034,-298.3687"/>
<polygon fill="#191970" stroke="#191970" points="676.1254,-301.7067 685.0414,-295.9836 674.5024,-294.8974 676.1254,-301.7067"/>
</g>
<!-- Node18 -->
<g id="node19" class="node">
<title>Node18</title>
<polygon fill="#ffffff" stroke="#bfbfbf" points="1245.3286,-224.5 1245.3286,-243.5 1299.3286,-243.5 1299.3286,-224.5 1245.3286,-224.5"/>
<text text-anchor="middle" x="1272.3286" y="-231.5" font-family="Helvetica,sans-Serif" font-size="10.00" fill="#000000">iostream</text>
</g>
<!-- Node17&#45;&gt;Node18 -->
<g id="edge29" class="edge">
<title>Node17&#45;&gt;Node18</title>
<path fill="none" stroke="#191970" d="M1216.9991,-280.2455C1226.8947,-271.9746 1241.2913,-259.9416 1252.9187,-250.2232"/>
<polygon fill="#191970" stroke="#191970" points="1255.3636,-252.7413 1260.7919,-243.6427 1250.8744,-247.3703 1255.3636,-252.7413"/>
</g>
<!-- Node19 -->
<g id="node20" class="node">
<title>Node19</title>
<polygon fill="#ffffff" stroke="#bfbfbf" points="1179.3286,-224.5 1179.3286,-243.5 1227.3286,-243.5 1227.3286,-224.5 1179.3286,-224.5"/>
<text text-anchor="middle" x="1203.3286" y="-231.5" font-family="Helvetica,sans-Serif" font-size="10.00" fill="#000000">stdlib.h</text>
</g>
<!-- Node17&#45;&gt;Node19 -->
<g id="edge30" class="edge">
<title>Node17&#45;&gt;Node19</title>
<path fill="none" stroke="#191970" d="M1204.9803,-280.2455C1204.7193,-272.9382 1204.3534,-262.6944 1204.0324,-253.7046"/>
<polygon fill="#191970" stroke="#191970" points="1207.5278,-253.5113 1203.673,-243.6427 1200.5323,-253.7613 1207.5278,-253.5113"/>
</g>
<!-- Node20&#45;&gt;Node8 -->
<g id="edge32" class="edge">
<title>Node20&#45;&gt;Node8</title>
<path fill="none" stroke="#191970" d="M728.2886,-280.3701C740.9611,-272.4681 756.9453,-259.9885 764.3286,-244 789.1044,-190.3483 731.9869,-168.7917 748.3286,-112 757.8036,-79.0722 781.3794,-46.498 797.1168,-27.3215"/>
<polygon fill="#191970" stroke="#191970" points="799.9425,-29.4 803.7171,-19.5003 794.5929,-24.8854 799.9425,-29.4"/>
</g>
<!-- Node20&#45;&gt;Node9 -->
<g id="edge38" class="edge">
<title>Node20&#45;&gt;Node9</title>
<path fill="none" stroke="#191970" d="M735.424,-280.6734C766.0857,-269.1137 814.7222,-250.1825 821.3286,-244 869.6872,-198.7446 895.0251,-121.1611 904.6588,-85.2625"/>
<polygon fill="#191970" stroke="#191970" points="908.0578,-86.0979 907.1524,-75.5418 901.2773,-84.3584 908.0578,-86.0979"/>
</g>
<!-- Node20&#45;&gt;Node11 -->
<g id="edge35" class="edge">
<title>Node20&#45;&gt;Node11</title>
<path fill="none" stroke="#191970" d="M698.5529,-280.3437C687.4848,-271.1802 670.5417,-256.9263 656.3286,-244 638.4219,-227.7144 618.6378,-208.3487 605.0486,-194.8221"/>
<polygon fill="#191970" stroke="#191970" points="607.3711,-192.1948 597.8244,-187.6 602.422,-197.1453 607.3711,-192.1948"/>
</g>
<!-- Node20&#45;&gt;Node14 -->
<g id="edge34" class="edge">
<title>Node20&#45;&gt;Node14</title>
<path fill="none" stroke="#191970" d="M685.1461,-280.4203C649.1474,-265.592 582.8584,-233.9203 542.3286,-188 515.1206,-157.1732 498.3939,-111.121 490.5887,-85.3132"/>
<polygon fill="#191970" stroke="#191970" points="493.9201,-84.2336 487.7853,-75.5956 487.1943,-86.1739 493.9201,-84.2336"/>
</g>
<!-- Node20&#45;&gt;Node15 -->
<g id="edge33" class="edge">
<title>Node20&#45;&gt;Node15</title>
<path fill="none" stroke="#191970" d="M684.9298,-284.5063C657.6154,-277.8284 613.6291,-264.8 580.3286,-244 509.3989,-199.6962 446.9121,-119.8863 421.0215,-84.1561"/>
<polygon fill="#191970" stroke="#191970" points="423.6365,-81.7952 414.9775,-75.6902 417.9394,-85.8626 423.6365,-81.7952"/>
</g>
<!-- Node21 -->
<g id="node22" class="node">
<title>Node21</title>
<g id="a_node22"><a xlink:href="Color_8h.html" target="_top" xlink:title="Color.h">
<polygon fill="#ffffff" stroke="#000000" points="757.3286,-112.5 757.3286,-131.5 805.3286,-131.5 805.3286,-112.5 757.3286,-112.5"/>
<text text-anchor="middle" x="781.3286" y="-119.5" font-family="Helvetica,sans-Serif" font-size="10.00" fill="#000000">Color.h</text>
</a>
</g>
</g>
<!-- Node20&#45;&gt;Node21 -->
<g id="edge36" class="edge">
<title>Node20&#45;&gt;Node21</title>
<path fill="none" stroke="#191970" d="M735.7168,-285.3262C758.1059,-279.7156 789.421,-267.8921 804.3286,-244 824.4739,-211.7137 805.8902,-165.9297 792.4173,-140.6247"/>
<polygon fill="#191970" stroke="#191970" points="795.3646,-138.7244 787.4247,-131.7095 789.2571,-142.1447 795.3646,-138.7244"/>
</g>
<!-- Node22 -->
<g id="node23" class="node">
<title>Node22</title>
<g id="a_node23"><a xlink:href="RectTransform_8h.html" target="_top" xlink:title="RectTransform.h">
<polygon fill="#ffffff" stroke="#000000" points="665.3286,-224.5 665.3286,-243.5 755.3286,-243.5 755.3286,-224.5 665.3286,-224.5"/>
<text text-anchor="middle" x="710.3286" y="-231.5" font-family="Helvetica,sans-Serif" font-size="10.00" fill="#000000">RectTransform.h</text>
</a>
</g>
</g>
<!-- Node20&#45;&gt;Node22 -->
<g id="edge39" class="edge">
<title>Node20&#45;&gt;Node22</title>
<path fill="none" stroke="#191970" d="M710.3286,-280.2455C710.3286,-272.9382 710.3286,-262.6944 710.3286,-253.7046"/>
<polygon fill="#191970" stroke="#191970" points="713.8287,-253.6426 710.3286,-243.6427 706.8287,-253.6427 713.8287,-253.6426"/>
</g>
<!-- Node24 -->
<g id="node25" class="node">
<title>Node24</title>
<g id="a_node25"><a xlink:href="InputManager_8h.html" target="_top" xlink:title="InputManager.h">
<polygon fill="#ffffff" stroke="#000000" points="1036.3286,-224.5 1036.3286,-243.5 1120.3286,-243.5 1120.3286,-224.5 1036.3286,-224.5"/>
<text text-anchor="middle" x="1078.3286" y="-231.5" font-family="Helvetica,sans-Serif" font-size="10.00" fill="#000000">InputManager.h</text>
</a>
</g>
</g>
<!-- Node20&#45;&gt;Node24 -->
<g id="edge46" class="edge">
<title>Node20&#45;&gt;Node24</title>
<path fill="none" stroke="#191970" d="M735.3335,-286.1949C794.8282,-277.1414 945.8235,-254.1638 1026.1726,-241.9368"/>
<polygon fill="#191970" stroke="#191970" points="1026.7221,-245.3935 1036.0818,-240.4289 1025.669,-238.4732 1026.7221,-245.3935"/>
</g>
<!-- Node21&#45;&gt;Node8 -->
<g id="edge37" class="edge">
<title>Node21&#45;&gt;Node8</title>
<path fill="none" stroke="#191970" d="M783.9717,-112.4509C789.0506,-94.1013 800.2633,-53.5908 806.9675,-29.3693"/>
<polygon fill="#191970" stroke="#191970" points="810.3978,-30.0962 809.6923,-19.5249 803.6515,-28.2289 810.3978,-30.0962"/>
</g>
<!-- Node22&#45;&gt;Node7 -->
<g id="edge45" class="edge">
<title>Node22&#45;&gt;Node7</title>
<path fill="none" stroke="#191970" d="M752.338,-224.4369C800.4872,-213.4761 878.4436,-195.7299 922.7414,-185.6459"/>
<polygon fill="#191970" stroke="#191970" points="923.74,-189.0082 932.7137,-183.3758 922.1862,-182.1828 923.74,-189.0082"/>
</g>
<!-- Node22&#45;&gt;Node9 -->
<g id="edge44" class="edge">
<title>Node22&#45;&gt;Node9</title>
<path fill="none" stroke="#191970" d="M721.5979,-224.4862C754.2127,-196.9521 848.9739,-116.9528 890.009,-82.31"/>
<polygon fill="#191970" stroke="#191970" points="892.3039,-84.9531 897.6873,-75.8279 887.7883,-79.6043 892.3039,-84.9531"/>
</g>
<!-- Node22&#45;&gt;Node11 -->
<g id="edge41" class="edge">
<title>Node22&#45;&gt;Node11</title>
<path fill="none" stroke="#191970" d="M689.3561,-224.3733C669.7719,-215.3838 640.3325,-201.8706 618.2777,-191.7471"/>
<polygon fill="#191970" stroke="#191970" points="619.5759,-188.4919 609.0275,-187.5011 616.6557,-194.8538 619.5759,-188.4919"/>
</g>
<!-- Node22&#45;&gt;Node12 -->
<g id="edge42" class="edge">
<title>Node22&#45;&gt;Node12</title>
<path fill="none" stroke="#191970" d="M718.2441,-224.083C727.5898,-211.1026 740.9565,-187.6874 733.3286,-168 719.1263,-131.3439 684.9383,-99.783 662.2096,-81.8389"/>
<polygon fill="#191970" stroke="#191970" points="664.1922,-78.9487 654.1252,-75.6461 659.9354,-84.5057 664.1922,-78.9487"/>
</g>
<!-- Node22&#45;&gt;Node13 -->
<g id="edge43" class="edge">
<title>Node22&#45;&gt;Node13</title>
<path fill="none" stroke="#191970" d="M700.027,-224.1391C685.9105,-210.8149 659.5408,-186.5914 635.3286,-168 621.0404,-157.0288 604.2357,-145.7932 590.7878,-137.1726"/>
<polygon fill="#191970" stroke="#191970" points="592.4064,-134.0547 582.0863,-131.6576 588.6591,-139.9672 592.4064,-134.0547"/>
</g>
<!-- Node23 -->
<g id="node24" class="node">
<title>Node23</title>
<polygon fill="#ffffff" stroke="#bfbfbf" points="682.8286,-168.5 682.8286,-187.5 723.8286,-187.5 723.8286,-168.5 682.8286,-168.5"/>
<text text-anchor="middle" x="703.3286" y="-175.5" font-family="Helvetica,sans-Serif" font-size="10.00" fill="#000000">cfloat</text>
</g>
<!-- Node22&#45;&gt;Node23 -->
<g id="edge40" class="edge">
<title>Node22&#45;&gt;Node23</title>
<path fill="none" stroke="#191970" d="M709.1093,-224.2455C708.1959,-216.9382 706.9154,-206.6944 705.7917,-197.7046"/>
<polygon fill="#191970" stroke="#191970" points="709.2474,-197.1313 704.534,-187.6427 702.3014,-197.9996 709.2474,-197.1313"/>
</g>
<!-- Node24&#45;&gt;Node7 -->
<g id="edge48" class="edge">
<title>Node24&#45;&gt;Node7</title>
<path fill="none" stroke="#191970" d="M1057.3561,-224.3733C1037.7719,-215.3838 1008.3325,-201.8706 986.2777,-191.7471"/>
<polygon fill="#191970" stroke="#191970" points="987.5759,-188.4919 977.0275,-187.5011 984.6557,-194.8538 987.5759,-188.4919"/>
</g>
<!-- Node24&#45;&gt;Node8 -->
<g id="edge47" class="edge">
<title>Node24&#45;&gt;Node8</title>
<path fill="none" stroke="#191970" d="M1066.0293,-224.1543C1055.3944,-215.3124 1039.9457,-201.6561 1028.3286,-188 982.8017,-134.4819 996.607,-99.3727 941.3286,-56 918.4565,-38.054 888.0056,-26.7572 862.4328,-19.8519"/>
<polygon fill="#191970" stroke="#191970" points="863.0906,-16.4077 852.5359,-17.3288 861.3614,-23.1908 863.0906,-16.4077"/>
</g>
<!-- Node25 -->
<g id="node26" class="node">
<title>Node25</title>
<polygon fill="#ffffff" stroke="#bfbfbf" points="1036.8286,-168.5 1036.8286,-187.5 1119.8286,-187.5 1119.8286,-168.5 1036.8286,-168.5"/>
<text text-anchor="middle" x="1078.3286" y="-175.5" font-family="Helvetica,sans-Serif" font-size="10.00" fill="#000000">unordered_map</text>
</g>
<!-- Node24&#45;&gt;Node25 -->
<g id="edge49" class="edge">
<title>Node24&#45;&gt;Node25</title>
<path fill="none" stroke="#191970" d="M1078.3286,-224.2455C1078.3286,-216.9382 1078.3286,-206.6944 1078.3286,-197.7046"/>
<polygon fill="#191970" stroke="#191970" points="1081.8287,-197.6426 1078.3286,-187.6427 1074.8287,-197.6427 1081.8287,-197.6426"/>
</g>
<!-- Node26 -->
<g id="node27" class="node">
<title>Node26</title>
<polygon fill="#ffffff" stroke="#bfbfbf" points="1138.3286,-168.5 1138.3286,-187.5 1184.3286,-187.5 1184.3286,-168.5 1138.3286,-168.5"/>
<text text-anchor="middle" x="1161.3286" y="-175.5" font-family="Helvetica,sans-Serif" font-size="10.00" fill="#000000">cstdint</text>
</g>
<!-- Node24&#45;&gt;Node26 -->
<g id="edge50" class="edge">
<title>Node24&#45;&gt;Node26</title>
<path fill="none" stroke="#191970" d="M1092.7861,-224.2455C1105.4019,-215.7337 1123.9231,-203.2375 1138.5332,-193.3801"/>
<polygon fill="#191970" stroke="#191970" points="1140.7047,-196.1371 1147.0368,-187.6427 1136.7896,-190.3343 1140.7047,-196.1371"/>
</g>
<!-- Node28&#45;&gt;Node7 -->
<g id="edge58" class="edge">
<title>Node28&#45;&gt;Node7</title>
<path fill="none" stroke="#191970" d="M590.0343,-337.8684C593.1579,-337.1678 596.2985,-336.5267 599.3286,-336 641.6582,-328.6415 955.397,-331.7632 984.3286,-300 1010.6553,-271.0968 986.151,-222.5654 969.2576,-196.268"/>
<polygon fill="#191970" stroke="#191970" points="971.9633,-194.0186 963.4863,-187.663 966.1497,-197.9177 971.9633,-194.0186"/>
</g>
<!-- Node28&#45;&gt;Node13 -->
<g id="edge57" class="edge">
<title>Node28&#45;&gt;Node13</title>
<path fill="none" stroke="#191970" d="M557.0449,-336.1911C548.4422,-309.038 526.9439,-230.747 542.3286,-168 544.7029,-158.3164 549.5108,-148.4071 554.2039,-140.2776"/>
<polygon fill="#191970" stroke="#191970" points="557.2405,-142.0214 559.5079,-131.672 551.2814,-138.3486 557.2405,-142.0214"/>
</g>
<!-- Node29 -->
<g id="node30" class="node">
<title>Node29</title>
<g id="a_node30"><a xlink:href="ActionManager_8h.html" target="_top" xlink:title="ActionManager.h">
<polygon fill="#ffffff" stroke="#000000" points="1074.3286,-280.5 1074.3286,-299.5 1164.3286,-299.5 1164.3286,-280.5 1074.3286,-280.5"/>
<text text-anchor="middle" x="1119.3286" y="-287.5" font-family="Helvetica,sans-Serif" font-size="10.00" fill="#000000">ActionManager.h</text>
</a>
</g>
</g>
<!-- Node28&#45;&gt;Node29 -->
<g id="edge59" class="edge">
<title>Node28&#45;&gt;Node29</title>
<path fill="none" stroke="#191970" d="M590.0262,-337.8207C593.1514,-337.1294 596.2946,-336.5036 599.3286,-336 802.068,-302.352 856.3665,-325.1969 1060.3286,-300 1061.6046,-299.8424 1062.8951,-299.6766 1064.1956,-299.5039"/>
<polygon fill="#191970" stroke="#191970" points="1064.8872,-302.9407 1074.292,-298.0623 1063.8977,-296.011 1064.8872,-302.9407"/>
</g>
<!-- Node29&#45;&gt;Node24 -->
<g id="edge60" class="edge">
<title>Node29&#45;&gt;Node24</title>
<path fill="none" stroke="#191970" d="M1112.187,-280.2455C1106.4842,-272.4564 1098.3387,-261.3308 1091.4662,-251.9439"/>
<polygon fill="#191970" stroke="#191970" points="1094.1199,-249.6437 1085.3885,-243.6427 1088.4719,-253.7789 1094.1199,-249.6437"/>
</g>
</g>
</svg>
