<?xml version="1.0" encoding="UTF-8" standalone="no"?>
<!DOCTYPE svg PUBLIC "-//W3C//DTD SVG 1.1//EN"
 "http://www.w3.org/Graphics/SVG/1.1/DTD/svg11.dtd">
<!-- Generated by graphviz version 2.38.0 (20140413.2041)
 -->
<!-- Title: include/Timer.h Pages: 1 -->
<svg width="424pt" height="196pt"
 viewBox="0.00 0.00 423.50 196.00" xmlns="http://www.w3.org/2000/svg" xmlns:xlink="http://www.w3.org/1999/xlink">
<g id="graph0" class="graph" transform="scale(1 1) rotate(0) translate(4 192)">
<title>include/Timer.h</title>
<polygon fill="white" stroke="none" points="-4,4 -4,-192 419.5,-192 419.5,4 -4,4"/>
<!-- Node1 -->
<g id="node1" class="node"><title>Node1</title>
<polygon fill="#bfbfbf" stroke="black" points="168.5,-168.5 168.5,-187.5 251.5,-187.5 251.5,-168.5 168.5,-168.5"/>
<text text-anchor="middle" x="210" y="-175.5" font-family="Helvetica,sans-Serif" font-size="10.00">include/Timer.h</text>
</g>
<!-- Node2 -->
<g id="node2" class="node"><title>Node2</title>
<g id="a_node2"><a xlink:href="Animation_8h.html" target="_top" xlink:title="include/Animation.h">
<polygon fill="white" stroke="black" points="0,-112.5 0,-131.5 102,-131.5 102,-112.5 0,-112.5"/>
<text text-anchor="middle" x="51" y="-119.5" font-family="Helvetica,sans-Serif" font-size="10.00">include/Animation.h</text>
</a>
</g>
</g>
<!-- Node1&#45;&gt;Node2 -->
<g id="edge1" class="edge"><title>Node1&#45;&gt;Node2</title>
<path fill="none" stroke="midnightblue" d="M175.173,-165.172C145.234,-155.004 102.779,-140.585 76.0762,-131.516"/>
<polygon fill="midnightblue" stroke="midnightblue" points="174.212,-168.542 184.806,-168.444 176.463,-161.914 174.212,-168.542"/>
</g>
<!-- Node4 -->
<g id="node4" class="node"><title>Node4</title>
<g id="a_node4"><a xlink:href="Text_8h.html" target="_top" xlink:title="include/Text.h">
<polygon fill="white" stroke="black" points="121,-112.5 121,-131.5 199,-131.5 199,-112.5 121,-112.5"/>
<text text-anchor="middle" x="160" y="-119.5" font-family="Helvetica,sans-Serif" font-size="10.00">include/Text.h</text>
</a>
</g>
</g>
<!-- Node1&#45;&gt;Node4 -->
<g id="edge3" class="edge"><title>Node1&#45;&gt;Node4</title>
<path fill="none" stroke="midnightblue" d="M194.924,-160.718C186.111,-151.2 175.334,-139.561 168.103,-131.751"/>
<polygon fill="midnightblue" stroke="midnightblue" points="192.381,-163.123 201.744,-168.083 197.518,-158.367 192.381,-163.123"/>
</g>
<!-- Node6 -->
<g id="node6" class="node"><title>Node6</title>
<g id="a_node6"><a xlink:href="UItext_8h.html" target="_top" xlink:title="include/UItext.h">
<polygon fill="white" stroke="black" points="217,-112.5 217,-131.5 303,-131.5 303,-112.5 217,-112.5"/>
<text text-anchor="middle" x="260" y="-119.5" font-family="Helvetica,sans-Serif" font-size="10.00">include/UItext.h</text>
</a>
</g>
</g>
<!-- Node1&#45;&gt;Node6 -->
<g id="edge5" class="edge"><title>Node1&#45;&gt;Node6</title>
<path fill="none" stroke="midnightblue" d="M225.076,-160.718C233.889,-151.2 244.666,-139.561 251.897,-131.751"/>
<polygon fill="midnightblue" stroke="midnightblue" points="222.482,-158.367 218.256,-168.083 227.619,-163.123 222.482,-158.367"/>
</g>
<!-- Node10 -->
<g id="node10" class="node"><title>Node10</title>
<g id="a_node10"><a xlink:href="Timer_8cpp.html" target="_top" xlink:title="src/Timer.cpp">
<polygon fill="white" stroke="black" points="321.5,-112.5 321.5,-131.5 398.5,-131.5 398.5,-112.5 321.5,-112.5"/>
<text text-anchor="middle" x="360" y="-119.5" font-family="Helvetica,sans-Serif" font-size="10.00">src/Timer.cpp</text>
</a>
</g>
</g>
<!-- Node1&#45;&gt;Node10 -->
<g id="edge9" class="edge"><title>Node1&#45;&gt;Node10</title>
<path fill="none" stroke="midnightblue" d="M243.225,-165.039C271.448,-154.879 311.262,-140.546 336.343,-131.516"/>
<polygon fill="midnightblue" stroke="midnightblue" points="241.991,-161.763 233.768,-168.444 244.362,-168.349 241.991,-161.763"/>
</g>
<!-- Node3 -->
<g id="node3" class="node"><title>Node3</title>
<g id="a_node3"><a xlink:href="Animation_8cpp.html" target="_top" xlink:title="src/Animation.cpp">
<polygon fill="white" stroke="black" points="1.5,-56.5 1.5,-75.5 96.5,-75.5 96.5,-56.5 1.5,-56.5"/>
<text text-anchor="middle" x="49" y="-63.5" font-family="Helvetica,sans-Serif" font-size="10.00">src/Animation.cpp</text>
</a>
</g>
</g>
<!-- Node2&#45;&gt;Node3 -->
<g id="edge2" class="edge"><title>Node2&#45;&gt;Node3</title>
<path fill="none" stroke="midnightblue" d="M50.2891,-101.805C49.9596,-92.9102 49.5844,-82.7798 49.3241,-75.7511"/>
<polygon fill="midnightblue" stroke="midnightblue" points="46.8019,-102.219 50.6697,-112.083 53.7971,-101.96 46.8019,-102.219"/>
</g>
<!-- Node5 -->
<g id="node5" class="node"><title>Node5</title>
<g id="a_node5"><a xlink:href="Text_8cpp.html" target="_top" xlink:title="src/Text.cpp">
<polygon fill="white" stroke="black" points="114.5,-56.5 114.5,-75.5 185.5,-75.5 185.5,-56.5 114.5,-56.5"/>
<text text-anchor="middle" x="150" y="-63.5" font-family="Helvetica,sans-Serif" font-size="10.00">src/Text.cpp</text>
</a>
</g>
</g>
<!-- Node4&#45;&gt;Node5 -->
<g id="edge4" class="edge"><title>Node4&#45;&gt;Node5</title>
<path fill="none" stroke="midnightblue" d="M156.5,-102.101C154.84,-93.1357 152.937,-82.8579 151.621,-75.7511"/>
<polygon fill="midnightblue" stroke="midnightblue" points="153.086,-102.888 158.349,-112.083 159.969,-101.613 153.086,-102.888"/>
</g>
<!-- Node7 -->
<g id="node7" class="node"><title>Node7</title>
<g id="a_node7"><a xlink:href="UItextButton_8h.html" target="_top" xlink:title="include/UItextButton.h">
<polygon fill="white" stroke="black" points="204,-56.5 204,-75.5 318,-75.5 318,-56.5 204,-56.5"/>
<text text-anchor="middle" x="261" y="-63.5" font-family="Helvetica,sans-Serif" font-size="10.00">include/UItextButton.h</text>
</a>
</g>
</g>
<!-- Node6&#45;&gt;Node7 -->
<g id="edge6" class="edge"><title>Node6&#45;&gt;Node7</title>
<path fill="none" stroke="midnightblue" d="M260.355,-101.805C260.52,-92.9102 260.708,-82.7798 260.838,-75.7511"/>
<polygon fill="midnightblue" stroke="midnightblue" points="256.851,-102.02 260.165,-112.083 263.85,-102.15 256.851,-102.02"/>
</g>
<!-- Node9 -->
<g id="node9" class="node"><title>Node9</title>
<g id="a_node9"><a xlink:href="UItext_8cpp.html" target="_top" xlink:title="src/UItext.cpp">
<polygon fill="white" stroke="black" points="336.5,-56.5 336.5,-75.5 415.5,-75.5 415.5,-56.5 336.5,-56.5"/>
<text text-anchor="middle" x="376" y="-63.5" font-family="Helvetica,sans-Serif" font-size="10.00">src/UItext.cpp</text>
</a>
</g>
</g>
<!-- Node6&#45;&gt;Node9 -->
<g id="edge8" class="edge"><title>Node6&#45;&gt;Node9</title>
<path fill="none" stroke="midnightblue" d="M287.72,-108.096C309.392,-98.0073 338.902,-84.2697 357.705,-75.5164"/>
<polygon fill="midnightblue" stroke="midnightblue" points="285.969,-105.05 278.381,-112.444 288.923,-111.396 285.969,-105.05"/>
</g>
<!-- Node8 -->
<g id="node8" class="node"><title>Node8</title>
<g id="a_node8"><a xlink:href="UItextButton_8cpp.html" target="_top" xlink:title="src/UItextButton.cpp">
<polygon fill="white" stroke="black" points="207.5,-0.5 207.5,-19.5 314.5,-19.5 314.5,-0.5 207.5,-0.5"/>
<text text-anchor="middle" x="261" y="-7.5" font-family="Helvetica,sans-Serif" font-size="10.00">src/UItextButton.cpp</text>
</a>
</g>
</g>
<!-- Node7&#45;&gt;Node8 -->
<g id="edge7" class="edge"><title>Node7&#45;&gt;Node8</title>
<path fill="none" stroke="midnightblue" d="M261,-45.8045C261,-36.9102 261,-26.7798 261,-19.7511"/>
<polygon fill="midnightblue" stroke="midnightblue" points="257.5,-46.083 261,-56.083 264.5,-46.083 257.5,-46.083"/>
</g>
</g>
</svg>
