<?xml version="1.0" encoding="UTF-8" standalone="no"?>
<!DOCTYPE svg PUBLIC "-//W3C//DTD SVG 1.1//EN"
 "http://www.w3.org/Graphics/SVG/1.1/DTD/svg11.dtd">
<!-- Generated by graphviz version 2.38.0 (20140413.2041)
 -->
<!-- Title: include/UIbutton.h Pages: 1 -->
<svg width="372pt" height="140pt"
 viewBox="0.00 0.00 371.50 140.00" xmlns="http://www.w3.org/2000/svg" xmlns:xlink="http://www.w3.org/1999/xlink">
<g id="graph0" class="graph" transform="scale(1 1) rotate(0) translate(4 136)">
<title>include/UIbutton.h</title>
<polygon fill="white" stroke="none" points="-4,4 -4,-136 367.5,-136 367.5,4 -4,4"/>
<!-- Node6 -->
<g id="node1" class="node"><title>Node6</title>
<polygon fill="#bfbfbf" stroke="black" points="151,-112.5 151,-131.5 247,-131.5 247,-112.5 151,-112.5"/>
<text text-anchor="middle" x="199" y="-119.5" font-family="Helvetica,sans-Serif" font-size="10.00">include/UIbutton.h</text>
</g>
<!-- Node7 -->
<g id="node2" class="node"><title>Node7</title>
<g id="a_node2"><a xlink:href="UIimageButton_8h.html" target="_top" xlink:title="include/UIimageButton.h">
<polygon fill="white" stroke="black" points="0,-56.5 0,-75.5 124,-75.5 124,-56.5 0,-56.5"/>
<text text-anchor="middle" x="62" y="-63.5" font-family="Helvetica,sans-Serif" font-size="10.00">include/UIimageButton.h</text>
</a>
</g>
</g>
<!-- Node6&#45;&gt;Node7 -->
<g id="edge1" class="edge"><title>Node6&#45;&gt;Node7</title>
<path fill="none" stroke="midnightblue" d="M167.977,-108.772C142.243,-98.6287 106.314,-84.4669 83.6065,-75.5164"/>
<polygon fill="midnightblue" stroke="midnightblue" points="166.705,-112.033 177.292,-112.444 169.272,-105.52 166.705,-112.033"/>
</g>
<!-- Node9 -->
<g id="node4" class="node"><title>Node9</title>
<g id="a_node4"><a xlink:href="UItextButton_8h.html" target="_top" xlink:title="include/UItextButton.h">
<polygon fill="white" stroke="black" points="142,-56.5 142,-75.5 256,-75.5 256,-56.5 142,-56.5"/>
<text text-anchor="middle" x="199" y="-63.5" font-family="Helvetica,sans-Serif" font-size="10.00">include/UItextButton.h</text>
</a>
</g>
</g>
<!-- Node6&#45;&gt;Node9 -->
<g id="edge3" class="edge"><title>Node6&#45;&gt;Node9</title>
<path fill="none" stroke="midnightblue" d="M199,-101.805C199,-92.9102 199,-82.7798 199,-75.7511"/>
<polygon fill="midnightblue" stroke="midnightblue" points="195.5,-102.083 199,-112.083 202.5,-102.083 195.5,-102.083"/>
</g>
<!-- Node11 -->
<g id="node6" class="node"><title>Node11</title>
<g id="a_node6"><a xlink:href="UIbutton_8cpp.html" target="_top" xlink:title="src/UIbutton.cpp">
<polygon fill="white" stroke="black" points="274.5,-56.5 274.5,-75.5 363.5,-75.5 363.5,-56.5 274.5,-56.5"/>
<text text-anchor="middle" x="319" y="-63.5" font-family="Helvetica,sans-Serif" font-size="10.00">src/UIbutton.cpp</text>
</a>
</g>
</g>
<!-- Node6&#45;&gt;Node11 -->
<g id="edge5" class="edge"><title>Node6&#45;&gt;Node11</title>
<path fill="none" stroke="midnightblue" d="M227.373,-108.232C249.82,-98.1312 280.535,-84.3091 300.075,-75.5164"/>
<polygon fill="midnightblue" stroke="midnightblue" points="225.697,-105.148 218.014,-112.444 228.57,-111.532 225.697,-105.148"/>
</g>
<!-- Node8 -->
<g id="node3" class="node"><title>Node8</title>
<g id="a_node3"><a xlink:href="UIimageButton_8cpp.html" target="_top" xlink:title="src/UIimageButton.cpp">
<polygon fill="white" stroke="black" points="3.5,-0.5 3.5,-19.5 120.5,-19.5 120.5,-0.5 3.5,-0.5"/>
<text text-anchor="middle" x="62" y="-7.5" font-family="Helvetica,sans-Serif" font-size="10.00">src/UIimageButton.cpp</text>
</a>
</g>
</g>
<!-- Node7&#45;&gt;Node8 -->
<g id="edge2" class="edge"><title>Node7&#45;&gt;Node8</title>
<path fill="none" stroke="midnightblue" d="M62,-45.8045C62,-36.9102 62,-26.7798 62,-19.7511"/>
<polygon fill="midnightblue" stroke="midnightblue" points="58.5001,-46.083 62,-56.083 65.5001,-46.083 58.5001,-46.083"/>
</g>
<!-- Node10 -->
<g id="node5" class="node"><title>Node10</title>
<g id="a_node5"><a xlink:href="UItextButton_8cpp.html" target="_top" xlink:title="src/UItextButton.cpp">
<polygon fill="white" stroke="black" points="145.5,-0.5 145.5,-19.5 252.5,-19.5 252.5,-0.5 145.5,-0.5"/>
<text text-anchor="middle" x="199" y="-7.5" font-family="Helvetica,sans-Serif" font-size="10.00">src/UItextButton.cpp</text>
</a>
</g>
</g>
<!-- Node9&#45;&gt;Node10 -->
<g id="edge4" class="edge"><title>Node9&#45;&gt;Node10</title>
<path fill="none" stroke="midnightblue" d="M199,-45.8045C199,-36.9102 199,-26.7798 199,-19.7511"/>
<polygon fill="midnightblue" stroke="midnightblue" points="195.5,-46.083 199,-56.083 202.5,-46.083 195.5,-46.083"/>
</g>
</g>
</svg>
