<?xml version="1.0" encoding="UTF-8" standalone="no"?>
<!DOCTYPE svg PUBLIC "-//W3C//DTD SVG 1.1//EN"
 "http://www.w3.org/Graphics/SVG/1.1/DTD/svg11.dtd">
<!-- Generated by graphviz version 2.38.0 (20140413.2041)
 -->
<!-- Title: include/UIcanvas.h Pages: 1 -->
<svg width="532pt" height="140pt"
 viewBox="0.00 0.00 531.50 140.00" xmlns="http://www.w3.org/2000/svg" xmlns:xlink="http://www.w3.org/1999/xlink">
<g id="graph0" class="graph" transform="scale(1 1) rotate(0) translate(4 136)">
<title>include/UIcanvas.h</title>
<polygon fill="white" stroke="none" points="-4,4 -4,-136 527.5,-136 527.5,4 -4,4"/>
<!-- Node13 -->
<g id="node1" class="node"><title>Node13</title>
<polygon fill="#bfbfbf" stroke="black" points="222,-112.5 222,-131.5 323,-131.5 323,-112.5 222,-112.5"/>
<text text-anchor="middle" x="272.5" y="-119.5" font-family="Helvetica,sans-Serif" font-size="10.00">include/UIcanvas.h</text>
</g>
<!-- Node14 -->
<g id="node2" class="node"><title>Node14</title>
<g id="a_node2"><a xlink:href="UIgridGroup_8h.html" target="_top" xlink:title="include/UIgridGroup.h">
<polygon fill="white" stroke="black" points="0,-56.5 0,-75.5 111,-75.5 111,-56.5 0,-56.5"/>
<text text-anchor="middle" x="55.5" y="-63.5" font-family="Helvetica,sans-Serif" font-size="10.00">include/UIgridGroup.h</text>
</a>
</g>
</g>
<!-- Node13&#45;&gt;Node14 -->
<g id="edge1" class="edge"><title>Node13&#45;&gt;Node14</title>
<path fill="none" stroke="midnightblue" d="M228.392,-110.024C187.4,-99.8232 127.196,-84.8414 89.7234,-75.5164"/>
<polygon fill="midnightblue" stroke="midnightblue" points="227.566,-113.425 238.116,-112.444 229.257,-106.632 227.566,-113.425"/>
</g>
<!-- Node16 -->
<g id="node4" class="node"><title>Node16</title>
<g id="a_node4"><a xlink:href="UIhorizontalGroup_8h.html" target="_top" xlink:title="include/UIhorizontalGroup.h">
<polygon fill="white" stroke="black" points="129,-56.5 129,-75.5 266,-75.5 266,-56.5 129,-56.5"/>
<text text-anchor="middle" x="197.5" y="-63.5" font-family="Helvetica,sans-Serif" font-size="10.00">include/UIhorizontalGroup.h</text>
</a>
</g>
</g>
<!-- Node13&#45;&gt;Node16 -->
<g id="edge3" class="edge"><title>Node13&#45;&gt;Node16</title>
<path fill="none" stroke="midnightblue" d="M252.195,-106.38C238.639,-96.6204 221.258,-84.1057 209.769,-75.8339"/>
<polygon fill="midnightblue" stroke="midnightblue" points="250.29,-109.321 260.45,-112.324 254.38,-103.641 250.29,-109.321"/>
</g>
<!-- Node18 -->
<g id="node6" class="node"><title>Node18</title>
<g id="a_node6"><a xlink:href="UIverticalGroup_8h.html" target="_top" xlink:title="include/UIverticalGroup.h">
<polygon fill="white" stroke="black" points="284,-56.5 284,-75.5 411,-75.5 411,-56.5 284,-56.5"/>
<text text-anchor="middle" x="347.5" y="-63.5" font-family="Helvetica,sans-Serif" font-size="10.00">include/UIverticalGroup.h</text>
</a>
</g>
</g>
<!-- Node13&#45;&gt;Node18 -->
<g id="edge5" class="edge"><title>Node13&#45;&gt;Node18</title>
<path fill="none" stroke="midnightblue" d="M292.805,-106.38C306.361,-96.6204 323.742,-84.1057 335.231,-75.8339"/>
<polygon fill="midnightblue" stroke="midnightblue" points="290.62,-103.641 284.55,-112.324 294.71,-109.321 290.62,-103.641"/>
</g>
<!-- Node20 -->
<g id="node8" class="node"><title>Node20</title>
<g id="a_node8"><a xlink:href="UIcanvas_8cpp.html" target="_top" xlink:title="src/UIcanvas.cpp">
<polygon fill="white" stroke="black" points="429.5,-56.5 429.5,-75.5 523.5,-75.5 523.5,-56.5 429.5,-56.5"/>
<text text-anchor="middle" x="476.5" y="-63.5" font-family="Helvetica,sans-Serif" font-size="10.00">src/UIcanvas.cpp</text>
</a>
</g>
</g>
<!-- Node13&#45;&gt;Node20 -->
<g id="edge7" class="edge"><title>Node13&#45;&gt;Node20</title>
<path fill="none" stroke="midnightblue" d="M314.701,-109.829C353.218,-99.6333 409.322,-84.7823 444.327,-75.5164"/>
<polygon fill="midnightblue" stroke="midnightblue" points="313.596,-106.501 304.824,-112.444 315.387,-113.268 313.596,-106.501"/>
</g>
<!-- Node15 -->
<g id="node3" class="node"><title>Node15</title>
<g id="a_node3"><a xlink:href="UIgridGroup_8cpp.html" target="_top" xlink:title="src/UIgridGroup.cpp">
<polygon fill="white" stroke="black" points="3.5,-0.5 3.5,-19.5 107.5,-19.5 107.5,-0.5 3.5,-0.5"/>
<text text-anchor="middle" x="55.5" y="-7.5" font-family="Helvetica,sans-Serif" font-size="10.00">src/UIgridGroup.cpp</text>
</a>
</g>
</g>
<!-- Node14&#45;&gt;Node15 -->
<g id="edge2" class="edge"><title>Node14&#45;&gt;Node15</title>
<path fill="none" stroke="midnightblue" d="M55.5,-45.8045C55.5,-36.9102 55.5,-26.7798 55.5,-19.7511"/>
<polygon fill="midnightblue" stroke="midnightblue" points="52.0001,-46.083 55.5,-56.083 59.0001,-46.083 52.0001,-46.083"/>
</g>
<!-- Node17 -->
<g id="node5" class="node"><title>Node17</title>
<g id="a_node5"><a xlink:href="UIhorizontalGroup_8cpp.html" target="_top" xlink:title="src/UIhorizontalGroup.cpp">
<polygon fill="white" stroke="black" points="132,-0.5 132,-19.5 263,-19.5 263,-0.5 132,-0.5"/>
<text text-anchor="middle" x="197.5" y="-7.5" font-family="Helvetica,sans-Serif" font-size="10.00">src/UIhorizontalGroup.cpp</text>
</a>
</g>
</g>
<!-- Node16&#45;&gt;Node17 -->
<g id="edge4" class="edge"><title>Node16&#45;&gt;Node17</title>
<path fill="none" stroke="midnightblue" d="M197.5,-45.8045C197.5,-36.9102 197.5,-26.7798 197.5,-19.7511"/>
<polygon fill="midnightblue" stroke="midnightblue" points="194,-46.083 197.5,-56.083 201,-46.083 194,-46.083"/>
</g>
<!-- Node19 -->
<g id="node7" class="node"><title>Node19</title>
<g id="a_node7"><a xlink:href="UIverticalGroup_8cpp.html" target="_top" xlink:title="src/UIverticalGroup.cpp">
<polygon fill="white" stroke="black" points="287.5,-0.5 287.5,-19.5 407.5,-19.5 407.5,-0.5 287.5,-0.5"/>
<text text-anchor="middle" x="347.5" y="-7.5" font-family="Helvetica,sans-Serif" font-size="10.00">src/UIverticalGroup.cpp</text>
</a>
</g>
</g>
<!-- Node18&#45;&gt;Node19 -->
<g id="edge6" class="edge"><title>Node18&#45;&gt;Node19</title>
<path fill="none" stroke="midnightblue" d="M347.5,-45.8045C347.5,-36.9102 347.5,-26.7798 347.5,-19.7511"/>
<polygon fill="midnightblue" stroke="midnightblue" points="344,-46.083 347.5,-56.083 351,-46.083 344,-46.083"/>
</g>
</g>
</svg>
