<?xml version="1.0" encoding="UTF-8" standalone="no"?>
<!DOCTYPE svg PUBLIC "-//W3C//DTD SVG 1.1//EN"
 "http://www.w3.org/Graphics/SVG/1.1/DTD/svg11.dtd">
<!-- Generated by graphviz version 2.38.0 (20140413.2041)
 -->
<!-- Title: src/UIcanvas.cpp Pages: 1 -->
<svg width="480pt" height="364pt"
 viewBox="0.00 0.00 479.50 364.00" xmlns="http://www.w3.org/2000/svg" xmlns:xlink="http://www.w3.org/1999/xlink">
<g id="graph0" class="graph" transform="scale(1 1) rotate(0) translate(4 360)">
<title>src/UIcanvas.cpp</title>
<polygon fill="white" stroke="none" points="-4,4 -4,-360 475.5,-360 475.5,4 -4,4"/>
<!-- Node0 -->
<g id="node1" class="node"><title>Node0</title>
<polygon fill="#bfbfbf" stroke="black" points="65,-336.5 65,-355.5 159,-355.5 159,-336.5 65,-336.5"/>
<text text-anchor="middle" x="112" y="-343.5" font-family="Helvetica,sans-Serif" font-size="10.00">src/UIcanvas.cpp</text>
</g>
<!-- Node1 -->
<g id="node2" class="node"><title>Node1</title>
<g id="a_node2"><a xlink:href="UIcanvas_8h.html" target="_top" xlink:title="UIcanvas.h">
<polygon fill="white" stroke="black" points="78.5,-280.5 78.5,-299.5 145.5,-299.5 145.5,-280.5 78.5,-280.5"/>
<text text-anchor="middle" x="112" y="-287.5" font-family="Helvetica,sans-Serif" font-size="10.00">UIcanvas.h</text>
</a>
</g>
</g>
<!-- Node0&#45;&gt;Node1 -->
<g id="edge1" class="edge"><title>Node0&#45;&gt;Node1</title>
<path fill="none" stroke="midnightblue" d="M112,-336.083C112,-329.006 112,-318.861 112,-309.986"/>
<polygon fill="midnightblue" stroke="midnightblue" points="115.5,-309.751 112,-299.751 108.5,-309.751 115.5,-309.751"/>
</g>
<!-- Node2 -->
<g id="node3" class="node"><title>Node2</title>
<g id="a_node3"><a xlink:href="UIelement_8h.html" target="_top" xlink:title="UIelement.h">
<polygon fill="white" stroke="black" points="115,-224.5 115,-243.5 185,-243.5 185,-224.5 115,-224.5"/>
<text text-anchor="middle" x="150" y="-231.5" font-family="Helvetica,sans-Serif" font-size="10.00">UIelement.h</text>
</a>
</g>
</g>
<!-- Node1&#45;&gt;Node2 -->
<g id="edge2" class="edge"><title>Node1&#45;&gt;Node2</title>
<path fill="none" stroke="midnightblue" d="M118.275,-280.083C123.642,-272.455 131.518,-261.264 138.079,-251.941"/>
<polygon fill="midnightblue" stroke="midnightblue" points="140.949,-253.943 143.842,-243.751 135.225,-249.915 140.949,-253.943"/>
</g>
<!-- Node5 -->
<g id="node6" class="node"><title>Node5</title>
<polygon fill="white" stroke="#bfbfbf" points="388.5,-112.5 388.5,-131.5 429.5,-131.5 429.5,-112.5 388.5,-112.5"/>
<text text-anchor="middle" x="409" y="-119.5" font-family="Helvetica,sans-Serif" font-size="10.00">string</text>
</g>
<!-- Node1&#45;&gt;Node5 -->
<g id="edge24" class="edge"><title>Node1&#45;&gt;Node5</title>
<path fill="none" stroke="midnightblue" d="M127.742,-280.413C144.266,-271.387 170.992,-256.755 194,-244 263.413,-205.519 344.982,-159.351 384.744,-136.785"/>
<polygon fill="midnightblue" stroke="midnightblue" points="386.951,-139.557 393.919,-131.575 383.495,-133.469 386.951,-139.557"/>
</g>
<!-- Node8 -->
<g id="node9" class="node"><title>Node8</title>
<g id="a_node9"><a xlink:href="Rect_8h.html" target="_top" xlink:title="Rect.h">
<polygon fill="white" stroke="black" points="0,-112.5 0,-131.5 46,-131.5 46,-112.5 0,-112.5"/>
<text text-anchor="middle" x="23" y="-119.5" font-family="Helvetica,sans-Serif" font-size="10.00">Rect.h</text>
</a>
</g>
</g>
<!-- Node1&#45;&gt;Node8 -->
<g id="edge22" class="edge"><title>Node1&#45;&gt;Node8</title>
<path fill="none" stroke="midnightblue" d="M98.1289,-280.284C86.3765,-272.221 69.9009,-259.208 60,-244 38.9015,-211.592 29.3238,-166.538 25.3991,-141.555"/>
<polygon fill="midnightblue" stroke="midnightblue" points="28.8566,-141.008 23.9726,-131.606 21.9274,-142.002 28.8566,-141.008"/>
</g>
<!-- Node9 -->
<g id="node10" class="node"><title>Node9</title>
<g id="a_node10"><a xlink:href="Vec2_8h.html" target="_top" xlink:title="Vec2.h">
<polygon fill="white" stroke="black" points="88.5,-56.5 88.5,-75.5 135.5,-75.5 135.5,-56.5 88.5,-56.5"/>
<text text-anchor="middle" x="112" y="-63.5" font-family="Helvetica,sans-Serif" font-size="10.00">Vec2.h</text>
</a>
</g>
</g>
<!-- Node1&#45;&gt;Node9 -->
<g id="edge23" class="edge"><title>Node1&#45;&gt;Node9</title>
<path fill="none" stroke="midnightblue" d="M110.509,-280.407C109.024,-271.376 106.846,-256.74 106,-244 102.192,-186.62 107.151,-118.607 110.099,-86.1244"/>
<polygon fill="midnightblue" stroke="midnightblue" points="113.613,-86.1364 111.074,-75.8504 106.645,-85.4748 113.613,-86.1364"/>
</g>
<!-- Node3 -->
<g id="node4" class="node"><title>Node3</title>
<g id="a_node4"><a xlink:href="Sprite_8h.html" target="_top" xlink:title="Sprite.h">
<polygon fill="white" stroke="black" points="179,-168.5 179,-187.5 229,-187.5 229,-168.5 179,-168.5"/>
<text text-anchor="middle" x="204" y="-175.5" font-family="Helvetica,sans-Serif" font-size="10.00">Sprite.h</text>
</a>
</g>
</g>
<!-- Node2&#45;&gt;Node3 -->
<g id="edge3" class="edge"><title>Node2&#45;&gt;Node3</title>
<path fill="none" stroke="midnightblue" d="M158.917,-224.083C166.78,-216.22 178.431,-204.569 187.919,-195.081"/>
<polygon fill="midnightblue" stroke="midnightblue" points="190.653,-197.297 195.249,-187.751 185.703,-192.347 190.653,-197.297"/>
</g>
<!-- Node2&#45;&gt;Node5 -->
<g id="edge21" class="edge"><title>Node2&#45;&gt;Node5</title>
<path fill="none" stroke="midnightblue" d="M170.323,-224.368C215.903,-205.01 326.439,-158.065 379.551,-135.507"/>
<polygon fill="midnightblue" stroke="midnightblue" points="380.935,-138.722 388.771,-131.591 378.199,-132.279 380.935,-138.722"/>
</g>
<!-- Node2&#45;&gt;Node8 -->
<g id="edge19" class="edge"><title>Node2&#45;&gt;Node8</title>
<path fill="none" stroke="midnightblue" d="M140.035,-224.368C118.612,-205.814 67.9268,-161.913 40.8234,-138.438"/>
<polygon fill="midnightblue" stroke="midnightblue" points="42.7695,-135.493 32.9192,-131.591 38.1866,-140.784 42.7695,-135.493"/>
</g>
<!-- Node2&#45;&gt;Node9 -->
<g id="edge20" class="edge"><title>Node2&#45;&gt;Node9</title>
<path fill="none" stroke="midnightblue" d="M147.957,-224.075C141.975,-197.945 124.41,-121.211 116.253,-85.577"/>
<polygon fill="midnightblue" stroke="midnightblue" points="119.605,-84.5349 113.961,-75.5681 112.781,-86.097 119.605,-84.5349"/>
</g>
<!-- Node4 -->
<g id="node5" class="node"><title>Node4</title>
<g id="a_node5"><a xlink:href="SDL__include_8h.html" target="_top" xlink:title="SDL_include.h">
<polygon fill="white" stroke="black" points="138,-0.5 138,-19.5 218,-19.5 218,-0.5 138,-0.5"/>
<text text-anchor="middle" x="178" y="-7.5" font-family="Helvetica,sans-Serif" font-size="10.00">SDL_include.h</text>
</a>
</g>
</g>
<!-- Node3&#45;&gt;Node4 -->
<g id="edge4" class="edge"><title>Node3&#45;&gt;Node4</title>
<path fill="none" stroke="midnightblue" d="M213.556,-168.45C222.088,-160.12 233.989,-146.604 239,-132 241.885,-123.592 241.042,-120.651 239,-112 231.199,-78.955 207.928,-46.3609 192.49,-27.4865"/>
<polygon fill="midnightblue" stroke="midnightblue" points="194.962,-24.9885 185.837,-19.6041 189.612,-29.5034 194.962,-24.9885"/>
</g>
<!-- Node3&#45;&gt;Node5 -->
<g id="edge5" class="edge"><title>Node3&#45;&gt;Node5</title>
<path fill="none" stroke="midnightblue" d="M229.006,-170.902C261.248,-162.968 319.271,-148.448 378.479,-132.059"/>
<polygon fill="midnightblue" stroke="midnightblue" points="379.679,-135.358 388.374,-129.305 377.802,-128.614 379.679,-135.358"/>
</g>
<!-- Node6 -->
<g id="node7" class="node"><title>Node6</title>
<polygon fill="white" stroke="#bfbfbf" points="178,-112.5 178,-131.5 230,-131.5 230,-112.5 178,-112.5"/>
<text text-anchor="middle" x="204" y="-119.5" font-family="Helvetica,sans-Serif" font-size="10.00">memory</text>
</g>
<!-- Node3&#45;&gt;Node6 -->
<g id="edge6" class="edge"><title>Node3&#45;&gt;Node6</title>
<path fill="none" stroke="midnightblue" d="M204,-168.083C204,-161.006 204,-150.861 204,-141.986"/>
<polygon fill="midnightblue" stroke="midnightblue" points="207.5,-141.751 204,-131.751 200.5,-141.751 207.5,-141.751"/>
</g>
<!-- Node7 -->
<g id="node8" class="node"><title>Node7</title>
<g id="a_node8"><a xlink:href="Color_8h.html" target="_top" xlink:title="Color.h">
<polygon fill="white" stroke="black" points="154,-56.5 154,-75.5 202,-75.5 202,-56.5 154,-56.5"/>
<text text-anchor="middle" x="178" y="-63.5" font-family="Helvetica,sans-Serif" font-size="10.00">Color.h</text>
</a>
</g>
</g>
<!-- Node3&#45;&gt;Node7 -->
<g id="edge7" class="edge"><title>Node3&#45;&gt;Node7</title>
<path fill="none" stroke="midnightblue" d="M194.444,-168.45C185.912,-160.12 174.011,-146.604 169,-132 163.801,-116.847 167.029,-98.7276 170.995,-85.4736"/>
<polygon fill="midnightblue" stroke="midnightblue" points="174.428,-86.2508 174.332,-75.6564 167.8,-83.9984 174.428,-86.2508"/>
</g>
<!-- Node3&#45;&gt;Node8 -->
<g id="edge9" class="edge"><title>Node3&#45;&gt;Node8</title>
<path fill="none" stroke="midnightblue" d="M178.833,-169.492C146.829,-159.943 91.4834,-143.432 56.0906,-132.872"/>
<polygon fill="midnightblue" stroke="midnightblue" points="56.8176,-129.437 46.2343,-129.932 54.8163,-136.145 56.8176,-129.437"/>
</g>
<!-- Node11 -->
<g id="node12" class="node"><title>Node11</title>
<g id="a_node12"><a xlink:href="InputManager_8h.html" target="_top" xlink:title="InputManager.h">
<polygon fill="white" stroke="black" points="286,-112.5 286,-131.5 370,-131.5 370,-112.5 286,-112.5"/>
<text text-anchor="middle" x="328" y="-119.5" font-family="Helvetica,sans-Serif" font-size="10.00">InputManager.h</text>
</a>
</g>
</g>
<!-- Node3&#45;&gt;Node11 -->
<g id="edge14" class="edge"><title>Node3&#45;&gt;Node11</title>
<path fill="none" stroke="midnightblue" d="M223.648,-168.444C243.965,-159.596 275.903,-145.687 299.098,-135.586"/>
<polygon fill="midnightblue" stroke="midnightblue" points="300.673,-138.718 308.444,-131.516 297.878,-132.3 300.673,-138.718"/>
</g>
<!-- Node7&#45;&gt;Node4 -->
<g id="edge8" class="edge"><title>Node7&#45;&gt;Node4</title>
<path fill="none" stroke="midnightblue" d="M178,-56.083C178,-49.0059 178,-38.8611 178,-29.9865"/>
<polygon fill="midnightblue" stroke="midnightblue" points="181.5,-29.751 178,-19.7511 174.5,-29.7511 181.5,-29.751"/>
</g>
<!-- Node8&#45;&gt;Node4 -->
<g id="edge10" class="edge"><title>Node8&#45;&gt;Node4</title>
<path fill="none" stroke="midnightblue" d="M18.8519,-112.409C13.0094,-98.9229 4.3951,-72.6111 17,-56 30.4523,-38.2722 85.5631,-25.6355 127.594,-18.3519"/>
<polygon fill="midnightblue" stroke="midnightblue" points="128.41,-21.7642 137.694,-16.6596 127.253,-14.8604 128.41,-21.7642"/>
</g>
<!-- Node8&#45;&gt;Node9 -->
<g id="edge11" class="edge"><title>Node8&#45;&gt;Node9</title>
<path fill="none" stroke="midnightblue" d="M37.2994,-112.324C51.1829,-103.9 72.4924,-90.9709 88.8037,-81.0741"/>
<polygon fill="midnightblue" stroke="midnightblue" points="91.0022,-83.8341 97.7361,-75.6545 87.3711,-77.8495 91.0022,-83.8341"/>
</g>
<!-- Node10 -->
<g id="node11" class="node"><title>Node10</title>
<polygon fill="white" stroke="#bfbfbf" points="26,-56.5 26,-75.5 70,-75.5 70,-56.5 26,-56.5"/>
<text text-anchor="middle" x="48" y="-63.5" font-family="Helvetica,sans-Serif" font-size="10.00">cmath</text>
</g>
<!-- Node8&#45;&gt;Node10 -->
<g id="edge13" class="edge"><title>Node8&#45;&gt;Node10</title>
<path fill="none" stroke="midnightblue" d="M27.1282,-112.083C30.5139,-104.77 35.416,-94.1814 39.6188,-85.1034"/>
<polygon fill="midnightblue" stroke="midnightblue" points="42.9234,-86.2962 43.9486,-75.7511 36.5711,-83.3553 42.9234,-86.2962"/>
</g>
<!-- Node9&#45;&gt;Node4 -->
<g id="edge12" class="edge"><title>Node9&#45;&gt;Node4</title>
<path fill="none" stroke="midnightblue" d="M122.604,-56.324C132.456,-48.2631 147.351,-36.0765 159.215,-26.3695"/>
<polygon fill="midnightblue" stroke="midnightblue" points="161.68,-28.8752 167.203,-19.8339 157.247,-23.4575 161.68,-28.8752"/>
</g>
<!-- Node11&#45;&gt;Node4 -->
<g id="edge15" class="edge"><title>Node11&#45;&gt;Node4</title>
<path fill="none" stroke="midnightblue" d="M322.368,-112.419C313.174,-98.9465 293.767,-72.6532 272,-56 253.889,-42.1445 230.828,-31.0248 212.08,-23.3053"/>
<polygon fill="midnightblue" stroke="midnightblue" points="213.304,-20.0254 202.718,-19.582 210.717,-26.5299 213.304,-20.0254"/>
</g>
<!-- Node11&#45;&gt;Node9 -->
<g id="edge16" class="edge"><title>Node11&#45;&gt;Node9</title>
<path fill="none" stroke="midnightblue" d="M292.166,-112.47C257.244,-104.095 202.401,-90.7773 145.641,-76.1175"/>
<polygon fill="midnightblue" stroke="midnightblue" points="146.332,-72.6812 135.774,-73.5605 144.576,-79.4573 146.332,-72.6812"/>
</g>
<!-- Node12 -->
<g id="node13" class="node"><title>Node12</title>
<polygon fill="white" stroke="#bfbfbf" points="388.5,-56.5 388.5,-75.5 471.5,-75.5 471.5,-56.5 388.5,-56.5"/>
<text text-anchor="middle" x="430" y="-63.5" font-family="Helvetica,sans-Serif" font-size="10.00">unordered_map</text>
</g>
<!-- Node11&#45;&gt;Node12 -->
<g id="edge17" class="edge"><title>Node11&#45;&gt;Node12</title>
<path fill="none" stroke="midnightblue" d="M344.388,-112.324C360.671,-103.703 385.867,-90.3643 404.716,-80.3855"/>
<polygon fill="midnightblue" stroke="midnightblue" points="406.452,-83.4267 413.653,-75.6545 403.177,-77.2402 406.452,-83.4267"/>
</g>
<!-- Node13 -->
<g id="node14" class="node"><title>Node13</title>
<polygon fill="white" stroke="#bfbfbf" points="324,-56.5 324,-75.5 370,-75.5 370,-56.5 324,-56.5"/>
<text text-anchor="middle" x="347" y="-63.5" font-family="Helvetica,sans-Serif" font-size="10.00">cstdint</text>
</g>
<!-- Node11&#45;&gt;Node13 -->
<g id="edge18" class="edge"><title>Node11&#45;&gt;Node13</title>
<path fill="none" stroke="midnightblue" d="M331.137,-112.083C333.683,-104.849 337.356,-94.4087 340.527,-85.3968"/>
<polygon fill="midnightblue" stroke="midnightblue" points="343.903,-86.3459 343.921,-75.7511 337.3,-84.0225 343.903,-86.3459"/>
</g>
</g>
</svg>
