<?xml version="1.0" encoding="UTF-8" standalone="no"?>
<!DOCTYPE svg PUBLIC "-//W3C//DTD SVG 1.1//EN"
 "http://www.w3.org/Graphics/SVG/1.1/DTD/svg11.dtd">
<!-- Generated by graphviz version 2.38.0 (20140413.2041)
 -->
<!-- Title: include/UIelement.h Pages: 1 -->
<svg width="1012pt" height="196pt"
 viewBox="0.00 0.00 1012.00 196.00" xmlns="http://www.w3.org/2000/svg" xmlns:xlink="http://www.w3.org/1999/xlink">
<g id="graph0" class="graph" transform="scale(1 1) rotate(0) translate(4 192)">
<title>include/UIelement.h</title>
<polygon fill="white" stroke="none" points="-4,4 -4,-192 1008,-192 1008,4 -4,4"/>
<!-- Node12 -->
<g id="node1" class="node"><title>Node12</title>
<polygon fill="#bfbfbf" stroke="black" points="408.5,-168.5 408.5,-187.5 512.5,-187.5 512.5,-168.5 408.5,-168.5"/>
<text text-anchor="middle" x="460.5" y="-175.5" font-family="Helvetica,sans-Serif" font-size="10.00">include/UIelement.h</text>
</g>
<!-- Node13 -->
<g id="node2" class="node"><title>Node13</title>
<g id="a_node2"><a xlink:href="UIcanvas_8h.html" target="_top" xlink:title="include/UIcanvas.h">
<polygon fill="white" stroke="black" points="281,-112.5 281,-131.5 382,-131.5 382,-112.5 281,-112.5"/>
<text text-anchor="middle" x="331.5" y="-119.5" font-family="Helvetica,sans-Serif" font-size="10.00">include/UIcanvas.h</text>
</a>
</g>
</g>
<!-- Node12&#45;&gt;Node13 -->
<g id="edge1" class="edge"><title>Node12&#45;&gt;Node13</title>
<path fill="none" stroke="midnightblue" d="M430.646,-164.503C406.462,-154.38 373.038,-140.388 351.845,-131.516"/>
<polygon fill="midnightblue" stroke="midnightblue" points="429.484,-167.811 440.06,-168.444 432.187,-161.354 429.484,-167.811"/>
</g>
<!-- Node14 -->
<g id="node3" class="node"><title>Node14</title>
<g id="a_node3"><a xlink:href="UIgridGroup_8h.html" target="_top" xlink:title="include/UIgridGroup.h">
<polygon fill="white" stroke="black" points="0,-56.5 0,-75.5 111,-75.5 111,-56.5 0,-56.5"/>
<text text-anchor="middle" x="55.5" y="-63.5" font-family="Helvetica,sans-Serif" font-size="10.00">include/UIgridGroup.h</text>
</a>
</g>
</g>
<!-- Node12&#45;&gt;Node14 -->
<g id="edge9" class="edge"><title>Node12&#45;&gt;Node14</title>
<path fill="none" stroke="midnightblue" d="M398.553,-166.865C353.716,-158.944 291.873,-146.808 238.5,-132 178.722,-115.415 110.337,-89.0916 76.5986,-75.5968"/>
<polygon fill="midnightblue" stroke="midnightblue" points="397.97,-170.316 408.423,-168.589 399.175,-163.42 397.97,-170.316"/>
</g>
<!-- Node16 -->
<g id="node5" class="node"><title>Node16</title>
<g id="a_node5"><a xlink:href="UIhorizontalGroup_8h.html" target="_top" xlink:title="include/UIhorizontalGroup.h">
<polygon fill="white" stroke="black" points="129,-56.5 129,-75.5 266,-75.5 266,-56.5 129,-56.5"/>
<text text-anchor="middle" x="197.5" y="-63.5" font-family="Helvetica,sans-Serif" font-size="10.00">include/UIhorizontalGroup.h</text>
</a>
</g>
</g>
<!-- Node12&#45;&gt;Node16 -->
<g id="edge10" class="edge"><title>Node12&#45;&gt;Node16</title>
<path fill="none" stroke="midnightblue" d="M398.427,-169.975C360.201,-163.808 311.105,-152.48 271.5,-132 243.249,-117.391 216.986,-89.6976 204.736,-75.6451"/>
<polygon fill="midnightblue" stroke="midnightblue" points="397.985,-173.448 408.4,-171.508 399.048,-166.529 397.985,-173.448"/>
</g>
<!-- Node18 -->
<g id="node7" class="node"><title>Node18</title>
<g id="a_node7"><a xlink:href="UIverticalGroup_8h.html" target="_top" xlink:title="include/UIverticalGroup.h">
<polygon fill="white" stroke="black" points="397,-56.5 397,-75.5 524,-75.5 524,-56.5 397,-56.5"/>
<text text-anchor="middle" x="460.5" y="-63.5" font-family="Helvetica,sans-Serif" font-size="10.00">include/UIverticalGroup.h</text>
</a>
</g>
</g>
<!-- Node12&#45;&gt;Node18 -->
<g id="edge19" class="edge"><title>Node12&#45;&gt;Node18</title>
<path fill="none" stroke="midnightblue" d="M460.5,-158.348C460.5,-134.254 460.5,-93.3079 460.5,-75.5914"/>
<polygon fill="midnightblue" stroke="midnightblue" points="457,-158.368 460.5,-168.368 464,-158.369 457,-158.368"/>
</g>
<!-- Node21 -->
<g id="node10" class="node"><title>Node21</title>
<g id="a_node10"><a xlink:href="UIimage_8h.html" target="_top" xlink:title="include/UIimage.h">
<polygon fill="white" stroke="black" points="557,-112.5 557,-131.5 652,-131.5 652,-112.5 557,-112.5"/>
<text text-anchor="middle" x="604.5" y="-119.5" font-family="Helvetica,sans-Serif" font-size="10.00">include/UIimage.h</text>
</a>
</g>
</g>
<!-- Node12&#45;&gt;Node21 -->
<g id="edge11" class="edge"><title>Node12&#45;&gt;Node21</title>
<path fill="none" stroke="midnightblue" d="M492.751,-164.906C519.824,-154.754 557.817,-140.506 581.79,-131.516"/>
<polygon fill="midnightblue" stroke="midnightblue" points="491.452,-161.655 483.317,-168.444 493.909,-168.209 491.452,-161.655"/>
</g>
<!-- Node25 -->
<g id="node14" class="node"><title>Node25</title>
<g id="a_node14"><a xlink:href="UItext_8h.html" target="_top" xlink:title="include/UItext.h">
<polygon fill="white" stroke="black" points="738.5,-112.5 738.5,-131.5 824.5,-131.5 824.5,-112.5 738.5,-112.5"/>
<text text-anchor="middle" x="781.5" y="-119.5" font-family="Helvetica,sans-Serif" font-size="10.00">include/UItext.h</text>
</a>
</g>
</g>
<!-- Node12&#45;&gt;Node25 -->
<g id="edge15" class="edge"><title>Node12&#45;&gt;Node25</title>
<path fill="none" stroke="midnightblue" d="M521.606,-166.72C584.91,-156.071 682.234,-139.699 738.081,-130.304"/>
<polygon fill="midnightblue" stroke="midnightblue" points="520.644,-163.333 511.363,-168.444 521.805,-170.236 520.644,-163.333"/>
</g>
<!-- Node29 -->
<g id="node18" class="node"><title>Node29</title>
<g id="a_node18"><a xlink:href="UIelement_8cpp.html" target="_top" xlink:title="src/UIelement.cpp">
<polygon fill="white" stroke="black" points="843,-112.5 843,-131.5 940,-131.5 940,-112.5 843,-112.5"/>
<text text-anchor="middle" x="891.5" y="-119.5" font-family="Helvetica,sans-Serif" font-size="10.00">src/UIelement.cpp</text>
</a>
</g>
</g>
<!-- Node12&#45;&gt;Node29 -->
<g id="edge20" class="edge"><title>Node12&#45;&gt;Node29</title>
<path fill="none" stroke="midnightblue" d="M522.871,-170.129C597.009,-161.811 724.423,-147.038 833.5,-132 836.528,-131.582 839.643,-131.139 842.783,-130.682"/>
<polygon fill="midnightblue" stroke="midnightblue" points="522.32,-166.669 512.771,-171.259 523.099,-173.625 522.32,-166.669"/>
</g>
<!-- Node13&#45;&gt;Node14 -->
<g id="edge2" class="edge"><title>Node13&#45;&gt;Node14</title>
<path fill="none" stroke="midnightblue" d="M277.697,-110.473C225.536,-100.268 147.395,-84.9794 99.0284,-75.5164"/>
<polygon fill="midnightblue" stroke="midnightblue" points="277.281,-113.958 287.767,-112.444 278.625,-107.088 277.281,-113.958"/>
</g>
<!-- Node13&#45;&gt;Node16 -->
<g id="edge4" class="edge"><title>Node13&#45;&gt;Node16</title>
<path fill="none" stroke="midnightblue" d="M300.823,-108.638C275.677,-98.504 240.746,-84.4274 218.633,-75.5164"/>
<polygon fill="midnightblue" stroke="midnightblue" points="299.684,-111.952 310.267,-112.444 302.3,-105.459 299.684,-111.952"/>
</g>
<!-- Node13&#45;&gt;Node18 -->
<g id="edge6" class="edge"><title>Node13&#45;&gt;Node18</title>
<path fill="none" stroke="midnightblue" d="M361.354,-108.503C385.538,-98.3795 418.962,-84.388 440.155,-75.5164"/>
<polygon fill="midnightblue" stroke="midnightblue" points="359.813,-105.354 351.94,-112.444 362.516,-111.811 359.813,-105.354"/>
</g>
<!-- Node20 -->
<g id="node9" class="node"><title>Node20</title>
<g id="a_node9"><a xlink:href="UIcanvas_8cpp.html" target="_top" xlink:title="src/UIcanvas.cpp">
<polygon fill="white" stroke="black" points="284.5,-56.5 284.5,-75.5 378.5,-75.5 378.5,-56.5 284.5,-56.5"/>
<text text-anchor="middle" x="331.5" y="-63.5" font-family="Helvetica,sans-Serif" font-size="10.00">src/UIcanvas.cpp</text>
</a>
</g>
</g>
<!-- Node13&#45;&gt;Node20 -->
<g id="edge8" class="edge"><title>Node13&#45;&gt;Node20</title>
<path fill="none" stroke="midnightblue" d="M331.5,-101.805C331.5,-92.9102 331.5,-82.7798 331.5,-75.7511"/>
<polygon fill="midnightblue" stroke="midnightblue" points="328,-102.083 331.5,-112.083 335,-102.083 328,-102.083"/>
</g>
<!-- Node15 -->
<g id="node4" class="node"><title>Node15</title>
<g id="a_node4"><a xlink:href="UIgridGroup_8cpp.html" target="_top" xlink:title="src/UIgridGroup.cpp">
<polygon fill="white" stroke="black" points="3.5,-0.5 3.5,-19.5 107.5,-19.5 107.5,-0.5 3.5,-0.5"/>
<text text-anchor="middle" x="55.5" y="-7.5" font-family="Helvetica,sans-Serif" font-size="10.00">src/UIgridGroup.cpp</text>
</a>
</g>
</g>
<!-- Node14&#45;&gt;Node15 -->
<g id="edge3" class="edge"><title>Node14&#45;&gt;Node15</title>
<path fill="none" stroke="midnightblue" d="M55.5,-45.8045C55.5,-36.9102 55.5,-26.7798 55.5,-19.7511"/>
<polygon fill="midnightblue" stroke="midnightblue" points="52.0001,-46.083 55.5,-56.083 59.0001,-46.083 52.0001,-46.083"/>
</g>
<!-- Node17 -->
<g id="node6" class="node"><title>Node17</title>
<g id="a_node6"><a xlink:href="UIhorizontalGroup_8cpp.html" target="_top" xlink:title="src/UIhorizontalGroup.cpp">
<polygon fill="white" stroke="black" points="132,-0.5 132,-19.5 263,-19.5 263,-0.5 132,-0.5"/>
<text text-anchor="middle" x="197.5" y="-7.5" font-family="Helvetica,sans-Serif" font-size="10.00">src/UIhorizontalGroup.cpp</text>
</a>
</g>
</g>
<!-- Node16&#45;&gt;Node17 -->
<g id="edge5" class="edge"><title>Node16&#45;&gt;Node17</title>
<path fill="none" stroke="midnightblue" d="M197.5,-45.8045C197.5,-36.9102 197.5,-26.7798 197.5,-19.7511"/>
<polygon fill="midnightblue" stroke="midnightblue" points="194,-46.083 197.5,-56.083 201,-46.083 194,-46.083"/>
</g>
<!-- Node19 -->
<g id="node8" class="node"><title>Node19</title>
<g id="a_node8"><a xlink:href="UIverticalGroup_8cpp.html" target="_top" xlink:title="src/UIverticalGroup.cpp">
<polygon fill="white" stroke="black" points="400.5,-0.5 400.5,-19.5 520.5,-19.5 520.5,-0.5 400.5,-0.5"/>
<text text-anchor="middle" x="460.5" y="-7.5" font-family="Helvetica,sans-Serif" font-size="10.00">src/UIverticalGroup.cpp</text>
</a>
</g>
</g>
<!-- Node18&#45;&gt;Node19 -->
<g id="edge7" class="edge"><title>Node18&#45;&gt;Node19</title>
<path fill="none" stroke="midnightblue" d="M460.5,-45.8045C460.5,-36.9102 460.5,-26.7798 460.5,-19.7511"/>
<polygon fill="midnightblue" stroke="midnightblue" points="457,-46.083 460.5,-56.083 464,-46.083 457,-46.083"/>
</g>
<!-- Node22 -->
<g id="node11" class="node"><title>Node22</title>
<g id="a_node11"><a xlink:href="UIimageButton_8h.html" target="_top" xlink:title="include/UIimageButton.h">
<polygon fill="white" stroke="black" points="542.5,-56.5 542.5,-75.5 666.5,-75.5 666.5,-56.5 542.5,-56.5"/>
<text text-anchor="middle" x="604.5" y="-63.5" font-family="Helvetica,sans-Serif" font-size="10.00">include/UIimageButton.h</text>
</a>
</g>
</g>
<!-- Node21&#45;&gt;Node22 -->
<g id="edge12" class="edge"><title>Node21&#45;&gt;Node22</title>
<path fill="none" stroke="midnightblue" d="M604.5,-101.805C604.5,-92.9102 604.5,-82.7798 604.5,-75.7511"/>
<polygon fill="midnightblue" stroke="midnightblue" points="601,-102.083 604.5,-112.083 608,-102.083 601,-102.083"/>
</g>
<!-- Node24 -->
<g id="node13" class="node"><title>Node24</title>
<g id="a_node13"><a xlink:href="UIimage_8cpp.html" target="_top" xlink:title="src/UIimage.cpp">
<polygon fill="white" stroke="black" points="685,-56.5 685,-75.5 774,-75.5 774,-56.5 685,-56.5"/>
<text text-anchor="middle" x="729.5" y="-63.5" font-family="Helvetica,sans-Serif" font-size="10.00">src/UIimage.cpp</text>
</a>
</g>
</g>
<!-- Node21&#45;&gt;Node24 -->
<g id="edge14" class="edge"><title>Node21&#45;&gt;Node24</title>
<path fill="none" stroke="midnightblue" d="M633.741,-108.368C657.15,-98.2553 689.341,-84.3486 709.786,-75.5164"/>
<polygon fill="midnightblue" stroke="midnightblue" points="632.099,-105.265 624.307,-112.444 634.875,-111.691 632.099,-105.265"/>
</g>
<!-- Node23 -->
<g id="node12" class="node"><title>Node23</title>
<g id="a_node12"><a xlink:href="UIimageButton_8cpp.html" target="_top" xlink:title="src/UIimageButton.cpp">
<polygon fill="white" stroke="black" points="546,-0.5 546,-19.5 663,-19.5 663,-0.5 546,-0.5"/>
<text text-anchor="middle" x="604.5" y="-7.5" font-family="Helvetica,sans-Serif" font-size="10.00">src/UIimageButton.cpp</text>
</a>
</g>
</g>
<!-- Node22&#45;&gt;Node23 -->
<g id="edge13" class="edge"><title>Node22&#45;&gt;Node23</title>
<path fill="none" stroke="midnightblue" d="M604.5,-45.8045C604.5,-36.9102 604.5,-26.7798 604.5,-19.7511"/>
<polygon fill="midnightblue" stroke="midnightblue" points="601,-46.083 604.5,-56.083 608,-46.083 601,-46.083"/>
</g>
<!-- Node26 -->
<g id="node15" class="node"><title>Node26</title>
<g id="a_node15"><a xlink:href="UItextButton_8h.html" target="_top" xlink:title="include/UItextButton.h">
<polygon fill="white" stroke="black" points="792.5,-56.5 792.5,-75.5 906.5,-75.5 906.5,-56.5 792.5,-56.5"/>
<text text-anchor="middle" x="849.5" y="-63.5" font-family="Helvetica,sans-Serif" font-size="10.00">include/UItextButton.h</text>
</a>
</g>
</g>
<!-- Node25&#45;&gt;Node26 -->
<g id="edge16" class="edge"><title>Node25&#45;&gt;Node26</title>
<path fill="none" stroke="midnightblue" d="M800.262,-106.101C812.5,-96.3824 828.059,-84.0269 838.376,-75.8339"/>
<polygon fill="midnightblue" stroke="midnightblue" points="798.08,-103.364 792.425,-112.324 802.433,-108.846 798.08,-103.364"/>
</g>
<!-- Node28 -->
<g id="node17" class="node"><title>Node28</title>
<g id="a_node17"><a xlink:href="UItext_8cpp.html" target="_top" xlink:title="src/UItext.cpp">
<polygon fill="white" stroke="black" points="925,-56.5 925,-75.5 1004,-75.5 1004,-56.5 925,-56.5"/>
<text text-anchor="middle" x="964.5" y="-63.5" font-family="Helvetica,sans-Serif" font-size="10.00">src/UItext.cpp</text>
</a>
</g>
</g>
<!-- Node25&#45;&gt;Node28 -->
<g id="edge18" class="edge"><title>Node25&#45;&gt;Node28</title>
<path fill="none" stroke="midnightblue" d="M820.243,-109.568C854.765,-99.381 904.505,-84.7034 935.639,-75.5164"/>
<polygon fill="midnightblue" stroke="midnightblue" points="819.097,-106.256 810.497,-112.444 821.079,-112.97 819.097,-106.256"/>
</g>
<!-- Node27 -->
<g id="node16" class="node"><title>Node27</title>
<g id="a_node16"><a xlink:href="UItextButton_8cpp.html" target="_top" xlink:title="src/UItextButton.cpp">
<polygon fill="white" stroke="black" points="796,-0.5 796,-19.5 903,-19.5 903,-0.5 796,-0.5"/>
<text text-anchor="middle" x="849.5" y="-7.5" font-family="Helvetica,sans-Serif" font-size="10.00">src/UItextButton.cpp</text>
</a>
</g>
</g>
<!-- Node26&#45;&gt;Node27 -->
<g id="edge17" class="edge"><title>Node26&#45;&gt;Node27</title>
<path fill="none" stroke="midnightblue" d="M849.5,-45.8045C849.5,-36.9102 849.5,-26.7798 849.5,-19.7511"/>
<polygon fill="midnightblue" stroke="midnightblue" points="846,-46.083 849.5,-56.083 853,-46.083 846,-46.083"/>
</g>
</g>
</svg>
