<?xml version="1.0" encoding="UTF-8" standalone="no"?>
<!DOCTYPE svg PUBLIC "-//W3C//DTD SVG 1.1//EN"
 "http://www.w3.org/Graphics/SVG/1.1/DTD/svg11.dtd">
<!-- Generated by graphviz version 2.38.0 (20140413.2041)
 -->
<!-- Title: src/UIelement.cpp Pages: 1 -->
<svg width="886pt" height="364pt"
 viewBox="0.00 0.00 886.00 364.00" xmlns="http://www.w3.org/2000/svg" xmlns:xlink="http://www.w3.org/1999/xlink">
<g id="graph0" class="graph" transform="scale(1 1) rotate(0) translate(4 360)">
<title>src/UIelement.cpp</title>
<polygon fill="white" stroke="none" points="-4,4 -4,-360 882,-360 882,4 -4,4"/>
<!-- Node0 -->
<g id="node1" class="node"><title>Node0</title>
<polygon fill="#bfbfbf" stroke="black" points="656.5,-336.5 656.5,-355.5 753.5,-355.5 753.5,-336.5 656.5,-336.5"/>
<text text-anchor="middle" x="705" y="-343.5" font-family="Helvetica,sans-Serif" font-size="10.00">src/UIelement.cpp</text>
</g>
<!-- Node1 -->
<g id="node2" class="node"><title>Node1</title>
<g id="a_node2"><a xlink:href="UIelement_8h.html" target="_top" xlink:title="UIelement.h">
<polygon fill="white" stroke="black" points="670,-224.5 670,-243.5 740,-243.5 740,-224.5 670,-224.5"/>
<text text-anchor="middle" x="705" y="-231.5" font-family="Helvetica,sans-Serif" font-size="10.00">UIelement.h</text>
</a>
</g>
</g>
<!-- Node0&#45;&gt;Node1 -->
<g id="edge1" class="edge"><title>Node0&#45;&gt;Node1</title>
<path fill="none" stroke="midnightblue" d="M705,-336.368C705,-318.617 705,-277.666 705,-253.597"/>
<polygon fill="midnightblue" stroke="midnightblue" points="708.5,-253.591 705,-243.591 701.5,-253.591 708.5,-253.591"/>
</g>
<!-- Node13 -->
<g id="node14" class="node"><title>Node13</title>
<g id="a_node14"><a xlink:href="Game_8h.html" target="_top" xlink:title="Game.h">
<polygon fill="white" stroke="black" points="262.5,-280.5 262.5,-299.5 313.5,-299.5 313.5,-280.5 262.5,-280.5"/>
<text text-anchor="middle" x="288" y="-287.5" font-family="Helvetica,sans-Serif" font-size="10.00">Game.h</text>
</a>
</g>
</g>
<!-- Node0&#45;&gt;Node13 -->
<g id="edge21" class="edge"><title>Node0&#45;&gt;Node13</title>
<path fill="none" stroke="midnightblue" d="M656.349,-338.7C571.573,-327.722 398.683,-305.333 323.85,-295.642"/>
<polygon fill="midnightblue" stroke="midnightblue" points="323.91,-292.121 313.543,-294.308 323.011,-299.063 323.91,-292.121"/>
</g>
<!-- Node21 -->
<g id="node22" class="node"><title>Node21</title>
<g id="a_node22"><a xlink:href="Error_8h.html" target="_top" xlink:title="Error.h">
<polygon fill="white" stroke="black" points="759,-280.5 759,-299.5 805,-299.5 805,-280.5 759,-280.5"/>
<text text-anchor="middle" x="782" y="-287.5" font-family="Helvetica,sans-Serif" font-size="10.00">Error.h</text>
</a>
</g>
</g>
<!-- Node0&#45;&gt;Node21 -->
<g id="edge46" class="edge"><title>Node0&#45;&gt;Node21</title>
<path fill="none" stroke="midnightblue" d="M717.371,-336.324C729.158,-328.058 747.132,-315.453 761.136,-305.632"/>
<polygon fill="midnightblue" stroke="midnightblue" points="763.482,-308.262 769.659,-299.655 759.462,-302.531 763.482,-308.262"/>
</g>
<!-- Node2 -->
<g id="node3" class="node"><title>Node2</title>
<g id="a_node3"><a xlink:href="Sprite_8h.html" target="_top" xlink:title="Sprite.h">
<polygon fill="white" stroke="black" points="558,-168.5 558,-187.5 608,-187.5 608,-168.5 558,-168.5"/>
<text text-anchor="middle" x="583" y="-175.5" font-family="Helvetica,sans-Serif" font-size="10.00">Sprite.h</text>
</a>
</g>
</g>
<!-- Node1&#45;&gt;Node2 -->
<g id="edge2" class="edge"><title>Node1&#45;&gt;Node2</title>
<path fill="none" stroke="midnightblue" d="M685.669,-224.444C665.68,-215.596 634.257,-201.687 611.436,-191.586"/>
<polygon fill="midnightblue" stroke="midnightblue" points="612.802,-188.363 602.241,-187.516 609.968,-194.764 612.802,-188.363"/>
</g>
<!-- Node4 -->
<g id="node5" class="node"><title>Node4</title>
<polygon fill="white" stroke="#bfbfbf" points="509.5,-112.5 509.5,-131.5 550.5,-131.5 550.5,-112.5 509.5,-112.5"/>
<text text-anchor="middle" x="530" y="-119.5" font-family="Helvetica,sans-Serif" font-size="10.00">string</text>
</g>
<!-- Node1&#45;&gt;Node4 -->
<g id="edge20" class="edge"><title>Node1&#45;&gt;Node4</title>
<path fill="none" stroke="midnightblue" d="M669.777,-232.242C634.561,-229.573 581.147,-220.033 549,-188 536.909,-175.951 532.421,-156.662 530.801,-142.221"/>
<polygon fill="midnightblue" stroke="midnightblue" points="534.266,-141.619 530.027,-131.909 527.286,-142.143 534.266,-141.619"/>
</g>
<!-- Node7 -->
<g id="node8" class="node"><title>Node7</title>
<g id="a_node8"><a xlink:href="Rect_8h.html" target="_top" xlink:title="Rect.h">
<polygon fill="white" stroke="black" points="721,-112.5 721,-131.5 767,-131.5 767,-112.5 721,-112.5"/>
<text text-anchor="middle" x="744" y="-119.5" font-family="Helvetica,sans-Serif" font-size="10.00">Rect.h</text>
</a>
</g>
</g>
<!-- Node1&#45;&gt;Node7 -->
<g id="edge18" class="edge"><title>Node1&#45;&gt;Node7</title>
<path fill="none" stroke="midnightblue" d="M708.06,-224.368C714.382,-206.537 729.004,-165.295 737.522,-141.272"/>
<polygon fill="midnightblue" stroke="midnightblue" points="740.911,-142.186 740.954,-131.591 734.313,-139.847 740.911,-142.186"/>
</g>
<!-- Node8 -->
<g id="node9" class="node"><title>Node8</title>
<g id="a_node9"><a xlink:href="Vec2_8h.html" target="_top" xlink:title="Vec2.h">
<polygon fill="white" stroke="black" points="645.5,-56.5 645.5,-75.5 692.5,-75.5 692.5,-56.5 645.5,-56.5"/>
<text text-anchor="middle" x="669" y="-63.5" font-family="Helvetica,sans-Serif" font-size="10.00">Vec2.h</text>
</a>
</g>
</g>
<!-- Node1&#45;&gt;Node8 -->
<g id="edge19" class="edge"><title>Node1&#45;&gt;Node8</title>
<path fill="none" stroke="midnightblue" d="M703.064,-224.075C697.398,-197.945 680.757,-121.211 673.029,-85.577"/>
<polygon fill="midnightblue" stroke="midnightblue" points="676.398,-84.5991 670.858,-75.5681 669.557,-86.0828 676.398,-84.5991"/>
</g>
<!-- Node3 -->
<g id="node4" class="node"><title>Node3</title>
<g id="a_node4"><a xlink:href="SDL__include_8h.html" target="_top" xlink:title="SDL_include.h">
<polygon fill="white" stroke="black" points="412,-0.5 412,-19.5 492,-19.5 492,-0.5 412,-0.5"/>
<text text-anchor="middle" x="452" y="-7.5" font-family="Helvetica,sans-Serif" font-size="10.00">SDL_include.h</text>
</a>
</g>
</g>
<!-- Node2&#45;&gt;Node3 -->
<g id="edge3" class="edge"><title>Node2&#45;&gt;Node3</title>
<path fill="none" stroke="midnightblue" d="M586.644,-168.354C595.029,-146.96 613.117,-90.7671 588,-56 568.504,-29.0129 532.209,-17.945 502.015,-13.5268"/>
<polygon fill="midnightblue" stroke="midnightblue" points="502.402,-10.0479 492.043,-12.27 501.527,-16.993 502.402,-10.0479"/>
</g>
<!-- Node2&#45;&gt;Node4 -->
<g id="edge4" class="edge"><title>Node2&#45;&gt;Node4</title>
<path fill="none" stroke="midnightblue" d="M574.248,-168.083C566.53,-160.22 555.095,-148.569 545.783,-139.081"/>
<polygon fill="midnightblue" stroke="midnightblue" points="548.092,-136.436 538.589,-131.751 543.096,-141.34 548.092,-136.436"/>
</g>
<!-- Node5 -->
<g id="node6" class="node"><title>Node5</title>
<polygon fill="white" stroke="#bfbfbf" points="270,-112.5 270,-131.5 322,-131.5 322,-112.5 270,-112.5"/>
<text text-anchor="middle" x="296" y="-119.5" font-family="Helvetica,sans-Serif" font-size="10.00">memory</text>
</g>
<!-- Node2&#45;&gt;Node5 -->
<g id="edge5" class="edge"><title>Node2&#45;&gt;Node5</title>
<path fill="none" stroke="midnightblue" d="M557.782,-172.255C506.813,-162.665 391.374,-140.945 332.303,-129.831"/>
<polygon fill="midnightblue" stroke="midnightblue" points="332.773,-126.358 322.298,-127.948 331.479,-133.237 332.773,-126.358"/>
</g>
<!-- Node6 -->
<g id="node7" class="node"><title>Node6</title>
<g id="a_node7"><a xlink:href="Color_8h.html" target="_top" xlink:title="Color.h">
<polygon fill="white" stroke="black" points="531,-56.5 531,-75.5 579,-75.5 579,-56.5 531,-56.5"/>
<text text-anchor="middle" x="555" y="-63.5" font-family="Helvetica,sans-Serif" font-size="10.00">Color.h</text>
</a>
</g>
</g>
<!-- Node2&#45;&gt;Node6 -->
<g id="edge6" class="edge"><title>Node2&#45;&gt;Node6</title>
<path fill="none" stroke="midnightblue" d="M580.803,-168.368C576.284,-150.617 565.861,-109.666 559.734,-85.5974"/>
<polygon fill="midnightblue" stroke="midnightblue" points="563.046,-84.419 557.187,-75.5914 556.262,-86.1458 563.046,-84.419"/>
</g>
<!-- Node2&#45;&gt;Node7 -->
<g id="edge8" class="edge"><title>Node2&#45;&gt;Node7</title>
<path fill="none" stroke="midnightblue" d="M608.156,-168.562C635.887,-159.262 680.6,-144.264 711.095,-134.036"/>
<polygon fill="midnightblue" stroke="midnightblue" points="712.479,-137.264 720.847,-130.766 710.253,-130.627 712.479,-137.264"/>
</g>
<!-- Node10 -->
<g id="node11" class="node"><title>Node10</title>
<g id="a_node11"><a xlink:href="InputManager_8h.html" target="_top" xlink:title="InputManager.h">
<polygon fill="white" stroke="black" points="30,-112.5 30,-131.5 114,-131.5 114,-112.5 30,-112.5"/>
<text text-anchor="middle" x="72" y="-119.5" font-family="Helvetica,sans-Serif" font-size="10.00">InputManager.h</text>
</a>
</g>
</g>
<!-- Node2&#45;&gt;Node10 -->
<g id="edge13" class="edge"><title>Node2&#45;&gt;Node10</title>
<path fill="none" stroke="midnightblue" d="M557.659,-174.322C478.159,-165.921 232.537,-139.965 124.223,-128.519"/>
<polygon fill="midnightblue" stroke="midnightblue" points="124.492,-125.028 114.18,-127.457 123.756,-131.989 124.492,-125.028"/>
</g>
<!-- Node6&#45;&gt;Node3 -->
<g id="edge7" class="edge"><title>Node6&#45;&gt;Node3</title>
<path fill="none" stroke="midnightblue" d="M538.451,-56.324C522.008,-47.7034 496.565,-34.3643 477.532,-24.3855"/>
<polygon fill="midnightblue" stroke="midnightblue" points="478.989,-21.198 468.508,-19.6545 475.739,-27.3977 478.989,-21.198"/>
</g>
<!-- Node7&#45;&gt;Node3 -->
<g id="edge9" class="edge"><title>Node7&#45;&gt;Node3</title>
<path fill="none" stroke="midnightblue" d="M751.231,-112.364C761.668,-98.8162 778.223,-72.4215 764,-56 730.782,-17.6468 581.999,-11.2447 502.489,-10.6298"/>
<polygon fill="midnightblue" stroke="midnightblue" points="502.233,-7.12857 492.216,-10.5796 502.198,-14.1285 502.233,-7.12857"/>
</g>
<!-- Node7&#45;&gt;Node8 -->
<g id="edge10" class="edge"><title>Node7&#45;&gt;Node8</title>
<path fill="none" stroke="midnightblue" d="M731.95,-112.324C720.537,-104.107 703.169,-91.6017 689.565,-81.8069"/>
<polygon fill="midnightblue" stroke="midnightblue" points="691.43,-78.8366 681.269,-75.8339 687.34,-84.5174 691.43,-78.8366"/>
</g>
<!-- Node9 -->
<g id="node10" class="node"><title>Node9</title>
<polygon fill="white" stroke="#bfbfbf" points="711,-56.5 711,-75.5 755,-75.5 755,-56.5 711,-56.5"/>
<text text-anchor="middle" x="733" y="-63.5" font-family="Helvetica,sans-Serif" font-size="10.00">cmath</text>
</g>
<!-- Node7&#45;&gt;Node9 -->
<g id="edge12" class="edge"><title>Node7&#45;&gt;Node9</title>
<path fill="none" stroke="midnightblue" d="M742.184,-112.083C740.726,-104.927 738.629,-94.6353 736.807,-85.6911"/>
<polygon fill="midnightblue" stroke="midnightblue" points="740.208,-84.8512 734.783,-75.7511 733.349,-86.2485 740.208,-84.8512"/>
</g>
<!-- Node8&#45;&gt;Node3 -->
<g id="edge11" class="edge"><title>Node8&#45;&gt;Node3</title>
<path fill="none" stroke="midnightblue" d="M645.364,-59.1183C609.621,-50.2236 541.21,-33.1998 496.091,-21.9719"/>
<polygon fill="midnightblue" stroke="midnightblue" points="496.827,-18.5484 486.278,-19.5299 495.136,-25.3412 496.827,-18.5484"/>
</g>
<!-- Node10&#45;&gt;Node3 -->
<g id="edge14" class="edge"><title>Node10&#45;&gt;Node3</title>
<path fill="none" stroke="midnightblue" d="M65.7406,-112.24C56.7673,-98.5218 42.8102,-71.8981 57,-56 79.5827,-30.6985 300.319,-17.7226 401.633,-13.0601"/>
<polygon fill="midnightblue" stroke="midnightblue" points="402.094,-16.543 411.926,-12.5962 401.779,-9.55008 402.094,-16.543"/>
</g>
<!-- Node10&#45;&gt;Node8 -->
<g id="edge15" class="edge"><title>Node10&#45;&gt;Node8</title>
<path fill="none" stroke="midnightblue" d="M114.09,-116.598C128.912,-115.087 145.691,-113.419 161,-112 350.638,-94.4187 398.451,-94.5175 588,-76 603.524,-74.4834 620.699,-72.604 635.224,-70.9555"/>
<polygon fill="midnightblue" stroke="midnightblue" points="635.734,-74.42 645.27,-69.8044 634.937,-67.4655 635.734,-74.42"/>
</g>
<!-- Node11 -->
<g id="node12" class="node"><title>Node11</title>
<polygon fill="white" stroke="#bfbfbf" points="130.5,-56.5 130.5,-75.5 213.5,-75.5 213.5,-56.5 130.5,-56.5"/>
<text text-anchor="middle" x="172" y="-63.5" font-family="Helvetica,sans-Serif" font-size="10.00">unordered_map</text>
</g>
<!-- Node10&#45;&gt;Node11 -->
<g id="edge16" class="edge"><title>Node10&#45;&gt;Node11</title>
<path fill="none" stroke="midnightblue" d="M88.0667,-112.324C103.958,-103.743 128.507,-90.486 146.958,-80.5224"/>
<polygon fill="midnightblue" stroke="midnightblue" points="148.837,-83.4857 155.973,-75.6545 145.511,-77.3264 148.837,-83.4857"/>
</g>
<!-- Node12 -->
<g id="node13" class="node"><title>Node12</title>
<polygon fill="white" stroke="#bfbfbf" points="66,-56.5 66,-75.5 112,-75.5 112,-56.5 66,-56.5"/>
<text text-anchor="middle" x="89" y="-63.5" font-family="Helvetica,sans-Serif" font-size="10.00">cstdint</text>
</g>
<!-- Node10&#45;&gt;Node12 -->
<g id="edge17" class="edge"><title>Node10&#45;&gt;Node12</title>
<path fill="none" stroke="midnightblue" d="M74.8072,-112.083C77.0847,-104.849 80.3713,-94.4087 83.2084,-85.3968"/>
<polygon fill="midnightblue" stroke="midnightblue" points="86.5806,-86.3406 86.245,-75.7511 79.9036,-84.2385 86.5806,-86.3406"/>
</g>
<!-- Node13&#45;&gt;Node3 -->
<g id="edge45" class="edge"><title>Node13&#45;&gt;Node3</title>
<path fill="none" stroke="midnightblue" d="M262.442,-284.894C191.958,-272.854 0,-234.931 0,-179 0,-179 0,-179 0,-121 0,-85.3501 16.1997,-73.9515 47,-56 106.06,-21.5776 306.752,-13.4818 401.582,-11.5811"/>
<polygon fill="midnightblue" stroke="midnightblue" points="401.854,-15.0768 411.787,-11.3924 401.724,-8.078 401.854,-15.0768"/>
</g>
<!-- Node13&#45;&gt;Node4 -->
<g id="edge22" class="edge"><title>Node13&#45;&gt;Node4</title>
<path fill="none" stroke="midnightblue" d="M300.798,-280.415C326.626,-263.068 386.803,-222.552 437,-188 461.96,-170.819 490.503,-150.816 509.311,-137.586"/>
<polygon fill="midnightblue" stroke="midnightblue" points="511.541,-140.297 517.703,-131.678 507.512,-134.573 511.541,-140.297"/>
</g>
<!-- Node13&#45;&gt;Node8 -->
<g id="edge44" class="edge"><title>Node13&#45;&gt;Node8</title>
<path fill="none" stroke="midnightblue" d="M313.75,-288.174C374.263,-284.892 527.174,-268.611 617,-188 647.524,-160.607 660.803,-112.196 666.017,-85.6694"/>
<polygon fill="midnightblue" stroke="midnightblue" points="669.473,-86.2254 667.784,-75.7659 662.582,-84.9953 669.473,-86.2254"/>
</g>
<!-- Node13&#45;&gt;Node10 -->
<g id="edge43" class="edge"><title>Node13&#45;&gt;Node10</title>
<path fill="none" stroke="midnightblue" d="M265.071,-280.374C245.517,-272.455 217.138,-259.603 195,-244 150.319,-212.51 106.838,-164.43 85.5504,-139.414"/>
<polygon fill="midnightblue" stroke="midnightblue" points="88.0922,-136.998 78.9805,-131.592 82.7321,-141.5 88.0922,-136.998"/>
</g>
<!-- Node14 -->
<g id="node15" class="node"><title>Node14</title>
<polygon fill="white" stroke="#bfbfbf" points="204.5,-224.5 204.5,-243.5 245.5,-243.5 245.5,-224.5 204.5,-224.5"/>
<text text-anchor="middle" x="225" y="-231.5" font-family="Helvetica,sans-Serif" font-size="10.00">stack</text>
</g>
<!-- Node13&#45;&gt;Node14 -->
<g id="edge23" class="edge"><title>Node13&#45;&gt;Node14</title>
<path fill="none" stroke="midnightblue" d="M277.878,-280.324C268.474,-272.263 254.256,-260.077 242.931,-250.369"/>
<polygon fill="midnightblue" stroke="midnightblue" points="245.177,-247.684 235.306,-243.834 240.621,-252.999 245.177,-247.684"/>
</g>
<!-- Node15 -->
<g id="node16" class="node"><title>Node15</title>
<g id="a_node16"><a xlink:href="State_8h.html" target="_top" xlink:title="State.h">
<polygon fill="white" stroke="black" points="264,-224.5 264,-243.5 312,-243.5 312,-224.5 264,-224.5"/>
<text text-anchor="middle" x="288" y="-231.5" font-family="Helvetica,sans-Serif" font-size="10.00">State.h</text>
</a>
</g>
</g>
<!-- Node13&#45;&gt;Node15 -->
<g id="edge24" class="edge"><title>Node13&#45;&gt;Node15</title>
<path fill="none" stroke="midnightblue" d="M288,-280.083C288,-273.006 288,-262.861 288,-253.986"/>
<polygon fill="midnightblue" stroke="midnightblue" points="291.5,-253.751 288,-243.751 284.5,-253.751 291.5,-253.751"/>
</g>
<!-- Node15&#45;&gt;Node5 -->
<g id="edge26" class="edge"><title>Node15&#45;&gt;Node5</title>
<path fill="none" stroke="midnightblue" d="M291.344,-224.197C294.554,-215.24 299.176,-200.883 301,-188 303.184,-172.572 301.573,-154.939 299.617,-141.935"/>
<polygon fill="midnightblue" stroke="midnightblue" points="303.031,-141.137 297.896,-131.87 296.132,-142.317 303.031,-141.137"/>
</g>
<!-- Node15&#45;&gt;Node10 -->
<g id="edge27" class="edge"><title>Node15&#45;&gt;Node10</title>
<path fill="none" stroke="midnightblue" d="M270.502,-224.478C252.141,-215.505 222.464,-200.915 197,-188 162.182,-170.341 122.19,-149.435 97.0105,-136.195"/>
<polygon fill="midnightblue" stroke="midnightblue" points="98.6063,-133.08 88.1271,-131.519 95.3457,-139.274 98.6063,-133.08"/>
</g>
<!-- Node16 -->
<g id="node17" class="node"><title>Node16</title>
<polygon fill="white" stroke="#bfbfbf" points="170,-112.5 170,-131.5 214,-131.5 214,-112.5 170,-112.5"/>
<text text-anchor="middle" x="192" y="-119.5" font-family="Helvetica,sans-Serif" font-size="10.00">vector</text>
</g>
<!-- Node15&#45;&gt;Node16 -->
<g id="edge25" class="edge"><title>Node15&#45;&gt;Node16</title>
<path fill="none" stroke="midnightblue" d="M263.843,-224.485C246.746,-217.277 224.535,-205.327 211,-188 200.606,-174.694 195.894,-155.862 193.761,-141.891"/>
<polygon fill="midnightblue" stroke="midnightblue" points="197.23,-141.428 192.543,-131.927 190.282,-142.278 197.23,-141.428"/>
</g>
<!-- Node17 -->
<g id="node18" class="node"><title>Node17</title>
<g id="a_node18"><a xlink:href="Resources_8h.html" target="_top" xlink:title="Resources.h">
<polygon fill="white" stroke="black" points="220,-168.5 220,-187.5 292,-187.5 292,-168.5 220,-168.5"/>
<text text-anchor="middle" x="256" y="-175.5" font-family="Helvetica,sans-Serif" font-size="10.00">Resources.h</text>
</a>
</g>
</g>
<!-- Node15&#45;&gt;Node17 -->
<g id="edge28" class="edge"><title>Node15&#45;&gt;Node17</title>
<path fill="none" stroke="midnightblue" d="M282.716,-224.083C278.289,-216.613 271.837,-205.724 266.382,-196.52"/>
<polygon fill="midnightblue" stroke="midnightblue" points="269.295,-194.57 261.186,-187.751 263.273,-198.138 269.295,-194.57"/>
</g>
<!-- Node18 -->
<g id="node19" class="node"><title>Node18</title>
<g id="a_node19"><a xlink:href="GameObject_8h.html" target="_top" xlink:title="GameObject.h">
<polygon fill="white" stroke="black" points="348,-168.5 348,-187.5 428,-187.5 428,-168.5 348,-168.5"/>
<text text-anchor="middle" x="388" y="-175.5" font-family="Helvetica,sans-Serif" font-size="10.00">GameObject.h</text>
</a>
</g>
</g>
<!-- Node15&#45;&gt;Node18 -->
<g id="edge33" class="edge"><title>Node15&#45;&gt;Node18</title>
<path fill="none" stroke="midnightblue" d="M304.067,-224.324C319.958,-215.743 344.507,-202.486 362.958,-192.522"/>
<polygon fill="midnightblue" stroke="midnightblue" points="364.837,-195.486 371.973,-187.655 361.511,-189.326 364.837,-195.486"/>
</g>
<!-- Node17&#45;&gt;Node3 -->
<g id="edge29" class="edge"><title>Node17&#45;&gt;Node3</title>
<path fill="none" stroke="midnightblue" d="M254.18,-168.164C251.941,-154.811 249.701,-129.224 261,-112 293.422,-62.5756 358.3,-35.7283 403.393,-22.3906"/>
<polygon fill="midnightblue" stroke="midnightblue" points="404.596,-25.6876 413.262,-19.5923 402.686,-18.9531 404.596,-25.6876"/>
</g>
<!-- Node17&#45;&gt;Node4 -->
<g id="edge30" class="edge"><title>Node17&#45;&gt;Node4</title>
<path fill="none" stroke="midnightblue" d="M292.227,-171.586C338.142,-164.447 419.876,-150.82 499.255,-131.945"/>
<polygon fill="midnightblue" stroke="midnightblue" points="500.522,-135.24 509.424,-129.495 498.882,-128.435 500.522,-135.24"/>
</g>
<!-- Node17&#45;&gt;Node5 -->
<g id="edge32" class="edge"><title>Node17&#45;&gt;Node5</title>
<path fill="none" stroke="midnightblue" d="M262.605,-168.083C268.255,-160.455 276.545,-149.264 283.451,-139.941"/>
<polygon fill="midnightblue" stroke="midnightblue" points="286.378,-141.87 289.518,-131.751 280.753,-137.703 286.378,-141.87"/>
</g>
<!-- Node17&#45;&gt;Node11 -->
<g id="edge31" class="edge"><title>Node17&#45;&gt;Node11</title>
<path fill="none" stroke="midnightblue" d="M219.793,-169.882C198.737,-163.684 173.882,-152.356 161,-132 152.124,-117.974 156.835,-98.9779 162.588,-85.1452"/>
<polygon fill="midnightblue" stroke="midnightblue" points="165.919,-86.2829 166.982,-75.7415 159.577,-83.3195 165.919,-86.2829"/>
</g>
<!-- Node18&#45;&gt;Node3 -->
<g id="edge34" class="edge"><title>Node18&#45;&gt;Node3</title>
<path fill="none" stroke="midnightblue" d="M384.832,-168.414C377.727,-147.624 362.671,-93.5281 383,-56 390.749,-41.6958 405.234,-31.2188 418.94,-23.992"/>
<polygon fill="midnightblue" stroke="midnightblue" points="420.738,-27.0103 428.212,-19.501 417.686,-20.7104 420.738,-27.0103"/>
</g>
<!-- Node18&#45;&gt;Node4 -->
<g id="edge37" class="edge"><title>Node18&#45;&gt;Node4</title>
<path fill="none" stroke="midnightblue" d="M410.5,-168.444C434.632,-159.267 473.083,-144.645 499.827,-134.474"/>
<polygon fill="midnightblue" stroke="midnightblue" points="501.346,-137.641 509.449,-130.815 498.858,-131.098 501.346,-137.641"/>
</g>
<!-- Node18&#45;&gt;Node5 -->
<g id="edge36" class="edge"><title>Node18&#45;&gt;Node5</title>
<path fill="none" stroke="midnightblue" d="M373.219,-168.324C358.733,-159.822 336.427,-146.729 319.507,-136.797"/>
<polygon fill="midnightblue" stroke="midnightblue" points="321.141,-133.698 310.745,-131.655 317.597,-139.735 321.141,-133.698"/>
</g>
<!-- Node18&#45;&gt;Node7 -->
<g id="edge42" class="edge"><title>Node18&#45;&gt;Node7</title>
<path fill="none" stroke="midnightblue" d="M428.146,-170.91C498.942,-160.172 644.701,-138.062 710.485,-128.084"/>
<polygon fill="midnightblue" stroke="midnightblue" points="711.339,-131.494 720.701,-126.534 710.289,-124.573 711.339,-131.494"/>
</g>
<!-- Node18&#45;&gt;Node16 -->
<g id="edge35" class="edge"><title>Node18&#45;&gt;Node16</title>
<path fill="none" stroke="midnightblue" d="M356.943,-168.444C320.535,-158.413 260.515,-141.877 223.792,-131.759"/>
<polygon fill="midnightblue" stroke="midnightblue" points="224.662,-128.368 214.092,-129.086 222.803,-135.117 224.662,-128.368"/>
</g>
<!-- Node19 -->
<g id="node20" class="node"><title>Node19</title>
<g id="a_node20"><a xlink:href="Component_8h.html" target="_top" xlink:title="Component.h">
<polygon fill="white" stroke="black" points="416.5,-112.5 416.5,-131.5 491.5,-131.5 491.5,-112.5 416.5,-112.5"/>
<text text-anchor="middle" x="454" y="-119.5" font-family="Helvetica,sans-Serif" font-size="10.00">Component.h</text>
</a>
</g>
</g>
<!-- Node18&#45;&gt;Node19 -->
<g id="edge38" class="edge"><title>Node18&#45;&gt;Node19</title>
<path fill="none" stroke="midnightblue" d="M393.732,-168.083C402.132,-159.777 417.149,-147.246 430.214,-137.502"/>
<polygon fill="midnightblue" stroke="midnightblue" points="432.369,-140.264 438.429,-131.573 428.272,-134.587 432.369,-140.264"/>
</g>
<!-- Node20 -->
<g id="node21" class="node"><title>Node20</title>
<g id="a_node21"><a xlink:href="ComponentType_8h.html" target="_top" xlink:title="ComponentType.h">
<polygon fill="white" stroke="black" points="392.5,-56.5 392.5,-75.5 489.5,-75.5 489.5,-56.5 392.5,-56.5"/>
<text text-anchor="middle" x="441" y="-63.5" font-family="Helvetica,sans-Serif" font-size="10.00">ComponentType.h</text>
</a>
</g>
</g>
<!-- Node18&#45;&gt;Node20 -->
<g id="edge41" class="edge"><title>Node18&#45;&gt;Node20</title>
<path fill="none" stroke="midnightblue" d="M389.517,-168.215C391.964,-155.362 397.497,-130.909 407,-112 412.156,-101.741 419.723,-91.4379 426.41,-83.2844"/>
<polygon fill="midnightblue" stroke="midnightblue" points="429.09,-85.5353 432.921,-75.6575 423.766,-80.99 429.09,-85.5353"/>
</g>
<!-- Node19&#45;&gt;Node18 -->
<g id="edge40" class="edge"><title>Node19&#45;&gt;Node18</title>
<path fill="none" stroke="midnightblue" d="M448.352,-131.834C440.002,-140.106 425.015,-152.62 411.943,-162.38"/>
<polygon fill="midnightblue" stroke="midnightblue" points="409.774,-159.63 403.719,-168.324 413.874,-165.303 409.774,-159.63"/>
</g>
<!-- Node19&#45;&gt;Node20 -->
<g id="edge39" class="edge"><title>Node19&#45;&gt;Node20</title>
<path fill="none" stroke="midnightblue" d="M451.853,-112.083C450.131,-104.927 447.653,-94.6353 445.5,-85.6911"/>
<polygon fill="midnightblue" stroke="midnightblue" points="448.85,-84.6541 443.107,-75.7511 442.045,-86.2925 448.85,-84.6541"/>
</g>
<!-- Node22 -->
<g id="node23" class="node"><title>Node22</title>
<polygon fill="white" stroke="#bfbfbf" points="824,-224.5 824,-243.5 878,-243.5 878,-224.5 824,-224.5"/>
<text text-anchor="middle" x="851" y="-231.5" font-family="Helvetica,sans-Serif" font-size="10.00">iostream</text>
</g>
<!-- Node21&#45;&gt;Node22 -->
<g id="edge47" class="edge"><title>Node21&#45;&gt;Node22</title>
<path fill="none" stroke="midnightblue" d="M793.086,-280.324C803.486,-272.185 819.261,-259.839 831.722,-250.087"/>
<polygon fill="midnightblue" stroke="midnightblue" points="833.994,-252.753 839.712,-243.834 829.68,-247.241 833.994,-252.753"/>
</g>
<!-- Node23 -->
<g id="node24" class="node"><title>Node23</title>
<polygon fill="white" stroke="#bfbfbf" points="758,-224.5 758,-243.5 806,-243.5 806,-224.5 758,-224.5"/>
<text text-anchor="middle" x="782" y="-231.5" font-family="Helvetica,sans-Serif" font-size="10.00">stdlib.h</text>
</g>
<!-- Node21&#45;&gt;Node23 -->
<g id="edge48" class="edge"><title>Node21&#45;&gt;Node23</title>
<path fill="none" stroke="midnightblue" d="M782,-280.083C782,-273.006 782,-262.861 782,-253.986"/>
<polygon fill="midnightblue" stroke="midnightblue" points="785.5,-253.751 782,-243.751 778.5,-253.751 785.5,-253.751"/>
</g>
</g>
</svg>
