<?xml version="1.0" encoding="UTF-8" standalone="no"?>
<!DOCTYPE svg PUBLIC "-//W3C//DTD SVG 1.1//EN"
 "http://www.w3.org/Graphics/SVG/1.1/DTD/svg11.dtd">
<!-- Generated by graphviz version 2.38.0 (20140413.2041)
 -->
<!-- Title: include/UIelement.h Pages: 1 -->
<svg width="526pt" height="252pt"
 viewBox="0.00 0.00 525.50 252.00" xmlns="http://www.w3.org/2000/svg" xmlns:xlink="http://www.w3.org/1999/xlink">
<g id="graph0" class="graph" transform="scale(1 1) rotate(0) translate(4 248)">
<title>include/UIelement.h</title>
<polygon fill="white" stroke="none" points="-4,4 -4,-248 521.5,-248 521.5,4 -4,4"/>
<!-- Node0 -->
<g id="node1" class="node"><title>Node0</title>
<polygon fill="#bfbfbf" stroke="black" points="149.5,-224.5 149.5,-243.5 253.5,-243.5 253.5,-224.5 149.5,-224.5"/>
<text text-anchor="middle" x="201.5" y="-231.5" font-family="Helvetica,sans-Serif" font-size="10.00">include/UIelement.h</text>
</g>
<!-- Node1 -->
<g id="node2" class="node"><title>Node1</title>
<g id="a_node2"><a xlink:href="Sprite_8h.html" target="_top" xlink:title="Sprite.h">
<polygon fill="white" stroke="black" points="150.5,-168.5 150.5,-187.5 200.5,-187.5 200.5,-168.5 150.5,-168.5"/>
<text text-anchor="middle" x="175.5" y="-175.5" font-family="Helvetica,sans-Serif" font-size="10.00">Sprite.h</text>
</a>
</g>
</g>
<!-- Node0&#45;&gt;Node1 -->
<g id="edge1" class="edge"><title>Node0&#45;&gt;Node1</title>
<path fill="none" stroke="midnightblue" d="M197.207,-224.083C193.648,-216.691 188.478,-205.953 184.076,-196.811"/>
<polygon fill="midnightblue" stroke="midnightblue" points="187.205,-195.243 179.713,-187.751 180.898,-198.279 187.205,-195.243"/>
</g>
<!-- Node3 -->
<g id="node4" class="node"><title>Node3</title>
<polygon fill="white" stroke="#bfbfbf" points="0,-112.5 0,-131.5 41,-131.5 41,-112.5 0,-112.5"/>
<text text-anchor="middle" x="20.5" y="-119.5" font-family="Helvetica,sans-Serif" font-size="10.00">string</text>
</g>
<!-- Node0&#45;&gt;Node3 -->
<g id="edge19" class="edge"><title>Node0&#45;&gt;Node3</title>
<path fill="none" stroke="midnightblue" d="M187.297,-224.368C156.105,-205.412 81.3828,-160.001 43.4415,-136.942"/>
<polygon fill="midnightblue" stroke="midnightblue" points="45.0002,-133.794 34.6368,-131.591 41.3647,-139.776 45.0002,-133.794"/>
</g>
<!-- Node6 -->
<g id="node7" class="node"><title>Node6</title>
<g id="a_node7"><a xlink:href="Rect_8h.html" target="_top" xlink:title="Rect.h">
<polygon fill="white" stroke="black" points="205.5,-112.5 205.5,-131.5 251.5,-131.5 251.5,-112.5 205.5,-112.5"/>
<text text-anchor="middle" x="228.5" y="-119.5" font-family="Helvetica,sans-Serif" font-size="10.00">Rect.h</text>
</a>
</g>
</g>
<!-- Node0&#45;&gt;Node6 -->
<g id="edge17" class="edge"><title>Node0&#45;&gt;Node6</title>
<path fill="none" stroke="midnightblue" d="M203.619,-224.368C207.976,-206.617 218.027,-165.666 223.935,-141.597"/>
<polygon fill="midnightblue" stroke="midnightblue" points="227.406,-142.137 226.391,-131.591 220.608,-140.469 227.406,-142.137"/>
</g>
<!-- Node7 -->
<g id="node8" class="node"><title>Node7</title>
<g id="a_node8"><a xlink:href="Vec2_8h.html" target="_top" xlink:title="Vec2.h">
<polygon fill="white" stroke="black" points="266,-56.5 266,-75.5 313,-75.5 313,-56.5 266,-56.5"/>
<text text-anchor="middle" x="289.5" y="-63.5" font-family="Helvetica,sans-Serif" font-size="10.00">Vec2.h</text>
</a>
</g>
</g>
<!-- Node0&#45;&gt;Node7 -->
<g id="edge18" class="edge"><title>Node0&#45;&gt;Node7</title>
<path fill="none" stroke="midnightblue" d="M206.999,-224.453C212.743,-215.459 221.95,-200.853 229.5,-188 243.908,-163.471 247.804,-157.458 260.5,-132 268.333,-116.294 276.401,-98.0079 282.032,-84.839"/>
<polygon fill="midnightblue" stroke="midnightblue" points="285.301,-86.0954 285.974,-75.522 278.854,-83.3674 285.301,-86.0954"/>
</g>
<!-- Node2 -->
<g id="node3" class="node"><title>Node2</title>
<g id="a_node3"><a xlink:href="SDL__include_8h.html" target="_top" xlink:title="SDL_include.h">
<polygon fill="white" stroke="black" points="135.5,-0.5 135.5,-19.5 215.5,-19.5 215.5,-0.5 135.5,-0.5"/>
<text text-anchor="middle" x="175.5" y="-7.5" font-family="Helvetica,sans-Serif" font-size="10.00">SDL_include.h</text>
</a>
</g>
</g>
<!-- Node1&#45;&gt;Node2 -->
<g id="edge2" class="edge"><title>Node1&#45;&gt;Node2</title>
<path fill="none" stroke="midnightblue" d="M150.336,-171.569C129.72,-165.649 101.85,-153.935 88.5,-132 81.2595,-120.103 73.1977,-83.61 90.5,-56 100.135,-40.6243 116.907,-30.1936 133.021,-23.2802"/>
<polygon fill="midnightblue" stroke="midnightblue" points="134.346,-26.5202 142.373,-19.6054 131.786,-20.0051 134.346,-26.5202"/>
</g>
<!-- Node1&#45;&gt;Node3 -->
<g id="edge3" class="edge"><title>Node1&#45;&gt;Node3</title>
<path fill="none" stroke="midnightblue" d="M150.94,-168.444C123.908,-159.026 80.4178,-143.875 51.1676,-133.684"/>
<polygon fill="midnightblue" stroke="midnightblue" points="52.0605,-130.289 41.4657,-130.304 49.7575,-136.899 52.0605,-130.289"/>
</g>
<!-- Node4 -->
<g id="node5" class="node"><title>Node4</title>
<polygon fill="white" stroke="#bfbfbf" points="97.5,-112.5 97.5,-131.5 149.5,-131.5 149.5,-112.5 97.5,-112.5"/>
<text text-anchor="middle" x="123.5" y="-119.5" font-family="Helvetica,sans-Serif" font-size="10.00">memory</text>
</g>
<!-- Node1&#45;&gt;Node4 -->
<g id="edge4" class="edge"><title>Node1&#45;&gt;Node4</title>
<path fill="none" stroke="midnightblue" d="M166.913,-168.083C159.341,-160.22 148.122,-148.569 138.986,-139.081"/>
<polygon fill="midnightblue" stroke="midnightblue" points="141.385,-136.527 131.927,-131.751 136.342,-141.382 141.385,-136.527"/>
</g>
<!-- Node5 -->
<g id="node6" class="node"><title>Node5</title>
<g id="a_node6"><a xlink:href="Color_8h.html" target="_top" xlink:title="Color.h">
<polygon fill="white" stroke="black" points="99.5,-56.5 99.5,-75.5 147.5,-75.5 147.5,-56.5 99.5,-56.5"/>
<text text-anchor="middle" x="123.5" y="-63.5" font-family="Helvetica,sans-Serif" font-size="10.00">Color.h</text>
</a>
</g>
</g>
<!-- Node1&#45;&gt;Node5 -->
<g id="edge5" class="edge"><title>Node1&#45;&gt;Node5</title>
<path fill="none" stroke="midnightblue" d="M174.351,-168.193C172.421,-155.314 167.791,-130.828 158.5,-112 153.364,-101.592 145.589,-91.2771 138.671,-83.1537"/>
<polygon fill="midnightblue" stroke="midnightblue" points="141.182,-80.7105 131.918,-75.5696 135.954,-85.3655 141.182,-80.7105"/>
</g>
<!-- Node1&#45;&gt;Node6 -->
<g id="edge7" class="edge"><title>Node1&#45;&gt;Node6</title>
<path fill="none" stroke="midnightblue" d="M184.252,-168.083C191.97,-160.22 203.405,-148.569 212.717,-139.081"/>
<polygon fill="midnightblue" stroke="midnightblue" points="215.404,-141.34 219.911,-131.751 210.408,-136.436 215.404,-141.34"/>
</g>
<!-- Node9 -->
<g id="node10" class="node"><title>Node9</title>
<g id="a_node10"><a xlink:href="InputManager_8h.html" target="_top" xlink:title="InputManager.h">
<polygon fill="white" stroke="black" points="307.5,-112.5 307.5,-131.5 391.5,-131.5 391.5,-112.5 307.5,-112.5"/>
<text text-anchor="middle" x="349.5" y="-119.5" font-family="Helvetica,sans-Serif" font-size="10.00">InputManager.h</text>
</a>
</g>
</g>
<!-- Node1&#45;&gt;Node9 -->
<g id="edge12" class="edge"><title>Node1&#45;&gt;Node9</title>
<path fill="none" stroke="midnightblue" d="M200.801,-169.148C230.014,-160.082 278.349,-145.081 311.95,-134.653"/>
<polygon fill="midnightblue" stroke="midnightblue" points="313.354,-137.882 321.868,-131.576 311.28,-131.197 313.354,-137.882"/>
</g>
<!-- Node5&#45;&gt;Node2 -->
<g id="edge6" class="edge"><title>Node5&#45;&gt;Node2</title>
<path fill="none" stroke="midnightblue" d="M132.087,-56.083C139.659,-48.2195 150.878,-36.5688 160.014,-27.0813"/>
<polygon fill="midnightblue" stroke="midnightblue" points="162.658,-29.3821 167.073,-19.7511 157.615,-24.5266 162.658,-29.3821"/>
</g>
<!-- Node6&#45;&gt;Node2 -->
<g id="edge8" class="edge"><title>Node6&#45;&gt;Node2</title>
<path fill="none" stroke="midnightblue" d="M220.421,-112.343C212.77,-103.725 201.447,-89.8233 194.5,-76 187.076,-61.2276 182.075,-43.071 179.075,-29.7057"/>
<polygon fill="midnightblue" stroke="midnightblue" points="182.475,-28.8657 177.017,-19.7853 175.621,-30.2878 182.475,-28.8657"/>
</g>
<!-- Node6&#45;&gt;Node7 -->
<g id="edge9" class="edge"><title>Node6&#45;&gt;Node7</title>
<path fill="none" stroke="midnightblue" d="M238.301,-112.324C247.318,-104.341 260.906,-92.3128 271.818,-82.6529"/>
<polygon fill="midnightblue" stroke="midnightblue" points="274.353,-85.083 279.521,-75.8339 269.713,-79.8416 274.353,-85.083"/>
</g>
<!-- Node8 -->
<g id="node9" class="node"><title>Node8</title>
<polygon fill="white" stroke="#bfbfbf" points="203.5,-56.5 203.5,-75.5 247.5,-75.5 247.5,-56.5 203.5,-56.5"/>
<text text-anchor="middle" x="225.5" y="-63.5" font-family="Helvetica,sans-Serif" font-size="10.00">cmath</text>
</g>
<!-- Node6&#45;&gt;Node8 -->
<g id="edge11" class="edge"><title>Node6&#45;&gt;Node8</title>
<path fill="none" stroke="midnightblue" d="M228.005,-112.083C227.611,-105.006 227.048,-94.8611 226.555,-85.9865"/>
<polygon fill="midnightblue" stroke="midnightblue" points="230.036,-85.5415 225.986,-75.7511 223.046,-85.9299 230.036,-85.5415"/>
</g>
<!-- Node7&#45;&gt;Node2 -->
<g id="edge10" class="edge"><title>Node7&#45;&gt;Node2</title>
<path fill="none" stroke="midnightblue" d="M271.436,-56.4435C252.925,-47.6751 223.919,-33.9355 202.645,-23.8579"/>
<polygon fill="midnightblue" stroke="midnightblue" points="204.015,-20.6343 193.479,-19.5164 201.018,-26.9604 204.015,-20.6343"/>
</g>
<!-- Node9&#45;&gt;Node2 -->
<g id="edge13" class="edge"><title>Node9&#45;&gt;Node2</title>
<path fill="none" stroke="midnightblue" d="M348.094,-112.051C345.429,-98.0742 338.324,-71.1024 321.5,-56 295.166,-32.3611 256.625,-21.1392 225.754,-15.8123"/>
<polygon fill="midnightblue" stroke="midnightblue" points="226.028,-12.3127 215.607,-14.2223 224.945,-19.2283 226.028,-12.3127"/>
</g>
<!-- Node9&#45;&gt;Node7 -->
<g id="edge14" class="edge"><title>Node9&#45;&gt;Node7</title>
<path fill="none" stroke="midnightblue" d="M339.86,-112.324C330.99,-104.341 317.625,-92.3128 306.892,-82.6529"/>
<polygon fill="midnightblue" stroke="midnightblue" points="309.09,-79.922 299.315,-75.8339 304.407,-85.1251 309.09,-79.922"/>
</g>
<!-- Node10 -->
<g id="node11" class="node"><title>Node10</title>
<polygon fill="white" stroke="#bfbfbf" points="370,-56.5 370,-75.5 453,-75.5 453,-56.5 370,-56.5"/>
<text text-anchor="middle" x="411.5" y="-63.5" font-family="Helvetica,sans-Serif" font-size="10.00">unordered_map</text>
</g>
<!-- Node9&#45;&gt;Node10 -->
<g id="edge15" class="edge"><title>Node9&#45;&gt;Node10</title>
<path fill="none" stroke="midnightblue" d="M359.461,-112.324C368.627,-104.341 382.437,-92.3128 393.528,-82.6529"/>
<polygon fill="midnightblue" stroke="midnightblue" points="396.115,-85.041 401.357,-75.8339 391.518,-79.7624 396.115,-85.041"/>
</g>
<!-- Node11 -->
<g id="node12" class="node"><title>Node11</title>
<polygon fill="white" stroke="#bfbfbf" points="471.5,-56.5 471.5,-75.5 517.5,-75.5 517.5,-56.5 471.5,-56.5"/>
<text text-anchor="middle" x="494.5" y="-63.5" font-family="Helvetica,sans-Serif" font-size="10.00">cstdint</text>
</g>
<!-- Node9&#45;&gt;Node11 -->
<g id="edge16" class="edge"><title>Node9&#45;&gt;Node11</title>
<path fill="none" stroke="midnightblue" d="M372.476,-112.444C396.657,-103.438 434.918,-89.1891 462.146,-79.049"/>
<polygon fill="midnightblue" stroke="midnightblue" points="463.482,-82.2864 471.632,-75.5164 461.039,-75.7265 463.482,-82.2864"/>
</g>
</g>
</svg>
