<?xml version="1.0" encoding="UTF-8" standalone="no"?>
<!DOCTYPE svg PUBLIC "-//W3C//DTD SVG 1.1//EN"
 "http://www.w3.org/Graphics/SVG/1.1/DTD/svg11.dtd">
<!-- Generated by graphviz version 2.38.0 (20140413.2041)
 -->
<!-- Title: include/UIgridGroup.h Pages: 1 -->
<svg width="494pt" height="364pt"
 viewBox="0.00 0.00 493.55 364.00" xmlns="http://www.w3.org/2000/svg" xmlns:xlink="http://www.w3.org/1999/xlink">
<g id="graph0" class="graph" transform="scale(1 1) rotate(0) translate(4 360)">
<title>include/UIgridGroup.h</title>
<polygon fill="white" stroke="none" points="-4,4 -4,-360 489.555,-360 489.555,4 -4,4"/>
<!-- Node0 -->
<g id="node1" class="node"><title>Node0</title>
<polygon fill="#bfbfbf" stroke="black" points="129.555,-336.5 129.555,-355.5 240.555,-355.5 240.555,-336.5 129.555,-336.5"/>
<text text-anchor="middle" x="185.055" y="-343.5" font-family="Helvetica,sans-Serif" font-size="10.00">include/UIgridGroup.h</text>
</g>
<!-- Node1 -->
<g id="node2" class="node"><title>Node1</title>
<g id="a_node2"><a xlink:href="UIelement_8h.html" target="_top" xlink:title="UIelement.h">
<polygon fill="white" stroke="black" points="170.055,-224.5 170.055,-243.5 240.055,-243.5 240.055,-224.5 170.055,-224.5"/>
<text text-anchor="middle" x="205.055" y="-231.5" font-family="Helvetica,sans-Serif" font-size="10.00">UIelement.h</text>
</a>
</g>
</g>
<!-- Node0&#45;&gt;Node1 -->
<g id="edge1" class="edge"><title>Node0&#45;&gt;Node1</title>
<path fill="none" stroke="midnightblue" d="M187.427,-336.43C189.856,-327.419 193.611,-312.798 196.055,-300 198.996,-284.594 201.377,-266.96 202.949,-253.949"/>
<polygon fill="midnightblue" stroke="midnightblue" points="206.442,-254.215 204.117,-243.878 199.488,-253.409 206.442,-254.215"/>
</g>
<!-- Node4 -->
<g id="node5" class="node"><title>Node4</title>
<polygon fill="white" stroke="#bfbfbf" points="444.555,-112.5 444.555,-131.5 485.555,-131.5 485.555,-112.5 444.555,-112.5"/>
<text text-anchor="middle" x="465.055" y="-119.5" font-family="Helvetica,sans-Serif" font-size="10.00">string</text>
</g>
<!-- Node0&#45;&gt;Node4 -->
<g id="edge29" class="edge"><title>Node0&#45;&gt;Node4</title>
<path fill="none" stroke="midnightblue" d="M196.031,-336.297C238.461,-302.657 392.057,-180.877 446.092,-138.035"/>
<polygon fill="midnightblue" stroke="midnightblue" points="448.493,-140.598 454.155,-131.643 444.144,-135.113 448.493,-140.598"/>
</g>
<!-- Node7 -->
<g id="node8" class="node"><title>Node7</title>
<g id="a_node8"><a xlink:href="Rect_8h.html" target="_top" xlink:title="Rect.h">
<polygon fill="white" stroke="black" points="13.055,-112.5 13.055,-131.5 59.055,-131.5 59.055,-112.5 13.055,-112.5"/>
<text text-anchor="middle" x="36.055" y="-119.5" font-family="Helvetica,sans-Serif" font-size="10.00">Rect.h</text>
</a>
</g>
</g>
<!-- Node0&#45;&gt;Node7 -->
<g id="edge26" class="edge"><title>Node0&#45;&gt;Node7</title>
<path fill="none" stroke="midnightblue" d="M141.396,-336.497C119.404,-330.04 94.0771,-318.913 78.055,-300 38.8051,-253.668 34.8211,-177.092 35.2701,-141.835"/>
<polygon fill="midnightblue" stroke="midnightblue" points="38.7761,-141.656 35.5478,-131.565 31.7787,-141.467 38.7761,-141.656"/>
</g>
<!-- Node8 -->
<g id="node9" class="node"><title>Node8</title>
<g id="a_node9"><a xlink:href="Vec2_8h.html" target="_top" xlink:title="Vec2.h">
<polygon fill="white" stroke="black" points="76.555,-56.5 76.555,-75.5 123.555,-75.5 123.555,-56.5 76.555,-56.5"/>
<text text-anchor="middle" x="100.055" y="-63.5" font-family="Helvetica,sans-Serif" font-size="10.00">Vec2.h</text>
</a>
</g>
</g>
<!-- Node0&#45;&gt;Node8 -->
<g id="edge27" class="edge"><title>Node0&#45;&gt;Node8</title>
<path fill="none" stroke="midnightblue" d="M162.179,-336.409C145.699,-329.102 124.143,-317.06 111.055,-300 92.7347,-276.12 92.055,-265.098 92.055,-235 92.055,-235 92.055,-235 92.055,-177 92.055,-144.863 95.4935,-107.584 97.862,-85.7187"/>
<polygon fill="midnightblue" stroke="midnightblue" points="101.367,-85.8715 99.0091,-75.5424 94.4109,-85.0874 101.367,-85.8715"/>
</g>
<!-- Node13 -->
<g id="node14" class="node"><title>Node13</title>
<g id="a_node14"><a xlink:href="UIcanvas_8h.html" target="_top" xlink:title="UIcanvas.h">
<polygon fill="white" stroke="black" points="120.555,-280.5 120.555,-299.5 187.555,-299.5 187.555,-280.5 120.555,-280.5"/>
<text text-anchor="middle" x="154.055" y="-287.5" font-family="Helvetica,sans-Serif" font-size="10.00">UIcanvas.h</text>
</a>
</g>
</g>
<!-- Node0&#45;&gt;Node13 -->
<g id="edge21" class="edge"><title>Node0&#45;&gt;Node13</title>
<path fill="none" stroke="midnightblue" d="M179.936,-336.083C175.647,-328.613 169.397,-317.724 164.113,-308.52"/>
<polygon fill="midnightblue" stroke="midnightblue" points="167.093,-306.681 159.079,-299.751 161.022,-310.166 167.093,-306.681"/>
</g>
<!-- Node14 -->
<g id="node15" class="node"><title>Node14</title>
<polygon fill="white" stroke="#bfbfbf" points="422.055,-280.5 422.055,-299.5 466.055,-299.5 466.055,-280.5 422.055,-280.5"/>
<text text-anchor="middle" x="444.055" y="-287.5" font-family="Helvetica,sans-Serif" font-size="10.00">vector</text>
</g>
<!-- Node0&#45;&gt;Node14 -->
<g id="edge28" class="edge"><title>Node0&#45;&gt;Node14</title>
<path fill="none" stroke="midnightblue" d="M230.457,-336.471C275.61,-327.84 346.799,-313.83 408.055,-300 409.328,-299.713 410.624,-299.415 411.933,-299.109"/>
<polygon fill="midnightblue" stroke="midnightblue" points="413.106,-302.426 422.008,-296.682 411.467,-295.621 413.106,-302.426"/>
</g>
<!-- Node2 -->
<g id="node3" class="node"><title>Node2</title>
<g id="a_node3"><a xlink:href="Sprite_8h.html" target="_top" xlink:title="Sprite.h">
<polygon fill="white" stroke="black" points="240.055,-168.5 240.055,-187.5 290.055,-187.5 290.055,-168.5 240.055,-168.5"/>
<text text-anchor="middle" x="265.055" y="-175.5" font-family="Helvetica,sans-Serif" font-size="10.00">Sprite.h</text>
</a>
</g>
</g>
<!-- Node1&#45;&gt;Node2 -->
<g id="edge2" class="edge"><title>Node1&#45;&gt;Node2</title>
<path fill="none" stroke="midnightblue" d="M214.695,-224.324C223.565,-216.341 236.93,-204.313 247.663,-194.653"/>
<polygon fill="midnightblue" stroke="midnightblue" points="250.148,-197.125 255.24,-187.834 245.465,-191.922 250.148,-197.125"/>
</g>
<!-- Node1&#45;&gt;Node4 -->
<g id="edge20" class="edge"><title>Node1&#45;&gt;Node4</title>
<path fill="none" stroke="midnightblue" d="M222.932,-224.405C257.3,-207.898 330.249,-172.948 342.055,-168 373.204,-154.945 409.615,-141.89 434.695,-133.23"/>
<polygon fill="midnightblue" stroke="midnightblue" points="436.048,-136.467 444.373,-129.913 433.778,-129.845 436.048,-136.467"/>
</g>
<!-- Node1&#45;&gt;Node7 -->
<g id="edge18" class="edge"><title>Node1&#45;&gt;Node7</title>
<path fill="none" stroke="midnightblue" d="M191.794,-224.368C162.793,-205.492 93.4919,-160.385 57.9277,-137.237"/>
<polygon fill="midnightblue" stroke="midnightblue" points="59.5449,-134.113 49.2545,-131.591 55.7262,-139.98 59.5449,-134.113"/>
</g>
<!-- Node1&#45;&gt;Node8 -->
<g id="edge19" class="edge"><title>Node1&#45;&gt;Node8</title>
<path fill="none" stroke="midnightblue" d="M201.746,-224.28C193.692,-203.647 171.688,-150.661 144.055,-112 136.369,-101.247 126.122,-90.6081 117.451,-82.3768"/>
<polygon fill="midnightblue" stroke="midnightblue" points="119.776,-79.7598 110.049,-75.56 115.034,-84.9089 119.776,-79.7598"/>
</g>
<!-- Node3 -->
<g id="node4" class="node"><title>Node3</title>
<g id="a_node4"><a xlink:href="SDL__include_8h.html" target="_top" xlink:title="SDL_include.h">
<polygon fill="white" stroke="black" points="277.055,-0.5 277.055,-19.5 357.055,-19.5 357.055,-0.5 277.055,-0.5"/>
<text text-anchor="middle" x="317.055" y="-7.5" font-family="Helvetica,sans-Serif" font-size="10.00">SDL_include.h</text>
</a>
</g>
</g>
<!-- Node2&#45;&gt;Node3 -->
<g id="edge3" class="edge"><title>Node2&#45;&gt;Node3</title>
<path fill="none" stroke="midnightblue" d="M290.135,-169.498C319.319,-160.353 365.162,-144.563 378.055,-132 397.449,-113.102 396.61,-102.525 402.055,-76 403.842,-67.2926 406.64,-63.6152 402.055,-56 392.767,-40.5744 376.222,-30.1596 360.181,-23.2713"/>
<polygon fill="midnightblue" stroke="midnightblue" points="361.441,-20.006 350.854,-19.6119 358.885,-26.5224 361.441,-20.006"/>
</g>
<!-- Node2&#45;&gt;Node4 -->
<g id="edge4" class="edge"><title>Node2&#45;&gt;Node4</title>
<path fill="none" stroke="midnightblue" d="M290.385,-170.161C327.148,-160.235 395.19,-141.863 434.624,-131.216"/>
<polygon fill="midnightblue" stroke="midnightblue" points="435.726,-134.544 444.467,-128.559 433.901,-127.786 435.726,-134.544"/>
</g>
<!-- Node5 -->
<g id="node6" class="node"><title>Node5</title>
<polygon fill="white" stroke="#bfbfbf" points="196.055,-112.5 196.055,-131.5 248.055,-131.5 248.055,-112.5 196.055,-112.5"/>
<text text-anchor="middle" x="222.055" y="-119.5" font-family="Helvetica,sans-Serif" font-size="10.00">memory</text>
</g>
<!-- Node2&#45;&gt;Node5 -->
<g id="edge5" class="edge"><title>Node2&#45;&gt;Node5</title>
<path fill="none" stroke="midnightblue" d="M257.954,-168.083C251.818,-160.377 242.785,-149.033 235.316,-139.653"/>
<polygon fill="midnightblue" stroke="midnightblue" points="237.991,-137.394 229.023,-131.751 232.515,-141.754 237.991,-137.394"/>
</g>
<!-- Node6 -->
<g id="node7" class="node"><title>Node6</title>
<g id="a_node7"><a xlink:href="Color_8h.html" target="_top" xlink:title="Color.h">
<polygon fill="white" stroke="black" points="345.055,-56.5 345.055,-75.5 393.055,-75.5 393.055,-56.5 345.055,-56.5"/>
<text text-anchor="middle" x="369.055" y="-63.5" font-family="Helvetica,sans-Serif" font-size="10.00">Color.h</text>
</a>
</g>
</g>
<!-- Node2&#45;&gt;Node6 -->
<g id="edge6" class="edge"><title>Node2&#45;&gt;Node6</title>
<path fill="none" stroke="midnightblue" d="M290.448,-171.803C312.203,-165.961 342.557,-154.229 359.055,-132 368.837,-118.821 370.786,-99.9473 370.615,-85.9301"/>
<polygon fill="midnightblue" stroke="midnightblue" points="374.09,-85.3433 370.098,-75.5294 367.099,-85.6909 374.09,-85.3433"/>
</g>
<!-- Node2&#45;&gt;Node7 -->
<g id="edge8" class="edge"><title>Node2&#45;&gt;Node7</title>
<path fill="none" stroke="midnightblue" d="M239.673,-171.015C197.992,-161.186 115.076,-141.634 68.9493,-130.757"/>
<polygon fill="midnightblue" stroke="midnightblue" points="69.6849,-127.334 59.1486,-128.446 68.0783,-134.147 69.6849,-127.334"/>
</g>
<!-- Node10 -->
<g id="node11" class="node"><title>Node10</title>
<g id="a_node11"><a xlink:href="InputManager_8h.html" target="_top" xlink:title="InputManager.h">
<polygon fill="white" stroke="black" points="266.055,-112.5 266.055,-131.5 350.055,-131.5 350.055,-112.5 266.055,-112.5"/>
<text text-anchor="middle" x="308.055" y="-119.5" font-family="Helvetica,sans-Serif" font-size="10.00">InputManager.h</text>
</a>
</g>
</g>
<!-- Node2&#45;&gt;Node10 -->
<g id="edge13" class="edge"><title>Node2&#45;&gt;Node10</title>
<path fill="none" stroke="midnightblue" d="M272.156,-168.083C278.292,-160.377 287.325,-149.033 294.794,-139.653"/>
<polygon fill="midnightblue" stroke="midnightblue" points="297.595,-141.754 301.087,-131.751 292.119,-137.394 297.595,-141.754"/>
</g>
<!-- Node6&#45;&gt;Node3 -->
<g id="edge7" class="edge"><title>Node6&#45;&gt;Node3</title>
<path fill="none" stroke="midnightblue" d="M360.468,-56.083C352.896,-48.2195 341.677,-36.5688 332.541,-27.0813"/>
<polygon fill="midnightblue" stroke="midnightblue" points="334.939,-24.5266 325.482,-19.7511 329.897,-29.3821 334.939,-24.5266"/>
</g>
<!-- Node7&#45;&gt;Node3 -->
<g id="edge9" class="edge"><title>Node7&#45;&gt;Node3</title>
<path fill="none" stroke="midnightblue" d="M26.0474,-112.158C12.1109,-98.7968 -9.84219,-73.1999 5.05495,-56 38.2733,-17.6468 187.056,-11.2447 266.566,-10.6298"/>
<polygon fill="midnightblue" stroke="midnightblue" points="266.857,-14.1285 276.839,-10.5796 266.822,-7.12857 266.857,-14.1285"/>
</g>
<!-- Node7&#45;&gt;Node8 -->
<g id="edge10" class="edge"><title>Node7&#45;&gt;Node8</title>
<path fill="none" stroke="midnightblue" d="M46.3377,-112.324C55.8913,-104.263 70.3346,-92.0765 81.8393,-82.3695"/>
<polygon fill="midnightblue" stroke="midnightblue" points="84.1993,-84.9577 89.5852,-75.8339 79.6852,-79.6076 84.1993,-84.9577"/>
</g>
<!-- Node9 -->
<g id="node10" class="node"><title>Node9</title>
<polygon fill="white" stroke="#bfbfbf" points="14.055,-56.5 14.055,-75.5 58.055,-75.5 58.055,-56.5 14.055,-56.5"/>
<text text-anchor="middle" x="36.055" y="-63.5" font-family="Helvetica,sans-Serif" font-size="10.00">cmath</text>
</g>
<!-- Node7&#45;&gt;Node9 -->
<g id="edge12" class="edge"><title>Node7&#45;&gt;Node9</title>
<path fill="none" stroke="midnightblue" d="M36.055,-112.083C36.055,-105.006 36.055,-94.8611 36.055,-85.9865"/>
<polygon fill="midnightblue" stroke="midnightblue" points="39.5551,-85.751 36.055,-75.7511 32.5551,-85.7511 39.5551,-85.751"/>
</g>
<!-- Node8&#45;&gt;Node3 -->
<g id="edge11" class="edge"><title>Node8&#45;&gt;Node3</title>
<path fill="none" stroke="midnightblue" d="M123.795,-58.2218C126.576,-57.4579 129.375,-56.7025 132.055,-56 178.817,-43.7409 232.528,-30.8021 269.987,-21.9612"/>
<polygon fill="midnightblue" stroke="midnightblue" points="271.17,-25.2785 280.102,-19.5803 269.566,-18.4647 271.17,-25.2785"/>
</g>
<!-- Node10&#45;&gt;Node3 -->
<g id="edge14" class="edge"><title>Node10&#45;&gt;Node3</title>
<path fill="none" stroke="midnightblue" d="M308.761,-112.368C310.214,-94.617 313.564,-53.6664 315.533,-29.5974"/>
<polygon fill="midnightblue" stroke="midnightblue" points="319.025,-29.8436 316.352,-19.5914 312.048,-29.2727 319.025,-29.8436"/>
</g>
<!-- Node10&#45;&gt;Node8 -->
<g id="edge15" class="edge"><title>Node10&#45;&gt;Node8</title>
<path fill="none" stroke="midnightblue" d="M273.593,-112.447C240.077,-104.071 187.481,-90.7779 133.532,-76.3562"/>
<polygon fill="midnightblue" stroke="midnightblue" points="134.369,-72.9571 123.803,-73.7472 132.555,-79.7182 134.369,-72.9571"/>
</g>
<!-- Node11 -->
<g id="node12" class="node"><title>Node11</title>
<polygon fill="white" stroke="#bfbfbf" points="141.555,-56.5 141.555,-75.5 224.555,-75.5 224.555,-56.5 141.555,-56.5"/>
<text text-anchor="middle" x="183.055" y="-63.5" font-family="Helvetica,sans-Serif" font-size="10.00">unordered_map</text>
</g>
<!-- Node10&#45;&gt;Node11 -->
<g id="edge16" class="edge"><title>Node10&#45;&gt;Node11</title>
<path fill="none" stroke="midnightblue" d="M288.248,-112.444C267.768,-103.596 235.572,-89.6875 212.19,-79.5865"/>
<polygon fill="midnightblue" stroke="midnightblue" points="213.337,-76.2692 202.769,-75.5164 210.561,-82.6953 213.337,-76.2692"/>
</g>
<!-- Node12 -->
<g id="node13" class="node"><title>Node12</title>
<polygon fill="white" stroke="#bfbfbf" points="243.055,-56.5 243.055,-75.5 289.055,-75.5 289.055,-56.5 243.055,-56.5"/>
<text text-anchor="middle" x="266.055" y="-63.5" font-family="Helvetica,sans-Serif" font-size="10.00">cstdint</text>
</g>
<!-- Node10&#45;&gt;Node12 -->
<g id="edge17" class="edge"><title>Node10&#45;&gt;Node12</title>
<path fill="none" stroke="midnightblue" d="M301.12,-112.083C295.126,-104.377 286.303,-93.0333 279.007,-83.6531"/>
<polygon fill="midnightblue" stroke="midnightblue" points="281.764,-81.4958 272.861,-75.7511 276.238,-85.7934 281.764,-81.4958"/>
</g>
<!-- Node13&#45;&gt;Node1 -->
<g id="edge22" class="edge"><title>Node13&#45;&gt;Node1</title>
<path fill="none" stroke="midnightblue" d="M162.477,-280.083C169.903,-272.22 180.907,-260.569 189.867,-251.081"/>
<polygon fill="midnightblue" stroke="midnightblue" points="192.468,-253.424 196.79,-243.751 187.379,-248.618 192.468,-253.424"/>
</g>
<!-- Node13&#45;&gt;Node4 -->
<g id="edge25" class="edge"><title>Node13&#45;&gt;Node4</title>
<path fill="none" stroke="midnightblue" d="M173.21,-280.494C192.562,-271.769 223.21,-257.588 249.055,-244 308.633,-212.676 321.188,-200.642 380.055,-168 399.708,-157.102 422.19,-145.225 439.094,-136.411"/>
<polygon fill="midnightblue" stroke="midnightblue" points="441.08,-139.323 448.339,-131.606 437.852,-133.112 441.08,-139.323"/>
</g>
<!-- Node13&#45;&gt;Node7 -->
<g id="edge23" class="edge"><title>Node13&#45;&gt;Node7</title>
<path fill="none" stroke="midnightblue" d="M146.168,-280.287C138.253,-271.4 125.861,-257.096 116.055,-244 89.3896,-208.388 61.4299,-164.305 46.6606,-140.401"/>
<polygon fill="midnightblue" stroke="midnightblue" points="49.5605,-138.435 41.345,-131.745 43.5954,-142.098 49.5605,-138.435"/>
</g>
<!-- Node13&#45;&gt;Node8 -->
<g id="edge24" class="edge"><title>Node13&#45;&gt;Node8</title>
<path fill="none" stroke="midnightblue" d="M151.938,-280.297C143.976,-247.563 115.714,-131.375 104.595,-85.6664"/>
<polygon fill="midnightblue" stroke="midnightblue" points="107.98,-84.7732 102.216,-75.8837 101.179,-86.4277 107.98,-84.7732"/>
</g>
</g>
</svg>
