<?xml version="1.0" encoding="UTF-8" standalone="no"?>
<!DOCTYPE svg PUBLIC "-//W3C//DTD SVG 1.1//EN"
 "http://www.w3.org/Graphics/SVG/1.1/DTD/svg11.dtd">
<!-- Generated by graphviz version 2.38.0 (20140413.2041)
 -->
<!-- Title: src/UIimage.cpp Pages: 1 -->
<svg width="464pt" height="364pt"
 viewBox="0.00 0.00 463.50 364.00" xmlns="http://www.w3.org/2000/svg" xmlns:xlink="http://www.w3.org/1999/xlink">
<g id="graph0" class="graph" transform="scale(1 1) rotate(0) translate(4 360)">
<title>src/UIimage.cpp</title>
<polygon fill="white" stroke="none" points="-4,4 -4,-360 459.5,-360 459.5,4 -4,4"/>
<!-- Node0 -->
<g id="node1" class="node"><title>Node0</title>
<polygon fill="#bfbfbf" stroke="black" points="246,-336.5 246,-355.5 335,-355.5 335,-336.5 246,-336.5"/>
<text text-anchor="middle" x="290.5" y="-343.5" font-family="Helvetica,sans-Serif" font-size="10.00">src/UIimage.cpp</text>
</g>
<!-- Node1 -->
<g id="node2" class="node"><title>Node1</title>
<g id="a_node2"><a xlink:href="UIimage_8h.html" target="_top" xlink:title="UIimage.h">
<polygon fill="white" stroke="black" points="179.5,-280.5 179.5,-299.5 241.5,-299.5 241.5,-280.5 179.5,-280.5"/>
<text text-anchor="middle" x="210.5" y="-287.5" font-family="Helvetica,sans-Serif" font-size="10.00">UIimage.h</text>
</a>
</g>
</g>
<!-- Node0&#45;&gt;Node1 -->
<g id="edge1" class="edge"><title>Node0&#45;&gt;Node1</title>
<path fill="none" stroke="midnightblue" d="M277.647,-336.324C265.284,-327.979 246.37,-315.212 231.763,-305.352"/>
<polygon fill="midnightblue" stroke="midnightblue" points="233.568,-302.348 223.321,-299.655 229.652,-308.15 233.568,-302.348"/>
</g>
<!-- Node14 -->
<g id="node15" class="node"><title>Node14</title>
<g id="a_node15"><a xlink:href="Error_8h.html" target="_top" xlink:title="Error.h">
<polygon fill="white" stroke="black" points="322.5,-280.5 322.5,-299.5 368.5,-299.5 368.5,-280.5 322.5,-280.5"/>
<text text-anchor="middle" x="345.5" y="-287.5" font-family="Helvetica,sans-Serif" font-size="10.00">Error.h</text>
</a>
</g>
</g>
<!-- Node0&#45;&gt;Node14 -->
<g id="edge26" class="edge"><title>Node0&#45;&gt;Node14</title>
<path fill="none" stroke="midnightblue" d="M299.582,-336.083C307.671,-328.141 319.695,-316.335 329.41,-306.797"/>
<polygon fill="midnightblue" stroke="midnightblue" points="331.903,-309.254 336.587,-299.751 326.999,-304.26 331.903,-309.254"/>
</g>
<!-- Node2 -->
<g id="node3" class="node"><title>Node2</title>
<g id="a_node3"><a xlink:href="Color_8h.html" target="_top" xlink:title="Color.h">
<polygon fill="white" stroke="black" points="407.5,-112.5 407.5,-131.5 455.5,-131.5 455.5,-112.5 407.5,-112.5"/>
<text text-anchor="middle" x="431.5" y="-119.5" font-family="Helvetica,sans-Serif" font-size="10.00">Color.h</text>
</a>
</g>
</g>
<!-- Node1&#45;&gt;Node2 -->
<g id="edge2" class="edge"><title>Node1&#45;&gt;Node2</title>
<path fill="none" stroke="midnightblue" d="M222.071,-280.309C257.874,-253.416 367.128,-171.352 411.974,-137.666"/>
<polygon fill="midnightblue" stroke="midnightblue" points="414.15,-140.409 420.044,-131.605 409.946,-134.812 414.15,-140.409"/>
</g>
<!-- Node4 -->
<g id="node5" class="node"><title>Node4</title>
<g id="a_node5"><a xlink:href="Sprite_8h.html" target="_top" xlink:title="Sprite.h">
<polygon fill="white" stroke="black" points="212.5,-168.5 212.5,-187.5 262.5,-187.5 262.5,-168.5 212.5,-168.5"/>
<text text-anchor="middle" x="237.5" y="-175.5" font-family="Helvetica,sans-Serif" font-size="10.00">Sprite.h</text>
</a>
</g>
</g>
<!-- Node1&#45;&gt;Node4 -->
<g id="edge4" class="edge"><title>Node1&#45;&gt;Node4</title>
<path fill="none" stroke="midnightblue" d="M212.619,-280.368C216.976,-262.617 227.027,-221.666 232.935,-197.597"/>
<polygon fill="midnightblue" stroke="midnightblue" points="236.406,-198.137 235.391,-187.591 229.608,-196.469 236.406,-198.137"/>
</g>
<!-- Node5 -->
<g id="node6" class="node"><title>Node5</title>
<polygon fill="white" stroke="#bfbfbf" points="138,-112.5 138,-131.5 179,-131.5 179,-112.5 138,-112.5"/>
<text text-anchor="middle" x="158.5" y="-119.5" font-family="Helvetica,sans-Serif" font-size="10.00">string</text>
</g>
<!-- Node1&#45;&gt;Node5 -->
<g id="edge25" class="edge"><title>Node1&#45;&gt;Node5</title>
<path fill="none" stroke="midnightblue" d="M207.704,-280.075C199.484,-253.832 175.273,-176.545 164.175,-141.117"/>
<polygon fill="midnightblue" stroke="midnightblue" points="167.513,-140.065 161.184,-131.568 160.833,-142.157 167.513,-140.065"/>
</g>
<!-- Node7 -->
<g id="node8" class="node"><title>Node7</title>
<g id="a_node8"><a xlink:href="Rect_8h.html" target="_top" xlink:title="Rect.h">
<polygon fill="white" stroke="black" points="73.5,-112.5 73.5,-131.5 119.5,-131.5 119.5,-112.5 73.5,-112.5"/>
<text text-anchor="middle" x="96.5" y="-119.5" font-family="Helvetica,sans-Serif" font-size="10.00">Rect.h</text>
</a>
</g>
</g>
<!-- Node1&#45;&gt;Node7 -->
<g id="edge19" class="edge"><title>Node1&#45;&gt;Node7</title>
<path fill="none" stroke="midnightblue" d="M179.474,-288.257C147.955,-285.643 100.589,-276.186 77.5,-244 55.1781,-212.883 73.6658,-165.664 86.5918,-140.398"/>
<polygon fill="midnightblue" stroke="midnightblue" points="89.6774,-142.05 91.3369,-131.586 83.5141,-138.731 89.6774,-142.05"/>
</g>
<!-- Node13 -->
<g id="node14" class="node"><title>Node13</title>
<g id="a_node14"><a xlink:href="UIelement_8h.html" target="_top" xlink:title="UIelement.h">
<polygon fill="white" stroke="black" points="86.5,-224.5 86.5,-243.5 156.5,-243.5 156.5,-224.5 86.5,-224.5"/>
<text text-anchor="middle" x="121.5" y="-231.5" font-family="Helvetica,sans-Serif" font-size="10.00">UIelement.h</text>
</a>
</g>
</g>
<!-- Node1&#45;&gt;Node13 -->
<g id="edge20" class="edge"><title>Node1&#45;&gt;Node13</title>
<path fill="none" stroke="midnightblue" d="M196.201,-280.324C182.317,-271.9 161.008,-258.971 144.696,-249.074"/>
<polygon fill="midnightblue" stroke="midnightblue" points="146.129,-245.85 135.764,-243.655 142.498,-251.834 146.129,-245.85"/>
</g>
<!-- Node3 -->
<g id="node4" class="node"><title>Node3</title>
<g id="a_node4"><a xlink:href="SDL__include_8h.html" target="_top" xlink:title="SDL_include.h">
<polygon fill="white" stroke="black" points="237.5,-0.5 237.5,-19.5 317.5,-19.5 317.5,-0.5 237.5,-0.5"/>
<text text-anchor="middle" x="277.5" y="-7.5" font-family="Helvetica,sans-Serif" font-size="10.00">SDL_include.h</text>
</a>
</g>
</g>
<!-- Node2&#45;&gt;Node3 -->
<g id="edge3" class="edge"><title>Node2&#45;&gt;Node3</title>
<path fill="none" stroke="midnightblue" d="M428.517,-112.17C423.427,-98.3559 411.804,-71.6031 393.5,-56 374.598,-39.8869 349.274,-29.17 327.11,-22.2526"/>
<polygon fill="midnightblue" stroke="midnightblue" points="328.09,-18.8928 317.509,-19.426 326.113,-25.6078 328.09,-18.8928"/>
</g>
<!-- Node4&#45;&gt;Node2 -->
<g id="edge8" class="edge"><title>Node4&#45;&gt;Node2</title>
<path fill="none" stroke="midnightblue" d="M262.862,-169.94C297.369,-160.335 359.205,-143.123 397.644,-132.424"/>
<polygon fill="midnightblue" stroke="midnightblue" points="398.657,-135.775 407.353,-129.721 396.78,-129.031 398.657,-135.775"/>
</g>
<!-- Node4&#45;&gt;Node3 -->
<g id="edge5" class="edge"><title>Node4&#45;&gt;Node3</title>
<path fill="none" stroke="midnightblue" d="M262.669,-171.368C295.199,-163.52 349.036,-148.401 360.5,-132 379.851,-104.315 377.779,-85.0236 360.5,-56 351.404,-40.7208 335.112,-30.3102 319.356,-23.3857"/>
<polygon fill="midnightblue" stroke="midnightblue" points="320.269,-19.9811 309.685,-19.5124 317.667,-26.4794 320.269,-19.9811"/>
</g>
<!-- Node4&#45;&gt;Node5 -->
<g id="edge6" class="edge"><title>Node4&#45;&gt;Node5</title>
<path fill="none" stroke="midnightblue" d="M224.807,-168.324C212.599,-159.979 193.922,-147.212 179.497,-137.352"/>
<polygon fill="midnightblue" stroke="midnightblue" points="181.392,-134.408 171.161,-131.655 177.442,-140.187 181.392,-134.408"/>
</g>
<!-- Node6 -->
<g id="node7" class="node"><title>Node6</title>
<polygon fill="white" stroke="#bfbfbf" points="299.5,-112.5 299.5,-131.5 351.5,-131.5 351.5,-112.5 299.5,-112.5"/>
<text text-anchor="middle" x="325.5" y="-119.5" font-family="Helvetica,sans-Serif" font-size="10.00">memory</text>
</g>
<!-- Node4&#45;&gt;Node6 -->
<g id="edge7" class="edge"><title>Node4&#45;&gt;Node6</title>
<path fill="none" stroke="midnightblue" d="M251.639,-168.324C265.366,-159.9 286.436,-146.971 302.564,-137.074"/>
<polygon fill="midnightblue" stroke="midnightblue" points="304.704,-139.868 311.396,-131.655 301.043,-133.902 304.704,-139.868"/>
</g>
<!-- Node4&#45;&gt;Node7 -->
<g id="edge9" class="edge"><title>Node4&#45;&gt;Node7</title>
<path fill="none" stroke="midnightblue" d="M215.158,-168.444C191.747,-159.478 154.764,-145.314 128.31,-135.183"/>
<polygon fill="midnightblue" stroke="midnightblue" points="129.328,-131.824 118.737,-131.516 126.824,-138.361 129.328,-131.824"/>
</g>
<!-- Node10 -->
<g id="node11" class="node"><title>Node10</title>
<g id="a_node11"><a xlink:href="InputManager_8h.html" target="_top" xlink:title="InputManager.h">
<polygon fill="white" stroke="black" points="197.5,-112.5 197.5,-131.5 281.5,-131.5 281.5,-112.5 197.5,-112.5"/>
<text text-anchor="middle" x="239.5" y="-119.5" font-family="Helvetica,sans-Serif" font-size="10.00">InputManager.h</text>
</a>
</g>
</g>
<!-- Node4&#45;&gt;Node10 -->
<g id="edge14" class="edge"><title>Node4&#45;&gt;Node10</title>
<path fill="none" stroke="midnightblue" d="M237.83,-168.083C238.092,-161.006 238.468,-150.861 238.797,-141.986"/>
<polygon fill="midnightblue" stroke="midnightblue" points="242.303,-141.874 239.176,-131.751 235.308,-141.615 242.303,-141.874"/>
</g>
<!-- Node7&#45;&gt;Node3 -->
<g id="edge10" class="edge"><title>Node7&#45;&gt;Node3</title>
<path fill="none" stroke="midnightblue" d="M93.0731,-112.347C88.3242,-98.7756 81.684,-72.3492 94.5,-56 110.753,-35.2662 178.978,-22.8105 227.354,-16.4229"/>
<polygon fill="midnightblue" stroke="midnightblue" points="227.871,-19.8853 237.35,-15.1511 226.988,-12.9413 227.871,-19.8853"/>
</g>
<!-- Node8 -->
<g id="node9" class="node"><title>Node8</title>
<g id="a_node9"><a xlink:href="Vec2_8h.html" target="_top" xlink:title="Vec2.h">
<polygon fill="white" stroke="black" points="0,-56.5 0,-75.5 47,-75.5 47,-56.5 0,-56.5"/>
<text text-anchor="middle" x="23.5" y="-63.5" font-family="Helvetica,sans-Serif" font-size="10.00">Vec2.h</text>
</a>
</g>
</g>
<!-- Node7&#45;&gt;Node8 -->
<g id="edge11" class="edge"><title>Node7&#45;&gt;Node8</title>
<path fill="none" stroke="midnightblue" d="M84.7713,-112.324C73.6626,-104.107 56.7578,-91.6017 43.5167,-81.8069"/>
<polygon fill="midnightblue" stroke="midnightblue" points="45.5631,-78.9671 35.4421,-75.8339 41.4001,-84.5948 45.5631,-78.9671"/>
</g>
<!-- Node9 -->
<g id="node10" class="node"><title>Node9</title>
<polygon fill="white" stroke="#bfbfbf" points="103.5,-56.5 103.5,-75.5 147.5,-75.5 147.5,-56.5 103.5,-56.5"/>
<text text-anchor="middle" x="125.5" y="-63.5" font-family="Helvetica,sans-Serif" font-size="10.00">cmath</text>
</g>
<!-- Node7&#45;&gt;Node9 -->
<g id="edge13" class="edge"><title>Node7&#45;&gt;Node9</title>
<path fill="none" stroke="midnightblue" d="M101.289,-112.083C105.258,-104.691 111.025,-93.9533 115.935,-84.8111"/>
<polygon fill="midnightblue" stroke="midnightblue" points="119.153,-86.217 120.8,-75.7511 112.986,-82.9051 119.153,-86.217"/>
</g>
<!-- Node8&#45;&gt;Node3 -->
<g id="edge12" class="edge"><title>Node8&#45;&gt;Node3</title>
<path fill="none" stroke="midnightblue" d="M47.1938,-59.2834C51.9272,-58.171 56.8675,-57.0309 61.5,-56 118.216,-43.3783 183.554,-29.9153 227.385,-21.0391"/>
<polygon fill="midnightblue" stroke="midnightblue" points="228.114,-24.4627 237.222,-19.051 226.727,-17.6015 228.114,-24.4627"/>
</g>
<!-- Node10&#45;&gt;Node3 -->
<g id="edge15" class="edge"><title>Node10&#45;&gt;Node3</title>
<path fill="none" stroke="midnightblue" d="M243.162,-112.453C246.958,-103.459 252.961,-88.8531 257.5,-76 262.968,-60.5183 268.397,-42.6761 272.216,-29.6063"/>
<polygon fill="midnightblue" stroke="midnightblue" points="275.605,-30.4848 275.011,-19.9066 268.879,-28.5467 275.605,-30.4848"/>
</g>
<!-- Node10&#45;&gt;Node8 -->
<g id="edge16" class="edge"><title>Node10&#45;&gt;Node8</title>
<path fill="none" stroke="midnightblue" d="M205.274,-112.444C164.675,-102.294 97.4329,-85.4832 57.1069,-75.4017"/>
<polygon fill="midnightblue" stroke="midnightblue" points="57.7735,-71.9607 47.2231,-72.9308 56.0757,-78.7517 57.7735,-71.9607"/>
</g>
<!-- Node11 -->
<g id="node12" class="node"><title>Node11</title>
<polygon fill="white" stroke="#bfbfbf" points="166,-56.5 166,-75.5 249,-75.5 249,-56.5 166,-56.5"/>
<text text-anchor="middle" x="207.5" y="-63.5" font-family="Helvetica,sans-Serif" font-size="10.00">unordered_map</text>
</g>
<!-- Node10&#45;&gt;Node11 -->
<g id="edge17" class="edge"><title>Node10&#45;&gt;Node11</title>
<path fill="none" stroke="midnightblue" d="M234.216,-112.083C229.789,-104.613 223.337,-93.7244 217.882,-84.5199"/>
<polygon fill="midnightblue" stroke="midnightblue" points="220.795,-82.5697 212.686,-75.7511 214.773,-86.1383 220.795,-82.5697"/>
</g>
<!-- Node12 -->
<g id="node13" class="node"><title>Node12</title>
<polygon fill="white" stroke="#bfbfbf" points="305.5,-56.5 305.5,-75.5 351.5,-75.5 351.5,-56.5 305.5,-56.5"/>
<text text-anchor="middle" x="328.5" y="-63.5" font-family="Helvetica,sans-Serif" font-size="10.00">cstdint</text>
</g>
<!-- Node10&#45;&gt;Node12 -->
<g id="edge18" class="edge"><title>Node10&#45;&gt;Node12</title>
<path fill="none" stroke="midnightblue" d="M253.799,-112.324C267.683,-103.9 288.992,-90.9709 305.304,-81.0741"/>
<polygon fill="midnightblue" stroke="midnightblue" points="307.502,-83.8341 314.236,-75.6545 303.871,-77.8495 307.502,-83.8341"/>
</g>
<!-- Node13&#45;&gt;Node4 -->
<g id="edge21" class="edge"><title>Node13&#45;&gt;Node4</title>
<path fill="none" stroke="midnightblue" d="M139.881,-224.444C158.716,-215.675 188.231,-201.935 209.879,-191.858"/>
<polygon fill="midnightblue" stroke="midnightblue" points="211.617,-194.91 219.205,-187.516 208.662,-188.564 211.617,-194.91"/>
</g>
<!-- Node13&#45;&gt;Node5 -->
<g id="edge24" class="edge"><title>Node13&#45;&gt;Node5</title>
<path fill="none" stroke="midnightblue" d="M124.403,-224.368C130.401,-206.537 144.273,-165.295 152.354,-141.272"/>
<polygon fill="midnightblue" stroke="midnightblue" points="155.739,-142.185 155.61,-131.591 149.105,-139.954 155.739,-142.185"/>
</g>
<!-- Node13&#45;&gt;Node7 -->
<g id="edge22" class="edge"><title>Node13&#45;&gt;Node7</title>
<path fill="none" stroke="midnightblue" d="M119.538,-224.368C115.504,-206.617 106.197,-165.666 100.727,-141.597"/>
<polygon fill="midnightblue" stroke="midnightblue" points="104.082,-140.567 98.4526,-131.591 97.2559,-142.118 104.082,-140.567"/>
</g>
<!-- Node13&#45;&gt;Node8 -->
<g id="edge23" class="edge"><title>Node13&#45;&gt;Node8</title>
<path fill="none" stroke="midnightblue" d="M116.231,-224.075C100.605,-197.606 54.3221,-119.209 33.6599,-84.2097"/>
<polygon fill="midnightblue" stroke="midnightblue" points="36.6561,-82.4001 28.5583,-75.5681 30.6282,-85.9588 36.6561,-82.4001"/>
</g>
<!-- Node15 -->
<g id="node16" class="node"><title>Node15</title>
<polygon fill="white" stroke="#bfbfbf" points="318.5,-224.5 318.5,-243.5 372.5,-243.5 372.5,-224.5 318.5,-224.5"/>
<text text-anchor="middle" x="345.5" y="-231.5" font-family="Helvetica,sans-Serif" font-size="10.00">iostream</text>
</g>
<!-- Node14&#45;&gt;Node15 -->
<g id="edge27" class="edge"><title>Node14&#45;&gt;Node15</title>
<path fill="none" stroke="midnightblue" d="M345.5,-280.083C345.5,-273.006 345.5,-262.861 345.5,-253.986"/>
<polygon fill="midnightblue" stroke="midnightblue" points="349,-253.751 345.5,-243.751 342,-253.751 349,-253.751"/>
</g>
<!-- Node16 -->
<g id="node17" class="node"><title>Node16</title>
<polygon fill="white" stroke="#bfbfbf" points="390.5,-224.5 390.5,-243.5 438.5,-243.5 438.5,-224.5 390.5,-224.5"/>
<text text-anchor="middle" x="414.5" y="-231.5" font-family="Helvetica,sans-Serif" font-size="10.00">stdlib.h</text>
</g>
<!-- Node14&#45;&gt;Node16 -->
<g id="edge28" class="edge"><title>Node14&#45;&gt;Node16</title>
<path fill="none" stroke="midnightblue" d="M356.586,-280.324C366.986,-272.185 382.761,-259.839 395.222,-250.087"/>
<polygon fill="midnightblue" stroke="midnightblue" points="397.494,-252.753 403.212,-243.834 393.18,-247.241 397.494,-252.753"/>
</g>
</g>
</svg>
