<?xml version="1.0" encoding="UTF-8" standalone="no"?>
<!DOCTYPE svg PUBLIC "-//W3C//DTD SVG 1.1//EN"
 "http://www.w3.org/Graphics/SVG/1.1/DTD/svg11.dtd">
<!-- Generated by graphviz version 2.38.0 (20140413.2041)
 -->
<!-- Title: src/UIimageButton.cpp Pages: 1 -->
<svg width="726pt" height="420pt"
 viewBox="0.00 0.00 725.66 420.00" xmlns="http://www.w3.org/2000/svg" xmlns:xlink="http://www.w3.org/1999/xlink">
<g id="graph0" class="graph" transform="scale(1 1) rotate(0) translate(4 416)">
<title>src/UIimageButton.cpp</title>
<polygon fill="white" stroke="none" points="-4,4 -4,-416 721.661,-416 721.661,4 -4,4"/>
<!-- Node0 -->
<g id="node1" class="node"><title>Node0</title>
<polygon fill="#bfbfbf" stroke="black" points="443.161,-392.5 443.161,-411.5 560.161,-411.5 560.161,-392.5 443.161,-392.5"/>
<text text-anchor="middle" x="501.661" y="-399.5" font-family="Helvetica,sans-Serif" font-size="10.00">src/UIimageButton.cpp</text>
</g>
<!-- Node1 -->
<g id="node2" class="node"><title>Node1</title>
<g id="a_node2"><a xlink:href="UIimageButton_8h.html" target="_top" xlink:title="UIimageButton.h">
<polygon fill="white" stroke="black" points="338.661,-336.5 338.661,-355.5 428.661,-355.5 428.661,-336.5 338.661,-336.5"/>
<text text-anchor="middle" x="383.661" y="-343.5" font-family="Helvetica,sans-Serif" font-size="10.00">UIimageButton.h</text>
</a>
</g>
</g>
<!-- Node0&#45;&gt;Node1 -->
<g id="edge1" class="edge"><title>Node0&#45;&gt;Node1</title>
<path fill="none" stroke="midnightblue" d="M482.963,-392.444C463.716,-383.636 433.508,-369.812 411.46,-359.722"/>
<polygon fill="midnightblue" stroke="midnightblue" points="412.82,-356.495 402.271,-355.516 409.907,-362.86 412.82,-356.495"/>
</g>
<!-- Node16 -->
<g id="node17" class="node"><title>Node16</title>
<g id="a_node17"><a xlink:href="Error_8h.html" target="_top" xlink:title="Error.h">
<polygon fill="white" stroke="black" points="601.661,-336.5 601.661,-355.5 647.661,-355.5 647.661,-336.5 601.661,-336.5"/>
<text text-anchor="middle" x="624.661" y="-343.5" font-family="Helvetica,sans-Serif" font-size="10.00">Error.h</text>
</a>
</g>
</g>
<!-- Node0&#45;&gt;Node16 -->
<g id="edge35" class="edge"><title>Node0&#45;&gt;Node16</title>
<path fill="none" stroke="midnightblue" d="M521.15,-392.444C541.303,-383.596 572.984,-369.687 595.991,-359.586"/>
<polygon fill="midnightblue" stroke="midnightblue" points="597.513,-362.741 605.262,-355.516 594.699,-356.332 597.513,-362.741"/>
</g>
<!-- Node2 -->
<g id="node3" class="node"><title>Node2</title>
<g id="a_node3"><a xlink:href="Color_8h.html" target="_top" xlink:title="Color.h">
<polygon fill="white" stroke="black" points="30.6606,-112.5 30.6606,-131.5 78.6606,-131.5 78.6606,-112.5 30.6606,-112.5"/>
<text text-anchor="middle" x="54.6606" y="-119.5" font-family="Helvetica,sans-Serif" font-size="10.00">Color.h</text>
</a>
</g>
</g>
<!-- Node1&#45;&gt;Node2 -->
<g id="edge2" class="edge"><title>Node1&#45;&gt;Node2</title>
<path fill="none" stroke="midnightblue" d="M338.524,-337.662C306.782,-331.125 264.165,-319.494 230.661,-300 156.736,-256.988 92.1874,-175.094 66.4964,-139.835"/>
<polygon fill="midnightblue" stroke="midnightblue" points="69.2337,-137.646 60.5609,-131.56 63.5458,-141.726 69.2337,-137.646"/>
</g>
<!-- Node4 -->
<g id="node5" class="node"><title>Node4</title>
<g id="a_node5"><a xlink:href="Sprite_8h.html" target="_top" xlink:title="Sprite.h">
<polygon fill="white" stroke="black" points="183.661,-168.5 183.661,-187.5 233.661,-187.5 233.661,-168.5 183.661,-168.5"/>
<text text-anchor="middle" x="208.661" y="-175.5" font-family="Helvetica,sans-Serif" font-size="10.00">Sprite.h</text>
</a>
</g>
</g>
<!-- Node1&#45;&gt;Node4 -->
<g id="edge4" class="edge"><title>Node1&#45;&gt;Node4</title>
<path fill="none" stroke="midnightblue" d="M338.56,-339.706C309.887,-334.178 273.758,-322.914 249.661,-300 220.957,-272.707 212.348,-224.614 209.766,-198.02"/>
<polygon fill="midnightblue" stroke="midnightblue" points="213.234,-197.462 208.971,-187.763 206.255,-198.004 213.234,-197.462"/>
</g>
<!-- Node5 -->
<g id="node6" class="node"><title>Node5</title>
<polygon fill="white" stroke="#bfbfbf" points="307.161,-112.5 307.161,-131.5 348.161,-131.5 348.161,-112.5 307.161,-112.5"/>
<text text-anchor="middle" x="327.661" y="-119.5" font-family="Helvetica,sans-Serif" font-size="10.00">string</text>
</g>
<!-- Node1&#45;&gt;Node5 -->
<g id="edge34" class="edge"><title>Node1&#45;&gt;Node5</title>
<path fill="none" stroke="midnightblue" d="M382.89,-336.374C380.979,-316.372 375.378,-265.376 364.661,-224 356.96,-194.272 343.885,-161.061 335.518,-141.108"/>
<polygon fill="midnightblue" stroke="midnightblue" points="338.663,-139.558 331.522,-131.732 332.223,-142.303 338.663,-139.558"/>
</g>
<!-- Node7 -->
<g id="node8" class="node"><title>Node7</title>
<g id="a_node8"><a xlink:href="Rect_8h.html" target="_top" xlink:title="Rect.h">
<polygon fill="white" stroke="black" points="451.661,-112.5 451.661,-131.5 497.661,-131.5 497.661,-112.5 451.661,-112.5"/>
<text text-anchor="middle" x="474.661" y="-119.5" font-family="Helvetica,sans-Serif" font-size="10.00">Rect.h</text>
</a>
</g>
</g>
<!-- Node1&#45;&gt;Node7 -->
<g id="edge19" class="edge"><title>Node1&#45;&gt;Node7</title>
<path fill="none" stroke="midnightblue" d="M394.6,-336.205C420.687,-314.435 486.125,-254.93 509.661,-188 515.858,-170.378 503.653,-151.752 491.992,-138.978"/>
<polygon fill="midnightblue" stroke="midnightblue" points="494.479,-136.515 484.971,-131.841 489.489,-141.424 494.479,-136.515"/>
</g>
<!-- Node13 -->
<g id="node14" class="node"><title>Node13</title>
<g id="a_node14"><a xlink:href="UIimage_8h.html" target="_top" xlink:title="UIimage.h">
<polygon fill="white" stroke="black" points="258.661,-280.5 258.661,-299.5 320.661,-299.5 320.661,-280.5 258.661,-280.5"/>
<text text-anchor="middle" x="289.661" y="-287.5" font-family="Helvetica,sans-Serif" font-size="10.00">UIimage.h</text>
</a>
</g>
</g>
<!-- Node1&#45;&gt;Node13 -->
<g id="edge20" class="edge"><title>Node1&#45;&gt;Node13</title>
<path fill="none" stroke="midnightblue" d="M368.558,-336.324C353.757,-327.822 330.966,-314.729 313.678,-304.797"/>
<polygon fill="midnightblue" stroke="midnightblue" points="315.14,-301.601 304.726,-299.655 311.653,-307.671 315.14,-301.601"/>
</g>
<!-- Node15 -->
<g id="node16" class="node"><title>Node15</title>
<g id="a_node16"><a xlink:href="UIbutton_8h.html" target="_top" xlink:title="UIbutton.h">
<polygon fill="white" stroke="black" points="403.661,-168.5 403.661,-187.5 465.661,-187.5 465.661,-168.5 403.661,-168.5"/>
<text text-anchor="middle" x="434.661" y="-175.5" font-family="Helvetica,sans-Serif" font-size="10.00">UIbutton.h</text>
</a>
</g>
</g>
<!-- Node1&#45;&gt;Node15 -->
<g id="edge30" class="edge"><title>Node1&#45;&gt;Node15</title>
<path fill="none" stroke="midnightblue" d="M386.357,-336.377C389.185,-327.322 393.754,-312.666 397.661,-300 408.895,-263.576 421.899,-220.938 429.112,-197.245"/>
<polygon fill="midnightblue" stroke="midnightblue" points="432.51,-198.099 432.073,-187.513 425.813,-196.061 432.51,-198.099"/>
</g>
<!-- Node3 -->
<g id="node4" class="node"><title>Node3</title>
<g id="a_node4"><a xlink:href="SDL__include_8h.html" target="_top" xlink:title="SDL_include.h">
<polygon fill="white" stroke="black" points="187.661,-0.5 187.661,-19.5 267.661,-19.5 267.661,-0.5 187.661,-0.5"/>
<text text-anchor="middle" x="227.661" y="-7.5" font-family="Helvetica,sans-Serif" font-size="10.00">SDL_include.h</text>
</a>
</g>
</g>
<!-- Node2&#45;&gt;Node3 -->
<g id="edge3" class="edge"><title>Node2&#45;&gt;Node3</title>
<path fill="none" stroke="midnightblue" d="M39.7656,-112.459C19.7432,-99.9105 -11.5695,-75.8324 4.66059,-56 26.0156,-29.9052 118.089,-18.601 177.045,-13.9659"/>
<polygon fill="midnightblue" stroke="midnightblue" points="177.572,-17.4364 187.284,-13.2014 177.051,-10.4558 177.572,-17.4364"/>
</g>
<!-- Node4&#45;&gt;Node2 -->
<g id="edge8" class="edge"><title>Node4&#45;&gt;Node2</title>
<path fill="none" stroke="midnightblue" d="M184.259,-168.444C158.388,-159.372 117.343,-144.98 88.3878,-134.826"/>
<polygon fill="midnightblue" stroke="midnightblue" points="89.2895,-131.434 78.6947,-131.428 86.9732,-138.039 89.2895,-131.434"/>
</g>
<!-- Node4&#45;&gt;Node3 -->
<g id="edge5" class="edge"><title>Node4&#45;&gt;Node3</title>
<path fill="none" stroke="midnightblue" d="M209.682,-168.075C212.673,-141.945 221.456,-65.2106 225.534,-29.577"/>
<polygon fill="midnightblue" stroke="midnightblue" points="229.02,-29.9013 226.68,-19.5681 222.065,-29.1052 229.02,-29.9013"/>
</g>
<!-- Node4&#45;&gt;Node5 -->
<g id="edge6" class="edge"><title>Node4&#45;&gt;Node5</title>
<path fill="none" stroke="midnightblue" d="M227.516,-168.444C246.927,-159.636 277.391,-145.812 299.625,-135.722"/>
<polygon fill="midnightblue" stroke="midnightblue" points="301.233,-138.836 308.893,-131.516 298.34,-132.462 301.233,-138.836"/>
</g>
<!-- Node6 -->
<g id="node7" class="node"><title>Node6</title>
<polygon fill="white" stroke="#bfbfbf" points="236.661,-112.5 236.661,-131.5 288.661,-131.5 288.661,-112.5 236.661,-112.5"/>
<text text-anchor="middle" x="262.661" y="-119.5" font-family="Helvetica,sans-Serif" font-size="10.00">memory</text>
</g>
<!-- Node4&#45;&gt;Node6 -->
<g id="edge7" class="edge"><title>Node4&#45;&gt;Node6</title>
<path fill="none" stroke="midnightblue" d="M217.578,-168.083C225.441,-160.22 237.092,-148.569 246.579,-139.081"/>
<polygon fill="midnightblue" stroke="midnightblue" points="249.313,-141.297 253.91,-131.751 244.364,-136.347 249.313,-141.297"/>
</g>
<!-- Node4&#45;&gt;Node7 -->
<g id="edge9" class="edge"><title>Node4&#45;&gt;Node7</title>
<path fill="none" stroke="midnightblue" d="M233.685,-171.92C281.82,-162.148 387.311,-140.733 441.335,-129.765"/>
<polygon fill="midnightblue" stroke="midnightblue" points="442.318,-133.137 451.421,-127.718 440.925,-126.277 442.318,-133.137"/>
</g>
<!-- Node10 -->
<g id="node11" class="node"><title>Node10</title>
<g id="a_node11"><a xlink:href="InputManager_8h.html" target="_top" xlink:title="InputManager.h">
<polygon fill="white" stroke="black" points="96.6606,-112.5 96.6606,-131.5 180.661,-131.5 180.661,-112.5 96.6606,-112.5"/>
<text text-anchor="middle" x="138.661" y="-119.5" font-family="Helvetica,sans-Serif" font-size="10.00">InputManager.h</text>
</a>
</g>
</g>
<!-- Node4&#45;&gt;Node10 -->
<g id="edge14" class="edge"><title>Node4&#45;&gt;Node10</title>
<path fill="none" stroke="midnightblue" d="M197.414,-168.324C186.863,-160.185 170.86,-147.839 158.218,-138.087"/>
<polygon fill="midnightblue" stroke="midnightblue" points="160.168,-135.171 150.112,-131.834 155.892,-140.713 160.168,-135.171"/>
</g>
<!-- Node7&#45;&gt;Node3 -->
<g id="edge10" class="edge"><title>Node7&#45;&gt;Node3</title>
<path fill="none" stroke="midnightblue" d="M468.153,-112.372C457.099,-98.3439 433.252,-70.6849 406.661,-56 366.535,-33.8404 315.36,-22.3948 278.014,-16.6088"/>
<polygon fill="midnightblue" stroke="midnightblue" points="278.27,-13.1089 267.868,-15.1227 277.255,-20.035 278.27,-13.1089"/>
</g>
<!-- Node8 -->
<g id="node9" class="node"><title>Node8</title>
<g id="a_node9"><a xlink:href="Vec2_8h.html" target="_top" xlink:title="Vec2.h">
<polygon fill="white" stroke="black" points="351.161,-56.5 351.161,-75.5 398.161,-75.5 398.161,-56.5 351.161,-56.5"/>
<text text-anchor="middle" x="374.661" y="-63.5" font-family="Helvetica,sans-Serif" font-size="10.00">Vec2.h</text>
</a>
</g>
</g>
<!-- Node7&#45;&gt;Node8 -->
<g id="edge11" class="edge"><title>Node7&#45;&gt;Node8</title>
<path fill="none" stroke="midnightblue" d="M458.594,-112.324C442.703,-103.743 418.153,-90.486 399.702,-80.5224"/>
<polygon fill="midnightblue" stroke="midnightblue" points="401.15,-77.3264 390.687,-75.6545 397.823,-83.4857 401.15,-77.3264"/>
</g>
<!-- Node9 -->
<g id="node10" class="node"><title>Node9</title>
<polygon fill="white" stroke="#bfbfbf" points="454.661,-56.5 454.661,-75.5 498.661,-75.5 498.661,-56.5 454.661,-56.5"/>
<text text-anchor="middle" x="476.661" y="-63.5" font-family="Helvetica,sans-Serif" font-size="10.00">cmath</text>
</g>
<!-- Node7&#45;&gt;Node9 -->
<g id="edge13" class="edge"><title>Node7&#45;&gt;Node9</title>
<path fill="none" stroke="midnightblue" d="M474.991,-112.083C475.253,-105.006 475.629,-94.8611 475.957,-85.9865"/>
<polygon fill="midnightblue" stroke="midnightblue" points="479.464,-85.8738 476.336,-75.7511 472.469,-85.6147 479.464,-85.8738"/>
</g>
<!-- Node8&#45;&gt;Node3 -->
<g id="edge12" class="edge"><title>Node8&#45;&gt;Node3</title>
<path fill="none" stroke="midnightblue" d="M351.368,-56.4435C326.853,-47.4381 288.064,-33.1891 260.461,-23.049"/>
<polygon fill="midnightblue" stroke="midnightblue" points="261.438,-19.6793 250.844,-19.5164 259.024,-26.25 261.438,-19.6793"/>
</g>
<!-- Node10&#45;&gt;Node3 -->
<g id="edge15" class="edge"><title>Node10&#45;&gt;Node3</title>
<path fill="none" stroke="midnightblue" d="M145.644,-112.368C160.397,-94.135 194.953,-51.4257 214.169,-27.6752"/>
<polygon fill="midnightblue" stroke="midnightblue" points="217.14,-29.567 220.709,-19.5914 211.698,-25.164 217.14,-29.567"/>
</g>
<!-- Node10&#45;&gt;Node8 -->
<g id="edge16" class="edge"><title>Node10&#45;&gt;Node8</title>
<path fill="none" stroke="midnightblue" d="M176.055,-112.444C221.539,-102.036 297.627,-84.6264 341.236,-74.648"/>
<polygon fill="midnightblue" stroke="midnightblue" points="342.098,-78.0413 351.066,-72.3989 340.537,-71.2176 342.098,-78.0413"/>
</g>
<!-- Node11 -->
<g id="node12" class="node"><title>Node11</title>
<polygon fill="white" stroke="#bfbfbf" points="78.1606,-56.5 78.1606,-75.5 161.161,-75.5 161.161,-56.5 78.1606,-56.5"/>
<text text-anchor="middle" x="119.661" y="-63.5" font-family="Helvetica,sans-Serif" font-size="10.00">unordered_map</text>
</g>
<!-- Node10&#45;&gt;Node11 -->
<g id="edge17" class="edge"><title>Node10&#45;&gt;Node11</title>
<path fill="none" stroke="midnightblue" d="M135.523,-112.083C132.978,-104.849 129.304,-94.4087 126.134,-85.3968"/>
<polygon fill="midnightblue" stroke="midnightblue" points="129.36,-84.0225 122.74,-75.7511 122.757,-86.3459 129.36,-84.0225"/>
</g>
<!-- Node12 -->
<g id="node13" class="node"><title>Node12</title>
<polygon fill="white" stroke="#bfbfbf" points="13.6606,-56.5 13.6606,-75.5 59.6606,-75.5 59.6606,-56.5 13.6606,-56.5"/>
<text text-anchor="middle" x="36.6606" y="-63.5" font-family="Helvetica,sans-Serif" font-size="10.00">cstdint</text>
</g>
<!-- Node10&#45;&gt;Node12 -->
<g id="edge18" class="edge"><title>Node10&#45;&gt;Node12</title>
<path fill="none" stroke="midnightblue" d="M122.273,-112.324C105.989,-103.703 80.7931,-90.3643 61.9443,-80.3855"/>
<polygon fill="midnightblue" stroke="midnightblue" points="63.4835,-77.2402 53.008,-75.6545 60.2082,-83.4267 63.4835,-77.2402"/>
</g>
<!-- Node13&#45;&gt;Node2 -->
<g id="edge21" class="edge"><title>Node13&#45;&gt;Node2</title>
<path fill="none" stroke="midnightblue" d="M277.357,-280.309C239.207,-253.36 122.626,-171.01 75.1262,-137.457"/>
<polygon fill="midnightblue" stroke="midnightblue" points="77.0297,-134.516 66.8425,-131.605 72.9909,-140.233 77.0297,-134.516"/>
</g>
<!-- Node13&#45;&gt;Node4 -->
<g id="edge22" class="edge"><title>Node13&#45;&gt;Node4</title>
<path fill="none" stroke="midnightblue" d="M279.265,-280.466C269.31,-271.94 254.275,-258.104 243.661,-244 232.606,-229.311 222.951,-210.677 216.598,-197.129"/>
<polygon fill="midnightblue" stroke="midnightblue" points="219.735,-195.571 212.415,-187.911 213.36,-198.464 219.735,-195.571"/>
</g>
<!-- Node13&#45;&gt;Node5 -->
<g id="edge29" class="edge"><title>Node13&#45;&gt;Node5</title>
<path fill="none" stroke="midnightblue" d="M285.454,-280.124C280.054,-267.568 271.915,-243.927 276.661,-224 284.209,-192.306 303.384,-159.285 315.952,-139.96"/>
<polygon fill="midnightblue" stroke="midnightblue" points="318.866,-141.898 321.511,-131.639 313.045,-138.01 318.866,-141.898"/>
</g>
<!-- Node13&#45;&gt;Node7 -->
<g id="edge23" class="edge"><title>Node13&#45;&gt;Node7</title>
<path fill="none" stroke="midnightblue" d="M320.898,-283.907C367.771,-274.399 454.832,-249.073 492.661,-188 501.778,-173.28 494.357,-153.877 486.461,-140.113"/>
<polygon fill="midnightblue" stroke="midnightblue" points="489.402,-138.215 481.116,-131.612 483.476,-141.941 489.402,-138.215"/>
</g>
<!-- Node14 -->
<g id="node15" class="node"><title>Node14</title>
<g id="a_node15"><a xlink:href="UIelement_8h.html" target="_top" xlink:title="UIelement.h">
<polygon fill="white" stroke="black" points="285.661,-224.5 285.661,-243.5 355.661,-243.5 355.661,-224.5 285.661,-224.5"/>
<text text-anchor="middle" x="320.661" y="-231.5" font-family="Helvetica,sans-Serif" font-size="10.00">UIelement.h</text>
</a>
</g>
</g>
<!-- Node13&#45;&gt;Node14 -->
<g id="edge24" class="edge"><title>Node13&#45;&gt;Node14</title>
<path fill="none" stroke="midnightblue" d="M294.78,-280.083C299.068,-272.613 305.319,-261.724 310.603,-252.52"/>
<polygon fill="midnightblue" stroke="midnightblue" points="313.693,-254.166 315.637,-243.751 307.623,-250.681 313.693,-254.166"/>
</g>
<!-- Node14&#45;&gt;Node4 -->
<g id="edge25" class="edge"><title>Node14&#45;&gt;Node4</title>
<path fill="none" stroke="midnightblue" d="M302.666,-224.324C284.623,-215.625 256.614,-202.12 235.858,-192.113"/>
<polygon fill="midnightblue" stroke="midnightblue" points="237.138,-188.845 226.611,-187.655 234.098,-195.15 237.138,-188.845"/>
</g>
<!-- Node14&#45;&gt;Node5 -->
<g id="edge28" class="edge"><title>Node14&#45;&gt;Node5</title>
<path fill="none" stroke="midnightblue" d="M320.949,-224.162C321.385,-211.65 322.307,-188.063 323.661,-168 324.242,-159.383 325.063,-149.854 325.811,-141.791"/>
<polygon fill="midnightblue" stroke="midnightblue" points="329.316,-141.906 326.785,-131.618 322.347,-141.239 329.316,-141.906"/>
</g>
<!-- Node14&#45;&gt;Node7 -->
<g id="edge26" class="edge"><title>Node14&#45;&gt;Node7</title>
<path fill="none" stroke="midnightblue" d="M355.954,-227.652C396.836,-220.652 460.418,-207 474.661,-188 484.488,-174.89 483.168,-155.744 480.184,-141.624"/>
<polygon fill="midnightblue" stroke="midnightblue" points="483.487,-140.41 477.616,-131.59 476.705,-142.146 483.487,-140.41"/>
</g>
<!-- Node14&#45;&gt;Node8 -->
<g id="edge27" class="edge"><title>Node14&#45;&gt;Node8</title>
<path fill="none" stroke="midnightblue" d="M323.954,-224.425C330.557,-207.096 345.716,-166.611 356.661,-132 361.57,-116.474 366.457,-98.636 369.898,-85.5788"/>
<polygon fill="midnightblue" stroke="midnightblue" points="373.287,-86.4499 372.416,-75.891 366.513,-84.6887 373.287,-86.4499"/>
</g>
<!-- Node15&#45;&gt;Node5 -->
<g id="edge33" class="edge"><title>Node15&#45;&gt;Node5</title>
<path fill="none" stroke="midnightblue" d="M417.469,-168.324C400.31,-159.664 373.715,-146.242 353.913,-136.249"/>
<polygon fill="midnightblue" stroke="midnightblue" points="355.314,-133.035 344.809,-131.655 352.16,-139.285 355.314,-133.035"/>
</g>
<!-- Node15&#45;&gt;Node7 -->
<g id="edge31" class="edge"><title>Node15&#45;&gt;Node7</title>
<path fill="none" stroke="midnightblue" d="M441.266,-168.083C446.916,-160.455 455.205,-149.264 462.112,-139.941"/>
<polygon fill="midnightblue" stroke="midnightblue" points="465.038,-141.87 468.178,-131.751 459.414,-137.703 465.038,-141.87"/>
</g>
<!-- Node15&#45;&gt;Node8 -->
<g id="edge32" class="edge"><title>Node15&#45;&gt;Node8</title>
<path fill="none" stroke="midnightblue" d="M429.952,-168.368C420.138,-150.376 397.324,-108.55 384.275,-84.6267"/>
<polygon fill="midnightblue" stroke="midnightblue" points="387.208,-82.6944 379.347,-75.5914 381.063,-86.0464 387.208,-82.6944"/>
</g>
<!-- Node17 -->
<g id="node18" class="node"><title>Node17</title>
<polygon fill="white" stroke="#bfbfbf" points="597.661,-280.5 597.661,-299.5 651.661,-299.5 651.661,-280.5 597.661,-280.5"/>
<text text-anchor="middle" x="624.661" y="-287.5" font-family="Helvetica,sans-Serif" font-size="10.00">iostream</text>
</g>
<!-- Node16&#45;&gt;Node17 -->
<g id="edge36" class="edge"><title>Node16&#45;&gt;Node17</title>
<path fill="none" stroke="midnightblue" d="M624.661,-336.083C624.661,-329.006 624.661,-318.861 624.661,-309.986"/>
<polygon fill="midnightblue" stroke="midnightblue" points="628.161,-309.751 624.661,-299.751 621.161,-309.751 628.161,-309.751"/>
</g>
<!-- Node18 -->
<g id="node19" class="node"><title>Node18</title>
<polygon fill="white" stroke="#bfbfbf" points="669.661,-280.5 669.661,-299.5 717.661,-299.5 717.661,-280.5 669.661,-280.5"/>
<text text-anchor="middle" x="693.661" y="-287.5" font-family="Helvetica,sans-Serif" font-size="10.00">stdlib.h</text>
</g>
<!-- Node16&#45;&gt;Node18 -->
<g id="edge37" class="edge"><title>Node16&#45;&gt;Node18</title>
<path fill="none" stroke="midnightblue" d="M635.747,-336.324C646.147,-328.185 661.921,-315.839 674.382,-306.087"/>
<polygon fill="midnightblue" stroke="midnightblue" points="676.655,-308.753 682.373,-299.834 672.341,-303.241 676.655,-308.753"/>
</g>
</g>
</svg>
