<?xml version="1.0" encoding="UTF-8" standalone="no"?>
<!DOCTYPE svg PUBLIC "-//W3C//DTD SVG 1.1//EN"
 "http://www.w3.org/Graphics/SVG/1.1/DTD/svg11.dtd">
<!-- Generated by graphviz version 2.38.0 (20140413.2041)
 -->
<!-- Title: include/UIimageButton.h Pages: 1 -->
<svg width="470pt" height="364pt"
 viewBox="0.00 0.00 470.00 364.00" xmlns="http://www.w3.org/2000/svg" xmlns:xlink="http://www.w3.org/1999/xlink">
<g id="graph0" class="graph" transform="scale(1 1) rotate(0) translate(4 360)">
<title>include/UIimageButton.h</title>
<polygon fill="white" stroke="none" points="-4,4 -4,-360 466,-360 466,4 -4,4"/>
<!-- Node0 -->
<g id="node1" class="node"><title>Node0</title>
<polygon fill="#bfbfbf" stroke="black" points="81,-336.5 81,-355.5 205,-355.5 205,-336.5 81,-336.5"/>
<text text-anchor="middle" x="143" y="-343.5" font-family="Helvetica,sans-Serif" font-size="10.00">include/UIimageButton.h</text>
</g>
<!-- Node1 -->
<g id="node2" class="node"><title>Node1</title>
<g id="a_node2"><a xlink:href="Color_8h.html" target="_top" xlink:title="Color.h">
<polygon fill="white" stroke="black" points="414,-112.5 414,-131.5 462,-131.5 462,-112.5 414,-112.5"/>
<text text-anchor="middle" x="438" y="-119.5" font-family="Helvetica,sans-Serif" font-size="10.00">Color.h</text>
</a>
</g>
</g>
<!-- Node0&#45;&gt;Node1 -->
<g id="edge1" class="edge"><title>Node0&#45;&gt;Node1</title>
<path fill="none" stroke="midnightblue" d="M191.774,-336.482C221.037,-329.794 258.066,-318.443 287,-300 353.937,-257.332 407.09,-175.865 428.175,-140.313"/>
<polygon fill="midnightblue" stroke="midnightblue" points="431.255,-141.978 433.256,-131.574 425.204,-138.46 431.255,-141.978"/>
</g>
<!-- Node3 -->
<g id="node4" class="node"><title>Node3</title>
<g id="a_node4"><a xlink:href="Sprite_8h.html" target="_top" xlink:title="Sprite.h">
<polygon fill="white" stroke="black" points="281,-168.5 281,-187.5 331,-187.5 331,-168.5 281,-168.5"/>
<text text-anchor="middle" x="306" y="-175.5" font-family="Helvetica,sans-Serif" font-size="10.00">Sprite.h</text>
</a>
</g>
</g>
<!-- Node0&#45;&gt;Node3 -->
<g id="edge3" class="edge"><title>Node0&#45;&gt;Node3</title>
<path fill="none" stroke="midnightblue" d="M190.332,-336.459C215.009,-329.969 244.28,-318.823 265,-300 294.46,-273.237 302.765,-224.541 305.097,-197.81"/>
<polygon fill="midnightblue" stroke="midnightblue" points="308.609,-197.741 305.789,-187.528 301.625,-197.271 308.609,-197.741"/>
</g>
<!-- Node4 -->
<g id="node5" class="node"><title>Node4</title>
<polygon fill="white" stroke="#bfbfbf" points="144.5,-112.5 144.5,-131.5 185.5,-131.5 185.5,-112.5 144.5,-112.5"/>
<text text-anchor="middle" x="165" y="-119.5" font-family="Helvetica,sans-Serif" font-size="10.00">string</text>
</g>
<!-- Node0&#45;&gt;Node4 -->
<g id="edge33" class="edge"><title>Node0&#45;&gt;Node4</title>
<path fill="none" stroke="midnightblue" d="M143.231,-336.47C143.823,-316.671 145.668,-266.072 150,-224 152.974,-195.121 158.281,-161.857 161.72,-141.637"/>
<polygon fill="midnightblue" stroke="midnightblue" points="165.198,-142.064 163.454,-131.614 158.301,-140.871 165.198,-142.064"/>
</g>
<!-- Node6 -->
<g id="node7" class="node"><title>Node6</title>
<g id="a_node7"><a xlink:href="Rect_8h.html" target="_top" xlink:title="Rect.h">
<polygon fill="white" stroke="black" points="0,-112.5 0,-131.5 46,-131.5 46,-112.5 0,-112.5"/>
<text text-anchor="middle" x="23" y="-119.5" font-family="Helvetica,sans-Serif" font-size="10.00">Rect.h</text>
</a>
</g>
</g>
<!-- Node0&#45;&gt;Node6 -->
<g id="edge18" class="edge"><title>Node0&#45;&gt;Node6</title>
<path fill="none" stroke="midnightblue" d="M121.973,-336.439C105.544,-328.877 83.0482,-316.487 68,-300 30.7453,-259.184 26.3093,-241.873 14,-188 10.4711,-172.555 13.4319,-154.71 16.873,-141.63"/>
<polygon fill="midnightblue" stroke="midnightblue" points="20.2648,-142.502 19.7446,-131.92 13.5522,-140.517 20.2648,-142.502"/>
</g>
<!-- Node12 -->
<g id="node13" class="node"><title>Node12</title>
<g id="a_node13"><a xlink:href="UIimage_8h.html" target="_top" xlink:title="UIimage.h">
<polygon fill="white" stroke="black" points="194,-280.5 194,-299.5 256,-299.5 256,-280.5 194,-280.5"/>
<text text-anchor="middle" x="225" y="-287.5" font-family="Helvetica,sans-Serif" font-size="10.00">UIimage.h</text>
</a>
</g>
</g>
<!-- Node0&#45;&gt;Node12 -->
<g id="edge19" class="edge"><title>Node0&#45;&gt;Node12</title>
<path fill="none" stroke="midnightblue" d="M156.175,-336.324C168.847,-327.979 188.233,-315.212 203.206,-305.352"/>
<polygon fill="midnightblue" stroke="midnightblue" points="205.431,-308.078 211.858,-299.655 201.581,-302.231 205.431,-308.078"/>
</g>
<!-- Node14 -->
<g id="node15" class="node"><title>Node14</title>
<g id="a_node15"><a xlink:href="UIbutton_8h.html" target="_top" xlink:title="UIbutton.h">
<polygon fill="white" stroke="black" points="47,-168.5 47,-187.5 109,-187.5 109,-168.5 47,-168.5"/>
<text text-anchor="middle" x="78" y="-175.5" font-family="Helvetica,sans-Serif" font-size="10.00">UIbutton.h</text>
</a>
</g>
</g>
<!-- Node0&#45;&gt;Node14 -->
<g id="edge29" class="edge"><title>Node0&#45;&gt;Node14</title>
<path fill="none" stroke="midnightblue" d="M121.873,-336.491C106.935,-329.226 88.023,-317.2 79,-300 61.8204,-267.251 67.7951,-222.325 73.2036,-197.455"/>
<polygon fill="midnightblue" stroke="midnightblue" points="76.6491,-198.094 75.5635,-187.555 69.8399,-196.471 76.6491,-198.094"/>
</g>
<!-- Node2 -->
<g id="node3" class="node"><title>Node2</title>
<g id="a_node3"><a xlink:href="SDL__include_8h.html" target="_top" xlink:title="SDL_include.h">
<polygon fill="white" stroke="black" points="308,-0.5 308,-19.5 388,-19.5 388,-0.5 308,-0.5"/>
<text text-anchor="middle" x="348" y="-7.5" font-family="Helvetica,sans-Serif" font-size="10.00">SDL_include.h</text>
</a>
</g>
</g>
<!-- Node1&#45;&gt;Node2 -->
<g id="edge2" class="edge"><title>Node1&#45;&gt;Node2</title>
<path fill="none" stroke="midnightblue" d="M434.121,-112.433C427.996,-99.4323 415.203,-74.2992 400,-56 390.702,-44.808 378.471,-34.0734 368.208,-25.8972"/>
<polygon fill="midnightblue" stroke="midnightblue" points="370.21,-23.0212 360.157,-19.6772 365.93,-28.5606 370.21,-23.0212"/>
</g>
<!-- Node3&#45;&gt;Node1 -->
<g id="edge7" class="edge"><title>Node3&#45;&gt;Node1</title>
<path fill="none" stroke="midnightblue" d="M326.916,-168.444C348.736,-159.517 383.15,-145.439 407.892,-135.317"/>
<polygon fill="midnightblue" stroke="midnightblue" points="409.252,-138.542 417.182,-131.516 406.601,-132.063 409.252,-138.542"/>
</g>
<!-- Node3&#45;&gt;Node2 -->
<g id="edge4" class="edge"><title>Node3&#45;&gt;Node2</title>
<path fill="none" stroke="midnightblue" d="M325.906,-168.41C340.225,-161.04 358.458,-148.916 367,-132 383.941,-98.45 368.432,-53.5479 357.206,-28.9625"/>
<polygon fill="midnightblue" stroke="midnightblue" points="360.264,-27.2458 352.764,-19.7621 353.96,-30.2892 360.264,-27.2458"/>
</g>
<!-- Node3&#45;&gt;Node4 -->
<g id="edge5" class="edge"><title>Node3&#45;&gt;Node4</title>
<path fill="none" stroke="midnightblue" d="M283.658,-168.444C259.834,-159.319 221.955,-144.813 195.42,-134.65"/>
<polygon fill="midnightblue" stroke="midnightblue" points="196.449,-131.296 185.858,-130.988 193.945,-137.833 196.449,-131.296"/>
</g>
<!-- Node5 -->
<g id="node6" class="node"><title>Node5</title>
<polygon fill="white" stroke="#bfbfbf" points="204,-112.5 204,-131.5 256,-131.5 256,-112.5 204,-112.5"/>
<text text-anchor="middle" x="230" y="-119.5" font-family="Helvetica,sans-Serif" font-size="10.00">memory</text>
</g>
<!-- Node3&#45;&gt;Node5 -->
<g id="edge6" class="edge"><title>Node3&#45;&gt;Node5</title>
<path fill="none" stroke="midnightblue" d="M293.789,-168.324C282.224,-160.107 264.625,-147.602 250.839,-137.807"/>
<polygon fill="midnightblue" stroke="midnightblue" points="252.612,-134.773 242.433,-131.834 248.557,-140.479 252.612,-134.773"/>
</g>
<!-- Node3&#45;&gt;Node6 -->
<g id="edge8" class="edge"><title>Node3&#45;&gt;Node6</title>
<path fill="none" stroke="midnightblue" d="M280.886,-172.208C229.692,-162.439 113.283,-140.227 56.0369,-129.304"/>
<polygon fill="midnightblue" stroke="midnightblue" points="56.5441,-125.838 46.0653,-127.401 55.2321,-132.714 56.5441,-125.838"/>
</g>
<!-- Node9 -->
<g id="node10" class="node"><title>Node9</title>
<g id="a_node10"><a xlink:href="InputManager_8h.html" target="_top" xlink:title="InputManager.h">
<polygon fill="white" stroke="black" points="274,-112.5 274,-131.5 358,-131.5 358,-112.5 274,-112.5"/>
<text text-anchor="middle" x="316" y="-119.5" font-family="Helvetica,sans-Serif" font-size="10.00">InputManager.h</text>
</a>
</g>
</g>
<!-- Node3&#45;&gt;Node9 -->
<g id="edge13" class="edge"><title>Node3&#45;&gt;Node9</title>
<path fill="none" stroke="midnightblue" d="M307.651,-168.083C308.976,-160.927 310.882,-150.635 312.539,-141.691"/>
<polygon fill="midnightblue" stroke="midnightblue" points="316,-142.221 314.379,-131.751 309.117,-140.947 316,-142.221"/>
</g>
<!-- Node6&#45;&gt;Node2 -->
<g id="edge9" class="edge"><title>Node6&#45;&gt;Node2</title>
<path fill="none" stroke="midnightblue" d="M20.5813,-112.07C17.3985,-98.1188 13.7449,-71.1817 28,-56 63.7416,-17.935 216.691,-11.434 297.504,-10.7204"/>
<polygon fill="midnightblue" stroke="midnightblue" points="297.957,-14.2179 307.935,-10.657 297.914,-7.21798 297.957,-14.2179"/>
</g>
<!-- Node7 -->
<g id="node8" class="node"><title>Node7</title>
<g id="a_node8"><a xlink:href="Vec2_8h.html" target="_top" xlink:title="Vec2.h">
<polygon fill="white" stroke="black" points="99.5,-56.5 99.5,-75.5 146.5,-75.5 146.5,-56.5 99.5,-56.5"/>
<text text-anchor="middle" x="123" y="-63.5" font-family="Helvetica,sans-Serif" font-size="10.00">Vec2.h</text>
</a>
</g>
</g>
<!-- Node6&#45;&gt;Node7 -->
<g id="edge10" class="edge"><title>Node6&#45;&gt;Node7</title>
<path fill="none" stroke="midnightblue" d="M39.0667,-112.324C54.9578,-103.743 79.5074,-90.486 97.9585,-80.5224"/>
<polygon fill="midnightblue" stroke="midnightblue" points="99.8371,-83.4857 106.973,-75.6545 96.511,-77.3264 99.8371,-83.4857"/>
</g>
<!-- Node8 -->
<g id="node9" class="node"><title>Node8</title>
<polygon fill="white" stroke="#bfbfbf" points="37,-56.5 37,-75.5 81,-75.5 81,-56.5 37,-56.5"/>
<text text-anchor="middle" x="59" y="-63.5" font-family="Helvetica,sans-Serif" font-size="10.00">cmath</text>
</g>
<!-- Node6&#45;&gt;Node8 -->
<g id="edge12" class="edge"><title>Node6&#45;&gt;Node8</title>
<path fill="none" stroke="midnightblue" d="M28.9447,-112.083C33.9773,-104.534 41.3368,-93.4948 47.5135,-84.2298"/>
<polygon fill="midnightblue" stroke="midnightblue" points="50.5311,-86.0131 53.1659,-75.7511 44.7067,-82.1301 50.5311,-86.0131"/>
</g>
<!-- Node7&#45;&gt;Node2 -->
<g id="edge11" class="edge"><title>Node7&#45;&gt;Node2</title>
<path fill="none" stroke="midnightblue" d="M146.654,-59.3231C183.549,-50.4682 255.448,-33.2125 302.588,-21.8989"/>
<polygon fill="midnightblue" stroke="midnightblue" points="303.634,-25.2473 312.541,-19.5102 302,-18.4406 303.634,-25.2473"/>
</g>
<!-- Node9&#45;&gt;Node2 -->
<g id="edge14" class="edge"><title>Node9&#45;&gt;Node2</title>
<path fill="none" stroke="midnightblue" d="M318.511,-112.368C323.698,-94.5366 335.696,-53.2953 342.685,-29.2717"/>
<polygon fill="midnightblue" stroke="midnightblue" points="346.068,-30.1711 345.501,-19.5914 339.347,-28.2157 346.068,-30.1711"/>
</g>
<!-- Node9&#45;&gt;Node7 -->
<g id="edge15" class="edge"><title>Node9&#45;&gt;Node7</title>
<path fill="none" stroke="midnightblue" d="M285.419,-112.444C250.248,-102.603 192.7,-86.5016 156.388,-76.3418"/>
<polygon fill="midnightblue" stroke="midnightblue" points="157.319,-72.9678 146.746,-73.6439 155.433,-79.7089 157.319,-72.9678"/>
</g>
<!-- Node10 -->
<g id="node11" class="node"><title>Node10</title>
<polygon fill="white" stroke="#bfbfbf" points="236.5,-56.5 236.5,-75.5 319.5,-75.5 319.5,-56.5 236.5,-56.5"/>
<text text-anchor="middle" x="278" y="-63.5" font-family="Helvetica,sans-Serif" font-size="10.00">unordered_map</text>
</g>
<!-- Node9&#45;&gt;Node10 -->
<g id="edge16" class="edge"><title>Node9&#45;&gt;Node10</title>
<path fill="none" stroke="midnightblue" d="M309.725,-112.083C304.358,-104.455 296.482,-93.2645 289.921,-83.9408"/>
<polygon fill="midnightblue" stroke="midnightblue" points="292.775,-81.9149 284.158,-75.7511 287.051,-85.9434 292.775,-81.9149"/>
</g>
<!-- Node11 -->
<g id="node12" class="node"><title>Node11</title>
<polygon fill="white" stroke="#bfbfbf" points="172,-56.5 172,-75.5 218,-75.5 218,-56.5 172,-56.5"/>
<text text-anchor="middle" x="195" y="-63.5" font-family="Helvetica,sans-Serif" font-size="10.00">cstdint</text>
</g>
<!-- Node9&#45;&gt;Node11 -->
<g id="edge17" class="edge"><title>Node9&#45;&gt;Node11</title>
<path fill="none" stroke="midnightblue" d="M296.827,-112.444C277.091,-103.636 246.115,-89.8116 223.507,-79.722"/>
<polygon fill="midnightblue" stroke="midnightblue" points="224.641,-76.3957 214.083,-75.5164 221.789,-82.788 224.641,-76.3957"/>
</g>
<!-- Node12&#45;&gt;Node1 -->
<g id="edge20" class="edge"><title>Node12&#45;&gt;Node1</title>
<path fill="none" stroke="midnightblue" d="M238.623,-280.423C252.359,-271.643 274.041,-257.42 292,-244 340.068,-208.081 393.702,-161.97 420.607,-138.39"/>
<polygon fill="midnightblue" stroke="midnightblue" points="423.166,-140.8 428.363,-131.567 418.543,-135.544 423.166,-140.8"/>
</g>
<!-- Node12&#45;&gt;Node3 -->
<g id="edge21" class="edge"><title>Node12&#45;&gt;Node3</title>
<path fill="none" stroke="midnightblue" d="M235.396,-280.466C245.351,-271.94 260.385,-258.104 271,-244 282.055,-229.311 291.709,-210.677 298.062,-197.129"/>
<polygon fill="midnightblue" stroke="midnightblue" points="301.3,-198.464 302.245,-187.911 294.926,-195.571 301.3,-198.464"/>
</g>
<!-- Node12&#45;&gt;Node4 -->
<g id="edge28" class="edge"><title>Node12&#45;&gt;Node4</title>
<path fill="none" stroke="midnightblue" d="M229.198,-280.499C234.809,-268.001 243.45,-243.985 238,-224 228.486,-189.116 200.282,-156.734 181.846,-138.454"/>
<polygon fill="midnightblue" stroke="midnightblue" points="184.262,-135.921 174.626,-131.517 179.412,-140.969 184.262,-135.921"/>
</g>
<!-- Node12&#45;&gt;Node6 -->
<g id="edge22" class="edge"><title>Node12&#45;&gt;Node6</title>
<path fill="none" stroke="midnightblue" d="M193.793,-283.654C147.429,-273.858 61.7718,-248.211 24,-188 15.3869,-174.27 16.1225,-155.49 18.4286,-141.645"/>
<polygon fill="midnightblue" stroke="midnightblue" points="21.8686,-142.294 20.4661,-131.792 15.0136,-140.876 21.8686,-142.294"/>
</g>
<!-- Node13 -->
<g id="node14" class="node"><title>Node13</title>
<g id="a_node14"><a xlink:href="UIelement_8h.html" target="_top" xlink:title="UIelement.h">
<polygon fill="white" stroke="black" points="159,-224.5 159,-243.5 229,-243.5 229,-224.5 159,-224.5"/>
<text text-anchor="middle" x="194" y="-231.5" font-family="Helvetica,sans-Serif" font-size="10.00">UIelement.h</text>
</a>
</g>
</g>
<!-- Node12&#45;&gt;Node13 -->
<g id="edge23" class="edge"><title>Node12&#45;&gt;Node13</title>
<path fill="none" stroke="midnightblue" d="M219.881,-280.083C215.592,-272.613 209.342,-261.724 204.058,-252.52"/>
<polygon fill="midnightblue" stroke="midnightblue" points="207.038,-250.681 199.024,-243.751 200.967,-254.166 207.038,-250.681"/>
</g>
<!-- Node13&#45;&gt;Node3 -->
<g id="edge24" class="edge"><title>Node13&#45;&gt;Node3</title>
<path fill="none" stroke="midnightblue" d="M211.995,-224.324C230.038,-215.625 258.047,-202.12 278.803,-192.113"/>
<polygon fill="midnightblue" stroke="midnightblue" points="280.562,-195.15 288.05,-187.655 277.522,-188.845 280.562,-195.15"/>
</g>
<!-- Node13&#45;&gt;Node4 -->
<g id="edge27" class="edge"><title>Node13&#45;&gt;Node4</title>
<path fill="none" stroke="midnightblue" d="M194.446,-224.387C194.854,-211.749 194.696,-187.56 189,-168 186.153,-158.224 181.021,-148.15 176.231,-140.019"/>
<polygon fill="midnightblue" stroke="midnightblue" points="179.182,-138.136 170.923,-131.5 173.241,-141.838 179.182,-138.136"/>
</g>
<!-- Node13&#45;&gt;Node6 -->
<g id="edge25" class="edge"><title>Node13&#45;&gt;Node6</title>
<path fill="none" stroke="midnightblue" d="M158.832,-224.847C115.47,-214.491 46.4329,-196.901 38,-188 26.4358,-175.793 23.1639,-156.525 22.4982,-142.132"/>
<polygon fill="midnightblue" stroke="midnightblue" points="25.9959,-141.833 22.4143,-131.862 18.9962,-141.89 25.9959,-141.833"/>
</g>
<!-- Node13&#45;&gt;Node7 -->
<g id="edge26" class="edge"><title>Node13&#45;&gt;Node7</title>
<path fill="none" stroke="midnightblue" d="M187.518,-224.336C175.251,-207.489 148.646,-168.741 135,-132 129.438,-117.024 126.376,-99.113 124.741,-85.8886"/>
<polygon fill="midnightblue" stroke="midnightblue" points="128.191,-85.2344 123.643,-75.6651 121.231,-85.9815 128.191,-85.2344"/>
</g>
<!-- Node14&#45;&gt;Node4 -->
<g id="edge32" class="edge"><title>Node14&#45;&gt;Node4</title>
<path fill="none" stroke="midnightblue" d="M91.9781,-168.324C105.55,-159.9 126.38,-146.971 142.325,-137.074"/>
<polygon fill="midnightblue" stroke="midnightblue" points="144.406,-139.902 151.057,-131.655 140.714,-133.954 144.406,-139.902"/>
</g>
<!-- Node14&#45;&gt;Node6 -->
<g id="edge30" class="edge"><title>Node14&#45;&gt;Node6</title>
<path fill="none" stroke="midnightblue" d="M68.9179,-168.083C60.8287,-160.141 48.8046,-148.335 39.0898,-138.797"/>
<polygon fill="midnightblue" stroke="midnightblue" points="41.5009,-136.26 31.9131,-131.751 36.5967,-141.254 41.5009,-136.26"/>
</g>
<!-- Node14&#45;&gt;Node7 -->
<g id="edge31" class="edge"><title>Node14&#45;&gt;Node7</title>
<path fill="none" stroke="midnightblue" d="M80.8858,-168.499C85.1856,-156.001 93.6645,-131.984 102,-112 105.822,-102.836 110.456,-92.8094 114.397,-84.5513"/>
<polygon fill="midnightblue" stroke="midnightblue" points="117.556,-86.0584 118.76,-75.5322 111.255,-83.0101 117.556,-86.0584"/>
</g>
</g>
</svg>
