<?xml version="1.0" encoding="UTF-8" standalone="no"?>
<!DOCTYPE svg PUBLIC "-//W3C//DTD SVG 1.1//EN"
 "http://www.w3.org/Graphics/SVG/1.1/DTD/svg11.dtd">
<!-- Generated by graphviz version 2.38.0 (20140413.2041)
 -->
<!-- Title: include/UIimage.h Pages: 1 -->
<svg width="460pt" height="308pt"
 viewBox="0.00 0.00 459.62 308.00" xmlns="http://www.w3.org/2000/svg" xmlns:xlink="http://www.w3.org/1999/xlink">
<g id="graph0" class="graph" transform="scale(1 1) rotate(0) translate(4 304)">
<title>include/UIimage.h</title>
<polygon fill="white" stroke="none" points="-4,4 -4,-304 455.618,-304 455.618,4 -4,4"/>
<!-- Node0 -->
<g id="node1" class="node"><title>Node0</title>
<polygon fill="#bfbfbf" stroke="black" points="112.618,-280.5 112.618,-299.5 207.618,-299.5 207.618,-280.5 112.618,-280.5"/>
<text text-anchor="middle" x="160.118" y="-287.5" font-family="Helvetica,sans-Serif" font-size="10.00">include/UIimage.h</text>
</g>
<!-- Node1 -->
<g id="node2" class="node"><title>Node1</title>
<g id="a_node2"><a xlink:href="Color_8h.html" target="_top" xlink:title="Color.h">
<polygon fill="white" stroke="black" points="23.1179,-112.5 23.1179,-131.5 71.1179,-131.5 71.1179,-112.5 23.1179,-112.5"/>
<text text-anchor="middle" x="47.1179" y="-119.5" font-family="Helvetica,sans-Serif" font-size="10.00">Color.h</text>
</a>
</g>
</g>
<!-- Node0&#45;&gt;Node1 -->
<g id="edge1" class="edge"><title>Node0&#45;&gt;Node1</title>
<path fill="none" stroke="midnightblue" d="M146.753,-280.305C134.899,-272.071 117.713,-258.79 106.118,-244 80.6205,-211.475 62.1967,-166.15 53.2401,-141.227"/>
<polygon fill="midnightblue" stroke="midnightblue" points="56.4858,-139.904 49.8935,-131.61 49.8747,-142.205 56.4858,-139.904"/>
</g>
<!-- Node3 -->
<g id="node4" class="node"><title>Node3</title>
<g id="a_node4"><a xlink:href="Sprite_8h.html" target="_top" xlink:title="Sprite.h">
<polygon fill="white" stroke="black" points="194.118,-168.5 194.118,-187.5 244.118,-187.5 244.118,-168.5 194.118,-168.5"/>
<text text-anchor="middle" x="219.118" y="-175.5" font-family="Helvetica,sans-Serif" font-size="10.00">Sprite.h</text>
</a>
</g>
</g>
<!-- Node0&#45;&gt;Node3 -->
<g id="edge3" class="edge"><title>Node0&#45;&gt;Node3</title>
<path fill="none" stroke="midnightblue" d="M171.661,-280.292C181.761,-272.049 196.044,-258.763 204.118,-244 212.02,-229.552 215.771,-211.102 217.545,-197.552"/>
<polygon fill="midnightblue" stroke="midnightblue" points="221.035,-197.834 218.618,-187.518 214.074,-197.089 221.035,-197.834"/>
</g>
<!-- Node4 -->
<g id="node5" class="node"><title>Node4</title>
<polygon fill="white" stroke="#bfbfbf" points="410.618,-112.5 410.618,-131.5 451.618,-131.5 451.618,-112.5 410.618,-112.5"/>
<text text-anchor="middle" x="431.118" y="-119.5" font-family="Helvetica,sans-Serif" font-size="10.00">string</text>
</g>
<!-- Node0&#45;&gt;Node4 -->
<g id="edge24" class="edge"><title>Node0&#45;&gt;Node4</title>
<path fill="none" stroke="midnightblue" d="M174.306,-280.309C218.575,-253.192 354.421,-169.98 408.533,-136.834"/>
<polygon fill="midnightblue" stroke="midnightblue" points="410.371,-139.813 417.07,-131.605 406.714,-133.844 410.371,-139.813"/>
</g>
<!-- Node6 -->
<g id="node7" class="node"><title>Node6</title>
<g id="a_node7"><a xlink:href="Rect_8h.html" target="_top" xlink:title="Rect.h">
<polygon fill="white" stroke="black" points="89.1179,-112.5 89.1179,-131.5 135.118,-131.5 135.118,-112.5 89.1179,-112.5"/>
<text text-anchor="middle" x="112.118" y="-119.5" font-family="Helvetica,sans-Serif" font-size="10.00">Rect.h</text>
</a>
</g>
</g>
<!-- Node0&#45;&gt;Node6 -->
<g id="edge18" class="edge"><title>Node0&#45;&gt;Node6</title>
<path fill="none" stroke="midnightblue" d="M147.462,-280.316C136.929,-272.274 122.641,-259.274 116.118,-244 101.723,-210.292 105.083,-166.362 108.689,-141.776"/>
<polygon fill="midnightblue" stroke="midnightblue" points="112.182,-142.104 110.351,-131.668 105.275,-140.968 112.182,-142.104"/>
</g>
<!-- Node12 -->
<g id="node13" class="node"><title>Node12</title>
<g id="a_node13"><a xlink:href="UIelement_8h.html" target="_top" xlink:title="UIelement.h">
<polygon fill="white" stroke="black" points="125.118,-224.5 125.118,-243.5 195.118,-243.5 195.118,-224.5 125.118,-224.5"/>
<text text-anchor="middle" x="160.118" y="-231.5" font-family="Helvetica,sans-Serif" font-size="10.00">UIelement.h</text>
</a>
</g>
</g>
<!-- Node0&#45;&gt;Node12 -->
<g id="edge19" class="edge"><title>Node0&#45;&gt;Node12</title>
<path fill="none" stroke="midnightblue" d="M160.118,-280.083C160.118,-273.006 160.118,-262.861 160.118,-253.986"/>
<polygon fill="midnightblue" stroke="midnightblue" points="163.618,-253.751 160.118,-243.751 156.618,-253.751 163.618,-253.751"/>
</g>
<!-- Node2 -->
<g id="node3" class="node"><title>Node2</title>
<g id="a_node3"><a xlink:href="SDL__include_8h.html" target="_top" xlink:title="SDL_include.h">
<polygon fill="white" stroke="black" points="97.1179,-0.5 97.1179,-19.5 177.118,-19.5 177.118,-0.5 97.1179,-0.5"/>
<text text-anchor="middle" x="137.118" y="-7.5" font-family="Helvetica,sans-Serif" font-size="10.00">SDL_include.h</text>
</a>
</g>
</g>
<!-- Node1&#45;&gt;Node2 -->
<g id="edge2" class="edge"><title>Node1&#45;&gt;Node2</title>
<path fill="none" stroke="midnightblue" d="M34.2452,-112.448C16.9475,-99.8852 -10.0782,-75.7898 4.11786,-56 22.8649,-29.866 57.6176,-18.7173 86.8972,-14.0491"/>
<polygon fill="midnightblue" stroke="midnightblue" points="87.5637,-17.4904 96.9903,-12.6543 86.6053,-10.5563 87.5637,-17.4904"/>
</g>
<!-- Node3&#45;&gt;Node1 -->
<g id="edge7" class="edge"><title>Node3&#45;&gt;Node1</title>
<path fill="none" stroke="midnightblue" d="M194.108,-169.148C164.301,-159.79 114.358,-144.11 81.0774,-133.662"/>
<polygon fill="midnightblue" stroke="midnightblue" points="81.914,-130.256 71.3247,-130.6 79.8172,-136.935 81.914,-130.256"/>
</g>
<!-- Node3&#45;&gt;Node2 -->
<g id="edge4" class="edge"><title>Node3&#45;&gt;Node2</title>
<path fill="none" stroke="midnightblue" d="M244.31,-172.226C279.657,-164.957 341.117,-150.038 354.118,-132 363.058,-119.597 374.182,-82.1904 352.118,-56 331.358,-31.3579 244.326,-19.6405 187.558,-14.5218"/>
<polygon fill="midnightblue" stroke="midnightblue" points="187.597,-11.0123 177.333,-13.6413 186.996,-17.9865 187.597,-11.0123"/>
</g>
<!-- Node3&#45;&gt;Node4 -->
<g id="edge5" class="edge"><title>Node3&#45;&gt;Node4</title>
<path fill="none" stroke="midnightblue" d="M244.331,-170.613C278.667,-161.909 342.053,-145.824 396.118,-132 397.562,-131.631 399.039,-131.253 400.53,-130.871"/>
<polygon fill="midnightblue" stroke="midnightblue" points="401.576,-134.216 410.392,-128.339 399.836,-127.435 401.576,-134.216"/>
</g>
<!-- Node5 -->
<g id="node6" class="node"><title>Node5</title>
<polygon fill="white" stroke="#bfbfbf" points="191.118,-112.5 191.118,-131.5 243.118,-131.5 243.118,-112.5 191.118,-112.5"/>
<text text-anchor="middle" x="217.118" y="-119.5" font-family="Helvetica,sans-Serif" font-size="10.00">memory</text>
</g>
<!-- Node3&#45;&gt;Node5 -->
<g id="edge6" class="edge"><title>Node3&#45;&gt;Node5</title>
<path fill="none" stroke="midnightblue" d="M218.788,-168.083C218.525,-161.006 218.15,-150.861 217.821,-141.986"/>
<polygon fill="midnightblue" stroke="midnightblue" points="221.31,-141.615 217.442,-131.751 214.315,-141.874 221.31,-141.615"/>
</g>
<!-- Node3&#45;&gt;Node6 -->
<g id="edge8" class="edge"><title>Node3&#45;&gt;Node6</title>
<path fill="none" stroke="midnightblue" d="M201.926,-168.324C184.767,-159.664 158.172,-146.242 138.371,-136.249"/>
<polygon fill="midnightblue" stroke="midnightblue" points="139.771,-133.035 129.267,-131.655 136.617,-139.285 139.771,-133.035"/>
</g>
<!-- Node9 -->
<g id="node10" class="node"><title>Node9</title>
<g id="a_node10"><a xlink:href="InputManager_8h.html" target="_top" xlink:title="InputManager.h">
<polygon fill="white" stroke="black" points="261.118,-112.5 261.118,-131.5 345.118,-131.5 345.118,-112.5 261.118,-112.5"/>
<text text-anchor="middle" x="303.118" y="-119.5" font-family="Helvetica,sans-Serif" font-size="10.00">InputManager.h</text>
</a>
</g>
</g>
<!-- Node3&#45;&gt;Node9 -->
<g id="edge13" class="edge"><title>Node3&#45;&gt;Node9</title>
<path fill="none" stroke="midnightblue" d="M232.614,-168.324C245.717,-159.9 265.83,-146.971 281.225,-137.074"/>
<polygon fill="midnightblue" stroke="midnightblue" points="283.136,-140.006 289.655,-131.655 279.351,-134.118 283.136,-140.006"/>
</g>
<!-- Node6&#45;&gt;Node2 -->
<g id="edge9" class="edge"><title>Node6&#45;&gt;Node2</title>
<path fill="none" stroke="midnightblue" d="M108.738,-112.358C104.292,-99.6835 97.7505,-75.45 104.118,-56 107.608,-45.3397 114.691,-35.1174 121.403,-27.1175"/>
<polygon fill="midnightblue" stroke="midnightblue" points="124.022,-29.4395 128.098,-19.66 118.813,-24.7633 124.022,-29.4395"/>
</g>
<!-- Node7 -->
<g id="node8" class="node"><title>Node7</title>
<g id="a_node8"><a xlink:href="Vec2_8h.html" target="_top" xlink:title="Vec2.h">
<polygon fill="white" stroke="black" points="113.618,-56.5 113.618,-75.5 160.618,-75.5 160.618,-56.5 113.618,-56.5"/>
<text text-anchor="middle" x="137.118" y="-63.5" font-family="Helvetica,sans-Serif" font-size="10.00">Vec2.h</text>
</a>
</g>
</g>
<!-- Node6&#45;&gt;Node7 -->
<g id="edge10" class="edge"><title>Node6&#45;&gt;Node7</title>
<path fill="none" stroke="midnightblue" d="M116.246,-112.083C119.632,-104.77 124.534,-94.1814 128.737,-85.1034"/>
<polygon fill="midnightblue" stroke="midnightblue" points="132.041,-86.2962 133.066,-75.7511 125.689,-83.3553 132.041,-86.2962"/>
</g>
<!-- Node8 -->
<g id="node9" class="node"><title>Node8</title>
<polygon fill="white" stroke="#bfbfbf" points="13.1179,-56.5 13.1179,-75.5 57.1179,-75.5 57.1179,-56.5 13.1179,-56.5"/>
<text text-anchor="middle" x="35.1179" y="-63.5" font-family="Helvetica,sans-Serif" font-size="10.00">cmath</text>
</g>
<!-- Node6&#45;&gt;Node8 -->
<g id="edge12" class="edge"><title>Node6&#45;&gt;Node8</title>
<path fill="none" stroke="midnightblue" d="M99.7465,-112.324C87.9594,-104.058 69.9856,-91.4527 55.9823,-81.6322"/>
<polygon fill="midnightblue" stroke="midnightblue" points="57.6555,-78.5307 47.4585,-75.6545 53.6363,-84.2619 57.6555,-78.5307"/>
</g>
<!-- Node7&#45;&gt;Node2 -->
<g id="edge11" class="edge"><title>Node7&#45;&gt;Node2</title>
<path fill="none" stroke="midnightblue" d="M137.118,-56.083C137.118,-49.0059 137.118,-38.8611 137.118,-29.9865"/>
<polygon fill="midnightblue" stroke="midnightblue" points="140.618,-29.751 137.118,-19.7511 133.618,-29.7511 140.618,-29.751"/>
</g>
<!-- Node9&#45;&gt;Node2 -->
<g id="edge14" class="edge"><title>Node9&#45;&gt;Node2</title>
<path fill="none" stroke="midnightblue" d="M313.173,-112.331C327.2,-99.1965 349.399,-73.8912 335.118,-56 316.975,-33.2707 239.966,-21.147 187.51,-15.3998"/>
<polygon fill="midnightblue" stroke="midnightblue" points="187.682,-11.8987 177.371,-14.3341 186.95,-18.8603 187.682,-11.8987"/>
</g>
<!-- Node9&#45;&gt;Node7 -->
<g id="edge15" class="edge"><title>Node9&#45;&gt;Node7</title>
<path fill="none" stroke="midnightblue" d="M276.815,-112.444C248.025,-103.078 201.801,-88.0415 170.481,-77.8532"/>
<polygon fill="midnightblue" stroke="midnightblue" points="171.47,-74.4942 160.877,-74.729 169.304,-81.1509 171.47,-74.4942"/>
</g>
<!-- Node10 -->
<g id="node11" class="node"><title>Node10</title>
<polygon fill="white" stroke="#bfbfbf" points="178.618,-56.5 178.618,-75.5 261.618,-75.5 261.618,-56.5 178.618,-56.5"/>
<text text-anchor="middle" x="220.118" y="-63.5" font-family="Helvetica,sans-Serif" font-size="10.00">unordered_map</text>
</g>
<!-- Node9&#45;&gt;Node10 -->
<g id="edge16" class="edge"><title>Node9&#45;&gt;Node10</title>
<path fill="none" stroke="midnightblue" d="M289.782,-112.324C276.956,-103.979 257.333,-91.2122 242.178,-81.3524"/>
<polygon fill="midnightblue" stroke="midnightblue" points="243.711,-78.1742 233.42,-75.6545 239.894,-84.0417 243.711,-78.1742"/>
</g>
<!-- Node11 -->
<g id="node12" class="node"><title>Node11</title>
<polygon fill="white" stroke="#bfbfbf" points="280.118,-56.5 280.118,-75.5 326.118,-75.5 326.118,-56.5 280.118,-56.5"/>
<text text-anchor="middle" x="303.118" y="-63.5" font-family="Helvetica,sans-Serif" font-size="10.00">cstdint</text>
</g>
<!-- Node9&#45;&gt;Node11 -->
<g id="edge17" class="edge"><title>Node9&#45;&gt;Node11</title>
<path fill="none" stroke="midnightblue" d="M303.118,-112.083C303.118,-105.006 303.118,-94.8611 303.118,-85.9865"/>
<polygon fill="midnightblue" stroke="midnightblue" points="306.618,-85.751 303.118,-75.7511 299.618,-85.7511 306.618,-85.751"/>
</g>
<!-- Node12&#45;&gt;Node3 -->
<g id="edge20" class="edge"><title>Node12&#45;&gt;Node3</title>
<path fill="none" stroke="midnightblue" d="M169.597,-224.324C178.319,-216.341 191.461,-204.313 202.016,-194.653"/>
<polygon fill="midnightblue" stroke="midnightblue" points="204.452,-197.167 209.466,-187.834 199.726,-192.004 204.452,-197.167"/>
</g>
<!-- Node12&#45;&gt;Node4 -->
<g id="edge23" class="edge"><title>Node12&#45;&gt;Node4</title>
<path fill="none" stroke="midnightblue" d="M181.383,-224.368C229.29,-204.923 345.784,-157.637 401.058,-135.201"/>
<polygon fill="midnightblue" stroke="midnightblue" points="402.375,-138.444 410.324,-131.44 399.742,-131.958 402.375,-138.444"/>
</g>
<!-- Node12&#45;&gt;Node6 -->
<g id="edge21" class="edge"><title>Node12&#45;&gt;Node6</title>
<path fill="none" stroke="midnightblue" d="M156.351,-224.368C148.535,-206.456 130.412,-164.923 119.95,-140.948"/>
<polygon fill="midnightblue" stroke="midnightblue" points="123.074,-139.357 115.867,-131.591 116.658,-142.157 123.074,-139.357"/>
</g>
<!-- Node12&#45;&gt;Node7 -->
<g id="edge22" class="edge"><title>Node12&#45;&gt;Node7</title>
<path fill="none" stroke="midnightblue" d="M159.06,-224.482C156.588,-204.707 150.183,-154.157 144.118,-112 142.864,-103.284 141.376,-93.6344 140.095,-85.5135"/>
<polygon fill="midnightblue" stroke="midnightblue" points="143.549,-84.9426 138.518,-75.618 136.636,-86.0443 143.549,-84.9426"/>
</g>
</g>
</svg>
