<?xml version="1.0" encoding="UTF-8" standalone="no"?>
<!DOCTYPE svg PUBLIC "-//W3C//DTD SVG 1.1//EN"
 "http://www.w3.org/Graphics/SVG/1.1/DTD/svg11.dtd">
<!-- Generated by graphviz version 2.38.0 (20140413.2041)
 -->
<!-- Title: include/UIimage.h Pages: 1 -->
<svg width="240pt" height="140pt"
 viewBox="0.00 0.00 239.50 140.00" xmlns="http://www.w3.org/2000/svg" xmlns:xlink="http://www.w3.org/1999/xlink">
<g id="graph0" class="graph" transform="scale(1 1) rotate(0) translate(4 136)">
<title>include/UIimage.h</title>
<polygon fill="white" stroke="none" points="-4,4 -4,-136 235.5,-136 235.5,4 -4,4"/>
<!-- Node13 -->
<g id="node1" class="node"><title>Node13</title>
<polygon fill="#bfbfbf" stroke="black" points="76.5,-112.5 76.5,-131.5 171.5,-131.5 171.5,-112.5 76.5,-112.5"/>
<text text-anchor="middle" x="124" y="-119.5" font-family="Helvetica,sans-Serif" font-size="10.00">include/UIimage.h</text>
</g>
<!-- Node14 -->
<g id="node2" class="node"><title>Node14</title>
<g id="a_node2"><a xlink:href="UIimageButton_8h.html" target="_top" xlink:title="include/UIimageButton.h">
<polygon fill="white" stroke="black" points="-7.10543e-15,-56.5 -7.10543e-15,-75.5 124,-75.5 124,-56.5 -7.10543e-15,-56.5"/>
<text text-anchor="middle" x="62" y="-63.5" font-family="Helvetica,sans-Serif" font-size="10.00">include/UIimageButton.h</text>
</a>
</g>
</g>
<!-- Node13&#45;&gt;Node14 -->
<g id="edge1" class="edge"><title>Node13&#45;&gt;Node14</title>
<path fill="none" stroke="midnightblue" d="M106.246,-105.537C95.1915,-95.9087 81.3685,-83.8694 72.1426,-75.8339"/>
<polygon fill="midnightblue" stroke="midnightblue" points="104.199,-108.395 114.039,-112.324 108.797,-103.117 104.199,-108.395"/>
</g>
<!-- Node16 -->
<g id="node4" class="node"><title>Node16</title>
<g id="a_node4"><a xlink:href="UIimage_8cpp.html" target="_top" xlink:title="src/UIimage.cpp">
<polygon fill="white" stroke="black" points="142.5,-56.5 142.5,-75.5 231.5,-75.5 231.5,-56.5 142.5,-56.5"/>
<text text-anchor="middle" x="187" y="-63.5" font-family="Helvetica,sans-Serif" font-size="10.00">src/UIimage.cpp</text>
</a>
</g>
</g>
<!-- Node13&#45;&gt;Node16 -->
<g id="edge3" class="edge"><title>Node13&#45;&gt;Node16</title>
<path fill="none" stroke="midnightblue" d="M142.04,-105.537C153.273,-95.9087 167.319,-83.8694 176.694,-75.8339"/>
<polygon fill="midnightblue" stroke="midnightblue" points="139.437,-103.159 134.122,-112.324 143.992,-108.473 139.437,-103.159"/>
</g>
<!-- Node15 -->
<g id="node3" class="node"><title>Node15</title>
<g id="a_node3"><a xlink:href="UIimageButton_8cpp.html" target="_top" xlink:title="src/UIimageButton.cpp">
<polygon fill="white" stroke="black" points="3.5,-0.5 3.5,-19.5 120.5,-19.5 120.5,-0.5 3.5,-0.5"/>
<text text-anchor="middle" x="62" y="-7.5" font-family="Helvetica,sans-Serif" font-size="10.00">src/UIimageButton.cpp</text>
</a>
</g>
</g>
<!-- Node14&#45;&gt;Node15 -->
<g id="edge2" class="edge"><title>Node14&#45;&gt;Node15</title>
<path fill="none" stroke="midnightblue" d="M62,-45.8045C62,-36.9102 62,-26.7798 62,-19.7511"/>
<polygon fill="midnightblue" stroke="midnightblue" points="58.5001,-46.083 62,-56.083 65.5001,-46.083 58.5001,-46.083"/>
</g>
</g>
</svg>
