<?xml version="1.0" encoding="UTF-8" standalone="no"?>
<!DOCTYPE svg PUBLIC "-//W3C//DTD SVG 1.1//EN"
 "http://www.w3.org/Graphics/SVG/1.1/DTD/svg11.dtd">
<!-- Generated by graphviz version 2.38.0 (20140413.2041)
 -->
<!-- Title: src/UItextButton.cpp Pages: 1 -->
<svg width="639pt" height="420pt"
 viewBox="0.00 0.00 639.00 420.00" xmlns="http://www.w3.org/2000/svg" xmlns:xlink="http://www.w3.org/1999/xlink">
<g id="graph0" class="graph" transform="scale(1 1) rotate(0) translate(4 416)">
<title>src/UItextButton.cpp</title>
<polygon fill="white" stroke="none" points="-4,4 -4,-416 635,-416 635,4 -4,4"/>
<!-- Node0 -->
<g id="node1" class="node"><title>Node0</title>
<polygon fill="#bfbfbf" stroke="black" points="429.5,-392.5 429.5,-411.5 536.5,-411.5 536.5,-392.5 429.5,-392.5"/>
<text text-anchor="middle" x="483" y="-399.5" font-family="Helvetica,sans-Serif" font-size="10.00">src/UItextButton.cpp</text>
</g>
<!-- Node1 -->
<g id="node2" class="node"><title>Node1</title>
<g id="a_node2"><a xlink:href="UItextButton_8h.html" target="_top" xlink:title="UItextButton.h">
<polygon fill="white" stroke="black" points="116,-336.5 116,-355.5 196,-355.5 196,-336.5 116,-336.5"/>
<text text-anchor="middle" x="156" y="-343.5" font-family="Helvetica,sans-Serif" font-size="10.00">UItextButton.h</text>
</a>
</g>
</g>
<!-- Node0&#45;&gt;Node1 -->
<g id="edge1" class="edge"><title>Node0&#45;&gt;Node1</title>
<path fill="none" stroke="midnightblue" d="M431.186,-392.444C369.559,-382.267 267.382,-365.393 206.389,-355.321"/>
<polygon fill="midnightblue" stroke="midnightblue" points="206.669,-351.82 196.232,-353.644 205.528,-358.726 206.669,-351.82"/>
</g>
<!-- Node13 -->
<g id="node14" class="node"><title>Node13</title>
<g id="a_node14"><a xlink:href="InputManager_8h.html" target="_top" xlink:title="InputManager.h">
<polygon fill="white" stroke="black" points="458,-112.5 458,-131.5 542,-131.5 542,-112.5 458,-112.5"/>
<text text-anchor="middle" x="500" y="-119.5" font-family="Helvetica,sans-Serif" font-size="10.00">InputManager.h</text>
</a>
</g>
</g>
<!-- Node0&#45;&gt;Node13 -->
<g id="edge34" class="edge"><title>Node0&#45;&gt;Node13</title>
<path fill="none" stroke="midnightblue" d="M483,-392.442C483,-373.936 483,-328.812 483,-291 483,-291 483,-291 483,-233 483,-200.583 490.3,-163.415 495.333,-141.644"/>
<polygon fill="midnightblue" stroke="midnightblue" points="498.772,-142.31 497.707,-131.769 491.966,-140.674 498.772,-142.31"/>
</g>
<!-- Node17 -->
<g id="node18" class="node"><title>Node17</title>
<g id="a_node18"><a xlink:href="Error_8h.html" target="_top" xlink:title="Error.h">
<polygon fill="white" stroke="black" points="512,-336.5 512,-355.5 558,-355.5 558,-336.5 512,-336.5"/>
<text text-anchor="middle" x="535" y="-343.5" font-family="Helvetica,sans-Serif" font-size="10.00">Error.h</text>
</a>
</g>
</g>
<!-- Node0&#45;&gt;Node17 -->
<g id="edge35" class="edge"><title>Node0&#45;&gt;Node17</title>
<path fill="none" stroke="midnightblue" d="M491.587,-392.083C499.159,-384.22 510.378,-372.569 519.514,-363.081"/>
<polygon fill="midnightblue" stroke="midnightblue" points="522.158,-365.382 526.573,-355.751 517.115,-360.527 522.158,-365.382"/>
</g>
<!-- Node2 -->
<g id="node3" class="node"><title>Node2</title>
<g id="a_node3"><a xlink:href="UItext_8h.html" target="_top" xlink:title="UItext.h">
<polygon fill="white" stroke="black" points="206,-280.5 206,-299.5 258,-299.5 258,-280.5 206,-280.5"/>
<text text-anchor="middle" x="232" y="-287.5" font-family="Helvetica,sans-Serif" font-size="10.00">UItext.h</text>
</a>
</g>
</g>
<!-- Node1&#45;&gt;Node2 -->
<g id="edge2" class="edge"><title>Node1&#45;&gt;Node2</title>
<path fill="none" stroke="midnightblue" d="M168.211,-336.324C179.776,-328.107 197.375,-315.602 211.161,-305.807"/>
<polygon fill="midnightblue" stroke="midnightblue" points="213.443,-308.479 219.567,-299.834 209.388,-302.773 213.443,-308.479"/>
</g>
<!-- Node4 -->
<g id="node5" class="node"><title>Node4</title>
<g id="a_node5"><a xlink:href="Rect_8h.html" target="_top" xlink:title="Rect.h">
<polygon fill="white" stroke="black" points="110,-112.5 110,-131.5 156,-131.5 156,-112.5 110,-112.5"/>
<text text-anchor="middle" x="133" y="-119.5" font-family="Helvetica,sans-Serif" font-size="10.00">Rect.h</text>
</a>
</g>
</g>
<!-- Node1&#45;&gt;Node4 -->
<g id="edge32" class="edge"><title>Node1&#45;&gt;Node4</title>
<path fill="none" stroke="midnightblue" d="M150.108,-336.318C134.936,-313.367 94.7514,-248.689 81,-188 79.0357,-179.331 77.3048,-176.084 81,-168 86.7773,-155.36 98.0523,-144.911 108.631,-137.274"/>
<polygon fill="midnightblue" stroke="midnightblue" points="110.849,-140.001 117.217,-131.533 106.958,-134.182 110.849,-140.001"/>
</g>
<!-- Node10 -->
<g id="node11" class="node"><title>Node10</title>
<polygon fill="white" stroke="#bfbfbf" points="212.5,-112.5 212.5,-131.5 253.5,-131.5 253.5,-112.5 212.5,-112.5"/>
<text text-anchor="middle" x="233" y="-119.5" font-family="Helvetica,sans-Serif" font-size="10.00">string</text>
</g>
<!-- Node1&#45;&gt;Node10 -->
<g id="edge33" class="edge"><title>Node1&#45;&gt;Node10</title>
<path fill="none" stroke="midnightblue" d="M159.018,-336.297C170.396,-303.494 210.842,-186.884 226.626,-141.377"/>
<polygon fill="midnightblue" stroke="midnightblue" points="229.948,-142.479 229.919,-131.884 223.335,-140.185 229.948,-142.479"/>
</g>
<!-- Node16 -->
<g id="node17" class="node"><title>Node16</title>
<g id="a_node17"><a xlink:href="UIbutton_8h.html" target="_top" xlink:title="UIbutton.h">
<polygon fill="white" stroke="black" points="104,-168.5 104,-187.5 166,-187.5 166,-168.5 104,-168.5"/>
<text text-anchor="middle" x="135" y="-175.5" font-family="Helvetica,sans-Serif" font-size="10.00">UIbutton.h</text>
</a>
</g>
</g>
<!-- Node1&#45;&gt;Node16 -->
<g id="edge28" class="edge"><title>Node1&#45;&gt;Node16</title>
<path fill="none" stroke="midnightblue" d="M152.557,-336.196C149.224,-327.238 144.34,-312.88 142,-300 135.503,-264.238 134.587,-221.648 134.678,-197.725"/>
<polygon fill="midnightblue" stroke="midnightblue" points="138.179,-197.629 134.784,-187.593 131.18,-197.556 138.179,-197.629"/>
</g>
<!-- Node3 -->
<g id="node4" class="node"><title>Node3</title>
<g id="a_node4"><a xlink:href="SDL__include_8h.html" target="_top" xlink:title="SDL_include.h">
<polygon fill="white" stroke="black" points="235,-0.5 235,-19.5 315,-19.5 315,-0.5 235,-0.5"/>
<text text-anchor="middle" x="275" y="-7.5" font-family="Helvetica,sans-Serif" font-size="10.00">SDL_include.h</text>
</a>
</g>
</g>
<!-- Node2&#45;&gt;Node3 -->
<g id="edge3" class="edge"><title>Node2&#45;&gt;Node3</title>
<path fill="none" stroke="midnightblue" d="M205.838,-282.509C145.164,-266.692 0,-224.133 0,-179 0,-179 0,-179 0,-121 0,-73.2035 145.02,-36.8173 224.437,-20.4746"/>
<polygon fill="midnightblue" stroke="midnightblue" points="225.61,-23.8083 234.718,-18.3954 224.223,-16.9472 225.61,-23.8083"/>
</g>
<!-- Node2&#45;&gt;Node4 -->
<g id="edge4" class="edge"><title>Node2&#45;&gt;Node4</title>
<path fill="none" stroke="midnightblue" d="M207.722,-280.41C173.521,-266.83 112.488,-236.815 87,-188 77.3556,-169.529 95.0142,-150.276 111.168,-137.565"/>
<polygon fill="midnightblue" stroke="midnightblue" points="113.353,-140.303 119.326,-131.553 109.2,-134.668 113.353,-140.303"/>
</g>
<!-- Node7 -->
<g id="node8" class="node"><title>Node7</title>
<g id="a_node8"><a xlink:href="Timer_8h.html" target="_top" xlink:title="Timer.h">
<polygon fill="white" stroke="black" points="348,-224.5 348,-243.5 398,-243.5 398,-224.5 348,-224.5"/>
<text text-anchor="middle" x="373" y="-231.5" font-family="Helvetica,sans-Serif" font-size="10.00">Timer.h</text>
</a>
</g>
</g>
<!-- Node2&#45;&gt;Node7 -->
<g id="edge9" class="edge"><title>Node2&#45;&gt;Node7</title>
<path fill="none" stroke="midnightblue" d="M254.342,-280.444C277.753,-271.478 314.736,-257.314 341.19,-247.183"/>
<polygon fill="midnightblue" stroke="midnightblue" points="342.676,-250.361 350.763,-243.516 340.172,-243.824 342.676,-250.361"/>
</g>
<!-- Node8 -->
<g id="node9" class="node"><title>Node8</title>
<g id="a_node9"><a xlink:href="UIelement_8h.html" target="_top" xlink:title="UIelement.h">
<polygon fill="white" stroke="black" points="260,-224.5 260,-243.5 330,-243.5 330,-224.5 260,-224.5"/>
<text text-anchor="middle" x="295" y="-231.5" font-family="Helvetica,sans-Serif" font-size="10.00">UIelement.h</text>
</a>
</g>
</g>
<!-- Node2&#45;&gt;Node8 -->
<g id="edge10" class="edge"><title>Node2&#45;&gt;Node8</title>
<path fill="none" stroke="midnightblue" d="M242.122,-280.324C251.526,-272.263 265.744,-260.077 277.069,-250.369"/>
<polygon fill="midnightblue" stroke="midnightblue" points="279.379,-252.999 284.694,-243.834 274.823,-247.684 279.379,-252.999"/>
</g>
<!-- Node2&#45;&gt;Node10 -->
<g id="edge27" class="edge"><title>Node2&#45;&gt;Node10</title>
<path fill="none" stroke="midnightblue" d="M232.054,-280.075C232.211,-253.945 232.673,-177.211 232.888,-141.577"/>
<polygon fill="midnightblue" stroke="midnightblue" points="236.388,-141.589 232.948,-131.568 229.388,-141.547 236.388,-141.589"/>
</g>
<!-- Node11 -->
<g id="node12" class="node"><title>Node11</title>
<polygon fill="white" stroke="#bfbfbf" points="388,-112.5 388,-131.5 440,-131.5 440,-112.5 388,-112.5"/>
<text text-anchor="middle" x="414" y="-119.5" font-family="Helvetica,sans-Serif" font-size="10.00">memory</text>
</g>
<!-- Node2&#45;&gt;Node11 -->
<g id="edge26" class="edge"><title>Node2&#45;&gt;Node11</title>
<path fill="none" stroke="midnightblue" d="M258.166,-286.026C302.213,-280.439 388.215,-266.832 407,-244 430.873,-214.983 424.847,-167.571 419.018,-141.547"/>
<polygon fill="midnightblue" stroke="midnightblue" points="422.338,-140.395 416.54,-131.527 415.543,-142.075 422.338,-140.395"/>
</g>
<!-- Node4&#45;&gt;Node3 -->
<g id="edge5" class="edge"><title>Node4&#45;&gt;Node3</title>
<path fill="none" stroke="midnightblue" d="M142.554,-112.235C156.688,-99.4086 184.178,-74.9871 209,-56 223.182,-45.1519 239.793,-33.8332 252.802,-25.2612"/>
<polygon fill="midnightblue" stroke="midnightblue" points="255.091,-27.9472 261.552,-19.5509 251.265,-22.085 255.091,-27.9472"/>
</g>
<!-- Node5 -->
<g id="node6" class="node"><title>Node5</title>
<g id="a_node6"><a xlink:href="Vec2_8h.html" target="_top" xlink:title="Vec2.h">
<polygon fill="white" stroke="black" points="218.5,-56.5 218.5,-75.5 265.5,-75.5 265.5,-56.5 218.5,-56.5"/>
<text text-anchor="middle" x="242" y="-63.5" font-family="Helvetica,sans-Serif" font-size="10.00">Vec2.h</text>
</a>
</g>
</g>
<!-- Node4&#45;&gt;Node5 -->
<g id="edge6" class="edge"><title>Node4&#45;&gt;Node5</title>
<path fill="none" stroke="midnightblue" d="M150.513,-112.324C168.072,-103.625 195.331,-90.1202 215.531,-80.113"/>
<polygon fill="midnightblue" stroke="midnightblue" points="217.124,-83.23 224.531,-75.6545 214.016,-76.9575 217.124,-83.23"/>
</g>
<!-- Node6 -->
<g id="node7" class="node"><title>Node6</title>
<polygon fill="white" stroke="#bfbfbf" points="111,-56.5 111,-75.5 155,-75.5 155,-56.5 111,-56.5"/>
<text text-anchor="middle" x="133" y="-63.5" font-family="Helvetica,sans-Serif" font-size="10.00">cmath</text>
</g>
<!-- Node4&#45;&gt;Node6 -->
<g id="edge8" class="edge"><title>Node4&#45;&gt;Node6</title>
<path fill="none" stroke="midnightblue" d="M133,-112.083C133,-105.006 133,-94.8611 133,-85.9865"/>
<polygon fill="midnightblue" stroke="midnightblue" points="136.5,-85.751 133,-75.7511 129.5,-85.7511 136.5,-85.751"/>
</g>
<!-- Node5&#45;&gt;Node3 -->
<g id="edge7" class="edge"><title>Node5&#45;&gt;Node3</title>
<path fill="none" stroke="midnightblue" d="M247.449,-56.083C252.014,-48.6127 258.668,-37.7244 264.293,-28.5199"/>
<polygon fill="midnightblue" stroke="midnightblue" points="267.424,-30.109 269.652,-19.7511 261.451,-26.4588 267.424,-30.109"/>
</g>
<!-- Node8&#45;&gt;Node4 -->
<g id="edge23" class="edge"><title>Node8&#45;&gt;Node4</title>
<path fill="none" stroke="midnightblue" d="M259.754,-227.502C205.15,-218.63 105.283,-200.853 95,-188 82.5293,-172.412 98.4611,-152.29 113.346,-138.591"/>
<polygon fill="midnightblue" stroke="midnightblue" points="116.035,-140.893 121.321,-131.711 111.463,-135.593 116.035,-140.893"/>
</g>
<!-- Node8&#45;&gt;Node5 -->
<g id="edge24" class="edge"><title>Node8&#45;&gt;Node5</title>
<path fill="none" stroke="midnightblue" d="M293.153,-224.341C288.761,-204.27 276.936,-153.139 262,-112 258.718,-102.959 254.458,-93.1743 250.714,-85.0449"/>
<polygon fill="midnightblue" stroke="midnightblue" points="253.791,-83.3647 246.359,-75.8139 247.46,-86.3514 253.791,-83.3647"/>
</g>
<!-- Node9 -->
<g id="node10" class="node"><title>Node9</title>
<g id="a_node10"><a xlink:href="Sprite_8h.html" target="_top" xlink:title="Sprite.h">
<polygon fill="white" stroke="black" points="336,-168.5 336,-187.5 386,-187.5 386,-168.5 336,-168.5"/>
<text text-anchor="middle" x="361" y="-175.5" font-family="Helvetica,sans-Serif" font-size="10.00">Sprite.h</text>
</a>
</g>
</g>
<!-- Node8&#45;&gt;Node9 -->
<g id="edge11" class="edge"><title>Node8&#45;&gt;Node9</title>
<path fill="none" stroke="midnightblue" d="M305.604,-224.324C315.456,-216.263 330.351,-204.077 342.215,-194.369"/>
<polygon fill="midnightblue" stroke="midnightblue" points="344.68,-196.875 350.203,-187.834 340.247,-191.457 344.68,-196.875"/>
</g>
<!-- Node8&#45;&gt;Node10 -->
<g id="edge25" class="edge"><title>Node8&#45;&gt;Node10</title>
<path fill="none" stroke="midnightblue" d="M290.135,-224.368C279.948,-206.296 256.209,-164.176 242.755,-140.307"/>
<polygon fill="midnightblue" stroke="midnightblue" points="245.802,-138.584 237.842,-131.591 239.704,-142.022 245.802,-138.584"/>
</g>
<!-- Node9&#45;&gt;Node3 -->
<g id="edge12" class="edge"><title>Node9&#45;&gt;Node3</title>
<path fill="none" stroke="midnightblue" d="M361.773,-168.273C363.205,-147.171 364.255,-92.4337 341,-56 332.354,-42.4543 318.013,-31.9515 304.904,-24.5123"/>
<polygon fill="midnightblue" stroke="midnightblue" points="306.152,-21.2134 295.675,-19.6371 302.882,-27.4028 306.152,-21.2134"/>
</g>
<!-- Node9&#45;&gt;Node4 -->
<g id="edge17" class="edge"><title>Node9&#45;&gt;Node4</title>
<path fill="none" stroke="midnightblue" d="M335.729,-171.015C294.337,-161.211 212.105,-141.735 166.109,-130.842"/>
<polygon fill="midnightblue" stroke="midnightblue" points="166.866,-127.424 156.329,-128.525 165.253,-134.236 166.866,-127.424"/>
</g>
<!-- Node9&#45;&gt;Node10 -->
<g id="edge13" class="edge"><title>Node9&#45;&gt;Node10</title>
<path fill="none" stroke="midnightblue" d="M340.718,-168.444C319.653,-159.557 286.483,-145.563 262.514,-135.451"/>
<polygon fill="midnightblue" stroke="midnightblue" points="263.761,-132.179 253.187,-131.516 261.04,-138.628 263.761,-132.179"/>
</g>
<!-- Node9&#45;&gt;Node11 -->
<g id="edge14" class="edge"><title>Node9&#45;&gt;Node11</title>
<path fill="none" stroke="midnightblue" d="M369.752,-168.083C377.47,-160.22 388.905,-148.569 398.217,-139.081"/>
<polygon fill="midnightblue" stroke="midnightblue" points="400.904,-141.34 405.411,-131.751 395.908,-136.436 400.904,-141.34"/>
</g>
<!-- Node12 -->
<g id="node13" class="node"><title>Node12</title>
<g id="a_node13"><a xlink:href="Color_8h.html" target="_top" xlink:title="Color.h">
<polygon fill="white" stroke="black" points="284,-56.5 284,-75.5 332,-75.5 332,-56.5 284,-56.5"/>
<text text-anchor="middle" x="308" y="-63.5" font-family="Helvetica,sans-Serif" font-size="10.00">Color.h</text>
</a>
</g>
</g>
<!-- Node9&#45;&gt;Node12 -->
<g id="edge15" class="edge"><title>Node9&#45;&gt;Node12</title>
<path fill="none" stroke="midnightblue" d="M356.841,-168.368C348.172,-150.376 328.02,-108.55 316.493,-84.6267"/>
<polygon fill="midnightblue" stroke="midnightblue" points="319.633,-83.081 312.14,-75.5914 313.327,-86.1195 319.633,-83.081"/>
</g>
<!-- Node9&#45;&gt;Node13 -->
<g id="edge18" class="edge"><title>Node9&#45;&gt;Node13</title>
<path fill="none" stroke="midnightblue" d="M383.025,-168.444C406.104,-159.478 442.562,-145.314 468.641,-135.183"/>
<polygon fill="midnightblue" stroke="midnightblue" points="470.024,-138.4 478.078,-131.516 467.489,-131.875 470.024,-138.4"/>
</g>
<!-- Node12&#45;&gt;Node3 -->
<g id="edge16" class="edge"><title>Node12&#45;&gt;Node3</title>
<path fill="none" stroke="midnightblue" d="M302.551,-56.083C297.986,-48.6127 291.332,-37.7244 285.707,-28.5199"/>
<polygon fill="midnightblue" stroke="midnightblue" points="288.549,-26.4588 280.348,-19.7511 282.576,-30.109 288.549,-26.4588"/>
</g>
<!-- Node13&#45;&gt;Node3 -->
<g id="edge19" class="edge"><title>Node13&#45;&gt;Node3</title>
<path fill="none" stroke="midnightblue" d="M483.82,-112.326C459.963,-99.6117 413.867,-75.3291 374,-56 350.602,-44.6557 323.725,-32.4926 303.885,-23.6754"/>
<polygon fill="midnightblue" stroke="midnightblue" points="305.043,-20.3606 294.482,-19.5131 302.209,-26.7615 305.043,-20.3606"/>
</g>
<!-- Node13&#45;&gt;Node5 -->
<g id="edge20" class="edge"><title>Node13&#45;&gt;Node5</title>
<path fill="none" stroke="midnightblue" d="M457.93,-113.481C414.624,-105.543 344.998,-92.2286 275.54,-75.995"/>
<polygon fill="midnightblue" stroke="midnightblue" points="276.279,-72.5735 265.743,-73.6853 274.673,-79.3867 276.279,-72.5735"/>
</g>
<!-- Node14 -->
<g id="node15" class="node"><title>Node14</title>
<polygon fill="white" stroke="#bfbfbf" points="450.5,-56.5 450.5,-75.5 533.5,-75.5 533.5,-56.5 450.5,-56.5"/>
<text text-anchor="middle" x="492" y="-63.5" font-family="Helvetica,sans-Serif" font-size="10.00">unordered_map</text>
</g>
<!-- Node13&#45;&gt;Node14 -->
<g id="edge21" class="edge"><title>Node13&#45;&gt;Node14</title>
<path fill="none" stroke="midnightblue" d="M498.679,-112.083C497.619,-104.927 496.094,-94.6353 494.769,-85.6911"/>
<polygon fill="midnightblue" stroke="midnightblue" points="498.224,-85.1302 493.296,-75.7511 491.3,-86.1561 498.224,-85.1302"/>
</g>
<!-- Node15 -->
<g id="node16" class="node"><title>Node15</title>
<polygon fill="white" stroke="#bfbfbf" points="552,-56.5 552,-75.5 598,-75.5 598,-56.5 552,-56.5"/>
<text text-anchor="middle" x="575" y="-63.5" font-family="Helvetica,sans-Serif" font-size="10.00">cstdint</text>
</g>
<!-- Node13&#45;&gt;Node15 -->
<g id="edge22" class="edge"><title>Node13&#45;&gt;Node15</title>
<path fill="none" stroke="midnightblue" d="M512.05,-112.324C523.463,-104.107 540.831,-91.6017 554.435,-81.8069"/>
<polygon fill="midnightblue" stroke="midnightblue" points="556.66,-84.5174 562.731,-75.8339 552.57,-78.8366 556.66,-84.5174"/>
</g>
<!-- Node16&#45;&gt;Node4 -->
<g id="edge29" class="edge"><title>Node16&#45;&gt;Node4</title>
<path fill="none" stroke="midnightblue" d="M134.67,-168.083C134.408,-161.006 134.032,-150.861 133.703,-141.986"/>
<polygon fill="midnightblue" stroke="midnightblue" points="137.192,-141.615 133.324,-131.751 130.197,-141.874 137.192,-141.615"/>
</g>
<!-- Node16&#45;&gt;Node5 -->
<g id="edge30" class="edge"><title>Node16&#45;&gt;Node5</title>
<path fill="none" stroke="midnightblue" d="M143.396,-168.368C161.289,-149.974 203.411,-106.671 226.386,-83.0519"/>
<polygon fill="midnightblue" stroke="midnightblue" points="229.179,-85.2 233.643,-75.5914 224.161,-80.3192 229.179,-85.2"/>
</g>
<!-- Node16&#45;&gt;Node10 -->
<g id="edge31" class="edge"><title>Node16&#45;&gt;Node10</title>
<path fill="none" stroke="midnightblue" d="M150.745,-168.324C166.319,-159.743 190.377,-146.486 208.459,-136.522"/>
<polygon fill="midnightblue" stroke="midnightblue" points="210.224,-139.546 217.294,-131.655 206.846,-133.415 210.224,-139.546"/>
</g>
<!-- Node18 -->
<g id="node19" class="node"><title>Node18</title>
<polygon fill="white" stroke="#bfbfbf" points="577,-280.5 577,-299.5 631,-299.5 631,-280.5 577,-280.5"/>
<text text-anchor="middle" x="604" y="-287.5" font-family="Helvetica,sans-Serif" font-size="10.00">iostream</text>
</g>
<!-- Node17&#45;&gt;Node18 -->
<g id="edge36" class="edge"><title>Node17&#45;&gt;Node18</title>
<path fill="none" stroke="midnightblue" d="M546.086,-336.324C556.486,-328.185 572.261,-315.839 584.722,-306.087"/>
<polygon fill="midnightblue" stroke="midnightblue" points="586.994,-308.753 592.712,-299.834 582.68,-303.241 586.994,-308.753"/>
</g>
<!-- Node19 -->
<g id="node20" class="node"><title>Node19</title>
<polygon fill="white" stroke="#bfbfbf" points="511,-280.5 511,-299.5 559,-299.5 559,-280.5 511,-280.5"/>
<text text-anchor="middle" x="535" y="-287.5" font-family="Helvetica,sans-Serif" font-size="10.00">stdlib.h</text>
</g>
<!-- Node17&#45;&gt;Node19 -->
<g id="edge37" class="edge"><title>Node17&#45;&gt;Node19</title>
<path fill="none" stroke="midnightblue" d="M535,-336.083C535,-329.006 535,-318.861 535,-309.986"/>
<polygon fill="midnightblue" stroke="midnightblue" points="538.5,-309.751 535,-299.751 531.5,-309.751 538.5,-309.751"/>
</g>
</g>
</svg>
