<?xml version="1.0" encoding="UTF-8" standalone="no"?>
<!DOCTYPE svg PUBLIC "-//W3C//DTD SVG 1.1//EN"
 "http://www.w3.org/Graphics/SVG/1.1/DTD/svg11.dtd">
<!-- Generated by graphviz version 2.38.0 (20140413.2041)
 -->
<!-- Title: src/UItext.cpp Pages: 1 -->
<svg width="1070pt" height="364pt"
 viewBox="0.00 0.00 1070.00 364.00" xmlns="http://www.w3.org/2000/svg" xmlns:xlink="http://www.w3.org/1999/xlink">
<g id="graph0" class="graph" transform="scale(1 1) rotate(0) translate(4 360)">
<title>src/UItext.cpp</title>
<polygon fill="white" stroke="none" points="-4,4 -4,-360 1066,-360 1066,4 -4,4"/>
<!-- Node0 -->
<g id="node1" class="node"><title>Node0</title>
<polygon fill="#bfbfbf" stroke="black" points="561.5,-336.5 561.5,-355.5 640.5,-355.5 640.5,-336.5 561.5,-336.5"/>
<text text-anchor="middle" x="601" y="-343.5" font-family="Helvetica,sans-Serif" font-size="10.00">src/UItext.cpp</text>
</g>
<!-- Node1 -->
<g id="node2" class="node"><title>Node1</title>
<g id="a_node2"><a xlink:href="UItext_8h.html" target="_top" xlink:title="UItext.h">
<polygon fill="white" stroke="black" points="665,-280.5 665,-299.5 717,-299.5 717,-280.5 665,-280.5"/>
<text text-anchor="middle" x="691" y="-287.5" font-family="Helvetica,sans-Serif" font-size="10.00">UItext.h</text>
</a>
</g>
</g>
<!-- Node0&#45;&gt;Node1 -->
<g id="edge1" class="edge"><title>Node0&#45;&gt;Node1</title>
<path fill="none" stroke="midnightblue" d="M615.46,-336.324C629.5,-327.9 651.048,-314.971 667.543,-305.074"/>
<polygon fill="midnightblue" stroke="midnightblue" points="669.802,-307.801 676.576,-299.655 666.2,-301.798 669.802,-307.801"/>
</g>
<!-- Node15 -->
<g id="node16" class="node"><title>Node15</title>
<g id="a_node16"><a xlink:href="Resources_8h.html" target="_top" xlink:title="Resources.h">
<polygon fill="white" stroke="black" points="412,-168.5 412,-187.5 484,-187.5 484,-168.5 412,-168.5"/>
<text text-anchor="middle" x="448" y="-175.5" font-family="Helvetica,sans-Serif" font-size="10.00">Resources.h</text>
</a>
</g>
</g>
<!-- Node0&#45;&gt;Node15 -->
<g id="edge27" class="edge"><title>Node0&#45;&gt;Node15</title>
<path fill="none" stroke="midnightblue" d="M592.774,-336.075C568.169,-309.38 494.882,-229.865 463.044,-195.322"/>
<polygon fill="midnightblue" stroke="midnightblue" points="465.248,-192.549 455.897,-187.568 460.101,-197.293 465.248,-192.549"/>
</g>
<!-- Node16 -->
<g id="node17" class="node"><title>Node16</title>
<g id="a_node17"><a xlink:href="Game_8h.html" target="_top" xlink:title="Game.h">
<polygon fill="white" stroke="black" points="320.5,-280.5 320.5,-299.5 371.5,-299.5 371.5,-280.5 320.5,-280.5"/>
<text text-anchor="middle" x="346" y="-287.5" font-family="Helvetica,sans-Serif" font-size="10.00">Game.h</text>
</a>
</g>
</g>
<!-- Node0&#45;&gt;Node16 -->
<g id="edge32" class="edge"><title>Node0&#45;&gt;Node16</title>
<path fill="none" stroke="midnightblue" d="M561.436,-336.622C512.172,-326.189 428.757,-308.525 381.476,-298.513"/>
<polygon fill="midnightblue" stroke="midnightblue" points="382.188,-295.086 371.68,-296.438 380.738,-301.934 382.188,-295.086"/>
</g>
<!-- Node23 -->
<g id="node24" class="node"><title>Node23</title>
<g id="a_node24"><a xlink:href="Error_8h.html" target="_top" xlink:title="Error.h">
<polygon fill="white" stroke="black" points="943,-280.5 943,-299.5 989,-299.5 989,-280.5 943,-280.5"/>
<text text-anchor="middle" x="966" y="-287.5" font-family="Helvetica,sans-Serif" font-size="10.00">Error.h</text>
</a>
</g>
</g>
<!-- Node0&#45;&gt;Node23 -->
<g id="edge53" class="edge"><title>Node0&#45;&gt;Node23</title>
<path fill="none" stroke="midnightblue" d="M640.756,-339.118C713.189,-328.402 865.38,-305.886 932.726,-295.923"/>
<polygon fill="midnightblue" stroke="midnightblue" points="933.401,-299.361 942.781,-294.435 932.376,-292.436 933.401,-299.361"/>
</g>
<!-- Node2 -->
<g id="node3" class="node"><title>Node2</title>
<g id="a_node3"><a xlink:href="SDL__include_8h.html" target="_top" xlink:title="SDL_include.h">
<polygon fill="white" stroke="black" points="490,-0.5 490,-19.5 570,-19.5 570,-0.5 490,-0.5"/>
<text text-anchor="middle" x="530" y="-7.5" font-family="Helvetica,sans-Serif" font-size="10.00">SDL_include.h</text>
</a>
</g>
</g>
<!-- Node1&#45;&gt;Node2 -->
<g id="edge2" class="edge"><title>Node1&#45;&gt;Node2</title>
<path fill="none" stroke="midnightblue" d="M717.294,-283.155C761.516,-271.601 846,-241.365 846,-179 846,-179 846,-179 846,-121 846,-75.8741 808.812,-75.2537 768,-56 707.462,-27.4403 630.192,-16.9989 580.403,-13.186"/>
<polygon fill="midnightblue" stroke="midnightblue" points="580.432,-9.67951 570.211,-12.4688 579.941,-16.6622 580.432,-9.67951"/>
</g>
<!-- Node3 -->
<g id="node4" class="node"><title>Node3</title>
<g id="a_node4"><a xlink:href="Rect_8h.html" target="_top" xlink:title="Rect.h">
<polygon fill="white" stroke="black" points="656,-112.5 656,-131.5 702,-131.5 702,-112.5 656,-112.5"/>
<text text-anchor="middle" x="679" y="-119.5" font-family="Helvetica,sans-Serif" font-size="10.00">Rect.h</text>
</a>
</g>
</g>
<!-- Node1&#45;&gt;Node3 -->
<g id="edge3" class="edge"><title>Node1&#45;&gt;Node3</title>
<path fill="none" stroke="midnightblue" d="M704.036,-280.239C731.941,-260.368 792.892,-210.322 767,-168 755.104,-148.555 731.857,-137.173 712.244,-130.723"/>
<polygon fill="midnightblue" stroke="midnightblue" points="712.981,-127.29 702.398,-127.782 710.978,-133.998 712.981,-127.29"/>
</g>
<!-- Node6 -->
<g id="node7" class="node"><title>Node6</title>
<g id="a_node7"><a xlink:href="Timer_8h.html" target="_top" xlink:title="Timer.h">
<polygon fill="white" stroke="black" points="874,-224.5 874,-243.5 924,-243.5 924,-224.5 874,-224.5"/>
<text text-anchor="middle" x="899" y="-231.5" font-family="Helvetica,sans-Serif" font-size="10.00">Timer.h</text>
</a>
</g>
</g>
<!-- Node1&#45;&gt;Node6 -->
<g id="edge8" class="edge"><title>Node1&#45;&gt;Node6</title>
<path fill="none" stroke="midnightblue" d="M717.343,-282.161C754.53,-272.507 822.491,-254.863 863.918,-244.108"/>
<polygon fill="midnightblue" stroke="midnightblue" points="865.044,-247.432 873.844,-241.531 863.285,-240.656 865.044,-247.432"/>
</g>
<!-- Node7 -->
<g id="node8" class="node"><title>Node7</title>
<g id="a_node8"><a xlink:href="UIelement_8h.html" target="_top" xlink:title="UIelement.h">
<polygon fill="white" stroke="black" points="656,-224.5 656,-243.5 726,-243.5 726,-224.5 656,-224.5"/>
<text text-anchor="middle" x="691" y="-231.5" font-family="Helvetica,sans-Serif" font-size="10.00">UIelement.h</text>
</a>
</g>
</g>
<!-- Node1&#45;&gt;Node7 -->
<g id="edge9" class="edge"><title>Node1&#45;&gt;Node7</title>
<path fill="none" stroke="midnightblue" d="M691,-280.083C691,-273.006 691,-262.861 691,-253.986"/>
<polygon fill="midnightblue" stroke="midnightblue" points="694.5,-253.751 691,-243.751 687.5,-253.751 694.5,-253.751"/>
</g>
<!-- Node9 -->
<g id="node10" class="node"><title>Node9</title>
<polygon fill="white" stroke="#bfbfbf" points="558.5,-112.5 558.5,-131.5 599.5,-131.5 599.5,-112.5 558.5,-112.5"/>
<text text-anchor="middle" x="579" y="-119.5" font-family="Helvetica,sans-Serif" font-size="10.00">string</text>
</g>
<!-- Node1&#45;&gt;Node9 -->
<g id="edge26" class="edge"><title>Node1&#45;&gt;Node9</title>
<path fill="none" stroke="midnightblue" d="M681.144,-280.339C671.687,-271.719 657.352,-257.815 647,-244 621.46,-209.916 598.772,-165.217 587.172,-140.809"/>
<polygon fill="midnightblue" stroke="midnightblue" points="590.31,-139.257 582.904,-131.681 583.969,-142.222 590.31,-139.257"/>
</g>
<!-- Node10 -->
<g id="node11" class="node"><title>Node10</title>
<polygon fill="white" stroke="#bfbfbf" points="374,-112.5 374,-131.5 426,-131.5 426,-112.5 374,-112.5"/>
<text text-anchor="middle" x="400" y="-119.5" font-family="Helvetica,sans-Serif" font-size="10.00">memory</text>
</g>
<!-- Node1&#45;&gt;Node10 -->
<g id="edge25" class="edge"><title>Node1&#45;&gt;Node10</title>
<path fill="none" stroke="midnightblue" d="M664.768,-288.819C606.462,-286.838 466.269,-273.011 403,-188 393.208,-174.843 393.558,-155.702 395.695,-141.597"/>
<polygon fill="midnightblue" stroke="midnightblue" points="399.171,-142.058 397.633,-131.576 392.298,-140.729 399.171,-142.058"/>
</g>
<!-- Node3&#45;&gt;Node2 -->
<g id="edge4" class="edge"><title>Node3&#45;&gt;Node2</title>
<path fill="none" stroke="midnightblue" d="M667.308,-112.368C641.849,-93.5728 581.159,-48.7684 549.686,-25.5334"/>
<polygon fill="midnightblue" stroke="midnightblue" points="551.761,-22.715 541.637,-19.5914 547.604,-28.3466 551.761,-22.715"/>
</g>
<!-- Node4 -->
<g id="node5" class="node"><title>Node4</title>
<g id="a_node5"><a xlink:href="Vec2_8h.html" target="_top" xlink:title="Vec2.h">
<polygon fill="white" stroke="black" points="416.5,-56.5 416.5,-75.5 463.5,-75.5 463.5,-56.5 416.5,-56.5"/>
<text text-anchor="middle" x="440" y="-63.5" font-family="Helvetica,sans-Serif" font-size="10.00">Vec2.h</text>
</a>
</g>
</g>
<!-- Node3&#45;&gt;Node4 -->
<g id="edge5" class="edge"><title>Node3&#45;&gt;Node4</title>
<path fill="none" stroke="midnightblue" d="M655.924,-115.314C651.316,-114.199 646.507,-113.05 642,-112 582.771,-98.2005 513.556,-82.9763 473.454,-74.2442"/>
<polygon fill="midnightblue" stroke="midnightblue" points="474.184,-70.8214 463.669,-72.1167 472.697,-77.6615 474.184,-70.8214"/>
</g>
<!-- Node5 -->
<g id="node6" class="node"><title>Node5</title>
<polygon fill="white" stroke="#bfbfbf" points="630,-56.5 630,-75.5 674,-75.5 674,-56.5 630,-56.5"/>
<text text-anchor="middle" x="652" y="-63.5" font-family="Helvetica,sans-Serif" font-size="10.00">cmath</text>
</g>
<!-- Node3&#45;&gt;Node5 -->
<g id="edge7" class="edge"><title>Node3&#45;&gt;Node5</title>
<path fill="none" stroke="midnightblue" d="M674.541,-112.083C670.846,-104.691 665.477,-93.9533 660.906,-84.8111"/>
<polygon fill="midnightblue" stroke="midnightblue" points="663.978,-83.1301 656.376,-75.7511 657.717,-86.2606 663.978,-83.1301"/>
</g>
<!-- Node4&#45;&gt;Node2 -->
<g id="edge6" class="edge"><title>Node4&#45;&gt;Node2</title>
<path fill="none" stroke="midnightblue" d="M454.46,-56.324C468.5,-47.9002 490.048,-34.9709 506.543,-25.0741"/>
<polygon fill="midnightblue" stroke="midnightblue" points="508.802,-27.8007 515.576,-19.6545 505.2,-21.7983 508.802,-27.8007"/>
</g>
<!-- Node7&#45;&gt;Node3 -->
<g id="edge22" class="edge"><title>Node7&#45;&gt;Node3</title>
<path fill="none" stroke="midnightblue" d="M709.512,-224.459C731.58,-213.001 763.954,-191.372 751,-168 742.5,-152.665 726.356,-141.865 711.505,-134.697"/>
<polygon fill="midnightblue" stroke="midnightblue" points="712.587,-131.349 702.026,-130.5 709.753,-137.749 712.587,-131.349"/>
</g>
<!-- Node7&#45;&gt;Node4 -->
<g id="edge23" class="edge"><title>Node7&#45;&gt;Node4</title>
<path fill="none" stroke="midnightblue" d="M687.694,-224.348C678.66,-201.929 651.303,-141.642 608,-112 567.18,-84.0575 509.803,-73.4495 473.778,-69.433"/>
<polygon fill="midnightblue" stroke="midnightblue" points="474.07,-65.9448 463.77,-68.4259 473.369,-72.9097 474.07,-65.9448"/>
</g>
<!-- Node8 -->
<g id="node9" class="node"><title>Node8</title>
<g id="a_node9"><a xlink:href="Sprite_8h.html" target="_top" xlink:title="Sprite.h">
<polygon fill="white" stroke="black" points="692,-168.5 692,-187.5 742,-187.5 742,-168.5 692,-168.5"/>
<text text-anchor="middle" x="717" y="-175.5" font-family="Helvetica,sans-Serif" font-size="10.00">Sprite.h</text>
</a>
</g>
</g>
<!-- Node7&#45;&gt;Node8 -->
<g id="edge10" class="edge"><title>Node7&#45;&gt;Node8</title>
<path fill="none" stroke="midnightblue" d="M695.293,-224.083C698.852,-216.691 704.022,-205.953 708.424,-196.811"/>
<polygon fill="midnightblue" stroke="midnightblue" points="711.602,-198.279 712.787,-187.751 705.295,-195.243 711.602,-198.279"/>
</g>
<!-- Node7&#45;&gt;Node9 -->
<g id="edge24" class="edge"><title>Node7&#45;&gt;Node9</title>
<path fill="none" stroke="midnightblue" d="M682.212,-224.368C663.401,-205.894 619.007,-162.293 595.03,-138.744"/>
<polygon fill="midnightblue" stroke="midnightblue" points="597.335,-136.101 587.748,-131.591 592.43,-141.096 597.335,-136.101"/>
</g>
<!-- Node8&#45;&gt;Node2 -->
<g id="edge11" class="edge"><title>Node8&#45;&gt;Node2</title>
<path fill="none" stroke="midnightblue" d="M723.892,-168.303C740.06,-146.793 777.013,-90.3541 749,-56 728.116,-30.3887 638.125,-18.9391 580.198,-14.1429"/>
<polygon fill="midnightblue" stroke="midnightblue" points="580.377,-10.6462 570.133,-13.3493 579.827,-17.6245 580.377,-10.6462"/>
</g>
<!-- Node8&#45;&gt;Node3 -->
<g id="edge16" class="edge"><title>Node8&#45;&gt;Node3</title>
<path fill="none" stroke="midnightblue" d="M710.725,-168.083C705.358,-160.455 697.482,-149.264 690.921,-139.941"/>
<polygon fill="midnightblue" stroke="midnightblue" points="693.775,-137.915 685.158,-131.751 688.051,-141.943 693.775,-137.915"/>
</g>
<!-- Node8&#45;&gt;Node9 -->
<g id="edge12" class="edge"><title>Node8&#45;&gt;Node9</title>
<path fill="none" stroke="midnightblue" d="M695.133,-168.444C671.951,-159.372 635.171,-144.98 609.224,-134.827"/>
<polygon fill="midnightblue" stroke="midnightblue" points="610.449,-131.548 599.861,-131.163 607.898,-138.066 610.449,-131.548"/>
</g>
<!-- Node8&#45;&gt;Node10 -->
<g id="edge13" class="edge"><title>Node8&#45;&gt;Node10</title>
<path fill="none" stroke="midnightblue" d="M691.861,-172.718C635.957,-163.195 501.166,-140.233 436.202,-129.167"/>
<polygon fill="midnightblue" stroke="midnightblue" points="436.473,-125.663 426.027,-127.434 435.297,-132.563 436.473,-125.663"/>
</g>
<!-- Node11 -->
<g id="node12" class="node"><title>Node11</title>
<g id="a_node12"><a xlink:href="Color_8h.html" target="_top" xlink:title="Color.h">
<polygon fill="white" stroke="black" points="692,-56.5 692,-75.5 740,-75.5 740,-56.5 692,-56.5"/>
<text text-anchor="middle" x="716" y="-63.5" font-family="Helvetica,sans-Serif" font-size="10.00">Color.h</text>
</a>
</g>
</g>
<!-- Node8&#45;&gt;Node11 -->
<g id="edge14" class="edge"><title>Node8&#45;&gt;Node11</title>
<path fill="none" stroke="midnightblue" d="M716.922,-168.368C716.76,-150.617 716.388,-109.666 716.169,-85.5974"/>
<polygon fill="midnightblue" stroke="midnightblue" points="719.669,-85.5592 716.078,-75.5914 712.669,-85.6229 719.669,-85.5592"/>
</g>
<!-- Node12 -->
<g id="node13" class="node"><title>Node12</title>
<g id="a_node13"><a xlink:href="InputManager_8h.html" target="_top" xlink:title="InputManager.h">
<polygon fill="white" stroke="black" points="2,-112.5 2,-131.5 86,-131.5 86,-112.5 2,-112.5"/>
<text text-anchor="middle" x="44" y="-119.5" font-family="Helvetica,sans-Serif" font-size="10.00">InputManager.h</text>
</a>
</g>
</g>
<!-- Node8&#45;&gt;Node12 -->
<g id="edge17" class="edge"><title>Node8&#45;&gt;Node12</title>
<path fill="none" stroke="midnightblue" d="M691.728,-176.101C608.258,-172.938 333.665,-160.975 96.4485,-132.056"/>
<polygon fill="midnightblue" stroke="midnightblue" points="96.6035,-128.549 86.2505,-130.8 95.7474,-135.496 96.6035,-128.549"/>
</g>
<!-- Node11&#45;&gt;Node2 -->
<g id="edge15" class="edge"><title>Node11&#45;&gt;Node2</title>
<path fill="none" stroke="midnightblue" d="M691.684,-57.9404C660.631,-48.925 606.494,-33.2079 569.489,-22.4646"/>
<polygon fill="midnightblue" stroke="midnightblue" points="570.119,-19.003 559.54,-19.576 568.167,-25.7254 570.119,-19.003"/>
</g>
<!-- Node12&#45;&gt;Node2 -->
<g id="edge18" class="edge"><title>Node12&#45;&gt;Node2</title>
<path fill="none" stroke="midnightblue" d="M47.6374,-112.441C54.2815,-97.9911 69.8613,-69.0563 93,-56 158.036,-19.3027 379.268,-12.4168 479.688,-11.2073"/>
<polygon fill="midnightblue" stroke="midnightblue" points="479.921,-14.7051 489.883,-11.0991 479.847,-7.70551 479.921,-14.7051"/>
</g>
<!-- Node12&#45;&gt;Node4 -->
<g id="edge19" class="edge"><title>Node12&#45;&gt;Node4</title>
<path fill="none" stroke="midnightblue" d="M86,-113.434C89.0432,-112.933 92.0673,-112.45 95,-112 208.726,-94.5574 344.216,-78.1582 406.12,-70.9065"/>
<polygon fill="midnightblue" stroke="midnightblue" points="406.58,-74.3767 416.107,-69.7413 405.768,-67.4239 406.58,-74.3767"/>
</g>
<!-- Node13 -->
<g id="node14" class="node"><title>Node13</title>
<polygon fill="white" stroke="#bfbfbf" points="217.5,-56.5 217.5,-75.5 300.5,-75.5 300.5,-56.5 217.5,-56.5"/>
<text text-anchor="middle" x="259" y="-63.5" font-family="Helvetica,sans-Serif" font-size="10.00">unordered_map</text>
</g>
<!-- Node12&#45;&gt;Node13 -->
<g id="edge20" class="edge"><title>Node12&#45;&gt;Node13</title>
<path fill="none" stroke="midnightblue" d="M78.0674,-112.444C115.18,-103.122 174.661,-88.1828 215.215,-77.9972"/>
<polygon fill="midnightblue" stroke="midnightblue" points="216.246,-81.347 225.092,-75.5164 214.541,-74.5579 216.246,-81.347"/>
</g>
<!-- Node14 -->
<g id="node15" class="node"><title>Node14</title>
<polygon fill="white" stroke="#bfbfbf" points="0,-56.5 0,-75.5 46,-75.5 46,-56.5 0,-56.5"/>
<text text-anchor="middle" x="23" y="-63.5" font-family="Helvetica,sans-Serif" font-size="10.00">cstdint</text>
</g>
<!-- Node12&#45;&gt;Node14 -->
<g id="edge21" class="edge"><title>Node12&#45;&gt;Node14</title>
<path fill="none" stroke="midnightblue" d="M40.5323,-112.083C37.6883,-104.77 33.5705,-94.1814 30.0402,-85.1034"/>
<polygon fill="midnightblue" stroke="midnightblue" points="33.2897,-83.8025 26.4032,-75.7511 26.7657,-86.3397 33.2897,-83.8025"/>
</g>
<!-- Node15&#45;&gt;Node2 -->
<g id="edge28" class="edge"><title>Node15&#45;&gt;Node2</title>
<path fill="none" stroke="midnightblue" d="M452.409,-168.075C465.428,-141.719 503.88,-63.878 521.276,-28.6608"/>
<polygon fill="midnightblue" stroke="midnightblue" points="524.477,-30.084 525.768,-19.5681 518.201,-26.9838 524.477,-30.084"/>
</g>
<!-- Node15&#45;&gt;Node9 -->
<g id="edge29" class="edge"><title>Node15&#45;&gt;Node9</title>
<path fill="none" stroke="midnightblue" d="M468.757,-168.444C490.316,-159.557 524.263,-145.563 548.794,-135.451"/>
<polygon fill="midnightblue" stroke="midnightblue" points="550.428,-138.563 558.34,-131.516 547.761,-132.092 550.428,-138.563"/>
</g>
<!-- Node15&#45;&gt;Node10 -->
<g id="edge31" class="edge"><title>Node15&#45;&gt;Node10</title>
<path fill="none" stroke="midnightblue" d="M440.074,-168.083C433.154,-160.298 422.935,-148.801 414.548,-139.367"/>
<polygon fill="midnightblue" stroke="midnightblue" points="417.038,-136.9 407.779,-131.751 411.806,-141.55 417.038,-136.9"/>
</g>
<!-- Node15&#45;&gt;Node13 -->
<g id="edge30" class="edge"><title>Node15&#45;&gt;Node13</title>
<path fill="none" stroke="midnightblue" d="M448.951,-168.113C449.912,-154.221 449.572,-127.364 435,-112 418.051,-94.1295 356.271,-81.3145 310.672,-74.0381"/>
<polygon fill="midnightblue" stroke="midnightblue" points="311.048,-70.5547 300.63,-72.4824 309.976,-77.4722 311.048,-70.5547"/>
</g>
<!-- Node16&#45;&gt;Node2 -->
<g id="edge52" class="edge"><title>Node16&#45;&gt;Node2</title>
<path fill="none" stroke="midnightblue" d="M358.276,-280.292C376.013,-267.738 409.879,-243.881 439,-224 462.823,-207.737 476.846,-211.897 493,-188 526.645,-138.229 530.665,-63.9609 530.549,-29.6325"/>
<polygon fill="midnightblue" stroke="midnightblue" points="534.049,-29.5574 530.389,-19.6149 527.05,-29.6698 534.049,-29.5574"/>
</g>
<!-- Node16&#45;&gt;Node4 -->
<g id="edge51" class="edge"><title>Node16&#45;&gt;Node4</title>
<path fill="none" stroke="midnightblue" d="M344.428,-280.391C339.938,-253.167 329.551,-167.469 365,-112 374.751,-96.7419 391.692,-85.9344 407.008,-78.7419"/>
<polygon fill="midnightblue" stroke="midnightblue" points="408.479,-81.9188 416.256,-74.7233 405.69,-75.4988 408.479,-81.9188"/>
</g>
<!-- Node16&#45;&gt;Node9 -->
<g id="edge33" class="edge"><title>Node16&#45;&gt;Node9</title>
<path fill="none" stroke="midnightblue" d="M366.719,-280.462C401.918,-265.318 474.571,-231.234 526,-188 542.64,-174.012 557.897,-154.232 567.725,-140.173"/>
<polygon fill="midnightblue" stroke="midnightblue" points="570.635,-142.118 573.36,-131.879 564.845,-138.184 570.635,-142.118"/>
</g>
<!-- Node16&#45;&gt;Node12 -->
<g id="edge50" class="edge"><title>Node16&#45;&gt;Node12</title>
<path fill="none" stroke="midnightblue" d="M321.118,-280.473C278.708,-265.344 190.557,-231.284 124,-188 100.962,-173.018 76.7773,-152.621 61.1108,-138.697"/>
<polygon fill="midnightblue" stroke="midnightblue" points="63.1178,-135.794 53.3449,-131.703 58.4331,-140.996 63.1178,-135.794"/>
</g>
<!-- Node17 -->
<g id="node18" class="node"><title>Node17</title>
<polygon fill="white" stroke="#bfbfbf" points="26.5,-224.5 26.5,-243.5 67.5,-243.5 67.5,-224.5 26.5,-224.5"/>
<text text-anchor="middle" x="47" y="-231.5" font-family="Helvetica,sans-Serif" font-size="10.00">stack</text>
</g>
<!-- Node16&#45;&gt;Node17 -->
<g id="edge34" class="edge"><title>Node16&#45;&gt;Node17</title>
<path fill="none" stroke="midnightblue" d="M320.381,-285.355C273.06,-278.462 168.849,-262.535 82,-244 80.5427,-243.689 79.0546,-243.358 77.5539,-243.014"/>
<polygon fill="midnightblue" stroke="midnightblue" points="78.2042,-239.57 67.661,-240.615 76.5546,-246.373 78.2042,-239.57"/>
</g>
<!-- Node18 -->
<g id="node19" class="node"><title>Node18</title>
<g id="a_node19"><a xlink:href="State_8h.html" target="_top" xlink:title="State.h">
<polygon fill="white" stroke="black" points="243,-224.5 243,-243.5 291,-243.5 291,-224.5 243,-224.5"/>
<text text-anchor="middle" x="267" y="-231.5" font-family="Helvetica,sans-Serif" font-size="10.00">State.h</text>
</a>
</g>
</g>
<!-- Node16&#45;&gt;Node18 -->
<g id="edge35" class="edge"><title>Node16&#45;&gt;Node18</title>
<path fill="none" stroke="midnightblue" d="M333.307,-280.324C321.099,-271.979 302.422,-259.212 287.997,-249.352"/>
<polygon fill="midnightblue" stroke="midnightblue" points="289.892,-246.408 279.661,-243.655 285.942,-252.187 289.892,-246.408"/>
</g>
<!-- Node18&#45;&gt;Node10 -->
<g id="edge37" class="edge"><title>Node18&#45;&gt;Node10</title>
<path fill="none" stroke="midnightblue" d="M277.436,-224.368C299.968,-205.733 353.411,-161.532 381.702,-138.134"/>
<polygon fill="midnightblue" stroke="midnightblue" points="384.137,-140.662 389.612,-131.591 379.676,-135.268 384.137,-140.662"/>
</g>
<!-- Node18&#45;&gt;Node12 -->
<g id="edge38" class="edge"><title>Node18&#45;&gt;Node12</title>
<path fill="none" stroke="midnightblue" d="M246.467,-224.494C225.715,-215.769 192.828,-201.588 165,-188 130.76,-171.282 92.1226,-150.11 67.9169,-136.558"/>
<polygon fill="midnightblue" stroke="midnightblue" points="69.5165,-133.442 59.0845,-131.592 66.0859,-139.543 69.5165,-133.442"/>
</g>
<!-- Node18&#45;&gt;Node15 -->
<g id="edge39" class="edge"><title>Node18&#45;&gt;Node15</title>
<path fill="none" stroke="midnightblue" d="M291.035,-225.829C321.361,-216.782 373.876,-201.114 409.742,-190.414"/>
<polygon fill="midnightblue" stroke="midnightblue" points="410.803,-193.75 419.385,-187.537 408.802,-187.042 410.803,-193.75"/>
</g>
<!-- Node19 -->
<g id="node20" class="node"><title>Node19</title>
<polygon fill="white" stroke="#bfbfbf" points="104,-112.5 104,-131.5 148,-131.5 148,-112.5 104,-112.5"/>
<text text-anchor="middle" x="126" y="-119.5" font-family="Helvetica,sans-Serif" font-size="10.00">vector</text>
</g>
<!-- Node18&#45;&gt;Node19 -->
<g id="edge36" class="edge"><title>Node18&#45;&gt;Node19</title>
<path fill="none" stroke="midnightblue" d="M249.92,-224.479C233.985,-216.168 209.897,-202.666 191,-188 171.998,-173.253 152.84,-153.34 140.297,-139.456"/>
<polygon fill="midnightblue" stroke="midnightblue" points="142.659,-136.844 133.402,-131.69 137.424,-141.491 142.659,-136.844"/>
</g>
<!-- Node20 -->
<g id="node21" class="node"><title>Node20</title>
<g id="a_node21"><a xlink:href="GameObject_8h.html" target="_top" xlink:title="GameObject.h">
<polygon fill="white" stroke="black" points="200,-168.5 200,-187.5 280,-187.5 280,-168.5 200,-168.5"/>
<text text-anchor="middle" x="240" y="-175.5" font-family="Helvetica,sans-Serif" font-size="10.00">GameObject.h</text>
</a>
</g>
</g>
<!-- Node18&#45;&gt;Node20 -->
<g id="edge40" class="edge"><title>Node18&#45;&gt;Node20</title>
<path fill="none" stroke="midnightblue" d="M262.541,-224.083C258.846,-216.691 253.477,-205.953 248.906,-196.811"/>
<polygon fill="midnightblue" stroke="midnightblue" points="251.978,-195.13 244.376,-187.751 245.717,-198.261 251.978,-195.13"/>
</g>
<!-- Node20&#45;&gt;Node2 -->
<g id="edge41" class="edge"><title>Node20&#45;&gt;Node2</title>
<path fill="none" stroke="midnightblue" d="M249.89,-168.297C274.757,-146.771 342.516,-90.3013 407,-56 433.466,-41.9217 465.293,-30.4092 489.941,-22.5535"/>
<polygon fill="midnightblue" stroke="midnightblue" points="491.181,-25.8334 499.687,-19.5176 489.099,-19.1501 491.181,-25.8334"/>
</g>
<!-- Node20&#45;&gt;Node3 -->
<g id="edge49" class="edge"><title>Node20&#45;&gt;Node3</title>
<path fill="none" stroke="midnightblue" d="M280.031,-172.163C347.633,-163.983 488.72,-146.853 608,-132 620.397,-130.456 634.009,-128.737 645.968,-127.218"/>
<polygon fill="midnightblue" stroke="midnightblue" points="646.502,-130.678 655.981,-125.944 645.619,-123.734 646.502,-130.678"/>
</g>
<!-- Node20&#45;&gt;Node9 -->
<g id="edge44" class="edge"><title>Node20&#45;&gt;Node9</title>
<path fill="none" stroke="midnightblue" d="M280.219,-170.593C348.716,-159.682 486.562,-137.725 548.104,-127.922"/>
<polygon fill="midnightblue" stroke="midnightblue" points="549.007,-131.322 558.332,-126.292 547.906,-124.409 549.007,-131.322"/>
</g>
<!-- Node20&#45;&gt;Node10 -->
<g id="edge43" class="edge"><title>Node20&#45;&gt;Node10</title>
<path fill="none" stroke="midnightblue" d="M265.352,-168.444C292.269,-159.359 334.996,-144.939 365.087,-134.783"/>
<polygon fill="midnightblue" stroke="midnightblue" points="366.41,-138.031 374.766,-131.516 364.172,-131.398 366.41,-138.031"/>
</g>
<!-- Node20&#45;&gt;Node19 -->
<g id="edge42" class="edge"><title>Node20&#45;&gt;Node19</title>
<path fill="none" stroke="midnightblue" d="M221.936,-168.444C203.425,-159.675 174.419,-145.935 153.145,-135.858"/>
<polygon fill="midnightblue" stroke="midnightblue" points="154.515,-132.634 143.979,-131.516 151.518,-138.96 154.515,-132.634"/>
</g>
<!-- Node21 -->
<g id="node22" class="node"><title>Node21</title>
<g id="a_node22"><a xlink:href="Component_8h.html" target="_top" xlink:title="Component.h">
<polygon fill="white" stroke="black" points="166.5,-112.5 166.5,-131.5 241.5,-131.5 241.5,-112.5 166.5,-112.5"/>
<text text-anchor="middle" x="204" y="-119.5" font-family="Helvetica,sans-Serif" font-size="10.00">Component.h</text>
</a>
</g>
</g>
<!-- Node20&#45;&gt;Node21 -->
<g id="edge45" class="edge"><title>Node20&#45;&gt;Node21</title>
<path fill="none" stroke="midnightblue" d="M228.889,-168.083C222.402,-160.691 214.835,-149.953 209.484,-140.811"/>
<polygon fill="midnightblue" stroke="midnightblue" points="212.466,-138.962 204.703,-131.751 206.275,-142.229 212.466,-138.962"/>
</g>
<!-- Node22 -->
<g id="node23" class="node"><title>Node22</title>
<g id="a_node23"><a xlink:href="ComponentType_8h.html" target="_top" xlink:title="ComponentType.h">
<polygon fill="white" stroke="black" points="102.5,-56.5 102.5,-75.5 199.5,-75.5 199.5,-56.5 102.5,-56.5"/>
<text text-anchor="middle" x="151" y="-63.5" font-family="Helvetica,sans-Serif" font-size="10.00">ComponentType.h</text>
</a>
</g>
</g>
<!-- Node20&#45;&gt;Node22 -->
<g id="edge48" class="edge"><title>Node20&#45;&gt;Node22</title>
<path fill="none" stroke="midnightblue" d="M244.844,-168.226C251.45,-154.954 261.25,-129.471 250,-112 239.694,-95.9949 222.149,-85.6167 204.666,-78.9158"/>
<polygon fill="midnightblue" stroke="midnightblue" points="205.6,-75.5353 195.006,-75.559 203.303,-82.1475 205.6,-75.5353"/>
</g>
<!-- Node21&#45;&gt;Node20 -->
<g id="edge47" class="edge"><title>Node21&#45;&gt;Node20</title>
<path fill="none" stroke="midnightblue" d="M214.965,-131.751C221.436,-139.092 229.011,-149.817 234.395,-158.983"/>
<polygon fill="midnightblue" stroke="midnightblue" points="231.444,-160.889 239.222,-168.083 237.628,-157.609 231.444,-160.889"/>
</g>
<!-- Node21&#45;&gt;Node22 -->
<g id="edge46" class="edge"><title>Node21&#45;&gt;Node22</title>
<path fill="none" stroke="midnightblue" d="M195.248,-112.083C187.53,-104.22 176.095,-92.5688 166.783,-83.0813"/>
<polygon fill="midnightblue" stroke="midnightblue" points="169.092,-80.4363 159.589,-75.7511 164.096,-85.3396 169.092,-80.4363"/>
</g>
<!-- Node24 -->
<g id="node25" class="node"><title>Node24</title>
<polygon fill="white" stroke="#bfbfbf" points="1008,-224.5 1008,-243.5 1062,-243.5 1062,-224.5 1008,-224.5"/>
<text text-anchor="middle" x="1035" y="-231.5" font-family="Helvetica,sans-Serif" font-size="10.00">iostream</text>
</g>
<!-- Node23&#45;&gt;Node24 -->
<g id="edge54" class="edge"><title>Node23&#45;&gt;Node24</title>
<path fill="none" stroke="midnightblue" d="M977.086,-280.324C987.486,-272.185 1003.26,-259.839 1015.72,-250.087"/>
<polygon fill="midnightblue" stroke="midnightblue" points="1017.99,-252.753 1023.71,-243.834 1013.68,-247.241 1017.99,-252.753"/>
</g>
<!-- Node25 -->
<g id="node26" class="node"><title>Node25</title>
<polygon fill="white" stroke="#bfbfbf" points="942,-224.5 942,-243.5 990,-243.5 990,-224.5 942,-224.5"/>
<text text-anchor="middle" x="966" y="-231.5" font-family="Helvetica,sans-Serif" font-size="10.00">stdlib.h</text>
</g>
<!-- Node23&#45;&gt;Node25 -->
<g id="edge55" class="edge"><title>Node23&#45;&gt;Node25</title>
<path fill="none" stroke="midnightblue" d="M966,-280.083C966,-273.006 966,-262.861 966,-253.986"/>
<polygon fill="midnightblue" stroke="midnightblue" points="969.5,-253.751 966,-243.751 962.5,-253.751 969.5,-253.751"/>
</g>
</g>
</svg>
