<?xml version="1.0" encoding="UTF-8" standalone="no"?>
<!DOCTYPE svg PUBLIC "-//W3C//DTD SVG 1.1//EN"
 "http://www.w3.org/Graphics/SVG/1.1/DTD/svg11.dtd">
<!-- Generated by graphviz version 2.38.0 (20140413.2041)
 -->
<!-- Title: include/UItextButton.h Pages: 1 -->
<svg width="492pt" height="364pt"
 viewBox="0.00 0.00 492.05 364.00" xmlns="http://www.w3.org/2000/svg" xmlns:xlink="http://www.w3.org/1999/xlink">
<g id="graph0" class="graph" transform="scale(1 1) rotate(0) translate(4 360)">
<title>include/UItextButton.h</title>
<polygon fill="white" stroke="none" points="-4,4 -4,-360 488.055,-360 488.055,4 -4,4"/>
<!-- Node0 -->
<g id="node1" class="node"><title>Node0</title>
<polygon fill="#bfbfbf" stroke="black" points="350,-336.5 350,-355.5 464,-355.5 464,-336.5 350,-336.5"/>
<text text-anchor="middle" x="407" y="-343.5" font-family="Helvetica,sans-Serif" font-size="10.00">include/UItextButton.h</text>
</g>
<!-- Node1 -->
<g id="node2" class="node"><title>Node1</title>
<g id="a_node2"><a xlink:href="UItext_8h.html" target="_top" xlink:title="UItext.h">
<polygon fill="white" stroke="black" points="297,-280.5 297,-299.5 349,-299.5 349,-280.5 297,-280.5"/>
<text text-anchor="middle" x="323" y="-287.5" font-family="Helvetica,sans-Serif" font-size="10.00">UItext.h</text>
</a>
</g>
</g>
<!-- Node0&#45;&gt;Node1 -->
<g id="edge1" class="edge"><title>Node0&#45;&gt;Node1</title>
<path fill="none" stroke="midnightblue" d="M393.504,-336.324C380.4,-327.9 360.288,-314.971 344.893,-305.074"/>
<polygon fill="midnightblue" stroke="midnightblue" points="346.767,-302.118 336.463,-299.655 342.982,-308.006 346.767,-302.118"/>
</g>
<!-- Node3 -->
<g id="node4" class="node"><title>Node3</title>
<g id="a_node4"><a xlink:href="Rect_8h.html" target="_top" xlink:title="Rect.h">
<polygon fill="white" stroke="black" points="422,-112.5 422,-131.5 468,-131.5 468,-112.5 422,-112.5"/>
<text text-anchor="middle" x="445" y="-119.5" font-family="Helvetica,sans-Serif" font-size="10.00">Rect.h</text>
</a>
</g>
</g>
<!-- Node0&#45;&gt;Node3 -->
<g id="edge31" class="edge"><title>Node0&#45;&gt;Node3</title>
<path fill="none" stroke="midnightblue" d="M418.244,-336.301C428.036,-328.064 441.766,-314.782 449,-300 475.028,-246.818 480.346,-225.686 467,-168 464.77,-158.363 460.179,-148.405 455.764,-140.315"/>
<polygon fill="midnightblue" stroke="midnightblue" points="458.697,-138.397 450.638,-131.519 452.649,-141.922 458.697,-138.397"/>
</g>
<!-- Node9 -->
<g id="node10" class="node"><title>Node9</title>
<polygon fill="white" stroke="#bfbfbf" points="28.5,-112.5 28.5,-131.5 69.5,-131.5 69.5,-112.5 28.5,-112.5"/>
<text text-anchor="middle" x="49" y="-119.5" font-family="Helvetica,sans-Serif" font-size="10.00">string</text>
</g>
<!-- Node0&#45;&gt;Node9 -->
<g id="edge32" class="edge"><title>Node0&#45;&gt;Node9</title>
<path fill="none" stroke="midnightblue" d="M378.791,-336.465C320.524,-317.693 185.059,-268.01 98,-188 82.6133,-173.859 68.6529,-154.367 59.605,-140.423"/>
<polygon fill="midnightblue" stroke="midnightblue" points="62.4593,-138.388 54.1688,-131.791 56.536,-142.118 62.4593,-138.388"/>
</g>
<!-- Node15 -->
<g id="node16" class="node"><title>Node15</title>
<g id="a_node16"><a xlink:href="UIbutton_8h.html" target="_top" xlink:title="UIbutton.h">
<polygon fill="white" stroke="black" points="352,-168.5 352,-187.5 414,-187.5 414,-168.5 352,-168.5"/>
<text text-anchor="middle" x="383" y="-175.5" font-family="Helvetica,sans-Serif" font-size="10.00">UIbutton.h</text>
</a>
</g>
</g>
<!-- Node0&#45;&gt;Node15 -->
<g id="edge27" class="edge"><title>Node0&#45;&gt;Node15</title>
<path fill="none" stroke="midnightblue" d="M412.629,-336.408C425.205,-316.049 453.106,-263.614 435,-224 429.223,-211.36 417.948,-200.911 407.369,-193.274"/>
<polygon fill="midnightblue" stroke="midnightblue" points="409.042,-190.182 398.783,-187.533 405.151,-196.001 409.042,-190.182"/>
</g>
<!-- Node2 -->
<g id="node3" class="node"><title>Node2</title>
<g id="a_node3"><a xlink:href="SDL__include_8h.html" target="_top" xlink:title="SDL_include.h">
<polygon fill="white" stroke="black" points="100,-0.5 100,-19.5 180,-19.5 180,-0.5 100,-0.5"/>
<text text-anchor="middle" x="140" y="-7.5" font-family="Helvetica,sans-Serif" font-size="10.00">SDL_include.h</text>
</a>
</g>
</g>
<!-- Node1&#45;&gt;Node2 -->
<g id="edge2" class="edge"><title>Node1&#45;&gt;Node2</title>
<path fill="none" stroke="midnightblue" d="M296.841,-282.959C219.946,-264.842 0,-210.286 0,-179 0,-179 0,-179 0,-121 0,-69.3473 59.6512,-38.2582 101.079,-22.8952"/>
<polygon fill="midnightblue" stroke="midnightblue" points="102.396,-26.1418 110.651,-19.501 100.057,-19.5443 102.396,-26.1418"/>
</g>
<!-- Node1&#45;&gt;Node3 -->
<g id="edge3" class="edge"><title>Node1&#45;&gt;Node3</title>
<path fill="none" stroke="midnightblue" d="M349.219,-285.974C375.244,-281.498 414.173,-270.542 435,-244 458.123,-214.532 453.963,-167.671 449.255,-141.763"/>
<polygon fill="midnightblue" stroke="midnightblue" points="452.643,-140.861 447.216,-131.762 445.784,-142.259 452.643,-140.861"/>
</g>
<!-- Node6 -->
<g id="node7" class="node"><title>Node6</title>
<g id="a_node7"><a xlink:href="Timer_8h.html" target="_top" xlink:title="Timer.h">
<polygon fill="white" stroke="black" points="376,-224.5 376,-243.5 426,-243.5 426,-224.5 376,-224.5"/>
<text text-anchor="middle" x="401" y="-231.5" font-family="Helvetica,sans-Serif" font-size="10.00">Timer.h</text>
</a>
</g>
</g>
<!-- Node1&#45;&gt;Node6 -->
<g id="edge8" class="edge"><title>Node1&#45;&gt;Node6</title>
<path fill="none" stroke="midnightblue" d="M335.532,-280.324C347.586,-271.979 366.027,-259.212 380.269,-249.352"/>
<polygon fill="midnightblue" stroke="midnightblue" points="382.269,-252.224 388.499,-243.655 378.285,-246.469 382.269,-252.224"/>
</g>
<!-- Node7 -->
<g id="node8" class="node"><title>Node7</title>
<g id="a_node8"><a xlink:href="UIelement_8h.html" target="_top" xlink:title="UIelement.h">
<polygon fill="white" stroke="black" points="288,-224.5 288,-243.5 358,-243.5 358,-224.5 288,-224.5"/>
<text text-anchor="middle" x="323" y="-231.5" font-family="Helvetica,sans-Serif" font-size="10.00">UIelement.h</text>
</a>
</g>
</g>
<!-- Node1&#45;&gt;Node7 -->
<g id="edge9" class="edge"><title>Node1&#45;&gt;Node7</title>
<path fill="none" stroke="midnightblue" d="M323,-280.083C323,-273.006 323,-262.861 323,-253.986"/>
<polygon fill="midnightblue" stroke="midnightblue" points="326.5,-253.751 323,-243.751 319.5,-253.751 326.5,-253.751"/>
</g>
<!-- Node1&#45;&gt;Node9 -->
<g id="edge26" class="edge"><title>Node1&#45;&gt;Node9</title>
<path fill="none" stroke="midnightblue" d="M303.011,-280.459C266.639,-264.543 187.786,-228.285 127,-188 104.436,-173.046 80.8763,-152.644 65.634,-138.711"/>
<polygon fill="midnightblue" stroke="midnightblue" points="67.7948,-135.941 58.081,-131.711 63.0367,-141.076 67.7948,-135.941"/>
</g>
<!-- Node10 -->
<g id="node11" class="node"><title>Node10</title>
<polygon fill="white" stroke="#bfbfbf" points="266,-112.5 266,-131.5 318,-131.5 318,-112.5 266,-112.5"/>
<text text-anchor="middle" x="292" y="-119.5" font-family="Helvetica,sans-Serif" font-size="10.00">memory</text>
</g>
<!-- Node1&#45;&gt;Node10 -->
<g id="edge25" class="edge"><title>Node1&#45;&gt;Node10</title>
<path fill="none" stroke="midnightblue" d="M310.219,-280.369C299.606,-272.36 285.269,-259.379 279,-244 264.966,-209.574 276.366,-165.307 284.867,-140.992"/>
<polygon fill="midnightblue" stroke="midnightblue" points="288.153,-142.198 288.358,-131.605 281.592,-139.757 288.153,-142.198"/>
</g>
<!-- Node3&#45;&gt;Node2 -->
<g id="edge4" class="edge"><title>Node3&#45;&gt;Node2</title>
<path fill="none" stroke="midnightblue" d="M455.709,-112.217C470.645,-98.9324 494.273,-73.4345 479,-56 460.278,-34.6288 280.015,-20.0577 190.26,-14.0662"/>
<polygon fill="midnightblue" stroke="midnightblue" points="190.248,-10.5579 180.04,-13.3949 189.789,-17.5429 190.248,-10.5579"/>
</g>
<!-- Node4 -->
<g id="node5" class="node"><title>Node4</title>
<g id="a_node5"><a xlink:href="Vec2_8h.html" target="_top" xlink:title="Vec2.h">
<polygon fill="white" stroke="black" points="360.5,-56.5 360.5,-75.5 407.5,-75.5 407.5,-56.5 360.5,-56.5"/>
<text text-anchor="middle" x="384" y="-63.5" font-family="Helvetica,sans-Serif" font-size="10.00">Vec2.h</text>
</a>
</g>
</g>
<!-- Node3&#45;&gt;Node4 -->
<g id="edge5" class="edge"><title>Node3&#45;&gt;Node4</title>
<path fill="none" stroke="midnightblue" d="M435.199,-112.324C426.182,-104.341 412.594,-92.3128 401.682,-82.6529"/>
<polygon fill="midnightblue" stroke="midnightblue" points="403.787,-79.8416 393.979,-75.8339 399.147,-85.083 403.787,-79.8416"/>
</g>
<!-- Node5 -->
<g id="node6" class="node"><title>Node5</title>
<polygon fill="white" stroke="#bfbfbf" points="426,-56.5 426,-75.5 470,-75.5 470,-56.5 426,-56.5"/>
<text text-anchor="middle" x="448" y="-63.5" font-family="Helvetica,sans-Serif" font-size="10.00">cmath</text>
</g>
<!-- Node3&#45;&gt;Node5 -->
<g id="edge7" class="edge"><title>Node3&#45;&gt;Node5</title>
<path fill="none" stroke="midnightblue" d="M445.495,-112.083C445.889,-105.006 446.452,-94.8611 446.945,-85.9865"/>
<polygon fill="midnightblue" stroke="midnightblue" points="450.454,-85.9299 447.514,-75.7511 443.464,-85.5415 450.454,-85.9299"/>
</g>
<!-- Node4&#45;&gt;Node2 -->
<g id="edge6" class="edge"><title>Node4&#45;&gt;Node2</title>
<path fill="none" stroke="midnightblue" d="M360.248,-58.3511C357.144,-57.5325 354.001,-56.7286 351,-56 296.243,-42.7051 232.976,-29.4956 190.111,-20.8624"/>
<polygon fill="midnightblue" stroke="midnightblue" points="190.703,-17.4115 180.21,-18.8766 189.326,-24.2748 190.703,-17.4115"/>
</g>
<!-- Node7&#45;&gt;Node3 -->
<g id="edge22" class="edge"><title>Node7&#45;&gt;Node3</title>
<path fill="none" stroke="midnightblue" d="M358.285,-224.801C379.654,-218.161 405.98,-206.747 423,-188 434.627,-175.194 440.142,-156.006 442.738,-141.795"/>
<polygon fill="midnightblue" stroke="midnightblue" points="446.233,-142.09 444.255,-131.681 439.31,-141.051 446.233,-142.09"/>
</g>
<!-- Node7&#45;&gt;Node4 -->
<g id="edge23" class="edge"><title>Node7&#45;&gt;Node4</title>
<path fill="none" stroke="midnightblue" d="M325.475,-224.088C329.035,-211.49 335.951,-187.799 343,-168 353.492,-138.531 367.528,-105.011 376.157,-84.9557"/>
<polygon fill="midnightblue" stroke="midnightblue" points="379.469,-86.1164 380.234,-75.5492 373.046,-83.3328 379.469,-86.1164"/>
</g>
<!-- Node8 -->
<g id="node9" class="node"><title>Node8</title>
<g id="a_node9"><a xlink:href="Sprite_8h.html" target="_top" xlink:title="Sprite.h">
<polygon fill="white" stroke="black" points="181,-168.5 181,-187.5 231,-187.5 231,-168.5 181,-168.5"/>
<text text-anchor="middle" x="206" y="-175.5" font-family="Helvetica,sans-Serif" font-size="10.00">Sprite.h</text>
</a>
</g>
</g>
<!-- Node7&#45;&gt;Node8 -->
<g id="edge10" class="edge"><title>Node7&#45;&gt;Node8</title>
<path fill="none" stroke="midnightblue" d="M304.461,-224.444C285.377,-215.636 255.425,-201.812 233.564,-191.722"/>
<polygon fill="midnightblue" stroke="midnightblue" points="234.999,-188.529 224.452,-187.516 232.065,-194.885 234.999,-188.529"/>
</g>
<!-- Node7&#45;&gt;Node9 -->
<g id="edge24" class="edge"><title>Node7&#45;&gt;Node9</title>
<path fill="none" stroke="midnightblue" d="M287.848,-224.618C256.809,-216.727 210.617,-203.779 172,-188 135.682,-173.161 95.9311,-150.983 71.7261,-136.754"/>
<polygon fill="midnightblue" stroke="midnightblue" points="73.3383,-133.641 62.9531,-131.544 69.7638,-139.66 73.3383,-133.641"/>
</g>
<!-- Node8&#45;&gt;Node2 -->
<g id="edge11" class="edge"><title>Node8&#45;&gt;Node2</title>
<path fill="none" stroke="midnightblue" d="M185.627,-168.299C155.533,-154.12 100.639,-122.827 81,-76 77.5621,-67.8029 77.0569,-63.9665 81,-56 87.603,-42.6595 100.265,-32.1941 112.171,-24.7262"/>
<polygon fill="midnightblue" stroke="midnightblue" points="114.118,-27.6435 121.016,-19.6018 110.609,-21.5866 114.118,-27.6435"/>
</g>
<!-- Node8&#45;&gt;Node3 -->
<g id="edge16" class="edge"><title>Node8&#45;&gt;Node3</title>
<path fill="none" stroke="midnightblue" d="M231.125,-171.323C274.559,-161.51 363.662,-141.378 412.02,-130.452"/>
<polygon fill="midnightblue" stroke="midnightblue" points="412.99,-133.821 421.973,-128.203 411.447,-126.993 412.99,-133.821"/>
</g>
<!-- Node8&#45;&gt;Node9 -->
<g id="edge12" class="edge"><title>Node8&#45;&gt;Node9</title>
<path fill="none" stroke="midnightblue" d="M181.123,-168.444C153.588,-158.973 109.193,-143.703 79.5626,-133.512"/>
<polygon fill="midnightblue" stroke="midnightblue" points="80.3443,-130.08 69.7497,-130.137 78.0676,-136.699 80.3443,-130.08"/>
</g>
<!-- Node8&#45;&gt;Node10 -->
<g id="edge13" class="edge"><title>Node8&#45;&gt;Node10</title>
<path fill="none" stroke="midnightblue" d="M219.817,-168.324C233.233,-159.9 253.824,-146.971 269.586,-137.074"/>
<polygon fill="midnightblue" stroke="midnightblue" points="271.609,-139.936 278.217,-131.655 267.887,-134.008 271.609,-139.936"/>
</g>
<!-- Node11 -->
<g id="node12" class="node"><title>Node11</title>
<g id="a_node12"><a xlink:href="Color_8h.html" target="_top" xlink:title="Color.h">
<polygon fill="white" stroke="black" points="90,-56.5 90,-75.5 138,-75.5 138,-56.5 90,-56.5"/>
<text text-anchor="middle" x="114" y="-63.5" font-family="Helvetica,sans-Serif" font-size="10.00">Color.h</text>
</a>
</g>
</g>
<!-- Node8&#45;&gt;Node11 -->
<g id="edge14" class="edge"><title>Node8&#45;&gt;Node11</title>
<path fill="none" stroke="midnightblue" d="M194.2,-168.186C183.267,-159.668 166.941,-146.026 155,-132 142.333,-117.122 130.741,-97.9935 123.139,-84.3474"/>
<polygon fill="midnightblue" stroke="midnightblue" points="126.195,-82.6406 118.351,-75.5189 120.042,-85.978 126.195,-82.6406"/>
</g>
<!-- Node12 -->
<g id="node13" class="node"><title>Node12</title>
<g id="a_node13"><a xlink:href="InputManager_8h.html" target="_top" xlink:title="InputManager.h">
<polygon fill="white" stroke="black" points="164,-112.5 164,-131.5 248,-131.5 248,-112.5 164,-112.5"/>
<text text-anchor="middle" x="206" y="-119.5" font-family="Helvetica,sans-Serif" font-size="10.00">InputManager.h</text>
</a>
</g>
</g>
<!-- Node8&#45;&gt;Node12 -->
<g id="edge17" class="edge"><title>Node8&#45;&gt;Node12</title>
<path fill="none" stroke="midnightblue" d="M206,-168.083C206,-161.006 206,-150.861 206,-141.986"/>
<polygon fill="midnightblue" stroke="midnightblue" points="209.5,-141.751 206,-131.751 202.5,-141.751 209.5,-141.751"/>
</g>
<!-- Node11&#45;&gt;Node2 -->
<g id="edge15" class="edge"><title>Node11&#45;&gt;Node2</title>
<path fill="none" stroke="midnightblue" d="M118.293,-56.083C121.852,-48.6913 127.022,-37.9533 131.424,-28.8111"/>
<polygon fill="midnightblue" stroke="midnightblue" points="134.602,-30.2795 135.787,-19.7511 128.295,-27.2427 134.602,-30.2795"/>
</g>
<!-- Node12&#45;&gt;Node2 -->
<g id="edge18" class="edge"><title>Node12&#45;&gt;Node2</title>
<path fill="none" stroke="midnightblue" d="M200.821,-112.368C189.977,-94.2957 164.706,-52.1764 150.384,-28.3074"/>
<polygon fill="midnightblue" stroke="midnightblue" points="153.301,-26.3656 145.155,-19.5914 147.299,-29.9671 153.301,-26.3656"/>
</g>
<!-- Node12&#45;&gt;Node4 -->
<g id="edge19" class="edge"><title>Node12&#45;&gt;Node4</title>
<path fill="none" stroke="midnightblue" d="M234.205,-112.444C265.831,-102.849 317.078,-87.3021 350.661,-77.1141"/>
<polygon fill="midnightblue" stroke="midnightblue" points="351.922,-80.3892 360.475,-74.1368 349.889,-73.6907 351.922,-80.3892"/>
</g>
<!-- Node13 -->
<g id="node14" class="node"><title>Node13</title>
<polygon fill="white" stroke="#bfbfbf" points="194.5,-56.5 194.5,-75.5 277.5,-75.5 277.5,-56.5 194.5,-56.5"/>
<text text-anchor="middle" x="236" y="-63.5" font-family="Helvetica,sans-Serif" font-size="10.00">unordered_map</text>
</g>
<!-- Node12&#45;&gt;Node13 -->
<g id="edge20" class="edge"><title>Node12&#45;&gt;Node13</title>
<path fill="none" stroke="midnightblue" d="M210.954,-112.083C215.104,-104.613 221.153,-93.7244 226.267,-84.5199"/>
<polygon fill="midnightblue" stroke="midnightblue" points="229.341,-86.1924 231.138,-75.7511 223.222,-82.7929 229.341,-86.1924"/>
</g>
<!-- Node14 -->
<g id="node15" class="node"><title>Node14</title>
<polygon fill="white" stroke="#bfbfbf" points="296,-56.5 296,-75.5 342,-75.5 342,-56.5 296,-56.5"/>
<text text-anchor="middle" x="319" y="-63.5" font-family="Helvetica,sans-Serif" font-size="10.00">cstdint</text>
</g>
<!-- Node12&#45;&gt;Node14 -->
<g id="edge21" class="edge"><title>Node12&#45;&gt;Node14</title>
<path fill="none" stroke="midnightblue" d="M223.905,-112.444C242.254,-103.675 271.005,-89.9355 292.094,-79.8579"/>
<polygon fill="midnightblue" stroke="midnightblue" points="293.665,-82.9862 301.179,-75.5164 290.647,-76.6703 293.665,-82.9862"/>
</g>
<!-- Node15&#45;&gt;Node3 -->
<g id="edge28" class="edge"><title>Node15&#45;&gt;Node3</title>
<path fill="none" stroke="midnightblue" d="M392.961,-168.324C402.127,-160.341 415.937,-148.313 427.028,-138.653"/>
<polygon fill="midnightblue" stroke="midnightblue" points="429.615,-141.041 434.857,-131.834 425.018,-135.762 429.615,-141.041"/>
</g>
<!-- Node15&#45;&gt;Node4 -->
<g id="edge29" class="edge"><title>Node15&#45;&gt;Node4</title>
<path fill="none" stroke="midnightblue" d="M383.078,-168.368C383.24,-150.617 383.612,-109.666 383.831,-85.5974"/>
<polygon fill="midnightblue" stroke="midnightblue" points="387.331,-85.6229 383.922,-75.5914 380.331,-85.5592 387.331,-85.6229"/>
</g>
<!-- Node15&#45;&gt;Node9 -->
<g id="edge30" class="edge"><title>Node15&#45;&gt;Node9</title>
<path fill="none" stroke="midnightblue" d="M351.878,-171.968C288.193,-161.672 143.661,-138.305 80.0432,-128.019"/>
<polygon fill="midnightblue" stroke="midnightblue" points="80.2763,-124.511 69.8458,-126.37 79.159,-131.422 80.2763,-124.511"/>
</g>
</g>
</svg>
