<?xml version="1.0" encoding="UTF-8" standalone="no"?>
<!DOCTYPE svg PUBLIC "-//W3C//DTD SVG 1.1//EN"
 "http://www.w3.org/Graphics/SVG/1.1/DTD/svg11.dtd">
<!-- Generated by graphviz version 2.38.0 (20140413.2041)
 -->
<!-- Title: include/UItext.h Pages: 1 -->
<svg width="571pt" height="308pt"
 viewBox="0.00 0.00 571.00 308.00" xmlns="http://www.w3.org/2000/svg" xmlns:xlink="http://www.w3.org/1999/xlink">
<g id="graph0" class="graph" transform="scale(1 1) rotate(0) translate(4 304)">
<title>include/UItext.h</title>
<polygon fill="white" stroke="none" points="-4,4 -4,-304 567,-304 567,4 -4,4"/>
<!-- Node0 -->
<g id="node1" class="node"><title>Node0</title>
<polygon fill="#bfbfbf" stroke="black" points="358,-280.5 358,-299.5 444,-299.5 444,-280.5 358,-280.5"/>
<text text-anchor="middle" x="401" y="-287.5" font-family="Helvetica,sans-Serif" font-size="10.00">include/UItext.h</text>
</g>
<!-- Node1 -->
<g id="node2" class="node"><title>Node1</title>
<g id="a_node2"><a xlink:href="SDL__include_8h.html" target="_top" xlink:title="SDL_include.h">
<polygon fill="white" stroke="black" points="138,-0.5 138,-19.5 218,-19.5 218,-0.5 138,-0.5"/>
<text text-anchor="middle" x="178" y="-7.5" font-family="Helvetica,sans-Serif" font-size="10.00">SDL_include.h</text>
</a>
</g>
</g>
<!-- Node0&#45;&gt;Node1 -->
<g id="edge1" class="edge"><title>Node0&#45;&gt;Node1</title>
<path fill="none" stroke="midnightblue" d="M357.705,-286.314C254.015,-278.701 0,-252.543 0,-179 0,-179 0,-179 0,-121 0,-60.5935 75.0995,-32.2506 127.738,-19.8037"/>
<polygon fill="midnightblue" stroke="midnightblue" points="128.617,-23.1936 137.609,-17.5909 127.086,-16.3631 128.617,-23.1936"/>
</g>
<!-- Node2 -->
<g id="node3" class="node"><title>Node2</title>
<g id="a_node3"><a xlink:href="Rect_8h.html" target="_top" xlink:title="Rect.h">
<polygon fill="white" stroke="black" points="123,-112.5 123,-131.5 169,-131.5 169,-112.5 123,-112.5"/>
<text text-anchor="middle" x="146" y="-119.5" font-family="Helvetica,sans-Serif" font-size="10.00">Rect.h</text>
</a>
</g>
</g>
<!-- Node0&#45;&gt;Node2 -->
<g id="edge2" class="edge"><title>Node0&#45;&gt;Node2</title>
<path fill="none" stroke="midnightblue" d="M360.848,-280.401C311.31,-267.905 227.252,-240.285 175,-188 162.192,-175.184 154.543,-155.726 150.344,-141.439"/>
<polygon fill="midnightblue" stroke="midnightblue" points="153.714,-140.492 147.777,-131.716 146.946,-142.278 153.714,-140.492"/>
</g>
<!-- Node5 -->
<g id="node6" class="node"><title>Node5</title>
<g id="a_node6"><a xlink:href="Timer_8h.html" target="_top" xlink:title="Timer.h">
<polygon fill="white" stroke="black" points="513,-224.5 513,-243.5 563,-243.5 563,-224.5 513,-224.5"/>
<text text-anchor="middle" x="538" y="-231.5" font-family="Helvetica,sans-Serif" font-size="10.00">Timer.h</text>
</a>
</g>
</g>
<!-- Node0&#45;&gt;Node5 -->
<g id="edge7" class="edge"><title>Node0&#45;&gt;Node5</title>
<path fill="none" stroke="midnightblue" d="M422.708,-280.444C445.355,-271.517 481.072,-257.439 506.752,-247.317"/>
<polygon fill="midnightblue" stroke="midnightblue" points="508.374,-250.44 516.394,-243.516 505.807,-243.927 508.374,-250.44"/>
</g>
<!-- Node6 -->
<g id="node7" class="node"><title>Node6</title>
<g id="a_node7"><a xlink:href="UIelement_8h.html" target="_top" xlink:title="UIelement.h">
<polygon fill="white" stroke="black" points="321,-224.5 321,-243.5 391,-243.5 391,-224.5 321,-224.5"/>
<text text-anchor="middle" x="356" y="-231.5" font-family="Helvetica,sans-Serif" font-size="10.00">UIelement.h</text>
</a>
</g>
</g>
<!-- Node0&#45;&gt;Node6 -->
<g id="edge8" class="edge"><title>Node0&#45;&gt;Node6</title>
<path fill="none" stroke="midnightblue" d="M393.569,-280.083C387.147,-272.377 377.694,-261.033 369.878,-251.653"/>
<polygon fill="midnightblue" stroke="midnightblue" points="372.383,-249.193 363.293,-243.751 367.006,-253.674 372.383,-249.193"/>
</g>
<!-- Node8 -->
<g id="node9" class="node"><title>Node8</title>
<polygon fill="white" stroke="#bfbfbf" points="492.5,-112.5 492.5,-131.5 533.5,-131.5 533.5,-112.5 492.5,-112.5"/>
<text text-anchor="middle" x="513" y="-119.5" font-family="Helvetica,sans-Serif" font-size="10.00">string</text>
</g>
<!-- Node0&#45;&gt;Node8 -->
<g id="edge25" class="edge"><title>Node0&#45;&gt;Node8</title>
<path fill="none" stroke="midnightblue" d="M407.022,-280.075C424.88,-253.606 477.775,-175.209 501.389,-140.21"/>
<polygon fill="midnightblue" stroke="midnightblue" points="504.527,-141.815 507.219,-131.568 498.725,-137.9 504.527,-141.815"/>
</g>
<!-- Node9 -->
<g id="node10" class="node"><title>Node9</title>
<polygon fill="white" stroke="#bfbfbf" points="422,-112.5 422,-131.5 474,-131.5 474,-112.5 422,-112.5"/>
<text text-anchor="middle" x="448" y="-119.5" font-family="Helvetica,sans-Serif" font-size="10.00">memory</text>
</g>
<!-- Node0&#45;&gt;Node9 -->
<g id="edge24" class="edge"><title>Node0&#45;&gt;Node9</title>
<path fill="none" stroke="midnightblue" d="M403.527,-280.075C410.925,-253.945 432.651,-177.211 442.74,-141.577"/>
<polygon fill="midnightblue" stroke="midnightblue" points="446.217,-142.143 445.574,-131.568 439.482,-140.236 446.217,-142.143"/>
</g>
<!-- Node2&#45;&gt;Node1 -->
<g id="edge3" class="edge"><title>Node2&#45;&gt;Node1</title>
<path fill="none" stroke="midnightblue" d="M122.739,-114.935C90.2012,-105.27 37.1807,-84.5163 57,-56 72.9785,-33.0099 102.174,-21.7416 127.883,-16.2296"/>
<polygon fill="midnightblue" stroke="midnightblue" points="128.728,-19.6317 137.898,-14.3249 127.42,-12.755 128.728,-19.6317"/>
</g>
<!-- Node3 -->
<g id="node4" class="node"><title>Node3</title>
<g id="a_node4"><a xlink:href="Vec2_8h.html" target="_top" xlink:title="Vec2.h">
<polygon fill="white" stroke="black" points="128.5,-56.5 128.5,-75.5 175.5,-75.5 175.5,-56.5 128.5,-56.5"/>
<text text-anchor="middle" x="152" y="-63.5" font-family="Helvetica,sans-Serif" font-size="10.00">Vec2.h</text>
</a>
</g>
</g>
<!-- Node2&#45;&gt;Node3 -->
<g id="edge4" class="edge"><title>Node2&#45;&gt;Node3</title>
<path fill="none" stroke="midnightblue" d="M146.991,-112.083C147.786,-104.927 148.929,-94.6353 149.923,-85.6911"/>
<polygon fill="midnightblue" stroke="midnightblue" points="153.402,-86.0765 151.028,-75.7511 146.445,-85.3034 153.402,-86.0765"/>
</g>
<!-- Node4 -->
<g id="node5" class="node"><title>Node4</title>
<polygon fill="white" stroke="#bfbfbf" points="66,-56.5 66,-75.5 110,-75.5 110,-56.5 66,-56.5"/>
<text text-anchor="middle" x="88" y="-63.5" font-family="Helvetica,sans-Serif" font-size="10.00">cmath</text>
</g>
<!-- Node2&#45;&gt;Node4 -->
<g id="edge6" class="edge"><title>Node2&#45;&gt;Node4</title>
<path fill="none" stroke="midnightblue" d="M136.681,-112.324C128.107,-104.341 115.188,-92.3128 104.812,-82.6529"/>
<polygon fill="midnightblue" stroke="midnightblue" points="107.192,-80.0865 97.4883,-75.8339 102.422,-85.2098 107.192,-80.0865"/>
</g>
<!-- Node3&#45;&gt;Node1 -->
<g id="edge5" class="edge"><title>Node3&#45;&gt;Node1</title>
<path fill="none" stroke="midnightblue" d="M156.293,-56.083C159.852,-48.6913 165.022,-37.9533 169.424,-28.8111"/>
<polygon fill="midnightblue" stroke="midnightblue" points="172.602,-30.2795 173.787,-19.7511 166.295,-27.2427 172.602,-30.2795"/>
</g>
<!-- Node6&#45;&gt;Node2 -->
<g id="edge21" class="edge"><title>Node6&#45;&gt;Node2</title>
<path fill="none" stroke="midnightblue" d="M320.903,-228.584C288.046,-223.159 238.654,-211.596 202,-188 182.89,-175.698 166.667,-154.971 156.678,-140.231"/>
<polygon fill="midnightblue" stroke="midnightblue" points="159.428,-138.039 151.046,-131.558 153.557,-141.851 159.428,-138.039"/>
</g>
<!-- Node6&#45;&gt;Node3 -->
<g id="edge22" class="edge"><title>Node6&#45;&gt;Node3</title>
<path fill="none" stroke="midnightblue" d="M345.319,-224.309C312.408,-197.528 212.26,-116.035 170.544,-82.09"/>
<polygon fill="midnightblue" stroke="midnightblue" points="172.541,-79.202 162.575,-75.6051 168.122,-84.6316 172.541,-79.202"/>
</g>
<!-- Node7 -->
<g id="node8" class="node"><title>Node7</title>
<g id="a_node8"><a xlink:href="Sprite_8h.html" target="_top" xlink:title="Sprite.h">
<polygon fill="white" stroke="black" points="331,-168.5 331,-187.5 381,-187.5 381,-168.5 331,-168.5"/>
<text text-anchor="middle" x="356" y="-175.5" font-family="Helvetica,sans-Serif" font-size="10.00">Sprite.h</text>
</a>
</g>
</g>
<!-- Node6&#45;&gt;Node7 -->
<g id="edge9" class="edge"><title>Node6&#45;&gt;Node7</title>
<path fill="none" stroke="midnightblue" d="M356,-224.083C356,-217.006 356,-206.861 356,-197.986"/>
<polygon fill="midnightblue" stroke="midnightblue" points="359.5,-197.751 356,-187.751 352.5,-197.751 359.5,-197.751"/>
</g>
<!-- Node6&#45;&gt;Node8 -->
<g id="edge23" class="edge"><title>Node6&#45;&gt;Node8</title>
<path fill="none" stroke="midnightblue" d="M368.32,-224.368C395.146,-205.573 459.094,-160.768 492.257,-137.533"/>
<polygon fill="midnightblue" stroke="midnightblue" points="494.556,-140.196 500.738,-131.591 490.539,-134.463 494.556,-140.196"/>
</g>
<!-- Node7&#45;&gt;Node1 -->
<g id="edge10" class="edge"><title>Node7&#45;&gt;Node1</title>
<path fill="none" stroke="midnightblue" d="M363.009,-168.238C373.414,-155.413 393.789,-130.995 413,-112 430.482,-94.7139 444.727,-98.3362 455,-76 458.714,-67.9243 460.759,-62.7706 455,-56 426.454,-22.442 299.992,-13.84 228.21,-11.6814"/>
<polygon fill="midnightblue" stroke="midnightblue" points="228.125,-8.17791 218.034,-11.4075 227.937,-15.1754 228.125,-8.17791"/>
</g>
<!-- Node7&#45;&gt;Node2 -->
<g id="edge15" class="edge"><title>Node7&#45;&gt;Node2</title>
<path fill="none" stroke="midnightblue" d="M330.669,-170.486C292.675,-160.716 220.92,-142.265 178.916,-131.464"/>
<polygon fill="midnightblue" stroke="midnightblue" points="179.725,-128.058 169.168,-128.957 177.981,-134.838 179.725,-128.058"/>
</g>
<!-- Node7&#45;&gt;Node8 -->
<g id="edge11" class="edge"><title>Node7&#45;&gt;Node8</title>
<path fill="none" stroke="midnightblue" d="M380.877,-168.444C408.412,-158.973 452.807,-143.703 482.437,-133.512"/>
<polygon fill="midnightblue" stroke="midnightblue" points="483.932,-136.699 492.25,-130.137 481.656,-130.08 483.932,-136.699"/>
</g>
<!-- Node7&#45;&gt;Node9 -->
<g id="edge12" class="edge"><title>Node7&#45;&gt;Node9</title>
<path fill="none" stroke="midnightblue" d="M370.781,-168.324C385.267,-159.822 407.573,-146.729 424.493,-136.797"/>
<polygon fill="midnightblue" stroke="midnightblue" points="426.403,-139.735 433.255,-131.655 422.859,-133.698 426.403,-139.735"/>
</g>
<!-- Node10 -->
<g id="node11" class="node"><title>Node10</title>
<g id="a_node11"><a xlink:href="Color_8h.html" target="_top" xlink:title="Color.h">
<polygon fill="white" stroke="black" points="398,-56.5 398,-75.5 446,-75.5 446,-56.5 398,-56.5"/>
<text text-anchor="middle" x="422" y="-63.5" font-family="Helvetica,sans-Serif" font-size="10.00">Color.h</text>
</a>
</g>
</g>
<!-- Node7&#45;&gt;Node10 -->
<g id="edge13" class="edge"><title>Node7&#45;&gt;Node10</title>
<path fill="none" stroke="midnightblue" d="M358.086,-168.089C361.39,-155.08 368.64,-130.433 380,-112 386.628,-101.245 396.091,-90.8267 404.358,-82.7278"/>
<polygon fill="midnightblue" stroke="midnightblue" points="406.901,-85.1404 411.785,-75.7382 402.104,-80.0428 406.901,-85.1404"/>
</g>
<!-- Node11 -->
<g id="node12" class="node"><title>Node11</title>
<g id="a_node12"><a xlink:href="InputManager_8h.html" target="_top" xlink:title="InputManager.h">
<polygon fill="white" stroke="black" points="244,-112.5 244,-131.5 328,-131.5 328,-112.5 244,-112.5"/>
<text text-anchor="middle" x="286" y="-119.5" font-family="Helvetica,sans-Serif" font-size="10.00">InputManager.h</text>
</a>
</g>
</g>
<!-- Node7&#45;&gt;Node11 -->
<g id="edge16" class="edge"><title>Node7&#45;&gt;Node11</title>
<path fill="none" stroke="midnightblue" d="M344.753,-168.324C334.203,-160.185 318.199,-147.839 305.558,-138.087"/>
<polygon fill="midnightblue" stroke="midnightblue" points="307.507,-135.171 297.451,-131.834 303.231,-140.713 307.507,-135.171"/>
</g>
<!-- Node10&#45;&gt;Node1 -->
<g id="edge14" class="edge"><title>Node10&#45;&gt;Node1</title>
<path fill="none" stroke="midnightblue" d="M397.89,-58.2567C394.903,-57.4708 391.885,-56.7006 389,-56 334.243,-42.7051 270.976,-29.4956 228.111,-20.8624"/>
<polygon fill="midnightblue" stroke="midnightblue" points="228.703,-17.4115 218.21,-18.8766 227.326,-24.2748 228.703,-17.4115"/>
</g>
<!-- Node11&#45;&gt;Node1 -->
<g id="edge17" class="edge"><title>Node11&#45;&gt;Node1</title>
<path fill="none" stroke="midnightblue" d="M271.147,-112.443C257.634,-104.206 237.623,-90.8396 223,-76 208.891,-61.6824 196.198,-42.4734 187.918,-28.6554"/>
<polygon fill="midnightblue" stroke="midnightblue" points="190.761,-26.5822 182.711,-19.6936 184.708,-30.0985 190.761,-26.5822"/>
</g>
<!-- Node11&#45;&gt;Node3 -->
<g id="edge18" class="edge"><title>Node11&#45;&gt;Node3</title>
<path fill="none" stroke="midnightblue" d="M264.767,-112.444C242.616,-103.517 207.681,-89.4387 182.564,-79.3168"/>
<polygon fill="midnightblue" stroke="midnightblue" points="183.717,-76.0079 173.133,-75.5164 181.1,-82.5006 183.717,-76.0079"/>
</g>
<!-- Node12 -->
<g id="node13" class="node"><title>Node12</title>
<polygon fill="white" stroke="#bfbfbf" points="232.5,-56.5 232.5,-75.5 315.5,-75.5 315.5,-56.5 232.5,-56.5"/>
<text text-anchor="middle" x="274" y="-63.5" font-family="Helvetica,sans-Serif" font-size="10.00">unordered_map</text>
</g>
<!-- Node11&#45;&gt;Node12 -->
<g id="edge19" class="edge"><title>Node11&#45;&gt;Node12</title>
<path fill="none" stroke="midnightblue" d="M284.018,-112.083C282.428,-104.927 280.141,-94.6353 278.154,-85.6911"/>
<polygon fill="midnightblue" stroke="midnightblue" points="281.531,-84.7537 275.945,-75.7511 274.697,-86.2722 281.531,-84.7537"/>
</g>
<!-- Node13 -->
<g id="node14" class="node"><title>Node13</title>
<polygon fill="white" stroke="#bfbfbf" points="334,-56.5 334,-75.5 380,-75.5 380,-56.5 334,-56.5"/>
<text text-anchor="middle" x="357" y="-63.5" font-family="Helvetica,sans-Serif" font-size="10.00">cstdint</text>
</g>
<!-- Node11&#45;&gt;Node13 -->
<g id="edge20" class="edge"><title>Node11&#45;&gt;Node13</title>
<path fill="none" stroke="midnightblue" d="M297.407,-112.324C308.109,-104.185 324.341,-91.8395 337.163,-82.0874"/>
<polygon fill="midnightblue" stroke="midnightblue" points="339.544,-84.6734 345.385,-75.8339 335.307,-79.1018 339.544,-84.6734"/>
</g>
</g>
</svg>
