<?xml version="1.0" encoding="UTF-8" standalone="no"?>
<!DOCTYPE svg PUBLIC "-//W3C//DTD SVG 1.1//EN"
 "http://www.w3.org/Graphics/SVG/1.1/DTD/svg11.dtd">
<!-- Generated by graphviz version 2.38.0 (20140413.2041)
 -->
<!-- Title: src/UIverticalGroup.cpp Pages: 1 -->
<svg width="487pt" height="420pt"
 viewBox="0.00 0.00 486.50 420.00" xmlns="http://www.w3.org/2000/svg" xmlns:xlink="http://www.w3.org/1999/xlink">
<g id="graph0" class="graph" transform="scale(1 1) rotate(0) translate(4 416)">
<title>src/UIverticalGroup.cpp</title>
<polygon fill="white" stroke="none" points="-4,4 -4,-416 482.5,-416 482.5,4 -4,4"/>
<!-- Node0 -->
<g id="node1" class="node"><title>Node0</title>
<polygon fill="#bfbfbf" stroke="black" points="197,-392.5 197,-411.5 317,-411.5 317,-392.5 197,-392.5"/>
<text text-anchor="middle" x="257" y="-399.5" font-family="Helvetica,sans-Serif" font-size="10.00">src/UIverticalGroup.cpp</text>
</g>
<!-- Node1 -->
<g id="node2" class="node"><title>Node1</title>
<g id="a_node2"><a xlink:href="UIverticalGroup_8h.html" target="_top" xlink:title="UIverticalGroup.h">
<polygon fill="white" stroke="black" points="210.5,-336.5 210.5,-355.5 303.5,-355.5 303.5,-336.5 210.5,-336.5"/>
<text text-anchor="middle" x="257" y="-343.5" font-family="Helvetica,sans-Serif" font-size="10.00">UIverticalGroup.h</text>
</a>
</g>
</g>
<!-- Node0&#45;&gt;Node1 -->
<g id="edge1" class="edge"><title>Node0&#45;&gt;Node1</title>
<path fill="none" stroke="midnightblue" d="M257,-392.083C257,-385.006 257,-374.861 257,-365.986"/>
<polygon fill="midnightblue" stroke="midnightblue" points="260.5,-365.751 257,-355.751 253.5,-365.751 260.5,-365.751"/>
</g>
<!-- Node2 -->
<g id="node3" class="node"><title>Node2</title>
<g id="a_node3"><a xlink:href="UIelement_8h.html" target="_top" xlink:title="UIelement.h">
<polygon fill="white" stroke="black" points="191,-224.5 191,-243.5 261,-243.5 261,-224.5 191,-224.5"/>
<text text-anchor="middle" x="226" y="-231.5" font-family="Helvetica,sans-Serif" font-size="10.00">UIelement.h</text>
</a>
</g>
</g>
<!-- Node1&#45;&gt;Node2 -->
<g id="edge2" class="edge"><title>Node1&#45;&gt;Node2</title>
<path fill="none" stroke="midnightblue" d="M254.567,-336.368C249.542,-318.537 237.92,-277.295 231.149,-253.272"/>
<polygon fill="midnightblue" stroke="midnightblue" points="234.503,-252.267 228.421,-243.591 227.765,-254.166 234.503,-252.267"/>
</g>
<!-- Node5 -->
<g id="node6" class="node"><title>Node5</title>
<polygon fill="white" stroke="#bfbfbf" points="437.5,-112.5 437.5,-131.5 478.5,-131.5 478.5,-112.5 437.5,-112.5"/>
<text text-anchor="middle" x="458" y="-119.5" font-family="Helvetica,sans-Serif" font-size="10.00">string</text>
</g>
<!-- Node1&#45;&gt;Node5 -->
<g id="edge29" class="edge"><title>Node1&#45;&gt;Node5</title>
<path fill="none" stroke="midnightblue" d="M264.879,-336.297C295.018,-303.01 403.294,-183.421 443.144,-139.408"/>
<polygon fill="midnightblue" stroke="midnightblue" points="445.839,-141.646 449.957,-131.884 440.65,-136.948 445.839,-141.646"/>
</g>
<!-- Node8 -->
<g id="node9" class="node"><title>Node8</title>
<g id="a_node9"><a xlink:href="Rect_8h.html" target="_top" xlink:title="Rect.h">
<polygon fill="white" stroke="black" points="49,-112.5 49,-131.5 95,-131.5 95,-112.5 49,-112.5"/>
<text text-anchor="middle" x="72" y="-119.5" font-family="Helvetica,sans-Serif" font-size="10.00">Rect.h</text>
</a>
</g>
</g>
<!-- Node1&#45;&gt;Node8 -->
<g id="edge27" class="edge"><title>Node1&#45;&gt;Node8</title>
<path fill="none" stroke="midnightblue" d="M229.796,-336.347C207.781,-328.656 176.518,-316.137 152,-300 121.801,-280.124 112.488,-274.451 93,-244 72.7683,-212.386 70.4312,-167.034 70.945,-141.787"/>
<polygon fill="midnightblue" stroke="midnightblue" points="74.4451,-141.85 71.3277,-131.724 67.4501,-141.584 74.4451,-141.85"/>
</g>
<!-- Node14 -->
<g id="node15" class="node"><title>Node14</title>
<g id="a_node15"><a xlink:href="UIcanvas_8h.html" target="_top" xlink:title="UIcanvas.h">
<polygon fill="white" stroke="black" points="161.5,-280.5 161.5,-299.5 228.5,-299.5 228.5,-280.5 161.5,-280.5"/>
<text text-anchor="middle" x="195" y="-287.5" font-family="Helvetica,sans-Serif" font-size="10.00">UIcanvas.h</text>
</a>
</g>
</g>
<!-- Node1&#45;&gt;Node14 -->
<g id="edge22" class="edge"><title>Node1&#45;&gt;Node14</title>
<path fill="none" stroke="midnightblue" d="M247.039,-336.324C237.873,-328.341 224.063,-316.313 212.972,-306.653"/>
<polygon fill="midnightblue" stroke="midnightblue" points="214.982,-303.762 205.143,-299.834 210.385,-309.041 214.982,-303.762"/>
</g>
<!-- Node15 -->
<g id="node16" class="node"><title>Node15</title>
<polygon fill="white" stroke="#bfbfbf" points="409,-280.5 409,-299.5 453,-299.5 453,-280.5 409,-280.5"/>
<text text-anchor="middle" x="431" y="-287.5" font-family="Helvetica,sans-Serif" font-size="10.00">vector</text>
</g>
<!-- Node1&#45;&gt;Node15 -->
<g id="edge28" class="edge"><title>Node1&#45;&gt;Node15</title>
<path fill="none" stroke="midnightblue" d="M284.571,-336.444C315.747,-326.768 366.428,-311.04 399.236,-300.858"/>
<polygon fill="midnightblue" stroke="midnightblue" points="400.29,-304.195 408.803,-297.889 398.215,-297.51 400.29,-304.195"/>
</g>
<!-- Node3 -->
<g id="node4" class="node"><title>Node3</title>
<g id="a_node4"><a xlink:href="Sprite_8h.html" target="_top" xlink:title="Sprite.h">
<polygon fill="white" stroke="black" points="227,-168.5 227,-187.5 277,-187.5 277,-168.5 227,-168.5"/>
<text text-anchor="middle" x="252" y="-175.5" font-family="Helvetica,sans-Serif" font-size="10.00">Sprite.h</text>
</a>
</g>
</g>
<!-- Node2&#45;&gt;Node3 -->
<g id="edge3" class="edge"><title>Node2&#45;&gt;Node3</title>
<path fill="none" stroke="midnightblue" d="M230.293,-224.083C233.852,-216.691 239.022,-205.953 243.424,-196.811"/>
<polygon fill="midnightblue" stroke="midnightblue" points="246.602,-198.279 247.787,-187.751 240.295,-195.243 246.602,-198.279"/>
</g>
<!-- Node2&#45;&gt;Node5 -->
<g id="edge21" class="edge"><title>Node2&#45;&gt;Node5</title>
<path fill="none" stroke="midnightblue" d="M237.543,-224.477C256.077,-211.084 293.955,-184.898 329,-168 361.442,-152.357 400.783,-139.439 427.425,-131.517"/>
<polygon fill="midnightblue" stroke="midnightblue" points="428.698,-134.792 437.317,-128.632 426.737,-128.072 428.698,-134.792"/>
</g>
<!-- Node2&#45;&gt;Node8 -->
<g id="edge19" class="edge"><title>Node2&#45;&gt;Node8</title>
<path fill="none" stroke="midnightblue" d="M213.916,-224.368C187.602,-205.573 124.876,-160.768 92.3467,-137.533"/>
<polygon fill="midnightblue" stroke="midnightblue" points="94.1997,-134.556 84.028,-131.591 90.131,-140.252 94.1997,-134.556"/>
</g>
<!-- Node9 -->
<g id="node10" class="node"><title>Node9</title>
<g id="a_node10"><a xlink:href="Vec2_8h.html" target="_top" xlink:title="Vec2.h">
<polygon fill="white" stroke="black" points="100.5,-56.5 100.5,-75.5 147.5,-75.5 147.5,-56.5 100.5,-56.5"/>
<text text-anchor="middle" x="124" y="-63.5" font-family="Helvetica,sans-Serif" font-size="10.00">Vec2.h</text>
</a>
</g>
</g>
<!-- Node2&#45;&gt;Node9 -->
<g id="edge20" class="edge"><title>Node2&#45;&gt;Node9</title>
<path fill="none" stroke="midnightblue" d="M220.516,-224.075C204.252,-197.606 156.08,-119.209 134.575,-84.2097"/>
<polygon fill="midnightblue" stroke="midnightblue" points="137.482,-82.2559 129.265,-75.5681 131.518,-85.9206 137.482,-82.2559"/>
</g>
<!-- Node4 -->
<g id="node5" class="node"><title>Node4</title>
<g id="a_node5"><a xlink:href="SDL__include_8h.html" target="_top" xlink:title="SDL_include.h">
<polygon fill="white" stroke="black" points="150,-0.5 150,-19.5 230,-19.5 230,-0.5 150,-0.5"/>
<text text-anchor="middle" x="190" y="-7.5" font-family="Helvetica,sans-Serif" font-size="10.00">SDL_include.h</text>
</a>
</g>
</g>
<!-- Node3&#45;&gt;Node4 -->
<g id="edge4" class="edge"><title>Node3&#45;&gt;Node4</title>
<path fill="none" stroke="midnightblue" d="M277.075,-170.945C311.739,-162.223 372.06,-145.669 390,-132 419.883,-109.232 450.959,-84.9364 427,-56 403.786,-27.9637 302.831,-17.2539 240.409,-13.267"/>
<polygon fill="midnightblue" stroke="midnightblue" points="240.555,-9.76955 230.362,-12.6619 240.134,-16.7569 240.555,-9.76955"/>
</g>
<!-- Node3&#45;&gt;Node5 -->
<g id="edge5" class="edge"><title>Node3&#45;&gt;Node5</title>
<path fill="none" stroke="midnightblue" d="M277.26,-170.379C315.212,-160.43 386.83,-141.656 427.594,-130.971"/>
<polygon fill="midnightblue" stroke="midnightblue" points="428.709,-134.297 437.495,-128.375 426.934,-127.525 428.709,-134.297"/>
</g>
<!-- Node6 -->
<g id="node7" class="node"><title>Node6</title>
<polygon fill="white" stroke="#bfbfbf" points="227,-112.5 227,-131.5 279,-131.5 279,-112.5 227,-112.5"/>
<text text-anchor="middle" x="253" y="-119.5" font-family="Helvetica,sans-Serif" font-size="10.00">memory</text>
</g>
<!-- Node3&#45;&gt;Node6 -->
<g id="edge6" class="edge"><title>Node3&#45;&gt;Node6</title>
<path fill="none" stroke="midnightblue" d="M252.165,-168.083C252.296,-161.006 252.484,-150.861 252.648,-141.986"/>
<polygon fill="midnightblue" stroke="midnightblue" points="256.152,-141.814 252.838,-131.751 249.153,-141.685 256.152,-141.814"/>
</g>
<!-- Node7 -->
<g id="node8" class="node"><title>Node7</title>
<g id="a_node8"><a xlink:href="Color_8h.html" target="_top" xlink:title="Color.h">
<polygon fill="white" stroke="black" points="166,-56.5 166,-75.5 214,-75.5 214,-56.5 166,-56.5"/>
<text text-anchor="middle" x="190" y="-63.5" font-family="Helvetica,sans-Serif" font-size="10.00">Color.h</text>
</a>
</g>
</g>
<!-- Node3&#45;&gt;Node7 -->
<g id="edge7" class="edge"><title>Node3&#45;&gt;Node7</title>
<path fill="none" stroke="midnightblue" d="M244.566,-168.475C237.19,-159.735 225.878,-145.542 218,-132 209.224,-116.915 201.568,-98.561 196.489,-85.2083"/>
<polygon fill="midnightblue" stroke="midnightblue" points="199.739,-83.9036 192.997,-75.7301 193.17,-86.3236 199.739,-83.9036"/>
</g>
<!-- Node3&#45;&gt;Node8 -->
<g id="edge9" class="edge"><title>Node3&#45;&gt;Node8</title>
<path fill="none" stroke="midnightblue" d="M226.972,-169.492C195.144,-159.943 140.105,-143.432 104.908,-132.872"/>
<polygon fill="midnightblue" stroke="midnightblue" points="105.69,-129.453 95.106,-129.932 103.679,-136.158 105.69,-129.453"/>
</g>
<!-- Node11 -->
<g id="node12" class="node"><title>Node11</title>
<g id="a_node12"><a xlink:href="InputManager_8h.html" target="_top" xlink:title="InputManager.h">
<polygon fill="white" stroke="black" points="297,-112.5 297,-131.5 381,-131.5 381,-112.5 297,-112.5"/>
<text text-anchor="middle" x="339" y="-119.5" font-family="Helvetica,sans-Serif" font-size="10.00">InputManager.h</text>
</a>
</g>
</g>
<!-- Node3&#45;&gt;Node11 -->
<g id="edge14" class="edge"><title>Node3&#45;&gt;Node11</title>
<path fill="none" stroke="midnightblue" d="M265.978,-168.324C279.55,-159.9 300.38,-146.971 316.325,-137.074"/>
<polygon fill="midnightblue" stroke="midnightblue" points="318.406,-139.902 325.057,-131.655 314.714,-133.954 318.406,-139.902"/>
</g>
<!-- Node7&#45;&gt;Node4 -->
<g id="edge8" class="edge"><title>Node7&#45;&gt;Node4</title>
<path fill="none" stroke="midnightblue" d="M190,-56.083C190,-49.0059 190,-38.8611 190,-29.9865"/>
<polygon fill="midnightblue" stroke="midnightblue" points="193.5,-29.751 190,-19.7511 186.5,-29.7511 193.5,-29.751"/>
</g>
<!-- Node8&#45;&gt;Node4 -->
<g id="edge10" class="edge"><title>Node8&#45;&gt;Node4</title>
<path fill="none" stroke="midnightblue" d="M72.3005,-112.346C73.2134,-98.7732 76.829,-72.345 91,-56 104.586,-40.3298 124.741,-29.822 143.327,-22.9315"/>
<polygon fill="midnightblue" stroke="midnightblue" points="144.543,-26.2144 152.859,-19.6498 142.265,-19.5956 144.543,-26.2144"/>
</g>
<!-- Node8&#45;&gt;Node9 -->
<g id="edge11" class="edge"><title>Node8&#45;&gt;Node9</title>
<path fill="none" stroke="midnightblue" d="M80.5867,-112.083C88.159,-104.22 99.3782,-92.5688 108.514,-83.0813"/>
<polygon fill="midnightblue" stroke="midnightblue" points="111.158,-85.3821 115.573,-75.7511 106.115,-80.5266 111.158,-85.3821"/>
</g>
<!-- Node10 -->
<g id="node11" class="node"><title>Node10</title>
<polygon fill="white" stroke="#bfbfbf" points="0,-56.5 0,-75.5 44,-75.5 44,-56.5 0,-56.5"/>
<text text-anchor="middle" x="22" y="-63.5" font-family="Helvetica,sans-Serif" font-size="10.00">cmath</text>
</g>
<!-- Node8&#45;&gt;Node10 -->
<g id="edge13" class="edge"><title>Node8&#45;&gt;Node10</title>
<path fill="none" stroke="midnightblue" d="M63.7435,-112.083C56.5353,-104.298 45.8902,-92.8015 37.1542,-83.3665"/>
<polygon fill="midnightblue" stroke="midnightblue" points="39.4651,-80.7108 30.1028,-75.7511 34.3288,-85.4666 39.4651,-80.7108"/>
</g>
<!-- Node9&#45;&gt;Node4 -->
<g id="edge12" class="edge"><title>Node9&#45;&gt;Node4</title>
<path fill="none" stroke="midnightblue" d="M134.604,-56.324C144.456,-48.2631 159.351,-36.0765 171.215,-26.3695"/>
<polygon fill="midnightblue" stroke="midnightblue" points="173.68,-28.8752 179.203,-19.8339 169.247,-23.4575 173.68,-28.8752"/>
</g>
<!-- Node11&#45;&gt;Node4 -->
<g id="edge15" class="edge"><title>Node11&#45;&gt;Node4</title>
<path fill="none" stroke="midnightblue" d="M321.599,-112.363C305.334,-103.971 280.674,-90.4135 261,-76 240.49,-60.9736 219.281,-40.8501 205.449,-26.9951"/>
<polygon fill="midnightblue" stroke="midnightblue" points="207.727,-24.3199 198.218,-19.6478 202.738,-29.2301 207.727,-24.3199"/>
</g>
<!-- Node11&#45;&gt;Node9 -->
<g id="edge16" class="edge"><title>Node11&#45;&gt;Node9</title>
<path fill="none" stroke="midnightblue" d="M303.365,-112.455C268.636,-104.069 214.095,-90.7425 157.597,-76.109"/>
<polygon fill="midnightblue" stroke="midnightblue" points="158.334,-72.6844 147.775,-73.5568 156.573,-79.4594 158.334,-72.6844"/>
</g>
<!-- Node12 -->
<g id="node13" class="node"><title>Node12</title>
<polygon fill="white" stroke="#bfbfbf" points="270.5,-56.5 270.5,-75.5 353.5,-75.5 353.5,-56.5 270.5,-56.5"/>
<text text-anchor="middle" x="312" y="-63.5" font-family="Helvetica,sans-Serif" font-size="10.00">unordered_map</text>
</g>
<!-- Node11&#45;&gt;Node12 -->
<g id="edge17" class="edge"><title>Node11&#45;&gt;Node12</title>
<path fill="none" stroke="midnightblue" d="M334.541,-112.083C330.846,-104.691 325.477,-93.9533 320.906,-84.8111"/>
<polygon fill="midnightblue" stroke="midnightblue" points="323.978,-83.1301 316.376,-75.7511 317.717,-86.2606 323.978,-83.1301"/>
</g>
<!-- Node13 -->
<g id="node14" class="node"><title>Node13</title>
<polygon fill="white" stroke="#bfbfbf" points="372,-56.5 372,-75.5 418,-75.5 418,-56.5 372,-56.5"/>
<text text-anchor="middle" x="395" y="-63.5" font-family="Helvetica,sans-Serif" font-size="10.00">cstdint</text>
</g>
<!-- Node11&#45;&gt;Node13 -->
<g id="edge18" class="edge"><title>Node11&#45;&gt;Node13</title>
<path fill="none" stroke="midnightblue" d="M347.997,-112.324C356.194,-104.42 368.506,-92.5482 378.472,-82.9377"/>
<polygon fill="midnightblue" stroke="midnightblue" points="381.07,-85.2947 385.839,-75.8339 376.211,-80.2558 381.07,-85.2947"/>
</g>
<!-- Node14&#45;&gt;Node2 -->
<g id="edge23" class="edge"><title>Node14&#45;&gt;Node2</title>
<path fill="none" stroke="midnightblue" d="M200.119,-280.083C204.408,-272.613 210.658,-261.724 215.942,-252.52"/>
<polygon fill="midnightblue" stroke="midnightblue" points="219.033,-254.166 220.976,-243.751 212.962,-250.681 219.033,-254.166"/>
</g>
<!-- Node14&#45;&gt;Node5 -->
<g id="edge26" class="edge"><title>Node14&#45;&gt;Node5</title>
<path fill="none" stroke="midnightblue" d="M210.575,-280.407C225.993,-271.728 250.108,-257.683 270,-244 315.124,-212.962 320.654,-197.181 367,-168 386.722,-155.582 410.35,-143.986 428.586,-135.677"/>
<polygon fill="midnightblue" stroke="midnightblue" points="430.148,-138.812 437.842,-131.529 427.285,-132.424 430.148,-138.812"/>
</g>
<!-- Node14&#45;&gt;Node8 -->
<g id="edge24" class="edge"><title>Node14&#45;&gt;Node8</title>
<path fill="none" stroke="midnightblue" d="M166.085,-280.385C147.337,-273.403 123.744,-261.765 109,-244 84.1815,-214.096 75.9953,-167.74 73.306,-141.95"/>
<polygon fill="midnightblue" stroke="midnightblue" points="76.7665,-141.342 72.4171,-131.681 69.7926,-141.945 76.7665,-141.342"/>
</g>
<!-- Node14&#45;&gt;Node9 -->
<g id="edge25" class="edge"><title>Node14&#45;&gt;Node9</title>
<path fill="none" stroke="midnightblue" d="M192.217,-280.297C181.748,-247.563 144.588,-131.375 129.97,-85.6664"/>
<polygon fill="midnightblue" stroke="midnightblue" points="133.221,-84.3423 126.841,-75.8837 126.554,-86.4747 133.221,-84.3423"/>
</g>
</g>
</svg>
