<?xml version="1.0" encoding="UTF-8" standalone="no"?>
<!DOCTYPE svg PUBLIC "-//W3C//DTD SVG 1.1//EN"
 "http://www.w3.org/Graphics/SVG/1.1/DTD/svg11.dtd">
<!-- Generated by graphviz version 2.40.1 (20161225.0304)
 -->
<!-- Title: include/Vec2.h Pages: 1 -->
<svg width="150pt" height="140pt"
 viewBox="0.00 0.00 150.00 140.00" xmlns="http://www.w3.org/2000/svg" xmlns:xlink="http://www.w3.org/1999/xlink">
<g id="graph0" class="graph" transform="scale(1 1) rotate(0) translate(4 136)">
<title>include/Vec2.h</title>
<polygon fill="#ffffff" stroke="transparent" points="-4,4 -4,-136 146,-136 146,4 -4,4"/>
<!-- Node0 -->
<g id="node1" class="node">
<title>Node0</title>
<polygon fill="#bfbfbf" stroke="#000000" points="50.5,-112.5 50.5,-131.5 131.5,-131.5 131.5,-112.5 50.5,-112.5"/>
<text text-anchor="middle" x="91" y="-119.5" font-family="Helvetica,sans-Serif" font-size="10.00" fill="#000000">include/Vec2.h</text>
</g>
<!-- Node1 -->
<g id="node2" class="node">
<title>Node1</title>
<g id="a_node2"><a xlink:href="SDL__include_8h.html" target="_top" xlink:title="SDL_include.h">
<polygon fill="#ffffff" stroke="#000000" points="0,-.5 0,-19.5 80,-19.5 80,-.5 0,-.5"/>
<text text-anchor="middle" x="40" y="-7.5" font-family="Helvetica,sans-Serif" font-size="10.00" fill="#000000">SDL_include.h</text>
</a>
</g>
</g>
<!-- Node0&#45;&gt;Node1 -->
<g id="edge1" class="edge">
<title>Node0&#45;&gt;Node1</title>
<path fill="none" stroke="#191970" d="M82.8732,-112.3546C75.7089,-103.4271 65.4362,-89.5288 59,-76 51.9567,-61.1949 46.9982,-43.2537 43.9168,-29.8162"/>
<polygon fill="#191970" stroke="#191970" points="47.2793,-28.8027 41.7655,-19.7557 40.4341,-30.2666 47.2793,-28.8027"/>
</g>
<!-- Node2 -->
<g id="node3" class="node">
<title>Node2</title>
<g id="a_node3"><a xlink:href="Rect_8h.html" target="_top" xlink:title="Rect.h">
<polygon fill="#ffffff" stroke="#000000" points="68,-56.5 68,-75.5 114,-75.5 114,-56.5 68,-56.5"/>
<text text-anchor="middle" x="91" y="-63.5" font-family="Helvetica,sans-Serif" font-size="10.00" fill="#000000">Rect.h</text>
</a>
</g>
</g>
<!-- Node0&#45;&gt;Node2 -->
<g id="edge2" class="edge">
<title>Node0&#45;&gt;Node2</title>
<path fill="none" stroke="#191970" d="M85.7332,-112.2455C84.3221,-104.9382 83.9179,-94.6944 84.5205,-85.7046"/>
<polygon fill="#191970" stroke="#191970" points="88.0111,-85.9945 85.7549,-75.6427 81.0632,-85.1421 88.0111,-85.9945"/>
</g>
<!-- Node2&#45;&gt;Node0 -->
<g id="edge4" class="edge">
<title>Node2&#45;&gt;Node0</title>
<path fill="none" stroke="#191970" d="M96.2451,-75.6427C97.6665,-82.9199 98.081,-93.155 97.4887,-102.1575"/>
<polygon fill="#191970" stroke="#191970" points="93.9947,-101.8972 96.2668,-112.2455 100.9439,-102.739 93.9947,-101.8972"/>
</g>
<!-- Node2&#45;&gt;Node1 -->
<g id="edge3" class="edge">
<title>Node2&#45;&gt;Node1</title>
<path fill="none" stroke="#191970" d="M82.1165,-56.2455C74.8034,-48.2155 64.2609,-36.6394 55.5533,-27.0781"/>
<polygon fill="#191970" stroke="#191970" points="58.1028,-24.6795 48.7817,-19.6427 52.9273,-29.3928 58.1028,-24.6795"/>
</g>
<!-- Node3 -->
<g id="node4" class="node">
<title>Node3</title>
<polygon fill="#ffffff" stroke="#bfbfbf" points="98,-.5 98,-19.5 142,-19.5 142,-.5 98,-.5"/>
<text text-anchor="middle" x="120" y="-7.5" font-family="Helvetica,sans-Serif" font-size="10.00" fill="#000000">cmath</text>
</g>
<!-- Node2&#45;&gt;Node3 -->
<g id="edge5" class="edge">
<title>Node2&#45;&gt;Node3</title>
<path fill="none" stroke="#191970" d="M96.0514,-56.2455C100.0019,-48.617 105.6097,-37.7881 110.4058,-28.5267"/>
<polygon fill="#191970" stroke="#191970" points="113.5159,-30.1321 115.0065,-19.6427 107.2999,-26.9131 113.5159,-30.1321"/>
</g>
</g>
</svg>
