<?xml version="1.0" encoding="UTF-8" standalone="no"?>
<!DOCTYPE svg PUBLIC "-//W3C//DTD SVG 1.1//EN"
 "http://www.w3.org/Graphics/SVG/1.1/DTD/svg11.dtd">
<!-- Generated by graphviz version 2.40.1 (20161225.0304)
 -->
<!-- Title: include/Vec2.h Pages: 1 -->
<svg width="1747pt" height="532pt"
 viewBox="0.00 0.00 1747.00 532.00" xmlns="http://www.w3.org/2000/svg" xmlns:xlink="http://www.w3.org/1999/xlink">
<g id="graph0" class="graph" transform="scale(1 1) rotate(0) translate(4 528)">
<title>include/Vec2.h</title>
<polygon fill="#ffffff" stroke="transparent" points="-4,4 -4,-528 1743,-528 1743,4 -4,4"/>
<!-- Node4 -->
<g id="node1" class="node">
<title>Node4</title>
<polygon fill="#bfbfbf" stroke="#000000" points="406.5,-504.5 406.5,-523.5 487.5,-523.5 487.5,-504.5 406.5,-504.5"/>
<text text-anchor="middle" x="447" y="-511.5" font-family="Helvetica,sans-Serif" font-size="10.00" fill="#000000">include/Vec2.h</text>
</g>
<!-- Node5 -->
<g id="node2" class="node">
<title>Node5</title>
<g id="a_node2"><a xlink:href="InputManager_8h.html" target="_top" xlink:title="include/InputManager.h">
<polygon fill="#ffffff" stroke="#000000" points="1200,-392.5 1200,-411.5 1318,-411.5 1318,-392.5 1200,-392.5"/>
<text text-anchor="middle" x="1259" y="-399.5" font-family="Helvetica,sans-Serif" font-size="10.00" fill="#000000">include/InputManager.h</text>
</a>
</g>
</g>
<!-- Node4&#45;&gt;Node5 -->
<g id="edge1" class="edge">
<title>Node4&#45;&gt;Node5</title>
<path fill="none" stroke="#191970" d="M497.683,-510.3126C582.3205,-503.8411 757.6768,-489.0936 905,-468 1017.0141,-451.9619 1147.5954,-425.6097 1214.4937,-411.5456"/>
<polygon fill="#191970" stroke="#191970" points="497.2813,-506.833 487.5746,-511.0791 497.8106,-513.8129 497.2813,-506.833"/>
</g>
<!-- Node7 -->
<g id="node4" class="node">
<title>Node7</title>
<g id="a_node4"><a xlink:href="Camera_8h.html" target="_top" xlink:title="include/Camera.h">
<polygon fill="#ffffff" stroke="#000000" points="946.5,-280.5 946.5,-299.5 1039.5,-299.5 1039.5,-280.5 946.5,-280.5"/>
<text text-anchor="middle" x="993" y="-287.5" font-family="Helvetica,sans-Serif" font-size="10.00" fill="#000000">include/Camera.h</text>
</a>
</g>
</g>
<!-- Node4&#45;&gt;Node7 -->
<g id="edge72" class="edge">
<title>Node4&#45;&gt;Node7</title>
<path fill="none" stroke="#191970" d="M497.9265,-510.8058C551.679,-506.1212 638.1272,-494.8096 708,-468 824.0107,-423.4877 944.271,-329.8215 981.3979,-299.6114"/>
<polygon fill="#191970" stroke="#191970" points="497.3043,-507.3452 487.6265,-511.6569 497.8808,-514.3214 497.3043,-507.3452"/>
</g>
<!-- Node18 -->
<g id="node15" class="node">
<title>Node18</title>
<g id="a_node15"><a xlink:href="Game_8h.html" target="_top" xlink:title="include/Game.h">
<polygon fill="#ffffff" stroke="#000000" points="1485.5,-280.5 1485.5,-299.5 1570.5,-299.5 1570.5,-280.5 1485.5,-280.5"/>
<text text-anchor="middle" x="1528" y="-287.5" font-family="Helvetica,sans-Serif" font-size="10.00" fill="#000000">include/Game.h</text>
</a>
</g>
</g>
<!-- Node4&#45;&gt;Node18 -->
<g id="edge73" class="edge">
<title>Node4&#45;&gt;Node18</title>
<path fill="none" stroke="#191970" d="M497.8051,-510.8142C592.3465,-504.6142 801.6169,-489.6131 977,-468 1238.4351,-435.7824 1396.0499,-562.9627 1559,-356 1572.9395,-338.2954 1552.5072,-313.3029 1538.7621,-299.7167"/>
<polygon fill="#191970" stroke="#191970" points="497.4158,-507.332 487.6642,-511.4742 497.8705,-514.3172 497.4158,-507.332"/>
</g>
<!-- Node25 -->
<g id="node22" class="node">
<title>Node25</title>
<g id="a_node22"><a xlink:href="Tileset_8h.html" target="_top" xlink:title="include/Tileset.h">
<polygon fill="#ffffff" stroke="#000000" points="324,-168.5 324,-187.5 412,-187.5 412,-168.5 324,-168.5"/>
<text text-anchor="middle" x="368" y="-175.5" font-family="Helvetica,sans-Serif" font-size="10.00" fill="#000000">include/Tileset.h</text>
</a>
</g>
</g>
<!-- Node4&#45;&gt;Node25 -->
<g id="edge78" class="edge">
<title>Node4&#45;&gt;Node25</title>
<path fill="none" stroke="#191970" d="M396.1298,-510.7807C286.5428,-502.4505 38,-475.4601 38,-402 38,-402 38,-402 38,-290 38,-240.3971 82.5292,-243.8204 128,-224 192.5591,-195.8593 274.3062,-184.8719 323.8054,-180.6244"/>
<polygon fill="#191970" stroke="#191970" points="396.058,-514.2849 406.2882,-511.5296 396.5726,-507.3038 396.058,-514.2849"/>
</g>
<!-- Node29 -->
<g id="node26" class="node">
<title>Node29</title>
<g id="a_node26"><a xlink:href="Button_8cpp.html" target="_top" xlink:title="src/Button.cpp">
<polygon fill="#ffffff" stroke="#000000" points="726,-224.5 726,-243.5 806,-243.5 806,-224.5 726,-224.5"/>
<text text-anchor="middle" x="766" y="-231.5" font-family="Helvetica,sans-Serif" font-size="10.00" fill="#000000">src/Button.cpp</text>
</a>
</g>
</g>
<!-- Node4&#45;&gt;Node29 -->
<g id="edge81" class="edge">
<title>Node4&#45;&gt;Node29</title>
<path fill="none" stroke="#191970" d="M497.8142,-511.3995C551.7285,-507.2043 638.5455,-496.2913 708,-468 789.7431,-434.7031 830.7871,-434.052 872,-356 897.4163,-307.8647 823.4374,-262.6223 786.113,-243.5314"/>
<polygon fill="#191970" stroke="#191970" points="497.532,-507.9107 487.8135,-512.1298 498.0419,-514.8921 497.532,-507.9107"/>
</g>
<!-- Node31 -->
<g id="node28" class="node">
<title>Node31</title>
<g id="a_node28"><a xlink:href="Rect_8h.html" target="_top" xlink:title="include/Rect.h">
<polygon fill="#ffffff" stroke="#000000" points="407,-448.5 407,-467.5 487,-467.5 487,-448.5 407,-448.5"/>
<text text-anchor="middle" x="447" y="-455.5" font-family="Helvetica,sans-Serif" font-size="10.00" fill="#000000">include/Rect.h</text>
</a>
</g>
</g>
<!-- Node4&#45;&gt;Node31 -->
<g id="edge38" class="edge">
<title>Node4&#45;&gt;Node31</title>
<path fill="none" stroke="#191970" d="M440.5113,-494.1575C439.919,-485.155 440.3335,-474.9199 441.7549,-467.6427"/>
<polygon fill="#191970" stroke="#191970" points="437.0561,-494.739 441.7332,-504.2455 444.0053,-493.8972 437.0561,-494.739"/>
</g>
<!-- Node35 -->
<g id="node32" class="node">
<title>Node35</title>
<g id="a_node32"><a xlink:href="Grouper_8h.html" target="_top" xlink:title="include/Grouper.h">
<polygon fill="#ffffff" stroke="#000000" points="142.5,-280.5 142.5,-299.5 235.5,-299.5 235.5,-280.5 142.5,-280.5"/>
<text text-anchor="middle" x="189" y="-287.5" font-family="Helvetica,sans-Serif" font-size="10.00" fill="#000000">include/Grouper.h</text>
</a>
</g>
</g>
<!-- Node4&#45;&gt;Node35 -->
<g id="edge74" class="edge">
<title>Node4&#45;&gt;Node35</title>
<path fill="none" stroke="#191970" d="M421.7455,-499.2267C407.8211,-490.6943 390.4737,-479.4155 376,-468 302.0951,-409.7107 223.6058,-327.2738 197.7849,-299.5301"/>
<polygon fill="#191970" stroke="#191970" points="419.9666,-502.2411 430.3369,-504.4108 423.5831,-496.2476 419.9666,-502.2411"/>
</g>
<!-- Node37 -->
<g id="node34" class="node">
<title>Node37</title>
<g id="a_node34"><a xlink:href="RectTransform_8h.html" target="_top" xlink:title="include/RectTransform.h">
<polygon fill="#ffffff" stroke="#000000" points="388,-280.5 388,-299.5 512,-299.5 512,-280.5 388,-280.5"/>
<text text-anchor="middle" x="450" y="-287.5" font-family="Helvetica,sans-Serif" font-size="10.00" fill="#000000">include/RectTransform.h</text>
</a>
</g>
</g>
<!-- Node4&#45;&gt;Node37 -->
<g id="edge77" class="edge">
<title>Node4&#45;&gt;Node37</title>
<path fill="none" stroke="#191970" d="M423.0955,-498.2861C413.3842,-490.4665 403.2337,-480.0919 398,-468 394.4692,-459.8425 396.9511,-456.8268 398,-448 404.0422,-397.154 406.6181,-383.7905 425,-336 430.0903,-322.7658 438.2603,-308.5793 443.8663,-299.5154"/>
<polygon fill="#191970" stroke="#191970" points="421.2766,-501.2962 431.382,-504.4791 425.4671,-495.6891 421.2766,-501.2962"/>
</g>
<!-- Node38 -->
<g id="node35" class="node">
<title>Node38</title>
<g id="a_node35"><a xlink:href="Text_8h.html" target="_top" xlink:title="include/Text.h">
<polygon fill="#ffffff" stroke="#000000" points="292,-280.5 292,-299.5 370,-299.5 370,-280.5 292,-280.5"/>
<text text-anchor="middle" x="331" y="-287.5" font-family="Helvetica,sans-Serif" font-size="10.00" fill="#000000">include/Text.h</text>
</a>
</g>
</g>
<!-- Node4&#45;&gt;Node38 -->
<g id="edge80" class="edge">
<title>Node4&#45;&gt;Node38</title>
<path fill="none" stroke="#191970" d="M423.2,-498.6127C412.4018,-490.6022 400.2347,-479.9797 392,-468 353.1399,-411.4672 336.987,-327.9051 332.4367,-299.7003"/>
<polygon fill="#191970" stroke="#191970" points="421.2784,-501.5405 431.4651,-504.4531 425.3181,-495.8237 421.2784,-501.5405"/>
</g>
<!-- Node40 -->
<g id="node37" class="node">
<title>Node40</title>
<g id="a_node37"><a xlink:href="NearestGOFinder_8h.html" target="_top" xlink:title="include/NearestGOFinder.h">
<polygon fill="#ffffff" stroke="#000000" points="727.5,-336.5 727.5,-355.5 862.5,-355.5 862.5,-336.5 727.5,-336.5"/>
<text text-anchor="middle" x="795" y="-343.5" font-family="Helvetica,sans-Serif" font-size="10.00" fill="#000000">include/NearestGOFinder.h</text>
</a>
</g>
</g>
<!-- Node4&#45;&gt;Node40 -->
<g id="edge79" class="edge">
<title>Node4&#45;&gt;Node40</title>
<path fill="none" stroke="#191970" d="M497.6301,-510.3059C566.1135,-502.7875 688.4808,-480.1042 765,-412 782.1116,-396.7702 790.0556,-369.8368 793.2184,-355.5384"/>
<polygon fill="#191970" stroke="#191970" points="497.1112,-506.8407 487.5229,-511.3479 497.8292,-513.8038 497.1112,-506.8407"/>
</g>
<!-- Node43 -->
<g id="node40" class="node">
<title>Node43</title>
<g id="a_node40"><a xlink:href="NearestFinder_8h.html" target="_top" xlink:title="include/NearestFinder.h">
<polygon fill="#ffffff" stroke="#000000" points="22,-168.5 22,-187.5 142,-187.5 142,-168.5 22,-168.5"/>
<text text-anchor="middle" x="82" y="-175.5" font-family="Helvetica,sans-Serif" font-size="10.00" fill="#000000">include/NearestFinder.h</text>
</a>
</g>
</g>
<!-- Node4&#45;&gt;Node43 -->
<g id="edge75" class="edge">
<title>Node4&#45;&gt;Node43</title>
<path fill="none" stroke="#191970" d="M396.1554,-511.3035C308.5225,-506.0592 133.0397,-492.768 77,-468 35.7737,-449.7791 0,-447.0733 0,-402 0,-402 0,-402 0,-290 0,-244.4532 44.6949,-205.1125 68.0898,-187.6399"/>
<polygon fill="#191970" stroke="#191970" points="396.2053,-514.8123 406.3929,-511.9034 396.6148,-507.8243 396.2053,-514.8123"/>
</g>
<!-- Node44 -->
<g id="node41" class="node">
<title>Node44</title>
<g id="a_node41"><a xlink:href="Vec2_8cpp.html" target="_top" xlink:title="src/Vec2.cpp">
<polygon fill="#ffffff" stroke="#000000" points="1665,-448.5 1665,-467.5 1739,-467.5 1739,-448.5 1665,-448.5"/>
<text text-anchor="middle" x="1702" y="-455.5" font-family="Helvetica,sans-Serif" font-size="10.00" fill="#000000">src/Vec2.cpp</text>
</a>
</g>
</g>
<!-- Node4&#45;&gt;Node44 -->
<g id="edge82" class="edge">
<title>Node4&#45;&gt;Node44</title>
<path fill="none" stroke="#191970" d="M497.6704,-513.1147C696.313,-509.4812 1422.253,-494.6322 1651,-468 1655.4811,-467.4783 1660.1573,-466.7789 1664.7814,-465.9911"/>
<polygon fill="#191970" stroke="#191970" points="497.4547,-509.6179 487.52,-513.299 497.5819,-516.6168 497.4547,-509.6179"/>
</g>
<!-- Node6 -->
<g id="node3" class="node">
<title>Node6</title>
<g id="a_node3"><a xlink:href="ActionManager_8h.html" target="_top" xlink:title="include/ActionManager.h">
<polygon fill="#ffffff" stroke="#000000" points="1038,-336.5 1038,-355.5 1162,-355.5 1162,-336.5 1038,-336.5"/>
<text text-anchor="middle" x="1100" y="-343.5" font-family="Helvetica,sans-Serif" font-size="10.00" fill="#000000">include/ActionManager.h</text>
</a>
</g>
</g>
<!-- Node5&#45;&gt;Node6 -->
<g id="edge2" class="edge">
<title>Node5&#45;&gt;Node6</title>
<path fill="none" stroke="#191970" d="M1221.871,-388.9231C1192.805,-378.686 1153.0631,-364.6889 1126.9764,-355.5011"/>
<polygon fill="#191970" stroke="#191970" points="1221.0721,-392.3524 1231.6669,-392.3733 1223.3975,-385.75 1221.0721,-392.3524"/>
</g>
<!-- Node11 -->
<g id="node8" class="node">
<title>Node11</title>
<g id="a_node8"><a xlink:href="Camera_8cpp.html" target="_top" xlink:title="src/Camera.cpp">
<polygon fill="#ffffff" stroke="#000000" points="1622,-224.5 1622,-243.5 1708,-243.5 1708,-224.5 1622,-224.5"/>
<text text-anchor="middle" x="1665" y="-231.5" font-family="Helvetica,sans-Serif" font-size="10.00" fill="#000000">src/Camera.cpp</text>
</a>
</g>
</g>
<!-- Node5&#45;&gt;Node11 -->
<g id="edge36" class="edge">
<title>Node5&#45;&gt;Node11</title>
<path fill="none" stroke="#191970" d="M1328.2667,-396.9164C1404.208,-390.382 1520.4131,-377.2711 1559,-356 1609.1275,-328.3672 1646.6753,-267.303 1659.8609,-243.6358"/>
<polygon fill="#191970" stroke="#191970" points="1327.9628,-393.4295 1318.292,-397.7569 1328.5506,-400.4048 1327.9628,-393.4295"/>
</g>
<!-- Node17 -->
<g id="node14" class="node">
<title>Node17</title>
<g id="a_node14"><a xlink:href="State_8h.html" target="_top" xlink:title="include/State.h">
<polygon fill="#ffffff" stroke="#000000" points="1218,-336.5 1218,-355.5 1300,-355.5 1300,-336.5 1218,-336.5"/>
<text text-anchor="middle" x="1259" y="-343.5" font-family="Helvetica,sans-Serif" font-size="10.00" fill="#000000">include/State.h</text>
</a>
</g>
</g>
<!-- Node5&#45;&gt;Node17 -->
<g id="edge13" class="edge">
<title>Node5&#45;&gt;Node17</title>
<path fill="none" stroke="#191970" d="M1259,-382.1575C1259,-373.155 1259,-362.9199 1259,-355.6427"/>
<polygon fill="#191970" stroke="#191970" points="1255.5001,-382.2455 1259,-392.2455 1262.5001,-382.2456 1255.5001,-382.2455"/>
</g>
<!-- Node5&#45;&gt;Node18 -->
<g id="edge27" class="edge">
<title>Node5&#45;&gt;Node18</title>
<path fill="none" stroke="#191970" d="M1328.5573,-395.3861C1407.8349,-387.1316 1528.2844,-372.125 1542,-356 1555.6604,-339.9399 1543.1895,-313.8349 1534.5809,-299.7506"/>
<polygon fill="#191970" stroke="#191970" points="1327.7313,-391.9525 1318.1415,-396.4566 1328.447,-398.9158 1327.7313,-391.9525"/>
</g>
<!-- Node24 -->
<g id="node21" class="node">
<title>Node24</title>
<g id="a_node21"><a xlink:href="Sprite_8h.html" target="_top" xlink:title="include/Sprite.h">
<polygon fill="#ffffff" stroke="#000000" points="408,-224.5 408,-243.5 492,-243.5 492,-224.5 408,-224.5"/>
<text text-anchor="middle" x="450" y="-231.5" font-family="Helvetica,sans-Serif" font-size="10.00" fill="#000000">include/Sprite.h</text>
</a>
</g>
</g>
<!-- Node5&#45;&gt;Node24 -->
<g id="edge28" class="edge">
<title>Node5&#45;&gt;Node24</title>
<path fill="none" stroke="#191970" d="M1189.9172,-391.0847C1143.8927,-383.1054 1082.3015,-371.063 1029,-356 935.0902,-329.4611 917.9606,-302.4911 823,-280 683.3037,-246.9134 643.931,-265.5721 502,-244 498.8189,-243.5165 495.5357,-242.9783 492.2377,-242.4094"/>
<polygon fill="#191970" stroke="#191970" points="1189.3402,-394.5367 1199.7876,-392.7751 1190.5219,-387.6372 1189.3402,-394.5367"/>
</g>
<!-- Node27 -->
<g id="node24" class="node">
<title>Node27</title>
<g id="a_node24"><a xlink:href="Music_8h.html" target="_top" xlink:title="include/Music.h">
<polygon fill="#ffffff" stroke="#000000" points="1447.5,-336.5 1447.5,-355.5 1532.5,-355.5 1532.5,-336.5 1447.5,-336.5"/>
<text text-anchor="middle" x="1490" y="-343.5" font-family="Helvetica,sans-Serif" font-size="10.00" fill="#000000">include/Music.h</text>
</a>
</g>
</g>
<!-- Node5&#45;&gt;Node27 -->
<g id="edge33" class="edge">
<title>Node5&#45;&gt;Node27</title>
<path fill="none" stroke="#191970" d="M1308.3049,-390.0473C1350.8222,-379.7401 1411.4057,-365.0532 1450.7149,-355.5237"/>
<polygon fill="#191970" stroke="#191970" points="1307.3417,-386.6793 1298.4478,-392.4369 1308.991,-393.4823 1307.3417,-386.6793"/>
</g>
<!-- Node5&#45;&gt;Node29 -->
<g id="edge35" class="edge">
<title>Node5&#45;&gt;Node29</title>
<path fill="none" stroke="#191970" d="M1236.7567,-385.7736C1227.0836,-377.7466 1216.3136,-367.3497 1209,-356 1189.7392,-326.1099 1211.7549,-302.2274 1184,-280 1119.864,-228.6369 897.2765,-256.0723 816,-244 812.7601,-243.5188 809.4123,-242.9678 806.0555,-242.3772"/>
<polygon fill="#191970" stroke="#191970" points="1234.8457,-388.7245 1244.8606,-392.1819 1239.1877,-383.2338 1234.8457,-388.7245"/>
</g>
<!-- Node30 -->
<g id="node27" class="node">
<title>Node30</title>
<g id="a_node27"><a xlink:href="InputManager_8cpp.html" target="_top" xlink:title="src/InputManager.cpp">
<polygon fill="#ffffff" stroke="#000000" points="1318.5,-336.5 1318.5,-355.5 1429.5,-355.5 1429.5,-336.5 1318.5,-336.5"/>
<text text-anchor="middle" x="1374" y="-343.5" font-family="Helvetica,sans-Serif" font-size="10.00" fill="#000000">src/InputManager.cpp</text>
</a>
</g>
</g>
<!-- Node5&#45;&gt;Node30 -->
<g id="edge37" class="edge">
<title>Node5&#45;&gt;Node30</title>
<path fill="none" stroke="#191970" d="M1287.8033,-387.9741C1308.625,-377.8348 1336.1978,-364.408 1354.4888,-355.5011"/>
<polygon fill="#191970" stroke="#191970" points="1286.2276,-384.8484 1278.7692,-392.3733 1289.2922,-391.1419 1286.2276,-384.8484"/>
</g>
<!-- Node6&#45;&gt;Node7 -->
<g id="edge3" class="edge">
<title>Node6&#45;&gt;Node7</title>
<path fill="none" stroke="#191970" d="M1072.4801,-331.5971C1053.2983,-321.558 1028.2322,-308.4393 1011.4244,-299.6427"/>
<polygon fill="#191970" stroke="#191970" points="1070.8791,-334.7095 1081.362,-336.2455 1074.125,-328.5075 1070.8791,-334.7095"/>
</g>
<!-- Node16 -->
<g id="node13" class="node">
<title>Node16</title>
<g id="a_node13"><a xlink:href="ActionManager_8cpp.html" target="_top" xlink:title="src/ActionManager.cpp">
<polygon fill="#ffffff" stroke="#000000" points="1057.5,-280.5 1057.5,-299.5 1174.5,-299.5 1174.5,-280.5 1057.5,-280.5"/>
<text text-anchor="middle" x="1116" y="-287.5" font-family="Helvetica,sans-Serif" font-size="10.00" fill="#000000">src/ActionManager.cpp</text>
</a>
</g>
</g>
<!-- Node6&#45;&gt;Node16 -->
<g id="edge12" class="edge">
<title>Node6&#45;&gt;Node16</title>
<path fill="none" stroke="#191970" d="M1105.5846,-326.4538C1108.177,-317.3803 1111.1429,-306.9998 1113.245,-299.6427"/>
<polygon fill="#191970" stroke="#191970" points="1102.1689,-325.6688 1102.787,-336.2455 1108.8996,-327.5919 1102.1689,-325.6688"/>
</g>
<!-- Node8 -->
<g id="node5" class="node">
<title>Node8</title>
<g id="a_node5"><a xlink:href="TileMap_8h.html" target="_top" xlink:title="include/TileMap.h">
<polygon fill="#ffffff" stroke="#000000" points="497.5,-112.5 497.5,-131.5 590.5,-131.5 590.5,-112.5 497.5,-112.5"/>
<text text-anchor="middle" x="544" y="-119.5" font-family="Helvetica,sans-Serif" font-size="10.00" fill="#000000">include/TileMap.h</text>
</a>
</g>
</g>
<!-- Node7&#45;&gt;Node8 -->
<g id="edge4" class="edge">
<title>Node7&#45;&gt;Node8</title>
<path fill="none" stroke="#191970" d="M982.9391,-271.3565C973.8968,-256.3586 959.2469,-235.8894 941,-224 829.5065,-151.3525 669.0649,-130.4128 590.6766,-124.4027"/>
<polygon fill="#191970" stroke="#191970" points="980.043,-273.3422 988.0529,-280.2771 986.116,-269.8608 980.043,-273.3422"/>
</g>
<!-- Node7&#45;&gt;Node11 -->
<g id="edge7" class="edge">
<title>Node7&#45;&gt;Node11</title>
<path fill="none" stroke="#191970" d="M1049.8224,-280.0438C1300.1221,-250.5477 1367.1266,-275.3614 1613,-244 1615.9182,-243.6278 1618.9193,-243.1924 1621.9371,-242.7154"/>
<polygon fill="#191970" stroke="#191970" points="1049.2053,-276.5926 1039.6916,-281.2553 1050.0365,-283.5431 1049.2053,-276.5926"/>
</g>
<!-- Node12 -->
<g id="node9" class="node">
<title>Node12</title>
<g id="a_node9"><a xlink:href="GameObject_8cpp.html" target="_top" xlink:title="src/GameObject.cpp">
<polygon fill="#ffffff" stroke="#000000" points="824.5,-224.5 824.5,-243.5 931.5,-243.5 931.5,-224.5 824.5,-224.5"/>
<text text-anchor="middle" x="878" y="-231.5" font-family="Helvetica,sans-Serif" font-size="10.00" fill="#000000">src/GameObject.cpp</text>
</a>
</g>
</g>
<!-- Node7&#45;&gt;Node12 -->
<g id="edge8" class="edge">
<title>Node7&#45;&gt;Node12</title>
<path fill="none" stroke="#191970" d="M964.1967,-275.9741C943.375,-265.8348 915.8022,-252.408 897.5112,-243.5011"/>
<polygon fill="#191970" stroke="#191970" points="962.7078,-279.1419 973.2308,-280.3733 965.7724,-272.8484 962.7078,-279.1419"/>
</g>
<!-- Node13 -->
<g id="node10" class="node">
<title>Node13</title>
<g id="a_node10"><a xlink:href="RectTransform_8cpp.html" target="_top" xlink:title="src/RectTransform.cpp">
<polygon fill="#ffffff" stroke="#000000" points="988.5,-224.5 988.5,-243.5 1105.5,-243.5 1105.5,-224.5 988.5,-224.5"/>
<text text-anchor="middle" x="1047" y="-231.5" font-family="Helvetica,sans-Serif" font-size="10.00" fill="#000000">src/RectTransform.cpp</text>
</a>
</g>
</g>
<!-- Node7&#45;&gt;Node13 -->
<g id="edge9" class="edge">
<title>Node7&#45;&gt;Node13</title>
<path fill="none" stroke="#191970" d="M1009.5969,-272.7884C1018.8347,-263.2085 1029.9904,-251.6396 1037.7017,-243.6427"/>
<polygon fill="#191970" stroke="#191970" points="1006.828,-270.6176 1002.4061,-280.2455 1011.8669,-275.4766 1006.828,-270.6176"/>
</g>
<!-- Node14 -->
<g id="node11" class="node">
<title>Node14</title>
<g id="a_node11"><a xlink:href="Sprite_8cpp.html" target="_top" xlink:title="src/Sprite.cpp">
<polygon fill="#ffffff" stroke="#000000" points="1095.5,-168.5 1095.5,-187.5 1172.5,-187.5 1172.5,-168.5 1095.5,-168.5"/>
<text text-anchor="middle" x="1134" y="-175.5" font-family="Helvetica,sans-Serif" font-size="10.00" fill="#000000">src/Sprite.cpp</text>
</a>
</g>
</g>
<!-- Node7&#45;&gt;Node14 -->
<g id="edge10" class="edge">
<title>Node7&#45;&gt;Node14</title>
<path fill="none" stroke="#191970" d="M1038.4398,-277.5154C1068.4675,-268.42 1104.2078,-255.6952 1115,-244 1129.5552,-228.2269 1133.0355,-202.0053 1133.8191,-187.8264"/>
<polygon fill="#191970" stroke="#191970" points="1037.1137,-274.2578 1028.5197,-280.4541 1039.102,-280.9695 1037.1137,-274.2578"/>
</g>
<!-- Node15 -->
<g id="node12" class="node">
<title>Node15</title>
<g id="a_node12"><a xlink:href="State_8cpp.html" target="_top" xlink:title="src/State.cpp">
<polygon fill="#ffffff" stroke="#000000" points="1162.5,-224.5 1162.5,-243.5 1237.5,-243.5 1237.5,-224.5 1162.5,-224.5"/>
<text text-anchor="middle" x="1200" y="-231.5" font-family="Helvetica,sans-Serif" font-size="10.00" fill="#000000">src/State.cpp</text>
</a>
</g>
</g>
<!-- Node7&#45;&gt;Node15 -->
<g id="edge11" class="edge">
<title>Node7&#45;&gt;Node15</title>
<path fill="none" stroke="#191970" d="M1038.3925,-277.7199C1076.455,-267.4228 1130.028,-252.9296 1164.8798,-243.5011"/>
<polygon fill="#191970" stroke="#191970" points="1037.3235,-274.3832 1028.5846,-280.3733 1039.1516,-281.1403 1037.3235,-274.3832"/>
</g>
<!-- Node9 -->
<g id="node6" class="node">
<title>Node9</title>
<g id="a_node6"><a xlink:href="ManhattanDistance_8h.html" target="_top" xlink:title="include/ManhattanDistance.h">
<polygon fill="#ffffff" stroke="#000000" points="472.5,-56.5 472.5,-75.5 615.5,-75.5 615.5,-56.5 472.5,-56.5"/>
<text text-anchor="middle" x="544" y="-63.5" font-family="Helvetica,sans-Serif" font-size="10.00" fill="#000000">include/ManhattanDistance.h</text>
</a>
</g>
</g>
<!-- Node8&#45;&gt;Node9 -->
<g id="edge5" class="edge">
<title>Node8&#45;&gt;Node9</title>
<path fill="none" stroke="#191970" d="M544,-102.1575C544,-93.155 544,-82.9199 544,-75.6427"/>
<polygon fill="#191970" stroke="#191970" points="540.5001,-102.2455 544,-112.2455 547.5001,-102.2456 540.5001,-102.2455"/>
</g>
<!-- Node10 -->
<g id="node7" class="node">
<title>Node10</title>
<g id="a_node7"><a xlink:href="ManhattanDistance_8cpp.html" target="_top" xlink:title="src/ManhattanDistance.cpp">
<polygon fill="#ffffff" stroke="#000000" points="475.5,-.5 475.5,-19.5 612.5,-19.5 612.5,-.5 475.5,-.5"/>
<text text-anchor="middle" x="544" y="-7.5" font-family="Helvetica,sans-Serif" font-size="10.00" fill="#000000">src/ManhattanDistance.cpp</text>
</a>
</g>
</g>
<!-- Node9&#45;&gt;Node10 -->
<g id="edge6" class="edge">
<title>Node9&#45;&gt;Node10</title>
<path fill="none" stroke="#191970" d="M544,-46.1575C544,-37.155 544,-26.9199 544,-19.6427"/>
<polygon fill="#191970" stroke="#191970" points="540.5001,-46.2455 544,-56.2455 547.5001,-46.2456 540.5001,-46.2455"/>
</g>
<!-- Node17&#45;&gt;Node15 -->
<g id="edge26" class="edge">
<title>Node17&#45;&gt;Node15</title>
<path fill="none" stroke="#191970" d="M1249.2925,-327.5723C1236.5915,-303.4618 1214.8041,-262.1028 1205.0176,-243.5249"/>
<polygon fill="#191970" stroke="#191970" points="1246.2123,-329.2347 1253.9697,-336.4509 1252.4055,-325.9722 1246.2123,-329.2347"/>
</g>
<!-- Node17&#45;&gt;Node18 -->
<g id="edge14" class="edge">
<title>Node17&#45;&gt;Node18</title>
<path fill="none" stroke="#191970" d="M1310.2299,-335.335C1360.8861,-324.7895 1437.523,-308.8354 1485.0764,-298.9358"/>
<polygon fill="#191970" stroke="#191970" points="1309.2249,-331.9691 1300.1481,-337.4338 1310.6516,-338.8222 1309.2249,-331.9691"/>
</g>
<!-- Node23 -->
<g id="node20" class="node">
<title>Node23</title>
<g id="a_node20"><a xlink:href="Threading_8h.html" target="_top" xlink:title="include/Threading.h">
<polygon fill="#ffffff" stroke="#000000" points="1269.5,-280.5 1269.5,-299.5 1370.5,-299.5 1370.5,-280.5 1269.5,-280.5"/>
<text text-anchor="middle" x="1320" y="-287.5" font-family="Helvetica,sans-Serif" font-size="10.00" fill="#000000">include/Threading.h</text>
</a>
</g>
</g>
<!-- Node17&#45;&gt;Node23 -->
<g id="edge22" class="edge">
<title>Node17&#45;&gt;Node23</title>
<path fill="none" stroke="#191970" d="M1277.1249,-329.3607C1287.678,-319.6727 1300.6112,-307.7995 1309.4964,-299.6427"/>
<polygon fill="#191970" stroke="#191970" points="1274.625,-326.9045 1269.6254,-336.2455 1279.3589,-332.0611 1274.625,-326.9045"/>
</g>
<!-- Node18&#45;&gt;Node11 -->
<g id="edge15" class="edge">
<title>Node18&#45;&gt;Node11</title>
<path fill="none" stroke="#191970" d="M1560.9806,-276.5189C1585.9311,-266.3201 1619.5734,-252.5685 1641.7562,-243.5011"/>
<polygon fill="#191970" stroke="#191970" points="1559.4834,-273.3497 1551.5511,-280.3733 1562.132,-279.8293 1559.4834,-273.3497"/>
</g>
<!-- Node18&#45;&gt;Node13 -->
<g id="edge17" class="edge">
<title>Node18&#45;&gt;Node13</title>
<path fill="none" stroke="#191970" d="M1475.3792,-280.0486C1390.2263,-267.9587 1202.0401,-249.1091 1105.7859,-239.6915"/>
<polygon fill="#191970" stroke="#191970" points="1475.0812,-283.5422 1485.4822,-281.525 1476.0934,-276.6158 1475.0812,-283.5422"/>
</g>
<!-- Node18&#45;&gt;Node14 -->
<g id="edge19" class="edge">
<title>Node18&#45;&gt;Node14</title>
<path fill="none" stroke="#191970" d="M1514.6223,-272.6069C1501.673,-257.1293 1480.5811,-235.2514 1457,-224 1407.3485,-200.3094 1247.0763,-186.0862 1172.6463,-180.6029"/>
<polygon fill="#191970" stroke="#191970" points="1511.9388,-274.8549 1520.9427,-280.439 1517.3863,-270.4589 1511.9388,-274.8549"/>
</g>
<!-- Node19 -->
<g id="node16" class="node">
<title>Node19</title>
<g id="a_node16"><a xlink:href="Game_8cpp.html" target="_top" xlink:title="src/Game.cpp">
<polygon fill="#ffffff" stroke="#000000" points="1256,-224.5 1256,-243.5 1334,-243.5 1334,-224.5 1256,-224.5"/>
<text text-anchor="middle" x="1295" y="-231.5" font-family="Helvetica,sans-Serif" font-size="10.00" fill="#000000">src/Game.cpp</text>
</a>
</g>
</g>
<!-- Node18&#45;&gt;Node19 -->
<g id="edge16" class="edge">
<title>Node18&#45;&gt;Node19</title>
<path fill="none" stroke="#191970" d="M1478.2369,-278.0398C1435.2127,-267.6992 1373.8649,-252.9547 1334.2366,-243.4303"/>
<polygon fill="#191970" stroke="#191970" points="1477.6696,-281.503 1488.2106,-280.4369 1479.3054,-274.6968 1477.6696,-281.503"/>
</g>
<!-- Node20 -->
<g id="node17" class="node">
<title>Node20</title>
<g id="a_node17"><a xlink:href="Resources_8cpp.html" target="_top" xlink:title="src/Resources.cpp">
<polygon fill="#ffffff" stroke="#000000" points="1504.5,-224.5 1504.5,-243.5 1603.5,-243.5 1603.5,-224.5 1504.5,-224.5"/>
<text text-anchor="middle" x="1554" y="-231.5" font-family="Helvetica,sans-Serif" font-size="10.00" fill="#000000">src/Resources.cpp</text>
</a>
</g>
</g>
<!-- Node18&#45;&gt;Node20 -->
<g id="edge18" class="edge">
<title>Node18&#45;&gt;Node20</title>
<path fill="none" stroke="#191970" d="M1536.8011,-271.0437C1541.0775,-261.8331 1546.033,-251.1598 1549.523,-243.6427"/>
<polygon fill="#191970" stroke="#191970" points="1533.5655,-269.7015 1532.5289,-280.2455 1539.9146,-272.6494 1533.5655,-269.7015"/>
</g>
<!-- Node21 -->
<g id="node18" class="node">
<title>Node21</title>
<g id="a_node18"><a xlink:href="Text_8cpp.html" target="_top" xlink:title="src/Text.cpp">
<polygon fill="#ffffff" stroke="#000000" points="510.5,-224.5 510.5,-243.5 581.5,-243.5 581.5,-224.5 510.5,-224.5"/>
<text text-anchor="middle" x="546" y="-231.5" font-family="Helvetica,sans-Serif" font-size="10.00" fill="#000000">src/Text.cpp</text>
</a>
</g>
</g>
<!-- Node18&#45;&gt;Node21 -->
<g id="edge20" class="edge">
<title>Node18&#45;&gt;Node21</title>
<path fill="none" stroke="#191970" d="M1475.2057,-280.0825C1138.9516,-240.4333 1050.9467,-261.6837 717,-244 670.2278,-241.5232 616.2816,-238.3089 581.6926,-236.2021"/>
<polygon fill="#191970" stroke="#191970" points="1474.8838,-283.5688 1485.2269,-281.2734 1475.7099,-276.6177 1474.8838,-283.5688"/>
</g>
<!-- Node22 -->
<g id="node19" class="node">
<title>Node22</title>
<g id="a_node19"><a xlink:href="Threading_8cpp.html" target="_top" xlink:title="src/Threading.cpp">
<polygon fill="#ffffff" stroke="#000000" points="1352.5,-224.5 1352.5,-243.5 1447.5,-243.5 1447.5,-224.5 1352.5,-224.5"/>
<text text-anchor="middle" x="1400" y="-231.5" font-family="Helvetica,sans-Serif" font-size="10.00" fill="#000000">src/Threading.cpp</text>
</a>
</g>
</g>
<!-- Node18&#45;&gt;Node22 -->
<g id="edge21" class="edge">
<title>Node18&#45;&gt;Node22</title>
<path fill="none" stroke="#191970" d="M1496.5652,-276.2473C1473.3191,-266.0771 1442.2589,-252.4883 1421.7169,-243.5011"/>
<polygon fill="#191970" stroke="#191970" points="1495.4315,-279.5716 1505.996,-280.3733 1498.2373,-273.1585 1495.4315,-279.5716"/>
</g>
<!-- Node23&#45;&gt;Node15 -->
<g id="edge24" class="edge">
<title>Node23&#45;&gt;Node15</title>
<path fill="none" stroke="#191970" d="M1290.2376,-276.1109C1268.4768,-265.9559 1239.5318,-252.4482 1220.3595,-243.5011"/>
<polygon fill="#191970" stroke="#191970" points="1288.8293,-279.316 1299.3713,-280.3733 1291.7895,-272.9727 1288.8293,-279.316"/>
</g>
<!-- Node23&#45;&gt;Node19 -->
<g id="edge23" class="edge">
<title>Node23&#45;&gt;Node19</title>
<path fill="none" stroke="#191970" d="M1311.5374,-271.0437C1307.4255,-261.8331 1302.6606,-251.1598 1299.3048,-243.6427"/>
<polygon fill="#191970" stroke="#191970" points="1308.3728,-272.541 1315.6453,-280.2455 1314.7648,-269.6874 1308.3728,-272.541"/>
</g>
<!-- Node23&#45;&gt;Node22 -->
<g id="edge25" class="edge">
<title>Node23&#45;&gt;Node22</title>
<path fill="none" stroke="#191970" d="M1342.1571,-274.49C1356.272,-264.6096 1374.1151,-252.1194 1386.2248,-243.6427"/>
<polygon fill="#191970" stroke="#191970" points="1340.1201,-271.6436 1333.9349,-280.2455 1344.1344,-277.3782 1340.1201,-271.6436"/>
</g>
<!-- Node24&#45;&gt;Node14 -->
<g id="edge32" class="edge">
<title>Node24&#45;&gt;Node14</title>
<path fill="none" stroke="#191970" d="M502.1533,-224.147C733.2176,-194.1379 997.7565,-182.6864 1095.3661,-179.2334"/>
<polygon fill="#191970" stroke="#191970" points="501.6771,-220.6794 492.2179,-225.4516 502.5885,-227.6198 501.6771,-220.6794"/>
</g>
<!-- Node24&#45;&gt;Node25 -->
<g id="edge29" class="edge">
<title>Node24&#45;&gt;Node25</title>
<path fill="none" stroke="#191970" d="M427.289,-218.49C412.8212,-208.6096 394.532,-196.1194 382.1196,-187.6427"/>
<polygon fill="#191970" stroke="#191970" points="425.4848,-221.4962 435.7167,-224.2455 429.4325,-215.7156 425.4848,-221.4962"/>
</g>
<!-- Node25&#45;&gt;Node8 -->
<g id="edge30" class="edge">
<title>Node25&#45;&gt;Node8</title>
<path fill="none" stroke="#191970" d="M407.8404,-165.3235C440.1173,-155.0536 484.8852,-140.8093 514.1393,-131.5011"/>
<polygon fill="#191970" stroke="#191970" points="406.7235,-162.0059 398.2555,-168.3733 408.846,-168.6764 406.7235,-162.0059"/>
</g>
<!-- Node26 -->
<g id="node23" class="node">
<title>Node26</title>
<g id="a_node23"><a xlink:href="Tileset_8cpp.html" target="_top" xlink:title="src/Tileset.cpp">
<polygon fill="#ffffff" stroke="#000000" points="327.5,-112.5 327.5,-131.5 408.5,-131.5 408.5,-112.5 327.5,-112.5"/>
<text text-anchor="middle" x="368" y="-119.5" font-family="Helvetica,sans-Serif" font-size="10.00" fill="#000000">src/Tileset.cpp</text>
</a>
</g>
</g>
<!-- Node25&#45;&gt;Node26 -->
<g id="edge31" class="edge">
<title>Node25&#45;&gt;Node26</title>
<path fill="none" stroke="#191970" d="M368,-158.1575C368,-149.155 368,-138.9199 368,-131.6427"/>
<polygon fill="#191970" stroke="#191970" points="364.5001,-158.2455 368,-168.2455 371.5001,-158.2456 364.5001,-158.2455"/>
</g>
<!-- Node28 -->
<g id="node25" class="node">
<title>Node28</title>
<g id="a_node25"><a xlink:href="Music_8cpp.html" target="_top" xlink:title="src/Music.cpp">
<polygon fill="#ffffff" stroke="#000000" points="1389,-280.5 1389,-299.5 1467,-299.5 1467,-280.5 1389,-280.5"/>
<text text-anchor="middle" x="1428" y="-287.5" font-family="Helvetica,sans-Serif" font-size="10.00" fill="#000000">src/Music.cpp</text>
</a>
</g>
</g>
<!-- Node27&#45;&gt;Node28 -->
<g id="edge34" class="edge">
<title>Node27&#45;&gt;Node28</title>
<path fill="none" stroke="#191970" d="M1471.5779,-329.3607C1460.8519,-319.6727 1447.7066,-307.7995 1438.6758,-299.6427"/>
<polygon fill="#191970" stroke="#191970" points="1469.4334,-332.14 1479.2004,-336.2455 1474.1254,-326.9453 1469.4334,-332.14"/>
</g>
<!-- Node31&#45;&gt;Node4 -->
<g id="edge39" class="edge">
<title>Node31&#45;&gt;Node4</title>
<path fill="none" stroke="#191970" d="M453.4795,-477.7046C454.0821,-486.6944 453.6779,-496.9382 452.2668,-504.2455"/>
<polygon fill="#191970" stroke="#191970" points="456.9368,-477.1421 452.2451,-467.6427 449.9889,-477.9945 456.9368,-477.1421"/>
</g>
<!-- Node31&#45;&gt;Node24 -->
<g id="edge67" class="edge">
<title>Node31&#45;&gt;Node24</title>
<path fill="none" stroke="#191970" d="M425.0165,-442.2798C374.6663,-405.3858 257.2374,-313.8184 283,-280 290.6995,-269.8929 361.0129,-253.0832 407.9148,-242.8252"/>
<polygon fill="#191970" stroke="#191970" points="423.1675,-445.2627 433.3148,-448.3097 427.2824,-439.5998 423.1675,-445.2627"/>
</g>
<!-- Node31&#45;&gt;Node25 -->
<g id="edge69" class="edge">
<title>Node31&#45;&gt;Node25</title>
<path fill="none" stroke="#191970" d="M396.7146,-449.7487C342.9881,-440.4824 261.6828,-425.0349 233,-412 170.3254,-383.5176 143.6698,-366.5367 126,-300 120.0096,-277.4429 136.2864,-224.7155 137,-224 162.7006,-198.2324 264.3404,-186.0587 323.8913,-181.0325"/>
<polygon fill="#191970" stroke="#191970" points="396.2907,-453.2269 406.7374,-451.4609 397.4696,-446.3268 396.2907,-453.2269"/>
</g>
<!-- Node32 -->
<g id="node29" class="node">
<title>Node32</title>
<g id="a_node29"><a xlink:href="GameObject_8h.html" target="_top" xlink:title="include/GameObject.h">
<polygon fill="#ffffff" stroke="#000000" points="642.5,-392.5 642.5,-411.5 755.5,-411.5 755.5,-392.5 642.5,-392.5"/>
<text text-anchor="middle" x="699" y="-399.5" font-family="Helvetica,sans-Serif" font-size="10.00" fill="#000000">include/GameObject.h</text>
</a>
</g>
</g>
<!-- Node31&#45;&gt;Node32 -->
<g id="edge40" class="edge">
<title>Node31&#45;&gt;Node32</title>
<path fill="none" stroke="#191970" d="M497.0612,-446.8753C543.5142,-436.5524 611.9311,-421.3486 655.9816,-411.5596"/>
<polygon fill="#191970" stroke="#191970" points="496.2114,-443.4787 487.2088,-449.0647 497.73,-450.312 496.2114,-443.4787"/>
</g>
<!-- Node36 -->
<g id="node33" class="node">
<title>Node36</title>
<g id="a_node33"><a xlink:href="Grouper_8cpp.html" target="_top" xlink:title="src/Grouper.cpp">
<polygon fill="#ffffff" stroke="#000000" points="146,-224.5 146,-243.5 232,-243.5 232,-224.5 146,-224.5"/>
<text text-anchor="middle" x="189" y="-231.5" font-family="Helvetica,sans-Serif" font-size="10.00" fill="#000000">src/Grouper.cpp</text>
</a>
</g>
</g>
<!-- Node31&#45;&gt;Node36 -->
<g id="edge70" class="edge">
<title>Node31&#45;&gt;Node36</title>
<path fill="none" stroke="#191970" d="M396.8457,-449.4722C323.9037,-434.0759 190.9473,-394.0279 133,-300 119.4396,-277.9962 149.3803,-255.7666 170.4888,-243.5474"/>
<polygon fill="#191970" stroke="#191970" points="396.2284,-452.9183 406.7257,-451.4841 397.6253,-446.059 396.2284,-452.9183"/>
</g>
<!-- Node31&#45;&gt;Node37 -->
<g id="edge68" class="edge">
<title>Node31&#45;&gt;Node37</title>
<path fill="none" stroke="#191970" d="M437.4054,-439.4785C433.6799,-431.2885 429.8648,-421.3997 428,-412 419.7073,-370.2008 437.4029,-320.0786 445.8469,-299.5126"/>
<polygon fill="#191970" stroke="#191970" points="434.2567,-441.007 441.7682,-448.4788 440.5557,-437.9536 434.2567,-441.007"/>
</g>
<!-- Node41 -->
<g id="node38" class="node">
<title>Node41</title>
<g id="a_node38"><a xlink:href="Collision_8h.html" target="_top" xlink:title="include/Collision.h">
<polygon fill="#ffffff" stroke="#000000" points="437,-392.5 437,-411.5 533,-411.5 533,-392.5 437,-392.5"/>
<text text-anchor="middle" x="485" y="-399.5" font-family="Helvetica,sans-Serif" font-size="10.00" fill="#000000">include/Collision.h</text>
</a>
</g>
</g>
<!-- Node31&#45;&gt;Node41 -->
<g id="edge66" class="edge">
<title>Node31&#45;&gt;Node41</title>
<path fill="none" stroke="#191970" d="M459.2679,-439.9209C465.6488,-430.5176 473.1931,-419.3997 478.4568,-411.6427"/>
<polygon fill="#191970" stroke="#191970" points="456.338,-438.0055 453.6191,-448.2455 462.1303,-441.936 456.338,-438.0055"/>
</g>
<!-- Node42 -->
<g id="node39" class="node">
<title>Node42</title>
<g id="a_node39"><a xlink:href="Rect_8cpp.html" target="_top" xlink:title="src/Rect.cpp">
<polygon fill="#ffffff" stroke="#000000" points="551.5,-392.5 551.5,-411.5 624.5,-411.5 624.5,-392.5 551.5,-392.5"/>
<text text-anchor="middle" x="588" y="-399.5" font-family="Helvetica,sans-Serif" font-size="10.00" fill="#000000">src/Rect.cpp</text>
</a>
</g>
</g>
<!-- Node31&#45;&gt;Node42 -->
<g id="edge71" class="edge">
<title>Node31&#45;&gt;Node42</title>
<path fill="none" stroke="#191970" d="M480.6032,-444.6541C506.3159,-434.4419 541.1461,-420.6086 564.0775,-411.5011"/>
<polygon fill="#191970" stroke="#191970" points="479.2407,-441.4292 471.2388,-448.3733 481.8245,-447.9349 479.2407,-441.4292"/>
</g>
<!-- Node32&#45;&gt;Node7 -->
<g id="edge59" class="edge">
<title>Node32&#45;&gt;Node7</title>
<path fill="none" stroke="#191970" d="M699.6665,-382.0123C701.2776,-367.1257 705.9619,-347.4687 719,-336 735.8185,-321.206 872.4846,-303.6628 946.2243,-295.1486"/>
<polygon fill="#191970" stroke="#191970" points="696.1566,-382.0306 698.9459,-392.2516 703.1393,-382.522 696.1566,-382.0306"/>
</g>
<!-- Node32&#45;&gt;Node12 -->
<g id="edge65" class="edge">
<title>Node32&#45;&gt;Node12</title>
<path fill="none" stroke="#191970" d="M693.9947,-382.4923C691.5399,-368.1691 690.9565,-349.0193 701,-336 735.531,-291.2377 775.7582,-331.0526 823,-300 845.6843,-285.0893 863.9131,-258.0212 872.5562,-243.6184"/>
<polygon fill="#191970" stroke="#191970" points="690.5825,-383.2731 696.0917,-392.3229 697.4285,-381.8128 690.5825,-383.2731"/>
</g>
<!-- Node32&#45;&gt;Node17 -->
<g id="edge60" class="edge">
<title>Node32&#45;&gt;Node17</title>
<path fill="none" stroke="#191970" d="M765.9284,-395.8172C857.439,-387.2858 1026.7237,-371.2269 1171,-356 1186.2912,-354.3862 1203.0639,-352.5073 1217.8274,-350.8166"/>
<polygon fill="#191970" stroke="#191970" points="765.3329,-392.3574 755.7005,-396.7695 765.982,-399.3272 765.3329,-392.3574"/>
</g>
<!-- Node33 -->
<g id="node30" class="node">
<title>Node33</title>
<g id="a_node30"><a xlink:href="Component_8h.html" target="_top" xlink:title="include/Component.h">
<polygon fill="#ffffff" stroke="#000000" points="485.5,-336.5 485.5,-355.5 594.5,-355.5 594.5,-336.5 485.5,-336.5"/>
<text text-anchor="middle" x="540" y="-343.5" font-family="Helvetica,sans-Serif" font-size="10.00" fill="#000000">include/Component.h</text>
</a>
</g>
</g>
<!-- Node32&#45;&gt;Node33 -->
<g id="edge41" class="edge">
<title>Node32&#45;&gt;Node33</title>
<path fill="none" stroke="#191970" d="M656.8546,-389.1905C626.2603,-378.9309 586.2371,-364.7691 561.7591,-355.5011"/>
<polygon fill="#191970" stroke="#191970" points="655.8314,-392.5386 666.4249,-392.3733 658.0404,-385.8963 655.8314,-392.5386"/>
</g>
<!-- Node34 -->
<g id="node31" class="node">
<title>Node34</title>
<g id="a_node31"><a xlink:href="Button_8h.html" target="_top" xlink:title="include/Button.h">
<polygon fill="#ffffff" stroke="#000000" points="726.5,-280.5 726.5,-299.5 813.5,-299.5 813.5,-280.5 726.5,-280.5"/>
<text text-anchor="middle" x="770" y="-287.5" font-family="Helvetica,sans-Serif" font-size="10.00" fill="#000000">include/Button.h</text>
</a>
</g>
</g>
<!-- Node32&#45;&gt;Node34 -->
<g id="edge58" class="edge">
<title>Node32&#45;&gt;Node34</title>
<path fill="none" stroke="#191970" d="M673.5554,-386.9046C654.7635,-373.7807 634.4545,-354.0859 647,-336 656.8757,-321.7629 698.3863,-308.2156 730.4838,-299.558"/>
<polygon fill="#191970" stroke="#191970" points="671.6835,-389.8626 681.9593,-392.4427 675.5353,-384.0176 671.6835,-389.8626"/>
</g>
<!-- Node32&#45;&gt;Node35 -->
<g id="edge61" class="edge">
<title>Node32&#45;&gt;Node35</title>
<path fill="none" stroke="#191970" d="M632.3379,-391.7357C549.5799,-378.9578 417.91,-358.4983 407,-356 337.2318,-340.0233 257.1435,-313.6457 216.205,-299.5614"/>
<polygon fill="#191970" stroke="#191970" points="632.0088,-395.2262 642.4256,-393.2926 633.0765,-388.3081 632.0088,-395.2262"/>
</g>
<!-- Node32&#45;&gt;Node37 -->
<g id="edge62" class="edge">
<title>Node32&#45;&gt;Node37</title>
<path fill="none" stroke="#191970" d="M632.3352,-391.4352C571.4106,-381.2588 489.0076,-365.9791 477,-356 459.6713,-341.5988 453.3352,-314.3158 451.12,-299.7461"/>
<polygon fill="#191970" stroke="#191970" points="631.857,-394.9036 642.2946,-393.0855 633.0013,-387.9978 631.857,-394.9036"/>
</g>
<!-- Node32&#45;&gt;Node38 -->
<g id="edge64" class="edge">
<title>Node32&#45;&gt;Node38</title>
<path fill="none" stroke="#191970" d="M632.2929,-391.4962C572.4916,-381.6739 489.4796,-366.9212 458,-356 415.2744,-341.1772 369.1094,-314.0721 345.9903,-299.6404"/>
<polygon fill="#191970" stroke="#191970" points="631.991,-394.9932 642.4242,-393.1497 633.1186,-388.0846 631.991,-394.9932"/>
</g>
<!-- Node32&#45;&gt;Node40 -->
<g id="edge63" class="edge">
<title>Node32&#45;&gt;Node40</title>
<path fill="none" stroke="#191970" d="M724.6346,-387.0465C741.7159,-377.0824 763.664,-364.2794 778.4697,-355.6427"/>
<polygon fill="#191970" stroke="#191970" points="722.5962,-384.1836 715.7219,-392.2455 726.1233,-390.23 722.5962,-384.1836"/>
</g>
<!-- Node33&#45;&gt;Node8 -->
<g id="edge47" class="edge">
<title>Node33&#45;&gt;Node8</title>
<path fill="none" stroke="#191970" d="M597.2935,-334.1518C631.0148,-325.887 668.9747,-313.8778 679,-300 726.2412,-234.6053 607.5944,-157.9692 561.441,-131.5297"/>
<polygon fill="#191970" stroke="#191970" points="596.3821,-330.7708 587.4622,-336.488 598.0005,-337.5812 596.3821,-330.7708"/>
</g>
<!-- Node33&#45;&gt;Node24 -->
<g id="edge48" class="edge">
<title>Node33&#45;&gt;Node24</title>
<path fill="none" stroke="#191970" d="M537.9789,-326.0219C535.7245,-312.0098 530.9759,-293.4518 521,-280 508.7516,-263.4838 488.6658,-251.2749 472.9778,-243.6017"/>
<polygon fill="#191970" stroke="#191970" points="534.5302,-326.6421 539.3043,-336.1003 541.4705,-325.7293 534.5302,-326.6421"/>
</g>
<!-- Node33&#45;&gt;Node32 -->
<g id="edge44" class="edge">
<title>Node33&#45;&gt;Node32</title>
<path fill="none" stroke="#191970" d="M581.7322,-358.671C612.2411,-368.8953 652.2914,-383.0613 676.9089,-392.3733"/>
<polygon fill="#191970" stroke="#191970" points="582.7872,-355.3335 572.1937,-355.5011 580.5796,-361.9763 582.7872,-355.3335"/>
</g>
<!-- Node33&#45;&gt;Node34 -->
<g id="edge42" class="edge">
<title>Node33&#45;&gt;Node34</title>
<path fill="none" stroke="#191970" d="M589.0915,-334.0473C631.4247,-323.7401 691.7459,-309.0532 730.8849,-299.5237"/>
<polygon fill="#191970" stroke="#191970" points="588.1652,-330.6705 579.2771,-336.4369 589.8212,-337.4718 588.1652,-330.6705"/>
</g>
<!-- Node33&#45;&gt;Node35 -->
<g id="edge45" class="edge">
<title>Node33&#45;&gt;Node35</title>
<path fill="none" stroke="#191970" d="M475.1993,-335.6614C405.7204,-324.5765 297.1237,-307.2505 235.6101,-297.4364"/>
<polygon fill="#191970" stroke="#191970" points="474.7297,-339.1307 485.1563,-337.25 475.8326,-332.2181 474.7297,-339.1307"/>
</g>
<!-- Node33&#45;&gt;Node37 -->
<g id="edge49" class="edge">
<title>Node33&#45;&gt;Node37</title>
<path fill="none" stroke="#191970" d="M515.5216,-330.769C499.5734,-320.8456 479.249,-308.1994 465.4972,-299.6427"/>
<polygon fill="#191970" stroke="#191970" points="513.9835,-333.9342 524.3232,-336.2455 517.6817,-327.9908 513.9835,-333.9342"/>
</g>
<!-- Node33&#45;&gt;Node38 -->
<g id="edge55" class="edge">
<title>Node33&#45;&gt;Node38</title>
<path fill="none" stroke="#191970" d="M494.1689,-333.7199C455.7387,-323.4228 401.648,-308.9296 366.4595,-299.5011"/>
<polygon fill="#191970" stroke="#191970" points="493.5065,-337.1658 504.0716,-336.3733 495.3182,-330.4043 493.5065,-337.1658"/>
</g>
<!-- Node39 -->
<g id="node36" class="node">
<title>Node39</title>
<g id="a_node36"><a xlink:href="Component_8cpp.html" target="_top" xlink:title="src/Component.cpp">
<polygon fill="#ffffff" stroke="#000000" points="568,-280.5 568,-299.5 670,-299.5 670,-280.5 568,-280.5"/>
<text text-anchor="middle" x="619" y="-287.5" font-family="Helvetica,sans-Serif" font-size="10.00" fill="#000000">src/Component.cpp</text>
</a>
</g>
</g>
<!-- Node33&#45;&gt;Node39 -->
<g id="edge57" class="edge">
<title>Node33&#45;&gt;Node39</title>
<path fill="none" stroke="#191970" d="M562.2756,-330.2097C576.1505,-320.3743 593.5515,-308.0394 605.3969,-299.6427"/>
<polygon fill="#191970" stroke="#191970" points="559.8949,-327.6071 553.7607,-336.2455 563.9431,-333.3178 559.8949,-327.6071"/>
</g>
<!-- Node34&#45;&gt;Node29 -->
<g id="edge43" class="edge">
<title>Node34&#45;&gt;Node29</title>
<path fill="none" stroke="#191970" d="M768.5827,-270.1575C767.9396,-261.155 767.2086,-250.9199 766.6888,-243.6427"/>
<polygon fill="#191970" stroke="#191970" points="765.0996,-270.5204 769.3033,-280.2455 772.0818,-270.0216 765.0996,-270.5204"/>
</g>
<!-- Node35&#45;&gt;Node36 -->
<g id="edge46" class="edge">
<title>Node35&#45;&gt;Node36</title>
<path fill="none" stroke="#191970" d="M189,-270.1575C189,-261.155 189,-250.9199 189,-243.6427"/>
<polygon fill="#191970" stroke="#191970" points="185.5001,-270.2455 189,-280.2455 192.5001,-270.2456 185.5001,-270.2455"/>
</g>
<!-- Node37&#45;&gt;Node13 -->
<g id="edge53" class="edge">
<title>Node37&#45;&gt;Node13</title>
<path fill="none" stroke="#191970" d="M522.1548,-283.2548C617.8834,-274.3025 792.1388,-257.9949 941,-244 956.3668,-242.5553 972.9863,-240.9892 988.4065,-239.5345"/>
<polygon fill="#191970" stroke="#191970" points="521.6389,-279.7877 512.0083,-284.2036 522.2908,-286.7573 521.6389,-279.7877"/>
</g>
<!-- Node37&#45;&gt;Node21 -->
<g id="edge54" class="edge">
<title>Node37&#45;&gt;Node21</title>
<path fill="none" stroke="#191970" d="M475.6346,-275.0465C492.7159,-265.0824 514.664,-252.2794 529.4697,-243.6427"/>
<polygon fill="#191970" stroke="#191970" points="473.5962,-272.1836 466.7219,-280.2455 477.1233,-278.23 473.5962,-272.1836"/>
</g>
<!-- Node37&#45;&gt;Node24 -->
<g id="edge50" class="edge">
<title>Node37&#45;&gt;Node24</title>
<path fill="none" stroke="#191970" d="M450,-270.1575C450,-261.155 450,-250.9199 450,-243.6427"/>
<polygon fill="#191970" stroke="#191970" points="446.5001,-270.2455 450,-280.2455 453.5001,-270.2456 446.5001,-270.2455"/>
</g>
<!-- Node37&#45;&gt;Node29 -->
<g id="edge51" class="edge">
<title>Node37&#45;&gt;Node29</title>
<path fill="none" stroke="#191970" d="M513.8458,-278.6856C577.1918,-267.4597 672.3234,-250.6009 725.7973,-241.1245"/>
<polygon fill="#191970" stroke="#191970" points="513.1991,-275.2455 503.9633,-280.4369 514.4206,-282.1381 513.1991,-275.2455"/>
</g>
<!-- Node37&#45;&gt;Node36 -->
<g id="edge52" class="edge">
<title>Node37&#45;&gt;Node36</title>
<path fill="none" stroke="#191970" d="M395.4103,-278.2873C346.8517,-267.8686 276.7972,-252.8377 232.0857,-243.2444"/>
<polygon fill="#191970" stroke="#191970" points="394.9173,-281.7611 405.4291,-280.4369 396.3859,-274.9168 394.9173,-281.7611"/>
</g>
<!-- Node38&#45;&gt;Node21 -->
<g id="edge56" class="edge">
<title>Node38&#45;&gt;Node21</title>
<path fill="none" stroke="#191970" d="M377.704,-277.8352C417.5241,-267.4635 473.9248,-252.7731 510.2369,-243.315"/>
<polygon fill="#191970" stroke="#191970" points="376.7547,-274.4656 367.9598,-280.3733 378.5192,-281.2396 376.7547,-274.4656"/>
</g>
<!-- Node43&#45;&gt;Node8 -->
<g id="edge76" class="edge">
<title>Node43&#45;&gt;Node8</title>
<path fill="none" stroke="#191970" d="M152.5433,-169.4493C248.0561,-157.872 415.8975,-137.5276 497.2154,-127.6709"/>
<polygon fill="#191970" stroke="#191970" points="151.9046,-166.001 142.3984,-170.679 152.747,-172.9501 151.9046,-166.001"/>
</g>
</g>
</svg>
