<?xml version="1.0" encoding="UTF-8" standalone="no"?>
<!DOCTYPE svg PUBLIC "-//W3C//DTD SVG 1.1//EN"
 "http://www.w3.org/Graphics/SVG/1.1/DTD/svg11.dtd">
<!-- Generated by graphviz version 2.40.1 (20161225.0304)
 -->
<!-- Title: src/Vec2.cpp Pages: 1 -->
<svg width="287pt" height="196pt"
 viewBox="0.00 0.00 287.00 196.00" xmlns="http://www.w3.org/2000/svg" xmlns:xlink="http://www.w3.org/1999/xlink">
<g id="graph0" class="graph" transform="scale(1 1) rotate(0) translate(4 192)">
<title>src/Vec2.cpp</title>
<polygon fill="#ffffff" stroke="transparent" points="-4,4 -4,-192 283,-192 283,4 -4,4"/>
<!-- Node0 -->
<g id="node1" class="node">
<title>Node0</title>
<polygon fill="#bfbfbf" stroke="#000000" points="94,-168.5 94,-187.5 168,-187.5 168,-168.5 94,-168.5"/>
<text text-anchor="middle" x="131" y="-175.5" font-family="Helvetica,sans-Serif" font-size="10.00" fill="#000000">src/Vec2.cpp</text>
</g>
<!-- Node1 -->
<g id="node2" class="node">
<title>Node1</title>
<g id="a_node2"><a xlink:href="Vec2_8h.html" target="_top" xlink:title="Vec2.h">
<polygon fill="#ffffff" stroke="#000000" points="55.5,-112.5 55.5,-131.5 102.5,-131.5 102.5,-112.5 55.5,-112.5"/>
<text text-anchor="middle" x="79" y="-119.5" font-family="Helvetica,sans-Serif" font-size="10.00" fill="#000000">Vec2.h</text>
</a>
</g>
</g>
<!-- Node0&#45;&gt;Node1 -->
<g id="edge1" class="edge">
<title>Node0&#45;&gt;Node1</title>
<path fill="none" stroke="#191970" d="M121.9423,-168.2455C114.4858,-160.2155 103.7366,-148.6394 94.8583,-139.0781"/>
<polygon fill="#191970" stroke="#191970" points="97.3232,-136.589 87.9539,-131.6427 92.1937,-141.3522 97.3232,-136.589"/>
</g>
<!-- Node4 -->
<g id="node5" class="node">
<title>Node4</title>
<polygon fill="#ffffff" stroke="#bfbfbf" points="103,-.5 103,-19.5 147,-19.5 147,-.5 103,-.5"/>
<text text-anchor="middle" x="125" y="-7.5" font-family="Helvetica,sans-Serif" font-size="10.00" fill="#000000">cmath</text>
</g>
<!-- Node0&#45;&gt;Node4 -->
<g id="edge10" class="edge">
<title>Node0&#45;&gt;Node4</title>
<path fill="none" stroke="#191970" d="M130.6602,-168.4862C129.7118,-141.9293 127.0202,-66.5651 125.7202,-30.1655"/>
<polygon fill="#191970" stroke="#191970" points="129.2058,-29.6966 125.351,-19.8279 122.2102,-29.9465 129.2058,-29.6966"/>
</g>
<!-- Node5 -->
<g id="node6" class="node">
<title>Node5</title>
<g id="a_node6"><a xlink:href="Error_8h.html" target="_top" xlink:title="Error.h">
<polygon fill="#ffffff" stroke="#000000" points="163,-112.5 163,-131.5 209,-131.5 209,-112.5 163,-112.5"/>
<text text-anchor="middle" x="186" y="-119.5" font-family="Helvetica,sans-Serif" font-size="10.00" fill="#000000">Error.h</text>
</a>
</g>
</g>
<!-- Node0&#45;&gt;Node5 -->
<g id="edge7" class="edge">
<title>Node0&#45;&gt;Node5</title>
<path fill="none" stroke="#191970" d="M140.5803,-168.2455C148.5458,-160.1352 160.0641,-148.4075 169.5079,-138.7919"/>
<polygon fill="#191970" stroke="#191970" points="172.0195,-141.2297 176.5295,-131.6427 167.0253,-136.3247 172.0195,-141.2297"/>
</g>
<!-- Node2 -->
<g id="node3" class="node">
<title>Node2</title>
<g id="a_node3"><a xlink:href="SDL__include_8h.html" target="_top" xlink:title="SDL_include.h">
<polygon fill="#ffffff" stroke="#000000" points="0,-.5 0,-19.5 80,-19.5 80,-.5 0,-.5"/>
<text text-anchor="middle" x="40" y="-7.5" font-family="Helvetica,sans-Serif" font-size="10.00" fill="#000000">SDL_include.h</text>
</a>
</g>
</g>
<!-- Node1&#45;&gt;Node2 -->
<g id="edge2" class="edge">
<title>Node1&#45;&gt;Node2</title>
<path fill="none" stroke="#191970" d="M70.3398,-112.184C63.083,-103.3611 53.1129,-89.7161 48,-76 42.4566,-61.1291 40.5601,-43.1927 39.9922,-29.7738"/>
<polygon fill="#191970" stroke="#191970" points="43.4905,-29.6536 39.7767,-19.731 36.4921,-29.8038 43.4905,-29.6536"/>
</g>
<!-- Node3 -->
<g id="node4" class="node">
<title>Node3</title>
<g id="a_node4"><a xlink:href="Rect_8h.html" target="_top" xlink:title="Rect.h">
<polygon fill="#ffffff" stroke="#000000" points="57,-56.5 57,-75.5 103,-75.5 103,-56.5 57,-56.5"/>
<text text-anchor="middle" x="80" y="-63.5" font-family="Helvetica,sans-Serif" font-size="10.00" fill="#000000">Rect.h</text>
</a>
</g>
</g>
<!-- Node1&#45;&gt;Node3 -->
<g id="edge3" class="edge">
<title>Node1&#45;&gt;Node3</title>
<path fill="none" stroke="#191970" d="M73.9073,-112.2455C72.6268,-104.9382 72.4055,-94.6944 73.1686,-85.7046"/>
<polygon fill="#191970" stroke="#191970" points="76.6569,-86.0325 74.5827,-75.6427 69.725,-85.0583 76.6569,-86.0325"/>
</g>
<!-- Node3&#45;&gt;Node1 -->
<g id="edge5" class="edge">
<title>Node3&#45;&gt;Node1</title>
<path fill="none" stroke="#191970" d="M85.0729,-75.6427C86.3643,-82.9199 86.5961,-93.155 85.843,-102.1575"/>
<polygon fill="#191970" stroke="#191970" points="82.3509,-101.8589 84.441,-112.2455 89.2843,-102.8225 82.3509,-101.8589"/>
</g>
<!-- Node3&#45;&gt;Node2 -->
<g id="edge4" class="edge">
<title>Node3&#45;&gt;Node2</title>
<path fill="none" stroke="#191970" d="M73.0325,-56.2455C67.4689,-48.4564 59.522,-37.3308 52.8171,-27.9439"/>
<polygon fill="#191970" stroke="#191970" points="55.5481,-25.7457 46.8876,-19.6427 49.852,-29.8144 55.5481,-25.7457"/>
</g>
<!-- Node3&#45;&gt;Node4 -->
<g id="edge6" class="edge">
<title>Node3&#45;&gt;Node4</title>
<path fill="none" stroke="#191970" d="M87.8384,-56.2455C94.162,-48.3761 103.2224,-37.101 110.8136,-27.6542"/>
<polygon fill="#191970" stroke="#191970" points="113.7158,-29.6302 117.2514,-19.6427 108.2592,-25.2454 113.7158,-29.6302"/>
</g>
<!-- Node6 -->
<g id="node7" class="node">
<title>Node6</title>
<polygon fill="#ffffff" stroke="#bfbfbf" points="159,-56.5 159,-75.5 213,-75.5 213,-56.5 159,-56.5"/>
<text text-anchor="middle" x="186" y="-63.5" font-family="Helvetica,sans-Serif" font-size="10.00" fill="#000000">iostream</text>
</g>
<!-- Node5&#45;&gt;Node6 -->
<g id="edge8" class="edge">
<title>Node5&#45;&gt;Node6</title>
<path fill="none" stroke="#191970" d="M186,-112.2455C186,-104.9382 186,-94.6944 186,-85.7046"/>
<polygon fill="#191970" stroke="#191970" points="189.5001,-85.6426 186,-75.6427 182.5001,-85.6427 189.5001,-85.6426"/>
</g>
<!-- Node7 -->
<g id="node8" class="node">
<title>Node7</title>
<polygon fill="#ffffff" stroke="#bfbfbf" points="231,-56.5 231,-75.5 279,-75.5 279,-56.5 231,-56.5"/>
<text text-anchor="middle" x="255" y="-63.5" font-family="Helvetica,sans-Serif" font-size="10.00" fill="#000000">stdlib.h</text>
</g>
<!-- Node5&#45;&gt;Node7 -->
<g id="edge9" class="edge">
<title>Node5&#45;&gt;Node7</title>
<path fill="none" stroke="#191970" d="M198.0189,-112.2455C208.2098,-103.9746 223.0362,-91.9416 235.0107,-82.2232"/>
<polygon fill="#191970" stroke="#191970" points="237.5598,-84.662 243.1188,-75.6427 233.1486,-79.2268 237.5598,-84.662"/>
</g>
</g>
</svg>
