<?xml version="1.0" encoding="UTF-8" standalone="no"?>
<!DOCTYPE svg PUBLIC "-//W3C//DTD SVG 1.1//EN"
 "http://www.w3.org/Graphics/SVG/1.1/DTD/svg11.dtd">
<!-- Generated by graphviz version 2.38.0 (20140413.2041)
 -->
<!-- Title: include/Vec2.h Pages: 1 -->
<svg width="2178pt" height="420pt"
 viewBox="0.00 0.00 2178.00 420.00" xmlns="http://www.w3.org/2000/svg" xmlns:xlink="http://www.w3.org/1999/xlink">
<g id="graph0" class="graph" transform="scale(1 1) rotate(0) translate(4 416)">
<title>include/Vec2.h</title>
<polygon fill="white" stroke="none" points="-4,4 -4,-416 2174,-416 2174,4 -4,4"/>
<!-- Node2 -->
<g id="node1" class="node"><title>Node2</title>
<polygon fill="#bfbfbf" stroke="black" points="1288.5,-392.5 1288.5,-411.5 1369.5,-411.5 1369.5,-392.5 1288.5,-392.5"/>
<text text-anchor="middle" x="1329" y="-399.5" font-family="Helvetica,sans-Serif" font-size="10.00">include/Vec2.h</text>
</g>
<!-- Node3 -->
<g id="node2" class="node"><title>Node3</title>
<g id="a_node2"><a xlink:href="InputManager_8h.html" target="_top" xlink:title="include/InputManager.h">
<polygon fill="white" stroke="black" points="515,-280.5 515,-299.5 633,-299.5 633,-280.5 515,-280.5"/>
<text text-anchor="middle" x="574" y="-287.5" font-family="Helvetica,sans-Serif" font-size="10.00">include/InputManager.h</text>
</a>
</g>
</g>
<!-- Node2&#45;&gt;Node3 -->
<g id="edge1" class="edge"><title>Node2&#45;&gt;Node3</title>
<path fill="none" stroke="midnightblue" d="M1278.02,-399.535C1151.09,-395.519 823.535,-382.808 718,-356 668.021,-343.304 613.788,-314.2 588.504,-299.635"/>
<polygon fill="midnightblue" stroke="midnightblue" points="1278.14,-403.04 1288.24,-399.853 1278.35,-396.043 1278.14,-403.04"/>
</g>
<!-- Node5 -->
<g id="node4" class="node"><title>Node5</title>
<g id="a_node4"><a xlink:href="Camera_8h.html" target="_top" xlink:title="include/Camera.h">
<polygon fill="white" stroke="black" points="641.5,-168.5 641.5,-187.5 734.5,-187.5 734.5,-168.5 641.5,-168.5"/>
<text text-anchor="middle" x="688" y="-175.5" font-family="Helvetica,sans-Serif" font-size="10.00">include/Camera.h</text>
</a>
</g>
</g>
<!-- Node2&#45;&gt;Node5 -->
<g id="edge74" class="edge"><title>Node2&#45;&gt;Node5</title>
<path fill="none" stroke="midnightblue" d="M1278.21,-398.021C1186,-392.154 994.795,-377.754 932,-356 842.612,-325.033 824.703,-303.305 751,-244 728.716,-226.069 706.275,-200.781 695.163,-187.659"/>
<polygon fill="midnightblue" stroke="midnightblue" points="1278.22,-401.528 1288.42,-398.661 1278.66,-394.542 1278.22,-401.528"/>
</g>
<!-- Node17 -->
<g id="node16" class="node"><title>Node17</title>
<g id="a_node16"><a xlink:href="Tileset_8h.html" target="_top" xlink:title="include/Tileset.h">
<polygon fill="white" stroke="black" points="1008,-112.5 1008,-131.5 1096,-131.5 1096,-112.5 1008,-112.5"/>
<text text-anchor="middle" x="1052" y="-119.5" font-family="Helvetica,sans-Serif" font-size="10.00">include/Tileset.h</text>
</a>
</g>
</g>
<!-- Node2&#45;&gt;Node17 -->
<g id="edge77" class="edge"><title>Node2&#45;&gt;Node17</title>
<path fill="none" stroke="midnightblue" d="M1278.41,-397.119C1174.34,-387.742 946,-359.374 946,-291 946,-291 946,-291 946,-233 946,-183.14 1003.17,-147.188 1033.54,-131.607"/>
<polygon fill="midnightblue" stroke="midnightblue" points="1278.11,-400.606 1288.37,-397.993 1278.72,-393.633 1278.11,-400.606"/>
</g>
<!-- Node20 -->
<g id="node19" class="node"><title>Node20</title>
<g id="a_node19"><a xlink:href="Game_8h.html" target="_top" xlink:title="include/Game.h">
<polygon fill="white" stroke="black" points="398.5,-168.5 398.5,-187.5 483.5,-187.5 483.5,-168.5 398.5,-168.5"/>
<text text-anchor="middle" x="441" y="-175.5" font-family="Helvetica,sans-Serif" font-size="10.00">include/Game.h</text>
</a>
</g>
</g>
<!-- Node2&#45;&gt;Node20 -->
<g id="edge78" class="edge"><title>Node2&#45;&gt;Node20</title>
<path fill="none" stroke="midnightblue" d="M1278.08,-401.046C1165.35,-400.394 886.501,-394.631 657,-356 470.722,-324.644 361.629,-394.143 247,-244 241.606,-236.935 241.47,-230.959 247,-224 265.552,-200.652 347.187,-188.337 398.467,-182.788"/>
<polygon fill="midnightblue" stroke="midnightblue" points="1278.13,-404.546 1288.15,-401.093 1278.16,-397.546 1278.13,-404.546"/>
</g>
<!-- Node26 -->
<g id="node25" class="node"><title>Node26</title>
<g id="a_node25"><a xlink:href="Button_8cpp.html" target="_top" xlink:title="src/Button.cpp">
<polygon fill="white" stroke="black" points="1586,-112.5 1586,-131.5 1666,-131.5 1666,-112.5 1586,-112.5"/>
<text text-anchor="middle" x="1626" y="-119.5" font-family="Helvetica,sans-Serif" font-size="10.00">src/Button.cpp</text>
</a>
</g>
</g>
<!-- Node2&#45;&gt;Node26 -->
<g id="edge83" class="edge"><title>Node2&#45;&gt;Node26</title>
<path fill="none" stroke="midnightblue" d="M1380.08,-396.997C1524.95,-384.967 1928,-346.508 1928,-291 1928,-291 1928,-291 1928,-233 1928,-194.282 1903.75,-186.979 1870,-168 1805.23,-131.576 1716.96,-123.807 1666.27,-122.614"/>
<polygon fill="midnightblue" stroke="midnightblue" points="1379.38,-393.543 1369.7,-397.851 1379.95,-400.52 1379.38,-393.543"/>
</g>
<!-- Node28 -->
<g id="node27" class="node"><title>Node28</title>
<g id="a_node27"><a xlink:href="Rect_8h.html" target="_top" xlink:title="include/Rect.h">
<polygon fill="white" stroke="black" points="1289,-336.5 1289,-355.5 1369,-355.5 1369,-336.5 1289,-336.5"/>
<text text-anchor="middle" x="1329" y="-343.5" font-family="Helvetica,sans-Serif" font-size="10.00">include/Rect.h</text>
</a>
</g>
</g>
<!-- Node2&#45;&gt;Node28 -->
<g id="edge37" class="edge"><title>Node2&#45;&gt;Node28</title>
<path fill="none" stroke="midnightblue" d="M1329,-381.805C1329,-372.91 1329,-362.78 1329,-355.751"/>
<polygon fill="midnightblue" stroke="midnightblue" points="1325.5,-382.083 1329,-392.083 1332.5,-382.083 1325.5,-382.083"/>
</g>
<!-- Node32 -->
<g id="node31" class="node"><title>Node32</title>
<g id="a_node31"><a xlink:href="Grouper_8h.html" target="_top" xlink:title="include/Grouper.h">
<polygon fill="white" stroke="black" points="1768.5,-168.5 1768.5,-187.5 1861.5,-187.5 1861.5,-168.5 1768.5,-168.5"/>
<text text-anchor="middle" x="1815" y="-175.5" font-family="Helvetica,sans-Serif" font-size="10.00">include/Grouper.h</text>
</a>
</g>
</g>
<!-- Node2&#45;&gt;Node32 -->
<g id="edge79" class="edge"><title>Node2&#45;&gt;Node32</title>
<path fill="none" stroke="midnightblue" d="M1379.71,-390.926C1416.6,-383.006 1467.5,-370.845 1511,-356 1569.38,-336.078 1584.09,-329.979 1638,-300 1704.04,-263.279 1776.64,-208.71 1803.87,-187.69"/>
<polygon fill="midnightblue" stroke="midnightblue" points="1378.76,-387.551 1369.7,-393.046 1380.21,-394.399 1378.76,-387.551"/>
</g>
<!-- Node34 -->
<g id="node33" class="node"><title>Node34</title>
<g id="a_node33"><a xlink:href="RectTransform_8h.html" target="_top" xlink:title="include/RectTransform.h">
<polygon fill="white" stroke="black" points="1626,-168.5 1626,-187.5 1750,-187.5 1750,-168.5 1626,-168.5"/>
<text text-anchor="middle" x="1688" y="-175.5" font-family="Helvetica,sans-Serif" font-size="10.00">include/RectTransform.h</text>
</a>
</g>
</g>
<!-- Node2&#45;&gt;Node34 -->
<g id="edge81" class="edge"><title>Node2&#45;&gt;Node34</title>
<path fill="none" stroke="midnightblue" d="M1369.63,-389.548C1424.21,-373.376 1523.4,-341.171 1602,-300 1640.45,-279.861 1660.21,-281.533 1682,-244 1692.36,-226.163 1691.02,-200.835 1689.38,-187.683"/>
<polygon fill="midnightblue" stroke="midnightblue" points="1368.59,-386.207 1359.98,-392.38 1370.56,-392.924 1368.59,-386.207"/>
</g>
<!-- Node35 -->
<g id="node34" class="node"><title>Node35</title>
<g id="a_node34"><a xlink:href="Text_8h.html" target="_top" xlink:title="include/Text.h">
<polygon fill="white" stroke="black" points="1190,-168.5 1190,-187.5 1268,-187.5 1268,-168.5 1190,-168.5"/>
<text text-anchor="middle" x="1229" y="-175.5" font-family="Helvetica,sans-Serif" font-size="10.00">include/Text.h</text>
</a>
</g>
</g>
<!-- Node2&#45;&gt;Node35 -->
<g id="edge82" class="edge"><title>Node2&#45;&gt;Node35</title>
<path fill="none" stroke="midnightblue" d="M1283.16,-389.573C1239.97,-376.099 1177.72,-349.056 1149,-300 1123.55,-256.537 1186.69,-207.132 1215.54,-187.598"/>
<polygon fill="midnightblue" stroke="midnightblue" points="1282.3,-392.968 1292.89,-392.478 1284.31,-386.261 1282.3,-392.968"/>
</g>
<!-- Node37 -->
<g id="node36" class="node"><title>Node37</title>
<g id="a_node36"><a xlink:href="NearestGOFinder_8h.html" target="_top" xlink:title="include/NearestGOFinder.h">
<polygon fill="white" stroke="black" points="1516.5,-224.5 1516.5,-243.5 1651.5,-243.5 1651.5,-224.5 1516.5,-224.5"/>
<text text-anchor="middle" x="1584" y="-231.5" font-family="Helvetica,sans-Serif" font-size="10.00">include/NearestGOFinder.h</text>
</a>
</g>
</g>
<!-- Node2&#45;&gt;Node37 -->
<g id="edge80" class="edge"><title>Node2&#45;&gt;Node37</title>
<path fill="none" stroke="midnightblue" d="M1350.88,-386.899C1381.08,-367.417 1437.24,-331.14 1485,-300 1515.83,-279.899 1551.95,-256.129 1570.89,-243.648"/>
<polygon fill="midnightblue" stroke="midnightblue" points="1348.88,-384.021 1342.37,-392.382 1352.67,-389.904 1348.88,-384.021"/>
</g>
<!-- Node40 -->
<g id="node39" class="node"><title>Node40</title>
<g id="a_node39"><a xlink:href="AStarHeuristic_8h.html" target="_top" xlink:title="include/AStarHeuristic.h">
<polygon fill="white" stroke="black" points="1956,-336.5 1956,-355.5 2078,-355.5 2078,-336.5 1956,-336.5"/>
<text text-anchor="middle" x="2017" y="-343.5" font-family="Helvetica,sans-Serif" font-size="10.00">include/AStarHeuristic.h</text>
</a>
</g>
</g>
<!-- Node2&#45;&gt;Node40 -->
<g id="edge71" class="edge"><title>Node2&#45;&gt;Node40</title>
<path fill="none" stroke="midnightblue" d="M1379.58,-398.079C1484.54,-391.845 1733.59,-376.143 1942,-356 1946.44,-355.571 1951.02,-355.097 1955.63,-354.598"/>
<polygon fill="midnightblue" stroke="midnightblue" points="1379.36,-394.586 1369.58,-398.671 1379.77,-401.574 1379.36,-394.586"/>
</g>
<!-- Node43 -->
<g id="node42" class="node"><title>Node43</title>
<g id="a_node42"><a xlink:href="NearestFinder_8h.html" target="_top" xlink:title="include/NearestFinder.h">
<polygon fill="white" stroke="black" points="0,-336.5 0,-355.5 120,-355.5 120,-336.5 0,-336.5"/>
<text text-anchor="middle" x="60" y="-343.5" font-family="Helvetica,sans-Serif" font-size="10.00">include/NearestFinder.h</text>
</a>
</g>
</g>
<!-- Node2&#45;&gt;Node43 -->
<g id="edge75" class="edge"><title>Node2&#45;&gt;Node43</title>
<path fill="none" stroke="midnightblue" d="M1278.09,-400.6C1112.79,-398.976 576.238,-391.158 134,-356 129.485,-355.641 124.821,-355.212 120.133,-354.739"/>
<polygon fill="midnightblue" stroke="midnightblue" points="1278.4,-404.103 1288.44,-400.698 1278.47,-397.103 1278.4,-404.103"/>
</g>
<!-- Node44 -->
<g id="node43" class="node"><title>Node44</title>
<g id="a_node43"><a xlink:href="Vec2_8cpp.html" target="_top" xlink:title="src/Vec2.cpp">
<polygon fill="white" stroke="black" points="2096,-336.5 2096,-355.5 2170,-355.5 2170,-336.5 2096,-336.5"/>
<text text-anchor="middle" x="2133" y="-343.5" font-family="Helvetica,sans-Serif" font-size="10.00">src/Vec2.cpp</text>
</a>
</g>
</g>
<!-- Node2&#45;&gt;Node44 -->
<g id="edge84" class="edge"><title>Node2&#45;&gt;Node44</title>
<path fill="none" stroke="midnightblue" d="M1380.05,-400.325C1502.49,-398.194 1822.36,-389.59 2087,-356 2089.91,-355.631 2092.9,-355.188 2095.91,-354.699"/>
<polygon fill="midnightblue" stroke="midnightblue" points="1379.79,-396.829 1369.85,-400.495 1379.91,-403.828 1379.79,-396.829"/>
</g>
<!-- Node4 -->
<g id="node3" class="node"><title>Node4</title>
<g id="a_node3"><a xlink:href="ActionManager_8h.html" target="_top" xlink:title="include/ActionManager.h">
<polygon fill="white" stroke="black" points="580,-224.5 580,-243.5 704,-243.5 704,-224.5 580,-224.5"/>
<text text-anchor="middle" x="642" y="-231.5" font-family="Helvetica,sans-Serif" font-size="10.00">include/ActionManager.h</text>
</a>
</g>
</g>
<!-- Node3&#45;&gt;Node4 -->
<g id="edge2" class="edge"><title>Node3&#45;&gt;Node4</title>
<path fill="none" stroke="midnightblue" d="M592.762,-274.101C605,-264.382 620.559,-252.027 630.876,-243.834"/>
<polygon fill="midnightblue" stroke="midnightblue" points="590.58,-271.364 584.925,-280.324 594.933,-276.846 590.58,-271.364"/>
</g>
<!-- Node7 -->
<g id="node6" class="node"><title>Node7</title>
<g id="a_node6"><a xlink:href="DragAndDrop_8h.html" target="_top" xlink:title="include/DragAndDrop.h">
<polygon fill="white" stroke="black" points="432,-0.5 432,-19.5 550,-19.5 550,-0.5 432,-0.5"/>
<text text-anchor="middle" x="491" y="-7.5" font-family="Helvetica,sans-Serif" font-size="10.00">include/DragAndDrop.h</text>
</a>
</g>
</g>
<!-- Node3&#45;&gt;Node7 -->
<g id="edge21" class="edge"><title>Node3&#45;&gt;Node7</title>
<path fill="none" stroke="midnightblue" d="M504.722,-284.091C422.731,-277.48 291.688,-264.169 247,-244 177.488,-212.628 148.78,-201.326 117,-132 113.296,-123.92 111.596,-119.057 117,-112 155.131,-62.206 336.199,-31.3592 431.703,-18.2803"/>
<polygon fill="midnightblue" stroke="midnightblue" points="504.47,-287.582 514.716,-284.883 505.024,-280.603 504.47,-287.582"/>
</g>
<!-- Node9 -->
<g id="node8" class="node"><title>Node9</title>
<g id="a_node8"><a xlink:href="Camera_8cpp.html" target="_top" xlink:title="src/Camera.cpp">
<polygon fill="white" stroke="black" points="126,-112.5 126,-131.5 212,-131.5 212,-112.5 126,-112.5"/>
<text text-anchor="middle" x="169" y="-119.5" font-family="Helvetica,sans-Serif" font-size="10.00">src/Camera.cpp</text>
</a>
</g>
</g>
<!-- Node3&#45;&gt;Node9 -->
<g id="edge35" class="edge"><title>Node3&#45;&gt;Node9</title>
<path fill="none" stroke="midnightblue" d="M519.718,-278.021C491.708,-270.907 457.7,-259.939 430,-244 386.647,-219.054 391.025,-191.738 347,-168 323.924,-155.557 257.007,-140.525 212.119,-131.368"/>
<polygon fill="midnightblue" stroke="midnightblue" points="519.198,-281.497 529.743,-280.47 520.859,-274.697 519.198,-281.497"/>
</g>
<!-- Node15 -->
<g id="node14" class="node"><title>Node15</title>
<g id="a_node14"><a xlink:href="Sprite_8h.html" target="_top" xlink:title="include/Sprite.h">
<polygon fill="white" stroke="black" points="1050,-168.5 1050,-187.5 1134,-187.5 1134,-168.5 1050,-168.5"/>
<text text-anchor="middle" x="1092" y="-175.5" font-family="Helvetica,sans-Serif" font-size="10.00">include/Sprite.h</text>
</a>
</g>
</g>
<!-- Node3&#45;&gt;Node15 -->
<g id="edge14" class="edge"><title>Node3&#45;&gt;Node15</title>
<path fill="none" stroke="midnightblue" d="M643.433,-279.732C699.682,-271.742 780.83,-259.121 851,-244 928.948,-227.203 1019.35,-200.973 1064.03,-187.547"/>
<polygon fill="midnightblue" stroke="midnightblue" points="642.642,-276.309 633.228,-281.17 643.618,-283.24 642.642,-276.309"/>
</g>
<!-- Node19 -->
<g id="node18" class="node"><title>Node19</title>
<g id="a_node18"><a xlink:href="State_8h.html" target="_top" xlink:title="include/State.h">
<polygon fill="white" stroke="black" points="760,-224.5 760,-243.5 842,-243.5 842,-224.5 760,-224.5"/>
<text text-anchor="middle" x="801" y="-231.5" font-family="Helvetica,sans-Serif" font-size="10.00">include/State.h</text>
</a>
</g>
</g>
<!-- Node3&#45;&gt;Node19 -->
<g id="edge22" class="edge"><title>Node3&#45;&gt;Node19</title>
<path fill="none" stroke="midnightblue" d="M619.869,-278.088C662.755,-267.887 725.917,-252.861 765.199,-243.516"/>
<polygon fill="midnightblue" stroke="midnightblue" points="618.887,-274.724 609.969,-280.444 620.507,-281.534 618.887,-274.724"/>
</g>
<!-- Node3&#45;&gt;Node20 -->
<g id="edge31" class="edge"><title>Node3&#45;&gt;Node20</title>
<path fill="none" stroke="midnightblue" d="M504.749,-282.059C480.569,-275.921 455.798,-264.629 441,-244 428.897,-227.128 434.192,-200.93 438.128,-187.529"/>
<polygon fill="midnightblue" stroke="midnightblue" points="504.155,-285.513 514.682,-284.313 505.705,-278.687 504.155,-285.513"/>
</g>
<!-- Node24 -->
<g id="node23" class="node"><title>Node24</title>
<g id="a_node23"><a xlink:href="Music_8h.html" target="_top" xlink:title="include/Music.h">
<polygon fill="white" stroke="black" points="256.5,-224.5 256.5,-243.5 341.5,-243.5 341.5,-224.5 256.5,-224.5"/>
<text text-anchor="middle" x="299" y="-231.5" font-family="Helvetica,sans-Serif" font-size="10.00">include/Music.h</text>
</a>
</g>
</g>
<!-- Node3&#45;&gt;Node24 -->
<g id="edge32" class="edge"><title>Node3&#45;&gt;Node24</title>
<path fill="none" stroke="midnightblue" d="M520.362,-278.467C468.226,-268.23 390.064,-252.882 341.918,-243.428"/>
<polygon fill="midnightblue" stroke="midnightblue" points="519.938,-281.951 530.425,-280.444 521.287,-275.082 519.938,-281.951"/>
</g>
<!-- Node3&#45;&gt;Node26 -->
<g id="edge34" class="edge"><title>Node3&#45;&gt;Node26</title>
<path fill="none" stroke="midnightblue" d="M643.152,-279.936C710.339,-271.057 815.224,-257.002 906,-244 1071.07,-220.356 1112.56,-215.715 1277,-188 1389.13,-169.101 1520.91,-143.681 1585.77,-130.956"/>
<polygon fill="midnightblue" stroke="midnightblue" points="642.566,-276.483 633.11,-281.262 643.482,-283.423 642.566,-276.483"/>
</g>
<!-- Node27 -->
<g id="node26" class="node"><title>Node27</title>
<g id="a_node26"><a xlink:href="InputManager_8cpp.html" target="_top" xlink:title="src/InputManager.cpp">
<polygon fill="white" stroke="black" points="450.5,-224.5 450.5,-243.5 561.5,-243.5 561.5,-224.5 450.5,-224.5"/>
<text text-anchor="middle" x="506" y="-231.5" font-family="Helvetica,sans-Serif" font-size="10.00">src/InputManager.cpp</text>
</a>
</g>
</g>
<!-- Node3&#45;&gt;Node27 -->
<g id="edge36" class="edge"><title>Node3&#45;&gt;Node27</title>
<path fill="none" stroke="midnightblue" d="M555.238,-274.101C543,-264.382 527.441,-252.027 517.124,-243.834"/>
<polygon fill="midnightblue" stroke="midnightblue" points="553.067,-276.846 563.075,-280.324 557.42,-271.364 553.067,-276.846"/>
</g>
<!-- Node4&#45;&gt;Node5 -->
<g id="edge3" class="edge"><title>Node4&#45;&gt;Node5</title>
<path fill="none" stroke="midnightblue" d="M656.114,-216.431C664.176,-206.967 673.959,-195.483 680.545,-187.751"/>
<polygon fill="midnightblue" stroke="midnightblue" points="653.416,-214.201 649.596,-224.083 658.745,-218.74 653.416,-214.201"/>
</g>
<!-- Node14 -->
<g id="node13" class="node"><title>Node14</title>
<g id="a_node13"><a xlink:href="ActionManager_8cpp.html" target="_top" xlink:title="src/ActionManager.cpp">
<polygon fill="white" stroke="black" points="506.5,-168.5 506.5,-187.5 623.5,-187.5 623.5,-168.5 506.5,-168.5"/>
<text text-anchor="middle" x="565" y="-175.5" font-family="Helvetica,sans-Serif" font-size="10.00">src/ActionManager.cpp</text>
</a>
</g>
</g>
<!-- Node4&#45;&gt;Node14 -->
<g id="edge13" class="edge"><title>Node4&#45;&gt;Node14</title>
<path fill="none" stroke="midnightblue" d="M621.099,-218.342C607.089,-208.517 589.117,-195.913 577.341,-187.655"/>
<polygon fill="midnightblue" stroke="midnightblue" points="619.432,-221.448 629.629,-224.324 623.451,-215.717 619.432,-221.448"/>
</g>
<!-- Node6 -->
<g id="node5" class="node"><title>Node6</title>
<g id="a_node5"><a xlink:href="TileMap_8h.html" target="_top" xlink:title="include/TileMap.h">
<polygon fill="white" stroke="black" points="482.5,-56.5 482.5,-75.5 575.5,-75.5 575.5,-56.5 482.5,-56.5"/>
<text text-anchor="middle" x="529" y="-63.5" font-family="Helvetica,sans-Serif" font-size="10.00">include/TileMap.h</text>
</a>
</g>
</g>
<!-- Node5&#45;&gt;Node6 -->
<g id="edge4" class="edge"><title>Node5&#45;&gt;Node6</title>
<path fill="none" stroke="midnightblue" d="M632.65,-166.456C583.623,-156.556 518.648,-141.835 511,-132 497.918,-115.176 512.535,-89.4207 522.078,-75.9365"/>
<polygon fill="midnightblue" stroke="midnightblue" points="632.04,-169.903 642.532,-168.43 633.411,-163.039 632.04,-169.903"/>
</g>
<!-- Node5&#45;&gt;Node7 -->
<g id="edge6" class="edge"><title>Node5&#45;&gt;Node7</title>
<path fill="none" stroke="midnightblue" d="M634.753,-166.467C583.596,-155.973 512.538,-140.266 502,-132 473.554,-109.686 466.163,-91.501 473,-56 475.546,-42.78 481.941,-28.5069 486.379,-19.6611"/>
<polygon fill="midnightblue" stroke="midnightblue" points="634.198,-169.926 644.695,-168.493 635.595,-163.067 634.198,-169.926"/>
</g>
<!-- Node8 -->
<g id="node7" class="node"><title>Node8</title>
<g id="a_node7"><a xlink:href="Animation_8cpp.html" target="_top" xlink:title="src/Animation.cpp">
<polygon fill="white" stroke="black" points="805.5,-56.5 805.5,-75.5 900.5,-75.5 900.5,-56.5 805.5,-56.5"/>
<text text-anchor="middle" x="853" y="-63.5" font-family="Helvetica,sans-Serif" font-size="10.00">src/Animation.cpp</text>
</a>
</g>
</g>
<!-- Node5&#45;&gt;Node8 -->
<g id="edge7" class="edge"><title>Node5&#45;&gt;Node8</title>
<path fill="none" stroke="midnightblue" d="M707.962,-162.351C726.43,-148.93 754.758,-128.673 780,-112 800,-98.7888 823.717,-84.3963 838.565,-75.5336"/>
<polygon fill="midnightblue" stroke="midnightblue" points="705.761,-159.624 699.745,-168.345 709.886,-165.28 705.761,-159.624"/>
</g>
<!-- Node5&#45;&gt;Node9 -->
<g id="edge8" class="edge"><title>Node5&#45;&gt;Node9</title>
<path fill="none" stroke="midnightblue" d="M631.331,-168.011C448.327,-145.786 399.637,-155.241 221,-132 218.093,-131.622 215.1,-131.197 212.088,-130.744"/>
<polygon fill="midnightblue" stroke="midnightblue" points="630.933,-171.488 641.285,-169.234 631.787,-164.54 630.933,-171.488"/>
</g>
<!-- Node10 -->
<g id="node9" class="node"><title>Node10</title>
<g id="a_node9"><a xlink:href="GameObject_8cpp.html" target="_top" xlink:title="src/GameObject.cpp">
<polygon fill="white" stroke="black" points="882.5,-112.5 882.5,-131.5 989.5,-131.5 989.5,-112.5 882.5,-112.5"/>
<text text-anchor="middle" x="936" y="-119.5" font-family="Helvetica,sans-Serif" font-size="10.00">src/GameObject.cpp</text>
</a>
</g>
</g>
<!-- Node5&#45;&gt;Node10 -->
<g id="edge9" class="edge"><title>Node5&#45;&gt;Node10</title>
<path fill="none" stroke="midnightblue" d="M737.226,-166.281C784.091,-156.077 853.699,-140.92 896.888,-131.516"/>
<polygon fill="midnightblue" stroke="midnightblue" points="736.323,-162.896 727.296,-168.444 737.812,-169.736 736.323,-162.896"/>
</g>
<!-- Node11 -->
<g id="node10" class="node"><title>Node11</title>
<g id="a_node10"><a xlink:href="RectTransform_8cpp.html" target="_top" xlink:title="src/RectTransform.cpp">
<polygon fill="white" stroke="black" points="615.5,-112.5 615.5,-131.5 732.5,-131.5 732.5,-112.5 615.5,-112.5"/>
<text text-anchor="middle" x="674" y="-119.5" font-family="Helvetica,sans-Serif" font-size="10.00">src/RectTransform.cpp</text>
</a>
</g>
</g>
<!-- Node5&#45;&gt;Node11 -->
<g id="edge10" class="edge"><title>Node5&#45;&gt;Node11</title>
<path fill="none" stroke="midnightblue" d="M683.177,-158.396C680.835,-149.362 678.132,-138.936 676.269,-131.751"/>
<polygon fill="midnightblue" stroke="midnightblue" points="679.79,-159.281 685.688,-168.083 686.566,-157.525 679.79,-159.281"/>
</g>
<!-- Node12 -->
<g id="node11" class="node"><title>Node12</title>
<g id="a_node11"><a xlink:href="Sprite_8cpp.html" target="_top" xlink:title="src/Sprite.cpp">
<polygon fill="white" stroke="black" points="520.5,-112.5 520.5,-131.5 597.5,-131.5 597.5,-112.5 520.5,-112.5"/>
<text text-anchor="middle" x="559" y="-119.5" font-family="Helvetica,sans-Serif" font-size="10.00">src/Sprite.cpp</text>
</a>
</g>
</g>
<!-- Node5&#45;&gt;Node12 -->
<g id="edge11" class="edge"><title>Node5&#45;&gt;Node12</title>
<path fill="none" stroke="midnightblue" d="M658.146,-164.503C633.962,-154.38 600.538,-140.388 579.345,-131.516"/>
<polygon fill="midnightblue" stroke="midnightblue" points="656.984,-167.811 667.56,-168.444 659.687,-161.354 656.984,-167.811"/>
</g>
<!-- Node13 -->
<g id="node12" class="node"><title>Node13</title>
<g id="a_node12"><a xlink:href="State_8cpp.html" target="_top" xlink:title="src/State.cpp">
<polygon fill="white" stroke="black" points="789.5,-112.5 789.5,-131.5 864.5,-131.5 864.5,-112.5 789.5,-112.5"/>
<text text-anchor="middle" x="827" y="-119.5" font-family="Helvetica,sans-Serif" font-size="10.00">src/State.cpp</text>
</a>
</g>
</g>
<!-- Node5&#45;&gt;Node13 -->
<g id="edge12" class="edge"><title>Node5&#45;&gt;Node13</title>
<path fill="none" stroke="midnightblue" d="M719.476,-164.772C745.585,-154.629 782.039,-140.467 805.078,-131.516"/>
<polygon fill="midnightblue" stroke="midnightblue" points="718.079,-161.56 710.025,-168.444 720.614,-168.085 718.079,-161.56"/>
</g>
<!-- Node6&#45;&gt;Node7 -->
<g id="edge5" class="edge"><title>Node6&#45;&gt;Node7</title>
<path fill="none" stroke="midnightblue" d="M516.935,-47.8554C510.355,-38.5048 502.489,-27.3265 497.158,-19.7511"/>
<polygon fill="midnightblue" stroke="midnightblue" points="514.108,-49.9192 522.725,-56.083 519.832,-45.8907 514.108,-49.9192"/>
</g>
<!-- Node15&#45;&gt;Node12 -->
<g id="edge20" class="edge"><title>Node15&#45;&gt;Node12</title>
<path fill="none" stroke="midnightblue" d="M1039.78,-173.831C950.561,-168.044 763.168,-154.271 606,-132 603.285,-131.615 600.49,-131.18 597.679,-130.714"/>
<polygon fill="midnightblue" stroke="midnightblue" points="1039.71,-177.333 1049.91,-174.481 1040.15,-170.348 1039.71,-177.333"/>
</g>
<!-- Node16 -->
<g id="node15" class="node"><title>Node16</title>
<g id="a_node15"><a xlink:href="Animation_8h.html" target="_top" xlink:title="include/Animation.h">
<polygon fill="white" stroke="black" points="1114,-112.5 1114,-131.5 1216,-131.5 1216,-112.5 1114,-112.5"/>
<text text-anchor="middle" x="1165" y="-119.5" font-family="Helvetica,sans-Serif" font-size="10.00">include/Animation.h</text>
</a>
</g>
</g>
<!-- Node15&#45;&gt;Node16 -->
<g id="edge15" class="edge"><title>Node15&#45;&gt;Node16</title>
<path fill="none" stroke="midnightblue" d="M1112.14,-162.101C1125.28,-152.382 1141.98,-140.027 1153.06,-131.834"/>
<polygon fill="midnightblue" stroke="midnightblue" points="1109.69,-159.563 1103.73,-168.324 1113.85,-165.191 1109.69,-159.563"/>
</g>
<!-- Node15&#45;&gt;Node17 -->
<g id="edge17" class="edge"><title>Node15&#45;&gt;Node17</title>
<path fill="none" stroke="midnightblue" d="M1079.3,-159.855C1072.37,-150.505 1064.09,-139.327 1058.48,-131.751"/>
<polygon fill="midnightblue" stroke="midnightblue" points="1076.63,-162.131 1085.39,-168.083 1082.25,-157.964 1076.63,-162.131"/>
</g>
<!-- Node16&#45;&gt;Node8 -->
<g id="edge16" class="edge"><title>Node16&#45;&gt;Node8</title>
<path fill="none" stroke="midnightblue" d="M1105.56,-110.712C1046.05,-100.412 955.638,-84.7643 900.671,-75.2508"/>
<polygon fill="midnightblue" stroke="midnightblue" points="1105.11,-114.187 1115.56,-112.444 1106.31,-107.289 1105.11,-114.187"/>
</g>
<!-- Node17&#45;&gt;Node6 -->
<g id="edge18" class="edge"><title>Node17&#45;&gt;Node6</title>
<path fill="none" stroke="midnightblue" d="M997.724,-112.062C836.411,-91.1793 658.467,-76.6607 575.719,-70.4011"/>
<polygon fill="midnightblue" stroke="midnightblue" points="997.464,-115.558 1007.83,-113.382 998.37,-108.617 997.464,-115.558"/>
</g>
<!-- Node18 -->
<g id="node17" class="node"><title>Node18</title>
<g id="a_node17"><a xlink:href="Tileset_8cpp.html" target="_top" xlink:title="src/Tileset.cpp">
<polygon fill="white" stroke="black" points="1011.5,-56.5 1011.5,-75.5 1092.5,-75.5 1092.5,-56.5 1011.5,-56.5"/>
<text text-anchor="middle" x="1052" y="-63.5" font-family="Helvetica,sans-Serif" font-size="10.00">src/Tileset.cpp</text>
</a>
</g>
</g>
<!-- Node17&#45;&gt;Node18 -->
<g id="edge19" class="edge"><title>Node17&#45;&gt;Node18</title>
<path fill="none" stroke="midnightblue" d="M1052,-101.805C1052,-92.9102 1052,-82.7798 1052,-75.7511"/>
<polygon fill="midnightblue" stroke="midnightblue" points="1048.5,-102.083 1052,-112.083 1055.5,-102.083 1048.5,-102.083"/>
</g>
<!-- Node19&#45;&gt;Node13 -->
<g id="edge30" class="edge"><title>Node19&#45;&gt;Node13</title>
<path fill="none" stroke="midnightblue" d="M805.409,-214.348C811.104,-190.254 820.782,-149.308 824.969,-131.591"/>
<polygon fill="midnightblue" stroke="midnightblue" points="801.934,-213.832 803.04,-224.368 808.747,-215.442 801.934,-213.832"/>
</g>
<!-- Node19&#45;&gt;Node20 -->
<g id="edge23" class="edge"><title>Node19&#45;&gt;Node20</title>
<path fill="none" stroke="midnightblue" d="M749.62,-225.592C689.15,-216.829 585.724,-201.696 497,-188 492.718,-187.339 488.254,-186.639 483.796,-185.934"/>
<polygon fill="midnightblue" stroke="midnightblue" points="749.274,-229.079 759.672,-227.048 750.277,-222.151 749.274,-229.079"/>
</g>
<!-- Node20&#45;&gt;Node9 -->
<g id="edge24" class="edge"><title>Node20&#45;&gt;Node9</title>
<path fill="none" stroke="midnightblue" d="M388.287,-166.535C336.917,-156.336 259.768,-141.02 211.998,-131.536"/>
<polygon fill="midnightblue" stroke="midnightblue" points="387.711,-169.989 398.201,-168.503 389.074,-163.123 387.711,-169.989"/>
</g>
<!-- Node20&#45;&gt;Node11 -->
<g id="edge26" class="edge"><title>Node20&#45;&gt;Node11</title>
<path fill="none" stroke="midnightblue" d="M487.803,-166.153C531.827,-155.95 596.847,-140.881 637.253,-131.516"/>
<polygon fill="midnightblue" stroke="midnightblue" points="486.871,-162.776 477.92,-168.444 488.452,-169.595 486.871,-162.776"/>
</g>
<!-- Node20&#45;&gt;Node12 -->
<g id="edge28" class="edge"><title>Node20&#45;&gt;Node12</title>
<path fill="none" stroke="midnightblue" d="M468.9,-164.232C490.973,-154.131 521.176,-140.309 540.39,-131.516"/>
<polygon fill="midnightblue" stroke="midnightblue" points="467.334,-161.1 459.697,-168.444 470.247,-167.465 467.334,-161.1"/>
</g>
<!-- Node21 -->
<g id="node20" class="node"><title>Node21</title>
<g id="a_node20"><a xlink:href="Game_8cpp.html" target="_top" xlink:title="src/Game.cpp">
<polygon fill="white" stroke="black" points="348,-112.5 348,-131.5 426,-131.5 426,-112.5 348,-112.5"/>
<text text-anchor="middle" x="387" y="-119.5" font-family="Helvetica,sans-Serif" font-size="10.00">src/Game.cpp</text>
</a>
</g>
</g>
<!-- Node20&#45;&gt;Node21 -->
<g id="edge25" class="edge"><title>Node20&#45;&gt;Node21</title>
<path fill="none" stroke="midnightblue" d="M425.002,-161.002C415.433,-151.433 403.639,-139.639 395.751,-131.751"/>
<polygon fill="midnightblue" stroke="midnightblue" points="422.537,-163.487 432.083,-168.083 427.487,-158.537 422.537,-163.487"/>
</g>
<!-- Node22 -->
<g id="node21" class="node"><title>Node22</title>
<g id="a_node21"><a xlink:href="Resources_8cpp.html" target="_top" xlink:title="src/Resources.cpp">
<polygon fill="white" stroke="black" points="230.5,-112.5 230.5,-131.5 329.5,-131.5 329.5,-112.5 230.5,-112.5"/>
<text text-anchor="middle" x="280" y="-119.5" font-family="Helvetica,sans-Serif" font-size="10.00">src/Resources.cpp</text>
</a>
</g>
</g>
<!-- Node20&#45;&gt;Node22 -->
<g id="edge27" class="edge"><title>Node20&#45;&gt;Node22</title>
<path fill="none" stroke="midnightblue" d="M405.735,-165.172C375.419,-155.004 332.43,-140.585 305.392,-131.516"/>
<polygon fill="midnightblue" stroke="midnightblue" points="404.895,-168.582 415.489,-168.444 407.121,-161.945 404.895,-168.582"/>
</g>
<!-- Node23 -->
<g id="node22" class="node"><title>Node23</title>
<g id="a_node22"><a xlink:href="Text_8cpp.html" target="_top" xlink:title="src/Text.cpp">
<polygon fill="white" stroke="black" points="1234.5,-112.5 1234.5,-131.5 1305.5,-131.5 1305.5,-112.5 1234.5,-112.5"/>
<text text-anchor="middle" x="1270" y="-119.5" font-family="Helvetica,sans-Serif" font-size="10.00">src/Text.cpp</text>
</a>
</g>
</g>
<!-- Node20&#45;&gt;Node23 -->
<g id="edge29" class="edge"><title>Node20&#45;&gt;Node23</title>
<path fill="none" stroke="midnightblue" d="M493.739,-168.359C494.835,-168.233 495.923,-168.113 497,-168 819.188,-134.247 903.513,-171.875 1225,-132 1228,-131.627 1231.11,-131.167 1234.22,-130.653"/>
<polygon fill="midnightblue" stroke="midnightblue" points="493.217,-164.897 483.74,-169.635 494.103,-171.84 493.217,-164.897"/>
</g>
<!-- Node25 -->
<g id="node24" class="node"><title>Node25</title>
<g id="a_node24"><a xlink:href="Music_8cpp.html" target="_top" xlink:title="src/Music.cpp">
<polygon fill="white" stroke="black" points="260,-168.5 260,-187.5 338,-187.5 338,-168.5 260,-168.5"/>
<text text-anchor="middle" x="299" y="-175.5" font-family="Helvetica,sans-Serif" font-size="10.00">src/Music.cpp</text>
</a>
</g>
</g>
<!-- Node24&#45;&gt;Node25 -->
<g id="edge33" class="edge"><title>Node24&#45;&gt;Node25</title>
<path fill="none" stroke="midnightblue" d="M299,-213.805C299,-204.91 299,-194.78 299,-187.751"/>
<polygon fill="midnightblue" stroke="midnightblue" points="295.5,-214.083 299,-224.083 302.5,-214.083 295.5,-214.083"/>
</g>
<!-- Node28&#45;&gt;Node15 -->
<g id="edge65" class="edge"><title>Node28&#45;&gt;Node15</title>
<path fill="none" stroke="midnightblue" d="M1278.69,-343.813C1239.42,-340.417 1185.56,-330.034 1149,-300 1112.04,-269.633 1097.65,-209.788 1093.44,-187.569"/>
<polygon fill="midnightblue" stroke="midnightblue" points="1278.62,-347.317 1288.85,-344.564 1279.13,-340.336 1278.62,-347.317"/>
</g>
<!-- Node28&#45;&gt;Node17 -->
<g id="edge67" class="edge"><title>Node28&#45;&gt;Node17</title>
<path fill="none" stroke="midnightblue" d="M1278.74,-343.134C1235.75,-339.454 1173.75,-329.022 1128,-300 1074.77,-266.236 1061.44,-247.626 1041,-188 1034.32,-168.512 1042.47,-144.294 1047.9,-131.632"/>
<polygon fill="midnightblue" stroke="midnightblue" points="1278.73,-346.644 1288.97,-343.914 1279.26,-339.664 1278.73,-346.644"/>
</g>
<!-- Node29 -->
<g id="node28" class="node"><title>Node29</title>
<g id="a_node28"><a xlink:href="GameObject_8h.html" target="_top" xlink:title="include/GameObject.h">
<polygon fill="white" stroke="black" points="1272.5,-280.5 1272.5,-299.5 1385.5,-299.5 1385.5,-280.5 1272.5,-280.5"/>
<text text-anchor="middle" x="1329" y="-287.5" font-family="Helvetica,sans-Serif" font-size="10.00">include/GameObject.h</text>
</a>
</g>
</g>
<!-- Node28&#45;&gt;Node29 -->
<g id="edge38" class="edge"><title>Node28&#45;&gt;Node29</title>
<path fill="none" stroke="midnightblue" d="M1329,-325.805C1329,-316.91 1329,-306.78 1329,-299.751"/>
<polygon fill="midnightblue" stroke="midnightblue" points="1325.5,-326.083 1329,-336.083 1332.5,-326.083 1325.5,-326.083"/>
</g>
<!-- Node33 -->
<g id="node32" class="node"><title>Node33</title>
<g id="a_node32"><a xlink:href="Grouper_8cpp.html" target="_top" xlink:title="src/Grouper.cpp">
<polygon fill="white" stroke="black" points="1772,-112.5 1772,-131.5 1858,-131.5 1858,-112.5 1772,-112.5"/>
<text text-anchor="middle" x="1815" y="-119.5" font-family="Helvetica,sans-Serif" font-size="10.00">src/Grouper.cpp</text>
</a>
</g>
</g>
<!-- Node28&#45;&gt;Node33 -->
<g id="edge69" class="edge"><title>Node28&#45;&gt;Node33</title>
<path fill="none" stroke="midnightblue" d="M1379.69,-340.21C1435.09,-334.155 1526.09,-321.795 1602,-300 1726.08,-264.373 1798.45,-295.451 1870,-188 1884.5,-166.222 1852.66,-143.486 1831.62,-131.528"/>
<polygon fill="midnightblue" stroke="midnightblue" points="1379,-336.763 1369.43,-341.303 1379.75,-343.724 1379,-336.763"/>
</g>
<!-- Node28&#45;&gt;Node34 -->
<g id="edge68" class="edge"><title>Node28&#45;&gt;Node34</title>
<path fill="none" stroke="midnightblue" d="M1379.27,-342.694C1450.33,-336.842 1580.38,-316.247 1660,-244 1676.74,-228.808 1683.88,-201.875 1686.57,-187.927"/>
<polygon fill="midnightblue" stroke="midnightblue" points="1378.93,-339.209 1369.22,-343.454 1379.46,-346.189 1378.93,-339.209"/>
</g>
<!-- Node38 -->
<g id="node37" class="node"><title>Node38</title>
<g id="a_node37"><a xlink:href="Collision_8h.html" target="_top" xlink:title="include/Collision.h">
<polygon fill="white" stroke="black" points="1158,-280.5 1158,-299.5 1254,-299.5 1254,-280.5 1158,-280.5"/>
<text text-anchor="middle" x="1206" y="-287.5" font-family="Helvetica,sans-Serif" font-size="10.00">include/Collision.h</text>
</a>
</g>
</g>
<!-- Node28&#45;&gt;Node38 -->
<g id="edge66" class="edge"><title>Node28&#45;&gt;Node38</title>
<path fill="none" stroke="midnightblue" d="M1300.23,-332.368C1277.19,-322.255 1245.52,-308.349 1225.4,-299.516"/>
<polygon fill="midnightblue" stroke="midnightblue" points="1298.95,-335.628 1309.51,-336.444 1301.76,-329.219 1298.95,-335.628"/>
</g>
<!-- Node39 -->
<g id="node38" class="node"><title>Node39</title>
<g id="a_node38"><a xlink:href="Rect_8cpp.html" target="_top" xlink:title="src/Rect.cpp">
<polygon fill="white" stroke="black" points="1403.5,-280.5 1403.5,-299.5 1476.5,-299.5 1476.5,-280.5 1403.5,-280.5"/>
<text text-anchor="middle" x="1440" y="-287.5" font-family="Helvetica,sans-Serif" font-size="10.00">src/Rect.cpp</text>
</a>
</g>
</g>
<!-- Node28&#45;&gt;Node39 -->
<g id="edge70" class="edge"><title>Node28&#45;&gt;Node39</title>
<path fill="none" stroke="midnightblue" d="M1356.01,-331.862C1376.59,-321.849 1404.34,-308.346 1422.21,-299.655"/>
<polygon fill="midnightblue" stroke="midnightblue" points="1354.3,-328.802 1346.83,-336.324 1357.36,-335.097 1354.3,-328.802"/>
</g>
<!-- Node29&#45;&gt;Node5 -->
<g id="edge58" class="edge"><title>Node29&#45;&gt;Node5</title>
<path fill="none" stroke="midnightblue" d="M1262.44,-279.955C1131.19,-263.298 1096.06,-266.21 970,-244 878.462,-227.872 771.956,-201.109 719.919,-187.504"/>
<polygon fill="midnightblue" stroke="midnightblue" points="1262.12,-283.441 1272.48,-281.243 1263.01,-276.498 1262.12,-283.441"/>
</g>
<!-- Node29&#45;&gt;Node10 -->
<g id="edge64" class="edge"><title>Node29&#45;&gt;Node10</title>
<path fill="none" stroke="midnightblue" d="M1288.16,-277.732C1231.32,-261.37 1125.79,-228.518 1041,-188 1005.6,-171.083 967.156,-145.137 948.109,-131.715"/>
<polygon fill="midnightblue" stroke="midnightblue" points="1287.28,-281.12 1297.86,-280.499 1289.2,-274.389 1287.28,-281.12"/>
</g>
<!-- Node29&#45;&gt;Node16 -->
<g id="edge39" class="edge"><title>Node29&#45;&gt;Node16</title>
<path fill="none" stroke="midnightblue" d="M1296.71,-276.454C1261.98,-261.143 1208.09,-231.761 1181,-188 1169.87,-170.015 1166.48,-144.75 1165.45,-131.645"/>
<polygon fill="midnightblue" stroke="midnightblue" points="1295.39,-279.696 1305.96,-280.4 1298.14,-273.257 1295.39,-279.696"/>
</g>
<!-- Node29&#45;&gt;Node19 -->
<g id="edge59" class="edge"><title>Node29&#45;&gt;Node19</title>
<path fill="none" stroke="midnightblue" d="M1262.34,-279.984C1080.82,-259.968 1032.92,-266.269 856,-244 851.488,-243.432 846.779,-242.769 842.097,-242.066"/>
<polygon fill="midnightblue" stroke="midnightblue" points="1262.17,-283.487 1272.5,-281.116 1262.95,-276.53 1262.17,-283.487"/>
</g>
<!-- Node30 -->
<g id="node29" class="node"><title>Node30</title>
<g id="a_node29"><a xlink:href="Component_8h.html" target="_top" xlink:title="include/Component.h">
<polygon fill="white" stroke="black" points="1274.5,-224.5 1274.5,-243.5 1383.5,-243.5 1383.5,-224.5 1274.5,-224.5"/>
<text text-anchor="middle" x="1329" y="-231.5" font-family="Helvetica,sans-Serif" font-size="10.00">include/Component.h</text>
</a>
</g>
</g>
<!-- Node29&#45;&gt;Node30 -->
<g id="edge40" class="edge"><title>Node29&#45;&gt;Node30</title>
<path fill="none" stroke="midnightblue" d="M1322.53,-270.101C1321.9,-261.136 1322.34,-250.858 1323.87,-243.751"/>
<polygon fill="midnightblue" stroke="midnightblue" points="1319.07,-270.622 1323.83,-280.083 1326.01,-269.713 1319.07,-270.622"/>
</g>
<!-- Node31 -->
<g id="node30" class="node"><title>Node31</title>
<g id="a_node30"><a xlink:href="Button_8h.html" target="_top" xlink:title="include/Button.h">
<polygon fill="white" stroke="black" points="1520.5,-168.5 1520.5,-187.5 1607.5,-187.5 1607.5,-168.5 1520.5,-168.5"/>
<text text-anchor="middle" x="1564" y="-175.5" font-family="Helvetica,sans-Serif" font-size="10.00">include/Button.h</text>
</a>
</g>
</g>
<!-- Node29&#45;&gt;Node31 -->
<g id="edge57" class="edge"><title>Node29&#45;&gt;Node31</title>
<path fill="none" stroke="midnightblue" d="M1349.83,-274.552C1370.88,-260.387 1404.68,-238.82 1436,-224 1468.58,-208.585 1507.93,-195.522 1534.33,-187.506"/>
<polygon fill="midnightblue" stroke="midnightblue" points="1347.67,-271.788 1341.37,-280.308 1351.61,-277.575 1347.67,-271.788"/>
</g>
<!-- Node29&#45;&gt;Node32 -->
<g id="edge60" class="edge"><title>Node29&#45;&gt;Node32</title>
<path fill="none" stroke="midnightblue" d="M1369.4,-277.555C1397.21,-269.256 1434.82,-257.208 1467,-244 1485.39,-236.454 1488.03,-229.926 1507,-224 1614.99,-190.266 1647.14,-204.977 1759,-188 1762.02,-187.542 1765.13,-187.063 1768.26,-186.575"/>
<polygon fill="midnightblue" stroke="midnightblue" points="1368.22,-274.253 1359.62,-280.438 1370.2,-280.967 1368.22,-274.253"/>
</g>
<!-- Node29&#45;&gt;Node34 -->
<g id="edge62" class="edge"><title>Node29&#45;&gt;Node34</title>
<path fill="none" stroke="midnightblue" d="M1358.42,-276.448C1379.08,-267.559 1407.33,-255.261 1432,-244 1450.81,-235.416 1454.41,-230.618 1474,-224 1525.07,-206.743 1585.33,-194.785 1628.87,-187.557"/>
<polygon fill="midnightblue" stroke="midnightblue" points="1357.03,-273.237 1349.22,-280.398 1359.79,-279.67 1357.03,-273.237"/>
</g>
<!-- Node29&#45;&gt;Node35 -->
<g id="edge63" class="edge"><title>Node29&#45;&gt;Node35</title>
<path fill="none" stroke="midnightblue" d="M1303.95,-275.113C1291.21,-267.181 1276.1,-256.359 1265,-244 1249.31,-226.534 1237.73,-201.05 1232.35,-187.776"/>
<polygon fill="midnightblue" stroke="midnightblue" points="1302.35,-278.231 1312.73,-280.358 1305.94,-272.223 1302.35,-278.231"/>
</g>
<!-- Node29&#45;&gt;Node37 -->
<g id="edge61" class="edge"><title>Node29&#45;&gt;Node37</title>
<path fill="none" stroke="midnightblue" d="M1379.31,-278.346C1427.5,-268.141 1499.28,-252.94 1543.78,-243.516"/>
<polygon fill="midnightblue" stroke="midnightblue" points="1378.46,-274.948 1369.41,-280.444 1379.91,-281.796 1378.46,-274.948"/>
</g>
<!-- Node30&#45;&gt;Node6 -->
<g id="edge46" class="edge"><title>Node30&#45;&gt;Node6</title>
<path fill="none" stroke="midnightblue" d="M1333.15,-214.336C1337.92,-187.417 1341.86,-138.074 1314,-112 1300.44,-99.3118 742.643,-75.676 575.716,-68.875"/>
<polygon fill="midnightblue" stroke="midnightblue" points="1329.68,-213.874 1331.15,-224.366 1336.54,-215.245 1329.68,-213.874"/>
</g>
<!-- Node30&#45;&gt;Node7 -->
<g id="edge45" class="edge"><title>Node30&#45;&gt;Node7</title>
<path fill="none" stroke="midnightblue" d="M1339.76,-215.685C1344.18,-207.595 1348.77,-197.637 1351,-188 1358.78,-154.37 1359.93,-135.873 1335,-112 1257.76,-38.0429 1206.67,-72.4315 1101,-56 900.585,-24.8348 659.667,-15.1244 550.246,-12.2025"/>
<polygon fill="midnightblue" stroke="midnightblue" points="1336.65,-214.078 1334.64,-224.481 1342.7,-217.603 1336.65,-214.078"/>
</g>
<!-- Node30&#45;&gt;Node15 -->
<g id="edge42" class="edge"><title>Node30&#45;&gt;Node15</title>
<path fill="none" stroke="midnightblue" d="M1281.68,-222.217C1236.89,-212.013 1170.56,-196.901 1129.38,-187.516"/>
<polygon fill="midnightblue" stroke="midnightblue" points="1280.92,-225.634 1291.45,-224.444 1282.47,-218.809 1280.92,-225.634"/>
</g>
<!-- Node30&#45;&gt;Node29 -->
<g id="edge41" class="edge"><title>Node30&#45;&gt;Node29</title>
<path fill="none" stroke="midnightblue" d="M1335.46,-253.691C1336.11,-262.635 1335.68,-272.927 1334.17,-280.083"/>
<polygon fill="midnightblue" stroke="midnightblue" points="1338.92,-253.2 1334.13,-243.751 1331.98,-254.126 1338.92,-253.2"/>
</g>
<!-- Node30&#45;&gt;Node31 -->
<g id="edge43" class="edge"><title>Node30&#45;&gt;Node31</title>
<path fill="none" stroke="midnightblue" d="M1376.21,-222.153C1420.61,-211.95 1486.19,-196.881 1526.94,-187.516"/>
<polygon fill="midnightblue" stroke="midnightblue" points="1375.2,-218.793 1366.24,-224.444 1376.77,-225.615 1375.2,-218.793"/>
</g>
<!-- Node30&#45;&gt;Node32 -->
<g id="edge47" class="edge"><title>Node30&#45;&gt;Node32</title>
<path fill="none" stroke="midnightblue" d="M1393.95,-227.326C1478.26,-219.704 1629.89,-205.117 1759,-188 1762.03,-187.599 1765.14,-187.163 1768.28,-186.706"/>
<polygon fill="midnightblue" stroke="midnightblue" points="1393.4,-223.861 1383.76,-228.243 1394.03,-230.833 1393.4,-223.861"/>
</g>
<!-- Node30&#45;&gt;Node34 -->
<g id="edge49" class="edge"><title>Node30&#45;&gt;Node34</title>
<path fill="none" stroke="midnightblue" d="M1393.66,-223.275C1461.45,-213.078 1566.91,-197.215 1631.48,-187.502"/>
<polygon fill="midnightblue" stroke="midnightblue" points="1392.89,-219.85 1383.52,-224.799 1393.93,-226.772 1392.89,-219.85"/>
</g>
<!-- Node30&#45;&gt;Node35 -->
<g id="edge54" class="edge"><title>Node30&#45;&gt;Node35</title>
<path fill="none" stroke="midnightblue" d="M1303.91,-219.453C1285.45,-209.483 1260.9,-196.228 1245.03,-187.655"/>
<polygon fill="midnightblue" stroke="midnightblue" points="1302.47,-222.652 1312.93,-224.324 1305.8,-216.493 1302.47,-222.652"/>
</g>
<!-- Node36 -->
<g id="node35" class="node"><title>Node36</title>
<g id="a_node35"><a xlink:href="Component_8cpp.html" target="_top" xlink:title="src/Component.cpp">
<polygon fill="white" stroke="black" points="1400,-168.5 1400,-187.5 1502,-187.5 1502,-168.5 1400,-168.5"/>
<text text-anchor="middle" x="1451" y="-175.5" font-family="Helvetica,sans-Serif" font-size="10.00">src/Component.cpp</text>
</a>
</g>
</g>
<!-- Node30&#45;&gt;Node36 -->
<g id="edge56" class="edge"><title>Node30&#45;&gt;Node36</title>
<path fill="none" stroke="midnightblue" d="M1357.54,-220.368C1380.39,-210.255 1411.81,-196.349 1431.76,-187.516"/>
<polygon fill="midnightblue" stroke="midnightblue" points="1356.06,-217.196 1348.33,-224.444 1358.89,-223.597 1356.06,-217.196"/>
</g>
<!-- Node31&#45;&gt;Node26 -->
<g id="edge44" class="edge"><title>Node31&#45;&gt;Node26</title>
<path fill="none" stroke="midnightblue" d="M1581.75,-161.537C1592.81,-151.909 1606.63,-139.869 1615.86,-131.834"/>
<polygon fill="midnightblue" stroke="midnightblue" points="1579.2,-159.117 1573.96,-168.324 1583.8,-164.395 1579.2,-159.117"/>
</g>
<!-- Node32&#45;&gt;Node33 -->
<g id="edge48" class="edge"><title>Node32&#45;&gt;Node33</title>
<path fill="none" stroke="midnightblue" d="M1815,-157.805C1815,-148.91 1815,-138.78 1815,-131.751"/>
<polygon fill="midnightblue" stroke="midnightblue" points="1811.5,-158.083 1815,-168.083 1818.5,-158.083 1811.5,-158.083"/>
</g>
<!-- Node34&#45;&gt;Node11 -->
<g id="edge52" class="edge"><title>Node34&#45;&gt;Node11</title>
<path fill="none" stroke="midnightblue" d="M1616.31,-168.026C1616.2,-168.017 1616.1,-168.009 1616,-168 1245.4,-136.91 1151.14,-155.737 780,-132 764.61,-131.016 747.982,-129.716 732.562,-128.411"/>
<polygon fill="midnightblue" stroke="midnightblue" points="1615.7,-171.485 1625.98,-168.923 1616.35,-164.514 1615.7,-171.485"/>
</g>
<!-- Node34&#45;&gt;Node23 -->
<g id="edge53" class="edge"><title>Node34&#45;&gt;Node23</title>
<path fill="none" stroke="midnightblue" d="M1615.7,-167.66C1525.28,-155.979 1374.07,-136.445 1305.61,-127.6"/>
<polygon fill="midnightblue" stroke="midnightblue" points="1615.51,-171.164 1625.87,-168.974 1616.4,-164.222 1615.51,-171.164"/>
</g>
<!-- Node34&#45;&gt;Node26 -->
<g id="edge50" class="edge"><title>Node34&#45;&gt;Node26</title>
<path fill="none" stroke="midnightblue" d="M1670.25,-161.537C1659.19,-151.909 1645.37,-139.869 1636.14,-131.834"/>
<polygon fill="midnightblue" stroke="midnightblue" points="1668.2,-164.395 1678.04,-168.324 1672.8,-159.117 1668.2,-164.395"/>
</g>
<!-- Node34&#45;&gt;Node33 -->
<g id="edge51" class="edge"><title>Node34&#45;&gt;Node33</title>
<path fill="none" stroke="midnightblue" d="M1717.39,-164.503C1741.2,-154.38 1774.11,-140.388 1794.97,-131.516"/>
<polygon fill="midnightblue" stroke="midnightblue" points="1715.96,-161.31 1708.12,-168.444 1718.7,-167.751 1715.96,-161.31"/>
</g>
<!-- Node35&#45;&gt;Node23 -->
<g id="edge55" class="edge"><title>Node35&#45;&gt;Node23</title>
<path fill="none" stroke="midnightblue" d="M1242.02,-159.855C1249.12,-150.505 1257.6,-139.327 1263.36,-131.751"/>
<polygon fill="midnightblue" stroke="midnightblue" points="1239.03,-158.002 1235.77,-168.083 1244.61,-162.235 1239.03,-158.002"/>
</g>
<!-- Node41 -->
<g id="node40" class="node"><title>Node41</title>
<g id="a_node40"><a xlink:href="ManhattanDistance_8h.html" target="_top" xlink:title="include/ManhattanDistance.h">
<polygon fill="white" stroke="black" points="1956.5,-280.5 1956.5,-299.5 2099.5,-299.5 2099.5,-280.5 1956.5,-280.5"/>
<text text-anchor="middle" x="2028" y="-287.5" font-family="Helvetica,sans-Serif" font-size="10.00">include/ManhattanDistance.h</text>
</a>
</g>
</g>
<!-- Node40&#45;&gt;Node41 -->
<g id="edge72" class="edge"><title>Node40&#45;&gt;Node41</title>
<path fill="none" stroke="midnightblue" d="M2020.85,-326.101C2022.68,-317.136 2024.77,-306.858 2026.22,-299.751"/>
<polygon fill="midnightblue" stroke="midnightblue" points="2017.38,-325.586 2018.82,-336.083 2024.24,-326.983 2017.38,-325.586"/>
</g>
<!-- Node42 -->
<g id="node41" class="node"><title>Node42</title>
<g id="a_node41"><a xlink:href="ManhattanDistance_8cpp.html" target="_top" xlink:title="src/ManhattanDistance.cpp">
<polygon fill="white" stroke="black" points="1959.5,-224.5 1959.5,-243.5 2096.5,-243.5 2096.5,-224.5 1959.5,-224.5"/>
<text text-anchor="middle" x="2028" y="-231.5" font-family="Helvetica,sans-Serif" font-size="10.00">src/ManhattanDistance.cpp</text>
</a>
</g>
</g>
<!-- Node41&#45;&gt;Node42 -->
<g id="edge73" class="edge"><title>Node41&#45;&gt;Node42</title>
<path fill="none" stroke="midnightblue" d="M2028,-269.805C2028,-260.91 2028,-250.78 2028,-243.751"/>
<polygon fill="midnightblue" stroke="midnightblue" points="2024.5,-270.083 2028,-280.083 2031.5,-270.083 2024.5,-270.083"/>
</g>
<!-- Node43&#45;&gt;Node6 -->
<g id="edge76" class="edge"><title>Node43&#45;&gt;Node6</title>
<path fill="none" stroke="midnightblue" d="M60,-326.251C60,-304.357 60,-267.052 60,-235 60,-235 60,-235 60,-177 60,-138.577 82.9159,-129.737 117,-112 179.631,-79.4068 388.359,-70.3401 482.381,-67.8833"/>
<polygon fill="midnightblue" stroke="midnightblue" points="56.5001,-326.442 60,-336.442 63.5001,-326.442 56.5001,-326.442"/>
</g>
</g>
</svg>
